<?xml version="1.0" encoding="utf-8" standalone="no"?>
<!DOCTYPE svg PUBLIC "-//W3C//DTD SVG 1.1//EN"
  "http://www.w3.org/Graphics/SVG/1.1/DTD/svg11.dtd">
<!-- Created with matplotlib (http://matplotlib.org/) -->
<svg height="437pt" version="1.1" viewBox="0 0 839 437" width="839pt" xmlns="http://www.w3.org/2000/svg" xmlns:xlink="http://www.w3.org/1999/xlink">
 <defs>
  <style type="text/css">
*{stroke-linecap:butt;stroke-linejoin:round;stroke-miterlimit:100000;}
  </style>
 </defs>
 <g id="figure_1">
  <g id="patch_1">
   <path d="M 0 437.832282 
L 839.751309 437.832282 
L 839.751309 0 
L 0 0 
z
" style="fill:#ffffff;"/>
  </g>
  <g id="axes_1">
   <g id="patch_2">
    <path d="M 103.413214 376.056315 
L 823.413214 376.056315 
L 823.413214 16.056315 
L 103.413214 16.056315 
z
" style="fill:#eaeaf2;"/>
   </g>
   <g id="matplotlib.axis_1">
    <g id="xtick_1">
     <g id="line2d_1">
      <path clip-path="url(#p492f7bad60)" d="M 180.556071 376.056315 
L 180.556071 16.056315 
" style="fill:none;stroke:#ffffff;stroke-linecap:round;"/>
     </g>
     <g id="line2d_2">
      <defs>
       <path d="M 0 0 
L 0 0 
" id="m9e5e9ed425" style="stroke:#262626;"/>
      </defs>
      <g>
       <use style="fill:#262626;stroke:#262626;" x="180.556070654" xlink:href="#m9e5e9ed425" y="376.056315185"/>
      </g>
     </g>
     <g id="line2d_3">
      <g>
       <use style="fill:#262626;stroke:#262626;" x="180.556070654" xlink:href="#m9e5e9ed425" y="16.0563151852"/>
      </g>
     </g>
     <g id="text_1">
      <!-- $5$ -->
      <defs>
       <path d="M 11.40625 57.6875 
C 12.40625 57.28125 16.5 56 20.703125 56 
C 30 56 35.09375 61.109375 38 64.0625 
C 38 64.953125 38 65.5 37.40625 65.5 
C 37.296875 65.5 37.09375 65.5 36.296875 65.046875 
C 32.796875 63.40625 28.703125 62.078125 23.703125 62.078125 
C 20.703125 62.078125 16.203125 62.484375 11.296875 64.671875 
C 10.203125 65.171875 10 65.171875 9.90625 65.171875 
C 9.40625 65.171875 9.296875 65.0625 9.296875 63.078125 
L 9.296875 34.421875 
C 9.296875 32.640625 9.296875 32.140625 10.296875 32.140625 
C 10.796875 32.140625 11 32.34375 11.5 33.03125 
C 14.703125 37.515625 19.09375 39.40625 24.09375 39.40625 
C 27.59375 39.40625 35.09375 37.21875 35.09375 20.140625 
C 35.09375 16.953125 35.09375 11.171875 32.09375 6.578125 
C 29.59375 2.484375 25.703125 0.390625 21.40625 0.390625 
C 14.796875 0.390625 8.09375 5 6.296875 12.71875 
C 6.703125 12.609375 7.5 12.421875 7.90625 12.421875 
C 9.203125 12.421875 11.703125 13.125 11.703125 16.21875 
C 11.703125 18.90625 9.796875 20 7.90625 20 
C 5.59375 20 4.09375 18.59375 4.09375 15.796875 
C 4.09375 7.09375 11 -2 21.59375 -2 
C 31.90625 -2 41.703125 6.875 41.703125 19.75 
C 41.703125 31.71875 33.90625 41 24.203125 41 
C 19.09375 41 14.796875 39.109375 11.40625 35.53125 
z
" id="CMR17-53"/>
      </defs>
      <g style="fill:#262626;" transform="translate(175.987022942 396.893311945)scale(0.2 -0.2)">
       <use transform="scale(0.996264009963)" xlink:href="#CMR17-53"/>
      </g>
     </g>
    </g>
    <g id="xtick_2">
     <g id="line2d_4">
      <path clip-path="url(#p492f7bad60)" d="M 309.127499 376.056315 
L 309.127499 16.056315 
" style="fill:none;stroke:#ffffff;stroke-linecap:round;"/>
     </g>
     <g id="line2d_5">
      <g>
       <use style="fill:#262626;stroke:#262626;" x="309.127499225" xlink:href="#m9e5e9ed425" y="376.056315185"/>
      </g>
     </g>
     <g id="line2d_6">
      <g>
       <use style="fill:#262626;stroke:#262626;" x="309.127499225" xlink:href="#m9e5e9ed425" y="16.0563151852"/>
      </g>
     </g>
     <g id="text_2">
      <!-- $10$ -->
      <defs>
       <path d="M 26.59375 63.40625 
C 26.59375 65.5 26.5 65.5 25.09375 65.5 
C 21.203125 61.1875 15.296875 59.796875 9.703125 59.796875 
C 9.40625 59.796875 8.90625 59.796875 8.796875 59.5 
C 8.703125 59.296875 8.703125 59.09375 8.703125 57 
C 11.796875 57 17 57.59375 21 59.984375 
L 21 7.203125 
C 21 3.6875 20.796875 2.5 12.203125 2.5 
L 9.203125 2.5 
L 9.203125 0 
C 14 0 19 0 23.796875 0 
C 28.59375 0 33.59375 0 38.40625 0 
L 38.40625 2.5 
L 35.40625 2.5 
C 26.796875 2.5 26.59375 3.59375 26.59375 7.15625 
z
" id="CMR17-49"/>
       <path d="M 42 31.640625 
C 42 37.75 41.90625 48.125 37.703125 56.109375 
C 34 63.109375 28.09375 65.59375 22.90625 65.59375 
C 18.09375 65.59375 12 63.40625 8.203125 56.203125 
C 4.203125 48.71875 3.796875 39.4375 3.796875 31.640625 
C 3.796875 25.953125 3.90625 17.28125 7 9.671875 
C 11.296875 -0.609375 19 -2 22.90625 -2 
C 27.5 -2 34.5 -0.109375 38.59375 9.375 
C 41.59375 16.28125 42 24.359375 42 31.640625 
M 22.90625 -0.40625 
C 16.5 -0.40625 12.703125 5.078125 11.296875 12.6875 
C 10.203125 18.5625 10.203125 27.15625 10.203125 32.75 
C 10.203125 40.4375 10.203125 46.828125 11.5 52.921875 
C 13.40625 61.390625 19 64 22.90625 64 
C 27 64 32.296875 61.296875 34.203125 53.125 
C 35.5 47.4375 35.59375 40.734375 35.59375 32.75 
C 35.59375 26.25 35.59375 18.265625 34.40625 12.375 
C 32.296875 1.484375 26.40625 -0.40625 22.90625 -0.40625 
" id="CMR17-48"/>
      </defs>
      <g style="fill:#262626;" transform="translate(299.989403802 396.893311945)scale(0.2 -0.2)">
       <use transform="scale(0.996264009963)" xlink:href="#CMR17-49"/>
       <use transform="translate(45.6904771171 0.0)scale(0.996264009963)" xlink:href="#CMR17-48"/>
      </g>
     </g>
    </g>
    <g id="xtick_3">
     <g id="line2d_7">
      <path clip-path="url(#p492f7bad60)" d="M 437.698928 376.056315 
L 437.698928 16.056315 
" style="fill:none;stroke:#ffffff;stroke-linecap:round;"/>
     </g>
     <g id="line2d_8">
      <g>
       <use style="fill:#262626;stroke:#262626;" x="437.698927797" xlink:href="#m9e5e9ed425" y="376.056315185"/>
      </g>
     </g>
     <g id="line2d_9">
      <g>
       <use style="fill:#262626;stroke:#262626;" x="437.698927797" xlink:href="#m9e5e9ed425" y="16.0563151852"/>
      </g>
     </g>
     <g id="text_3">
      <!-- $15$ -->
      <g style="fill:#262626;" transform="translate(428.560832373 396.893311945)scale(0.2 -0.2)">
       <use transform="scale(0.996264009963)" xlink:href="#CMR17-49"/>
       <use transform="translate(45.6904771171 0.0)scale(0.996264009963)" xlink:href="#CMR17-53"/>
      </g>
     </g>
    </g>
    <g id="xtick_4">
     <g id="line2d_10">
      <path clip-path="url(#p492f7bad60)" d="M 566.270356 376.056315 
L 566.270356 16.056315 
" style="fill:none;stroke:#ffffff;stroke-linecap:round;"/>
     </g>
     <g id="line2d_11">
      <g>
       <use style="fill:#262626;stroke:#262626;" x="566.270356368" xlink:href="#m9e5e9ed425" y="376.056315185"/>
      </g>
     </g>
     <g id="line2d_12">
      <g>
       <use style="fill:#262626;stroke:#262626;" x="566.270356368" xlink:href="#m9e5e9ed425" y="16.0563151852"/>
      </g>
     </g>
     <g id="text_4">
      <!-- $20$ -->
      <defs>
       <path d="M 41.703125 15.453125 
L 39.90625 15.453125 
C 38.90625 8.375 38.09375 7.171875 37.703125 6.5625 
C 37.203125 5.765625 30 5.765625 28.59375 5.765625 
L 9.40625 5.765625 
C 13 9.671875 20 16.75 28.5 24.953125 
C 34.59375 30.734375 41.703125 37.53125 41.703125 47.421875 
C 41.703125 59.21875 32.296875 66 21.796875 66 
C 10.796875 66 4.09375 56.3125 4.09375 47.34375 
C 4.09375 43.4375 7 42.9375 8.203125 42.9375 
C 9.203125 42.9375 12.203125 43.546875 12.203125 47.03125 
C 12.203125 50.109375 9.59375 51 8.203125 51 
C 7.59375 51 7 50.90625 6.59375 50.703125 
C 8.5 59.21875 14.296875 63.40625 20.40625 63.40625 
C 29.09375 63.40625 34.796875 56.515625 34.796875 47.421875 
C 34.796875 38.734375 29.703125 31.25 24 24.75 
L 4.09375 2.28125 
L 4.09375 0 
L 39.296875 0 
z
" id="CMR17-50"/>
      </defs>
      <g style="fill:#262626;" transform="translate(557.132260945 396.893311945)scale(0.2 -0.2)">
       <use transform="scale(0.996264009963)" xlink:href="#CMR17-50"/>
       <use transform="translate(45.6904771171 0.0)scale(0.996264009963)" xlink:href="#CMR17-48"/>
      </g>
     </g>
    </g>
    <g id="xtick_5">
     <g id="line2d_13">
      <path clip-path="url(#p492f7bad60)" d="M 694.841785 376.056315 
L 694.841785 16.056315 
" style="fill:none;stroke:#ffffff;stroke-linecap:round;"/>
     </g>
     <g id="line2d_14">
      <g>
       <use style="fill:#262626;stroke:#262626;" x="694.841784939" xlink:href="#m9e5e9ed425" y="376.056315185"/>
      </g>
     </g>
     <g id="line2d_15">
      <g>
       <use style="fill:#262626;stroke:#262626;" x="694.841784939" xlink:href="#m9e5e9ed425" y="16.0563151852"/>
      </g>
     </g>
     <g id="text_5">
      <!-- $25$ -->
      <g style="fill:#262626;" transform="translate(685.703689516 396.893311945)scale(0.2 -0.2)">
       <use transform="scale(0.996264009963)" xlink:href="#CMR17-50"/>
       <use transform="translate(45.6904771171 0.0)scale(0.996264009963)" xlink:href="#CMR17-53"/>
      </g>
     </g>
    </g>
    <g id="xtick_6">
     <g id="line2d_16">
      <path clip-path="url(#p492f7bad60)" d="M 823.413214 376.056315 
L 823.413214 16.056315 
" style="fill:none;stroke:#ffffff;stroke-linecap:round;"/>
     </g>
     <g id="line2d_17">
      <g>
       <use style="fill:#262626;stroke:#262626;" x="823.413213511" xlink:href="#m9e5e9ed425" y="376.056315185"/>
      </g>
     </g>
     <g id="line2d_18">
      <g>
       <use style="fill:#262626;stroke:#262626;" x="823.413213511" xlink:href="#m9e5e9ed425" y="16.0563151852"/>
      </g>
     </g>
     <g id="text_6">
      <!-- $30$ -->
      <defs>
       <path d="M 22.09375 33.703125 
C 31 33.703125 34.90625 25.96875 34.90625 17.03125 
C 34.90625 5 28.5 0.390625 22.703125 0.390625 
C 17.40625 0.390625 8.796875 3.03125 6.09375 10.828125 
C 6.59375 10.625 7.09375 10.625 7.59375 10.625 
C 10 10.625 11.796875 12.21875 11.796875 14.8125 
C 11.796875 17.703125 9.59375 19 7.59375 19 
C 5.90625 19 3.296875 18.203125 3.296875 14.46875 
C 3.296875 5.234375 12.296875 -2 22.90625 -2 
C 34 -2 42.5 6.71875 42.5 16.953125 
C 42.5 26.671875 34.5 33.6875 25 34.796875 
C 32.59375 36.375 39.90625 43.0625 39.90625 52.015625 
C 39.90625 59.6875 32 65.296875 23 65.296875 
C 13.90625 65.296875 5.90625 59.828125 5.90625 52.015625 
C 5.90625 48.59375 8.5 48 9.796875 48 
C 11.90625 48 13.703125 49.296875 13.703125 51.890625 
C 13.703125 54.46875 11.90625 55.765625 9.796875 55.765625 
C 9.40625 55.765625 8.90625 55.765625 8.5 55.578125 
C 11.40625 61.859375 19.296875 63 22.796875 63 
C 26.296875 63 32.90625 61.328125 32.90625 51.875 
C 32.90625 49.109375 32.5 44.1875 29.09375 39.84375 
C 26.09375 36 22.703125 36 19.40625 35.6875 
C 18.90625 35.6875 16.59375 35.453125 16.203125 35.453125 
C 15.5 35.359375 15.09375 35.265625 15.09375 34.5 
C 15.09375 33.796875 15.203125 33.703125 17.203125 33.703125 
z
" id="CMR17-51"/>
      </defs>
      <g style="fill:#262626;" transform="translate(814.275118087 396.893311945)scale(0.2 -0.2)">
       <use transform="scale(0.996264009963)" xlink:href="#CMR17-51"/>
       <use transform="translate(45.6904771171 0.0)scale(0.996264009963)" xlink:href="#CMR17-48"/>
      </g>
     </g>
    </g>
    <g id="text_7">
     <!-- $d$ (Hilbert Space Dimension) -->
     <defs>
      <path d="M 16.703125 37 
L 29.703125 37 
L 29.703125 42.765625 
L 16.703125 42.765625 
L 16.703125 55 
L 9.59375 55 
L 9.59375 42.765625 
L 1.703125 42.765625 
L 1.703125 37 
L 9.40625 37 
L 9.40625 11.703125 
C 9.40625 6 10.703125 -1 17.296875 -1 
C 22.296875 -1 26.90625 0.390625 31.296875 2.6875 
L 29.703125 8.5625 
C 27.296875 6.46875 24.40625 5.265625 21.296875 5.265625 
C 16.90625 5.265625 16.703125 10.875 16.703125 13.375 
z
" id="CMSS17-116"/>
      <path d="M 14.90625 21.296875 
C 14.90625 30.703125 21.796875 37 30.59375 37 
L 30.59375 43.578125 
C 24.203125 43.578125 18.203125 40.390625 14.59375 35.203125 
L 14.59375 43.09375 
L 7.5 43.09375 
L 7.5 0 
L 14.90625 0 
z
" id="CMSS17-114"/>
      <path d="M 25.203125 74.5 
C 19.796875 69.015625 7.40625 56.265625 7.40625 24.8125 
C 7.40625 -6.765625 19.796875 -19.421875 25.203125 -25 
L 31.296875 -25 
C 19 -12.25 15 5.578125 15 24.6875 
C 15 43.71875 18.796875 61.65625 31.296875 74.5 
z
" id="CMSS17-40"/>
      <path d="M 50.296875 66.515625 
C 50.40625 66.90625 50.59375 67.5 50.59375 68 
C 50.59375 69 49.59375 69 49.40625 69 
C 49.296875 69 44.40625 68.5625 43.90625 68.4375 
C 42.203125 68.328125 40.703125 68.09375 38.90625 68.09375 
C 36.40625 67.890625 35.703125 67.796875 35.703125 66 
C 35.703125 65 36.5 65 37.90625 65 
C 42.796875 65 42.90625 64.109375 42.90625 63.125 
C 42.90625 62.53125 42.703125 61.75 42.59375 61.453125 
L 36.5 37.421875 
C 35.40625 40.015625 32.703125 44 27.5 44 
C 16.203125 44 4 29.4375 4 14.671875 
C 4 4.796875 9.796875 -1 16.59375 -1 
C 22.09375 -1 26.796875 3.296875 29.59375 6.59375 
C 30.59375 0.703125 35.296875 -1 38.296875 -1 
C 41.296875 -1 43.703125 0.796875 45.5 4.390625 
C 47.09375 7.78125 48.5 13.875 48.5 14.265625 
C 48.5 14.765625 48.09375 15.171875 47.5 15.171875 
C 46.59375 15.171875 46.5 14.671875 46.09375 13.171875 
C 44.59375 7.28125 42.703125 1 38.59375 1 
C 35.703125 1 35.5 3.578125 35.5 5.578125 
C 35.5 5.96875 35.5 8.046875 36.203125 10.84375 
z
M 30.09375 11.875 
C 29.59375 10.171875 29.59375 9.984375 28.203125 8.078125 
C 26 5.28125 21.59375 1 16.90625 1 
C 12.796875 1 10.5 4.6875 10.5 10.578125 
C 10.5 16.0625 13.59375 27.234375 15.5 31.4375 
C 18.90625 38.421875 23.59375 42.015625 27.5 42.015625 
C 34.09375 42.015625 35.40625 33.828125 35.40625 33.03125 
C 35.40625 32.9375 35.09375 31.625 35 31.4375 
z
" id="CMMI12-100"/>
      <path d="M 44.203125 21.1875 
C 44.203125 34 34.703125 44 23.5 44 
C 12 44 2.703125 33.703125 2.703125 21.1875 
C 2.703125 8.5 12.296875 -1 23.40625 -1 
C 34.796875 -1 44.203125 8.796875 44.203125 21.1875 
M 23.5 5.265625 
C 16.40625 5.265625 10.296875 11.078125 10.296875 22 
C 10.296875 33.609375 17.40625 37.921875 23.40625 37.921875 
C 29.90625 37.921875 36.59375 33.21875 36.59375 22 
C 36.59375 10.671875 30.09375 5.265625 23.5 5.265625 
" id="CMSS17-111"/>
      <path d="M 57.40625 69 
L 49 69 
L 49 39.078125 
L 17.203125 39.078125 
L 17.203125 69 
L 8.796875 69 
L 8.796875 0 
L 17.203125 0 
L 17.203125 33 
L 49 33 
L 49 0 
L 57.40625 0 
z
" id="CMSS17-72"/>
      <path d="M 39.09375 21.515625 
C 39.09375 24.84375 38.90625 31.296875 35.703125 36.640625 
C 32.203125 42.390625 26.5 44 22.203125 44 
C 11.796875 44 3 34.1875 3 21.484375 
C 3 9.09375 12.09375 -1 23.59375 -1 
C 28.09375 -1 33.59375 0.296875 38.59375 3.875 
C 38.59375 4.28125 38.40625 6.46875 38.296875 6.5625 
C 38.296875 6.765625 38 9.84375 38 10.25 
C 33.203125 6.359375 27.703125 5.078125 23.703125 5.078125 
C 17.296875 5.078125 10.40625 10.421875 10.09375 21.515625 
z
M 10.90625 27 
C 12.203125 32.5625 16.59375 37.828125 22.203125 37.828125 
C 23.703125 37.828125 30.703125 37.828125 32.5 27 
z
" id="CMSS17-101"/>
      <path d="M 15.09375 5.203125 
C 18.40625 2.015625 22.90625 -0.078125 27.703125 -0.078125 
C 37 -0.078125 45 9.421875 45 22.0625 
C 45 33.734375 39 44 30.40625 44 
C 25.40625 44 19.40625 42.21875 14.90625 38.625 
L 14.90625 43.203125 
L 7.5 43.203125 
L 7.5 -19 
L 15.09375 -19 
z
M 15.09375 32.8125 
C 15.90625 34 19.296875 37.734375 24.796875 37.734375 
C 31.796875 37.734375 37.40625 30.625 37.40625 22.0625 
C 37.40625 12.296875 30.59375 6 23.90625 6 
C 21.90625 6 19.796875 6.484375 17.796875 8.171875 
C 15.09375 10.53125 15.09375 12 15.09375 13.390625 
z
" id="CMSS17-112"/>
      <path d="M 11.296875 -25 
C 16.703125 -19.515625 29.09375 -6.765625 29.09375 24.6875 
C 29.09375 56.265625 16.703125 68.921875 11.296875 74.5 
L 5.203125 74.5 
C 17.5 61.75 21.5 43.921875 21.5 24.8125 
C 21.5 5.78125 17.703125 -12.15625 5.203125 -25 
z
" id="CMSS17-41"/>
      <path d="M 32.203125 41.046875 
C 26.296875 43.859375 21.703125 43.859375 18.703125 43.859375 
C 11.59375 43.859375 3.09375 41.375 3.09375 31.296875 
C 3.09375 21.234375 14.09375 19.03125 17.09375 18.421875 
C 21.703125 17.53125 26.796875 16.53125 26.796875 11.5625 
C 26.796875 5.265625 19.59375 5.265625 18.296875 5.265625 
C 14.296875 5.265625 8.796875 6.359375 3.796875 9.96875 
L 2.59375 3.28125 
C 8.296875 0 13.796875 -1 18.40625 -1 
C 30.703125 -1 33.796875 6.5 33.796875 12.203125 
C 33.796875 17.09375 31 20.390625 29.09375 21.890625 
C 25.796875 24.5 24.59375 24.796875 16.40625 26.5 
C 15 26.703125 10.09375 27.796875 10.09375 32.28125 
C 10.09375 38 16.40625 38 17.796875 38 
C 24.296875 38 28.296875 35.984375 31 34.5 
z
" id="CMSS17-115"/>
      <path d="M 14.796875 69 
L 7.40625 69 
L 7.40625 0 
L 14.796875 0 
z
" id="CMSS17-108"/>
      <path d="M 67 29.328125 
C 67 36.0625 65.296875 44 54.09375 44 
C 46.59375 44 42.09375 39.3125 40.09375 36.421875 
C 38.296875 41.71875 34.09375 44 28.09375 44 
C 21.296875 44 17 40.125 14.703125 37.328125 
L 14.703125 43.09375 
L 7.40625 43.09375 
L 7.40625 0 
L 15 0 
L 15 24.359375 
C 15 30.296875 17.203125 37.9375 24.296875 37.9375 
C 33.40625 37.9375 33.40625 31.5 33.40625 28.578125 
L 33.40625 0 
L 41 0 
L 41 24.359375 
C 41 30.296875 43.203125 37.9375 50.296875 37.9375 
C 59.40625 37.9375 59.40625 31.5 59.40625 28.578125 
L 59.40625 0 
L 67 0 
z
" id="CMSS17-109"/>
      <path d="M 8.90625 69 
L 8.90625 0 
L 33.5 0 
C 49.90625 0 62.5 15.3125 62.5 33.90625 
C 62.5 53.09375 49.90625 69 33.5 69 
z
M 17.09375 5.578125 
L 17.09375 63.421875 
L 31.296875 63.421875 
C 44.703125 63.421875 54.296875 51.203125 54.296875 33.90625 
C 54.296875 17.296875 44.796875 5.578125 31.296875 5.578125 
z
" id="CMSS17-68"/>
      <path d="M 37.59375 27.984375 
C 37.59375 37.375 30.90625 43.875 21.90625 43.875 
C 17.5 43.875 12.703125 43.078125 7.203125 39.890625 
L 7.796875 33.359375 
C 10.296875 35.125 14.59375 38 21.796875 38 
C 26.90625 38 30 34.0625 30 27.84375 
L 30 24 
C 14 24 4 19.34375 4 11.34375 
C 4 7.203125 6.5 -1 14.796875 -1 
C 16.296875 -1 24.40625 -1 30.203125 3.390625 
L 30.203125 -0.296875 
L 37.59375 -0.296875 
z
M 30 12.75 
C 30 10.953125 30 8.5625 27 6.78125 
C 24.40625 5.078125 21.09375 5.078125 19.703125 5.078125 
C 14.703125 5.078125 11.296875 7.984375 11.296875 11.625 
C 11.296875 18.921875 26.90625 18.921875 30 18.921875 
z
" id="CMSS17-97"/>
      <path d="M 15.296875 65.359375 
L 6.90625 65.359375 
L 6.90625 57 
L 15.296875 57 
z
M 14.796875 42.796875 
L 7.40625 42.796875 
L 7.40625 0 
L 14.796875 0 
z
" id="CMSS17-105"/>
      <path d="M 43.703125 65.140625 
C 39.296875 67.71875 34.5 70 26.40625 70 
C 13.5 70 5.203125 60.609375 5.203125 51.03125 
C 5.203125 47.265625 6.296875 43.015625 10.203125 38.671875 
C 14.09375 34.3125 18.5 33.140625 24.09375 31.765625 
C 26.40625 31.15625 30.296875 30.0625 31 29.78125 
C 36.59375 27.609375 39.296875 22.5625 39.296875 17.8125 
C 39.296875 11.59375 34.40625 4.96875 25.703125 4.96875 
C 22.703125 4.96875 13.90625 4.96875 5.59375 12.796875 
L 4.203125 4.96875 
C 12.40625 -1 21.296875 -2 25.796875 -2 
C 38.09375 -2 46.90625 7.625 46.90625 18.53125 
C 46.90625 22.5 45.703125 27.546875 41.5 32.203125 
C 37.40625 36.671875 33.796875 37.65625 25.59375 39.828125 
C 20.90625 41.03125 17.90625 41.828125 15.40625 44.890625 
C 13.703125 47.078125 12.796875 49.15625 12.796875 51.828125 
C 12.796875 57.390625 17.59375 63.4375 26.40625 63.4375 
C 30.796875 63.4375 36.5 62.53125 42.296875 57.1875 
z
" id="CMSS17-83"/>
      <path d="M 38.5 39.703125 
C 38.5 40.390625 33.90625 42.40625 32.703125 42.796875 
C 29.40625 44 25.203125 44 24.09375 44 
C 11.09375 44 3.296875 32.703125 3.296875 21.296875 
C 3.296875 9.296875 12 -1 23.703125 -1 
C 30.40625 -1 35.203125 1.1875 39.09375 3.78125 
L 38.5 10.375 
C 34.203125 7.078125 29.203125 5.265625 23.796875 5.265625 
C 16 5.265625 10.90625 12.09375 10.90625 21.390625 
C 10.90625 28.609375 14.203125 37.71875 24.203125 37.71875 
C 29.703125 37.71875 32.796875 36.609375 37.40625 33.515625 
z
" id="CMSS17-99"/>
      <path d="M 14.90625 69 
L 7.5 69 
L 7.5 -0.203125 
L 15.09375 -0.203125 
L 15.09375 4.28125 
C 18.90625 0.59375 23.5 -1 27.59375 -1 
C 37.203125 -1 45 8.578125 45 21.125 
C 45 32.59375 39 43.0625 30.09375 43.0625 
C 23.796875 43.0625 18.203125 40.484375 14.90625 37.796875 
z
M 15.09375 31.96875 
C 17.296875 34.71875 20.40625 37 24.796875 37 
C 30.703125 37 37.40625 32.765625 37.40625 21.125 
C 37.40625 8.71875 29.40625 5.078125 23.90625 5.078125 
C 21.90625 5.078125 19.796875 5.5625 17.796875 7.25 
C 15.09375 9.609375 15.09375 11.078125 15.09375 12.453125 
z
" id="CMSS17-98"/>
      <path d="M 40.90625 29.328125 
C 40.90625 35.671875 39.40625 44 28.09375 44 
C 21.703125 44 17.5 40.71875 14.703125 37.328125 
L 14.703125 43.09375 
L 7.40625 43.09375 
L 7.40625 0 
L 15 0 
L 15 24.359375 
C 15 30.6875 17.40625 37.9375 24.203125 37.9375 
C 33 37.9375 33.296875 32 33.296875 28.578125 
L 33.296875 0 
L 40.90625 0 
z
" id="CMSS17-110"/>
     </defs>
     <g style="fill:#262626;" transform="translate(323.257431726 424.426473114)scale(0.25 -0.25)">
      <use transform="scale(0.996264009963)" xlink:href="#CMMI12-100"/>
      <use transform="translate(81.9182095462 0.0)scale(0.996264009963)" xlink:href="#CMSS17-40"/>
      <use transform="translate(118.35212375 0.0)scale(0.996264009963)" xlink:href="#CMSS17-72"/>
      <use transform="translate(184.413642931 0.0)scale(0.996264009963)" xlink:href="#CMSS17-105"/>
      <use transform="translate(206.594365976 0.0)scale(0.996264009963)" xlink:href="#CMSS17-108"/>
      <use transform="translate(228.775089022 0.0)scale(0.996264009963)" xlink:href="#CMSS17-98"/>
      <use transform="translate(279.582470886 0.0)scale(0.996264009963)" xlink:href="#CMSS17-101"/>
      <use transform="translate(321.221292954 0.0)scale(0.996264009963)" xlink:href="#CMSS17-114"/>
      <use transform="translate(353.131065511 0.0)scale(0.996264009963)" xlink:href="#CMSS17-116"/>
      <use transform="translate(418.191744946 0.0)scale(0.996264009963)" xlink:href="#CMSS17-83"/>
      <use transform="translate(470.24026113 0.0)scale(0.996264009963)" xlink:href="#CMSS17-112"/>
      <use transform="translate(518.445204263 0.0)scale(0.996264009963)" xlink:href="#CMSS17-97"/>
      <use transform="translate(563.367124869 0.0)scale(0.996264009963)" xlink:href="#CMSS17-99"/>
      <use transform="translate(605.005946937 0.0)scale(0.996264009963)" xlink:href="#CMSS17-101"/>
      <use transform="translate(677.873881757 0.0)scale(0.996264009963)" xlink:href="#CMSS17-68"/>
      <use transform="translate(745.41672342 0.0)scale(0.996264009963)" xlink:href="#CMSS17-105"/>
      <use transform="translate(767.597446465 0.0)scale(0.996264009963)" xlink:href="#CMSS17-109"/>
      <use transform="translate(841.826700897 0.0)scale(0.996264009963)" xlink:href="#CMSS17-101"/>
      <use transform="translate(883.465522966 0.0)scale(0.996264009963)" xlink:href="#CMSS17-110"/>
      <use transform="translate(931.670466099 0.0)scale(0.996264009963)" xlink:href="#CMSS17-115"/>
      <use transform="translate(967.58400809 0.0)scale(0.996264009963)" xlink:href="#CMSS17-105"/>
      <use transform="translate(989.764731135 0.0)scale(0.996264009963)" xlink:href="#CMSS17-111"/>
      <use transform="translate(1036.60835466 0.0)scale(0.996264009963)" xlink:href="#CMSS17-110"/>
      <use transform="translate(1084.81329779 0.0)scale(0.996264009963)" xlink:href="#CMSS17-41"/>
     </g>
    </g>
   </g>
   <g id="matplotlib.axis_2">
    <g id="ytick_1">
     <g id="line2d_19">
      <path clip-path="url(#p492f7bad60)" d="M 103.413214 376.056315 
L 823.413214 376.056315 
" style="fill:none;stroke:#ffffff;stroke-linecap:round;"/>
     </g>
     <g id="line2d_20">
      <g>
       <use style="fill:#262626;stroke:#262626;" x="103.413213511" xlink:href="#m9e5e9ed425" y="376.056315185"/>
      </g>
     </g>
     <g id="line2d_21">
      <g>
       <use style="fill:#262626;stroke:#262626;" x="823.413213511" xlink:href="#m9e5e9ed425" y="376.056315185"/>
      </g>
     </g>
     <g id="text_8">
      <!-- $0$ -->
      <g style="fill:#262626;" transform="translate(87.2751180874 381.03699676)scale(0.2 -0.2)">
       <use transform="scale(0.996264009963)" xlink:href="#CMR17-48"/>
      </g>
     </g>
    </g>
    <g id="ytick_2">
     <g id="line2d_22">
      <path clip-path="url(#p492f7bad60)" d="M 103.413214 336.056315 
L 823.413214 336.056315 
" style="fill:none;stroke:#ffffff;stroke-linecap:round;"/>
     </g>
     <g id="line2d_23">
      <g>
       <use style="fill:#262626;stroke:#262626;" x="103.413213511" xlink:href="#m9e5e9ed425" y="336.056315185"/>
      </g>
     </g>
     <g id="line2d_24">
      <g>
       <use style="fill:#262626;stroke:#262626;" x="823.413213511" xlink:href="#m9e5e9ed425" y="336.056315185"/>
      </g>
     </g>
     <g id="text_9">
      <!-- $100$ -->
      <g style="fill:#262626;" transform="translate(68.9989272406 341.03699676)scale(0.2 -0.2)">
       <use transform="scale(0.996264009963)" xlink:href="#CMR17-49"/>
       <use transform="translate(45.6904771171 0.0)scale(0.996264009963)" xlink:href="#CMR17-48"/>
       <use transform="translate(91.3809542341 0.0)scale(0.996264009963)" xlink:href="#CMR17-48"/>
      </g>
     </g>
    </g>
    <g id="ytick_3">
     <g id="line2d_25">
      <path clip-path="url(#p492f7bad60)" d="M 103.413214 296.056315 
L 823.413214 296.056315 
" style="fill:none;stroke:#ffffff;stroke-linecap:round;"/>
     </g>
     <g id="line2d_26">
      <g>
       <use style="fill:#262626;stroke:#262626;" x="103.413213511" xlink:href="#m9e5e9ed425" y="296.056315185"/>
      </g>
     </g>
     <g id="line2d_27">
      <g>
       <use style="fill:#262626;stroke:#262626;" x="823.413213511" xlink:href="#m9e5e9ed425" y="296.056315185"/>
      </g>
     </g>
     <g id="text_10">
      <!-- $200$ -->
      <g style="fill:#262626;" transform="translate(68.9989272406 301.03699676)scale(0.2 -0.2)">
       <use transform="scale(0.996264009963)" xlink:href="#CMR17-50"/>
       <use transform="translate(45.6904771171 0.0)scale(0.996264009963)" xlink:href="#CMR17-48"/>
       <use transform="translate(91.3809542341 0.0)scale(0.996264009963)" xlink:href="#CMR17-48"/>
      </g>
     </g>
    </g>
    <g id="ytick_4">
     <g id="line2d_28">
      <path clip-path="url(#p492f7bad60)" d="M 103.413214 256.056315 
L 823.413214 256.056315 
" style="fill:none;stroke:#ffffff;stroke-linecap:round;"/>
     </g>
     <g id="line2d_29">
      <g>
       <use style="fill:#262626;stroke:#262626;" x="103.413213511" xlink:href="#m9e5e9ed425" y="256.056315185"/>
      </g>
     </g>
     <g id="line2d_30">
      <g>
       <use style="fill:#262626;stroke:#262626;" x="823.413213511" xlink:href="#m9e5e9ed425" y="256.056315185"/>
      </g>
     </g>
     <g id="text_11">
      <!-- $300$ -->
      <g style="fill:#262626;" transform="translate(68.9989272406 261.03699676)scale(0.2 -0.2)">
       <use transform="scale(0.996264009963)" xlink:href="#CMR17-51"/>
       <use transform="translate(45.6904771171 0.0)scale(0.996264009963)" xlink:href="#CMR17-48"/>
       <use transform="translate(91.3809542341 0.0)scale(0.996264009963)" xlink:href="#CMR17-48"/>
      </g>
     </g>
    </g>
    <g id="ytick_5">
     <g id="line2d_31">
      <path clip-path="url(#p492f7bad60)" d="M 103.413214 216.056315 
L 823.413214 216.056315 
" style="fill:none;stroke:#ffffff;stroke-linecap:round;"/>
     </g>
     <g id="line2d_32">
      <g>
       <use style="fill:#262626;stroke:#262626;" x="103.413213511" xlink:href="#m9e5e9ed425" y="216.056315185"/>
      </g>
     </g>
     <g id="line2d_33">
      <g>
       <use style="fill:#262626;stroke:#262626;" x="823.413213511" xlink:href="#m9e5e9ed425" y="216.056315185"/>
      </g>
     </g>
     <g id="text_12">
      <!-- $400$ -->
      <defs>
       <path d="M 33.59375 64.40625 
C 33.59375 66.5 33.5 66.5 31.703125 66.5 
L 2 19.59375 
L 2 17 
L 27.796875 17 
L 27.796875 7.140625 
C 27.796875 3.5 27.59375 2.5 20.59375 2.5 
L 18.703125 2.5 
L 18.703125 0 
C 21.90625 0 27.296875 0 30.703125 0 
C 34.09375 0 39.5 0 42.703125 0 
L 42.703125 2.5 
L 40.796875 2.5 
C 33.796875 2.5 33.59375 3.5 33.59375 7.140625 
L 33.59375 17 
L 43.796875 17 
L 43.796875 19.59375 
L 33.59375 19.59375 
z
M 28.09375 57.859375 
L 28.09375 19.59375 
L 4 19.59375 
z
" id="CMR17-52"/>
      </defs>
      <g style="fill:#262626;" transform="translate(68.9989272406 221.03699676)scale(0.2 -0.2)">
       <use transform="scale(0.996264009963)" xlink:href="#CMR17-52"/>
       <use transform="translate(45.6904771171 0.0)scale(0.996264009963)" xlink:href="#CMR17-48"/>
       <use transform="translate(91.3809542341 0.0)scale(0.996264009963)" xlink:href="#CMR17-48"/>
      </g>
     </g>
    </g>
    <g id="ytick_6">
     <g id="line2d_34">
      <path clip-path="url(#p492f7bad60)" d="M 103.413214 176.056315 
L 823.413214 176.056315 
" style="fill:none;stroke:#ffffff;stroke-linecap:round;"/>
     </g>
     <g id="line2d_35">
      <g>
       <use style="fill:#262626;stroke:#262626;" x="103.413213511" xlink:href="#m9e5e9ed425" y="176.056315185"/>
      </g>
     </g>
     <g id="line2d_36">
      <g>
       <use style="fill:#262626;stroke:#262626;" x="823.413213511" xlink:href="#m9e5e9ed425" y="176.056315185"/>
      </g>
     </g>
     <g id="text_13">
      <!-- $500$ -->
      <g style="fill:#262626;" transform="translate(68.9989272406 181.03699676)scale(0.2 -0.2)">
       <use transform="scale(0.996264009963)" xlink:href="#CMR17-53"/>
       <use transform="translate(45.6904771171 0.0)scale(0.996264009963)" xlink:href="#CMR17-48"/>
       <use transform="translate(91.3809542341 0.0)scale(0.996264009963)" xlink:href="#CMR17-48"/>
      </g>
     </g>
    </g>
    <g id="ytick_7">
     <g id="line2d_37">
      <path clip-path="url(#p492f7bad60)" d="M 103.413214 136.056315 
L 823.413214 136.056315 
" style="fill:none;stroke:#ffffff;stroke-linecap:round;"/>
     </g>
     <g id="line2d_38">
      <g>
       <use style="fill:#262626;stroke:#262626;" x="103.413213511" xlink:href="#m9e5e9ed425" y="136.056315185"/>
      </g>
     </g>
     <g id="line2d_39">
      <g>
       <use style="fill:#262626;stroke:#262626;" x="823.413213511" xlink:href="#m9e5e9ed425" y="136.056315185"/>
      </g>
     </g>
     <g id="text_14">
      <!-- $600$ -->
      <defs>
       <path d="M 10.59375 34 
C 10.59375 57.65625 21.796875 63 28.296875 63 
C 30.40625 63 35.5 62.640625 37.5 59 
C 35.90625 59 32.90625 59 32.90625 55.515625 
C 32.90625 52.828125 35.09375 51.921875 36.5 51.921875 
C 37.40625 51.921875 40.09375 52.3125 40.09375 55.625 
C 40.09375 61.78125 35.09375 65.296875 28.203125 65.296875 
C 16.296875 65.296875 3.796875 52.96875 3.796875 31 
C 3.796875 3.953125 15.09375 -2 23.09375 -2 
C 32.796875 -2 42 6.671875 42 20.046875 
C 42 32.515625 33.90625 41.59375 23.703125 41.59375 
C 17.59375 41.59375 13.09375 37.609375 10.59375 30.625 
z
M 23.09375 0.390625 
C 10.796875 0.390625 10.796875 18.75 10.796875 22.4375 
C 10.796875 29.625 14.203125 40 23.5 40 
C 25.203125 40 30.09375 40 33.40625 33.125 
C 35.203125 29.21875 35.203125 25.140625 35.203125 20.140625 
C 35.203125 14.75 35.203125 10.78125 33.09375 6.78125 
C 30.90625 2.671875 27.703125 0.390625 23.09375 0.390625 
" id="CMR17-54"/>
      </defs>
      <g style="fill:#262626;" transform="translate(68.9989272406 141.03699676)scale(0.2 -0.2)">
       <use transform="scale(0.996264009963)" xlink:href="#CMR17-54"/>
       <use transform="translate(45.6904771171 0.0)scale(0.996264009963)" xlink:href="#CMR17-48"/>
       <use transform="translate(91.3809542341 0.0)scale(0.996264009963)" xlink:href="#CMR17-48"/>
      </g>
     </g>
    </g>
    <g id="ytick_8">
     <g id="line2d_40">
      <path clip-path="url(#p492f7bad60)" d="M 103.413214 96.056315 
L 823.413214 96.056315 
" style="fill:none;stroke:#ffffff;stroke-linecap:round;"/>
     </g>
     <g id="line2d_41">
      <g>
       <use style="fill:#262626;stroke:#262626;" x="103.413213511" xlink:href="#m9e5e9ed425" y="96.0563151852"/>
      </g>
     </g>
     <g id="line2d_42">
      <g>
       <use style="fill:#262626;stroke:#262626;" x="823.413213511" xlink:href="#m9e5e9ed425" y="96.0563151852"/>
      </g>
     </g>
     <g id="text_15">
      <!-- $700$ -->
      <defs>
       <path d="M 45.09375 61.578125 
L 45.09375 63.765625 
L 21.59375 63.765625 
C 9.90625 63.765625 9.703125 65.078125 9.296875 67 
L 7.5 67 
L 4.59375 48.34375 
L 6.40625 48.34375 
C 6.703125 50.234375 7.40625 55.3125 8.59375 57.203125 
C 9.203125 58 16.59375 58 18.296875 58 
L 40.296875 58 
L 29.203125 41.578125 
C 21.796875 30.53125 16.703125 15.609375 16.703125 2.578125 
C 16.703125 1.390625 16.703125 -2 20.296875 -2 
C 23.90625 -2 23.90625 1.390625 23.90625 2.671875 
L 23.90625 7.265625 
C 23.90625 23.5625 26.703125 34.3125 31.296875 41.1875 
z
" id="CMR17-55"/>
      </defs>
      <g style="fill:#262626;" transform="translate(68.9989272406 101.03699676)scale(0.2 -0.2)">
       <use transform="scale(0.996264009963)" xlink:href="#CMR17-55"/>
       <use transform="translate(45.6904771171 0.0)scale(0.996264009963)" xlink:href="#CMR17-48"/>
       <use transform="translate(91.3809542341 0.0)scale(0.996264009963)" xlink:href="#CMR17-48"/>
      </g>
     </g>
    </g>
    <g id="ytick_9">
     <g id="line2d_43">
      <path clip-path="url(#p492f7bad60)" d="M 103.413214 56.056315 
L 823.413214 56.056315 
" style="fill:none;stroke:#ffffff;stroke-linecap:round;"/>
     </g>
     <g id="line2d_44">
      <g>
       <use style="fill:#262626;stroke:#262626;" x="103.413213511" xlink:href="#m9e5e9ed425" y="56.0563151852"/>
      </g>
     </g>
     <g id="line2d_45">
      <g>
       <use style="fill:#262626;stroke:#262626;" x="823.413213511" xlink:href="#m9e5e9ed425" y="56.0563151852"/>
      </g>
     </g>
     <g id="text_16">
      <!-- $800$ -->
      <defs>
       <path d="M 27.203125 35.375 
C 33.5 38.546875 39.90625 43.328125 39.90625 50.984375 
C 39.90625 60.015625 31.09375 65.296875 23 65.296875 
C 13.90625 65.296875 5.90625 58.734375 5.90625 49.6875 
C 5.90625 47.203125 6.5 42.921875 10.40625 39.140625 
C 11.40625 38.15625 15.59375 35.171875 18.296875 33.28125 
C 13.796875 30.984375 3.296875 25.53125 3.296875 14.59375 
C 3.296875 4.359375 13.09375 -2 22.796875 -2 
C 33.5 -2 42.5 5.65625 42.5 15.78125 
C 42.5 24.84375 36.40625 29.015625 32.40625 31.703125 
z
M 14.09375 44.09375 
C 13.296875 44.59375 9.296875 47.671875 9.296875 52.359375 
C 9.296875 58.421875 15.59375 63 22.796875 63 
C 30.703125 63 36.5 57.4375 36.5 50.96875 
C 36.5 41.703125 26.09375 36.421875 25.59375 36.421875 
C 25.5 36.421875 25.40625 36.421875 24.59375 37.03125 
z
M 32.5 23.734375 
C 34 22.640625 38.796875 19.375 38.796875 13.296875 
C 38.796875 5.953125 31.40625 0.390625 23 0.390625 
C 13.90625 0.390625 7 6.84375 7 14.6875 
C 7 22.546875 13.09375 29.09375 20 32.1875 
z
" id="CMR17-56"/>
      </defs>
      <g style="fill:#262626;" transform="translate(68.9989272406 61.0369967602)scale(0.2 -0.2)">
       <use transform="scale(0.996264009963)" xlink:href="#CMR17-56"/>
       <use transform="translate(45.6904771171 0.0)scale(0.996264009963)" xlink:href="#CMR17-48"/>
       <use transform="translate(91.3809542341 0.0)scale(0.996264009963)" xlink:href="#CMR17-48"/>
      </g>
     </g>
    </g>
    <g id="ytick_10">
     <g id="line2d_46">
      <path clip-path="url(#p492f7bad60)" d="M 103.413214 16.056315 
L 823.413214 16.056315 
" style="fill:none;stroke:#ffffff;stroke-linecap:round;"/>
     </g>
     <g id="line2d_47">
      <g>
       <use style="fill:#262626;stroke:#262626;" x="103.413213511" xlink:href="#m9e5e9ed425" y="16.0563151852"/>
      </g>
     </g>
     <g id="line2d_48">
      <g>
       <use style="fill:#262626;stroke:#262626;" x="823.413213511" xlink:href="#m9e5e9ed425" y="16.0563151852"/>
      </g>
     </g>
     <g id="text_17">
      <!-- $900$ -->
      <defs>
       <path d="M 35.203125 29.125 
C 35.203125 7.25 26.09375 0.484375 18.59375 0.484375 
C 16.296875 0.484375 10.703125 0.484375 8.40625 4.59375 
C 11 4.1875 12.90625 5.578125 12.90625 8.09375 
C 12.90625 10.8125 10.703125 11.703125 9.296875 11.703125 
C 8.40625 11.703125 5.703125 11.296875 5.703125 7.90625 
C 5.703125 1.109375 11.59375 -2 18.796875 -2 
C 30.296875 -2 42 10.53125 42 32.390625 
C 42 59.640625 30.796875 65.296875 23.203125 65.296875 
C 13.296875 65.296875 3.796875 56.6875 3.796875 43.40625 
C 3.796875 31.109375 11.90625 22 22.09375 22 
C 30.5 22 34.203125 29.734375 35.203125 33 
z
M 22.296875 23.59375 
C 19.59375 23.59375 15.796875 24.09375 12.703125 30.03125 
C 10.59375 33.890625 10.59375 38.453125 10.59375 43.296875 
C 10.59375 49.15625 10.59375 53.203125 13.40625 57.5625 
C 14.796875 59.640625 17.40625 63 23.203125 63 
C 35 63 35 45.078125 35 41.125 
C 35 34.09375 31.796875 23.59375 22.296875 23.59375 
" id="CMR17-57"/>
      </defs>
      <g style="fill:#262626;" transform="translate(68.9989272406 21.0369967602)scale(0.2 -0.2)">
       <use transform="scale(0.996264009963)" xlink:href="#CMR17-57"/>
       <use transform="translate(45.6904771171 0.0)scale(0.996264009963)" xlink:href="#CMR17-48"/>
       <use transform="translate(91.3809542341 0.0)scale(0.996264009963)" xlink:href="#CMR17-48"/>
      </g>
     </g>
    </g>
    <g id="text_18">
     <!-- $\langle \lambda\rangle$ -->
     <defs>
      <path d="M 27.296875 23.296875 
C 27.796875 24.5 27.796875 24.703125 27.796875 25 
C 27.796875 25.296875 27.796875 25.5 27.296875 26.703125 
L 9.796875 72.703125 
C 9.203125 74.40625 8.59375 75 7.5 75 
C 6.40625 75 5.5 74.09375 5.5 73 
C 5.5 72.703125 5.5 72.5 6 71.40625 
L 23.703125 25 
L 6 -21.203125 
C 5.5 -22.296875 5.5 -22.5 5.5 -23 
C 5.5 -24.09375 6.40625 -25 7.5 -25 
C 8.796875 -25 9.203125 -24 9.59375 -23 
z
" id="CMSY10-105"/>
      <path d="M 30.90625 61.953125 
C 28.40625 69 20.5 69 19.203125 69 
C 18.59375 69 17.5 69 17.5 68 
C 17.5 67.21875 18.09375 67.109375 18.59375 67.015625 
C 20.09375 66.8125 21.296875 66.609375 22.90625 63.75 
C 23.90625 61.859375 34.203125 32.171875 34.203125 31.96875 
C 34.203125 31.875 34.09375 31.765625 33.296875 30.96875 
L 7.296875 4.859375 
C 6.09375 3.65625 5.296875 2.859375 5.296875 1.59375 
C 5.296875 0.1875 6.5 -1 8.09375 -1 
C 8.5 -1 9.59375 -0.796875 10.203125 -0.203125 
C 11.796875 1.28125 26.09375 18.65625 35.203125 29.390625 
C 37.796875 21.609375 41 12.453125 44.09375 4.078125 
C 44.59375 2.59375 45.09375 1.1875 46.5 -0.09375 
C 47.5 -1 47.703125 -1 50.5 -1 
L 52.40625 -1 
C 52.796875 -1 53.5 -1 53.5 -0.203125 
C 53.5 0.203125 53.40625 0.296875 53 0.703125 
C 52.09375 1.796875 51.40625 3.578125 51 4.78125 
z
" id="CMMI12-21"/>
      <path d="M 32.796875 71.203125 
C 33.296875 72.296875 33.296875 72.5 33.296875 73 
C 33.296875 74.09375 32.40625 75 31.296875 75 
C 30.40625 75 29.703125 74.5 29 72.703125 
L 11.5 26.796875 
C 11.296875 26.203125 11 25.59375 11 25 
C 11 24.703125 11 24.5 11.5 23.296875 
L 29 -22.59375 
C 29.40625 -23.703125 29.90625 -25 31.296875 -25 
C 32.40625 -25 33.296875 -24.09375 33.296875 -23 
C 33.296875 -22.703125 33.296875 -22.5 32.796875 -21.40625 
L 15.09375 25 
z
" id="CMSY10-104"/>
     </defs>
     <g style="fill:#262626;" transform="translate(7.2 189.829665123)scale(0.25 -0.25)">
      <use transform="scale(0.996264009963)" xlink:href="#CMSY10-104"/>
      <use transform="translate(38.7437338253 0.0)scale(0.996264009963)" xlink:href="#CMMI12-21"/>
      <use transform="translate(95.6478057139 0.0)scale(0.996264009963)" xlink:href="#CMSY10-105"/>
     </g>
    </g>
   </g>
   <g id="line2d_49">
    <defs>
     <path d="M -5 5 
L 5 5 
L 5 -5 
L -5 -5 
z
" id="m0a0da4733f"/>
    </defs>
    <g>
     <use style="fill:#e18632;" x="103.413213511" xlink:href="#m0a0da4733f" y="375.091209174"/>
     <use style="fill:#e18632;" x="129.127499225" xlink:href="#m0a0da4733f" y="373.855562191"/>
     <use style="fill:#e18632;" x="154.841784939" xlink:href="#m0a0da4733f" y="372.719522623"/>
     <use style="fill:#e18632;" x="180.556070654" xlink:href="#m0a0da4733f" y="371.450092194"/>
     <use style="fill:#e18632;" x="206.270356368" xlink:href="#m0a0da4733f" y="369.953234902"/>
     <use style="fill:#e18632;" x="231.984642082" xlink:href="#m0a0da4733f" y="368.400260711"/>
     <use style="fill:#e18632;" x="257.698927797" xlink:href="#m0a0da4733f" y="366.950903624"/>
     <use style="fill:#e18632;" x="283.413213511" xlink:href="#m0a0da4733f" y="365.29882373"/>
     <use style="fill:#e18632;" x="309.127499225" xlink:href="#m0a0da4733f" y="363.692106599"/>
     <use style="fill:#e18632;" x="334.841784939" xlink:href="#m0a0da4733f" y="362.000133576"/>
     <use style="fill:#e18632;" x="360.556070654" xlink:href="#m0a0da4733f" y="360.385994026"/>
     <use style="fill:#e18632;" x="386.270356368" xlink:href="#m0a0da4733f" y="359.016384239"/>
     <use style="fill:#e18632;" x="411.984642082" xlink:href="#m0a0da4733f" y="357.00042664"/>
     <use style="fill:#e18632;" x="437.698927797" xlink:href="#m0a0da4733f" y="355.514015082"/>
     <use style="fill:#e18632;" x="463.413213511" xlink:href="#m0a0da4733f" y="354.156200149"/>
     <use style="fill:#e18632;" x="489.127499225" xlink:href="#m0a0da4733f" y="352.452934859"/>
     <use style="fill:#e18632;" x="514.841784939" xlink:href="#m0a0da4733f" y="349.892492907"/>
     <use style="fill:#e18632;" x="540.556070654" xlink:href="#m0a0da4733f" y="348.633339065"/>
     <use style="fill:#e18632;" x="566.270356368" xlink:href="#m0a0da4733f" y="346.554585005"/>
     <use style="fill:#e18632;" x="591.984642082" xlink:href="#m0a0da4733f" y="345.176881815"/>
     <use style="fill:#e18632;" x="617.698927797" xlink:href="#m0a0da4733f" y="343.701140816"/>
     <use style="fill:#e18632;" x="643.413213511" xlink:href="#m0a0da4733f" y="341.859523671"/>
     <use style="fill:#e18632;" x="669.127499225" xlink:href="#m0a0da4733f" y="340.082157572"/>
     <use style="fill:#e18632;" x="694.841784939" xlink:href="#m0a0da4733f" y="338.320747446"/>
     <use style="fill:#e18632;" x="720.556070654" xlink:href="#m0a0da4733f" y="335.623668984"/>
     <use style="fill:#e18632;" x="746.270356368" xlink:href="#m0a0da4733f" y="334.293693909"/>
     <use style="fill:#e18632;" x="771.984642082" xlink:href="#m0a0da4733f" y="332.69084936"/>
     <use style="fill:#e18632;" x="797.698927797" xlink:href="#m0a0da4733f" y="330.157776257"/>
     <use style="fill:#e18632;" x="823.413213511" xlink:href="#m0a0da4733f" y="328.291462244"/>
    </g>
   </g>
   <g id="line2d_50">
    <path d="M 103.413214 374.86227 
L 129.127499 373.840932 
L 154.841785 372.612669 
L 180.556071 371.281114 
L 206.270356 369.878552 
L 231.984642 368.421595 
L 257.698928 366.92063 
L 283.413214 365.38284 
L 309.127499 363.813502 
L 334.841785 362.216661 
L 360.556071 360.595514 
L 386.270356 358.952645 
L 411.984642 357.290188 
L 437.698928 355.60993 
L 463.413214 353.913387 
L 489.127499 352.201863 
L 514.841785 350.476486 
L 540.556071 348.738243 
L 566.270356 346.988004 
L 591.984642 345.226542 
L 617.698928 343.454543 
L 643.413214 341.672626 
L 669.127499 339.881348 
L 694.841785 338.081212 
L 720.556071 336.272677 
L 746.270356 334.456161 
L 771.984642 332.632049 
L 797.698928 330.800692 
L 823.413214 328.962415 
" style="fill:none;stroke:#e18632;stroke-dasharray:6.000000,6.000000;stroke-dashoffset:0.0;stroke-width:1.75;"/>
   </g>
   <g id="line2d_51">
    <defs>
     <path d="M 0 5 
C 1.326016 5 2.597899 4.473168 3.535534 3.535534 
C 4.473168 2.597899 5 1.326016 5 0 
C 5 -1.326016 4.473168 -2.597899 3.535534 -3.535534 
C 2.597899 -4.473168 1.326016 -5 0 -5 
C -1.326016 -5 -2.597899 -4.473168 -3.535534 -3.535534 
C -4.473168 -2.597899 -5 -1.326016 -5 0 
C -5 1.326016 -4.473168 2.597899 -3.535534 3.535534 
C -2.597899 4.473168 -1.326016 5 0 5 
z
" id="m4e264114ab"/>
    </defs>
    <g>
     <use style="fill:#b59a32;" x="103.413213511" xlink:href="#m4e264114ab" y="374.924592841"/>
     <use style="fill:#b59a32;" x="129.127499225" xlink:href="#m4e264114ab" y="373.08689488"/>
     <use style="fill:#b59a32;" x="154.841784939" xlink:href="#m4e264114ab" y="371.147624351"/>
     <use style="fill:#b59a32;" x="180.556070654" xlink:href="#m4e264114ab" y="369.06983003"/>
     <use style="fill:#b59a32;" x="206.270356368" xlink:href="#m4e264114ab" y="366.54585534"/>
     <use style="fill:#b59a32;" x="231.984642082" xlink:href="#m4e264114ab" y="363.928897721"/>
     <use style="fill:#b59a32;" x="257.698927797" xlink:href="#m4e264114ab" y="361.442241203"/>
     <use style="fill:#b59a32;" x="283.413213511" xlink:href="#m4e264114ab" y="358.733779857"/>
     <use style="fill:#b59a32;" x="309.127499225" xlink:href="#m4e264114ab" y="355.919977324"/>
     <use style="fill:#b59a32;" x="334.841784939" xlink:href="#m4e264114ab" y="353.147701597"/>
     <use style="fill:#b59a32;" x="360.556070654" xlink:href="#m4e264114ab" y="350.032507872"/>
     <use style="fill:#b59a32;" x="386.270356368" xlink:href="#m4e264114ab" y="347.465011729"/>
     <use style="fill:#b59a32;" x="411.984642082" xlink:href="#m4e264114ab" y="344.232200021"/>
     <use style="fill:#b59a32;" x="437.698927797" xlink:href="#m4e264114ab" y="341.226198219"/>
     <use style="fill:#b59a32;" x="463.413213511" xlink:href="#m4e264114ab" y="338.745667258"/>
     <use style="fill:#b59a32;" x="489.127499225" xlink:href="#m4e264114ab" y="335.798386077"/>
     <use style="fill:#b59a32;" x="514.841784939" xlink:href="#m4e264114ab" y="331.916796408"/>
     <use style="fill:#b59a32;" x="540.556070654" xlink:href="#m4e264114ab" y="329.285377386"/>
     <use style="fill:#b59a32;" x="566.270356368" xlink:href="#m4e264114ab" y="325.6187826"/>
     <use style="fill:#b59a32;" x="591.984642082" xlink:href="#m4e264114ab" y="323.08293331"/>
     <use style="fill:#b59a32;" x="617.698927797" xlink:href="#m4e264114ab" y="320.015029778"/>
     <use style="fill:#b59a32;" x="643.413213511" xlink:href="#m4e264114ab" y="317.27611018"/>
     <use style="fill:#b59a32;" x="669.127499225" xlink:href="#m4e264114ab" y="313.228668967"/>
     <use style="fill:#b59a32;" x="694.841784939" xlink:href="#m4e264114ab" y="310.106393657"/>
     <use style="fill:#b59a32;" x="720.556070654" xlink:href="#m4e264114ab" y="306.282913858"/>
     <use style="fill:#b59a32;" x="746.270356368" xlink:href="#m4e264114ab" y="303.119201172"/>
     <use style="fill:#b59a32;" x="771.984642082" xlink:href="#m4e264114ab" y="299.489989421"/>
     <use style="fill:#b59a32;" x="797.698927797" xlink:href="#m4e264114ab" y="296.122169873"/>
     <use style="fill:#b59a32;" x="823.413213511" xlink:href="#m4e264114ab" y="292.668586419"/>
    </g>
   </g>
   <g id="line2d_52">
    <path d="M 103.413214 375.256315 
L 129.127499 371.366824 
L 154.841785 370.480134 
L 180.556071 368.601462 
L 206.270356 366.394783 
L 231.984642 364.003026 
L 257.698928 361.481729 
L 283.413214 358.8599 
L 309.127499 356.15551 
L 334.841785 353.380927 
L 360.556071 350.545264 
L 386.270356 347.65556 
L 411.984642 344.717434 
L 437.698928 341.735491 
L 463.413214 338.713575 
L 489.127499 335.654948 
L 514.841785 332.562414 
L 540.556071 329.438407 
L 566.270356 326.285063 
L 591.984642 323.104268 
L 617.698928 319.8977 
L 643.413214 316.666863 
L 669.127499 313.413109 
L 694.841785 310.137662 
L 720.556071 306.841634 
L 746.270356 303.526039 
L 771.984642 300.191806 
L 797.698928 296.839788 
L 823.413214 293.470773 
" style="fill:none;stroke:#b59a32;stroke-dasharray:6.000000,6.000000;stroke-dashoffset:0.0;stroke-width:1.75;"/>
   </g>
   <g id="line2d_53">
    <defs>
     <path d="M 0 5 
C 1.326016 5 2.597899 4.473168 3.535534 3.535534 
C 4.473168 2.597899 5 1.326016 5 0 
C 5 -1.326016 4.473168 -2.597899 3.535534 -3.535534 
C 2.597899 -4.473168 1.326016 -5 0 -5 
C -1.326016 -5 -2.597899 -4.473168 -3.535534 -3.535534 
C -4.473168 -2.597899 -5 -1.326016 -5 0 
C -5 1.326016 -4.473168 2.597899 -3.535534 3.535534 
C -2.597899 4.473168 -1.326016 5 0 5 
z
" id="m066b265093"/>
    </defs>
    <g>
     <use style="fill:#8ba731;" x="129.127499225" xlink:href="#m066b265093" y="372.860863865"/>
     <use style="fill:#8ba731;" x="154.841784939" xlink:href="#m066b265093" y="370.425823809"/>
     <use style="fill:#8ba731;" x="180.556070654" xlink:href="#m066b265093" y="367.76966678"/>
     <use style="fill:#8ba731;" x="206.270356368" xlink:href="#m066b265093" y="364.434896824"/>
     <use style="fill:#8ba731;" x="231.984642082" xlink:href="#m066b265093" y="361.109745137"/>
     <use style="fill:#8ba731;" x="257.698927797" xlink:href="#m066b265093" y="357.506769257"/>
     <use style="fill:#8ba731;" x="283.413213511" xlink:href="#m066b265093" y="354.013551788"/>
     <use style="fill:#8ba731;" x="309.127499225" xlink:href="#m066b265093" y="350.232165157"/>
     <use style="fill:#8ba731;" x="334.841784939" xlink:href="#m066b265093" y="346.509571936"/>
     <use style="fill:#8ba731;" x="360.556070654" xlink:href="#m066b265093" y="342.515388782"/>
     <use style="fill:#8ba731;" x="386.270356368" xlink:href="#m066b265093" y="338.784229796"/>
     <use style="fill:#8ba731;" x="411.984642082" xlink:href="#m066b265093" y="334.262760137"/>
     <use style="fill:#8ba731;" x="437.698927797" xlink:href="#m066b265093" y="330.366897429"/>
     <use style="fill:#8ba731;" x="463.413213511" xlink:href="#m066b265093" y="326.568887829"/>
     <use style="fill:#8ba731;" x="489.127499225" xlink:href="#m066b265093" y="322.342903536"/>
     <use style="fill:#8ba731;" x="514.841784939" xlink:href="#m066b265093" y="317.545306431"/>
     <use style="fill:#8ba731;" x="540.556070654" xlink:href="#m066b265093" y="313.593565982"/>
     <use style="fill:#8ba731;" x="566.270356368" xlink:href="#m066b265093" y="308.557340525"/>
     <use style="fill:#8ba731;" x="591.984642082" xlink:href="#m066b265093" y="304.807721547"/>
     <use style="fill:#8ba731;" x="617.698927797" xlink:href="#m066b265093" y="300.500539564"/>
     <use style="fill:#8ba731;" x="643.413213511" xlink:href="#m066b265093" y="296.579795406"/>
     <use style="fill:#8ba731;" x="669.127499225" xlink:href="#m066b265093" y="290.634050427"/>
     <use style="fill:#8ba731;" x="694.841784939" xlink:href="#m066b265093" y="286.804896401"/>
     <use style="fill:#8ba731;" x="720.556070654" xlink:href="#m066b265093" y="281.394245348"/>
     <use style="fill:#8ba731;" x="746.270356368" xlink:href="#m066b265093" y="277.266421442"/>
     <use style="fill:#8ba731;" x="771.984642082" xlink:href="#m066b265093" y="272.144670193"/>
     <use style="fill:#8ba731;" x="797.698927797" xlink:href="#m066b265093" y="267.352877184"/>
     <use style="fill:#8ba731;" x="823.413213511" xlink:href="#m066b265093" y="262.639640983"/>
    </g>
   </g>
   <g id="line2d_54">
    <path d="M 129.127499 373.656315 
L 154.841785 371.256315 
L 180.556071 364.762934 
L 206.270356 362.909908 
L 231.984642 360.202356 
L 257.698928 357.086809 
L 283.413214 353.717869 
L 309.127499 350.166994 
L 334.841785 346.473873 
L 360.556071 342.663496 
L 386.270356 338.753056 
L 411.984642 334.755162 
L 437.698928 330.679503 
L 463.413214 326.533796 
L 489.127499 322.324353 
L 514.841785 318.05645 
L 540.556071 313.734569 
L 566.270356 309.362574 
L 591.984642 304.943833 
L 617.698928 300.481308 
L 643.413214 295.97763 
L 669.127499 291.435149 
L 694.841785 286.855979 
L 720.556071 282.242029 
L 746.270356 277.595037 
L 771.984642 272.916586 
L 797.698928 268.208128 
L 823.413214 263.470997 
" style="fill:none;stroke:#8ba731;stroke-dasharray:6.000000,6.000000;stroke-dashoffset:0.0;stroke-width:1.75;"/>
   </g>
   <g id="line2d_55">
    <defs>
     <path d="M 0 5 
C 1.326016 5 2.597899 4.473168 3.535534 3.535534 
C 4.473168 2.597899 5 1.326016 5 0 
C 5 -1.326016 4.473168 -2.597899 3.535534 -3.535534 
C 2.597899 -4.473168 1.326016 -5 0 -5 
C -1.326016 -5 -2.597899 -4.473168 -3.535534 -3.535534 
C -4.473168 -2.597899 -5 -1.326016 -5 0 
C -5 1.326016 -4.473168 2.597899 -3.535534 3.535534 
C -2.597899 4.473168 -1.326016 5 0 5 
z
" id="mf957804837"/>
    </defs>
    <g>
     <use style="fill:#32b258;" x="154.841784939" xlink:href="#mf957804837" y="370.198386136"/>
     <use style="fill:#32b258;" x="180.556070654" xlink:href="#mf957804837" y="366.990893696"/>
     <use style="fill:#32b258;" x="206.270356368" xlink:href="#mf957804837" y="363.131715179"/>
     <use style="fill:#32b258;" x="231.984642082" xlink:href="#mf957804837" y="359.069515346"/>
     <use style="fill:#32b258;" x="257.698927797" xlink:href="#mf957804837" y="354.877240436"/>
     <use style="fill:#32b258;" x="283.413213511" xlink:href="#mf957804837" y="350.474387748"/>
     <use style="fill:#32b258;" x="309.127499225" xlink:href="#mf957804837" y="345.952078921"/>
     <use style="fill:#32b258;" x="334.841784939" xlink:href="#mf957804837" y="341.450064789"/>
     <use style="fill:#32b258;" x="360.556070654" xlink:href="#mf957804837" y="336.647877295"/>
     <use style="fill:#32b258;" x="386.270356368" xlink:href="#mf957804837" y="331.807815565"/>
     <use style="fill:#32b258;" x="411.984642082" xlink:href="#mf957804837" y="326.34789515"/>
     <use style="fill:#32b258;" x="437.698927797" xlink:href="#mf957804837" y="321.654257976"/>
     <use style="fill:#32b258;" x="463.413213511" xlink:href="#mf957804837" y="316.780800722"/>
     <use style="fill:#32b258;" x="489.127499225" xlink:href="#mf957804837" y="311.110657511"/>
     <use style="fill:#32b258;" x="514.841784939" xlink:href="#mf957804837" y="305.766786575"/>
     <use style="fill:#32b258;" x="540.556070654" xlink:href="#mf957804837" y="300.433288328"/>
     <use style="fill:#32b258;" x="566.270356368" xlink:href="#mf957804837" y="294.381871812"/>
     <use style="fill:#32b258;" x="591.984642082" xlink:href="#mf957804837" y="289.574720622"/>
     <use style="fill:#32b258;" x="617.698927797" xlink:href="#mf957804837" y="284.041908381"/>
     <use style="fill:#32b258;" x="643.413213511" xlink:href="#mf957804837" y="278.751382185"/>
     <use style="fill:#32b258;" x="669.127499225" xlink:href="#mf957804837" y="271.849331222"/>
     <use style="fill:#32b258;" x="694.841784939" xlink:href="#mf957804837" y="266.428073921"/>
     <use style="fill:#32b258;" x="720.556070654" xlink:href="#mf957804837" y="259.785711345"/>
     <use style="fill:#32b258;" x="746.270356368" xlink:href="#mf957804837" y="254.594367333"/>
     <use style="fill:#32b258;" x="771.984642082" xlink:href="#mf957804837" y="248.39116052"/>
     <use style="fill:#32b258;" x="797.698927797" xlink:href="#mf957804837" y="242.599563548"/>
     <use style="fill:#32b258;" x="823.413213511" xlink:href="#mf957804837" y="236.561406488"/>
    </g>
   </g>
   <g id="line2d_56">
    <path d="M 154.841785 371.256315 
L 180.556071 368.056315 
L 206.270356 355.698349 
L 231.984642 354.860612 
L 257.698928 352.151591 
L 283.413214 348.626303 
L 309.127499 344.636904 
L 334.841785 340.337924 
L 360.556071 335.810188 
L 386.270356 331.101567 
L 411.984642 326.243159 
L 437.698928 321.256642 
L 463.413214 316.15797 
L 489.127499 310.959397 
L 514.841785 305.670653 
L 540.556071 300.29968 
L 566.270356 294.853094 
L 591.984642 289.33651 
L 617.698928 283.754761 
L 643.413214 278.112059 
L 669.127499 272.412111 
L 694.841785 266.658207 
L 720.556071 260.853293 
L 746.270356 255.000021 
L 771.984642 249.100791 
L 797.698928 243.15779 
L 823.413214 237.173018 
" style="fill:none;stroke:#32b258;stroke-dasharray:6.000000,6.000000;stroke-dashoffset:0.0;stroke-width:1.75;"/>
   </g>
   <g id="line2d_57">
    <defs>
     <path d="M 0 5 
C 1.326016 5 2.597899 4.473168 3.535534 3.535534 
C 4.473168 2.597899 5 1.326016 5 0 
C 5 -1.326016 4.473168 -2.597899 3.535534 -3.535534 
C 2.597899 -4.473168 1.326016 -5 0 -5 
C -1.326016 -5 -2.597899 -4.473168 -3.535534 -3.535534 
C -4.473168 -2.597899 -5 -1.326016 -5 0 
C -5 1.326016 -4.473168 2.597899 -3.535534 3.535534 
C -2.597899 4.473168 -1.326016 5 0 5 
z
" id="m17b28e844e"/>
    </defs>
    <g>
     <use style="fill:#35ae95;" x="180.556070654" xlink:href="#m17b28e844e" y="366.767810715"/>
     <use style="fill:#35ae95;" x="206.270356368" xlink:href="#m17b28e844e" y="362.462699092"/>
     <use style="fill:#35ae95;" x="231.984642082" xlink:href="#m17b28e844e" y="357.881627099"/>
     <use style="fill:#35ae95;" x="257.698927797" xlink:href="#m17b28e844e" y="352.887715326"/>
     <use style="fill:#35ae95;" x="283.413213511" xlink:href="#m17b28e844e" y="347.893204444"/>
     <use style="fill:#35ae95;" x="309.127499225" xlink:href="#m17b28e844e" y="342.78391889"/>
     <use style="fill:#35ae95;" x="334.841784939" xlink:href="#m17b28e844e" y="337.460286621"/>
     <use style="fill:#35ae95;" x="360.556070654" xlink:href="#m17b28e844e" y="331.825835041"/>
     <use style="fill:#35ae95;" x="386.270356368" xlink:href="#m17b28e844e" y="326.146209073"/>
     <use style="fill:#35ae95;" x="411.984642082" xlink:href="#m17b28e844e" y="319.798792429"/>
     <use style="fill:#35ae95;" x="437.698927797" xlink:href="#m17b28e844e" y="314.320112547"/>
     <use style="fill:#35ae95;" x="463.413213511" xlink:href="#m17b28e844e" y="308.481383156"/>
     <use style="fill:#35ae95;" x="489.127499225" xlink:href="#m17b28e844e" y="301.913737053"/>
     <use style="fill:#35ae95;" x="514.841784939" xlink:href="#m17b28e844e" y="295.496980052"/>
     <use style="fill:#35ae95;" x="540.556070654" xlink:href="#m17b28e844e" y="289.381806476"/>
     <use style="fill:#35ae95;" x="566.270356368" xlink:href="#m17b28e844e" y="282.360476316"/>
     <use style="fill:#35ae95;" x="591.984642082" xlink:href="#m17b28e844e" y="276.030095872"/>
     <use style="fill:#35ae95;" x="617.698927797" xlink:href="#m17b28e844e" y="269.576276613"/>
     <use style="fill:#35ae95;" x="643.413213511" xlink:href="#m17b28e844e" y="263.492314242"/>
     <use style="fill:#35ae95;" x="669.127499225" xlink:href="#m17b28e844e" y="255.38364625"/>
     <use style="fill:#35ae95;" x="694.841784939" xlink:href="#m17b28e844e" y="248.619966834"/>
     <use style="fill:#35ae95;" x="720.556070654" xlink:href="#m17b28e844e" y="241.102005021"/>
     <use style="fill:#35ae95;" x="746.270356368" xlink:href="#m17b28e844e" y="235.24664956"/>
     <use style="fill:#35ae95;" x="771.984642082" xlink:href="#m17b28e844e" y="227.787584754"/>
     <use style="fill:#35ae95;" x="797.698927797" xlink:href="#m17b28e844e" y="220.711602135"/>
     <use style="fill:#35ae95;" x="823.413213511" xlink:href="#m17b28e844e" y="213.893488841"/>
    </g>
   </g>
   <g id="line2d_58">
    <path d="M 180.556071 368.056315 
L 206.270356 364.056315 
L 231.984642 360.056315 
L 257.698928 343.795264 
L 283.413214 341.742772 
L 309.127499 338.205184 
L 334.841785 333.867694 
L 360.556071 329.024743 
L 386.270356 323.825983 
L 411.984642 318.357094 
L 437.698928 312.671742 
L 463.413214 306.805981 
L 489.127499 300.785435 
L 514.841785 294.629152 
L 540.556071 288.351829 
L 566.270356 281.965151 
L 591.984642 275.478646 
L 617.698928 268.900243 
L 643.413214 262.236659 
L 669.127499 255.493665 
L 694.841785 248.676281 
L 720.556071 241.788923 
L 746.270356 234.835508 
L 771.984642 227.819537 
L 797.698928 220.744164 
L 823.413214 213.612246 
" style="fill:none;stroke:#35ae95;stroke-dasharray:6.000000,6.000000;stroke-dashoffset:0.0;stroke-width:1.75;"/>
   </g>
   <g id="line2d_59">
    <defs>
     <path d="M 0 5 
C 1.326016 5 2.597899 4.473168 3.535534 3.535534 
C 4.473168 2.597899 5 1.326016 5 0 
C 5 -1.326016 4.473168 -2.597899 3.535534 -3.535534 
C 2.597899 -4.473168 1.326016 -5 0 -5 
C -1.326016 -5 -2.597899 -4.473168 -3.535534 -3.535534 
C -4.473168 -2.597899 -5 -1.326016 -5 0 
C -5 1.326016 -4.473168 2.597899 -3.535534 3.535534 
C -2.597899 4.473168 -1.326016 5 0 5 
z
" id="m7c844a4345"/>
    </defs>
    <g>
     <use style="fill:#37abb2;" x="206.270356368" xlink:href="#m7c844a4345" y="362.245480234"/>
     <use style="fill:#37abb2;" x="231.984642082" xlink:href="#m7c844a4345" y="357.256272122"/>
     <use style="fill:#37abb2;" x="257.698927797" xlink:href="#m7c844a4345" y="351.638944791"/>
     <use style="fill:#37abb2;" x="283.413213511" xlink:href="#m7c844a4345" y="346.135957276"/>
     <use style="fill:#37abb2;" x="309.127499225" xlink:href="#m7c844a4345" y="340.543128078"/>
     <use style="fill:#37abb2;" x="334.841784939" xlink:href="#m7c844a4345" y="334.204655754"/>
     <use style="fill:#37abb2;" x="360.556070654" xlink:href="#m7c844a4345" y="327.871091234"/>
     <use style="fill:#37abb2;" x="386.270356368" xlink:href="#m7c844a4345" y="321.643959108"/>
     <use style="fill:#37abb2;" x="411.984642082" xlink:href="#m7c844a4345" y="314.670736149"/>
     <use style="fill:#37abb2;" x="437.698927797" xlink:href="#m7c844a4345" y="308.077026351"/>
     <use style="fill:#37abb2;" x="463.413213511" xlink:href="#m7c844a4345" y="301.644035873"/>
     <use style="fill:#37abb2;" x="489.127499225" xlink:href="#m7c844a4345" y="294.103241108"/>
     <use style="fill:#37abb2;" x="514.841784939" xlink:href="#m7c844a4345" y="286.729363966"/>
     <use style="fill:#37abb2;" x="540.556070654" xlink:href="#m7c844a4345" y="279.92054967"/>
     <use style="fill:#37abb2;" x="566.270356368" xlink:href="#m7c844a4345" y="271.886827837"/>
     <use style="fill:#37abb2;" x="591.984642082" xlink:href="#m7c844a4345" y="264.59925129"/>
     <use style="fill:#37abb2;" x="617.698927797" xlink:href="#m7c844a4345" y="257.242069087"/>
     <use style="fill:#37abb2;" x="643.413213511" xlink:href="#m7c844a4345" y="249.968290481"/>
     <use style="fill:#37abb2;" x="669.127499225" xlink:href="#m7c844a4345" y="240.781724934"/>
     <use style="fill:#37abb2;" x="694.841784939" xlink:href="#m7c844a4345" y="233.145275764"/>
     <use style="fill:#37abb2;" x="720.556070654" xlink:href="#m7c844a4345" y="224.610229509"/>
     <use style="fill:#37abb2;" x="746.270356368" xlink:href="#m7c844a4345" y="217.712857862"/>
     <use style="fill:#37abb2;" x="771.984642082" xlink:href="#m7c844a4345" y="209.220945533"/>
     <use style="fill:#37abb2;" x="797.698927797" xlink:href="#m7c844a4345" y="201.162480961"/>
     <use style="fill:#37abb2;" x="823.413213511" xlink:href="#m7c844a4345" y="193.253373432"/>
    </g>
   </g>
   <g id="line2d_60">
    <path d="M 206.270356 364.056315 
L 231.984642 359.256315 
L 257.698928 354.456315 
L 283.413214 329.050891 
L 309.127499 328.48279 
L 334.841785 325.425888 
L 360.556071 321.070686 
L 386.270356 315.924147 
L 411.984642 310.240478 
L 437.698928 304.16264 
L 463.413214 297.778289 
L 489.127499 291.144955 
L 514.841785 284.302529 
L 540.556071 277.279953 
L 566.270356 270.09903 
L 591.984642 262.776714 
L 617.698928 255.326545 
L 643.413214 247.759584 
L 669.127499 240.085039 
L 694.841785 232.310707 
L 720.556071 224.44328 
L 746.270356 216.488576 
L 771.984642 208.451702 
L 797.698928 200.337184 
L 823.413214 192.149067 
" style="fill:none;stroke:#37abb2;stroke-dasharray:6.000000,6.000000;stroke-dashoffset:0.0;stroke-width:1.75;"/>
   </g>
   <g id="line2d_61">
    <defs>
     <path d="M 0 5 
C 1.326016 5 2.597899 4.473168 3.535534 3.535534 
C 4.473168 2.597899 5 1.326016 5 0 
C 5 -1.326016 4.473168 -2.597899 3.535534 -3.535534 
C 2.597899 -4.473168 1.326016 -5 0 -5 
C -1.326016 -5 -2.597899 -4.473168 -3.535534 -3.535534 
C -4.473168 -2.597899 -5 -1.326016 -5 0 
C -5 1.326016 -4.473168 2.597899 -3.535534 3.535534 
C -2.597899 4.473168 -1.326016 5 0 5 
z
" id="m7b5b5276bd"/>
    </defs>
    <g>
     <use style="fill:#39a7d6;" x="231.984642082" xlink:href="#m7b5b5276bd" y="357.066972811"/>
     <use style="fill:#39a7d6;" x="257.698927797" xlink:href="#m7b5b5276bd" y="350.942691742"/>
     <use style="fill:#39a7d6;" x="283.413213511" xlink:href="#m7b5b5276bd" y="344.977396868"/>
     <use style="fill:#39a7d6;" x="309.127499225" xlink:href="#m7b5b5276bd" y="338.817991316"/>
     <use style="fill:#39a7d6;" x="334.841784939" xlink:href="#m7b5b5276bd" y="331.909444385"/>
     <use style="fill:#39a7d6;" x="360.556070654" xlink:href="#m7b5b5276bd" y="324.780997037"/>
     <use style="fill:#39a7d6;" x="386.270356368" xlink:href="#m7b5b5276bd" y="318.01922867"/>
     <use style="fill:#39a7d6;" x="411.984642082" xlink:href="#m7b5b5276bd" y="310.160715078"/>
     <use style="fill:#39a7d6;" x="437.698927797" xlink:href="#m7b5b5276bd" y="302.926718763"/>
     <use style="fill:#39a7d6;" x="463.413213511" xlink:href="#m7b5b5276bd" y="295.743632465"/>
     <use style="fill:#39a7d6;" x="489.127499225" xlink:href="#m7b5b5276bd" y="287.342317914"/>
     <use style="fill:#39a7d6;" x="514.841784939" xlink:href="#m7b5b5276bd" y="279.192613805"/>
     <use style="fill:#39a7d6;" x="540.556070654" xlink:href="#m7b5b5276bd" y="271.574935394"/>
     <use style="fill:#39a7d6;" x="566.270356368" xlink:href="#m7b5b5276bd" y="262.629072416"/>
     <use style="fill:#39a7d6;" x="591.984642082" xlink:href="#m7b5b5276bd" y="254.513222248"/>
     <use style="fill:#39a7d6;" x="617.698927797" xlink:href="#m7b5b5276bd" y="245.902864238"/>
     <use style="fill:#39a7d6;" x="643.413213511" xlink:href="#m7b5b5276bd" y="238.216102271"/>
     <use style="fill:#39a7d6;" x="669.127499225" xlink:href="#m7b5b5276bd" y="228.154077348"/>
     <use style="fill:#39a7d6;" x="694.841784939" xlink:href="#m7b5b5276bd" y="219.579296344"/>
     <use style="fill:#39a7d6;" x="720.556070654" xlink:href="#m7b5b5276bd" y="209.645535404"/>
     <use style="fill:#39a7d6;" x="746.270356368" xlink:href="#m7b5b5276bd" y="201.5362546"/>
     <use style="fill:#39a7d6;" x="771.984642082" xlink:href="#m7b5b5276bd" y="192.541129051"/>
     <use style="fill:#39a7d6;" x="797.698927797" xlink:href="#m7b5b5276bd" y="183.13095539"/>
     <use style="fill:#39a7d6;" x="823.413213511" xlink:href="#m7b5b5276bd" y="174.564826702"/>
    </g>
   </g>
   <g id="line2d_62">
    <path d="M 231.984642 359.256315 
L 257.698928 353.656315 
L 283.413214 348.056315 
L 309.127499 309.955852 
L 334.841785 311.87646 
L 360.556071 309.894156 
L 386.270356 305.915441 
L 411.984642 300.748098 
L 437.698928 294.794476 
L 463.413214 288.278721 
L 489.127499 281.336611 
L 514.841785 274.055985 
L 540.556071 266.496783 
L 566.270356 258.701756 
L 591.984642 250.702551 
L 617.698928 242.52335 
L 643.413214 234.183138 
L 669.127499 225.69717 
L 694.841785 217.077958 
L 720.556071 208.335942 
L 746.270356 199.479968 
L 771.984642 190.517633 
L 797.698928 181.455535 
L 823.413214 172.299465 
" style="fill:none;stroke:#39a7d6;stroke-dasharray:6.000000,6.000000;stroke-dashoffset:0.0;stroke-width:1.75;"/>
   </g>
   <g id="line2d_63">
    <defs>
     <path d="M 0 5 
C 1.326016 5 2.597899 4.473168 3.535534 3.535534 
C 4.473168 2.597899 5 1.326016 5 0 
C 5 -1.326016 4.473168 -2.597899 3.535534 -3.535534 
C 2.597899 -4.473168 1.326016 -5 0 -5 
C -1.326016 -5 -2.597899 -4.473168 -3.535534 -3.535534 
C -4.473168 -2.597899 -5 -1.326016 -5 0 
C -5 1.326016 -4.473168 2.597899 -3.535534 3.535534 
C -2.597899 4.473168 -1.326016 5 0 5 
z
" id="m697e58936e"/>
    </defs>
    <g>
     <use style="fill:#8f93f4;" x="257.698927797" xlink:href="#m697e58936e" y="350.736162904"/>
     <use style="fill:#8f93f4;" x="283.413213511" xlink:href="#m697e58936e" y="344.354289625"/>
     <use style="fill:#8f93f4;" x="309.127499225" xlink:href="#m697e58936e" y="337.681089352"/>
     <use style="fill:#8f93f4;" x="334.841784939" xlink:href="#m697e58936e" y="330.164979568"/>
     <use style="fill:#8f93f4;" x="360.556070654" xlink:href="#m697e58936e" y="322.469320812"/>
     <use style="fill:#8f93f4;" x="386.270356368" xlink:href="#m697e58936e" y="315.269638498"/>
     <use style="fill:#8f93f4;" x="411.984642082" xlink:href="#m697e58936e" y="306.660858099"/>
     <use style="fill:#8f93f4;" x="437.698927797" xlink:href="#m697e58936e" y="298.598125753"/>
     <use style="fill:#8f93f4;" x="463.413213511" xlink:href="#m697e58936e" y="290.687865525"/>
     <use style="fill:#8f93f4;" x="489.127499225" xlink:href="#m697e58936e" y="281.608932479"/>
     <use style="fill:#8f93f4;" x="514.841784939" xlink:href="#m697e58936e" y="272.776616407"/>
     <use style="fill:#8f93f4;" x="540.556070654" xlink:href="#m697e58936e" y="264.306335662"/>
     <use style="fill:#8f93f4;" x="566.270356368" xlink:href="#m697e58936e" y="254.63244641"/>
     <use style="fill:#8f93f4;" x="591.984642082" xlink:href="#m697e58936e" y="245.71067251"/>
     <use style="fill:#8f93f4;" x="617.698927797" xlink:href="#m697e58936e" y="236.28447608"/>
     <use style="fill:#8f93f4;" x="643.413213511" xlink:href="#m697e58936e" y="227.514545284"/>
     <use style="fill:#8f93f4;" x="669.127499225" xlink:href="#m697e58936e" y="216.858493142"/>
     <use style="fill:#8f93f4;" x="694.841784939" xlink:href="#m697e58936e" y="207.465195074"/>
     <use style="fill:#8f93f4;" x="720.556070654" xlink:href="#m697e58936e" y="196.46298584"/>
     <use style="fill:#8f93f4;" x="746.270356368" xlink:href="#m697e58936e" y="187.702584923"/>
     <use style="fill:#8f93f4;" x="771.984642082" xlink:href="#m697e58936e" y="177.502357482"/>
     <use style="fill:#8f93f4;" x="797.698927797" xlink:href="#m697e58936e" y="167.245295963"/>
     <use style="fill:#8f93f4;" x="823.413213511" xlink:href="#m697e58936e" y="157.622373709"/>
    </g>
   </g>
   <g id="line2d_64">
    <path d="M 257.698928 353.656315 
L 283.413214 347.256315 
L 309.127499 340.856315 
L 334.841785 334.456315 
L 360.556071 291.42445 
L 386.270356 291.214696 
L 411.984642 288.073504 
L 437.698928 283.213777 
L 463.413214 277.237419 
L 489.127499 270.478024 
L 514.841785 263.136267 
L 540.556071 255.340842 
L 566.270356 247.17867 
L 591.984642 238.711036 
L 617.698928 229.982751 
L 643.413214 221.027612 
L 669.127499 211.871807 
L 694.841785 202.536105 
L 720.556071 193.037321 
L 746.270356 183.389315 
L 771.984642 173.603691 
L 797.698928 163.690303 
L 823.413214 153.657622 
" style="fill:none;stroke:#8f93f4;stroke-dasharray:6.000000,6.000000;stroke-dashoffset:0.0;stroke-width:1.75;"/>
   </g>
   <g id="line2d_65">
    <defs>
     <path d="M 0 5 
C 1.326016 5 2.597899 4.473168 3.535534 3.535534 
C 4.473168 2.597899 5 1.326016 5 0 
C 5 -1.326016 4.473168 -2.597899 3.535534 -3.535534 
C 2.597899 -4.473168 1.326016 -5 0 -5 
C -1.326016 -5 -2.597899 -4.473168 -3.535534 -3.535534 
C -4.473168 -2.597899 -5 -1.326016 -5 0 
C -5 1.326016 -4.473168 2.597899 -3.535534 3.535534 
C -2.597899 4.473168 -1.326016 5 0 5 
z
" id="m3d84e1c30e"/>
    </defs>
    <g>
     <use style="fill:#db70f4;" x="283.413213511" xlink:href="#m3d84e1c30e" y="344.165925085"/>
     <use style="fill:#db70f4;" x="309.127499225" xlink:href="#m3d84e1c30e" y="337.099128073"/>
     <use style="fill:#db70f4;" x="334.841784939" xlink:href="#m3d84e1c30e" y="329.078516472"/>
     <use style="fill:#db70f4;" x="360.556070654" xlink:href="#m3d84e1c30e" y="320.780443553"/>
     <use style="fill:#db70f4;" x="386.270356368" xlink:href="#m3d84e1c30e" y="313.014236899"/>
     <use style="fill:#db70f4;" x="411.984642082" xlink:href="#m3d84e1c30e" y="303.895795722"/>
     <use style="fill:#db70f4;" x="437.698927797" xlink:href="#m3d84e1c30e" y="295.381061947"/>
     <use style="fill:#db70f4;" x="463.413213511" xlink:href="#m3d84e1c30e" y="286.397516657"/>
     <use style="fill:#db70f4;" x="489.127499225" xlink:href="#m3d84e1c30e" y="276.840135848"/>
     <use style="fill:#db70f4;" x="514.841784939" xlink:href="#m3d84e1c30e" y="267.421422162"/>
     <use style="fill:#db70f4;" x="540.556070654" xlink:href="#m3d84e1c30e" y="258.043578086"/>
     <use style="fill:#db70f4;" x="566.270356368" xlink:href="#m3d84e1c30e" y="247.767493903"/>
     <use style="fill:#db70f4;" x="591.984642082" xlink:href="#m3d84e1c30e" y="237.94246302"/>
     <use style="fill:#db70f4;" x="617.698927797" xlink:href="#m3d84e1c30e" y="227.877222429"/>
     <use style="fill:#db70f4;" x="643.413213511" xlink:href="#m3d84e1c30e" y="218.063057066"/>
     <use style="fill:#db70f4;" x="669.127499225" xlink:href="#m3d84e1c30e" y="206.67364739"/>
     <use style="fill:#db70f4;" x="694.841784939" xlink:href="#m3d84e1c30e" y="196.399000946"/>
     <use style="fill:#db70f4;" x="720.556070654" xlink:href="#m3d84e1c30e" y="184.728663997"/>
     <use style="fill:#db70f4;" x="746.270356368" xlink:href="#m3d84e1c30e" y="174.977417775"/>
     <use style="fill:#db70f4;" x="771.984642082" xlink:href="#m3d84e1c30e" y="163.91743933"/>
     <use style="fill:#db70f4;" x="797.698927797" xlink:href="#m3d84e1c30e" y="152.677831133"/>
     <use style="fill:#db70f4;" x="823.413213511" xlink:href="#m3d84e1c30e" y="142.37876741"/>
    </g>
   </g>
   <g id="line2d_66">
    <path d="M 283.413214 347.256315 
L 309.127499 340.056315 
L 334.841785 332.856315 
L 360.556071 325.656315 
L 386.270356 266.622226 
L 411.984642 268.989847 
L 437.698928 267.215883 
L 463.413214 263.039695 
L 489.127499 257.322068 
L 514.841785 250.538649 
L 540.556071 242.974398 
L 566.270356 234.811086 
L 591.984642 226.170681 
L 617.698928 217.138522 
L 643.413214 207.776471 
L 669.127499 198.130756 
L 694.841785 188.236846 
L 720.556071 178.122588 
L 746.270356 167.810297 
L 771.984642 157.318178 
L 797.698928 146.661323 
L 823.413214 135.852423 
" style="fill:none;stroke:#db70f4;stroke-dasharray:6.000000,6.000000;stroke-dashoffset:0.0;stroke-width:1.75;"/>
   </g>
   <g id="line2d_67">
    <defs>
     <path d="M 0 -5 
L -5 5 
L 5 5 
z
" id="mf54862ebb3"/>
    </defs>
    <g>
     <use style="fill:#f667c6;" x="309.127499225" xlink:href="#mf54862ebb3" y="336.913639678"/>
     <use style="fill:#f667c6;" x="334.841784939" xlink:href="#mf54862ebb3" y="328.390302472"/>
     <use style="fill:#f667c6;" x="360.556070654" xlink:href="#mf54862ebb3" y="319.66333149"/>
     <use style="fill:#f667c6;" x="386.270356368" xlink:href="#mf54862ebb3" y="311.371921264"/>
     <use style="fill:#f667c6;" x="411.984642082" xlink:href="#mf54862ebb3" y="301.649825501"/>
     <use style="fill:#f667c6;" x="437.698927797" xlink:href="#mf54862ebb3" y="292.6473608"/>
     <use style="fill:#f667c6;" x="463.413213511" xlink:href="#mf54862ebb3" y="283.018440067"/>
     <use style="fill:#f667c6;" x="489.127499225" xlink:href="#mf54862ebb3" y="272.724081785"/>
     <use style="fill:#f667c6;" x="514.841784939" xlink:href="#mf54862ebb3" y="262.750887697"/>
     <use style="fill:#f667c6;" x="540.556070654" xlink:href="#mf54862ebb3" y="252.490157029"/>
     <use style="fill:#f667c6;" x="566.270356368" xlink:href="#mf54862ebb3" y="241.829476364"/>
     <use style="fill:#f667c6;" x="591.984642082" xlink:href="#mf54862ebb3" y="231.220081246"/>
     <use style="fill:#f667c6;" x="617.698927797" xlink:href="#mf54862ebb3" y="220.366790827"/>
     <use style="fill:#f667c6;" x="643.413213511" xlink:href="#mf54862ebb3" y="209.617321017"/>
     <use style="fill:#f667c6;" x="669.127499225" xlink:href="#mf54862ebb3" y="197.794701731"/>
     <use style="fill:#f667c6;" x="694.841784939" xlink:href="#mf54862ebb3" y="186.655464296"/>
     <use style="fill:#f667c6;" x="720.556070654" xlink:href="#mf54862ebb3" y="174.008209289"/>
     <use style="fill:#f667c6;" x="746.270356368" xlink:href="#mf54862ebb3" y="163.489889136"/>
     <use style="fill:#f667c6;" x="771.984642082" xlink:href="#mf54862ebb3" y="151.313201132"/>
     <use style="fill:#f667c6;" x="797.698927797" xlink:href="#mf54862ebb3" y="139.626386202"/>
     <use style="fill:#f667c6;" x="823.413213511" xlink:href="#mf54862ebb3" y="128.478445698"/>
    </g>
   </g>
   <g id="line2d_68">
    <path d="M 309.127499 340.056315 
L 334.841785 332.056315 
L 360.556071 324.056315 
L 386.270356 316.056315 
L 411.984642 308.056315 
L 437.698928 242.819025 
L 463.413214 243.012111 
L 489.127499 239.944083 
L 514.841785 234.802142 
L 540.556071 228.240967 
L 566.270356 220.651789 
L 591.984642 212.283346 
L 617.698928 203.301831 
L 643.413214 193.822934 
L 669.127499 183.930025 
L 694.841785 173.684994 
L 720.556071 163.134984 
L 746.270356 152.31673 
L 771.984642 141.259431 
L 797.698928 129.986718 
L 823.413214 118.518021 
" style="fill:none;stroke:#f667c6;stroke-dasharray:6.000000,6.000000;stroke-dashoffset:0.0;stroke-width:1.75;"/>
   </g>
   <g id="line2d_69">
    <path d="M 103.413214 374.856315 
L 129.127499 372.856315 
L 154.841785 370.056315 
L 180.556071 366.456315 
L 206.270356 362.056315 
L 231.984642 356.856315 
L 257.698928 350.856315 
L 283.413214 344.056315 
L 309.127499 336.456315 
L 334.841785 328.056315 
L 360.556071 318.856315 
L 386.270356 308.856315 
L 411.984642 298.056315 
L 437.698928 286.456315 
L 463.413214 274.056315 
L 489.127499 260.856315 
L 514.841785 246.856315 
L 540.556071 232.056315 
L 566.270356 216.456315 
L 591.984642 200.056315 
L 617.698928 182.856315 
L 643.413214 164.856315 
L 669.127499 146.056315 
L 694.841785 126.456315 
L 720.556071 106.056315 
L 746.270356 84.856315 
L 771.984642 62.856315 
L 797.698928 40.056315 
L 823.413214 16.456315 
" style="fill:none;stroke:#000000;stroke-linecap:round;stroke-width:4.0;"/>
   </g>
   <g id="line2d_70"/>
   <g id="patch_3">
    <path d="M 103.413214 16.056315 
L 823.413214 16.056315 
" style="fill:none;"/>
   </g>
   <g id="patch_4">
    <path d="M 823.413214 376.056315 
L 823.413214 16.056315 
" style="fill:none;"/>
   </g>
   <g id="patch_5">
    <path d="M 103.413214 376.056315 
L 823.413214 376.056315 
" style="fill:none;"/>
   </g>
   <g id="patch_6">
    <path d="M 103.413214 376.056315 
L 103.413214 16.056315 
" style="fill:none;"/>
   </g>
   <g id="legend_1">
    <g id="patch_7">
     <path d="M 113.913214 116.29394 
L 365.042546 116.29394 
Q 368.042546 116.29394 368.042546 113.29394 
L 368.042546 26.556315 
Q 368.042546 23.556315 365.042546 23.556315 
L 113.913214 23.556315 
Q 110.913214 23.556315 110.913214 26.556315 
L 110.913214 113.29394 
Q 110.913214 116.29394 113.913214 116.29394 
z
" style="fill:#eaeaf2;stroke:#ffffff;stroke-linejoin:miter;stroke-width:0.3;"/>
    </g>
    <g id="line2d_71"/>
    <g id="line2d_72">
     <g>
      <use style="fill:#e18632;" x="131.913213511" xlink:href="#m0a0da4733f" y="36.3445306419"/>
     </g>
    </g>
    <g id="text_19">
     <!-- $\mathrm{Rank}(\rho_{0})=$1 -->
     <defs>
      <path d="M 36 25.828125 
C 36 32.375 36 35.84375 31.796875 39.734375 
C 28.09375 43 23.796875 44 20.40625 44 
C 12.5 44 6.796875 37.609375 6.796875 30.796875 
C 6.796875 27 9.796875 27 10.40625 27 
C 11.703125 27 14 27.78125 14 30.53125 
C 14 33 12.09375 34.078125 10.40625 34.078125 
C 10 34.078125 9.5 33.96875 9.203125 33.875 
C 11.296875 40.5 16.703125 42.40625 20.203125 42.40625 
C 25.203125 42.40625 30.703125 37.953125 30.703125 29.453125 
L 30.703125 25 
C 24.796875 25 17.703125 24.203125 12.09375 21.203125 
C 5.796875 17.703125 4 12.703125 4 8.90625 
C 4 1.203125 13 -1 18.296875 -1 
C 23.796875 -1 28.90625 2.171875 31.09375 7.984375 
C 31.296875 3.640625 34.09375 -0.28125 38.5 -0.28125 
C 40.59375 -0.28125 45.90625 1.09375 45.90625 8.859375 
L 45.90625 14.375 
L 44.09375 14.375 
L 44.09375 8.78125 
C 44.09375 2.78125 41.40625 2 40.09375 2 
C 36 2 36 7.15625 36 11.53125 
z
M 30.703125 13.59375 
C 30.703125 4.953125 24.5 0.59375 19 0.59375 
C 14 0.59375 10.09375 4.296875 10.09375 8.90625 
C 10.09375 11.890625 11.40625 17.1875 17.203125 20.390625 
C 22 23.09375 27.5 23.5 30.703125 23.5 
z
" id="CMR17-97"/>
      <path d="M 39.203125 33.53125 
C 48.703125 35.4375 56.703125 41.8125 56.703125 49.78125 
C 56.703125 59.140625 46.09375 67.59375 32.09375 67.59375 
L 5.203125 67.59375 
L 5.203125 65 
C 12.09375 65 13.203125 65 13.203125 60.515625 
L 13.203125 6.484375 
C 13.203125 2 12.09375 2 5.203125 2 
L 5.203125 -0.40625 
C 8.09375 -0.40625 13.296875 -0.40625 16.40625 -0.40625 
C 19.5 -0.40625 24.703125 -0.40625 27.59375 -0.40625 
L 27.59375 2 
C 20.703125 2 19.59375 2 19.59375 6.515625 
L 19.59375 33 
L 31.296875 33 
C 37 33 40.203125 30.6875 41.59375 29.390625 
C 45.59375 25.5 45.59375 22.796875 45.59375 16 
C 45.59375 9.296875 45.59375 5.890625 48.59375 2.5 
C 52.40625 -1.59375 57.5 -2 59.703125 -2 
C 67.09375 -2 68.203125 6.1875 68.203125 7.859375 
C 68.203125 8.4375 68.203125 9.140625 67.296875 9.140625 
C 66.5 9.140625 66.40625 8.546875 66.40625 8.15625 
C 65.90625 1.75 63 -0.40625 59.90625 -0.40625 
C 54.40625 -0.40625 53.796875 5.859375 53.203125 11.9375 
C 52.90625 14.03125 52.703125 15.515625 52.5 17.703125 
C 51.90625 22.6875 51.09375 29.953125 39.203125 33.53125 
M 31 34.59375 
L 19.59375 34.59375 
L 19.59375 61.140625 
C 19.59375 64.515625 19.796875 65 23.796875 65 
L 31.09375 65 
C 39.40625 65 49.09375 62.140625 49.09375 49.84375 
C 49.09375 37.0625 38.5 34.59375 31 34.59375 
" id="CMR17-82"/>
      <path d="M 64.296875 31.515625 
C 65.796875 31.515625 67.296875 31.515625 67.296875 33.203125 
C 67.296875 35 65.59375 35 63.90625 35 
L 8 35 
C 6.296875 35 4.59375 35 4.59375 33.203125 
C 4.59375 31.515625 6.09375 31.515625 7.59375 31.515625 
z
M 63.90625 14 
C 65.59375 14 67.296875 14 67.296875 15.796875 
C 67.296875 17.484375 65.796875 17.484375 64.296875 17.484375 
L 7.59375 17.484375 
C 6.09375 17.484375 4.59375 17.484375 4.59375 15.796875 
C 4.59375 14 6.296875 14 8 14 
z
" id="CMR17-61"/>
      <path d="M 28.40625 67 
L 26.5 67 
C 21.09375 61.5625 14.796875 60.78125 8.40625 60.78125 
L 8.40625 55 
C 11.296875 55 16 55 20.703125 57.296875 
L 20.703125 5.765625 
L 8.90625 5.765625 
L 8.90625 0 
L 40.203125 0 
L 40.203125 5.765625 
L 28.40625 5.765625 
z
" id="CMSS17-49"/>
      <path d="M 26.296875 24.6875 
C 26.296875 31.875 25.59375 44.015625 19.59375 56.859375 
C 14.796875 67.234375 6.59375 74.5 5.40625 74.5 
C 5.09375 74.5 4.703125 74.390625 4.703125 73.890625 
C 4.703125 73.703125 4.796875 73.59375 4.90625 73.390625 
C 9.703125 68.40625 21.90625 55.75 21.90625 24.75 
C 21.90625 -6.359375 9.796875 -19.015625 4.90625 -24.015625 
C 4.796875 -24.203125 4.703125 -24.3125 4.703125 -24.5 
C 4.703125 -25 5.09375 -25 5.40625 -25 
C 6.5 -25 15 -17.625 19.90625 -6.65625 
C 24.90625 4.390625 26.296875 15.140625 26.296875 24.6875 
" id="CMR17-41"/>
      <path d="M 26.09375 26.140625 
C 26 26.34375 25.5 26.9375 25.5 27.234375 
C 25.5 27.4375 32.59375 33.921875 33.5 34.71875 
C 39.203125 39.5 42.796875 40 45.40625 40 
L 45.40625 42.703125 
C 44.796875 42.703125 44.59375 42.703125 44.5 42.5 
L 39.59375 42.5 
C 36.796875 42.5 32.5 42.5 29.796875 42.703125 
L 29.796875 40.09375 
C 31.203125 39.984375 32.203125 39.1875 32.203125 37.796875 
C 32.203125 35.796875 30.203125 33.90625 30.09375 33.90625 
L 15 20.140625 
L 15 68.6875 
L 3.09375 67.59375 
L 3.09375 65 
C 9 65 9.90625 64.40625 9.90625 59.640625 
L 9.90625 6.65625 
C 9.90625 2.875 9.5 2.390625 3.09375 2.390625 
L 3.09375 -0.203125 
C 5.5 0 9.90625 0 12.40625 0 
C 14.90625 0 19.296875 0 21.703125 -0.203125 
L 21.703125 2.390625 
C 15.296875 2.390625 14.90625 2.78125 14.90625 6.6875 
L 14.90625 17.65625 
L 21.796875 23.9375 
L 31.90625 8.96875 
C 33.09375 7.171875 34.09375 5.765625 34.09375 4.46875 
C 34.09375 2.6875 32.296875 2.390625 31.09375 2.390625 
L 31.09375 -0.203125 
C 33.5 0 37.796875 0 40.296875 0 
C 42.09375 0 45.796875 0 47.5 0 
L 47.5 2.390625 
C 42.796875 2.390625 41.703125 3.28125 38.703125 7.671875 
z
" id="CMR17-107"/>
      <path d="M 30.59375 -24.390625 
C 30.59375 -24.296875 30.59375 -24.09375 30.296875 -23.796875 
C 25.703125 -19.125 13.40625 -6.359375 13.40625 24.6875 
C 13.40625 55.765625 25.5 68.421875 30.40625 73.390625 
C 30.40625 73.5 30.59375 73.703125 30.59375 74 
C 30.59375 74.296875 30.296875 74.5 29.90625 74.5 
C 28.796875 74.5 20.296875 67.125 15.40625 56.15625 
C 10.40625 45.109375 9 34.359375 9 24.8125 
C 9 17.625 9.703125 5.484375 15.703125 -7.359375 
C 20.5 -17.734375 28.703125 -25 29.90625 -25 
C 30.40625 -25 30.59375 -24.796875 30.59375 -24.390625 
" id="CMR17-40"/>
      <path d="M 41.5 30.203125 
C 41.5 35.296875 40.5 43.59375 28.703125 43.59375 
C 20.796875 43.59375 16.703125 37.5 15.203125 33.5 
L 15.09375 33.5 
L 15.09375 43.59375 
L 3.296875 42.5 
L 3.296875 39.90625 
C 9.203125 39.90625 10.09375 39.296875 10.09375 34.5 
L 10.09375 6.6875 
C 10.09375 2.875 9.703125 2.390625 3.296875 2.390625 
L 3.296875 -0.203125 
C 5.703125 0 10.09375 0 12.703125 0 
C 15.296875 0 19.796875 0 22.203125 -0.203125 
L 22.203125 2.390625 
C 15.796875 2.390625 15.40625 2.78125 15.40625 6.6875 
L 15.40625 25.90625 
C 15.40625 35.109375 21 42 28 42 
C 35.40625 42 36.203125 35.40625 36.203125 30.59375 
L 36.203125 6.6875 
C 36.203125 2.875 35.796875 2.390625 29.40625 2.390625 
L 29.40625 -0.203125 
C 31.796875 0 36.203125 0 38.796875 0 
C 41.40625 0 45.90625 0 48.296875 -0.203125 
L 48.296875 2.390625 
C 41.90625 2.390625 41.5 2.78125 41.5 6.6875 
z
" id="CMR17-110"/>
      <path d="M 3.09375 -17.296875 
C 3 -17.796875 2.796875 -18.390625 2.796875 -19 
C 2.796875 -20.5 4 -21.5 5.5 -21.5 
C 7 -21.5 8.40625 -20.5 9 -19.09375 
C 9.40625 -18.1875 12.203125 -6.203125 15.40625 6.09375 
C 17.40625 1.09375 21.09375 -1 25 -1 
C 36.296875 -1 49.09375 12.96875 49.09375 28.046875 
C 49.09375 38.71875 42.59375 44 35.703125 44 
C 26.90625 44 16.203125 34.921875 12.90625 21.640625 
z
M 24.90625 1 
C 18.09375 1 16.40625 8.890625 16.40625 10.078125 
C 16.40625 10.6875 18.90625 20.234375 19.203125 21.734375 
C 24.296875 41.71875 34.09375 41.71875 35.59375 41.71875 
C 40.09375 41.71875 42.59375 37.65625 42.59375 31.8125 
C 42.59375 26.75 39.90625 16.9375 38.203125 12.796875 
C 35.203125 5.953125 30 1 24.90625 1 
" id="CMMI12-26"/>
     </defs>
     <g style="fill:#262626;" transform="translate(158.913213511 41.5945306419)scale(0.15 -0.15)">
      <use transform="translate(0.0 14.9439145441)scale(0.996264009963)" xlink:href="#CMR17-82"/>
      <use transform="translate(67.7911019711 14.9439145441)scale(0.996264009963)" xlink:href="#CMR17-97"/>
      <use transform="translate(113.481579088 14.9439145441)scale(0.996264009963)" xlink:href="#CMR17-110"/>
      <use transform="translate(164.376948869 14.9439145441)scale(0.996264009963)" xlink:href="#CMR17-107"/>
      <use transform="translate(212.669864716 14.9439145441)scale(0.996264009963)" xlink:href="#CMR17-40"/>
      <use transform="translate(247.950632516 14.9439145441)scale(0.996264009963)" xlink:href="#CMMI12-26"/>
      <use transform="translate(298.265005375 0.0)scale(0.697381766617)" xlink:href="#CMR17-48"/>
      <use transform="translate(330.746319344 14.9439145441)scale(0.996264009963)" xlink:href="#CMR17-41"/>
      <use transform="translate(393.701095866 14.9439145441)scale(0.996264009963)" xlink:href="#CMR17-61"/>
      <use transform="translate(465.415884282 14.9439145441)scale(0.996264009963)" xlink:href="#CMSS17-49"/>
     </g>
    </g>
    <g id="line2d_73">
     <path d="M 116.913214 57.250275 
L 146.913214 57.250275 
" style="fill:none;stroke:#000000;stroke-linecap:round;stroke-width:4.0;"/>
    </g>
    <g id="line2d_74"/>
    <g id="text_20">
     <!-- Wilks Theorem -->
     <defs>
      <path d="M 87.203125 69 
L 79.59375 69 
L 71.203125 38.078125 
C 69.90625 33.09375 68.703125 28.140625 67.5 23.15625 
C 65.703125 15.796875 64.40625 10.640625 64.203125 8.046875 
L 64.09375 8.046875 
C 63.90625 10.734375 62.59375 16.390625 61 22.765625 
C 59.796875 28.046875 58.5 33.296875 57.09375 38.46875 
L 48.796875 69 
L 40.40625 69 
L 32.5 40.03125 
L 28.5 24.203125 
C 25.5 11.671875 25.40625 9.875 25.203125 7.890625 
L 25.09375 7.890625 
C 25.09375 8.484375 24.703125 11.765625 21.90625 23.40625 
C 20.5 29.1875 19.09375 35.0625 17.59375 40.640625 
L 9.90625 69 
L 1.296875 69 
L 20.296875 0 
L 28.59375 0 
L 36.5 28.734375 
L 40.5 44.546875 
C 43.203125 55.6875 43.796875 58.46875 44 60.953125 
L 44.09375 60.953125 
C 44.09375 60.5625 45 54.28125 48.90625 39.765625 
L 59.5 0 
L 68.203125 0 
z
" id="CMSS17-87"/>
      <path d="M 36.203125 62 
L 44.5 62 
C 45.703125 62 46.90625 62 48.09375 62 
L 60.59375 62 
L 60.59375 68.375 
L 3.40625 68.375 
L 3.40625 62 
L 15.90625 62 
C 17.09375 62 18.296875 62 19.5 62 
L 27.796875 62 
L 27.796875 -0.5 
L 36.203125 -0.5 
z
" id="CMSS17-84"/>
      <path d="M 40.90625 29.546875 
C 40.90625 35.8125 39.40625 44.0625 28.09375 44.0625 
C 21.796875 44.0625 17.703125 40.984375 14.796875 37.609375 
L 14.796875 69.5 
L 7.40625 69.5 
L 7.40625 0.5 
L 15 0.5 
L 15 24.578125 
C 15 30.828125 17.40625 38 24.203125 38 
C 33 38 33.296875 32.125 33.296875 28.734375 
L 33.296875 0.5 
L 40.90625 0.5 
z
" id="CMSS17-104"/>
      <path d="M 26.5 26.375 
L 42 42.796875 
L 32.40625 42.796875 
L 14.90625 24.28125 
L 14.90625 69 
L 7.5 69 
L 7.5 0 
L 14.796875 0 
L 14.796875 13.9375 
L 21.5 21 
L 35.59375 0 
L 44.09375 0 
z
" id="CMSS17-107"/>
     </defs>
     <g style="fill:#262626;" transform="translate(158.913213511 62.5002753347)scale(0.15 -0.15)">
      <use transform="scale(0.996264009963)" xlink:href="#CMSS17-87"/>
      <use transform="translate(88.2421662175 0.0)scale(0.996264009963)" xlink:href="#CMSS17-105"/>
      <use transform="translate(110.422889263 0.0)scale(0.996264009963)" xlink:href="#CMSS17-108"/>
      <use transform="translate(132.603612308 0.0)scale(0.996264009963)" xlink:href="#CMSS17-107"/>
      <use transform="translate(178.206101509 0.0)scale(0.996264009963)" xlink:href="#CMSS17-115"/>
      <use transform="translate(245.348756251 0.0)scale(0.996264009963)" xlink:href="#CMSS17-84"/>
      <use transform="translate(309.168210154 0.0)scale(0.996264009963)" xlink:href="#CMSS17-104"/>
      <use transform="translate(357.373153287 0.0)scale(0.996264009963)" xlink:href="#CMSS17-101"/>
      <use transform="translate(399.011975356 0.0)scale(0.996264009963)" xlink:href="#CMSS17-111"/>
      <use transform="translate(443.253144945 0.0)scale(0.996264009963)" xlink:href="#CMSS17-114"/>
      <use transform="translate(475.162917502 0.0)scale(0.996264009963)" xlink:href="#CMSS17-101"/>
      <use transform="translate(516.80173957 0.0)scale(0.996264009963)" xlink:href="#CMSS17-109"/>
     </g>
    </g>
    <g id="line2d_75"/>
    <g id="line2d_76">
     <defs>
      <path d="M 0 5 
C 1.326016 5 2.597899 4.473168 3.535534 3.535534 
C 4.473168 2.597899 5 1.326016 5 0 
C 5 -1.326016 4.473168 -2.597899 3.535534 -3.535534 
C 2.597899 -4.473168 1.326016 -5 0 -5 
C -1.326016 -5 -2.597899 -4.473168 -3.535534 -3.535534 
C -4.473168 -2.597899 -5 -1.326016 -5 0 
C -5 1.326016 -4.473168 2.597899 -3.535534 3.535534 
C -2.597899 4.473168 -1.326016 5 0 5 
z
" id="mc50064fe4d"/>
     </defs>
     <g>
      <use x="131.913213511" xlink:href="#mc50064fe4d" y="79.6942354841"/>
     </g>
    </g>
    <g id="text_21">
     <!-- (various colors) $\mathrm{Rank}(\rho_{0}) = 2...9$ -->
     <defs>
      <path d="M 40.90625 42.796875 
L 33.296875 42.796875 
L 33.296875 15.1875 
C 33.296875 7.78125 27.90625 4.78125 22.203125 4.78125 
C 15.59375 4.78125 15 6.984375 15 11.078125 
L 15 42.796875 
L 7.40625 42.796875 
L 7.40625 10.59375 
C 7.40625 2.796875 10.09375 -1 17 -1 
C 20.40625 -1 28.09375 -0.203125 33.5 4.78125 
L 33.5 0 
L 40.90625 0 
z
" id="CMSS17-117"/>
      <path d="M 41.796875 43 
L 34 43 
L 27.296875 24.3125 
C 25.203125 18.203125 22.203125 9.796875 21.703125 5.5 
L 21.59375 5.5 
C 21.40625 7.3125 20.59375 9.90625 20.09375 11.703125 
C 19.5 13.90625 18.703125 16.5 18.09375 18.3125 
L 9.296875 43 
L 1.296875 43 
L 17.09375 0 
L 26 0 
z
" id="CMSS17-118"/>
      <path d="M 18.40625 4.796875 
C 18.40625 7.6875 16 9.671875 13.59375 9.671875 
C 10.703125 9.671875 8.703125 7.28125 8.703125 4.890625 
C 8.703125 2 11.09375 0 13.5 0 
C 16.40625 0 18.40625 2.390625 18.40625 4.796875 
" id="CMMI12-58"/>
     </defs>
     <g style="fill:#262626;" transform="translate(158.913213511 84.9442354841)scale(0.15 -0.15)">
      <use transform="translate(0.0 14.9439145441)scale(0.996264009963)" xlink:href="#CMSS17-40"/>
      <use transform="translate(36.4339142036 14.9439145441)scale(0.996264009963)" xlink:href="#CMSS17-118"/>
      <use transform="translate(79.4340558842 14.9439145441)scale(0.996264009963)" xlink:href="#CMSS17-97"/>
      <use transform="translate(121.753522557 14.9439145441)scale(0.996264009963)" xlink:href="#CMSS17-114"/>
      <use transform="translate(153.663295114 14.9439145441)scale(0.996264009963)" xlink:href="#CMSS17-105"/>
      <use transform="translate(175.844018159 14.9439145441)scale(0.996264009963)" xlink:href="#CMSS17-111"/>
      <use transform="translate(222.687641681 14.9439145441)scale(0.996264009963)" xlink:href="#CMSS17-117"/>
      <use transform="translate(270.892584814 14.9439145441)scale(0.996264009963)" xlink:href="#CMSS17-115"/>
      <use transform="translate(338.035239556 14.9439145441)scale(0.996264009963)" xlink:href="#CMSS17-99"/>
      <use transform="translate(379.674061624 14.9439145441)scale(0.996264009963)" xlink:href="#CMSS17-111"/>
      <use transform="translate(426.517685146 14.9439145441)scale(0.996264009963)" xlink:href="#CMSS17-108"/>
      <use transform="translate(448.698408191 14.9439145441)scale(0.996264009963)" xlink:href="#CMSS17-111"/>
      <use transform="translate(492.93957778 14.9439145441)scale(0.996264009963)" xlink:href="#CMSS17-114"/>
      <use transform="translate(524.849350337 14.9439145441)scale(0.996264009963)" xlink:href="#CMSS17-115"/>
      <use transform="translate(560.762892328 14.9439145441)scale(0.996264009963)" xlink:href="#CMSS17-41"/>
      <use transform="translate(628.425919282 14.9439145441)scale(0.996264009963)" xlink:href="#CMR17-82"/>
      <use transform="translate(696.217021253 14.9439145441)scale(0.996264009963)" xlink:href="#CMR17-97"/>
      <use transform="translate(741.90749837 14.9439145441)scale(0.996264009963)" xlink:href="#CMR17-110"/>
      <use transform="translate(792.802868151 14.9439145441)scale(0.996264009963)" xlink:href="#CMR17-107"/>
      <use transform="translate(841.095783998 14.9439145441)scale(0.996264009963)" xlink:href="#CMR17-40"/>
      <use transform="translate(876.376551798 14.9439145441)scale(0.996264009963)" xlink:href="#CMMI12-26"/>
      <use transform="translate(926.690924658 0.0)scale(0.697381766617)" xlink:href="#CMR17-48"/>
      <use transform="translate(959.172238627 14.9439145441)scale(0.996264009963)" xlink:href="#CMR17-41"/>
      <use transform="translate(1022.12701515 14.9439145441)scale(0.996264009963)" xlink:href="#CMR17-61"/>
      <use transform="translate(1121.51581229 14.9439145441)scale(0.996264009963)" xlink:href="#CMR17-50"/>
      <use transform="translate(1167.2062894 14.9439145441)scale(0.996264009963)" xlink:href="#CMMI12-58"/>
      <use transform="translate(1194.30346649 14.9439145441)scale(0.996264009963)" xlink:href="#CMMI12-58"/>
      <use transform="translate(1221.40064358 14.9439145441)scale(0.996264009963)" xlink:href="#CMMI12-58"/>
      <use transform="translate(1248.49782067 14.9439145441)scale(0.996264009963)" xlink:href="#CMR17-57"/>
     </g>
    </g>
    <g id="line2d_77"/>
    <g id="line2d_78">
     <g>
      <use style="fill:#f667c6;" x="131.913213511" xlink:href="#mf54862ebb3" y="102.138195634"/>
     </g>
    </g>
    <g id="text_22">
     <!-- $\mathrm{Rank}(\rho_{0})=$10 -->
     <defs>
      <path d="M 43.09375 31.9375 
C 43.09375 37.578125 43 48.078125 38.90625 56.1875 
C 34.796875 64 28.203125 66.078125 23.5 66.078125 
C 16.703125 66.078125 10.90625 62.125 7.90625 55.78125 
C 4.703125 49.15625 3.796875 42.328125 3.796875 31.9375 
C 3.796875 24.828125 4.09375 16.109375 7.703125 8.484375 
C 11.796875 0.078125 18.703125 -2 23.40625 -2 
C 29.59375 -2 35.59375 1.265625 39 8.09375 
C 42.5 15.21875 43.09375 23.03125 43.09375 31.9375 
M 23.40625 4.078125 
C 15.796875 4.078125 13.5 12.671875 12.796875 15.546875 
C 11.59375 20.46875 11.40625 25.21875 11.40625 33.03125 
C 11.40625 39.15625 11.40625 46.0625 13.296875 51.515625 
C 15.59375 57.828125 19.59375 60 23.40625 60 
C 30.796875 60 33.203125 52.6875 34 50.125 
C 35.5 44.890625 35.5 38.765625 35.5 33.03125 
C 35.5 23.84375 35.5 4.078125 23.40625 4.078125 
" id="CMSS17-48"/>
     </defs>
     <g style="fill:#262626;" transform="translate(158.913213511 107.388195634)scale(0.15 -0.15)">
      <use transform="translate(0.0 14.9439145441)scale(0.996264009963)" xlink:href="#CMR17-82"/>
      <use transform="translate(67.7911019711 14.9439145441)scale(0.996264009963)" xlink:href="#CMR17-97"/>
      <use transform="translate(113.481579088 14.9439145441)scale(0.996264009963)" xlink:href="#CMR17-110"/>
      <use transform="translate(164.376948869 14.9439145441)scale(0.996264009963)" xlink:href="#CMR17-107"/>
      <use transform="translate(212.669864716 14.9439145441)scale(0.996264009963)" xlink:href="#CMR17-40"/>
      <use transform="translate(247.950632516 14.9439145441)scale(0.996264009963)" xlink:href="#CMMI12-26"/>
      <use transform="translate(298.265005375 0.0)scale(0.697381766617)" xlink:href="#CMR17-48"/>
      <use transform="translate(330.746319344 14.9439145441)scale(0.996264009963)" xlink:href="#CMR17-41"/>
      <use transform="translate(393.701095866 14.9439145441)scale(0.996264009963)" xlink:href="#CMR17-61"/>
      <use transform="translate(465.415884282 14.9439145441)scale(0.996264009963)" xlink:href="#CMSS17-49"/>
      <use transform="translate(512.259507803 14.9439145441)scale(0.996264009963)" xlink:href="#CMSS17-48"/>
     </g>
    </g>
   </g>
  </g>
 </g>
 <defs>
  <clipPath id="p492f7bad60">
   <rect height="360.0" width="720.0" x="103.413213511" y="16.0563151852"/>
  </clipPath>
 </defs>
</svg>
