<?xml version="1.0" encoding="utf-8" standalone="no"?>
<!DOCTYPE svg PUBLIC "-//W3C//DTD SVG 1.1//EN"
  "http://www.w3.org/Graphics/SVG/1.1/DTD/svg11.dtd">
<!-- Created with matplotlib (http://matplotlib.org/) -->
<svg height="468pt" version="1.1" viewBox="0 0 893 468" width="893pt" xmlns="http://www.w3.org/2000/svg" xmlns:xlink="http://www.w3.org/1999/xlink">
 <defs>
  <style type="text/css">
*{stroke-linecap:butt;stroke-linejoin:round;stroke-miterlimit:100000;}
  </style>
 </defs>
 <g id="figure_1">
  <g id="patch_1">
   <path d="M 0 468.751562 
L 893.35 468.751562 
L 893.35 0 
L 0 0 
z
" style="fill:#ffffff;"/>
  </g>
  <g id="axes_1">
   <g id="patch_2">
    <path d="M 147.0625 381.717187 
L 867.0625 381.717187 
L 867.0625 21.717187 
L 147.0625 21.717187 
z
" style="fill:#eaeaf2;"/>
   </g>
   <g id="matplotlib.axis_1">
    <g id="xtick_1">
     <g id="line2d_1">
      <path clip-path="url(#pccd91fc289)" d="M 224.205357 381.717187 
L 224.205357 21.717187 
" style="fill:none;stroke:#ffffff;stroke-linecap:round;"/>
     </g>
     <g id="line2d_2">
      <defs>
       <path d="M 0 0 
L 0 0 
" id="mef753c87f3" style="stroke:#262626;"/>
      </defs>
      <g>
       <use style="fill:#262626;stroke:#262626;" x="224.205357143" xlink:href="#mef753c87f3" y="381.7171875"/>
      </g>
     </g>
     <g id="line2d_3">
      <g>
       <use style="fill:#262626;stroke:#262626;" x="224.205357143" xlink:href="#mef753c87f3" y="21.7171875"/>
      </g>
     </g>
     <g id="text_1">
      <!-- 5 -->
      <defs>
       <path d="M 10.796875 72.90625 
L 49.515625 72.90625 
L 49.515625 64.59375 
L 19.828125 64.59375 
L 19.828125 46.734375 
Q 21.96875 47.46875 24.109375 47.828125 
Q 26.265625 48.1875 28.421875 48.1875 
Q 40.625 48.1875 47.75 41.5 
Q 54.890625 34.8125 54.890625 23.390625 
Q 54.890625 11.625 47.5625 5.09375 
Q 40.234375 -1.421875 26.90625 -1.421875 
Q 22.3125 -1.421875 17.546875 -0.640625 
Q 12.796875 0.140625 7.71875 1.703125 
L 7.71875 11.625 
Q 12.109375 9.234375 16.796875 8.0625 
Q 21.484375 6.890625 26.703125 6.890625 
Q 35.15625 6.890625 40.078125 11.328125 
Q 45.015625 15.765625 45.015625 23.390625 
Q 45.015625 31 40.078125 35.4375 
Q 35.15625 39.890625 26.703125 39.890625 
Q 22.75 39.890625 18.8125 39.015625 
Q 14.890625 38.140625 10.796875 36.28125 
z
" id="BitstreamVeraSans-Roman-35"/>
      </defs>
      <g style="fill:#262626;" transform="translate(214.661607143 411.5125)scale(0.3 -0.3)">
       <use xlink:href="#BitstreamVeraSans-Roman-35"/>
      </g>
     </g>
    </g>
    <g id="xtick_2">
     <g id="line2d_4">
      <path clip-path="url(#pccd91fc289)" d="M 352.776786 381.717187 
L 352.776786 21.717187 
" style="fill:none;stroke:#ffffff;stroke-linecap:round;"/>
     </g>
     <g id="line2d_5">
      <g>
       <use style="fill:#262626;stroke:#262626;" x="352.776785714" xlink:href="#mef753c87f3" y="381.7171875"/>
      </g>
     </g>
     <g id="line2d_6">
      <g>
       <use style="fill:#262626;stroke:#262626;" x="352.776785714" xlink:href="#mef753c87f3" y="21.7171875"/>
      </g>
     </g>
     <g id="text_2">
      <!-- 10 -->
      <defs>
       <path d="M 31.78125 66.40625 
Q 24.171875 66.40625 20.328125 58.90625 
Q 16.5 51.421875 16.5 36.375 
Q 16.5 21.390625 20.328125 13.890625 
Q 24.171875 6.390625 31.78125 6.390625 
Q 39.453125 6.390625 43.28125 13.890625 
Q 47.125 21.390625 47.125 36.375 
Q 47.125 51.421875 43.28125 58.90625 
Q 39.453125 66.40625 31.78125 66.40625 
M 31.78125 74.21875 
Q 44.046875 74.21875 50.515625 64.515625 
Q 56.984375 54.828125 56.984375 36.375 
Q 56.984375 17.96875 50.515625 8.265625 
Q 44.046875 -1.421875 31.78125 -1.421875 
Q 19.53125 -1.421875 13.0625 8.265625 
Q 6.59375 17.96875 6.59375 36.375 
Q 6.59375 54.828125 13.0625 64.515625 
Q 19.53125 74.21875 31.78125 74.21875 
" id="BitstreamVeraSans-Roman-30"/>
       <path d="M 12.40625 8.296875 
L 28.515625 8.296875 
L 28.515625 63.921875 
L 10.984375 60.40625 
L 10.984375 69.390625 
L 28.421875 72.90625 
L 38.28125 72.90625 
L 38.28125 8.296875 
L 54.390625 8.296875 
L 54.390625 0 
L 12.40625 0 
z
" id="BitstreamVeraSans-Roman-31"/>
      </defs>
      <g style="fill:#262626;" transform="translate(333.689285714 411.5125)scale(0.3 -0.3)">
       <use xlink:href="#BitstreamVeraSans-Roman-31"/>
       <use x="63.623046875" xlink:href="#BitstreamVeraSans-Roman-30"/>
      </g>
     </g>
    </g>
    <g id="xtick_3">
     <g id="line2d_7">
      <path clip-path="url(#pccd91fc289)" d="M 481.348214 381.717187 
L 481.348214 21.717187 
" style="fill:none;stroke:#ffffff;stroke-linecap:round;"/>
     </g>
     <g id="line2d_8">
      <g>
       <use style="fill:#262626;stroke:#262626;" x="481.348214286" xlink:href="#mef753c87f3" y="381.7171875"/>
      </g>
     </g>
     <g id="line2d_9">
      <g>
       <use style="fill:#262626;stroke:#262626;" x="481.348214286" xlink:href="#mef753c87f3" y="21.7171875"/>
      </g>
     </g>
     <g id="text_3">
      <!-- 15 -->
      <g style="fill:#262626;" transform="translate(462.260714286 411.5125)scale(0.3 -0.3)">
       <use xlink:href="#BitstreamVeraSans-Roman-31"/>
       <use x="63.623046875" xlink:href="#BitstreamVeraSans-Roman-35"/>
      </g>
     </g>
    </g>
    <g id="xtick_4">
     <g id="line2d_10">
      <path clip-path="url(#pccd91fc289)" d="M 609.919643 381.717187 
L 609.919643 21.717187 
" style="fill:none;stroke:#ffffff;stroke-linecap:round;"/>
     </g>
     <g id="line2d_11">
      <g>
       <use style="fill:#262626;stroke:#262626;" x="609.919642857" xlink:href="#mef753c87f3" y="381.7171875"/>
      </g>
     </g>
     <g id="line2d_12">
      <g>
       <use style="fill:#262626;stroke:#262626;" x="609.919642857" xlink:href="#mef753c87f3" y="21.7171875"/>
      </g>
     </g>
     <g id="text_4">
      <!-- 20 -->
      <defs>
       <path d="M 19.1875 8.296875 
L 53.609375 8.296875 
L 53.609375 0 
L 7.328125 0 
L 7.328125 8.296875 
Q 12.9375 14.109375 22.625 23.890625 
Q 32.328125 33.6875 34.8125 36.53125 
Q 39.546875 41.84375 41.421875 45.53125 
Q 43.3125 49.21875 43.3125 52.78125 
Q 43.3125 58.59375 39.234375 62.25 
Q 35.15625 65.921875 28.609375 65.921875 
Q 23.96875 65.921875 18.8125 64.3125 
Q 13.671875 62.703125 7.8125 59.421875 
L 7.8125 69.390625 
Q 13.765625 71.78125 18.9375 73 
Q 24.125 74.21875 28.421875 74.21875 
Q 39.75 74.21875 46.484375 68.546875 
Q 53.21875 62.890625 53.21875 53.421875 
Q 53.21875 48.921875 51.53125 44.890625 
Q 49.859375 40.875 45.40625 35.40625 
Q 44.1875 33.984375 37.640625 27.21875 
Q 31.109375 20.453125 19.1875 8.296875 
" id="BitstreamVeraSans-Roman-32"/>
      </defs>
      <g style="fill:#262626;" transform="translate(590.832142857 411.5125)scale(0.3 -0.3)">
       <use xlink:href="#BitstreamVeraSans-Roman-32"/>
       <use x="63.623046875" xlink:href="#BitstreamVeraSans-Roman-30"/>
      </g>
     </g>
    </g>
    <g id="xtick_5">
     <g id="line2d_13">
      <path clip-path="url(#pccd91fc289)" d="M 738.491071 381.717187 
L 738.491071 21.717187 
" style="fill:none;stroke:#ffffff;stroke-linecap:round;"/>
     </g>
     <g id="line2d_14">
      <g>
       <use style="fill:#262626;stroke:#262626;" x="738.491071429" xlink:href="#mef753c87f3" y="381.7171875"/>
      </g>
     </g>
     <g id="line2d_15">
      <g>
       <use style="fill:#262626;stroke:#262626;" x="738.491071429" xlink:href="#mef753c87f3" y="21.7171875"/>
      </g>
     </g>
     <g id="text_5">
      <!-- 25 -->
      <g style="fill:#262626;" transform="translate(719.403571429 411.5125)scale(0.3 -0.3)">
       <use xlink:href="#BitstreamVeraSans-Roman-32"/>
       <use x="63.623046875" xlink:href="#BitstreamVeraSans-Roman-35"/>
      </g>
     </g>
    </g>
    <g id="xtick_6">
     <g id="line2d_16">
      <path clip-path="url(#pccd91fc289)" d="M 867.0625 381.717187 
L 867.0625 21.717187 
" style="fill:none;stroke:#ffffff;stroke-linecap:round;"/>
     </g>
     <g id="line2d_17">
      <g>
       <use style="fill:#262626;stroke:#262626;" x="867.0625" xlink:href="#mef753c87f3" y="381.7171875"/>
      </g>
     </g>
     <g id="line2d_18">
      <g>
       <use style="fill:#262626;stroke:#262626;" x="867.0625" xlink:href="#mef753c87f3" y="21.7171875"/>
      </g>
     </g>
     <g id="text_6">
      <!-- 30 -->
      <defs>
       <path d="M 40.578125 39.3125 
Q 47.65625 37.796875 51.625 33 
Q 55.609375 28.21875 55.609375 21.1875 
Q 55.609375 10.40625 48.1875 4.484375 
Q 40.765625 -1.421875 27.09375 -1.421875 
Q 22.515625 -1.421875 17.65625 -0.515625 
Q 12.796875 0.390625 7.625 2.203125 
L 7.625 11.71875 
Q 11.71875 9.328125 16.59375 8.109375 
Q 21.484375 6.890625 26.8125 6.890625 
Q 36.078125 6.890625 40.9375 10.546875 
Q 45.796875 14.203125 45.796875 21.1875 
Q 45.796875 27.640625 41.28125 31.265625 
Q 36.765625 34.90625 28.71875 34.90625 
L 20.21875 34.90625 
L 20.21875 43.015625 
L 29.109375 43.015625 
Q 36.375 43.015625 40.234375 45.921875 
Q 44.09375 48.828125 44.09375 54.296875 
Q 44.09375 59.90625 40.109375 62.90625 
Q 36.140625 65.921875 28.71875 65.921875 
Q 24.65625 65.921875 20.015625 65.03125 
Q 15.375 64.15625 9.8125 62.3125 
L 9.8125 71.09375 
Q 15.4375 72.65625 20.34375 73.4375 
Q 25.25 74.21875 29.59375 74.21875 
Q 40.828125 74.21875 47.359375 69.109375 
Q 53.90625 64.015625 53.90625 55.328125 
Q 53.90625 49.265625 50.4375 45.09375 
Q 46.96875 40.921875 40.578125 39.3125 
" id="BitstreamVeraSans-Roman-33"/>
      </defs>
      <g style="fill:#262626;" transform="translate(847.975 411.5125)scale(0.3 -0.3)">
       <use xlink:href="#BitstreamVeraSans-Roman-33"/>
       <use x="63.623046875" xlink:href="#BitstreamVeraSans-Roman-30"/>
      </g>
     </g>
    </g>
    <g id="text_7">
     <!-- $d$ (Hilbert Space Dimension) -->
     <defs>
      <path id="BitstreamVeraSans-Roman-20"/>
      <path d="M 54.890625 33.015625 
L 54.890625 0 
L 45.90625 0 
L 45.90625 32.71875 
Q 45.90625 40.484375 42.875 44.328125 
Q 39.84375 48.1875 33.796875 48.1875 
Q 26.515625 48.1875 22.3125 43.546875 
Q 18.109375 38.921875 18.109375 30.90625 
L 18.109375 0 
L 9.078125 0 
L 9.078125 54.6875 
L 18.109375 54.6875 
L 18.109375 46.1875 
Q 21.34375 51.125 25.703125 53.5625 
Q 30.078125 56 35.796875 56 
Q 45.21875 56 50.046875 50.171875 
Q 54.890625 44.34375 54.890625 33.015625 
" id="BitstreamVeraSans-Roman-6e"/>
      <path d="M 31 75.875 
Q 24.46875 64.65625 21.28125 53.65625 
Q 18.109375 42.671875 18.109375 31.390625 
Q 18.109375 20.125 21.3125 9.0625 
Q 24.515625 -2 31 -13.1875 
L 23.1875 -13.1875 
Q 15.875 -1.703125 12.234375 9.375 
Q 8.59375 20.453125 8.59375 31.390625 
Q 8.59375 42.28125 12.203125 53.3125 
Q 15.828125 64.359375 23.1875 75.875 
z
" id="BitstreamVeraSans-Roman-28"/>
      <path d="M 30.609375 48.390625 
Q 23.390625 48.390625 19.1875 42.75 
Q 14.984375 37.109375 14.984375 27.296875 
Q 14.984375 17.484375 19.15625 11.84375 
Q 23.34375 6.203125 30.609375 6.203125 
Q 37.796875 6.203125 41.984375 11.859375 
Q 46.1875 17.53125 46.1875 27.296875 
Q 46.1875 37.015625 41.984375 42.703125 
Q 37.796875 48.390625 30.609375 48.390625 
M 30.609375 56 
Q 42.328125 56 49.015625 48.375 
Q 55.71875 40.765625 55.71875 27.296875 
Q 55.71875 13.875 49.015625 6.21875 
Q 42.328125 -1.421875 30.609375 -1.421875 
Q 18.84375 -1.421875 12.171875 6.21875 
Q 5.515625 13.875 5.515625 27.296875 
Q 5.515625 40.765625 12.171875 48.375 
Q 18.84375 56 30.609375 56 
" id="BitstreamVeraSans-Roman-6f"/>
      <path d="M 8.015625 75.875 
L 15.828125 75.875 
Q 23.140625 64.359375 26.78125 53.3125 
Q 30.421875 42.28125 30.421875 31.390625 
Q 30.421875 20.453125 26.78125 9.375 
Q 23.140625 -1.703125 15.828125 -13.1875 
L 8.015625 -13.1875 
Q 14.5 -2 17.703125 9.0625 
Q 20.90625 20.125 20.90625 31.390625 
Q 20.90625 42.671875 17.703125 53.65625 
Q 14.5 64.65625 8.015625 75.875 
" id="BitstreamVeraSans-Roman-29"/>
      <path d="M 9.421875 75.984375 
L 18.40625 75.984375 
L 18.40625 0 
L 9.421875 0 
z
" id="BitstreamVeraSans-Roman-6c"/>
      <path d="M 19.671875 64.796875 
L 19.671875 8.109375 
L 31.59375 8.109375 
Q 46.6875 8.109375 53.6875 14.9375 
Q 60.6875 21.78125 60.6875 36.53125 
Q 60.6875 51.171875 53.6875 57.984375 
Q 46.6875 64.796875 31.59375 64.796875 
z
M 9.8125 72.90625 
L 30.078125 72.90625 
Q 51.265625 72.90625 61.171875 64.09375 
Q 71.09375 55.28125 71.09375 36.53125 
Q 71.09375 17.671875 61.125 8.828125 
Q 51.171875 0 30.078125 0 
L 9.8125 0 
z
" id="BitstreamVeraSans-Roman-44"/>
      <path d="M 34.28125 27.484375 
Q 23.390625 27.484375 19.1875 25 
Q 14.984375 22.515625 14.984375 16.5 
Q 14.984375 11.71875 18.140625 8.90625 
Q 21.296875 6.109375 26.703125 6.109375 
Q 34.1875 6.109375 38.703125 11.40625 
Q 43.21875 16.703125 43.21875 25.484375 
L 43.21875 27.484375 
z
M 52.203125 31.203125 
L 52.203125 0 
L 43.21875 0 
L 43.21875 8.296875 
Q 40.140625 3.328125 35.546875 0.953125 
Q 30.953125 -1.421875 24.3125 -1.421875 
Q 15.921875 -1.421875 10.953125 3.296875 
Q 6 8.015625 6 15.921875 
Q 6 25.140625 12.171875 29.828125 
Q 18.359375 34.515625 30.609375 34.515625 
L 43.21875 34.515625 
L 43.21875 35.40625 
Q 43.21875 41.609375 39.140625 45 
Q 35.0625 48.390625 27.6875 48.390625 
Q 23 48.390625 18.546875 47.265625 
Q 14.109375 46.140625 10.015625 43.890625 
L 10.015625 52.203125 
Q 14.9375 54.109375 19.578125 55.046875 
Q 24.21875 56 28.609375 56 
Q 40.484375 56 46.34375 49.84375 
Q 52.203125 43.703125 52.203125 31.203125 
" id="BitstreamVeraSans-Roman-61"/>
      <path d="M 53.515625 70.515625 
L 53.515625 60.890625 
Q 47.90625 63.578125 42.921875 64.890625 
Q 37.9375 66.21875 33.296875 66.21875 
Q 25.25 66.21875 20.875 63.09375 
Q 16.5 59.96875 16.5 54.203125 
Q 16.5 49.359375 19.40625 46.890625 
Q 22.3125 44.4375 30.421875 42.921875 
L 36.375 41.703125 
Q 47.40625 39.59375 52.65625 34.296875 
Q 57.90625 29 57.90625 20.125 
Q 57.90625 9.515625 50.796875 4.046875 
Q 43.703125 -1.421875 29.984375 -1.421875 
Q 24.8125 -1.421875 18.96875 -0.25 
Q 13.140625 0.921875 6.890625 3.21875 
L 6.890625 13.375 
Q 12.890625 10.015625 18.65625 8.296875 
Q 24.421875 6.59375 29.984375 6.59375 
Q 38.421875 6.59375 43.015625 9.90625 
Q 47.609375 13.234375 47.609375 19.390625 
Q 47.609375 24.75 44.3125 27.78125 
Q 41.015625 30.8125 33.5 32.328125 
L 27.484375 33.5 
Q 16.453125 35.6875 11.515625 40.375 
Q 6.59375 45.0625 6.59375 53.421875 
Q 6.59375 63.09375 13.40625 68.65625 
Q 20.21875 74.21875 32.171875 74.21875 
Q 37.3125 74.21875 42.625 73.28125 
Q 47.953125 72.359375 53.515625 70.515625 
" id="BitstreamVeraSans-Roman-53"/>
      <path d="M 9.421875 54.6875 
L 18.40625 54.6875 
L 18.40625 0 
L 9.421875 0 
z
M 9.421875 75.984375 
L 18.40625 75.984375 
L 18.40625 64.59375 
L 9.421875 64.59375 
z
" id="BitstreamVeraSans-Roman-69"/>
      <path d="M 17.390625 -1.125 
Q 11.078125 -1.125 7.4375 3.640625 
Q 3.8125 8.40625 3.8125 14.890625 
Q 3.8125 21.296875 7.125 28.171875 
Q 10.453125 35.0625 16.09375 39.625 
Q 21.734375 44.1875 28.21875 44.1875 
Q 31.15625 44.1875 33.515625 42.546875 
Q 35.890625 40.921875 37.203125 38.1875 
L 42.828125 60.5 
Q 43.21875 62.203125 43.3125 63.1875 
Q 43.3125 64.796875 36.8125 64.796875 
Q 35.796875 64.796875 35.796875 66.109375 
Q 35.84375 66.359375 36.015625 66.984375 
Q 36.1875 67.625 36.453125 67.96875 
Q 36.71875 68.3125 37.203125 68.3125 
L 50.6875 69.390625 
Q 51.90625 69.390625 51.90625 68.109375 
L 37.5 10.59375 
Q 36.8125 8.9375 36.8125 5.8125 
Q 36.8125 1.515625 39.703125 1.515625 
Q 42.828125 1.515625 44.453125 5.484375 
Q 46.09375 9.46875 47.21875 14.703125 
Q 47.40625 15.28125 48 15.28125 
L 49.21875 15.28125 
Q 49.609375 15.28125 49.84375 14.9375 
Q 50.09375 14.59375 50.09375 14.3125 
Q 48.34375 7.328125 46.265625 3.09375 
Q 44.1875 -1.125 39.5 -1.125 
Q 36.140625 -1.125 33.546875 0.84375 
Q 30.953125 2.828125 30.328125 6.109375 
Q 23.875 -1.125 17.390625 -1.125 
M 17.484375 1.515625 
Q 21.09375 1.515625 24.484375 4.21875 
Q 27.875 6.9375 30.328125 10.59375 
Q 30.421875 10.6875 30.421875 10.984375 
L 35.890625 33.015625 
Q 35.296875 36.53125 33.296875 39.0625 
Q 31.296875 41.609375 27.984375 41.609375 
Q 24.609375 41.609375 21.703125 38.84375 
Q 18.796875 36.078125 16.796875 32.328125 
Q 14.84375 28.328125 13.0625 21.34375 
Q 11.28125 14.359375 11.28125 10.5 
Q 11.28125 7.03125 12.765625 4.265625 
Q 14.265625 1.515625 17.484375 1.515625 
" id="Cmmi10-64"/>
      <path d="M 48.78125 52.59375 
L 48.78125 44.1875 
Q 44.96875 46.296875 41.140625 47.34375 
Q 37.3125 48.390625 33.40625 48.390625 
Q 24.65625 48.390625 19.8125 42.84375 
Q 14.984375 37.3125 14.984375 27.296875 
Q 14.984375 17.28125 19.8125 11.734375 
Q 24.65625 6.203125 33.40625 6.203125 
Q 37.3125 6.203125 41.140625 7.25 
Q 44.96875 8.296875 48.78125 10.40625 
L 48.78125 2.09375 
Q 45.015625 0.34375 40.984375 -0.53125 
Q 36.96875 -1.421875 32.421875 -1.421875 
Q 20.0625 -1.421875 12.78125 6.34375 
Q 5.515625 14.109375 5.515625 27.296875 
Q 5.515625 40.671875 12.859375 48.328125 
Q 20.21875 56 33.015625 56 
Q 37.15625 56 41.109375 55.140625 
Q 45.0625 54.296875 48.78125 52.59375 
" id="BitstreamVeraSans-Roman-63"/>
      <path d="M 52 44.1875 
Q 55.375 50.25 60.0625 53.125 
Q 64.75 56 71.09375 56 
Q 79.640625 56 84.28125 50.015625 
Q 88.921875 44.046875 88.921875 33.015625 
L 88.921875 0 
L 79.890625 0 
L 79.890625 32.71875 
Q 79.890625 40.578125 77.09375 44.375 
Q 74.3125 48.1875 68.609375 48.1875 
Q 61.625 48.1875 57.5625 43.546875 
Q 53.515625 38.921875 53.515625 30.90625 
L 53.515625 0 
L 44.484375 0 
L 44.484375 32.71875 
Q 44.484375 40.625 41.703125 44.40625 
Q 38.921875 48.1875 33.109375 48.1875 
Q 26.21875 48.1875 22.15625 43.53125 
Q 18.109375 38.875 18.109375 30.90625 
L 18.109375 0 
L 9.078125 0 
L 9.078125 54.6875 
L 18.109375 54.6875 
L 18.109375 46.1875 
Q 21.1875 51.21875 25.484375 53.609375 
Q 29.78125 56 35.6875 56 
Q 41.65625 56 45.828125 52.96875 
Q 50 49.953125 52 44.1875 
" id="BitstreamVeraSans-Roman-6d"/>
      <path d="M 56.203125 29.59375 
L 56.203125 25.203125 
L 14.890625 25.203125 
Q 15.484375 15.921875 20.484375 11.0625 
Q 25.484375 6.203125 34.421875 6.203125 
Q 39.59375 6.203125 44.453125 7.46875 
Q 49.3125 8.734375 54.109375 11.28125 
L 54.109375 2.78125 
Q 49.265625 0.734375 44.1875 -0.34375 
Q 39.109375 -1.421875 33.890625 -1.421875 
Q 20.796875 -1.421875 13.15625 6.1875 
Q 5.515625 13.8125 5.515625 26.8125 
Q 5.515625 40.234375 12.765625 48.109375 
Q 20.015625 56 32.328125 56 
Q 43.359375 56 49.78125 48.890625 
Q 56.203125 41.796875 56.203125 29.59375 
M 47.21875 32.234375 
Q 47.125 39.59375 43.09375 43.984375 
Q 39.0625 48.390625 32.421875 48.390625 
Q 24.90625 48.390625 20.390625 44.140625 
Q 15.875 39.890625 15.1875 32.171875 
z
" id="BitstreamVeraSans-Roman-65"/>
      <path d="M 18.3125 70.21875 
L 18.3125 54.6875 
L 36.8125 54.6875 
L 36.8125 47.703125 
L 18.3125 47.703125 
L 18.3125 18.015625 
Q 18.3125 11.328125 20.140625 9.421875 
Q 21.96875 7.515625 27.59375 7.515625 
L 36.8125 7.515625 
L 36.8125 0 
L 27.59375 0 
Q 17.1875 0 13.234375 3.875 
Q 9.28125 7.765625 9.28125 18.015625 
L 9.28125 47.703125 
L 2.6875 47.703125 
L 2.6875 54.6875 
L 9.28125 54.6875 
L 9.28125 70.21875 
z
" id="BitstreamVeraSans-Roman-74"/>
      <path d="M 48.6875 27.296875 
Q 48.6875 37.203125 44.609375 42.84375 
Q 40.53125 48.484375 33.40625 48.484375 
Q 26.265625 48.484375 22.1875 42.84375 
Q 18.109375 37.203125 18.109375 27.296875 
Q 18.109375 17.390625 22.1875 11.75 
Q 26.265625 6.109375 33.40625 6.109375 
Q 40.53125 6.109375 44.609375 11.75 
Q 48.6875 17.390625 48.6875 27.296875 
M 18.109375 46.390625 
Q 20.953125 51.265625 25.265625 53.625 
Q 29.59375 56 35.59375 56 
Q 45.5625 56 51.78125 48.09375 
Q 58.015625 40.1875 58.015625 27.296875 
Q 58.015625 14.40625 51.78125 6.484375 
Q 45.5625 -1.421875 35.59375 -1.421875 
Q 29.59375 -1.421875 25.265625 0.953125 
Q 20.953125 3.328125 18.109375 8.203125 
L 18.109375 0 
L 9.078125 0 
L 9.078125 75.984375 
L 18.109375 75.984375 
z
" id="BitstreamVeraSans-Roman-62"/>
      <path d="M 41.109375 46.296875 
Q 39.59375 47.171875 37.8125 47.578125 
Q 36.03125 48 33.890625 48 
Q 26.265625 48 22.1875 43.046875 
Q 18.109375 38.09375 18.109375 28.8125 
L 18.109375 0 
L 9.078125 0 
L 9.078125 54.6875 
L 18.109375 54.6875 
L 18.109375 46.1875 
Q 20.953125 51.171875 25.484375 53.578125 
Q 30.03125 56 36.53125 56 
Q 37.453125 56 38.578125 55.875 
Q 39.703125 55.765625 41.0625 55.515625 
z
" id="BitstreamVeraSans-Roman-72"/>
      <path d="M 44.28125 53.078125 
L 44.28125 44.578125 
Q 40.484375 46.53125 36.375 47.5 
Q 32.28125 48.484375 27.875 48.484375 
Q 21.1875 48.484375 17.84375 46.4375 
Q 14.5 44.390625 14.5 40.28125 
Q 14.5 37.15625 16.890625 35.375 
Q 19.28125 33.59375 26.515625 31.984375 
L 29.59375 31.296875 
Q 39.15625 29.25 43.1875 25.515625 
Q 47.21875 21.78125 47.21875 15.09375 
Q 47.21875 7.46875 41.1875 3.015625 
Q 35.15625 -1.421875 24.609375 -1.421875 
Q 20.21875 -1.421875 15.453125 -0.5625 
Q 10.6875 0.296875 5.421875 2 
L 5.421875 11.28125 
Q 10.40625 8.6875 15.234375 7.390625 
Q 20.0625 6.109375 24.8125 6.109375 
Q 31.15625 6.109375 34.5625 8.28125 
Q 37.984375 10.453125 37.984375 14.40625 
Q 37.984375 18.0625 35.515625 20.015625 
Q 33.0625 21.96875 24.703125 23.78125 
L 21.578125 24.515625 
Q 13.234375 26.265625 9.515625 29.90625 
Q 5.8125 33.546875 5.8125 39.890625 
Q 5.8125 47.609375 11.28125 51.796875 
Q 16.75 56 26.8125 56 
Q 31.78125 56 36.171875 55.265625 
Q 40.578125 54.546875 44.28125 53.078125 
" id="BitstreamVeraSans-Roman-73"/>
      <path d="M 18.109375 8.203125 
L 18.109375 -20.796875 
L 9.078125 -20.796875 
L 9.078125 54.6875 
L 18.109375 54.6875 
L 18.109375 46.390625 
Q 20.953125 51.265625 25.265625 53.625 
Q 29.59375 56 35.59375 56 
Q 45.5625 56 51.78125 48.09375 
Q 58.015625 40.1875 58.015625 27.296875 
Q 58.015625 14.40625 51.78125 6.484375 
Q 45.5625 -1.421875 35.59375 -1.421875 
Q 29.59375 -1.421875 25.265625 0.953125 
Q 20.953125 3.328125 18.109375 8.203125 
M 48.6875 27.296875 
Q 48.6875 37.203125 44.609375 42.84375 
Q 40.53125 48.484375 33.40625 48.484375 
Q 26.265625 48.484375 22.1875 42.84375 
Q 18.109375 37.203125 18.109375 27.296875 
Q 18.109375 17.390625 22.1875 11.75 
Q 26.265625 6.109375 33.40625 6.109375 
Q 40.53125 6.109375 44.609375 11.75 
Q 48.6875 17.390625 48.6875 27.296875 
" id="BitstreamVeraSans-Roman-70"/>
      <path d="M 9.8125 72.90625 
L 19.671875 72.90625 
L 19.671875 43.015625 
L 55.515625 43.015625 
L 55.515625 72.90625 
L 65.375 72.90625 
L 65.375 0 
L 55.515625 0 
L 55.515625 34.71875 
L 19.671875 34.71875 
L 19.671875 0 
L 9.8125 0 
z
" id="BitstreamVeraSans-Roman-48"/>
     </defs>
     <g style="fill:#262626;" transform="translate(227.4625 453.1515625)scale(0.4 -0.4)">
      <use transform="translate(0.0 0.015625)" xlink:href="#Cmmi10-64"/>
      <use transform="translate(52.001953125 0.015625)" xlink:href="#BitstreamVeraSans-Roman-20"/>
      <use transform="translate(83.7890625 0.015625)" xlink:href="#BitstreamVeraSans-Roman-28"/>
      <use transform="translate(122.802734375 0.015625)" xlink:href="#BitstreamVeraSans-Roman-48"/>
      <use transform="translate(197.998046875 0.015625)" xlink:href="#BitstreamVeraSans-Roman-69"/>
      <use transform="translate(225.78125 0.015625)" xlink:href="#BitstreamVeraSans-Roman-6c"/>
      <use transform="translate(253.564453125 0.015625)" xlink:href="#BitstreamVeraSans-Roman-62"/>
      <use transform="translate(317.041015625 0.015625)" xlink:href="#BitstreamVeraSans-Roman-65"/>
      <use transform="translate(378.564453125 0.015625)" xlink:href="#BitstreamVeraSans-Roman-72"/>
      <use transform="translate(419.677734375 0.015625)" xlink:href="#BitstreamVeraSans-Roman-74"/>
      <use transform="translate(458.88671875 0.015625)" xlink:href="#BitstreamVeraSans-Roman-20"/>
      <use transform="translate(490.673828125 0.015625)" xlink:href="#BitstreamVeraSans-Roman-53"/>
      <use transform="translate(554.150390625 0.015625)" xlink:href="#BitstreamVeraSans-Roman-70"/>
      <use transform="translate(617.626953125 0.015625)" xlink:href="#BitstreamVeraSans-Roman-61"/>
      <use transform="translate(678.90625 0.015625)" xlink:href="#BitstreamVeraSans-Roman-63"/>
      <use transform="translate(733.88671875 0.015625)" xlink:href="#BitstreamVeraSans-Roman-65"/>
      <use transform="translate(795.41015625 0.015625)" xlink:href="#BitstreamVeraSans-Roman-20"/>
      <use transform="translate(827.197265625 0.015625)" xlink:href="#BitstreamVeraSans-Roman-44"/>
      <use transform="translate(904.19921875 0.015625)" xlink:href="#BitstreamVeraSans-Roman-69"/>
      <use transform="translate(931.982421875 0.015625)" xlink:href="#BitstreamVeraSans-Roman-6d"/>
      <use transform="translate(1029.39453125 0.015625)" xlink:href="#BitstreamVeraSans-Roman-65"/>
      <use transform="translate(1090.91796875 0.015625)" xlink:href="#BitstreamVeraSans-Roman-6e"/>
      <use transform="translate(1154.296875 0.015625)" xlink:href="#BitstreamVeraSans-Roman-73"/>
      <use transform="translate(1206.39648438 0.015625)" xlink:href="#BitstreamVeraSans-Roman-69"/>
      <use transform="translate(1234.1796875 0.015625)" xlink:href="#BitstreamVeraSans-Roman-6f"/>
      <use transform="translate(1295.36132812 0.015625)" xlink:href="#BitstreamVeraSans-Roman-6e"/>
      <use transform="translate(1358.74023438 0.015625)" xlink:href="#BitstreamVeraSans-Roman-29"/>
     </g>
    </g>
   </g>
   <g id="matplotlib.axis_2">
    <g id="ytick_1">
     <g id="line2d_19">
      <path clip-path="url(#pccd91fc289)" d="M 147.0625 381.717187 
L 867.0625 381.717187 
" style="fill:none;stroke:#ffffff;stroke-linecap:round;"/>
     </g>
     <g id="line2d_20">
      <g>
       <use style="fill:#262626;stroke:#262626;" x="147.0625" xlink:href="#mef753c87f3" y="381.7171875"/>
      </g>
     </g>
     <g id="line2d_21">
      <g>
       <use style="fill:#262626;stroke:#262626;" x="867.0625" xlink:href="#mef753c87f3" y="381.7171875"/>
      </g>
     </g>
     <g id="text_8">
      <!-- 0 -->
      <g style="fill:#262626;" transform="translate(120.975 389.9953125)scale(0.3 -0.3)">
       <use xlink:href="#BitstreamVeraSans-Roman-30"/>
      </g>
     </g>
    </g>
    <g id="ytick_2">
     <g id="line2d_22">
      <path clip-path="url(#pccd91fc289)" d="M 147.0625 341.717187 
L 867.0625 341.717187 
" style="fill:none;stroke:#ffffff;stroke-linecap:round;"/>
     </g>
     <g id="line2d_23">
      <g>
       <use style="fill:#262626;stroke:#262626;" x="147.0625" xlink:href="#mef753c87f3" y="341.7171875"/>
      </g>
     </g>
     <g id="line2d_24">
      <g>
       <use style="fill:#262626;stroke:#262626;" x="867.0625" xlink:href="#mef753c87f3" y="341.7171875"/>
      </g>
     </g>
     <g id="text_9">
      <!-- 100 -->
      <g style="fill:#262626;" transform="translate(82.8 349.9953125)scale(0.3 -0.3)">
       <use xlink:href="#BitstreamVeraSans-Roman-31"/>
       <use x="63.623046875" xlink:href="#BitstreamVeraSans-Roman-30"/>
       <use x="127.24609375" xlink:href="#BitstreamVeraSans-Roman-30"/>
      </g>
     </g>
    </g>
    <g id="ytick_3">
     <g id="line2d_25">
      <path clip-path="url(#pccd91fc289)" d="M 147.0625 301.717187 
L 867.0625 301.717187 
" style="fill:none;stroke:#ffffff;stroke-linecap:round;"/>
     </g>
     <g id="line2d_26">
      <g>
       <use style="fill:#262626;stroke:#262626;" x="147.0625" xlink:href="#mef753c87f3" y="301.7171875"/>
      </g>
     </g>
     <g id="line2d_27">
      <g>
       <use style="fill:#262626;stroke:#262626;" x="867.0625" xlink:href="#mef753c87f3" y="301.7171875"/>
      </g>
     </g>
     <g id="text_10">
      <!-- 200 -->
      <g style="fill:#262626;" transform="translate(82.8 309.9953125)scale(0.3 -0.3)">
       <use xlink:href="#BitstreamVeraSans-Roman-32"/>
       <use x="63.623046875" xlink:href="#BitstreamVeraSans-Roman-30"/>
       <use x="127.24609375" xlink:href="#BitstreamVeraSans-Roman-30"/>
      </g>
     </g>
    </g>
    <g id="ytick_4">
     <g id="line2d_28">
      <path clip-path="url(#pccd91fc289)" d="M 147.0625 261.717187 
L 867.0625 261.717187 
" style="fill:none;stroke:#ffffff;stroke-linecap:round;"/>
     </g>
     <g id="line2d_29">
      <g>
       <use style="fill:#262626;stroke:#262626;" x="147.0625" xlink:href="#mef753c87f3" y="261.7171875"/>
      </g>
     </g>
     <g id="line2d_30">
      <g>
       <use style="fill:#262626;stroke:#262626;" x="867.0625" xlink:href="#mef753c87f3" y="261.7171875"/>
      </g>
     </g>
     <g id="text_11">
      <!-- 300 -->
      <g style="fill:#262626;" transform="translate(82.8 269.9953125)scale(0.3 -0.3)">
       <use xlink:href="#BitstreamVeraSans-Roman-33"/>
       <use x="63.623046875" xlink:href="#BitstreamVeraSans-Roman-30"/>
       <use x="127.24609375" xlink:href="#BitstreamVeraSans-Roman-30"/>
      </g>
     </g>
    </g>
    <g id="ytick_5">
     <g id="line2d_31">
      <path clip-path="url(#pccd91fc289)" d="M 147.0625 221.717187 
L 867.0625 221.717187 
" style="fill:none;stroke:#ffffff;stroke-linecap:round;"/>
     </g>
     <g id="line2d_32">
      <g>
       <use style="fill:#262626;stroke:#262626;" x="147.0625" xlink:href="#mef753c87f3" y="221.7171875"/>
      </g>
     </g>
     <g id="line2d_33">
      <g>
       <use style="fill:#262626;stroke:#262626;" x="867.0625" xlink:href="#mef753c87f3" y="221.7171875"/>
      </g>
     </g>
     <g id="text_12">
      <!-- 400 -->
      <defs>
       <path d="M 37.796875 64.3125 
L 12.890625 25.390625 
L 37.796875 25.390625 
z
M 35.203125 72.90625 
L 47.609375 72.90625 
L 47.609375 25.390625 
L 58.015625 25.390625 
L 58.015625 17.1875 
L 47.609375 17.1875 
L 47.609375 0 
L 37.796875 0 
L 37.796875 17.1875 
L 4.890625 17.1875 
L 4.890625 26.703125 
z
" id="BitstreamVeraSans-Roman-34"/>
      </defs>
      <g style="fill:#262626;" transform="translate(82.8 229.9953125)scale(0.3 -0.3)">
       <use xlink:href="#BitstreamVeraSans-Roman-34"/>
       <use x="63.623046875" xlink:href="#BitstreamVeraSans-Roman-30"/>
       <use x="127.24609375" xlink:href="#BitstreamVeraSans-Roman-30"/>
      </g>
     </g>
    </g>
    <g id="ytick_6">
     <g id="line2d_34">
      <path clip-path="url(#pccd91fc289)" d="M 147.0625 181.717187 
L 867.0625 181.717187 
" style="fill:none;stroke:#ffffff;stroke-linecap:round;"/>
     </g>
     <g id="line2d_35">
      <g>
       <use style="fill:#262626;stroke:#262626;" x="147.0625" xlink:href="#mef753c87f3" y="181.7171875"/>
      </g>
     </g>
     <g id="line2d_36">
      <g>
       <use style="fill:#262626;stroke:#262626;" x="867.0625" xlink:href="#mef753c87f3" y="181.7171875"/>
      </g>
     </g>
     <g id="text_13">
      <!-- 500 -->
      <g style="fill:#262626;" transform="translate(82.8 189.9953125)scale(0.3 -0.3)">
       <use xlink:href="#BitstreamVeraSans-Roman-35"/>
       <use x="63.623046875" xlink:href="#BitstreamVeraSans-Roman-30"/>
       <use x="127.24609375" xlink:href="#BitstreamVeraSans-Roman-30"/>
      </g>
     </g>
    </g>
    <g id="ytick_7">
     <g id="line2d_37">
      <path clip-path="url(#pccd91fc289)" d="M 147.0625 141.717187 
L 867.0625 141.717187 
" style="fill:none;stroke:#ffffff;stroke-linecap:round;"/>
     </g>
     <g id="line2d_38">
      <g>
       <use style="fill:#262626;stroke:#262626;" x="147.0625" xlink:href="#mef753c87f3" y="141.7171875"/>
      </g>
     </g>
     <g id="line2d_39">
      <g>
       <use style="fill:#262626;stroke:#262626;" x="867.0625" xlink:href="#mef753c87f3" y="141.7171875"/>
      </g>
     </g>
     <g id="text_14">
      <!-- 600 -->
      <defs>
       <path d="M 33.015625 40.375 
Q 26.375 40.375 22.484375 35.828125 
Q 18.609375 31.296875 18.609375 23.390625 
Q 18.609375 15.53125 22.484375 10.953125 
Q 26.375 6.390625 33.015625 6.390625 
Q 39.65625 6.390625 43.53125 10.953125 
Q 47.40625 15.53125 47.40625 23.390625 
Q 47.40625 31.296875 43.53125 35.828125 
Q 39.65625 40.375 33.015625 40.375 
M 52.59375 71.296875 
L 52.59375 62.3125 
Q 48.875 64.0625 45.09375 64.984375 
Q 41.3125 65.921875 37.59375 65.921875 
Q 27.828125 65.921875 22.671875 59.328125 
Q 17.53125 52.734375 16.796875 39.40625 
Q 19.671875 43.65625 24.015625 45.921875 
Q 28.375 48.1875 33.59375 48.1875 
Q 44.578125 48.1875 50.953125 41.515625 
Q 57.328125 34.859375 57.328125 23.390625 
Q 57.328125 12.15625 50.6875 5.359375 
Q 44.046875 -1.421875 33.015625 -1.421875 
Q 20.359375 -1.421875 13.671875 8.265625 
Q 6.984375 17.96875 6.984375 36.375 
Q 6.984375 53.65625 15.1875 63.9375 
Q 23.390625 74.21875 37.203125 74.21875 
Q 40.921875 74.21875 44.703125 73.484375 
Q 48.484375 72.75 52.59375 71.296875 
" id="BitstreamVeraSans-Roman-36"/>
      </defs>
      <g style="fill:#262626;" transform="translate(82.8 149.9953125)scale(0.3 -0.3)">
       <use xlink:href="#BitstreamVeraSans-Roman-36"/>
       <use x="63.623046875" xlink:href="#BitstreamVeraSans-Roman-30"/>
       <use x="127.24609375" xlink:href="#BitstreamVeraSans-Roman-30"/>
      </g>
     </g>
    </g>
    <g id="ytick_8">
     <g id="line2d_40">
      <path clip-path="url(#pccd91fc289)" d="M 147.0625 101.717187 
L 867.0625 101.717187 
" style="fill:none;stroke:#ffffff;stroke-linecap:round;"/>
     </g>
     <g id="line2d_41">
      <g>
       <use style="fill:#262626;stroke:#262626;" x="147.0625" xlink:href="#mef753c87f3" y="101.7171875"/>
      </g>
     </g>
     <g id="line2d_42">
      <g>
       <use style="fill:#262626;stroke:#262626;" x="867.0625" xlink:href="#mef753c87f3" y="101.7171875"/>
      </g>
     </g>
     <g id="text_15">
      <!-- 700 -->
      <defs>
       <path d="M 8.203125 72.90625 
L 55.078125 72.90625 
L 55.078125 68.703125 
L 28.609375 0 
L 18.3125 0 
L 43.21875 64.59375 
L 8.203125 64.59375 
z
" id="BitstreamVeraSans-Roman-37"/>
      </defs>
      <g style="fill:#262626;" transform="translate(82.8 109.9953125)scale(0.3 -0.3)">
       <use xlink:href="#BitstreamVeraSans-Roman-37"/>
       <use x="63.623046875" xlink:href="#BitstreamVeraSans-Roman-30"/>
       <use x="127.24609375" xlink:href="#BitstreamVeraSans-Roman-30"/>
      </g>
     </g>
    </g>
    <g id="ytick_9">
     <g id="line2d_43">
      <path clip-path="url(#pccd91fc289)" d="M 147.0625 61.717187 
L 867.0625 61.717187 
" style="fill:none;stroke:#ffffff;stroke-linecap:round;"/>
     </g>
     <g id="line2d_44">
      <g>
       <use style="fill:#262626;stroke:#262626;" x="147.0625" xlink:href="#mef753c87f3" y="61.7171875"/>
      </g>
     </g>
     <g id="line2d_45">
      <g>
       <use style="fill:#262626;stroke:#262626;" x="867.0625" xlink:href="#mef753c87f3" y="61.7171875"/>
      </g>
     </g>
     <g id="text_16">
      <!-- 800 -->
      <defs>
       <path d="M 31.78125 34.625 
Q 24.75 34.625 20.71875 30.859375 
Q 16.703125 27.09375 16.703125 20.515625 
Q 16.703125 13.921875 20.71875 10.15625 
Q 24.75 6.390625 31.78125 6.390625 
Q 38.8125 6.390625 42.859375 10.171875 
Q 46.921875 13.96875 46.921875 20.515625 
Q 46.921875 27.09375 42.890625 30.859375 
Q 38.875 34.625 31.78125 34.625 
M 21.921875 38.8125 
Q 15.578125 40.375 12.03125 44.71875 
Q 8.5 49.078125 8.5 55.328125 
Q 8.5 64.0625 14.71875 69.140625 
Q 20.953125 74.21875 31.78125 74.21875 
Q 42.671875 74.21875 48.875 69.140625 
Q 55.078125 64.0625 55.078125 55.328125 
Q 55.078125 49.078125 51.53125 44.71875 
Q 48 40.375 41.703125 38.8125 
Q 48.828125 37.15625 52.796875 32.3125 
Q 56.78125 27.484375 56.78125 20.515625 
Q 56.78125 9.90625 50.3125 4.234375 
Q 43.84375 -1.421875 31.78125 -1.421875 
Q 19.734375 -1.421875 13.25 4.234375 
Q 6.78125 9.90625 6.78125 20.515625 
Q 6.78125 27.484375 10.78125 32.3125 
Q 14.796875 37.15625 21.921875 38.8125 
M 18.3125 54.390625 
Q 18.3125 48.734375 21.84375 45.5625 
Q 25.390625 42.390625 31.78125 42.390625 
Q 38.140625 42.390625 41.71875 45.5625 
Q 45.3125 48.734375 45.3125 54.390625 
Q 45.3125 60.0625 41.71875 63.234375 
Q 38.140625 66.40625 31.78125 66.40625 
Q 25.390625 66.40625 21.84375 63.234375 
Q 18.3125 60.0625 18.3125 54.390625 
" id="BitstreamVeraSans-Roman-38"/>
      </defs>
      <g style="fill:#262626;" transform="translate(82.8 69.9953125)scale(0.3 -0.3)">
       <use xlink:href="#BitstreamVeraSans-Roman-38"/>
       <use x="63.623046875" xlink:href="#BitstreamVeraSans-Roman-30"/>
       <use x="127.24609375" xlink:href="#BitstreamVeraSans-Roman-30"/>
      </g>
     </g>
    </g>
    <g id="ytick_10">
     <g id="line2d_46">
      <path clip-path="url(#pccd91fc289)" d="M 147.0625 21.717187 
L 867.0625 21.717187 
" style="fill:none;stroke:#ffffff;stroke-linecap:round;"/>
     </g>
     <g id="line2d_47">
      <g>
       <use style="fill:#262626;stroke:#262626;" x="147.0625" xlink:href="#mef753c87f3" y="21.7171875"/>
      </g>
     </g>
     <g id="line2d_48">
      <g>
       <use style="fill:#262626;stroke:#262626;" x="867.0625" xlink:href="#mef753c87f3" y="21.7171875"/>
      </g>
     </g>
     <g id="text_17">
      <!-- 900 -->
      <defs>
       <path d="M 10.984375 1.515625 
L 10.984375 10.5 
Q 14.703125 8.734375 18.5 7.8125 
Q 22.3125 6.890625 25.984375 6.890625 
Q 35.75 6.890625 40.890625 13.453125 
Q 46.046875 20.015625 46.78125 33.40625 
Q 43.953125 29.203125 39.59375 26.953125 
Q 35.25 24.703125 29.984375 24.703125 
Q 19.046875 24.703125 12.671875 31.3125 
Q 6.296875 37.9375 6.296875 49.421875 
Q 6.296875 60.640625 12.9375 67.421875 
Q 19.578125 74.21875 30.609375 74.21875 
Q 43.265625 74.21875 49.921875 64.515625 
Q 56.59375 54.828125 56.59375 36.375 
Q 56.59375 19.140625 48.40625 8.859375 
Q 40.234375 -1.421875 26.421875 -1.421875 
Q 22.703125 -1.421875 18.890625 -0.6875 
Q 15.09375 0.046875 10.984375 1.515625 
M 30.609375 32.421875 
Q 37.25 32.421875 41.125 36.953125 
Q 45.015625 41.5 45.015625 49.421875 
Q 45.015625 57.28125 41.125 61.84375 
Q 37.25 66.40625 30.609375 66.40625 
Q 23.96875 66.40625 20.09375 61.84375 
Q 16.21875 57.28125 16.21875 49.421875 
Q 16.21875 41.5 20.09375 36.953125 
Q 23.96875 32.421875 30.609375 32.421875 
" id="BitstreamVeraSans-Roman-39"/>
      </defs>
      <g style="fill:#262626;" transform="translate(82.8 29.9953125)scale(0.3 -0.3)">
       <use xlink:href="#BitstreamVeraSans-Roman-39"/>
       <use x="63.623046875" xlink:href="#BitstreamVeraSans-Roman-30"/>
       <use x="127.24609375" xlink:href="#BitstreamVeraSans-Roman-30"/>
      </g>
     </g>
    </g>
    <g id="text_18">
     <!-- $\langle \lambda\rangle$ -->
     <defs>
      <path d="M 5.078125 1.703125 
Q 5.078125 3.171875 6.390625 4.5 
L 34.515625 32.078125 
L 24.609375 59.90625 
Q 23.4375 63.09375 22.140625 64.9375 
Q 20.84375 66.796875 18.40625 66.796875 
Q 17.28125 66.796875 17.28125 68.109375 
Q 17.390625 68.703125 17.78125 69.046875 
Q 18.171875 69.390625 18.796875 69.390625 
Q 29.296875 69.390625 31.5 63.1875 
L 51.8125 6.5 
Q 53.125 2.25 54.5 0.78125 
Q 54.984375 0.046875 54.984375 -0.203125 
Q 54.984375 -1.125 54.203125 -1.125 
L 48.78125 -1.125 
Q 46.296875 -0.390625 44.828125 3.21875 
L 35.6875 28.8125 
L 11.53125 0.390625 
Q 9.71875 -1.3125 8.296875 -1.3125 
Q 7.03125 -1.3125 6.046875 -0.4375 
Q 5.078125 0.4375 5.078125 1.703125 
" id="Cmmi10-b8"/>
      <path d="M 7.8125 -114.015625 
Q 7.8125 -113.484375 8.015625 -113.28125 
L 33.109375 -56 
L 8.015625 1.3125 
Q 7.8125 1.515625 7.8125 2 
Q 7.8125 2.734375 8.390625 3.359375 
Q 8.984375 4 9.8125 4 
Q 10.984375 4 11.71875 2.78125 
L 37.203125 -55.328125 
Q 37.3125 -55.515625 37.3125 -56 
Q 37.3125 -56.5 37.203125 -56.78125 
L 11.71875 -114.796875 
Q 10.9375 -116.015625 9.8125 -116.015625 
Q 8.984375 -116.015625 8.390625 -115.375 
Q 7.8125 -114.75 7.8125 -114.015625 
" id="Cmex10-ae"/>
      <path d="M 35.5 -114.796875 
L 10.015625 -56.78125 
Q 9.8125 -56.5 9.8125 -56 
Q 9.8125 -55.515625 10.015625 -55.328125 
L 35.5 2.78125 
Q 35.984375 4 37.3125 4 
Q 38.03125 4 38.671875 3.359375 
Q 39.3125 2.734375 39.3125 2 
Q 39.3125 1.515625 39.203125 1.3125 
L 14.015625 -56 
L 39.203125 -113.28125 
Q 39.3125 -113.484375 39.3125 -114.015625 
Q 39.3125 -114.75 38.671875 -115.375 
Q 38.03125 -116.015625 37.3125 -116.015625 
Q 36.03125 -116.015625 35.5 -114.796875 
" id="Cmex10-ad"/>
     </defs>
     <g style="fill:#262626;" transform="translate(7.2 192.5171875)scale(0.4 -0.4)">
      <use transform="translate(0.0 94.0)" xlink:href="#Cmex10-ad"/>
      <use transform="translate(47.216796875 0.658854166667)" xlink:href="#Cmmi10-b8"/>
      <use transform="translate(105.517578125 94.0)" xlink:href="#Cmex10-ae"/>
     </g>
    </g>
   </g>
   <g id="line2d_49">
    <defs>
     <path d="M -5 5 
L 5 5 
L 5 -5 
L -5 -5 
z
" id="m8a18406966"/>
    </defs>
    <g>
     <use style="fill:#e18632;" x="147.0625" xlink:href="#m8a18406966" y="380.752081489"/>
     <use style="fill:#e18632;" x="172.776785714" xlink:href="#m8a18406966" y="379.516434506"/>
     <use style="fill:#e18632;" x="198.491071429" xlink:href="#m8a18406966" y="378.380394937"/>
     <use style="fill:#e18632;" x="224.205357143" xlink:href="#m8a18406966" y="377.110964509"/>
     <use style="fill:#e18632;" x="249.919642857" xlink:href="#m8a18406966" y="375.614107217"/>
     <use style="fill:#e18632;" x="275.633928571" xlink:href="#m8a18406966" y="374.061133026"/>
     <use style="fill:#e18632;" x="301.348214286" xlink:href="#m8a18406966" y="372.611775939"/>
     <use style="fill:#e18632;" x="327.0625" xlink:href="#m8a18406966" y="370.959696045"/>
     <use style="fill:#e18632;" x="352.776785714" xlink:href="#m8a18406966" y="369.352978914"/>
     <use style="fill:#e18632;" x="378.491071429" xlink:href="#m8a18406966" y="367.661005891"/>
     <use style="fill:#e18632;" x="404.205357143" xlink:href="#m8a18406966" y="366.046866341"/>
     <use style="fill:#e18632;" x="429.919642857" xlink:href="#m8a18406966" y="364.677256553"/>
     <use style="fill:#e18632;" x="455.633928571" xlink:href="#m8a18406966" y="362.661298954"/>
     <use style="fill:#e18632;" x="481.348214286" xlink:href="#m8a18406966" y="361.174887396"/>
     <use style="fill:#e18632;" x="507.0625" xlink:href="#m8a18406966" y="359.817072464"/>
     <use style="fill:#e18632;" x="532.776785714" xlink:href="#m8a18406966" y="358.113807174"/>
     <use style="fill:#e18632;" x="558.491071429" xlink:href="#m8a18406966" y="355.553365222"/>
     <use style="fill:#e18632;" x="584.205357143" xlink:href="#m8a18406966" y="354.294211379"/>
     <use style="fill:#e18632;" x="609.919642857" xlink:href="#m8a18406966" y="352.21545732"/>
     <use style="fill:#e18632;" x="635.633928571" xlink:href="#m8a18406966" y="350.83775413"/>
     <use style="fill:#e18632;" x="661.348214286" xlink:href="#m8a18406966" y="349.36201313"/>
     <use style="fill:#e18632;" x="687.0625" xlink:href="#m8a18406966" y="347.520395986"/>
     <use style="fill:#e18632;" x="712.776785714" xlink:href="#m8a18406966" y="345.743029886"/>
     <use style="fill:#e18632;" x="738.491071429" xlink:href="#m8a18406966" y="343.981619761"/>
     <use style="fill:#e18632;" x="764.205357143" xlink:href="#m8a18406966" y="341.284541298"/>
     <use style="fill:#e18632;" x="789.919642857" xlink:href="#m8a18406966" y="339.954566224"/>
     <use style="fill:#e18632;" x="815.633928571" xlink:href="#m8a18406966" y="338.351721675"/>
     <use style="fill:#e18632;" x="841.348214286" xlink:href="#m8a18406966" y="335.818648572"/>
     <use style="fill:#e18632;" x="867.0625" xlink:href="#m8a18406966" y="333.952334559"/>
    </g>
   </g>
   <g id="line2d_50">
    <defs>
     <path d="M 0 5 
C 1.326016 5 2.597899 4.473168 3.535534 3.535534 
C 4.473168 2.597899 5 1.326016 5 0 
C 5 -1.326016 4.473168 -2.597899 3.535534 -3.535534 
C 2.597899 -4.473168 1.326016 -5 0 -5 
C -1.326016 -5 -2.597899 -4.473168 -3.535534 -3.535534 
C -4.473168 -2.597899 -5 -1.326016 -5 0 
C -5 1.326016 -4.473168 2.597899 -3.535534 3.535534 
C -2.597899 4.473168 -1.326016 5 0 5 
z
" id="m6d542a9706"/>
    </defs>
    <g>
     <use style="fill:#b59a32;" x="147.0625" xlink:href="#m6d542a9706" y="380.585465156"/>
     <use style="fill:#b59a32;" x="172.776785714" xlink:href="#m6d542a9706" y="378.747767194"/>
     <use style="fill:#b59a32;" x="198.491071429" xlink:href="#m6d542a9706" y="376.808496666"/>
     <use style="fill:#b59a32;" x="224.205357143" xlink:href="#m6d542a9706" y="374.730702345"/>
     <use style="fill:#b59a32;" x="249.919642857" xlink:href="#m6d542a9706" y="372.206727655"/>
     <use style="fill:#b59a32;" x="275.633928571" xlink:href="#m6d542a9706" y="369.589770036"/>
     <use style="fill:#b59a32;" x="301.348214286" xlink:href="#m6d542a9706" y="367.103113518"/>
     <use style="fill:#b59a32;" x="327.0625" xlink:href="#m6d542a9706" y="364.394652172"/>
     <use style="fill:#b59a32;" x="352.776785714" xlink:href="#m6d542a9706" y="361.580849638"/>
     <use style="fill:#b59a32;" x="378.491071429" xlink:href="#m6d542a9706" y="358.808573911"/>
     <use style="fill:#b59a32;" x="404.205357143" xlink:href="#m6d542a9706" y="355.693380187"/>
     <use style="fill:#b59a32;" x="429.919642857" xlink:href="#m6d542a9706" y="353.125884044"/>
     <use style="fill:#b59a32;" x="455.633928571" xlink:href="#m6d542a9706" y="349.893072336"/>
     <use style="fill:#b59a32;" x="481.348214286" xlink:href="#m6d542a9706" y="346.887070534"/>
     <use style="fill:#b59a32;" x="507.0625" xlink:href="#m6d542a9706" y="344.406539573"/>
     <use style="fill:#b59a32;" x="532.776785714" xlink:href="#m6d542a9706" y="341.459258392"/>
     <use style="fill:#b59a32;" x="558.491071429" xlink:href="#m6d542a9706" y="337.577668723"/>
     <use style="fill:#b59a32;" x="584.205357143" xlink:href="#m6d542a9706" y="334.9462497"/>
     <use style="fill:#b59a32;" x="609.919642857" xlink:href="#m6d542a9706" y="331.279654915"/>
     <use style="fill:#b59a32;" x="635.633928571" xlink:href="#m6d542a9706" y="328.743805624"/>
     <use style="fill:#b59a32;" x="661.348214286" xlink:href="#m6d542a9706" y="325.675902093"/>
     <use style="fill:#b59a32;" x="687.0625" xlink:href="#m6d542a9706" y="322.936982495"/>
     <use style="fill:#b59a32;" x="712.776785714" xlink:href="#m6d542a9706" y="318.889541282"/>
     <use style="fill:#b59a32;" x="738.491071429" xlink:href="#m6d542a9706" y="315.767265972"/>
     <use style="fill:#b59a32;" x="764.205357143" xlink:href="#m6d542a9706" y="311.943786173"/>
     <use style="fill:#b59a32;" x="789.919642857" xlink:href="#m6d542a9706" y="308.780073487"/>
     <use style="fill:#b59a32;" x="815.633928571" xlink:href="#m6d542a9706" y="305.150861736"/>
     <use style="fill:#b59a32;" x="841.348214286" xlink:href="#m6d542a9706" y="301.783042188"/>
     <use style="fill:#b59a32;" x="867.0625" xlink:href="#m6d542a9706" y="298.329458734"/>
    </g>
   </g>
   <g id="line2d_51">
    <defs>
     <path d="M 0 5 
C 1.326016 5 2.597899 4.473168 3.535534 3.535534 
C 4.473168 2.597899 5 1.326016 5 0 
C 5 -1.326016 4.473168 -2.597899 3.535534 -3.535534 
C 2.597899 -4.473168 1.326016 -5 0 -5 
C -1.326016 -5 -2.597899 -4.473168 -3.535534 -3.535534 
C -4.473168 -2.597899 -5 -1.326016 -5 0 
C -5 1.326016 -4.473168 2.597899 -3.535534 3.535534 
C -2.597899 4.473168 -1.326016 5 0 5 
z
" id="ma0185ff65a"/>
    </defs>
    <g>
     <use style="fill:#8ba731;" x="172.776785714" xlink:href="#ma0185ff65a" y="378.521736179"/>
     <use style="fill:#8ba731;" x="198.491071429" xlink:href="#ma0185ff65a" y="376.086696124"/>
     <use style="fill:#8ba731;" x="224.205357143" xlink:href="#ma0185ff65a" y="373.430539095"/>
     <use style="fill:#8ba731;" x="249.919642857" xlink:href="#ma0185ff65a" y="370.095769139"/>
     <use style="fill:#8ba731;" x="275.633928571" xlink:href="#ma0185ff65a" y="366.770617452"/>
     <use style="fill:#8ba731;" x="301.348214286" xlink:href="#ma0185ff65a" y="363.167641572"/>
     <use style="fill:#8ba731;" x="327.0625" xlink:href="#ma0185ff65a" y="359.674424103"/>
     <use style="fill:#8ba731;" x="352.776785714" xlink:href="#ma0185ff65a" y="355.893037471"/>
     <use style="fill:#8ba731;" x="378.491071429" xlink:href="#ma0185ff65a" y="352.170444251"/>
     <use style="fill:#8ba731;" x="404.205357143" xlink:href="#ma0185ff65a" y="348.176261096"/>
     <use style="fill:#8ba731;" x="429.919642857" xlink:href="#ma0185ff65a" y="344.44510211"/>
     <use style="fill:#8ba731;" x="455.633928571" xlink:href="#ma0185ff65a" y="339.923632452"/>
     <use style="fill:#8ba731;" x="481.348214286" xlink:href="#ma0185ff65a" y="336.027769744"/>
     <use style="fill:#8ba731;" x="507.0625" xlink:href="#ma0185ff65a" y="332.229760144"/>
     <use style="fill:#8ba731;" x="532.776785714" xlink:href="#ma0185ff65a" y="328.003775851"/>
     <use style="fill:#8ba731;" x="558.491071429" xlink:href="#ma0185ff65a" y="323.206178746"/>
     <use style="fill:#8ba731;" x="584.205357143" xlink:href="#ma0185ff65a" y="319.254438296"/>
     <use style="fill:#8ba731;" x="609.919642857" xlink:href="#ma0185ff65a" y="314.21821284"/>
     <use style="fill:#8ba731;" x="635.633928571" xlink:href="#ma0185ff65a" y="310.468593862"/>
     <use style="fill:#8ba731;" x="661.348214286" xlink:href="#ma0185ff65a" y="306.161411879"/>
     <use style="fill:#8ba731;" x="687.0625" xlink:href="#ma0185ff65a" y="302.24066772"/>
     <use style="fill:#8ba731;" x="712.776785714" xlink:href="#ma0185ff65a" y="296.294922742"/>
     <use style="fill:#8ba731;" x="738.491071429" xlink:href="#ma0185ff65a" y="292.465768716"/>
     <use style="fill:#8ba731;" x="764.205357143" xlink:href="#ma0185ff65a" y="287.055117662"/>
     <use style="fill:#8ba731;" x="789.919642857" xlink:href="#ma0185ff65a" y="282.927293756"/>
     <use style="fill:#8ba731;" x="815.633928571" xlink:href="#ma0185ff65a" y="277.805542508"/>
     <use style="fill:#8ba731;" x="841.348214286" xlink:href="#ma0185ff65a" y="273.013749499"/>
     <use style="fill:#8ba731;" x="867.0625" xlink:href="#ma0185ff65a" y="268.300513298"/>
    </g>
   </g>
   <g id="line2d_52">
    <defs>
     <path d="M 0 5 
C 1.326016 5 2.597899 4.473168 3.535534 3.535534 
C 4.473168 2.597899 5 1.326016 5 0 
C 5 -1.326016 4.473168 -2.597899 3.535534 -3.535534 
C 2.597899 -4.473168 1.326016 -5 0 -5 
C -1.326016 -5 -2.597899 -4.473168 -3.535534 -3.535534 
C -4.473168 -2.597899 -5 -1.326016 -5 0 
C -5 1.326016 -4.473168 2.597899 -3.535534 3.535534 
C -2.597899 4.473168 -1.326016 5 0 5 
z
" id="md1e9cb675f"/>
    </defs>
    <g>
     <use style="fill:#32b258;" x="198.491071429" xlink:href="#md1e9cb675f" y="375.85925845"/>
     <use style="fill:#32b258;" x="224.205357143" xlink:href="#md1e9cb675f" y="372.65176601"/>
     <use style="fill:#32b258;" x="249.919642857" xlink:href="#md1e9cb675f" y="368.792587493"/>
     <use style="fill:#32b258;" x="275.633928571" xlink:href="#md1e9cb675f" y="364.730387661"/>
     <use style="fill:#32b258;" x="301.348214286" xlink:href="#md1e9cb675f" y="360.538112751"/>
     <use style="fill:#32b258;" x="327.0625" xlink:href="#md1e9cb675f" y="356.135260062"/>
     <use style="fill:#32b258;" x="352.776785714" xlink:href="#md1e9cb675f" y="351.612951236"/>
     <use style="fill:#32b258;" x="378.491071429" xlink:href="#md1e9cb675f" y="347.110937103"/>
     <use style="fill:#32b258;" x="404.205357143" xlink:href="#md1e9cb675f" y="342.308749609"/>
     <use style="fill:#32b258;" x="429.919642857" xlink:href="#md1e9cb675f" y="337.46868788"/>
     <use style="fill:#32b258;" x="455.633928571" xlink:href="#md1e9cb675f" y="332.008767465"/>
     <use style="fill:#32b258;" x="481.348214286" xlink:href="#md1e9cb675f" y="327.31513029"/>
     <use style="fill:#32b258;" x="507.0625" xlink:href="#md1e9cb675f" y="322.441673037"/>
     <use style="fill:#32b258;" x="532.776785714" xlink:href="#md1e9cb675f" y="316.771529826"/>
     <use style="fill:#32b258;" x="558.491071429" xlink:href="#md1e9cb675f" y="311.42765889"/>
     <use style="fill:#32b258;" x="584.205357143" xlink:href="#md1e9cb675f" y="306.094160643"/>
     <use style="fill:#32b258;" x="609.919642857" xlink:href="#md1e9cb675f" y="300.042744126"/>
     <use style="fill:#32b258;" x="635.633928571" xlink:href="#md1e9cb675f" y="295.235592937"/>
     <use style="fill:#32b258;" x="661.348214286" xlink:href="#md1e9cb675f" y="289.702780696"/>
     <use style="fill:#32b258;" x="687.0625" xlink:href="#md1e9cb675f" y="284.4122545"/>
     <use style="fill:#32b258;" x="712.776785714" xlink:href="#md1e9cb675f" y="277.510203536"/>
     <use style="fill:#32b258;" x="738.491071429" xlink:href="#md1e9cb675f" y="272.088946236"/>
     <use style="fill:#32b258;" x="764.205357143" xlink:href="#md1e9cb675f" y="265.44658366"/>
     <use style="fill:#32b258;" x="789.919642857" xlink:href="#md1e9cb675f" y="260.255239648"/>
     <use style="fill:#32b258;" x="815.633928571" xlink:href="#md1e9cb675f" y="254.052032834"/>
     <use style="fill:#32b258;" x="841.348214286" xlink:href="#md1e9cb675f" y="248.260435863"/>
     <use style="fill:#32b258;" x="867.0625" xlink:href="#md1e9cb675f" y="242.222278803"/>
    </g>
   </g>
   <g id="line2d_53">
    <defs>
     <path d="M 0 5 
C 1.326016 5 2.597899 4.473168 3.535534 3.535534 
C 4.473168 2.597899 5 1.326016 5 0 
C 5 -1.326016 4.473168 -2.597899 3.535534 -3.535534 
C 2.597899 -4.473168 1.326016 -5 0 -5 
C -1.326016 -5 -2.597899 -4.473168 -3.535534 -3.535534 
C -4.473168 -2.597899 -5 -1.326016 -5 0 
C -5 1.326016 -4.473168 2.597899 -3.535534 3.535534 
C -2.597899 4.473168 -1.326016 5 0 5 
z
" id="m1d88af579f"/>
    </defs>
    <g>
     <use style="fill:#35ae95;" x="224.205357143" xlink:href="#m1d88af579f" y="372.428683029"/>
     <use style="fill:#35ae95;" x="249.919642857" xlink:href="#m1d88af579f" y="368.123571407"/>
     <use style="fill:#35ae95;" x="275.633928571" xlink:href="#m1d88af579f" y="363.542499414"/>
     <use style="fill:#35ae95;" x="301.348214286" xlink:href="#m1d88af579f" y="358.548587641"/>
     <use style="fill:#35ae95;" x="327.0625" xlink:href="#m1d88af579f" y="353.554076758"/>
     <use style="fill:#35ae95;" x="352.776785714" xlink:href="#m1d88af579f" y="348.444791205"/>
     <use style="fill:#35ae95;" x="378.491071429" xlink:href="#m1d88af579f" y="343.121158936"/>
     <use style="fill:#35ae95;" x="404.205357143" xlink:href="#m1d88af579f" y="337.486707356"/>
     <use style="fill:#35ae95;" x="429.919642857" xlink:href="#m1d88af579f" y="331.807081388"/>
     <use style="fill:#35ae95;" x="455.633928571" xlink:href="#m1d88af579f" y="325.459664744"/>
     <use style="fill:#35ae95;" x="481.348214286" xlink:href="#m1d88af579f" y="319.980984862"/>
     <use style="fill:#35ae95;" x="507.0625" xlink:href="#m1d88af579f" y="314.142255471"/>
     <use style="fill:#35ae95;" x="532.776785714" xlink:href="#m1d88af579f" y="307.574609368"/>
     <use style="fill:#35ae95;" x="558.491071429" xlink:href="#m1d88af579f" y="301.157852367"/>
     <use style="fill:#35ae95;" x="584.205357143" xlink:href="#m1d88af579f" y="295.04267879"/>
     <use style="fill:#35ae95;" x="609.919642857" xlink:href="#m1d88af579f" y="288.021348631"/>
     <use style="fill:#35ae95;" x="635.633928571" xlink:href="#m1d88af579f" y="281.690968187"/>
     <use style="fill:#35ae95;" x="661.348214286" xlink:href="#m1d88af579f" y="275.237148928"/>
     <use style="fill:#35ae95;" x="687.0625" xlink:href="#m1d88af579f" y="269.153186557"/>
     <use style="fill:#35ae95;" x="712.776785714" xlink:href="#m1d88af579f" y="261.044518564"/>
     <use style="fill:#35ae95;" x="738.491071429" xlink:href="#m1d88af579f" y="254.280839148"/>
     <use style="fill:#35ae95;" x="764.205357143" xlink:href="#m1d88af579f" y="246.762877336"/>
     <use style="fill:#35ae95;" x="789.919642857" xlink:href="#m1d88af579f" y="240.907521875"/>
     <use style="fill:#35ae95;" x="815.633928571" xlink:href="#m1d88af579f" y="233.448457069"/>
     <use style="fill:#35ae95;" x="841.348214286" xlink:href="#m1d88af579f" y="226.37247445"/>
     <use style="fill:#35ae95;" x="867.0625" xlink:href="#m1d88af579f" y="219.554361156"/>
    </g>
   </g>
   <g id="line2d_54">
    <defs>
     <path d="M 0 5 
C 1.326016 5 2.597899 4.473168 3.535534 3.535534 
C 4.473168 2.597899 5 1.326016 5 0 
C 5 -1.326016 4.473168 -2.597899 3.535534 -3.535534 
C 2.597899 -4.473168 1.326016 -5 0 -5 
C -1.326016 -5 -2.597899 -4.473168 -3.535534 -3.535534 
C -4.473168 -2.597899 -5 -1.326016 -5 0 
C -5 1.326016 -4.473168 2.597899 -3.535534 3.535534 
C -2.597899 4.473168 -1.326016 5 0 5 
z
" id="m12e22a7435"/>
    </defs>
    <g>
     <use style="fill:#37abb2;" x="249.919642857" xlink:href="#m12e22a7435" y="367.906352548"/>
     <use style="fill:#37abb2;" x="275.633928571" xlink:href="#m12e22a7435" y="362.917144436"/>
     <use style="fill:#37abb2;" x="301.348214286" xlink:href="#m12e22a7435" y="357.299817106"/>
     <use style="fill:#37abb2;" x="327.0625" xlink:href="#m12e22a7435" y="351.79682959"/>
     <use style="fill:#37abb2;" x="352.776785714" xlink:href="#m12e22a7435" y="346.204000393"/>
     <use style="fill:#37abb2;" x="378.491071429" xlink:href="#m12e22a7435" y="339.865528069"/>
     <use style="fill:#37abb2;" x="404.205357143" xlink:href="#m12e22a7435" y="333.531963548"/>
     <use style="fill:#37abb2;" x="429.919642857" xlink:href="#m12e22a7435" y="327.304831422"/>
     <use style="fill:#37abb2;" x="455.633928571" xlink:href="#m12e22a7435" y="320.331608464"/>
     <use style="fill:#37abb2;" x="481.348214286" xlink:href="#m12e22a7435" y="313.737898666"/>
     <use style="fill:#37abb2;" x="507.0625" xlink:href="#m12e22a7435" y="307.304908188"/>
     <use style="fill:#37abb2;" x="532.776785714" xlink:href="#m12e22a7435" y="299.764113423"/>
     <use style="fill:#37abb2;" x="558.491071429" xlink:href="#m12e22a7435" y="292.390236281"/>
     <use style="fill:#37abb2;" x="584.205357143" xlink:href="#m12e22a7435" y="285.581421985"/>
     <use style="fill:#37abb2;" x="609.919642857" xlink:href="#m12e22a7435" y="277.547700152"/>
     <use style="fill:#37abb2;" x="635.633928571" xlink:href="#m12e22a7435" y="270.260123605"/>
     <use style="fill:#37abb2;" x="661.348214286" xlink:href="#m12e22a7435" y="262.902941402"/>
     <use style="fill:#37abb2;" x="687.0625" xlink:href="#m12e22a7435" y="255.629162796"/>
     <use style="fill:#37abb2;" x="712.776785714" xlink:href="#m12e22a7435" y="246.442597249"/>
     <use style="fill:#37abb2;" x="738.491071429" xlink:href="#m12e22a7435" y="238.806148078"/>
     <use style="fill:#37abb2;" x="764.205357143" xlink:href="#m12e22a7435" y="230.271101824"/>
     <use style="fill:#37abb2;" x="789.919642857" xlink:href="#m12e22a7435" y="223.373730177"/>
     <use style="fill:#37abb2;" x="815.633928571" xlink:href="#m12e22a7435" y="214.881817848"/>
     <use style="fill:#37abb2;" x="841.348214286" xlink:href="#m12e22a7435" y="206.823353276"/>
     <use style="fill:#37abb2;" x="867.0625" xlink:href="#m12e22a7435" y="198.914245747"/>
    </g>
   </g>
   <g id="line2d_55">
    <defs>
     <path d="M 0 5 
C 1.326016 5 2.597899 4.473168 3.535534 3.535534 
C 4.473168 2.597899 5 1.326016 5 0 
C 5 -1.326016 4.473168 -2.597899 3.535534 -3.535534 
C 2.597899 -4.473168 1.326016 -5 0 -5 
C -1.326016 -5 -2.597899 -4.473168 -3.535534 -3.535534 
C -4.473168 -2.597899 -5 -1.326016 -5 0 
C -5 1.326016 -4.473168 2.597899 -3.535534 3.535534 
C -2.597899 4.473168 -1.326016 5 0 5 
z
" id="mf44ca93eb1"/>
    </defs>
    <g>
     <use style="fill:#39a7d6;" x="275.633928571" xlink:href="#mf44ca93eb1" y="362.727845125"/>
     <use style="fill:#39a7d6;" x="301.348214286" xlink:href="#mf44ca93eb1" y="356.603564057"/>
     <use style="fill:#39a7d6;" x="327.0625" xlink:href="#mf44ca93eb1" y="350.638269183"/>
     <use style="fill:#39a7d6;" x="352.776785714" xlink:href="#mf44ca93eb1" y="344.478863631"/>
     <use style="fill:#39a7d6;" x="378.491071429" xlink:href="#mf44ca93eb1" y="337.5703167"/>
     <use style="fill:#39a7d6;" x="404.205357143" xlink:href="#mf44ca93eb1" y="330.441869352"/>
     <use style="fill:#39a7d6;" x="429.919642857" xlink:href="#mf44ca93eb1" y="323.680100984"/>
     <use style="fill:#39a7d6;" x="455.633928571" xlink:href="#mf44ca93eb1" y="315.821587393"/>
     <use style="fill:#39a7d6;" x="481.348214286" xlink:href="#mf44ca93eb1" y="308.587591078"/>
     <use style="fill:#39a7d6;" x="507.0625" xlink:href="#mf44ca93eb1" y="301.40450478"/>
     <use style="fill:#39a7d6;" x="532.776785714" xlink:href="#mf44ca93eb1" y="293.003190229"/>
     <use style="fill:#39a7d6;" x="558.491071429" xlink:href="#mf44ca93eb1" y="284.85348612"/>
     <use style="fill:#39a7d6;" x="584.205357143" xlink:href="#mf44ca93eb1" y="277.235807709"/>
     <use style="fill:#39a7d6;" x="609.919642857" xlink:href="#mf44ca93eb1" y="268.289944731"/>
     <use style="fill:#39a7d6;" x="635.633928571" xlink:href="#mf44ca93eb1" y="260.174094563"/>
     <use style="fill:#39a7d6;" x="661.348214286" xlink:href="#mf44ca93eb1" y="251.563736553"/>
     <use style="fill:#39a7d6;" x="687.0625" xlink:href="#mf44ca93eb1" y="243.876974586"/>
     <use style="fill:#39a7d6;" x="712.776785714" xlink:href="#mf44ca93eb1" y="233.814949663"/>
     <use style="fill:#39a7d6;" x="738.491071429" xlink:href="#mf44ca93eb1" y="225.240168658"/>
     <use style="fill:#39a7d6;" x="764.205357143" xlink:href="#mf44ca93eb1" y="215.306407719"/>
     <use style="fill:#39a7d6;" x="789.919642857" xlink:href="#mf44ca93eb1" y="207.197126915"/>
     <use style="fill:#39a7d6;" x="815.633928571" xlink:href="#mf44ca93eb1" y="198.202001366"/>
     <use style="fill:#39a7d6;" x="841.348214286" xlink:href="#mf44ca93eb1" y="188.791827705"/>
     <use style="fill:#39a7d6;" x="867.0625" xlink:href="#mf44ca93eb1" y="180.225699017"/>
    </g>
   </g>
   <g id="line2d_56">
    <defs>
     <path d="M 0 5 
C 1.326016 5 2.597899 4.473168 3.535534 3.535534 
C 4.473168 2.597899 5 1.326016 5 0 
C 5 -1.326016 4.473168 -2.597899 3.535534 -3.535534 
C 2.597899 -4.473168 1.326016 -5 0 -5 
C -1.326016 -5 -2.597899 -4.473168 -3.535534 -3.535534 
C -4.473168 -2.597899 -5 -1.326016 -5 0 
C -5 1.326016 -4.473168 2.597899 -3.535534 3.535534 
C -2.597899 4.473168 -1.326016 5 0 5 
z
" id="mffa432d791"/>
    </defs>
    <g>
     <use style="fill:#8f93f4;" x="301.348214286" xlink:href="#mffa432d791" y="356.397035219"/>
     <use style="fill:#8f93f4;" x="327.0625" xlink:href="#mffa432d791" y="350.01516194"/>
     <use style="fill:#8f93f4;" x="352.776785714" xlink:href="#mffa432d791" y="343.341961667"/>
     <use style="fill:#8f93f4;" x="378.491071429" xlink:href="#mffa432d791" y="335.825851883"/>
     <use style="fill:#8f93f4;" x="404.205357143" xlink:href="#mffa432d791" y="328.130193127"/>
     <use style="fill:#8f93f4;" x="429.919642857" xlink:href="#mffa432d791" y="320.930510813"/>
     <use style="fill:#8f93f4;" x="455.633928571" xlink:href="#mffa432d791" y="312.321730414"/>
     <use style="fill:#8f93f4;" x="481.348214286" xlink:href="#mffa432d791" y="304.258998068"/>
     <use style="fill:#8f93f4;" x="507.0625" xlink:href="#mffa432d791" y="296.34873784"/>
     <use style="fill:#8f93f4;" x="532.776785714" xlink:href="#mffa432d791" y="287.269804794"/>
     <use style="fill:#8f93f4;" x="558.491071429" xlink:href="#mffa432d791" y="278.437488722"/>
     <use style="fill:#8f93f4;" x="584.205357143" xlink:href="#mffa432d791" y="269.967207977"/>
     <use style="fill:#8f93f4;" x="609.919642857" xlink:href="#mffa432d791" y="260.293318725"/>
     <use style="fill:#8f93f4;" x="635.633928571" xlink:href="#mffa432d791" y="251.371544824"/>
     <use style="fill:#8f93f4;" x="661.348214286" xlink:href="#mffa432d791" y="241.945348395"/>
     <use style="fill:#8f93f4;" x="687.0625" xlink:href="#mffa432d791" y="233.175417598"/>
     <use style="fill:#8f93f4;" x="712.776785714" xlink:href="#mffa432d791" y="222.519365457"/>
     <use style="fill:#8f93f4;" x="738.491071429" xlink:href="#mffa432d791" y="213.126067389"/>
     <use style="fill:#8f93f4;" x="764.205357143" xlink:href="#mffa432d791" y="202.123858154"/>
     <use style="fill:#8f93f4;" x="789.919642857" xlink:href="#mffa432d791" y="193.363457238"/>
     <use style="fill:#8f93f4;" x="815.633928571" xlink:href="#mffa432d791" y="183.163229797"/>
     <use style="fill:#8f93f4;" x="841.348214286" xlink:href="#mffa432d791" y="172.906168278"/>
     <use style="fill:#8f93f4;" x="867.0625" xlink:href="#mffa432d791" y="163.283246024"/>
    </g>
   </g>
   <g id="line2d_57">
    <defs>
     <path d="M 0 5 
C 1.326016 5 2.597899 4.473168 3.535534 3.535534 
C 4.473168 2.597899 5 1.326016 5 0 
C 5 -1.326016 4.473168 -2.597899 3.535534 -3.535534 
C 2.597899 -4.473168 1.326016 -5 0 -5 
C -1.326016 -5 -2.597899 -4.473168 -3.535534 -3.535534 
C -4.473168 -2.597899 -5 -1.326016 -5 0 
C -5 1.326016 -4.473168 2.597899 -3.535534 3.535534 
C -2.597899 4.473168 -1.326016 5 0 5 
z
" id="m4e84b2aabe"/>
    </defs>
    <g>
     <use style="fill:#db70f4;" x="327.0625" xlink:href="#m4e84b2aabe" y="349.8267974"/>
     <use style="fill:#db70f4;" x="352.776785714" xlink:href="#m4e84b2aabe" y="342.760000387"/>
     <use style="fill:#db70f4;" x="378.491071429" xlink:href="#m4e84b2aabe" y="334.739388787"/>
     <use style="fill:#db70f4;" x="404.205357143" xlink:href="#m4e84b2aabe" y="326.441315868"/>
     <use style="fill:#db70f4;" x="429.919642857" xlink:href="#m4e84b2aabe" y="318.675109214"/>
     <use style="fill:#db70f4;" x="455.633928571" xlink:href="#m4e84b2aabe" y="309.556668037"/>
     <use style="fill:#db70f4;" x="481.348214286" xlink:href="#m4e84b2aabe" y="301.041934262"/>
     <use style="fill:#db70f4;" x="507.0625" xlink:href="#m4e84b2aabe" y="292.058388972"/>
     <use style="fill:#db70f4;" x="532.776785714" xlink:href="#m4e84b2aabe" y="282.501008162"/>
     <use style="fill:#db70f4;" x="558.491071429" xlink:href="#m4e84b2aabe" y="273.082294477"/>
     <use style="fill:#db70f4;" x="584.205357143" xlink:href="#m4e84b2aabe" y="263.7044504"/>
     <use style="fill:#db70f4;" x="609.919642857" xlink:href="#m4e84b2aabe" y="253.428366218"/>
     <use style="fill:#db70f4;" x="635.633928571" xlink:href="#m4e84b2aabe" y="243.603335335"/>
     <use style="fill:#db70f4;" x="661.348214286" xlink:href="#m4e84b2aabe" y="233.538094744"/>
     <use style="fill:#db70f4;" x="687.0625" xlink:href="#m4e84b2aabe" y="223.72392938"/>
     <use style="fill:#db70f4;" x="712.776785714" xlink:href="#m4e84b2aabe" y="212.334519705"/>
     <use style="fill:#db70f4;" x="738.491071429" xlink:href="#m4e84b2aabe" y="202.059873261"/>
     <use style="fill:#db70f4;" x="764.205357143" xlink:href="#m4e84b2aabe" y="190.389536312"/>
     <use style="fill:#db70f4;" x="789.919642857" xlink:href="#m4e84b2aabe" y="180.63829009"/>
     <use style="fill:#db70f4;" x="815.633928571" xlink:href="#m4e84b2aabe" y="169.578311645"/>
     <use style="fill:#db70f4;" x="841.348214286" xlink:href="#m4e84b2aabe" y="158.338703448"/>
     <use style="fill:#db70f4;" x="867.0625" xlink:href="#m4e84b2aabe" y="148.039639725"/>
    </g>
   </g>
   <g id="line2d_58">
    <defs>
     <path d="M 0 -5 
L -5 5 
L 5 5 
z
" id="m43c1c841b4"/>
    </defs>
    <g>
     <use style="fill:#f667c6;" x="352.776785714" xlink:href="#m43c1c841b4" y="342.574511992"/>
     <use style="fill:#f667c6;" x="378.491071429" xlink:href="#m43c1c841b4" y="334.051174787"/>
     <use style="fill:#f667c6;" x="404.205357143" xlink:href="#m43c1c841b4" y="325.324203805"/>
     <use style="fill:#f667c6;" x="429.919642857" xlink:href="#m43c1c841b4" y="317.032793579"/>
     <use style="fill:#f667c6;" x="455.633928571" xlink:href="#m43c1c841b4" y="307.310697816"/>
     <use style="fill:#f667c6;" x="481.348214286" xlink:href="#m43c1c841b4" y="298.308233114"/>
     <use style="fill:#f667c6;" x="507.0625" xlink:href="#m43c1c841b4" y="288.679312382"/>
     <use style="fill:#f667c6;" x="532.776785714" xlink:href="#m43c1c841b4" y="278.3849541"/>
     <use style="fill:#f667c6;" x="558.491071429" xlink:href="#m43c1c841b4" y="268.411760012"/>
     <use style="fill:#f667c6;" x="584.205357143" xlink:href="#m43c1c841b4" y="258.151029344"/>
     <use style="fill:#f667c6;" x="609.919642857" xlink:href="#m43c1c841b4" y="247.490348679"/>
     <use style="fill:#f667c6;" x="635.633928571" xlink:href="#m43c1c841b4" y="236.880953561"/>
     <use style="fill:#f667c6;" x="661.348214286" xlink:href="#m43c1c841b4" y="226.027663142"/>
     <use style="fill:#f667c6;" x="687.0625" xlink:href="#m43c1c841b4" y="215.278193332"/>
     <use style="fill:#f667c6;" x="712.776785714" xlink:href="#m43c1c841b4" y="203.455574046"/>
     <use style="fill:#f667c6;" x="738.491071429" xlink:href="#m43c1c841b4" y="192.316336611"/>
     <use style="fill:#f667c6;" x="764.205357143" xlink:href="#m43c1c841b4" y="179.669081604"/>
     <use style="fill:#f667c6;" x="789.919642857" xlink:href="#m43c1c841b4" y="169.15076145"/>
     <use style="fill:#f667c6;" x="815.633928571" xlink:href="#m43c1c841b4" y="156.974073446"/>
     <use style="fill:#f667c6;" x="841.348214286" xlink:href="#m43c1c841b4" y="145.287258516"/>
     <use style="fill:#f667c6;" x="867.0625" xlink:href="#m43c1c841b4" y="134.139318013"/>
    </g>
   </g>
   <g id="line2d_59">
    <path d="M 147.0625 380.517187 
L 172.776786 378.517187 
L 198.491071 375.717187 
L 224.205357 372.117187 
L 249.919643 367.717187 
L 275.633929 362.517187 
L 301.348214 356.517187 
L 327.0625 349.717187 
L 352.776786 342.117187 
L 378.491071 333.717187 
L 404.205357 324.517187 
L 429.919643 314.517187 
L 455.633929 303.717187 
L 481.348214 292.117187 
L 507.0625 279.717187 
L 532.776786 266.517187 
L 558.491071 252.517187 
L 584.205357 237.717187 
L 609.919643 222.117187 
L 635.633929 205.717187 
L 661.348214 188.517187 
L 687.0625 170.517187 
L 712.776786 151.717187 
L 738.491071 132.117187 
L 764.205357 111.717187 
L 789.919643 90.517187 
L 815.633929 68.517187 
L 841.348214 45.717187 
L 867.0625 22.117187 
" style="fill:none;stroke:#000000;stroke-linecap:round;stroke-width:2.0;"/>
   </g>
   <g id="line2d_60"/>
   <g id="patch_3">
    <path d="M 147.0625 21.717187 
L 867.0625 21.717187 
" style="fill:none;"/>
   </g>
   <g id="patch_4">
    <path d="M 867.0625 381.717187 
L 867.0625 21.717187 
" style="fill:none;"/>
   </g>
   <g id="patch_5">
    <path d="M 147.0625 381.717187 
L 867.0625 381.717187 
" style="fill:none;"/>
   </g>
   <g id="patch_6">
    <path d="M 147.0625 381.717187 
L 147.0625 21.717187 
" style="fill:none;"/>
   </g>
   <g id="legend_1">
    <g id="patch_7">
     <path d="M 164.5625 191.654687 
L 634.0625 191.654687 
Q 639.0625 191.654687 639.0625 186.654687 
L 639.0625 39.217187 
Q 639.0625 34.217187 634.0625 34.217187 
L 164.5625 34.217187 
Q 159.5625 34.217187 159.5625 39.217187 
L 159.5625 186.654687 
Q 159.5625 191.654687 164.5625 191.654687 
z
" style="fill:#eaeaf2;stroke:#ffffff;stroke-linejoin:miter;stroke-width:0.3;"/>
    </g>
    <g id="line2d_61"/>
    <g id="line2d_62">
     <g>
      <use style="fill:#e18632;" x="194.5625" xlink:href="#m8a18406966" y="54.46328125"/>
     </g>
    </g>
    <g id="text_19">
     <!-- $\mathrm{Rank}(\rho_{0})=$1 -->
     <defs>
      <path d="M 25 -2.203125 
Q 12.75 -2.203125 8.328125 7.875 
Q 3.90625 17.96875 3.90625 31.890625 
Q 3.90625 40.578125 5.484375 48.234375 
Q 7.078125 55.90625 11.78125 61.25 
Q 16.5 66.609375 25 66.609375 
Q 31.59375 66.609375 35.78125 63.375 
Q 39.984375 60.15625 42.1875 55.046875 
Q 44.390625 49.953125 45.1875 44.109375 
Q 46 38.28125 46 31.890625 
Q 46 23.296875 44.40625 15.796875 
Q 42.828125 8.296875 38.1875 3.046875 
Q 33.546875 -2.203125 25 -2.203125 
M 25 0.390625 
Q 30.5625 0.390625 33.296875 6.09375 
Q 36.03125 11.8125 36.671875 18.75 
Q 37.3125 25.6875 37.3125 33.5 
Q 37.3125 41.015625 36.671875 47.359375 
Q 36.03125 53.71875 33.3125 58.859375 
Q 30.609375 64.015625 25 64.015625 
Q 19.34375 64.015625 16.609375 58.828125 
Q 13.875 53.65625 13.234375 47.328125 
Q 12.59375 41.015625 12.59375 33.5 
Q 12.59375 27.9375 12.859375 23 
Q 13.140625 18.0625 14.3125 12.8125 
Q 15.484375 7.5625 18.09375 3.96875 
Q 20.703125 0.390625 25 0.390625 
" id="Cmr10-30"/>
      <path d="M 31 -24.8125 
Q 25.4375 -20.40625 21.40625 -14.71875 
Q 17.390625 -9.03125 14.8125 -2.578125 
Q 12.25 3.859375 10.984375 10.890625 
Q 9.71875 17.921875 9.71875 25 
Q 9.71875 32.171875 10.984375 39.203125 
Q 12.25 46.234375 14.859375 52.734375 
Q 17.484375 59.234375 21.53125 64.890625 
Q 25.59375 70.5625 31 74.8125 
Q 31 75 31.5 75 
L 32.421875 75 
Q 32.71875 75 32.953125 74.734375 
Q 33.203125 74.46875 33.203125 74.125 
Q 33.203125 73.6875 33.015625 73.484375 
Q 28.125 68.703125 24.875 63.234375 
Q 21.625 57.765625 19.640625 51.578125 
Q 17.671875 45.40625 16.796875 38.78125 
Q 15.921875 32.171875 15.921875 25 
Q 15.921875 -6.78125 32.90625 -23.296875 
Q 33.203125 -23.578125 33.203125 -24.125 
Q 33.203125 -24.359375 32.9375 -24.671875 
Q 32.671875 -25 32.421875 -25 
L 31.5 -25 
Q 31 -25 31 -24.8125 
" id="Cmr10-28"/>
      <path d="M 2.984375 0 
L 2.984375 3.515625 
Q 6.390625 3.515625 8.59375 4.046875 
Q 10.796875 4.59375 10.796875 6.6875 
L 10.796875 33.984375 
Q 10.796875 36.671875 9.984375 37.859375 
Q 9.1875 39.0625 7.671875 39.328125 
Q 6.15625 39.59375 2.984375 39.59375 
L 2.984375 43.109375 
L 17.484375 44.1875 
L 17.484375 34.421875 
Q 19.484375 38.71875 23.40625 41.453125 
Q 27.34375 44.1875 31.984375 44.1875 
Q 38.921875 44.1875 42.40625 40.859375 
Q 45.90625 37.546875 45.90625 30.71875 
L 45.90625 6.6875 
Q 45.90625 4.59375 48.09375 4.046875 
Q 50.296875 3.515625 53.71875 3.515625 
L 53.71875 0 
L 30.8125 0 
L 30.8125 3.515625 
Q 34.234375 3.515625 36.421875 4.046875 
Q 38.625 4.59375 38.625 6.6875 
L 38.625 30.421875 
Q 38.625 35.296875 37.203125 38.453125 
Q 35.796875 41.609375 31.390625 41.609375 
Q 25.59375 41.609375 21.84375 36.96875 
Q 18.109375 32.328125 18.109375 26.421875 
L 18.109375 6.6875 
Q 18.109375 4.59375 20.3125 4.046875 
Q 22.515625 3.515625 25.875 3.515625 
L 25.875 0 
z
" id="Cmr10-6e"/>
      <path d="M 3.328125 0 
L 3.328125 3.515625 
Q 13.625 3.515625 13.625 6.6875 
L 13.625 61.625 
Q 13.625 64.796875 3.328125 64.796875 
L 3.328125 68.3125 
L 34.71875 68.3125 
Q 40.328125 68.3125 46.5 66.28125 
Q 52.6875 64.265625 56.828125 60.109375 
Q 60.984375 55.953125 60.984375 50.203125 
Q 60.984375 46 58.46875 42.703125 
Q 55.953125 39.40625 52.015625 37.1875 
Q 48.09375 34.96875 44 33.984375 
Q 48.484375 32.421875 51.84375 29 
Q 55.21875 25.59375 55.90625 21.1875 
L 57.328125 12.3125 
Q 58.296875 6.296875 59.375 3.34375 
Q 60.453125 0.390625 64.109375 0.390625 
Q 67.234375 0.390625 68.765625 3.296875 
Q 70.3125 6.203125 70.3125 9.625 
Q 70.3125 9.96875 70.625 10.234375 
Q 70.953125 10.5 71.296875 10.5 
L 72.21875 10.5 
Q 73.1875 10.5 73.1875 9.1875 
Q 73.1875 6.453125 72.109375 3.828125 
Q 71.046875 1.21875 69.015625 -0.484375 
Q 67 -2.203125 64.203125 -2.203125 
Q 56.984375 -2.203125 51.78125 1.390625 
Q 46.578125 4.984375 46.578125 11.921875 
L 46.578125 20.796875 
Q 46.578125 25.78125 43.109375 29.34375 
Q 39.65625 32.90625 34.625 32.90625 
L 22.609375 32.90625 
L 22.609375 6.6875 
Q 22.609375 3.515625 32.90625 3.515625 
L 32.90625 0 
z
M 22.609375 35.5 
L 33.296875 35.5 
Q 41.609375 35.5 45.953125 38.84375 
Q 50.296875 42.1875 50.296875 50.203125 
Q 50.296875 58.15625 46 61.46875 
Q 41.703125 64.796875 33.296875 64.796875 
L 27.6875 64.796875 
Q 25.875 64.796875 24.875 64.640625 
Q 23.875 64.5 23.234375 63.796875 
Q 22.609375 63.09375 22.609375 61.625 
z
" id="Cmr10-52"/>
      <path d="M 2.59375 0 
L 2.59375 3.515625 
Q 6 3.515625 8.203125 4.046875 
Q 10.40625 4.59375 10.40625 6.6875 
L 10.40625 59.1875 
Q 10.40625 61.859375 9.59375 63.0625 
Q 8.796875 64.265625 7.28125 64.53125 
Q 5.765625 64.796875 2.59375 64.796875 
L 2.59375 68.3125 
L 17.390625 69.390625 
L 17.390625 21.921875 
L 30.8125 33.6875 
Q 32.8125 35.59375 32.8125 37.203125 
Q 32.8125 38.375 31.984375 38.984375 
Q 31.15625 39.59375 29.984375 39.59375 
L 29.984375 43.109375 
L 48.78125 43.109375 
L 48.78125 39.59375 
Q 42 39.59375 35.203125 33.6875 
L 28.078125 27.484375 
L 40.828125 9.421875 
Q 43.453125 5.671875 45.234375 4.59375 
Q 47.015625 3.515625 51.125 3.515625 
L 51.125 0 
L 31.203125 0 
L 31.203125 3.515625 
Q 34.625 3.515625 34.625 5.609375 
Q 34.625 7.125 32.8125 9.421875 
L 23.1875 23.09375 
L 17.09375 17.828125 
L 17.09375 6.6875 
Q 17.09375 4.59375 19.3125 4.046875 
Q 21.53125 3.515625 24.90625 3.515625 
L 24.90625 0 
z
" id="Cmr10-6b"/>
      <path d="M 6.5 -25 
Q 5.609375 -25 5.609375 -24.125 
Q 5.609375 -23.6875 5.8125 -23.484375 
Q 22.90625 -6.78125 22.90625 25 
Q 22.90625 56.78125 6 73.296875 
Q 5.609375 73.53125 5.609375 74.125 
Q 5.609375 74.46875 5.875 74.734375 
Q 6.15625 75 6.5 75 
L 7.421875 75 
Q 7.71875 75 7.90625 74.8125 
Q 15.09375 69.140625 19.875 61.03125 
Q 24.65625 52.9375 26.875 43.75 
Q 29.109375 34.578125 29.109375 25 
Q 29.109375 17.921875 27.90625 11.0625 
Q 26.703125 4.203125 24.09375 -2.453125 
Q 21.484375 -9.125 17.484375 -14.765625 
Q 13.484375 -20.40625 7.90625 -24.8125 
Q 7.71875 -25 7.421875 -25 
z
" id="Cmr10-29"/>
      <path d="M 2.78125 -18.796875 
Q 2.78125 -18.21875 2.875 -18.015625 
L 12.796875 21.921875 
Q 14.203125 27.296875 17.640625 32.4375 
Q 21.09375 37.59375 25.96875 40.890625 
Q 30.859375 44.1875 36.28125 44.1875 
Q 40.625 44.1875 43.875 41.921875 
Q 47.125 39.65625 48.75 35.96875 
Q 50.390625 32.28125 50.390625 27.875 
Q 50.390625 23.046875 48.40625 17.875 
Q 46.4375 12.703125 42.9375 8.40625 
Q 39.453125 4.109375 34.90625 1.484375 
Q 30.375 -1.125 25.390625 -1.125 
Q 22.46875 -1.125 19.875 0.609375 
Q 17.28125 2.34375 15.828125 5.171875 
L 9.90625 -18.40625 
Q 9.625 -19.828125 8.453125 -20.703125 
Q 7.28125 -21.578125 5.8125 -21.578125 
Q 4.59375 -21.578125 3.6875 -20.8125 
Q 2.78125 -20.0625 2.78125 -18.796875 
M 25.59375 1.515625 
Q 30.90625 1.515625 34.828125 6.953125 
Q 38.765625 12.40625 40.84375 19.75 
Q 42.921875 27.09375 42.921875 32.171875 
Q 42.921875 35.984375 41.25 38.796875 
Q 39.59375 41.609375 36.078125 41.609375 
Q 31.734375 41.609375 28.40625 38.3125 
Q 25.09375 35.015625 23.09375 30.5625 
Q 21.09375 26.125 19.828125 21.296875 
L 17.09375 10.109375 
Q 17.71875 6.5 19.9375 4 
Q 22.171875 1.515625 25.59375 1.515625 
" id="Cmmi10-bd"/>
      <path d="M 7.515625 13.28125 
Q 6.6875 13.28125 6.140625 13.90625 
Q 5.609375 14.546875 5.609375 15.28125 
Q 5.609375 16.109375 6.140625 16.6875 
Q 6.6875 17.28125 7.515625 17.28125 
L 70.3125 17.28125 
Q 71.046875 17.28125 71.578125 16.6875 
Q 72.125 16.109375 72.125 15.28125 
Q 72.125 14.546875 71.578125 13.90625 
Q 71.046875 13.28125 70.3125 13.28125 
z
M 7.515625 32.71875 
Q 6.6875 32.71875 6.140625 33.296875 
Q 5.609375 33.890625 5.609375 34.71875 
Q 5.609375 35.453125 6.140625 36.078125 
Q 6.6875 36.71875 7.515625 36.71875 
L 70.3125 36.71875 
Q 71.046875 36.71875 71.578125 36.078125 
Q 72.125 35.453125 72.125 34.71875 
Q 72.125 33.890625 71.578125 33.296875 
Q 71.046875 32.71875 70.3125 32.71875 
z
" id="Cmr10-3d"/>
      <path d="M 4 9.8125 
Q 4 15.765625 8.6875 19.5 
Q 13.375 23.25 19.9375 24.78125 
Q 26.515625 26.3125 32.421875 26.3125 
L 32.421875 30.421875 
Q 32.421875 33.296875 31.15625 36 
Q 29.890625 38.71875 27.484375 40.453125 
Q 25.09375 42.1875 22.21875 42.1875 
Q 15.578125 42.1875 12.109375 39.203125 
Q 14.015625 39.203125 15.25 37.765625 
Q 16.5 36.328125 16.5 34.421875 
Q 16.5 32.421875 15.078125 31 
Q 13.671875 29.59375 11.71875 29.59375 
Q 9.71875 29.59375 8.296875 31 
Q 6.890625 32.421875 6.890625 34.421875 
Q 6.890625 39.703125 11.671875 42.265625 
Q 16.453125 44.828125 22.21875 44.828125 
Q 26.265625 44.828125 30.359375 43.09375 
Q 34.46875 41.359375 37.078125 38.125 
Q 39.703125 34.90625 39.703125 30.609375 
L 39.703125 8.109375 
Q 39.703125 6.15625 40.53125 4.515625 
Q 41.359375 2.875 43.109375 2.875 
Q 44.78125 2.875 45.578125 4.53125 
Q 46.390625 6.203125 46.390625 8.109375 
L 46.390625 14.5 
L 49.3125 14.5 
L 49.3125 8.109375 
Q 49.3125 5.859375 48.140625 3.828125 
Q 46.96875 1.8125 44.984375 0.609375 
Q 43.015625 -0.59375 40.71875 -0.59375 
Q 37.796875 -0.59375 35.671875 1.671875 
Q 33.546875 3.953125 33.296875 7.078125 
Q 31.453125 3.328125 27.828125 1.09375 
Q 24.21875 -1.125 20.125 -1.125 
Q 16.3125 -1.125 12.625 0 
Q 8.9375 1.125 6.46875 3.53125 
Q 4 5.953125 4 9.8125 
M 12.109375 9.8125 
Q 12.109375 6.296875 14.6875 3.90625 
Q 17.28125 1.515625 20.796875 1.515625 
Q 24.03125 1.515625 26.65625 3.125 
Q 29.296875 4.734375 30.859375 7.515625 
Q 32.421875 10.296875 32.421875 13.375 
L 32.421875 23.78125 
Q 27.875 23.78125 23.109375 22.28125 
Q 18.359375 20.796875 15.234375 17.625 
Q 12.109375 14.453125 12.109375 9.8125 
" id="Cmr10-61"/>
     </defs>
     <g style="fill:#262626;" transform="translate(239.5625 63.21328125)scale(0.25 -0.25)">
      <use xlink:href="#Cmr10-52"/>
      <use transform="translate(73.583984375 0.0)" xlink:href="#Cmr10-61"/>
      <use transform="translate(123.583984375 0.0)" xlink:href="#Cmr10-6e"/>
      <use transform="translate(179.1015625 0.0)" xlink:href="#Cmr10-6b"/>
      <use transform="translate(231.787109375 0.0)" xlink:href="#Cmr10-28"/>
      <use transform="translate(270.60546875 0.0)" xlink:href="#Cmmi10-bd"/>
      <use transform="translate(322.314453125 -17.00625)scale(0.7)" xlink:href="#Cmr10-30"/>
      <use transform="translate(363.691796875 0.0)" xlink:href="#Cmr10-29"/>
      <use transform="translate(420.06875 0.0)" xlink:href="#Cmr10-3d"/>
      <use transform="translate(515.312890625 0.0)" xlink:href="#BitstreamVeraSans-Roman-31"/>
     </g>
    </g>
    <g id="line2d_63">
     <path d="M 169.5625 92.209375 
L 219.5625 92.209375 
" style="fill:none;stroke:#000000;stroke-linecap:round;stroke-width:2.0;"/>
    </g>
    <g id="line2d_64"/>
    <g id="text_20">
     <!-- Wilks Theorem -->
     <defs>
      <path d="M 9.078125 75.984375 
L 18.109375 75.984375 
L 18.109375 31.109375 
L 44.921875 54.6875 
L 56.390625 54.6875 
L 27.390625 29.109375 
L 57.625 0 
L 45.90625 0 
L 18.109375 26.703125 
L 18.109375 0 
L 9.078125 0 
z
" id="BitstreamVeraSans-Roman-6b"/>
      <path d="M -0.296875 72.90625 
L 61.375 72.90625 
L 61.375 64.59375 
L 35.5 64.59375 
L 35.5 0 
L 25.59375 0 
L 25.59375 64.59375 
L -0.296875 64.59375 
z
" id="BitstreamVeraSans-Roman-54"/>
      <path d="M 54.890625 33.015625 
L 54.890625 0 
L 45.90625 0 
L 45.90625 32.71875 
Q 45.90625 40.484375 42.875 44.328125 
Q 39.84375 48.1875 33.796875 48.1875 
Q 26.515625 48.1875 22.3125 43.546875 
Q 18.109375 38.921875 18.109375 30.90625 
L 18.109375 0 
L 9.078125 0 
L 9.078125 75.984375 
L 18.109375 75.984375 
L 18.109375 46.1875 
Q 21.34375 51.125 25.703125 53.5625 
Q 30.078125 56 35.796875 56 
Q 45.21875 56 50.046875 50.171875 
Q 54.890625 44.34375 54.890625 33.015625 
" id="BitstreamVeraSans-Roman-68"/>
      <path d="M 3.328125 72.90625 
L 13.28125 72.90625 
L 28.609375 11.28125 
L 43.890625 72.90625 
L 54.984375 72.90625 
L 70.3125 11.28125 
L 85.59375 72.90625 
L 95.609375 72.90625 
L 77.296875 0 
L 64.890625 0 
L 49.515625 63.28125 
L 33.984375 0 
L 21.578125 0 
z
" id="BitstreamVeraSans-Roman-57"/>
     </defs>
     <g style="fill:#262626;" transform="translate(239.5625 100.959375)scale(0.25 -0.25)">
      <use xlink:href="#BitstreamVeraSans-Roman-57"/>
      <use x="98.845703125" xlink:href="#BitstreamVeraSans-Roman-69"/>
      <use x="126.62890625" xlink:href="#BitstreamVeraSans-Roman-6c"/>
      <use x="154.412109375" xlink:href="#BitstreamVeraSans-Roman-6b"/>
      <use x="212.322265625" xlink:href="#BitstreamVeraSans-Roman-73"/>
      <use x="264.421875" xlink:href="#BitstreamVeraSans-Roman-20"/>
      <use x="296.208984375" xlink:href="#BitstreamVeraSans-Roman-54"/>
      <use x="357.29296875" xlink:href="#BitstreamVeraSans-Roman-68"/>
      <use x="420.671875" xlink:href="#BitstreamVeraSans-Roman-65"/>
      <use x="482.1953125" xlink:href="#BitstreamVeraSans-Roman-6f"/>
      <use x="543.376953125" xlink:href="#BitstreamVeraSans-Roman-72"/>
      <use x="584.458984375" xlink:href="#BitstreamVeraSans-Roman-65"/>
      <use x="645.982421875" xlink:href="#BitstreamVeraSans-Roman-6d"/>
     </g>
    </g>
    <g id="line2d_65"/>
    <g id="line2d_66">
     <defs>
      <path d="M 0 5 
C 1.326016 5 2.597899 4.473168 3.535534 3.535534 
C 4.473168 2.597899 5 1.326016 5 0 
C 5 -1.326016 4.473168 -2.597899 3.535534 -3.535534 
C 2.597899 -4.473168 1.326016 -5 0 -5 
C -1.326016 -5 -2.597899 -4.473168 -3.535534 -3.535534 
C -4.473168 -2.597899 -5 -1.326016 -5 0 
C -5 1.326016 -4.473168 2.597899 -3.535534 3.535534 
C -2.597899 4.473168 -1.326016 5 0 5 
z
" id="mec781a8be4"/>
     </defs>
     <g>
      <use x="194.5625" xlink:href="#mec781a8be4" y="128.90859375"/>
     </g>
    </g>
    <g id="text_21">
     <!-- (various colors) $\mathrm{Rank}(\rho_{0}) = 2...9$ -->
     <defs>
      <path d="M 2.984375 54.6875 
L 12.5 54.6875 
L 29.59375 8.796875 
L 46.6875 54.6875 
L 56.203125 54.6875 
L 35.6875 0 
L 23.484375 0 
z
" id="BitstreamVeraSans-Roman-76"/>
      <path d="M 4.984375 0 
L 4.984375 2.6875 
Q 4.984375 2.9375 5.171875 3.21875 
L 20.703125 20.40625 
Q 24.21875 24.21875 26.40625 26.796875 
Q 28.609375 29.390625 30.75 32.765625 
Q 32.90625 36.140625 34.15625 39.625 
Q 35.40625 43.109375 35.40625 47.015625 
Q 35.40625 51.125 33.890625 54.859375 
Q 32.375 58.59375 29.375 60.84375 
Q 26.375 63.09375 22.125 63.09375 
Q 17.78125 63.09375 14.3125 60.46875 
Q 10.84375 57.859375 9.421875 53.71875 
Q 9.8125 53.8125 10.5 53.8125 
Q 12.75 53.8125 14.328125 52.296875 
Q 15.921875 50.78125 15.921875 48.390625 
Q 15.921875 46.09375 14.328125 44.5 
Q 12.75 42.921875 10.5 42.921875 
Q 8.15625 42.921875 6.5625 44.546875 
Q 4.984375 46.1875 4.984375 48.390625 
Q 4.984375 52.15625 6.390625 55.4375 
Q 7.8125 58.734375 10.46875 61.296875 
Q 13.140625 63.875 16.484375 65.234375 
Q 19.828125 66.609375 23.578125 66.609375 
Q 29.296875 66.609375 34.21875 64.1875 
Q 39.15625 61.765625 42.03125 57.34375 
Q 44.921875 52.9375 44.921875 47.015625 
Q 44.921875 42.671875 43.015625 38.765625 
Q 41.109375 34.859375 38.125 31.65625 
Q 35.15625 28.46875 30.515625 24.40625 
Q 25.875 20.359375 24.421875 19 
L 13.09375 8.109375 
L 22.703125 8.109375 
Q 29.78125 8.109375 34.546875 8.21875 
Q 39.3125 8.34375 39.59375 8.59375 
Q 40.765625 9.859375 42 17.828125 
L 44.921875 17.828125 
L 42.09375 0 
z
" id="Cmr10-32"/>
      <path d="M 11.28125 4.203125 
Q 14.015625 0.984375 20.796875 0.984375 
Q 24.609375 0.984375 27.90625 3.5625 
Q 31.203125 6.15625 33.015625 9.90625 
Q 35.109375 14.15625 35.6875 18.96875 
Q 36.28125 23.78125 36.28125 30.90625 
Q 34.578125 26.859375 31.375 24.265625 
Q 28.171875 21.6875 24.03125 21.6875 
Q 18.21875 21.6875 13.640625 24.828125 
Q 9.078125 27.984375 6.640625 33.125 
Q 4.203125 38.28125 4.203125 44.09375 
Q 4.203125 50.09375 6.9375 55.296875 
Q 9.671875 60.5 14.5 63.546875 
Q 19.34375 66.609375 25.484375 66.609375 
Q 31.546875 66.609375 35.625 63.3125 
Q 39.703125 60.015625 41.84375 54.8125 
Q 44 49.609375 44.84375 43.796875 
Q 45.703125 37.984375 45.703125 32.328125 
Q 45.703125 24.609375 42.875 16.578125 
Q 40.046875 8.546875 34.40625 3.171875 
Q 28.765625 -2.203125 20.796875 -2.203125 
Q 14.890625 -2.203125 10.78125 0.578125 
Q 6.6875 3.375 6.6875 8.984375 
Q 6.6875 11.03125 8.078125 12.421875 
Q 9.46875 13.8125 11.53125 13.8125 
Q 13.53125 13.8125 14.921875 12.421875 
Q 16.3125 11.03125 16.3125 8.984375 
Q 16.3125 7.03125 14.890625 5.609375 
Q 13.484375 4.203125 11.53125 4.203125 
z
M 24.421875 24.3125 
Q 28.515625 24.3125 31.125 27.0625 
Q 33.734375 29.828125 34.90625 33.921875 
Q 36.078125 38.03125 36.078125 42.09375 
L 36.078125 44 
L 36.078125 44.390625 
Q 36.078125 51.90625 33.875 57.8125 
Q 31.6875 63.71875 25.484375 63.71875 
Q 21.53125 63.71875 19.0625 61.984375 
Q 16.609375 60.25 15.4375 57.375 
Q 14.265625 54.5 13.9375 51.21875 
Q 13.625 47.953125 13.625 44.09375 
Q 13.625 38.421875 14.15625 34.421875 
Q 14.703125 30.421875 17.09375 27.359375 
Q 19.484375 24.3125 24.421875 24.3125 
" id="Cmr10-39"/>
      <path d="M 8.5 21.578125 
L 8.5 54.6875 
L 17.484375 54.6875 
L 17.484375 21.921875 
Q 17.484375 14.15625 20.5 10.265625 
Q 23.53125 6.390625 29.59375 6.390625 
Q 36.859375 6.390625 41.078125 11.03125 
Q 45.3125 15.671875 45.3125 23.6875 
L 45.3125 54.6875 
L 54.296875 54.6875 
L 54.296875 0 
L 45.3125 0 
L 45.3125 8.40625 
Q 42.046875 3.421875 37.71875 1 
Q 33.40625 -1.421875 27.6875 -1.421875 
Q 18.265625 -1.421875 13.375 4.4375 
Q 8.5 10.296875 8.5 21.578125 
" id="BitstreamVeraSans-Roman-75"/>
      <path d="M 8.40625 5.515625 
Q 8.40625 7.765625 10.0625 9.375 
Q 11.71875 10.984375 13.921875 10.984375 
Q 15.28125 10.984375 16.59375 10.25 
Q 17.921875 9.515625 18.65625 8.203125 
Q 19.390625 6.890625 19.390625 5.515625 
Q 19.390625 3.328125 17.765625 1.65625 
Q 16.15625 0 13.921875 0 
Q 11.71875 0 10.0625 1.65625 
Q 8.40625 3.328125 8.40625 5.515625 
" id="Cmmi10-3a"/>
     </defs>
     <g style="fill:#262626;" transform="translate(239.5625 137.65859375)scale(0.25 -0.25)">
      <use transform="translate(0.0 0.015625)" xlink:href="#BitstreamVeraSans-Roman-28"/>
      <use transform="translate(39.013671875 0.015625)" xlink:href="#BitstreamVeraSans-Roman-76"/>
      <use transform="translate(98.193359375 0.015625)" xlink:href="#BitstreamVeraSans-Roman-61"/>
      <use transform="translate(159.47265625 0.015625)" xlink:href="#BitstreamVeraSans-Roman-72"/>
      <use transform="translate(200.5859375 0.015625)" xlink:href="#BitstreamVeraSans-Roman-69"/>
      <use transform="translate(228.369140625 0.015625)" xlink:href="#BitstreamVeraSans-Roman-6f"/>
      <use transform="translate(289.55078125 0.015625)" xlink:href="#BitstreamVeraSans-Roman-75"/>
      <use transform="translate(352.9296875 0.015625)" xlink:href="#BitstreamVeraSans-Roman-73"/>
      <use transform="translate(405.029296875 0.015625)" xlink:href="#BitstreamVeraSans-Roman-20"/>
      <use transform="translate(436.81640625 0.015625)" xlink:href="#BitstreamVeraSans-Roman-63"/>
      <use transform="translate(491.796875 0.015625)" xlink:href="#BitstreamVeraSans-Roman-6f"/>
      <use transform="translate(552.978515625 0.015625)" xlink:href="#BitstreamVeraSans-Roman-6c"/>
      <use transform="translate(580.76171875 0.015625)" xlink:href="#BitstreamVeraSans-Roman-6f"/>
      <use transform="translate(641.943359375 0.015625)" xlink:href="#BitstreamVeraSans-Roman-72"/>
      <use transform="translate(683.056640625 0.015625)" xlink:href="#BitstreamVeraSans-Roman-73"/>
      <use transform="translate(735.15625 0.015625)" xlink:href="#BitstreamVeraSans-Roman-29"/>
      <use transform="translate(774.169921875 0.015625)" xlink:href="#BitstreamVeraSans-Roman-20"/>
      <use transform="translate(805.95703125 0.015625)" xlink:href="#Cmr10-52"/>
      <use transform="translate(879.541015625 0.015625)" xlink:href="#Cmr10-61"/>
      <use transform="translate(929.541015625 0.015625)" xlink:href="#Cmr10-6e"/>
      <use transform="translate(985.05859375 0.015625)" xlink:href="#Cmr10-6b"/>
      <use transform="translate(1037.74414062 0.015625)" xlink:href="#Cmr10-28"/>
      <use transform="translate(1076.5625 0.015625)" xlink:href="#Cmmi10-bd"/>
      <use transform="translate(1128.27148438 -16.990625)scale(0.7)" xlink:href="#Cmr10-30"/>
      <use transform="translate(1169.64882812 0.015625)" xlink:href="#Cmr10-29"/>
      <use transform="translate(1226.02578125 0.015625)" xlink:href="#Cmr10-3d"/>
      <use transform="translate(1321.26992187 0.015625)" xlink:href="#Cmr10-32"/>
      <use transform="translate(1371.26992187 0.015625)" xlink:href="#Cmmi10-3a"/>
      <use transform="translate(1416.5140625 0.015625)" xlink:href="#Cmmi10-3a"/>
      <use transform="translate(1461.75820312 0.015625)" xlink:href="#Cmmi10-3a"/>
      <use transform="translate(1507.00234375 0.015625)" xlink:href="#Cmr10-39"/>
     </g>
    </g>
    <g id="line2d_67"/>
    <g id="line2d_68">
     <g>
      <use style="fill:#f667c6;" x="194.5625" xlink:href="#m43c1c841b4" y="166.6546875"/>
     </g>
    </g>
    <g id="text_22">
     <!-- $\mathrm{Rank}(\rho_{0})=$10 -->
     <g style="fill:#262626;" transform="translate(239.5625 175.4046875)scale(0.25 -0.25)">
      <use xlink:href="#Cmr10-52"/>
      <use transform="translate(73.583984375 0.0)" xlink:href="#Cmr10-61"/>
      <use transform="translate(123.583984375 0.0)" xlink:href="#Cmr10-6e"/>
      <use transform="translate(179.1015625 0.0)" xlink:href="#Cmr10-6b"/>
      <use transform="translate(231.787109375 0.0)" xlink:href="#Cmr10-28"/>
      <use transform="translate(270.60546875 0.0)" xlink:href="#Cmmi10-bd"/>
      <use transform="translate(322.314453125 -17.00625)scale(0.7)" xlink:href="#Cmr10-30"/>
      <use transform="translate(363.691796875 0.0)" xlink:href="#Cmr10-29"/>
      <use transform="translate(420.06875 0.0)" xlink:href="#Cmr10-3d"/>
      <use transform="translate(515.312890625 0.0)" xlink:href="#BitstreamVeraSans-Roman-31"/>
      <use transform="translate(578.9359375 0.0)" xlink:href="#BitstreamVeraSans-Roman-30"/>
     </g>
    </g>
   </g>
  </g>
 </g>
 <defs>
  <clipPath id="pccd91fc289">
   <rect height="360.0" width="720.0" x="147.0625" y="21.7171875"/>
  </clipPath>
 </defs>
</svg>
