<?xml version="1.0" encoding="utf-8" standalone="no"?>
<!DOCTYPE svg PUBLIC "-//W3C//DTD SVG 1.1//EN"
  "http://www.w3.org/Graphics/SVG/1.1/DTD/svg11.dtd">
<!-- Created with matplotlib (http://matplotlib.org/) -->
<svg height="588pt" version="1.1" viewBox="0 0 1107 588" width="1107pt" xmlns="http://www.w3.org/2000/svg" xmlns:xlink="http://www.w3.org/1999/xlink">
 <defs>
  <style type="text/css">
*{stroke-linecap:butt;stroke-linejoin:round;stroke-miterlimit:100000;}
  </style>
 </defs>
 <g id="figure_1">
  <g id="patch_1">
   <path d="M -0 588.475142 
L 1107.031998 588.475142 
L 1107.031998 0 
L -0 0 
z
" style="fill:#ffffff;"/>
  </g>
  <g id="axes_1">
   <g id="patch_2">
    <path d="M 78.298069 511.709078 
L 524.698069 511.709078 
L 524.698069 65.309078 
L 78.298069 65.309078 
z
" style="fill:#eaeaf2;"/>
   </g>
   <g id="matplotlib.axis_1">
    <g id="xtick_1">
     <g id="line2d_1">
      <path clip-path="url(#pbdc862dfa6)" d="M 78.298069 511.709078 
L 78.298069 65.309078 
" style="fill:none;stroke:#ffffff;stroke-linecap:round;"/>
     </g>
     <g id="line2d_2">
      <defs>
       <path d="M 0 0 
L 0 0 
" id="m612376f994" style="stroke:#262626;"/>
      </defs>
      <g>
       <use style="fill:#262626;stroke:#262626;" x="78.2980691304" xlink:href="#m612376f994" y="511.709077653"/>
      </g>
     </g>
     <g id="line2d_3">
      <g>
       <use style="fill:#262626;stroke:#262626;" x="78.2980691304" xlink:href="#m612376f994" y="65.3090776531"/>
      </g>
     </g>
     <g id="text_1">
      <!-- $0$ -->
      <defs>
       <path d="M 42 31.640625 
C 42 37.75 41.90625 48.125 37.703125 56.109375 
C 34 63.109375 28.09375 65.59375 22.90625 65.59375 
C 18.09375 65.59375 12 63.40625 8.203125 56.203125 
C 4.203125 48.71875 3.796875 39.4375 3.796875 31.640625 
C 3.796875 25.953125 3.90625 17.28125 7 9.671875 
C 11.296875 -0.609375 19 -2 22.90625 -2 
C 27.5 -2 34.5 -0.109375 38.59375 9.375 
C 41.59375 16.28125 42 24.359375 42 31.640625 
M 22.90625 -0.40625 
C 16.5 -0.40625 12.703125 5.078125 11.296875 12.6875 
C 10.203125 18.5625 10.203125 27.15625 10.203125 32.75 
C 10.203125 40.4375 10.203125 46.828125 11.5 52.921875 
C 13.40625 61.390625 19 64 22.90625 64 
C 27 64 32.296875 61.296875 34.203125 53.125 
C 35.5 47.4375 35.59375 40.734375 35.59375 32.75 
C 35.59375 26.25 35.59375 18.265625 34.40625 12.375 
C 32.296875 1.484375 26.40625 -0.40625 22.90625 -0.40625 
" id="CMR17-48"/>
      </defs>
      <g style="fill:#262626;" transform="translate(72.5867594908 536.005331204)scale(0.25 -0.25)">
       <use transform="scale(0.996264009963)" xlink:href="#CMR17-48"/>
      </g>
     </g>
    </g>
    <g id="xtick_2">
     <g id="line2d_4">
      <path clip-path="url(#pbdc862dfa6)" d="M 167.578069 511.709078 
L 167.578069 65.309078 
" style="fill:none;stroke:#ffffff;stroke-linecap:round;"/>
     </g>
     <g id="line2d_5">
      <g>
       <use style="fill:#262626;stroke:#262626;" x="167.57806913" xlink:href="#m612376f994" y="511.709077653"/>
      </g>
     </g>
     <g id="line2d_6">
      <g>
       <use style="fill:#262626;stroke:#262626;" x="167.57806913" xlink:href="#m612376f994" y="65.3090776531"/>
      </g>
     </g>
     <g id="text_2">
      <!-- $20$ -->
      <defs>
       <path d="M 41.703125 15.453125 
L 39.90625 15.453125 
C 38.90625 8.375 38.09375 7.171875 37.703125 6.5625 
C 37.203125 5.765625 30 5.765625 28.59375 5.765625 
L 9.40625 5.765625 
C 13 9.671875 20 16.75 28.5 24.953125 
C 34.59375 30.734375 41.703125 37.53125 41.703125 47.421875 
C 41.703125 59.21875 32.296875 66 21.796875 66 
C 10.796875 66 4.09375 56.3125 4.09375 47.34375 
C 4.09375 43.4375 7 42.9375 8.203125 42.9375 
C 9.203125 42.9375 12.203125 43.546875 12.203125 47.03125 
C 12.203125 50.109375 9.59375 51 8.203125 51 
C 7.59375 51 7 50.90625 6.59375 50.703125 
C 8.5 59.21875 14.296875 63.40625 20.40625 63.40625 
C 29.09375 63.40625 34.796875 56.515625 34.796875 47.421875 
C 34.796875 38.734375 29.703125 31.25 24 24.75 
L 4.09375 2.28125 
L 4.09375 0 
L 39.296875 0 
z
" id="CMR17-50"/>
      </defs>
      <g style="fill:#262626;" transform="translate(156.155449851 536.005331204)scale(0.25 -0.25)">
       <use transform="scale(0.996264009963)" xlink:href="#CMR17-50"/>
       <use transform="translate(45.6904771171 0.0)scale(0.996264009963)" xlink:href="#CMR17-48"/>
      </g>
     </g>
    </g>
    <g id="xtick_3">
     <g id="line2d_7">
      <path clip-path="url(#pbdc862dfa6)" d="M 256.858069 511.709078 
L 256.858069 65.309078 
" style="fill:none;stroke:#ffffff;stroke-linecap:round;"/>
     </g>
     <g id="line2d_8">
      <g>
       <use style="fill:#262626;stroke:#262626;" x="256.85806913" xlink:href="#m612376f994" y="511.709077653"/>
      </g>
     </g>
     <g id="line2d_9">
      <g>
       <use style="fill:#262626;stroke:#262626;" x="256.85806913" xlink:href="#m612376f994" y="65.3090776531"/>
      </g>
     </g>
     <g id="text_3">
      <!-- $40$ -->
      <defs>
       <path d="M 33.59375 64.40625 
C 33.59375 66.5 33.5 66.5 31.703125 66.5 
L 2 19.59375 
L 2 17 
L 27.796875 17 
L 27.796875 7.140625 
C 27.796875 3.5 27.59375 2.5 20.59375 2.5 
L 18.703125 2.5 
L 18.703125 0 
C 21.90625 0 27.296875 0 30.703125 0 
C 34.09375 0 39.5 0 42.703125 0 
L 42.703125 2.5 
L 40.796875 2.5 
C 33.796875 2.5 33.59375 3.5 33.59375 7.140625 
L 33.59375 17 
L 43.796875 17 
L 43.796875 19.59375 
L 33.59375 19.59375 
z
M 28.09375 57.859375 
L 28.09375 19.59375 
L 4 19.59375 
z
" id="CMR17-52"/>
      </defs>
      <g style="fill:#262626;" transform="translate(245.435449851 536.005331204)scale(0.25 -0.25)">
       <use transform="scale(0.996264009963)" xlink:href="#CMR17-52"/>
       <use transform="translate(45.6904771171 0.0)scale(0.996264009963)" xlink:href="#CMR17-48"/>
      </g>
     </g>
    </g>
    <g id="xtick_4">
     <g id="line2d_10">
      <path clip-path="url(#pbdc862dfa6)" d="M 346.138069 511.709078 
L 346.138069 65.309078 
" style="fill:none;stroke:#ffffff;stroke-linecap:round;"/>
     </g>
     <g id="line2d_11">
      <g>
       <use style="fill:#262626;stroke:#262626;" x="346.13806913" xlink:href="#m612376f994" y="511.709077653"/>
      </g>
     </g>
     <g id="line2d_12">
      <g>
       <use style="fill:#262626;stroke:#262626;" x="346.13806913" xlink:href="#m612376f994" y="65.3090776531"/>
      </g>
     </g>
     <g id="text_4">
      <!-- $60$ -->
      <defs>
       <path d="M 10.59375 34 
C 10.59375 57.65625 21.796875 63 28.296875 63 
C 30.40625 63 35.5 62.640625 37.5 59 
C 35.90625 59 32.90625 59 32.90625 55.515625 
C 32.90625 52.828125 35.09375 51.921875 36.5 51.921875 
C 37.40625 51.921875 40.09375 52.3125 40.09375 55.625 
C 40.09375 61.78125 35.09375 65.296875 28.203125 65.296875 
C 16.296875 65.296875 3.796875 52.96875 3.796875 31 
C 3.796875 3.953125 15.09375 -2 23.09375 -2 
C 32.796875 -2 42 6.671875 42 20.046875 
C 42 32.515625 33.90625 41.59375 23.703125 41.59375 
C 17.59375 41.59375 13.09375 37.609375 10.59375 30.625 
z
M 23.09375 0.390625 
C 10.796875 0.390625 10.796875 18.75 10.796875 22.4375 
C 10.796875 29.625 14.203125 40 23.5 40 
C 25.203125 40 30.09375 40 33.40625 33.125 
C 35.203125 29.21875 35.203125 25.140625 35.203125 20.140625 
C 35.203125 14.75 35.203125 10.78125 33.09375 6.78125 
C 30.90625 2.671875 27.703125 0.390625 23.09375 0.390625 
" id="CMR17-54"/>
      </defs>
      <g style="fill:#262626;" transform="translate(334.715449851 536.005331204)scale(0.25 -0.25)">
       <use transform="scale(0.996264009963)" xlink:href="#CMR17-54"/>
       <use transform="translate(45.6904771171 0.0)scale(0.996264009963)" xlink:href="#CMR17-48"/>
      </g>
     </g>
    </g>
    <g id="xtick_5">
     <g id="line2d_13">
      <path clip-path="url(#pbdc862dfa6)" d="M 435.418069 511.709078 
L 435.418069 65.309078 
" style="fill:none;stroke:#ffffff;stroke-linecap:round;"/>
     </g>
     <g id="line2d_14">
      <g>
       <use style="fill:#262626;stroke:#262626;" x="435.41806913" xlink:href="#m612376f994" y="511.709077653"/>
      </g>
     </g>
     <g id="line2d_15">
      <g>
       <use style="fill:#262626;stroke:#262626;" x="435.41806913" xlink:href="#m612376f994" y="65.3090776531"/>
      </g>
     </g>
     <g id="text_5">
      <!-- $80$ -->
      <defs>
       <path d="M 27.203125 35.375 
C 33.5 38.546875 39.90625 43.328125 39.90625 50.984375 
C 39.90625 60.015625 31.09375 65.296875 23 65.296875 
C 13.90625 65.296875 5.90625 58.734375 5.90625 49.6875 
C 5.90625 47.203125 6.5 42.921875 10.40625 39.140625 
C 11.40625 38.15625 15.59375 35.171875 18.296875 33.28125 
C 13.796875 30.984375 3.296875 25.53125 3.296875 14.59375 
C 3.296875 4.359375 13.09375 -2 22.796875 -2 
C 33.5 -2 42.5 5.65625 42.5 15.78125 
C 42.5 24.84375 36.40625 29.015625 32.40625 31.703125 
z
M 14.09375 44.09375 
C 13.296875 44.59375 9.296875 47.671875 9.296875 52.359375 
C 9.296875 58.421875 15.59375 63 22.796875 63 
C 30.703125 63 36.5 57.4375 36.5 50.96875 
C 36.5 41.703125 26.09375 36.421875 25.59375 36.421875 
C 25.5 36.421875 25.40625 36.421875 24.59375 37.03125 
z
M 32.5 23.734375 
C 34 22.640625 38.796875 19.375 38.796875 13.296875 
C 38.796875 5.953125 31.40625 0.390625 23 0.390625 
C 13.90625 0.390625 7 6.84375 7 14.6875 
C 7 22.546875 13.09375 29.09375 20 32.1875 
z
" id="CMR17-56"/>
      </defs>
      <g style="fill:#262626;" transform="translate(423.995449851 536.005331204)scale(0.25 -0.25)">
       <use transform="scale(0.996264009963)" xlink:href="#CMR17-56"/>
       <use transform="translate(45.6904771171 0.0)scale(0.996264009963)" xlink:href="#CMR17-48"/>
      </g>
     </g>
    </g>
    <g id="xtick_6">
     <g id="line2d_16">
      <path clip-path="url(#pbdc862dfa6)" d="M 524.698069 511.709078 
L 524.698069 65.309078 
" style="fill:none;stroke:#ffffff;stroke-linecap:round;"/>
     </g>
     <g id="line2d_17">
      <g>
       <use style="fill:#262626;stroke:#262626;" x="524.69806913" xlink:href="#m612376f994" y="511.709077653"/>
      </g>
     </g>
     <g id="line2d_18">
      <g>
       <use style="fill:#262626;stroke:#262626;" x="524.69806913" xlink:href="#m612376f994" y="65.3090776531"/>
      </g>
     </g>
     <g id="text_6">
      <!-- $100$ -->
      <defs>
       <path d="M 26.59375 63.40625 
C 26.59375 65.5 26.5 65.5 25.09375 65.5 
C 21.203125 61.1875 15.296875 59.796875 9.703125 59.796875 
C 9.40625 59.796875 8.90625 59.796875 8.796875 59.5 
C 8.703125 59.296875 8.703125 59.09375 8.703125 57 
C 11.796875 57 17 57.59375 21 59.984375 
L 21 7.203125 
C 21 3.6875 20.796875 2.5 12.203125 2.5 
L 9.203125 2.5 
L 9.203125 0 
C 14 0 19 0 23.796875 0 
C 28.59375 0 33.59375 0 38.40625 0 
L 38.40625 2.5 
L 35.40625 2.5 
C 26.796875 2.5 26.59375 3.59375 26.59375 7.15625 
z
" id="CMR17-49"/>
      </defs>
      <g style="fill:#262626;" transform="translate(507.564140212 536.005331204)scale(0.25 -0.25)">
       <use transform="scale(0.996264009963)" xlink:href="#CMR17-49"/>
       <use transform="translate(45.6904771171 0.0)scale(0.996264009963)" xlink:href="#CMR17-48"/>
       <use transform="translate(91.3809542341 0.0)scale(0.996264009963)" xlink:href="#CMR17-48"/>
      </g>
     </g>
    </g>
    <g id="text_7">
     <!-- Index $j$ -->
     <defs>
      <path d="M 35 31.6875 
C 35.40625 33.296875 35.40625 34.671875 35.40625 35.078125 
C 35.40625 40.828125 31.09375 44 26.59375 44 
C 16.5 44 11.09375 29.515625 11.09375 28.828125 
C 11.09375 28.328125 11.5 27.9375 12.09375 27.9375 
C 12.90625 27.9375 13 28.328125 13.5 29.3125 
C 17.5 38.9375 22.5 42.015625 26.296875 42.015625 
C 28.40625 42.015625 29.5 40.90625 29.5 37.453125 
C 29.5 35.078125 29.203125 34.078125 28.796875 32.296875 
L 19.296875 -5.109375 
C 17.40625 -12.4375 12.703125 -18 7.203125 -18 
C 6.796875 -18 4.703125 -18 2.796875 -17 
C 5.203125 -16.5 7.09375 -14.625 7.09375 -12.25 
C 7.09375 -10.65625 5.90625 -9.0625 3.703125 -9.0625 
C 1.09375 -9.0625 -1.296875 -11.25 -1.296875 -14.234375 
C -1.296875 -18.296875 3.09375 -20 7.203125 -20 
C 14.09375 -20 23.203125 -14.9375 25.703125 -5 
z
M 39.09375 62.703125 
C 39.09375 65.203125 37 66 35.796875 66 
C 33.09375 66 30.796875 63.40625 30.796875 61.203125 
C 30.796875 59.71875 32 57.921875 34.203125 57.921875 
C 36.5 57.921875 39.09375 60.109375 39.09375 62.703125 
" id="CMMI12-106"/>
      <path d="M 26 23.078125 
C 29 26.96875 32.40625 31.34375 35.203125 34.625 
C 38.5 38.40625 42.296875 40 46.703125 40 
L 46.703125 42.59375 
C 45 42.59375 41.5 42.59375 39.703125 42.59375 
C 37 42.59375 33.90625 42.59375 31.59375 42.6875 
L 31.59375 40.09375 
C 33 39.890625 33.796875 38.890625 33.796875 37.5 
C 33.796875 35.703125 32.796875 34.609375 32.296875 33.921875 
L 24.90625 24.578125 
L 16.09375 36.03125 
C 15.203125 37.125 15.203125 37.3125 15.203125 37.8125 
C 15.203125 39.015625 16.203125 40 17.90625 40 
L 17.90625 42.6875 
C 15.5 42.59375 11.203125 42.59375 8.703125 42.59375 
C 6 42.59375 2.796875 42.59375 0.59375 42.6875 
L 0.59375 40 
C 6 40 7.203125 39.59375 9.59375 36.609375 
L 21.09375 21.796875 
C 21.296875 21.59375 21.796875 21 21.796875 20.703125 
C 21.796875 20.296875 13.09375 9.671875 12 8.28125 
C 7.5 2.890625 2.796875 2.5 0.09375 2.5 
L 0.09375 0 
C 1.796875 0 5.296875 0 7.09375 0 
C 9.09375 0 13.5 0 15.296875 -0.09375 
L 15.296875 2.5 
C 14.703125 2.59375 13.09375 2.796875 13.09375 5.078125 
C 13.09375 6.875 13.90625 7.96875 14.796875 9.15625 
L 23.09375 19.3125 
L 31.796875 8 
C 32.59375 6.90625 33.796875 5.40625 33.796875 4.703125 
C 33.796875 3.296875 32.59375 2.5 31 2.5 
L 31 -0.09375 
C 33.40625 0 37.703125 0 40.203125 0 
C 42.90625 0 46.09375 0 48.296875 -0.09375 
L 48.296875 2.5 
C 43.296875 2.5 41.796875 2.6875 39.40625 5.78125 
z
" id="CMR17-120"/>
      <path d="M 38.09375 23 
C 38.5 23.40625 38.5 23.609375 38.5 24.625 
C 38.5 34.96875 33.09375 44 21.703125 44 
C 11.09375 44 2.703125 33.890625 2.703125 21.609375 
C 2.703125 8.609375 12.203125 -1 22.796875 -1 
C 34 -1 38.40625 9.484375 38.40625 11.5625 
C 38.40625 12.25 37.796875 12.25 37.59375 12.25 
C 36.90625 12.25 36.796875 12.046875 36.40625 10.875 
C 34.203125 4.140625 28.703125 0.796875 23.5 0.796875 
C 19.203125 0.796875 14.90625 3.171875 12.203125 7.5 
C 9.09375 12.546875 9.09375 18.375 9.09375 23 
z
M 9.203125 24.5 
C 9.90625 39.140625 17.59375 42.40625 21.59375 42.40625 
C 28.40625 42.40625 33 35.890625 33.09375 24.5 
z
" id="CMR17-101"/>
      <path d="M 19.703125 61.015625 
C 19.703125 65.5 20.90625 65.5 28.09375 65.5 
L 28.09375 68 
C 24.90625 68 19.796875 68 16.40625 68 
C 13 68 7.90625 68 4.703125 68 
L 4.703125 65.5 
C 11.90625 65.5 13.09375 65.5 13.09375 61.015625 
L 13.09375 6.984375 
C 13.09375 2.5 11.90625 2.5 4.703125 2.5 
L 4.703125 0 
C 7.90625 0 13 0 16.40625 0 
C 19.796875 0 24.90625 0 28.09375 0 
L 28.09375 2.5 
C 20.90625 2.5 19.703125 2.5 19.703125 6.984375 
z
" id="CMR17-73"/>
      <path d="M 41.5 30.203125 
C 41.5 35.296875 40.5 43.59375 28.703125 43.59375 
C 20.796875 43.59375 16.703125 37.5 15.203125 33.5 
L 15.09375 33.5 
L 15.09375 43.59375 
L 3.296875 42.5 
L 3.296875 39.90625 
C 9.203125 39.90625 10.09375 39.296875 10.09375 34.5 
L 10.09375 6.6875 
C 10.09375 2.875 9.703125 2.390625 3.296875 2.390625 
L 3.296875 -0.203125 
C 5.703125 0 10.09375 0 12.703125 0 
C 15.296875 0 19.796875 0 22.203125 -0.203125 
L 22.203125 2.390625 
C 15.796875 2.390625 15.40625 2.78125 15.40625 6.6875 
L 15.40625 25.90625 
C 15.40625 35.109375 21 42 28 42 
C 35.40625 42 36.203125 35.40625 36.203125 30.59375 
L 36.203125 6.6875 
C 36.203125 2.875 35.796875 2.390625 29.40625 2.390625 
L 29.40625 -0.203125 
C 31.796875 0 36.203125 0 38.796875 0 
C 41.40625 0 45.90625 0 48.296875 -0.203125 
L 48.296875 2.390625 
C 41.90625 2.390625 41.5 2.78125 41.5 6.6875 
z
" id="CMR17-110"/>
      <path d="M 29.203125 67.59375 
L 29.203125 65 
C 35.09375 65 36 64.40625 36 59.6875 
L 36 36.640625 
C 35.59375 37.140625 31.5 43.59375 23.40625 43.59375 
C 13.203125 43.59375 3.296875 34.5 3.296875 21.3125 
C 3.296875 8.203125 12.59375 -1 22.40625 -1 
C 30.90625 -1 35.296875 5.265625 35.796875 5.9375 
L 35.796875 -0.984375 
L 47.90625 -0.984375 
L 47.90625 2 
C 42 2 41.09375 2.59375 41.09375 7.390625 
L 41.09375 68.6875 
z
M 35.796875 11.796875 
C 35.796875 8.796875 34 6.09375 31.703125 4.09375 
C 28.296875 1.09375 24.90625 0.59375 23 0.59375 
C 20.09375 0.59375 9.703125 2.09375 9.703125 21.1875 
C 9.703125 40.8125 21.296875 42 23.90625 42 
C 28.5 42 32.203125 39.40625 34.5 35.796875 
C 35.796875 33.703125 35.796875 33.40625 35.796875 31.609375 
z
" id="CMR17-100"/>
     </defs>
     <g style="fill:#262626;" transform="translate(242.769790957 573.523874338)scale(0.4 -0.4)">
      <use transform="scale(0.996264009963)" xlink:href="#CMR17-73"/>
      <use transform="translate(32.6384091882 0.0)scale(0.996264009963)" xlink:href="#CMR17-110"/>
      <use transform="translate(83.5337789685 0.0)scale(0.996264009963)" xlink:href="#CMR17-100"/>
      <use transform="translate(134.429148749 0.0)scale(0.996264009963)" xlink:href="#CMR17-101"/>
      <use transform="translate(174.914809212 0.0)scale(0.996264009963)" xlink:href="#CMR17-120"/>
      <use transform="translate(253.283691406 0.0)scale(0.996264009963)" xlink:href="#CMMI12-106"/>
     </g>
    </g>
   </g>
   <g id="matplotlib.axis_2">
    <g id="ytick_1">
     <g id="line2d_19">
      <path clip-path="url(#pbdc862dfa6)" d="M 78.298069 511.709078 
L 524.698069 511.709078 
" style="fill:none;stroke:#ffffff;stroke-linecap:round;"/>
     </g>
     <g id="line2d_20">
      <g>
       <use style="fill:#262626;stroke:#262626;" x="78.2980691304" xlink:href="#m612376f994" y="511.709077653"/>
      </g>
     </g>
     <g id="line2d_21">
      <g>
       <use style="fill:#262626;stroke:#262626;" x="524.69806913" xlink:href="#m612376f994" y="511.709077653"/>
      </g>
     </g>
     <g id="text_8">
      <!-- $-20$ -->
      <defs>
       <path d="M 65.90625 23 
C 67.59375 23 69.40625 23 69.40625 25 
C 69.40625 27 67.59375 27 65.90625 27 
L 11.796875 27 
C 10.09375 27 8.296875 27 8.296875 25 
C 8.296875 23 10.09375 23 11.796875 23 
z
" id="CMSY10-0"/>
      </defs>
      <g style="fill:#262626;" transform="translate(29.0809712601 517.934937223)scale(0.25 -0.25)">
       <use transform="scale(0.996264009963)" xlink:href="#CMSY10-0"/>
       <use transform="translate(77.4874676506 0.0)scale(0.996264009963)" xlink:href="#CMR17-50"/>
       <use transform="translate(123.177944768 0.0)scale(0.996264009963)" xlink:href="#CMR17-48"/>
      </g>
     </g>
    </g>
    <g id="ytick_2">
     <g id="line2d_22">
      <path clip-path="url(#pbdc862dfa6)" d="M 78.298069 455.909078 
L 524.698069 455.909078 
" style="fill:none;stroke:#ffffff;stroke-linecap:round;"/>
     </g>
     <g id="line2d_23">
      <g>
       <use style="fill:#262626;stroke:#262626;" x="78.2980691304" xlink:href="#m612376f994" y="455.909077653"/>
      </g>
     </g>
     <g id="line2d_24">
      <g>
       <use style="fill:#262626;stroke:#262626;" x="524.69806913" xlink:href="#m612376f994" y="455.909077653"/>
      </g>
     </g>
     <g id="text_9">
      <!-- $-15$ -->
      <defs>
       <path d="M 11.40625 57.6875 
C 12.40625 57.28125 16.5 56 20.703125 56 
C 30 56 35.09375 61.109375 38 64.0625 
C 38 64.953125 38 65.5 37.40625 65.5 
C 37.296875 65.5 37.09375 65.5 36.296875 65.046875 
C 32.796875 63.40625 28.703125 62.078125 23.703125 62.078125 
C 20.703125 62.078125 16.203125 62.484375 11.296875 64.671875 
C 10.203125 65.171875 10 65.171875 9.90625 65.171875 
C 9.40625 65.171875 9.296875 65.0625 9.296875 63.078125 
L 9.296875 34.421875 
C 9.296875 32.640625 9.296875 32.140625 10.296875 32.140625 
C 10.796875 32.140625 11 32.34375 11.5 33.03125 
C 14.703125 37.515625 19.09375 39.40625 24.09375 39.40625 
C 27.59375 39.40625 35.09375 37.21875 35.09375 20.140625 
C 35.09375 16.953125 35.09375 11.171875 32.09375 6.578125 
C 29.59375 2.484375 25.703125 0.390625 21.40625 0.390625 
C 14.796875 0.390625 8.09375 5 6.296875 12.71875 
C 6.703125 12.609375 7.5 12.421875 7.90625 12.421875 
C 9.203125 12.421875 11.703125 13.125 11.703125 16.21875 
C 11.703125 18.90625 9.796875 20 7.90625 20 
C 5.59375 20 4.09375 18.59375 4.09375 15.796875 
C 4.09375 7.09375 11 -2 21.59375 -2 
C 31.90625 -2 41.703125 6.875 41.703125 19.75 
C 41.703125 31.71875 33.90625 41 24.203125 41 
C 19.09375 41 14.796875 39.109375 11.40625 35.53125 
z
" id="CMR17-53"/>
      </defs>
      <g style="fill:#262626;" transform="translate(29.0809712601 462.134937223)scale(0.25 -0.25)">
       <use transform="scale(0.996264009963)" xlink:href="#CMSY10-0"/>
       <use transform="translate(77.4874676506 0.0)scale(0.996264009963)" xlink:href="#CMR17-49"/>
       <use transform="translate(123.177944768 0.0)scale(0.996264009963)" xlink:href="#CMR17-53"/>
      </g>
     </g>
    </g>
    <g id="ytick_3">
     <g id="line2d_25">
      <path clip-path="url(#pbdc862dfa6)" d="M 78.298069 400.109078 
L 524.698069 400.109078 
" style="fill:none;stroke:#ffffff;stroke-linecap:round;"/>
     </g>
     <g id="line2d_26">
      <g>
       <use style="fill:#262626;stroke:#262626;" x="78.2980691304" xlink:href="#m612376f994" y="400.109077653"/>
      </g>
     </g>
     <g id="line2d_27">
      <g>
       <use style="fill:#262626;stroke:#262626;" x="524.69806913" xlink:href="#m612376f994" y="400.109077653"/>
      </g>
     </g>
     <g id="text_10">
      <!-- $-10$ -->
      <g style="fill:#262626;" transform="translate(29.0809712601 406.334937223)scale(0.25 -0.25)">
       <use transform="scale(0.996264009963)" xlink:href="#CMSY10-0"/>
       <use transform="translate(77.4874676506 0.0)scale(0.996264009963)" xlink:href="#CMR17-49"/>
       <use transform="translate(123.177944768 0.0)scale(0.996264009963)" xlink:href="#CMR17-48"/>
      </g>
     </g>
    </g>
    <g id="ytick_4">
     <g id="line2d_28">
      <path clip-path="url(#pbdc862dfa6)" d="M 78.298069 344.309078 
L 524.698069 344.309078 
" style="fill:none;stroke:#ffffff;stroke-linecap:round;"/>
     </g>
     <g id="line2d_29">
      <g>
       <use style="fill:#262626;stroke:#262626;" x="78.2980691304" xlink:href="#m612376f994" y="344.309077653"/>
      </g>
     </g>
     <g id="line2d_30">
      <g>
       <use style="fill:#262626;stroke:#262626;" x="524.69806913" xlink:href="#m612376f994" y="344.309077653"/>
      </g>
     </g>
     <g id="text_11">
      <!-- $-5$ -->
      <g style="fill:#262626;" transform="translate(40.5035905394 350.534937223)scale(0.25 -0.25)">
       <use transform="scale(0.996264009963)" xlink:href="#CMSY10-0"/>
       <use transform="translate(77.4874676506 0.0)scale(0.996264009963)" xlink:href="#CMR17-53"/>
      </g>
     </g>
    </g>
    <g id="ytick_5">
     <g id="line2d_31">
      <path clip-path="url(#pbdc862dfa6)" d="M 78.298069 288.509078 
L 524.698069 288.509078 
" style="fill:none;stroke:#ffffff;stroke-linecap:round;"/>
     </g>
     <g id="line2d_32">
      <g>
       <use style="fill:#262626;stroke:#262626;" x="78.2980691304" xlink:href="#m612376f994" y="288.509077653"/>
      </g>
     </g>
     <g id="line2d_33">
      <g>
       <use style="fill:#262626;stroke:#262626;" x="524.69806913" xlink:href="#m612376f994" y="288.509077653"/>
      </g>
     </g>
     <g id="text_12">
      <!-- $0$ -->
      <g style="fill:#262626;" transform="translate(59.8754498511 294.734937223)scale(0.25 -0.25)">
       <use transform="scale(0.996264009963)" xlink:href="#CMR17-48"/>
      </g>
     </g>
    </g>
    <g id="ytick_6">
     <g id="line2d_34">
      <path clip-path="url(#pbdc862dfa6)" d="M 78.298069 232.709078 
L 524.698069 232.709078 
" style="fill:none;stroke:#ffffff;stroke-linecap:round;"/>
     </g>
     <g id="line2d_35">
      <g>
       <use style="fill:#262626;stroke:#262626;" x="78.2980691304" xlink:href="#m612376f994" y="232.709077653"/>
      </g>
     </g>
     <g id="line2d_36">
      <g>
       <use style="fill:#262626;stroke:#262626;" x="524.69806913" xlink:href="#m612376f994" y="232.709077653"/>
      </g>
     </g>
     <g id="text_13">
      <!-- $5$ -->
      <g style="fill:#262626;" transform="translate(59.8754498511 238.934937223)scale(0.25 -0.25)">
       <use transform="scale(0.996264009963)" xlink:href="#CMR17-53"/>
      </g>
     </g>
    </g>
    <g id="ytick_7">
     <g id="line2d_37">
      <path clip-path="url(#pbdc862dfa6)" d="M 78.298069 176.909078 
L 524.698069 176.909078 
" style="fill:none;stroke:#ffffff;stroke-linecap:round;"/>
     </g>
     <g id="line2d_38">
      <g>
       <use style="fill:#262626;stroke:#262626;" x="78.2980691304" xlink:href="#m612376f994" y="176.909077653"/>
      </g>
     </g>
     <g id="line2d_39">
      <g>
       <use style="fill:#262626;stroke:#262626;" x="524.69806913" xlink:href="#m612376f994" y="176.909077653"/>
      </g>
     </g>
     <g id="text_14">
      <!-- $10$ -->
      <g style="fill:#262626;" transform="translate(48.4528305719 183.134937223)scale(0.25 -0.25)">
       <use transform="scale(0.996264009963)" xlink:href="#CMR17-49"/>
       <use transform="translate(45.6904771171 0.0)scale(0.996264009963)" xlink:href="#CMR17-48"/>
      </g>
     </g>
    </g>
    <g id="ytick_8">
     <g id="line2d_40">
      <path clip-path="url(#pbdc862dfa6)" d="M 78.298069 121.109078 
L 524.698069 121.109078 
" style="fill:none;stroke:#ffffff;stroke-linecap:round;"/>
     </g>
     <g id="line2d_41">
      <g>
       <use style="fill:#262626;stroke:#262626;" x="78.2980691304" xlink:href="#m612376f994" y="121.109077653"/>
      </g>
     </g>
     <g id="line2d_42">
      <g>
       <use style="fill:#262626;stroke:#262626;" x="524.69806913" xlink:href="#m612376f994" y="121.109077653"/>
      </g>
     </g>
     <g id="text_15">
      <!-- $15$ -->
      <g style="fill:#262626;" transform="translate(48.4528305719 127.334937223)scale(0.25 -0.25)">
       <use transform="scale(0.996264009963)" xlink:href="#CMR17-49"/>
       <use transform="translate(45.6904771171 0.0)scale(0.996264009963)" xlink:href="#CMR17-53"/>
      </g>
     </g>
    </g>
    <g id="ytick_9">
     <g id="line2d_43">
      <path clip-path="url(#pbdc862dfa6)" d="M 78.298069 65.309078 
L 524.698069 65.309078 
" style="fill:none;stroke:#ffffff;stroke-linecap:round;"/>
     </g>
     <g id="line2d_44">
      <g>
       <use style="fill:#262626;stroke:#262626;" x="78.2980691304" xlink:href="#m612376f994" y="65.3090776531"/>
      </g>
     </g>
     <g id="line2d_45">
      <g>
       <use style="fill:#262626;stroke:#262626;" x="524.69806913" xlink:href="#m612376f994" y="65.3090776531"/>
      </g>
     </g>
     <g id="text_16">
      <!-- $20$ -->
      <g style="fill:#262626;" transform="translate(48.4528305719 71.5349372227)scale(0.25 -0.25)">
       <use transform="scale(0.996264009963)" xlink:href="#CMR17-50"/>
       <use transform="translate(45.6904771171 0.0)scale(0.996264009963)" xlink:href="#CMR17-48"/>
      </g>
     </g>
    </g>
    <g id="text_17">
     <!-- $\kappa_{j}$ -->
     <defs>
      <path d="M 21.296875 25 
C 24.59375 26.78125 28.296875 29.875 30.796875 31.96875 
C 36.796875 37.140625 39 38.734375 42.796875 40.21875 
C 42.40625 39.625 42.296875 38.828125 42.296875 38.140625 
C 42.296875 35.4375 44.59375 34.9375 45.59375 34.9375 
C 48.796875 34.9375 50.59375 37.921875 50.59375 39.8125 
C 50.59375 40.40625 50.40625 43 46.90625 43 
C 40.90625 43 35 37.984375 30.59375 34.34375 
C 24.796875 29.3125 21.90625 27.15625 17.796875 25.875 
L 21.59375 41.5 
C 21.59375 43.109375 20.296875 44 19 44 
C 18.09375 44 15.90625 43.703125 15.09375 40.5 
L 5.796875 3.5 
C 5.5 2.3125 5.5 2.09375 5.5 1.5 
C 5.5 0.09375 6.59375 -1 8.09375 -1 
C 11.09375 -1 11.703125 1.65625 12.203125 3.8125 
C 12.796875 5.9375 16.90625 23 17.09375 23 
C 29.796875 23 34.09375 19.75 34.09375 14.734375 
C 34.09375 14.015625 34.09375 13.71875 33.796875 12.59375 
C 33.40625 10.65625 33.40625 9.515625 33.40625 8.90625 
C 33.40625 2.78125 37.296875 -1 42.203125 -1 
C 46.296875 -1 48.59375 1.921875 50.09375 4.546875 
C 52.203125 8.484375 53.5 14.03125 53.5 14.421875 
C 53.5 14.9375 53.09375 15.328125 52.5 15.328125 
C 51.59375 15.328125 51.5 14.9375 51.09375 13.3125 
C 49.796875 8.46875 47.59375 1 42.5 1 
C 40.296875 1 39.203125 2.3125 39.203125 5.84375 
C 39.203125 7.78125 39.59375 10.015625 40 11.515625 
C 40.203125 12.546875 40.5 13.75 40.5 14.859375 
C 40.5 24.078125 27.90625 25 21.296875 25 
" id="CMMI12-20"/>
     </defs>
     <g style="fill:#262626;" transform="translate(7.2 280.757810433)scale(0.4 -0.4)">
      <use transform="translate(0.0 14.9439145441)scale(0.996264009963)" xlink:href="#CMMI12-20"/>
      <use transform="translate(56.1546240174 0.0)scale(0.697381766617)" xlink:href="#CMMI12-106"/>
     </g>
    </g>
   </g>
   <g id="line2d_46">
    <defs>
     <path d="M 0 3.5 
C 0.928211 3.5 1.81853 3.131218 2.474874 2.474874 
C 3.131218 1.81853 3.5 0.928211 3.5 0 
C 3.5 -0.928211 3.131218 -1.81853 2.474874 -2.474874 
C 1.81853 -3.131218 0.928211 -3.5 0 -3.5 
C -0.928211 -3.5 -1.81853 -3.131218 -2.474874 -2.474874 
C -3.131218 -1.81853 -3.5 -0.928211 -3.5 0 
C -3.5 0.928211 -3.131218 1.81853 -2.474874 2.474874 
C -1.81853 3.131218 -0.928211 3.5 0 3.5 
z
" id="mb8410964a8"/>
    </defs>
    <g>
     <use style="fill:#0000ff;" x="78.2980691304" xlink:href="#mb8410964a8" y="75.0996372169"/>
     <use style="fill:#0000ff;" x="82.7620691304" xlink:href="#mb8410964a8" y="84.9237073672"/>
     <use style="fill:#0000ff;" x="87.2260691304" xlink:href="#mb8410964a8" y="88.1515688123"/>
     <use style="fill:#0000ff;" x="91.6900691304" xlink:href="#mb8410964a8" y="98.2527964762"/>
     <use style="fill:#0000ff;" x="96.1540691304" xlink:href="#mb8410964a8" y="106.691538112"/>
     <use style="fill:#0000ff;" x="100.61806913" xlink:href="#mb8410964a8" y="112.364436705"/>
     <use style="fill:#0000ff;" x="105.08206913" xlink:href="#mb8410964a8" y="115.567731969"/>
     <use style="fill:#0000ff;" x="109.54606913" xlink:href="#mb8410964a8" y="121.296446345"/>
     <use style="fill:#0000ff;" x="114.01006913" xlink:href="#mb8410964a8" y="124.858777932"/>
     <use style="fill:#0000ff;" x="118.47406913" xlink:href="#mb8410964a8" y="132.238987004"/>
     <use style="fill:#0000ff;" x="122.93806913" xlink:href="#mb8410964a8" y="136.642056129"/>
     <use style="fill:#0000ff;" x="127.40206913" xlink:href="#mb8410964a8" y="141.635117262"/>
     <use style="fill:#0000ff;" x="131.86606913" xlink:href="#mb8410964a8" y="146.742676318"/>
     <use style="fill:#0000ff;" x="136.33006913" xlink:href="#mb8410964a8" y="153.702295739"/>
     <use style="fill:#0000ff;" x="140.79406913" xlink:href="#mb8410964a8" y="157.352628739"/>
     <use style="fill:#0000ff;" x="145.25806913" xlink:href="#mb8410964a8" y="160.600660158"/>
     <use style="fill:#0000ff;" x="149.72206913" xlink:href="#mb8410964a8" y="164.328985501"/>
     <use style="fill:#0000ff;" x="154.18606913" xlink:href="#mb8410964a8" y="167.431484205"/>
     <use style="fill:#0000ff;" x="158.65006913" xlink:href="#mb8410964a8" y="173.345799933"/>
     <use style="fill:#0000ff;" x="163.11406913" xlink:href="#mb8410964a8" y="176.152283144"/>
     <use style="fill:#0000ff;" x="167.57806913" xlink:href="#mb8410964a8" y="182.89329278"/>
     <use style="fill:#0000ff;" x="172.04206913" xlink:href="#mb8410964a8" y="184.552510737"/>
     <use style="fill:#0000ff;" x="176.50606913" xlink:href="#mb8410964a8" y="187.821309594"/>
     <use style="fill:#0000ff;" x="180.97006913" xlink:href="#mb8410964a8" y="192.340514842"/>
     <use style="fill:#0000ff;" x="185.43406913" xlink:href="#mb8410964a8" y="193.947855582"/>
     <use style="fill:#0000ff;" x="189.89806913" xlink:href="#mb8410964a8" y="198.741781555"/>
     <use style="fill:#0000ff;" x="194.36206913" xlink:href="#mb8410964a8" y="201.327644512"/>
     <use style="fill:#0000ff;" x="198.82606913" xlink:href="#mb8410964a8" y="203.915658847"/>
     <use style="fill:#0000ff;" x="203.29006913" xlink:href="#mb8410964a8" y="210.672542856"/>
     <use style="fill:#0000ff;" x="207.75406913" xlink:href="#mb8410964a8" y="214.919579194"/>
     <use style="fill:#0000ff;" x="212.21806913" xlink:href="#mb8410964a8" y="222.016441578"/>
     <use style="fill:#0000ff;" x="216.68206913" xlink:href="#mb8410964a8" y="223.903635761"/>
     <use style="fill:#0000ff;" x="221.14606913" xlink:href="#mb8410964a8" y="227.701728612"/>
     <use style="fill:#0000ff;" x="225.61006913" xlink:href="#mb8410964a8" y="230.939243568"/>
     <use style="fill:#0000ff;" x="230.07406913" xlink:href="#mb8410964a8" y="233.633123193"/>
     <use style="fill:#0000ff;" x="234.53806913" xlink:href="#mb8410964a8" y="236.443621834"/>
     <use style="fill:#0000ff;" x="239.00206913" xlink:href="#mb8410964a8" y="238.630749844"/>
     <use style="fill:#0000ff;" x="243.46606913" xlink:href="#mb8410964a8" y="242.255552246"/>
     <use style="fill:#0000ff;" x="247.93006913" xlink:href="#mb8410964a8" y="245.927547925"/>
     <use style="fill:#0000ff;" x="252.39406913" xlink:href="#mb8410964a8" y="251.215342021"/>
     <use style="fill:#0000ff;" x="256.85806913" xlink:href="#mb8410964a8" y="251.987878859"/>
     <use style="fill:#0000ff;" x="261.32206913" xlink:href="#mb8410964a8" y="257.650033008"/>
     <use style="fill:#0000ff;" x="265.78606913" xlink:href="#mb8410964a8" y="261.1202441"/>
     <use style="fill:#0000ff;" x="270.25006913" xlink:href="#mb8410964a8" y="266.016030581"/>
     <use style="fill:#0000ff;" x="274.71406913" xlink:href="#mb8410964a8" y="267.902981066"/>
     <use style="fill:#0000ff;" x="279.17806913" xlink:href="#mb8410964a8" y="271.581536623"/>
     <use style="fill:#0000ff;" x="283.64206913" xlink:href="#mb8410964a8" y="274.847079124"/>
     <use style="fill:#0000ff;" x="288.10606913" xlink:href="#mb8410964a8" y="277.861791605"/>
     <use style="fill:#0000ff;" x="292.57006913" xlink:href="#mb8410964a8" y="282.542190196"/>
     <use style="fill:#0000ff;" x="297.03406913" xlink:href="#mb8410964a8" y="285.886632371"/>
     <use style="fill:#0000ff;" x="301.49806913" xlink:href="#mb8410964a8" y="288.493232033"/>
     <use style="fill:#0000ff;" x="305.96206913" xlink:href="#mb8410964a8" y="290.723042683"/>
     <use style="fill:#0000ff;" x="310.42606913" xlink:href="#mb8410964a8" y="297.868249679"/>
     <use style="fill:#0000ff;" x="314.89006913" xlink:href="#mb8410964a8" y="298.804366825"/>
     <use style="fill:#0000ff;" x="319.35406913" xlink:href="#mb8410964a8" y="302.067419558"/>
     <use style="fill:#0000ff;" x="323.81806913" xlink:href="#mb8410964a8" y="305.757767393"/>
     <use style="fill:#0000ff;" x="328.28206913" xlink:href="#mb8410964a8" y="309.615148795"/>
     <use style="fill:#0000ff;" x="332.74606913" xlink:href="#mb8410964a8" y="314.602811058"/>
     <use style="fill:#0000ff;" x="337.21006913" xlink:href="#mb8410964a8" y="318.045297418"/>
     <use style="fill:#0000ff;" x="341.67406913" xlink:href="#mb8410964a8" y="319.984161085"/>
     <use style="fill:#0000ff;" x="346.13806913" xlink:href="#mb8410964a8" y="324.134352511"/>
     <use style="fill:#0000ff;" x="350.60206913" xlink:href="#mb8410964a8" y="325.158076136"/>
     <use style="fill:#0000ff;" x="355.06606913" xlink:href="#mb8410964a8" y="331.947843352"/>
     <use style="fill:#0000ff;" x="359.53006913" xlink:href="#mb8410964a8" y="334.274613351"/>
     <use style="fill:#0000ff;" x="363.99406913" xlink:href="#mb8410964a8" y="337.257002299"/>
     <use style="fill:#0000ff;" x="368.45806913" xlink:href="#mb8410964a8" y="341.313499339"/>
     <use style="fill:#0000ff;" x="372.92206913" xlink:href="#mb8410964a8" y="344.83900215"/>
     <use style="fill:#0000ff;" x="377.38606913" xlink:href="#mb8410964a8" y="347.931227962"/>
     <use style="fill:#0000ff;" x="381.85006913" xlink:href="#mb8410964a8" y="353.309956048"/>
     <use style="fill:#0000ff;" x="386.31406913" xlink:href="#mb8410964a8" y="355.712744319"/>
     <use style="fill:#0000ff;" x="390.77806913" xlink:href="#mb8410964a8" y="359.535642757"/>
     <use style="fill:#0000ff;" x="395.24206913" xlink:href="#mb8410964a8" y="365.757553754"/>
     <use style="fill:#0000ff;" x="399.70606913" xlink:href="#mb8410964a8" y="367.253585379"/>
     <use style="fill:#0000ff;" x="404.17006913" xlink:href="#mb8410964a8" y="371.530605019"/>
     <use style="fill:#0000ff;" x="408.63406913" xlink:href="#mb8410964a8" y="374.496154786"/>
     <use style="fill:#0000ff;" x="413.09806913" xlink:href="#mb8410964a8" y="378.702888834"/>
     <use style="fill:#0000ff;" x="417.56206913" xlink:href="#mb8410964a8" y="383.984543333"/>
     <use style="fill:#0000ff;" x="422.02606913" xlink:href="#mb8410964a8" y="385.952562359"/>
     <use style="fill:#0000ff;" x="426.49006913" xlink:href="#mb8410964a8" y="390.462757593"/>
     <use style="fill:#0000ff;" x="430.95406913" xlink:href="#mb8410964a8" y="392.739027427"/>
     <use style="fill:#0000ff;" x="435.41806913" xlink:href="#mb8410964a8" y="396.77901556"/>
     <use style="fill:#0000ff;" x="439.88206913" xlink:href="#mb8410964a8" y="402.753806718"/>
     <use style="fill:#0000ff;" x="444.34606913" xlink:href="#mb8410964a8" y="405.110100255"/>
     <use style="fill:#0000ff;" x="448.81006913" xlink:href="#mb8410964a8" y="406.874232647"/>
     <use style="fill:#0000ff;" x="453.27406913" xlink:href="#mb8410964a8" y="412.007442614"/>
     <use style="fill:#0000ff;" x="457.73806913" xlink:href="#mb8410964a8" y="415.266607802"/>
     <use style="fill:#0000ff;" x="462.20206913" xlink:href="#mb8410964a8" y="423.004905963"/>
     <use style="fill:#0000ff;" x="466.66606913" xlink:href="#mb8410964a8" y="424.415216107"/>
     <use style="fill:#0000ff;" x="471.13006913" xlink:href="#mb8410964a8" y="428.589173659"/>
     <use style="fill:#0000ff;" x="475.59406913" xlink:href="#mb8410964a8" y="432.901544695"/>
     <use style="fill:#0000ff;" x="480.05806913" xlink:href="#mb8410964a8" y="437.500851535"/>
     <use style="fill:#0000ff;" x="484.52206913" xlink:href="#mb8410964a8" y="442.733153848"/>
     <use style="fill:#0000ff;" x="488.98606913" xlink:href="#mb8410964a8" y="445.984237203"/>
     <use style="fill:#0000ff;" x="493.45006913" xlink:href="#mb8410964a8" y="451.633529456"/>
     <use style="fill:#0000ff;" x="497.91406913" xlink:href="#mb8410964a8" y="458.255086808"/>
     <use style="fill:#0000ff;" x="502.37806913" xlink:href="#mb8410964a8" y="463.73751718"/>
     <use style="fill:#0000ff;" x="506.84206913" xlink:href="#mb8410964a8" y="467.200072025"/>
     <use style="fill:#0000ff;" x="511.30606913" xlink:href="#mb8410964a8" y="474.201414071"/>
     <use style="fill:#0000ff;" x="515.77006913" xlink:href="#mb8410964a8" y="484.857647093"/>
     <use style="fill:#0000ff;" x="520.23406913" xlink:href="#mb8410964a8" y="496.439158108"/>
    </g>
   </g>
   <g id="patch_3">
    <path d="M 78.298069 65.309078 
L 524.698069 65.309078 
" style="fill:none;"/>
   </g>
   <g id="patch_4">
    <path d="M 524.698069 511.709078 
L 524.698069 65.309078 
" style="fill:none;"/>
   </g>
   <g id="patch_5">
    <path d="M 78.298069 511.709078 
L 524.698069 511.709078 
" style="fill:none;"/>
   </g>
   <g id="patch_6">
    <path d="M 78.298069 511.709078 
L 78.298069 65.309078 
" style="fill:none;"/>
   </g>
   <g id="text_18">
    <!-- 100 (sorted) GUE eigenvalues -->
    <defs>
     <path d="M 60.703125 25.234375 
L 58.90625 25.234375 
C 56.703125 10.5625 55.40625 2.59375 37.796875 2.59375 
L 23.90625 2.59375 
C 19.90625 2.59375 19.703125 3.078125 19.703125 6.46875 
L 19.703125 34 
L 29.09375 34 
C 38.5 34 39.40625 30.625 39.40625 22.34375 
L 41.203125 22.34375 
L 41.203125 48.140625 
L 39.40625 48.140625 
C 39.40625 39.953125 38.5 36.59375 29.09375 36.59375 
L 19.703125 36.59375 
L 19.703125 61.140625 
C 19.703125 64.5 19.90625 65 23.90625 65 
L 37.59375 65 
C 53.09375 65 54.90625 58.890625 56.296875 45.765625 
L 58.09375 45.765625 
L 55.703125 67.578125 
L 5.09375 67.578125 
L 5.09375 65 
C 12 65 13.09375 65 13.09375 60.53125 
L 13.09375 7.046875 
C 13.09375 2.59375 12 2.59375 5.09375 2.59375 
L 5.09375 0 
L 57.09375 0 
z
" id="CMR17-69"/>
     <path d="M 62.09375 19.265625 
C 62.09375 23.015625 62.40625 23.515625 68.59375 23.515625 
L 68.59375 26.09375 
C 66.203125 26 60.796875 26 58.09375 26 
C 55.296875 26 47.5 26 43.703125 26 
L 43.703125 23.515625 
L 46.703125 23.515625 
C 55.296875 23.515625 55.5 22.40625 55.5 18.765625 
L 55.5 12.09375 
C 55.5 0.984375 42.5 0.984375 39.40625 0.984375 
C 29.09375 0.984375 12.203125 7.984375 12.203125 33.75 
C 12.203125 59.5 28.796875 66.40625 38.5 66.40625 
C 49.796875 66.40625 58 56.65625 59.90625 42.828125 
C 60.09375 41.625 60.09375 41.421875 61 41.421875 
C 62.09375 41.421875 62.09375 41.625 62.09375 43.421875 
L 62.09375 67 
C 62.09375 68.78125 62 68.890625 61.40625 68.890625 
C 61 68.890625 60.90625 68.78125 60.203125 67.59375 
L 55.796875 59.234375 
C 50.90625 65.421875 44.90625 69 37.203125 69 
C 20.09375 69 4.59375 54 4.59375 33.546875 
C 4.59375 13.203125 19.796875 -2 37.40625 -2 
C 45.5 -2 53.40625 0.875 56.5 6.515625 
C 58.203125 2.46875 61 -0.3125 61.5 -0.3125 
C 62 -0.3125 62.09375 -0.203125 62.09375 1.5625 
z
" id="CMR17-71"/>
     <path d="M 54 22.390625 
C 54 9.046875 45.296875 0.59375 35.796875 0.59375 
C 30.703125 0.59375 26.09375 3.28125 23.296875 7.453125 
C 20.09375 12.234375 19.703125 18.40625 19.703125 21.890625 
L 19.703125 60.53125 
C 19.703125 65 20.796875 65 27.703125 65 
L 27.703125 67.5 
C 24.796875 67.5 19.5 67.5 16.40625 67.5 
C 13.296875 67.5 8 67.5 5.09375 67.5 
L 5.09375 65 
C 12 65 13.09375 65 13.09375 60.53125 
L 13.09375 22.390625 
C 13.09375 8.0625 24 -2 35.59375 -2 
C 48.59375 -2 56.09375 11.234375 56.09375 21 
L 56.09375 58.84375 
C 56.09375 64.40625 61.203125 65 64.09375 65 
L 64.09375 67.59375 
C 61.796875 67.5 57.59375 67.5 55.09375 67.5 
C 52.59375 67.5 48.296875 67.5 46 67.59375 
L 46 65 
C 54 65 54 60.328125 54 57.84375 
z
" id="CMR17-85"/>
     <path d="M 36 25.828125 
C 36 32.375 36 35.84375 31.796875 39.734375 
C 28.09375 43 23.796875 44 20.40625 44 
C 12.5 44 6.796875 37.609375 6.796875 30.796875 
C 6.796875 27 9.796875 27 10.40625 27 
C 11.703125 27 14 27.78125 14 30.53125 
C 14 33 12.09375 34.078125 10.40625 34.078125 
C 10 34.078125 9.5 33.96875 9.203125 33.875 
C 11.296875 40.5 16.703125 42.40625 20.203125 42.40625 
C 25.203125 42.40625 30.703125 37.953125 30.703125 29.453125 
L 30.703125 25 
C 24.796875 25 17.703125 24.203125 12.09375 21.203125 
C 5.796875 17.703125 4 12.703125 4 8.90625 
C 4 1.203125 13 -1 18.296875 -1 
C 23.796875 -1 28.90625 2.171875 31.09375 7.984375 
C 31.296875 3.640625 34.09375 -0.28125 38.5 -0.28125 
C 40.59375 -0.28125 45.90625 1.09375 45.90625 8.859375 
L 45.90625 14.375 
L 44.09375 14.375 
L 44.09375 8.78125 
C 44.09375 2.78125 41.40625 2 40.09375 2 
C 36 2 36 7.15625 36 11.53125 
z
M 30.703125 13.59375 
C 30.703125 4.953125 24.5 0.59375 19 0.59375 
C 14 0.59375 10.09375 4.296875 10.09375 8.90625 
C 10.09375 11.890625 11.40625 17.1875 17.203125 20.390625 
C 22 23.09375 27.5 23.5 30.703125 23.5 
z
" id="CMR17-97"/>
     <path d="M 43.09375 21.1875 
C 43.09375 34 33.796875 44 22.90625 44 
C 12 44 2.703125 34 2.703125 21.1875 
C 2.703125 8.609375 12 -1 22.90625 -1 
C 33.796875 -1 43.09375 8.609375 43.09375 21.1875 
M 22.90625 0.796875 
C 18.203125 0.796875 14.203125 3.59375 11.90625 7.5 
C 9.40625 11.984375 9.09375 17.59375 9.09375 22 
C 9.09375 26.203125 9.296875 31.40625 11.90625 35.90625 
C 13.90625 39.203125 17.796875 42.40625 22.90625 42.40625 
C 27.40625 42.40625 31.203125 39.90625 33.59375 36.40625 
C 36.703125 31.703125 36.703125 25.109375 36.703125 22 
C 36.703125 18.09375 36.5 12.109375 33.796875 7.296875 
C 31 2.703125 26.703125 0.796875 22.90625 0.796875 
" id="CMR17-111"/>
     <path d="M 26.296875 24.6875 
C 26.296875 31.875 25.59375 44.015625 19.59375 56.859375 
C 14.796875 67.234375 6.59375 74.5 5.40625 74.5 
C 5.09375 74.5 4.703125 74.390625 4.703125 73.890625 
C 4.703125 73.703125 4.796875 73.59375 4.90625 73.390625 
C 9.703125 68.40625 21.90625 55.75 21.90625 24.75 
C 21.90625 -6.359375 9.796875 -19.015625 4.90625 -24.015625 
C 4.796875 -24.203125 4.703125 -24.3125 4.703125 -24.5 
C 4.703125 -25 5.09375 -25 5.40625 -25 
C 6.5 -25 15 -17.625 19.90625 -6.65625 
C 24.90625 4.390625 26.296875 15.140625 26.296875 24.6875 
" id="CMR17-41"/>
     <path d="M 15.09375 40 
L 29.09375 40 
L 29.09375 42.578125 
L 15.09375 42.578125 
L 15.09375 61 
L 13.296875 61 
C 13.09375 50.703125 9.59375 41.6875 1.09375 41.6875 
L 1.09375 40 
L 9.796875 40 
L 9.796875 12.046875 
C 9.796875 10.15625 9.796875 -1 21.40625 -1 
C 27.296875 -1 30.703125 4.78125 30.703125 12.140625 
L 30.703125 17.8125 
L 28.90625 17.8125 
L 28.90625 12.234375 
C 28.90625 5.375 26.203125 0.796875 22 0.796875 
C 19.09375 0.796875 15.09375 2.78125 15.09375 11.84375 
z
" id="CMR17-116"/>
     <path d="M 29.40625 42.078125 
L 29.40625 39.5 
C 35.296875 39.5 36.203125 38.890625 36.203125 34.15625 
L 36.203125 16.125 
C 36.203125 7.8125 31.703125 0.59375 24.296875 0.59375 
C 16.09375 0.59375 15.40625 5.4375 15.40625 10.59375 
L 15.40625 43.171875 
L 3.296875 42.078125 
L 3.296875 39.5 
C 7.296875 39.5 10 39.5 10.09375 35.53125 
L 10.09375 16.53125 
C 10.09375 9.890625 10.09375 5.640625 12.703125 2.859375 
C 14 1.578125 16.5 -1 23.703125 -1 
C 32.203125 -1 35.5 5.890625 36.296875 7.90625 
L 36.40625 7.90625 
L 36.40625 -0.984375 
L 48.296875 -0.984375 
L 48.296875 2 
C 42.40625 2 41.5 2.59375 41.5 7.390625 
L 41.5 43.171875 
z
" id="CMR17-117"/>
     <path d="M 15 23.390625 
C 15 33 19.09375 42 26.59375 42 
C 27.296875 42 28 41.90625 28.703125 41.59375 
C 28.703125 41.59375 26.5 40.890625 26.5 38.3125 
C 26.5 35.90625 28.40625 34.90625 29.90625 34.90625 
C 31.09375 34.90625 33.296875 35.609375 33.296875 38.40625 
C 33.296875 41.609375 30.09375 43.59375 26.703125 43.59375 
C 19.09375 43.59375 15.796875 36.203125 14.796875 32.703125 
L 14.703125 32.703125 
L 14.703125 43.59375 
L 3.09375 42.5 
L 3.09375 39.90625 
C 9 39.90625 9.90625 39.296875 9.90625 34.5 
L 9.90625 6.6875 
C 9.90625 2.875 9.5 2.390625 3.09375 2.390625 
L 3.09375 -0.203125 
C 5.5 0 10.09375 0 12.703125 0 
C 15.59375 0 20.703125 0 23.40625 -0.203125 
L 23.40625 2.390625 
C 16.203125 2.390625 15 2.390625 15 6.875 
z
" id="CMR17-114"/>
     <path d="M 30.90625 42.140625 
C 30.90625 43.953125 30.796875 44.046875 30.203125 44.046875 
C 29.796875 44.046875 29.703125 43.953125 28.5 42.453125 
C 28.203125 42.046875 27.296875 41.03125 27 40.640625 
C 23.796875 44.046875 19.296875 44.046875 17.59375 44.046875 
C 6.5 44.046875 2.5 38.234375 2.5 32.4375 
C 2.5 23.40625 12.703125 21.328125 15.59375 20.703125 
C 21.90625 19.421875 24.09375 19.015625 26.203125 17.203125 
C 27.5 16.015625 29.703125 13.8125 29.703125 10.21875 
C 29.703125 6 27.296875 0.59375 18.09375 0.59375 
C 9.40625 0.59375 6.296875 7.1875 4.5 15.953125 
C 4.203125 17.34375 4.203125 17.453125 3.40625 17.453125 
C 2.59375 17.453125 2.5 17.34375 2.5 15.359375 
L 2.5 0.984375 
C 2.5 -0.796875 2.59375 -0.90625 3.203125 -0.90625 
C 3.703125 -0.90625 3.796875 -0.796875 4.296875 0 
C 4.90625 0.890625 6.40625 3.296875 7 4.3125 
C 9 1.609375 12.5 -1 18.09375 -1 
C 28 -1 33.296875 4.421875 33.296875 12.25 
C 33.296875 17.375 30.59375 20.078125 29.296875 21.28125 
C 26.296875 24.390625 22.796875 25.09375 18.59375 25.890625 
C 13.09375 27.109375 6.09375 28.515625 6.09375 34.640625 
C 6.09375 37.234375 7.5 42.765625 17.59375 42.765625 
C 28.296875 42.765625 28.90625 32.71875 29.09375 29.5 
C 29.203125 29 29.703125 28.890625 30 28.890625 
C 30.90625 28.890625 30.90625 29.203125 30.90625 30.90625 
z
" id="CMR17-115"/>
     <path d="M 15.5 61.078125 
C 15.5 63.265625 13.703125 65.15625 11.40625 65.15625 
C 9.203125 65.15625 7.296875 63.375 7.296875 61.078125 
C 7.296875 58.890625 9.09375 57 11.40625 57 
C 13.59375 57 15.5 58.796875 15.5 61.078125 
M 3.796875 42.28125 
L 3.796875 39.703125 
C 9.40625 39.703125 10.203125 39.09375 10.203125 34.328125 
L 10.203125 6.671875 
C 10.203125 2.875 9.796875 2.390625 3.40625 2.390625 
L 3.40625 -0.203125 
C 5.796875 0 10.09375 0 12.59375 0 
C 15 0 19.09375 0 21.40625 -0.203125 
L 21.40625 2.390625 
C 15.5 2.390625 15.296875 2.984375 15.296875 6.5625 
L 15.296875 43.375 
z
" id="CMR17-105"/>
     <path d="M 11.09375 18.1875 
C 13 16.6875 16.296875 15 20.296875 15 
C 28.203125 15 35 21.203125 35 29.5 
C 35 32.09375 34.203125 36.09375 31.203125 39.203125 
C 34 42.0625 38.09375 43 40.40625 43 
C 40.796875 43 41.40625 43 41.90625 42.71875 
C 41.5 42.625 40.59375 42.234375 40.59375 40.703125 
C 40.59375 39.484375 41.5 38.609375 42.796875 38.609375 
C 44.296875 38.609375 45.09375 39.578125 45.09375 40.84375 
C 45.09375 42.671875 43.59375 44.59375 40.40625 44.59375 
C 36.40625 44.59375 32.90625 42.78125 30.09375 40.3125 
C 27.09375 43.015625 23.5 44 20.296875 44 
C 12.40625 44 5.59375 37.796875 5.59375 29.5 
C 5.59375 23.78125 8.90625 20.1875 9.90625 19.1875 
C 6.90625 15.6875 6.90625 11.609375 6.90625 11.109375 
C 6.90625 8.515625 7.90625 4.71875 11.296875 2.625 
C 6.09375 1.328125 2 -2.640625 2 -7.59375 
C 2 -14.734375 11.5 -20 22.90625 -20 
C 33.90625 -20 43.796875 -14.9375 43.796875 -7.484375 
C 43.796875 6 29 6 21.296875 6 
C 19 6 14.90625 6 14.40625 6.109375 
C 11.296875 6.609375 9.203125 9.40625 9.203125 12.90625 
C 9.203125 13.796875 9.203125 16 11.09375 18.1875 
M 20.296875 16.6875 
C 11.5 16.6875 11.5 27.5 11.5 29.515625 
C 11.5 31.5 11.5 42.3125 20.296875 42.3125 
C 29.09375 42.3125 29.09375 31.5 29.09375 29.515625 
C 29.09375 27.5 29.09375 16.6875 20.296875 16.6875 
M 22.90625 -18.296875 
C 12.90625 -18.296875 6 -13.046875 6 -7.59375 
C 6 -4.515625 7.703125 -1.640625 9.90625 -0.0625 
C 12.40625 1.625 13.40625 1.625 20.203125 1.625 
C 28.40625 1.625 39.796875 1.625 39.796875 -7.59375 
C 39.796875 -13.046875 32.90625 -18.296875 22.90625 -18.296875 
" id="CMR17-103"/>
     <path d="M 30.59375 -24.390625 
C 30.59375 -24.296875 30.59375 -24.09375 30.296875 -23.796875 
C 25.703125 -19.125 13.40625 -6.359375 13.40625 24.6875 
C 13.40625 55.765625 25.5 68.421875 30.40625 73.390625 
C 30.40625 73.5 30.59375 73.703125 30.59375 74 
C 30.59375 74.296875 30.296875 74.5 29.90625 74.5 
C 28.796875 74.5 20.296875 67.125 15.40625 56.15625 
C 10.40625 45.109375 9 34.359375 9 24.8125 
C 9 17.625 9.703125 5.484375 15.703125 -7.359375 
C 20.5 -17.734375 28.703125 -25 29.90625 -25 
C 30.40625 -25 30.59375 -24.796875 30.59375 -24.390625 
" id="CMR17-40"/>
     <path d="M 15.296875 68.6875 
L 3.40625 67.59375 
L 3.40625 65 
C 9.296875 65 10.203125 64.40625 10.203125 59.640625 
L 10.203125 6.65625 
C 10.203125 2.875 9.796875 2.390625 3.40625 2.390625 
L 3.40625 -0.203125 
C 5.796875 0 10.203125 0 12.703125 0 
C 15.296875 0 19.703125 0 22.09375 -0.203125 
L 22.09375 2.390625 
C 15.703125 2.390625 15.296875 2.78125 15.296875 6.65625 
z
" id="CMR17-108"/>
     <path d="M 39.09375 33.796875 
C 40 36 41.59375 40 47.40625 40 
L 47.40625 42.59375 
C 45.5 42.59375 43 42.59375 41.09375 42.59375 
C 39 42.59375 35.703125 42.59375 33.703125 42.6875 
L 33.703125 40.09375 
C 36.203125 39.890625 37.59375 38.703125 37.59375 36.109375 
C 37.59375 35.203125 37.59375 35 37 33.609375 
L 26 5.890625 
L 14.09375 35.71875 
C 13.5 37.015625 13.5 37.203125 13.5 37.609375 
C 13.5 40 16.796875 40 18.296875 40 
L 18.296875 42.6875 
C 15.90625 42.59375 11.5 42.59375 9 42.59375 
C 6.296875 42.59375 3.203125 42.59375 1 42.6875 
L 1 40 
C 4.796875 40 6.90625 40 8.09375 36.90625 
L 22.59375 0.6875 
C 23.203125 -0.796875 23.296875 -1 24.203125 -1 
C 25.09375 -1 25.203125 -0.796875 25.796875 0.6875 
z
" id="CMR17-118"/>
    </defs>
    <g style="fill:#262626;" transform="translate(123.603064497 60.3090776531)scale(0.3 -0.3)">
     <use transform="scale(0.996264009963)" xlink:href="#CMR17-49"/>
     <use transform="translate(45.6904771171 0.0)scale(0.996264009963)" xlink:href="#CMR17-48"/>
     <use transform="translate(91.3809542341 0.0)scale(0.996264009963)" xlink:href="#CMR17-48"/>
     <use transform="translate(167.147397698 0.0)scale(0.996264009963)" xlink:href="#CMR17-40"/>
     <use transform="translate(202.428165498 0.0)scale(0.996264009963)" xlink:href="#CMR17-115"/>
     <use transform="translate(238.229503133 0.0)scale(0.996264009963)" xlink:href="#CMR17-111"/>
     <use transform="translate(283.91998025 0.0)scale(0.996264009963)" xlink:href="#CMR17-114"/>
     <use transform="translate(319.200748049 0.0)scale(0.996264009963)" xlink:href="#CMR17-116"/>
     <use transform="translate(354.481515849 0.0)scale(0.996264009963)" xlink:href="#CMR17-101"/>
     <use transform="translate(394.967176311 0.0)scale(0.996264009963)" xlink:href="#CMR17-100"/>
     <use transform="translate(445.862546092 0.0)scale(0.996264009963)" xlink:href="#CMR17-41"/>
     <use transform="translate(511.219280238 0.0)scale(0.996264009963)" xlink:href="#CMR17-71"/>
     <use transform="translate(583.574626158 0.0)scale(0.996264009963)" xlink:href="#CMR17-85"/>
     <use transform="translate(652.647055962 0.0)scale(0.996264009963)" xlink:href="#CMR17-69"/>
     <use transform="translate(745.309322827 0.0)scale(0.996264009963)" xlink:href="#CMR17-101"/>
     <use transform="translate(785.79498329 0.0)scale(0.996264009963)" xlink:href="#CMR17-105"/>
     <use transform="translate(810.666041772 0.0)scale(0.996264009963)" xlink:href="#CMR17-103"/>
     <use transform="translate(856.356518889 0.0)scale(0.996264009963)" xlink:href="#CMR17-101"/>
     <use transform="translate(896.842179352 0.0)scale(0.996264009963)" xlink:href="#CMR17-110"/>
     <use transform="translate(945.1350952 0.0)scale(0.996264009963)" xlink:href="#CMR17-118"/>
     <use transform="translate(988.223194393 0.0)scale(0.996264009963)" xlink:href="#CMR17-97"/>
     <use transform="translate(1033.91367151 0.0)scale(0.996264009963)" xlink:href="#CMR17-108"/>
     <use transform="translate(1058.78472999 0.0)scale(0.996264009963)" xlink:href="#CMR17-117"/>
     <use transform="translate(1109.68009977 0.0)scale(0.996264009963)" xlink:href="#CMR17-101"/>
     <use transform="translate(1150.16576024 0.0)scale(0.996264009963)" xlink:href="#CMR17-115"/>
    </g>
   </g>
  </g>
  <g id="axes_2">
   <g id="patch_7">
    <path d="M 636.298069 511.709078 
L 1082.698069 511.709078 
L 1082.698069 65.309078 
L 636.298069 65.309078 
z
" style="fill:#eaeaf2;"/>
   </g>
   <g id="matplotlib.axis_3">
    <g id="xtick_7">
     <g id="line2d_47">
      <path clip-path="url(#p8fdc9d4d82)" d="M 636.298069 511.709078 
L 636.298069 65.309078 
" style="fill:none;stroke:#ffffff;stroke-linecap:round;"/>
     </g>
     <g id="line2d_48">
      <g>
       <use style="fill:#262626;stroke:#262626;" x="636.29806913" xlink:href="#m612376f994" y="511.709077653"/>
      </g>
     </g>
     <g id="line2d_49">
      <g>
       <use style="fill:#262626;stroke:#262626;" x="636.29806913" xlink:href="#m612376f994" y="65.3090776531"/>
      </g>
     </g>
     <g id="text_19">
      <!-- $0$ -->
      <g style="fill:#262626;" transform="translate(630.586759491 536.005331204)scale(0.25 -0.25)">
       <use transform="scale(0.996264009963)" xlink:href="#CMR17-48"/>
      </g>
     </g>
    </g>
    <g id="xtick_8">
     <g id="line2d_50">
      <path clip-path="url(#p8fdc9d4d82)" d="M 725.578069 511.709078 
L 725.578069 65.309078 
" style="fill:none;stroke:#ffffff;stroke-linecap:round;"/>
     </g>
     <g id="line2d_51">
      <g>
       <use style="fill:#262626;stroke:#262626;" x="725.57806913" xlink:href="#m612376f994" y="511.709077653"/>
      </g>
     </g>
     <g id="line2d_52">
      <g>
       <use style="fill:#262626;stroke:#262626;" x="725.57806913" xlink:href="#m612376f994" y="65.3090776531"/>
      </g>
     </g>
     <g id="text_20">
      <!-- $20$ -->
      <g style="fill:#262626;" transform="translate(714.155449851 536.005331204)scale(0.25 -0.25)">
       <use transform="scale(0.996264009963)" xlink:href="#CMR17-50"/>
       <use transform="translate(45.6904771171 0.0)scale(0.996264009963)" xlink:href="#CMR17-48"/>
      </g>
     </g>
    </g>
    <g id="xtick_9">
     <g id="line2d_53">
      <path clip-path="url(#p8fdc9d4d82)" d="M 814.858069 511.709078 
L 814.858069 65.309078 
" style="fill:none;stroke:#ffffff;stroke-linecap:round;"/>
     </g>
     <g id="line2d_54">
      <g>
       <use style="fill:#262626;stroke:#262626;" x="814.85806913" xlink:href="#m612376f994" y="511.709077653"/>
      </g>
     </g>
     <g id="line2d_55">
      <g>
       <use style="fill:#262626;stroke:#262626;" x="814.85806913" xlink:href="#m612376f994" y="65.3090776531"/>
      </g>
     </g>
     <g id="text_21">
      <!-- $40$ -->
      <g style="fill:#262626;" transform="translate(803.435449851 536.005331204)scale(0.25 -0.25)">
       <use transform="scale(0.996264009963)" xlink:href="#CMR17-52"/>
       <use transform="translate(45.6904771171 0.0)scale(0.996264009963)" xlink:href="#CMR17-48"/>
      </g>
     </g>
    </g>
    <g id="xtick_10">
     <g id="line2d_56">
      <path clip-path="url(#p8fdc9d4d82)" d="M 904.138069 511.709078 
L 904.138069 65.309078 
" style="fill:none;stroke:#ffffff;stroke-linecap:round;"/>
     </g>
     <g id="line2d_57">
      <g>
       <use style="fill:#262626;stroke:#262626;" x="904.13806913" xlink:href="#m612376f994" y="511.709077653"/>
      </g>
     </g>
     <g id="line2d_58">
      <g>
       <use style="fill:#262626;stroke:#262626;" x="904.13806913" xlink:href="#m612376f994" y="65.3090776531"/>
      </g>
     </g>
     <g id="text_22">
      <!-- $60$ -->
      <g style="fill:#262626;" transform="translate(892.715449851 536.005331204)scale(0.25 -0.25)">
       <use transform="scale(0.996264009963)" xlink:href="#CMR17-54"/>
       <use transform="translate(45.6904771171 0.0)scale(0.996264009963)" xlink:href="#CMR17-48"/>
      </g>
     </g>
    </g>
    <g id="xtick_11">
     <g id="line2d_59">
      <path clip-path="url(#p8fdc9d4d82)" d="M 993.418069 511.709078 
L 993.418069 65.309078 
" style="fill:none;stroke:#ffffff;stroke-linecap:round;"/>
     </g>
     <g id="line2d_60">
      <g>
       <use style="fill:#262626;stroke:#262626;" x="993.41806913" xlink:href="#m612376f994" y="511.709077653"/>
      </g>
     </g>
     <g id="line2d_61">
      <g>
       <use style="fill:#262626;stroke:#262626;" x="993.41806913" xlink:href="#m612376f994" y="65.3090776531"/>
      </g>
     </g>
     <g id="text_23">
      <!-- $80$ -->
      <g style="fill:#262626;" transform="translate(981.995449851 536.005331204)scale(0.25 -0.25)">
       <use transform="scale(0.996264009963)" xlink:href="#CMR17-56"/>
       <use transform="translate(45.6904771171 0.0)scale(0.996264009963)" xlink:href="#CMR17-48"/>
      </g>
     </g>
    </g>
    <g id="xtick_12">
     <g id="line2d_62">
      <path clip-path="url(#p8fdc9d4d82)" d="M 1082.698069 511.709078 
L 1082.698069 65.309078 
" style="fill:none;stroke:#ffffff;stroke-linecap:round;"/>
     </g>
     <g id="line2d_63">
      <g>
       <use style="fill:#262626;stroke:#262626;" x="1082.69806913" xlink:href="#m612376f994" y="511.709077653"/>
      </g>
     </g>
     <g id="line2d_64">
      <g>
       <use style="fill:#262626;stroke:#262626;" x="1082.69806913" xlink:href="#m612376f994" y="65.3090776531"/>
      </g>
     </g>
     <g id="text_24">
      <!-- $100$ -->
      <g style="fill:#262626;" transform="translate(1065.56414021 536.005331204)scale(0.25 -0.25)">
       <use transform="scale(0.996264009963)" xlink:href="#CMR17-49"/>
       <use transform="translate(45.6904771171 0.0)scale(0.996264009963)" xlink:href="#CMR17-48"/>
       <use transform="translate(91.3809542341 0.0)scale(0.996264009963)" xlink:href="#CMR17-48"/>
      </g>
     </g>
    </g>
    <g id="text_25">
     <!-- Index $j$ -->
     <g style="fill:#262626;" transform="translate(800.769790957 573.523874338)scale(0.4 -0.4)">
      <use transform="scale(0.996264009963)" xlink:href="#CMR17-73"/>
      <use transform="translate(32.6384091882 0.0)scale(0.996264009963)" xlink:href="#CMR17-110"/>
      <use transform="translate(83.5337789685 0.0)scale(0.996264009963)" xlink:href="#CMR17-100"/>
      <use transform="translate(134.429148749 0.0)scale(0.996264009963)" xlink:href="#CMR17-101"/>
      <use transform="translate(174.914809212 0.0)scale(0.996264009963)" xlink:href="#CMR17-120"/>
      <use transform="translate(253.283691406 0.0)scale(0.996264009963)" xlink:href="#CMMI12-106"/>
     </g>
    </g>
   </g>
   <g id="matplotlib.axis_4">
    <g id="ytick_10">
     <g id="line2d_65">
      <path clip-path="url(#p8fdc9d4d82)" d="M 636.298069 511.709078 
L 1082.698069 511.709078 
" style="fill:none;stroke:#ffffff;stroke-linecap:round;"/>
     </g>
     <g id="line2d_66">
      <g>
       <use style="fill:#262626;stroke:#262626;" x="636.29806913" xlink:href="#m612376f994" y="511.709077653"/>
      </g>
     </g>
     <g id="line2d_67">
      <g>
       <use style="fill:#262626;stroke:#262626;" x="1082.69806913" xlink:href="#m612376f994" y="511.709077653"/>
      </g>
     </g>
     <g id="text_26">
      <!-- $-20$ -->
      <g style="fill:#262626;" transform="translate(587.08097126 517.934937223)scale(0.25 -0.25)">
       <use transform="scale(0.996264009963)" xlink:href="#CMSY10-0"/>
       <use transform="translate(77.4874676506 0.0)scale(0.996264009963)" xlink:href="#CMR17-50"/>
       <use transform="translate(123.177944768 0.0)scale(0.996264009963)" xlink:href="#CMR17-48"/>
      </g>
     </g>
    </g>
    <g id="ytick_11">
     <g id="line2d_68">
      <path clip-path="url(#p8fdc9d4d82)" d="M 636.298069 455.909078 
L 1082.698069 455.909078 
" style="fill:none;stroke:#ffffff;stroke-linecap:round;"/>
     </g>
     <g id="line2d_69">
      <g>
       <use style="fill:#262626;stroke:#262626;" x="636.29806913" xlink:href="#m612376f994" y="455.909077653"/>
      </g>
     </g>
     <g id="line2d_70">
      <g>
       <use style="fill:#262626;stroke:#262626;" x="1082.69806913" xlink:href="#m612376f994" y="455.909077653"/>
      </g>
     </g>
     <g id="text_27">
      <!-- $-15$ -->
      <g style="fill:#262626;" transform="translate(587.08097126 462.134937223)scale(0.25 -0.25)">
       <use transform="scale(0.996264009963)" xlink:href="#CMSY10-0"/>
       <use transform="translate(77.4874676506 0.0)scale(0.996264009963)" xlink:href="#CMR17-49"/>
       <use transform="translate(123.177944768 0.0)scale(0.996264009963)" xlink:href="#CMR17-53"/>
      </g>
     </g>
    </g>
    <g id="ytick_12">
     <g id="line2d_71">
      <path clip-path="url(#p8fdc9d4d82)" d="M 636.298069 400.109078 
L 1082.698069 400.109078 
" style="fill:none;stroke:#ffffff;stroke-linecap:round;"/>
     </g>
     <g id="line2d_72">
      <g>
       <use style="fill:#262626;stroke:#262626;" x="636.29806913" xlink:href="#m612376f994" y="400.109077653"/>
      </g>
     </g>
     <g id="line2d_73">
      <g>
       <use style="fill:#262626;stroke:#262626;" x="1082.69806913" xlink:href="#m612376f994" y="400.109077653"/>
      </g>
     </g>
     <g id="text_28">
      <!-- $-10$ -->
      <g style="fill:#262626;" transform="translate(587.08097126 406.334937223)scale(0.25 -0.25)">
       <use transform="scale(0.996264009963)" xlink:href="#CMSY10-0"/>
       <use transform="translate(77.4874676506 0.0)scale(0.996264009963)" xlink:href="#CMR17-49"/>
       <use transform="translate(123.177944768 0.0)scale(0.996264009963)" xlink:href="#CMR17-48"/>
      </g>
     </g>
    </g>
    <g id="ytick_13">
     <g id="line2d_74">
      <path clip-path="url(#p8fdc9d4d82)" d="M 636.298069 344.309078 
L 1082.698069 344.309078 
" style="fill:none;stroke:#ffffff;stroke-linecap:round;"/>
     </g>
     <g id="line2d_75">
      <g>
       <use style="fill:#262626;stroke:#262626;" x="636.29806913" xlink:href="#m612376f994" y="344.309077653"/>
      </g>
     </g>
     <g id="line2d_76">
      <g>
       <use style="fill:#262626;stroke:#262626;" x="1082.69806913" xlink:href="#m612376f994" y="344.309077653"/>
      </g>
     </g>
     <g id="text_29">
      <!-- $-5$ -->
      <g style="fill:#262626;" transform="translate(598.503590539 350.534937223)scale(0.25 -0.25)">
       <use transform="scale(0.996264009963)" xlink:href="#CMSY10-0"/>
       <use transform="translate(77.4874676506 0.0)scale(0.996264009963)" xlink:href="#CMR17-53"/>
      </g>
     </g>
    </g>
    <g id="ytick_14">
     <g id="line2d_77">
      <path clip-path="url(#p8fdc9d4d82)" d="M 636.298069 288.509078 
L 1082.698069 288.509078 
" style="fill:none;stroke:#ffffff;stroke-linecap:round;"/>
     </g>
     <g id="line2d_78">
      <g>
       <use style="fill:#262626;stroke:#262626;" x="636.29806913" xlink:href="#m612376f994" y="288.509077653"/>
      </g>
     </g>
     <g id="line2d_79">
      <g>
       <use style="fill:#262626;stroke:#262626;" x="1082.69806913" xlink:href="#m612376f994" y="288.509077653"/>
      </g>
     </g>
     <g id="text_30">
      <!-- $0$ -->
      <g style="fill:#262626;" transform="translate(617.875449851 294.734937223)scale(0.25 -0.25)">
       <use transform="scale(0.996264009963)" xlink:href="#CMR17-48"/>
      </g>
     </g>
    </g>
    <g id="ytick_15">
     <g id="line2d_80">
      <path clip-path="url(#p8fdc9d4d82)" d="M 636.298069 232.709078 
L 1082.698069 232.709078 
" style="fill:none;stroke:#ffffff;stroke-linecap:round;"/>
     </g>
     <g id="line2d_81">
      <g>
       <use style="fill:#262626;stroke:#262626;" x="636.29806913" xlink:href="#m612376f994" y="232.709077653"/>
      </g>
     </g>
     <g id="line2d_82">
      <g>
       <use style="fill:#262626;stroke:#262626;" x="1082.69806913" xlink:href="#m612376f994" y="232.709077653"/>
      </g>
     </g>
     <g id="text_31">
      <!-- $5$ -->
      <g style="fill:#262626;" transform="translate(617.875449851 238.934937223)scale(0.25 -0.25)">
       <use transform="scale(0.996264009963)" xlink:href="#CMR17-53"/>
      </g>
     </g>
    </g>
    <g id="ytick_16">
     <g id="line2d_83">
      <path clip-path="url(#p8fdc9d4d82)" d="M 636.298069 176.909078 
L 1082.698069 176.909078 
" style="fill:none;stroke:#ffffff;stroke-linecap:round;"/>
     </g>
     <g id="line2d_84">
      <g>
       <use style="fill:#262626;stroke:#262626;" x="636.29806913" xlink:href="#m612376f994" y="176.909077653"/>
      </g>
     </g>
     <g id="line2d_85">
      <g>
       <use style="fill:#262626;stroke:#262626;" x="1082.69806913" xlink:href="#m612376f994" y="176.909077653"/>
      </g>
     </g>
     <g id="text_32">
      <!-- $10$ -->
      <g style="fill:#262626;" transform="translate(606.452830572 183.134937223)scale(0.25 -0.25)">
       <use transform="scale(0.996264009963)" xlink:href="#CMR17-49"/>
       <use transform="translate(45.6904771171 0.0)scale(0.996264009963)" xlink:href="#CMR17-48"/>
      </g>
     </g>
    </g>
    <g id="ytick_17">
     <g id="line2d_86">
      <path clip-path="url(#p8fdc9d4d82)" d="M 636.298069 121.109078 
L 1082.698069 121.109078 
" style="fill:none;stroke:#ffffff;stroke-linecap:round;"/>
     </g>
     <g id="line2d_87">
      <g>
       <use style="fill:#262626;stroke:#262626;" x="636.29806913" xlink:href="#m612376f994" y="121.109077653"/>
      </g>
     </g>
     <g id="line2d_88">
      <g>
       <use style="fill:#262626;stroke:#262626;" x="1082.69806913" xlink:href="#m612376f994" y="121.109077653"/>
      </g>
     </g>
     <g id="text_33">
      <!-- $15$ -->
      <g style="fill:#262626;" transform="translate(606.452830572 127.334937223)scale(0.25 -0.25)">
       <use transform="scale(0.996264009963)" xlink:href="#CMR17-49"/>
       <use transform="translate(45.6904771171 0.0)scale(0.996264009963)" xlink:href="#CMR17-53"/>
      </g>
     </g>
    </g>
    <g id="ytick_18">
     <g id="line2d_89">
      <path clip-path="url(#p8fdc9d4d82)" d="M 636.298069 65.309078 
L 1082.698069 65.309078 
" style="fill:none;stroke:#ffffff;stroke-linecap:round;"/>
     </g>
     <g id="line2d_90">
      <g>
       <use style="fill:#262626;stroke:#262626;" x="636.29806913" xlink:href="#m612376f994" y="65.3090776531"/>
      </g>
     </g>
     <g id="line2d_91">
      <g>
       <use style="fill:#262626;stroke:#262626;" x="1082.69806913" xlink:href="#m612376f994" y="65.3090776531"/>
      </g>
     </g>
     <g id="text_34">
      <!-- $20$ -->
      <g style="fill:#262626;" transform="translate(606.452830572 71.5349372227)scale(0.25 -0.25)">
       <use transform="scale(0.996264009963)" xlink:href="#CMR17-50"/>
       <use transform="translate(45.6904771171 0.0)scale(0.996264009963)" xlink:href="#CMR17-48"/>
      </g>
     </g>
    </g>
    <g id="text_35">
     <!-- $\bar{\kappa}_{j}$ -->
     <defs>
      <path d="M 39.90625 55 
L 39.90625 57.28125 
L 5.90625 57.28125 
L 5.90625 55 
z
" id="CMR17-22"/>
     </defs>
     <g style="fill:#262626;" transform="translate(565.2 280.757810433)scale(0.4 -0.4)">
      <use transform="translate(5.23207345015 14.9503753016)scale(0.996264009963)" xlink:href="#CMR17-22"/>
      <use transform="translate(0.0 14.9439145441)scale(0.996264009963)" xlink:href="#CMMI12-20"/>
      <use transform="translate(56.1546240174 0.0)scale(0.697381766617)" xlink:href="#CMMI12-106"/>
     </g>
    </g>
   </g>
   <g id="line2d_92">
    <g>
     <use style="fill:#0000ff;" x="636.29806913" xlink:href="#mb8410964a8" y="75.766317877"/>
     <use style="fill:#0000ff;" x="640.76206913" xlink:href="#mb8410964a8" y="84.8513841175"/>
     <use style="fill:#0000ff;" x="645.22606913" xlink:href="#mb8410964a8" y="92.455189187"/>
     <use style="fill:#0000ff;" x="649.69006913" xlink:href="#mb8410964a8" y="99.3931552056"/>
     <use style="fill:#0000ff;" x="654.15406913" xlink:href="#mb8410964a8" y="105.839516516"/>
     <use style="fill:#0000ff;" x="658.61806913" xlink:href="#mb8410964a8" y="111.539804088"/>
     <use style="fill:#0000ff;" x="663.08206913" xlink:href="#mb8410964a8" y="117.171860696"/>
     <use style="fill:#0000ff;" x="667.54606913" xlink:href="#mb8410964a8" y="122.762759099"/>
     <use style="fill:#0000ff;" x="672.01006913" xlink:href="#mb8410964a8" y="128.009982559"/>
     <use style="fill:#0000ff;" x="676.47406913" xlink:href="#mb8410964a8" y="132.814867718"/>
     <use style="fill:#0000ff;" x="680.93806913" xlink:href="#mb8410964a8" y="137.658358471"/>
     <use style="fill:#0000ff;" x="685.40206913" xlink:href="#mb8410964a8" y="142.184953941"/>
     <use style="fill:#0000ff;" x="689.86606913" xlink:href="#mb8410964a8" y="146.721639761"/>
     <use style="fill:#0000ff;" x="694.33006913" xlink:href="#mb8410964a8" y="151.156117771"/>
     <use style="fill:#0000ff;" x="698.79406913" xlink:href="#mb8410964a8" y="155.587246006"/>
     <use style="fill:#0000ff;" x="703.25806913" xlink:href="#mb8410964a8" y="160.108571151"/>
     <use style="fill:#0000ff;" x="707.72206913" xlink:href="#mb8410964a8" y="164.547927161"/>
     <use style="fill:#0000ff;" x="712.18606913" xlink:href="#mb8410964a8" y="168.607676728"/>
     <use style="fill:#0000ff;" x="716.65006913" xlink:href="#mb8410964a8" y="172.845074229"/>
     <use style="fill:#0000ff;" x="721.11406913" xlink:href="#mb8410964a8" y="177.041201734"/>
     <use style="fill:#0000ff;" x="725.57806913" xlink:href="#mb8410964a8" y="180.903401969"/>
     <use style="fill:#0000ff;" x="730.04206913" xlink:href="#mb8410964a8" y="184.972177035"/>
     <use style="fill:#0000ff;" x="734.50606913" xlink:href="#mb8410964a8" y="188.745697975"/>
     <use style="fill:#0000ff;" x="738.97006913" xlink:href="#mb8410964a8" y="192.587213689"/>
     <use style="fill:#0000ff;" x="743.43406913" xlink:href="#mb8410964a8" y="196.33447993"/>
     <use style="fill:#0000ff;" x="747.89806913" xlink:href="#mb8410964a8" y="200.302484683"/>
     <use style="fill:#0000ff;" x="752.36206913" xlink:href="#mb8410964a8" y="203.995609796"/>
     <use style="fill:#0000ff;" x="756.82606913" xlink:href="#mb8410964a8" y="207.867754953"/>
     <use style="fill:#0000ff;" x="761.29006913" xlink:href="#mb8410964a8" y="211.555741053"/>
     <use style="fill:#0000ff;" x="765.75406913" xlink:href="#mb8410964a8" y="215.103587231"/>
     <use style="fill:#0000ff;" x="770.21806913" xlink:href="#mb8410964a8" y="218.874606173"/>
     <use style="fill:#0000ff;" x="774.68206913" xlink:href="#mb8410964a8" y="222.649755451"/>
     <use style="fill:#0000ff;" x="779.14606913" xlink:href="#mb8410964a8" y="226.613410118"/>
     <use style="fill:#0000ff;" x="783.61006913" xlink:href="#mb8410964a8" y="230.095797617"/>
     <use style="fill:#0000ff;" x="788.07406913" xlink:href="#mb8410964a8" y="233.575526856"/>
     <use style="fill:#0000ff;" x="792.53806913" xlink:href="#mb8410964a8" y="237.147013956"/>
     <use style="fill:#0000ff;" x="797.00206913" xlink:href="#mb8410964a8" y="240.536673867"/>
     <use style="fill:#0000ff;" x="801.46606913" xlink:href="#mb8410964a8" y="244.022809076"/>
     <use style="fill:#0000ff;" x="805.93006913" xlink:href="#mb8410964a8" y="247.840711027"/>
     <use style="fill:#0000ff;" x="810.39406913" xlink:href="#mb8410964a8" y="251.539184905"/>
     <use style="fill:#0000ff;" x="814.85806913" xlink:href="#mb8410964a8" y="255.153895128"/>
     <use style="fill:#0000ff;" x="819.32206913" xlink:href="#mb8410964a8" y="258.682689583"/>
     <use style="fill:#0000ff;" x="823.78606913" xlink:href="#mb8410964a8" y="262.190900345"/>
     <use style="fill:#0000ff;" x="828.25006913" xlink:href="#mb8410964a8" y="265.641005527"/>
     <use style="fill:#0000ff;" x="832.71406913" xlink:href="#mb8410964a8" y="268.991411542"/>
     <use style="fill:#0000ff;" x="837.17806913" xlink:href="#mb8410964a8" y="272.608697806"/>
     <use style="fill:#0000ff;" x="841.64206913" xlink:href="#mb8410964a8" y="276.041020619"/>
     <use style="fill:#0000ff;" x="846.10606913" xlink:href="#mb8410964a8" y="279.653984053"/>
     <use style="fill:#0000ff;" x="850.57006913" xlink:href="#mb8410964a8" y="283.070904075"/>
     <use style="fill:#0000ff;" x="855.03406913" xlink:href="#mb8410964a8" y="286.645128084"/>
     <use style="fill:#0000ff;" x="859.49806913" xlink:href="#mb8410964a8" y="290.241268063"/>
     <use style="fill:#0000ff;" x="863.96206913" xlink:href="#mb8410964a8" y="293.553693056"/>
     <use style="fill:#0000ff;" x="868.42606913" xlink:href="#mb8410964a8" y="297.279687518"/>
     <use style="fill:#0000ff;" x="872.89006913" xlink:href="#mb8410964a8" y="300.659703566"/>
     <use style="fill:#0000ff;" x="877.35406913" xlink:href="#mb8410964a8" y="304.267086181"/>
     <use style="fill:#0000ff;" x="881.81806913" xlink:href="#mb8410964a8" y="307.747923137"/>
     <use style="fill:#0000ff;" x="886.28206913" xlink:href="#mb8410964a8" y="311.3191564"/>
     <use style="fill:#0000ff;" x="890.74606913" xlink:href="#mb8410964a8" y="314.853606068"/>
     <use style="fill:#0000ff;" x="895.21006913" xlink:href="#mb8410964a8" y="318.422186983"/>
     <use style="fill:#0000ff;" x="899.67406913" xlink:href="#mb8410964a8" y="321.907987028"/>
     <use style="fill:#0000ff;" x="904.13806913" xlink:href="#mb8410964a8" y="325.494643304"/>
     <use style="fill:#0000ff;" x="908.60206913" xlink:href="#mb8410964a8" y="329.046289523"/>
     <use style="fill:#0000ff;" x="913.06606913" xlink:href="#mb8410964a8" y="332.244269038"/>
     <use style="fill:#0000ff;" x="917.53006913" xlink:href="#mb8410964a8" y="336.172969511"/>
     <use style="fill:#0000ff;" x="921.99406913" xlink:href="#mb8410964a8" y="339.834886708"/>
     <use style="fill:#0000ff;" x="926.45806913" xlink:href="#mb8410964a8" y="343.589560715"/>
     <use style="fill:#0000ff;" x="930.92206913" xlink:href="#mb8410964a8" y="347.077308163"/>
     <use style="fill:#0000ff;" x="935.38606913" xlink:href="#mb8410964a8" y="350.558418018"/>
     <use style="fill:#0000ff;" x="939.85006913" xlink:href="#mb8410964a8" y="354.076567612"/>
     <use style="fill:#0000ff;" x="944.31406913" xlink:href="#mb8410964a8" y="357.41689328"/>
     <use style="fill:#0000ff;" x="948.77806913" xlink:href="#mb8410964a8" y="361.275644914"/>
     <use style="fill:#0000ff;" x="953.24206913" xlink:href="#mb8410964a8" y="365.143792747"/>
     <use style="fill:#0000ff;" x="957.70606913" xlink:href="#mb8410964a8" y="368.978837604"/>
     <use style="fill:#0000ff;" x="962.17006913" xlink:href="#mb8410964a8" y="372.763147797"/>
     <use style="fill:#0000ff;" x="966.63406913" xlink:href="#mb8410964a8" y="376.666196897"/>
     <use style="fill:#0000ff;" x="971.09806913" xlink:href="#mb8410964a8" y="380.550289582"/>
     <use style="fill:#0000ff;" x="975.56206913" xlink:href="#mb8410964a8" y="384.294729378"/>
     <use style="fill:#0000ff;" x="980.02606913" xlink:href="#mb8410964a8" y="388.368570248"/>
     <use style="fill:#0000ff;" x="984.49006913" xlink:href="#mb8410964a8" y="392.189732591"/>
     <use style="fill:#0000ff;" x="988.95406913" xlink:href="#mb8410964a8" y="396.185510269"/>
     <use style="fill:#0000ff;" x="993.41806913" xlink:href="#mb8410964a8" y="399.911456223"/>
     <use style="fill:#0000ff;" x="997.88206913" xlink:href="#mb8410964a8" y="404.212579838"/>
     <use style="fill:#0000ff;" x="1002.34606913" xlink:href="#mb8410964a8" y="408.446750394"/>
     <use style="fill:#0000ff;" x="1006.81006913" xlink:href="#mb8410964a8" y="412.491935575"/>
     <use style="fill:#0000ff;" x="1011.27406913" xlink:href="#mb8410964a8" y="416.982436212"/>
     <use style="fill:#0000ff;" x="1015.73806913" xlink:href="#mb8410964a8" y="420.872048004"/>
     <use style="fill:#0000ff;" x="1020.20206913" xlink:href="#mb8410964a8" y="425.36695704"/>
     <use style="fill:#0000ff;" x="1024.66606913" xlink:href="#mb8410964a8" y="430.357090886"/>
     <use style="fill:#0000ff;" x="1029.13006913" xlink:href="#mb8410964a8" y="434.930993965"/>
     <use style="fill:#0000ff;" x="1033.59406913" xlink:href="#mb8410964a8" y="439.404677693"/>
     <use style="fill:#0000ff;" x="1038.05806913" xlink:href="#mb8410964a8" y="444.338104412"/>
     <use style="fill:#0000ff;" x="1042.52206913" xlink:href="#mb8410964a8" y="449.269135432"/>
     <use style="fill:#0000ff;" x="1046.98606913" xlink:href="#mb8410964a8" y="454.542417918"/>
     <use style="fill:#0000ff;" x="1051.45006913" xlink:href="#mb8410964a8" y="459.730076038"/>
     <use style="fill:#0000ff;" x="1055.91406913" xlink:href="#mb8410964a8" y="465.488927677"/>
     <use style="fill:#0000ff;" x="1060.37806913" xlink:href="#mb8410964a8" y="471.105321259"/>
     <use style="fill:#0000ff;" x="1064.84206913" xlink:href="#mb8410964a8" y="477.515562061"/>
     <use style="fill:#0000ff;" x="1069.30606913" xlink:href="#mb8410964a8" y="484.535977365"/>
     <use style="fill:#0000ff;" x="1073.77006913" xlink:href="#mb8410964a8" y="491.893141488"/>
     <use style="fill:#0000ff;" x="1078.23406913" xlink:href="#mb8410964a8" y="501.931112891"/>
    </g>
   </g>
   <g id="patch_8">
    <path d="M 636.298069 65.309078 
L 1082.698069 65.309078 
" style="fill:none;"/>
   </g>
   <g id="patch_9">
    <path d="M 1082.698069 511.709078 
L 1082.698069 65.309078 
" style="fill:none;"/>
   </g>
   <g id="patch_10">
    <path d="M 636.298069 511.709078 
L 1082.698069 511.709078 
" style="fill:none;"/>
   </g>
   <g id="patch_11">
    <path d="M 636.298069 511.709078 
L 636.298069 65.309078 
" style="fill:none;"/>
   </g>
   <g id="text_36">
    <!-- Expected values of -->
    <defs>
     <path d="M 22 -16.609375 
C 15.59375 -16.609375 15.203125 -16.203125 15.203125 -12.328125 
L 15.203125 6.28125 
C 18.09375 2.09375 22.296875 -0.59375 27.59375 -0.59375 
C 37.59375 -0.59375 47.703125 8.171875 47.703125 21.6875 
C 47.703125 34.234375 39 43.78125 28.703125 43.78125 
C 22.703125 43.78125 17.796875 40.5 15 36.53125 
L 15 43.78125 
L 3.09375 42.6875 
L 3.09375 40.109375 
C 9 40.109375 9.90625 39.5 9.90625 34.734375 
L 9.90625 -12.328125 
C 9.90625 -16.109375 9.5 -16.609375 3.09375 -16.609375 
L 3.09375 -19.1875 
C 5.5 -19 9.90625 -19 12.5 -19 
C 15.09375 -19 19.59375 -19 22 -19.1875 
z
M 15.203125 31.4375 
C 15.203125 32.84375 15.203125 34.921875 19.09375 38.609375 
C 19.59375 39.015625 23 42 28 42 
C 35.296875 42 41.296875 32.9375 41.296875 21.59375 
C 41.296875 10.25 34.90625 1 27 1 
C 23.40625 1 19.5 2.6875 16.5 7.375 
C 15.203125 9.5625 15.203125 10.15625 15.203125 11.75 
z
" id="CMR17-112"/>
     <path d="M 34.90625 35 
C 33 35 30.203125 35 30.203125 31.515625 
C 30.203125 28.71875 32.5 27.921875 33.796875 27.921875 
C 34.5 27.921875 37.40625 28.234375 37.40625 31.625 
C 37.40625 38.546875 30.59375 43.796875 22.90625 43.796875 
C 12.296875 43.796875 3.296875 34.03125 3.296875 21.296875 
C 3.296875 8.0625 12.703125 -1 22.90625 -1 
C 35.296875 -1 38.40625 10.578125 38.40625 11.6875 
C 38.40625 12.09375 38.296875 12.390625 37.59375 12.390625 
C 36.90625 12.390625 36.796875 12.296875 36.40625 10.984375 
C 33.796875 2.8125 28.09375 0.796875 23.796875 0.796875 
C 17.40625 0.796875 9.703125 6.671875 9.703125 21.390625 
C 9.703125 36.53125 17.09375 42 23 42 
C 26.90625 42 32.703125 40.203125 34.90625 35 
" id="CMR17-99"/>
     <path d="M 15.296875 40 
L 26.703125 40 
L 26.703125 42.578125 
L 15.09375 42.578125 
L 15.09375 54.59375 
C 15.09375 62.84375 19.296875 68 23.59375 68 
C 24.90625 68 26.40625 67.609375 27.40625 66.90625 
C 26.59375 66.703125 24.5 66.015625 24.5 63.53125 
C 24.5 60.953125 26.5 60.15625 27.90625 60.15625 
C 29.296875 60.15625 31.296875 60.953125 31.296875 63.546875 
C 31.296875 67.3125 27.703125 69.59375 23.703125 69.59375 
C 18 69.59375 10.203125 64.9375 10.203125 54.390625 
L 10.203125 42.578125 
L 2.203125 42.578125 
L 2.203125 40 
L 10.203125 40 
L 10.203125 6.671875 
C 10.203125 2.875 9.796875 2.390625 3.40625 2.390625 
L 3.40625 -0.203125 
C 5.796875 0 10.40625 0 13 0 
C 15.90625 0 21 0 23.703125 -0.203125 
L 23.703125 2.390625 
C 16.5 2.390625 15.296875 2.390625 15.296875 6.859375 
z
" id="CMR17-102"/>
    </defs>
    <g style="fill:#262626;" transform="translate(747.574391503 26.321972413)scale(0.3 -0.3)">
     <use transform="scale(0.996264009963)" xlink:href="#CMR17-69"/>
     <use transform="translate(62.5863005186 0.0)scale(0.996264009963)" xlink:href="#CMR17-120"/>
     <use transform="translate(110.879216366 0.0)scale(0.996264009963)" xlink:href="#CMR17-112"/>
     <use transform="translate(164.377024877 0.0)scale(0.996264009963)" xlink:href="#CMR17-101"/>
     <use transform="translate(204.86268534 0.0)scale(0.996264009963)" xlink:href="#CMR17-99"/>
     <use transform="translate(245.348345803 0.0)scale(0.996264009963)" xlink:href="#CMR17-116"/>
     <use transform="translate(280.629113602 0.0)scale(0.996264009963)" xlink:href="#CMR17-101"/>
     <use transform="translate(321.114774065 0.0)scale(0.996264009963)" xlink:href="#CMR17-100"/>
     <use transform="translate(402.086110192 0.0)scale(0.996264009963)" xlink:href="#CMR17-118"/>
     <use transform="translate(445.174209386 0.0)scale(0.996264009963)" xlink:href="#CMR17-97"/>
     <use transform="translate(490.864686503 0.0)scale(0.996264009963)" xlink:href="#CMR17-108"/>
     <use transform="translate(515.735744985 0.0)scale(0.996264009963)" xlink:href="#CMR17-117"/>
     <use transform="translate(566.631114765 0.0)scale(0.996264009963)" xlink:href="#CMR17-101"/>
     <use transform="translate(607.116775228 0.0)scale(0.996264009963)" xlink:href="#CMR17-115"/>
     <use transform="translate(672.99407921 0.0)scale(0.996264009963)" xlink:href="#CMR17-111"/>
     <use transform="translate(718.684556327 0.0)scale(0.996264009963)" xlink:href="#CMR17-102"/>
    </g>
    <!-- 100 (sorted) GUE eigenvalues -->
    <g style="fill:#262626;" transform="translate(681.603064497 59.0022625117)scale(0.3 -0.3)">
     <use transform="scale(0.996264009963)" xlink:href="#CMR17-49"/>
     <use transform="translate(45.6904771171 0.0)scale(0.996264009963)" xlink:href="#CMR17-48"/>
     <use transform="translate(91.3809542341 0.0)scale(0.996264009963)" xlink:href="#CMR17-48"/>
     <use transform="translate(167.147397698 0.0)scale(0.996264009963)" xlink:href="#CMR17-40"/>
     <use transform="translate(202.428165498 0.0)scale(0.996264009963)" xlink:href="#CMR17-115"/>
     <use transform="translate(238.229503133 0.0)scale(0.996264009963)" xlink:href="#CMR17-111"/>
     <use transform="translate(283.91998025 0.0)scale(0.996264009963)" xlink:href="#CMR17-114"/>
     <use transform="translate(319.200748049 0.0)scale(0.996264009963)" xlink:href="#CMR17-116"/>
     <use transform="translate(354.481515849 0.0)scale(0.996264009963)" xlink:href="#CMR17-101"/>
     <use transform="translate(394.967176311 0.0)scale(0.996264009963)" xlink:href="#CMR17-100"/>
     <use transform="translate(445.862546092 0.0)scale(0.996264009963)" xlink:href="#CMR17-41"/>
     <use transform="translate(511.219280238 0.0)scale(0.996264009963)" xlink:href="#CMR17-71"/>
     <use transform="translate(583.574626158 0.0)scale(0.996264009963)" xlink:href="#CMR17-85"/>
     <use transform="translate(652.647055962 0.0)scale(0.996264009963)" xlink:href="#CMR17-69"/>
     <use transform="translate(745.309322827 0.0)scale(0.996264009963)" xlink:href="#CMR17-101"/>
     <use transform="translate(785.79498329 0.0)scale(0.996264009963)" xlink:href="#CMR17-105"/>
     <use transform="translate(810.666041772 0.0)scale(0.996264009963)" xlink:href="#CMR17-103"/>
     <use transform="translate(856.356518889 0.0)scale(0.996264009963)" xlink:href="#CMR17-101"/>
     <use transform="translate(896.842179352 0.0)scale(0.996264009963)" xlink:href="#CMR17-110"/>
     <use transform="translate(945.1350952 0.0)scale(0.996264009963)" xlink:href="#CMR17-118"/>
     <use transform="translate(988.223194393 0.0)scale(0.996264009963)" xlink:href="#CMR17-97"/>
     <use transform="translate(1033.91367151 0.0)scale(0.996264009963)" xlink:href="#CMR17-108"/>
     <use transform="translate(1058.78472999 0.0)scale(0.996264009963)" xlink:href="#CMR17-117"/>
     <use transform="translate(1109.68009977 0.0)scale(0.996264009963)" xlink:href="#CMR17-101"/>
     <use transform="translate(1150.16576024 0.0)scale(0.996264009963)" xlink:href="#CMR17-115"/>
    </g>
   </g>
  </g>
 </g>
 <defs>
  <clipPath id="p8fdc9d4d82">
   <rect height="446.4" width="446.4" x="636.29806913" y="65.3090776531"/>
  </clipPath>
  <clipPath id="pbdc862dfa6">
   <rect height="446.4" width="446.4" x="78.2980691304" y="65.3090776531"/>
  </clipPath>
 </defs>
</svg>
