<?xml version="1.0" encoding="utf-8" standalone="no"?>
<!DOCTYPE svg PUBLIC "-//W3C//DTD SVG 1.1//EN"
  "http://www.w3.org/Graphics/SVG/1.1/DTD/svg11.dtd">
<!-- Created with matplotlib (http://matplotlib.org/) -->
<svg height="380pt" version="1.1" viewBox="0 0 670 380" width="670pt" xmlns="http://www.w3.org/2000/svg" xmlns:xlink="http://www.w3.org/1999/xlink">
 <defs>
  <style type="text/css">
*{stroke-linecap:butt;stroke-linejoin:round;stroke-miterlimit:100000;}
  </style>
 </defs>
 <g id="figure_1">
  <g id="patch_1">
   <path d="M 0 380.001549 
L 670.875145 380.001549 
L 670.875145 0 
L 0 0 
z
" style="fill:#ffffff;"/>
  </g>
  <g id="axes_1">
   <g id="patch_2">
    <path d="M 77.712505 317.307767 
L 653.712505 317.307767 
L 653.712505 29.307767 
L 77.712505 29.307767 
z
" style="fill:#eaeaf2;"/>
   </g>
   <g id="matplotlib.axis_1">
    <g id="xtick_1">
     <g id="line2d_1">
      <path clip-path="url(#p8a2dffdc34)" d="M 77.712505 317.307767 
L 77.712505 29.307767 
" style="fill:none;stroke:#ffffff;stroke-linecap:round;stroke-width:0.8;"/>
     </g>
     <g id="line2d_2">
      <defs>
       <path d="M 0 0 
L 0 0 
" id="m32a7b4a03e" style="stroke:#262626;stroke-width:0.8;"/>
      </defs>
      <g>
       <use style="fill:#262626;stroke:#262626;stroke-width:0.8;" x="77.7125046213" xlink:href="#m32a7b4a03e" y="317.307766651"/>
      </g>
     </g>
     <g id="line2d_3">
      <g>
       <use style="fill:#262626;stroke:#262626;stroke-width:0.8;" x="77.7125046213" xlink:href="#m32a7b4a03e" y="29.3077666514"/>
      </g>
     </g>
     <g id="text_1">
      <!-- $2$ -->
      <defs>
       <path d="M 1.59375 2.5 
L 1.59375 0 
C 20.296875 0 20.296875 0 23.90625 0 
C 27.5 0 27.5 0 46.796875 0 
C 46.59375 1.953125 46.59375 2.90625 46.59375 4.203125 
C 46.59375 5.4375 46.59375 6.359375 46.796875 8.421875 
C 35.296875 8.421875 30.703125 8.421875 12.203125 8.421875 
L 30.40625 27.515625 
C 40.09375 37.71875 43.09375 43.171875 43.09375 50.59375 
C 43.09375 61.96875 35.296875 69 22.59375 69 
C 15.40625 69 10.5 67 5.59375 62.015625 
L 3.90625 48.421875 
L 6.796875 48.421875 
L 8.09375 53.015625 
C 9.703125 58.796875 13.296875 61.296875 20 61.296875 
C 28.59375 61.296875 34.09375 55.890625 34.09375 47.421875 
C 34.09375 39.921875 29.90625 32.546875 18.59375 20.5625 
z
" id="URW_Palladio_L_Roman-50"/>
      </defs>
      <g style="fill:#262626;" transform="translate(72.7311845715 337.164241395)scale(0.2 -0.2)">
       <use transform="scale(0.996264009963)" xlink:href="#URW_Palladio_L_Roman-50"/>
      </g>
     </g>
    </g>
    <g id="xtick_2">
     <g id="line2d_4">
      <path clip-path="url(#p8a2dffdc34)" d="M 149.712505 317.307767 
L 149.712505 29.307767 
" style="fill:none;stroke:#ffffff;stroke-linecap:round;stroke-width:0.8;"/>
     </g>
     <g id="line2d_5">
      <g>
       <use style="fill:#262626;stroke:#262626;stroke-width:0.8;" x="149.712504621" xlink:href="#m32a7b4a03e" y="317.307766651"/>
      </g>
     </g>
     <g id="line2d_6">
      <g>
       <use style="fill:#262626;stroke:#262626;stroke-width:0.8;" x="149.712504621" xlink:href="#m32a7b4a03e" y="29.3077666514"/>
      </g>
     </g>
     <g id="text_2">
      <!-- $3$ -->
      <defs>
       <path d="M 4.296875 49.953125 
L 7.40625 49.953125 
L 9.203125 55.53125 
C 10.296875 58.90625 16.59375 62.296875 21.796875 62.296875 
C 28.296875 62.296875 33.59375 57.015625 33.59375 50.75 
C 33.59375 43.28125 27.703125 37 20.59375 37 
C 19.796875 37 18.703125 37 17.40625 37.203125 
L 15.90625 37.203125 
L 14.703125 31.984375 
L 15.40625 31.375 
C 19.203125 33.09375 21.09375 33.59375 23.796875 33.59375 
C 32.09375 33.59375 36.90625 28.265625 36.90625 19.09375 
C 36.90625 8.84375 30.796875 2.109375 21.5 2.109375 
C 16.90625 2.109375 12.796875 3.609375 9.796875 6.421875 
C 7.40625 8.640625 6.09375 10.953125 4.203125 16.390625 
L 1.5 15.390625 
C 3.59375 9.265625 4.40625 5.640625 5 0.609375 
C 10.296875 -1.203125 14.703125 -2 18.40625 -2 
C 26.40625 -2 35.59375 2.515625 41.09375 9.265625 
C 44.5 13.375 46.203125 17.8125 46.203125 22.53125 
C 46.203125 27.359375 44.203125 31.59375 40.59375 34.09375 
C 38.09375 35.90625 35.796875 36.71875 30.796875 37.609375 
C 38.796875 43.796875 41.796875 48.375 41.796875 54.25 
C 41.796875 63.125 34.40625 69 23.296875 69 
C 16.5 69 12 67.109375 7.203125 62.328125 
z
" id="URW_Palladio_L_Roman-51"/>
      </defs>
      <g style="fill:#262626;" transform="translate(144.731184572 337.164241395)scale(0.2 -0.2)">
       <use transform="scale(0.996264009963)" xlink:href="#URW_Palladio_L_Roman-51"/>
      </g>
     </g>
    </g>
    <g id="xtick_3">
     <g id="line2d_7">
      <path clip-path="url(#p8a2dffdc34)" d="M 221.712505 317.307767 
L 221.712505 29.307767 
" style="fill:none;stroke:#ffffff;stroke-linecap:round;stroke-width:0.8;"/>
     </g>
     <g id="line2d_8">
      <g>
       <use style="fill:#262626;stroke:#262626;stroke-width:0.8;" x="221.712504621" xlink:href="#m32a7b4a03e" y="317.307766651"/>
      </g>
     </g>
     <g id="line2d_9">
      <g>
       <use style="fill:#262626;stroke:#262626;stroke-width:0.8;" x="221.712504621" xlink:href="#m32a7b4a03e" y="29.3077666514"/>
      </g>
     </g>
     <g id="text_3">
      <!-- $4$ -->
      <defs>
       <path d="M 28 18 
L 28 10.515625 
C 28 4.515625 26.90625 3.109375 22 3.109375 
L 15.796875 3.109375 
L 15.796875 0 
C 29.09375 0 29.09375 0 31.5 0 
C 33.90625 0 33.90625 0 47.203125 0 
L 47.203125 3.109375 
L 42.40625 3.109375 
C 37.5 3.109375 36.40625 4.40625 36.40625 10.453125 
L 36.40625 18 
C 42.296875 18 44.40625 18 47.203125 17.703125 
L 47.203125 24.8125 
C 42.5 24.421875 40.59375 24.421875 39.09375 24.421875 
L 38.796875 24.421875 
L 36.40625 24.421875 
L 36.40625 38.390625 
C 36.40625 56.25 36.59375 64.875 37.09375 69 
L 35.90625 69.5 
L 28.5 66.796875 
L 0.203125 20.296875 
L 1.296875 18 
z
M 28 24.421875 
L 6.5 24.421875 
L 28 59.78125 
z
" id="URW_Palladio_L_Roman-52"/>
      </defs>
      <g style="fill:#262626;" transform="translate(216.731184572 337.164241395)scale(0.2 -0.2)">
       <use transform="scale(0.996264009963)" xlink:href="#URW_Palladio_L_Roman-52"/>
      </g>
     </g>
    </g>
    <g id="xtick_4">
     <g id="line2d_10">
      <path clip-path="url(#p8a2dffdc34)" d="M 293.712505 317.307767 
L 293.712505 29.307767 
" style="fill:none;stroke:#ffffff;stroke-linecap:round;stroke-width:0.8;"/>
     </g>
     <g id="line2d_11">
      <g>
       <use style="fill:#262626;stroke:#262626;stroke-width:0.8;" x="293.712504621" xlink:href="#m32a7b4a03e" y="317.307766651"/>
      </g>
     </g>
     <g id="line2d_12">
      <g>
       <use style="fill:#262626;stroke:#262626;stroke-width:0.8;" x="293.712504621" xlink:href="#m32a7b4a03e" y="29.3077666514"/>
      </g>
     </g>
     <g id="text_4">
      <!-- $5$ -->
      <defs>
       <path d="M 12.703125 60.578125 
C 25.59375 60.578125 31.203125 60.578125 43.203125 60.578125 
L 43.703125 61.046875 
C 43.5 62.75 43.5 63.5 43.5 64.75 
C 43.5 66.078125 43.5 66.828125 43.703125 68.53125 
L 43.203125 69 
C 35.703125 69 31.203125 69 25.796875 69 
C 20.296875 69 15.90625 69 8.40625 69 
L 7.90625 68.796875 
C 8 62.671875 8.09375 58.265625 8.09375 55.046875 
C 8.09375 46.515625 7.796875 36.875 7.5 32.453125 
L 9.5 31.84375 
C 14.203125 36.578125 16.90625 38 21.796875 38 
C 31.40625 38 37.40625 31.140625 37.40625 20.25 
C 37.40625 9.0625 31 2.5 20.09375 2.5 
C 14.703125 2.5 9.703125 4.328125 8.296875 6.9375 
L 3.703125 15.203125 
L 1.296875 13.796875 
C 3.59375 8.0625 4.796875 4.84375 6.203125 0.421875 
C 9 -1.109375 13 -2 17.296875 -2 
C 24 -2 31.09375 0.921875 36.59375 5.75 
C 42.703125 11.1875 45.90625 18.03125 45.90625 25.46875 
C 45.90625 36.859375 37.796875 44.90625 26.40625 44.90625 
C 21.59375 44.90625 18 43.609375 11.796875 39.90625 
z
" id="URW_Palladio_L_Roman-53"/>
      </defs>
      <g style="fill:#262626;" transform="translate(288.731184572 337.164241395)scale(0.2 -0.2)">
       <use transform="scale(0.996264009963)" xlink:href="#URW_Palladio_L_Roman-53"/>
      </g>
     </g>
    </g>
    <g id="xtick_5">
     <g id="line2d_13">
      <path clip-path="url(#p8a2dffdc34)" d="M 365.712505 317.307767 
L 365.712505 29.307767 
" style="fill:none;stroke:#ffffff;stroke-linecap:round;stroke-width:0.8;"/>
     </g>
     <g id="line2d_14">
      <g>
       <use style="fill:#262626;stroke:#262626;stroke-width:0.8;" x="365.712504621" xlink:href="#m32a7b4a03e" y="317.307766651"/>
      </g>
     </g>
     <g id="line2d_15">
      <g>
       <use style="fill:#262626;stroke:#262626;stroke-width:0.8;" x="365.712504621" xlink:href="#m32a7b4a03e" y="29.3077666514"/>
      </g>
     </g>
     <g id="text_5">
      <!-- $6$ -->
      <defs>
       <path d="M 41.59375 67.34375 
L 37.90625 69.046875 
C 28.296875 65.84375 24.203125 63.84375 19.09375 59.4375 
C 8.796875 50.71875 3.203125 38.5 3.203125 24.765625 
C 3.203125 8.21875 11.203125 -2 24.09375 -2 
C 37.09375 -2 46.796875 8.3125 46.796875 21.953125 
C 46.796875 33.484375 39.90625 41 29.296875 41 
C 24.296875 41 21.296875 39.6875 15.40625 34.984375 
C 14.296875 34.078125 14.203125 33.984375 13.09375 33.1875 
C 15.203125 51.3125 23.59375 61.140625 41.59375 66.546875 
z
M 25.5 34.984375 
C 33.09375 34.984375 38.203125 28.375 38.203125 18.453125 
C 38.203125 8.015625 33.09375 1.296875 25.40625 1.296875 
C 16.90625 1.296875 12.296875 8.609375 12.296875 22.0625 
C 12.296875 25.5625 12.703125 27.46875 13.796875 29.171875 
C 16 32.578125 20.703125 34.984375 25.5 34.984375 
" id="URW_Palladio_L_Roman-54"/>
      </defs>
      <g style="fill:#262626;" transform="translate(360.731184572 337.164241395)scale(0.2 -0.2)">
       <use transform="scale(0.996264009963)" xlink:href="#URW_Palladio_L_Roman-54"/>
      </g>
     </g>
    </g>
    <g id="xtick_6">
     <g id="line2d_16">
      <path clip-path="url(#p8a2dffdc34)" d="M 437.712505 317.307767 
L 437.712505 29.307767 
" style="fill:none;stroke:#ffffff;stroke-linecap:round;stroke-width:0.8;"/>
     </g>
     <g id="line2d_17">
      <g>
       <use style="fill:#262626;stroke:#262626;stroke-width:0.8;" x="437.712504621" xlink:href="#m32a7b4a03e" y="317.307766651"/>
      </g>
     </g>
     <g id="line2d_18">
      <g>
       <use style="fill:#262626;stroke:#262626;stroke-width:0.8;" x="437.712504621" xlink:href="#m32a7b4a03e" y="29.3077666514"/>
      </g>
     </g>
     <g id="text_6">
      <!-- $7$ -->
      <defs>
       <path d="M 5.59375 0.5 
L 6.5 -0.796875 
C 10.40625 -0.5 10.40625 -0.5 11.09375 -0.5 
C 11.796875 -0.5 11.796875 -0.5 15.703125 -0.796875 
C 19.90625 10.140625 24.796875 20.578125 31.40625 32.609375 
L 49.703125 65.609375 
L 49.703125 68.3125 
C 38.90625 68.3125 35.40625 68.3125 27.296875 68.3125 
C 20 68.3125 15.09375 68.3125 5.40625 68.3125 
L 4.40625 68.109375 
C 4.703125 58.59375 4.703125 58.59375 4.703125 57.578125 
C 4.703125 56.46875 4.703125 56.46875 4.40625 47.359375 
L 7.40625 47.359375 
L 8.09375 52.96875 
C 8.90625 59.203125 9.59375 60 14.203125 60 
L 40.90625 60 
C 36.90625 51.765625 33.796875 45.953125 30 39.828125 
z
" id="URW_Palladio_L_Roman-55"/>
      </defs>
      <g style="fill:#262626;" transform="translate(432.731184572 337.164241395)scale(0.2 -0.2)">
       <use transform="scale(0.996264009963)" xlink:href="#URW_Palladio_L_Roman-55"/>
      </g>
     </g>
    </g>
    <g id="xtick_7">
     <g id="line2d_19">
      <path clip-path="url(#p8a2dffdc34)" d="M 509.712505 317.307767 
L 509.712505 29.307767 
" style="fill:none;stroke:#ffffff;stroke-linecap:round;stroke-width:0.8;"/>
     </g>
     <g id="line2d_20">
      <g>
       <use style="fill:#262626;stroke:#262626;stroke-width:0.8;" x="509.712504621" xlink:href="#m32a7b4a03e" y="317.307766651"/>
      </g>
     </g>
     <g id="line2d_21">
      <g>
       <use style="fill:#262626;stroke:#262626;stroke-width:0.8;" x="509.712504621" xlink:href="#m32a7b4a03e" y="29.3077666514"/>
      </g>
     </g>
     <g id="text_7">
      <!-- $8$ -->
      <defs>
       <path d="M 16.796875 34.546875 
C 12.703125 32.65625 11 31.546875 8.796875 29.4375 
C 5 25.640625 3 21.125 3 15.921875 
C 3 5.609375 11.296875 -2 22.59375 -2 
C 35.59375 -2 46.40625 8.21875 46.40625 20.625 
C 46.40625 28.640625 42.703125 32.953125 31.296875 38.15625 
C 40.40625 44.375 43.59375 48.578125 43.59375 54.578125 
C 43.59375 63.1875 36.5 69 25.90625 69 
C 14 69 5.296875 61.390625 5.296875 50.890625 
C 5.296875 44.078125 8 40.265625 16.796875 34.546875 
M 28.40625 29.546875 
C 34.703125 26.734375 38.5 21.828125 38.5 16.4375 
C 38.5 8.015625 32.203125 1.40625 24.09375 1.40625 
C 15.59375 1.40625 10.09375 7.421875 10.09375 16.734375 
C 10.09375 24.03125 13 28.640625 20.40625 33.15625 
z
M 22.296875 42.375 
C 16 45.46875 12.796875 49.484375 12.796875 54.484375 
C 12.796875 61.09375 17.59375 65.59375 24.703125 65.59375 
C 32 65.59375 36.796875 60.796875 36.796875 53.46875 
C 36.796875 47.78125 34.296875 43.875 27.796875 39.65625 
z
" id="URW_Palladio_L_Roman-56"/>
      </defs>
      <g style="fill:#262626;" transform="translate(504.731184572 337.164241395)scale(0.2 -0.2)">
       <use transform="scale(0.996264009963)" xlink:href="#URW_Palladio_L_Roman-56"/>
      </g>
     </g>
    </g>
    <g id="xtick_8">
     <g id="line2d_22">
      <path clip-path="url(#p8a2dffdc34)" d="M 581.712505 317.307767 
L 581.712505 29.307767 
" style="fill:none;stroke:#ffffff;stroke-linecap:round;stroke-width:0.8;"/>
     </g>
     <g id="line2d_23">
      <g>
       <use style="fill:#262626;stroke:#262626;stroke-width:0.8;" x="581.712504621" xlink:href="#m32a7b4a03e" y="317.307766651"/>
      </g>
     </g>
     <g id="line2d_24">
      <g>
       <use style="fill:#262626;stroke:#262626;stroke-width:0.8;" x="581.712504621" xlink:href="#m32a7b4a03e" y="29.3077666514"/>
      </g>
     </g>
     <g id="text_8">
      <!-- $9$ -->
      <defs>
       <path d="M 9.59375 -1.65625 
C 20.703125 1.953125 25.5 4.25 30.90625 8.84375 
C 40.59375 17.15625 45.703125 28.671875 45.703125 42.078125 
C 45.703125 59 37.59375 69.296875 24.40625 69.296875 
C 11.59375 69.296875 2 59.296875 2 45.90625 
C 2 34.390625 9.5 26 19.90625 26 
C 23.296875 26 27.203125 27.09375 29 28.59375 
L 36 34.40625 
C 35.203125 17.578125 24.296875 5.25 6.203125 0.84375 
L 6.203125 0.046875 
z
M 24 66 
C 28.5 66 31.796875 64.09375 34 60.09375 
C 35.796875 56.890625 37 52 37 47.5 
C 37 38.296875 31.703125 32.109375 24 32.109375 
C 16 32.109375 10.59375 39.203125 10.59375 49.59375 
C 10.59375 59.703125 15.796875 66 24 66 
" id="URW_Palladio_L_Roman-57"/>
      </defs>
      <g style="fill:#262626;" transform="translate(576.731184572 337.164241395)scale(0.2 -0.2)">
       <use transform="scale(0.996264009963)" xlink:href="#URW_Palladio_L_Roman-57"/>
      </g>
     </g>
    </g>
    <g id="xtick_9">
     <g id="line2d_25">
      <path clip-path="url(#p8a2dffdc34)" d="M 653.712505 317.307767 
L 653.712505 29.307767 
" style="fill:none;stroke:#ffffff;stroke-linecap:round;stroke-width:0.8;"/>
     </g>
     <g id="line2d_26">
      <g>
       <use style="fill:#262626;stroke:#262626;stroke-width:0.8;" x="653.712504621" xlink:href="#m32a7b4a03e" y="317.307766651"/>
      </g>
     </g>
     <g id="line2d_27">
      <g>
       <use style="fill:#262626;stroke:#262626;stroke-width:0.8;" x="653.712504621" xlink:href="#m32a7b4a03e" y="29.3077666514"/>
      </g>
     </g>
     <g id="text_9">
      <!-- $10$ -->
      <defs>
       <path d="M 26.296875 69 
C 10.796875 69 2.90625 56.6875 2.90625 32.453125 
C 2.90625 20.71875 5 10.625 8.5 5.71875 
C 12 0.796875 17.59375 -2 23.796875 -2 
C 38.90625 -2 46.5 11.015625 46.5 36.65625 
C 46.5 58.578125 40 69 26.296875 69 
M 24.5 65.5 
C 34.203125 65.5 38.09375 55.6875 38.09375 31.640625 
C 38.09375 10.328125 34.296875 1.5 25.09375 1.5 
C 15.40625 1.5 11.296875 11.625 11.296875 36.0625 
C 11.296875 57.1875 15 65.5 24.5 65.5 
" id="URW_Palladio_L_Roman-48"/>
       <path d="M 6.703125 56 
L 7.703125 56 
L 20.59375 61.8125 
C 20.703125 61.90625 20.796875 61.90625 20.90625 61.90625 
C 21.5 61.90625 21.703125 61.015625 21.703125 58.609375 
L 21.703125 9.578125 
C 21.703125 4.3125 20.59375 3.203125 15.203125 3.203125 
L 9.59375 3.203125 
L 9.59375 0 
C 25 0 25 0 26.09375 0 
C 27.40625 0 29.59375 0 33 0 
C 34.203125 0 37.703125 0 41.796875 0 
L 41.796875 3.203125 
L 36.59375 3.203125 
C 31.09375 3.203125 30.09375 4.3125 30.09375 9.5625 
L 30.09375 69.421875 
L 28.703125 69.921875 
C 22.203125 66.515625 15.09375 63.515625 6 60.3125 
z
" id="URW_Palladio_L_Roman-49"/>
      </defs>
      <g style="fill:#262626;" transform="translate(643.749864522 337.164241395)scale(0.2 -0.2)">
       <use transform="scale(0.996264009963)" xlink:href="#URW_Palladio_L_Roman-49"/>
       <use transform="translate(49.8132004981 0.0)scale(0.996264009963)" xlink:href="#URW_Palladio_L_Roman-48"/>
      </g>
     </g>
    </g>
    <g id="text_10">
     <!-- Hilbert space dimension $d$ -->
     <defs>
      <path d="M 2.296875 66.5 
L 7.90625 66.5 
C 9.703125 66.5 10.40625 65.390625 10.40625 62.375 
L 10.40625 10.171875 
C 10.40625 3.8125 10.09375 3.109375 6.703125 3.109375 
L 2.09375 3.109375 
L 2.09375 0 
C 12.09375 0 12.09375 0 14.59375 0 
C 17.09375 0 17.09375 0 27.09375 0 
L 27.09375 3.109375 
L 22.5 3.109375 
C 19.09375 3.109375 18.796875 3.8125 18.796875 10.15625 
L 18.796875 72.203125 
L 17.90625 73.015625 
C 13.5 71.3125 10.203125 70.5 2.296875 69.296875 
z
" id="URW_Palladio_L_Roman-108"/>
      <path d="M 1 40.078125 
L 4.703125 40.078125 
C 8.703125 40.078125 9.09375 39.375 9.09375 32.734375 
L 9.09375 -17.84375 
C 9.09375 -24.1875 8.796875 -24.890625 5.40625 -24.890625 
L 0.796875 -24.890625 
L 0.796875 -28 
C 10.796875 -28 10.796875 -28 13.296875 -28 
C 15.796875 -28 15.796875 -28 25.796875 -28 
L 25.796875 -24.890625 
L 21.203125 -24.890625 
C 17.796875 -24.890625 17.5 -24.171875 17.5 -17.78125 
L 17.5 1.390625 
C 20.5 -0.40625 23.703125 -1.109375 28.203125 -1.109375 
C 31.09375 -1.109375 33.703125 -0.5 35.296875 0.5 
L 46.703125 7.890625 
C 50.703125 10.5 55.40625 20.78125 55.40625 27.1875 
C 55.40625 38.296875 46.203125 47 34.59375 47 
C 30.90625 47 27.296875 45.984375 25.703125 44.484375 
L 17.5 36.984375 
L 17.5 46.59375 
L 16.59375 47 
C 11.5 44.890625 6.296875 43.484375 1 42.890625 
z
M 17.5 30.6875 
C 17.5 32.078125 18 33.1875 19.296875 34.890625 
C 22.203125 38.578125 26.296875 40.484375 31.296875 40.484375 
C 40.703125 40.484375 46.703125 33.890625 46.703125 23.5 
C 46.703125 12.296875 40 4 31 4 
C 25.5 4 21.40625 5.8125 17.5 9.890625 
z
" id="URW_Palladio_L_Roman-112"/>
      <path d="M 27.90625 47 
C 13.296875 47 3.203125 36.671875 3.203125 21.75 
C 3.203125 7.609375 12.09375 -2 25 -2 
C 40.40625 -2 51.40625 8.71875 51.40625 23.75 
C 51.40625 37.28125 41.59375 47 27.90625 47 
M 26.09375 43.6875 
C 35.296875 43.6875 42.09375 33.671875 42.09375 20.046875 
C 42.09375 8.515625 37 1.296875 28.90625 1.296875 
C 19.09375 1.296875 12.5 10.921875 12.5 25.15625 
C 12.5 37.171875 17.296875 43.6875 26.09375 43.6875 
" id="URW_Palladio_L_Roman-111"/>
      <path d="M 41 -0.109375 
C 47.09375 -0.109375 47.203125 -0.109375 48.90625 -0.109375 
C 50.296875 -0.109375 50.296875 -0.109375 57.203125 -0.109375 
L 57.203125 2.796875 
L 53.09375 3.203125 
C 49.703125 3.203125 49.40625 3.8125 49.40625 10.21875 
L 49.40625 29.5625 
C 49.40625 41.28125 43.90625 47 32.703125 47 
C 29 47 26.90625 46.296875 24.796875 44.484375 
L 17.203125 37.875 
L 17.203125 46.59375 
L 16.296875 47 
C 11.203125 44.890625 6 43.484375 0.703125 42.890625 
L 0.703125 40.078125 
L 4.40625 40.078125 
C 8.40625 40.078125 8.796875 39.375 8.796875 32.71875 
L 8.796875 10.046875 
C 8.796875 3.703125 8.5 3 5.09375 3 
L 0.59375 3 
L 0.59375 -0.109375 
C 7.40625 -0.109375 10.09375 -0.109375 13 -0.109375 
C 15.90625 -0.109375 18.59375 -0.109375 25.40625 -0.109375 
L 25.40625 3 
L 20.90625 3 
C 17.5 3 17.203125 3.703125 17.203125 10.046875 
L 17.203125 31.421875 
C 17.203125 35.9375 23.796875 40.875 29.90625 40.875 
C 36.59375 40.875 41 35.890625 41 28.21875 
z
" id="URW_Palladio_L_Roman-110"/>
      <path d="M 41.203125 43.78125 
C 35.59375 46.1875 32.796875 47 29.296875 47 
C 26.59375 47 24.203125 46.390625 21.703125 45.109375 
L 12.90625 40.515625 
C 7.203125 37.515625 3.5 30.234375 3.5 21.75 
C 3.5 13.765625 6.203125 7.1875 11.09375 3.1875 
C 14.5 0.296875 19.203125 -1 25.703125 -1 
C 27.703125 -1 30 -0.59375 30.5 -0.203125 
L 41.59375 9.109375 
L 41.09375 -0.109375 
C 46 -0.109375 47.59375 -0.109375 48.796875 -0.109375 
C 49.59375 -0.109375 51 -0.109375 53.09375 -0.109375 
C 53.796875 -0.109375 55.796875 -0.109375 57.90625 -0.109375 
L 57.90625 3 
L 53.296875 3 
C 49.90625 3 49.59375 3.703125 49.59375 10.046875 
L 49.59375 71.984375 
L 48.703125 72.796875 
C 44.296875 71.09375 41 70.28125 33.09375 69.078125 
L 33.09375 66.28125 
L 38.703125 66.28125 
C 40.5 66.28125 41.203125 65.171875 41.203125 62.15625 
z
M 41.203125 22.25 
C 41.203125 15.765625 41 14.78125 39.703125 12.484375 
C 36.90625 7.796875 32 4.71875 27.296875 4.71875 
C 18.5 4.71875 12.203125 13.1875 12.203125 25.046875 
C 12.203125 35.90625 17.59375 42.28125 26.59375 42.28125 
C 30.40625 42.28125 34.40625 40.984375 37.90625 38.59375 
C 40 37.203125 41.203125 35.90625 41.203125 35.09375 
z
" id="URW_Palladio_L_Roman-100"/>
      <path d="M 43.703125 6.984375 
L 42.40625 7.984375 
C 36 4.203125 33.703125 3.3125 29.40625 3.3125 
C 22.90625 3.3125 17.5 6.21875 14.703125 11.109375 
C 12.796875 14.390625 12.09375 17.203125 11.90625 23 
L 26.5 23 
C 33.40625 23 37.703125 23 44.59375 24.125 
C 44.703125 25.53125 44.796875 26.453125 44.796875 27.671875 
C 44.796875 39.375 37.40625 47 26.203125 47 
C 22.5 47 18.203125 45.6875 14.09375 43.28125 
C 5.90625 38.578125 2.59375 32.359375 2.59375 21.9375 
C 2.59375 15.625 4.09375 10.21875 6.796875 6.40625 
C 10.796875 1.109375 17.5 -2 25 -2 
C 28.703125 -2 32.40625 -1.203125 36.5 0.578125 
C 39.203125 1.6875 41.296875 2.984375 41.703125 3.59375 
z
M 35.90625 26.40625 
C 30.703125 26.40625 28.296875 26.40625 24.703125 26.40625 
C 20.09375 26.40625 17.5 26.40625 12.09375 26.90625 
C 12.09375 31.671875 12.5 33.890625 13.796875 36.515625 
C 15.90625 40.96875 20.203125 43.6875 25 43.6875 
C 28.296875 43.6875 30.90625 42.359375 32.703125 39.59375 
C 34.90625 36.234375 35.59375 33.265625 35.90625 26.40625 
" id="URW_Palladio_L_Roman-101"/>
      <path d="M 4.09375 14.328125 
C 4.09375 7.421875 3.796875 4.40625 3 0.40625 
C 8.203125 -1.296875 12.09375 -2 16.703125 -2 
C 29.796875 -2 39.09375 5.015625 39.09375 14.828125 
C 39.09375 17.9375 38.203125 20.234375 36.296875 22.25 
C 33.703125 24.75 30.40625 25.953125 21.59375 27.65625 
C 13.40625 29.265625 10.703125 31.265625 10.703125 35.875 
C 10.703125 40.875 14.203125 43.6875 20.296875 43.6875 
C 27 43.6875 32.09375 40.1875 32.09375 35.46875 
L 32.09375 33.171875 
L 34.90625 33.171875 
C 35 38.984375 35.09375 41.375 35.40625 44.484375 
C 30.09375 46.296875 26.5 47 22.40625 47 
C 10.796875 47 3.703125 41.484375 3.703125 32.46875 
C 3.703125 27.65625 5.90625 24.25 10.5 22.140625 
C 13.203125 20.9375 18.5 19.34375 25.296875 17.828125 
C 29.796875 16.828125 31.703125 14.734375 31.703125 10.921875 
C 31.703125 5.515625 26.703125 1.703125 19.59375 1.703125 
C 12.296875 1.703125 7.09375 5.203125 7.09375 10.21875 
L 7.09375 14.328125 
z
" id="URW_Palladio_L_Roman-115"/>
      <path d="M 2.296875 40.078125 
L 6 40.078125 
C 10 40.078125 10.40625 39.375 10.40625 32.71875 
L 10.40625 10.046875 
C 10.40625 3.703125 10.09375 3 6.703125 3 
L 2.09375 3 
L 2.09375 -0.109375 
C 9.296875 -0.109375 11.90625 -0.109375 14.40625 -0.109375 
C 16.40625 -0.109375 16.40625 -0.109375 28.703125 -0.109375 
L 28.703125 3 
L 23.5 3 
C 19 3 18.796875 3.296875 18.796875 9.96875 
L 18.796875 27.359375 
C 18.796875 33.421875 22.796875 38.484375 27.703125 38.484375 
C 30.703125 38.484375 32.796875 37.078125 34.40625 33.890625 
L 36.5 33.890625 
L 37.40625 45.890625 
C 36.296875 46.59375 34.5 47 32.703125 47 
C 29.703125 47 26.5 45.390625 24.40625 42.890625 
L 18.796875 36.28125 
L 18.796875 46.59375 
L 17.90625 47 
C 12.796875 44.890625 7.59375 43.484375 2.296875 42.890625 
z
" id="URW_Palladio_L_Roman-114"/>
      <path d="M 18.796875 46.765625 
L 17.90625 47.171875 
C 12.796875 45.0625 7.59375 43.640625 2.296875 43.046875 
L 2.296875 40.25 
L 6 40.25 
C 10 40.25 10.40625 39.546875 10.40625 32.890625 
L 10.40625 10.171875 
C 10.40625 3.8125 10.09375 3.109375 6.703125 3.109375 
L 2.09375 3.109375 
L 2.09375 0 
C 12.09375 0 12.09375 0 14.59375 0 
C 17.09375 0 17.09375 0 27.09375 0 
L 27.09375 3.109375 
L 22.5 3.109375 
C 19.09375 3.109375 18.796875 3.8125 18.796875 10.171875 
z
M 14.203125 69 
C 11.203125 69 8.59375 66.390625 8.59375 63.375 
C 8.59375 60.46875 11.203125 57.875 14.09375 57.875 
C 17 57.875 19.703125 60.46875 19.703125 63.375 
C 19.703125 66.1875 17 69 14.203125 69 
" id="URW_Palladio_L_Roman-105"/>
      <path d="M 39.90625 31.15625 
C 39.90625 35.765625 40.40625 39.875 41.296875 43.484375 
C 37.296875 45.890625 33.796875 47 29.703125 47 
C 24.90625 47 19.296875 45.09375 13.296875 41.28125 
C 6.296875 36.875 2.59375 29.859375 2.59375 21.046875 
C 2.59375 7.515625 12.09375 -2 25.5 -2 
C 30.703125 -2 38.203125 -0.09375 39.203125 1.40625 
L 41.296875 4.609375 
L 40.296875 6.109375 
C 36.59375 4.109375 33.40625 3.203125 29.796875 3.203125 
C 18.703125 3.203125 11.40625 11.828125 11.40625 25.046875 
C 11.40625 35.765625 16.40625 41.78125 25.40625 41.78125 
C 29.796875 41.78125 34.59375 39.78125 36.40625 37.28125 
L 37.09375 31.15625 
z
" id="URW_Palladio_L_Roman-99"/>
      <path d="M 15 72.1875 
L 14.09375 73 
C 9.703125 71.296875 6.40625 70.484375 -1.5 69.28125 
L -1.5 66.484375 
L 4.09375 66.484375 
C 5.90625 66.484375 6.59375 65.375 6.59375 62.359375 
L 6.59375 15.453125 
C 6.59375 9.234375 6.5 6.5 5.796875 -0.515625 
L 7.40625 -1.109375 
L 11.40625 2.5 
C 15.40625 -0.109375 19 -1.109375 24.296875 -1.109375 
C 28.203125 -1.109375 30.796875 -0.40625 32.90625 1.09375 
L 42.90625 8.296875 
C 47.296875 11.484375 50.796875 19.78125 50.796875 27.078125 
C 50.796875 38.6875 43.296875 47 32.703125 47 
C 28 47 23.09375 45.1875 20.5 42.578125 
L 15 36.984375 
z
M 15 30.890625 
C 15 32.28125 16 34.078125 17.59375 35.890625 
C 20.40625 38.78125 24.296875 40.484375 28.40625 40.484375 
C 36.796875 40.484375 42.09375 33.6875 42.09375 23 
C 42.09375 11.796875 36.09375 4 27.59375 4 
C 22.40625 4 15 7.1875 15 9.390625 
z
" id="URW_Palladio_L_Roman-98"/>
      <path d="M 1.796875 40.078125 
L 5.5 40.078125 
C 9.5 40.078125 9.90625 39.375 9.90625 32.71875 
L 9.90625 10.046875 
C 9.90625 3.703125 9.59375 3 6.203125 3 
L 1.59375 3 
L 1.59375 -0.109375 
C 11.203125 -0.109375 11.5 -0.109375 14.296875 -0.109375 
C 17.09375 -0.109375 19.703125 -0.109375 26.203125 -0.109375 
L 26.203125 2.796875 
L 22 3.203125 
C 18.59375 3.203125 18.296875 3.90625 18.296875 10.21875 
L 18.296875 31.46875 
C 18.296875 35.96875 24.90625 40.875 30.90625 40.875 
C 36.296875 40.875 40 35.734375 40 28.09375 
L 40 10.046875 
C 40 3.703125 39.703125 3 36.296875 3 
L 31.703125 3 
L 31.703125 -0.109375 
C 41.703125 -0.109375 41.703125 -0.109375 44.203125 -0.109375 
C 46.703125 -0.109375 46.703125 -0.109375 56.703125 -0.109375 
L 56.703125 3 
L 52.09375 3 
C 48.703125 3 48.40625 3.703125 48.40625 10.046875 
L 48.40625 31.421875 
C 48.40625 35.9375 55 40.875 61 40.875 
C 66.40625 40.875 70.09375 35.78125 70.09375 28.21875 
L 70.09375 -0.109375 
C 76.203125 -0.109375 76.296875 -0.109375 78 -0.109375 
C 79.296875 -0.109375 79.296875 -0.109375 86.90625 -0.109375 
L 86.90625 3 
L 82.203125 3 
C 78.796875 3 78.5 3.703125 78.5 10.046875 
L 78.5 30.78125 
C 78.5 40.75 72.703125 47 63.5 47 
C 60 47 57.09375 46.09375 55.296875 44.484375 
L 47.703125 37.6875 
C 44.5 44.28125 40.40625 47 33.5 47 
C 29.796875 47 27 46.09375 25.203125 44.484375 
L 18.296875 38.078125 
L 18.296875 46.59375 
L 17.40625 47 
C 12.296875 44.890625 7.09375 43.484375 1.796875 42.890625 
z
" id="URW_Palladio_L_Roman-109"/>
      <path d="M 48.296875 72.171875 
L 47.09375 73.265625 
C 41.90625 70.6875 38.296875 69.78125 31.09375 69.09375 
L 30.703125 67 
L 35.5 67 
C 37.90625 67 38.90625 66.28125 38.90625 64.578125 
C 38.90625 63.765625 38.796875 62.859375 38.703125 62.15625 
L 35.90625 46.609375 
C 32.90625 47.5 30.203125 48 27.703125 48 
C 20.796875 48 11.40625 40.84375 6.796875 32.1875 
C 3.703125 26.4375 1.703125 16.984375 1.703125 8.640625 
C 1.703125 2.1875 3.203125 -1 6.09375 -1 
C 8.796875 -1 12.5 0.6875 15.90625 3.359375 
C 21.296875 7.75 24.59375 11.609375 31.296875 21.65625 
L 29 12.53125 
C 27.90625 8.125 27.40625 4.921875 27.40625 2.296875 
C 27.40625 0.203125 28.296875 -1 30 -1 
C 31.703125 -1 34.09375 0.203125 37.5 2.734375 
L 45.59375 8.828125 
L 44.59375 10.71875 
L 40.203125 7.640625 
C 38.796875 6.65625 37.203125 5.953125 36.296875 5.953125 
C 35.5 5.953125 34.90625 6.84375 34.90625 8.25 
C 34.90625 9.0625 35 9.953125 35.703125 12.84375 
z
M 33.703125 34.984375 
C 31.90625 26.234375 27 17.484375 20.796875 11.609375 
C 17.296875 8.34375 13.296875 5.953125 11.40625 5.953125 
C 9.796875 5.953125 8.90625 7.34375 8.90625 9.828125 
C 8.90625 22.359375 13.5 37.859375 18.40625 41.625 
C 19.703125 42.625 21.59375 43.125 24.296875 43.125 
C 28.703125 43.125 31.59375 42.515625 34.90625 40.84375 
z
" id="URW_Palladio_L_Italic-100"/>
      <path d="M 61.59375 12.078125 
C 61.59375 4.015625 61.09375 3.203125 56.5 3.203125 
L 51.703125 3.203125 
L 51.703125 0 
C 57.59375 0 61.09375 0 66.296875 0 
C 71.5 0 75.09375 0 81 0 
L 81 3.203125 
L 76.203125 3.203125 
C 71.59375 3.203125 71.09375 4 71.09375 11.96875 
L 71.09375 57.234375 
C 71.09375 65.1875 71.59375 66 76.203125 66 
L 81 66 
L 81 69.109375 
C 73.703125 69.109375 71.5 69.109375 66.296875 69.109375 
C 61.296875 69.109375 58.90625 69.109375 51.703125 69.109375 
L 51.703125 66 
L 56.5 66 
C 61.09375 66 61.59375 65.1875 61.59375 57.3125 
L 61.59375 39.515625 
C 59.5 39.515625 57.40625 39.515625 53.296875 39.515625 
L 29.90625 39.515625 
C 25.796875 39.515625 23.59375 39.515625 21.59375 39.515625 
L 21.59375 57.3125 
C 21.59375 65.1875 22.09375 66 26.703125 66 
L 31.5 66 
L 31.5 69.109375 
C 24.203125 69.109375 22 69.109375 16.796875 69.109375 
C 11.796875 69.109375 9.40625 69.109375 2.203125 69.109375 
L 2.203125 66 
L 7 66 
C 11.59375 66 12.09375 65.1875 12.09375 57.234375 
L 12.09375 11.96875 
C 12.09375 4 11.59375 3.203125 7 3.203125 
L 2.203125 3.203125 
L 2.203125 0 
C 8.09375 0 11.59375 0 16.796875 0 
C 22 0 25.59375 0 31.5 0 
L 31.5 3.203125 
L 26.703125 3.203125 
C 22.09375 3.203125 21.59375 4.015625 21.59375 12.078125 
L 21.59375 34.796875 
C 24.296875 35 25.90625 35 29.90625 35 
L 53.296875 35 
C 57.296875 35 58.90625 35 61.59375 34.796875 
z
" id="URW_Palladio_L_Roman-72"/>
      <path d="M 9.796875 38.6875 
L 9.796875 9.671875 
C 9.796875 2.21875 13.09375 -1 20.796875 -1 
C 23.09375 -1 25.5 -0.5 26.09375 0.203125 
L 30.90625 5.515625 
L 29.59375 7.234375 
C 27.09375 5.8125 25.59375 5.3125 23.703125 5.3125 
C 19.796875 5.3125 18.203125 7.34375 18.203125 12.3125 
L 18.203125 38.890625 
L 31 38.890625 
L 31.90625 44 
L 18.203125 44 
L 18.203125 47.75 
C 18.203125 51.890625 18.5 55.421875 19.296875 61.734375 
L 18.09375 62.828125 
C 15.703125 61.328125 12.703125 60.03125 9.59375 59.03125 
C 9.90625 56.015625 10 54.109375 10 51.109375 
L 10 44.09375 
L 2.203125 40.59375 
L 2.203125 38.6875 
z
" id="URW_Palladio_L_Roman-116"/>
      <path d="M 32.40625 8.40625 
L 31.90625 -0.015625 
C 38.40625 -0.015625 38.40625 -0.015625 39.703125 -0.015625 
C 40.203125 -0.015625 42.703125 -0.015625 47.09375 -0.015625 
L 47.09375 3 
L 43.203125 3 
C 40.796875 3 40.40625 3.8125 40.40625 8.71875 
L 40.40625 27.046875 
C 40.40625 41.6875 36.203125 47 24.59375 47 
C 20.296875 47 16.296875 45.890625 12.5 43.609375 
L 7.203125 40.390625 
L 7.203125 33.921875 
L 9.796875 33.21875 
L 11.09375 36.296875 
C 13.203125 40.984375 14.203125 41.6875 18.796875 41.6875 
C 28.203125 41.6875 32.09375 37.984375 32.40625 28.9375 
L 22.5 27.125 
C 8.90625 24.640625 3.203125 19.953125 3.203125 11.28125 
C 3.203125 3.5 7.90625 -1 15.796875 -1 
C 17.59375 -1 19.296875 -0.703125 20 -0.203125 
z
M 32.40625 12.59375 
C 29.5 8.5 23.203125 4.71875 19.296875 4.71875 
C 15.296875 4.71875 11.796875 8.40625 11.796875 12.6875 
C 11.796875 16.375 13.796875 19.859375 16.796875 21.75 
C 19.296875 23.25 24.796875 24.640625 32.40625 25.75 
z
" id="URW_Palladio_L_Roman-97"/>
     </defs>
     <g style="fill:#262626;" transform="translate(221.673093088 365.778021263)scale(0.25 -0.25)">
      <use transform="scale(0.996264009963)" xlink:href="#URW_Palladio_L_Roman-72"/>
      <use transform="translate(82.8886609297 0.0)scale(0.996264009963)" xlink:href="#URW_Palladio_L_Roman-105"/>
      <use transform="translate(111.879022392 0.0)scale(0.996264009963)" xlink:href="#URW_Palladio_L_Roman-108"/>
      <use transform="translate(140.869383854 0.0)scale(0.996264009963)" xlink:href="#URW_Palladio_L_Roman-98"/>
      <use transform="translate(195.961783327 0.0)scale(0.996264009963)" xlink:href="#URW_Palladio_L_Roman-101"/>
      <use transform="translate(243.682078436 0.0)scale(0.996264009963)" xlink:href="#URW_Palladio_L_Roman-114"/>
      <use transform="translate(283.033974767 0.0)scale(0.996264009963)" xlink:href="#URW_Palladio_L_Roman-116"/>
      <use transform="translate(340.41766289 0.0)scale(0.996264009963)" xlink:href="#URW_Palladio_L_Roman-115"/>
      <use transform="translate(382.659129218 0.0)scale(0.996264009963)" xlink:href="#URW_Palladio_L_Roman-112"/>
      <use transform="translate(442.533522971 0.0)scale(0.996264009963)" xlink:href="#URW_Palladio_L_Roman-97"/>
      <use transform="translate(492.346723469 0.0)scale(0.996264009963)" xlink:href="#URW_Palladio_L_Roman-99"/>
      <use transform="translate(536.580292166 0.0)scale(0.996264009963)" xlink:href="#URW_Palladio_L_Roman-101"/>
      <use transform="translate(609.207187524 0.0)scale(0.996264009963)" xlink:href="#URW_Palladio_L_Roman-100"/>
      <use transform="translate(670.078818201 0.0)scale(0.996264009963)" xlink:href="#URW_Palladio_L_Roman-105"/>
      <use transform="translate(699.069179663 0.0)scale(0.996264009963)" xlink:href="#URW_Palladio_L_Roman-109"/>
      <use transform="translate(787.038853932 0.0)scale(0.996264009963)" xlink:href="#URW_Palladio_L_Roman-101"/>
      <use transform="translate(834.759149041 0.0)scale(0.996264009963)" xlink:href="#URW_Palladio_L_Roman-110"/>
      <use transform="translate(892.741209721 0.0)scale(0.996264009963)" xlink:href="#URW_Palladio_L_Roman-115"/>
      <use transform="translate(934.982676049 0.0)scale(0.996264009963)" xlink:href="#URW_Palladio_L_Roman-105"/>
      <use transform="translate(963.973037511 0.0)scale(0.996264009963)" xlink:href="#URW_Palladio_L_Roman-111"/>
      <use transform="translate(1018.36861768 0.0)scale(0.996264009963)" xlink:href="#URW_Palladio_L_Roman-110"/>
      <use transform="translate(1102.50257822 0.0)scale(0.996264009963)" xlink:href="#URW_Palladio_L_Italic-100"/>
     </g>
    </g>
   </g>
   <g id="matplotlib.axis_2">
    <g id="ytick_1">
     <g id="line2d_28">
      <path clip-path="url(#p8a2dffdc34)" d="M 77.712505 317.307767 
L 653.712505 317.307767 
" style="fill:none;stroke:#ffffff;stroke-linecap:round;stroke-width:0.8;"/>
     </g>
     <g id="line2d_29">
      <g>
       <use style="fill:#262626;stroke:#262626;stroke-width:0.8;" x="77.7125046213" xlink:href="#m32a7b4a03e" y="317.307766651"/>
      </g>
     </g>
     <g id="line2d_30">
      <g>
       <use style="fill:#262626;stroke:#262626;stroke-width:0.8;" x="653.712504621" xlink:href="#m32a7b4a03e" y="317.307766651"/>
      </g>
     </g>
     <g id="text_11">
      <!-- $10^{0}$ -->
      <g style="fill:#262626;" transform="translate(44.6156726728 321.626593025)scale(0.2 -0.2)">
       <use transform="scale(0.996264009963)" xlink:href="#URW_Palladio_L_Roman-49"/>
       <use transform="translate(49.8132004981 0.0)scale(0.996264009963)" xlink:href="#URW_Palladio_L_Roman-48"/>
       <use transform="translate(99.6264009963 36.1643714002)scale(0.75715517493)" xlink:href="#URW_Palladio_L_Roman-48"/>
      </g>
     </g>
    </g>
    <g id="ytick_2">
     <g id="line2d_31">
      <path clip-path="url(#p8a2dffdc34)" d="M 77.712505 288.507767 
L 653.712505 288.507767 
" style="fill:none;stroke:#ffffff;stroke-linecap:round;stroke-width:0.8;"/>
     </g>
     <g id="line2d_32">
      <g>
       <use style="fill:#262626;stroke:#262626;stroke-width:0.8;" x="77.7125046213" xlink:href="#m32a7b4a03e" y="288.507766651"/>
      </g>
     </g>
     <g id="line2d_33">
      <g>
       <use style="fill:#262626;stroke:#262626;stroke-width:0.8;" x="653.712504621" xlink:href="#m32a7b4a03e" y="288.507766651"/>
      </g>
     </g>
     <g id="text_12">
      <!-- $10^{1}$ -->
      <g style="fill:#262626;" transform="translate(44.6156726728 292.826593025)scale(0.2 -0.2)">
       <use transform="scale(0.996264009963)" xlink:href="#URW_Palladio_L_Roman-49"/>
       <use transform="translate(49.8132004981 0.0)scale(0.996264009963)" xlink:href="#URW_Palladio_L_Roman-48"/>
       <use transform="translate(99.6264009963 36.1643714002)scale(0.75715517493)" xlink:href="#URW_Palladio_L_Roman-49"/>
      </g>
     </g>
    </g>
    <g id="ytick_3">
     <g id="line2d_34">
      <path clip-path="url(#p8a2dffdc34)" d="M 77.712505 259.707767 
L 653.712505 259.707767 
" style="fill:none;stroke:#ffffff;stroke-linecap:round;stroke-width:0.8;"/>
     </g>
     <g id="line2d_35">
      <g>
       <use style="fill:#262626;stroke:#262626;stroke-width:0.8;" x="77.7125046213" xlink:href="#m32a7b4a03e" y="259.707766651"/>
      </g>
     </g>
     <g id="line2d_36">
      <g>
       <use style="fill:#262626;stroke:#262626;stroke-width:0.8;" x="653.712504621" xlink:href="#m32a7b4a03e" y="259.707766651"/>
      </g>
     </g>
     <g id="text_13">
      <!-- $10^{2}$ -->
      <g style="fill:#262626;" transform="translate(44.6156726728 264.026593025)scale(0.2 -0.2)">
       <use transform="scale(0.996264009963)" xlink:href="#URW_Palladio_L_Roman-49"/>
       <use transform="translate(49.8132004981 0.0)scale(0.996264009963)" xlink:href="#URW_Palladio_L_Roman-48"/>
       <use transform="translate(99.6264009963 36.1643714002)scale(0.75715517493)" xlink:href="#URW_Palladio_L_Roman-50"/>
      </g>
     </g>
    </g>
    <g id="ytick_4">
     <g id="line2d_37">
      <path clip-path="url(#p8a2dffdc34)" d="M 77.712505 230.907767 
L 653.712505 230.907767 
" style="fill:none;stroke:#ffffff;stroke-linecap:round;stroke-width:0.8;"/>
     </g>
     <g id="line2d_38">
      <g>
       <use style="fill:#262626;stroke:#262626;stroke-width:0.8;" x="77.7125046213" xlink:href="#m32a7b4a03e" y="230.907766651"/>
      </g>
     </g>
     <g id="line2d_39">
      <g>
       <use style="fill:#262626;stroke:#262626;stroke-width:0.8;" x="653.712504621" xlink:href="#m32a7b4a03e" y="230.907766651"/>
      </g>
     </g>
     <g id="text_14">
      <!-- $10^{3}$ -->
      <g style="fill:#262626;" transform="translate(44.6156726728 235.226593025)scale(0.2 -0.2)">
       <use transform="scale(0.996264009963)" xlink:href="#URW_Palladio_L_Roman-49"/>
       <use transform="translate(49.8132004981 0.0)scale(0.996264009963)" xlink:href="#URW_Palladio_L_Roman-48"/>
       <use transform="translate(99.6264009963 36.1643714002)scale(0.75715517493)" xlink:href="#URW_Palladio_L_Roman-51"/>
      </g>
     </g>
    </g>
    <g id="ytick_5">
     <g id="line2d_40">
      <path clip-path="url(#p8a2dffdc34)" d="M 77.712505 202.107767 
L 653.712505 202.107767 
" style="fill:none;stroke:#ffffff;stroke-linecap:round;stroke-width:0.8;"/>
     </g>
     <g id="line2d_41">
      <g>
       <use style="fill:#262626;stroke:#262626;stroke-width:0.8;" x="77.7125046213" xlink:href="#m32a7b4a03e" y="202.107766651"/>
      </g>
     </g>
     <g id="line2d_42">
      <g>
       <use style="fill:#262626;stroke:#262626;stroke-width:0.8;" x="653.712504621" xlink:href="#m32a7b4a03e" y="202.107766651"/>
      </g>
     </g>
     <g id="text_15">
      <!-- $10^{4}$ -->
      <g style="fill:#262626;" transform="translate(44.6156726728 206.426593025)scale(0.2 -0.2)">
       <use transform="scale(0.996264009963)" xlink:href="#URW_Palladio_L_Roman-49"/>
       <use transform="translate(49.8132004981 0.0)scale(0.996264009963)" xlink:href="#URW_Palladio_L_Roman-48"/>
       <use transform="translate(99.6264009963 36.1643714002)scale(0.75715517493)" xlink:href="#URW_Palladio_L_Roman-52"/>
      </g>
     </g>
    </g>
    <g id="ytick_6">
     <g id="line2d_43">
      <path clip-path="url(#p8a2dffdc34)" d="M 77.712505 173.307767 
L 653.712505 173.307767 
" style="fill:none;stroke:#ffffff;stroke-linecap:round;stroke-width:0.8;"/>
     </g>
     <g id="line2d_44">
      <g>
       <use style="fill:#262626;stroke:#262626;stroke-width:0.8;" x="77.7125046213" xlink:href="#m32a7b4a03e" y="173.307766651"/>
      </g>
     </g>
     <g id="line2d_45">
      <g>
       <use style="fill:#262626;stroke:#262626;stroke-width:0.8;" x="653.712504621" xlink:href="#m32a7b4a03e" y="173.307766651"/>
      </g>
     </g>
     <g id="text_16">
      <!-- $10^{5}$ -->
      <g style="fill:#262626;" transform="translate(44.6156726728 177.626593025)scale(0.2 -0.2)">
       <use transform="scale(0.996264009963)" xlink:href="#URW_Palladio_L_Roman-49"/>
       <use transform="translate(49.8132004981 0.0)scale(0.996264009963)" xlink:href="#URW_Palladio_L_Roman-48"/>
       <use transform="translate(99.6264009963 36.1643714002)scale(0.75715517493)" xlink:href="#URW_Palladio_L_Roman-53"/>
      </g>
     </g>
    </g>
    <g id="ytick_7">
     <g id="line2d_46">
      <path clip-path="url(#p8a2dffdc34)" d="M 77.712505 144.507767 
L 653.712505 144.507767 
" style="fill:none;stroke:#ffffff;stroke-linecap:round;stroke-width:0.8;"/>
     </g>
     <g id="line2d_47">
      <g>
       <use style="fill:#262626;stroke:#262626;stroke-width:0.8;" x="77.7125046213" xlink:href="#m32a7b4a03e" y="144.507766651"/>
      </g>
     </g>
     <g id="line2d_48">
      <g>
       <use style="fill:#262626;stroke:#262626;stroke-width:0.8;" x="653.712504621" xlink:href="#m32a7b4a03e" y="144.507766651"/>
      </g>
     </g>
     <g id="text_17">
      <!-- $10^{6}$ -->
      <g style="fill:#262626;" transform="translate(44.6156726728 148.826593025)scale(0.2 -0.2)">
       <use transform="scale(0.996264009963)" xlink:href="#URW_Palladio_L_Roman-49"/>
       <use transform="translate(49.8132004981 0.0)scale(0.996264009963)" xlink:href="#URW_Palladio_L_Roman-48"/>
       <use transform="translate(99.6264009963 36.1643714002)scale(0.75715517493)" xlink:href="#URW_Palladio_L_Roman-54"/>
      </g>
     </g>
    </g>
    <g id="ytick_8">
     <g id="line2d_49">
      <path clip-path="url(#p8a2dffdc34)" d="M 77.712505 115.707767 
L 653.712505 115.707767 
" style="fill:none;stroke:#ffffff;stroke-linecap:round;stroke-width:0.8;"/>
     </g>
     <g id="line2d_50">
      <g>
       <use style="fill:#262626;stroke:#262626;stroke-width:0.8;" x="77.7125046213" xlink:href="#m32a7b4a03e" y="115.707766651"/>
      </g>
     </g>
     <g id="line2d_51">
      <g>
       <use style="fill:#262626;stroke:#262626;stroke-width:0.8;" x="653.712504621" xlink:href="#m32a7b4a03e" y="115.707766651"/>
      </g>
     </g>
     <g id="text_18">
      <!-- $10^{7}$ -->
      <g style="fill:#262626;" transform="translate(44.6156726728 120.026593025)scale(0.2 -0.2)">
       <use transform="scale(0.996264009963)" xlink:href="#URW_Palladio_L_Roman-49"/>
       <use transform="translate(49.8132004981 0.0)scale(0.996264009963)" xlink:href="#URW_Palladio_L_Roman-48"/>
       <use transform="translate(99.6264009963 36.1643714002)scale(0.75715517493)" xlink:href="#URW_Palladio_L_Roman-55"/>
      </g>
     </g>
    </g>
    <g id="ytick_9">
     <g id="line2d_52">
      <path clip-path="url(#p8a2dffdc34)" d="M 77.712505 86.907767 
L 653.712505 86.907767 
" style="fill:none;stroke:#ffffff;stroke-linecap:round;stroke-width:0.8;"/>
     </g>
     <g id="line2d_53">
      <g>
       <use style="fill:#262626;stroke:#262626;stroke-width:0.8;" x="77.7125046213" xlink:href="#m32a7b4a03e" y="86.9077666514"/>
      </g>
     </g>
     <g id="line2d_54">
      <g>
       <use style="fill:#262626;stroke:#262626;stroke-width:0.8;" x="653.712504621" xlink:href="#m32a7b4a03e" y="86.9077666514"/>
      </g>
     </g>
     <g id="text_19">
      <!-- $10^{8}$ -->
      <g style="fill:#262626;" transform="translate(44.6156726728 91.2265930252)scale(0.2 -0.2)">
       <use transform="scale(0.996264009963)" xlink:href="#URW_Palladio_L_Roman-49"/>
       <use transform="translate(49.8132004981 0.0)scale(0.996264009963)" xlink:href="#URW_Palladio_L_Roman-48"/>
       <use transform="translate(99.6264009963 36.1643714002)scale(0.75715517493)" xlink:href="#URW_Palladio_L_Roman-56"/>
      </g>
     </g>
    </g>
    <g id="ytick_10">
     <g id="line2d_55">
      <path clip-path="url(#p8a2dffdc34)" d="M 77.712505 58.107767 
L 653.712505 58.107767 
" style="fill:none;stroke:#ffffff;stroke-linecap:round;stroke-width:0.8;"/>
     </g>
     <g id="line2d_56">
      <g>
       <use style="fill:#262626;stroke:#262626;stroke-width:0.8;" x="77.7125046213" xlink:href="#m32a7b4a03e" y="58.1077666514"/>
      </g>
     </g>
     <g id="line2d_57">
      <g>
       <use style="fill:#262626;stroke:#262626;stroke-width:0.8;" x="653.712504621" xlink:href="#m32a7b4a03e" y="58.1077666514"/>
      </g>
     </g>
     <g id="text_20">
      <!-- $10^{9}$ -->
      <g style="fill:#262626;" transform="translate(44.6156726728 62.4265930252)scale(0.2 -0.2)">
       <use transform="scale(0.996264009963)" xlink:href="#URW_Palladio_L_Roman-49"/>
       <use transform="translate(49.8132004981 0.0)scale(0.996264009963)" xlink:href="#URW_Palladio_L_Roman-48"/>
       <use transform="translate(99.6264009963 36.1643714002)scale(0.75715517493)" xlink:href="#URW_Palladio_L_Roman-57"/>
      </g>
     </g>
    </g>
    <g id="ytick_11">
     <g id="line2d_58">
      <path clip-path="url(#p8a2dffdc34)" d="M 77.712505 29.307767 
L 653.712505 29.307767 
" style="fill:none;stroke:#ffffff;stroke-linecap:round;stroke-width:0.8;"/>
     </g>
     <g id="line2d_59">
      <g>
       <use style="fill:#262626;stroke:#262626;stroke-width:0.8;" x="77.7125046213" xlink:href="#m32a7b4a03e" y="29.3077666514"/>
      </g>
     </g>
     <g id="line2d_60">
      <g>
       <use style="fill:#262626;stroke:#262626;stroke-width:0.8;" x="653.712504621" xlink:href="#m32a7b4a03e" y="29.3077666514"/>
      </g>
     </g>
     <g id="text_21">
      <!-- $10^{10}$ -->
      <g style="fill:#262626;" transform="translate(37.0441209235 33.6265930252)scale(0.2 -0.2)">
       <use transform="scale(0.996264009963)" xlink:href="#URW_Palladio_L_Roman-49"/>
       <use transform="translate(49.8132004981 0.0)scale(0.996264009963)" xlink:href="#URW_Palladio_L_Roman-48"/>
       <use transform="translate(99.6264009963 36.1643714002)scale(0.75715517493)" xlink:href="#URW_Palladio_L_Roman-49"/>
       <use transform="translate(137.484159743 36.1643714002)scale(0.75715517493)" xlink:href="#URW_Palladio_L_Roman-48"/>
      </g>
     </g>
    </g>
    <g id="ytick_12">
     <g id="line2d_61">
      <defs>
       <path d="M 0 0 
L 0 0 
" id="m40c71222ea" style="stroke:#262626;stroke-width:0.4;"/>
      </defs>
      <g>
       <use style="fill:#262626;stroke:#262626;stroke-width:0.4;" x="77.7125046213" xlink:href="#m40c71222ea" y="308.638102776"/>
      </g>
     </g>
     <g id="line2d_62">
      <g>
       <use style="fill:#262626;stroke:#262626;stroke-width:0.4;" x="653.712504621" xlink:href="#m40c71222ea" y="308.638102776"/>
      </g>
     </g>
    </g>
    <g id="ytick_13">
     <g id="line2d_63">
      <g>
       <use style="fill:#262626;stroke:#262626;stroke-width:0.4;" x="77.7125046213" xlink:href="#m40c71222ea" y="299.968438901"/>
      </g>
     </g>
     <g id="line2d_64">
      <g>
       <use style="fill:#262626;stroke:#262626;stroke-width:0.4;" x="653.712504621" xlink:href="#m40c71222ea" y="299.968438901"/>
      </g>
     </g>
    </g>
    <g id="ytick_14">
     <g id="line2d_65">
      <g>
       <use style="fill:#262626;stroke:#262626;stroke-width:0.4;" x="77.7125046213" xlink:href="#m40c71222ea" y="294.89701064"/>
      </g>
     </g>
     <g id="line2d_66">
      <g>
       <use style="fill:#262626;stroke:#262626;stroke-width:0.4;" x="653.712504621" xlink:href="#m40c71222ea" y="294.89701064"/>
      </g>
     </g>
    </g>
    <g id="ytick_15">
     <g id="line2d_67">
      <g>
       <use style="fill:#262626;stroke:#262626;stroke-width:0.4;" x="77.7125046213" xlink:href="#m40c71222ea" y="291.298775026"/>
      </g>
     </g>
     <g id="line2d_68">
      <g>
       <use style="fill:#262626;stroke:#262626;stroke-width:0.4;" x="653.712504621" xlink:href="#m40c71222ea" y="291.298775026"/>
      </g>
     </g>
    </g>
    <g id="ytick_16">
     <g id="line2d_69">
      <g>
       <use style="fill:#262626;stroke:#262626;stroke-width:0.4;" x="77.7125046213" xlink:href="#m40c71222ea" y="279.838102776"/>
      </g>
     </g>
     <g id="line2d_70">
      <g>
       <use style="fill:#262626;stroke:#262626;stroke-width:0.4;" x="653.712504621" xlink:href="#m40c71222ea" y="279.838102776"/>
      </g>
     </g>
    </g>
    <g id="ytick_17">
     <g id="line2d_71">
      <g>
       <use style="fill:#262626;stroke:#262626;stroke-width:0.4;" x="77.7125046213" xlink:href="#m40c71222ea" y="271.168438901"/>
      </g>
     </g>
     <g id="line2d_72">
      <g>
       <use style="fill:#262626;stroke:#262626;stroke-width:0.4;" x="653.712504621" xlink:href="#m40c71222ea" y="271.168438901"/>
      </g>
     </g>
    </g>
    <g id="ytick_18">
     <g id="line2d_73">
      <g>
       <use style="fill:#262626;stroke:#262626;stroke-width:0.4;" x="77.7125046213" xlink:href="#m40c71222ea" y="266.09701064"/>
      </g>
     </g>
     <g id="line2d_74">
      <g>
       <use style="fill:#262626;stroke:#262626;stroke-width:0.4;" x="653.712504621" xlink:href="#m40c71222ea" y="266.09701064"/>
      </g>
     </g>
    </g>
    <g id="ytick_19">
     <g id="line2d_75">
      <g>
       <use style="fill:#262626;stroke:#262626;stroke-width:0.4;" x="77.7125046213" xlink:href="#m40c71222ea" y="262.498775026"/>
      </g>
     </g>
     <g id="line2d_76">
      <g>
       <use style="fill:#262626;stroke:#262626;stroke-width:0.4;" x="653.712504621" xlink:href="#m40c71222ea" y="262.498775026"/>
      </g>
     </g>
    </g>
    <g id="ytick_20">
     <g id="line2d_77">
      <g>
       <use style="fill:#262626;stroke:#262626;stroke-width:0.4;" x="77.7125046213" xlink:href="#m40c71222ea" y="251.038102776"/>
      </g>
     </g>
     <g id="line2d_78">
      <g>
       <use style="fill:#262626;stroke:#262626;stroke-width:0.4;" x="653.712504621" xlink:href="#m40c71222ea" y="251.038102776"/>
      </g>
     </g>
    </g>
    <g id="ytick_21">
     <g id="line2d_79">
      <g>
       <use style="fill:#262626;stroke:#262626;stroke-width:0.4;" x="77.7125046213" xlink:href="#m40c71222ea" y="242.368438901"/>
      </g>
     </g>
     <g id="line2d_80">
      <g>
       <use style="fill:#262626;stroke:#262626;stroke-width:0.4;" x="653.712504621" xlink:href="#m40c71222ea" y="242.368438901"/>
      </g>
     </g>
    </g>
    <g id="ytick_22">
     <g id="line2d_81">
      <g>
       <use style="fill:#262626;stroke:#262626;stroke-width:0.4;" x="77.7125046213" xlink:href="#m40c71222ea" y="237.29701064"/>
      </g>
     </g>
     <g id="line2d_82">
      <g>
       <use style="fill:#262626;stroke:#262626;stroke-width:0.4;" x="653.712504621" xlink:href="#m40c71222ea" y="237.29701064"/>
      </g>
     </g>
    </g>
    <g id="ytick_23">
     <g id="line2d_83">
      <g>
       <use style="fill:#262626;stroke:#262626;stroke-width:0.4;" x="77.7125046213" xlink:href="#m40c71222ea" y="233.698775026"/>
      </g>
     </g>
     <g id="line2d_84">
      <g>
       <use style="fill:#262626;stroke:#262626;stroke-width:0.4;" x="653.712504621" xlink:href="#m40c71222ea" y="233.698775026"/>
      </g>
     </g>
    </g>
    <g id="ytick_24">
     <g id="line2d_85">
      <g>
       <use style="fill:#262626;stroke:#262626;stroke-width:0.4;" x="77.7125046213" xlink:href="#m40c71222ea" y="222.238102776"/>
      </g>
     </g>
     <g id="line2d_86">
      <g>
       <use style="fill:#262626;stroke:#262626;stroke-width:0.4;" x="653.712504621" xlink:href="#m40c71222ea" y="222.238102776"/>
      </g>
     </g>
    </g>
    <g id="ytick_25">
     <g id="line2d_87">
      <g>
       <use style="fill:#262626;stroke:#262626;stroke-width:0.4;" x="77.7125046213" xlink:href="#m40c71222ea" y="213.568438901"/>
      </g>
     </g>
     <g id="line2d_88">
      <g>
       <use style="fill:#262626;stroke:#262626;stroke-width:0.4;" x="653.712504621" xlink:href="#m40c71222ea" y="213.568438901"/>
      </g>
     </g>
    </g>
    <g id="ytick_26">
     <g id="line2d_89">
      <g>
       <use style="fill:#262626;stroke:#262626;stroke-width:0.4;" x="77.7125046213" xlink:href="#m40c71222ea" y="208.49701064"/>
      </g>
     </g>
     <g id="line2d_90">
      <g>
       <use style="fill:#262626;stroke:#262626;stroke-width:0.4;" x="653.712504621" xlink:href="#m40c71222ea" y="208.49701064"/>
      </g>
     </g>
    </g>
    <g id="ytick_27">
     <g id="line2d_91">
      <g>
       <use style="fill:#262626;stroke:#262626;stroke-width:0.4;" x="77.7125046213" xlink:href="#m40c71222ea" y="204.898775026"/>
      </g>
     </g>
     <g id="line2d_92">
      <g>
       <use style="fill:#262626;stroke:#262626;stroke-width:0.4;" x="653.712504621" xlink:href="#m40c71222ea" y="204.898775026"/>
      </g>
     </g>
    </g>
    <g id="ytick_28">
     <g id="line2d_93">
      <g>
       <use style="fill:#262626;stroke:#262626;stroke-width:0.4;" x="77.7125046213" xlink:href="#m40c71222ea" y="193.438102776"/>
      </g>
     </g>
     <g id="line2d_94">
      <g>
       <use style="fill:#262626;stroke:#262626;stroke-width:0.4;" x="653.712504621" xlink:href="#m40c71222ea" y="193.438102776"/>
      </g>
     </g>
    </g>
    <g id="ytick_29">
     <g id="line2d_95">
      <g>
       <use style="fill:#262626;stroke:#262626;stroke-width:0.4;" x="77.7125046213" xlink:href="#m40c71222ea" y="184.768438901"/>
      </g>
     </g>
     <g id="line2d_96">
      <g>
       <use style="fill:#262626;stroke:#262626;stroke-width:0.4;" x="653.712504621" xlink:href="#m40c71222ea" y="184.768438901"/>
      </g>
     </g>
    </g>
    <g id="ytick_30">
     <g id="line2d_97">
      <g>
       <use style="fill:#262626;stroke:#262626;stroke-width:0.4;" x="77.7125046213" xlink:href="#m40c71222ea" y="179.69701064"/>
      </g>
     </g>
     <g id="line2d_98">
      <g>
       <use style="fill:#262626;stroke:#262626;stroke-width:0.4;" x="653.712504621" xlink:href="#m40c71222ea" y="179.69701064"/>
      </g>
     </g>
    </g>
    <g id="ytick_31">
     <g id="line2d_99">
      <g>
       <use style="fill:#262626;stroke:#262626;stroke-width:0.4;" x="77.7125046213" xlink:href="#m40c71222ea" y="176.098775026"/>
      </g>
     </g>
     <g id="line2d_100">
      <g>
       <use style="fill:#262626;stroke:#262626;stroke-width:0.4;" x="653.712504621" xlink:href="#m40c71222ea" y="176.098775026"/>
      </g>
     </g>
    </g>
    <g id="ytick_32">
     <g id="line2d_101">
      <g>
       <use style="fill:#262626;stroke:#262626;stroke-width:0.4;" x="77.7125046213" xlink:href="#m40c71222ea" y="164.638102776"/>
      </g>
     </g>
     <g id="line2d_102">
      <g>
       <use style="fill:#262626;stroke:#262626;stroke-width:0.4;" x="653.712504621" xlink:href="#m40c71222ea" y="164.638102776"/>
      </g>
     </g>
    </g>
    <g id="ytick_33">
     <g id="line2d_103">
      <g>
       <use style="fill:#262626;stroke:#262626;stroke-width:0.4;" x="77.7125046213" xlink:href="#m40c71222ea" y="155.968438901"/>
      </g>
     </g>
     <g id="line2d_104">
      <g>
       <use style="fill:#262626;stroke:#262626;stroke-width:0.4;" x="653.712504621" xlink:href="#m40c71222ea" y="155.968438901"/>
      </g>
     </g>
    </g>
    <g id="ytick_34">
     <g id="line2d_105">
      <g>
       <use style="fill:#262626;stroke:#262626;stroke-width:0.4;" x="77.7125046213" xlink:href="#m40c71222ea" y="150.89701064"/>
      </g>
     </g>
     <g id="line2d_106">
      <g>
       <use style="fill:#262626;stroke:#262626;stroke-width:0.4;" x="653.712504621" xlink:href="#m40c71222ea" y="150.89701064"/>
      </g>
     </g>
    </g>
    <g id="ytick_35">
     <g id="line2d_107">
      <g>
       <use style="fill:#262626;stroke:#262626;stroke-width:0.4;" x="77.7125046213" xlink:href="#m40c71222ea" y="147.298775026"/>
      </g>
     </g>
     <g id="line2d_108">
      <g>
       <use style="fill:#262626;stroke:#262626;stroke-width:0.4;" x="653.712504621" xlink:href="#m40c71222ea" y="147.298775026"/>
      </g>
     </g>
    </g>
    <g id="ytick_36">
     <g id="line2d_109">
      <g>
       <use style="fill:#262626;stroke:#262626;stroke-width:0.4;" x="77.7125046213" xlink:href="#m40c71222ea" y="135.838102776"/>
      </g>
     </g>
     <g id="line2d_110">
      <g>
       <use style="fill:#262626;stroke:#262626;stroke-width:0.4;" x="653.712504621" xlink:href="#m40c71222ea" y="135.838102776"/>
      </g>
     </g>
    </g>
    <g id="ytick_37">
     <g id="line2d_111">
      <g>
       <use style="fill:#262626;stroke:#262626;stroke-width:0.4;" x="77.7125046213" xlink:href="#m40c71222ea" y="127.168438901"/>
      </g>
     </g>
     <g id="line2d_112">
      <g>
       <use style="fill:#262626;stroke:#262626;stroke-width:0.4;" x="653.712504621" xlink:href="#m40c71222ea" y="127.168438901"/>
      </g>
     </g>
    </g>
    <g id="ytick_38">
     <g id="line2d_113">
      <g>
       <use style="fill:#262626;stroke:#262626;stroke-width:0.4;" x="77.7125046213" xlink:href="#m40c71222ea" y="122.09701064"/>
      </g>
     </g>
     <g id="line2d_114">
      <g>
       <use style="fill:#262626;stroke:#262626;stroke-width:0.4;" x="653.712504621" xlink:href="#m40c71222ea" y="122.09701064"/>
      </g>
     </g>
    </g>
    <g id="ytick_39">
     <g id="line2d_115">
      <g>
       <use style="fill:#262626;stroke:#262626;stroke-width:0.4;" x="77.7125046213" xlink:href="#m40c71222ea" y="118.498775026"/>
      </g>
     </g>
     <g id="line2d_116">
      <g>
       <use style="fill:#262626;stroke:#262626;stroke-width:0.4;" x="653.712504621" xlink:href="#m40c71222ea" y="118.498775026"/>
      </g>
     </g>
    </g>
    <g id="ytick_40">
     <g id="line2d_117">
      <g>
       <use style="fill:#262626;stroke:#262626;stroke-width:0.4;" x="77.7125046213" xlink:href="#m40c71222ea" y="107.038102776"/>
      </g>
     </g>
     <g id="line2d_118">
      <g>
       <use style="fill:#262626;stroke:#262626;stroke-width:0.4;" x="653.712504621" xlink:href="#m40c71222ea" y="107.038102776"/>
      </g>
     </g>
    </g>
    <g id="ytick_41">
     <g id="line2d_119">
      <g>
       <use style="fill:#262626;stroke:#262626;stroke-width:0.4;" x="77.7125046213" xlink:href="#m40c71222ea" y="98.3684389012"/>
      </g>
     </g>
     <g id="line2d_120">
      <g>
       <use style="fill:#262626;stroke:#262626;stroke-width:0.4;" x="653.712504621" xlink:href="#m40c71222ea" y="98.3684389012"/>
      </g>
     </g>
    </g>
    <g id="ytick_42">
     <g id="line2d_121">
      <g>
       <use style="fill:#262626;stroke:#262626;stroke-width:0.4;" x="77.7125046213" xlink:href="#m40c71222ea" y="93.2970106404"/>
      </g>
     </g>
     <g id="line2d_122">
      <g>
       <use style="fill:#262626;stroke:#262626;stroke-width:0.4;" x="653.712504621" xlink:href="#m40c71222ea" y="93.2970106404"/>
      </g>
     </g>
    </g>
    <g id="ytick_43">
     <g id="line2d_123">
      <g>
       <use style="fill:#262626;stroke:#262626;stroke-width:0.4;" x="77.7125046213" xlink:href="#m40c71222ea" y="89.6987750261"/>
      </g>
     </g>
     <g id="line2d_124">
      <g>
       <use style="fill:#262626;stroke:#262626;stroke-width:0.4;" x="653.712504621" xlink:href="#m40c71222ea" y="89.6987750261"/>
      </g>
     </g>
    </g>
    <g id="ytick_44">
     <g id="line2d_125">
      <g>
       <use style="fill:#262626;stroke:#262626;stroke-width:0.4;" x="77.7125046213" xlink:href="#m40c71222ea" y="78.2381027763"/>
      </g>
     </g>
     <g id="line2d_126">
      <g>
       <use style="fill:#262626;stroke:#262626;stroke-width:0.4;" x="653.712504621" xlink:href="#m40c71222ea" y="78.2381027763"/>
      </g>
     </g>
    </g>
    <g id="ytick_45">
     <g id="line2d_127">
      <g>
       <use style="fill:#262626;stroke:#262626;stroke-width:0.4;" x="77.7125046213" xlink:href="#m40c71222ea" y="69.5684389012"/>
      </g>
     </g>
     <g id="line2d_128">
      <g>
       <use style="fill:#262626;stroke:#262626;stroke-width:0.4;" x="653.712504621" xlink:href="#m40c71222ea" y="69.5684389012"/>
      </g>
     </g>
    </g>
    <g id="ytick_46">
     <g id="line2d_129">
      <g>
       <use style="fill:#262626;stroke:#262626;stroke-width:0.4;" x="77.7125046213" xlink:href="#m40c71222ea" y="64.4970106404"/>
      </g>
     </g>
     <g id="line2d_130">
      <g>
       <use style="fill:#262626;stroke:#262626;stroke-width:0.4;" x="653.712504621" xlink:href="#m40c71222ea" y="64.4970106404"/>
      </g>
     </g>
    </g>
    <g id="ytick_47">
     <g id="line2d_131">
      <g>
       <use style="fill:#262626;stroke:#262626;stroke-width:0.4;" x="77.7125046213" xlink:href="#m40c71222ea" y="60.8987750261"/>
      </g>
     </g>
     <g id="line2d_132">
      <g>
       <use style="fill:#262626;stroke:#262626;stroke-width:0.4;" x="653.712504621" xlink:href="#m40c71222ea" y="60.8987750261"/>
      </g>
     </g>
    </g>
    <g id="ytick_48">
     <g id="line2d_133">
      <g>
       <use style="fill:#262626;stroke:#262626;stroke-width:0.4;" x="77.7125046213" xlink:href="#m40c71222ea" y="49.4381027763"/>
      </g>
     </g>
     <g id="line2d_134">
      <g>
       <use style="fill:#262626;stroke:#262626;stroke-width:0.4;" x="653.712504621" xlink:href="#m40c71222ea" y="49.4381027763"/>
      </g>
     </g>
    </g>
    <g id="ytick_49">
     <g id="line2d_135">
      <g>
       <use style="fill:#262626;stroke:#262626;stroke-width:0.4;" x="77.7125046213" xlink:href="#m40c71222ea" y="40.7684389012"/>
      </g>
     </g>
     <g id="line2d_136">
      <g>
       <use style="fill:#262626;stroke:#262626;stroke-width:0.4;" x="653.712504621" xlink:href="#m40c71222ea" y="40.7684389012"/>
      </g>
     </g>
    </g>
    <g id="ytick_50">
     <g id="line2d_137">
      <g>
       <use style="fill:#262626;stroke:#262626;stroke-width:0.4;" x="77.7125046213" xlink:href="#m40c71222ea" y="35.6970106404"/>
      </g>
     </g>
     <g id="line2d_138">
      <g>
       <use style="fill:#262626;stroke:#262626;stroke-width:0.4;" x="653.712504621" xlink:href="#m40c71222ea" y="35.6970106404"/>
      </g>
     </g>
    </g>
    <g id="ytick_51">
     <g id="line2d_139">
      <g>
       <use style="fill:#262626;stroke:#262626;stroke-width:0.4;" x="77.7125046213" xlink:href="#m40c71222ea" y="32.0987750261"/>
      </g>
     </g>
     <g id="line2d_140">
      <g>
       <use style="fill:#262626;stroke:#262626;stroke-width:0.4;" x="653.712504621" xlink:href="#m40c71222ea" y="32.0987750261"/>
      </g>
     </g>
    </g>
    <g id="text_22">
     <!-- Condition Number $\kappa$ -->
     <defs>
      <path d="M 2.59375 38.625 
L 3.296875 36.59375 
L 6.5 38.6875 
C 9.40625 40.484375 10.40625 40.984375 11.296875 40.984375 
C 12.296875 40.984375 13 40.078125 13 38.890625 
C 13 33.015625 8.703125 12.5625 4.703125 -0.296875 
L 5.59375 -1 
L 12.296875 0.6875 
L 14.796875 14.15625 
C 15.59375 18.546875 18.09375 22.53125 21.296875 25.71875 
C 28.203125 5.78125 31.40625 -1 33.90625 -1 
C 35.203125 -1 37.5 0.296875 42 3.390625 
L 46.59375 6.578125 
L 45.796875 8.46875 
L 41.5 6.0625 
C 40.09375 5.28125 39.5 5.078125 38.59375 5.078125 
C 37.59375 5.078125 36.90625 5.6875 36 7.375 
C 32.5 13.75 30.296875 19.140625 26.40625 31.40625 
L 27.796875 32.796875 
C 33.90625 38.890625 38.5 41.375 43.5 41.375 
C 44.40625 41.375 45.40625 41.1875 47.09375 40.78125 
L 48.796875 47.09375 
C 47.09375 47.6875 45.296875 48 44 48 
C 37.40625 48 29.09375 40.40625 16.59375 22.9375 
L 18 29.546875 
C 18.5 31.859375 19.203125 35.875 19.796875 38.078125 
L 20.40625 40.6875 
C 20.796875 42.484375 21 43.6875 21 44.890625 
C 21 47 20.203125 48 18.703125 48 
C 16.59375 48 12.796875 45.984375 5.40625 40.625 
z
" id="Pazo_Math_Italic-107"/>
      <path d="M 13.703125 69.109375 
C 8.09375 69.109375 7.203125 69.109375 1.703125 69.109375 
L 1.703125 66 
L 6.09375 66 
C 10.703125 66 11.203125 65.09375 11.203125 57.234375 
L 11.203125 11.96875 
C 11.203125 4.09375 10.703125 3.203125 6.09375 3.203125 
L 1.703125 3.203125 
L 1.703125 0 
C 11.59375 0 11.59375 0 13.296875 0 
C 14.796875 0 14.796875 0 25.296875 0 
L 25.296875 3.203125 
L 20.90625 3.203125 
C 16.296875 3.203125 15.796875 4.09375 15.796875 11.9375 
L 15.796875 58.40625 
L 63.09375 -0.203125 
L 72.09375 -1.796875 
C 72.09375 -1.40625 72.09375 -1.296875 72 -0.59375 
C 71.90625 0.5 71.796875 1.3125 71.796875 1.90625 
L 71.796875 57.265625 
C 71.796875 65.09375 72.296875 66 76.90625 66 
L 81.296875 66 
L 81.296875 69.109375 
C 70.796875 69.109375 70.796875 69.109375 69.296875 69.109375 
C 67.59375 69.109375 67.59375 69.109375 57.703125 69.109375 
L 57.703125 66 
L 62.09375 66 
C 66.703125 66 67.203125 65.09375 67.203125 57.265625 
L 67.203125 9.984375 
L 19.09375 69.109375 
z
" id="URW_Palladio_L_Roman-78"/>
      <path d="M 67 8.421875 
L 66.09375 9.421875 
C 59.90625 5.40625 53 3.40625 45.40625 3.40625 
C 25.90625 3.40625 12.90625 16.421875 12.90625 36.140625 
C 12.90625 54.578125 24.296875 66.78125 41.5 66.78125 
C 51.296875 66.78125 61.40625 62.78125 61.40625 58.890625 
L 61.40625 51.671875 
L 64.5 51.671875 
C 64.59375 56.671875 65 60.265625 66.40625 66.875 
C 57.90625 69.6875 50.59375 71 43.296875 71 
C 34.59375 71 26.296875 68.890625 19.59375 64.984375 
C 8.203125 58.28125 2.203125 47.765625 2.203125 34.25 
C 2.203125 12.609375 18 -2 41.5 -2 
C 49.796875 -2 57.296875 -0.203125 64.203125 3.40625 
z
" id="URW_Palladio_L_Roman-67"/>
      <path d="M 50.296875 47.015625 
L 49.40625 47.421875 
C 44.296875 45.3125 39.09375 43.90625 33.796875 43.3125 
L 33.796875 40.5 
L 37.5 40.5 
C 41.5 40.5 41.90625 39.796875 41.90625 33.140625 
L 41.90625 16.71875 
C 41.90625 14.5 40.5 11.671875 38.203125 9.359375 
C 35.40625 6.53125 32.203125 5.109375 28.296875 5.109375 
C 24.796875 5.109375 22 6.21875 20.40625 8.140625 
C 19 9.75 18.296875 12.875 18.296875 17.296875 
L 18.296875 47.015625 
L 17.40625 47.421875 
C 12.296875 45.3125 7.09375 43.90625 1.796875 43.3125 
L 1.796875 40.5 
L 5.5 40.5 
C 9.5 40.5 9.90625 39.796875 9.90625 33.15625 
L 9.90625 16.234375 
C 9.90625 9.171875 10.5 6.046875 12.296875 3.546875 
C 14.5 0.515625 18.296875 -1 24 -1 
C 28.5 -1 32.5 0.40625 35.203125 2.90625 
L 41.90625 9.140625 
C 41.90625 6.265625 41.796875 4.65625 41.5 0 
C 48.203125 0 48.296875 0 49.796875 0 
C 51.203125 0 51.203125 0 58.09375 0 
L 58.09375 2.90625 
L 54 3.3125 
C 50.59375 3.3125 50.296875 3.921875 50.296875 10.375 
z
" id="URW_Palladio_L_Roman-117"/>
     </defs>
     <g style="fill:#262626;" transform="translate(25.0205934289 288.044997762)rotate(-90.0)scale(0.25 -0.25)">
      <use transform="scale(0.996264009963)" xlink:href="#URW_Palladio_L_Roman-67"/>
      <use transform="translate(70.6347929882 0.0)scale(0.996264009963)" xlink:href="#URW_Palladio_L_Roman-111"/>
      <use transform="translate(125.030373161 0.0)scale(0.996264009963)" xlink:href="#URW_Palladio_L_Roman-110"/>
      <use transform="translate(183.012433842 0.0)scale(0.996264009963)" xlink:href="#URW_Palladio_L_Roman-100"/>
      <use transform="translate(243.884064519 0.0)scale(0.996264009963)" xlink:href="#URW_Palladio_L_Roman-105"/>
      <use transform="translate(272.874425981 0.0)scale(0.996264009963)" xlink:href="#URW_Palladio_L_Roman-116"/>
      <use transform="translate(305.351513854 0.0)scale(0.996264009963)" xlink:href="#URW_Palladio_L_Roman-105"/>
      <use transform="translate(334.341875316 0.0)scale(0.996264009963)" xlink:href="#URW_Palladio_L_Roman-111"/>
      <use transform="translate(388.737455489 0.0)scale(0.996264009963)" xlink:href="#URW_Palladio_L_Roman-110"/>
      <use transform="translate(471.626116419 0.0)scale(0.996264009963)" xlink:href="#URW_Palladio_L_Roman-78"/>
      <use transform="translate(554.415023253 0.0)scale(0.996264009963)" xlink:href="#URW_Palladio_L_Roman-117"/>
      <use transform="translate(614.488757978 0.0)scale(0.996264009963)" xlink:href="#URW_Palladio_L_Roman-109"/>
      <use transform="translate(702.458432246 0.0)scale(0.996264009963)" xlink:href="#URW_Palladio_L_Roman-98"/>
      <use transform="translate(757.55083172 0.0)scale(0.996264009963)" xlink:href="#URW_Palladio_L_Roman-101"/>
      <use transform="translate(805.271126829 0.0)scale(0.996264009963)" xlink:href="#URW_Palladio_L_Roman-114"/>
      <use transform="translate(869.778643806 0.0)scale(0.996264009963)" xlink:href="#Pazo_Math_Italic-107"/>
     </g>
    </g>
   </g>
   <g id="line2d_141">
    <path d="M 77.712505 293.270297 
L 149.712505 265.791312 
L 221.712505 235.593295 
L 293.712505 203.508413 
L 365.712505 170.31587 
L 437.712505 136.442478 
L 509.712505 102.75937 
L 581.712505 69.15028 
L 653.712505 35.655507 
" style="fill:none;stroke:#d55e00;stroke-dasharray:6.000000,6.000000;stroke-dashoffset:0.0;stroke-width:3.0;"/>
    <defs>
     <path d="M 0 5 
C 1.326016 5 2.597899 4.473168 3.535534 3.535534 
C 4.473168 2.597899 5 1.326016 5 0 
C 5 -1.326016 4.473168 -2.597899 3.535534 -3.535534 
C 2.597899 -4.473168 1.326016 -5 0 -5 
C -1.326016 -5 -2.597899 -4.473168 -3.535534 -3.535534 
C -4.473168 -2.597899 -5 -1.326016 -5 0 
C -5 1.326016 -4.473168 2.597899 -3.535534 3.535534 
C -2.597899 4.473168 -1.326016 5 0 5 
z
" id="meeba36b1de" style="stroke:#000000;stroke-width:0.1;"/>
    </defs>
    <g>
     <use style="fill:#d55e00;stroke:#000000;stroke-width:0.1;" x="77.7125046213" xlink:href="#meeba36b1de" y="293.270297063"/>
     <use style="fill:#d55e00;stroke:#000000;stroke-width:0.1;" x="149.712504621" xlink:href="#meeba36b1de" y="265.791311575"/>
     <use style="fill:#d55e00;stroke:#000000;stroke-width:0.1;" x="221.712504621" xlink:href="#meeba36b1de" y="235.593295194"/>
     <use style="fill:#d55e00;stroke:#000000;stroke-width:0.1;" x="293.712504621" xlink:href="#meeba36b1de" y="203.508413354"/>
     <use style="fill:#d55e00;stroke:#000000;stroke-width:0.1;" x="365.712504621" xlink:href="#meeba36b1de" y="170.315869949"/>
     <use style="fill:#d55e00;stroke:#000000;stroke-width:0.1;" x="437.712504621" xlink:href="#meeba36b1de" y="136.442477631"/>
     <use style="fill:#d55e00;stroke:#000000;stroke-width:0.1;" x="509.712504621" xlink:href="#meeba36b1de" y="102.759369907"/>
     <use style="fill:#d55e00;stroke:#000000;stroke-width:0.1;" x="581.712504621" xlink:href="#meeba36b1de" y="69.1502795653"/>
     <use style="fill:#d55e00;stroke:#000000;stroke-width:0.1;" x="653.712504621" xlink:href="#meeba36b1de" y="35.6555065332"/>
    </g>
   </g>
   <g id="line2d_142">
    <path d="M 77.712505 292.117223 
L 149.712505 273.469715 
L 221.712505 253.625505 
L 293.712505 225.967474 
L 365.712505 194.640481 
L 437.712505 161.47205 
L 509.712505 127.855029 
L 581.712505 94.213446 
L 653.712505 60.095831 
" style="fill:none;stroke:#cc79a7;stroke-dasharray:6.000000,6.000000;stroke-dashoffset:0.0;stroke-width:3.0;"/>
    <defs>
     <path d="M 0 5 
C 1.326016 5 2.597899 4.473168 3.535534 3.535534 
C 4.473168 2.597899 5 1.326016 5 0 
C 5 -1.326016 4.473168 -2.597899 3.535534 -3.535534 
C 2.597899 -4.473168 1.326016 -5 0 -5 
C -1.326016 -5 -2.597899 -4.473168 -3.535534 -3.535534 
C -4.473168 -2.597899 -5 -1.326016 -5 0 
C -5 1.326016 -4.473168 2.597899 -3.535534 3.535534 
C -2.597899 4.473168 -1.326016 5 0 5 
z
" id="mf3bb16882d" style="stroke:#000000;stroke-width:0.1;"/>
    </defs>
    <g>
     <use style="fill:#cc79a7;stroke:#000000;stroke-width:0.1;" x="77.7125046213" xlink:href="#mf3bb16882d" y="292.117222965"/>
     <use style="fill:#cc79a7;stroke:#000000;stroke-width:0.1;" x="149.712504621" xlink:href="#mf3bb16882d" y="273.469714814"/>
     <use style="fill:#cc79a7;stroke:#000000;stroke-width:0.1;" x="221.712504621" xlink:href="#mf3bb16882d" y="253.625504648"/>
     <use style="fill:#cc79a7;stroke:#000000;stroke-width:0.1;" x="293.712504621" xlink:href="#mf3bb16882d" y="225.967473565"/>
     <use style="fill:#cc79a7;stroke:#000000;stroke-width:0.1;" x="365.712504621" xlink:href="#mf3bb16882d" y="194.640480668"/>
     <use style="fill:#cc79a7;stroke:#000000;stroke-width:0.1;" x="437.712504621" xlink:href="#mf3bb16882d" y="161.472050007"/>
     <use style="fill:#cc79a7;stroke:#000000;stroke-width:0.1;" x="509.712504621" xlink:href="#mf3bb16882d" y="127.855028837"/>
     <use style="fill:#cc79a7;stroke:#000000;stroke-width:0.1;" x="581.712504621" xlink:href="#mf3bb16882d" y="94.2134457465"/>
     <use style="fill:#cc79a7;stroke:#000000;stroke-width:0.1;" x="653.712504621" xlink:href="#mf3bb16882d" y="60.095831098"/>
    </g>
   </g>
   <g id="line2d_143">
    <path d="M 77.712505 279.09284 
L 149.712505 254.582719 
L 221.712505 232.443274 
L 293.712505 209.130872 
L 365.712505 180.788982 
L 437.712505 148.80146 
L 509.712505 115.313757 
L 581.712505 81.873056 
L 653.712505 48.160338 
" style="fill:none;stroke:#56b4e9;stroke-dasharray:6.000000,6.000000;stroke-dashoffset:0.0;stroke-width:3.0;"/>
    <defs>
     <path d="M 0 5 
C 1.326016 5 2.597899 4.473168 3.535534 3.535534 
C 4.473168 2.597899 5 1.326016 5 0 
C 5 -1.326016 4.473168 -2.597899 3.535534 -3.535534 
C 2.597899 -4.473168 1.326016 -5 0 -5 
C -1.326016 -5 -2.597899 -4.473168 -3.535534 -3.535534 
C -4.473168 -2.597899 -5 -1.326016 -5 0 
C -5 1.326016 -4.473168 2.597899 -3.535534 3.535534 
C -2.597899 4.473168 -1.326016 5 0 5 
z
" id="m39331de7de" style="stroke:#000000;stroke-width:0.1;"/>
    </defs>
    <g>
     <use style="fill:#56b4e9;stroke:#000000;stroke-width:0.1;" x="77.7125046213" xlink:href="#m39331de7de" y="279.092839565"/>
     <use style="fill:#56b4e9;stroke:#000000;stroke-width:0.1;" x="149.712504621" xlink:href="#m39331de7de" y="254.582718563"/>
     <use style="fill:#56b4e9;stroke:#000000;stroke-width:0.1;" x="221.712504621" xlink:href="#m39331de7de" y="232.443274188"/>
     <use style="fill:#56b4e9;stroke:#000000;stroke-width:0.1;" x="293.712504621" xlink:href="#m39331de7de" y="209.130871531"/>
     <use style="fill:#56b4e9;stroke:#000000;stroke-width:0.1;" x="365.712504621" xlink:href="#m39331de7de" y="180.788981531"/>
     <use style="fill:#56b4e9;stroke:#000000;stroke-width:0.1;" x="437.712504621" xlink:href="#m39331de7de" y="148.801459583"/>
     <use style="fill:#56b4e9;stroke:#000000;stroke-width:0.1;" x="509.712504621" xlink:href="#m39331de7de" y="115.313756769"/>
     <use style="fill:#56b4e9;stroke:#000000;stroke-width:0.1;" x="581.712504621" xlink:href="#m39331de7de" y="81.8730560837"/>
     <use style="fill:#56b4e9;stroke:#000000;stroke-width:0.1;" x="653.712504621" xlink:href="#m39331de7de" y="48.1603379172"/>
    </g>
   </g>
   <g id="line2d_144">
    <path d="M 77.712505 296.701363 
L 149.712505 272.443026 
L 221.712505 244.888106 
L 293.712505 214.963784 
L 365.712505 183.157035 
L 437.712505 150.014843 
L 509.712505 116.592151 
L 581.712505 83.02029 
L 653.712505 49.115165 
" style="fill:none;stroke:#0072b2;stroke-dasharray:6.000000,6.000000;stroke-dashoffset:0.0;stroke-width:3.0;"/>
    <defs>
     <path d="M 0 5 
C 1.326016 5 2.597899 4.473168 3.535534 3.535534 
C 4.473168 2.597899 5 1.326016 5 0 
C 5 -1.326016 4.473168 -2.597899 3.535534 -3.535534 
C 2.597899 -4.473168 1.326016 -5 0 -5 
C -1.326016 -5 -2.597899 -4.473168 -3.535534 -3.535534 
C -4.473168 -2.597899 -5 -1.326016 -5 0 
C -5 1.326016 -4.473168 2.597899 -3.535534 3.535534 
C -2.597899 4.473168 -1.326016 5 0 5 
z
" id="mc2fa30aa9f" style="stroke:#000000;stroke-width:0.1;"/>
    </defs>
    <g>
     <use style="fill:#0072b2;stroke:#000000;stroke-width:0.1;" x="77.7125046213" xlink:href="#mc2fa30aa9f" y="296.701363185"/>
     <use style="fill:#0072b2;stroke:#000000;stroke-width:0.1;" x="149.712504621" xlink:href="#mc2fa30aa9f" y="272.443026304"/>
     <use style="fill:#0072b2;stroke:#000000;stroke-width:0.1;" x="221.712504621" xlink:href="#mc2fa30aa9f" y="244.888106254"/>
     <use style="fill:#0072b2;stroke:#000000;stroke-width:0.1;" x="293.712504621" xlink:href="#mc2fa30aa9f" y="214.96378407"/>
     <use style="fill:#0072b2;stroke:#000000;stroke-width:0.1;" x="365.712504621" xlink:href="#mc2fa30aa9f" y="183.157034622"/>
     <use style="fill:#0072b2;stroke:#000000;stroke-width:0.1;" x="437.712504621" xlink:href="#mc2fa30aa9f" y="150.01484317"/>
     <use style="fill:#0072b2;stroke:#000000;stroke-width:0.1;" x="509.712504621" xlink:href="#mc2fa30aa9f" y="116.592151086"/>
     <use style="fill:#0072b2;stroke:#000000;stroke-width:0.1;" x="581.712504621" xlink:href="#mc2fa30aa9f" y="83.0202898911"/>
     <use style="fill:#0072b2;stroke:#000000;stroke-width:0.1;" x="653.712504621" xlink:href="#mc2fa30aa9f" y="49.1151653112"/>
    </g>
   </g>
   <g id="line2d_145">
    <path d="M 77.712505 317.307767 
L 149.712505 317.307767 
L 221.712505 317.307767 
L 293.712505 317.307767 
L 365.712505 317.307767 
L 437.712505 317.307767 
L 509.712505 317.307767 
L 581.712505 317.307767 
L 653.712505 317.307767 
" style="fill:none;stroke:#009e73;stroke-linecap:round;stroke-width:5.0;"/>
   </g>
   <g id="patch_3">
    <path d="M 77.712505 29.307767 
L 653.712505 29.307767 
" style="fill:none;"/>
   </g>
   <g id="patch_4">
    <path d="M 653.712505 317.307767 
L 653.712505 29.307767 
" style="fill:none;"/>
   </g>
   <g id="patch_5">
    <path d="M 77.712505 317.307767 
L 653.712505 317.307767 
" style="fill:none;"/>
   </g>
   <g id="patch_6">
    <path d="M 77.712505 317.307767 
L 77.712505 29.307767 
" style="fill:none;"/>
   </g>
   <g id="text_23">
    <!-- Heterodyne Fisher Information Not Isotropic -->
    <defs>
     <path d="M 21.59375 57.234375 
C 21.59375 65.1875 22.09375 66 26.703125 66 
L 31.5 66 
L 31.5 69.109375 
C 24.203125 69.109375 22 69.109375 16.796875 69.109375 
C 11.796875 69.109375 9.40625 69.109375 2.203125 69.109375 
L 2.203125 66 
L 7 66 
C 11.59375 66 12.09375 65.1875 12.09375 57.234375 
L 12.09375 11.96875 
C 12.09375 4 11.59375 3.203125 7 3.203125 
L 2.203125 3.203125 
L 2.203125 0 
C 8.09375 0 11.59375 0 16.796875 0 
C 22 0 25.59375 0 31.5 0 
L 31.5 3.203125 
L 26.703125 3.203125 
C 22.09375 3.203125 21.59375 4 21.59375 11.96875 
z
" id="URW_Palladio_L_Roman-73"/>
     <path d="M 34.09375 71.890625 
C 32 72.6875 30.796875 73 29.5 73 
C 26.296875 73 22.796875 71.296875 20.59375 68.8125 
L 14.796875 62.265625 
C 11.90625 58.984375 10.59375 54.53125 10.59375 47.96875 
L 10.59375 43.796875 
L 3.703125 40.6875 
L 3.703125 38.6875 
L 10.59375 38.6875 
L 10.59375 10.171875 
C 10.59375 3.8125 10.296875 3.109375 6.90625 3.109375 
L 2.296875 3.109375 
L 2.296875 0 
C 12.296875 0 12.296875 0 14.796875 0 
C 17.296875 0 17.296875 0 27.296875 0 
L 27.296875 3.109375 
L 22.703125 3.109375 
C 19.296875 3.109375 19 3.828125 19 10.203125 
L 19 38.890625 
L 31.40625 38.890625 
L 32.09375 44 
L 19 44 
L 19 52.34375 
C 19 63.640625 20.296875 66.375 26 66.375 
C 28.703125 66.375 30.5 65.6875 32.90625 63.609375 
L 34.09375 64.203125 
z
" id="URW_Palladio_L_Roman-102"/>
     <path d="M 21.59375 32.8125 
C 24.40625 33 27.40625 33 31.90625 33 
C 39.296875 33 42 32.71875 43.796875 31.875 
L 44.59375 29.53125 
L 45.09375 24 
L 48.09375 24 
C 47.796875 33.3125 47.796875 33.3125 47.796875 35.109375 
C 47.796875 36.71875 47.796875 36.71875 48.09375 46.734375 
L 45.09375 46.734375 
L 44.59375 41.28125 
C 44.5 40.328125 44.203125 39.390625 43.796875 38.546875 
C 42 37.71875 39.203125 37.40625 32.59375 37.40625 
C 28.40625 37.40625 25 37.40625 21.59375 37.40625 
L 21.59375 64.328125 
C 24.59375 65 26.40625 65 32.296875 65 
C 37.09375 65 42.703125 64.4375 45.796875 63.6875 
C 48.203125 63.109375 48.5 62.625 48.5 60.4375 
L 48.5 54.140625 
L 52 54.140625 
C 52 60.046875 52.5 64.78125 53.59375 69.109375 
C 48.703125 69.109375 45.703125 69.109375 41.40625 69.109375 
L 30.703125 69.109375 
C 25.796875 69.109375 22.296875 69.109375 19.796875 69.109375 
C 16.90625 69.109375 16.90625 69.109375 2.203125 69.109375 
L 2.203125 66 
L 7 66 
C 11.59375 66 12.09375 65.1875 12.09375 57.234375 
L 12.09375 11.96875 
C 12.09375 4 11.59375 3.203125 7 3.203125 
L 2.203125 3.203125 
L 2.203125 0 
C 8.09375 0 11.59375 0 16.796875 0 
C 22 0 25.59375 0 31.5 0 
L 31.5 3.203125 
L 26.703125 3.203125 
C 22.09375 3.203125 21.59375 4 21.59375 11.96875 
z
" id="URW_Palladio_L_Roman-70"/>
     <path d="M 29.703125 8.8125 
C 27.5 12.625 26.40625 14.9375 24.59375 19.84375 
L 18.203125 36.671875 
C 17.59375 38.375 17.203125 39.875 17.203125 40.90625 
C 17.203125 42.34375 18.296875 43.1875 20.59375 43.1875 
L 24.40625 43.1875 
L 24.40625 46 
C 14.703125 46 14.703125 46 12.796875 46 
C 10.90625 46 10.90625 46 1.203125 46 
L 1.203125 43.390625 
L 3 43.1875 
C 5.5 42.890625 6.703125 41.78125 8.203125 38.296875 
L 19.09375 12.109375 
C 21.90625 5.3125 22.90625 2.90625 24.703125 -2.09375 
L 22.40625 -8.1875 
C 19.203125 -16.59375 15.296875 -21.28125 11.5 -21.28125 
C 9.90625 -21.28125 8.09375 -20.484375 6.40625 -18.984375 
L 5.09375 -18.984375 
L 2.703125 -26.5 
C 4.59375 -27.5 6.203125 -28 8.09375 -28 
C 14.796875 -28 19.09375 -24.40625 22.90625 -15.703125 
L 43.203125 31.09375 
C 47.203125 40.1875 49.09375 42.890625 51.59375 43.1875 
L 54.40625 43.390625 
L 54.40625 46 
C 46.5 46 46.5 46 44.90625 46 
C 43.296875 46 43.296875 46 35.40625 46 
L 35.40625 43.390625 
L 38 43.1875 
C 40.796875 42.984375 42.203125 42.09375 42.203125 40.6875 
C 42.203125 39.984375 42 39.078125 41.59375 38.078125 
z
" id="URW_Palladio_L_Roman-121"/>
     <path d="M 0.703125 66.375 
L 6.296875 66.375 
C 8.09375 66.375 8.796875 65.265625 8.796875 62.25 
L 8.796875 10.046875 
C 8.796875 3.703125 8.5 3 5.09375 3 
L 0.59375 3 
L 0.59375 -0.109375 
C 7.40625 -0.109375 10.09375 -0.109375 13 -0.109375 
C 15.90625 -0.109375 18.59375 -0.109375 25.40625 -0.109375 
L 25.40625 3 
L 20.90625 3 
C 17.5 3 17.203125 3.703125 17.203125 10.046875 
L 17.203125 31.421875 
C 17.203125 35.9375 23.796875 40.875 29.90625 40.875 
C 36.59375 40.875 41 35.890625 41 28.21875 
L 41 -0.109375 
C 47.09375 -0.109375 47.203125 -0.109375 48.90625 -0.109375 
C 50.296875 -0.109375 50.296875 -0.109375 57.203125 -0.109375 
L 57.203125 2.796875 
L 53.09375 3.203125 
C 49.703125 3.203125 49.40625 3.8125 49.40625 10.21875 
L 49.40625 29.5625 
C 49.40625 41.28125 43.90625 47 32.703125 47 
C 29 47 26.90625 46.296875 24.796875 44.484375 
L 17.203125 37.875 
L 17.203125 72.078125 
L 16.296875 72.890625 
C 11.90625 71.1875 8.59375 70.375 0.703125 69.171875 
z
" id="URW_Palladio_L_Roman-104"/>
    </defs>
    <g style="fill:#262626;" transform="translate(127.687594677 24.3077666514)scale(0.24 -0.24)">
     <use transform="scale(0.996264009963)" xlink:href="#URW_Palladio_L_Roman-72"/>
     <use transform="translate(82.8886609297 0.0)scale(0.996264009963)" xlink:href="#URW_Palladio_L_Roman-101"/>
     <use transform="translate(130.608956039 0.0)scale(0.996264009963)" xlink:href="#URW_Palladio_L_Roman-116"/>
     <use transform="translate(163.086043912 0.0)scale(0.996264009963)" xlink:href="#URW_Palladio_L_Roman-101"/>
     <use transform="translate(210.806339022 0.0)scale(0.996264009963)" xlink:href="#URW_Palladio_L_Roman-114"/>
     <use transform="translate(248.365656376 0.0)scale(0.996264009963)" xlink:href="#URW_Palladio_L_Roman-111"/>
     <use transform="translate(302.761236549 0.0)scale(0.996264009963)" xlink:href="#URW_Palladio_L_Roman-100"/>
     <use transform="translate(363.632867226 0.0)scale(0.996264009963)" xlink:href="#URW_Palladio_L_Roman-121"/>
     <use transform="translate(419.02454419 0.0)scale(0.996264009963)" xlink:href="#URW_Palladio_L_Roman-110"/>
     <use transform="translate(477.00660487 0.0)scale(0.996264009963)" xlink:href="#URW_Palladio_L_Roman-101"/>
     <use transform="translate(549.633500229 0.0)scale(0.996264009963)" xlink:href="#URW_Palladio_L_Roman-70"/>
     <use transform="translate(605.025177192 0.0)scale(0.996264009963)" xlink:href="#URW_Palladio_L_Roman-105"/>
     <use transform="translate(634.015538654 0.0)scale(0.996264009963)" xlink:href="#URW_Palladio_L_Roman-115"/>
     <use transform="translate(676.257004981 0.0)scale(0.996264009963)" xlink:href="#URW_Palladio_L_Roman-104"/>
     <use transform="translate(734.239065662 0.0)scale(0.996264009963)" xlink:href="#URW_Palladio_L_Roman-101"/>
     <use transform="translate(781.959360771 0.0)scale(0.996264009963)" xlink:href="#URW_Palladio_L_Roman-114"/>
     <use transform="translate(846.217857351 0.0)scale(0.996264009963)" xlink:href="#URW_Palladio_L_Roman-73"/>
     <use transform="translate(879.791936245 0.0)scale(0.996264009963)" xlink:href="#URW_Palladio_L_Roman-110"/>
     <use transform="translate(937.773996926 0.0)scale(0.996264009963)" xlink:href="#URW_Palladio_L_Roman-102"/>
     <use transform="translate(970.949226655 0.0)scale(0.996264009963)" xlink:href="#URW_Palladio_L_Roman-111"/>
     <use transform="translate(1025.34480683 0.0)scale(0.996264009963)" xlink:href="#URW_Palladio_L_Roman-114"/>
     <use transform="translate(1064.69670316 0.0)scale(0.996264009963)" xlink:href="#URW_Palladio_L_Roman-109"/>
     <use transform="translate(1152.66637743 0.0)scale(0.996264009963)" xlink:href="#URW_Palladio_L_Roman-97"/>
     <use transform="translate(1202.47957793 0.0)scale(0.996264009963)" xlink:href="#URW_Palladio_L_Roman-116"/>
     <use transform="translate(1234.9566658 0.0)scale(0.996264009963)" xlink:href="#URW_Palladio_L_Roman-105"/>
     <use transform="translate(1263.94702726 0.0)scale(0.996264009963)" xlink:href="#URW_Palladio_L_Roman-111"/>
     <use transform="translate(1318.34260743 0.0)scale(0.996264009963)" xlink:href="#URW_Palladio_L_Roman-110"/>
     <use transform="translate(1401.23126836 0.0)scale(0.996264009963)" xlink:href="#URW_Palladio_L_Roman-78"/>
     <use transform="translate(1484.0201752 0.0)scale(0.996264009963)" xlink:href="#URW_Palladio_L_Roman-111"/>
     <use transform="translate(1538.41575537 0.0)scale(0.996264009963)" xlink:href="#URW_Palladio_L_Roman-116"/>
     <use transform="translate(1595.79944349 0.0)scale(0.996264009963)" xlink:href="#URW_Palladio_L_Roman-73"/>
     <use transform="translate(1629.37352239 0.0)scale(0.996264009963)" xlink:href="#URW_Palladio_L_Roman-115"/>
     <use transform="translate(1671.61498871 0.0)scale(0.996264009963)" xlink:href="#URW_Palladio_L_Roman-111"/>
     <use transform="translate(1726.01056889 0.0)scale(0.996264009963)" xlink:href="#URW_Palladio_L_Roman-116"/>
     <use transform="translate(1758.48765676 0.0)scale(0.996264009963)" xlink:href="#URW_Palladio_L_Roman-114"/>
     <use transform="translate(1796.04697412 0.0)scale(0.996264009963)" xlink:href="#URW_Palladio_L_Roman-111"/>
     <use transform="translate(1850.44255429 0.0)scale(0.996264009963)" xlink:href="#URW_Palladio_L_Roman-112"/>
     <use transform="translate(1910.31694804 0.0)scale(0.996264009963)" xlink:href="#URW_Palladio_L_Roman-105"/>
     <use transform="translate(1939.3073095 0.0)scale(0.996264009963)" xlink:href="#URW_Palladio_L_Roman-99"/>
    </g>
   </g>
  </g>
 </g>
 <defs>
  <clipPath id="p8a2dffdc34">
   <rect height="288.0" width="576.0" x="77.7125046213" y="29.3077666514"/>
  </clipPath>
 </defs>
</svg>
