<?xml version="1.0" encoding="utf-8" standalone="no"?>
<!DOCTYPE svg PUBLIC "-//W3C//DTD SVG 1.1//EN"
  "http://www.w3.org/Graphics/SVG/1.1/DTD/svg11.dtd">
<!-- Created with matplotlib (http://matplotlib.org/) -->
<svg height="439pt" version="1.1" viewBox="0 0 856 439" width="856pt" xmlns="http://www.w3.org/2000/svg" xmlns:xlink="http://www.w3.org/1999/xlink">
 <defs>
  <style type="text/css">
*{stroke-linecap:butt;stroke-linejoin:round;stroke-miterlimit:100000;}
  </style>
 </defs>
 <g id="figure_1">
  <g id="patch_1">
   <path d="M 0 439.684375 
L 856.425 439.684375 
L 856.425 0 
L 0 0 
z
" style="fill:#ffffff;"/>
  </g>
  <g id="axes_1">
   <g id="patch_2">
    <path d="M 116.5 376.878125 
L 836.5 376.878125 
L 836.5 16.878125 
L 116.5 16.878125 
z
" style="fill:#eaeaf2;"/>
   </g>
   <g id="matplotlib.axis_1">
    <g id="xtick_1">
     <g id="line2d_1">
      <path clip-path="url(#pc74e7953eb)" d="M 193.642857 376.878125 
L 193.642857 16.878125 
" style="fill:none;stroke:#ffffff;stroke-linecap:round;"/>
     </g>
     <g id="line2d_2">
      <defs>
       <path d="M 0 0 
L 0 0 
" id="mb6be9be68b" style="stroke:#262626;"/>
      </defs>
      <g>
       <use style="fill:#262626;stroke:#262626;" x="193.642857143" xlink:href="#mb6be9be68b" y="376.878125"/>
      </g>
     </g>
     <g id="line2d_3">
      <g>
       <use style="fill:#262626;stroke:#262626;" x="193.642857143" xlink:href="#mb6be9be68b" y="16.878125"/>
      </g>
     </g>
     <g id="text_1">
      <!-- 5 -->
      <defs>
       <path d="M 10.796875 72.90625 
L 49.515625 72.90625 
L 49.515625 64.59375 
L 19.828125 64.59375 
L 19.828125 46.734375 
Q 21.96875 47.46875 24.109375 47.828125 
Q 26.265625 48.1875 28.421875 48.1875 
Q 40.625 48.1875 47.75 41.5 
Q 54.890625 34.8125 54.890625 23.390625 
Q 54.890625 11.625 47.5625 5.09375 
Q 40.234375 -1.421875 26.90625 -1.421875 
Q 22.3125 -1.421875 17.546875 -0.640625 
Q 12.796875 0.140625 7.71875 1.703125 
L 7.71875 11.625 
Q 12.109375 9.234375 16.796875 8.0625 
Q 21.484375 6.890625 26.703125 6.890625 
Q 35.15625 6.890625 40.078125 11.328125 
Q 45.015625 15.765625 45.015625 23.390625 
Q 45.015625 31 40.078125 35.4375 
Q 35.15625 39.890625 26.703125 39.890625 
Q 22.75 39.890625 18.8125 39.015625 
Q 14.890625 38.140625 10.796875 36.28125 
z
" id="BitstreamVeraSans-Roman-35"/>
      </defs>
      <g style="fill:#262626;" transform="translate(187.280357143 399.075)scale(0.2 -0.2)">
       <use xlink:href="#BitstreamVeraSans-Roman-35"/>
      </g>
     </g>
    </g>
    <g id="xtick_2">
     <g id="line2d_4">
      <path clip-path="url(#pc74e7953eb)" d="M 322.214286 376.878125 
L 322.214286 16.878125 
" style="fill:none;stroke:#ffffff;stroke-linecap:round;"/>
     </g>
     <g id="line2d_5">
      <g>
       <use style="fill:#262626;stroke:#262626;" x="322.214285714" xlink:href="#mb6be9be68b" y="376.878125"/>
      </g>
     </g>
     <g id="line2d_6">
      <g>
       <use style="fill:#262626;stroke:#262626;" x="322.214285714" xlink:href="#mb6be9be68b" y="16.878125"/>
      </g>
     </g>
     <g id="text_2">
      <!-- 10 -->
      <defs>
       <path d="M 31.78125 66.40625 
Q 24.171875 66.40625 20.328125 58.90625 
Q 16.5 51.421875 16.5 36.375 
Q 16.5 21.390625 20.328125 13.890625 
Q 24.171875 6.390625 31.78125 6.390625 
Q 39.453125 6.390625 43.28125 13.890625 
Q 47.125 21.390625 47.125 36.375 
Q 47.125 51.421875 43.28125 58.90625 
Q 39.453125 66.40625 31.78125 66.40625 
M 31.78125 74.21875 
Q 44.046875 74.21875 50.515625 64.515625 
Q 56.984375 54.828125 56.984375 36.375 
Q 56.984375 17.96875 50.515625 8.265625 
Q 44.046875 -1.421875 31.78125 -1.421875 
Q 19.53125 -1.421875 13.0625 8.265625 
Q 6.59375 17.96875 6.59375 36.375 
Q 6.59375 54.828125 13.0625 64.515625 
Q 19.53125 74.21875 31.78125 74.21875 
" id="BitstreamVeraSans-Roman-30"/>
       <path d="M 12.40625 8.296875 
L 28.515625 8.296875 
L 28.515625 63.921875 
L 10.984375 60.40625 
L 10.984375 69.390625 
L 28.421875 72.90625 
L 38.28125 72.90625 
L 38.28125 8.296875 
L 54.390625 8.296875 
L 54.390625 0 
L 12.40625 0 
z
" id="BitstreamVeraSans-Roman-31"/>
      </defs>
      <g style="fill:#262626;" transform="translate(309.489285714 399.075)scale(0.2 -0.2)">
       <use xlink:href="#BitstreamVeraSans-Roman-31"/>
       <use x="63.623046875" xlink:href="#BitstreamVeraSans-Roman-30"/>
      </g>
     </g>
    </g>
    <g id="xtick_3">
     <g id="line2d_7">
      <path clip-path="url(#pc74e7953eb)" d="M 450.785714 376.878125 
L 450.785714 16.878125 
" style="fill:none;stroke:#ffffff;stroke-linecap:round;"/>
     </g>
     <g id="line2d_8">
      <g>
       <use style="fill:#262626;stroke:#262626;" x="450.785714286" xlink:href="#mb6be9be68b" y="376.878125"/>
      </g>
     </g>
     <g id="line2d_9">
      <g>
       <use style="fill:#262626;stroke:#262626;" x="450.785714286" xlink:href="#mb6be9be68b" y="16.878125"/>
      </g>
     </g>
     <g id="text_3">
      <!-- 15 -->
      <g style="fill:#262626;" transform="translate(438.060714286 399.075)scale(0.2 -0.2)">
       <use xlink:href="#BitstreamVeraSans-Roman-31"/>
       <use x="63.623046875" xlink:href="#BitstreamVeraSans-Roman-35"/>
      </g>
     </g>
    </g>
    <g id="xtick_4">
     <g id="line2d_10">
      <path clip-path="url(#pc74e7953eb)" d="M 579.357143 376.878125 
L 579.357143 16.878125 
" style="fill:none;stroke:#ffffff;stroke-linecap:round;"/>
     </g>
     <g id="line2d_11">
      <g>
       <use style="fill:#262626;stroke:#262626;" x="579.357142857" xlink:href="#mb6be9be68b" y="376.878125"/>
      </g>
     </g>
     <g id="line2d_12">
      <g>
       <use style="fill:#262626;stroke:#262626;" x="579.357142857" xlink:href="#mb6be9be68b" y="16.878125"/>
      </g>
     </g>
     <g id="text_4">
      <!-- 20 -->
      <defs>
       <path d="M 19.1875 8.296875 
L 53.609375 8.296875 
L 53.609375 0 
L 7.328125 0 
L 7.328125 8.296875 
Q 12.9375 14.109375 22.625 23.890625 
Q 32.328125 33.6875 34.8125 36.53125 
Q 39.546875 41.84375 41.421875 45.53125 
Q 43.3125 49.21875 43.3125 52.78125 
Q 43.3125 58.59375 39.234375 62.25 
Q 35.15625 65.921875 28.609375 65.921875 
Q 23.96875 65.921875 18.8125 64.3125 
Q 13.671875 62.703125 7.8125 59.421875 
L 7.8125 69.390625 
Q 13.765625 71.78125 18.9375 73 
Q 24.125 74.21875 28.421875 74.21875 
Q 39.75 74.21875 46.484375 68.546875 
Q 53.21875 62.890625 53.21875 53.421875 
Q 53.21875 48.921875 51.53125 44.890625 
Q 49.859375 40.875 45.40625 35.40625 
Q 44.1875 33.984375 37.640625 27.21875 
Q 31.109375 20.453125 19.1875 8.296875 
" id="BitstreamVeraSans-Roman-32"/>
      </defs>
      <g style="fill:#262626;" transform="translate(566.632142857 399.075)scale(0.2 -0.2)">
       <use xlink:href="#BitstreamVeraSans-Roman-32"/>
       <use x="63.623046875" xlink:href="#BitstreamVeraSans-Roman-30"/>
      </g>
     </g>
    </g>
    <g id="xtick_5">
     <g id="line2d_13">
      <path clip-path="url(#pc74e7953eb)" d="M 707.928571 376.878125 
L 707.928571 16.878125 
" style="fill:none;stroke:#ffffff;stroke-linecap:round;"/>
     </g>
     <g id="line2d_14">
      <g>
       <use style="fill:#262626;stroke:#262626;" x="707.928571429" xlink:href="#mb6be9be68b" y="376.878125"/>
      </g>
     </g>
     <g id="line2d_15">
      <g>
       <use style="fill:#262626;stroke:#262626;" x="707.928571429" xlink:href="#mb6be9be68b" y="16.878125"/>
      </g>
     </g>
     <g id="text_5">
      <!-- 25 -->
      <g style="fill:#262626;" transform="translate(695.203571429 399.075)scale(0.2 -0.2)">
       <use xlink:href="#BitstreamVeraSans-Roman-32"/>
       <use x="63.623046875" xlink:href="#BitstreamVeraSans-Roman-35"/>
      </g>
     </g>
    </g>
    <g id="xtick_6">
     <g id="line2d_16">
      <path clip-path="url(#pc74e7953eb)" d="M 836.5 376.878125 
L 836.5 16.878125 
" style="fill:none;stroke:#ffffff;stroke-linecap:round;"/>
     </g>
     <g id="line2d_17">
      <g>
       <use style="fill:#262626;stroke:#262626;" x="836.5" xlink:href="#mb6be9be68b" y="376.878125"/>
      </g>
     </g>
     <g id="line2d_18">
      <g>
       <use style="fill:#262626;stroke:#262626;" x="836.5" xlink:href="#mb6be9be68b" y="16.878125"/>
      </g>
     </g>
     <g id="text_6">
      <!-- 30 -->
      <defs>
       <path d="M 40.578125 39.3125 
Q 47.65625 37.796875 51.625 33 
Q 55.609375 28.21875 55.609375 21.1875 
Q 55.609375 10.40625 48.1875 4.484375 
Q 40.765625 -1.421875 27.09375 -1.421875 
Q 22.515625 -1.421875 17.65625 -0.515625 
Q 12.796875 0.390625 7.625 2.203125 
L 7.625 11.71875 
Q 11.71875 9.328125 16.59375 8.109375 
Q 21.484375 6.890625 26.8125 6.890625 
Q 36.078125 6.890625 40.9375 10.546875 
Q 45.796875 14.203125 45.796875 21.1875 
Q 45.796875 27.640625 41.28125 31.265625 
Q 36.765625 34.90625 28.71875 34.90625 
L 20.21875 34.90625 
L 20.21875 43.015625 
L 29.109375 43.015625 
Q 36.375 43.015625 40.234375 45.921875 
Q 44.09375 48.828125 44.09375 54.296875 
Q 44.09375 59.90625 40.109375 62.90625 
Q 36.140625 65.921875 28.71875 65.921875 
Q 24.65625 65.921875 20.015625 65.03125 
Q 15.375 64.15625 9.8125 62.3125 
L 9.8125 71.09375 
Q 15.4375 72.65625 20.34375 73.4375 
Q 25.25 74.21875 29.59375 74.21875 
Q 40.828125 74.21875 47.359375 69.109375 
Q 53.90625 64.015625 53.90625 55.328125 
Q 53.90625 49.265625 50.4375 45.09375 
Q 46.96875 40.921875 40.578125 39.3125 
" id="BitstreamVeraSans-Roman-33"/>
      </defs>
      <g style="fill:#262626;" transform="translate(823.775 399.075)scale(0.2 -0.2)">
       <use xlink:href="#BitstreamVeraSans-Roman-33"/>
       <use x="63.623046875" xlink:href="#BitstreamVeraSans-Roman-30"/>
      </g>
     </g>
    </g>
    <g id="text_7">
     <!-- $d$ (Hilbert Space Dimension) -->
     <defs>
      <path id="BitstreamVeraSans-Roman-20"/>
      <path d="M 54.890625 33.015625 
L 54.890625 0 
L 45.90625 0 
L 45.90625 32.71875 
Q 45.90625 40.484375 42.875 44.328125 
Q 39.84375 48.1875 33.796875 48.1875 
Q 26.515625 48.1875 22.3125 43.546875 
Q 18.109375 38.921875 18.109375 30.90625 
L 18.109375 0 
L 9.078125 0 
L 9.078125 54.6875 
L 18.109375 54.6875 
L 18.109375 46.1875 
Q 21.34375 51.125 25.703125 53.5625 
Q 30.078125 56 35.796875 56 
Q 45.21875 56 50.046875 50.171875 
Q 54.890625 44.34375 54.890625 33.015625 
" id="BitstreamVeraSans-Roman-6e"/>
      <path d="M 31 75.875 
Q 24.46875 64.65625 21.28125 53.65625 
Q 18.109375 42.671875 18.109375 31.390625 
Q 18.109375 20.125 21.3125 9.0625 
Q 24.515625 -2 31 -13.1875 
L 23.1875 -13.1875 
Q 15.875 -1.703125 12.234375 9.375 
Q 8.59375 20.453125 8.59375 31.390625 
Q 8.59375 42.28125 12.203125 53.3125 
Q 15.828125 64.359375 23.1875 75.875 
z
" id="BitstreamVeraSans-Roman-28"/>
      <path d="M 30.609375 48.390625 
Q 23.390625 48.390625 19.1875 42.75 
Q 14.984375 37.109375 14.984375 27.296875 
Q 14.984375 17.484375 19.15625 11.84375 
Q 23.34375 6.203125 30.609375 6.203125 
Q 37.796875 6.203125 41.984375 11.859375 
Q 46.1875 17.53125 46.1875 27.296875 
Q 46.1875 37.015625 41.984375 42.703125 
Q 37.796875 48.390625 30.609375 48.390625 
M 30.609375 56 
Q 42.328125 56 49.015625 48.375 
Q 55.71875 40.765625 55.71875 27.296875 
Q 55.71875 13.875 49.015625 6.21875 
Q 42.328125 -1.421875 30.609375 -1.421875 
Q 18.84375 -1.421875 12.171875 6.21875 
Q 5.515625 13.875 5.515625 27.296875 
Q 5.515625 40.765625 12.171875 48.375 
Q 18.84375 56 30.609375 56 
" id="BitstreamVeraSans-Roman-6f"/>
      <path d="M 8.015625 75.875 
L 15.828125 75.875 
Q 23.140625 64.359375 26.78125 53.3125 
Q 30.421875 42.28125 30.421875 31.390625 
Q 30.421875 20.453125 26.78125 9.375 
Q 23.140625 -1.703125 15.828125 -13.1875 
L 8.015625 -13.1875 
Q 14.5 -2 17.703125 9.0625 
Q 20.90625 20.125 20.90625 31.390625 
Q 20.90625 42.671875 17.703125 53.65625 
Q 14.5 64.65625 8.015625 75.875 
" id="BitstreamVeraSans-Roman-29"/>
      <path d="M 9.421875 75.984375 
L 18.40625 75.984375 
L 18.40625 0 
L 9.421875 0 
z
" id="BitstreamVeraSans-Roman-6c"/>
      <path d="M 19.671875 64.796875 
L 19.671875 8.109375 
L 31.59375 8.109375 
Q 46.6875 8.109375 53.6875 14.9375 
Q 60.6875 21.78125 60.6875 36.53125 
Q 60.6875 51.171875 53.6875 57.984375 
Q 46.6875 64.796875 31.59375 64.796875 
z
M 9.8125 72.90625 
L 30.078125 72.90625 
Q 51.265625 72.90625 61.171875 64.09375 
Q 71.09375 55.28125 71.09375 36.53125 
Q 71.09375 17.671875 61.125 8.828125 
Q 51.171875 0 30.078125 0 
L 9.8125 0 
z
" id="BitstreamVeraSans-Roman-44"/>
      <path d="M 34.28125 27.484375 
Q 23.390625 27.484375 19.1875 25 
Q 14.984375 22.515625 14.984375 16.5 
Q 14.984375 11.71875 18.140625 8.90625 
Q 21.296875 6.109375 26.703125 6.109375 
Q 34.1875 6.109375 38.703125 11.40625 
Q 43.21875 16.703125 43.21875 25.484375 
L 43.21875 27.484375 
z
M 52.203125 31.203125 
L 52.203125 0 
L 43.21875 0 
L 43.21875 8.296875 
Q 40.140625 3.328125 35.546875 0.953125 
Q 30.953125 -1.421875 24.3125 -1.421875 
Q 15.921875 -1.421875 10.953125 3.296875 
Q 6 8.015625 6 15.921875 
Q 6 25.140625 12.171875 29.828125 
Q 18.359375 34.515625 30.609375 34.515625 
L 43.21875 34.515625 
L 43.21875 35.40625 
Q 43.21875 41.609375 39.140625 45 
Q 35.0625 48.390625 27.6875 48.390625 
Q 23 48.390625 18.546875 47.265625 
Q 14.109375 46.140625 10.015625 43.890625 
L 10.015625 52.203125 
Q 14.9375 54.109375 19.578125 55.046875 
Q 24.21875 56 28.609375 56 
Q 40.484375 56 46.34375 49.84375 
Q 52.203125 43.703125 52.203125 31.203125 
" id="BitstreamVeraSans-Roman-61"/>
      <path d="M 53.515625 70.515625 
L 53.515625 60.890625 
Q 47.90625 63.578125 42.921875 64.890625 
Q 37.9375 66.21875 33.296875 66.21875 
Q 25.25 66.21875 20.875 63.09375 
Q 16.5 59.96875 16.5 54.203125 
Q 16.5 49.359375 19.40625 46.890625 
Q 22.3125 44.4375 30.421875 42.921875 
L 36.375 41.703125 
Q 47.40625 39.59375 52.65625 34.296875 
Q 57.90625 29 57.90625 20.125 
Q 57.90625 9.515625 50.796875 4.046875 
Q 43.703125 -1.421875 29.984375 -1.421875 
Q 24.8125 -1.421875 18.96875 -0.25 
Q 13.140625 0.921875 6.890625 3.21875 
L 6.890625 13.375 
Q 12.890625 10.015625 18.65625 8.296875 
Q 24.421875 6.59375 29.984375 6.59375 
Q 38.421875 6.59375 43.015625 9.90625 
Q 47.609375 13.234375 47.609375 19.390625 
Q 47.609375 24.75 44.3125 27.78125 
Q 41.015625 30.8125 33.5 32.328125 
L 27.484375 33.5 
Q 16.453125 35.6875 11.515625 40.375 
Q 6.59375 45.0625 6.59375 53.421875 
Q 6.59375 63.09375 13.40625 68.65625 
Q 20.21875 74.21875 32.171875 74.21875 
Q 37.3125 74.21875 42.625 73.28125 
Q 47.953125 72.359375 53.515625 70.515625 
" id="BitstreamVeraSans-Roman-53"/>
      <path d="M 9.421875 54.6875 
L 18.40625 54.6875 
L 18.40625 0 
L 9.421875 0 
z
M 9.421875 75.984375 
L 18.40625 75.984375 
L 18.40625 64.59375 
L 9.421875 64.59375 
z
" id="BitstreamVeraSans-Roman-69"/>
      <path d="M 17.390625 -1.125 
Q 11.078125 -1.125 7.4375 3.640625 
Q 3.8125 8.40625 3.8125 14.890625 
Q 3.8125 21.296875 7.125 28.171875 
Q 10.453125 35.0625 16.09375 39.625 
Q 21.734375 44.1875 28.21875 44.1875 
Q 31.15625 44.1875 33.515625 42.546875 
Q 35.890625 40.921875 37.203125 38.1875 
L 42.828125 60.5 
Q 43.21875 62.203125 43.3125 63.1875 
Q 43.3125 64.796875 36.8125 64.796875 
Q 35.796875 64.796875 35.796875 66.109375 
Q 35.84375 66.359375 36.015625 66.984375 
Q 36.1875 67.625 36.453125 67.96875 
Q 36.71875 68.3125 37.203125 68.3125 
L 50.6875 69.390625 
Q 51.90625 69.390625 51.90625 68.109375 
L 37.5 10.59375 
Q 36.8125 8.9375 36.8125 5.8125 
Q 36.8125 1.515625 39.703125 1.515625 
Q 42.828125 1.515625 44.453125 5.484375 
Q 46.09375 9.46875 47.21875 14.703125 
Q 47.40625 15.28125 48 15.28125 
L 49.21875 15.28125 
Q 49.609375 15.28125 49.84375 14.9375 
Q 50.09375 14.59375 50.09375 14.3125 
Q 48.34375 7.328125 46.265625 3.09375 
Q 44.1875 -1.125 39.5 -1.125 
Q 36.140625 -1.125 33.546875 0.84375 
Q 30.953125 2.828125 30.328125 6.109375 
Q 23.875 -1.125 17.390625 -1.125 
M 17.484375 1.515625 
Q 21.09375 1.515625 24.484375 4.21875 
Q 27.875 6.9375 30.328125 10.59375 
Q 30.421875 10.6875 30.421875 10.984375 
L 35.890625 33.015625 
Q 35.296875 36.53125 33.296875 39.0625 
Q 31.296875 41.609375 27.984375 41.609375 
Q 24.609375 41.609375 21.703125 38.84375 
Q 18.796875 36.078125 16.796875 32.328125 
Q 14.84375 28.328125 13.0625 21.34375 
Q 11.28125 14.359375 11.28125 10.5 
Q 11.28125 7.03125 12.765625 4.265625 
Q 14.265625 1.515625 17.484375 1.515625 
" id="Cmmi10-64"/>
      <path d="M 48.78125 52.59375 
L 48.78125 44.1875 
Q 44.96875 46.296875 41.140625 47.34375 
Q 37.3125 48.390625 33.40625 48.390625 
Q 24.65625 48.390625 19.8125 42.84375 
Q 14.984375 37.3125 14.984375 27.296875 
Q 14.984375 17.28125 19.8125 11.734375 
Q 24.65625 6.203125 33.40625 6.203125 
Q 37.3125 6.203125 41.140625 7.25 
Q 44.96875 8.296875 48.78125 10.40625 
L 48.78125 2.09375 
Q 45.015625 0.34375 40.984375 -0.53125 
Q 36.96875 -1.421875 32.421875 -1.421875 
Q 20.0625 -1.421875 12.78125 6.34375 
Q 5.515625 14.109375 5.515625 27.296875 
Q 5.515625 40.671875 12.859375 48.328125 
Q 20.21875 56 33.015625 56 
Q 37.15625 56 41.109375 55.140625 
Q 45.0625 54.296875 48.78125 52.59375 
" id="BitstreamVeraSans-Roman-63"/>
      <path d="M 52 44.1875 
Q 55.375 50.25 60.0625 53.125 
Q 64.75 56 71.09375 56 
Q 79.640625 56 84.28125 50.015625 
Q 88.921875 44.046875 88.921875 33.015625 
L 88.921875 0 
L 79.890625 0 
L 79.890625 32.71875 
Q 79.890625 40.578125 77.09375 44.375 
Q 74.3125 48.1875 68.609375 48.1875 
Q 61.625 48.1875 57.5625 43.546875 
Q 53.515625 38.921875 53.515625 30.90625 
L 53.515625 0 
L 44.484375 0 
L 44.484375 32.71875 
Q 44.484375 40.625 41.703125 44.40625 
Q 38.921875 48.1875 33.109375 48.1875 
Q 26.21875 48.1875 22.15625 43.53125 
Q 18.109375 38.875 18.109375 30.90625 
L 18.109375 0 
L 9.078125 0 
L 9.078125 54.6875 
L 18.109375 54.6875 
L 18.109375 46.1875 
Q 21.1875 51.21875 25.484375 53.609375 
Q 29.78125 56 35.6875 56 
Q 41.65625 56 45.828125 52.96875 
Q 50 49.953125 52 44.1875 
" id="BitstreamVeraSans-Roman-6d"/>
      <path d="M 56.203125 29.59375 
L 56.203125 25.203125 
L 14.890625 25.203125 
Q 15.484375 15.921875 20.484375 11.0625 
Q 25.484375 6.203125 34.421875 6.203125 
Q 39.59375 6.203125 44.453125 7.46875 
Q 49.3125 8.734375 54.109375 11.28125 
L 54.109375 2.78125 
Q 49.265625 0.734375 44.1875 -0.34375 
Q 39.109375 -1.421875 33.890625 -1.421875 
Q 20.796875 -1.421875 13.15625 6.1875 
Q 5.515625 13.8125 5.515625 26.8125 
Q 5.515625 40.234375 12.765625 48.109375 
Q 20.015625 56 32.328125 56 
Q 43.359375 56 49.78125 48.890625 
Q 56.203125 41.796875 56.203125 29.59375 
M 47.21875 32.234375 
Q 47.125 39.59375 43.09375 43.984375 
Q 39.0625 48.390625 32.421875 48.390625 
Q 24.90625 48.390625 20.390625 44.140625 
Q 15.875 39.890625 15.1875 32.171875 
z
" id="BitstreamVeraSans-Roman-65"/>
      <path d="M 18.3125 70.21875 
L 18.3125 54.6875 
L 36.8125 54.6875 
L 36.8125 47.703125 
L 18.3125 47.703125 
L 18.3125 18.015625 
Q 18.3125 11.328125 20.140625 9.421875 
Q 21.96875 7.515625 27.59375 7.515625 
L 36.8125 7.515625 
L 36.8125 0 
L 27.59375 0 
Q 17.1875 0 13.234375 3.875 
Q 9.28125 7.765625 9.28125 18.015625 
L 9.28125 47.703125 
L 2.6875 47.703125 
L 2.6875 54.6875 
L 9.28125 54.6875 
L 9.28125 70.21875 
z
" id="BitstreamVeraSans-Roman-74"/>
      <path d="M 48.6875 27.296875 
Q 48.6875 37.203125 44.609375 42.84375 
Q 40.53125 48.484375 33.40625 48.484375 
Q 26.265625 48.484375 22.1875 42.84375 
Q 18.109375 37.203125 18.109375 27.296875 
Q 18.109375 17.390625 22.1875 11.75 
Q 26.265625 6.109375 33.40625 6.109375 
Q 40.53125 6.109375 44.609375 11.75 
Q 48.6875 17.390625 48.6875 27.296875 
M 18.109375 46.390625 
Q 20.953125 51.265625 25.265625 53.625 
Q 29.59375 56 35.59375 56 
Q 45.5625 56 51.78125 48.09375 
Q 58.015625 40.1875 58.015625 27.296875 
Q 58.015625 14.40625 51.78125 6.484375 
Q 45.5625 -1.421875 35.59375 -1.421875 
Q 29.59375 -1.421875 25.265625 0.953125 
Q 20.953125 3.328125 18.109375 8.203125 
L 18.109375 0 
L 9.078125 0 
L 9.078125 75.984375 
L 18.109375 75.984375 
z
" id="BitstreamVeraSans-Roman-62"/>
      <path d="M 41.109375 46.296875 
Q 39.59375 47.171875 37.8125 47.578125 
Q 36.03125 48 33.890625 48 
Q 26.265625 48 22.1875 43.046875 
Q 18.109375 38.09375 18.109375 28.8125 
L 18.109375 0 
L 9.078125 0 
L 9.078125 54.6875 
L 18.109375 54.6875 
L 18.109375 46.1875 
Q 20.953125 51.171875 25.484375 53.578125 
Q 30.03125 56 36.53125 56 
Q 37.453125 56 38.578125 55.875 
Q 39.703125 55.765625 41.0625 55.515625 
z
" id="BitstreamVeraSans-Roman-72"/>
      <path d="M 44.28125 53.078125 
L 44.28125 44.578125 
Q 40.484375 46.53125 36.375 47.5 
Q 32.28125 48.484375 27.875 48.484375 
Q 21.1875 48.484375 17.84375 46.4375 
Q 14.5 44.390625 14.5 40.28125 
Q 14.5 37.15625 16.890625 35.375 
Q 19.28125 33.59375 26.515625 31.984375 
L 29.59375 31.296875 
Q 39.15625 29.25 43.1875 25.515625 
Q 47.21875 21.78125 47.21875 15.09375 
Q 47.21875 7.46875 41.1875 3.015625 
Q 35.15625 -1.421875 24.609375 -1.421875 
Q 20.21875 -1.421875 15.453125 -0.5625 
Q 10.6875 0.296875 5.421875 2 
L 5.421875 11.28125 
Q 10.40625 8.6875 15.234375 7.390625 
Q 20.0625 6.109375 24.8125 6.109375 
Q 31.15625 6.109375 34.5625 8.28125 
Q 37.984375 10.453125 37.984375 14.40625 
Q 37.984375 18.0625 35.515625 20.015625 
Q 33.0625 21.96875 24.703125 23.78125 
L 21.578125 24.515625 
Q 13.234375 26.265625 9.515625 29.90625 
Q 5.8125 33.546875 5.8125 39.890625 
Q 5.8125 47.609375 11.28125 51.796875 
Q 16.75 56 26.8125 56 
Q 31.78125 56 36.171875 55.265625 
Q 40.578125 54.546875 44.28125 53.078125 
" id="BitstreamVeraSans-Roman-73"/>
      <path d="M 18.109375 8.203125 
L 18.109375 -20.796875 
L 9.078125 -20.796875 
L 9.078125 54.6875 
L 18.109375 54.6875 
L 18.109375 46.390625 
Q 20.953125 51.265625 25.265625 53.625 
Q 29.59375 56 35.59375 56 
Q 45.5625 56 51.78125 48.09375 
Q 58.015625 40.1875 58.015625 27.296875 
Q 58.015625 14.40625 51.78125 6.484375 
Q 45.5625 -1.421875 35.59375 -1.421875 
Q 29.59375 -1.421875 25.265625 0.953125 
Q 20.953125 3.328125 18.109375 8.203125 
M 48.6875 27.296875 
Q 48.6875 37.203125 44.609375 42.84375 
Q 40.53125 48.484375 33.40625 48.484375 
Q 26.265625 48.484375 22.1875 42.84375 
Q 18.109375 37.203125 18.109375 27.296875 
Q 18.109375 17.390625 22.1875 11.75 
Q 26.265625 6.109375 33.40625 6.109375 
Q 40.53125 6.109375 44.609375 11.75 
Q 48.6875 17.390625 48.6875 27.296875 
" id="BitstreamVeraSans-Roman-70"/>
      <path d="M 9.8125 72.90625 
L 19.671875 72.90625 
L 19.671875 43.015625 
L 55.515625 43.015625 
L 55.515625 72.90625 
L 65.375 72.90625 
L 65.375 0 
L 55.515625 0 
L 55.515625 34.71875 
L 19.671875 34.71875 
L 19.671875 0 
L 9.8125 0 
z
" id="BitstreamVeraSans-Roman-48"/>
     </defs>
     <g style="fill:#262626;" transform="translate(301.75 427.234375)scale(0.25 -0.25)">
      <use transform="translate(0.0 0.015625)" xlink:href="#Cmmi10-64"/>
      <use transform="translate(52.001953125 0.015625)" xlink:href="#BitstreamVeraSans-Roman-20"/>
      <use transform="translate(83.7890625 0.015625)" xlink:href="#BitstreamVeraSans-Roman-28"/>
      <use transform="translate(122.802734375 0.015625)" xlink:href="#BitstreamVeraSans-Roman-48"/>
      <use transform="translate(197.998046875 0.015625)" xlink:href="#BitstreamVeraSans-Roman-69"/>
      <use transform="translate(225.78125 0.015625)" xlink:href="#BitstreamVeraSans-Roman-6c"/>
      <use transform="translate(253.564453125 0.015625)" xlink:href="#BitstreamVeraSans-Roman-62"/>
      <use transform="translate(317.041015625 0.015625)" xlink:href="#BitstreamVeraSans-Roman-65"/>
      <use transform="translate(378.564453125 0.015625)" xlink:href="#BitstreamVeraSans-Roman-72"/>
      <use transform="translate(419.677734375 0.015625)" xlink:href="#BitstreamVeraSans-Roman-74"/>
      <use transform="translate(458.88671875 0.015625)" xlink:href="#BitstreamVeraSans-Roman-20"/>
      <use transform="translate(490.673828125 0.015625)" xlink:href="#BitstreamVeraSans-Roman-53"/>
      <use transform="translate(554.150390625 0.015625)" xlink:href="#BitstreamVeraSans-Roman-70"/>
      <use transform="translate(617.626953125 0.015625)" xlink:href="#BitstreamVeraSans-Roman-61"/>
      <use transform="translate(678.90625 0.015625)" xlink:href="#BitstreamVeraSans-Roman-63"/>
      <use transform="translate(733.88671875 0.015625)" xlink:href="#BitstreamVeraSans-Roman-65"/>
      <use transform="translate(795.41015625 0.015625)" xlink:href="#BitstreamVeraSans-Roman-20"/>
      <use transform="translate(827.197265625 0.015625)" xlink:href="#BitstreamVeraSans-Roman-44"/>
      <use transform="translate(904.19921875 0.015625)" xlink:href="#BitstreamVeraSans-Roman-69"/>
      <use transform="translate(931.982421875 0.015625)" xlink:href="#BitstreamVeraSans-Roman-6d"/>
      <use transform="translate(1029.39453125 0.015625)" xlink:href="#BitstreamVeraSans-Roman-65"/>
      <use transform="translate(1090.91796875 0.015625)" xlink:href="#BitstreamVeraSans-Roman-6e"/>
      <use transform="translate(1154.296875 0.015625)" xlink:href="#BitstreamVeraSans-Roman-73"/>
      <use transform="translate(1206.39648438 0.015625)" xlink:href="#BitstreamVeraSans-Roman-69"/>
      <use transform="translate(1234.1796875 0.015625)" xlink:href="#BitstreamVeraSans-Roman-6f"/>
      <use transform="translate(1295.36132812 0.015625)" xlink:href="#BitstreamVeraSans-Roman-6e"/>
      <use transform="translate(1358.74023438 0.015625)" xlink:href="#BitstreamVeraSans-Roman-29"/>
     </g>
    </g>
   </g>
   <g id="matplotlib.axis_2">
    <g id="ytick_1">
     <g id="line2d_19">
      <path clip-path="url(#pc74e7953eb)" d="M 116.5 376.878125 
L 836.5 376.878125 
" style="fill:none;stroke:#ffffff;stroke-linecap:round;"/>
     </g>
     <g id="line2d_20">
      <g>
       <use style="fill:#262626;stroke:#262626;" x="116.5" xlink:href="#mb6be9be68b" y="376.878125"/>
      </g>
     </g>
     <g id="line2d_21">
      <g>
       <use style="fill:#262626;stroke:#262626;" x="836.5" xlink:href="#mb6be9be68b" y="376.878125"/>
      </g>
     </g>
     <g id="text_8">
      <!-- 0 -->
      <g style="fill:#262626;" transform="translate(96.775 382.396875)scale(0.2 -0.2)">
       <use xlink:href="#BitstreamVeraSans-Roman-30"/>
      </g>
     </g>
    </g>
    <g id="ytick_2">
     <g id="line2d_22">
      <path clip-path="url(#pc74e7953eb)" d="M 116.5 336.878125 
L 836.5 336.878125 
" style="fill:none;stroke:#ffffff;stroke-linecap:round;"/>
     </g>
     <g id="line2d_23">
      <g>
       <use style="fill:#262626;stroke:#262626;" x="116.5" xlink:href="#mb6be9be68b" y="336.878125"/>
      </g>
     </g>
     <g id="line2d_24">
      <g>
       <use style="fill:#262626;stroke:#262626;" x="836.5" xlink:href="#mb6be9be68b" y="336.878125"/>
      </g>
     </g>
     <g id="text_9">
      <!-- 100 -->
      <g style="fill:#262626;" transform="translate(71.325 342.396875)scale(0.2 -0.2)">
       <use xlink:href="#BitstreamVeraSans-Roman-31"/>
       <use x="63.623046875" xlink:href="#BitstreamVeraSans-Roman-30"/>
       <use x="127.24609375" xlink:href="#BitstreamVeraSans-Roman-30"/>
      </g>
     </g>
    </g>
    <g id="ytick_3">
     <g id="line2d_25">
      <path clip-path="url(#pc74e7953eb)" d="M 116.5 296.878125 
L 836.5 296.878125 
" style="fill:none;stroke:#ffffff;stroke-linecap:round;"/>
     </g>
     <g id="line2d_26">
      <g>
       <use style="fill:#262626;stroke:#262626;" x="116.5" xlink:href="#mb6be9be68b" y="296.878125"/>
      </g>
     </g>
     <g id="line2d_27">
      <g>
       <use style="fill:#262626;stroke:#262626;" x="836.5" xlink:href="#mb6be9be68b" y="296.878125"/>
      </g>
     </g>
     <g id="text_10">
      <!-- 200 -->
      <g style="fill:#262626;" transform="translate(71.325 302.396875)scale(0.2 -0.2)">
       <use xlink:href="#BitstreamVeraSans-Roman-32"/>
       <use x="63.623046875" xlink:href="#BitstreamVeraSans-Roman-30"/>
       <use x="127.24609375" xlink:href="#BitstreamVeraSans-Roman-30"/>
      </g>
     </g>
    </g>
    <g id="ytick_4">
     <g id="line2d_28">
      <path clip-path="url(#pc74e7953eb)" d="M 116.5 256.878125 
L 836.5 256.878125 
" style="fill:none;stroke:#ffffff;stroke-linecap:round;"/>
     </g>
     <g id="line2d_29">
      <g>
       <use style="fill:#262626;stroke:#262626;" x="116.5" xlink:href="#mb6be9be68b" y="256.878125"/>
      </g>
     </g>
     <g id="line2d_30">
      <g>
       <use style="fill:#262626;stroke:#262626;" x="836.5" xlink:href="#mb6be9be68b" y="256.878125"/>
      </g>
     </g>
     <g id="text_11">
      <!-- 300 -->
      <g style="fill:#262626;" transform="translate(71.325 262.396875)scale(0.2 -0.2)">
       <use xlink:href="#BitstreamVeraSans-Roman-33"/>
       <use x="63.623046875" xlink:href="#BitstreamVeraSans-Roman-30"/>
       <use x="127.24609375" xlink:href="#BitstreamVeraSans-Roman-30"/>
      </g>
     </g>
    </g>
    <g id="ytick_5">
     <g id="line2d_31">
      <path clip-path="url(#pc74e7953eb)" d="M 116.5 216.878125 
L 836.5 216.878125 
" style="fill:none;stroke:#ffffff;stroke-linecap:round;"/>
     </g>
     <g id="line2d_32">
      <g>
       <use style="fill:#262626;stroke:#262626;" x="116.5" xlink:href="#mb6be9be68b" y="216.878125"/>
      </g>
     </g>
     <g id="line2d_33">
      <g>
       <use style="fill:#262626;stroke:#262626;" x="836.5" xlink:href="#mb6be9be68b" y="216.878125"/>
      </g>
     </g>
     <g id="text_12">
      <!-- 400 -->
      <defs>
       <path d="M 37.796875 64.3125 
L 12.890625 25.390625 
L 37.796875 25.390625 
z
M 35.203125 72.90625 
L 47.609375 72.90625 
L 47.609375 25.390625 
L 58.015625 25.390625 
L 58.015625 17.1875 
L 47.609375 17.1875 
L 47.609375 0 
L 37.796875 0 
L 37.796875 17.1875 
L 4.890625 17.1875 
L 4.890625 26.703125 
z
" id="BitstreamVeraSans-Roman-34"/>
      </defs>
      <g style="fill:#262626;" transform="translate(71.325 222.396875)scale(0.2 -0.2)">
       <use xlink:href="#BitstreamVeraSans-Roman-34"/>
       <use x="63.623046875" xlink:href="#BitstreamVeraSans-Roman-30"/>
       <use x="127.24609375" xlink:href="#BitstreamVeraSans-Roman-30"/>
      </g>
     </g>
    </g>
    <g id="ytick_6">
     <g id="line2d_34">
      <path clip-path="url(#pc74e7953eb)" d="M 116.5 176.878125 
L 836.5 176.878125 
" style="fill:none;stroke:#ffffff;stroke-linecap:round;"/>
     </g>
     <g id="line2d_35">
      <g>
       <use style="fill:#262626;stroke:#262626;" x="116.5" xlink:href="#mb6be9be68b" y="176.878125"/>
      </g>
     </g>
     <g id="line2d_36">
      <g>
       <use style="fill:#262626;stroke:#262626;" x="836.5" xlink:href="#mb6be9be68b" y="176.878125"/>
      </g>
     </g>
     <g id="text_13">
      <!-- 500 -->
      <g style="fill:#262626;" transform="translate(71.325 182.396875)scale(0.2 -0.2)">
       <use xlink:href="#BitstreamVeraSans-Roman-35"/>
       <use x="63.623046875" xlink:href="#BitstreamVeraSans-Roman-30"/>
       <use x="127.24609375" xlink:href="#BitstreamVeraSans-Roman-30"/>
      </g>
     </g>
    </g>
    <g id="ytick_7">
     <g id="line2d_37">
      <path clip-path="url(#pc74e7953eb)" d="M 116.5 136.878125 
L 836.5 136.878125 
" style="fill:none;stroke:#ffffff;stroke-linecap:round;"/>
     </g>
     <g id="line2d_38">
      <g>
       <use style="fill:#262626;stroke:#262626;" x="116.5" xlink:href="#mb6be9be68b" y="136.878125"/>
      </g>
     </g>
     <g id="line2d_39">
      <g>
       <use style="fill:#262626;stroke:#262626;" x="836.5" xlink:href="#mb6be9be68b" y="136.878125"/>
      </g>
     </g>
     <g id="text_14">
      <!-- 600 -->
      <defs>
       <path d="M 33.015625 40.375 
Q 26.375 40.375 22.484375 35.828125 
Q 18.609375 31.296875 18.609375 23.390625 
Q 18.609375 15.53125 22.484375 10.953125 
Q 26.375 6.390625 33.015625 6.390625 
Q 39.65625 6.390625 43.53125 10.953125 
Q 47.40625 15.53125 47.40625 23.390625 
Q 47.40625 31.296875 43.53125 35.828125 
Q 39.65625 40.375 33.015625 40.375 
M 52.59375 71.296875 
L 52.59375 62.3125 
Q 48.875 64.0625 45.09375 64.984375 
Q 41.3125 65.921875 37.59375 65.921875 
Q 27.828125 65.921875 22.671875 59.328125 
Q 17.53125 52.734375 16.796875 39.40625 
Q 19.671875 43.65625 24.015625 45.921875 
Q 28.375 48.1875 33.59375 48.1875 
Q 44.578125 48.1875 50.953125 41.515625 
Q 57.328125 34.859375 57.328125 23.390625 
Q 57.328125 12.15625 50.6875 5.359375 
Q 44.046875 -1.421875 33.015625 -1.421875 
Q 20.359375 -1.421875 13.671875 8.265625 
Q 6.984375 17.96875 6.984375 36.375 
Q 6.984375 53.65625 15.1875 63.9375 
Q 23.390625 74.21875 37.203125 74.21875 
Q 40.921875 74.21875 44.703125 73.484375 
Q 48.484375 72.75 52.59375 71.296875 
" id="BitstreamVeraSans-Roman-36"/>
      </defs>
      <g style="fill:#262626;" transform="translate(71.325 142.396875)scale(0.2 -0.2)">
       <use xlink:href="#BitstreamVeraSans-Roman-36"/>
       <use x="63.623046875" xlink:href="#BitstreamVeraSans-Roman-30"/>
       <use x="127.24609375" xlink:href="#BitstreamVeraSans-Roman-30"/>
      </g>
     </g>
    </g>
    <g id="ytick_8">
     <g id="line2d_40">
      <path clip-path="url(#pc74e7953eb)" d="M 116.5 96.878125 
L 836.5 96.878125 
" style="fill:none;stroke:#ffffff;stroke-linecap:round;"/>
     </g>
     <g id="line2d_41">
      <g>
       <use style="fill:#262626;stroke:#262626;" x="116.5" xlink:href="#mb6be9be68b" y="96.878125"/>
      </g>
     </g>
     <g id="line2d_42">
      <g>
       <use style="fill:#262626;stroke:#262626;" x="836.5" xlink:href="#mb6be9be68b" y="96.878125"/>
      </g>
     </g>
     <g id="text_15">
      <!-- 700 -->
      <defs>
       <path d="M 8.203125 72.90625 
L 55.078125 72.90625 
L 55.078125 68.703125 
L 28.609375 0 
L 18.3125 0 
L 43.21875 64.59375 
L 8.203125 64.59375 
z
" id="BitstreamVeraSans-Roman-37"/>
      </defs>
      <g style="fill:#262626;" transform="translate(71.325 102.396875)scale(0.2 -0.2)">
       <use xlink:href="#BitstreamVeraSans-Roman-37"/>
       <use x="63.623046875" xlink:href="#BitstreamVeraSans-Roman-30"/>
       <use x="127.24609375" xlink:href="#BitstreamVeraSans-Roman-30"/>
      </g>
     </g>
    </g>
    <g id="ytick_9">
     <g id="line2d_43">
      <path clip-path="url(#pc74e7953eb)" d="M 116.5 56.878125 
L 836.5 56.878125 
" style="fill:none;stroke:#ffffff;stroke-linecap:round;"/>
     </g>
     <g id="line2d_44">
      <g>
       <use style="fill:#262626;stroke:#262626;" x="116.5" xlink:href="#mb6be9be68b" y="56.878125"/>
      </g>
     </g>
     <g id="line2d_45">
      <g>
       <use style="fill:#262626;stroke:#262626;" x="836.5" xlink:href="#mb6be9be68b" y="56.878125"/>
      </g>
     </g>
     <g id="text_16">
      <!-- 800 -->
      <defs>
       <path d="M 31.78125 34.625 
Q 24.75 34.625 20.71875 30.859375 
Q 16.703125 27.09375 16.703125 20.515625 
Q 16.703125 13.921875 20.71875 10.15625 
Q 24.75 6.390625 31.78125 6.390625 
Q 38.8125 6.390625 42.859375 10.171875 
Q 46.921875 13.96875 46.921875 20.515625 
Q 46.921875 27.09375 42.890625 30.859375 
Q 38.875 34.625 31.78125 34.625 
M 21.921875 38.8125 
Q 15.578125 40.375 12.03125 44.71875 
Q 8.5 49.078125 8.5 55.328125 
Q 8.5 64.0625 14.71875 69.140625 
Q 20.953125 74.21875 31.78125 74.21875 
Q 42.671875 74.21875 48.875 69.140625 
Q 55.078125 64.0625 55.078125 55.328125 
Q 55.078125 49.078125 51.53125 44.71875 
Q 48 40.375 41.703125 38.8125 
Q 48.828125 37.15625 52.796875 32.3125 
Q 56.78125 27.484375 56.78125 20.515625 
Q 56.78125 9.90625 50.3125 4.234375 
Q 43.84375 -1.421875 31.78125 -1.421875 
Q 19.734375 -1.421875 13.25 4.234375 
Q 6.78125 9.90625 6.78125 20.515625 
Q 6.78125 27.484375 10.78125 32.3125 
Q 14.796875 37.15625 21.921875 38.8125 
M 18.3125 54.390625 
Q 18.3125 48.734375 21.84375 45.5625 
Q 25.390625 42.390625 31.78125 42.390625 
Q 38.140625 42.390625 41.71875 45.5625 
Q 45.3125 48.734375 45.3125 54.390625 
Q 45.3125 60.0625 41.71875 63.234375 
Q 38.140625 66.40625 31.78125 66.40625 
Q 25.390625 66.40625 21.84375 63.234375 
Q 18.3125 60.0625 18.3125 54.390625 
" id="BitstreamVeraSans-Roman-38"/>
      </defs>
      <g style="fill:#262626;" transform="translate(71.325 62.396875)scale(0.2 -0.2)">
       <use xlink:href="#BitstreamVeraSans-Roman-38"/>
       <use x="63.623046875" xlink:href="#BitstreamVeraSans-Roman-30"/>
       <use x="127.24609375" xlink:href="#BitstreamVeraSans-Roman-30"/>
      </g>
     </g>
    </g>
    <g id="ytick_10">
     <g id="line2d_46">
      <path clip-path="url(#pc74e7953eb)" d="M 116.5 16.878125 
L 836.5 16.878125 
" style="fill:none;stroke:#ffffff;stroke-linecap:round;"/>
     </g>
     <g id="line2d_47">
      <g>
       <use style="fill:#262626;stroke:#262626;" x="116.5" xlink:href="#mb6be9be68b" y="16.878125"/>
      </g>
     </g>
     <g id="line2d_48">
      <g>
       <use style="fill:#262626;stroke:#262626;" x="836.5" xlink:href="#mb6be9be68b" y="16.878125"/>
      </g>
     </g>
     <g id="text_17">
      <!-- 900 -->
      <defs>
       <path d="M 10.984375 1.515625 
L 10.984375 10.5 
Q 14.703125 8.734375 18.5 7.8125 
Q 22.3125 6.890625 25.984375 6.890625 
Q 35.75 6.890625 40.890625 13.453125 
Q 46.046875 20.015625 46.78125 33.40625 
Q 43.953125 29.203125 39.59375 26.953125 
Q 35.25 24.703125 29.984375 24.703125 
Q 19.046875 24.703125 12.671875 31.3125 
Q 6.296875 37.9375 6.296875 49.421875 
Q 6.296875 60.640625 12.9375 67.421875 
Q 19.578125 74.21875 30.609375 74.21875 
Q 43.265625 74.21875 49.921875 64.515625 
Q 56.59375 54.828125 56.59375 36.375 
Q 56.59375 19.140625 48.40625 8.859375 
Q 40.234375 -1.421875 26.421875 -1.421875 
Q 22.703125 -1.421875 18.890625 -0.6875 
Q 15.09375 0.046875 10.984375 1.515625 
M 30.609375 32.421875 
Q 37.25 32.421875 41.125 36.953125 
Q 45.015625 41.5 45.015625 49.421875 
Q 45.015625 57.28125 41.125 61.84375 
Q 37.25 66.40625 30.609375 66.40625 
Q 23.96875 66.40625 20.09375 61.84375 
Q 16.21875 57.28125 16.21875 49.421875 
Q 16.21875 41.5 20.09375 36.953125 
Q 23.96875 32.421875 30.609375 32.421875 
" id="BitstreamVeraSans-Roman-39"/>
      </defs>
      <g style="fill:#262626;" transform="translate(71.325 22.396875)scale(0.2 -0.2)">
       <use xlink:href="#BitstreamVeraSans-Roman-39"/>
       <use x="63.623046875" xlink:href="#BitstreamVeraSans-Roman-30"/>
       <use x="127.24609375" xlink:href="#BitstreamVeraSans-Roman-30"/>
      </g>
     </g>
    </g>
    <g id="text_18">
     <!-- $\langle \lambda\rangle$ -->
     <defs>
      <path d="M 5.078125 1.703125 
Q 5.078125 3.171875 6.390625 4.5 
L 34.515625 32.078125 
L 24.609375 59.90625 
Q 23.4375 63.09375 22.140625 64.9375 
Q 20.84375 66.796875 18.40625 66.796875 
Q 17.28125 66.796875 17.28125 68.109375 
Q 17.390625 68.703125 17.78125 69.046875 
Q 18.171875 69.390625 18.796875 69.390625 
Q 29.296875 69.390625 31.5 63.1875 
L 51.8125 6.5 
Q 53.125 2.25 54.5 0.78125 
Q 54.984375 0.046875 54.984375 -0.203125 
Q 54.984375 -1.125 54.203125 -1.125 
L 48.78125 -1.125 
Q 46.296875 -0.390625 44.828125 3.21875 
L 35.6875 28.8125 
L 11.53125 0.390625 
Q 9.71875 -1.3125 8.296875 -1.3125 
Q 7.03125 -1.3125 6.046875 -0.4375 
Q 5.078125 0.4375 5.078125 1.703125 
" id="Cmmi10-b8"/>
      <path d="M 7.8125 -114.015625 
Q 7.8125 -113.484375 8.015625 -113.28125 
L 33.109375 -56 
L 8.015625 1.3125 
Q 7.8125 1.515625 7.8125 2 
Q 7.8125 2.734375 8.390625 3.359375 
Q 8.984375 4 9.8125 4 
Q 10.984375 4 11.71875 2.78125 
L 37.203125 -55.328125 
Q 37.3125 -55.515625 37.3125 -56 
Q 37.3125 -56.5 37.203125 -56.78125 
L 11.71875 -114.796875 
Q 10.9375 -116.015625 9.8125 -116.015625 
Q 8.984375 -116.015625 8.390625 -115.375 
Q 7.8125 -114.75 7.8125 -114.015625 
" id="Cmex10-ae"/>
      <path d="M 35.5 -114.796875 
L 10.015625 -56.78125 
Q 9.8125 -56.5 9.8125 -56 
Q 9.8125 -55.515625 10.015625 -55.328125 
L 35.5 2.78125 
Q 35.984375 4 37.3125 4 
Q 38.03125 4 38.671875 3.359375 
Q 39.3125 2.734375 39.3125 2 
Q 39.3125 1.515625 39.203125 1.3125 
L 14.015625 -56 
L 39.203125 -113.28125 
Q 39.3125 -113.484375 39.3125 -114.015625 
Q 39.3125 -114.75 38.671875 -115.375 
Q 38.03125 -116.015625 37.3125 -116.015625 
Q 36.03125 -116.015625 35.5 -114.796875 
" id="Cmex10-ad"/>
     </defs>
     <g style="fill:#262626;" transform="translate(7.2 191.128125)scale(0.25 -0.25)">
      <use transform="translate(0.0 94.0)" xlink:href="#Cmex10-ad"/>
      <use transform="translate(47.216796875 0.658854166667)" xlink:href="#Cmmi10-b8"/>
      <use transform="translate(105.517578125 94.0)" xlink:href="#Cmex10-ae"/>
     </g>
    </g>
   </g>
   <g id="line2d_49">
    <defs>
     <path d="M -5 5 
L 5 5 
L 5 -5 
L -5 -5 
z
" id="m2ceeb72af9"/>
    </defs>
    <g>
     <use style="fill:#e18632;" x="116.5" xlink:href="#m2ceeb72af9" y="375.913018989"/>
     <use style="fill:#e18632;" x="142.214285714" xlink:href="#m2ceeb72af9" y="374.677372006"/>
     <use style="fill:#e18632;" x="167.928571429" xlink:href="#m2ceeb72af9" y="373.541332437"/>
     <use style="fill:#e18632;" x="193.642857143" xlink:href="#m2ceeb72af9" y="372.271902009"/>
     <use style="fill:#e18632;" x="219.357142857" xlink:href="#m2ceeb72af9" y="370.775044717"/>
     <use style="fill:#e18632;" x="245.071428571" xlink:href="#m2ceeb72af9" y="369.222070526"/>
     <use style="fill:#e18632;" x="270.785714286" xlink:href="#m2ceeb72af9" y="367.772713439"/>
     <use style="fill:#e18632;" x="296.5" xlink:href="#m2ceeb72af9" y="366.120633545"/>
     <use style="fill:#e18632;" x="322.214285714" xlink:href="#m2ceeb72af9" y="364.513916414"/>
     <use style="fill:#e18632;" x="347.928571429" xlink:href="#m2ceeb72af9" y="362.821943391"/>
     <use style="fill:#e18632;" x="373.642857143" xlink:href="#m2ceeb72af9" y="361.207803841"/>
     <use style="fill:#e18632;" x="399.357142857" xlink:href="#m2ceeb72af9" y="359.838194053"/>
     <use style="fill:#e18632;" x="425.071428571" xlink:href="#m2ceeb72af9" y="357.822236454"/>
     <use style="fill:#e18632;" x="450.785714286" xlink:href="#m2ceeb72af9" y="356.335824896"/>
     <use style="fill:#e18632;" x="476.5" xlink:href="#m2ceeb72af9" y="354.978009964"/>
     <use style="fill:#e18632;" x="502.214285714" xlink:href="#m2ceeb72af9" y="353.274744674"/>
     <use style="fill:#e18632;" x="527.928571429" xlink:href="#m2ceeb72af9" y="350.714302722"/>
     <use style="fill:#e18632;" x="553.642857143" xlink:href="#m2ceeb72af9" y="349.455148879"/>
     <use style="fill:#e18632;" x="579.357142857" xlink:href="#m2ceeb72af9" y="347.37639482"/>
     <use style="fill:#e18632;" x="605.071428571" xlink:href="#m2ceeb72af9" y="345.99869163"/>
     <use style="fill:#e18632;" x="630.785714286" xlink:href="#m2ceeb72af9" y="344.52295063"/>
     <use style="fill:#e18632;" x="656.5" xlink:href="#m2ceeb72af9" y="342.681333486"/>
     <use style="fill:#e18632;" x="682.214285714" xlink:href="#m2ceeb72af9" y="340.903967386"/>
     <use style="fill:#e18632;" x="707.928571429" xlink:href="#m2ceeb72af9" y="339.142557261"/>
     <use style="fill:#e18632;" x="733.642857143" xlink:href="#m2ceeb72af9" y="336.445478798"/>
     <use style="fill:#e18632;" x="759.357142857" xlink:href="#m2ceeb72af9" y="335.115503724"/>
     <use style="fill:#e18632;" x="785.071428571" xlink:href="#m2ceeb72af9" y="333.512659175"/>
     <use style="fill:#e18632;" x="810.785714286" xlink:href="#m2ceeb72af9" y="330.979586072"/>
     <use style="fill:#e18632;" x="836.5" xlink:href="#m2ceeb72af9" y="329.113272059"/>
    </g>
   </g>
   <g id="line2d_50">
    <path d="M 116.5 375.68408 
L 142.214286 374.662742 
L 167.928571 373.434478 
L 193.642857 372.102924 
L 219.357143 370.700362 
L 245.071429 369.243405 
L 270.785714 367.74244 
L 296.5 366.20465 
L 322.214286 364.635312 
L 347.928571 363.038471 
L 373.642857 361.417323 
L 399.357143 359.774455 
L 425.071429 358.111998 
L 450.785714 356.431739 
L 476.5 354.735197 
L 502.214286 353.023672 
L 527.928571 351.298295 
L 553.642857 349.560053 
L 579.357143 347.809814 
L 605.071429 346.048352 
L 630.785714 344.276353 
L 656.5 342.494436 
L 682.214286 340.703158 
L 707.928571 338.903022 
L 733.642857 337.094487 
L 759.357143 335.277971 
L 785.071429 333.453859 
L 810.785714 331.622502 
L 836.5 329.784225 
" style="fill:none;stroke:#e18632;stroke-dasharray:6.000000,6.000000;stroke-dashoffset:0.0;stroke-width:1.75;"/>
   </g>
   <g id="line2d_51">
    <defs>
     <path d="M 0 5 
C 1.326016 5 2.597899 4.473168 3.535534 3.535534 
C 4.473168 2.597899 5 1.326016 5 0 
C 5 -1.326016 4.473168 -2.597899 3.535534 -3.535534 
C 2.597899 -4.473168 1.326016 -5 0 -5 
C -1.326016 -5 -2.597899 -4.473168 -3.535534 -3.535534 
C -4.473168 -2.597899 -5 -1.326016 -5 0 
C -5 1.326016 -4.473168 2.597899 -3.535534 3.535534 
C -2.597899 4.473168 -1.326016 5 0 5 
z
" id="mfed6d4db66"/>
    </defs>
    <g>
     <use style="fill:#b59a32;" x="116.5" xlink:href="#mfed6d4db66" y="375.746402656"/>
     <use style="fill:#b59a32;" x="142.214285714" xlink:href="#mfed6d4db66" y="373.908704694"/>
     <use style="fill:#b59a32;" x="167.928571429" xlink:href="#mfed6d4db66" y="371.969434166"/>
     <use style="fill:#b59a32;" x="193.642857143" xlink:href="#mfed6d4db66" y="369.891639845"/>
     <use style="fill:#b59a32;" x="219.357142857" xlink:href="#mfed6d4db66" y="367.367665155"/>
     <use style="fill:#b59a32;" x="245.071428571" xlink:href="#mfed6d4db66" y="364.750707536"/>
     <use style="fill:#b59a32;" x="270.785714286" xlink:href="#mfed6d4db66" y="362.264051018"/>
     <use style="fill:#b59a32;" x="296.5" xlink:href="#mfed6d4db66" y="359.555589672"/>
     <use style="fill:#b59a32;" x="322.214285714" xlink:href="#mfed6d4db66" y="356.741787138"/>
     <use style="fill:#b59a32;" x="347.928571429" xlink:href="#mfed6d4db66" y="353.969511411"/>
     <use style="fill:#b59a32;" x="373.642857143" xlink:href="#mfed6d4db66" y="350.854317687"/>
     <use style="fill:#b59a32;" x="399.357142857" xlink:href="#mfed6d4db66" y="348.286821544"/>
     <use style="fill:#b59a32;" x="425.071428571" xlink:href="#mfed6d4db66" y="345.054009836"/>
     <use style="fill:#b59a32;" x="450.785714286" xlink:href="#mfed6d4db66" y="342.048008034"/>
     <use style="fill:#b59a32;" x="476.5" xlink:href="#mfed6d4db66" y="339.567477073"/>
     <use style="fill:#b59a32;" x="502.214285714" xlink:href="#mfed6d4db66" y="336.620195892"/>
     <use style="fill:#b59a32;" x="527.928571429" xlink:href="#mfed6d4db66" y="332.738606223"/>
     <use style="fill:#b59a32;" x="553.642857143" xlink:href="#mfed6d4db66" y="330.1071872"/>
     <use style="fill:#b59a32;" x="579.357142857" xlink:href="#mfed6d4db66" y="326.440592415"/>
     <use style="fill:#b59a32;" x="605.071428571" xlink:href="#mfed6d4db66" y="323.904743124"/>
     <use style="fill:#b59a32;" x="630.785714286" xlink:href="#mfed6d4db66" y="320.836839593"/>
     <use style="fill:#b59a32;" x="656.5" xlink:href="#mfed6d4db66" y="318.097919995"/>
     <use style="fill:#b59a32;" x="682.214285714" xlink:href="#mfed6d4db66" y="314.050478782"/>
     <use style="fill:#b59a32;" x="707.928571429" xlink:href="#mfed6d4db66" y="310.928203472"/>
     <use style="fill:#b59a32;" x="733.642857143" xlink:href="#mfed6d4db66" y="307.104723673"/>
     <use style="fill:#b59a32;" x="759.357142857" xlink:href="#mfed6d4db66" y="303.941010987"/>
     <use style="fill:#b59a32;" x="785.071428571" xlink:href="#mfed6d4db66" y="300.311799236"/>
     <use style="fill:#b59a32;" x="810.785714286" xlink:href="#mfed6d4db66" y="296.943979688"/>
     <use style="fill:#b59a32;" x="836.5" xlink:href="#mfed6d4db66" y="293.490396234"/>
    </g>
   </g>
   <g id="line2d_52">
    <path d="M 116.5 376.078125 
L 142.214286 372.188633 
L 167.928571 371.301944 
L 193.642857 369.423272 
L 219.357143 367.216593 
L 245.071429 364.824836 
L 270.785714 362.303539 
L 296.5 359.68171 
L 322.214286 356.97732 
L 347.928571 354.202737 
L 373.642857 351.367074 
L 399.357143 348.477369 
L 425.071429 345.539244 
L 450.785714 342.557301 
L 476.5 339.535385 
L 502.214286 336.476758 
L 527.928571 333.384223 
L 553.642857 330.260217 
L 579.357143 327.106873 
L 605.071429 323.926077 
L 630.785714 320.71951 
L 656.5 317.488673 
L 682.214286 314.234919 
L 707.928571 310.959472 
L 733.642857 307.663443 
L 759.357143 304.347848 
L 785.071429 301.013615 
L 810.785714 297.661598 
L 836.5 294.292583 
" style="fill:none;stroke:#b59a32;stroke-dasharray:6.000000,6.000000;stroke-dashoffset:0.0;stroke-width:1.75;"/>
   </g>
   <g id="line2d_53">
    <defs>
     <path d="M 0 5 
C 1.326016 5 2.597899 4.473168 3.535534 3.535534 
C 4.473168 2.597899 5 1.326016 5 0 
C 5 -1.326016 4.473168 -2.597899 3.535534 -3.535534 
C 2.597899 -4.473168 1.326016 -5 0 -5 
C -1.326016 -5 -2.597899 -4.473168 -3.535534 -3.535534 
C -4.473168 -2.597899 -5 -1.326016 -5 0 
C -5 1.326016 -4.473168 2.597899 -3.535534 3.535534 
C -2.597899 4.473168 -1.326016 5 0 5 
z
" id="m02fb7c060c"/>
    </defs>
    <g>
     <use style="fill:#8ba731;" x="142.214285714" xlink:href="#m02fb7c060c" y="373.682673679"/>
     <use style="fill:#8ba731;" x="167.928571429" xlink:href="#m02fb7c060c" y="371.247633624"/>
     <use style="fill:#8ba731;" x="193.642857143" xlink:href="#m02fb7c060c" y="368.591476595"/>
     <use style="fill:#8ba731;" x="219.357142857" xlink:href="#m02fb7c060c" y="365.256706639"/>
     <use style="fill:#8ba731;" x="245.071428571" xlink:href="#m02fb7c060c" y="361.931554952"/>
     <use style="fill:#8ba731;" x="270.785714286" xlink:href="#m02fb7c060c" y="358.328579072"/>
     <use style="fill:#8ba731;" x="296.5" xlink:href="#m02fb7c060c" y="354.835361603"/>
     <use style="fill:#8ba731;" x="322.214285714" xlink:href="#m02fb7c060c" y="351.053974971"/>
     <use style="fill:#8ba731;" x="347.928571429" xlink:href="#m02fb7c060c" y="347.331381751"/>
     <use style="fill:#8ba731;" x="373.642857143" xlink:href="#m02fb7c060c" y="343.337198596"/>
     <use style="fill:#8ba731;" x="399.357142857" xlink:href="#m02fb7c060c" y="339.60603961"/>
     <use style="fill:#8ba731;" x="425.071428571" xlink:href="#m02fb7c060c" y="335.084569952"/>
     <use style="fill:#8ba731;" x="450.785714286" xlink:href="#m02fb7c060c" y="331.188707244"/>
     <use style="fill:#8ba731;" x="476.5" xlink:href="#m02fb7c060c" y="327.390697644"/>
     <use style="fill:#8ba731;" x="502.214285714" xlink:href="#m02fb7c060c" y="323.164713351"/>
     <use style="fill:#8ba731;" x="527.928571429" xlink:href="#m02fb7c060c" y="318.367116246"/>
     <use style="fill:#8ba731;" x="553.642857143" xlink:href="#m02fb7c060c" y="314.415375796"/>
     <use style="fill:#8ba731;" x="579.357142857" xlink:href="#m02fb7c060c" y="309.37915034"/>
     <use style="fill:#8ba731;" x="605.071428571" xlink:href="#m02fb7c060c" y="305.629531362"/>
     <use style="fill:#8ba731;" x="630.785714286" xlink:href="#m02fb7c060c" y="301.322349379"/>
     <use style="fill:#8ba731;" x="656.5" xlink:href="#m02fb7c060c" y="297.40160522"/>
     <use style="fill:#8ba731;" x="682.214285714" xlink:href="#m02fb7c060c" y="291.455860242"/>
     <use style="fill:#8ba731;" x="707.928571429" xlink:href="#m02fb7c060c" y="287.626706216"/>
     <use style="fill:#8ba731;" x="733.642857143" xlink:href="#m02fb7c060c" y="282.216055162"/>
     <use style="fill:#8ba731;" x="759.357142857" xlink:href="#m02fb7c060c" y="278.088231256"/>
     <use style="fill:#8ba731;" x="785.071428571" xlink:href="#m02fb7c060c" y="272.966480008"/>
     <use style="fill:#8ba731;" x="810.785714286" xlink:href="#m02fb7c060c" y="268.174686999"/>
     <use style="fill:#8ba731;" x="836.5" xlink:href="#m02fb7c060c" y="263.461450798"/>
    </g>
   </g>
   <g id="line2d_54">
    <path d="M 142.214286 374.478125 
M 193.642857 365.584744 
L 219.357143 363.731718 
L 245.071429 361.024166 
L 270.785714 357.908618 
L 296.5 354.539679 
L 322.214286 350.988804 
L 347.928571 347.295683 
L 373.642857 343.485306 
L 399.357143 339.574866 
L 425.071429 335.576972 
L 450.785714 331.501313 
L 476.5 327.355606 
L 502.214286 323.146163 
L 527.928571 318.87826 
L 553.642857 314.556379 
L 579.357143 310.184384 
L 605.071429 305.765643 
L 630.785714 301.303118 
L 656.5 296.79944 
L 682.214286 292.256959 
L 707.928571 287.677788 
L 733.642857 283.063839 
L 759.357143 278.416846 
L 785.071429 273.738395 
L 810.785714 269.029937 
L 836.5 264.292807 
" style="fill:none;stroke:#8ba731;stroke-dasharray:6.000000,6.000000;stroke-dashoffset:0.0;stroke-width:1.75;"/>
   </g>
   <g id="line2d_55">
    <defs>
     <path d="M 0 5 
C 1.326016 5 2.597899 4.473168 3.535534 3.535534 
C 4.473168 2.597899 5 1.326016 5 0 
C 5 -1.326016 4.473168 -2.597899 3.535534 -3.535534 
C 2.597899 -4.473168 1.326016 -5 0 -5 
C -1.326016 -5 -2.597899 -4.473168 -3.535534 -3.535534 
C -4.473168 -2.597899 -5 -1.326016 -5 0 
C -5 1.326016 -4.473168 2.597899 -3.535534 3.535534 
C -2.597899 4.473168 -1.326016 5 0 5 
z
" id="m307b4bafcb"/>
    </defs>
    <g>
     <use style="fill:#32b258;" x="167.928571429" xlink:href="#m307b4bafcb" y="371.02019595"/>
     <use style="fill:#32b258;" x="193.642857143" xlink:href="#m307b4bafcb" y="367.81270351"/>
     <use style="fill:#32b258;" x="219.357142857" xlink:href="#m307b4bafcb" y="363.953524993"/>
     <use style="fill:#32b258;" x="245.071428571" xlink:href="#m307b4bafcb" y="359.891325161"/>
     <use style="fill:#32b258;" x="270.785714286" xlink:href="#m307b4bafcb" y="355.699050251"/>
     <use style="fill:#32b258;" x="296.5" xlink:href="#m307b4bafcb" y="351.296197562"/>
     <use style="fill:#32b258;" x="322.214285714" xlink:href="#m307b4bafcb" y="346.773888736"/>
     <use style="fill:#32b258;" x="347.928571429" xlink:href="#m307b4bafcb" y="342.271874603"/>
     <use style="fill:#32b258;" x="373.642857143" xlink:href="#m307b4bafcb" y="337.469687109"/>
     <use style="fill:#32b258;" x="399.357142857" xlink:href="#m307b4bafcb" y="332.62962538"/>
     <use style="fill:#32b258;" x="425.071428571" xlink:href="#m307b4bafcb" y="327.169704965"/>
     <use style="fill:#32b258;" x="450.785714286" xlink:href="#m307b4bafcb" y="322.47606779"/>
     <use style="fill:#32b258;" x="476.5" xlink:href="#m307b4bafcb" y="317.602610537"/>
     <use style="fill:#32b258;" x="502.214285714" xlink:href="#m307b4bafcb" y="311.932467326"/>
     <use style="fill:#32b258;" x="527.928571429" xlink:href="#m307b4bafcb" y="306.58859639"/>
     <use style="fill:#32b258;" x="553.642857143" xlink:href="#m307b4bafcb" y="301.255098143"/>
     <use style="fill:#32b258;" x="579.357142857" xlink:href="#m307b4bafcb" y="295.203681626"/>
     <use style="fill:#32b258;" x="605.071428571" xlink:href="#m307b4bafcb" y="290.396530437"/>
     <use style="fill:#32b258;" x="630.785714286" xlink:href="#m307b4bafcb" y="284.863718196"/>
     <use style="fill:#32b258;" x="656.5" xlink:href="#m307b4bafcb" y="279.573192"/>
     <use style="fill:#32b258;" x="682.214285714" xlink:href="#m307b4bafcb" y="272.671141036"/>
     <use style="fill:#32b258;" x="707.928571429" xlink:href="#m307b4bafcb" y="267.249883736"/>
     <use style="fill:#32b258;" x="733.642857143" xlink:href="#m307b4bafcb" y="260.60752116"/>
     <use style="fill:#32b258;" x="759.357142857" xlink:href="#m307b4bafcb" y="255.416177148"/>
     <use style="fill:#32b258;" x="785.071428571" xlink:href="#m307b4bafcb" y="249.212970334"/>
     <use style="fill:#32b258;" x="810.785714286" xlink:href="#m307b4bafcb" y="243.421373363"/>
     <use style="fill:#32b258;" x="836.5" xlink:href="#m307b4bafcb" y="237.383216303"/>
    </g>
   </g>
   <g id="line2d_56">
    <path d="M 167.928571 372.078125 
M 219.357143 356.520159 
L 245.071429 355.682422 
L 270.785714 352.973401 
L 296.5 349.448113 
L 322.214286 345.458714 
L 347.928571 341.159734 
L 373.642857 336.631998 
L 399.357143 331.923377 
L 425.071429 327.064969 
L 450.785714 322.078452 
L 476.5 316.97978 
L 502.214286 311.781206 
L 527.928571 306.492463 
L 553.642857 301.12149 
L 579.357143 295.674903 
L 605.071429 290.15832 
L 630.785714 284.576571 
L 656.5 278.933869 
L 682.214286 273.233921 
L 707.928571 267.480017 
L 733.642857 261.675103 
L 759.357143 255.82183 
L 785.071429 249.922601 
L 810.785714 243.9796 
L 836.5 237.994828 
" style="fill:none;stroke:#32b258;stroke-dasharray:6.000000,6.000000;stroke-dashoffset:0.0;stroke-width:1.75;"/>
   </g>
   <g id="line2d_57">
    <defs>
     <path d="M 0 5 
C 1.326016 5 2.597899 4.473168 3.535534 3.535534 
C 4.473168 2.597899 5 1.326016 5 0 
C 5 -1.326016 4.473168 -2.597899 3.535534 -3.535534 
C 2.597899 -4.473168 1.326016 -5 0 -5 
C -1.326016 -5 -2.597899 -4.473168 -3.535534 -3.535534 
C -4.473168 -2.597899 -5 -1.326016 -5 0 
C -5 1.326016 -4.473168 2.597899 -3.535534 3.535534 
C -2.597899 4.473168 -1.326016 5 0 5 
z
" id="ma3cdd009e3"/>
    </defs>
    <g>
     <use style="fill:#35ae95;" x="193.642857143" xlink:href="#ma3cdd009e3" y="367.589620529"/>
     <use style="fill:#35ae95;" x="219.357142857" xlink:href="#ma3cdd009e3" y="363.284508907"/>
     <use style="fill:#35ae95;" x="245.071428571" xlink:href="#ma3cdd009e3" y="358.703436914"/>
     <use style="fill:#35ae95;" x="270.785714286" xlink:href="#ma3cdd009e3" y="353.709525141"/>
     <use style="fill:#35ae95;" x="296.5" xlink:href="#ma3cdd009e3" y="348.715014258"/>
     <use style="fill:#35ae95;" x="322.214285714" xlink:href="#ma3cdd009e3" y="343.605728705"/>
     <use style="fill:#35ae95;" x="347.928571429" xlink:href="#ma3cdd009e3" y="338.282096436"/>
     <use style="fill:#35ae95;" x="373.642857143" xlink:href="#ma3cdd009e3" y="332.647644856"/>
     <use style="fill:#35ae95;" x="399.357142857" xlink:href="#ma3cdd009e3" y="326.968018888"/>
     <use style="fill:#35ae95;" x="425.071428571" xlink:href="#ma3cdd009e3" y="320.620602244"/>
     <use style="fill:#35ae95;" x="450.785714286" xlink:href="#ma3cdd009e3" y="315.141922362"/>
     <use style="fill:#35ae95;" x="476.5" xlink:href="#ma3cdd009e3" y="309.303192971"/>
     <use style="fill:#35ae95;" x="502.214285714" xlink:href="#ma3cdd009e3" y="302.735546868"/>
     <use style="fill:#35ae95;" x="527.928571429" xlink:href="#ma3cdd009e3" y="296.318789867"/>
     <use style="fill:#35ae95;" x="553.642857143" xlink:href="#ma3cdd009e3" y="290.20361629"/>
     <use style="fill:#35ae95;" x="579.357142857" xlink:href="#ma3cdd009e3" y="283.182286131"/>
     <use style="fill:#35ae95;" x="605.071428571" xlink:href="#ma3cdd009e3" y="276.851905687"/>
     <use style="fill:#35ae95;" x="630.785714286" xlink:href="#ma3cdd009e3" y="270.398086428"/>
     <use style="fill:#35ae95;" x="656.5" xlink:href="#ma3cdd009e3" y="264.314124057"/>
     <use style="fill:#35ae95;" x="682.214285714" xlink:href="#ma3cdd009e3" y="256.205456064"/>
     <use style="fill:#35ae95;" x="707.928571429" xlink:href="#ma3cdd009e3" y="249.441776648"/>
     <use style="fill:#35ae95;" x="733.642857143" xlink:href="#ma3cdd009e3" y="241.923814836"/>
     <use style="fill:#35ae95;" x="759.357142857" xlink:href="#ma3cdd009e3" y="236.068459375"/>
     <use style="fill:#35ae95;" x="785.071428571" xlink:href="#ma3cdd009e3" y="228.609394569"/>
     <use style="fill:#35ae95;" x="810.785714286" xlink:href="#ma3cdd009e3" y="221.53341195"/>
     <use style="fill:#35ae95;" x="836.5" xlink:href="#ma3cdd009e3" y="214.715298656"/>
    </g>
   </g>
   <g id="line2d_58">
    <path d="M 193.642857 368.878125 
M 270.785714 344.617074 
L 296.5 342.564582 
L 322.214286 339.026994 
L 347.928571 334.689504 
L 373.642857 329.846552 
L 399.357143 324.647792 
L 425.071429 319.178904 
L 450.785714 313.493551 
L 476.5 307.627791 
L 502.214286 301.607245 
L 527.928571 295.450962 
L 553.642857 289.173639 
L 579.357143 282.786961 
L 605.071429 276.300456 
L 630.785714 269.722053 
L 656.5 263.058469 
L 682.214286 256.315475 
L 707.928571 249.498091 
L 733.642857 242.610733 
L 759.357143 235.657318 
L 785.071429 228.641347 
L 810.785714 221.565974 
L 836.5 214.434056 
" style="fill:none;stroke:#35ae95;stroke-dasharray:6.000000,6.000000;stroke-dashoffset:0.0;stroke-width:1.75;"/>
   </g>
   <g id="line2d_59">
    <defs>
     <path d="M 0 5 
C 1.326016 5 2.597899 4.473168 3.535534 3.535534 
C 4.473168 2.597899 5 1.326016 5 0 
C 5 -1.326016 4.473168 -2.597899 3.535534 -3.535534 
C 2.597899 -4.473168 1.326016 -5 0 -5 
C -1.326016 -5 -2.597899 -4.473168 -3.535534 -3.535534 
C -4.473168 -2.597899 -5 -1.326016 -5 0 
C -5 1.326016 -4.473168 2.597899 -3.535534 3.535534 
C -2.597899 4.473168 -1.326016 5 0 5 
z
" id="m9565a57e7e"/>
    </defs>
    <g>
     <use style="fill:#37abb2;" x="219.357142857" xlink:href="#m9565a57e7e" y="363.067290048"/>
     <use style="fill:#37abb2;" x="245.071428571" xlink:href="#m9565a57e7e" y="358.078081936"/>
     <use style="fill:#37abb2;" x="270.785714286" xlink:href="#m9565a57e7e" y="352.460754606"/>
     <use style="fill:#37abb2;" x="296.5" xlink:href="#m9565a57e7e" y="346.95776709"/>
     <use style="fill:#37abb2;" x="322.214285714" xlink:href="#m9565a57e7e" y="341.364937893"/>
     <use style="fill:#37abb2;" x="347.928571429" xlink:href="#m9565a57e7e" y="335.026465569"/>
     <use style="fill:#37abb2;" x="373.642857143" xlink:href="#m9565a57e7e" y="328.692901048"/>
     <use style="fill:#37abb2;" x="399.357142857" xlink:href="#m9565a57e7e" y="322.465768922"/>
     <use style="fill:#37abb2;" x="425.071428571" xlink:href="#m9565a57e7e" y="315.492545964"/>
     <use style="fill:#37abb2;" x="450.785714286" xlink:href="#m9565a57e7e" y="308.898836166"/>
     <use style="fill:#37abb2;" x="476.5" xlink:href="#m9565a57e7e" y="302.465845688"/>
     <use style="fill:#37abb2;" x="502.214285714" xlink:href="#m9565a57e7e" y="294.925050923"/>
     <use style="fill:#37abb2;" x="527.928571429" xlink:href="#m9565a57e7e" y="287.551173781"/>
     <use style="fill:#37abb2;" x="553.642857143" xlink:href="#m9565a57e7e" y="280.742359485"/>
     <use style="fill:#37abb2;" x="579.357142857" xlink:href="#m9565a57e7e" y="272.708637652"/>
     <use style="fill:#37abb2;" x="605.071428571" xlink:href="#m9565a57e7e" y="265.421061105"/>
     <use style="fill:#37abb2;" x="630.785714286" xlink:href="#m9565a57e7e" y="258.063878902"/>
     <use style="fill:#37abb2;" x="656.5" xlink:href="#m9565a57e7e" y="250.790100296"/>
     <use style="fill:#37abb2;" x="682.214285714" xlink:href="#m9565a57e7e" y="241.603534749"/>
     <use style="fill:#37abb2;" x="707.928571429" xlink:href="#m9565a57e7e" y="233.967085578"/>
     <use style="fill:#37abb2;" x="733.642857143" xlink:href="#m9565a57e7e" y="225.432039324"/>
     <use style="fill:#37abb2;" x="759.357142857" xlink:href="#m9565a57e7e" y="218.534667677"/>
     <use style="fill:#37abb2;" x="785.071428571" xlink:href="#m9565a57e7e" y="210.042755348"/>
     <use style="fill:#37abb2;" x="810.785714286" xlink:href="#m9565a57e7e" y="201.984290776"/>
     <use style="fill:#37abb2;" x="836.5" xlink:href="#m9565a57e7e" y="194.075183247"/>
    </g>
   </g>
   <g id="line2d_60">
    <path d="M 219.357143 364.878125 
M 296.5 329.872701 
L 322.214286 329.3046 
L 347.928571 326.247698 
L 373.642857 321.892496 
L 399.357143 316.745957 
L 425.071429 311.062288 
L 450.785714 304.984449 
L 476.5 298.600099 
L 502.214286 291.966765 
L 527.928571 285.124339 
L 553.642857 278.101763 
L 579.357143 270.920839 
L 605.071429 263.598524 
L 630.785714 256.148355 
L 656.5 248.581394 
L 682.214286 240.906849 
L 707.928571 233.132516 
L 733.642857 225.26509 
L 759.357143 217.310386 
L 785.071429 209.273512 
L 810.785714 201.158994 
L 836.5 192.970876 
" style="fill:none;stroke:#37abb2;stroke-dasharray:6.000000,6.000000;stroke-dashoffset:0.0;stroke-width:1.75;"/>
   </g>
   <g id="line2d_61">
    <defs>
     <path d="M 0 5 
C 1.326016 5 2.597899 4.473168 3.535534 3.535534 
C 4.473168 2.597899 5 1.326016 5 0 
C 5 -1.326016 4.473168 -2.597899 3.535534 -3.535534 
C 2.597899 -4.473168 1.326016 -5 0 -5 
C -1.326016 -5 -2.597899 -4.473168 -3.535534 -3.535534 
C -4.473168 -2.597899 -5 -1.326016 -5 0 
C -5 1.326016 -4.473168 2.597899 -3.535534 3.535534 
C -2.597899 4.473168 -1.326016 5 0 5 
z
" id="m294a6673df"/>
    </defs>
    <g>
     <use style="fill:#39a7d6;" x="245.071428571" xlink:href="#m294a6673df" y="357.888782625"/>
     <use style="fill:#39a7d6;" x="270.785714286" xlink:href="#m294a6673df" y="351.764501557"/>
     <use style="fill:#39a7d6;" x="296.5" xlink:href="#m294a6673df" y="345.799206683"/>
     <use style="fill:#39a7d6;" x="322.214285714" xlink:href="#m294a6673df" y="339.639801131"/>
     <use style="fill:#39a7d6;" x="347.928571429" xlink:href="#m294a6673df" y="332.7312542"/>
     <use style="fill:#39a7d6;" x="373.642857143" xlink:href="#m294a6673df" y="325.602806852"/>
     <use style="fill:#39a7d6;" x="399.357142857" xlink:href="#m294a6673df" y="318.841038484"/>
     <use style="fill:#39a7d6;" x="425.071428571" xlink:href="#m294a6673df" y="310.982524893"/>
     <use style="fill:#39a7d6;" x="450.785714286" xlink:href="#m294a6673df" y="303.748528578"/>
     <use style="fill:#39a7d6;" x="476.5" xlink:href="#m294a6673df" y="296.56544228"/>
     <use style="fill:#39a7d6;" x="502.214285714" xlink:href="#m294a6673df" y="288.164127729"/>
     <use style="fill:#39a7d6;" x="527.928571429" xlink:href="#m294a6673df" y="280.01442362"/>
     <use style="fill:#39a7d6;" x="553.642857143" xlink:href="#m294a6673df" y="272.396745209"/>
     <use style="fill:#39a7d6;" x="579.357142857" xlink:href="#m294a6673df" y="263.450882231"/>
     <use style="fill:#39a7d6;" x="605.071428571" xlink:href="#m294a6673df" y="255.335032063"/>
     <use style="fill:#39a7d6;" x="630.785714286" xlink:href="#m294a6673df" y="246.724674053"/>
     <use style="fill:#39a7d6;" x="656.5" xlink:href="#m294a6673df" y="239.037912086"/>
     <use style="fill:#39a7d6;" x="682.214285714" xlink:href="#m294a6673df" y="228.975887163"/>
     <use style="fill:#39a7d6;" x="707.928571429" xlink:href="#m294a6673df" y="220.401106158"/>
     <use style="fill:#39a7d6;" x="733.642857143" xlink:href="#m294a6673df" y="210.467345219"/>
     <use style="fill:#39a7d6;" x="759.357142857" xlink:href="#m294a6673df" y="202.358064415"/>
     <use style="fill:#39a7d6;" x="785.071428571" xlink:href="#m294a6673df" y="193.362938866"/>
     <use style="fill:#39a7d6;" x="810.785714286" xlink:href="#m294a6673df" y="183.952765205"/>
     <use style="fill:#39a7d6;" x="836.5" xlink:href="#m294a6673df" y="175.386636517"/>
    </g>
   </g>
   <g id="line2d_62">
    <path d="M 245.071429 360.078125 
M 322.214286 310.777661 
L 347.928571 312.69827 
L 373.642857 310.715965 
L 399.357143 306.737251 
L 425.071429 301.569907 
L 450.785714 295.616286 
L 476.5 289.100531 
L 502.214286 282.158421 
L 527.928571 274.877795 
L 553.642857 267.318592 
L 579.357143 259.523565 
L 605.071429 251.524361 
L 630.785714 243.34516 
L 656.5 235.004947 
L 682.214286 226.51898 
L 707.928571 217.899768 
L 733.642857 209.157752 
L 759.357143 200.301778 
L 785.071429 191.339443 
L 810.785714 182.277345 
L 836.5 173.121275 
" style="fill:none;stroke:#39a7d6;stroke-dasharray:6.000000,6.000000;stroke-dashoffset:0.0;stroke-width:1.75;"/>
   </g>
   <g id="line2d_63">
    <defs>
     <path d="M 0 5 
C 1.326016 5 2.597899 4.473168 3.535534 3.535534 
C 4.473168 2.597899 5 1.326016 5 0 
C 5 -1.326016 4.473168 -2.597899 3.535534 -3.535534 
C 2.597899 -4.473168 1.326016 -5 0 -5 
C -1.326016 -5 -2.597899 -4.473168 -3.535534 -3.535534 
C -4.473168 -2.597899 -5 -1.326016 -5 0 
C -5 1.326016 -4.473168 2.597899 -3.535534 3.535534 
C -2.597899 4.473168 -1.326016 5 0 5 
z
" id="m0c811a91e8"/>
    </defs>
    <g>
     <use style="fill:#8f93f4;" x="270.785714286" xlink:href="#m0c811a91e8" y="351.557972719"/>
     <use style="fill:#8f93f4;" x="296.5" xlink:href="#m0c811a91e8" y="345.17609944"/>
     <use style="fill:#8f93f4;" x="322.214285714" xlink:href="#m0c811a91e8" y="338.502899167"/>
     <use style="fill:#8f93f4;" x="347.928571429" xlink:href="#m0c811a91e8" y="330.986789383"/>
     <use style="fill:#8f93f4;" x="373.642857143" xlink:href="#m0c811a91e8" y="323.291130627"/>
     <use style="fill:#8f93f4;" x="399.357142857" xlink:href="#m0c811a91e8" y="316.091448313"/>
     <use style="fill:#8f93f4;" x="425.071428571" xlink:href="#m0c811a91e8" y="307.482667914"/>
     <use style="fill:#8f93f4;" x="450.785714286" xlink:href="#m0c811a91e8" y="299.419935568"/>
     <use style="fill:#8f93f4;" x="476.5" xlink:href="#m0c811a91e8" y="291.50967534"/>
     <use style="fill:#8f93f4;" x="502.214285714" xlink:href="#m0c811a91e8" y="282.430742294"/>
     <use style="fill:#8f93f4;" x="527.928571429" xlink:href="#m0c811a91e8" y="273.598426222"/>
     <use style="fill:#8f93f4;" x="553.642857143" xlink:href="#m0c811a91e8" y="265.128145477"/>
     <use style="fill:#8f93f4;" x="579.357142857" xlink:href="#m0c811a91e8" y="255.454256225"/>
     <use style="fill:#8f93f4;" x="605.071428571" xlink:href="#m0c811a91e8" y="246.532482324"/>
     <use style="fill:#8f93f4;" x="630.785714286" xlink:href="#m0c811a91e8" y="237.106285895"/>
     <use style="fill:#8f93f4;" x="656.5" xlink:href="#m0c811a91e8" y="228.336355098"/>
     <use style="fill:#8f93f4;" x="682.214285714" xlink:href="#m0c811a91e8" y="217.680302957"/>
     <use style="fill:#8f93f4;" x="707.928571429" xlink:href="#m0c811a91e8" y="208.287004889"/>
     <use style="fill:#8f93f4;" x="733.642857143" xlink:href="#m0c811a91e8" y="197.284795654"/>
     <use style="fill:#8f93f4;" x="759.357142857" xlink:href="#m0c811a91e8" y="188.524394738"/>
     <use style="fill:#8f93f4;" x="785.071428571" xlink:href="#m0c811a91e8" y="178.324167297"/>
     <use style="fill:#8f93f4;" x="810.785714286" xlink:href="#m0c811a91e8" y="168.067105778"/>
     <use style="fill:#8f93f4;" x="836.5" xlink:href="#m0c811a91e8" y="158.444183524"/>
    </g>
   </g>
   <g id="line2d_64">
    <path d="M 270.785714 354.478125 
M 373.642857 292.246259 
L 399.357143 292.036506 
L 425.071429 288.895314 
L 450.785714 284.035586 
L 476.5 278.059228 
L 502.214286 271.299834 
L 527.928571 263.958077 
L 553.642857 256.162652 
L 579.357143 248.00048 
L 605.071429 239.532846 
L 630.785714 230.804561 
L 656.5 221.849422 
L 682.214286 212.693617 
L 707.928571 203.357915 
L 733.642857 193.859131 
L 759.357143 184.211125 
L 785.071429 174.425501 
L 810.785714 164.512113 
L 836.5 154.479432 
" style="fill:none;stroke:#8f93f4;stroke-dasharray:6.000000,6.000000;stroke-dashoffset:0.0;stroke-width:1.75;"/>
   </g>
   <g id="line2d_65">
    <defs>
     <path d="M 0 5 
C 1.326016 5 2.597899 4.473168 3.535534 3.535534 
C 4.473168 2.597899 5 1.326016 5 0 
C 5 -1.326016 4.473168 -2.597899 3.535534 -3.535534 
C 2.597899 -4.473168 1.326016 -5 0 -5 
C -1.326016 -5 -2.597899 -4.473168 -3.535534 -3.535534 
C -4.473168 -2.597899 -5 -1.326016 -5 0 
C -5 1.326016 -4.473168 2.597899 -3.535534 3.535534 
C -2.597899 4.473168 -1.326016 5 0 5 
z
" id="m5b4a36c3a2"/>
    </defs>
    <g>
     <use style="fill:#db70f4;" x="296.5" xlink:href="#m5b4a36c3a2" y="344.9877349"/>
     <use style="fill:#db70f4;" x="322.214285714" xlink:href="#m5b4a36c3a2" y="337.920937887"/>
     <use style="fill:#db70f4;" x="347.928571429" xlink:href="#m5b4a36c3a2" y="329.900326287"/>
     <use style="fill:#db70f4;" x="373.642857143" xlink:href="#m5b4a36c3a2" y="321.602253368"/>
     <use style="fill:#db70f4;" x="399.357142857" xlink:href="#m5b4a36c3a2" y="313.836046714"/>
     <use style="fill:#db70f4;" x="425.071428571" xlink:href="#m5b4a36c3a2" y="304.717605537"/>
     <use style="fill:#db70f4;" x="450.785714286" xlink:href="#m5b4a36c3a2" y="296.202871762"/>
     <use style="fill:#db70f4;" x="476.5" xlink:href="#m5b4a36c3a2" y="287.219326472"/>
     <use style="fill:#db70f4;" x="502.214285714" xlink:href="#m5b4a36c3a2" y="277.661945662"/>
     <use style="fill:#db70f4;" x="527.928571429" xlink:href="#m5b4a36c3a2" y="268.243231977"/>
     <use style="fill:#db70f4;" x="553.642857143" xlink:href="#m5b4a36c3a2" y="258.8653879"/>
     <use style="fill:#db70f4;" x="579.357142857" xlink:href="#m5b4a36c3a2" y="248.589303718"/>
     <use style="fill:#db70f4;" x="605.071428571" xlink:href="#m5b4a36c3a2" y="238.764272835"/>
     <use style="fill:#db70f4;" x="630.785714286" xlink:href="#m5b4a36c3a2" y="228.699032244"/>
     <use style="fill:#db70f4;" x="656.5" xlink:href="#m5b4a36c3a2" y="218.88486688"/>
     <use style="fill:#db70f4;" x="682.214285714" xlink:href="#m5b4a36c3a2" y="207.495457205"/>
     <use style="fill:#db70f4;" x="707.928571429" xlink:href="#m5b4a36c3a2" y="197.220810761"/>
     <use style="fill:#db70f4;" x="733.642857143" xlink:href="#m5b4a36c3a2" y="185.550473812"/>
     <use style="fill:#db70f4;" x="759.357142857" xlink:href="#m5b4a36c3a2" y="175.79922759"/>
     <use style="fill:#db70f4;" x="785.071428571" xlink:href="#m5b4a36c3a2" y="164.739249145"/>
     <use style="fill:#db70f4;" x="810.785714286" xlink:href="#m5b4a36c3a2" y="153.499640948"/>
     <use style="fill:#db70f4;" x="836.5" xlink:href="#m5b4a36c3a2" y="143.200577225"/>
    </g>
   </g>
   <g id="line2d_66">
    <path d="M 296.5 348.078125 
M 399.357143 267.444036 
L 425.071429 269.811657 
L 450.785714 268.037693 
L 476.5 263.861505 
L 502.214286 258.143878 
L 527.928571 251.360459 
L 553.642857 243.796207 
L 579.357143 235.632896 
L 605.071429 226.992491 
L 630.785714 217.960332 
L 656.5 208.598281 
L 682.214286 198.952566 
L 707.928571 189.058655 
L 733.642857 178.944398 
L 759.357143 168.632107 
L 785.071429 158.139988 
L 810.785714 147.483133 
L 836.5 136.674232 
" style="fill:none;stroke:#db70f4;stroke-dasharray:6.000000,6.000000;stroke-dashoffset:0.0;stroke-width:1.75;"/>
   </g>
   <g id="line2d_67">
    <defs>
     <path d="M 0 -5 
L -5 5 
L 5 5 
z
" id="m1d16e3cab3"/>
    </defs>
    <g>
     <use style="fill:#f667c6;" x="322.214285714" xlink:href="#m1d16e3cab3" y="337.735449492"/>
     <use style="fill:#f667c6;" x="347.928571429" xlink:href="#m1d16e3cab3" y="329.212112287"/>
     <use style="fill:#f667c6;" x="373.642857143" xlink:href="#m1d16e3cab3" y="320.485141305"/>
     <use style="fill:#f667c6;" x="399.357142857" xlink:href="#m1d16e3cab3" y="312.193731079"/>
     <use style="fill:#f667c6;" x="425.071428571" xlink:href="#m1d16e3cab3" y="302.471635316"/>
     <use style="fill:#f667c6;" x="450.785714286" xlink:href="#m1d16e3cab3" y="293.469170614"/>
     <use style="fill:#f667c6;" x="476.5" xlink:href="#m1d16e3cab3" y="283.840249882"/>
     <use style="fill:#f667c6;" x="502.214285714" xlink:href="#m1d16e3cab3" y="273.5458916"/>
     <use style="fill:#f667c6;" x="527.928571429" xlink:href="#m1d16e3cab3" y="263.572697512"/>
     <use style="fill:#f667c6;" x="553.642857143" xlink:href="#m1d16e3cab3" y="253.311966844"/>
     <use style="fill:#f667c6;" x="579.357142857" xlink:href="#m1d16e3cab3" y="242.651286179"/>
     <use style="fill:#f667c6;" x="605.071428571" xlink:href="#m1d16e3cab3" y="232.041891061"/>
     <use style="fill:#f667c6;" x="630.785714286" xlink:href="#m1d16e3cab3" y="221.188600642"/>
     <use style="fill:#f667c6;" x="656.5" xlink:href="#m1d16e3cab3" y="210.439130832"/>
     <use style="fill:#f667c6;" x="682.214285714" xlink:href="#m1d16e3cab3" y="198.616511546"/>
     <use style="fill:#f667c6;" x="707.928571429" xlink:href="#m1d16e3cab3" y="187.477274111"/>
     <use style="fill:#f667c6;" x="733.642857143" xlink:href="#m1d16e3cab3" y="174.830019104"/>
     <use style="fill:#f667c6;" x="759.357142857" xlink:href="#m1d16e3cab3" y="164.31169895"/>
     <use style="fill:#f667c6;" x="785.071428571" xlink:href="#m1d16e3cab3" y="152.135010946"/>
     <use style="fill:#f667c6;" x="810.785714286" xlink:href="#m1d16e3cab3" y="140.448196016"/>
     <use style="fill:#f667c6;" x="836.5" xlink:href="#m1d16e3cab3" y="129.300255513"/>
    </g>
   </g>
   <g id="line2d_68">
    <path d="M 322.214286 340.878125 
M 450.785714 243.640835 
L 476.5 243.833921 
L 502.214286 240.765893 
L 527.928571 235.623952 
L 553.642857 229.062776 
L 579.357143 221.473599 
L 605.071429 213.105156 
L 630.785714 204.123641 
L 656.5 194.644744 
L 682.214286 184.751835 
L 707.928571 174.506804 
L 733.642857 163.956794 
L 759.357143 153.138539 
L 785.071429 142.08124 
L 810.785714 130.808528 
L 836.5 119.339831 
" style="fill:none;stroke:#f667c6;stroke-dasharray:6.000000,6.000000;stroke-dashoffset:0.0;stroke-width:1.75;"/>
   </g>
   <g id="line2d_69">
    <path d="M 116.5 375.678125 
L 142.214286 373.678125 
L 167.928571 370.878125 
L 193.642857 367.278125 
L 219.357143 362.878125 
L 245.071429 357.678125 
L 270.785714 351.678125 
L 296.5 344.878125 
L 322.214286 337.278125 
L 347.928571 328.878125 
L 373.642857 319.678125 
L 399.357143 309.678125 
L 425.071429 298.878125 
L 450.785714 287.278125 
L 476.5 274.878125 
L 502.214286 261.678125 
L 527.928571 247.678125 
L 553.642857 232.878125 
L 579.357143 217.278125 
L 605.071429 200.878125 
L 630.785714 183.678125 
L 656.5 165.678125 
L 682.214286 146.878125 
L 707.928571 127.278125 
L 733.642857 106.878125 
L 759.357143 85.678125 
L 785.071429 63.678125 
L 810.785714 40.878125 
L 836.5 17.278125 
" style="fill:none;stroke:#000000;stroke-linecap:round;stroke-width:4.0;"/>
   </g>
   <g id="line2d_70"/>
   <g id="patch_3">
    <path d="M 116.5 16.878125 
L 836.5 16.878125 
" style="fill:none;"/>
   </g>
   <g id="patch_4">
    <path d="M 836.5 376.878125 
L 836.5 16.878125 
" style="fill:none;"/>
   </g>
   <g id="patch_5">
    <path d="M 116.5 376.878125 
L 836.5 376.878125 
" style="fill:none;"/>
   </g>
   <g id="patch_6">
    <path d="M 116.5 376.878125 
L 116.5 16.878125 
" style="fill:none;"/>
   </g>
   <g id="legend_1">
    <g id="patch_7">
     <path d="M 133.3 180.018125 
L 584.02 180.018125 
Q 588.82 180.018125 588.82 175.218125 
L 588.82 33.678125 
Q 588.82 28.878125 584.02 28.878125 
L 133.3 28.878125 
Q 128.5 28.878125 128.5 33.678125 
L 128.5 175.218125 
Q 128.5 180.018125 133.3 180.018125 
z
" style="fill:#eaeaf2;stroke:#ffffff;stroke-linejoin:miter;stroke-width:0.3;"/>
    </g>
    <g id="line2d_71"/>
    <g id="line2d_72">
     <g>
      <use style="fill:#e18632;" x="162.1" xlink:href="#m2ceeb72af9" y="48.314375"/>
     </g>
    </g>
    <g id="text_19">
     <!-- $\mathrm{Rank}(\rho_{0})=$1 -->
     <defs>
      <path d="M 25 -2.203125 
Q 12.75 -2.203125 8.328125 7.875 
Q 3.90625 17.96875 3.90625 31.890625 
Q 3.90625 40.578125 5.484375 48.234375 
Q 7.078125 55.90625 11.78125 61.25 
Q 16.5 66.609375 25 66.609375 
Q 31.59375 66.609375 35.78125 63.375 
Q 39.984375 60.15625 42.1875 55.046875 
Q 44.390625 49.953125 45.1875 44.109375 
Q 46 38.28125 46 31.890625 
Q 46 23.296875 44.40625 15.796875 
Q 42.828125 8.296875 38.1875 3.046875 
Q 33.546875 -2.203125 25 -2.203125 
M 25 0.390625 
Q 30.5625 0.390625 33.296875 6.09375 
Q 36.03125 11.8125 36.671875 18.75 
Q 37.3125 25.6875 37.3125 33.5 
Q 37.3125 41.015625 36.671875 47.359375 
Q 36.03125 53.71875 33.3125 58.859375 
Q 30.609375 64.015625 25 64.015625 
Q 19.34375 64.015625 16.609375 58.828125 
Q 13.875 53.65625 13.234375 47.328125 
Q 12.59375 41.015625 12.59375 33.5 
Q 12.59375 27.9375 12.859375 23 
Q 13.140625 18.0625 14.3125 12.8125 
Q 15.484375 7.5625 18.09375 3.96875 
Q 20.703125 0.390625 25 0.390625 
" id="Cmr10-30"/>
      <path d="M 31 -24.8125 
Q 25.4375 -20.40625 21.40625 -14.71875 
Q 17.390625 -9.03125 14.8125 -2.578125 
Q 12.25 3.859375 10.984375 10.890625 
Q 9.71875 17.921875 9.71875 25 
Q 9.71875 32.171875 10.984375 39.203125 
Q 12.25 46.234375 14.859375 52.734375 
Q 17.484375 59.234375 21.53125 64.890625 
Q 25.59375 70.5625 31 74.8125 
Q 31 75 31.5 75 
L 32.421875 75 
Q 32.71875 75 32.953125 74.734375 
Q 33.203125 74.46875 33.203125 74.125 
Q 33.203125 73.6875 33.015625 73.484375 
Q 28.125 68.703125 24.875 63.234375 
Q 21.625 57.765625 19.640625 51.578125 
Q 17.671875 45.40625 16.796875 38.78125 
Q 15.921875 32.171875 15.921875 25 
Q 15.921875 -6.78125 32.90625 -23.296875 
Q 33.203125 -23.578125 33.203125 -24.125 
Q 33.203125 -24.359375 32.9375 -24.671875 
Q 32.671875 -25 32.421875 -25 
L 31.5 -25 
Q 31 -25 31 -24.8125 
" id="Cmr10-28"/>
      <path d="M 2.984375 0 
L 2.984375 3.515625 
Q 6.390625 3.515625 8.59375 4.046875 
Q 10.796875 4.59375 10.796875 6.6875 
L 10.796875 33.984375 
Q 10.796875 36.671875 9.984375 37.859375 
Q 9.1875 39.0625 7.671875 39.328125 
Q 6.15625 39.59375 2.984375 39.59375 
L 2.984375 43.109375 
L 17.484375 44.1875 
L 17.484375 34.421875 
Q 19.484375 38.71875 23.40625 41.453125 
Q 27.34375 44.1875 31.984375 44.1875 
Q 38.921875 44.1875 42.40625 40.859375 
Q 45.90625 37.546875 45.90625 30.71875 
L 45.90625 6.6875 
Q 45.90625 4.59375 48.09375 4.046875 
Q 50.296875 3.515625 53.71875 3.515625 
L 53.71875 0 
L 30.8125 0 
L 30.8125 3.515625 
Q 34.234375 3.515625 36.421875 4.046875 
Q 38.625 4.59375 38.625 6.6875 
L 38.625 30.421875 
Q 38.625 35.296875 37.203125 38.453125 
Q 35.796875 41.609375 31.390625 41.609375 
Q 25.59375 41.609375 21.84375 36.96875 
Q 18.109375 32.328125 18.109375 26.421875 
L 18.109375 6.6875 
Q 18.109375 4.59375 20.3125 4.046875 
Q 22.515625 3.515625 25.875 3.515625 
L 25.875 0 
z
" id="Cmr10-6e"/>
      <path d="M 3.328125 0 
L 3.328125 3.515625 
Q 13.625 3.515625 13.625 6.6875 
L 13.625 61.625 
Q 13.625 64.796875 3.328125 64.796875 
L 3.328125 68.3125 
L 34.71875 68.3125 
Q 40.328125 68.3125 46.5 66.28125 
Q 52.6875 64.265625 56.828125 60.109375 
Q 60.984375 55.953125 60.984375 50.203125 
Q 60.984375 46 58.46875 42.703125 
Q 55.953125 39.40625 52.015625 37.1875 
Q 48.09375 34.96875 44 33.984375 
Q 48.484375 32.421875 51.84375 29 
Q 55.21875 25.59375 55.90625 21.1875 
L 57.328125 12.3125 
Q 58.296875 6.296875 59.375 3.34375 
Q 60.453125 0.390625 64.109375 0.390625 
Q 67.234375 0.390625 68.765625 3.296875 
Q 70.3125 6.203125 70.3125 9.625 
Q 70.3125 9.96875 70.625 10.234375 
Q 70.953125 10.5 71.296875 10.5 
L 72.21875 10.5 
Q 73.1875 10.5 73.1875 9.1875 
Q 73.1875 6.453125 72.109375 3.828125 
Q 71.046875 1.21875 69.015625 -0.484375 
Q 67 -2.203125 64.203125 -2.203125 
Q 56.984375 -2.203125 51.78125 1.390625 
Q 46.578125 4.984375 46.578125 11.921875 
L 46.578125 20.796875 
Q 46.578125 25.78125 43.109375 29.34375 
Q 39.65625 32.90625 34.625 32.90625 
L 22.609375 32.90625 
L 22.609375 6.6875 
Q 22.609375 3.515625 32.90625 3.515625 
L 32.90625 0 
z
M 22.609375 35.5 
L 33.296875 35.5 
Q 41.609375 35.5 45.953125 38.84375 
Q 50.296875 42.1875 50.296875 50.203125 
Q 50.296875 58.15625 46 61.46875 
Q 41.703125 64.796875 33.296875 64.796875 
L 27.6875 64.796875 
Q 25.875 64.796875 24.875 64.640625 
Q 23.875 64.5 23.234375 63.796875 
Q 22.609375 63.09375 22.609375 61.625 
z
" id="Cmr10-52"/>
      <path d="M 2.59375 0 
L 2.59375 3.515625 
Q 6 3.515625 8.203125 4.046875 
Q 10.40625 4.59375 10.40625 6.6875 
L 10.40625 59.1875 
Q 10.40625 61.859375 9.59375 63.0625 
Q 8.796875 64.265625 7.28125 64.53125 
Q 5.765625 64.796875 2.59375 64.796875 
L 2.59375 68.3125 
L 17.390625 69.390625 
L 17.390625 21.921875 
L 30.8125 33.6875 
Q 32.8125 35.59375 32.8125 37.203125 
Q 32.8125 38.375 31.984375 38.984375 
Q 31.15625 39.59375 29.984375 39.59375 
L 29.984375 43.109375 
L 48.78125 43.109375 
L 48.78125 39.59375 
Q 42 39.59375 35.203125 33.6875 
L 28.078125 27.484375 
L 40.828125 9.421875 
Q 43.453125 5.671875 45.234375 4.59375 
Q 47.015625 3.515625 51.125 3.515625 
L 51.125 0 
L 31.203125 0 
L 31.203125 3.515625 
Q 34.625 3.515625 34.625 5.609375 
Q 34.625 7.125 32.8125 9.421875 
L 23.1875 23.09375 
L 17.09375 17.828125 
L 17.09375 6.6875 
Q 17.09375 4.59375 19.3125 4.046875 
Q 21.53125 3.515625 24.90625 3.515625 
L 24.90625 0 
z
" id="Cmr10-6b"/>
      <path d="M 6.5 -25 
Q 5.609375 -25 5.609375 -24.125 
Q 5.609375 -23.6875 5.8125 -23.484375 
Q 22.90625 -6.78125 22.90625 25 
Q 22.90625 56.78125 6 73.296875 
Q 5.609375 73.53125 5.609375 74.125 
Q 5.609375 74.46875 5.875 74.734375 
Q 6.15625 75 6.5 75 
L 7.421875 75 
Q 7.71875 75 7.90625 74.8125 
Q 15.09375 69.140625 19.875 61.03125 
Q 24.65625 52.9375 26.875 43.75 
Q 29.109375 34.578125 29.109375 25 
Q 29.109375 17.921875 27.90625 11.0625 
Q 26.703125 4.203125 24.09375 -2.453125 
Q 21.484375 -9.125 17.484375 -14.765625 
Q 13.484375 -20.40625 7.90625 -24.8125 
Q 7.71875 -25 7.421875 -25 
z
" id="Cmr10-29"/>
      <path d="M 2.78125 -18.796875 
Q 2.78125 -18.21875 2.875 -18.015625 
L 12.796875 21.921875 
Q 14.203125 27.296875 17.640625 32.4375 
Q 21.09375 37.59375 25.96875 40.890625 
Q 30.859375 44.1875 36.28125 44.1875 
Q 40.625 44.1875 43.875 41.921875 
Q 47.125 39.65625 48.75 35.96875 
Q 50.390625 32.28125 50.390625 27.875 
Q 50.390625 23.046875 48.40625 17.875 
Q 46.4375 12.703125 42.9375 8.40625 
Q 39.453125 4.109375 34.90625 1.484375 
Q 30.375 -1.125 25.390625 -1.125 
Q 22.46875 -1.125 19.875 0.609375 
Q 17.28125 2.34375 15.828125 5.171875 
L 9.90625 -18.40625 
Q 9.625 -19.828125 8.453125 -20.703125 
Q 7.28125 -21.578125 5.8125 -21.578125 
Q 4.59375 -21.578125 3.6875 -20.8125 
Q 2.78125 -20.0625 2.78125 -18.796875 
M 25.59375 1.515625 
Q 30.90625 1.515625 34.828125 6.953125 
Q 38.765625 12.40625 40.84375 19.75 
Q 42.921875 27.09375 42.921875 32.171875 
Q 42.921875 35.984375 41.25 38.796875 
Q 39.59375 41.609375 36.078125 41.609375 
Q 31.734375 41.609375 28.40625 38.3125 
Q 25.09375 35.015625 23.09375 30.5625 
Q 21.09375 26.125 19.828125 21.296875 
L 17.09375 10.109375 
Q 17.71875 6.5 19.9375 4 
Q 22.171875 1.515625 25.59375 1.515625 
" id="Cmmi10-bd"/>
      <path d="M 7.515625 13.28125 
Q 6.6875 13.28125 6.140625 13.90625 
Q 5.609375 14.546875 5.609375 15.28125 
Q 5.609375 16.109375 6.140625 16.6875 
Q 6.6875 17.28125 7.515625 17.28125 
L 70.3125 17.28125 
Q 71.046875 17.28125 71.578125 16.6875 
Q 72.125 16.109375 72.125 15.28125 
Q 72.125 14.546875 71.578125 13.90625 
Q 71.046875 13.28125 70.3125 13.28125 
z
M 7.515625 32.71875 
Q 6.6875 32.71875 6.140625 33.296875 
Q 5.609375 33.890625 5.609375 34.71875 
Q 5.609375 35.453125 6.140625 36.078125 
Q 6.6875 36.71875 7.515625 36.71875 
L 70.3125 36.71875 
Q 71.046875 36.71875 71.578125 36.078125 
Q 72.125 35.453125 72.125 34.71875 
Q 72.125 33.890625 71.578125 33.296875 
Q 71.046875 32.71875 70.3125 32.71875 
z
" id="Cmr10-3d"/>
      <path d="M 4 9.8125 
Q 4 15.765625 8.6875 19.5 
Q 13.375 23.25 19.9375 24.78125 
Q 26.515625 26.3125 32.421875 26.3125 
L 32.421875 30.421875 
Q 32.421875 33.296875 31.15625 36 
Q 29.890625 38.71875 27.484375 40.453125 
Q 25.09375 42.1875 22.21875 42.1875 
Q 15.578125 42.1875 12.109375 39.203125 
Q 14.015625 39.203125 15.25 37.765625 
Q 16.5 36.328125 16.5 34.421875 
Q 16.5 32.421875 15.078125 31 
Q 13.671875 29.59375 11.71875 29.59375 
Q 9.71875 29.59375 8.296875 31 
Q 6.890625 32.421875 6.890625 34.421875 
Q 6.890625 39.703125 11.671875 42.265625 
Q 16.453125 44.828125 22.21875 44.828125 
Q 26.265625 44.828125 30.359375 43.09375 
Q 34.46875 41.359375 37.078125 38.125 
Q 39.703125 34.90625 39.703125 30.609375 
L 39.703125 8.109375 
Q 39.703125 6.15625 40.53125 4.515625 
Q 41.359375 2.875 43.109375 2.875 
Q 44.78125 2.875 45.578125 4.53125 
Q 46.390625 6.203125 46.390625 8.109375 
L 46.390625 14.5 
L 49.3125 14.5 
L 49.3125 8.109375 
Q 49.3125 5.859375 48.140625 3.828125 
Q 46.96875 1.8125 44.984375 0.609375 
Q 43.015625 -0.59375 40.71875 -0.59375 
Q 37.796875 -0.59375 35.671875 1.671875 
Q 33.546875 3.953125 33.296875 7.078125 
Q 31.453125 3.328125 27.828125 1.09375 
Q 24.21875 -1.125 20.125 -1.125 
Q 16.3125 -1.125 12.625 0 
Q 8.9375 1.125 6.46875 3.53125 
Q 4 5.953125 4 9.8125 
M 12.109375 9.8125 
Q 12.109375 6.296875 14.6875 3.90625 
Q 17.28125 1.515625 20.796875 1.515625 
Q 24.03125 1.515625 26.65625 3.125 
Q 29.296875 4.734375 30.859375 7.515625 
Q 32.421875 10.296875 32.421875 13.375 
L 32.421875 23.78125 
Q 27.875 23.78125 23.109375 22.28125 
Q 18.359375 20.796875 15.234375 17.625 
Q 12.109375 14.453125 12.109375 9.8125 
" id="Cmr10-61"/>
     </defs>
     <g style="fill:#262626;" transform="translate(205.3 56.714375)scale(0.24 -0.24)">
      <use xlink:href="#Cmr10-52"/>
      <use transform="translate(73.583984375 0.0)" xlink:href="#Cmr10-61"/>
      <use transform="translate(123.583984375 0.0)" xlink:href="#Cmr10-6e"/>
      <use transform="translate(179.1015625 0.0)" xlink:href="#Cmr10-6b"/>
      <use transform="translate(231.787109375 0.0)" xlink:href="#Cmr10-28"/>
      <use transform="translate(270.60546875 0.0)" xlink:href="#Cmmi10-bd"/>
      <use transform="translate(322.314453125 -17.00625)scale(0.7)" xlink:href="#Cmr10-30"/>
      <use transform="translate(363.691796875 0.0)" xlink:href="#Cmr10-29"/>
      <use transform="translate(420.06875 0.0)" xlink:href="#Cmr10-3d"/>
      <use transform="translate(515.312890625 0.0)" xlink:href="#BitstreamVeraSans-Roman-31"/>
     </g>
    </g>
    <g id="line2d_73">
     <path d="M 138.1 84.550625 
L 186.1 84.550625 
" style="fill:none;stroke:#000000;stroke-linecap:round;stroke-width:4.0;"/>
    </g>
    <g id="line2d_74"/>
    <g id="text_20">
     <!-- Wilks Theorem -->
     <defs>
      <path d="M 9.078125 75.984375 
L 18.109375 75.984375 
L 18.109375 31.109375 
L 44.921875 54.6875 
L 56.390625 54.6875 
L 27.390625 29.109375 
L 57.625 0 
L 45.90625 0 
L 18.109375 26.703125 
L 18.109375 0 
L 9.078125 0 
z
" id="BitstreamVeraSans-Roman-6b"/>
      <path d="M -0.296875 72.90625 
L 61.375 72.90625 
L 61.375 64.59375 
L 35.5 64.59375 
L 35.5 0 
L 25.59375 0 
L 25.59375 64.59375 
L -0.296875 64.59375 
z
" id="BitstreamVeraSans-Roman-54"/>
      <path d="M 54.890625 33.015625 
L 54.890625 0 
L 45.90625 0 
L 45.90625 32.71875 
Q 45.90625 40.484375 42.875 44.328125 
Q 39.84375 48.1875 33.796875 48.1875 
Q 26.515625 48.1875 22.3125 43.546875 
Q 18.109375 38.921875 18.109375 30.90625 
L 18.109375 0 
L 9.078125 0 
L 9.078125 75.984375 
L 18.109375 75.984375 
L 18.109375 46.1875 
Q 21.34375 51.125 25.703125 53.5625 
Q 30.078125 56 35.796875 56 
Q 45.21875 56 50.046875 50.171875 
Q 54.890625 44.34375 54.890625 33.015625 
" id="BitstreamVeraSans-Roman-68"/>
      <path d="M 3.328125 72.90625 
L 13.28125 72.90625 
L 28.609375 11.28125 
L 43.890625 72.90625 
L 54.984375 72.90625 
L 70.3125 11.28125 
L 85.59375 72.90625 
L 95.609375 72.90625 
L 77.296875 0 
L 64.890625 0 
L 49.515625 63.28125 
L 33.984375 0 
L 21.578125 0 
z
" id="BitstreamVeraSans-Roman-57"/>
     </defs>
     <g style="fill:#262626;" transform="translate(205.3 92.950625)scale(0.24 -0.24)">
      <use xlink:href="#BitstreamVeraSans-Roman-57"/>
      <use x="98.845703125" xlink:href="#BitstreamVeraSans-Roman-69"/>
      <use x="126.62890625" xlink:href="#BitstreamVeraSans-Roman-6c"/>
      <use x="154.412109375" xlink:href="#BitstreamVeraSans-Roman-6b"/>
      <use x="212.322265625" xlink:href="#BitstreamVeraSans-Roman-73"/>
      <use x="264.421875" xlink:href="#BitstreamVeraSans-Roman-20"/>
      <use x="296.208984375" xlink:href="#BitstreamVeraSans-Roman-54"/>
      <use x="357.29296875" xlink:href="#BitstreamVeraSans-Roman-68"/>
      <use x="420.671875" xlink:href="#BitstreamVeraSans-Roman-65"/>
      <use x="482.1953125" xlink:href="#BitstreamVeraSans-Roman-6f"/>
      <use x="543.376953125" xlink:href="#BitstreamVeraSans-Roman-72"/>
      <use x="584.458984375" xlink:href="#BitstreamVeraSans-Roman-65"/>
      <use x="645.982421875" xlink:href="#BitstreamVeraSans-Roman-6d"/>
     </g>
    </g>
    <g id="line2d_75"/>
    <g id="line2d_76">
     <defs>
      <path d="M 0 5 
C 1.326016 5 2.597899 4.473168 3.535534 3.535534 
C 4.473168 2.597899 5 1.326016 5 0 
C 5 -1.326016 4.473168 -2.597899 3.535534 -3.535534 
C 2.597899 -4.473168 1.326016 -5 0 -5 
C -1.326016 -5 -2.597899 -4.473168 -3.535534 -3.535534 
C -4.473168 -2.597899 -5 -1.326016 -5 0 
C -5 1.326016 -4.473168 2.597899 -3.535534 3.535534 
C -2.597899 4.473168 -1.326016 5 0 5 
z
" id="mb359e0fc27"/>
     </defs>
     <g>
      <use x="162.1" xlink:href="#mb359e0fc27" y="119.781875"/>
     </g>
    </g>
    <g id="text_21">
     <!-- (various colors) $\mathrm{Rank}(\rho_{0}) = 2...9$ -->
     <defs>
      <path d="M 2.984375 54.6875 
L 12.5 54.6875 
L 29.59375 8.796875 
L 46.6875 54.6875 
L 56.203125 54.6875 
L 35.6875 0 
L 23.484375 0 
z
" id="BitstreamVeraSans-Roman-76"/>
      <path d="M 4.984375 0 
L 4.984375 2.6875 
Q 4.984375 2.9375 5.171875 3.21875 
L 20.703125 20.40625 
Q 24.21875 24.21875 26.40625 26.796875 
Q 28.609375 29.390625 30.75 32.765625 
Q 32.90625 36.140625 34.15625 39.625 
Q 35.40625 43.109375 35.40625 47.015625 
Q 35.40625 51.125 33.890625 54.859375 
Q 32.375 58.59375 29.375 60.84375 
Q 26.375 63.09375 22.125 63.09375 
Q 17.78125 63.09375 14.3125 60.46875 
Q 10.84375 57.859375 9.421875 53.71875 
Q 9.8125 53.8125 10.5 53.8125 
Q 12.75 53.8125 14.328125 52.296875 
Q 15.921875 50.78125 15.921875 48.390625 
Q 15.921875 46.09375 14.328125 44.5 
Q 12.75 42.921875 10.5 42.921875 
Q 8.15625 42.921875 6.5625 44.546875 
Q 4.984375 46.1875 4.984375 48.390625 
Q 4.984375 52.15625 6.390625 55.4375 
Q 7.8125 58.734375 10.46875 61.296875 
Q 13.140625 63.875 16.484375 65.234375 
Q 19.828125 66.609375 23.578125 66.609375 
Q 29.296875 66.609375 34.21875 64.1875 
Q 39.15625 61.765625 42.03125 57.34375 
Q 44.921875 52.9375 44.921875 47.015625 
Q 44.921875 42.671875 43.015625 38.765625 
Q 41.109375 34.859375 38.125 31.65625 
Q 35.15625 28.46875 30.515625 24.40625 
Q 25.875 20.359375 24.421875 19 
L 13.09375 8.109375 
L 22.703125 8.109375 
Q 29.78125 8.109375 34.546875 8.21875 
Q 39.3125 8.34375 39.59375 8.59375 
Q 40.765625 9.859375 42 17.828125 
L 44.921875 17.828125 
L 42.09375 0 
z
" id="Cmr10-32"/>
      <path d="M 11.28125 4.203125 
Q 14.015625 0.984375 20.796875 0.984375 
Q 24.609375 0.984375 27.90625 3.5625 
Q 31.203125 6.15625 33.015625 9.90625 
Q 35.109375 14.15625 35.6875 18.96875 
Q 36.28125 23.78125 36.28125 30.90625 
Q 34.578125 26.859375 31.375 24.265625 
Q 28.171875 21.6875 24.03125 21.6875 
Q 18.21875 21.6875 13.640625 24.828125 
Q 9.078125 27.984375 6.640625 33.125 
Q 4.203125 38.28125 4.203125 44.09375 
Q 4.203125 50.09375 6.9375 55.296875 
Q 9.671875 60.5 14.5 63.546875 
Q 19.34375 66.609375 25.484375 66.609375 
Q 31.546875 66.609375 35.625 63.3125 
Q 39.703125 60.015625 41.84375 54.8125 
Q 44 49.609375 44.84375 43.796875 
Q 45.703125 37.984375 45.703125 32.328125 
Q 45.703125 24.609375 42.875 16.578125 
Q 40.046875 8.546875 34.40625 3.171875 
Q 28.765625 -2.203125 20.796875 -2.203125 
Q 14.890625 -2.203125 10.78125 0.578125 
Q 6.6875 3.375 6.6875 8.984375 
Q 6.6875 11.03125 8.078125 12.421875 
Q 9.46875 13.8125 11.53125 13.8125 
Q 13.53125 13.8125 14.921875 12.421875 
Q 16.3125 11.03125 16.3125 8.984375 
Q 16.3125 7.03125 14.890625 5.609375 
Q 13.484375 4.203125 11.53125 4.203125 
z
M 24.421875 24.3125 
Q 28.515625 24.3125 31.125 27.0625 
Q 33.734375 29.828125 34.90625 33.921875 
Q 36.078125 38.03125 36.078125 42.09375 
L 36.078125 44 
L 36.078125 44.390625 
Q 36.078125 51.90625 33.875 57.8125 
Q 31.6875 63.71875 25.484375 63.71875 
Q 21.53125 63.71875 19.0625 61.984375 
Q 16.609375 60.25 15.4375 57.375 
Q 14.265625 54.5 13.9375 51.21875 
Q 13.625 47.953125 13.625 44.09375 
Q 13.625 38.421875 14.15625 34.421875 
Q 14.703125 30.421875 17.09375 27.359375 
Q 19.484375 24.3125 24.421875 24.3125 
" id="Cmr10-39"/>
      <path d="M 8.5 21.578125 
L 8.5 54.6875 
L 17.484375 54.6875 
L 17.484375 21.921875 
Q 17.484375 14.15625 20.5 10.265625 
Q 23.53125 6.390625 29.59375 6.390625 
Q 36.859375 6.390625 41.078125 11.03125 
Q 45.3125 15.671875 45.3125 23.6875 
L 45.3125 54.6875 
L 54.296875 54.6875 
L 54.296875 0 
L 45.3125 0 
L 45.3125 8.40625 
Q 42.046875 3.421875 37.71875 1 
Q 33.40625 -1.421875 27.6875 -1.421875 
Q 18.265625 -1.421875 13.375 4.4375 
Q 8.5 10.296875 8.5 21.578125 
" id="BitstreamVeraSans-Roman-75"/>
      <path d="M 8.40625 5.515625 
Q 8.40625 7.765625 10.0625 9.375 
Q 11.71875 10.984375 13.921875 10.984375 
Q 15.28125 10.984375 16.59375 10.25 
Q 17.921875 9.515625 18.65625 8.203125 
Q 19.390625 6.890625 19.390625 5.515625 
Q 19.390625 3.328125 17.765625 1.65625 
Q 16.15625 0 13.921875 0 
Q 11.71875 0 10.0625 1.65625 
Q 8.40625 3.328125 8.40625 5.515625 
" id="Cmmi10-3a"/>
     </defs>
     <g style="fill:#262626;" transform="translate(205.3 128.181875)scale(0.24 -0.24)">
      <use transform="translate(0.0 0.015625)" xlink:href="#BitstreamVeraSans-Roman-28"/>
      <use transform="translate(39.013671875 0.015625)" xlink:href="#BitstreamVeraSans-Roman-76"/>
      <use transform="translate(98.193359375 0.015625)" xlink:href="#BitstreamVeraSans-Roman-61"/>
      <use transform="translate(159.47265625 0.015625)" xlink:href="#BitstreamVeraSans-Roman-72"/>
      <use transform="translate(200.5859375 0.015625)" xlink:href="#BitstreamVeraSans-Roman-69"/>
      <use transform="translate(228.369140625 0.015625)" xlink:href="#BitstreamVeraSans-Roman-6f"/>
      <use transform="translate(289.55078125 0.015625)" xlink:href="#BitstreamVeraSans-Roman-75"/>
      <use transform="translate(352.9296875 0.015625)" xlink:href="#BitstreamVeraSans-Roman-73"/>
      <use transform="translate(405.029296875 0.015625)" xlink:href="#BitstreamVeraSans-Roman-20"/>
      <use transform="translate(436.81640625 0.015625)" xlink:href="#BitstreamVeraSans-Roman-63"/>
      <use transform="translate(491.796875 0.015625)" xlink:href="#BitstreamVeraSans-Roman-6f"/>
      <use transform="translate(552.978515625 0.015625)" xlink:href="#BitstreamVeraSans-Roman-6c"/>
      <use transform="translate(580.76171875 0.015625)" xlink:href="#BitstreamVeraSans-Roman-6f"/>
      <use transform="translate(641.943359375 0.015625)" xlink:href="#BitstreamVeraSans-Roman-72"/>
      <use transform="translate(683.056640625 0.015625)" xlink:href="#BitstreamVeraSans-Roman-73"/>
      <use transform="translate(735.15625 0.015625)" xlink:href="#BitstreamVeraSans-Roman-29"/>
      <use transform="translate(774.169921875 0.015625)" xlink:href="#BitstreamVeraSans-Roman-20"/>
      <use transform="translate(805.95703125 0.015625)" xlink:href="#Cmr10-52"/>
      <use transform="translate(879.541015625 0.015625)" xlink:href="#Cmr10-61"/>
      <use transform="translate(929.541015625 0.015625)" xlink:href="#Cmr10-6e"/>
      <use transform="translate(985.05859375 0.015625)" xlink:href="#Cmr10-6b"/>
      <use transform="translate(1037.74414062 0.015625)" xlink:href="#Cmr10-28"/>
      <use transform="translate(1076.5625 0.015625)" xlink:href="#Cmmi10-bd"/>
      <use transform="translate(1128.27148438 -16.990625)scale(0.7)" xlink:href="#Cmr10-30"/>
      <use transform="translate(1169.64882812 0.015625)" xlink:href="#Cmr10-29"/>
      <use transform="translate(1226.02578125 0.015625)" xlink:href="#Cmr10-3d"/>
      <use transform="translate(1321.26992187 0.015625)" xlink:href="#Cmr10-32"/>
      <use transform="translate(1371.26992187 0.015625)" xlink:href="#Cmmi10-3a"/>
      <use transform="translate(1416.5140625 0.015625)" xlink:href="#Cmmi10-3a"/>
      <use transform="translate(1461.75820312 0.015625)" xlink:href="#Cmmi10-3a"/>
      <use transform="translate(1507.00234375 0.015625)" xlink:href="#Cmr10-39"/>
     </g>
    </g>
    <g id="line2d_77"/>
    <g id="line2d_78">
     <g>
      <use style="fill:#f667c6;" x="162.1" xlink:href="#m1d16e3cab3" y="156.018125"/>
     </g>
    </g>
    <g id="text_22">
     <!-- $\mathrm{Rank}(\rho_{0})=$10 -->
     <g style="fill:#262626;" transform="translate(205.3 164.418125)scale(0.24 -0.24)">
      <use xlink:href="#Cmr10-52"/>
      <use transform="translate(73.583984375 0.0)" xlink:href="#Cmr10-61"/>
      <use transform="translate(123.583984375 0.0)" xlink:href="#Cmr10-6e"/>
      <use transform="translate(179.1015625 0.0)" xlink:href="#Cmr10-6b"/>
      <use transform="translate(231.787109375 0.0)" xlink:href="#Cmr10-28"/>
      <use transform="translate(270.60546875 0.0)" xlink:href="#Cmmi10-bd"/>
      <use transform="translate(322.314453125 -17.00625)scale(0.7)" xlink:href="#Cmr10-30"/>
      <use transform="translate(363.691796875 0.0)" xlink:href="#Cmr10-29"/>
      <use transform="translate(420.06875 0.0)" xlink:href="#Cmr10-3d"/>
      <use transform="translate(515.312890625 0.0)" xlink:href="#BitstreamVeraSans-Roman-31"/>
      <use transform="translate(578.9359375 0.0)" xlink:href="#BitstreamVeraSans-Roman-30"/>
     </g>
    </g>
   </g>
  </g>
 </g>
 <defs>
  <clipPath id="pc74e7953eb">
   <rect height="360.0" width="720.0" x="116.5" y="16.878125"/>
  </clipPath>
 </defs>
</svg>
