<?xml version="1.0" encoding="utf-8" standalone="no"?>
<!DOCTYPE svg PUBLIC "-//W3C//DTD SVG 1.1//EN"
  "http://www.w3.org/Graphics/SVG/1.1/DTD/svg11.dtd">
<!-- Created with matplotlib (http://matplotlib.org/) -->
<svg height="464pt" version="1.1" viewBox="0 0 842 464" width="842pt" xmlns="http://www.w3.org/2000/svg" xmlns:xlink="http://www.w3.org/1999/xlink">
 <defs>
  <style type="text/css">
*{stroke-linecap:butt;stroke-linejoin:round;}
  </style>
 </defs>
 <g id="figure_1">
  <g id="patch_1">
   <path d="M 0 464.132289 
L 842.249203 464.132289 
L 842.249203 0 
L 0 0 
z
" style="fill:#ffffff;"/>
  </g>
  <g id="axes_1">
   <g id="patch_2">
    <path d="M 103.626584 393.955495 
L 823.626584 393.955495 
L 823.626584 33.955495 
L 103.626584 33.955495 
z
" style="fill:#eaeaf2;"/>
   </g>
   <g id="matplotlib.axis_1">
    <g id="xtick_1">
     <g id="line2d_1">
      <path clip-path="url(#p93ebded8c3)" d="M 180.769441 393.955495 
L 180.769441 33.955495 
" style="fill:none;stroke:#ffffff;stroke-linecap:round;"/>
     </g>
     <g id="line2d_2"/>
     <g id="text_1">
      <!-- $5$ -->
      <defs>
       <path d="M 11.40625 57.6875 
C 12.40625 57.28125 16.5 56 20.703125 56 
C 30 56 35.09375 61.109375 38 64.0625 
C 38 64.953125 38 65.5 37.40625 65.5 
C 37.296875 65.5 37.09375 65.5 36.296875 65.046875 
C 32.796875 63.40625 28.703125 62.078125 23.703125 62.078125 
C 20.703125 62.078125 16.203125 62.484375 11.296875 64.671875 
C 10.203125 65.171875 10 65.171875 9.90625 65.171875 
C 9.40625 65.171875 9.296875 65.0625 9.296875 63.078125 
L 9.296875 34.421875 
C 9.296875 32.640625 9.296875 32.140625 10.296875 32.140625 
C 10.796875 32.140625 11 32.34375 11.5 33.03125 
C 14.703125 37.515625 19.09375 39.40625 24.09375 39.40625 
C 27.59375 39.40625 35.09375 37.21875 35.09375 20.140625 
C 35.09375 16.953125 35.09375 11.171875 32.09375 6.578125 
C 29.59375 2.484375 25.703125 0.390625 21.40625 0.390625 
C 14.796875 0.390625 8.09375 5 6.296875 12.71875 
C 6.703125 12.609375 7.5 12.421875 7.90625 12.421875 
C 9.203125 12.421875 11.703125 13.125 11.703125 16.21875 
C 11.703125 18.90625 9.796875 20 7.90625 20 
C 5.59375 20 4.09375 18.59375 4.09375 15.796875 
C 4.09375 7.09375 11 -2 21.59375 -2 
C 31.90625 -2 41.703125 6.875 41.703125 19.75 
C 41.703125 31.71875 33.90625 41 24.203125 41 
C 19.09375 41 14.796875 39.109375 11.40625 35.53125 
z
" id="CMR17-53"/>
      </defs>
      <g style="fill:#262626;" transform="translate(175.058132 418.251749)scale(0.25 -0.25)">
       <use transform="scale(0.996264)" xlink:href="#CMR17-53"/>
      </g>
     </g>
    </g>
    <g id="xtick_2">
     <g id="line2d_3">
      <path clip-path="url(#p93ebded8c3)" d="M 309.34087 393.955495 
L 309.34087 33.955495 
" style="fill:none;stroke:#ffffff;stroke-linecap:round;"/>
     </g>
     <g id="line2d_4"/>
     <g id="text_2">
      <!-- $10$ -->
      <defs>
       <path d="M 26.59375 63.40625 
C 26.59375 65.5 26.5 65.5 25.09375 65.5 
C 21.203125 61.1875 15.296875 59.796875 9.703125 59.796875 
C 9.40625 59.796875 8.90625 59.796875 8.796875 59.5 
C 8.703125 59.296875 8.703125 59.09375 8.703125 57 
C 11.796875 57 17 57.59375 21 59.984375 
L 21 7.203125 
C 21 3.6875 20.796875 2.5 12.203125 2.5 
L 9.203125 2.5 
L 9.203125 0 
C 14 0 19 0 23.796875 0 
C 28.59375 0 33.59375 0 38.40625 0 
L 38.40625 2.5 
L 35.40625 2.5 
C 26.796875 2.5 26.59375 3.59375 26.59375 7.15625 
z
" id="CMR17-49"/>
       <path d="M 42 31.640625 
C 42 37.75 41.90625 48.125 37.703125 56.109375 
C 34 63.109375 28.09375 65.59375 22.90625 65.59375 
C 18.09375 65.59375 12 63.40625 8.203125 56.203125 
C 4.203125 48.71875 3.796875 39.4375 3.796875 31.640625 
C 3.796875 25.953125 3.90625 17.28125 7 9.671875 
C 11.296875 -0.609375 19 -2 22.90625 -2 
C 27.5 -2 34.5 -0.109375 38.59375 9.375 
C 41.59375 16.28125 42 24.359375 42 31.640625 
z
M 22.90625 -0.40625 
C 16.5 -0.40625 12.703125 5.078125 11.296875 12.6875 
C 10.203125 18.5625 10.203125 27.15625 10.203125 32.75 
C 10.203125 40.4375 10.203125 46.828125 11.5 52.921875 
C 13.40625 61.390625 19 64 22.90625 64 
C 27 64 32.296875 61.296875 34.203125 53.125 
C 35.5 47.4375 35.59375 40.734375 35.59375 32.75 
C 35.59375 26.25 35.59375 18.265625 34.40625 12.375 
C 32.296875 1.484375 26.40625 -0.40625 22.90625 -0.40625 
z
" id="CMR17-48"/>
      </defs>
      <g style="fill:#262626;" transform="translate(297.918251 418.251749)scale(0.25 -0.25)">
       <use transform="scale(0.996264)" xlink:href="#CMR17-49"/>
       <use transform="translate(45.690477 0)scale(0.996264)" xlink:href="#CMR17-48"/>
      </g>
     </g>
    </g>
    <g id="xtick_3">
     <g id="line2d_5">
      <path clip-path="url(#p93ebded8c3)" d="M 437.912298 393.955495 
L 437.912298 33.955495 
" style="fill:none;stroke:#ffffff;stroke-linecap:round;"/>
     </g>
     <g id="line2d_6"/>
     <g id="text_3">
      <!-- $15$ -->
      <g style="fill:#262626;" transform="translate(426.489679 418.251749)scale(0.25 -0.25)">
       <use transform="scale(0.996264)" xlink:href="#CMR17-49"/>
       <use transform="translate(45.690477 0)scale(0.996264)" xlink:href="#CMR17-53"/>
      </g>
     </g>
    </g>
    <g id="xtick_4">
     <g id="line2d_7">
      <path clip-path="url(#p93ebded8c3)" d="M 566.483727 393.955495 
L 566.483727 33.955495 
" style="fill:none;stroke:#ffffff;stroke-linecap:round;"/>
     </g>
     <g id="line2d_8"/>
     <g id="text_4">
      <!-- $20$ -->
      <defs>
       <path d="M 41.703125 15.453125 
L 39.90625 15.453125 
C 38.90625 8.375 38.09375 7.171875 37.703125 6.5625 
C 37.203125 5.765625 30 5.765625 28.59375 5.765625 
L 9.40625 5.765625 
C 13 9.671875 20 16.75 28.5 24.953125 
C 34.59375 30.734375 41.703125 37.53125 41.703125 47.421875 
C 41.703125 59.21875 32.296875 66 21.796875 66 
C 10.796875 66 4.09375 56.3125 4.09375 47.34375 
C 4.09375 43.4375 7 42.9375 8.203125 42.9375 
C 9.203125 42.9375 12.203125 43.546875 12.203125 47.03125 
C 12.203125 50.109375 9.59375 51 8.203125 51 
C 7.59375 51 7 50.90625 6.59375 50.703125 
C 8.5 59.21875 14.296875 63.40625 20.40625 63.40625 
C 29.09375 63.40625 34.796875 56.515625 34.796875 47.421875 
C 34.796875 38.734375 29.703125 31.25 24 24.75 
L 4.09375 2.28125 
L 4.09375 0 
L 39.296875 0 
z
" id="CMR17-50"/>
      </defs>
      <g style="fill:#262626;" transform="translate(555.061108 418.251749)scale(0.25 -0.25)">
       <use transform="scale(0.996264)" xlink:href="#CMR17-50"/>
       <use transform="translate(45.690477 0)scale(0.996264)" xlink:href="#CMR17-48"/>
      </g>
     </g>
    </g>
    <g id="xtick_5">
     <g id="line2d_9">
      <path clip-path="url(#p93ebded8c3)" d="M 695.055156 393.955495 
L 695.055156 33.955495 
" style="fill:none;stroke:#ffffff;stroke-linecap:round;"/>
     </g>
     <g id="line2d_10"/>
     <g id="text_5">
      <!-- $25$ -->
      <g style="fill:#262626;" transform="translate(683.632536 418.251749)scale(0.25 -0.25)">
       <use transform="scale(0.996264)" xlink:href="#CMR17-50"/>
       <use transform="translate(45.690477 0)scale(0.996264)" xlink:href="#CMR17-53"/>
      </g>
     </g>
    </g>
    <g id="xtick_6">
     <g id="line2d_11">
      <path clip-path="url(#p93ebded8c3)" d="M 823.626584 393.955495 
L 823.626584 33.955495 
" style="fill:none;stroke:#ffffff;stroke-linecap:round;"/>
     </g>
     <g id="line2d_12"/>
     <g id="text_6">
      <!-- $30$ -->
      <defs>
       <path d="M 22.09375 33.703125 
C 31 33.703125 34.90625 25.96875 34.90625 17.03125 
C 34.90625 5 28.5 0.390625 22.703125 0.390625 
C 17.40625 0.390625 8.796875 3.03125 6.09375 10.828125 
C 6.59375 10.625 7.09375 10.625 7.59375 10.625 
C 10 10.625 11.796875 12.21875 11.796875 14.8125 
C 11.796875 17.703125 9.59375 19 7.59375 19 
C 5.90625 19 3.296875 18.203125 3.296875 14.46875 
C 3.296875 5.234375 12.296875 -2 22.90625 -2 
C 34 -2 42.5 6.71875 42.5 16.953125 
C 42.5 26.671875 34.5 33.6875 25 34.796875 
C 32.59375 36.375 39.90625 43.0625 39.90625 52.015625 
C 39.90625 59.6875 32 65.296875 23 65.296875 
C 13.90625 65.296875 5.90625 59.828125 5.90625 52.015625 
C 5.90625 48.59375 8.5 48 9.796875 48 
C 11.90625 48 13.703125 49.296875 13.703125 51.890625 
C 13.703125 54.46875 11.90625 55.765625 9.796875 55.765625 
C 9.40625 55.765625 8.90625 55.765625 8.5 55.578125 
C 11.40625 61.859375 19.296875 63 22.796875 63 
C 26.296875 63 32.90625 61.328125 32.90625 51.875 
C 32.90625 49.109375 32.5 44.1875 29.09375 39.84375 
C 26.09375 36 22.703125 36 19.40625 35.6875 
C 18.90625 35.6875 16.59375 35.453125 16.203125 35.453125 
C 15.5 35.359375 15.09375 35.265625 15.09375 34.5 
C 15.09375 33.796875 15.203125 33.703125 17.203125 33.703125 
z
" id="CMR17-51"/>
      </defs>
      <g style="fill:#262626;" transform="translate(812.203965 418.251749)scale(0.25 -0.25)">
       <use transform="scale(0.996264)" xlink:href="#CMR17-51"/>
       <use transform="translate(45.690477 0)scale(0.996264)" xlink:href="#CMR17-48"/>
      </g>
     </g>
    </g>
    <g id="text_7">
     <!-- $d$ (Hilbert Space Dimension) -->
     <defs>
      <path d="M 50.296875 66.515625 
C 50.40625 66.90625 50.59375 67.5 50.59375 68 
C 50.59375 69 49.59375 69 49.40625 69 
C 49.296875 69 44.40625 68.5625 43.90625 68.4375 
C 42.203125 68.328125 40.703125 68.09375 38.90625 68.09375 
C 36.40625 67.890625 35.703125 67.796875 35.703125 66 
C 35.703125 65 36.5 65 37.90625 65 
C 42.796875 65 42.90625 64.109375 42.90625 63.125 
C 42.90625 62.53125 42.703125 61.75 42.59375 61.453125 
L 36.5 37.421875 
C 35.40625 40.015625 32.703125 44 27.5 44 
C 16.203125 44 4 29.4375 4 14.671875 
C 4 4.796875 9.796875 -1 16.59375 -1 
C 22.09375 -1 26.796875 3.296875 29.59375 6.59375 
C 30.59375 0.703125 35.296875 -1 38.296875 -1 
C 41.296875 -1 43.703125 0.796875 45.5 4.390625 
C 47.09375 7.78125 48.5 13.875 48.5 14.265625 
C 48.5 14.765625 48.09375 15.171875 47.5 15.171875 
C 46.59375 15.171875 46.5 14.671875 46.09375 13.171875 
C 44.59375 7.28125 42.703125 1 38.59375 1 
C 35.703125 1 35.5 3.578125 35.5 5.578125 
C 35.5 5.96875 35.5 8.046875 36.203125 10.84375 
z
M 30.09375 11.875 
C 29.59375 10.171875 29.59375 9.984375 28.203125 8.078125 
C 26 5.28125 21.59375 1 16.90625 1 
C 12.796875 1 10.5 4.6875 10.5 10.578125 
C 10.5 16.0625 13.59375 27.234375 15.5 31.4375 
C 18.90625 38.421875 23.59375 42.015625 27.5 42.015625 
C 34.09375 42.015625 35.40625 33.828125 35.40625 33.03125 
C 35.40625 32.9375 35.09375 31.625 35 31.4375 
z
" id="CMMI12-100"/>
      <path d="M 30.59375 -24.390625 
C 30.59375 -24.296875 30.59375 -24.09375 30.296875 -23.796875 
C 25.703125 -19.125 13.40625 -6.359375 13.40625 24.6875 
C 13.40625 55.765625 25.5 68.421875 30.40625 73.390625 
C 30.40625 73.5 30.59375 73.703125 30.59375 74 
C 30.59375 74.296875 30.296875 74.5 29.90625 74.5 
C 28.796875 74.5 20.296875 67.125 15.40625 56.15625 
C 10.40625 45.109375 9 34.359375 9 24.8125 
C 9 17.625 9.703125 5.484375 15.703125 -7.359375 
C 20.5 -17.734375 28.703125 -25 29.90625 -25 
C 30.40625 -25 30.59375 -24.796875 30.59375 -24.390625 
z
" id="CMR17-40"/>
      <path d="M 56.09375 61.015625 
C 56.09375 65.5 57.203125 65.5 64.09375 65.5 
L 64.09375 68 
C 61.203125 68 55.90625 68 52.796875 68 
C 49.703125 68 44.40625 68 41.5 68 
L 41.5 65.5 
C 48.40625 65.5 49.5 65.5 49.5 61 
L 49.5 36.578125 
L 19.703125 36.578125 
L 19.703125 61 
C 19.703125 65.5 20.796875 65.5 27.703125 65.5 
L 27.703125 68 
C 24.796875 68 19.5 68 16.40625 68 
C 13.296875 68 8 68 5.09375 68 
L 5.09375 65.5 
C 12 65.5 13.09375 65.5 13.09375 61.015625 
L 13.09375 6.984375 
C 13.09375 2.5 12 2.5 5.09375 2.5 
L 5.09375 0 
C 8 0 13.296875 0 16.40625 0 
C 19.5 0 24.796875 0 27.703125 0 
L 27.703125 2.5 
C 20.796875 2.5 19.703125 2.5 19.703125 6.96875 
L 19.703125 34 
L 49.5 34 
L 49.5 6.96875 
C 49.5 2.5 48.40625 2.5 41.5 2.5 
L 41.5 0 
C 44.40625 0 49.703125 0 52.796875 0 
C 55.90625 0 61.203125 0 64.09375 0 
L 64.09375 2.5 
C 57.203125 2.5 56.09375 2.5 56.09375 6.984375 
z
" id="CMR17-72"/>
      <path d="M 15.5 61.078125 
C 15.5 63.265625 13.703125 65.15625 11.40625 65.15625 
C 9.203125 65.15625 7.296875 63.375 7.296875 61.078125 
C 7.296875 58.890625 9.09375 57 11.40625 57 
C 13.59375 57 15.5 58.796875 15.5 61.078125 
z
M 3.796875 42.28125 
L 3.796875 39.703125 
C 9.40625 39.703125 10.203125 39.09375 10.203125 34.328125 
L 10.203125 6.671875 
C 10.203125 2.875 9.796875 2.390625 3.40625 2.390625 
L 3.40625 -0.203125 
C 5.796875 0 10.09375 0 12.59375 0 
C 15 0 19.09375 0 21.40625 -0.203125 
L 21.40625 2.390625 
C 15.5 2.390625 15.296875 2.984375 15.296875 6.5625 
L 15.296875 43.375 
z
" id="CMR17-105"/>
      <path d="M 15.296875 68.6875 
L 3.40625 67.59375 
L 3.40625 65 
C 9.296875 65 10.203125 64.40625 10.203125 59.640625 
L 10.203125 6.65625 
C 10.203125 2.875 9.796875 2.390625 3.40625 2.390625 
L 3.40625 -0.203125 
C 5.796875 0 10.203125 0 12.703125 0 
C 15.296875 0 19.703125 0 22.09375 -0.203125 
L 22.09375 2.390625 
C 15.703125 2.390625 15.296875 2.78125 15.296875 6.65625 
z
" id="CMR17-108"/>
      <path d="M 15 68.6875 
L 3.09375 67.59375 
L 3.09375 65 
C 9 65 9.90625 64.40625 9.90625 59.640625 
L 9.90625 -0.203125 
L 11.703125 -0.203125 
L 14.59375 6.890625 
C 17.5 2.203125 21.796875 -1 27.59375 -1 
C 37.59375 -1 47.703125 7.8125 47.703125 21.40625 
C 47.703125 34.1875 38.703125 43.59375 28.59375 43.59375 
C 22.40625 43.59375 18 40.296875 15 36.40625 
z
M 15.203125 31.3125 
C 15.203125 33.09375 15.203125 33.40625 16.59375 35.5 
C 20.5 41.515625 26.09375 42 28 42 
C 31 42 41.296875 40.390625 41.296875 21.5 
C 41.296875 1.6875 29.5 0.59375 27.09375 0.59375 
C 24 0.59375 19.5 1.78125 16.296875 7.59375 
C 15.203125 9.5 15.203125 9.703125 15.203125 11.484375 
z
" id="CMR17-98"/>
      <path d="M 38.09375 23 
C 38.5 23.40625 38.5 23.609375 38.5 24.625 
C 38.5 34.96875 33.09375 44 21.703125 44 
C 11.09375 44 2.703125 33.890625 2.703125 21.609375 
C 2.703125 8.609375 12.203125 -1 22.796875 -1 
C 34 -1 38.40625 9.484375 38.40625 11.5625 
C 38.40625 12.25 37.796875 12.25 37.59375 12.25 
C 36.90625 12.25 36.796875 12.046875 36.40625 10.875 
C 34.203125 4.140625 28.703125 0.796875 23.5 0.796875 
C 19.203125 0.796875 14.90625 3.171875 12.203125 7.5 
C 9.09375 12.546875 9.09375 18.375 9.09375 23 
z
M 9.203125 24.5 
C 9.90625 39.140625 17.59375 42.40625 21.59375 42.40625 
C 28.40625 42.40625 33 35.890625 33.09375 24.5 
z
" id="CMR17-101"/>
      <path d="M 15 23.390625 
C 15 33 19.09375 42 26.59375 42 
C 27.296875 42 28 41.90625 28.703125 41.59375 
C 28.703125 41.59375 26.5 40.890625 26.5 38.3125 
C 26.5 35.90625 28.40625 34.90625 29.90625 34.90625 
C 31.09375 34.90625 33.296875 35.609375 33.296875 38.40625 
C 33.296875 41.609375 30.09375 43.59375 26.703125 43.59375 
C 19.09375 43.59375 15.796875 36.203125 14.796875 32.703125 
L 14.703125 32.703125 
L 14.703125 43.59375 
L 3.09375 42.5 
L 3.09375 39.90625 
C 9 39.90625 9.90625 39.296875 9.90625 34.5 
L 9.90625 6.6875 
C 9.90625 2.875 9.5 2.390625 3.09375 2.390625 
L 3.09375 -0.203125 
C 5.5 0 10.09375 0 12.703125 0 
C 15.59375 0 20.703125 0 23.40625 -0.203125 
L 23.40625 2.390625 
C 16.203125 2.390625 15 2.390625 15 6.875 
z
" id="CMR17-114"/>
      <path d="M 15.09375 40 
L 29.09375 40 
L 29.09375 42.578125 
L 15.09375 42.578125 
L 15.09375 61 
L 13.296875 61 
C 13.09375 50.703125 9.59375 41.6875 1.09375 41.6875 
L 1.09375 40 
L 9.796875 40 
L 9.796875 12.046875 
C 9.796875 10.15625 9.796875 -1 21.40625 -1 
C 27.296875 -1 30.703125 4.78125 30.703125 12.140625 
L 30.703125 17.8125 
L 28.90625 17.8125 
L 28.90625 12.234375 
C 28.90625 5.375 26.203125 0.796875 22 0.796875 
C 19.09375 0.796875 15.09375 2.78125 15.09375 11.84375 
z
" id="CMR17-116"/>
      <path d="M 43.796875 67.03125 
C 43.796875 68.8125 43.703125 68.921875 43.09375 68.921875 
C 42.5 68.921875 42.296875 68.515625 41.90625 67.625 
L 38.90625 61.046875 
C 35.09375 66.515625 29.296875 69 23 69 
C 12.796875 69 4.59375 60.953125 4.59375 50.828125 
C 4.59375 47.75 5.296875 43.375 8.703125 39.21875 
C 12.40625 34.65625 15.90625 33.859375 23.90625 31.765625 
C 26.90625 30.96875 31.90625 29.671875 32.90625 29.28125 
C 38.59375 26.90625 41.59375 20.953125 41.59375 15.390625 
C 41.59375 8.234375 36.5 0.59375 27.796875 0.59375 
C 17.09375 0.59375 7.09375 6.546875 6.40625 20.484375 
C 6.296875 22.078125 6.203125 22.171875 5.5 22.171875 
C 4.703125 22.171875 4.59375 22.078125 4.59375 20.078125 
L 4.59375 -0.015625 
C 4.59375 -1.796875 4.703125 -1.90625 5.296875 -1.90625 
C 6 -1.90625 6.203125 -1.40625 7.59375 1.6875 
C 7.703125 1.984375 7.703125 2.1875 9.59375 5.953125 
C 14.59375 -0.609375 23 -2 27.796875 -2 
C 38.703125 -2 46.40625 7.046875 46.40625 17.5625 
C 46.40625 22.71875 44.5 26.6875 43.40625 28.484375 
C 39.203125 34.84375 34.703125 36.03125 29.90625 37.21875 
C 29.203125 37.53125 29 37.53125 23.40625 38.90625 
C 18 40.296875 15.703125 41 13.203125 43.6875 
C 10.40625 46.75 9.40625 49.9375 9.40625 53.109375 
C 9.40625 59.5625 14.59375 66.609375 23.09375 66.609375 
C 33.703125 66.609375 40.296875 59.15625 41.796875 46.765625 
C 42.09375 44.96875 42.203125 44.875 42.90625 44.875 
C 43.796875 44.875 43.796875 45.171875 43.796875 46.859375 
z
" id="CMR17-83"/>
      <path d="M 22 -16.609375 
C 15.59375 -16.609375 15.203125 -16.203125 15.203125 -12.328125 
L 15.203125 6.28125 
C 18.09375 2.09375 22.296875 -0.59375 27.59375 -0.59375 
C 37.59375 -0.59375 47.703125 8.171875 47.703125 21.6875 
C 47.703125 34.234375 39 43.78125 28.703125 43.78125 
C 22.703125 43.78125 17.796875 40.5 15 36.53125 
L 15 43.78125 
L 3.09375 42.6875 
L 3.09375 40.109375 
C 9 40.109375 9.90625 39.5 9.90625 34.734375 
L 9.90625 -12.328125 
C 9.90625 -16.109375 9.5 -16.609375 3.09375 -16.609375 
L 3.09375 -19.1875 
C 5.5 -19 9.90625 -19 12.5 -19 
C 15.09375 -19 19.59375 -19 22 -19.1875 
z
M 15.203125 31.4375 
C 15.203125 32.84375 15.203125 34.921875 19.09375 38.609375 
C 19.59375 39.015625 23 42 28 42 
C 35.296875 42 41.296875 32.9375 41.296875 21.59375 
C 41.296875 10.25 34.90625 1 27 1 
C 23.40625 1 19.5 2.6875 16.5 7.375 
C 15.203125 9.5625 15.203125 10.15625 15.203125 11.75 
z
" id="CMR17-112"/>
      <path d="M 36 25.828125 
C 36 32.375 36 35.84375 31.796875 39.734375 
C 28.09375 43 23.796875 44 20.40625 44 
C 12.5 44 6.796875 37.609375 6.796875 30.796875 
C 6.796875 27 9.796875 27 10.40625 27 
C 11.703125 27 14 27.78125 14 30.53125 
C 14 33 12.09375 34.078125 10.40625 34.078125 
C 10 34.078125 9.5 33.96875 9.203125 33.875 
C 11.296875 40.5 16.703125 42.40625 20.203125 42.40625 
C 25.203125 42.40625 30.703125 37.953125 30.703125 29.453125 
L 30.703125 25 
C 24.796875 25 17.703125 24.203125 12.09375 21.203125 
C 5.796875 17.703125 4 12.703125 4 8.90625 
C 4 1.203125 13 -1 18.296875 -1 
C 23.796875 -1 28.90625 2.171875 31.09375 7.984375 
C 31.296875 3.640625 34.09375 -0.28125 38.5 -0.28125 
C 40.59375 -0.28125 45.90625 1.09375 45.90625 8.859375 
L 45.90625 14.375 
L 44.09375 14.375 
L 44.09375 8.78125 
C 44.09375 2.78125 41.40625 2 40.09375 2 
C 36 2 36 7.15625 36 11.53125 
z
M 30.703125 13.59375 
C 30.703125 4.953125 24.5 0.59375 19 0.59375 
C 14 0.59375 10.09375 4.296875 10.09375 8.90625 
C 10.09375 11.890625 11.40625 17.1875 17.203125 20.390625 
C 22 23.09375 27.5 23.5 30.703125 23.5 
z
" id="CMR17-97"/>
      <path d="M 34.90625 35 
C 33 35 30.203125 35 30.203125 31.515625 
C 30.203125 28.71875 32.5 27.921875 33.796875 27.921875 
C 34.5 27.921875 37.40625 28.234375 37.40625 31.625 
C 37.40625 38.546875 30.59375 43.796875 22.90625 43.796875 
C 12.296875 43.796875 3.296875 34.03125 3.296875 21.296875 
C 3.296875 8.0625 12.703125 -1 22.90625 -1 
C 35.296875 -1 38.40625 10.578125 38.40625 11.6875 
C 38.40625 12.09375 38.296875 12.390625 37.59375 12.390625 
C 36.90625 12.390625 36.796875 12.296875 36.40625 10.984375 
C 33.796875 2.8125 28.09375 0.796875 23.796875 0.796875 
C 17.40625 0.796875 9.703125 6.671875 9.703125 21.390625 
C 9.703125 36.53125 17.09375 42 23 42 
C 26.90625 42 32.703125 40.203125 34.90625 35 
z
" id="CMR17-99"/>
      <path d="M 5.203125 68 
L 5.203125 65.40625 
C 12.09375 65.40625 13.203125 65.40625 13.203125 60.9375 
L 13.203125 7.0625 
C 13.203125 2.59375 12.09375 2.59375 5.203125 2.59375 
L 5.203125 0 
L 37 0 
C 53.09375 0 66 14.734375 66 33.453125 
C 66 52.28125 53.296875 68 37 68 
z
M 23.796875 2.59375 
C 19.796875 2.59375 19.59375 3.078125 19.59375 6.46875 
L 19.59375 61.53125 
C 19.59375 64.921875 19.796875 65.40625 23.796875 65.40625 
L 35 65.40625 
C 43.296875 65.40625 58.59375 60.53125 58.59375 33.453125 
C 58.59375 19.40625 54.5 13.734375 52.59375 11.046875 
C 50.203125 7.96875 44.5 2.59375 35 2.59375 
z
" id="CMR17-68"/>
      <path d="M 67.59375 30.203125 
C 67.59375 35.1875 66.703125 43.59375 54.796875 43.59375 
C 48 43.59375 43.296875 39 41.5 33.609375 
L 41.40625 33.609375 
C 40.203125 41.8125 34.296875 43.59375 28.703125 43.59375 
C 20.796875 43.59375 16.703125 37.5 15.203125 33.5 
L 15.09375 33.5 
L 15.09375 43.59375 
L 3.296875 42.5 
L 3.296875 39.90625 
C 9.203125 39.90625 10.09375 39.296875 10.09375 34.5 
L 10.09375 6.6875 
C 10.09375 2.875 9.703125 2.390625 3.296875 2.390625 
L 3.296875 -0.203125 
C 5.703125 0 10.09375 0 12.703125 0 
C 15.296875 0 19.796875 0 22.203125 -0.203125 
L 22.203125 2.390625 
C 15.796875 2.390625 15.40625 2.78125 15.40625 6.6875 
L 15.40625 25.90625 
C 15.40625 35.109375 21 42 28 42 
C 35.40625 42 36.203125 35.40625 36.203125 30.59375 
L 36.203125 6.6875 
C 36.203125 2.875 35.796875 2.390625 29.40625 2.390625 
L 29.40625 -0.203125 
C 31.796875 0 36.203125 0 38.796875 0 
C 41.40625 0 45.90625 0 48.296875 -0.203125 
L 48.296875 2.390625 
C 41.90625 2.390625 41.5 2.78125 41.5 6.6875 
L 41.5 25.90625 
C 41.5 35.109375 47.09375 42 54.09375 42 
C 61.5 42 62.296875 35.40625 62.296875 30.59375 
L 62.296875 6.6875 
C 62.296875 2.875 61.90625 2.390625 55.5 2.390625 
L 55.5 -0.203125 
C 57.90625 0 62.296875 0 64.90625 0 
C 67.5 0 72 0 74.40625 -0.203125 
L 74.40625 2.390625 
C 68 2.390625 67.59375 2.78125 67.59375 6.6875 
z
" id="CMR17-109"/>
      <path d="M 41.5 30.203125 
C 41.5 35.296875 40.5 43.59375 28.703125 43.59375 
C 20.796875 43.59375 16.703125 37.5 15.203125 33.5 
L 15.09375 33.5 
L 15.09375 43.59375 
L 3.296875 42.5 
L 3.296875 39.90625 
C 9.203125 39.90625 10.09375 39.296875 10.09375 34.5 
L 10.09375 6.6875 
C 10.09375 2.875 9.703125 2.390625 3.296875 2.390625 
L 3.296875 -0.203125 
C 5.703125 0 10.09375 0 12.703125 0 
C 15.296875 0 19.796875 0 22.203125 -0.203125 
L 22.203125 2.390625 
C 15.796875 2.390625 15.40625 2.78125 15.40625 6.6875 
L 15.40625 25.90625 
C 15.40625 35.109375 21 42 28 42 
C 35.40625 42 36.203125 35.40625 36.203125 30.59375 
L 36.203125 6.6875 
C 36.203125 2.875 35.796875 2.390625 29.40625 2.390625 
L 29.40625 -0.203125 
C 31.796875 0 36.203125 0 38.796875 0 
C 41.40625 0 45.90625 0 48.296875 -0.203125 
L 48.296875 2.390625 
C 41.90625 2.390625 41.5 2.78125 41.5 6.6875 
z
" id="CMR17-110"/>
      <path d="M 30.90625 42.140625 
C 30.90625 43.953125 30.796875 44.046875 30.203125 44.046875 
C 29.796875 44.046875 29.703125 43.953125 28.5 42.453125 
C 28.203125 42.046875 27.296875 41.03125 27 40.640625 
C 23.796875 44.046875 19.296875 44.046875 17.59375 44.046875 
C 6.5 44.046875 2.5 38.234375 2.5 32.4375 
C 2.5 23.40625 12.703125 21.328125 15.59375 20.703125 
C 21.90625 19.421875 24.09375 19.015625 26.203125 17.203125 
C 27.5 16.015625 29.703125 13.8125 29.703125 10.21875 
C 29.703125 6 27.296875 0.59375 18.09375 0.59375 
C 9.40625 0.59375 6.296875 7.1875 4.5 15.953125 
C 4.203125 17.34375 4.203125 17.453125 3.40625 17.453125 
C 2.59375 17.453125 2.5 17.34375 2.5 15.359375 
L 2.5 0.984375 
C 2.5 -0.796875 2.59375 -0.90625 3.203125 -0.90625 
C 3.703125 -0.90625 3.796875 -0.796875 4.296875 0 
C 4.90625 0.890625 6.40625 3.296875 7 4.3125 
C 9 1.609375 12.5 -1 18.09375 -1 
C 28 -1 33.296875 4.421875 33.296875 12.25 
C 33.296875 17.375 30.59375 20.078125 29.296875 21.28125 
C 26.296875 24.390625 22.796875 25.09375 18.59375 25.890625 
C 13.09375 27.109375 6.09375 28.515625 6.09375 34.640625 
C 6.09375 37.234375 7.5 42.765625 17.59375 42.765625 
C 28.296875 42.765625 28.90625 32.71875 29.09375 29.5 
C 29.203125 29 29.703125 28.890625 30 28.890625 
C 30.90625 28.890625 30.90625 29.203125 30.90625 30.90625 
z
" id="CMR17-115"/>
      <path d="M 43.09375 21.1875 
C 43.09375 34 33.796875 44 22.90625 44 
C 12 44 2.703125 34 2.703125 21.1875 
C 2.703125 8.609375 12 -1 22.90625 -1 
C 33.796875 -1 43.09375 8.609375 43.09375 21.1875 
z
M 22.90625 0.796875 
C 18.203125 0.796875 14.203125 3.59375 11.90625 7.5 
C 9.40625 11.984375 9.09375 17.59375 9.09375 22 
C 9.09375 26.203125 9.296875 31.40625 11.90625 35.90625 
C 13.90625 39.203125 17.796875 42.40625 22.90625 42.40625 
C 27.40625 42.40625 31.203125 39.90625 33.59375 36.40625 
C 36.703125 31.703125 36.703125 25.109375 36.703125 22 
C 36.703125 18.09375 36.5 12.109375 33.796875 7.296875 
C 31 2.703125 26.703125 0.796875 22.90625 0.796875 
z
" id="CMR17-111"/>
      <path d="M 26.296875 24.6875 
C 26.296875 31.875 25.59375 44.015625 19.59375 56.859375 
C 14.796875 67.234375 6.59375 74.5 5.40625 74.5 
C 5.09375 74.5 4.703125 74.390625 4.703125 73.890625 
C 4.703125 73.703125 4.796875 73.59375 4.90625 73.390625 
C 9.703125 68.40625 21.90625 55.75 21.90625 24.75 
C 21.90625 -6.359375 9.796875 -19.015625 4.90625 -24.015625 
C 4.796875 -24.203125 4.703125 -24.3125 4.703125 -24.5 
C 4.703125 -25 5.09375 -25 5.40625 -25 
C 6.5 -25 15 -17.625 19.90625 -6.65625 
C 24.90625 4.390625 26.296875 15.140625 26.296875 24.6875 
z
" id="CMR17-41"/>
     </defs>
     <g style="fill:#262626;" transform="translate(292.009536 449.485316)scale(0.3 -0.3)">
      <use transform="scale(0.996264)" xlink:href="#CMMI12-100"/>
      <use transform="translate(80.765063 0)scale(0.996264)" xlink:href="#CMR17-40"/>
      <use transform="translate(116.045831 0)scale(0.996264)" xlink:href="#CMR17-72"/>
      <use transform="translate(185.118261 0)scale(0.996264)" xlink:href="#CMR17-105"/>
      <use transform="translate(209.989319 0)scale(0.996264)" xlink:href="#CMR17-108"/>
      <use transform="translate(234.860378 0)scale(0.996264)" xlink:href="#CMR17-98"/>
      <use transform="translate(288.358186 0)scale(0.996264)" xlink:href="#CMR17-101"/>
      <use transform="translate(328.843847 0)scale(0.996264)" xlink:href="#CMR17-114"/>
      <use transform="translate(364.124614 0)scale(0.996264)" xlink:href="#CMR17-116"/>
      <use transform="translate(429.481349 0)scale(0.996264)" xlink:href="#CMR17-83"/>
      <use transform="translate(480.376718 0)scale(0.996264)" xlink:href="#CMR17-112"/>
      <use transform="translate(531.272088 0)scale(0.996264)" xlink:href="#CMR17-97"/>
      <use transform="translate(576.962565 0)scale(0.996264)" xlink:href="#CMR17-99"/>
      <use transform="translate(617.448226 0)scale(0.996264)" xlink:href="#CMR17-101"/>
      <use transform="translate(688.009853 0)scale(0.996264)" xlink:href="#CMR17-68"/>
      <use transform="translate(758.403408 0)scale(0.996264)" xlink:href="#CMR17-105"/>
      <use transform="translate(783.274467 0)scale(0.996264)" xlink:href="#CMR17-109"/>
      <use transform="translate(860.194057 0)scale(0.996264)" xlink:href="#CMR17-101"/>
      <use transform="translate(900.679717 0)scale(0.996264)" xlink:href="#CMR17-110"/>
      <use transform="translate(951.575087 0)scale(0.996264)" xlink:href="#CMR17-115"/>
      <use transform="translate(987.376425 0)scale(0.996264)" xlink:href="#CMR17-105"/>
      <use transform="translate(1012.247483 0)scale(0.996264)" xlink:href="#CMR17-111"/>
      <use transform="translate(1057.93796 0)scale(0.996264)" xlink:href="#CMR17-110"/>
      <use transform="translate(1108.83333 0)scale(0.996264)" xlink:href="#CMR17-41"/>
     </g>
    </g>
   </g>
   <g id="matplotlib.axis_2">
    <g id="ytick_1">
     <g id="line2d_13">
      <path clip-path="url(#p93ebded8c3)" d="M 103.626584 378.321564 
L 823.626584 378.321564 
" style="fill:none;stroke:#ffffff;stroke-linecap:round;"/>
     </g>
     <g id="line2d_14"/>
     <g id="text_8">
      <!-- $0$ -->
      <g style="fill:#262626;" transform="translate(85.203965 386.969691)scale(0.25 -0.25)">
       <use transform="scale(0.996264)" xlink:href="#CMR17-48"/>
      </g>
     </g>
    </g>
    <g id="ytick_2">
     <g id="line2d_15">
      <path clip-path="url(#p93ebded8c3)" d="M 103.626584 305.351056 
L 823.626584 305.351056 
" style="fill:none;stroke:#ffffff;stroke-linecap:round;"/>
     </g>
     <g id="line2d_16"/>
     <g id="text_9">
      <!-- $200$ -->
      <g style="fill:#262626;" transform="translate(62.358726 313.999183)scale(0.25 -0.25)">
       <use transform="scale(0.996264)" xlink:href="#CMR17-50"/>
       <use transform="translate(45.690477 0)scale(0.996264)" xlink:href="#CMR17-48"/>
       <use transform="translate(91.380954 0)scale(0.996264)" xlink:href="#CMR17-48"/>
      </g>
     </g>
    </g>
    <g id="ytick_3">
     <g id="line2d_17">
      <path clip-path="url(#p93ebded8c3)" d="M 103.626584 232.380548 
L 823.626584 232.380548 
" style="fill:none;stroke:#ffffff;stroke-linecap:round;"/>
     </g>
     <g id="line2d_18"/>
     <g id="text_10">
      <!-- $400$ -->
      <defs>
       <path d="M 33.59375 64.40625 
C 33.59375 66.5 33.5 66.5 31.703125 66.5 
L 2 19.59375 
L 2 17 
L 27.796875 17 
L 27.796875 7.140625 
C 27.796875 3.5 27.59375 2.5 20.59375 2.5 
L 18.703125 2.5 
L 18.703125 0 
C 21.90625 0 27.296875 0 30.703125 0 
C 34.09375 0 39.5 0 42.703125 0 
L 42.703125 2.5 
L 40.796875 2.5 
C 33.796875 2.5 33.59375 3.5 33.59375 7.140625 
L 33.59375 17 
L 43.796875 17 
L 43.796875 19.59375 
L 33.59375 19.59375 
z
M 28.09375 57.859375 
L 28.09375 19.59375 
L 4 19.59375 
z
" id="CMR17-52"/>
      </defs>
      <g style="fill:#262626;" transform="translate(62.358726 241.028675)scale(0.25 -0.25)">
       <use transform="scale(0.996264)" xlink:href="#CMR17-52"/>
       <use transform="translate(45.690477 0)scale(0.996264)" xlink:href="#CMR17-48"/>
       <use transform="translate(91.380954 0)scale(0.996264)" xlink:href="#CMR17-48"/>
      </g>
     </g>
    </g>
    <g id="ytick_4">
     <g id="line2d_19">
      <path clip-path="url(#p93ebded8c3)" d="M 103.626584 159.410041 
L 823.626584 159.410041 
" style="fill:none;stroke:#ffffff;stroke-linecap:round;"/>
     </g>
     <g id="line2d_20"/>
     <g id="text_11">
      <!-- $600$ -->
      <defs>
       <path d="M 10.59375 34 
C 10.59375 57.65625 21.796875 63 28.296875 63 
C 30.40625 63 35.5 62.640625 37.5 59 
C 35.90625 59 32.90625 59 32.90625 55.515625 
C 32.90625 52.828125 35.09375 51.921875 36.5 51.921875 
C 37.40625 51.921875 40.09375 52.3125 40.09375 55.625 
C 40.09375 61.78125 35.09375 65.296875 28.203125 65.296875 
C 16.296875 65.296875 3.796875 52.96875 3.796875 31 
C 3.796875 3.953125 15.09375 -2 23.09375 -2 
C 32.796875 -2 42 6.671875 42 20.046875 
C 42 32.515625 33.90625 41.59375 23.703125 41.59375 
C 17.59375 41.59375 13.09375 37.609375 10.59375 30.625 
z
M 23.09375 0.390625 
C 10.796875 0.390625 10.796875 18.75 10.796875 22.4375 
C 10.796875 29.625 14.203125 40 23.5 40 
C 25.203125 40 30.09375 40 33.40625 33.125 
C 35.203125 29.21875 35.203125 25.140625 35.203125 20.140625 
C 35.203125 14.75 35.203125 10.78125 33.09375 6.78125 
C 30.90625 2.671875 27.703125 0.390625 23.09375 0.390625 
z
" id="CMR17-54"/>
      </defs>
      <g style="fill:#262626;" transform="translate(62.358726 168.058167)scale(0.25 -0.25)">
       <use transform="scale(0.996264)" xlink:href="#CMR17-54"/>
       <use transform="translate(45.690477 0)scale(0.996264)" xlink:href="#CMR17-48"/>
       <use transform="translate(91.380954 0)scale(0.996264)" xlink:href="#CMR17-48"/>
      </g>
     </g>
    </g>
    <g id="ytick_5">
     <g id="line2d_21">
      <path clip-path="url(#p93ebded8c3)" d="M 103.626584 86.439533 
L 823.626584 86.439533 
" style="fill:none;stroke:#ffffff;stroke-linecap:round;"/>
     </g>
     <g id="line2d_22"/>
     <g id="text_12">
      <!-- $800$ -->
      <defs>
       <path d="M 27.203125 35.375 
C 33.5 38.546875 39.90625 43.328125 39.90625 50.984375 
C 39.90625 60.015625 31.09375 65.296875 23 65.296875 
C 13.90625 65.296875 5.90625 58.734375 5.90625 49.6875 
C 5.90625 47.203125 6.5 42.921875 10.40625 39.140625 
C 11.40625 38.15625 15.59375 35.171875 18.296875 33.28125 
C 13.796875 30.984375 3.296875 25.53125 3.296875 14.59375 
C 3.296875 4.359375 13.09375 -2 22.796875 -2 
C 33.5 -2 42.5 5.65625 42.5 15.78125 
C 42.5 24.84375 36.40625 29.015625 32.40625 31.703125 
z
M 14.09375 44.09375 
C 13.296875 44.59375 9.296875 47.671875 9.296875 52.359375 
C 9.296875 58.421875 15.59375 63 22.796875 63 
C 30.703125 63 36.5 57.4375 36.5 50.96875 
C 36.5 41.703125 26.09375 36.421875 25.59375 36.421875 
C 25.5 36.421875 25.40625 36.421875 24.59375 37.03125 
z
M 32.5 23.734375 
C 34 22.640625 38.796875 19.375 38.796875 13.296875 
C 38.796875 5.953125 31.40625 0.390625 23 0.390625 
C 13.90625 0.390625 7 6.84375 7 14.6875 
C 7 22.546875 13.09375 29.09375 20 32.1875 
z
" id="CMR17-56"/>
      </defs>
      <g style="fill:#262626;" transform="translate(62.358726 95.08766)scale(0.25 -0.25)">
       <use transform="scale(0.996264)" xlink:href="#CMR17-56"/>
       <use transform="translate(45.690477 0)scale(0.996264)" xlink:href="#CMR17-48"/>
       <use transform="translate(91.380954 0)scale(0.996264)" xlink:href="#CMR17-48"/>
      </g>
     </g>
    </g>
    <g id="text_13">
     <!-- $\langle \lambda\rangle$ -->
     <defs>
      <path d="M 32.796875 71.203125 
C 33.296875 72.296875 33.296875 72.5 33.296875 73 
C 33.296875 74.09375 32.40625 75 31.296875 75 
C 30.40625 75 29.703125 74.5 29 72.703125 
L 11.5 26.796875 
C 11.296875 26.203125 11 25.59375 11 25 
C 11 24.703125 11 24.5 11.5 23.296875 
L 29 -22.59375 
C 29.40625 -23.703125 29.90625 -25 31.296875 -25 
C 32.40625 -25 33.296875 -24.09375 33.296875 -23 
C 33.296875 -22.703125 33.296875 -22.5 32.796875 -21.40625 
L 15.09375 25 
z
" id="CMSY10-104"/>
      <path d="M 30.90625 61.953125 
C 28.40625 69 20.5 69 19.203125 69 
C 18.59375 69 17.5 69 17.5 68 
C 17.5 67.21875 18.09375 67.109375 18.59375 67.015625 
C 20.09375 66.8125 21.296875 66.609375 22.90625 63.75 
C 23.90625 61.859375 34.203125 32.171875 34.203125 31.96875 
C 34.203125 31.875 34.09375 31.765625 33.296875 30.96875 
L 7.296875 4.859375 
C 6.09375 3.65625 5.296875 2.859375 5.296875 1.59375 
C 5.296875 0.1875 6.5 -1 8.09375 -1 
C 8.5 -1 9.59375 -0.796875 10.203125 -0.203125 
C 11.796875 1.28125 26.09375 18.65625 35.203125 29.390625 
C 37.796875 21.609375 41 12.453125 44.09375 4.078125 
C 44.59375 2.59375 45.09375 1.1875 46.5 -0.09375 
C 47.5 -1 47.703125 -1 50.5 -1 
L 52.40625 -1 
C 52.796875 -1 53.5 -1 53.5 -0.203125 
C 53.5 0.203125 53.40625 0.296875 53 0.703125 
C 52.09375 1.796875 51.40625 3.578125 51 4.78125 
z
" id="CMMI12-21"/>
      <path d="M 27.296875 23.296875 
C 27.796875 24.5 27.796875 24.703125 27.796875 25 
C 27.796875 25.296875 27.796875 25.5 27.296875 26.703125 
L 9.796875 72.703125 
C 9.203125 74.40625 8.59375 75 7.5 75 
C 6.40625 75 5.5 74.09375 5.5 73 
C 5.5 72.703125 5.5 72.5 6 71.40625 
L 23.703125 25 
L 6 -21.203125 
C 5.5 -22.296875 5.5 -22.5 5.5 -23 
C 5.5 -24.09375 6.40625 -25 7.5 -25 
C 8.796875 -25 9.203125 -24 9.59375 -23 
z
" id="CMSY10-105"/>
     </defs>
     <g style="fill:#262626;" transform="translate(7.2 206.483515)scale(0.3 -0.3)">
      <use transform="scale(0.996264)" xlink:href="#CMSY10-104"/>
      <use transform="translate(38.743734 0)scale(0.996264)" xlink:href="#CMMI12-21"/>
      <use transform="translate(95.647806 0)scale(0.996264)" xlink:href="#CMSY10-105"/>
     </g>
    </g>
   </g>
   <g id="line2d_23">
    <defs>
     <path d="M -5 5 
L 5 5 
L 5 -5 
L -5 -5 
z
" id="m6566255288"/>
    </defs>
    <g>
     <use style="fill:#e18632;" x="103.626584" xlink:href="#m6566255288" y="377.44126"/>
     <use style="fill:#e18632;" x="129.34087" xlink:href="#m6566255288" y="376.314188"/>
     <use style="fill:#e18632;" x="155.055156" xlink:href="#m6566255288" y="375.277971"/>
     <use style="fill:#e18632;" x="180.769441" xlink:href="#m6566255288" y="374.120083"/>
     <use style="fill:#e18632;" x="206.483727" xlink:href="#m6566255288" y="372.754753"/>
     <use style="fill:#e18632;" x="232.198013" xlink:href="#m6566255288" y="371.338237"/>
     <use style="fill:#e18632;" x="257.912298" xlink:href="#m6566255288" y="370.016233"/>
     <use style="fill:#e18632;" x="283.626584" xlink:href="#m6566255288" y="368.509319"/>
     <use style="fill:#e18632;" x="309.34087" xlink:href="#m6566255288" y="367.043782"/>
     <use style="fill:#e18632;" x="335.055156" xlink:href="#m6566255288" y="365.50048"/>
     <use style="fill:#e18632;" x="360.769441" xlink:href="#m6566255288" y="364.028173"/>
     <use style="fill:#e18632;" x="386.483727" xlink:href="#m6566255288" y="362.778909"/>
     <use style="fill:#e18632;" x="412.198013" xlink:href="#m6566255288" y="360.940091"/>
     <use style="fill:#e18632;" x="437.912298" xlink:href="#m6566255288" y="359.584288"/>
     <use style="fill:#e18632;" x="463.626584" xlink:href="#m6566255288" y="358.345782"/>
     <use style="fill:#e18632;" x="489.34087" xlink:href="#m6566255288" y="356.792181"/>
     <use style="fill:#e18632;" x="515.055156" xlink:href="#m6566255288" y="354.456721"/>
     <use style="fill:#e18632;" x="540.769441" xlink:href="#m6566255288" y="353.308208"/>
     <use style="fill:#e18632;" x="566.483727" xlink:href="#m6566255288" y="351.412111"/>
     <use style="fill:#e18632;" x="592.198013" xlink:href="#m6566255288" y="350.155465"/>
     <use style="fill:#e18632;" x="617.912298" xlink:href="#m6566255288" y="348.809395"/>
     <use style="fill:#e18632;" x="643.626584" xlink:href="#m6566255288" y="347.129598"/>
     <use style="fill:#e18632;" x="669.34087" xlink:href="#m6566255288" y="345.508407"/>
     <use style="fill:#e18632;" x="695.055156" xlink:href="#m6566255288" y="343.90177"/>
     <use style="fill:#e18632;" x="720.769441" xlink:href="#m6566255288" y="341.44168"/>
     <use style="fill:#e18632;" x="746.483727" xlink:href="#m6566255288" y="340.228568"/>
     <use style="fill:#e18632;" x="772.198013" xlink:href="#m6566255288" y="338.766563"/>
     <use style="fill:#e18632;" x="797.912298" xlink:href="#m6566255288" y="336.456068"/>
     <use style="fill:#e18632;" x="823.626584" xlink:href="#m6566255288" y="334.753744"/>
    </g>
   </g>
   <g id="line2d_24">
    <path d="M 103.626584 377.232438 
L 129.34087 376.300844 
L 155.055156 375.180506 
L 180.769441 373.965953 
L 206.483727 372.686633 
L 232.198013 371.357696 
L 257.912298 369.988619 
L 283.626584 368.585952 
L 309.34087 367.15451 
L 335.055156 365.697982 
L 360.769441 364.219282 
L 386.483727 362.72077 
L 412.198013 361.204391 
L 437.912298 359.671775 
L 463.626584 358.124305 
L 489.34087 356.56317 
L 515.055156 354.989399 
L 540.769441 353.403894 
L 566.483727 351.807446 
L 592.198013 350.200761 
L 617.912298 348.584466 
L 643.626584 346.959123 
L 669.34087 345.325242 
L 695.055156 343.683282 
L 720.769441 342.03366 
L 746.483727 340.37676 
L 772.198013 338.71293 
L 797.912298 337.042491 
L 823.626584 335.365741 
" style="fill:none;stroke:#e18632;stroke-dasharray:6.475,2.8;stroke-dashoffset:0;stroke-width:1.75;"/>
   </g>
   <g id="line2d_25">
    <defs>
     <path d="M 0 5 
C 1.326016 5 2.597899 4.473168 3.535534 3.535534 
C 4.473168 2.597899 5 1.326016 5 0 
C 5 -1.326016 4.473168 -2.597899 3.535534 -3.535534 
C 2.597899 -4.473168 1.326016 -5 0 -5 
C -1.326016 -5 -2.597899 -4.473168 -3.535534 -3.535534 
C -4.473168 -2.597899 -5 -1.326016 -5 0 
C -5 1.326016 -4.473168 2.597899 -3.535534 3.535534 
C -2.597899 4.473168 -1.326016 5 0 5 
z
" id="mca51eb5dd0"/>
    </defs>
    <g>
     <use style="fill:#b59a32;" x="103.626584" xlink:href="#mca51eb5dd0" y="377.289284"/>
     <use style="fill:#b59a32;" x="129.34087" xlink:href="#mca51eb5dd0" y="375.613063"/>
     <use style="fill:#b59a32;" x="155.055156" xlink:href="#mca51eb5dd0" y="373.844193"/>
     <use style="fill:#b59a32;" x="180.769441" xlink:href="#mca51eb5dd0" y="371.948972"/>
     <use style="fill:#b59a32;" x="206.483727" xlink:href="#mca51eb5dd0" y="369.646775"/>
     <use style="fill:#b59a32;" x="232.198013" xlink:href="#mca51eb5dd0" y="367.259766"/>
     <use style="fill:#b59a32;" x="257.912298" xlink:href="#mca51eb5dd0" y="364.991609"/>
     <use style="fill:#b59a32;" x="283.626584" xlink:href="#mca51eb5dd0" y="362.521136"/>
     <use style="fill:#b59a32;" x="309.34087" xlink:href="#mca51eb5dd0" y="359.954579"/>
     <use style="fill:#b59a32;" x="335.055156" xlink:href="#mca51eb5dd0" y="357.425899"/>
     <use style="fill:#b59a32;" x="360.769441" xlink:href="#mca51eb5dd0" y="354.584433"/>
     <use style="fill:#b59a32;" x="386.483727" xlink:href="#mca51eb5dd0" y="352.24254"/>
     <use style="fill:#b59a32;" x="412.198013" xlink:href="#mca51eb5dd0" y="349.293791"/>
     <use style="fill:#b59a32;" x="437.912298" xlink:href="#mca51eb5dd0" y="346.551922"/>
     <use style="fill:#b59a32;" x="463.626584" xlink:href="#mca51eb5dd0" y="344.289352"/>
     <use style="fill:#b59a32;" x="489.34087" xlink:href="#mca51eb5dd0" y="341.601045"/>
     <use style="fill:#b59a32;" x="515.055156" xlink:href="#mca51eb5dd0" y="338.060525"/>
     <use style="fill:#b59a32;" x="540.769441" xlink:href="#mca51eb5dd0" y="335.660325"/>
     <use style="fill:#b59a32;" x="566.483727" xlink:href="#mca51eb5dd0" y="332.315909"/>
     <use style="fill:#b59a32;" x="592.198013" xlink:href="#mca51eb5dd0" y="330.002882"/>
     <use style="fill:#b59a32;" x="617.912298" xlink:href="#mca51eb5dd0" y="327.204551"/>
     <use style="fill:#b59a32;" x="643.626584" xlink:href="#mca51eb5dd0" y="324.706296"/>
     <use style="fill:#b59a32;" x="669.34087" xlink:href="#mca51eb5dd0" y="321.014498"/>
     <use style="fill:#b59a32;" x="695.055156" xlink:href="#mca51eb5dd0" y="318.166573"/>
     <use style="fill:#b59a32;" x="720.769441" xlink:href="#mca51eb5dd0" y="314.679057"/>
     <use style="fill:#b59a32;" x="746.483727" xlink:href="#mca51eb5dd0" y="311.793336"/>
     <use style="fill:#b59a32;" x="772.198013" xlink:href="#mca51eb5dd0" y="308.483018"/>
     <use style="fill:#b59a32;" x="797.912298" xlink:href="#mca51eb5dd0" y="305.411124"/>
     <use style="fill:#b59a32;" x="823.626584" xlink:href="#mca51eb5dd0" y="302.261002"/>
    </g>
   </g>
   <g id="line2d_26">
    <path d="M 103.626584 377.591859 
L 129.34087 374.044132 
L 155.055156 373.235354 
L 180.769441 371.521759 
L 206.483727 369.508978 
L 232.198013 367.327381 
L 257.912298 365.027627 
L 283.626584 362.636174 
L 309.34087 360.169415 
L 335.055156 357.638631 
L 360.769441 355.052134 
L 386.483727 352.416344 
L 412.198013 349.736388 
L 437.912298 347.016464 
L 463.626584 344.26008 
L 489.34087 341.47021 
L 515.055156 338.649413 
L 540.769441 335.799908 
L 566.483727 332.923644 
L 592.198013 330.022341 
L 617.912298 327.097531 
L 643.626584 324.150583 
L 669.34087 321.182732 
L 695.055156 318.195094 
L 720.769441 315.188683 
L 746.483727 312.164425 
L 772.198013 309.123167 
L 797.912298 306.065686 
L 823.626584 302.992702 
" style="fill:none;stroke:#b59a32;stroke-dasharray:6.475,2.8;stroke-dashoffset:0;stroke-width:1.75;"/>
   </g>
   <g id="line2d_27">
    <defs>
     <path d="M 0 5 
C 1.326016 5 2.597899 4.473168 3.535534 3.535534 
C 4.473168 2.597899 5 1.326016 5 0 
C 5 -1.326016 4.473168 -2.597899 3.535534 -3.535534 
C 2.597899 -4.473168 1.326016 -5 0 -5 
C -1.326016 -5 -2.597899 -4.473168 -3.535534 -3.535534 
C -4.473168 -2.597899 -5 -1.326016 -5 0 
C -5 1.326016 -4.473168 2.597899 -3.535534 3.535534 
C -2.597899 4.473168 -1.326016 5 0 5 
z
" id="m94cefe671f"/>
    </defs>
    <g>
     <use style="fill:#8ba731;" x="129.34087" xlink:href="#m94cefe671f" y="375.406893"/>
     <use style="fill:#8ba731;" x="155.055156" xlink:href="#m94cefe671f" y="373.185816"/>
     <use style="fill:#8ba731;" x="180.769441" xlink:href="#m94cefe671f" y="370.763052"/>
     <use style="fill:#8ba731;" x="206.483727" xlink:href="#m94cefe671f" y="367.721304"/>
     <use style="fill:#8ba731;" x="232.198013" xlink:href="#m94cefe671f" y="364.688329"/>
     <use style="fill:#8ba731;" x="257.912298" xlink:href="#m94cefe671f" y="361.401942"/>
     <use style="fill:#8ba731;" x="283.626584" xlink:href="#m94cefe671f" y="358.215668"/>
     <use style="fill:#8ba731;" x="309.34087" xlink:href="#m94cefe671f" y="354.766547"/>
     <use style="fill:#8ba731;" x="335.055156" xlink:href="#m94cefe671f" y="351.371053"/>
     <use style="fill:#8ba731;" x="360.769441" xlink:href="#m94cefe671f" y="347.727833"/>
     <use style="fill:#8ba731;" x="386.483727" xlink:href="#m94cefe671f" y="344.324526"/>
     <use style="fill:#8ba731;" x="412.198013" xlink:href="#m94cefe671f" y="340.200352"/>
     <use style="fill:#8ba731;" x="437.912298" xlink:href="#m94cefe671f" y="336.646814"/>
     <use style="fill:#8ba731;" x="463.626584" xlink:href="#m94cefe671f" y="333.18253"/>
     <use style="fill:#8ba731;" x="489.34087" xlink:href="#m94cefe671f" y="329.327877"/>
     <use style="fill:#8ba731;" x="515.055156" xlink:href="#m94cefe671f" y="324.951839"/>
     <use style="fill:#8ba731;" x="540.769441" xlink:href="#m94cefe671f" y="321.347332"/>
     <use style="fill:#8ba731;" x="566.483727" xlink:href="#m94cefe671f" y="316.753633"/>
     <use style="fill:#8ba731;" x="592.198013" xlink:href="#m94cefe671f" y="313.333488"/>
     <use style="fill:#8ba731;" x="617.912298" xlink:href="#m94cefe671f" y="309.404772"/>
     <use style="fill:#8ba731;" x="643.626584" xlink:href="#m94cefe671f" y="305.828539"/>
     <use style="fill:#8ba731;" x="669.34087" xlink:href="#m94cefe671f" y="300.405238"/>
     <use style="fill:#8ba731;" x="695.055156" xlink:href="#m94cefe671f" y="296.912547"/>
     <use style="fill:#8ba731;" x="720.769441" xlink:href="#m94cefe671f" y="291.977323"/>
     <use style="fill:#8ba731;" x="746.483727" xlink:href="#m94cefe671f" y="288.212205"/>
     <use style="fill:#8ba731;" x="772.198013" xlink:href="#m94cefe671f" y="283.540495"/>
     <use style="fill:#8ba731;" x="797.912298" xlink:href="#m94cefe671f" y="279.169751"/>
     <use style="fill:#8ba731;" x="823.626584" xlink:href="#m94cefe671f" y="274.87066"/>
    </g>
   </g>
   <g id="line2d_28">
    <path d="M 129.34087 376.132449 
M 180.769441 368.020517 
L 206.483727 366.330314 
L 232.198013 363.860671 
L 257.912298 361.018882 
L 283.626584 357.945967 
L 309.34087 354.707102 
L 335.055156 351.338491 
L 360.769441 347.862927 
L 386.483727 344.296092 
L 412.198013 340.649487 
L 437.912298 336.931951 
L 463.626584 333.150522 
L 489.34087 329.310957 
L 515.055156 325.418069 
L 540.769441 321.475946 
L 566.483727 317.488112 
L 592.198013 313.45764 
L 617.912298 309.387231 
L 643.626584 305.279285 
L 669.34087 301.135946 
L 695.055156 296.959141 
L 720.769441 292.750613 
L 746.483727 288.511945 
L 772.198013 284.244583 
L 797.912298 279.949851 
L 823.626584 275.628966 
" style="fill:none;stroke:#8ba731;stroke-dasharray:6.475,2.8;stroke-dashoffset:0;stroke-width:1.75;"/>
   </g>
   <g id="line2d_29">
    <defs>
     <path d="M 0 5 
C 1.326016 5 2.597899 4.473168 3.535534 3.535534 
C 4.473168 2.597899 5 1.326016 5 0 
C 5 -1.326016 4.473168 -2.597899 3.535534 -3.535534 
C 2.597899 -4.473168 1.326016 -5 0 -5 
C -1.326016 -5 -2.597899 -4.473168 -3.535534 -3.535534 
C -4.473168 -2.597899 -5 -1.326016 -5 0 
C -5 1.326016 -4.473168 2.597899 -3.535534 3.535534 
C -2.597899 4.473168 -1.326016 5 0 5 
z
" id="m48f4f6f3c9"/>
    </defs>
    <g>
     <use style="fill:#32b258;" x="155.055156" xlink:href="#m48f4f6f3c9" y="372.978363"/>
     <use style="fill:#32b258;" x="180.769441" xlink:href="#m48f4f6f3c9" y="370.052709"/>
     <use style="fill:#32b258;" x="206.483727" xlink:href="#m48f4f6f3c9" y="366.532631"/>
     <use style="fill:#32b258;" x="232.198013" xlink:href="#m48f4f6f3c9" y="362.827371"/>
     <use style="fill:#32b258;" x="257.912298" xlink:href="#m48f4f6f3c9" y="359.003466"/>
     <use style="fill:#32b258;" x="283.626584" xlink:href="#m48f4f6f3c9" y="354.987486"/>
     <use style="fill:#32b258;" x="309.34087" xlink:href="#m48f4f6f3c9" y="350.862546"/>
     <use style="fill:#32b258;" x="335.055156" xlink:href="#m48f4f6f3c9" y="346.756118"/>
     <use style="fill:#32b258;" x="360.769441" xlink:href="#m48f4f6f3c9" y="342.375892"/>
     <use style="fill:#32b258;" x="386.483727" xlink:href="#m48f4f6f3c9" y="337.96112"/>
     <use style="fill:#32b258;" x="412.198013" xlink:href="#m48f4f6f3c9" y="332.980956"/>
     <use style="fill:#32b258;" x="437.912298" xlink:href="#m48f4f6f3c9" y="328.699742"/>
     <use style="fill:#32b258;" x="463.626584" xlink:href="#m48f4f6f3c9" y="324.254509"/>
     <use style="fill:#32b258;" x="489.34087" xlink:href="#m48f4f6f3c9" y="319.082594"/>
     <use style="fill:#32b258;" x="515.055156" xlink:href="#m48f4f6f3c9" y="314.208281"/>
     <use style="fill:#32b258;" x="540.769441" xlink:href="#m48f4f6f3c9" y="309.343431"/>
     <use style="fill:#32b258;" x="566.483727" xlink:href="#m48f4f6f3c9" y="303.823744"/>
     <use style="fill:#32b258;" x="592.198013" xlink:href="#m48f4f6f3c9" y="299.438991"/>
     <use style="fill:#32b258;" x="617.912298" xlink:href="#m48f4f6f3c9" y="294.392339"/>
     <use style="fill:#32b258;" x="643.626584" xlink:href="#m48f4f6f3c9" y="289.566684"/>
     <use style="fill:#32b258;" x="669.34087" xlink:href="#m48f4f6f3c9" y="283.271107"/>
     <use style="fill:#32b258;" x="695.055156" xlink:href="#m48f4f6f3c9" y="278.326208"/>
     <use style="fill:#32b258;" x="720.769441" xlink:href="#m48f4f6f3c9" y="272.267501"/>
     <use style="fill:#32b258;" x="746.483727" xlink:href="#m48f4f6f3c9" y="267.532314"/>
     <use style="fill:#32b258;" x="772.198013" xlink:href="#m48f4f6f3c9" y="261.874174"/>
     <use style="fill:#32b258;" x="797.912298" xlink:href="#m48f4f6f3c9" y="256.591477"/>
     <use style="fill:#32b258;" x="823.626584" xlink:href="#m48f4f6f3c9" y="251.083885"/>
    </g>
   </g>
   <g id="line2d_30">
    <path d="M 155.055156 373.943333 
M 206.483727 359.752425 
L 232.198013 358.988299 
L 257.912298 356.517316 
L 283.626584 353.30179 
L 309.34087 349.662934 
L 335.055156 345.7417 
L 360.769441 341.61181 
L 386.483727 337.316929 
L 412.198013 332.885423 
L 437.912298 328.337064 
L 463.626584 323.686406 
L 489.34087 318.944624 
L 515.055156 314.120595 
L 540.769441 309.221562 
L 566.483727 304.25356 
L 592.198013 299.221711 
L 617.912298 294.130423 
L 643.626584 288.983538 
L 669.34087 283.784436 
L 695.055156 278.53612 
L 720.769441 273.241276 
L 746.483727 267.902323 
L 772.198013 262.521451 
L 797.912298 257.100653 
L 823.626584 251.641755 
" style="fill:none;stroke:#32b258;stroke-dasharray:6.475,2.8;stroke-dashoffset:0;stroke-width:1.75;"/>
   </g>
   <g id="line2d_31">
    <defs>
     <path d="M 0 5 
C 1.326016 5 2.597899 4.473168 3.535534 3.535534 
C 4.473168 2.597899 5 1.326016 5 0 
C 5 -1.326016 4.473168 -2.597899 3.535534 -3.535534 
C 2.597899 -4.473168 1.326016 -5 0 -5 
C -1.326016 -5 -2.597899 -4.473168 -3.535534 -3.535534 
C -4.473168 -2.597899 -5 -1.326016 -5 0 
C -5 1.326016 -4.473168 2.597899 -3.535534 3.535534 
C -2.597899 4.473168 -1.326016 5 0 5 
z
" id="m2cf69d3265"/>
    </defs>
    <g>
     <use style="fill:#35ae95;" x="180.769441" xlink:href="#m2cf69d3265" y="369.849228"/>
     <use style="fill:#35ae95;" x="206.483727" xlink:href="#m2cf69d3265" y="365.9224"/>
     <use style="fill:#35ae95;" x="232.198013" xlink:href="#m2cf69d3265" y="361.743861"/>
     <use style="fill:#35ae95;" x="257.912298" xlink:href="#m2cf69d3265" y="357.188758"/>
     <use style="fill:#35ae95;" x="283.626584" xlink:href="#m2cf69d3265" y="352.633108"/>
     <use style="fill:#35ae95;" x="309.34087" xlink:href="#m2cf69d3265" y="347.972768"/>
     <use style="fill:#35ae95;" x="335.055156" xlink:href="#m2cf69d3265" y="343.116916"/>
     <use style="fill:#35ae95;" x="360.769441" xlink:href="#m2cf69d3265" y="337.977556"/>
     <use style="fill:#35ae95;" x="386.483727" xlink:href="#m2cf69d3265" y="332.796992"/>
     <use style="fill:#35ae95;" x="412.198013" xlink:href="#m2cf69d3265" y="327.007314"/>
     <use style="fill:#35ae95;" x="437.912298" xlink:href="#m2cf69d3265" y="322.010038"/>
     <use style="fill:#35ae95;" x="463.626584" xlink:href="#m2cf69d3265" y="316.68435"/>
     <use style="fill:#35ae95;" x="489.34087" xlink:href="#m2cf69d3265" y="310.693794"/>
     <use style="fill:#35ae95;" x="515.055156" xlink:href="#m2cf69d3265" y="304.840869"/>
     <use style="fill:#35ae95;" x="540.769441" xlink:href="#m2cf69d3265" y="299.263027"/>
     <use style="fill:#35ae95;" x="566.483727" xlink:href="#m2cf69d3265" y="292.858652"/>
     <use style="fill:#35ae95;" x="592.198013" xlink:href="#m2cf69d3265" y="287.084514"/>
     <use style="fill:#35ae95;" x="617.912298" xlink:href="#m2cf69d3265" y="281.197783"/>
     <use style="fill:#35ae95;" x="643.626584" xlink:href="#m2cf69d3265" y="275.64841"/>
     <use style="fill:#35ae95;" x="669.34087" xlink:href="#m2cf69d3265" y="268.25224"/>
     <use style="fill:#35ae95;" x="695.055156" xlink:href="#m2cf69d3265" y="262.082876"/>
     <use style="fill:#35ae95;" x="720.769441" xlink:href="#m2cf69d3265" y="255.225507"/>
     <use style="fill:#35ae95;" x="746.483727" xlink:href="#m2cf69d3265" y="249.884654"/>
     <use style="fill:#35ae95;" x="772.198013" xlink:href="#m2cf69d3265" y="243.081007"/>
     <use style="fill:#35ae95;" x="797.912298" xlink:href="#m2cf69d3265" y="236.626782"/>
     <use style="fill:#35ae95;" x="823.626584" xlink:href="#m2cf69d3265" y="230.407767"/>
    </g>
   </g>
   <g id="line2d_32">
    <path d="M 180.769441 371.024513 
M 257.912298 348.895248 
L 283.626584 347.023105 
L 309.34087 343.79636 
L 335.055156 339.84 
L 360.769441 335.422592 
L 386.483727 330.68064 
L 412.198013 325.692296 
L 437.912298 320.506507 
L 463.626584 315.156164 
L 489.34087 309.664634 
L 515.055156 304.049296 
L 540.769441 298.323553 
L 566.483727 292.498064 
L 592.198013 286.581519 
L 617.912298 280.581152 
L 643.626584 274.503088 
L 669.34087 268.352591 
L 695.055156 262.134242 
L 720.769441 255.852067 
L 746.483727 249.509639 
L 772.198013 243.110152 
L 797.912298 236.656482 
L 823.626584 230.151236 
" style="fill:none;stroke:#35ae95;stroke-dasharray:6.475,2.8;stroke-dashoffset:0;stroke-width:1.75;"/>
   </g>
   <g id="line2d_33">
    <defs>
     <path d="M 0 5 
C 1.326016 5 2.597899 4.473168 3.535534 3.535534 
C 4.473168 2.597899 5 1.326016 5 0 
C 5 -1.326016 4.473168 -2.597899 3.535534 -3.535534 
C 2.597899 -4.473168 1.326016 -5 0 -5 
C -1.326016 -5 -2.597899 -4.473168 -3.535534 -3.535534 
C -4.473168 -2.597899 -5 -1.326016 -5 0 
C -5 1.326016 -4.473168 2.597899 -3.535534 3.535534 
C -2.597899 4.473168 -1.326016 5 0 5 
z
" id="m1e69c8a0e3"/>
    </defs>
    <g>
     <use style="fill:#37abb2;" x="206.483727" xlink:href="#m1e69c8a0e3" y="365.724268"/>
     <use style="fill:#37abb2;" x="232.198013" xlink:href="#m1e69c8a0e3" y="361.173455"/>
     <use style="fill:#37abb2;" x="257.912298" xlink:href="#m1e69c8a0e3" y="356.049715"/>
     <use style="fill:#37abb2;" x="283.626584" xlink:href="#m1e69c8a0e3" y="351.030267"/>
     <use style="fill:#37abb2;" x="309.34087" xlink:href="#m1e69c8a0e3" y="345.928873"/>
     <use style="fill:#37abb2;" x="335.055156" xlink:href="#m1e69c8a0e3" y="340.147353"/>
     <use style="fill:#37abb2;" x="360.769441" xlink:href="#m1e69c8a0e3" y="334.370311"/>
     <use style="fill:#37abb2;" x="386.483727" xlink:href="#m1e69c8a0e3" y="328.690348"/>
     <use style="fill:#37abb2;" x="412.198013" xlink:href="#m1e69c8a0e3" y="322.329853"/>
     <use style="fill:#37abb2;" x="437.912298" xlink:href="#m1e69c8a0e3" y="316.315524"/>
     <use style="fill:#37abb2;" x="463.626584" xlink:href="#m1e69c8a0e3" y="310.447791"/>
     <use style="fill:#37abb2;" x="489.34087" xlink:href="#m1e69c8a0e3" y="303.569596"/>
     <use style="fill:#37abb2;" x="515.055156" xlink:href="#m1e69c8a0e3" y="296.843652"/>
     <use style="fill:#37abb2;" x="540.769441" xlink:href="#m1e69c8a0e3" y="290.633119"/>
     <use style="fill:#37abb2;" x="566.483727" xlink:href="#m1e69c8a0e3" y="283.305309"/>
     <use style="fill:#37abb2;" x="592.198013" xlink:href="#m1e69c8a0e3" y="276.658082"/>
     <use style="fill:#37abb2;" x="617.912298" xlink:href="#m1e69c8a0e3" y="269.947366"/>
     <use style="fill:#37abb2;" x="643.626584" xlink:href="#m1e69c8a0e3" y="263.312724"/>
     <use style="fill:#37abb2;" x="669.34087" xlink:href="#m1e69c8a0e3" y="254.93337"/>
     <use style="fill:#37abb2;" x="695.055156" xlink:href="#m1e69c8a0e3" y="247.967925"/>
     <use style="fill:#37abb2;" x="720.769441" xlink:href="#m1e69c8a0e3" y="240.182842"/>
     <use style="fill:#37abb2;" x="746.483727" xlink:href="#m1e69c8a0e3" y="233.891533"/>
     <use style="fill:#37abb2;" x="772.198013" xlink:href="#m1e69c8a0e3" y="226.145793"/>
     <use style="fill:#37abb2;" x="797.912298" xlink:href="#m1e69c8a0e3" y="218.795415"/>
     <use style="fill:#37abb2;" x="823.626584" xlink:href="#m1e69c8a0e3" y="211.58127"/>
    </g>
   </g>
   <g id="line2d_34">
    <path d="M 206.483727 367.375988 
M 283.626584 335.446443 
L 309.34087 334.92826 
L 335.055156 332.139964 
L 360.769441 328.167448 
L 386.483727 323.473128 
L 412.198013 318.288876 
L 437.912298 312.745089 
L 463.626584 306.921722 
L 489.34087 300.871251 
L 515.055156 294.630059 
L 540.769441 288.224547 
L 566.483727 281.674602 
L 592.198013 274.995689 
L 617.912298 268.200156 
L 643.626584 261.298093 
L 669.34087 254.2979 
L 695.055156 247.206688 
L 720.769441 240.030562 
L 746.483727 232.774827 
L 772.198013 225.444142 
L 797.912298 218.042636 
L 823.626584 210.573998 
" style="fill:none;stroke:#37abb2;stroke-dasharray:6.475,2.8;stroke-dashoffset:0;stroke-width:1.75;"/>
   </g>
   <g id="line2d_35">
    <defs>
     <path d="M 0 5 
C 1.326016 5 2.597899 4.473168 3.535534 3.535534 
C 4.473168 2.597899 5 1.326016 5 0 
C 5 -1.326016 4.473168 -2.597899 3.535534 -3.535534 
C 2.597899 -4.473168 1.326016 -5 0 -5 
C -1.326016 -5 -2.597899 -4.473168 -3.535534 -3.535534 
C -4.473168 -2.597899 -5 -1.326016 -5 0 
C -5 1.326016 -4.473168 2.597899 -3.535534 3.535534 
C -2.597899 4.473168 -1.326016 5 0 5 
z
" id="mf89947890e"/>
    </defs>
    <g>
     <use style="fill:#39a7d6;" x="232.198013" xlink:href="#mf89947890e" y="361.000789"/>
     <use style="fill:#39a7d6;" x="257.912298" xlink:href="#mf89947890e" y="355.414641"/>
     <use style="fill:#39a7d6;" x="283.626584" xlink:href="#mf89947890e" y="349.973508"/>
     <use style="fill:#39a7d6;" x="309.34087" xlink:href="#mf89947890e" y="344.355321"/>
     <use style="fill:#39a7d6;" x="335.055156" xlink:href="#mf89947890e" y="338.053819"/>
     <use style="fill:#39a7d6;" x="360.769441" xlink:href="#mf89947890e" y="331.551739"/>
     <use style="fill:#39a7d6;" x="386.483727" xlink:href="#mf89947890e" y="325.384118"/>
     <use style="fill:#39a7d6;" x="412.198013" xlink:href="#mf89947890e" y="318.216121"/>
     <use style="fill:#39a7d6;" x="437.912298" xlink:href="#mf89947890e" y="311.617767"/>
     <use style="fill:#39a7d6;" x="463.626584" xlink:href="#mf89947890e" y="305.065848"/>
     <use style="fill:#39a7d6;" x="489.34087" xlink:href="#mf89947890e" y="297.402746"/>
     <use style="fill:#39a7d6;" x="515.055156" xlink:href="#mf89947890e" y="289.969145"/>
     <use style="fill:#39a7d6;" x="540.769441" xlink:href="#mf89947890e" y="283.020822"/>
     <use style="fill:#39a7d6;" x="566.483727" xlink:href="#mf89947890e" y="274.86102"/>
     <use style="fill:#39a7d6;" x="592.198013" xlink:href="#mf89947890e" y="267.458299"/>
     <use style="fill:#39a7d6;" x="617.912298" xlink:href="#mf89947890e" y="259.604521"/>
     <use style="fill:#39a7d6;" x="643.626584" xlink:href="#mf89947890e" y="252.593185"/>
     <use style="fill:#39a7d6;" x="669.34087" xlink:href="#mf89947890e" y="243.415296"/>
     <use style="fill:#39a7d6;" x="695.055156" xlink:href="#mf89947890e" y="235.59397"/>
     <use style="fill:#39a7d6;" x="720.769441" xlink:href="#mf89947890e" y="226.533075"/>
     <use style="fill:#39a7d6;" x="746.483727" xlink:href="#mf89947890e" y="219.136346"/>
     <use style="fill:#39a7d6;" x="772.198013" xlink:href="#mf89947890e" y="210.93161"/>
     <use style="fill:#39a7d6;" x="797.912298" xlink:href="#mf89947890e" y="202.348296"/>
     <use style="fill:#39a7d6;" x="823.626584" xlink:href="#mf89947890e" y="194.534861"/>
    </g>
   </g>
   <g id="line2d_36">
    <path d="M 232.198013 362.997757 
M 309.34087 318.029259 
L 335.055156 319.781107 
L 360.769441 317.972984 
L 386.483727 314.343874 
L 412.198013 309.630578 
L 437.912298 304.200093 
L 463.626584 298.256869 
L 489.34087 291.924752 
L 515.055156 285.283865 
L 540.769441 278.38888 
L 566.483727 271.278791 
L 592.198013 263.982466 
L 617.912298 256.521961 
L 643.626584 248.914591 
L 669.34087 241.174274 
L 695.055156 233.312421 
L 720.769441 225.338554 
L 746.483727 217.260743 
L 772.198013 209.085916 
L 797.912298 200.820093 
L 823.626584 192.468554 
" style="fill:none;stroke:#39a7d6;stroke-dasharray:6.475,2.8;stroke-dashoffset:0;stroke-width:1.75;"/>
   </g>
   <g id="line2d_37">
    <defs>
     <path d="M 0 5 
C 1.326016 5 2.597899 4.473168 3.535534 3.535534 
C 4.473168 2.597899 5 1.326016 5 0 
C 5 -1.326016 4.473168 -2.597899 3.535534 -3.535534 
C 2.597899 -4.473168 1.326016 -5 0 -5 
C -1.326016 -5 -2.597899 -4.473168 -3.535534 -3.535534 
C -4.473168 -2.597899 -5 -1.326016 -5 0 
C -5 1.326016 -4.473168 2.597899 -3.535534 3.535534 
C -2.597899 4.473168 -1.326016 5 0 5 
z
" id="ma85c7521b7"/>
    </defs>
    <g>
     <use style="fill:#8f93f4;" x="257.912298" xlink:href="#ma85c7521b7" y="355.226259"/>
     <use style="fill:#8f93f4;" x="283.626584" xlink:href="#ma85c7521b7" y="349.405153"/>
     <use style="fill:#8f93f4;" x="309.34087" xlink:href="#ma85c7521b7" y="343.318317"/>
     <use style="fill:#8f93f4;" x="335.055156" xlink:href="#ma85c7521b7" y="336.462638"/>
     <use style="fill:#8f93f4;" x="360.769441" xlink:href="#ma85c7521b7" y="329.443186"/>
     <use style="fill:#8f93f4;" x="386.483727" xlink:href="#ma85c7521b7" y="322.876131"/>
     <use style="fill:#8f93f4;" x="412.198013" xlink:href="#ma85c7521b7" y="315.023792"/>
     <use style="fill:#8f93f4;" x="437.912298" xlink:href="#ma85c7521b7" y="307.669521"/>
     <use style="fill:#8f93f4;" x="463.626584" xlink:href="#ma85c7521b7" y="300.454325"/>
     <use style="fill:#8f93f4;" x="489.34087" xlink:href="#ma85c7521b7" y="292.173145"/>
     <use style="fill:#8f93f4;" x="515.055156" xlink:href="#ma85c7521b7" y="284.116913"/>
     <use style="fill:#8f93f4;" x="540.769441" xlink:href="#ma85c7521b7" y="276.390905"/>
     <use style="fill:#8f93f4;" x="566.483727" xlink:href="#ma85c7521b7" y="267.567047"/>
     <use style="fill:#8f93f4;" x="592.198013" xlink:href="#ma85c7521b7" y="259.429217"/>
     <use style="fill:#8f93f4;" x="617.912298" xlink:href="#ma85c7521b7" y="250.831288"/>
     <use style="fill:#8f93f4;" x="643.626584" xlink:href="#ma85c7521b7" y="242.831959"/>
     <use style="fill:#8f93f4;" x="669.34087" xlink:href="#ma85c7521b7" y="233.11224"/>
     <use style="fill:#8f93f4;" x="695.055156" xlink:href="#ma85c7521b7" y="224.544318"/>
     <use style="fill:#8f93f4;" x="720.769441" xlink:href="#ma85c7521b7" y="214.508858"/>
     <use style="fill:#8f93f4;" x="746.483727" xlink:href="#ma85c7521b7" y="206.518222"/>
     <use style="fill:#8f93f4;" x="772.198013" xlink:href="#ma85c7521b7" y="197.214275"/>
     <use style="fill:#8f93f4;" x="797.912298" xlink:href="#ma85c7521b7" y="187.858488"/>
     <use style="fill:#8f93f4;" x="823.626584" xlink:href="#ma85c7521b7" y="179.081119"/>
    </g>
   </g>
   <g id="line2d_38">
    <path d="M 257.912298 357.889822 
M 360.769441 301.126186 
L 386.483727 300.934863 
L 412.198013 298.069684 
L 437.912298 293.636974 
L 463.626584 288.185751 
L 489.34087 282.020295 
L 515.055156 275.323648 
L 540.769441 268.213197 
L 566.483727 260.768224 
L 592.198013 253.04463 
L 617.912298 245.083287 
L 643.626584 236.915024 
L 669.34087 228.563727 
L 695.055156 220.048341 
L 720.769441 211.384202 
L 746.483727 202.583953 
L 772.198013 193.658179 
L 797.912298 184.615867 
L 823.626584 175.464745 
" style="fill:none;stroke:#8f93f4;stroke-dasharray:6.475,2.8;stroke-dashoffset:0;stroke-width:1.75;"/>
   </g>
   <g id="line2d_39">
    <defs>
     <path d="M 0 5 
C 1.326016 5 2.597899 4.473168 3.535534 3.535534 
C 4.473168 2.597899 5 1.326016 5 0 
C 5 -1.326016 4.473168 -2.597899 3.535534 -3.535534 
C 2.597899 -4.473168 1.326016 -5 0 -5 
C -1.326016 -5 -2.597899 -4.473168 -3.535534 -3.535534 
C -4.473168 -2.597899 -5 -1.326016 -5 0 
C -5 1.326016 -4.473168 2.597899 -3.535534 3.535534 
C -2.597899 4.473168 -1.326016 5 0 5 
z
" id="m9f5d860d39"/>
    </defs>
    <g>
     <use style="fill:#db70f4;" x="283.626584" xlink:href="#m9f5d860d39" y="349.233339"/>
     <use style="fill:#db70f4;" x="309.34087" xlink:href="#m9f5d860d39" y="342.787492"/>
     <use style="fill:#db70f4;" x="335.055156" xlink:href="#m9f5d860d39" y="335.471641"/>
     <use style="fill:#db70f4;" x="360.769441" xlink:href="#m9f5d860d39" y="327.902709"/>
     <use style="fill:#db70f4;" x="386.483727" xlink:href="#m9f5d860d39" y="320.818908"/>
     <use style="fill:#db70f4;" x="412.198013" xlink:href="#m9f5d860d39" y="312.501692"/>
     <use style="fill:#db70f4;" x="437.912298" xlink:href="#m9f5d860d39" y="304.735136"/>
     <use style="fill:#db70f4;" x="463.626584" xlink:href="#m9f5d860d39" y="296.540963"/>
     <use style="fill:#db70f4;" x="489.34087" xlink:href="#m9f5d860d39" y="287.823377"/>
     <use style="fill:#db70f4;" x="515.055156" xlink:href="#m9f5d860d39" y="279.232273"/>
     <use style="fill:#db70f4;" x="540.769441" xlink:href="#m9f5d860d39" y="270.678447"/>
     <use style="fill:#db70f4;" x="566.483727" xlink:href="#m9f5d860d39" y="261.305309"/>
     <use style="fill:#db70f4;" x="592.198013" xlink:href="#m9f5d860d39" y="252.34359"/>
     <use style="fill:#db70f4;" x="617.912298" xlink:href="#m9f5d860d39" y="243.162768"/>
     <use style="fill:#db70f4;" x="643.626584" xlink:href="#m9f5d860d39" y="234.210961"/>
     <use style="fill:#db70f4;" x="669.34087" xlink:href="#m9f5d860d39" y="223.822323"/>
     <use style="fill:#db70f4;" x="695.055156" xlink:href="#m9f5d860d39" y="214.450496"/>
     <use style="fill:#db70f4;" x="720.769441" xlink:href="#m9f5d860d39" y="203.805616"/>
     <use style="fill:#db70f4;" x="746.483727" xlink:href="#m9f5d860d39" y="194.911198"/>
     <use style="fill:#db70f4;" x="772.198013" xlink:href="#m9f5d860d39" y="184.823045"/>
     <use style="fill:#db70f4;" x="797.912298" xlink:href="#m9f5d860d39" y="174.571046"/>
     <use style="fill:#db70f4;" x="823.626584" xlink:href="#m9f5d860d39" y="165.176947"/>
    </g>
   </g>
   <g id="line2d_40">
    <path d="M 283.626584 352.052181 
M 386.483727 278.503301 
L 412.198013 280.662882 
L 437.912298 279.044794 
L 463.626584 275.235562 
L 489.34087 270.020335 
L 515.055156 263.832966 
L 540.769441 256.933375 
L 566.483727 249.487363 
L 592.198013 241.606179 
L 617.912298 233.367663 
L 643.626584 224.828243 
L 669.34087 216.030084 
L 695.055156 207.005538 
L 720.769441 197.780006 
L 746.483727 188.373843 
L 772.198013 178.803652 
L 797.912298 169.083201 
L 823.626584 159.224064 
" style="fill:none;stroke:#db70f4;stroke-dasharray:6.475,2.8;stroke-dashoffset:0;stroke-width:1.75;"/>
   </g>
   <g id="line2d_41">
    <defs>
     <path d="M 0 -5 
L -5 5 
L 5 5 
z
" id="m2d5579f1d3"/>
    </defs>
    <g>
     <use style="fill:#f667c6;" x="309.34087" xlink:href="#m2d5579f1d3" y="342.618303"/>
     <use style="fill:#f667c6;" x="335.055156" xlink:href="#m2d5579f1d3" y="334.843899"/>
     <use style="fill:#f667c6;" x="360.769441" xlink:href="#m2d5579f1d3" y="326.883756"/>
     <use style="fill:#f667c6;" x="386.483727" xlink:href="#m2d5579f1d3" y="319.320901"/>
     <use style="fill:#f667c6;" x="412.198013" xlink:href="#m2d5579f1d3" y="310.453072"/>
     <use style="fill:#f667c6;" x="437.912298" xlink:href="#m2d5579f1d3" y="302.241642"/>
     <use style="fill:#f667c6;" x="463.626584" xlink:href="#m2d5579f1d3" y="293.458802"/>
     <use style="fill:#f667c6;" x="489.34087" xlink:href="#m2d5579f1d3" y="284.068995"/>
     <use style="fill:#f667c6;" x="515.055156" xlink:href="#m2d5579f1d3" y="274.972132"/>
     <use style="fill:#f667c6;" x="540.769441" xlink:href="#m2d5579f1d3" y="265.612998"/>
     <use style="fill:#f667c6;" x="566.483727" xlink:href="#m2d5579f1d3" y="255.889057"/>
     <use style="fill:#f667c6;" x="592.198013" xlink:href="#m2d5579f1d3" y="246.211895"/>
     <use style="fill:#f667c6;" x="617.912298" xlink:href="#m2d5579f1d3" y="236.312268"/>
     <use style="fill:#f667c6;" x="643.626584" xlink:href="#m2d5579f1d3" y="226.50734"/>
     <use style="fill:#f667c6;" x="669.34087" xlink:href="#m2d5579f1d3" y="215.723558"/>
     <use style="fill:#f667c6;" x="695.055156" xlink:href="#m2d5579f1d3" y="205.563111"/>
     <use style="fill:#f667c6;" x="720.769441" xlink:href="#m2d5579f1d3" y="194.027153"/>
     <use style="fill:#f667c6;" x="746.483727" xlink:href="#m2d5579f1d3" y="184.433063"/>
     <use style="fill:#f667c6;" x="772.198013" xlink:href="#m2d5579f1d3" y="173.326325"/>
     <use style="fill:#f667c6;" x="797.912298" xlink:href="#m2d5579f1d3" y="162.666414"/>
     <use style="fill:#f667c6;" x="823.626584" xlink:href="#m2d5579f1d3" y="152.498028"/>
    </g>
   </g>
   <g id="line2d_42">
    <path d="M 309.34087 345.484835 
M 437.912298 256.791655 
L 463.626584 256.967775 
L 489.34087 254.16933 
L 515.055156 249.479205 
L 540.769441 243.494551 
L 566.483727 236.572224 
L 592.198013 228.939105 
L 617.912298 220.746784 
L 643.626584 212.100784 
L 669.34087 203.077152 
L 695.055156 193.732338 
L 720.769441 184.109344 
L 746.483727 174.241674 
L 772.198013 164.155965 
L 797.912298 153.873771 
L 823.626584 143.412813 
" style="fill:none;stroke:#f667c6;stroke-dasharray:6.475,2.8;stroke-dashoffset:0;stroke-width:1.75;"/>
   </g>
   <g id="line2d_43">
    <path d="M 103.626584 377.227006 
L 129.34087 375.402744 
L 155.055156 372.848776 
L 180.769441 369.565103 
L 206.483727 365.551725 
L 232.198013 360.808642 
L 257.912298 355.335854 
L 283.626584 349.133361 
L 309.34087 342.201163 
L 335.055156 334.539259 
L 360.769441 326.147651 
L 386.483727 317.026337 
L 412.198013 307.175319 
L 437.912298 296.594595 
L 463.626584 285.284166 
L 489.34087 273.244033 
L 515.055156 260.474194 
L 540.769441 246.97465 
L 566.483727 232.745401 
L 592.198013 217.786447 
L 617.912298 202.097788 
L 643.626584 185.679423 
L 669.34087 168.531354 
L 695.055156 150.65358 
L 720.769441 132.0461 
L 746.483727 112.708916 
L 772.198013 92.642026 
L 797.912298 71.845431 
L 823.626584 50.319132 
" style="fill:none;stroke:#000000;stroke-linecap:round;stroke-width:4;"/>
   </g>
   <g id="line2d_44"/>
   <g id="patch_3">
    <path d="M 103.626584 393.955495 
L 103.626584 33.955495 
" style="fill:none;"/>
   </g>
   <g id="patch_4">
    <path d="M 823.626584 393.955495 
L 823.626584 33.955495 
" style="fill:none;"/>
   </g>
   <g id="patch_5">
    <path d="M 103.626584 393.955495 
L 823.626584 393.955495 
" style="fill:none;"/>
   </g>
   <g id="patch_6">
    <path d="M 103.626584 33.955495 
L 823.626584 33.955495 
" style="fill:none;"/>
   </g>
   <g id="text_14">
    <!-- An Accurate Replacement for the Wilks Theorem -->
    <defs>
     <path d="M 36.296875 68.40625 
C 35.796875 69.703125 35.59375 70 34.59375 70 
C 33.59375 70 33.40625 69.703125 32.90625 68.40625 
L 11.703125 8.84375 
C 9.796875 3.484375 5.796875 2.390625 2.296875 2.390625 
L 2.296875 -0.203125 
C 4.09375 0 8.09375 0 10 0 
C 12.5 0 16.5 0 18.90625 -0.203125 
L 18.90625 2.390625 
C 14.203125 2.390625 13.5 5.640625 13.5 6.859375 
C 13.5 7.765625 13.703125 8.28125 13.90625 8.890625 
L 19.203125 24 
L 45.40625 24 
L 51.40625 6.90625 
C 51.90625 5.703125 51.90625 5.5 51.90625 5.109375 
C 51.90625 2.390625 47.59375 2.390625 45.703125 2.390625 
L 45.703125 0 
C 48.59375 0 53.796875 0 56.90625 0 
C 59.5 0 64.5 0 66.90625 -0.203125 
L 66.90625 2.390625 
C 61.59375 2.390625 59.796875 2.390625 58.5 6.046875 
z
M 32.296875 60.828125 
L 44.5 26.59375 
L 20.09375 26.59375 
z
" id="CMR17-65"/>
     <path d="M 29.40625 42.078125 
L 29.40625 39.5 
C 35.296875 39.5 36.203125 38.890625 36.203125 34.15625 
L 36.203125 16.125 
C 36.203125 7.8125 31.703125 0.59375 24.296875 0.59375 
C 16.09375 0.59375 15.40625 5.4375 15.40625 10.59375 
L 15.40625 43.171875 
L 3.296875 42.078125 
L 3.296875 39.5 
C 7.296875 39.5 10 39.5 10.09375 35.53125 
L 10.09375 16.53125 
C 10.09375 9.890625 10.09375 5.640625 12.703125 2.859375 
C 14 1.578125 16.5 -1 23.703125 -1 
C 32.203125 -1 35.5 5.890625 36.296875 7.90625 
L 36.40625 7.90625 
L 36.40625 -0.984375 
L 48.296875 -0.984375 
L 48.296875 2 
C 42.40625 2 41.5 2.59375 41.5 7.390625 
L 41.5 43.171875 
z
" id="CMR17-117"/>
     <path d="M 39.203125 33.53125 
C 48.703125 35.4375 56.703125 41.8125 56.703125 49.78125 
C 56.703125 59.140625 46.09375 67.59375 32.09375 67.59375 
L 5.203125 67.59375 
L 5.203125 65 
C 12.09375 65 13.203125 65 13.203125 60.515625 
L 13.203125 6.484375 
C 13.203125 2 12.09375 2 5.203125 2 
L 5.203125 -0.40625 
C 8.09375 -0.40625 13.296875 -0.40625 16.40625 -0.40625 
C 19.5 -0.40625 24.703125 -0.40625 27.59375 -0.40625 
L 27.59375 2 
C 20.703125 2 19.59375 2 19.59375 6.515625 
L 19.59375 33 
L 31.296875 33 
C 37 33 40.203125 30.6875 41.59375 29.390625 
C 45.59375 25.5 45.59375 22.796875 45.59375 16 
C 45.59375 9.296875 45.59375 5.890625 48.59375 2.5 
C 52.40625 -1.59375 57.5 -2 59.703125 -2 
C 67.09375 -2 68.203125 6.1875 68.203125 7.859375 
C 68.203125 8.4375 68.203125 9.140625 67.296875 9.140625 
C 66.5 9.140625 66.40625 8.546875 66.40625 8.15625 
C 65.90625 1.75 63 -0.40625 59.90625 -0.40625 
C 54.40625 -0.40625 53.796875 5.859375 53.203125 11.9375 
C 52.90625 14.03125 52.703125 15.515625 52.5 17.703125 
C 51.90625 22.6875 51.09375 29.953125 39.203125 33.53125 
z
M 31 34.59375 
L 19.59375 34.59375 
L 19.59375 61.140625 
C 19.59375 64.515625 19.796875 65 23.796875 65 
L 31.09375 65 
C 39.40625 65 49.09375 62.140625 49.09375 49.84375 
C 49.09375 37.0625 38.5 34.59375 31 34.59375 
z
" id="CMR17-82"/>
     <path d="M 15.296875 40 
L 26.703125 40 
L 26.703125 42.578125 
L 15.09375 42.578125 
L 15.09375 54.59375 
C 15.09375 62.84375 19.296875 68 23.59375 68 
C 24.90625 68 26.40625 67.609375 27.40625 66.90625 
C 26.59375 66.703125 24.5 66.015625 24.5 63.53125 
C 24.5 60.953125 26.5 60.15625 27.90625 60.15625 
C 29.296875 60.15625 31.296875 60.953125 31.296875 63.546875 
C 31.296875 67.3125 27.703125 69.59375 23.703125 69.59375 
C 18 69.59375 10.203125 64.9375 10.203125 54.390625 
L 10.203125 42.578125 
L 2.203125 42.578125 
L 2.203125 40 
L 10.203125 40 
L 10.203125 6.671875 
C 10.203125 2.875 9.796875 2.390625 3.40625 2.390625 
L 3.40625 -0.203125 
C 5.796875 0 10.40625 0 13 0 
C 15.90625 0 21 0 23.703125 -0.203125 
L 23.703125 2.390625 
C 16.5 2.390625 15.296875 2.390625 15.296875 6.859375 
z
" id="CMR17-102"/>
     <path d="M 41.5 30.203125 
C 41.5 35.296875 40.5 43.59375 28.703125 43.59375 
C 20.5 43.59375 16.5 37 15.296875 33.703125 
L 15.203125 33.703125 
L 15.203125 68.6875 
L 3.296875 67.59375 
L 3.296875 65 
C 9.203125 65 10.09375 64.40625 10.09375 59.640625 
L 10.09375 6.65625 
C 10.09375 2.875 9.703125 2.390625 3.296875 2.390625 
L 3.296875 -0.203125 
C 5.703125 0 10.09375 0 12.703125 0 
C 15.296875 0 19.796875 0 22.203125 -0.203125 
L 22.203125 2.390625 
C 15.796875 2.390625 15.40625 2.78125 15.40625 6.6875 
L 15.40625 25.90625 
C 15.40625 35.109375 21 42 28 42 
C 35.40625 42 36.203125 35.40625 36.203125 30.59375 
L 36.203125 6.6875 
C 36.203125 2.875 35.796875 2.390625 29.40625 2.390625 
L 29.40625 -0.203125 
C 31.796875 0 36.203125 0 38.796875 0 
C 41.40625 0 45.90625 0 48.296875 -0.203125 
L 48.296875 2.390625 
C 41.90625 2.390625 41.5 2.78125 41.5 6.6875 
z
" id="CMR17-104"/>
     <path d="M 86.296875 58.8125 
C 87.203125 61.5 88.703125 65 94.5 65 
L 94.5 67.59375 
C 92.796875 67.59375 89.296875 67.59375 87.5 67.59375 
C 85 67.59375 80.59375 67.59375 78.203125 67.6875 
L 78.203125 65 
C 82.703125 65 84.59375 62.5 84.59375 60.109375 
C 84.59375 59.40625 84.5 59.015625 84.09375 57.921875 
L 68.59375 8.671875 
L 52.296875 60.515625 
C 52 61.515625 51.90625 61.921875 51.90625 62.3125 
C 51.90625 65 56.296875 65 58.203125 65 
L 58.203125 67.59375 
C 55.296875 67.59375 50.296875 67.59375 47.203125 67.59375 
C 44.703125 67.59375 40.203125 67.59375 37.90625 67.6875 
L 37.90625 65 
C 42.5 65 43.703125 64.703125 44.703125 62.921875 
C 45.09375 62.015625 46.703125 56.84375 46.703125 56.546875 
C 46.703125 56.140625 46.5 55.546875 46.40625 55.25 
L 31.703125 8.765625 
L 15.40625 60.421875 
C 14.90625 61.828125 14.90625 62.015625 14.90625 62.21875 
C 14.90625 65 19.296875 65 21.296875 65 
L 21.296875 67.59375 
C 18.40625 67.59375 13.40625 67.59375 10.296875 67.59375 
C 7.703125 67.59375 3.296875 67.59375 0.90625 67.6875 
L 0.90625 65 
C 6.90625 65 7.296875 64.40625 8.296875 61.21875 
L 27.796875 -0.3125 
C 28.296875 -1.796875 28.296875 -2 29.203125 -2 
C 30 -2 30.296875 -1.796875 30.703125 -0.40625 
L 47.703125 53.640625 
L 64.703125 -0.40625 
C 65.09375 -1.796875 65.40625 -2 66.203125 -2 
C 67.09375 -2 67.09375 -1.796875 67.59375 -0.3125 
z
" id="CMR17-87"/>
     <path d="M 26.09375 26.140625 
C 26 26.34375 25.5 26.9375 25.5 27.234375 
C 25.5 27.4375 32.59375 33.921875 33.5 34.71875 
C 39.203125 39.5 42.796875 40 45.40625 40 
L 45.40625 42.703125 
C 44.796875 42.703125 44.59375 42.703125 44.5 42.5 
L 39.59375 42.5 
C 36.796875 42.5 32.5 42.5 29.796875 42.703125 
L 29.796875 40.09375 
C 31.203125 39.984375 32.203125 39.1875 32.203125 37.796875 
C 32.203125 35.796875 30.203125 33.90625 30.09375 33.90625 
L 15 20.140625 
L 15 68.6875 
L 3.09375 67.59375 
L 3.09375 65 
C 9 65 9.90625 64.40625 9.90625 59.640625 
L 9.90625 6.65625 
C 9.90625 2.875 9.5 2.390625 3.09375 2.390625 
L 3.09375 -0.203125 
C 5.5 0 9.90625 0 12.40625 0 
C 14.90625 0 19.296875 0 21.703125 -0.203125 
L 21.703125 2.390625 
C 15.296875 2.390625 14.90625 2.78125 14.90625 6.6875 
L 14.90625 17.65625 
L 21.796875 23.9375 
L 31.90625 8.96875 
C 33.09375 7.171875 34.09375 5.765625 34.09375 4.46875 
C 34.09375 2.6875 32.296875 2.390625 31.09375 2.390625 
L 31.09375 -0.203125 
C 33.5 0 37.796875 0 40.296875 0 
C 42.09375 0 45.796875 0 47.5 0 
L 47.5 2.390625 
C 42.796875 2.390625 41.703125 3.28125 38.703125 7.671875 
z
" id="CMR17-107"/>
     <path d="M 62.203125 67.59375 
L 4.5 67.59375 
L 2.796875 45.59375 
L 4.59375 45.59375 
C 5.90625 62.125 7.296875 65 22.703125 65 
C 24.5 65 27.40625 65 28.203125 64.90625 
C 30.09375 64.609375 30.09375 63.40625 30.09375 61.125 
L 30.09375 7.171875 
C 30.09375 3.59375 29.796875 2.5 21.5 2.5 
L 18.703125 2.5 
L 18.703125 0 
C 23.5 0 28.5 0 33.40625 0 
C 38.296875 0 43.296875 0 48.09375 0 
L 48.09375 2.5 
L 45.296875 2.5 
C 37 2.5 36.703125 3.59375 36.703125 7.171875 
L 36.703125 61.125 
C 36.703125 63.3125 36.703125 64.515625 38.5 64.90625 
C 39.296875 65 42.203125 65 44 65 
C 59.296875 65 60.796875 62.125 62.09375 45.59375 
L 63.90625 45.59375 
z
" id="CMR17-84"/>
    </defs>
    <g style="fill:#262626;" transform="translate(165.112999 27.955495)scale(0.3 -0.3)">
     <use transform="scale(0.996264)" xlink:href="#CMR17-65"/>
     <use transform="translate(69.07243 0)scale(0.996264)" xlink:href="#CMR17-110"/>
     <use transform="translate(150.043766 0)scale(0.996264)" xlink:href="#CMR17-65"/>
     <use transform="translate(219.116196 0)scale(0.996264)" xlink:href="#CMR17-99"/>
     <use transform="translate(259.601856 0)scale(0.996264)" xlink:href="#CMR17-99"/>
     <use transform="translate(300.087517 0)scale(0.996264)" xlink:href="#CMR17-117"/>
     <use transform="translate(350.982886 0)scale(0.996264)" xlink:href="#CMR17-114"/>
     <use transform="translate(386.263654 0)scale(0.996264)" xlink:href="#CMR17-97"/>
     <use transform="translate(431.954131 0)scale(0.996264)" xlink:href="#CMR17-116"/>
     <use transform="translate(467.234899 0)scale(0.996264)" xlink:href="#CMR17-101"/>
     <use transform="translate(537.796526 0)scale(0.996264)" xlink:href="#CMR17-82"/>
     <use transform="translate(605.587628 0)scale(0.996264)" xlink:href="#CMR17-101"/>
     <use transform="translate(646.073288 0)scale(0.996264)" xlink:href="#CMR17-112"/>
     <use transform="translate(696.968658 0)scale(0.996264)" xlink:href="#CMR17-108"/>
     <use transform="translate(721.839717 0)scale(0.996264)" xlink:href="#CMR17-97"/>
     <use transform="translate(767.530194 0)scale(0.996264)" xlink:href="#CMR17-99"/>
     <use transform="translate(808.015854 0)scale(0.996264)" xlink:href="#CMR17-101"/>
     <use transform="translate(848.501515 0)scale(0.996264)" xlink:href="#CMR17-109"/>
     <use transform="translate(925.421105 0)scale(0.996264)" xlink:href="#CMR17-101"/>
     <use transform="translate(965.906765 0)scale(0.996264)" xlink:href="#CMR17-110"/>
     <use transform="translate(1014.199681 0)scale(0.996264)" xlink:href="#CMR17-116"/>
     <use transform="translate(1079.556415 0)scale(0.996264)" xlink:href="#CMR17-102"/>
     <use transform="translate(1107.029927 0)scale(0.996264)" xlink:href="#CMR17-111"/>
     <use transform="translate(1152.720405 0)scale(0.996264)" xlink:href="#CMR17-114"/>
     <use transform="translate(1218.077139 0)scale(0.996264)" xlink:href="#CMR17-116"/>
     <use transform="translate(1253.357907 0)scale(0.996264)" xlink:href="#CMR17-104"/>
     <use transform="translate(1304.253276 0)scale(0.996264)" xlink:href="#CMR17-101"/>
     <use transform="translate(1374.814903 0)scale(0.996264)" xlink:href="#CMR17-87"/>
     <use transform="translate(1469.911553 0)scale(0.996264)" xlink:href="#CMR17-105"/>
     <use transform="translate(1494.782611 0)scale(0.996264)" xlink:href="#CMR17-108"/>
     <use transform="translate(1519.65367 0)scale(0.996264)" xlink:href="#CMR17-107"/>
     <use transform="translate(1567.946586 0)scale(0.996264)" xlink:href="#CMR17-115"/>
     <use transform="translate(1633.82389 0)scale(0.996264)" xlink:href="#CMR17-84"/>
     <use transform="translate(1700.33377 0)scale(0.996264)" xlink:href="#CMR17-104"/>
     <use transform="translate(1751.22914 0)scale(0.996264)" xlink:href="#CMR17-101"/>
     <use transform="translate(1791.714801 0)scale(0.996264)" xlink:href="#CMR17-111"/>
     <use transform="translate(1837.405278 0)scale(0.996264)" xlink:href="#CMR17-114"/>
     <use transform="translate(1872.686045 0)scale(0.996264)" xlink:href="#CMR17-101"/>
     <use transform="translate(1913.171706 0)scale(0.996264)" xlink:href="#CMR17-109"/>
    </g>
   </g>
   <g id="legend_1">
    <g id="patch_7">
     <path d="M 120.426584 194.212667 
L 511.470396 194.212667 
Q 516.270396 194.212667 516.270396 189.412667 
L 516.270396 50.755495 
Q 516.270396 45.955495 511.470396 45.955495 
L 120.426584 45.955495 
Q 115.626584 45.955495 115.626584 50.755495 
L 115.626584 189.412667 
Q 115.626584 194.212667 120.426584 194.212667 
z
" style="fill:#eaeaf2;opacity:0.8;stroke:#cccccc;stroke-linejoin:miter;stroke-width:0.3;"/>
    </g>
    <g id="line2d_45"/>
    <g id="line2d_46">
     <g>
      <use style="fill:#e18632;" x="149.226584" xlink:href="#m6566255288" y="66.373543"/>
     </g>
    </g>
    <g id="text_15">
     <!-- $\mathrm{Rank}(\rho_{0})=$1 -->
     <defs>
      <path d="M 3.09375 -17.296875 
C 3 -17.796875 2.796875 -18.390625 2.796875 -19 
C 2.796875 -20.5 4 -21.5 5.5 -21.5 
C 7 -21.5 8.40625 -20.5 9 -19.09375 
C 9.40625 -18.1875 12.203125 -6.203125 15.40625 6.09375 
C 17.40625 1.09375 21.09375 -1 25 -1 
C 36.296875 -1 49.09375 12.96875 49.09375 28.046875 
C 49.09375 38.71875 42.59375 44 35.703125 44 
C 26.90625 44 16.203125 34.921875 12.90625 21.640625 
z
M 24.90625 1 
C 18.09375 1 16.40625 8.890625 16.40625 10.078125 
C 16.40625 10.6875 18.90625 20.234375 19.203125 21.734375 
C 24.296875 41.71875 34.09375 41.71875 35.59375 41.71875 
C 40.09375 41.71875 42.59375 37.65625 42.59375 31.8125 
C 42.59375 26.75 39.90625 16.9375 38.203125 12.796875 
C 35.203125 5.953125 30 1 24.90625 1 
z
" id="CMMI12-26"/>
      <path d="M 64.296875 31.515625 
C 65.796875 31.515625 67.296875 31.515625 67.296875 33.203125 
C 67.296875 35 65.59375 35 63.90625 35 
L 8 35 
C 6.296875 35 4.59375 35 4.59375 33.203125 
C 4.59375 31.515625 6.09375 31.515625 7.59375 31.515625 
z
M 63.90625 14 
C 65.59375 14 67.296875 14 67.296875 15.796875 
C 67.296875 17.484375 65.796875 17.484375 64.296875 17.484375 
L 7.59375 17.484375 
C 6.09375 17.484375 4.59375 17.484375 4.59375 15.796875 
C 4.59375 14 6.296875 14 8 14 
z
" id="CMR17-61"/>
     </defs>
     <g style="fill:#262626;" transform="translate(192.426584 74.773543)scale(0.24 -0.24)">
      <use transform="translate(0 14.943915)scale(0.996264)" xlink:href="#CMR17-82"/>
      <use transform="translate(67.791102 14.943915)scale(0.996264)" xlink:href="#CMR17-97"/>
      <use transform="translate(113.481579 14.943915)scale(0.996264)" xlink:href="#CMR17-110"/>
      <use transform="translate(164.376949 14.943915)scale(0.996264)" xlink:href="#CMR17-107"/>
      <use transform="translate(212.669865 14.943915)scale(0.996264)" xlink:href="#CMR17-40"/>
      <use transform="translate(247.950633 14.943915)scale(0.996264)" xlink:href="#CMMI12-26"/>
      <use transform="translate(298.265005 0)scale(0.697382)" xlink:href="#CMR17-48"/>
      <use transform="translate(330.746319 14.943915)scale(0.996264)" xlink:href="#CMR17-41"/>
      <use transform="translate(393.701096 14.943915)scale(0.996264)" xlink:href="#CMR17-61"/>
      <use transform="translate(465.415884 14.943915)scale(0.996264)" xlink:href="#CMR17-49"/>
     </g>
    </g>
    <g id="line2d_47">
     <path d="M 125.226584 99.8243 
L 173.226584 99.8243 
" style="fill:none;stroke:#000000;stroke-linecap:round;stroke-width:4;"/>
    </g>
    <g id="line2d_48"/>
    <g id="text_16">
     <!-- Wilks Theorem -->
     <g style="fill:#262626;" transform="translate(192.426584 108.2243)scale(0.24 -0.24)">
      <use transform="scale(0.996264)" xlink:href="#CMR17-87"/>
      <use transform="translate(95.09665 0)scale(0.996264)" xlink:href="#CMR17-105"/>
      <use transform="translate(119.967708 0)scale(0.996264)" xlink:href="#CMR17-108"/>
      <use transform="translate(144.838767 0)scale(0.996264)" xlink:href="#CMR17-107"/>
      <use transform="translate(193.131683 0)scale(0.996264)" xlink:href="#CMR17-115"/>
      <use transform="translate(259.008987 0)scale(0.996264)" xlink:href="#CMR17-84"/>
      <use transform="translate(325.518867 0)scale(0.996264)" xlink:href="#CMR17-104"/>
      <use transform="translate(376.414237 0)scale(0.996264)" xlink:href="#CMR17-101"/>
      <use transform="translate(416.899897 0)scale(0.996264)" xlink:href="#CMR17-111"/>
      <use transform="translate(462.590375 0)scale(0.996264)" xlink:href="#CMR17-114"/>
      <use transform="translate(497.871142 0)scale(0.996264)" xlink:href="#CMR17-101"/>
      <use transform="translate(538.356803 0)scale(0.996264)" xlink:href="#CMR17-109"/>
     </g>
    </g>
    <g id="line2d_49"/>
    <g id="line2d_50">
     <defs>
      <path d="M 0 5 
C 1.326016 5 2.597899 4.473168 3.535534 3.535534 
C 4.473168 2.597899 5 1.326016 5 0 
C 5 -1.326016 4.473168 -2.597899 3.535534 -3.535534 
C 2.597899 -4.473168 1.326016 -5 0 -5 
C -1.326016 -5 -2.597899 -4.473168 -3.535534 -3.535534 
C -4.473168 -2.597899 -5 -1.326016 -5 0 
C -5 1.326016 -4.473168 2.597899 -3.535534 3.535534 
C -2.597899 4.473168 -1.326016 5 0 5 
z
" id="mffe06b5bff"/>
     </defs>
     <g>
      <use x="149.226584" xlink:href="#mffe06b5bff" y="135.693105"/>
     </g>
    </g>
    <g id="text_17">
     <!-- (various colors) $\mathrm{Rank}(\rho_{0}) = 2...9$ -->
     <defs>
      <path d="M 39.09375 33.796875 
C 40 36 41.59375 40 47.40625 40 
L 47.40625 42.59375 
C 45.5 42.59375 43 42.59375 41.09375 42.59375 
C 39 42.59375 35.703125 42.59375 33.703125 42.6875 
L 33.703125 40.09375 
C 36.203125 39.890625 37.59375 38.703125 37.59375 36.109375 
C 37.59375 35.203125 37.59375 35 37 33.609375 
L 26 5.890625 
L 14.09375 35.71875 
C 13.5 37.015625 13.5 37.203125 13.5 37.609375 
C 13.5 40 16.796875 40 18.296875 40 
L 18.296875 42.6875 
C 15.90625 42.59375 11.5 42.59375 9 42.59375 
C 6.296875 42.59375 3.203125 42.59375 1 42.6875 
L 1 40 
C 4.796875 40 6.90625 40 8.09375 36.90625 
L 22.59375 0.6875 
C 23.203125 -0.796875 23.296875 -1 24.203125 -1 
C 25.09375 -1 25.203125 -0.796875 25.796875 0.6875 
z
" id="CMR17-118"/>
      <path d="M 18.40625 4.796875 
C 18.40625 7.6875 16 9.671875 13.59375 9.671875 
C 10.703125 9.671875 8.703125 7.28125 8.703125 4.890625 
C 8.703125 2 11.09375 0 13.5 0 
C 16.40625 0 18.40625 2.390625 18.40625 4.796875 
z
" id="CMMI12-58"/>
      <path d="M 35.203125 29.125 
C 35.203125 7.25 26.09375 0.484375 18.59375 0.484375 
C 16.296875 0.484375 10.703125 0.484375 8.40625 4.59375 
C 11 4.1875 12.90625 5.578125 12.90625 8.09375 
C 12.90625 10.8125 10.703125 11.703125 9.296875 11.703125 
C 8.40625 11.703125 5.703125 11.296875 5.703125 7.90625 
C 5.703125 1.109375 11.59375 -2 18.796875 -2 
C 30.296875 -2 42 10.53125 42 32.390625 
C 42 59.640625 30.796875 65.296875 23.203125 65.296875 
C 13.296875 65.296875 3.796875 56.6875 3.796875 43.40625 
C 3.796875 31.109375 11.90625 22 22.09375 22 
C 30.5 22 34.203125 29.734375 35.203125 33 
z
M 22.296875 23.59375 
C 19.59375 23.59375 15.796875 24.09375 12.703125 30.03125 
C 10.59375 33.890625 10.59375 38.453125 10.59375 43.296875 
C 10.59375 49.15625 10.59375 53.203125 13.40625 57.5625 
C 14.796875 59.640625 17.40625 63 23.203125 63 
C 35 63 35 45.078125 35 41.125 
C 35 34.09375 31.796875 23.59375 22.296875 23.59375 
z
" id="CMR17-57"/>
     </defs>
     <g style="fill:#262626;" transform="translate(192.426584 144.093105)scale(0.24 -0.24)">
      <use transform="translate(0 14.943915)scale(0.996264)" xlink:href="#CMR17-40"/>
      <use transform="translate(35.280768 14.943915)scale(0.996264)" xlink:href="#CMR17-118"/>
      <use transform="translate(78.368867 14.943915)scale(0.996264)" xlink:href="#CMR17-97"/>
      <use transform="translate(124.059344 14.943915)scale(0.996264)" xlink:href="#CMR17-114"/>
      <use transform="translate(159.340112 14.943915)scale(0.996264)" xlink:href="#CMR17-105"/>
      <use transform="translate(184.21117 14.943915)scale(0.996264)" xlink:href="#CMR17-111"/>
      <use transform="translate(229.901648 14.943915)scale(0.996264)" xlink:href="#CMR17-117"/>
      <use transform="translate(280.797017 14.943915)scale(0.996264)" xlink:href="#CMR17-115"/>
      <use transform="translate(346.674321 14.943915)scale(0.996264)" xlink:href="#CMR17-99"/>
      <use transform="translate(387.159982 14.943915)scale(0.996264)" xlink:href="#CMR17-111"/>
      <use transform="translate(432.850459 14.943915)scale(0.996264)" xlink:href="#CMR17-108"/>
      <use transform="translate(457.721517 14.943915)scale(0.996264)" xlink:href="#CMR17-111"/>
      <use transform="translate(503.411994 14.943915)scale(0.996264)" xlink:href="#CMR17-114"/>
      <use transform="translate(538.692762 14.943915)scale(0.996264)" xlink:href="#CMR17-115"/>
      <use transform="translate(574.4941 14.943915)scale(0.996264)" xlink:href="#CMR17-41"/>
      <use transform="translate(639.850834 14.943915)scale(0.996264)" xlink:href="#CMR17-82"/>
      <use transform="translate(707.641936 14.943915)scale(0.996264)" xlink:href="#CMR17-97"/>
      <use transform="translate(753.332413 14.943915)scale(0.996264)" xlink:href="#CMR17-110"/>
      <use transform="translate(804.227783 14.943915)scale(0.996264)" xlink:href="#CMR17-107"/>
      <use transform="translate(852.520699 14.943915)scale(0.996264)" xlink:href="#CMR17-40"/>
      <use transform="translate(887.801467 14.943915)scale(0.996264)" xlink:href="#CMMI12-26"/>
      <use transform="translate(938.115839 0)scale(0.697382)" xlink:href="#CMR17-48"/>
      <use transform="translate(970.597153 14.943915)scale(0.996264)" xlink:href="#CMR17-41"/>
      <use transform="translate(1033.55193 14.943915)scale(0.996264)" xlink:href="#CMR17-61"/>
      <use transform="translate(1132.940727 14.943915)scale(0.996264)" xlink:href="#CMR17-50"/>
      <use transform="translate(1178.631204 14.943915)scale(0.996264)" xlink:href="#CMMI12-58"/>
      <use transform="translate(1205.728381 14.943915)scale(0.996264)" xlink:href="#CMMI12-58"/>
      <use transform="translate(1232.825558 14.943915)scale(0.996264)" xlink:href="#CMMI12-58"/>
      <use transform="translate(1259.922735 14.943915)scale(0.996264)" xlink:href="#CMR17-57"/>
     </g>
    </g>
    <g id="line2d_51"/>
    <g id="line2d_52">
     <g>
      <use style="fill:#f667c6;" x="149.226584" xlink:href="#m2d5579f1d3" y="171.56191"/>
     </g>
    </g>
    <g id="text_18">
     <!-- $\mathrm{Rank}(\rho_{0})=$10 -->
     <g style="fill:#262626;" transform="translate(192.426584 179.96191)scale(0.24 -0.24)">
      <use transform="translate(0 14.943915)scale(0.996264)" xlink:href="#CMR17-82"/>
      <use transform="translate(67.791102 14.943915)scale(0.996264)" xlink:href="#CMR17-97"/>
      <use transform="translate(113.481579 14.943915)scale(0.996264)" xlink:href="#CMR17-110"/>
      <use transform="translate(164.376949 14.943915)scale(0.996264)" xlink:href="#CMR17-107"/>
      <use transform="translate(212.669865 14.943915)scale(0.996264)" xlink:href="#CMR17-40"/>
      <use transform="translate(247.950633 14.943915)scale(0.996264)" xlink:href="#CMMI12-26"/>
      <use transform="translate(298.265005 0)scale(0.697382)" xlink:href="#CMR17-48"/>
      <use transform="translate(330.746319 14.943915)scale(0.996264)" xlink:href="#CMR17-41"/>
      <use transform="translate(393.701096 14.943915)scale(0.996264)" xlink:href="#CMR17-61"/>
      <use transform="translate(465.415884 14.943915)scale(0.996264)" xlink:href="#CMR17-49"/>
      <use transform="translate(511.106361 14.943915)scale(0.996264)" xlink:href="#CMR17-48"/>
     </g>
    </g>
   </g>
  </g>
 </g>
 <defs>
  <clipPath id="p93ebded8c3">
   <rect height="360" width="720" x="103.626584" y="33.955495"/>
  </clipPath>
 </defs>
</svg>
