<?xml version="1.0" encoding="utf-8" standalone="no"?>
<!DOCTYPE svg PUBLIC "-//W3C//DTD SVG 1.1//EN"
  "http://www.w3.org/Graphics/SVG/1.1/DTD/svg11.dtd">
<!-- Created with matplotlib (http://matplotlib.org/) -->
<svg height="438pt" version="1.1" viewBox="0 0 482 438" width="482pt" xmlns="http://www.w3.org/2000/svg" xmlns:xlink="http://www.w3.org/1999/xlink">
 <defs>
  <style type="text/css">
*{stroke-linecap:butt;stroke-linejoin:round;}
  </style>
 </defs>
 <g id="figure_1">
  <g id="patch_1">
   <path d="M 0 438.789033 
L 482.4 438.789033 
L 482.4 0 
L 0 0 
z
" style="fill:#ffffff;"/>
  </g>
  <g id="axes_1">
   <g id="patch_2">
    <path d="M 7.2 431.589033 
L 475.2 431.589033 
L 475.2 35.589033 
L 7.2 35.589033 
z
" style="fill:#e6e6e6;"/>
   </g>
   <g id="matplotlib.axis_1">
    <g id="xtick_1">
     <g id="line2d_1">
      <path clip-path="url(#pe51fa0a4ca)" d="M 7.2 431.589033 
L 7.2 35.589033 
" style="fill:none;stroke:#ffffff;stroke-linecap:round;"/>
     </g>
     <g id="line2d_2"/>
    </g>
    <g id="xtick_2">
     <g id="line2d_3">
      <path clip-path="url(#pe51fa0a4ca)" d="M 124.2 431.589033 
L 124.2 35.589033 
" style="fill:none;stroke:#ffffff;stroke-linecap:round;"/>
     </g>
     <g id="line2d_4"/>
    </g>
    <g id="xtick_3">
     <g id="line2d_5">
      <path clip-path="url(#pe51fa0a4ca)" d="M 241.2 431.589033 
L 241.2 35.589033 
" style="fill:none;stroke:#ffffff;stroke-linecap:round;"/>
     </g>
     <g id="line2d_6"/>
    </g>
    <g id="xtick_4">
     <g id="line2d_7">
      <path clip-path="url(#pe51fa0a4ca)" d="M 358.2 431.589033 
L 358.2 35.589033 
" style="fill:none;stroke:#ffffff;stroke-linecap:round;"/>
     </g>
     <g id="line2d_8"/>
    </g>
    <g id="xtick_5">
     <g id="line2d_9">
      <path clip-path="url(#pe51fa0a4ca)" d="M 475.2 431.589033 
L 475.2 35.589033 
" style="fill:none;stroke:#ffffff;stroke-linecap:round;"/>
     </g>
     <g id="line2d_10"/>
    </g>
   </g>
   <g id="matplotlib.axis_2">
    <g id="ytick_1">
     <g id="line2d_11">
      <path clip-path="url(#pe51fa0a4ca)" d="M 7.2 431.589033 
L 475.2 431.589033 
" style="fill:none;stroke:#ffffff;stroke-linecap:round;"/>
     </g>
     <g id="line2d_12"/>
    </g>
    <g id="ytick_2">
     <g id="line2d_13">
      <path clip-path="url(#pe51fa0a4ca)" d="M 7.2 332.589033 
L 475.2 332.589033 
" style="fill:none;stroke:#ffffff;stroke-linecap:round;"/>
     </g>
     <g id="line2d_14"/>
    </g>
    <g id="ytick_3">
     <g id="line2d_15">
      <path clip-path="url(#pe51fa0a4ca)" d="M 7.2 233.589033 
L 475.2 233.589033 
" style="fill:none;stroke:#ffffff;stroke-linecap:round;"/>
     </g>
     <g id="line2d_16"/>
    </g>
    <g id="ytick_4">
     <g id="line2d_17">
      <path clip-path="url(#pe51fa0a4ca)" d="M 7.2 134.589033 
L 475.2 134.589033 
" style="fill:none;stroke:#ffffff;stroke-linecap:round;"/>
     </g>
     <g id="line2d_18"/>
    </g>
    <g id="ytick_5">
     <g id="line2d_19">
      <path clip-path="url(#pe51fa0a4ca)" d="M 7.2 35.589033 
L 475.2 35.589033 
" style="fill:none;stroke:#ffffff;stroke-linecap:round;"/>
     </g>
     <g id="line2d_20"/>
    </g>
   </g>
   <g id="PolyCollection_1">
    <path clip-path="url(#pe51fa0a4ca)" d="M 7.2 1025.589033 
L 7.2 35.589033 
L 21.526531 47.711482 
L 35.853061 59.833931 
L 50.179592 71.95638 
L 64.506122 84.078829 
L 78.832653 96.201278 
L 93.159184 108.323727 
L 107.485714 120.446176 
L 121.812245 132.568625 
L 136.138776 144.691074 
L 150.465306 156.813523 
L 164.791837 168.935972 
L 179.118367 181.058421 
L 193.444898 193.18087 
L 207.771429 205.303319 
L 222.097959 217.425768 
L 236.42449 229.548217 
L 250.75102 241.670666 
L 265.077551 253.793115 
L 279.404082 265.915564 
L 293.730612 278.038013 
L 308.057143 290.160462 
L 322.383673 302.282911 
L 336.710204 314.40536 
L 351.036735 326.527809 
L 365.363265 338.650258 
L 379.689796 350.772707 
L 394.016327 362.895156 
L 408.342857 375.017604 
L 422.669388 387.140053 
L 436.995918 399.262502 
L 451.322449 411.384951 
L 465.64898 423.5074 
L 479.97551 435.629849 
L 494.302041 447.752298 
L 508.628571 459.874747 
L 522.955102 471.997196 
L 537.281633 484.119645 
L 551.608163 496.242094 
L 565.934694 508.364543 
L 580.261224 520.486992 
L 594.587755 532.609441 
L 608.914286 544.73189 
L 623.240816 556.854339 
L 637.567347 568.976788 
L 651.893878 581.099237 
L 666.220408 593.221686 
L 680.546939 605.344135 
L 694.873469 617.466584 
L 709.2 629.589033 
L 709.2 1619.589033 
L 709.2 1619.589033 
L 694.873469 1607.466584 
L 680.546939 1595.344135 
L 666.220408 1583.221686 
L 651.893878 1571.099237 
L 637.567347 1558.976788 
L 623.240816 1546.854339 
L 608.914286 1534.73189 
L 594.587755 1522.609441 
L 580.261224 1510.486992 
L 565.934694 1498.364543 
L 551.608163 1486.242094 
L 537.281633 1474.119645 
L 522.955102 1461.997196 
L 508.628571 1449.874747 
L 494.302041 1437.752298 
L 479.97551 1425.629849 
L 465.64898 1413.5074 
L 451.322449 1401.384951 
L 436.995918 1389.262502 
L 422.669388 1377.140053 
L 408.342857 1365.017604 
L 394.016327 1352.895156 
L 379.689796 1340.772707 
L 365.363265 1328.650258 
L 351.036735 1316.527809 
L 336.710204 1304.40536 
L 322.383673 1292.282911 
L 308.057143 1280.160462 
L 293.730612 1268.038013 
L 279.404082 1255.915564 
L 265.077551 1243.793115 
L 250.75102 1231.670666 
L 236.42449 1219.548217 
L 222.097959 1207.425768 
L 207.771429 1195.303319 
L 193.444898 1183.18087 
L 179.118367 1171.058421 
L 164.791837 1158.935972 
L 150.465306 1146.813523 
L 136.138776 1134.691074 
L 121.812245 1122.568625 
L 107.485714 1110.446176 
L 93.159184 1098.323727 
L 78.832653 1086.201278 
L 64.506122 1074.078829 
L 50.179592 1061.95638 
L 35.853061 1049.833931 
L 21.526531 1037.711482 
L 7.2 1025.589033 
z
" style="fill:#4c72b0;fill-opacity:0.25;"/>
   </g>
   <g id="patch_3">
    <path clip-path="url(#pe51fa0a4ca)" d="M -273.6 1619.589033 
C -37.781403 1619.589033 188.410421 1540.311423 355.15935 1399.216175 
C 521.908279 1258.120928 615.6 1066.727846 615.6 867.189033 
C 615.6 667.650221 521.908279 476.257138 355.15935 335.161891 
C 188.410421 194.066644 -37.781403 114.789033 -273.6 114.789033 
C -509.418597 114.789033 -735.610421 194.066644 -902.35935 335.161891 
C -1069.108279 476.257138 -1162.8 667.650221 -1162.8 867.189033 
C -1162.8 1066.727846 -1069.108279 1258.120928 -902.35935 1399.216175 
C -735.610421 1540.311423 -509.418597 1619.589033 -273.6 1619.589033 
z
" style="fill:#4c72b0;opacity:0.5;"/>
   </g>
   <g id="line2d_21">
    <path clip-path="url(#pe51fa0a4ca)" d="M 7.2 35.589033 
L 21.526531 47.711482 
L 35.853061 59.833931 
L 50.179592 71.95638 
L 64.506122 84.078829 
L 78.832653 96.201278 
L 93.159184 108.323727 
L 107.485714 120.446176 
L 121.812245 132.568625 
L 136.138776 144.691074 
L 150.465306 156.813523 
L 164.791837 168.935972 
L 179.118367 181.058421 
L 193.444898 193.18087 
L 207.771429 205.303319 
L 222.097959 217.425768 
L 236.42449 229.548217 
L 250.75102 241.670666 
L 265.077551 253.793115 
L 279.404082 265.915564 
L 293.730612 278.038013 
L 308.057143 290.160462 
L 322.383673 302.282911 
L 336.710204 314.40536 
L 351.036735 326.527809 
L 365.363265 338.650258 
L 379.689796 350.772707 
L 394.016327 362.895156 
L 408.342857 375.017604 
L 422.669388 387.140053 
L 436.995918 399.262502 
L 451.322449 411.384951 
L 465.64898 423.5074 
L 479.97551 435.629849 
L 483.4 438.527495 
" style="fill:none;stroke:#000000;stroke-linecap:round;stroke-width:4;"/>
   </g>
   <g id="line2d_22">
    <path clip-path="url(#pe51fa0a4ca)" d="M 299.7 134.589033 
" style="fill:none;stroke:#000000;stroke-linecap:round;stroke-width:1.75;"/>
    <defs>
     <path d="M 0 10 
C 2.652031 10 5.195799 8.946337 7.071068 7.071068 
C 8.946337 5.195799 10 2.652031 10 0 
C 10 -2.652031 8.946337 -5.195799 7.071068 -7.071068 
C 5.195799 -8.946337 2.652031 -10 0 -10 
C -2.652031 -10 -5.195799 -8.946337 -7.071068 -7.071068 
C -8.946337 -5.195799 -10 -2.652031 -10 0 
C -10 2.652031 -8.946337 5.195799 -7.071068 7.071068 
C -5.195799 8.946337 -2.652031 10 0 10 
z
" id="mdd5adf9491"/>
    </defs>
    <g clip-path="url(#pe51fa0a4ca)">
     <use x="299.7" xlink:href="#mdd5adf9491" y="134.589033"/>
    </g>
   </g>
   <g id="line2d_23">
    <path clip-path="url(#pe51fa0a4ca)" d="M 211.95 208.839033 
" style="fill:none;stroke:#000000;stroke-linecap:round;stroke-width:1.75;"/>
    <g clip-path="url(#pe51fa0a4ca)">
     <use x="211.95" xlink:href="#mdd5adf9491" y="208.839033"/>
    </g>
   </g>
   <g id="line2d_24">
    <path clip-path="url(#pe51fa0a4ca)" d="M 211.95 208.839033 
L 299.7 134.589033 
" style="fill:none;stroke:#808080;stroke-dasharray:14.8,6.4;stroke-dashoffset:0;stroke-width:4;"/>
   </g>
   <g id="patch_4">
    <path d="M 7.2 431.589033 
L 7.2 35.589033 
" style="fill:none;"/>
   </g>
   <g id="patch_5">
    <path d="M 475.2 431.589033 
L 475.2 35.589033 
" style="fill:none;"/>
   </g>
   <g id="patch_6">
    <path d="M 7.2 431.589033 
L 475.2 431.589033 
" style="fill:none;"/>
   </g>
   <g id="patch_7">
    <path d="M 7.2 35.589033 
L 475.2 35.589033 
" style="fill:none;"/>
   </g>
   <g id="text_1">
    <!-- $\rho_{0}$ -->
    <defs>
     <path d="M 3.09375 -17.296875 
C 3 -17.796875 2.796875 -18.390625 2.796875 -19 
C 2.796875 -20.5 4 -21.5 5.5 -21.5 
C 7 -21.5 8.40625 -20.5 9 -19.09375 
C 9.40625 -18.1875 12.203125 -6.203125 15.40625 6.09375 
C 17.40625 1.09375 21.09375 -1 25 -1 
C 36.296875 -1 49.09375 12.96875 49.09375 28.046875 
C 49.09375 38.71875 42.59375 44 35.703125 44 
C 26.90625 44 16.203125 34.921875 12.90625 21.640625 
z
M 24.90625 1 
C 18.09375 1 16.40625 8.890625 16.40625 10.078125 
C 16.40625 10.6875 18.90625 20.234375 19.203125 21.734375 
C 24.296875 41.71875 34.09375 41.71875 35.59375 41.71875 
C 40.09375 41.71875 42.59375 37.65625 42.59375 31.8125 
C 42.59375 26.75 39.90625 16.9375 38.203125 12.796875 
C 35.203125 5.953125 30 1 24.90625 1 
z
" id="CMMI12-26"/>
     <path d="M 42 31.640625 
C 42 37.75 41.90625 48.125 37.703125 56.109375 
C 34 63.109375 28.09375 65.59375 22.90625 65.59375 
C 18.09375 65.59375 12 63.40625 8.203125 56.203125 
C 4.203125 48.71875 3.796875 39.4375 3.796875 31.640625 
C 3.796875 25.953125 3.90625 17.28125 7 9.671875 
C 11.296875 -0.609375 19 -2 22.90625 -2 
C 27.5 -2 34.5 -0.109375 38.59375 9.375 
C 41.59375 16.28125 42 24.359375 42 31.640625 
z
M 22.90625 -0.40625 
C 16.5 -0.40625 12.703125 5.078125 11.296875 12.6875 
C 10.203125 18.5625 10.203125 27.15625 10.203125 32.75 
C 10.203125 40.4375 10.203125 46.828125 11.5 52.921875 
C 13.40625 61.390625 19 64 22.90625 64 
C 27 64 32.296875 61.296875 34.203125 53.125 
C 35.5 47.4375 35.59375 40.734375 35.59375 32.75 
C 35.59375 26.25 35.59375 18.265625 34.40625 12.375 
C 32.296875 1.484375 26.40625 -0.40625 22.90625 -0.40625 
z
" id="CMR17-48"/>
    </defs>
    <g style="fill:#262626;" transform="translate(358.2 288.039033)scale(0.35 -0.35)">
     <use transform="translate(0 14.943915)scale(0.996264)" xlink:href="#CMMI12-26"/>
     <use transform="translate(50.314373 0)scale(0.697382)" xlink:href="#CMR17-48"/>
    </g>
   </g>
   <g id="text_2">
    <!-- $\hat\rho_{\mathcal{M}}$ -->
    <defs>
     <path d="M 22.90625 69.078125 
L 10.59375 55.546875 
L 11.796875 54.34375 
L 22.90625 65.09375 
L 34 54.34375 
L 35.203125 55.546875 
z
" id="CMR17-94"/>
     <path d="M 38.5 56.703125 
C 41.203125 43.703125 45.59375 22.296875 51.296875 10.703125 
C 53.5 6.390625 54.59375 4.203125 55.59375 4.203125 
C 56 4.203125 56.203125 4.203125 58 6 
C 65.59375 13.265625 70.796875 19.046875 77.796875 27.03125 
L 99.703125 52.453125 
C 98.296875 43.96875 94.703125 21.53125 94.703125 9.859375 
C 94.703125 7.171875 94.796875 4.578125 95.09375 1.875 
C 95.203125 0.796875 95.59375 -2.109375 99.796875 -2.109375 
C 104 -2.109375 111.59375 2.296875 111.59375 4.296875 
C 111.59375 4.890625 111 5 110.703125 5 
C 109.40625 5 107.40625 4.109375 106.296875 3.40625 
C 103.90625 3.71875 103.703125 5.3125 103.5 7.59375 
C 103.203125 10.78125 103.203125 13.78125 103.203125 14.1875 
C 103.203125 25.234375 107.59375 55.4375 110.5 67.8125 
C 110.59375 68.515625 110.703125 68.6875 110.703125 69.5 
C 110.703125 69.890625 110.59375 71 109.90625 71 
C 109.5 71 109.40625 70.890625 107.5 68.6875 
C 98.09375 57.34375 68.90625 22.4375 59 14.0625 
C 56.5 19.328125 54.703125 23.125 51.203125 37.0625 
C 48.296875 48.3125 46.59375 56.5625 44.90625 66.21875 
C 44.59375 67.609375 44.09375 70.296875 44.09375 70.5 
C 43.796875 71 43.296875 71 43 71 
C 41.203125 71 37 68.8125 36.703125 66.71875 
C 35.5 58.359375 33.5 45.203125 26.5 26.203125 
C 18.5 5 16.296875 5 14.40625 5 
C 13.09375 5 9.40625 5.796875 7.203125 7.78125 
C 6.703125 8.28125 6.5 8.28125 6.296875 8.28125 
C 4.90625 8.28125 2.703125 3.75 2.703125 0.9375 
C 2.703125 0.03125 2.703125 -1.1875 5.90625 -2.875 
C 8.40625 -4.203125 10.796875 -4.203125 11.296875 -4.203125 
C 17.5 -4.203125 23.40625 10.09375 25.40625 15.203125 
C 30.09375 26.5 35.703125 42.296875 38.5 56.703125 
z
" id="CMSY10-77"/>
    </defs>
    <g style="fill:#262626;" transform="translate(188.55 174.189033)scale(0.35 -0.35)">
     <use transform="translate(10.441101 14.950375)scale(0.996264)" xlink:href="#CMR17-94"/>
     <use transform="translate(0 14.943915)scale(0.996264)" xlink:href="#CMMI12-26"/>
     <use transform="translate(50.314373 0)scale(0.697382)" xlink:href="#CMSY10-77"/>
    </g>
   </g>
   <g id="text_3">
    <!-- $T(\rho_{0})$ -->
    <defs>
     <path d="M 41.703125 61.09375 
C 42.296875 63.5 42.5 64.390625 44 64.796875 
C 44.796875 65 48.09375 65 50.203125 65 
C 60.203125 65 64.90625 64.59375 64.90625 56.78125 
C 64.90625 55.265625 64.5 51.484375 63.90625 47.765625 
L 63.796875 46.5625 
C 63.796875 46.15625 64.203125 45.5625 64.796875 45.5625 
C 65.796875 45.5625 65.796875 46.0625 66.09375 47.65625 
L 69 65.375 
C 69.203125 66.296875 69.203125 66.5 69.203125 66.796875 
C 69.203125 67.890625 68.59375 67.890625 66.59375 67.890625 
L 11.90625 67.890625 
C 9.59375 67.890625 9.5 67.796875 8.90625 66 
L 2.796875 47.96875 
C 2.703125 47.75 2.40625 46.65625 2.40625 46.5625 
C 2.40625 46.0625 2.796875 45.5625 3.40625 45.5625 
C 4.203125 45.5625 4.40625 45.953125 4.796875 47.25 
C 9 59.390625 11.09375 65 24.40625 65 
L 31.09375 65 
C 33.5 65 34.5 65 34.5 63.890625 
C 34.5 63.578125 34.5 63.390625 34 61.578125 
L 20.59375 7.796875 
C 19.59375 3.890625 19.40625 2.890625 8.796875 2.890625 
C 6.296875 2.890625 5.59375 2.890625 5.59375 1 
C 5.59375 0 6.703125 0 7.203125 0 
C 9.703125 0 12.296875 0 14.796875 0 
L 30.40625 0 
C 32.90625 0 35.59375 0 38.09375 0 
C 39.203125 0 40.203125 0 40.203125 1.890625 
C 40.203125 2.890625 39.5 2.890625 36.90625 2.890625 
C 27.90625 2.890625 27.90625 3.796875 27.90625 5.296875 
C 27.90625 5.40625 27.90625 6.109375 28.296875 7.71875 
z
" id="CMMI12-84"/>
     <path d="M 30.59375 -24.390625 
C 30.59375 -24.296875 30.59375 -24.09375 30.296875 -23.796875 
C 25.703125 -19.125 13.40625 -6.359375 13.40625 24.6875 
C 13.40625 55.765625 25.5 68.421875 30.40625 73.390625 
C 30.40625 73.5 30.59375 73.703125 30.59375 74 
C 30.59375 74.296875 30.296875 74.5 29.90625 74.5 
C 28.796875 74.5 20.296875 67.125 15.40625 56.15625 
C 10.40625 45.109375 9 34.359375 9 24.8125 
C 9 17.625 9.703125 5.484375 15.703125 -7.359375 
C 20.5 -17.734375 28.703125 -25 29.90625 -25 
C 30.40625 -25 30.59375 -24.796875 30.59375 -24.390625 
z
" id="CMR17-40"/>
     <path d="M 26.296875 24.6875 
C 26.296875 31.875 25.59375 44.015625 19.59375 56.859375 
C 14.796875 67.234375 6.59375 74.5 5.40625 74.5 
C 5.09375 74.5 4.703125 74.390625 4.703125 73.890625 
C 4.703125 73.703125 4.796875 73.59375 4.90625 73.390625 
C 9.703125 68.40625 21.90625 55.75 21.90625 24.75 
C 21.90625 -6.359375 9.796875 -19.015625 4.90625 -24.015625 
C 4.796875 -24.203125 4.703125 -24.3125 4.703125 -24.5 
C 4.703125 -25 5.09375 -25 5.40625 -25 
C 6.5 -25 15 -17.625 19.90625 -6.65625 
C 24.90625 4.390625 26.296875 15.140625 26.296875 24.6875 
z
" id="CMR17-41"/>
    </defs>
    <g style="fill:#262626;" transform="translate(18.9 144.489033)scale(0.35 -0.35)">
     <use transform="translate(0 14.943915)scale(0.996264)" xlink:href="#CMMI12-84"/>
     <use transform="translate(70.723632 14.943915)scale(0.996264)" xlink:href="#CMR17-40"/>
     <use transform="translate(106.0044 14.943915)scale(0.996264)" xlink:href="#CMMI12-26"/>
     <use transform="translate(156.318773 0)scale(0.697382)" xlink:href="#CMR17-48"/>
     <use transform="translate(188.800087 14.943915)scale(0.996264)" xlink:href="#CMR17-41"/>
    </g>
   </g>
   <g id="text_4">
    <!-- $\mathcal{M}$ -->
    <g style="fill:#262626;" transform="translate(65.7 233.589033)scale(0.35 -0.35)">
     <use transform="scale(0.996264)" xlink:href="#CMSY10-77"/>
    </g>
   </g>
   <g id="text_5">
    <!-- $\mathcal{M}'$ -->
    <defs>
     <path d="M 25.296875 47.5 
C 25.796875 48.703125 26.203125 49.59375 26.203125 50.59375 
C 26.203125 53.5 23.59375 55.90625 20.5 55.90625 
C 17.703125 55.90625 15.90625 54 15.203125 51.40625 
L 3.296875 7.703125 
C 3.296875 7.5 2.90625 6.40625 2.90625 6.296875 
C 2.90625 5.203125 5.5 4.5 6.296875 4.5 
C 6.90625 4.5 7 4.796875 7.59375 6.09375 
z
" id="CMSY10-48"/>
    </defs>
    <g style="fill:#262626;" transform="translate(100.8 85.089033)scale(0.35 -0.35)">
     <use transform="scale(0.996264)" xlink:href="#CMSY10-77"/>
     <use transform="translate(119.641341 36.153639)scale(0.697382)" xlink:href="#CMSY10-48"/>
    </g>
   </g>
   <g id="text_6">
    <!-- $\hat\rho_{\mathcal{M}'}$ -->
    <g style="fill:#262626;" transform="translate(328.95 129.639033)scale(0.35 -0.35)">
     <use transform="translate(10.441101 14.950375)scale(0.996264)" xlink:href="#CMR17-94"/>
     <use transform="translate(0 14.943915)scale(0.996264)" xlink:href="#CMMI12-26"/>
     <use transform="translate(50.314373 0)scale(0.697382)" xlink:href="#CMSY10-77"/>
     <use transform="translate(134.062953 20.146573)scale(0.498132)" xlink:href="#CMSY10-48"/>
    </g>
   </g>
   <g id="text_7">
    <!-- Tangent Cone Example (Rebit) -->
    <defs>
     <path d="M 36.203125 62 
L 44.5 62 
C 45.703125 62 46.90625 62 48.09375 62 
L 60.59375 62 
L 60.59375 68.375 
L 3.40625 68.375 
L 3.40625 62 
L 15.90625 62 
C 17.09375 62 18.296875 62 19.5 62 
L 27.796875 62 
L 27.796875 -0.5 
L 36.203125 -0.5 
z
" id="CMSS17-84"/>
     <path d="M 37.59375 27.984375 
C 37.59375 37.375 30.90625 43.875 21.90625 43.875 
C 17.5 43.875 12.703125 43.078125 7.203125 39.890625 
L 7.796875 33.359375 
C 10.296875 35.125 14.59375 38 21.796875 38 
C 26.90625 38 30 34.0625 30 27.84375 
L 30 24 
C 14 24 4 19.34375 4 11.34375 
C 4 7.203125 6.5 -1 14.796875 -1 
C 16.296875 -1 24.40625 -1 30.203125 3.390625 
L 30.203125 -0.296875 
L 37.59375 -0.296875 
z
M 30 12.75 
C 30 10.953125 30 8.5625 27 6.78125 
C 24.40625 5.078125 21.09375 5.078125 19.703125 5.078125 
C 14.703125 5.078125 11.296875 7.984375 11.296875 11.625 
C 11.296875 18.921875 26.90625 18.921875 30 18.921875 
z
" id="CMSS17-97"/>
     <path d="M 40.90625 29.328125 
C 40.90625 35.671875 39.40625 44 28.09375 44 
C 21.703125 44 17.5 40.71875 14.703125 37.328125 
L 14.703125 43.09375 
L 7.40625 43.09375 
L 7.40625 0 
L 15 0 
L 15 24.359375 
C 15 30.6875 17.40625 37.9375 24.203125 37.9375 
C 33 37.9375 33.296875 32 33.296875 28.578125 
L 33.296875 0 
L 40.90625 0 
z
" id="CMSS17-110"/>
     <path d="M 44.5 43.875 
C 38.796875 43.875 33.90625 42.78125 29.90625 40.890625 
C 26.59375 43.390625 23.203125 43.875 20.90625 43.875 
C 12.203125 43.875 5.59375 36.703125 5.59375 28.34375 
C 5.59375 22.9375 8.59375 18.859375 8.796875 18.671875 
C 7 16.171875 6 13.484375 6 10.5 
C 6 7 7.40625 4.515625 8.5 3.125 
C 3.296875 -0.046875 2.59375 -4.90625 2.59375 -6.796875 
C 2.59375 -14.03125 11.703125 -20 23.40625 -20 
C 35.203125 -20 44.296875 -14.03125 44.296875 -6.6875 
C 44.296875 7 29 7 24.796875 7 
L 16.703125 7 
C 15.203125 7 11.203125 7 11.203125 12.359375 
C 11.203125 14.390625 12.09375 15.6875 12.203125 15.78125 
C 13.703125 14.6875 16.796875 13 20.90625 13 
C 29.203125 13 36.09375 19.96875 36.09375 28.546875 
C 36.09375 33.3125 33.90625 36.796875 33 38 
L 33.296875 38 
C 33.59375 38 37.796875 38 39.296875 38 
C 42.5 38 42.796875 37.9375 45.59375 37.796875 
z
M 20.90625 18.46875 
C 17.5 18.46875 12.703125 20.546875 12.703125 28.484375 
C 12.703125 37.109375 18.203125 38.5 20.796875 38.5 
C 24.203125 38.5 29 36.421875 29 28.484375 
C 29 19.859375 23.5 18.46875 20.90625 18.46875 
z
M 24.703125 -0.15625 
C 27.09375 -0.15625 37.203125 -0.15625 37.203125 -6.90625 
C 37.203125 -11.15625 31 -14.515625 23.5 -14.515625 
C 15.90625 -14.515625 9.703125 -11.25 9.703125 -6.796875 
C 9.703125 -6.296875 9.703125 -0.15625 16.59375 -0.15625 
z
" id="CMSS17-103"/>
     <path d="M 39.09375 21.515625 
C 39.09375 24.84375 38.90625 31.296875 35.703125 36.640625 
C 32.203125 42.390625 26.5 44 22.203125 44 
C 11.796875 44 3 34.1875 3 21.484375 
C 3 9.09375 12.09375 -1 23.59375 -1 
C 28.09375 -1 33.59375 0.296875 38.59375 3.875 
C 38.59375 4.28125 38.40625 6.46875 38.296875 6.5625 
C 38.296875 6.765625 38 9.84375 38 10.25 
C 33.203125 6.359375 27.703125 5.078125 23.703125 5.078125 
C 17.296875 5.078125 10.40625 10.421875 10.09375 21.515625 
z
M 10.90625 27 
C 12.203125 32.5625 16.59375 37.828125 22.203125 37.828125 
C 23.703125 37.828125 30.703125 37.828125 32.5 27 
z
" id="CMSS17-101"/>
     <path d="M 16.703125 37 
L 29.703125 37 
L 29.703125 42.765625 
L 16.703125 42.765625 
L 16.703125 55 
L 9.59375 55 
L 9.59375 42.765625 
L 1.703125 42.765625 
L 1.703125 37 
L 9.40625 37 
L 9.40625 11.703125 
C 9.40625 6 10.703125 -1 17.296875 -1 
C 22.296875 -1 26.90625 0.390625 31.296875 2.6875 
L 29.703125 8.5625 
C 27.296875 6.46875 24.40625 5.265625 21.296875 5.265625 
C 16.90625 5.265625 16.703125 10.875 16.703125 13.375 
z
" id="CMSS17-116"/>
     <path d="M 54.703125 11.15625 
C 48 6.671875 44.90625 5.375 36.796875 5.375 
C 22.796875 5.375 14.59375 20.359375 14.59375 34.046875 
C 14.59375 48.625 23 63 37.203125 63 
C 43.59375 63 47.796875 61.21875 52.90625 58.046875 
L 54.296875 65.890625 
C 49.5 68.28125 43.40625 69.375 37.296875 69.375 
C 18.09375 69.375 6.203125 51.8125 6.203125 34.046875 
C 6.203125 14.484375 20.296875 -1 36.296875 -1 
C 44.90625 -1 47.90625 -0.296875 55.296875 4.375 
z
" id="CMSS17-67"/>
     <path d="M 44.203125 21.1875 
C 44.203125 34 34.703125 44 23.5 44 
C 12 44 2.703125 33.703125 2.703125 21.1875 
C 2.703125 8.5 12.296875 -1 23.40625 -1 
C 34.796875 -1 44.203125 8.796875 44.203125 21.1875 
z
M 23.5 5.265625 
C 16.40625 5.265625 10.296875 11.078125 10.296875 22 
C 10.296875 33.609375 17.40625 37.921875 23.40625 37.921875 
C 29.90625 37.921875 36.59375 33.21875 36.59375 22 
C 36.59375 10.671875 30.09375 5.265625 23.5 5.265625 
z
" id="CMSS17-111"/>
     <path d="M 30.59375 6.765625 
C 22.59375 6.765625 19 6.765625 17.203125 6.765625 
L 17.203125 32.921875 
L 48.203125 32.921875 
L 48.203125 39 
L 17.203125 39 
L 17.203125 62.640625 
L 30.09375 62.640625 
C 31.296875 62.640625 32.5 62.640625 33.703125 62.640625 
L 50.796875 62.640625 
L 50.796875 69 
L 8.796875 69 
L 8.796875 0 
L 52.09375 0 
L 52.09375 6.765625 
z
" id="CMSS17-69"/>
     <path d="M 24.796875 22.09375 
L 41.5 42.796875 
L 32.796875 42.796875 
L 21.296875 27.765625 
L 9.40625 42.796875 
L 0.5 42.796875 
L 17.796875 22.09375 
L 0 0 
L 8.796875 0 
L 21.296875 17.515625 
L 34.296875 0 
L 43.09375 0 
z
" id="CMSS17-120"/>
     <path d="M 67 29.328125 
C 67 36.0625 65.296875 44 54.09375 44 
C 46.59375 44 42.09375 39.3125 40.09375 36.421875 
C 38.296875 41.71875 34.09375 44 28.09375 44 
C 21.296875 44 17 40.125 14.703125 37.328125 
L 14.703125 43.09375 
L 7.40625 43.09375 
L 7.40625 0 
L 15 0 
L 15 24.359375 
C 15 30.296875 17.203125 37.9375 24.296875 37.9375 
C 33.40625 37.9375 33.40625 31.5 33.40625 28.578125 
L 33.40625 0 
L 41 0 
L 41 24.359375 
C 41 30.296875 43.203125 37.9375 50.296875 37.9375 
C 59.40625 37.9375 59.40625 31.5 59.40625 28.578125 
L 59.40625 0 
L 67 0 
z
" id="CMSS17-109"/>
     <path d="M 15.09375 5.203125 
C 18.40625 2.015625 22.90625 -0.078125 27.703125 -0.078125 
C 37 -0.078125 45 9.421875 45 22.0625 
C 45 33.734375 39 44 30.40625 44 
C 25.40625 44 19.40625 42.21875 14.90625 38.625 
L 14.90625 43.203125 
L 7.5 43.203125 
L 7.5 -19 
L 15.09375 -19 
z
M 15.09375 32.8125 
C 15.90625 34 19.296875 37.734375 24.796875 37.734375 
C 31.796875 37.734375 37.40625 30.625 37.40625 22.0625 
C 37.40625 12.296875 30.59375 6 23.90625 6 
C 21.90625 6 19.796875 6.484375 17.796875 8.171875 
C 15.09375 10.53125 15.09375 12 15.09375 13.390625 
z
" id="CMSS17-112"/>
     <path d="M 14.796875 69 
L 7.40625 69 
L 7.40625 0 
L 14.796875 0 
z
" id="CMSS17-108"/>
     <path d="M 25.203125 74.5 
C 19.796875 69.015625 7.40625 56.265625 7.40625 24.8125 
C 7.40625 -6.765625 19.796875 -19.421875 25.203125 -25 
L 31.296875 -25 
C 19 -12.25 15 5.578125 15 24.6875 
C 15 43.71875 18.796875 61.65625 31.296875 74.5 
z
" id="CMSS17-40"/>
     <path d="M 39.40625 32.953125 
L 39.59375 33.046875 
C 55.203125 38.421875 55.296875 49.171875 55.296875 51.0625 
C 55.296875 60.515625 45.703125 69.578125 31.296875 69.578125 
L 8.90625 69.578125 
L 8.90625 0.5 
L 17.09375 0.5 
L 17.09375 32 
L 31.796875 32 
L 49.5 0.5 
L 57.90625 0.5 
z
M 17.09375 38.078125 
L 17.09375 64 
L 30.203125 64 
C 42.90625 64 47.40625 56.828125 47.40625 51.03125 
C 47.40625 45.65625 43.40625 38.078125 30.203125 38.078125 
z
" id="CMSS17-82"/>
     <path d="M 14.90625 69 
L 7.5 69 
L 7.5 -0.203125 
L 15.09375 -0.203125 
L 15.09375 4.28125 
C 18.90625 0.59375 23.5 -1 27.59375 -1 
C 37.203125 -1 45 8.578125 45 21.125 
C 45 32.59375 39 43.0625 30.09375 43.0625 
C 23.796875 43.0625 18.203125 40.484375 14.90625 37.796875 
z
M 15.09375 31.96875 
C 17.296875 34.71875 20.40625 37 24.796875 37 
C 30.703125 37 37.40625 32.765625 37.40625 21.125 
C 37.40625 8.71875 29.40625 5.078125 23.90625 5.078125 
C 21.90625 5.078125 19.796875 5.5625 17.796875 7.25 
C 15.09375 9.609375 15.09375 11.078125 15.09375 12.453125 
z
" id="CMSS17-98"/>
     <path d="M 15.296875 65.359375 
L 6.90625 65.359375 
L 6.90625 57 
L 15.296875 57 
z
M 14.796875 42.796875 
L 7.40625 42.796875 
L 7.40625 0 
L 14.796875 0 
z
" id="CMSS17-105"/>
     <path d="M 11.296875 -25 
C 16.703125 -19.515625 29.09375 -6.765625 29.09375 24.6875 
C 29.09375 56.265625 16.703125 68.921875 11.296875 74.5 
L 5.203125 74.5 
C 17.5 61.75 21.5 43.921875 21.5 24.8125 
C 21.5 5.78125 17.703125 -12.15625 5.203125 -25 
z
" id="CMSS17-41"/>
    </defs>
    <g style="fill:#262626;" transform="translate(58.335647 29.589033)scale(0.3 -0.3)">
     <use transform="scale(0.996264)" xlink:href="#CMSS17-84"/>
     <use transform="translate(56.012199 0)scale(0.996264)" xlink:href="#CMSS17-97"/>
     <use transform="translate(100.934119 0)scale(0.996264)" xlink:href="#CMSS17-110"/>
     <use transform="translate(149.139062 0)scale(0.996264)" xlink:href="#CMSS17-103"/>
     <use transform="translate(195.982686 0)scale(0.996264)" xlink:href="#CMSS17-101"/>
     <use transform="translate(237.621508 0)scale(0.996264)" xlink:href="#CMSS17-110"/>
     <use transform="translate(285.826451 0)scale(0.996264)" xlink:href="#CMSS17-116"/>
     <use transform="translate(350.88713 0)scale(0.996264)" xlink:href="#CMSS17-67"/>
     <use transform="translate(410.742902 0)scale(0.996264)" xlink:href="#CMSS17-111"/>
     <use transform="translate(457.586526 0)scale(0.996264)" xlink:href="#CMSS17-110"/>
     <use transform="translate(505.791469 0)scale(0.996264)" xlink:href="#CMSS17-101"/>
     <use transform="translate(578.659403 0)scale(0.996264)" xlink:href="#CMSS17-69"/>
     <use transform="translate(634.551417 0)scale(0.996264)" xlink:href="#CMSS17-120"/>
     <use transform="translate(677.551558 0)scale(0.996264)" xlink:href="#CMSS17-97"/>
     <use transform="translate(722.473479 0)scale(0.996264)" xlink:href="#CMSS17-109"/>
     <use transform="translate(796.702733 0)scale(0.996264)" xlink:href="#CMSS17-112"/>
     <use transform="translate(844.907677 0)scale(0.996264)" xlink:href="#CMSS17-108"/>
     <use transform="translate(867.0884 0)scale(0.996264)" xlink:href="#CMSS17-101"/>
     <use transform="translate(939.956334 0)scale(0.996264)" xlink:href="#CMSS17-40"/>
     <use transform="translate(976.390249 0)scale(0.996264)" xlink:href="#CMSS17-82"/>
     <use transform="translate(1036.806403 0)scale(0.996264)" xlink:href="#CMSS17-101"/>
     <use transform="translate(1078.445226 0)scale(0.996264)" xlink:href="#CMSS17-98"/>
     <use transform="translate(1126.650169 0)scale(0.996264)" xlink:href="#CMSS17-105"/>
     <use transform="translate(1148.830892 0)scale(0.996264)" xlink:href="#CMSS17-116"/>
     <use transform="translate(1182.662458 0)scale(0.996264)" xlink:href="#CMSS17-41"/>
    </g>
   </g>
   <g id="line2d_25">
    <path clip-path="url(#pe51fa0a4ca)" d="M 358.2 332.589033 
" style="fill:none;stroke:#66c2a5;stroke-linecap:round;stroke-width:1.75;"/>
    <defs>
     <path d="M 0 -25 
L -7.347316 -10.112712 
L -23.776413 -7.725425 
L -11.888206 3.862712 
L -14.694631 20.225425 
L -0 12.5 
L 14.694631 20.225425 
L 11.888206 3.862712 
L 23.776413 -7.725425 
L 7.347316 -10.112712 
z
" id="m8a49fd334d" style="stroke:#000000;stroke-linejoin:bevel;stroke-width:4;"/>
    </defs>
    <g clip-path="url(#pe51fa0a4ca)">
     <use style="fill:#66c2a5;stroke:#000000;stroke-linejoin:bevel;stroke-width:4;" x="358.2" xlink:href="#m8a49fd334d" y="332.589033"/>
    </g>
   </g>
  </g>
 </g>
 <defs>
  <clipPath id="pe51fa0a4ca">
   <rect height="396" width="468" x="7.2" y="35.589033"/>
  </clipPath>
 </defs>
</svg>
