<?xml version="1.0" encoding="utf-8" standalone="no"?>
<!DOCTYPE svg PUBLIC "-//W3C//DTD SVG 1.1//EN"
  "http://www.w3.org/Graphics/SVG/1.1/DTD/svg11.dtd">
<!-- Created with matplotlib (http://matplotlib.org/) -->
<svg height="669pt" version="1.1" viewBox="0 0 1242 669" width="1242pt" xmlns="http://www.w3.org/2000/svg" xmlns:xlink="http://www.w3.org/1999/xlink">
 <defs>
  <style type="text/css">
*{stroke-linecap:butt;stroke-linejoin:round;stroke-miterlimit:100000;}
  </style>
 </defs>
 <g id="figure_1">
  <g id="patch_1">
   <path d="M 0 669.7398 
L 1242.889116 669.7398 
L 1242.889116 0 
L 0 0 
z
" style="fill:#ffffff;"/>
  </g>
  <g id="axes_1">
   <g id="patch_2">
    <path d="M 639 662.5398 
L 1235.689116 662.5398 
L 1235.689116 63.383133 
L 639 63.383133 
z
" style="fill:#eaeaf2;"/>
   </g>
   <g id="matplotlib.axis_1">
    <g id="xtick_1">
     <g id="line2d_1">
      <defs>
       <path d="M 0 0 
L 0 0 
" id="mffeefdcca9" style="stroke:#262626;"/>
      </defs>
      <g>
       <use style="fill:#262626;stroke:#262626;" x="676.293069743" xlink:href="#mffeefdcca9" y="662.5398"/>
      </g>
     </g>
    </g>
    <g id="xtick_2">
     <g id="line2d_2">
      <g>
       <use style="fill:#262626;stroke:#262626;" x="750.879209229" xlink:href="#mffeefdcca9" y="662.5398"/>
      </g>
     </g>
    </g>
    <g id="xtick_3">
     <g id="line2d_3">
      <g>
       <use style="fill:#262626;stroke:#262626;" x="825.465348716" xlink:href="#mffeefdcca9" y="662.5398"/>
      </g>
     </g>
    </g>
    <g id="xtick_4">
     <g id="line2d_4">
      <g>
       <use style="fill:#262626;stroke:#262626;" x="900.051488202" xlink:href="#mffeefdcca9" y="662.5398"/>
      </g>
     </g>
    </g>
    <g id="xtick_5">
     <g id="line2d_5">
      <g>
       <use style="fill:#262626;stroke:#262626;" x="974.637627688" xlink:href="#mffeefdcca9" y="662.5398"/>
      </g>
     </g>
    </g>
    <g id="xtick_6">
     <g id="line2d_6">
      <g>
       <use style="fill:#262626;stroke:#262626;" x="1049.22376717" xlink:href="#mffeefdcca9" y="662.5398"/>
      </g>
     </g>
    </g>
    <g id="xtick_7">
     <g id="line2d_7">
      <g>
       <use style="fill:#262626;stroke:#262626;" x="1123.80990666" xlink:href="#mffeefdcca9" y="662.5398"/>
      </g>
     </g>
    </g>
    <g id="xtick_8">
     <g id="line2d_8">
      <g>
       <use style="fill:#262626;stroke:#262626;" x="1198.39604615" xlink:href="#mffeefdcca9" y="662.5398"/>
      </g>
     </g>
    </g>
   </g>
   <g id="matplotlib.axis_2">
    <g id="ytick_1">
     <g id="line2d_9">
      <g>
       <use style="fill:#262626;stroke:#262626;" x="639.0" xlink:href="#mffeefdcca9" y="625.092508333"/>
      </g>
     </g>
    </g>
    <g id="ytick_2">
     <g id="line2d_10">
      <g>
       <use style="fill:#262626;stroke:#262626;" x="639.0" xlink:href="#mffeefdcca9" y="550.197925"/>
      </g>
     </g>
    </g>
    <g id="ytick_3">
     <g id="line2d_11">
      <g>
       <use style="fill:#262626;stroke:#262626;" x="639.0" xlink:href="#mffeefdcca9" y="475.303341667"/>
      </g>
     </g>
    </g>
    <g id="ytick_4">
     <g id="line2d_12">
      <g>
       <use style="fill:#262626;stroke:#262626;" x="639.0" xlink:href="#mffeefdcca9" y="400.408758333"/>
      </g>
     </g>
    </g>
    <g id="ytick_5">
     <g id="line2d_13">
      <g>
       <use style="fill:#262626;stroke:#262626;" x="639.0" xlink:href="#mffeefdcca9" y="325.514175"/>
      </g>
     </g>
    </g>
    <g id="ytick_6">
     <g id="line2d_14">
      <g>
       <use style="fill:#262626;stroke:#262626;" x="639.0" xlink:href="#mffeefdcca9" y="250.619591667"/>
      </g>
     </g>
    </g>
    <g id="ytick_7">
     <g id="line2d_15">
      <g>
       <use style="fill:#262626;stroke:#262626;" x="639.0" xlink:href="#mffeefdcca9" y="175.725008333"/>
      </g>
     </g>
    </g>
    <g id="ytick_8">
     <g id="line2d_16">
      <g>
       <use style="fill:#262626;stroke:#262626;" x="639.0" xlink:href="#mffeefdcca9" y="100.830425"/>
      </g>
     </g>
    </g>
   </g>
   <g id="QuadMesh_1">
    <path clip-path="url(#p5c27eca0f2)" d="M 639 662.5398 
L 713.586139 662.5398 
L 713.586139 587.645217 
L 639 587.645217 
L 639 662.5398 
" style="fill:#f9f1ec;"/>
    <path clip-path="url(#p5c27eca0f2)" d="M 713.586139 662.5398 
L 788.172279 662.5398 
L 788.172279 587.645217 
L 713.586139 587.645217 
L 713.586139 662.5398 
" style="fill:#f9f1ec;"/>
    <path clip-path="url(#p5c27eca0f2)" d="M 788.172279 662.5398 
L 862.758418 662.5398 
L 862.758418 587.645217 
L 788.172279 587.645217 
L 788.172279 662.5398 
" style="fill:#f9f1ec;"/>
    <path clip-path="url(#p5c27eca0f2)" d="M 862.758418 662.5398 
L 937.344558 662.5398 
L 937.344558 587.645217 
L 862.758418 587.645217 
L 862.758418 662.5398 
" style="fill:#f9f1ec;"/>
    <path clip-path="url(#p5c27eca0f2)" d="M 937.344558 662.5398 
L 1011.930697 662.5398 
L 1011.930697 587.645217 
L 937.344558 587.645217 
L 937.344558 662.5398 
" style="fill:#f9f1ec;"/>
    <path clip-path="url(#p5c27eca0f2)" d="M 1011.930697 662.5398 
L 1086.516837 662.5398 
L 1086.516837 587.645217 
L 1011.930697 587.645217 
L 1011.930697 662.5398 
" style="fill:#f9f1ec;"/>
    <path clip-path="url(#p5c27eca0f2)" d="M 1086.516837 662.5398 
L 1161.102976 662.5398 
L 1161.102976 587.645217 
L 1086.516837 587.645217 
L 1086.516837 662.5398 
" style="fill:#f9f1ec;"/>
    <path clip-path="url(#p5c27eca0f2)" d="M 1161.102976 662.5398 
L 1235.689116 662.5398 
L 1235.689116 587.645217 
L 1161.102976 587.645217 
L 1161.102976 662.5398 
" style="fill:#f9f1ec;"/>
    <path clip-path="url(#p5c27eca0f2)" d="M 639 587.645217 
L 713.586139 587.645217 
L 713.586139 512.750633 
L 639 512.750633 
L 639 587.645217 
" style="fill:#f9f1ec;"/>
    <path clip-path="url(#p5c27eca0f2)" d="M 713.586139 587.645217 
L 788.172279 587.645217 
L 788.172279 512.750633 
L 713.586139 512.750633 
L 713.586139 587.645217 
" style="fill:#f9f1ec;"/>
    <path clip-path="url(#p5c27eca0f2)" d="M 788.172279 587.645217 
L 862.758418 587.645217 
L 862.758418 512.750633 
L 788.172279 512.750633 
L 788.172279 587.645217 
" style="fill:#f9f1ec;"/>
    <path clip-path="url(#p5c27eca0f2)" d="M 862.758418 587.645217 
L 937.344558 587.645217 
L 937.344558 512.750633 
L 862.758418 512.750633 
L 862.758418 587.645217 
" style="fill:#f9f1ec;"/>
    <path clip-path="url(#p5c27eca0f2)" d="M 937.344558 587.645217 
L 1011.930697 587.645217 
L 1011.930697 512.750633 
L 937.344558 512.750633 
L 937.344558 587.645217 
" style="fill:#f9f1ec;"/>
    <path clip-path="url(#p5c27eca0f2)" d="M 1011.930697 587.645217 
L 1086.516837 587.645217 
L 1086.516837 512.750633 
L 1011.930697 512.750633 
L 1011.930697 587.645217 
" style="fill:#f9f1ec;"/>
    <path clip-path="url(#p5c27eca0f2)" d="M 1086.516837 587.645217 
L 1161.102976 587.645217 
L 1161.102976 512.750633 
L 1086.516837 512.750633 
L 1086.516837 587.645217 
" style="fill:#f9f1ec;"/>
    <path clip-path="url(#p5c27eca0f2)" d="M 1161.102976 587.645217 
L 1235.689116 587.645217 
L 1235.689116 512.750633 
L 1161.102976 512.750633 
L 1161.102976 587.645217 
" style="fill:#f9f1ec;"/>
    <path clip-path="url(#p5c27eca0f2)" d="M 639 512.750633 
L 713.586139 512.750633 
L 713.586139 437.85605 
L 639 437.85605 
L 639 512.750633 
" style="fill:#f9f1ec;"/>
    <path clip-path="url(#p5c27eca0f2)" d="M 713.586139 512.750633 
L 788.172279 512.750633 
L 788.172279 437.85605 
L 713.586139 437.85605 
L 713.586139 512.750633 
" style="fill:#f9f1ec;"/>
    <path clip-path="url(#p5c27eca0f2)" d="M 788.172279 512.750633 
L 862.758418 512.750633 
L 862.758418 437.85605 
L 788.172279 437.85605 
L 788.172279 512.750633 
" style="fill:#f9f1ec;"/>
    <path clip-path="url(#p5c27eca0f2)" d="M 862.758418 512.750633 
L 937.344558 512.750633 
L 937.344558 437.85605 
L 862.758418 437.85605 
L 862.758418 512.750633 
" style="fill:#f9f1ec;"/>
    <path clip-path="url(#p5c27eca0f2)" d="M 937.344558 512.750633 
L 1011.930697 512.750633 
L 1011.930697 437.85605 
L 937.344558 437.85605 
L 937.344558 512.750633 
" style="fill:#f9f1ec;"/>
    <path clip-path="url(#p5c27eca0f2)" d="M 1011.930697 512.750633 
L 1086.516837 512.750633 
L 1086.516837 437.85605 
L 1011.930697 437.85605 
L 1011.930697 512.750633 
" style="fill:#f9f1ec;"/>
    <path clip-path="url(#p5c27eca0f2)" d="M 1086.516837 512.750633 
L 1161.102976 512.750633 
L 1161.102976 437.85605 
L 1086.516837 437.85605 
L 1086.516837 512.750633 
" style="fill:#f9f1ec;"/>
    <path clip-path="url(#p5c27eca0f2)" d="M 1161.102976 512.750633 
L 1235.689116 512.750633 
L 1235.689116 437.85605 
L 1161.102976 437.85605 
L 1161.102976 512.750633 
" style="fill:#f9f1ec;"/>
    <path clip-path="url(#p5c27eca0f2)" d="M 639 437.85605 
L 713.586139 437.85605 
L 713.586139 362.961467 
L 639 362.961467 
L 639 437.85605 
" style="fill:#f9f1ec;"/>
    <path clip-path="url(#p5c27eca0f2)" d="M 713.586139 437.85605 
L 788.172279 437.85605 
L 788.172279 362.961467 
L 713.586139 362.961467 
L 713.586139 437.85605 
" style="fill:#f9f1ec;"/>
    <path clip-path="url(#p5c27eca0f2)" d="M 788.172279 437.85605 
L 862.758418 437.85605 
L 862.758418 362.961467 
L 788.172279 362.961467 
L 788.172279 437.85605 
" style="fill:#f9f1ec;"/>
    <path clip-path="url(#p5c27eca0f2)" d="M 862.758418 437.85605 
L 937.344558 437.85605 
L 937.344558 362.961467 
L 862.758418 362.961467 
L 862.758418 437.85605 
" style="fill:#f9f1ec;"/>
    <path clip-path="url(#p5c27eca0f2)" d="M 937.344558 437.85605 
L 1011.930697 437.85605 
L 1011.930697 362.961467 
L 937.344558 362.961467 
L 937.344558 437.85605 
" style="fill:#f9f1ec;"/>
    <path clip-path="url(#p5c27eca0f2)" d="M 1011.930697 437.85605 
L 1086.516837 437.85605 
L 1086.516837 362.961467 
L 1011.930697 362.961467 
L 1011.930697 437.85605 
" style="fill:#f9f1ec;"/>
    <path clip-path="url(#p5c27eca0f2)" d="M 1086.516837 437.85605 
L 1161.102976 437.85605 
L 1161.102976 362.961467 
L 1086.516837 362.961467 
L 1086.516837 437.85605 
" style="fill:#f9f1ec;"/>
    <path clip-path="url(#p5c27eca0f2)" d="M 1161.102976 437.85605 
L 1235.689116 437.85605 
L 1235.689116 362.961467 
L 1161.102976 362.961467 
L 1161.102976 437.85605 
" style="fill:#f9f1ec;"/>
    <path clip-path="url(#p5c27eca0f2)" d="M 639 362.961467 
L 713.586139 362.961467 
L 713.586139 288.066883 
L 639 288.066883 
L 639 362.961467 
" style="fill:#f9f1ec;"/>
    <path clip-path="url(#p5c27eca0f2)" d="M 713.586139 362.961467 
L 788.172279 362.961467 
L 788.172279 288.066883 
L 713.586139 288.066883 
L 713.586139 362.961467 
" style="fill:#f9f1ec;"/>
    <path clip-path="url(#p5c27eca0f2)" d="M 788.172279 362.961467 
L 862.758418 362.961467 
L 862.758418 288.066883 
L 788.172279 288.066883 
L 788.172279 362.961467 
" style="fill:#f9f1ec;"/>
    <path clip-path="url(#p5c27eca0f2)" d="M 862.758418 362.961467 
L 937.344558 362.961467 
L 937.344558 288.066883 
L 862.758418 288.066883 
L 862.758418 362.961467 
" style="fill:#f9f1ec;"/>
    <path clip-path="url(#p5c27eca0f2)" d="M 937.344558 362.961467 
L 1011.930697 362.961467 
L 1011.930697 288.066883 
L 937.344558 288.066883 
L 937.344558 362.961467 
" style="fill:#f9f1ec;"/>
    <path clip-path="url(#p5c27eca0f2)" d="M 1011.930697 362.961467 
L 1086.516837 362.961467 
L 1086.516837 288.066883 
L 1011.930697 288.066883 
L 1011.930697 362.961467 
" style="fill:#f9f1ec;"/>
    <path clip-path="url(#p5c27eca0f2)" d="M 1086.516837 362.961467 
L 1161.102976 362.961467 
L 1161.102976 288.066883 
L 1086.516837 288.066883 
L 1086.516837 362.961467 
" style="fill:#f9f1ec;"/>
    <path clip-path="url(#p5c27eca0f2)" d="M 1161.102976 362.961467 
L 1235.689116 362.961467 
L 1235.689116 288.066883 
L 1161.102976 288.066883 
L 1161.102976 362.961467 
" style="fill:#f9f1ec;"/>
    <path clip-path="url(#p5c27eca0f2)" d="M 639 288.066883 
L 713.586139 288.066883 
L 713.586139 213.1723 
L 639 213.1723 
L 639 288.066883 
" style="fill:#f9f1ec;"/>
    <path clip-path="url(#p5c27eca0f2)" d="M 713.586139 288.066883 
L 788.172279 288.066883 
L 788.172279 213.1723 
L 713.586139 213.1723 
L 713.586139 288.066883 
" style="fill:#f9f1ec;"/>
    <path clip-path="url(#p5c27eca0f2)" d="M 788.172279 288.066883 
L 862.758418 288.066883 
L 862.758418 213.1723 
L 788.172279 213.1723 
L 788.172279 288.066883 
" style="fill:#f9f1ec;"/>
    <path clip-path="url(#p5c27eca0f2)" d="M 862.758418 288.066883 
L 937.344558 288.066883 
L 937.344558 213.1723 
L 862.758418 213.1723 
L 862.758418 288.066883 
" style="fill:#f9f1ec;"/>
    <path clip-path="url(#p5c27eca0f2)" d="M 937.344558 288.066883 
L 1011.930697 288.066883 
L 1011.930697 213.1723 
L 937.344558 213.1723 
L 937.344558 288.066883 
" style="fill:#f9f1ec;"/>
    <path clip-path="url(#p5c27eca0f2)" d="M 1011.930697 288.066883 
L 1086.516837 288.066883 
L 1086.516837 213.1723 
L 1011.930697 213.1723 
L 1011.930697 288.066883 
" style="fill:#f9f1ec;"/>
    <path clip-path="url(#p5c27eca0f2)" d="M 1086.516837 288.066883 
L 1161.102976 288.066883 
L 1161.102976 213.1723 
L 1086.516837 213.1723 
L 1086.516837 288.066883 
" style="fill:#f9f1ec;"/>
    <path clip-path="url(#p5c27eca0f2)" d="M 1161.102976 288.066883 
L 1235.689116 288.066883 
L 1235.689116 213.1723 
L 1161.102976 213.1723 
L 1161.102976 288.066883 
" style="fill:#f9f1ec;"/>
    <path clip-path="url(#p5c27eca0f2)" d="M 639 213.1723 
L 713.586139 213.1723 
L 713.586139 138.277717 
L 639 138.277717 
L 639 213.1723 
" style="fill:#f9f1ec;"/>
    <path clip-path="url(#p5c27eca0f2)" d="M 713.586139 213.1723 
L 788.172279 213.1723 
L 788.172279 138.277717 
L 713.586139 138.277717 
L 713.586139 213.1723 
" style="fill:#2d1e3e;"/>
    <path clip-path="url(#p5c27eca0f2)" d="M 788.172279 213.1723 
L 862.758418 213.1723 
L 862.758418 138.277717 
L 788.172279 138.277717 
L 788.172279 213.1723 
" style="fill:#f9f1ec;"/>
    <path clip-path="url(#p5c27eca0f2)" d="M 862.758418 213.1723 
L 937.344558 213.1723 
L 937.344558 138.277717 
L 862.758418 138.277717 
L 862.758418 213.1723 
" style="fill:#f9f1ec;"/>
    <path clip-path="url(#p5c27eca0f2)" d="M 937.344558 213.1723 
L 1011.930697 213.1723 
L 1011.930697 138.277717 
L 937.344558 138.277717 
L 937.344558 213.1723 
" style="fill:#f9f1ec;"/>
    <path clip-path="url(#p5c27eca0f2)" d="M 1011.930697 213.1723 
L 1086.516837 213.1723 
L 1086.516837 138.277717 
L 1011.930697 138.277717 
L 1011.930697 213.1723 
" style="fill:#f9f1ec;"/>
    <path clip-path="url(#p5c27eca0f2)" d="M 1086.516837 213.1723 
L 1161.102976 213.1723 
L 1161.102976 138.277717 
L 1086.516837 138.277717 
L 1086.516837 213.1723 
" style="fill:#f9f1ec;"/>
    <path clip-path="url(#p5c27eca0f2)" d="M 1161.102976 213.1723 
L 1235.689116 213.1723 
L 1235.689116 138.277717 
L 1161.102976 138.277717 
L 1161.102976 213.1723 
" style="fill:#f9f1ec;"/>
    <path clip-path="url(#p5c27eca0f2)" d="M 639 138.277717 
L 713.586139 138.277717 
L 713.586139 63.383133 
L 639 63.383133 
L 639 138.277717 
" style="fill:#2d1e3e;"/>
    <path clip-path="url(#p5c27eca0f2)" d="M 713.586139 138.277717 
L 788.172279 138.277717 
L 788.172279 63.383133 
L 713.586139 63.383133 
L 713.586139 138.277717 
" style="fill:#f9f1ec;"/>
    <path clip-path="url(#p5c27eca0f2)" d="M 788.172279 138.277717 
L 862.758418 138.277717 
L 862.758418 63.383133 
L 788.172279 63.383133 
L 788.172279 138.277717 
" style="fill:#f9f1ec;"/>
    <path clip-path="url(#p5c27eca0f2)" d="M 862.758418 138.277717 
L 937.344558 138.277717 
L 937.344558 63.383133 
L 862.758418 63.383133 
L 862.758418 138.277717 
" style="fill:#f9f1ec;"/>
    <path clip-path="url(#p5c27eca0f2)" d="M 937.344558 138.277717 
L 1011.930697 138.277717 
L 1011.930697 63.383133 
L 937.344558 63.383133 
L 937.344558 138.277717 
" style="fill:#f9f1ec;"/>
    <path clip-path="url(#p5c27eca0f2)" d="M 1011.930697 138.277717 
L 1086.516837 138.277717 
L 1086.516837 63.383133 
L 1011.930697 63.383133 
L 1011.930697 138.277717 
" style="fill:#f9f1ec;"/>
    <path clip-path="url(#p5c27eca0f2)" d="M 1086.516837 138.277717 
L 1161.102976 138.277717 
L 1161.102976 63.383133 
L 1086.516837 63.383133 
L 1086.516837 138.277717 
" style="fill:#f9f1ec;"/>
    <path clip-path="url(#p5c27eca0f2)" d="M 1161.102976 138.277717 
L 1235.689116 138.277717 
L 1235.689116 63.383133 
L 1161.102976 63.383133 
L 1161.102976 138.277717 
" style="fill:#f9f1ec;"/>
   </g>
   <g id="patch_3">
    <path d="M 788.172279 662.5398 
L 1235.689116 662.5398 
L 1235.689116 216.917029 
L 788.172279 216.917029 
L 788.172279 662.5398 
z
" style="fill:none;stroke:#d55e00;stroke-linejoin:miter;stroke-width:10.0;"/>
   </g>
   <g id="patch_4">
    <path d="M 639 138.277717 
L 713.586139 138.277717 
L 713.586139 63.383133 
L 639 63.383133 
L 639 138.277717 
z
" style="fill:none;stroke:#d55e00;stroke-linejoin:miter;stroke-width:10.0;"/>
   </g>
   <g id="patch_5">
    <path d="M 713.586139 213.1723 
L 788.172279 213.1723 
L 788.172279 138.277717 
L 713.586139 138.277717 
L 713.586139 213.1723 
z
" style="fill:none;stroke:#d55e00;stroke-linejoin:miter;stroke-width:10.0;"/>
   </g>
   <g id="line2d_17">
    <path d="M 795.630893 211.299935 
L 1235.689116 211.299935 
" style="fill:none;stroke:#0072b2;stroke-linecap:round;stroke-width:10.0;"/>
   </g>
   <g id="line2d_18">
    <path d="M 1235.689116 210.925463 
L 1235.689116 63.383133 
" style="fill:none;stroke:#0072b2;stroke-linecap:round;stroke-width:10.0;"/>
   </g>
   <g id="line2d_19">
    <path d="M 718.807169 63.383133 
L 1235.689116 63.383133 
" style="fill:none;stroke:#0072b2;stroke-linecap:round;stroke-width:10.0;"/>
   </g>
   <g id="line2d_20">
    <path d="M 718.807169 131.537204 
L 794.13917 131.537204 
" style="fill:none;stroke:#0072b2;stroke-linecap:round;stroke-width:10.0;"/>
   </g>
   <g id="line2d_21">
    <path d="M 718.807169 131.537204 
L 718.807169 63.383133 
" style="fill:none;stroke:#0072b2;stroke-linecap:round;stroke-width:10.0;"/>
   </g>
   <g id="line2d_22">
    <path d="M 794.13917 210.925463 
L 794.13917 131.537204 
" style="fill:none;stroke:#0072b2;stroke-linecap:round;stroke-width:10.0;"/>
   </g>
   <g id="line2d_23">
    <path d="M 639 662.5398 
L 639 145.767175 
" style="fill:none;stroke:#0072b2;stroke-linecap:round;stroke-width:10.0;"/>
   </g>
   <g id="line2d_24">
    <path d="M 782.951249 662.5398 
L 782.951249 218.414921 
" style="fill:none;stroke:#0072b2;stroke-linecap:round;stroke-width:10.0;"/>
   </g>
   <g id="line2d_25">
    <path d="M 639 662.5398 
L 782.951249 662.5398 
" style="fill:none;stroke:#0072b2;stroke-linecap:round;stroke-width:10.0;"/>
   </g>
   <g id="line2d_26">
    <path d="M 639 144.269283 
L 709.110971 144.269283 
" style="fill:none;stroke:#0072b2;stroke-linecap:round;stroke-width:10.0;"/>
   </g>
   <g id="line2d_27">
    <path d="M 709.856833 218.414921 
L 779.967804 218.414921 
" style="fill:none;stroke:#0072b2;stroke-linecap:round;stroke-width:10.0;"/>
   </g>
   <g id="line2d_28">
    <path d="M 709.110971 218.414921 
L 709.110971 144.269283 
" style="fill:none;stroke:#0072b2;stroke-linecap:round;stroke-width:10.0;"/>
   </g>
   <g id="text_1">
    <g id="patch_6">
     <path d="M 933.344558 375.280217 
L 1077.382058 375.280217 
L 1077.382058 328.567717 
L 933.344558 328.567717 
z
" style="fill:#d55e00;stroke:#000000;stroke-linejoin:miter;stroke-width:0.3;"/>
    </g>
    <!-- ``Kite" -->
    <defs>
     <path d="M 17.921875 72.90625 
L 17.921875 45.796875 
L 9.625 45.796875 
L 9.625 72.90625 
z
M 36.375 72.90625 
L 36.375 45.796875 
L 28.078125 45.796875 
L 28.078125 72.90625 
z
" id="BitstreamVeraSans-Roman-22"/>
     <path d="M 9.8125 72.90625 
L 19.671875 72.90625 
L 19.671875 42.09375 
L 52.390625 72.90625 
L 65.09375 72.90625 
L 28.90625 38.921875 
L 67.671875 0 
L 54.6875 0 
L 19.671875 35.109375 
L 19.671875 0 
L 9.8125 0 
z
" id="BitstreamVeraSans-Roman-4b"/>
     <path d="M 9.421875 54.6875 
L 18.40625 54.6875 
L 18.40625 0 
L 9.421875 0 
z
M 9.421875 75.984375 
L 18.40625 75.984375 
L 18.40625 64.59375 
L 9.421875 64.59375 
z
" id="BitstreamVeraSans-Roman-69"/>
     <path d="M 56.203125 29.59375 
L 56.203125 25.203125 
L 14.890625 25.203125 
Q 15.484375 15.921875 20.484375 11.0625 
Q 25.484375 6.203125 34.421875 6.203125 
Q 39.59375 6.203125 44.453125 7.46875 
Q 49.3125 8.734375 54.109375 11.28125 
L 54.109375 2.78125 
Q 49.265625 0.734375 44.1875 -0.34375 
Q 39.109375 -1.421875 33.890625 -1.421875 
Q 20.796875 -1.421875 13.15625 6.1875 
Q 5.515625 13.8125 5.515625 26.8125 
Q 5.515625 40.234375 12.765625 48.109375 
Q 20.015625 56 32.328125 56 
Q 43.359375 56 49.78125 48.890625 
Q 56.203125 41.796875 56.203125 29.59375 
M 47.21875 32.234375 
Q 47.125 39.59375 43.09375 43.984375 
Q 39.0625 48.390625 32.421875 48.390625 
Q 24.90625 48.390625 20.390625 44.140625 
Q 15.875 39.890625 15.1875 32.171875 
z
" id="BitstreamVeraSans-Roman-65"/>
     <path d="M 18.3125 70.21875 
L 18.3125 54.6875 
L 36.8125 54.6875 
L 36.8125 47.703125 
L 18.3125 47.703125 
L 18.3125 18.015625 
Q 18.3125 11.328125 20.140625 9.421875 
Q 21.96875 7.515625 27.59375 7.515625 
L 36.8125 7.515625 
L 36.8125 0 
L 27.59375 0 
Q 17.1875 0 13.234375 3.875 
Q 9.28125 7.765625 9.28125 18.015625 
L 9.28125 47.703125 
L 2.6875 47.703125 
L 2.6875 54.6875 
L 9.28125 54.6875 
L 9.28125 70.21875 
z
" id="BitstreamVeraSans-Roman-74"/>
     <path d="M 17.921875 79.984375 
L 31.6875 61.71875 
L 24.21875 61.71875 
L 8.296875 79.984375 
z
" id="BitstreamVeraSans-Roman-60"/>
    </defs>
    <g style="fill:#ffffff;" transform="translate(937.344557945 362.961466667)scale(0.4 -0.4)">
     <use xlink:href="#BitstreamVeraSans-Roman-60"/>
     <use x="50.0" xlink:href="#BitstreamVeraSans-Roman-60"/>
     <use x="100.0" xlink:href="#BitstreamVeraSans-Roman-4b"/>
     <use x="165.576171875" xlink:href="#BitstreamVeraSans-Roman-69"/>
     <use x="193.359375" xlink:href="#BitstreamVeraSans-Roman-74"/>
     <use x="232.568359375" xlink:href="#BitstreamVeraSans-Roman-65"/>
     <use x="294.091796875" xlink:href="#BitstreamVeraSans-Roman-22"/>
    </g>
   </g>
   <g id="text_2">
    <g id="patch_7">
     <path d="M 672.29307 375.280217 
L 760.98057 375.280217 
L 760.98057 328.567717 
L 672.29307 328.567717 
z
" style="fill:#0072b2;stroke:#000000;stroke-linejoin:miter;stroke-width:0.3;"/>
    </g>
    <!-- ``L" -->
    <defs>
     <path d="M 9.8125 72.90625 
L 19.671875 72.90625 
L 19.671875 8.296875 
L 55.171875 8.296875 
L 55.171875 0 
L 9.8125 0 
z
" id="BitstreamVeraSans-Roman-4c"/>
    </defs>
    <g style="fill:#ffffff;" transform="translate(676.293069743 362.961466667)scale(0.4 -0.4)">
     <use xlink:href="#BitstreamVeraSans-Roman-60"/>
     <use x="50.0" xlink:href="#BitstreamVeraSans-Roman-60"/>
     <use x="100.0" xlink:href="#BitstreamVeraSans-Roman-4c"/>
     <use x="155.712890625" xlink:href="#BitstreamVeraSans-Roman-22"/>
    </g>
   </g>
   <g id="text_3">
    <g id="patch_8">
     <path d="M 970.637628 169.320113 
L 1059.325128 169.320113 
L 1059.325128 122.607613 
L 970.637628 122.607613 
z
" style="fill:#0072b2;stroke:#000000;stroke-linejoin:miter;stroke-width:0.3;"/>
    </g>
    <!-- ``L" -->
    <g style="fill:#ffffff;" transform="translate(974.637627688 157.0013625)scale(0.4 -0.4)">
     <use xlink:href="#BitstreamVeraSans-Roman-60"/>
     <use x="50.0" xlink:href="#BitstreamVeraSans-Roman-60"/>
     <use x="100.0" xlink:href="#BitstreamVeraSans-Roman-4c"/>
     <use x="155.712890625" xlink:href="#BitstreamVeraSans-Roman-22"/>
    </g>
   </g>
   <g id="text_4">
    <!-- Matrix Elements of $\hat\rho_{\mathcal{M}'_{d}}$ -->
    <defs>
     <path d="M 13.484375 53.8125 
L 11.53125 55.90625 
L 25 69.390625 
L 38.375 55.90625 
L 36.375 53.8125 
L 25 63.8125 
z
" id="Cmr10-5e"/>
     <path id="BitstreamVeraSans-Roman-20"/>
     <path d="M 2.78125 -18.796875 
Q 2.78125 -18.21875 2.875 -18.015625 
L 12.796875 21.921875 
Q 14.203125 27.296875 17.640625 32.4375 
Q 21.09375 37.59375 25.96875 40.890625 
Q 30.859375 44.1875 36.28125 44.1875 
Q 40.625 44.1875 43.875 41.921875 
Q 47.125 39.65625 48.75 35.96875 
Q 50.390625 32.28125 50.390625 27.875 
Q 50.390625 23.046875 48.40625 17.875 
Q 46.4375 12.703125 42.9375 8.40625 
Q 39.453125 4.109375 34.90625 1.484375 
Q 30.375 -1.125 25.390625 -1.125 
Q 22.46875 -1.125 19.875 0.609375 
Q 17.28125 2.34375 15.828125 5.171875 
L 9.90625 -18.40625 
Q 9.625 -19.828125 8.453125 -20.703125 
Q 7.28125 -21.578125 5.8125 -21.578125 
Q 4.59375 -21.578125 3.6875 -20.8125 
Q 2.78125 -20.0625 2.78125 -18.796875 
M 25.59375 1.515625 
Q 30.90625 1.515625 34.828125 6.953125 
Q 38.765625 12.40625 40.84375 19.75 
Q 42.921875 27.09375 42.921875 32.171875 
Q 42.921875 35.984375 41.25 38.796875 
Q 39.59375 41.609375 36.078125 41.609375 
Q 31.734375 41.609375 28.40625 38.3125 
Q 25.09375 35.015625 23.09375 30.5625 
Q 21.09375 26.125 19.828125 21.296875 
L 17.09375 10.109375 
Q 17.71875 6.5 19.9375 4 
Q 22.171875 1.515625 25.59375 1.515625 
" id="Cmmi10-bd"/>
     <path d="M 9.8125 72.90625 
L 24.515625 72.90625 
L 43.109375 23.296875 
L 61.8125 72.90625 
L 76.515625 72.90625 
L 76.515625 0 
L 66.890625 0 
L 66.890625 64.015625 
L 48.09375 14.015625 
L 38.1875 14.015625 
L 19.390625 64.015625 
L 19.390625 0 
L 9.8125 0 
z
" id="BitstreamVeraSans-Roman-4d"/>
     <path d="M 54.890625 33.015625 
L 54.890625 0 
L 45.90625 0 
L 45.90625 32.71875 
Q 45.90625 40.484375 42.875 44.328125 
Q 39.84375 48.1875 33.796875 48.1875 
Q 26.515625 48.1875 22.3125 43.546875 
Q 18.109375 38.921875 18.109375 30.90625 
L 18.109375 0 
L 9.078125 0 
L 9.078125 54.6875 
L 18.109375 54.6875 
L 18.109375 46.1875 
Q 21.34375 51.125 25.703125 53.5625 
Q 30.078125 56 35.796875 56 
Q 45.21875 56 50.046875 50.171875 
Q 54.890625 44.34375 54.890625 33.015625 
" id="BitstreamVeraSans-Roman-6e"/>
     <path d="M 34.28125 27.484375 
Q 23.390625 27.484375 19.1875 25 
Q 14.984375 22.515625 14.984375 16.5 
Q 14.984375 11.71875 18.140625 8.90625 
Q 21.296875 6.109375 26.703125 6.109375 
Q 34.1875 6.109375 38.703125 11.40625 
Q 43.21875 16.703125 43.21875 25.484375 
L 43.21875 27.484375 
z
M 52.203125 31.203125 
L 52.203125 0 
L 43.21875 0 
L 43.21875 8.296875 
Q 40.140625 3.328125 35.546875 0.953125 
Q 30.953125 -1.421875 24.3125 -1.421875 
Q 15.921875 -1.421875 10.953125 3.296875 
Q 6 8.015625 6 15.921875 
Q 6 25.140625 12.171875 29.828125 
Q 18.359375 34.515625 30.609375 34.515625 
L 43.21875 34.515625 
L 43.21875 35.40625 
Q 43.21875 41.609375 39.140625 45 
Q 35.0625 48.390625 27.6875 48.390625 
Q 23 48.390625 18.546875 47.265625 
Q 14.109375 46.140625 10.015625 43.890625 
L 10.015625 52.203125 
Q 14.9375 54.109375 19.578125 55.046875 
Q 24.21875 56 28.609375 56 
Q 40.484375 56 46.34375 49.84375 
Q 52.203125 43.703125 52.203125 31.203125 
" id="BitstreamVeraSans-Roman-61"/>
     <path d="M 30.609375 48.390625 
Q 23.390625 48.390625 19.1875 42.75 
Q 14.984375 37.109375 14.984375 27.296875 
Q 14.984375 17.484375 19.15625 11.84375 
Q 23.34375 6.203125 30.609375 6.203125 
Q 37.796875 6.203125 41.984375 11.859375 
Q 46.1875 17.53125 46.1875 27.296875 
Q 46.1875 37.015625 41.984375 42.703125 
Q 37.796875 48.390625 30.609375 48.390625 
M 30.609375 56 
Q 42.328125 56 49.015625 48.375 
Q 55.71875 40.765625 55.71875 27.296875 
Q 55.71875 13.875 49.015625 6.21875 
Q 42.328125 -1.421875 30.609375 -1.421875 
Q 18.84375 -1.421875 12.171875 6.21875 
Q 5.515625 13.875 5.515625 27.296875 
Q 5.515625 40.765625 12.171875 48.375 
Q 18.84375 56 30.609375 56 
" id="BitstreamVeraSans-Roman-6f"/>
     <path d="M 9.421875 75.984375 
L 18.40625 75.984375 
L 18.40625 0 
L 9.421875 0 
z
" id="BitstreamVeraSans-Roman-6c"/>
     <path d="M 3.515625 5.421875 
Q 2.875 5.609375 2.875 6.390625 
L 15.09375 51.8125 
Q 15.671875 53.65625 17.078125 54.78125 
Q 18.5 55.90625 20.3125 55.90625 
Q 22.65625 55.90625 24.4375 54.359375 
Q 26.21875 52.828125 26.21875 50.484375 
Q 26.21875 49.46875 25.6875 48.1875 
L 7.625 4.984375 
Q 7.28125 4.296875 6.6875 4.296875 
Q 6.15625 4.296875 5 4.78125 
Q 3.859375 5.28125 3.515625 5.421875 
" id="Cmsy10-30"/>
     <path d="M 9.8125 72.90625 
L 55.90625 72.90625 
L 55.90625 64.59375 
L 19.671875 64.59375 
L 19.671875 43.015625 
L 54.390625 43.015625 
L 54.390625 34.71875 
L 19.671875 34.71875 
L 19.671875 8.296875 
L 56.78125 8.296875 
L 56.78125 0 
L 9.8125 0 
z
" id="BitstreamVeraSans-Roman-45"/>
     <path d="M 17.390625 -1.125 
Q 11.078125 -1.125 7.4375 3.640625 
Q 3.8125 8.40625 3.8125 14.890625 
Q 3.8125 21.296875 7.125 28.171875 
Q 10.453125 35.0625 16.09375 39.625 
Q 21.734375 44.1875 28.21875 44.1875 
Q 31.15625 44.1875 33.515625 42.546875 
Q 35.890625 40.921875 37.203125 38.1875 
L 42.828125 60.5 
Q 43.21875 62.203125 43.3125 63.1875 
Q 43.3125 64.796875 36.8125 64.796875 
Q 35.796875 64.796875 35.796875 66.109375 
Q 35.84375 66.359375 36.015625 66.984375 
Q 36.1875 67.625 36.453125 67.96875 
Q 36.71875 68.3125 37.203125 68.3125 
L 50.6875 69.390625 
Q 51.90625 69.390625 51.90625 68.109375 
L 37.5 10.59375 
Q 36.8125 8.9375 36.8125 5.8125 
Q 36.8125 1.515625 39.703125 1.515625 
Q 42.828125 1.515625 44.453125 5.484375 
Q 46.09375 9.46875 47.21875 14.703125 
Q 47.40625 15.28125 48 15.28125 
L 49.21875 15.28125 
Q 49.609375 15.28125 49.84375 14.9375 
Q 50.09375 14.59375 50.09375 14.3125 
Q 48.34375 7.328125 46.265625 3.09375 
Q 44.1875 -1.125 39.5 -1.125 
Q 36.140625 -1.125 33.546875 0.84375 
Q 30.953125 2.828125 30.328125 6.109375 
Q 23.875 -1.125 17.390625 -1.125 
M 17.484375 1.515625 
Q 21.09375 1.515625 24.484375 4.21875 
Q 27.875 6.9375 30.328125 10.59375 
Q 30.421875 10.6875 30.421875 10.984375 
L 35.890625 33.015625 
Q 35.296875 36.53125 33.296875 39.0625 
Q 31.296875 41.609375 27.984375 41.609375 
Q 24.609375 41.609375 21.703125 38.84375 
Q 18.796875 36.078125 16.796875 32.328125 
Q 14.84375 28.328125 13.0625 21.34375 
Q 11.28125 14.359375 11.28125 10.5 
Q 11.28125 7.03125 12.765625 4.265625 
Q 14.265625 1.515625 17.484375 1.515625 
" id="Cmmi10-64"/>
     <path d="M 54.890625 54.6875 
L 35.109375 28.078125 
L 55.90625 0 
L 45.3125 0 
L 29.390625 21.484375 
L 13.484375 0 
L 2.875 0 
L 24.125 28.609375 
L 4.6875 54.6875 
L 15.28125 54.6875 
L 29.78125 35.203125 
L 44.28125 54.6875 
z
" id="BitstreamVeraSans-Roman-78"/>
     <path d="M 52 44.1875 
Q 55.375 50.25 60.0625 53.125 
Q 64.75 56 71.09375 56 
Q 79.640625 56 84.28125 50.015625 
Q 88.921875 44.046875 88.921875 33.015625 
L 88.921875 0 
L 79.890625 0 
L 79.890625 32.71875 
Q 79.890625 40.578125 77.09375 44.375 
Q 74.3125 48.1875 68.609375 48.1875 
Q 61.625 48.1875 57.5625 43.546875 
Q 53.515625 38.921875 53.515625 30.90625 
L 53.515625 0 
L 44.484375 0 
L 44.484375 32.71875 
Q 44.484375 40.625 41.703125 44.40625 
Q 38.921875 48.1875 33.109375 48.1875 
Q 26.21875 48.1875 22.15625 43.53125 
Q 18.109375 38.875 18.109375 30.90625 
L 18.109375 0 
L 9.078125 0 
L 9.078125 54.6875 
L 18.109375 54.6875 
L 18.109375 46.1875 
Q 21.1875 51.21875 25.484375 53.609375 
Q 29.78125 56 35.6875 56 
Q 41.65625 56 45.828125 52.96875 
Q 50 49.953125 52 44.1875 
" id="BitstreamVeraSans-Roman-6d"/>
     <path d="M 2.6875 0.203125 
Q 2.6875 1.953125 3.921875 4.984375 
Q 5.171875 8.015625 6.6875 8.015625 
Q 6.78125 8.015625 6.984375 7.90625 
Q 8.5 6.390625 10.5625 5.484375 
Q 12.640625 4.59375 14.703125 4.59375 
Q 16.84375 4.59375 19.65625 9.953125 
Q 22.46875 15.328125 25 22.140625 
Q 27.546875 28.953125 28.609375 32.328125 
Q 30.421875 37.796875 31.953125 43.4375 
Q 33.5 49.078125 34.640625 54.640625 
Q 35.796875 60.203125 36.625 66.3125 
Q 36.625 66.890625 37.3125 67.578125 
Q 38.28125 68.609375 39.890625 69.578125 
Q 41.21875 70.21875 42.828125 70.515625 
L 43.5 70.515625 
Q 44.1875 70.171875 44.28125 69.828125 
Q 46 59.578125 48.125 49.4375 
Q 50.25 39.3125 53 29.8125 
Q 55.765625 20.3125 59.078125 13.625 
Q 67.484375 21.625 74.421875 29.390625 
Q 80.078125 35.796875 84.4375 40.875 
Q 88.8125 45.953125 92.359375 50.125 
Q 95.90625 54.296875 101.078125 60.5 
Q 106.25 66.703125 108.5 69.484375 
Q 109.421875 70.515625 110.015625 70.515625 
Q 110.796875 70.515625 110.796875 68.796875 
Q 110.796875 67.4375 110.203125 65.375 
Q 105.765625 43.40625 103.8125 20.609375 
Q 103.515625 17.1875 103.515625 13.71875 
Q 103.515625 9.90625 104 5.421875 
Q 104.15625 3.375 106.390625 2.984375 
Q 109.125 4.5 110.984375 4.6875 
L 111.625 4.6875 
Q 112.3125 4.34375 112.3125 3.90625 
Q 112.3125 1.90625 107.375 -0.484375 
Q 102.4375 -2.875 100 -2.875 
L 99.421875 -2.875 
Q 96.296875 -2.875 95.4375 0.703125 
Q 94.578125 4.296875 94.578125 9.421875 
Q 94.578125 23.296875 99.421875 51.125 
Q 92.671875 43.0625 88.453125 38.0625 
Q 84.234375 33.0625 79.953125 28.15625 
Q 75.6875 23.25 70.671875 17.875 
Q 65.671875 12.5 61.8125 8.6875 
Q 57.03125 3.65625 56 3.421875 
L 55.328125 3.421875 
Q 53.609375 4.25 50.609375 11.40625 
Q 47.609375 18.5625 46.390625 22.703125 
Q 44.046875 30.953125 42.140625 38.765625 
Q 40.234375 46.578125 38.484375 55.078125 
Q 37.640625 50.6875 34.703125 40.5 
Q 31.78125 30.328125 27.921875 19.921875 
Q 24.078125 9.515625 19.75 2.265625 
Q 15.4375 -4.984375 11.53125 -4.984375 
Q 9.03125 -4.984375 5.859375 -3.484375 
Q 2.6875 -2 2.6875 0.203125 
" id="Cmsy10-4d"/>
     <path d="M 37.109375 75.984375 
L 37.109375 68.5 
L 28.515625 68.5 
Q 23.6875 68.5 21.796875 66.546875 
Q 19.921875 64.59375 19.921875 59.515625 
L 19.921875 54.6875 
L 34.71875 54.6875 
L 34.71875 47.703125 
L 19.921875 47.703125 
L 19.921875 0 
L 10.890625 0 
L 10.890625 47.703125 
L 2.296875 47.703125 
L 2.296875 54.6875 
L 10.890625 54.6875 
L 10.890625 58.5 
Q 10.890625 67.625 15.140625 71.796875 
Q 19.390625 75.984375 28.609375 75.984375 
z
" id="BitstreamVeraSans-Roman-66"/>
     <path d="M 41.109375 46.296875 
Q 39.59375 47.171875 37.8125 47.578125 
Q 36.03125 48 33.890625 48 
Q 26.265625 48 22.1875 43.046875 
Q 18.109375 38.09375 18.109375 28.8125 
L 18.109375 0 
L 9.078125 0 
L 9.078125 54.6875 
L 18.109375 54.6875 
L 18.109375 46.1875 
Q 20.953125 51.171875 25.484375 53.578125 
Q 30.03125 56 36.53125 56 
Q 37.453125 56 38.578125 55.875 
Q 39.703125 55.765625 41.0625 55.515625 
z
" id="BitstreamVeraSans-Roman-72"/>
     <path d="M 44.28125 53.078125 
L 44.28125 44.578125 
Q 40.484375 46.53125 36.375 47.5 
Q 32.28125 48.484375 27.875 48.484375 
Q 21.1875 48.484375 17.84375 46.4375 
Q 14.5 44.390625 14.5 40.28125 
Q 14.5 37.15625 16.890625 35.375 
Q 19.28125 33.59375 26.515625 31.984375 
L 29.59375 31.296875 
Q 39.15625 29.25 43.1875 25.515625 
Q 47.21875 21.78125 47.21875 15.09375 
Q 47.21875 7.46875 41.1875 3.015625 
Q 35.15625 -1.421875 24.609375 -1.421875 
Q 20.21875 -1.421875 15.453125 -0.5625 
Q 10.6875 0.296875 5.421875 2 
L 5.421875 11.28125 
Q 10.40625 8.6875 15.234375 7.390625 
Q 20.0625 6.109375 24.8125 6.109375 
Q 31.15625 6.109375 34.5625 8.28125 
Q 37.984375 10.453125 37.984375 14.40625 
Q 37.984375 18.0625 35.515625 20.015625 
Q 33.0625 21.96875 24.703125 23.78125 
L 21.578125 24.515625 
Q 13.234375 26.265625 9.515625 29.90625 
Q 5.8125 33.546875 5.8125 39.890625 
Q 5.8125 47.609375 11.28125 51.796875 
Q 16.75 56 26.8125 56 
Q 31.78125 56 36.171875 55.265625 
Q 40.578125 54.546875 44.28125 53.078125 
" id="BitstreamVeraSans-Roman-73"/>
    </defs>
    <g style="fill:#262626;" transform="translate(705.344557945 46.4)scale(0.4 -0.4)">
     <use transform="translate(0.0 0.015625)" xlink:href="#BitstreamVeraSans-Roman-4d"/>
     <use transform="translate(86.279296875 0.015625)" xlink:href="#BitstreamVeraSans-Roman-61"/>
     <use transform="translate(147.55859375 0.015625)" xlink:href="#BitstreamVeraSans-Roman-74"/>
     <use transform="translate(186.767578125 0.015625)" xlink:href="#BitstreamVeraSans-Roman-72"/>
     <use transform="translate(227.880859375 0.015625)" xlink:href="#BitstreamVeraSans-Roman-69"/>
     <use transform="translate(255.6640625 0.015625)" xlink:href="#BitstreamVeraSans-Roman-78"/>
     <use transform="translate(314.84375 0.015625)" xlink:href="#BitstreamVeraSans-Roman-20"/>
     <use transform="translate(346.630859375 0.015625)" xlink:href="#BitstreamVeraSans-Roman-45"/>
     <use transform="translate(409.814453125 0.015625)" xlink:href="#BitstreamVeraSans-Roman-6c"/>
     <use transform="translate(437.59765625 0.015625)" xlink:href="#BitstreamVeraSans-Roman-65"/>
     <use transform="translate(499.12109375 0.015625)" xlink:href="#BitstreamVeraSans-Roman-6d"/>
     <use transform="translate(596.533203125 0.015625)" xlink:href="#BitstreamVeraSans-Roman-65"/>
     <use transform="translate(658.056640625 0.015625)" xlink:href="#BitstreamVeraSans-Roman-6e"/>
     <use transform="translate(721.435546875 0.015625)" xlink:href="#BitstreamVeraSans-Roman-74"/>
     <use transform="translate(760.64453125 0.015625)" xlink:href="#BitstreamVeraSans-Roman-73"/>
     <use transform="translate(812.744140625 0.015625)" xlink:href="#BitstreamVeraSans-Roman-20"/>
     <use transform="translate(844.53125 0.015625)" xlink:href="#BitstreamVeraSans-Roman-6f"/>
     <use transform="translate(905.712890625 0.015625)" xlink:href="#BitstreamVeraSans-Roman-66"/>
     <use transform="translate(940.91796875 0.015625)" xlink:href="#BitstreamVeraSans-Roman-20"/>
     <use transform="translate(977.072265625 2.890625)" xlink:href="#Cmr10-5e"/>
     <use transform="translate(972.705078125 0.015625)" xlink:href="#Cmmi10-bd"/>
     <use transform="translate(1028.87820313 -16.990625)scale(0.7)" xlink:href="#Cmsy10-4d"/>
     <use transform="translate(1116.01677344 9.79421875)scale(0.49)" xlink:href="#Cmsy10-30"/>
     <use transform="translate(1123.6058125 -28.895)scale(0.49)" xlink:href="#Cmmi10-64"/>
    </g>
   </g>
  </g>
  <g id="axes_2">
   <g id="patch_9">
    <path d="M 7.2 662.5398 
L 603.889116 662.5398 
L 603.889116 63.383133 
L 7.2 63.383133 
z
" style="fill:#eaeaf2;"/>
   </g>
   <g id="matplotlib.axis_3">
    <g id="xtick_9">
     <g id="line2d_29">
      <g>
       <use style="fill:#262626;stroke:#262626;" x="44.4930697431" xlink:href="#mffeefdcca9" y="662.5398"/>
      </g>
     </g>
    </g>
    <g id="xtick_10">
     <g id="line2d_30">
      <g>
       <use style="fill:#262626;stroke:#262626;" x="119.079209229" xlink:href="#mffeefdcca9" y="662.5398"/>
      </g>
     </g>
    </g>
    <g id="xtick_11">
     <g id="line2d_31">
      <g>
       <use style="fill:#262626;stroke:#262626;" x="193.665348716" xlink:href="#mffeefdcca9" y="662.5398"/>
      </g>
     </g>
    </g>
    <g id="xtick_12">
     <g id="line2d_32">
      <g>
       <use style="fill:#262626;stroke:#262626;" x="268.251488202" xlink:href="#mffeefdcca9" y="662.5398"/>
      </g>
     </g>
    </g>
    <g id="xtick_13">
     <g id="line2d_33">
      <g>
       <use style="fill:#262626;stroke:#262626;" x="342.837627688" xlink:href="#mffeefdcca9" y="662.5398"/>
      </g>
     </g>
    </g>
    <g id="xtick_14">
     <g id="line2d_34">
      <g>
       <use style="fill:#262626;stroke:#262626;" x="417.423767174" xlink:href="#mffeefdcca9" y="662.5398"/>
      </g>
     </g>
    </g>
    <g id="xtick_15">
     <g id="line2d_35">
      <g>
       <use style="fill:#262626;stroke:#262626;" x="492.00990666" xlink:href="#mffeefdcca9" y="662.5398"/>
      </g>
     </g>
    </g>
    <g id="xtick_16">
     <g id="line2d_36">
      <g>
       <use style="fill:#262626;stroke:#262626;" x="566.596046147" xlink:href="#mffeefdcca9" y="662.5398"/>
      </g>
     </g>
    </g>
   </g>
   <g id="matplotlib.axis_4">
    <g id="ytick_9">
     <g id="line2d_37">
      <g>
       <use style="fill:#262626;stroke:#262626;" x="7.2" xlink:href="#mffeefdcca9" y="625.092508333"/>
      </g>
     </g>
    </g>
    <g id="ytick_10">
     <g id="line2d_38">
      <g>
       <use style="fill:#262626;stroke:#262626;" x="7.2" xlink:href="#mffeefdcca9" y="550.197925"/>
      </g>
     </g>
    </g>
    <g id="ytick_11">
     <g id="line2d_39">
      <g>
       <use style="fill:#262626;stroke:#262626;" x="7.2" xlink:href="#mffeefdcca9" y="475.303341667"/>
      </g>
     </g>
    </g>
    <g id="ytick_12">
     <g id="line2d_40">
      <g>
       <use style="fill:#262626;stroke:#262626;" x="7.2" xlink:href="#mffeefdcca9" y="400.408758333"/>
      </g>
     </g>
    </g>
    <g id="ytick_13">
     <g id="line2d_41">
      <g>
       <use style="fill:#262626;stroke:#262626;" x="7.2" xlink:href="#mffeefdcca9" y="325.514175"/>
      </g>
     </g>
    </g>
    <g id="ytick_14">
     <g id="line2d_42">
      <g>
       <use style="fill:#262626;stroke:#262626;" x="7.2" xlink:href="#mffeefdcca9" y="250.619591667"/>
      </g>
     </g>
    </g>
    <g id="ytick_15">
     <g id="line2d_43">
      <g>
       <use style="fill:#262626;stroke:#262626;" x="7.2" xlink:href="#mffeefdcca9" y="175.725008333"/>
      </g>
     </g>
    </g>
    <g id="ytick_16">
     <g id="line2d_44">
      <g>
       <use style="fill:#262626;stroke:#262626;" x="7.2" xlink:href="#mffeefdcca9" y="100.830425"/>
      </g>
     </g>
    </g>
   </g>
   <g id="QuadMesh_2">
    <path clip-path="url(#paff39315b9)" d="M 7.2 662.5398 
L 81.786139 662.5398 
L 81.786139 587.645217 
L 7.2 587.645217 
L 7.2 662.5398 
" style="fill:#cf90a2;"/>
    <path clip-path="url(#paff39315b9)" d="M 81.786139 662.5398 
L 156.372279 662.5398 
L 156.372279 587.645217 
L 81.786139 587.645217 
L 81.786139 662.5398 
" style="fill:#d295a5;"/>
    <path clip-path="url(#paff39315b9)" d="M 156.372279 662.5398 
L 230.958418 662.5398 
L 230.958418 587.645217 
L 156.372279 587.645217 
L 156.372279 662.5398 
" style="fill:#f5e8e1;"/>
    <path clip-path="url(#paff39315b9)" d="M 230.958418 662.5398 
L 305.544558 662.5398 
L 305.544558 587.645217 
L 230.958418 587.645217 
L 230.958418 662.5398 
" style="fill:#f5e6e0;"/>
    <path clip-path="url(#paff39315b9)" d="M 305.544558 662.5398 
L 380.130697 662.5398 
L 380.130697 587.645217 
L 305.544558 587.645217 
L 305.544558 662.5398 
" style="fill:#f5e8e1;"/>
    <path clip-path="url(#paff39315b9)" d="M 380.130697 662.5398 
L 454.716837 662.5398 
L 454.716837 587.645217 
L 380.130697 587.645217 
L 380.130697 662.5398 
" style="fill:#f5e8e1;"/>
    <path clip-path="url(#paff39315b9)" d="M 454.716837 662.5398 
L 529.302976 662.5398 
L 529.302976 587.645217 
L 454.716837 587.645217 
L 454.716837 662.5398 
" style="fill:#f5e8e1;"/>
    <path clip-path="url(#paff39315b9)" d="M 529.302976 662.5398 
L 603.889116 662.5398 
L 603.889116 587.645217 
L 529.302976 587.645217 
L 529.302976 662.5398 
" style="fill:#efd5cf;"/>
    <path clip-path="url(#paff39315b9)" d="M 7.2 587.645217 
L 81.786139 587.645217 
L 81.786139 512.750633 
L 7.2 512.750633 
L 7.2 587.645217 
" style="fill:#d194a4;"/>
    <path clip-path="url(#paff39315b9)" d="M 81.786139 587.645217 
L 156.372279 587.645217 
L 156.372279 512.750633 
L 81.786139 512.750633 
L 81.786139 587.645217 
" style="fill:#cf90a2;"/>
    <path clip-path="url(#paff39315b9)" d="M 156.372279 587.645217 
L 230.958418 587.645217 
L 230.958418 512.750633 
L 156.372279 512.750633 
L 156.372279 587.645217 
" style="fill:#f5e6e0;"/>
    <path clip-path="url(#paff39315b9)" d="M 230.958418 587.645217 
L 305.544558 587.645217 
L 305.544558 512.750633 
L 230.958418 512.750633 
L 230.958418 587.645217 
" style="fill:#f5e6e0;"/>
    <path clip-path="url(#paff39315b9)" d="M 305.544558 587.645217 
L 380.130697 587.645217 
L 380.130697 512.750633 
L 305.544558 512.750633 
L 305.544558 587.645217 
" style="fill:#f5e8e1;"/>
    <path clip-path="url(#paff39315b9)" d="M 380.130697 587.645217 
L 454.716837 587.645217 
L 454.716837 512.750633 
L 380.130697 512.750633 
L 380.130697 587.645217 
" style="fill:#f5e8e1;"/>
    <path clip-path="url(#paff39315b9)" d="M 454.716837 587.645217 
L 529.302976 587.645217 
L 529.302976 512.750633 
L 454.716837 512.750633 
L 454.716837 587.645217 
" style="fill:#eed2cc;"/>
    <path clip-path="url(#paff39315b9)" d="M 529.302976 587.645217 
L 603.889116 587.645217 
L 603.889116 512.750633 
L 529.302976 512.750633 
L 529.302976 587.645217 
" style="fill:#f5e8e1;"/>
    <path clip-path="url(#paff39315b9)" d="M 7.2 512.750633 
L 81.786139 512.750633 
L 81.786139 437.85605 
L 7.2 437.85605 
L 7.2 512.750633 
" style="fill:#cf91a3;"/>
    <path clip-path="url(#paff39315b9)" d="M 81.786139 512.750633 
L 156.372279 512.750633 
L 156.372279 437.85605 
L 81.786139 437.85605 
L 81.786139 512.750633 
" style="fill:#d093a4;"/>
    <path clip-path="url(#paff39315b9)" d="M 156.372279 512.750633 
L 230.958418 512.750633 
L 230.958418 437.85605 
L 156.372279 437.85605 
L 156.372279 512.750633 
" style="fill:#f5e6e0;"/>
    <path clip-path="url(#paff39315b9)" d="M 230.958418 512.750633 
L 305.544558 512.750633 
L 305.544558 437.85605 
L 230.958418 437.85605 
L 230.958418 512.750633 
" style="fill:#f5e6e0;"/>
    <path clip-path="url(#paff39315b9)" d="M 305.544558 512.750633 
L 380.130697 512.750633 
L 380.130697 437.85605 
L 305.544558 437.85605 
L 305.544558 512.750633 
" style="fill:#f5e6e0;"/>
    <path clip-path="url(#paff39315b9)" d="M 380.130697 512.750633 
L 454.716837 512.750633 
L 454.716837 437.85605 
L 380.130697 437.85605 
L 380.130697 512.750633 
" style="fill:#eed2cc;"/>
    <path clip-path="url(#paff39315b9)" d="M 454.716837 512.750633 
L 529.302976 512.750633 
L 529.302976 437.85605 
L 454.716837 437.85605 
L 454.716837 512.750633 
" style="fill:#f5e8e1;"/>
    <path clip-path="url(#paff39315b9)" d="M 529.302976 512.750633 
L 603.889116 512.750633 
L 603.889116 437.85605 
L 529.302976 437.85605 
L 529.302976 512.750633 
" style="fill:#f5e8e1;"/>
    <path clip-path="url(#paff39315b9)" d="M 7.2 437.85605 
L 81.786139 437.85605 
L 81.786139 362.961467 
L 7.2 362.961467 
L 7.2 437.85605 
" style="fill:#d093a4;"/>
    <path clip-path="url(#paff39315b9)" d="M 81.786139 437.85605 
L 156.372279 437.85605 
L 156.372279 362.961467 
L 81.786139 362.961467 
L 81.786139 437.85605 
" style="fill:#cf90a2;"/>
    <path clip-path="url(#paff39315b9)" d="M 156.372279 437.85605 
L 230.958418 437.85605 
L 230.958418 362.961467 
L 156.372279 362.961467 
L 156.372279 437.85605 
" style="fill:#f5e8e1;"/>
    <path clip-path="url(#paff39315b9)" d="M 230.958418 437.85605 
L 305.544558 437.85605 
L 305.544558 362.961467 
L 230.958418 362.961467 
L 230.958418 437.85605 
" style="fill:#f5e6e0;"/>
    <path clip-path="url(#paff39315b9)" d="M 305.544558 437.85605 
L 380.130697 437.85605 
L 380.130697 362.961467 
L 305.544558 362.961467 
L 305.544558 437.85605 
" style="fill:#efd6d0;"/>
    <path clip-path="url(#paff39315b9)" d="M 380.130697 437.85605 
L 454.716837 437.85605 
L 454.716837 362.961467 
L 380.130697 362.961467 
L 380.130697 437.85605 
" style="fill:#f5e6e0;"/>
    <path clip-path="url(#paff39315b9)" d="M 454.716837 437.85605 
L 529.302976 437.85605 
L 529.302976 362.961467 
L 454.716837 362.961467 
L 454.716837 437.85605 
" style="fill:#f5e8e1;"/>
    <path clip-path="url(#paff39315b9)" d="M 529.302976 437.85605 
L 603.889116 437.85605 
L 603.889116 362.961467 
L 529.302976 362.961467 
L 529.302976 437.85605 
" style="fill:#f5e8e1;"/>
    <path clip-path="url(#paff39315b9)" d="M 7.2 362.961467 
L 81.786139 362.961467 
L 81.786139 288.066883 
L 7.2 288.066883 
L 7.2 362.961467 
" style="fill:#d194a4;"/>
    <path clip-path="url(#paff39315b9)" d="M 81.786139 362.961467 
L 156.372279 362.961467 
L 156.372279 288.066883 
L 81.786139 288.066883 
L 81.786139 362.961467 
" style="fill:#d194a4;"/>
    <path clip-path="url(#paff39315b9)" d="M 156.372279 362.961467 
L 230.958418 362.961467 
L 230.958418 288.066883 
L 156.372279 288.066883 
L 156.372279 362.961467 
" style="fill:#f5e5de;"/>
    <path clip-path="url(#paff39315b9)" d="M 230.958418 362.961467 
L 305.544558 362.961467 
L 305.544558 288.066883 
L 230.958418 288.066883 
L 230.958418 362.961467 
" style="fill:#edcfc9;"/>
    <path clip-path="url(#paff39315b9)" d="M 305.544558 362.961467 
L 380.130697 362.961467 
L 380.130697 288.066883 
L 305.544558 288.066883 
L 305.544558 362.961467 
" style="fill:#f5e6e0;"/>
    <path clip-path="url(#paff39315b9)" d="M 380.130697 362.961467 
L 454.716837 362.961467 
L 454.716837 288.066883 
L 380.130697 288.066883 
L 380.130697 362.961467 
" style="fill:#f5e6e0;"/>
    <path clip-path="url(#paff39315b9)" d="M 454.716837 362.961467 
L 529.302976 362.961467 
L 529.302976 288.066883 
L 454.716837 288.066883 
L 454.716837 362.961467 
" style="fill:#f5e6e0;"/>
    <path clip-path="url(#paff39315b9)" d="M 529.302976 362.961467 
L 603.889116 362.961467 
L 603.889116 288.066883 
L 529.302976 288.066883 
L 529.302976 362.961467 
" style="fill:#f5e6e0;"/>
    <path clip-path="url(#paff39315b9)" d="M 7.2 288.066883 
L 81.786139 288.066883 
L 81.786139 213.1723 
L 7.2 213.1723 
L 7.2 288.066883 
" style="fill:#d397a6;"/>
    <path clip-path="url(#paff39315b9)" d="M 81.786139 288.066883 
L 156.372279 288.066883 
L 156.372279 213.1723 
L 81.786139 213.1723 
L 81.786139 288.066883 
" style="fill:#cf91a3;"/>
    <path clip-path="url(#paff39315b9)" d="M 156.372279 288.066883 
L 230.958418 288.066883 
L 230.958418 213.1723 
L 156.372279 213.1723 
L 156.372279 288.066883 
" style="fill:#edd0ca;"/>
    <path clip-path="url(#paff39315b9)" d="M 230.958418 288.066883 
L 305.544558 288.066883 
L 305.544558 213.1723 
L 230.958418 213.1723 
L 230.958418 288.066883 
" style="fill:#f5e5de;"/>
    <path clip-path="url(#paff39315b9)" d="M 305.544558 288.066883 
L 380.130697 288.066883 
L 380.130697 213.1723 
L 305.544558 213.1723 
L 305.544558 288.066883 
" style="fill:#f5e8e1;"/>
    <path clip-path="url(#paff39315b9)" d="M 380.130697 288.066883 
L 454.716837 288.066883 
L 454.716837 213.1723 
L 380.130697 213.1723 
L 380.130697 288.066883 
" style="fill:#f5e6e0;"/>
    <path clip-path="url(#paff39315b9)" d="M 454.716837 288.066883 
L 529.302976 288.066883 
L 529.302976 213.1723 
L 454.716837 213.1723 
L 454.716837 288.066883 
" style="fill:#f5e6e0;"/>
    <path clip-path="url(#paff39315b9)" d="M 529.302976 288.066883 
L 603.889116 288.066883 
L 603.889116 213.1723 
L 529.302976 213.1723 
L 529.302976 288.066883 
" style="fill:#f5e8e1;"/>
    <path clip-path="url(#paff39315b9)" d="M 7.2 213.1723 
L 81.786139 213.1723 
L 81.786139 138.277717 
L 7.2 138.277717 
L 7.2 213.1723 
" style="fill:#d093a4;"/>
    <path clip-path="url(#paff39315b9)" d="M 81.786139 213.1723 
L 156.372279 213.1723 
L 156.372279 138.277717 
L 81.786139 138.277717 
L 81.786139 213.1723 
" style="fill:#3b264b;"/>
    <path clip-path="url(#paff39315b9)" d="M 156.372279 213.1723 
L 230.958418 213.1723 
L 230.958418 138.277717 
L 156.372279 138.277717 
L 156.372279 213.1723 
" style="fill:#cf91a3;"/>
    <path clip-path="url(#paff39315b9)" d="M 230.958418 213.1723 
L 305.544558 213.1723 
L 305.544558 138.277717 
L 230.958418 138.277717 
L 230.958418 213.1723 
" style="fill:#d194a4;"/>
    <path clip-path="url(#paff39315b9)" d="M 305.544558 213.1723 
L 380.130697 213.1723 
L 380.130697 138.277717 
L 305.544558 138.277717 
L 305.544558 213.1723 
" style="fill:#cf90a2;"/>
    <path clip-path="url(#paff39315b9)" d="M 380.130697 213.1723 
L 454.716837 213.1723 
L 454.716837 138.277717 
L 380.130697 138.277717 
L 380.130697 213.1723 
" style="fill:#d093a4;"/>
    <path clip-path="url(#paff39315b9)" d="M 454.716837 213.1723 
L 529.302976 213.1723 
L 529.302976 138.277717 
L 454.716837 138.277717 
L 454.716837 213.1723 
" style="fill:#cf90a2;"/>
    <path clip-path="url(#paff39315b9)" d="M 529.302976 213.1723 
L 603.889116 213.1723 
L 603.889116 138.277717 
L 529.302976 138.277717 
L 529.302976 213.1723 
" style="fill:#d295a5;"/>
    <path clip-path="url(#paff39315b9)" d="M 7.2 138.277717 
L 81.786139 138.277717 
L 81.786139 63.383133 
L 7.2 63.383133 
L 7.2 138.277717 
" style="fill:#2d1e3e;"/>
    <path clip-path="url(#paff39315b9)" d="M 81.786139 138.277717 
L 156.372279 138.277717 
L 156.372279 63.383133 
L 81.786139 63.383133 
L 81.786139 138.277717 
" style="fill:#d093a4;"/>
    <path clip-path="url(#paff39315b9)" d="M 156.372279 138.277717 
L 230.958418 138.277717 
L 230.958418 63.383133 
L 156.372279 63.383133 
L 156.372279 138.277717 
" style="fill:#d397a6;"/>
    <path clip-path="url(#paff39315b9)" d="M 230.958418 138.277717 
L 305.544558 138.277717 
L 305.544558 63.383133 
L 230.958418 63.383133 
L 230.958418 138.277717 
" style="fill:#d194a4;"/>
    <path clip-path="url(#paff39315b9)" d="M 305.544558 138.277717 
L 380.130697 138.277717 
L 380.130697 63.383133 
L 305.544558 63.383133 
L 305.544558 138.277717 
" style="fill:#d093a4;"/>
    <path clip-path="url(#paff39315b9)" d="M 380.130697 138.277717 
L 454.716837 138.277717 
L 454.716837 63.383133 
L 380.130697 63.383133 
L 380.130697 138.277717 
" style="fill:#cf91a3;"/>
    <path clip-path="url(#paff39315b9)" d="M 454.716837 138.277717 
L 529.302976 138.277717 
L 529.302976 63.383133 
L 454.716837 63.383133 
L 454.716837 138.277717 
" style="fill:#d194a4;"/>
    <path clip-path="url(#paff39315b9)" d="M 529.302976 138.277717 
L 603.889116 138.277717 
L 603.889116 63.383133 
L 529.302976 63.383133 
L 529.302976 138.277717 
" style="fill:#cf90a2;"/>
   </g>
   <g id="patch_10">
    <path d="M 156.372279 662.5398 
L 603.889116 662.5398 
L 603.889116 216.917029 
L 156.372279 216.917029 
L 156.372279 662.5398 
z
" style="fill:none;stroke:#d55e00;stroke-linejoin:miter;stroke-width:10.0;"/>
   </g>
   <g id="patch_11">
    <path d="M 7.2 138.277717 
L 81.786139 138.277717 
L 81.786139 63.383133 
L 7.2 63.383133 
L 7.2 138.277717 
z
" style="fill:none;stroke:#d55e00;stroke-linejoin:miter;stroke-width:10.0;"/>
   </g>
   <g id="patch_12">
    <path d="M 81.786139 213.1723 
L 156.372279 213.1723 
L 156.372279 138.277717 
L 81.786139 138.277717 
L 81.786139 213.1723 
z
" style="fill:none;stroke:#d55e00;stroke-linejoin:miter;stroke-width:10.0;"/>
   </g>
   <g id="line2d_45">
    <path d="M 163.830893 211.299935 
L 603.889116 211.299935 
" style="fill:none;stroke:#0072b2;stroke-linecap:round;stroke-width:10.0;"/>
   </g>
   <g id="line2d_46">
    <path d="M 603.889116 210.925463 
L 603.889116 63.383133 
" style="fill:none;stroke:#0072b2;stroke-linecap:round;stroke-width:10.0;"/>
   </g>
   <g id="line2d_47">
    <path d="M 87.007169 63.383133 
L 603.889116 63.383133 
" style="fill:none;stroke:#0072b2;stroke-linecap:round;stroke-width:10.0;"/>
   </g>
   <g id="line2d_48">
    <path d="M 87.007169 131.537204 
L 162.33917 131.537204 
" style="fill:none;stroke:#0072b2;stroke-linecap:round;stroke-width:10.0;"/>
   </g>
   <g id="line2d_49">
    <path d="M 87.007169 131.537204 
L 87.007169 63.383133 
" style="fill:none;stroke:#0072b2;stroke-linecap:round;stroke-width:10.0;"/>
   </g>
   <g id="line2d_50">
    <path d="M 162.33917 210.925463 
L 162.33917 131.537204 
" style="fill:none;stroke:#0072b2;stroke-linecap:round;stroke-width:10.0;"/>
   </g>
   <g id="line2d_51">
    <path d="M 7.2 662.5398 
L 7.2 145.767175 
" style="fill:none;stroke:#0072b2;stroke-linecap:round;stroke-width:10.0;"/>
   </g>
   <g id="line2d_52">
    <path d="M 151.151249 662.5398 
L 151.151249 218.414921 
" style="fill:none;stroke:#0072b2;stroke-linecap:round;stroke-width:10.0;"/>
   </g>
   <g id="line2d_53">
    <path d="M 7.2 662.5398 
L 151.151249 662.5398 
" style="fill:none;stroke:#0072b2;stroke-linecap:round;stroke-width:10.0;"/>
   </g>
   <g id="line2d_54">
    <path d="M 7.2 144.269283 
L 77.310971 144.269283 
" style="fill:none;stroke:#0072b2;stroke-linecap:round;stroke-width:10.0;"/>
   </g>
   <g id="line2d_55">
    <path d="M 78.056833 218.414921 
L 148.167804 218.414921 
" style="fill:none;stroke:#0072b2;stroke-linecap:round;stroke-width:10.0;"/>
   </g>
   <g id="line2d_56">
    <path d="M 77.310971 218.414921 
L 77.310971 144.269283 
" style="fill:none;stroke:#0072b2;stroke-linecap:round;stroke-width:10.0;"/>
   </g>
   <g id="text_5">
    <!-- 1 -->
    <defs>
     <path d="M 12.40625 8.296875 
L 28.515625 8.296875 
L 28.515625 63.921875 
L 10.984375 60.40625 
L 10.984375 69.390625 
L 28.421875 72.90625 
L 38.28125 72.90625 
L 38.28125 8.296875 
L 54.390625 8.296875 
L 54.390625 0 
L 12.40625 0 
z
" id="BitstreamVeraSans-Roman-31"/>
    </defs>
    <g style="fill:#ffffff;" transform="translate(35.5855697431 632.818758333)scale(0.28 -0.28)">
     <use xlink:href="#BitstreamVeraSans-Roman-31"/>
    </g>
   </g>
   <g id="text_6">
    <!-- 0.98 -->
    <defs>
     <path d="M 31.78125 66.40625 
Q 24.171875 66.40625 20.328125 58.90625 
Q 16.5 51.421875 16.5 36.375 
Q 16.5 21.390625 20.328125 13.890625 
Q 24.171875 6.390625 31.78125 6.390625 
Q 39.453125 6.390625 43.28125 13.890625 
Q 47.125 21.390625 47.125 36.375 
Q 47.125 51.421875 43.28125 58.90625 
Q 39.453125 66.40625 31.78125 66.40625 
M 31.78125 74.21875 
Q 44.046875 74.21875 50.515625 64.515625 
Q 56.984375 54.828125 56.984375 36.375 
Q 56.984375 17.96875 50.515625 8.265625 
Q 44.046875 -1.421875 31.78125 -1.421875 
Q 19.53125 -1.421875 13.0625 8.265625 
Q 6.59375 17.96875 6.59375 36.375 
Q 6.59375 54.828125 13.0625 64.515625 
Q 19.53125 74.21875 31.78125 74.21875 
" id="BitstreamVeraSans-Roman-30"/>
     <path d="M 10.984375 1.515625 
L 10.984375 10.5 
Q 14.703125 8.734375 18.5 7.8125 
Q 22.3125 6.890625 25.984375 6.890625 
Q 35.75 6.890625 40.890625 13.453125 
Q 46.046875 20.015625 46.78125 33.40625 
Q 43.953125 29.203125 39.59375 26.953125 
Q 35.25 24.703125 29.984375 24.703125 
Q 19.046875 24.703125 12.671875 31.3125 
Q 6.296875 37.9375 6.296875 49.421875 
Q 6.296875 60.640625 12.9375 67.421875 
Q 19.578125 74.21875 30.609375 74.21875 
Q 43.265625 74.21875 49.921875 64.515625 
Q 56.59375 54.828125 56.59375 36.375 
Q 56.59375 19.140625 48.40625 8.859375 
Q 40.234375 -1.421875 26.421875 -1.421875 
Q 22.703125 -1.421875 18.890625 -0.6875 
Q 15.09375 0.046875 10.984375 1.515625 
M 30.609375 32.421875 
Q 37.25 32.421875 41.125 36.953125 
Q 45.015625 41.5 45.015625 49.421875 
Q 45.015625 57.28125 41.125 61.84375 
Q 37.25 66.40625 30.609375 66.40625 
Q 23.96875 66.40625 20.09375 61.84375 
Q 16.21875 57.28125 16.21875 49.421875 
Q 16.21875 41.5 20.09375 36.953125 
Q 23.96875 32.421875 30.609375 32.421875 
" id="BitstreamVeraSans-Roman-39"/>
     <path d="M 10.6875 12.40625 
L 21 12.40625 
L 21 0 
L 10.6875 0 
z
" id="BitstreamVeraSans-Roman-2e"/>
     <path d="M 31.78125 34.625 
Q 24.75 34.625 20.71875 30.859375 
Q 16.703125 27.09375 16.703125 20.515625 
Q 16.703125 13.921875 20.71875 10.15625 
Q 24.75 6.390625 31.78125 6.390625 
Q 38.8125 6.390625 42.859375 10.171875 
Q 46.921875 13.96875 46.921875 20.515625 
Q 46.921875 27.09375 42.890625 30.859375 
Q 38.875 34.625 31.78125 34.625 
M 21.921875 38.8125 
Q 15.578125 40.375 12.03125 44.71875 
Q 8.5 49.078125 8.5 55.328125 
Q 8.5 64.0625 14.71875 69.140625 
Q 20.953125 74.21875 31.78125 74.21875 
Q 42.671875 74.21875 48.875 69.140625 
Q 55.078125 64.0625 55.078125 55.328125 
Q 55.078125 49.078125 51.53125 44.71875 
Q 48 40.375 41.703125 38.8125 
Q 48.828125 37.15625 52.796875 32.3125 
Q 56.78125 27.484375 56.78125 20.515625 
Q 56.78125 9.90625 50.3125 4.234375 
Q 43.84375 -1.421875 31.78125 -1.421875 
Q 19.734375 -1.421875 13.25 4.234375 
Q 6.78125 9.90625 6.78125 20.515625 
Q 6.78125 27.484375 10.78125 32.3125 
Q 14.796875 37.15625 21.921875 38.8125 
M 18.3125 54.390625 
Q 18.3125 48.734375 21.84375 45.5625 
Q 25.390625 42.390625 31.78125 42.390625 
Q 38.140625 42.390625 41.71875 45.5625 
Q 45.3125 48.734375 45.3125 54.390625 
Q 45.3125 60.0625 41.71875 63.234375 
Q 38.140625 66.40625 31.78125 66.40625 
Q 25.390625 66.40625 21.84375 63.234375 
Q 18.3125 60.0625 18.3125 54.390625 
" id="BitstreamVeraSans-Roman-38"/>
    </defs>
    <g style="fill:#ffffff;" transform="translate(87.9073342293 632.818758333)scale(0.28 -0.28)">
     <use xlink:href="#BitstreamVeraSans-Roman-30"/>
     <use x="63.623046875" xlink:href="#BitstreamVeraSans-Roman-2e"/>
     <use x="95.41015625" xlink:href="#BitstreamVeraSans-Roman-39"/>
     <use x="159.033203125" xlink:href="#BitstreamVeraSans-Roman-38"/>
    </g>
   </g>
   <g id="text_7">
    <!-- 0.12 -->
    <defs>
     <path d="M 19.1875 8.296875 
L 53.609375 8.296875 
L 53.609375 0 
L 7.328125 0 
L 7.328125 8.296875 
Q 12.9375 14.109375 22.625 23.890625 
Q 32.328125 33.6875 34.8125 36.53125 
Q 39.546875 41.84375 41.421875 45.53125 
Q 43.3125 49.21875 43.3125 52.78125 
Q 43.3125 58.59375 39.234375 62.25 
Q 35.15625 65.921875 28.609375 65.921875 
Q 23.96875 65.921875 18.8125 64.3125 
Q 13.671875 62.703125 7.8125 59.421875 
L 7.8125 69.390625 
Q 13.765625 71.78125 18.9375 73 
Q 24.125 74.21875 28.421875 74.21875 
Q 39.75 74.21875 46.484375 68.546875 
Q 53.21875 62.890625 53.21875 53.421875 
Q 53.21875 48.921875 51.53125 44.890625 
Q 49.859375 40.875 45.40625 35.40625 
Q 44.1875 33.984375 37.640625 27.21875 
Q 31.109375 20.453125 19.1875 8.296875 
" id="BitstreamVeraSans-Roman-32"/>
    </defs>
    <g style="fill:#262626;" transform="translate(162.493473716 632.818758333)scale(0.28 -0.28)">
     <use xlink:href="#BitstreamVeraSans-Roman-30"/>
     <use x="63.623046875" xlink:href="#BitstreamVeraSans-Roman-2e"/>
     <use x="95.41015625" xlink:href="#BitstreamVeraSans-Roman-31"/>
     <use x="159.033203125" xlink:href="#BitstreamVeraSans-Roman-32"/>
    </g>
   </g>
   <g id="text_8">
    <!-- 0.12 -->
    <g style="fill:#262626;" transform="translate(237.079613202 632.818758333)scale(0.28 -0.28)">
     <use xlink:href="#BitstreamVeraSans-Roman-30"/>
     <use x="63.623046875" xlink:href="#BitstreamVeraSans-Roman-2e"/>
     <use x="95.41015625" xlink:href="#BitstreamVeraSans-Roman-31"/>
     <use x="159.033203125" xlink:href="#BitstreamVeraSans-Roman-32"/>
    </g>
   </g>
   <g id="text_9">
    <!-- 0.12 -->
    <g style="fill:#262626;" transform="translate(311.665752688 632.818758333)scale(0.28 -0.28)">
     <use xlink:href="#BitstreamVeraSans-Roman-30"/>
     <use x="63.623046875" xlink:href="#BitstreamVeraSans-Roman-2e"/>
     <use x="95.41015625" xlink:href="#BitstreamVeraSans-Roman-31"/>
     <use x="159.033203125" xlink:href="#BitstreamVeraSans-Roman-32"/>
    </g>
   </g>
   <g id="text_10">
    <!-- 0.11 -->
    <g style="fill:#262626;" transform="translate(386.251892174 632.818758333)scale(0.28 -0.28)">
     <use xlink:href="#BitstreamVeraSans-Roman-30"/>
     <use x="63.623046875" xlink:href="#BitstreamVeraSans-Roman-2e"/>
     <use x="95.41015625" xlink:href="#BitstreamVeraSans-Roman-31"/>
     <use x="159.033203125" xlink:href="#BitstreamVeraSans-Roman-31"/>
    </g>
   </g>
   <g id="text_11">
    <!-- 0.11 -->
    <g style="fill:#262626;" transform="translate(460.83803166 632.818758333)scale(0.28 -0.28)">
     <use xlink:href="#BitstreamVeraSans-Roman-30"/>
     <use x="63.623046875" xlink:href="#BitstreamVeraSans-Roman-2e"/>
     <use x="95.41015625" xlink:href="#BitstreamVeraSans-Roman-31"/>
     <use x="159.033203125" xlink:href="#BitstreamVeraSans-Roman-31"/>
    </g>
   </g>
   <g id="text_12">
    <!-- 0.3 -->
    <defs>
     <path d="M 40.578125 39.3125 
Q 47.65625 37.796875 51.625 33 
Q 55.609375 28.21875 55.609375 21.1875 
Q 55.609375 10.40625 48.1875 4.484375 
Q 40.765625 -1.421875 27.09375 -1.421875 
Q 22.515625 -1.421875 17.65625 -0.515625 
Q 12.796875 0.390625 7.625 2.203125 
L 7.625 11.71875 
Q 11.71875 9.328125 16.59375 8.109375 
Q 21.484375 6.890625 26.8125 6.890625 
Q 36.078125 6.890625 40.9375 10.546875 
Q 45.796875 14.203125 45.796875 21.1875 
Q 45.796875 27.640625 41.28125 31.265625 
Q 36.765625 34.90625 28.71875 34.90625 
L 20.21875 34.90625 
L 20.21875 43.015625 
L 29.109375 43.015625 
Q 36.375 43.015625 40.234375 45.921875 
Q 44.09375 48.828125 44.09375 54.296875 
Q 44.09375 59.90625 40.109375 62.90625 
Q 36.140625 65.921875 28.71875 65.921875 
Q 24.65625 65.921875 20.015625 65.03125 
Q 15.375 64.15625 9.8125 62.3125 
L 9.8125 71.09375 
Q 15.4375 72.65625 20.34375 73.4375 
Q 25.25 74.21875 29.59375 74.21875 
Q 40.828125 74.21875 47.359375 69.109375 
Q 53.90625 64.015625 53.90625 55.328125 
Q 53.90625 49.265625 50.4375 45.09375 
Q 46.96875 40.921875 40.578125 39.3125 
" id="BitstreamVeraSans-Roman-33"/>
    </defs>
    <g style="fill:#262626;" transform="translate(544.331671147 632.818758333)scale(0.28 -0.28)">
     <use xlink:href="#BitstreamVeraSans-Roman-30"/>
     <use x="63.623046875" xlink:href="#BitstreamVeraSans-Roman-2e"/>
     <use x="95.41015625" xlink:href="#BitstreamVeraSans-Roman-33"/>
    </g>
   </g>
   <g id="text_13">
    <!-- 1 -->
    <g style="fill:#ffffff;" transform="translate(35.5855697431 557.924175)scale(0.28 -0.28)">
     <use xlink:href="#BitstreamVeraSans-Roman-31"/>
    </g>
   </g>
   <g id="text_14">
    <!-- 1 -->
    <g style="fill:#ffffff;" transform="translate(110.171709229 557.924175)scale(0.28 -0.28)">
     <use xlink:href="#BitstreamVeraSans-Roman-31"/>
    </g>
   </g>
   <g id="text_15">
    <!-- 0.12 -->
    <g style="fill:#262626;" transform="translate(162.493473716 557.924175)scale(0.28 -0.28)">
     <use xlink:href="#BitstreamVeraSans-Roman-30"/>
     <use x="63.623046875" xlink:href="#BitstreamVeraSans-Roman-2e"/>
     <use x="95.41015625" xlink:href="#BitstreamVeraSans-Roman-31"/>
     <use x="159.033203125" xlink:href="#BitstreamVeraSans-Roman-32"/>
    </g>
   </g>
   <g id="text_16">
    <!-- 0.12 -->
    <g style="fill:#262626;" transform="translate(237.079613202 557.924175)scale(0.28 -0.28)">
     <use xlink:href="#BitstreamVeraSans-Roman-30"/>
     <use x="63.623046875" xlink:href="#BitstreamVeraSans-Roman-2e"/>
     <use x="95.41015625" xlink:href="#BitstreamVeraSans-Roman-31"/>
     <use x="159.033203125" xlink:href="#BitstreamVeraSans-Roman-32"/>
    </g>
   </g>
   <g id="text_17">
    <!-- 0.11 -->
    <g style="fill:#262626;" transform="translate(311.665752688 557.924175)scale(0.28 -0.28)">
     <use xlink:href="#BitstreamVeraSans-Roman-30"/>
     <use x="63.623046875" xlink:href="#BitstreamVeraSans-Roman-2e"/>
     <use x="95.41015625" xlink:href="#BitstreamVeraSans-Roman-31"/>
     <use x="159.033203125" xlink:href="#BitstreamVeraSans-Roman-31"/>
    </g>
   </g>
   <g id="text_18">
    <!-- 0.12 -->
    <g style="fill:#262626;" transform="translate(386.251892174 557.924175)scale(0.28 -0.28)">
     <use xlink:href="#BitstreamVeraSans-Roman-30"/>
     <use x="63.623046875" xlink:href="#BitstreamVeraSans-Roman-2e"/>
     <use x="95.41015625" xlink:href="#BitstreamVeraSans-Roman-31"/>
     <use x="159.033203125" xlink:href="#BitstreamVeraSans-Roman-32"/>
    </g>
   </g>
   <g id="text_19">
    <!-- 0.33 -->
    <g style="fill:#262626;" transform="translate(460.83803166 557.924175)scale(0.28 -0.28)">
     <use xlink:href="#BitstreamVeraSans-Roman-30"/>
     <use x="63.623046875" xlink:href="#BitstreamVeraSans-Roman-2e"/>
     <use x="95.41015625" xlink:href="#BitstreamVeraSans-Roman-33"/>
     <use x="159.033203125" xlink:href="#BitstreamVeraSans-Roman-33"/>
    </g>
   </g>
   <g id="text_20">
    <!-- 0.11 -->
    <g style="fill:#262626;" transform="translate(535.424171147 557.924175)scale(0.28 -0.28)">
     <use xlink:href="#BitstreamVeraSans-Roman-30"/>
     <use x="63.623046875" xlink:href="#BitstreamVeraSans-Roman-2e"/>
     <use x="95.41015625" xlink:href="#BitstreamVeraSans-Roman-31"/>
     <use x="159.033203125" xlink:href="#BitstreamVeraSans-Roman-31"/>
    </g>
   </g>
   <g id="text_21">
    <!-- 1 -->
    <g style="fill:#ffffff;" transform="translate(35.5855697431 483.029591667)scale(0.28 -0.28)">
     <use xlink:href="#BitstreamVeraSans-Roman-31"/>
    </g>
   </g>
   <g id="text_22">
    <!-- 1 -->
    <g style="fill:#ffffff;" transform="translate(110.171709229 483.029591667)scale(0.28 -0.28)">
     <use xlink:href="#BitstreamVeraSans-Roman-31"/>
    </g>
   </g>
   <g id="text_23">
    <!-- 0.12 -->
    <g style="fill:#262626;" transform="translate(162.493473716 483.029591667)scale(0.28 -0.28)">
     <use xlink:href="#BitstreamVeraSans-Roman-30"/>
     <use x="63.623046875" xlink:href="#BitstreamVeraSans-Roman-2e"/>
     <use x="95.41015625" xlink:href="#BitstreamVeraSans-Roman-31"/>
     <use x="159.033203125" xlink:href="#BitstreamVeraSans-Roman-32"/>
    </g>
   </g>
   <g id="text_24">
    <!-- 0.12 -->
    <g style="fill:#262626;" transform="translate(237.079613202 483.029591667)scale(0.28 -0.28)">
     <use xlink:href="#BitstreamVeraSans-Roman-30"/>
     <use x="63.623046875" xlink:href="#BitstreamVeraSans-Roman-2e"/>
     <use x="95.41015625" xlink:href="#BitstreamVeraSans-Roman-31"/>
     <use x="159.033203125" xlink:href="#BitstreamVeraSans-Roman-32"/>
    </g>
   </g>
   <g id="text_25">
    <!-- 0.12 -->
    <g style="fill:#262626;" transform="translate(311.665752688 483.029591667)scale(0.28 -0.28)">
     <use xlink:href="#BitstreamVeraSans-Roman-30"/>
     <use x="63.623046875" xlink:href="#BitstreamVeraSans-Roman-2e"/>
     <use x="95.41015625" xlink:href="#BitstreamVeraSans-Roman-31"/>
     <use x="159.033203125" xlink:href="#BitstreamVeraSans-Roman-32"/>
    </g>
   </g>
   <g id="text_26">
    <!-- 0.34 -->
    <defs>
     <path d="M 37.796875 64.3125 
L 12.890625 25.390625 
L 37.796875 25.390625 
z
M 35.203125 72.90625 
L 47.609375 72.90625 
L 47.609375 25.390625 
L 58.015625 25.390625 
L 58.015625 17.1875 
L 47.609375 17.1875 
L 47.609375 0 
L 37.796875 0 
L 37.796875 17.1875 
L 4.890625 17.1875 
L 4.890625 26.703125 
z
" id="BitstreamVeraSans-Roman-34"/>
    </defs>
    <g style="fill:#262626;" transform="translate(386.251892174 483.029591667)scale(0.28 -0.28)">
     <use xlink:href="#BitstreamVeraSans-Roman-30"/>
     <use x="63.623046875" xlink:href="#BitstreamVeraSans-Roman-2e"/>
     <use x="95.41015625" xlink:href="#BitstreamVeraSans-Roman-33"/>
     <use x="159.033203125" xlink:href="#BitstreamVeraSans-Roman-34"/>
    </g>
   </g>
   <g id="text_27">
    <!-- 0.12 -->
    <g style="fill:#262626;" transform="translate(460.83803166 483.029591667)scale(0.28 -0.28)">
     <use xlink:href="#BitstreamVeraSans-Roman-30"/>
     <use x="63.623046875" xlink:href="#BitstreamVeraSans-Roman-2e"/>
     <use x="95.41015625" xlink:href="#BitstreamVeraSans-Roman-31"/>
     <use x="159.033203125" xlink:href="#BitstreamVeraSans-Roman-32"/>
    </g>
   </g>
   <g id="text_28">
    <!-- 0.11 -->
    <g style="fill:#262626;" transform="translate(535.424171147 483.029591667)scale(0.28 -0.28)">
     <use xlink:href="#BitstreamVeraSans-Roman-30"/>
     <use x="63.623046875" xlink:href="#BitstreamVeraSans-Roman-2e"/>
     <use x="95.41015625" xlink:href="#BitstreamVeraSans-Roman-31"/>
     <use x="159.033203125" xlink:href="#BitstreamVeraSans-Roman-31"/>
    </g>
   </g>
   <g id="text_29">
    <!-- 1 -->
    <g style="fill:#ffffff;" transform="translate(35.5855697431 408.135008333)scale(0.28 -0.28)">
     <use xlink:href="#BitstreamVeraSans-Roman-31"/>
    </g>
   </g>
   <g id="text_30">
    <!-- 1 -->
    <g style="fill:#ffffff;" transform="translate(110.171709229 408.135008333)scale(0.28 -0.28)">
     <use xlink:href="#BitstreamVeraSans-Roman-31"/>
    </g>
   </g>
   <g id="text_31">
    <!-- 0.12 -->
    <g style="fill:#262626;" transform="translate(162.493473716 408.135008333)scale(0.28 -0.28)">
     <use xlink:href="#BitstreamVeraSans-Roman-30"/>
     <use x="63.623046875" xlink:href="#BitstreamVeraSans-Roman-2e"/>
     <use x="95.41015625" xlink:href="#BitstreamVeraSans-Roman-31"/>
     <use x="159.033203125" xlink:href="#BitstreamVeraSans-Roman-32"/>
    </g>
   </g>
   <g id="text_32">
    <!-- 0.12 -->
    <g style="fill:#262626;" transform="translate(237.079613202 408.135008333)scale(0.28 -0.28)">
     <use xlink:href="#BitstreamVeraSans-Roman-30"/>
     <use x="63.623046875" xlink:href="#BitstreamVeraSans-Roman-2e"/>
     <use x="95.41015625" xlink:href="#BitstreamVeraSans-Roman-31"/>
     <use x="159.033203125" xlink:href="#BitstreamVeraSans-Roman-32"/>
    </g>
   </g>
   <g id="text_33">
    <!-- 0.29 -->
    <g style="fill:#262626;" transform="translate(311.665752688 408.135008333)scale(0.28 -0.28)">
     <use xlink:href="#BitstreamVeraSans-Roman-30"/>
     <use x="63.623046875" xlink:href="#BitstreamVeraSans-Roman-2e"/>
     <use x="95.41015625" xlink:href="#BitstreamVeraSans-Roman-32"/>
     <use x="159.033203125" xlink:href="#BitstreamVeraSans-Roman-39"/>
    </g>
   </g>
   <g id="text_34">
    <!-- 0.12 -->
    <g style="fill:#262626;" transform="translate(386.251892174 408.135008333)scale(0.28 -0.28)">
     <use xlink:href="#BitstreamVeraSans-Roman-30"/>
     <use x="63.623046875" xlink:href="#BitstreamVeraSans-Roman-2e"/>
     <use x="95.41015625" xlink:href="#BitstreamVeraSans-Roman-31"/>
     <use x="159.033203125" xlink:href="#BitstreamVeraSans-Roman-32"/>
    </g>
   </g>
   <g id="text_35">
    <!-- 0.11 -->
    <g style="fill:#262626;" transform="translate(460.83803166 408.135008333)scale(0.28 -0.28)">
     <use xlink:href="#BitstreamVeraSans-Roman-30"/>
     <use x="63.623046875" xlink:href="#BitstreamVeraSans-Roman-2e"/>
     <use x="95.41015625" xlink:href="#BitstreamVeraSans-Roman-31"/>
     <use x="159.033203125" xlink:href="#BitstreamVeraSans-Roman-31"/>
    </g>
   </g>
   <g id="text_36">
    <!-- 0.12 -->
    <g style="fill:#262626;" transform="translate(535.424171147 408.135008333)scale(0.28 -0.28)">
     <use xlink:href="#BitstreamVeraSans-Roman-30"/>
     <use x="63.623046875" xlink:href="#BitstreamVeraSans-Roman-2e"/>
     <use x="95.41015625" xlink:href="#BitstreamVeraSans-Roman-31"/>
     <use x="159.033203125" xlink:href="#BitstreamVeraSans-Roman-32"/>
    </g>
   </g>
   <g id="text_37">
    <!-- 0.99 -->
    <g style="fill:#ffffff;" transform="translate(13.3211947431 333.240425)scale(0.28 -0.28)">
     <use xlink:href="#BitstreamVeraSans-Roman-30"/>
     <use x="63.623046875" xlink:href="#BitstreamVeraSans-Roman-2e"/>
     <use x="95.41015625" xlink:href="#BitstreamVeraSans-Roman-39"/>
     <use x="159.033203125" xlink:href="#BitstreamVeraSans-Roman-39"/>
    </g>
   </g>
   <g id="text_38">
    <!-- 0.99 -->
    <g style="fill:#ffffff;" transform="translate(87.9073342293 333.240425)scale(0.28 -0.28)">
     <use xlink:href="#BitstreamVeraSans-Roman-30"/>
     <use x="63.623046875" xlink:href="#BitstreamVeraSans-Roman-2e"/>
     <use x="95.41015625" xlink:href="#BitstreamVeraSans-Roman-39"/>
     <use x="159.033203125" xlink:href="#BitstreamVeraSans-Roman-39"/>
    </g>
   </g>
   <g id="text_39">
    <!-- 0.13 -->
    <g style="fill:#262626;" transform="translate(162.493473716 333.240425)scale(0.28 -0.28)">
     <use xlink:href="#BitstreamVeraSans-Roman-30"/>
     <use x="63.623046875" xlink:href="#BitstreamVeraSans-Roman-2e"/>
     <use x="95.41015625" xlink:href="#BitstreamVeraSans-Roman-31"/>
     <use x="159.033203125" xlink:href="#BitstreamVeraSans-Roman-33"/>
    </g>
   </g>
   <g id="text_40">
    <!-- 0.38 -->
    <g style="fill:#262626;" transform="translate(237.079613202 333.240425)scale(0.28 -0.28)">
     <use xlink:href="#BitstreamVeraSans-Roman-30"/>
     <use x="63.623046875" xlink:href="#BitstreamVeraSans-Roman-2e"/>
     <use x="95.41015625" xlink:href="#BitstreamVeraSans-Roman-33"/>
     <use x="159.033203125" xlink:href="#BitstreamVeraSans-Roman-38"/>
    </g>
   </g>
   <g id="text_41">
    <!-- 0.12 -->
    <g style="fill:#262626;" transform="translate(311.665752688 333.240425)scale(0.28 -0.28)">
     <use xlink:href="#BitstreamVeraSans-Roman-30"/>
     <use x="63.623046875" xlink:href="#BitstreamVeraSans-Roman-2e"/>
     <use x="95.41015625" xlink:href="#BitstreamVeraSans-Roman-31"/>
     <use x="159.033203125" xlink:href="#BitstreamVeraSans-Roman-32"/>
    </g>
   </g>
   <g id="text_42">
    <!-- 0.12 -->
    <g style="fill:#262626;" transform="translate(386.251892174 333.240425)scale(0.28 -0.28)">
     <use xlink:href="#BitstreamVeraSans-Roman-30"/>
     <use x="63.623046875" xlink:href="#BitstreamVeraSans-Roman-2e"/>
     <use x="95.41015625" xlink:href="#BitstreamVeraSans-Roman-31"/>
     <use x="159.033203125" xlink:href="#BitstreamVeraSans-Roman-32"/>
    </g>
   </g>
   <g id="text_43">
    <!-- 0.12 -->
    <g style="fill:#262626;" transform="translate(460.83803166 333.240425)scale(0.28 -0.28)">
     <use xlink:href="#BitstreamVeraSans-Roman-30"/>
     <use x="63.623046875" xlink:href="#BitstreamVeraSans-Roman-2e"/>
     <use x="95.41015625" xlink:href="#BitstreamVeraSans-Roman-31"/>
     <use x="159.033203125" xlink:href="#BitstreamVeraSans-Roman-32"/>
    </g>
   </g>
   <g id="text_44">
    <!-- 0.12 -->
    <g style="fill:#262626;" transform="translate(535.424171147 333.240425)scale(0.28 -0.28)">
     <use xlink:href="#BitstreamVeraSans-Roman-30"/>
     <use x="63.623046875" xlink:href="#BitstreamVeraSans-Roman-2e"/>
     <use x="95.41015625" xlink:href="#BitstreamVeraSans-Roman-31"/>
     <use x="159.033203125" xlink:href="#BitstreamVeraSans-Roman-32"/>
    </g>
   </g>
   <g id="text_45">
    <!-- 0.94 -->
    <g style="fill:#ffffff;" transform="translate(13.3211947431 258.345841667)scale(0.28 -0.28)">
     <use xlink:href="#BitstreamVeraSans-Roman-30"/>
     <use x="63.623046875" xlink:href="#BitstreamVeraSans-Roman-2e"/>
     <use x="95.41015625" xlink:href="#BitstreamVeraSans-Roman-39"/>
     <use x="159.033203125" xlink:href="#BitstreamVeraSans-Roman-34"/>
    </g>
   </g>
   <g id="text_46">
    <!-- 1 -->
    <g style="fill:#ffffff;" transform="translate(110.171709229 258.345841667)scale(0.28 -0.28)">
     <use xlink:href="#BitstreamVeraSans-Roman-31"/>
    </g>
   </g>
   <g id="text_47">
    <!-- 0.35 -->
    <defs>
     <path d="M 10.796875 72.90625 
L 49.515625 72.90625 
L 49.515625 64.59375 
L 19.828125 64.59375 
L 19.828125 46.734375 
Q 21.96875 47.46875 24.109375 47.828125 
Q 26.265625 48.1875 28.421875 48.1875 
Q 40.625 48.1875 47.75 41.5 
Q 54.890625 34.8125 54.890625 23.390625 
Q 54.890625 11.625 47.5625 5.09375 
Q 40.234375 -1.421875 26.90625 -1.421875 
Q 22.3125 -1.421875 17.546875 -0.640625 
Q 12.796875 0.140625 7.71875 1.703125 
L 7.71875 11.625 
Q 12.109375 9.234375 16.796875 8.0625 
Q 21.484375 6.890625 26.703125 6.890625 
Q 35.15625 6.890625 40.078125 11.328125 
Q 45.015625 15.765625 45.015625 23.390625 
Q 45.015625 31 40.078125 35.4375 
Q 35.15625 39.890625 26.703125 39.890625 
Q 22.75 39.890625 18.8125 39.015625 
Q 14.890625 38.140625 10.796875 36.28125 
z
" id="BitstreamVeraSans-Roman-35"/>
    </defs>
    <g style="fill:#262626;" transform="translate(162.493473716 258.345841667)scale(0.28 -0.28)">
     <use xlink:href="#BitstreamVeraSans-Roman-30"/>
     <use x="63.623046875" xlink:href="#BitstreamVeraSans-Roman-2e"/>
     <use x="95.41015625" xlink:href="#BitstreamVeraSans-Roman-33"/>
     <use x="159.033203125" xlink:href="#BitstreamVeraSans-Roman-35"/>
    </g>
   </g>
   <g id="text_48">
    <!-- 0.13 -->
    <g style="fill:#262626;" transform="translate(237.079613202 258.345841667)scale(0.28 -0.28)">
     <use xlink:href="#BitstreamVeraSans-Roman-30"/>
     <use x="63.623046875" xlink:href="#BitstreamVeraSans-Roman-2e"/>
     <use x="95.41015625" xlink:href="#BitstreamVeraSans-Roman-31"/>
     <use x="159.033203125" xlink:href="#BitstreamVeraSans-Roman-33"/>
    </g>
   </g>
   <g id="text_49">
    <!-- 0.12 -->
    <g style="fill:#262626;" transform="translate(311.665752688 258.345841667)scale(0.28 -0.28)">
     <use xlink:href="#BitstreamVeraSans-Roman-30"/>
     <use x="63.623046875" xlink:href="#BitstreamVeraSans-Roman-2e"/>
     <use x="95.41015625" xlink:href="#BitstreamVeraSans-Roman-31"/>
     <use x="159.033203125" xlink:href="#BitstreamVeraSans-Roman-32"/>
    </g>
   </g>
   <g id="text_50">
    <!-- 0.12 -->
    <g style="fill:#262626;" transform="translate(386.251892174 258.345841667)scale(0.28 -0.28)">
     <use xlink:href="#BitstreamVeraSans-Roman-30"/>
     <use x="63.623046875" xlink:href="#BitstreamVeraSans-Roman-2e"/>
     <use x="95.41015625" xlink:href="#BitstreamVeraSans-Roman-31"/>
     <use x="159.033203125" xlink:href="#BitstreamVeraSans-Roman-32"/>
    </g>
   </g>
   <g id="text_51">
    <!-- 0.12 -->
    <g style="fill:#262626;" transform="translate(460.83803166 258.345841667)scale(0.28 -0.28)">
     <use xlink:href="#BitstreamVeraSans-Roman-30"/>
     <use x="63.623046875" xlink:href="#BitstreamVeraSans-Roman-2e"/>
     <use x="95.41015625" xlink:href="#BitstreamVeraSans-Roman-31"/>
     <use x="159.033203125" xlink:href="#BitstreamVeraSans-Roman-32"/>
    </g>
   </g>
   <g id="text_52">
    <!-- 0.12 -->
    <g style="fill:#262626;" transform="translate(535.424171147 258.345841667)scale(0.28 -0.28)">
     <use xlink:href="#BitstreamVeraSans-Roman-30"/>
     <use x="63.623046875" xlink:href="#BitstreamVeraSans-Roman-2e"/>
     <use x="95.41015625" xlink:href="#BitstreamVeraSans-Roman-31"/>
     <use x="159.033203125" xlink:href="#BitstreamVeraSans-Roman-32"/>
    </g>
   </g>
   <g id="text_53">
    <!-- 1 -->
    <g style="fill:#ffffff;" transform="translate(35.5855697431 183.451258333)scale(0.28 -0.28)">
     <use xlink:href="#BitstreamVeraSans-Roman-31"/>
    </g>
   </g>
   <g id="text_54">
    <!-- 2.6 -->
    <defs>
     <path d="M 33.015625 40.375 
Q 26.375 40.375 22.484375 35.828125 
Q 18.609375 31.296875 18.609375 23.390625 
Q 18.609375 15.53125 22.484375 10.953125 
Q 26.375 6.390625 33.015625 6.390625 
Q 39.65625 6.390625 43.53125 10.953125 
Q 47.40625 15.53125 47.40625 23.390625 
Q 47.40625 31.296875 43.53125 35.828125 
Q 39.65625 40.375 33.015625 40.375 
M 52.59375 71.296875 
L 52.59375 62.3125 
Q 48.875 64.0625 45.09375 64.984375 
Q 41.3125 65.921875 37.59375 65.921875 
Q 27.828125 65.921875 22.671875 59.328125 
Q 17.53125 52.734375 16.796875 39.40625 
Q 19.671875 43.65625 24.015625 45.921875 
Q 28.375 48.1875 33.59375 48.1875 
Q 44.578125 48.1875 50.953125 41.515625 
Q 57.328125 34.859375 57.328125 23.390625 
Q 57.328125 12.15625 50.6875 5.359375 
Q 44.046875 -1.421875 33.015625 -1.421875 
Q 20.359375 -1.421875 13.671875 8.265625 
Q 6.984375 17.96875 6.984375 36.375 
Q 6.984375 53.65625 15.1875 63.9375 
Q 23.390625 74.21875 37.203125 74.21875 
Q 40.921875 74.21875 44.703125 73.484375 
Q 48.484375 72.75 52.59375 71.296875 
" id="BitstreamVeraSans-Roman-36"/>
    </defs>
    <g style="fill:#ffffff;" transform="translate(96.8148342293 183.451258333)scale(0.28 -0.28)">
     <use xlink:href="#BitstreamVeraSans-Roman-32"/>
     <use x="63.623046875" xlink:href="#BitstreamVeraSans-Roman-2e"/>
     <use x="95.41015625" xlink:href="#BitstreamVeraSans-Roman-36"/>
    </g>
   </g>
   <g id="text_55">
    <!-- 1 -->
    <g style="fill:#ffffff;" transform="translate(184.757848716 183.451258333)scale(0.28 -0.28)">
     <use xlink:href="#BitstreamVeraSans-Roman-31"/>
    </g>
   </g>
   <g id="text_56">
    <!-- 0.99 -->
    <g style="fill:#ffffff;" transform="translate(237.079613202 183.451258333)scale(0.28 -0.28)">
     <use xlink:href="#BitstreamVeraSans-Roman-30"/>
     <use x="63.623046875" xlink:href="#BitstreamVeraSans-Roman-2e"/>
     <use x="95.41015625" xlink:href="#BitstreamVeraSans-Roman-39"/>
     <use x="159.033203125" xlink:href="#BitstreamVeraSans-Roman-39"/>
    </g>
   </g>
   <g id="text_57">
    <!-- 1 -->
    <g style="fill:#ffffff;" transform="translate(333.930127688 183.451258333)scale(0.28 -0.28)">
     <use xlink:href="#BitstreamVeraSans-Roman-31"/>
    </g>
   </g>
   <g id="text_58">
    <!-- 1 -->
    <g style="fill:#ffffff;" transform="translate(408.516267174 183.451258333)scale(0.28 -0.28)">
     <use xlink:href="#BitstreamVeraSans-Roman-31"/>
    </g>
   </g>
   <g id="text_59">
    <!-- 1 -->
    <g style="fill:#ffffff;" transform="translate(483.10240666 183.451258333)scale(0.28 -0.28)">
     <use xlink:href="#BitstreamVeraSans-Roman-31"/>
    </g>
   </g>
   <g id="text_60">
    <!-- 0.98 -->
    <g style="fill:#ffffff;" transform="translate(535.424171147 183.451258333)scale(0.28 -0.28)">
     <use xlink:href="#BitstreamVeraSans-Roman-30"/>
     <use x="63.623046875" xlink:href="#BitstreamVeraSans-Roman-2e"/>
     <use x="95.41015625" xlink:href="#BitstreamVeraSans-Roman-39"/>
     <use x="159.033203125" xlink:href="#BitstreamVeraSans-Roman-38"/>
    </g>
   </g>
   <g id="text_61">
    <!-- 2.7 -->
    <defs>
     <path d="M 8.203125 72.90625 
L 55.078125 72.90625 
L 55.078125 68.703125 
L 28.609375 0 
L 18.3125 0 
L 43.21875 64.59375 
L 8.203125 64.59375 
z
" id="BitstreamVeraSans-Roman-37"/>
    </defs>
    <g style="fill:#ffffff;" transform="translate(22.2286947431 108.556675)scale(0.28 -0.28)">
     <use xlink:href="#BitstreamVeraSans-Roman-32"/>
     <use x="63.623046875" xlink:href="#BitstreamVeraSans-Roman-2e"/>
     <use x="95.41015625" xlink:href="#BitstreamVeraSans-Roman-37"/>
    </g>
   </g>
   <g id="text_62">
    <!-- 1 -->
    <g style="fill:#ffffff;" transform="translate(110.171709229 108.556675)scale(0.28 -0.28)">
     <use xlink:href="#BitstreamVeraSans-Roman-31"/>
    </g>
   </g>
   <g id="text_63">
    <!-- 0.94 -->
    <g style="fill:#ffffff;" transform="translate(162.493473716 108.556675)scale(0.28 -0.28)">
     <use xlink:href="#BitstreamVeraSans-Roman-30"/>
     <use x="63.623046875" xlink:href="#BitstreamVeraSans-Roman-2e"/>
     <use x="95.41015625" xlink:href="#BitstreamVeraSans-Roman-39"/>
     <use x="159.033203125" xlink:href="#BitstreamVeraSans-Roman-34"/>
    </g>
   </g>
   <g id="text_64">
    <!-- 0.99 -->
    <g style="fill:#ffffff;" transform="translate(237.079613202 108.556675)scale(0.28 -0.28)">
     <use xlink:href="#BitstreamVeraSans-Roman-30"/>
     <use x="63.623046875" xlink:href="#BitstreamVeraSans-Roman-2e"/>
     <use x="95.41015625" xlink:href="#BitstreamVeraSans-Roman-39"/>
     <use x="159.033203125" xlink:href="#BitstreamVeraSans-Roman-39"/>
    </g>
   </g>
   <g id="text_65">
    <!-- 1 -->
    <g style="fill:#ffffff;" transform="translate(333.930127688 108.556675)scale(0.28 -0.28)">
     <use xlink:href="#BitstreamVeraSans-Roman-31"/>
    </g>
   </g>
   <g id="text_66">
    <!-- 1 -->
    <g style="fill:#ffffff;" transform="translate(408.516267174 108.556675)scale(0.28 -0.28)">
     <use xlink:href="#BitstreamVeraSans-Roman-31"/>
    </g>
   </g>
   <g id="text_67">
    <!-- 1 -->
    <g style="fill:#ffffff;" transform="translate(483.10240666 108.556675)scale(0.28 -0.28)">
     <use xlink:href="#BitstreamVeraSans-Roman-31"/>
    </g>
   </g>
   <g id="text_68">
    <!-- 1 -->
    <g style="fill:#ffffff;" transform="translate(557.688546147 108.556675)scale(0.28 -0.28)">
     <use xlink:href="#BitstreamVeraSans-Roman-31"/>
    </g>
   </g>
   <g id="text_69">
    <!-- $\langle \lambda_{jk}\rangle$ -->
    <defs>
     <path d="M -1.3125 -14.203125 
Q -1.3125 -11.765625 0.359375 -9.984375 
Q 2.046875 -8.203125 4.5 -8.203125 
Q 6.109375 -8.203125 7.203125 -9.203125 
Q 8.296875 -10.203125 8.296875 -11.8125 
Q 8.296875 -13.71875 7.09375 -15.25 
Q 5.90625 -16.796875 4.109375 -17.28125 
Q 5.859375 -17.921875 7.625 -17.921875 
Q 11.859375 -17.921875 14.984375 -13.984375 
Q 18.109375 -10.0625 19.390625 -5.171875 
L 28.8125 32.421875 
Q 29.5 35.296875 29.5 37.3125 
Q 29.5 41.609375 26.515625 41.609375 
Q 22.125 41.609375 18.828125 37.625 
Q 15.53125 33.640625 13.484375 28.421875 
Q 13.28125 27.78125 12.703125 27.78125 
L 11.53125 27.78125 
Q 10.6875 27.78125 10.6875 28.71875 
L 10.6875 29 
Q 12.9375 35.015625 17.078125 39.59375 
Q 21.234375 44.1875 26.703125 44.1875 
Q 30.859375 44.1875 33.515625 41.59375 
Q 36.1875 39.015625 36.1875 35.015625 
Q 36.1875 33.59375 35.890625 32.171875 
L 26.421875 -5.8125 
Q 25.390625 -9.859375 22.5 -13.234375 
Q 19.625 -16.609375 15.625 -18.5625 
Q 11.625 -20.515625 7.421875 -20.515625 
Q 4.046875 -20.515625 1.359375 -18.890625 
Q -1.3125 -17.28125 -1.3125 -14.203125 
M 30.328125 60.59375 
Q 30.328125 62.796875 32.03125 64.453125 
Q 33.734375 66.109375 35.890625 66.109375 
Q 37.59375 66.109375 38.6875 65.0625 
Q 39.796875 64.015625 39.796875 62.40625 
Q 39.796875 60.15625 38.015625 58.46875 
Q 36.234375 56.78125 34.078125 56.78125 
Q 32.46875 56.78125 31.390625 57.90625 
Q 30.328125 59.03125 30.328125 60.59375 
" id="Cmmi10-6a"/>
     <path d="M 5.328125 1.8125 
Q 5.328125 2.390625 5.421875 2.6875 
L 19.921875 60.5 
Q 20.3125 62.203125 20.40625 63.1875 
Q 20.40625 64.796875 13.921875 64.796875 
Q 12.890625 64.796875 12.890625 66.109375 
Q 12.9375 66.359375 13.109375 66.984375 
Q 13.28125 67.625 13.546875 67.96875 
Q 13.8125 68.3125 14.3125 68.3125 
L 27.78125 69.390625 
L 28.078125 69.390625 
Q 28.078125 69.28125 28.421875 69.109375 
Q 28.765625 68.953125 28.8125 68.890625 
Q 29 68.40625 29 68.109375 
L 18.5 26.3125 
Q 22.125 27.828125 27.609375 33.515625 
Q 33.109375 39.203125 36.203125 41.6875 
Q 39.3125 44.1875 44 44.1875 
Q 46.78125 44.1875 48.734375 42.28125 
Q 50.6875 40.375 50.6875 37.59375 
Q 50.6875 35.84375 49.953125 34.34375 
Q 49.21875 32.859375 47.890625 31.921875 
Q 46.578125 31 44.828125 31 
Q 43.21875 31 42.109375 32 
Q 41.015625 33.015625 41.015625 34.625 
Q 41.015625 37.015625 42.703125 38.640625 
Q 44.390625 40.28125 46.78125 40.28125 
Q 45.796875 41.609375 43.796875 41.609375 
Q 40.828125 41.609375 38.0625 39.890625 
Q 35.296875 38.1875 32.09375 34.984375 
Q 28.90625 31.78125 26.265625 29.125 
Q 23.640625 26.46875 21.390625 25.09375 
Q 27.296875 24.421875 31.640625 22 
Q 35.984375 19.578125 35.984375 14.59375 
Q 35.984375 13.578125 35.59375 12.015625 
Q 34.71875 8.25 34.71875 6 
Q 34.71875 1.515625 37.796875 1.515625 
Q 41.40625 1.515625 43.28125 5.46875 
Q 45.171875 9.421875 46.390625 14.703125 
Q 46.578125 15.28125 47.21875 15.28125 
L 48.390625 15.28125 
Q 48.78125 15.28125 49.046875 15.03125 
Q 49.3125 14.796875 49.3125 14.40625 
Q 49.3125 14.3125 49.21875 14.109375 
Q 45.453125 -1.125 37.59375 -1.125 
Q 34.765625 -1.125 32.59375 0.1875 
Q 30.421875 1.515625 29.25 3.78125 
Q 28.078125 6.0625 28.078125 8.890625 
Q 28.078125 10.5 28.515625 12.203125 
Q 28.8125 13.375 28.8125 14.40625 
Q 28.8125 18.265625 25.390625 20.265625 
Q 21.96875 22.265625 17.578125 22.703125 
L 12.5 2.296875 
Q 12.109375 0.78125 10.984375 -0.171875 
Q 9.859375 -1.125 8.40625 -1.125 
Q 7.125 -1.125 6.21875 -0.265625 
Q 5.328125 0.59375 5.328125 1.8125 
" id="Cmmi10-6b"/>
     <path d="M 5.078125 1.703125 
Q 5.078125 3.171875 6.390625 4.5 
L 34.515625 32.078125 
L 24.609375 59.90625 
Q 23.4375 63.09375 22.140625 64.9375 
Q 20.84375 66.796875 18.40625 66.796875 
Q 17.28125 66.796875 17.28125 68.109375 
Q 17.390625 68.703125 17.78125 69.046875 
Q 18.171875 69.390625 18.796875 69.390625 
Q 29.296875 69.390625 31.5 63.1875 
L 51.8125 6.5 
Q 53.125 2.25 54.5 0.78125 
Q 54.984375 0.046875 54.984375 -0.203125 
Q 54.984375 -1.125 54.203125 -1.125 
L 48.78125 -1.125 
Q 46.296875 -0.390625 44.828125 3.21875 
L 35.6875 28.8125 
L 11.53125 0.390625 
Q 9.71875 -1.3125 8.296875 -1.3125 
Q 7.03125 -1.3125 6.046875 -0.4375 
Q 5.078125 0.4375 5.078125 1.703125 
" id="Cmmi10-b8"/>
     <path d="M 7.8125 -114.015625 
Q 7.8125 -113.484375 8.015625 -113.28125 
L 33.109375 -56 
L 8.015625 1.3125 
Q 7.8125 1.515625 7.8125 2 
Q 7.8125 2.734375 8.390625 3.359375 
Q 8.984375 4 9.8125 4 
Q 10.984375 4 11.71875 2.78125 
L 37.203125 -55.328125 
Q 37.3125 -55.515625 37.3125 -56 
Q 37.3125 -56.5 37.203125 -56.78125 
L 11.71875 -114.796875 
Q 10.9375 -116.015625 9.8125 -116.015625 
Q 8.984375 -116.015625 8.390625 -115.375 
Q 7.8125 -114.75 7.8125 -114.015625 
" id="Cmex10-ae"/>
     <path d="M 35.5 -114.796875 
L 10.015625 -56.78125 
Q 9.8125 -56.5 9.8125 -56 
Q 9.8125 -55.515625 10.015625 -55.328125 
L 35.5 2.78125 
Q 35.984375 4 37.3125 4 
Q 38.03125 4 38.671875 3.359375 
Q 39.3125 2.734375 39.3125 2 
Q 39.3125 1.515625 39.203125 1.3125 
L 14.015625 -56 
L 39.203125 -113.28125 
Q 39.3125 -113.484375 39.3125 -114.015625 
Q 39.3125 -114.75 38.671875 -115.375 
Q 38.03125 -116.015625 37.3125 -116.015625 
Q 36.03125 -116.015625 35.5 -114.796875 
" id="Cmex10-ad"/>
    </defs>
    <g style="fill:#262626;" transform="translate(260.544557945 46.4)scale(0.4 -0.4)">
     <use transform="translate(0.0 94.0)" xlink:href="#Cmex10-ad"/>
     <use transform="translate(47.216796875 0.658854166667)" xlink:href="#Cmmi10-b8"/>
     <use transform="translate(105.517578125 -16.3473958333)scale(0.7)" xlink:href="#Cmmi10-6a"/>
     <use transform="translate(134.296875 -16.3473958333)scale(0.7)" xlink:href="#Cmmi10-6b"/>
     <use transform="translate(177.075585937 94.0)" xlink:href="#Cmex10-ae"/>
    </g>
   </g>
  </g>
 </g>
 <defs>
  <clipPath id="paff39315b9">
   <rect height="599.156666667" width="596.68911589" x="7.2" y="63.3831333333"/>
  </clipPath>
  <clipPath id="p5c27eca0f2">
   <rect height="599.156666667" width="596.68911589" x="639.0" y="63.3831333333"/>
  </clipPath>
 </defs>
</svg>
