<?xml version="1.0" encoding="utf-8" standalone="no"?>
<!DOCTYPE svg PUBLIC "-//W3C//DTD SVG 1.1//EN"
  "http://www.w3.org/Graphics/SVG/1.1/DTD/svg11.dtd">
<!-- Created with matplotlib (http://matplotlib.org/) -->
<svg height="924pt" version="1.1" viewBox="0 0 643 924" width="643pt" xmlns="http://www.w3.org/2000/svg" xmlns:xlink="http://www.w3.org/1999/xlink">
 <defs>
  <style type="text/css">
*{stroke-linecap:butt;stroke-linejoin:round;stroke-miterlimit:100000;}
  </style>
 </defs>
 <g id="figure_1">
  <g id="patch_1">
   <path d="M 0 924.571187 
L 643.570909 924.571187 
L 643.570909 0 
L 0 0 
z
" style="fill:#ffffff;"/>
  </g>
  <g id="axes_1">
   <g id="patch_2">
    <path d="M 63.426949 410.475139 
L 621.426949 410.475139 
L 621.426949 30.020593 
L 63.426949 30.020593 
z
" style="fill:#eaeaf2;"/>
   </g>
   <g id="matplotlib.axis_1">
    <g id="xtick_1">
     <g id="line2d_1">
      <path clip-path="url(#p86cdbd0b99)" d="M 63.426949 410.475139 
L 63.426949 30.020593 
" style="fill:none;stroke:#ffffff;stroke-linecap:round;stroke-width:0.8;"/>
     </g>
     <g id="line2d_2">
      <defs>
       <path d="M 0 0 
L 0 0 
" id="m3145f54d24" style="stroke:#262626;stroke-width:0.8;"/>
      </defs>
      <g>
       <use style="fill:#262626;stroke:#262626;stroke-width:0.8;" x="63.4269488685" xlink:href="#m3145f54d24" y="410.475138883"/>
      </g>
     </g>
     <g id="line2d_3">
      <g>
       <use style="fill:#262626;stroke:#262626;stroke-width:0.8;" x="63.4269488685" xlink:href="#m3145f54d24" y="30.0205934289"/>
      </g>
     </g>
     <g id="text_1">
      <!-- $0$ -->
      <defs>
       <path d="M 26.296875 69 
C 10.796875 69 2.90625 56.6875 2.90625 32.453125 
C 2.90625 20.71875 5 10.625 8.5 5.71875 
C 12 0.796875 17.59375 -2 23.796875 -2 
C 38.90625 -2 46.5 11.015625 46.5 36.65625 
C 46.5 58.578125 40 69 26.296875 69 
M 24.5 65.5 
C 34.203125 65.5 38.09375 55.6875 38.09375 31.640625 
C 38.09375 10.328125 34.296875 1.5 25.09375 1.5 
C 15.40625 1.5 11.296875 11.625 11.296875 36.0625 
C 11.296875 57.1875 15 65.5 24.5 65.5 
" id="URW_Palladio_L_Roman-48"/>
      </defs>
      <g style="fill:#262626;" transform="translate(58.4456288187 430.331613627)scale(0.2 -0.2)">
       <use transform="scale(0.996264009963)" xlink:href="#URW_Palladio_L_Roman-48"/>
      </g>
     </g>
    </g>
    <g id="xtick_2">
     <g id="line2d_4">
      <path clip-path="url(#p86cdbd0b99)" d="M 175.026949 410.475139 
L 175.026949 30.020593 
" style="fill:none;stroke:#ffffff;stroke-linecap:round;stroke-width:0.8;"/>
     </g>
     <g id="line2d_5">
      <g>
       <use style="fill:#262626;stroke:#262626;stroke-width:0.8;" x="175.026948869" xlink:href="#m3145f54d24" y="410.475138883"/>
      </g>
     </g>
     <g id="line2d_6">
      <g>
       <use style="fill:#262626;stroke:#262626;stroke-width:0.8;" x="175.026948869" xlink:href="#m3145f54d24" y="30.0205934289"/>
      </g>
     </g>
     <g id="text_2">
      <!-- $20$ -->
      <defs>
       <path d="M 1.59375 2.5 
L 1.59375 0 
C 20.296875 0 20.296875 0 23.90625 0 
C 27.5 0 27.5 0 46.796875 0 
C 46.59375 1.953125 46.59375 2.90625 46.59375 4.203125 
C 46.59375 5.4375 46.59375 6.359375 46.796875 8.421875 
C 35.296875 8.421875 30.703125 8.421875 12.203125 8.421875 
L 30.40625 27.515625 
C 40.09375 37.71875 43.09375 43.171875 43.09375 50.59375 
C 43.09375 61.96875 35.296875 69 22.59375 69 
C 15.40625 69 10.5 67 5.59375 62.015625 
L 3.90625 48.421875 
L 6.796875 48.421875 
L 8.09375 53.015625 
C 9.703125 58.796875 13.296875 61.296875 20 61.296875 
C 28.59375 61.296875 34.09375 55.890625 34.09375 47.421875 
C 34.09375 39.921875 29.90625 32.546875 18.59375 20.5625 
z
" id="URW_Palladio_L_Roman-50"/>
      </defs>
      <g style="fill:#262626;" transform="translate(165.064308769 430.331613627)scale(0.2 -0.2)">
       <use transform="scale(0.996264009963)" xlink:href="#URW_Palladio_L_Roman-50"/>
       <use transform="translate(49.8132004981 0.0)scale(0.996264009963)" xlink:href="#URW_Palladio_L_Roman-48"/>
      </g>
     </g>
    </g>
    <g id="xtick_3">
     <g id="line2d_7">
      <path clip-path="url(#p86cdbd0b99)" d="M 286.626949 410.475139 
L 286.626949 30.020593 
" style="fill:none;stroke:#ffffff;stroke-linecap:round;stroke-width:0.8;"/>
     </g>
     <g id="line2d_8">
      <g>
       <use style="fill:#262626;stroke:#262626;stroke-width:0.8;" x="286.626948869" xlink:href="#m3145f54d24" y="410.475138883"/>
      </g>
     </g>
     <g id="line2d_9">
      <g>
       <use style="fill:#262626;stroke:#262626;stroke-width:0.8;" x="286.626948869" xlink:href="#m3145f54d24" y="30.0205934289"/>
      </g>
     </g>
     <g id="text_3">
      <!-- $40$ -->
      <defs>
       <path d="M 28 18 
L 28 10.515625 
C 28 4.515625 26.90625 3.109375 22 3.109375 
L 15.796875 3.109375 
L 15.796875 0 
C 29.09375 0 29.09375 0 31.5 0 
C 33.90625 0 33.90625 0 47.203125 0 
L 47.203125 3.109375 
L 42.40625 3.109375 
C 37.5 3.109375 36.40625 4.40625 36.40625 10.453125 
L 36.40625 18 
C 42.296875 18 44.40625 18 47.203125 17.703125 
L 47.203125 24.8125 
C 42.5 24.421875 40.59375 24.421875 39.09375 24.421875 
L 38.796875 24.421875 
L 36.40625 24.421875 
L 36.40625 38.390625 
C 36.40625 56.25 36.59375 64.875 37.09375 69 
L 35.90625 69.5 
L 28.5 66.796875 
L 0.203125 20.296875 
L 1.296875 18 
z
M 28 24.421875 
L 6.5 24.421875 
L 28 59.78125 
z
" id="URW_Palladio_L_Roman-52"/>
      </defs>
      <g style="fill:#262626;" transform="translate(276.664308769 430.331613627)scale(0.2 -0.2)">
       <use transform="scale(0.996264009963)" xlink:href="#URW_Palladio_L_Roman-52"/>
       <use transform="translate(49.8132004981 0.0)scale(0.996264009963)" xlink:href="#URW_Palladio_L_Roman-48"/>
      </g>
     </g>
    </g>
    <g id="xtick_4">
     <g id="line2d_10">
      <path clip-path="url(#p86cdbd0b99)" d="M 398.226949 410.475139 
L 398.226949 30.020593 
" style="fill:none;stroke:#ffffff;stroke-linecap:round;stroke-width:0.8;"/>
     </g>
     <g id="line2d_11">
      <g>
       <use style="fill:#262626;stroke:#262626;stroke-width:0.8;" x="398.226948869" xlink:href="#m3145f54d24" y="410.475138883"/>
      </g>
     </g>
     <g id="line2d_12">
      <g>
       <use style="fill:#262626;stroke:#262626;stroke-width:0.8;" x="398.226948869" xlink:href="#m3145f54d24" y="30.0205934289"/>
      </g>
     </g>
     <g id="text_4">
      <!-- $60$ -->
      <defs>
       <path d="M 41.59375 67.34375 
L 37.90625 69.046875 
C 28.296875 65.84375 24.203125 63.84375 19.09375 59.4375 
C 8.796875 50.71875 3.203125 38.5 3.203125 24.765625 
C 3.203125 8.21875 11.203125 -2 24.09375 -2 
C 37.09375 -2 46.796875 8.3125 46.796875 21.953125 
C 46.796875 33.484375 39.90625 41 29.296875 41 
C 24.296875 41 21.296875 39.6875 15.40625 34.984375 
C 14.296875 34.078125 14.203125 33.984375 13.09375 33.1875 
C 15.203125 51.3125 23.59375 61.140625 41.59375 66.546875 
z
M 25.5 34.984375 
C 33.09375 34.984375 38.203125 28.375 38.203125 18.453125 
C 38.203125 8.015625 33.09375 1.296875 25.40625 1.296875 
C 16.90625 1.296875 12.296875 8.609375 12.296875 22.0625 
C 12.296875 25.5625 12.703125 27.46875 13.796875 29.171875 
C 16 32.578125 20.703125 34.984375 25.5 34.984375 
" id="URW_Palladio_L_Roman-54"/>
      </defs>
      <g style="fill:#262626;" transform="translate(388.264308769 430.331613627)scale(0.2 -0.2)">
       <use transform="scale(0.996264009963)" xlink:href="#URW_Palladio_L_Roman-54"/>
       <use transform="translate(49.8132004981 0.0)scale(0.996264009963)" xlink:href="#URW_Palladio_L_Roman-48"/>
      </g>
     </g>
    </g>
    <g id="xtick_5">
     <g id="line2d_13">
      <path clip-path="url(#p86cdbd0b99)" d="M 509.826949 410.475139 
L 509.826949 30.020593 
" style="fill:none;stroke:#ffffff;stroke-linecap:round;stroke-width:0.8;"/>
     </g>
     <g id="line2d_14">
      <g>
       <use style="fill:#262626;stroke:#262626;stroke-width:0.8;" x="509.826948869" xlink:href="#m3145f54d24" y="410.475138883"/>
      </g>
     </g>
     <g id="line2d_15">
      <g>
       <use style="fill:#262626;stroke:#262626;stroke-width:0.8;" x="509.826948869" xlink:href="#m3145f54d24" y="30.0205934289"/>
      </g>
     </g>
     <g id="text_5">
      <!-- $80$ -->
      <defs>
       <path d="M 16.796875 34.546875 
C 12.703125 32.65625 11 31.546875 8.796875 29.4375 
C 5 25.640625 3 21.125 3 15.921875 
C 3 5.609375 11.296875 -2 22.59375 -2 
C 35.59375 -2 46.40625 8.21875 46.40625 20.625 
C 46.40625 28.640625 42.703125 32.953125 31.296875 38.15625 
C 40.40625 44.375 43.59375 48.578125 43.59375 54.578125 
C 43.59375 63.1875 36.5 69 25.90625 69 
C 14 69 5.296875 61.390625 5.296875 50.890625 
C 5.296875 44.078125 8 40.265625 16.796875 34.546875 
M 28.40625 29.546875 
C 34.703125 26.734375 38.5 21.828125 38.5 16.4375 
C 38.5 8.015625 32.203125 1.40625 24.09375 1.40625 
C 15.59375 1.40625 10.09375 7.421875 10.09375 16.734375 
C 10.09375 24.03125 13 28.640625 20.40625 33.15625 
z
M 22.296875 42.375 
C 16 45.46875 12.796875 49.484375 12.796875 54.484375 
C 12.796875 61.09375 17.59375 65.59375 24.703125 65.59375 
C 32 65.59375 36.796875 60.796875 36.796875 53.46875 
C 36.796875 47.78125 34.296875 43.875 27.796875 39.65625 
z
" id="URW_Palladio_L_Roman-56"/>
      </defs>
      <g style="fill:#262626;" transform="translate(499.864308769 430.331613627)scale(0.2 -0.2)">
       <use transform="scale(0.996264009963)" xlink:href="#URW_Palladio_L_Roman-56"/>
       <use transform="translate(49.8132004981 0.0)scale(0.996264009963)" xlink:href="#URW_Palladio_L_Roman-48"/>
      </g>
     </g>
    </g>
    <g id="xtick_6">
     <g id="line2d_16">
      <path clip-path="url(#p86cdbd0b99)" d="M 621.426949 410.475139 
L 621.426949 30.020593 
" style="fill:none;stroke:#ffffff;stroke-linecap:round;stroke-width:0.8;"/>
     </g>
     <g id="line2d_17">
      <g>
       <use style="fill:#262626;stroke:#262626;stroke-width:0.8;" x="621.426948869" xlink:href="#m3145f54d24" y="410.475138883"/>
      </g>
     </g>
     <g id="line2d_18">
      <g>
       <use style="fill:#262626;stroke:#262626;stroke-width:0.8;" x="621.426948869" xlink:href="#m3145f54d24" y="30.0205934289"/>
      </g>
     </g>
     <g id="text_6">
      <!-- $100$ -->
      <defs>
       <path d="M 6.703125 56 
L 7.703125 56 
L 20.59375 61.8125 
C 20.703125 61.90625 20.796875 61.90625 20.90625 61.90625 
C 21.5 61.90625 21.703125 61.015625 21.703125 58.609375 
L 21.703125 9.578125 
C 21.703125 4.3125 20.59375 3.203125 15.203125 3.203125 
L 9.59375 3.203125 
L 9.59375 0 
C 25 0 25 0 26.09375 0 
C 27.40625 0 29.59375 0 33 0 
C 34.203125 0 37.703125 0 41.796875 0 
L 41.796875 3.203125 
L 36.59375 3.203125 
C 31.09375 3.203125 30.09375 4.3125 30.09375 9.5625 
L 30.09375 69.421875 
L 28.703125 69.921875 
C 22.203125 66.515625 15.09375 63.515625 6 60.3125 
z
" id="URW_Palladio_L_Roman-49"/>
      </defs>
      <g style="fill:#262626;" transform="translate(606.482988719 430.331613627)scale(0.2 -0.2)">
       <use transform="scale(0.996264009963)" xlink:href="#URW_Palladio_L_Roman-49"/>
       <use transform="translate(49.8132004981 0.0)scale(0.996264009963)" xlink:href="#URW_Palladio_L_Roman-48"/>
       <use transform="translate(99.6264009963 0.0)scale(0.996264009963)" xlink:href="#URW_Palladio_L_Roman-48"/>
      </g>
     </g>
    </g>
    <g id="text_7">
     <!-- Index $j$ -->
     <defs>
      <path d="M 28.796875 25.46875 
L 43 42.09375 
C 43.59375 42.796875 44.703125 43.203125 46.40625 43.203125 
L 47.796875 43.203125 
L 47.796875 46 
L 39.59375 46 
L 27.203125 28.46875 
L 19.59375 40.09375 
C 18.09375 42.296875 17 43.609375 13.59375 47.015625 
L 2 45 
L 2.5 42.3125 
L 4.59375 42.09375 
C 6.40625 42.09375 8.59375 40.703125 9.59375 39.296875 
L 21.59375 21.84375 
L 6.703125 4.203125 
C 6 3.3125 4.703125 2.703125 3.703125 2.703125 
L 2 2.703125 
L 2 0 
L 10.59375 0 
C 11.296875 1.109375 11.5 1.5 12.703125 3.3125 
C 14.296875 6.109375 15.90625 8.609375 16.59375 9.421875 
L 24 19.234375 
L 34.703125 3.25 
L 34.796875 3.0625 
C 35.703125 1.671875 36.5 0.6875 37.296875 0 
C 42.5 0 42.5 0 43.40625 0 
C 44.40625 0 44.40625 0 49.59375 0 
L 49.59375 2.703125 
L 47.09375 3 
C 45.90625 3.109375 44.703125 3.90625 43.59375 5.40625 
z
" id="URW_Palladio_L_Roman-120"/>
      <path d="M 41 -0.109375 
C 47.09375 -0.109375 47.203125 -0.109375 48.90625 -0.109375 
C 50.296875 -0.109375 50.296875 -0.109375 57.203125 -0.109375 
L 57.203125 2.796875 
L 53.09375 3.203125 
C 49.703125 3.203125 49.40625 3.8125 49.40625 10.21875 
L 49.40625 29.5625 
C 49.40625 41.28125 43.90625 47 32.703125 47 
C 29 47 26.90625 46.296875 24.796875 44.484375 
L 17.203125 37.875 
L 17.203125 46.59375 
L 16.296875 47 
C 11.203125 44.890625 6 43.484375 0.703125 42.890625 
L 0.703125 40.078125 
L 4.40625 40.078125 
C 8.40625 40.078125 8.796875 39.375 8.796875 32.71875 
L 8.796875 10.046875 
C 8.796875 3.703125 8.5 3 5.09375 3 
L 0.59375 3 
L 0.59375 -0.109375 
C 7.40625 -0.109375 10.09375 -0.109375 13 -0.109375 
C 15.90625 -0.109375 18.59375 -0.109375 25.40625 -0.109375 
L 25.40625 3 
L 20.90625 3 
C 17.5 3 17.203125 3.703125 17.203125 10.046875 
L 17.203125 31.421875 
C 17.203125 35.9375 23.796875 40.875 29.90625 40.875 
C 36.59375 40.875 41 35.890625 41 28.21875 
z
" id="URW_Palladio_L_Roman-110"/>
      <path d="M 41.203125 43.78125 
C 35.59375 46.1875 32.796875 47 29.296875 47 
C 26.59375 47 24.203125 46.390625 21.703125 45.109375 
L 12.90625 40.515625 
C 7.203125 37.515625 3.5 30.234375 3.5 21.75 
C 3.5 13.765625 6.203125 7.1875 11.09375 3.1875 
C 14.5 0.296875 19.203125 -1 25.703125 -1 
C 27.703125 -1 30 -0.59375 30.5 -0.203125 
L 41.59375 9.109375 
L 41.09375 -0.109375 
C 46 -0.109375 47.59375 -0.109375 48.796875 -0.109375 
C 49.59375 -0.109375 51 -0.109375 53.09375 -0.109375 
C 53.796875 -0.109375 55.796875 -0.109375 57.90625 -0.109375 
L 57.90625 3 
L 53.296875 3 
C 49.90625 3 49.59375 3.703125 49.59375 10.046875 
L 49.59375 71.984375 
L 48.703125 72.796875 
C 44.296875 71.09375 41 70.28125 33.09375 69.078125 
L 33.09375 66.28125 
L 38.703125 66.28125 
C 40.5 66.28125 41.203125 65.171875 41.203125 62.15625 
z
M 41.203125 22.25 
C 41.203125 15.765625 41 14.78125 39.703125 12.484375 
C 36.90625 7.796875 32 4.71875 27.296875 4.71875 
C 18.5 4.71875 12.203125 13.1875 12.203125 25.046875 
C 12.203125 35.90625 17.59375 42.28125 26.59375 42.28125 
C 30.40625 42.28125 34.40625 40.984375 37.90625 38.59375 
C 40 37.203125 41.203125 35.90625 41.203125 35.09375 
z
" id="URW_Palladio_L_Roman-100"/>
      <path d="M 43.703125 6.984375 
L 42.40625 7.984375 
C 36 4.203125 33.703125 3.3125 29.40625 3.3125 
C 22.90625 3.3125 17.5 6.21875 14.703125 11.109375 
C 12.796875 14.390625 12.09375 17.203125 11.90625 23 
L 26.5 23 
C 33.40625 23 37.703125 23 44.59375 24.125 
C 44.703125 25.53125 44.796875 26.453125 44.796875 27.671875 
C 44.796875 39.375 37.40625 47 26.203125 47 
C 22.5 47 18.203125 45.6875 14.09375 43.28125 
C 5.90625 38.578125 2.59375 32.359375 2.59375 21.9375 
C 2.59375 15.625 4.09375 10.21875 6.796875 6.40625 
C 10.796875 1.109375 17.5 -2 25 -2 
C 28.703125 -2 32.40625 -1.203125 36.5 0.578125 
C 39.203125 1.6875 41.296875 2.984375 41.703125 3.59375 
z
M 35.90625 26.40625 
C 30.703125 26.40625 28.296875 26.40625 24.703125 26.40625 
C 20.09375 26.40625 17.5 26.40625 12.09375 26.90625 
C 12.09375 31.671875 12.5 33.890625 13.796875 36.515625 
C 15.90625 40.96875 20.203125 43.6875 25 43.6875 
C 28.296875 43.6875 30.90625 42.359375 32.703125 39.59375 
C 34.90625 36.234375 35.59375 33.265625 35.90625 26.40625 
" id="URW_Palladio_L_Roman-101"/>
      <path d="M -7 -26.296875 
C -6 -26.796875 -4.703125 -27 -3.203125 -27 
C 0.796875 -27 4.796875 -22.75 8.40625 -14.734375 
C 10.40625 -10.28125 11.796875 -5.328125 14.59375 7.234375 
L 22.203125 41.875 
C 22.59375 43.640625 22.796875 44.921875 22.796875 45.515625 
C 22.796875 47.09375 21.90625 48 20.296875 48 
C 18.09375 48 14.40625 45.921875 6.90625 40.65625 
L 4.09375 38.6875 
L 4.796875 36.71875 
L 8 38.796875 
C 11.703125 41.078125 12 41.265625 12.703125 41.265625 
C 13.703125 41.265625 14.5 40.28125 14.5 38.984375 
C 14.5 38.578125 14.296875 37.3125 14 36.203125 
C 13.90625 35.625 13.796875 35.234375 13.796875 35.03125 
L 3.796875 -13.921875 
C 2.703125 -19.0625 0.90625 -22.515625 -0.90625 -22.515625 
C -2.296875 -22.515625 -4.09375 -21.921875 -6.203125 -20.640625 
z
M 22.90625 71.765625 
C 20 71.765625 17.09375 68.46875 17.09375 65.09375 
C 17.09375 62.59375 18.59375 61 21 61 
C 24.09375 61 26.5 63.890625 26.5 67.671875 
C 26.5 70.0625 25 71.765625 22.90625 71.765625 
" id="URW_Palladio_L_Italic-106"/>
      <path d="M 21.59375 57.234375 
C 21.59375 65.1875 22.09375 66 26.703125 66 
L 31.5 66 
L 31.5 69.109375 
C 24.203125 69.109375 22 69.109375 16.796875 69.109375 
C 11.796875 69.109375 9.40625 69.109375 2.203125 69.109375 
L 2.203125 66 
L 7 66 
C 11.59375 66 12.09375 65.1875 12.09375 57.234375 
L 12.09375 11.96875 
C 12.09375 4 11.59375 3.203125 7 3.203125 
L 2.203125 3.203125 
L 2.203125 0 
C 8.09375 0 11.59375 0 16.796875 0 
C 22 0 25.59375 0 31.5 0 
L 31.5 3.203125 
L 26.703125 3.203125 
C 22.09375 3.203125 21.59375 4 21.59375 11.96875 
z
" id="URW_Palladio_L_Roman-73"/>
     </defs>
     <g style="fill:#262626;" transform="translate(311.538128016 455.206910365)scale(0.2 -0.2)">
      <use transform="scale(0.996264009963)" xlink:href="#URW_Palladio_L_Roman-73"/>
      <use transform="translate(33.5740788936 0.0)scale(0.996264009963)" xlink:href="#URW_Palladio_L_Roman-110"/>
      <use transform="translate(91.5561395743 0.0)scale(0.996264009963)" xlink:href="#URW_Palladio_L_Roman-100"/>
      <use transform="translate(152.427770251 0.0)scale(0.996264009963)" xlink:href="#URW_Palladio_L_Roman-101"/>
      <use transform="translate(200.14806536 0.0)scale(0.996264009963)" xlink:href="#URW_Palladio_L_Roman-120"/>
      <use transform="translate(281.193221343 0.0)scale(0.996264009963)" xlink:href="#URW_Palladio_L_Italic-106"/>
     </g>
    </g>
   </g>
   <g id="matplotlib.axis_2">
    <g id="ytick_1">
     <g id="line2d_19">
      <path clip-path="url(#p86cdbd0b99)" d="M 63.426949 410.475139 
L 621.426949 410.475139 
" style="fill:none;stroke:#ffffff;stroke-linecap:round;stroke-width:0.8;"/>
     </g>
     <g id="line2d_20">
      <g>
       <use style="fill:#262626;stroke:#262626;stroke-width:0.8;" x="63.4269488685" xlink:href="#m3145f54d24" y="410.475138883"/>
      </g>
     </g>
     <g id="line2d_21">
      <g>
       <use style="fill:#262626;stroke:#262626;stroke-width:0.8;" x="621.426948869" xlink:href="#m3145f54d24" y="410.475138883"/>
      </g>
     </g>
     <g id="text_8">
      <!-- $-20$ -->
      <defs>
       <path d="M 65.90625 23 
C 67.59375 23 69.40625 23 69.40625 25 
C 69.40625 27 67.59375 27 65.90625 27 
L 11.796875 27 
C 10.09375 27 8.296875 27 8.296875 25 
C 8.296875 23 10.09375 23 11.796875 23 
z
" id="CMSY10-0"/>
      </defs>
      <g style="fill:#262626;" transform="translate(21.5133263689 414.793965257)scale(0.2 -0.2)">
       <use transform="scale(1.03810691596)" xlink:href="#CMSY10-0"/>
       <use transform="translate(81.9416963 0.0)scale(0.996264009963)" xlink:href="#URW_Palladio_L_Roman-50"/>
       <use transform="translate(131.754896798 0.0)scale(0.996264009963)" xlink:href="#URW_Palladio_L_Roman-48"/>
      </g>
     </g>
    </g>
    <g id="ytick_2">
     <g id="line2d_22">
      <path clip-path="url(#p86cdbd0b99)" d="M 63.426949 362.918321 
L 621.426949 362.918321 
" style="fill:none;stroke:#ffffff;stroke-linecap:round;stroke-width:0.8;"/>
     </g>
     <g id="line2d_23">
      <g>
       <use style="fill:#262626;stroke:#262626;stroke-width:0.8;" x="63.4269488685" xlink:href="#m3145f54d24" y="362.918320702"/>
      </g>
     </g>
     <g id="line2d_24">
      <g>
       <use style="fill:#262626;stroke:#262626;stroke-width:0.8;" x="621.426948869" xlink:href="#m3145f54d24" y="362.918320702"/>
      </g>
     </g>
     <g id="text_9">
      <!-- $-15$ -->
      <defs>
       <path d="M 12.703125 60.578125 
C 25.59375 60.578125 31.203125 60.578125 43.203125 60.578125 
L 43.703125 61.046875 
C 43.5 62.75 43.5 63.5 43.5 64.75 
C 43.5 66.078125 43.5 66.828125 43.703125 68.53125 
L 43.203125 69 
C 35.703125 69 31.203125 69 25.796875 69 
C 20.296875 69 15.90625 69 8.40625 69 
L 7.90625 68.796875 
C 8 62.671875 8.09375 58.265625 8.09375 55.046875 
C 8.09375 46.515625 7.796875 36.875 7.5 32.453125 
L 9.5 31.84375 
C 14.203125 36.578125 16.90625 38 21.796875 38 
C 31.40625 38 37.40625 31.140625 37.40625 20.25 
C 37.40625 9.0625 31 2.5 20.09375 2.5 
C 14.703125 2.5 9.703125 4.328125 8.296875 6.9375 
L 3.703125 15.203125 
L 1.296875 13.796875 
C 3.59375 8.0625 4.796875 4.84375 6.203125 0.421875 
C 9 -1.109375 13 -2 17.296875 -2 
C 24 -2 31.09375 0.921875 36.59375 5.75 
C 42.703125 11.1875 45.90625 18.03125 45.90625 25.46875 
C 45.90625 36.859375 37.796875 44.90625 26.40625 44.90625 
C 21.59375 44.90625 18 43.609375 11.796875 39.90625 
z
" id="URW_Palladio_L_Roman-53"/>
      </defs>
      <g style="fill:#262626;" transform="translate(21.5133263689 367.237147075)scale(0.2 -0.2)">
       <use transform="scale(1.03810691596)" xlink:href="#CMSY10-0"/>
       <use transform="translate(81.9416963 0.0)scale(0.996264009963)" xlink:href="#URW_Palladio_L_Roman-49"/>
       <use transform="translate(131.754896798 0.0)scale(0.996264009963)" xlink:href="#URW_Palladio_L_Roman-53"/>
      </g>
     </g>
    </g>
    <g id="ytick_3">
     <g id="line2d_25">
      <path clip-path="url(#p86cdbd0b99)" d="M 63.426949 315.361503 
L 621.426949 315.361503 
" style="fill:none;stroke:#ffffff;stroke-linecap:round;stroke-width:0.8;"/>
     </g>
     <g id="line2d_26">
      <g>
       <use style="fill:#262626;stroke:#262626;stroke-width:0.8;" x="63.4269488685" xlink:href="#m3145f54d24" y="315.36150252"/>
      </g>
     </g>
     <g id="line2d_27">
      <g>
       <use style="fill:#262626;stroke:#262626;stroke-width:0.8;" x="621.426948869" xlink:href="#m3145f54d24" y="315.36150252"/>
      </g>
     </g>
     <g id="text_10">
      <!-- $-10$ -->
      <g style="fill:#262626;" transform="translate(21.5133263689 319.680328894)scale(0.2 -0.2)">
       <use transform="scale(1.03810691596)" xlink:href="#CMSY10-0"/>
       <use transform="translate(81.9416963 0.0)scale(0.996264009963)" xlink:href="#URW_Palladio_L_Roman-49"/>
       <use transform="translate(131.754896798 0.0)scale(0.996264009963)" xlink:href="#URW_Palladio_L_Roman-48"/>
      </g>
     </g>
    </g>
    <g id="ytick_4">
     <g id="line2d_28">
      <path clip-path="url(#p86cdbd0b99)" d="M 63.426949 267.804684 
L 621.426949 267.804684 
" style="fill:none;stroke:#ffffff;stroke-linecap:round;stroke-width:0.8;"/>
     </g>
     <g id="line2d_29">
      <g>
       <use style="fill:#262626;stroke:#262626;stroke-width:0.8;" x="63.4269488685" xlink:href="#m3145f54d24" y="267.804684338"/>
      </g>
     </g>
     <g id="line2d_30">
      <g>
       <use style="fill:#262626;stroke:#262626;stroke-width:0.8;" x="621.426948869" xlink:href="#m3145f54d24" y="267.804684338"/>
      </g>
     </g>
     <g id="text_11">
      <!-- $-5$ -->
      <g style="fill:#262626;" transform="translate(31.4759664685 272.123510712)scale(0.2 -0.2)">
       <use transform="scale(1.03810691596)" xlink:href="#CMSY10-0"/>
       <use transform="translate(81.9416963 0.0)scale(0.996264009963)" xlink:href="#URW_Palladio_L_Roman-53"/>
      </g>
     </g>
    </g>
    <g id="ytick_5">
     <g id="line2d_31">
      <path clip-path="url(#p86cdbd0b99)" d="M 63.426949 220.247866 
L 621.426949 220.247866 
" style="fill:none;stroke:#ffffff;stroke-linecap:round;stroke-width:0.8;"/>
     </g>
     <g id="line2d_32">
      <g>
       <use style="fill:#262626;stroke:#262626;stroke-width:0.8;" x="63.4269488685" xlink:href="#m3145f54d24" y="220.247866156"/>
      </g>
     </g>
     <g id="line2d_33">
      <g>
       <use style="fill:#262626;stroke:#262626;stroke-width:0.8;" x="621.426948869" xlink:href="#m3145f54d24" y="220.247866156"/>
      </g>
     </g>
     <g id="text_12">
      <!-- $0$ -->
      <g style="fill:#262626;" transform="translate(47.8643087689 224.56669253)scale(0.2 -0.2)">
       <use transform="scale(0.996264009963)" xlink:href="#URW_Palladio_L_Roman-48"/>
      </g>
     </g>
    </g>
    <g id="ytick_6">
     <g id="line2d_34">
      <path clip-path="url(#p86cdbd0b99)" d="M 63.426949 172.691048 
L 621.426949 172.691048 
" style="fill:none;stroke:#ffffff;stroke-linecap:round;stroke-width:0.8;"/>
     </g>
     <g id="line2d_35">
      <g>
       <use style="fill:#262626;stroke:#262626;stroke-width:0.8;" x="63.4269488685" xlink:href="#m3145f54d24" y="172.691047974"/>
      </g>
     </g>
     <g id="line2d_36">
      <g>
       <use style="fill:#262626;stroke:#262626;stroke-width:0.8;" x="621.426948869" xlink:href="#m3145f54d24" y="172.691047974"/>
      </g>
     </g>
     <g id="text_13">
      <!-- $5$ -->
      <g style="fill:#262626;" transform="translate(47.8643087689 177.009874348)scale(0.2 -0.2)">
       <use transform="scale(0.996264009963)" xlink:href="#URW_Palladio_L_Roman-53"/>
      </g>
     </g>
    </g>
    <g id="ytick_7">
     <g id="line2d_37">
      <path clip-path="url(#p86cdbd0b99)" d="M 63.426949 125.13423 
L 621.426949 125.13423 
" style="fill:none;stroke:#ffffff;stroke-linecap:round;stroke-width:0.8;"/>
     </g>
     <g id="line2d_38">
      <g>
       <use style="fill:#262626;stroke:#262626;stroke-width:0.8;" x="63.4269488685" xlink:href="#m3145f54d24" y="125.134229793"/>
      </g>
     </g>
     <g id="line2d_39">
      <g>
       <use style="fill:#262626;stroke:#262626;stroke-width:0.8;" x="621.426948869" xlink:href="#m3145f54d24" y="125.134229793"/>
      </g>
     </g>
     <g id="text_14">
      <!-- $10$ -->
      <g style="fill:#262626;" transform="translate(37.9016686692 129.453056166)scale(0.2 -0.2)">
       <use transform="scale(0.996264009963)" xlink:href="#URW_Palladio_L_Roman-49"/>
       <use transform="translate(49.8132004981 0.0)scale(0.996264009963)" xlink:href="#URW_Palladio_L_Roman-48"/>
      </g>
     </g>
    </g>
    <g id="ytick_8">
     <g id="line2d_40">
      <path clip-path="url(#p86cdbd0b99)" d="M 63.426949 77.577412 
L 621.426949 77.577412 
" style="fill:none;stroke:#ffffff;stroke-linecap:round;stroke-width:0.8;"/>
     </g>
     <g id="line2d_41">
      <g>
       <use style="fill:#262626;stroke:#262626;stroke-width:0.8;" x="63.4269488685" xlink:href="#m3145f54d24" y="77.5774116108"/>
      </g>
     </g>
     <g id="line2d_42">
      <g>
       <use style="fill:#262626;stroke:#262626;stroke-width:0.8;" x="621.426948869" xlink:href="#m3145f54d24" y="77.5774116108"/>
      </g>
     </g>
     <g id="text_15">
      <!-- $15$ -->
      <g style="fill:#262626;" transform="translate(37.9016686692 81.8962379845)scale(0.2 -0.2)">
       <use transform="scale(0.996264009963)" xlink:href="#URW_Palladio_L_Roman-49"/>
       <use transform="translate(49.8132004981 0.0)scale(0.996264009963)" xlink:href="#URW_Palladio_L_Roman-53"/>
      </g>
     </g>
    </g>
    <g id="ytick_9">
     <g id="line2d_43">
      <path clip-path="url(#p86cdbd0b99)" d="M 63.426949 30.020593 
L 621.426949 30.020593 
" style="fill:none;stroke:#ffffff;stroke-linecap:round;stroke-width:0.8;"/>
     </g>
     <g id="line2d_44">
      <g>
       <use style="fill:#262626;stroke:#262626;stroke-width:0.8;" x="63.4269488685" xlink:href="#m3145f54d24" y="30.0205934289"/>
      </g>
     </g>
     <g id="line2d_45">
      <g>
       <use style="fill:#262626;stroke:#262626;stroke-width:0.8;" x="621.426948869" xlink:href="#m3145f54d24" y="30.0205934289"/>
      </g>
     </g>
     <g id="text_16">
      <!-- $20$ -->
      <g style="fill:#262626;" transform="translate(37.9016686692 34.3394198027)scale(0.2 -0.2)">
       <use transform="scale(0.996264009963)" xlink:href="#URW_Palladio_L_Roman-50"/>
       <use transform="translate(49.8132004981 0.0)scale(0.996264009963)" xlink:href="#URW_Palladio_L_Roman-48"/>
      </g>
     </g>
    </g>
    <g id="text_17">
     <!-- $\kappa_{j}$ -->
     <defs>
      <path d="M 2.59375 38.625 
L 3.296875 36.59375 
L 6.5 38.6875 
C 9.40625 40.484375 10.40625 40.984375 11.296875 40.984375 
C 12.296875 40.984375 13 40.078125 13 38.890625 
C 13 33.015625 8.703125 12.5625 4.703125 -0.296875 
L 5.59375 -1 
L 12.296875 0.6875 
L 14.796875 14.15625 
C 15.59375 18.546875 18.09375 22.53125 21.296875 25.71875 
C 28.203125 5.78125 31.40625 -1 33.90625 -1 
C 35.203125 -1 37.5 0.296875 42 3.390625 
L 46.59375 6.578125 
L 45.796875 8.46875 
L 41.5 6.0625 
C 40.09375 5.28125 39.5 5.078125 38.59375 5.078125 
C 37.59375 5.078125 36.90625 5.6875 36 7.375 
C 32.5 13.75 30.296875 19.140625 26.40625 31.40625 
L 27.796875 32.796875 
C 33.90625 38.890625 38.5 41.375 43.5 41.375 
C 44.40625 41.375 45.40625 41.1875 47.09375 40.78125 
L 48.796875 47.09375 
C 47.09375 47.6875 45.296875 48 44 48 
C 37.40625 48 29.09375 40.40625 16.59375 22.9375 
L 18 29.546875 
C 18.5 31.859375 19.203125 35.875 19.796875 38.078125 
L 20.40625 40.6875 
C 20.796875 42.484375 21 43.6875 21 44.890625 
C 21 47 20.203125 48 18.703125 48 
C 16.59375 48 12.796875 45.984375 5.40625 40.625 
z
" id="Pazo_Math_Italic-107"/>
     </defs>
     <g style="fill:#262626;" transform="translate(7.2 213.224338662)scale(0.25 -0.25)">
      <use transform="translate(0.0 19.6000836706)scale(0.996264009963)" xlink:href="#Pazo_Math_Italic-107"/>
      <use transform="translate(53.4584815 0.0)scale(0.75715517493)" xlink:href="#URW_Palladio_L_Italic-106"/>
     </g>
    </g>
   </g>
   <g id="line2d_46">
    <defs>
     <path d="M 0 2.8 
C 0.742569 2.8 1.454824 2.504974 1.979899 1.979899 
C 2.504974 1.454824 2.8 0.742569 2.8 0 
C 2.8 -0.742569 2.504974 -1.454824 1.979899 -1.979899 
C 1.454824 -2.504974 0.742569 -2.8 0 -2.8 
C -0.742569 -2.8 -1.454824 -2.504974 -1.979899 -1.979899 
C -2.504974 -1.454824 -2.8 -0.742569 -2.8 0 
C -2.8 0.742569 -2.504974 1.454824 -1.979899 1.979899 
C -1.454824 2.504974 -0.742569 2.8 0 2.8 
z
" id="m9b96b85a51" style="stroke:#000000;stroke-width:0.1;"/>
    </defs>
    <g>
     <use style="fill:#0000ff;stroke:#000000;stroke-width:0.1;" x="63.4269488685" xlink:href="#m9b96b85a51" y="38.3648203299"/>
     <use style="fill:#0000ff;stroke:#000000;stroke-width:0.1;" x="69.0069488685" xlink:href="#m9b96b85a51" y="46.7376073898"/>
     <use style="fill:#0000ff;stroke:#000000;stroke-width:0.1;" x="74.5869488685" xlink:href="#m9b96b85a51" y="49.4886256669"/>
     <use style="fill:#0000ff;stroke:#000000;stroke-width:0.1;" x="80.1669488685" xlink:href="#m9b96b85a51" y="58.0976265168"/>
     <use style="fill:#0000ff;stroke:#000000;stroke-width:0.1;" x="85.7469488685" xlink:href="#m9b96b85a51" y="65.2897358655"/>
     <use style="fill:#0000ff;stroke:#000000;stroke-width:0.1;" x="91.3269488685" xlink:href="#m9b96b85a51" y="70.124592621"/>
     <use style="fill:#0000ff;stroke:#000000;stroke-width:0.1;" x="96.9069488685" xlink:href="#m9b96b85a51" y="72.8546738116"/>
     <use style="fill:#0000ff;stroke:#000000;stroke-width:0.1;" x="102.486948869" xlink:href="#m9b96b85a51" y="77.737100837"/>
     <use style="fill:#0000ff;stroke:#000000;stroke-width:0.1;" x="108.066948869" xlink:href="#m9b96b85a51" y="80.7731788935"/>
     <use style="fill:#0000ff;stroke:#000000;stroke-width:0.1;" x="113.646948869" xlink:href="#m9b96b85a51" y="87.0631298075"/>
     <use style="fill:#0000ff;stroke:#000000;stroke-width:0.1;" x="119.226948869" xlink:href="#m9b96b85a51" y="90.8157455392"/>
     <use style="fill:#0000ff;stroke:#000000;stroke-width:0.1;" x="124.806948869" xlink:href="#m9b96b85a51" y="95.0711953686"/>
     <use style="fill:#0000ff;stroke:#000000;stroke-width:0.1;" x="130.386948869" xlink:href="#m9b96b85a51" y="99.4242286543"/>
     <use style="fill:#0000ff;stroke:#000000;stroke-width:0.1;" x="135.966948869" xlink:href="#m9b96b85a51" y="105.35572248"/>
     <use style="fill:#0000ff;stroke:#000000;stroke-width:0.1;" x="141.546948869" xlink:href="#m9b96b85a51" y="108.466801741"/>
     <use style="fill:#0000ff;stroke:#000000;stroke-width:0.1;" x="147.126948869" xlink:href="#m9b96b85a51" y="111.235010336"/>
     <use style="fill:#0000ff;stroke:#000000;stroke-width:0.1;" x="152.706948869" xlink:href="#m9b96b85a51" y="114.412560345"/>
     <use style="fill:#0000ff;stroke:#000000;stroke-width:0.1;" x="158.286948869" xlink:href="#m9b96b85a51" y="117.056735376"/>
     <use style="fill:#0000ff;stroke:#000000;stroke-width:0.1;" x="163.866948869" xlink:href="#m9b96b85a51" y="122.097345372"/>
     <use style="fill:#0000ff;stroke:#000000;stroke-width:0.1;" x="169.446948869" xlink:href="#m9b96b85a51" y="124.489234472"/>
     <use style="fill:#0000ff;stroke:#000000;stroke-width:0.1;" x="175.026948869" xlink:href="#m9b96b85a51" y="130.234413139"/>
     <use style="fill:#0000ff;stroke:#000000;stroke-width:0.1;" x="180.606948869" xlink:href="#m9b96b85a51" y="131.648519353"/>
     <use style="fill:#0000ff;stroke:#000000;stroke-width:0.1;" x="186.186948869" xlink:href="#m9b96b85a51" y="134.434427469"/>
     <use style="fill:#0000ff;stroke:#000000;stroke-width:0.1;" x="191.766948869" xlink:href="#m9b96b85a51" y="138.286022852"/>
     <use style="fill:#0000ff;stroke:#000000;stroke-width:0.1;" x="197.346948869" xlink:href="#m9b96b85a51" y="139.655915528"/>
     <use style="fill:#0000ff;stroke:#000000;stroke-width:0.1;" x="202.926948869" xlink:href="#m9b96b85a51" y="143.741647891"/>
     <use style="fill:#0000ff;stroke:#000000;stroke-width:0.1;" x="208.506948869" xlink:href="#m9b96b85a51" y="145.945508365"/>
     <use style="fill:#0000ff;stroke:#000000;stroke-width:0.1;" x="214.086948869" xlink:href="#m9b96b85a51" y="148.151202401"/>
     <use style="fill:#0000ff;stroke:#000000;stroke-width:0.1;" x="219.666948869" xlink:href="#m9b96b85a51" y="153.909910363"/>
     <use style="fill:#0000ff;stroke:#000000;stroke-width:0.1;" x="225.246948869" xlink:href="#m9b96b85a51" y="157.529543606"/>
     <use style="fill:#0000ff;stroke:#000000;stroke-width:0.1;" x="230.826948869" xlink:href="#m9b96b85a51" y="163.578005865"/>
     <use style="fill:#0000ff;stroke:#000000;stroke-width:0.1;" x="236.406948869" xlink:href="#m9b96b85a51" y="165.186409998"/>
     <use style="fill:#0000ff;stroke:#000000;stroke-width:0.1;" x="241.986948869" xlink:href="#m9b96b85a51" y="168.423420951"/>
     <use style="fill:#0000ff;stroke:#000000;stroke-width:0.1;" x="247.566948869" xlink:href="#m9b96b85a51" y="171.182666652"/>
     <use style="fill:#0000ff;stroke:#000000;stroke-width:0.1;" x="253.146948869" xlink:href="#m9b96b85a51" y="173.478586786"/>
     <use style="fill:#0000ff;stroke:#000000;stroke-width:0.1;" x="258.726948869" xlink:href="#m9b96b85a51" y="175.873898129"/>
     <use style="fill:#0000ff;stroke:#000000;stroke-width:0.1;" x="264.306948869" xlink:href="#m9b96b85a51" y="177.737927683"/>
     <use style="fill:#0000ff;stroke:#000000;stroke-width:0.1;" x="269.886948869" xlink:href="#m9b96b85a51" y="180.827247911"/>
     <use style="fill:#0000ff;stroke:#000000;stroke-width:0.1;" x="275.466948869" xlink:href="#m9b96b85a51" y="183.956789683"/>
     <use style="fill:#0000ff;stroke:#000000;stroke-width:0.1;" x="281.046948869" xlink:href="#m9b96b85a51" y="188.463432379"/>
     <use style="fill:#0000ff;stroke:#000000;stroke-width:0.1;" x="286.626948869" xlink:href="#m9b96b85a51" y="189.121844457"/>
     <use style="fill:#0000ff;stroke:#000000;stroke-width:0.1;" x="292.206948869" xlink:href="#m9b96b85a51" y="193.947544015"/>
     <use style="fill:#0000ff;stroke:#000000;stroke-width:0.1;" x="297.786948869" xlink:href="#m9b96b85a51" y="196.905110287"/>
     <use style="fill:#0000ff;stroke:#000000;stroke-width:0.1;" x="303.366948869" xlink:href="#m9b96b85a51" y="201.077655583"/>
     <use style="fill:#0000ff;stroke:#000000;stroke-width:0.1;" x="308.946948869" xlink:href="#m9b96b85a51" y="202.68585202"/>
     <use style="fill:#0000ff;stroke:#000000;stroke-width:0.1;" x="314.526948869" xlink:href="#m9b96b85a51" y="205.820984596"/>
     <use style="fill:#0000ff;stroke:#000000;stroke-width:0.1;" x="320.106948869" xlink:href="#m9b96b85a51" y="208.60411741"/>
     <use style="fill:#0000ff;stroke:#000000;stroke-width:0.1;" x="325.686948869" xlink:href="#m9b96b85a51" y="211.173474638"/>
     <use style="fill:#0000ff;stroke:#000000;stroke-width:0.1;" x="331.266948869" xlink:href="#m9b96b85a51" y="215.16245071"/>
     <use style="fill:#0000ff;stroke:#000000;stroke-width:0.1;" x="336.846948869" xlink:href="#m9b96b85a51" y="218.012827563"/>
     <use style="fill:#0000ff;stroke:#000000;stroke-width:0.1;" x="342.426948869" xlink:href="#m9b96b85a51" y="220.234361366"/>
     <use style="fill:#0000ff;stroke:#000000;stroke-width:0.1;" x="348.006948869" xlink:href="#m9b96b85a51" y="222.13476817"/>
     <use style="fill:#0000ff;stroke:#000000;stroke-width:0.1;" x="353.586948869" xlink:href="#m9b96b85a51" y="228.224433224"/>
     <use style="fill:#0000ff;stroke:#000000;stroke-width:0.1;" x="359.166948869" xlink:href="#m9b96b85a51" y="229.022260336"/>
     <use style="fill:#0000ff;stroke:#000000;stroke-width:0.1;" x="364.746948869" xlink:href="#m9b96b85a51" y="231.803271189"/>
     <use style="fill:#0000ff;stroke:#000000;stroke-width:0.1;" x="370.326948869" xlink:href="#m9b96b85a51" y="234.948454003"/>
     <use style="fill:#0000ff;stroke:#000000;stroke-width:0.1;" x="375.906948869" xlink:href="#m9b96b85a51" y="238.235994971"/>
     <use style="fill:#0000ff;stroke:#000000;stroke-width:0.1;" x="381.486948869" xlink:href="#m9b96b85a51" y="242.486843489"/>
     <use style="fill:#0000ff;stroke:#000000;stroke-width:0.1;" x="387.066948869" xlink:href="#m9b96b85a51" y="245.420780728"/>
     <use style="fill:#0000ff;stroke:#000000;stroke-width:0.1;" x="392.646948869" xlink:href="#m9b96b85a51" y="247.073221354"/>
     <use style="fill:#0000ff;stroke:#000000;stroke-width:0.1;" x="398.226948869" xlink:href="#m9b96b85a51" y="250.610316319"/>
     <use style="fill:#0000ff;stroke:#000000;stroke-width:0.1;" x="403.806948869" xlink:href="#m9b96b85a51" y="251.482808045"/>
     <use style="fill:#0000ff;stroke:#000000;stroke-width:0.1;" x="409.386948869" xlink:href="#m9b96b85a51" y="257.269541468"/>
     <use style="fill:#0000ff;stroke:#000000;stroke-width:0.1;" x="414.966948869" xlink:href="#m9b96b85a51" y="259.252584081"/>
     <use style="fill:#0000ff;stroke:#000000;stroke-width:0.1;" x="420.546948869" xlink:href="#m9b96b85a51" y="261.794392843"/>
     <use style="fill:#0000ff;stroke:#000000;stroke-width:0.1;" x="426.126948869" xlink:href="#m9b96b85a51" y="265.251634638"/>
     <use style="fill:#0000ff;stroke:#000000;stroke-width:0.1;" x="431.706948869" xlink:href="#m9b96b85a51" y="268.256324534"/>
     <use style="fill:#0000ff;stroke:#000000;stroke-width:0.1;" x="437.286948869" xlink:href="#m9b96b85a51" y="270.89174426"/>
     <use style="fill:#0000ff;stroke:#000000;stroke-width:0.1;" x="442.866948869" xlink:href="#m9b96b85a51" y="275.475887516"/>
     <use style="fill:#0000ff;stroke:#000000;stroke-width:0.1;" x="448.446948869" xlink:href="#m9b96b85a51" y="277.523718429"/>
     <use style="fill:#0000ff;stroke:#000000;stroke-width:0.1;" x="454.026948869" xlink:href="#m9b96b85a51" y="280.781870506"/>
     <use style="fill:#0000ff;stroke:#000000;stroke-width:0.1;" x="459.606948869" xlink:href="#m9b96b85a51" y="286.08463556"/>
     <use style="fill:#0000ff;stroke:#000000;stroke-width:0.1;" x="465.186948869" xlink:href="#m9b96b85a51" y="287.359662514"/>
     <use style="fill:#0000ff;stroke:#000000;stroke-width:0.1;" x="470.766948869" xlink:href="#m9b96b85a51" y="291.004849707"/>
     <use style="fill:#0000ff;stroke:#000000;stroke-width:0.1;" x="476.346948869" xlink:href="#m9b96b85a51" y="293.532306894"/>
     <use style="fill:#0000ff;stroke:#000000;stroke-width:0.1;" x="481.926948869" xlink:href="#m9b96b85a51" y="297.117591594"/>
     <use style="fill:#0000ff;stroke:#000000;stroke-width:0.1;" x="487.506948869" xlink:href="#m9b96b85a51" y="301.619001679"/>
     <use style="fill:#0000ff;stroke:#000000;stroke-width:0.1;" x="493.086948869" xlink:href="#m9b96b85a51" y="303.296290621"/>
     <use style="fill:#0000ff;stroke:#000000;stroke-width:0.1;" x="498.666948869" xlink:href="#m9b96b85a51" y="307.140207014"/>
     <use style="fill:#0000ff;stroke:#000000;stroke-width:0.1;" x="504.246948869" xlink:href="#m9b96b85a51" y="309.080209713"/>
     <use style="fill:#0000ff;stroke:#000000;stroke-width:0.1;" x="509.826948869" xlink:href="#m9b96b85a51" y="312.523381418"/>
     <use style="fill:#0000ff;stroke:#000000;stroke-width:0.1;" x="515.406948869" xlink:href="#m9b96b85a51" y="317.615532973"/>
     <use style="fill:#0000ff;stroke:#000000;stroke-width:0.1;" x="520.986948869" xlink:href="#m9b96b85a51" y="319.623737692"/>
     <use style="fill:#0000ff;stroke:#000000;stroke-width:0.1;" x="526.566948869" xlink:href="#m9b96b85a51" y="321.127259617"/>
     <use style="fill:#0000ff;stroke:#000000;stroke-width:0.1;" x="532.146948869" xlink:href="#m9b96b85a51" y="325.502154475"/>
     <use style="fill:#0000ff;stroke:#000000;stroke-width:0.1;" x="537.726948869" xlink:href="#m9b96b85a51" y="328.279852079"/>
     <use style="fill:#0000ff;stroke:#000000;stroke-width:0.1;" x="543.306948869" xlink:href="#m9b96b85a51" y="334.874992557"/>
     <use style="fill:#0000ff;stroke:#000000;stroke-width:0.1;" x="548.886948869" xlink:href="#m9b96b85a51" y="336.07696143"/>
     <use style="fill:#0000ff;stroke:#000000;stroke-width:0.1;" x="554.466948869" xlink:href="#m9b96b85a51" y="339.634311616"/>
     <use style="fill:#0000ff;stroke:#000000;stroke-width:0.1;" x="560.046948869" xlink:href="#m9b96b85a51" y="343.30962784"/>
     <use style="fill:#0000ff;stroke:#000000;stroke-width:0.1;" x="565.626948869" xlink:href="#m9b96b85a51" y="347.229491623"/>
     <use style="fill:#0000ff;stroke:#000000;stroke-width:0.1;" x="571.206948869" xlink:href="#m9b96b85a51" y="351.688840186"/>
     <use style="fill:#0000ff;stroke:#000000;stroke-width:0.1;" x="576.786948869" xlink:href="#m9b96b85a51" y="354.459649863"/>
     <use style="fill:#0000ff;stroke:#000000;stroke-width:0.1;" x="582.366948869" xlink:href="#m9b96b85a51" y="359.274387579"/>
     <use style="fill:#0000ff;stroke:#000000;stroke-width:0.1;" x="587.946948869" xlink:href="#m9b96b85a51" y="364.917760322"/>
     <use style="fill:#0000ff;stroke:#000000;stroke-width:0.1;" x="593.526948869" xlink:href="#m9b96b85a51" y="369.590286207"/>
     <use style="fill:#0000ff;stroke:#000000;stroke-width:0.1;" x="599.106948869" xlink:href="#m9b96b85a51" y="372.541327268"/>
     <use style="fill:#0000ff;stroke:#000000;stroke-width:0.1;" x="604.686948869" xlink:href="#m9b96b85a51" y="378.508380149"/>
     <use style="fill:#0000ff;stroke:#000000;stroke-width:0.1;" x="610.266948869" xlink:href="#m9b96b85a51" y="387.590396928"/>
     <use style="fill:#0000ff;stroke:#000000;stroke-width:0.1;" x="615.846948869" xlink:href="#m9b96b85a51" y="397.461002908"/>
    </g>
   </g>
   <g id="patch_3">
    <path d="M 63.426949 30.020593 
L 621.426949 30.020593 
" style="fill:none;"/>
   </g>
   <g id="patch_4">
    <path d="M 621.426949 410.475139 
L 621.426949 30.020593 
" style="fill:none;"/>
   </g>
   <g id="patch_5">
    <path d="M 63.426949 410.475139 
L 621.426949 410.475139 
" style="fill:none;"/>
   </g>
   <g id="patch_6">
    <path d="M 63.426949 410.475139 
L 63.426949 30.020593 
" style="fill:none;"/>
   </g>
   <g id="text_18">
    <!-- 100 (sorted) GUE eigenvalues -->
    <defs>
     <path d="M 53.90625 43 
L 53.90625 45.8125 
C 47.90625 45.8125 46.09375 45.8125 44.5 45.8125 
C 42.90625 45.8125 41.09375 45.8125 35.09375 45.8125 
L 35.09375 43 
L 39.203125 43 
C 40.796875 43 41.59375 42.09375 41.59375 40.484375 
C 41.59375 38.890625 40.90625 36.203125 39.703125 33.1875 
L 35.5 22.578125 
C 34.296875 19.671875 33.09375 16.875 29.296875 8.578125 
L 17.40625 37.390625 
C 16.796875 38.78125 16.5 40.09375 16.5 41.1875 
C 16.5 42.296875 17.40625 43 19 43 
L 23.90625 43 
L 23.90625 45.8125 
C 14.09375 45.8125 14.09375 45.8125 12.203125 45.8125 
C 10.296875 45.8125 5.5 45.8125 0.59375 45.8125 
L 0.59375 43 
L 4 43 
C 5.5 42.796875 6 42.203125 7.09375 39.703125 
L 24.296875 -0.5 
L 29.296875 -0.5 
C 29.90625 1.203125 30.90625 3.796875 30.90625 4 
C 32 6.984375 33.296875 10.375 33.40625 10.375 
L 45.203125 36.3125 
C 47.40625 41.015625 48.796875 42.796875 50.796875 43 
z
" id="URW_Palladio_L_Roman-118"/>
     <path d="M 2.296875 66.5 
L 7.90625 66.5 
C 9.703125 66.5 10.40625 65.390625 10.40625 62.375 
L 10.40625 10.171875 
C 10.40625 3.8125 10.09375 3.109375 6.703125 3.109375 
L 2.09375 3.109375 
L 2.09375 0 
C 12.09375 0 12.09375 0 14.59375 0 
C 17.09375 0 17.09375 0 27.09375 0 
L 27.09375 3.109375 
L 22.5 3.109375 
C 19.09375 3.109375 18.796875 3.8125 18.796875 10.15625 
L 18.796875 72.203125 
L 17.90625 73.015625 
C 13.5 71.3125 10.203125 70.5 2.296875 69.296875 
z
" id="URW_Palladio_L_Roman-108"/>
     <path d="M 18.796875 46.765625 
L 17.90625 47.171875 
C 12.796875 45.0625 7.59375 43.640625 2.296875 43.046875 
L 2.296875 40.25 
L 6 40.25 
C 10 40.25 10.40625 39.546875 10.40625 32.890625 
L 10.40625 10.171875 
C 10.40625 3.8125 10.09375 3.109375 6.703125 3.109375 
L 2.09375 3.109375 
L 2.09375 0 
C 12.09375 0 12.09375 0 14.59375 0 
C 17.09375 0 17.09375 0 27.09375 0 
L 27.09375 3.109375 
L 22.5 3.109375 
C 19.09375 3.109375 18.796875 3.8125 18.796875 10.171875 
z
M 14.203125 69 
C 11.203125 69 8.59375 66.390625 8.59375 63.375 
C 8.59375 60.46875 11.203125 57.875 14.09375 57.875 
C 17 57.875 19.703125 60.46875 19.703125 63.375 
C 19.703125 66.1875 17 69 14.203125 69 
" id="URW_Palladio_L_Roman-105"/>
     <path d="M 27.90625 47 
C 13.296875 47 3.203125 36.671875 3.203125 21.75 
C 3.203125 7.609375 12.09375 -2 25 -2 
C 40.40625 -2 51.40625 8.71875 51.40625 23.75 
C 51.40625 37.28125 41.59375 47 27.90625 47 
M 26.09375 43.6875 
C 35.296875 43.6875 42.09375 33.671875 42.09375 20.046875 
C 42.09375 8.515625 37 1.296875 28.90625 1.296875 
C 19.09375 1.296875 12.5 10.921875 12.5 25.15625 
C 12.5 37.171875 17.296875 43.6875 26.09375 43.6875 
" id="URW_Palladio_L_Roman-111"/>
     <path d="M 51.90625 38 
L 54.40625 42.109375 
L 54 43.109375 
L 39.796875 43.109375 
C 36.09375 45.890625 32.5 47 27.59375 47 
C 23.203125 47 18.09375 45.625 14 43.25 
C 8.40625 40.109375 5.5 35.28125 5.5 29.28125 
C 5.5 22 10.09375 16.984375 17.5 16.1875 
L 9.59375 10 
C 8.59375 8.484375 8.09375 7.171875 8.09375 5.640625 
C 8.09375 2.8125 9.90625 1.1875 14.703125 -0.21875 
L 6 -4.9375 
C 4.59375 -5.734375 3.203125 -9.4375 3.203125 -12.546875 
C 3.203125 -21.6875 12.09375 -28 24.796875 -28 
C 39.90625 -28 51.796875 -18.46875 51.796875 -6.234375 
C 51.796875 0.984375 47 6 40 6 
L 24 6 
C 18.796875 6 16.40625 7.21875 16.40625 9.984375 
C 16.40625 11.3125 17.203125 12.421875 19.796875 14.671875 
C 20.40625 15.1875 20.59375 15.390625 21 15.796875 
C 22 15.6875 22.59375 15.59375 23.40625 15.59375 
C 27.703125 15.59375 33 17.46875 37.09375 20.3125 
C 41.59375 23.546875 43.796875 27.484375 43.796875 32.703125 
C 43.796875 34.65625 43.5 35.9375 42.703125 38 
z
M 24 43.59375 
C 30.796875 43.59375 35.40625 38.09375 35.40625 29.765625 
C 35.40625 23.421875 31.203125 19 25.09375 19 
C 18.40625 19 13.90625 24.09375 13.90625 31.640625 
C 13.90625 39.171875 17.59375 43.59375 24 43.59375 
M 28.703125 -1.015625 
C 40 -1.015625 43.90625 -3.3125 43.90625 -9.84375 
C 43.90625 -18.46875 36 -24.890625 25.5 -24.890625 
C 16.796875 -24.890625 10.796875 -19.78125 10.796875 -12.34375 
C 10.796875 -7.84375 13.40625 -3.71875 17.40625 -2.015625 
C 19 -1.21875 21.796875 -1.015625 28.703125 -1.015625 
" id="URW_Palladio_L_Roman-103"/>
     <path d="M 4.09375 14.328125 
C 4.09375 7.421875 3.796875 4.40625 3 0.40625 
C 8.203125 -1.296875 12.09375 -2 16.703125 -2 
C 29.796875 -2 39.09375 5.015625 39.09375 14.828125 
C 39.09375 17.9375 38.203125 20.234375 36.296875 22.25 
C 33.703125 24.75 30.40625 25.953125 21.59375 27.65625 
C 13.40625 29.265625 10.703125 31.265625 10.703125 35.875 
C 10.703125 40.875 14.203125 43.6875 20.296875 43.6875 
C 27 43.6875 32.09375 40.1875 32.09375 35.46875 
L 32.09375 33.171875 
L 34.90625 33.171875 
C 35 38.984375 35.09375 41.375 35.40625 44.484375 
C 30.09375 46.296875 26.5 47 22.40625 47 
C 10.796875 47 3.703125 41.484375 3.703125 32.46875 
C 3.703125 27.65625 5.90625 24.25 10.5 22.140625 
C 13.203125 20.9375 18.5 19.34375 25.296875 17.828125 
C 29.796875 16.828125 31.703125 14.734375 31.703125 10.921875 
C 31.703125 5.515625 26.703125 1.703125 19.59375 1.703125 
C 12.296875 1.703125 7.09375 5.203125 7.09375 10.21875 
L 7.09375 14.328125 
z
" id="URW_Palladio_L_Roman-115"/>
     <path d="M 2.296875 40.078125 
L 6 40.078125 
C 10 40.078125 10.40625 39.375 10.40625 32.71875 
L 10.40625 10.046875 
C 10.40625 3.703125 10.09375 3 6.703125 3 
L 2.09375 3 
L 2.09375 -0.109375 
C 9.296875 -0.109375 11.90625 -0.109375 14.40625 -0.109375 
C 16.40625 -0.109375 16.40625 -0.109375 28.703125 -0.109375 
L 28.703125 3 
L 23.5 3 
C 19 3 18.796875 3.296875 18.796875 9.96875 
L 18.796875 27.359375 
C 18.796875 33.421875 22.796875 38.484375 27.703125 38.484375 
C 30.703125 38.484375 32.796875 37.078125 34.40625 33.890625 
L 36.5 33.890625 
L 37.40625 45.890625 
C 36.296875 46.59375 34.5 47 32.703125 47 
C 29.703125 47 26.5 45.390625 24.40625 42.890625 
L 18.796875 36.28125 
L 18.796875 46.59375 
L 17.90625 47 
C 12.796875 44.890625 7.59375 43.484375 2.296875 42.890625 
z
" id="URW_Palladio_L_Roman-114"/>
     <path d="M 50.296875 47.015625 
L 49.40625 47.421875 
C 44.296875 45.3125 39.09375 43.90625 33.796875 43.3125 
L 33.796875 40.5 
L 37.5 40.5 
C 41.5 40.5 41.90625 39.796875 41.90625 33.140625 
L 41.90625 16.71875 
C 41.90625 14.5 40.5 11.671875 38.203125 9.359375 
C 35.40625 6.53125 32.203125 5.109375 28.296875 5.109375 
C 24.796875 5.109375 22 6.21875 20.40625 8.140625 
C 19 9.75 18.296875 12.875 18.296875 17.296875 
L 18.296875 47.015625 
L 17.40625 47.421875 
C 12.296875 45.3125 7.09375 43.90625 1.796875 43.3125 
L 1.796875 40.5 
L 5.5 40.5 
C 9.5 40.5 9.90625 39.796875 9.90625 33.15625 
L 9.90625 16.234375 
C 9.90625 9.171875 10.5 6.046875 12.296875 3.546875 
C 14.5 0.515625 18.296875 -1 24 -1 
C 28.5 -1 32.5 0.40625 35.203125 2.90625 
L 41.90625 9.140625 
C 41.90625 6.265625 41.796875 4.65625 41.5 0 
C 48.203125 0 48.296875 0 49.796875 0 
C 51.203125 0 51.203125 0 58.09375 0 
L 58.09375 2.90625 
L 54 3.3125 
C 50.59375 3.3125 50.296875 3.921875 50.296875 10.375 
z
" id="URW_Palladio_L_Roman-117"/>
     <path d="M 9.796875 38.6875 
L 9.796875 9.671875 
C 9.796875 2.21875 13.09375 -1 20.796875 -1 
C 23.09375 -1 25.5 -0.5 26.09375 0.203125 
L 30.90625 5.515625 
L 29.59375 7.234375 
C 27.09375 5.8125 25.59375 5.3125 23.703125 5.3125 
C 19.796875 5.3125 18.203125 7.34375 18.203125 12.3125 
L 18.203125 38.890625 
L 31 38.890625 
L 31.90625 44 
L 18.203125 44 
L 18.203125 47.75 
C 18.203125 51.890625 18.5 55.421875 19.296875 61.734375 
L 18.09375 62.828125 
C 15.703125 61.328125 12.703125 60.03125 9.59375 59.03125 
C 9.90625 56.015625 10 54.109375 10 51.109375 
L 10 44.09375 
L 2.203125 40.59375 
L 2.203125 38.6875 
z
" id="URW_Palladio_L_Roman-116"/>
     <path d="M 32.40625 8.40625 
L 31.90625 -0.015625 
C 38.40625 -0.015625 38.40625 -0.015625 39.703125 -0.015625 
C 40.203125 -0.015625 42.703125 -0.015625 47.09375 -0.015625 
L 47.09375 3 
L 43.203125 3 
C 40.796875 3 40.40625 3.8125 40.40625 8.71875 
L 40.40625 27.046875 
C 40.40625 41.6875 36.203125 47 24.59375 47 
C 20.296875 47 16.296875 45.890625 12.5 43.609375 
L 7.203125 40.390625 
L 7.203125 33.921875 
L 9.796875 33.21875 
L 11.09375 36.296875 
C 13.203125 40.984375 14.203125 41.6875 18.796875 41.6875 
C 28.203125 41.6875 32.09375 37.984375 32.40625 28.9375 
L 22.5 27.125 
C 8.90625 24.640625 3.203125 19.953125 3.203125 11.28125 
C 3.203125 3.5 7.90625 -1 15.796875 -1 
C 17.59375 -1 19.296875 -0.703125 20 -0.203125 
z
M 32.40625 12.59375 
C 29.5 8.5 23.203125 4.71875 19.296875 4.71875 
C 15.296875 4.71875 11.796875 8.40625 11.796875 12.6875 
C 11.796875 16.375 13.796875 19.859375 16.796875 21.75 
C 19.296875 23.25 24.796875 24.640625 32.40625 25.75 
z
" id="URW_Palladio_L_Roman-97"/>
     <path d="M 64.09375 51.671875 
L 67.203125 51.671875 
C 67.203125 56.765625 67.796875 61.46875 69.203125 66.875 
C 58.09375 70.09375 53 71 45 71 
C 19.203125 71 2.203125 56.375 2.203125 34.15625 
C 2.203125 24.03125 5.59375 15.015625 11.90625 8.921875 
C 18.796875 2 29.59375 -2 41.203125 -2 
C 48.296875 -2 55.203125 -0.703125 68.796875 3.109375 
L 68.796875 19.90625 
C 68.796875 23.015625 68.90625 23.21875 69.90625 23.609375 
L 72.796875 24.625 
L 72.40625 27.03125 
C 63.5 27.03125 63.203125 27.03125 60.09375 27.03125 
C 57.203125 27.03125 56.59375 27.03125 47.90625 27.03125 
L 47.90625 24.125 
L 56.203125 23.4375 
C 58.703125 23.234375 59.59375 22.328125 59.59375 19.921875 
L 59.59375 9.8125 
C 59.59375 7.421875 59.40625 6.21875 59 5.515625 
C 57.90625 3.609375 51.90625 2.203125 45.296875 2.203125 
C 25.5 2.203125 12.90625 15.421875 12.90625 36.234375 
C 12.90625 55.578125 23.703125 66.78125 42.40625 66.78125 
C 47.59375 66.78125 52 66.1875 55.796875 64.984375 
C 61.59375 63.078125 64.09375 60.78125 64.09375 56.984375 
z
" id="URW_Palladio_L_Roman-71"/>
     <path d="M 66.40625 57.25 
C 66.40625 65.09375 66.90625 66 71.5 66 
L 75.90625 66 
L 75.90625 69.109375 
C 65.40625 69.109375 65.40625 69.109375 63.90625 69.109375 
C 62.203125 69.109375 62.203125 69.109375 52.296875 69.109375 
L 52.296875 66 
L 56.703125 66 
C 61.296875 66 61.796875 65.09375 61.796875 57.25 
L 61.796875 25.046875 
C 61.796875 10.859375 55 4.203125 40.5 4.203125 
C 26.59375 4.203125 20.59375 9.75 20.59375 22.625 
L 20.59375 57.25 
C 20.59375 65.1875 21.09375 66 25.703125 66 
L 30.5 66 
L 30.5 69.109375 
C 23.203125 69.109375 21 69.109375 15.796875 69.109375 
C 10.796875 69.109375 8.40625 69.109375 1.203125 69.109375 
L 1.203125 66 
L 6 66 
C 10.59375 66 11.09375 65.1875 11.09375 57.25 
L 11.09375 21.53125 
C 11.09375 13.6875 12.90625 8.15625 16.703125 4.234375 
C 20.703125 0.109375 27.796875 -2 37.796875 -2 
C 48.09375 -2 55 0.109375 59.5 4.734375 
C 64.203125 9.46875 66.40625 17.015625 66.40625 28.1875 
z
" id="URW_Palladio_L_Roman-85"/>
     <path d="M 2.203125 66 
L 7 66 
C 11.59375 66 12.09375 65.1875 12.09375 57.265625 
L 12.09375 12.25 
C 12.09375 4.3125 11.703125 3.609375 7 3.203125 
L 3.40625 2.90625 
L 3.40625 0 
C 10 0 12.90625 0 15.703125 0 
C 16.203125 0 19 0 22.796875 0 
C 36.703125 0 36.703125 0 38.90625 0 
C 42 0 42 0 55.59375 0 
C 55.59375 5.96875 56.203125 11.5 57.203125 16.859375 
L 53.703125 16.859375 
C 53.5 15.1875 53.296875 13.71875 53.203125 13.3125 
C 52.59375 8.8125 51.296875 5.5625 49.90625 5.046875 
C 47.796875 4.3125 40.5 4.3125 31.5 4.3125 
C 26.296875 4.3125 24.5 4.46875 21.59375 4.921875 
L 21.59375 32.8125 
C 24.40625 33 27.40625 33 31.90625 33 
C 39.296875 33 42 32.71875 43.796875 31.875 
L 44.59375 29.53125 
L 45.09375 24 
L 48.09375 24 
C 47.796875 33.3125 47.796875 33.3125 47.796875 35.109375 
C 47.796875 36.71875 47.796875 36.71875 48.09375 46.734375 
L 45.09375 46.734375 
L 44.59375 41.28125 
C 44.5 40.328125 44.203125 39.390625 43.796875 38.546875 
C 42 37.71875 39.203125 37.40625 32.59375 37.40625 
C 28.40625 37.40625 25 37.40625 21.59375 37.40625 
L 21.59375 64.328125 
C 24.703125 65 26.40625 65 33.296875 65 
C 39 65 44.59375 64.53125 47.796875 63.6875 
C 50.203125 63.109375 50.5 62.625 50.5 60.4375 
L 50.5 54.140625 
L 54 54.140625 
C 54 60.046875 54.5 64.78125 55.59375 69.109375 
C 50.703125 69.109375 47.59375 69.109375 43.203125 69.109375 
C 40.703125 69.109375 37.40625 69.109375 33.296875 69.109375 
C 27 69.109375 22.703125 69.109375 20 69.109375 
C 16.59375 69.109375 12.09375 69.109375 2.203125 69.109375 
z
" id="URW_Palladio_L_Roman-69"/>
     <path d="M 30.09375 -19.4375 
C 22.90625 -10.515625 20.296875 -5.71875 17.703125 3.3125 
C 15.59375 10.515625 14.59375 18.140625 14.59375 26.65625 
C 14.59375 34.96875 15.59375 42.078125 17.5 48.59375 
C 20.09375 56.90625 22.796875 61.625 30.09375 70.140625 
L 28.203125 72.75 
C 17.796875 63.421875 13.703125 57.921875 9.90625 48.09375 
C 7.296875 41.375 6 34.265625 6 26.65625 
C 6 15.9375 8.5 5.8125 13.296875 -3.203125 
C 16.796875 -9.921875 20 -13.828125 28.203125 -21.546875 
z
" id="URW_Palladio_L_Roman-40"/>
     <path d="M 5.09375 -21.546875 
C 12 -15.03125 14.90625 -11.71875 18 -6.8125 
C 24.09375 2.90625 27.296875 14.53125 27.296875 26.546875 
C 27.296875 34.265625 26 41.375 23.40625 48.09375 
C 19.59375 57.8125 15.5 63.328125 5.09375 72.75 
L 3.203125 70.140625 
C 10.5 61.515625 13.203125 56.8125 15.703125 48.59375 
C 17.703125 42.078125 18.703125 34.96875 18.703125 26.65625 
C 18.703125 18.140625 17.703125 10.515625 15.59375 3.3125 
C 13 -5.71875 10.40625 -10.515625 3.203125 -19.4375 
z
" id="URW_Palladio_L_Roman-41"/>
    </defs>
    <g style="fill:#262626;" transform="translate(179.31535076 25.0205934289)scale(0.25 -0.25)">
     <use transform="scale(0.996264009963)" xlink:href="#URW_Palladio_L_Roman-49"/>
     <use transform="translate(49.8132004981 0.0)scale(0.996264009963)" xlink:href="#URW_Palladio_L_Roman-48"/>
     <use transform="translate(99.6264009963 0.0)scale(0.996264009963)" xlink:href="#URW_Palladio_L_Roman-48"/>
     <use transform="translate(174.346201743 0.0)scale(0.996264009963)" xlink:href="#URW_Palladio_L_Roman-40"/>
     <use transform="translate(207.521431473 0.0)scale(0.996264009963)" xlink:href="#URW_Palladio_L_Roman-115"/>
     <use transform="translate(249.7628978 0.0)scale(0.996264009963)" xlink:href="#URW_Palladio_L_Roman-111"/>
     <use transform="translate(304.158477973 0.0)scale(0.996264009963)" xlink:href="#URW_Palladio_L_Roman-114"/>
     <use transform="translate(343.510374304 0.0)scale(0.996264009963)" xlink:href="#URW_Palladio_L_Roman-116"/>
     <use transform="translate(375.987462178 0.0)scale(0.996264009963)" xlink:href="#URW_Palladio_L_Roman-101"/>
     <use transform="translate(423.707757287 0.0)scale(0.996264009963)" xlink:href="#URW_Palladio_L_Roman-100"/>
     <use transform="translate(484.579387964 0.0)scale(0.996264009963)" xlink:href="#URW_Palladio_L_Roman-41"/>
     <use transform="translate(542.661217942 0.0)scale(0.996264009963)" xlink:href="#URW_Palladio_L_Roman-71"/>
     <use transform="translate(618.674964002 0.0)scale(0.996264009963)" xlink:href="#URW_Palladio_L_Roman-85"/>
     <use transform="translate(696.183334104 0.0)scale(0.996264009963)" xlink:href="#URW_Palladio_L_Roman-69"/>
     <use transform="translate(781.96156503 0.0)scale(0.996264009963)" xlink:href="#URW_Palladio_L_Roman-101"/>
     <use transform="translate(829.681860139 0.0)scale(0.996264009963)" xlink:href="#URW_Palladio_L_Roman-105"/>
     <use transform="translate(858.672221601 0.0)scale(0.996264009963)" xlink:href="#URW_Palladio_L_Roman-103"/>
     <use transform="translate(914.063898564 0.0)scale(0.996264009963)" xlink:href="#URW_Palladio_L_Roman-101"/>
     <use transform="translate(961.784193673 0.0)scale(0.996264009963)" xlink:href="#URW_Palladio_L_Roman-110"/>
     <use transform="translate(1019.76625435 0.0)scale(0.996264009963)" xlink:href="#URW_Palladio_L_Roman-118"/>
     <use transform="translate(1076.0541676 0.0)scale(0.996264009963)" xlink:href="#URW_Palladio_L_Roman-97"/>
     <use transform="translate(1125.8673681 0.0)scale(0.996264009963)" xlink:href="#URW_Palladio_L_Roman-108"/>
     <use transform="translate(1154.85772956 0.0)scale(0.996264009963)" xlink:href="#URW_Palladio_L_Roman-117"/>
     <use transform="translate(1214.93146428 0.0)scale(0.996264009963)" xlink:href="#URW_Palladio_L_Roman-101"/>
     <use transform="translate(1262.65175939 0.0)scale(0.996264009963)" xlink:href="#URW_Palladio_L_Roman-115"/>
    </g>
   </g>
  </g>
  <g id="axes_2">
   <g id="patch_7">
    <path d="M 63.426949 867.020593 
L 621.426949 867.020593 
L 621.426949 486.566048 
L 63.426949 486.566048 
z
" style="fill:#eaeaf2;"/>
   </g>
   <g id="matplotlib.axis_3">
    <g id="xtick_7">
     <g id="line2d_47">
      <path clip-path="url(#p5a270cc1ad)" d="M 63.426949 867.020593 
L 63.426949 486.566048 
" style="fill:none;stroke:#ffffff;stroke-linecap:round;stroke-width:0.8;"/>
     </g>
     <g id="line2d_48">
      <g>
       <use style="fill:#262626;stroke:#262626;stroke-width:0.8;" x="63.4269488685" xlink:href="#m3145f54d24" y="867.020593429"/>
      </g>
     </g>
     <g id="line2d_49">
      <g>
       <use style="fill:#262626;stroke:#262626;stroke-width:0.8;" x="63.4269488685" xlink:href="#m3145f54d24" y="486.566047974"/>
      </g>
     </g>
     <g id="text_19">
      <!-- $0$ -->
      <g style="fill:#262626;" transform="translate(58.4456288187 886.877068172)scale(0.2 -0.2)">
       <use transform="scale(0.996264009963)" xlink:href="#URW_Palladio_L_Roman-48"/>
      </g>
     </g>
    </g>
    <g id="xtick_8">
     <g id="line2d_50">
      <path clip-path="url(#p5a270cc1ad)" d="M 175.026949 867.020593 
L 175.026949 486.566048 
" style="fill:none;stroke:#ffffff;stroke-linecap:round;stroke-width:0.8;"/>
     </g>
     <g id="line2d_51">
      <g>
       <use style="fill:#262626;stroke:#262626;stroke-width:0.8;" x="175.026948869" xlink:href="#m3145f54d24" y="867.020593429"/>
      </g>
     </g>
     <g id="line2d_52">
      <g>
       <use style="fill:#262626;stroke:#262626;stroke-width:0.8;" x="175.026948869" xlink:href="#m3145f54d24" y="486.566047974"/>
      </g>
     </g>
     <g id="text_20">
      <!-- $20$ -->
      <g style="fill:#262626;" transform="translate(165.064308769 886.877068172)scale(0.2 -0.2)">
       <use transform="scale(0.996264009963)" xlink:href="#URW_Palladio_L_Roman-50"/>
       <use transform="translate(49.8132004981 0.0)scale(0.996264009963)" xlink:href="#URW_Palladio_L_Roman-48"/>
      </g>
     </g>
    </g>
    <g id="xtick_9">
     <g id="line2d_53">
      <path clip-path="url(#p5a270cc1ad)" d="M 286.626949 867.020593 
L 286.626949 486.566048 
" style="fill:none;stroke:#ffffff;stroke-linecap:round;stroke-width:0.8;"/>
     </g>
     <g id="line2d_54">
      <g>
       <use style="fill:#262626;stroke:#262626;stroke-width:0.8;" x="286.626948869" xlink:href="#m3145f54d24" y="867.020593429"/>
      </g>
     </g>
     <g id="line2d_55">
      <g>
       <use style="fill:#262626;stroke:#262626;stroke-width:0.8;" x="286.626948869" xlink:href="#m3145f54d24" y="486.566047974"/>
      </g>
     </g>
     <g id="text_21">
      <!-- $40$ -->
      <g style="fill:#262626;" transform="translate(276.664308769 886.877068172)scale(0.2 -0.2)">
       <use transform="scale(0.996264009963)" xlink:href="#URW_Palladio_L_Roman-52"/>
       <use transform="translate(49.8132004981 0.0)scale(0.996264009963)" xlink:href="#URW_Palladio_L_Roman-48"/>
      </g>
     </g>
    </g>
    <g id="xtick_10">
     <g id="line2d_56">
      <path clip-path="url(#p5a270cc1ad)" d="M 398.226949 867.020593 
L 398.226949 486.566048 
" style="fill:none;stroke:#ffffff;stroke-linecap:round;stroke-width:0.8;"/>
     </g>
     <g id="line2d_57">
      <g>
       <use style="fill:#262626;stroke:#262626;stroke-width:0.8;" x="398.226948869" xlink:href="#m3145f54d24" y="867.020593429"/>
      </g>
     </g>
     <g id="line2d_58">
      <g>
       <use style="fill:#262626;stroke:#262626;stroke-width:0.8;" x="398.226948869" xlink:href="#m3145f54d24" y="486.566047974"/>
      </g>
     </g>
     <g id="text_22">
      <!-- $60$ -->
      <g style="fill:#262626;" transform="translate(388.264308769 886.877068172)scale(0.2 -0.2)">
       <use transform="scale(0.996264009963)" xlink:href="#URW_Palladio_L_Roman-54"/>
       <use transform="translate(49.8132004981 0.0)scale(0.996264009963)" xlink:href="#URW_Palladio_L_Roman-48"/>
      </g>
     </g>
    </g>
    <g id="xtick_11">
     <g id="line2d_59">
      <path clip-path="url(#p5a270cc1ad)" d="M 509.826949 867.020593 
L 509.826949 486.566048 
" style="fill:none;stroke:#ffffff;stroke-linecap:round;stroke-width:0.8;"/>
     </g>
     <g id="line2d_60">
      <g>
       <use style="fill:#262626;stroke:#262626;stroke-width:0.8;" x="509.826948869" xlink:href="#m3145f54d24" y="867.020593429"/>
      </g>
     </g>
     <g id="line2d_61">
      <g>
       <use style="fill:#262626;stroke:#262626;stroke-width:0.8;" x="509.826948869" xlink:href="#m3145f54d24" y="486.566047974"/>
      </g>
     </g>
     <g id="text_23">
      <!-- $80$ -->
      <g style="fill:#262626;" transform="translate(499.864308769 886.877068172)scale(0.2 -0.2)">
       <use transform="scale(0.996264009963)" xlink:href="#URW_Palladio_L_Roman-56"/>
       <use transform="translate(49.8132004981 0.0)scale(0.996264009963)" xlink:href="#URW_Palladio_L_Roman-48"/>
      </g>
     </g>
    </g>
    <g id="xtick_12">
     <g id="line2d_62">
      <path clip-path="url(#p5a270cc1ad)" d="M 621.426949 867.020593 
L 621.426949 486.566048 
" style="fill:none;stroke:#ffffff;stroke-linecap:round;stroke-width:0.8;"/>
     </g>
     <g id="line2d_63">
      <g>
       <use style="fill:#262626;stroke:#262626;stroke-width:0.8;" x="621.426948869" xlink:href="#m3145f54d24" y="867.020593429"/>
      </g>
     </g>
     <g id="line2d_64">
      <g>
       <use style="fill:#262626;stroke:#262626;stroke-width:0.8;" x="621.426948869" xlink:href="#m3145f54d24" y="486.566047974"/>
      </g>
     </g>
     <g id="text_24">
      <!-- $100$ -->
      <g style="fill:#262626;" transform="translate(606.482988719 886.877068172)scale(0.2 -0.2)">
       <use transform="scale(0.996264009963)" xlink:href="#URW_Palladio_L_Roman-49"/>
       <use transform="translate(49.8132004981 0.0)scale(0.996264009963)" xlink:href="#URW_Palladio_L_Roman-48"/>
       <use transform="translate(99.6264009963 0.0)scale(0.996264009963)" xlink:href="#URW_Palladio_L_Roman-48"/>
      </g>
     </g>
    </g>
    <g id="text_25">
     <!-- Index $j$ -->
     <g style="fill:#262626;" transform="translate(311.538128016 911.752364911)scale(0.2 -0.2)">
      <use transform="scale(0.996264009963)" xlink:href="#URW_Palladio_L_Roman-73"/>
      <use transform="translate(33.5740788936 0.0)scale(0.996264009963)" xlink:href="#URW_Palladio_L_Roman-110"/>
      <use transform="translate(91.5561395743 0.0)scale(0.996264009963)" xlink:href="#URW_Palladio_L_Roman-100"/>
      <use transform="translate(152.427770251 0.0)scale(0.996264009963)" xlink:href="#URW_Palladio_L_Roman-101"/>
      <use transform="translate(200.14806536 0.0)scale(0.996264009963)" xlink:href="#URW_Palladio_L_Roman-120"/>
      <use transform="translate(281.193221343 0.0)scale(0.996264009963)" xlink:href="#URW_Palladio_L_Italic-106"/>
     </g>
    </g>
   </g>
   <g id="matplotlib.axis_4">
    <g id="ytick_10">
     <g id="line2d_65">
      <path clip-path="url(#p5a270cc1ad)" d="M 63.426949 867.020593 
L 621.426949 867.020593 
" style="fill:none;stroke:#ffffff;stroke-linecap:round;stroke-width:0.8;"/>
     </g>
     <g id="line2d_66">
      <g>
       <use style="fill:#262626;stroke:#262626;stroke-width:0.8;" x="63.4269488685" xlink:href="#m3145f54d24" y="867.020593429"/>
      </g>
     </g>
     <g id="line2d_67">
      <g>
       <use style="fill:#262626;stroke:#262626;stroke-width:0.8;" x="621.426948869" xlink:href="#m3145f54d24" y="867.020593429"/>
      </g>
     </g>
     <g id="text_26">
      <!-- $-20$ -->
      <g style="fill:#262626;" transform="translate(21.5133263689 871.339419803)scale(0.2 -0.2)">
       <use transform="scale(1.03810691596)" xlink:href="#CMSY10-0"/>
       <use transform="translate(81.9416963 0.0)scale(0.996264009963)" xlink:href="#URW_Palladio_L_Roman-50"/>
       <use transform="translate(131.754896798 0.0)scale(0.996264009963)" xlink:href="#URW_Palladio_L_Roman-48"/>
      </g>
     </g>
    </g>
    <g id="ytick_11">
     <g id="line2d_68">
      <path clip-path="url(#p5a270cc1ad)" d="M 63.426949 819.463775 
L 621.426949 819.463775 
" style="fill:none;stroke:#ffffff;stroke-linecap:round;stroke-width:0.8;"/>
     </g>
     <g id="line2d_69">
      <g>
       <use style="fill:#262626;stroke:#262626;stroke-width:0.8;" x="63.4269488685" xlink:href="#m3145f54d24" y="819.463775247"/>
      </g>
     </g>
     <g id="line2d_70">
      <g>
       <use style="fill:#262626;stroke:#262626;stroke-width:0.8;" x="621.426948869" xlink:href="#m3145f54d24" y="819.463775247"/>
      </g>
     </g>
     <g id="text_27">
      <!-- $-15$ -->
      <g style="fill:#262626;" transform="translate(21.5133263689 823.782601621)scale(0.2 -0.2)">
       <use transform="scale(1.03810691596)" xlink:href="#CMSY10-0"/>
       <use transform="translate(81.9416963 0.0)scale(0.996264009963)" xlink:href="#URW_Palladio_L_Roman-49"/>
       <use transform="translate(131.754896798 0.0)scale(0.996264009963)" xlink:href="#URW_Palladio_L_Roman-53"/>
      </g>
     </g>
    </g>
    <g id="ytick_12">
     <g id="line2d_71">
      <path clip-path="url(#p5a270cc1ad)" d="M 63.426949 771.906957 
L 621.426949 771.906957 
" style="fill:none;stroke:#ffffff;stroke-linecap:round;stroke-width:0.8;"/>
     </g>
     <g id="line2d_72">
      <g>
       <use style="fill:#262626;stroke:#262626;stroke-width:0.8;" x="63.4269488685" xlink:href="#m3145f54d24" y="771.906957065"/>
      </g>
     </g>
     <g id="line2d_73">
      <g>
       <use style="fill:#262626;stroke:#262626;stroke-width:0.8;" x="621.426948869" xlink:href="#m3145f54d24" y="771.906957065"/>
      </g>
     </g>
     <g id="text_28">
      <!-- $-10$ -->
      <g style="fill:#262626;" transform="translate(21.5133263689 776.225783439)scale(0.2 -0.2)">
       <use transform="scale(1.03810691596)" xlink:href="#CMSY10-0"/>
       <use transform="translate(81.9416963 0.0)scale(0.996264009963)" xlink:href="#URW_Palladio_L_Roman-49"/>
       <use transform="translate(131.754896798 0.0)scale(0.996264009963)" xlink:href="#URW_Palladio_L_Roman-48"/>
      </g>
     </g>
    </g>
    <g id="ytick_13">
     <g id="line2d_74">
      <path clip-path="url(#p5a270cc1ad)" d="M 63.426949 724.350139 
L 621.426949 724.350139 
" style="fill:none;stroke:#ffffff;stroke-linecap:round;stroke-width:0.8;"/>
     </g>
     <g id="line2d_75">
      <g>
       <use style="fill:#262626;stroke:#262626;stroke-width:0.8;" x="63.4269488685" xlink:href="#m3145f54d24" y="724.350138883"/>
      </g>
     </g>
     <g id="line2d_76">
      <g>
       <use style="fill:#262626;stroke:#262626;stroke-width:0.8;" x="621.426948869" xlink:href="#m3145f54d24" y="724.350138883"/>
      </g>
     </g>
     <g id="text_29">
      <!-- $-5$ -->
      <g style="fill:#262626;" transform="translate(31.4759664685 728.668965257)scale(0.2 -0.2)">
       <use transform="scale(1.03810691596)" xlink:href="#CMSY10-0"/>
       <use transform="translate(81.9416963 0.0)scale(0.996264009963)" xlink:href="#URW_Palladio_L_Roman-53"/>
      </g>
     </g>
    </g>
    <g id="ytick_14">
     <g id="line2d_77">
      <path clip-path="url(#p5a270cc1ad)" d="M 63.426949 676.793321 
L 621.426949 676.793321 
" style="fill:none;stroke:#ffffff;stroke-linecap:round;stroke-width:0.8;"/>
     </g>
     <g id="line2d_78">
      <g>
       <use style="fill:#262626;stroke:#262626;stroke-width:0.8;" x="63.4269488685" xlink:href="#m3145f54d24" y="676.793320702"/>
      </g>
     </g>
     <g id="line2d_79">
      <g>
       <use style="fill:#262626;stroke:#262626;stroke-width:0.8;" x="621.426948869" xlink:href="#m3145f54d24" y="676.793320702"/>
      </g>
     </g>
     <g id="text_30">
      <!-- $0$ -->
      <g style="fill:#262626;" transform="translate(47.8643087689 681.112147075)scale(0.2 -0.2)">
       <use transform="scale(0.996264009963)" xlink:href="#URW_Palladio_L_Roman-48"/>
      </g>
     </g>
    </g>
    <g id="ytick_15">
     <g id="line2d_80">
      <path clip-path="url(#p5a270cc1ad)" d="M 63.426949 629.236503 
L 621.426949 629.236503 
" style="fill:none;stroke:#ffffff;stroke-linecap:round;stroke-width:0.8;"/>
     </g>
     <g id="line2d_81">
      <g>
       <use style="fill:#262626;stroke:#262626;stroke-width:0.8;" x="63.4269488685" xlink:href="#m3145f54d24" y="629.23650252"/>
      </g>
     </g>
     <g id="line2d_82">
      <g>
       <use style="fill:#262626;stroke:#262626;stroke-width:0.8;" x="621.426948869" xlink:href="#m3145f54d24" y="629.23650252"/>
      </g>
     </g>
     <g id="text_31">
      <!-- $5$ -->
      <g style="fill:#262626;" transform="translate(47.8643087689 633.555328894)scale(0.2 -0.2)">
       <use transform="scale(0.996264009963)" xlink:href="#URW_Palladio_L_Roman-53"/>
      </g>
     </g>
    </g>
    <g id="ytick_16">
     <g id="line2d_83">
      <path clip-path="url(#p5a270cc1ad)" d="M 63.426949 581.679684 
L 621.426949 581.679684 
" style="fill:none;stroke:#ffffff;stroke-linecap:round;stroke-width:0.8;"/>
     </g>
     <g id="line2d_84">
      <g>
       <use style="fill:#262626;stroke:#262626;stroke-width:0.8;" x="63.4269488685" xlink:href="#m3145f54d24" y="581.679684338"/>
      </g>
     </g>
     <g id="line2d_85">
      <g>
       <use style="fill:#262626;stroke:#262626;stroke-width:0.8;" x="621.426948869" xlink:href="#m3145f54d24" y="581.679684338"/>
      </g>
     </g>
     <g id="text_32">
      <!-- $10$ -->
      <g style="fill:#262626;" transform="translate(37.9016686692 585.998510712)scale(0.2 -0.2)">
       <use transform="scale(0.996264009963)" xlink:href="#URW_Palladio_L_Roman-49"/>
       <use transform="translate(49.8132004981 0.0)scale(0.996264009963)" xlink:href="#URW_Palladio_L_Roman-48"/>
      </g>
     </g>
    </g>
    <g id="ytick_17">
     <g id="line2d_86">
      <path clip-path="url(#p5a270cc1ad)" d="M 63.426949 534.122866 
L 621.426949 534.122866 
" style="fill:none;stroke:#ffffff;stroke-linecap:round;stroke-width:0.8;"/>
     </g>
     <g id="line2d_87">
      <g>
       <use style="fill:#262626;stroke:#262626;stroke-width:0.8;" x="63.4269488685" xlink:href="#m3145f54d24" y="534.122866156"/>
      </g>
     </g>
     <g id="line2d_88">
      <g>
       <use style="fill:#262626;stroke:#262626;stroke-width:0.8;" x="621.426948869" xlink:href="#m3145f54d24" y="534.122866156"/>
      </g>
     </g>
     <g id="text_33">
      <!-- $15$ -->
      <g style="fill:#262626;" transform="translate(37.9016686692 538.44169253)scale(0.2 -0.2)">
       <use transform="scale(0.996264009963)" xlink:href="#URW_Palladio_L_Roman-49"/>
       <use transform="translate(49.8132004981 0.0)scale(0.996264009963)" xlink:href="#URW_Palladio_L_Roman-53"/>
      </g>
     </g>
    </g>
    <g id="ytick_18">
     <g id="line2d_89">
      <path clip-path="url(#p5a270cc1ad)" d="M 63.426949 486.566048 
L 621.426949 486.566048 
" style="fill:none;stroke:#ffffff;stroke-linecap:round;stroke-width:0.8;"/>
     </g>
     <g id="line2d_90">
      <g>
       <use style="fill:#262626;stroke:#262626;stroke-width:0.8;" x="63.4269488685" xlink:href="#m3145f54d24" y="486.566047974"/>
      </g>
     </g>
     <g id="line2d_91">
      <g>
       <use style="fill:#262626;stroke:#262626;stroke-width:0.8;" x="621.426948869" xlink:href="#m3145f54d24" y="486.566047974"/>
      </g>
     </g>
     <g id="text_34">
      <!-- $20$ -->
      <g style="fill:#262626;" transform="translate(37.9016686692 490.884874348)scale(0.2 -0.2)">
       <use transform="scale(0.996264009963)" xlink:href="#URW_Palladio_L_Roman-50"/>
       <use transform="translate(49.8132004981 0.0)scale(0.996264009963)" xlink:href="#URW_Palladio_L_Roman-48"/>
      </g>
     </g>
    </g>
    <g id="text_35">
     <!-- $\bar{\kappa}_{j}$ -->
     <defs>
      <path d="M 32.296875 54 
L 32.296875 59.3125 
L 1.09375 59.3125 
L 1.09375 54 
z
" id="URW_Palladio_L_Roman-175"/>
     </defs>
     <g style="fill:#262626;" transform="translate(7.2 669.769793207)scale(0.25 -0.25)">
      <use transform="translate(11.7060717135 21.0446330411)scale(0.996264009963)" xlink:href="#URW_Palladio_L_Roman-175"/>
      <use transform="translate(0.0 19.6000836706)scale(0.996264009963)" xlink:href="#Pazo_Math_Italic-107"/>
      <use transform="translate(53.4584815 0.0)scale(0.75715517493)" xlink:href="#URW_Palladio_L_Italic-106"/>
     </g>
    </g>
   </g>
   <g id="line2d_92">
    <g>
     <use style="fill:#0000ff;stroke:#000000;stroke-width:0.1;" x="63.4269488685" xlink:href="#m9b96b85a51" y="495.442771706"/>
     <use style="fill:#0000ff;stroke:#000000;stroke-width:0.1;" x="69.0069488685" xlink:href="#m9b96b85a51" y="503.214739053"/>
     <use style="fill:#0000ff;stroke:#000000;stroke-width:0.1;" x="74.5869488685" xlink:href="#m9b96b85a51" y="509.673670221"/>
     <use style="fill:#0000ff;stroke:#000000;stroke-width:0.1;" x="80.1669488685" xlink:href="#m9b96b85a51" y="515.585127227"/>
     <use style="fill:#0000ff;stroke:#000000;stroke-width:0.1;" x="85.7469488685" xlink:href="#m9b96b85a51" y="521.07665186"/>
     <use style="fill:#0000ff;stroke:#000000;stroke-width:0.1;" x="91.3269488685" xlink:href="#m9b96b85a51" y="525.935332382"/>
     <use style="fill:#0000ff;stroke:#000000;stroke-width:0.1;" x="96.9069488685" xlink:href="#m9b96b85a51" y="530.776632375"/>
     <use style="fill:#0000ff;stroke:#000000;stroke-width:0.1;" x="102.486948869" xlink:href="#m9b96b85a51" y="535.548792226"/>
     <use style="fill:#0000ff;stroke:#000000;stroke-width:0.1;" x="108.066948869" xlink:href="#m9b96b85a51" y="540.049118288"/>
     <use style="fill:#0000ff;stroke:#000000;stroke-width:0.1;" x="113.646948869" xlink:href="#m9b96b85a51" y="544.113809782"/>
     <use style="fill:#0000ff;stroke:#000000;stroke-width:0.1;" x="119.226948869" xlink:href="#m9b96b85a51" y="548.222502088"/>
     <use style="fill:#0000ff;stroke:#000000;stroke-width:0.1;" x="124.806948869" xlink:href="#m9b96b85a51" y="552.080395521"/>
     <use style="fill:#0000ff;stroke:#000000;stroke-width:0.1;" x="130.386948869" xlink:href="#m9b96b85a51" y="555.953041166"/>
     <use style="fill:#0000ff;stroke:#000000;stroke-width:0.1;" x="135.966948869" xlink:href="#m9b96b85a51" y="559.71124288"/>
     <use style="fill:#0000ff;stroke:#000000;stroke-width:0.1;" x="141.546948869" xlink:href="#m9b96b85a51" y="563.477589462"/>
     <use style="fill:#0000ff;stroke:#000000;stroke-width:0.1;" x="147.126948869" xlink:href="#m9b96b85a51" y="567.353605466"/>
     <use style="fill:#0000ff;stroke:#000000;stroke-width:0.1;" x="152.706948869" xlink:href="#m9b96b85a51" y="571.157182561"/>
     <use style="fill:#0000ff;stroke:#000000;stroke-width:0.1;" x="158.286948869" xlink:href="#m9b96b85a51" y="574.605623671"/>
     <use style="fill:#0000ff;stroke:#000000;stroke-width:0.1;" x="163.866948869" xlink:href="#m9b96b85a51" y="578.220520009"/>
     <use style="fill:#0000ff;stroke:#000000;stroke-width:0.1;" x="169.446948869" xlink:href="#m9b96b85a51" y="581.799106741"/>
     <use style="fill:#0000ff;stroke:#000000;stroke-width:0.1;" x="175.026948869" xlink:href="#m9b96b85a51" y="585.101850004"/>
     <use style="fill:#0000ff;stroke:#000000;stroke-width:0.1;" x="180.606948869" xlink:href="#m9b96b85a51" y="588.562529658"/>
     <use style="fill:#0000ff;stroke:#000000;stroke-width:0.1;" x="186.186948869" xlink:href="#m9b96b85a51" y="591.799145727"/>
     <use style="fill:#0000ff;stroke:#000000;stroke-width:0.1;" x="191.766948869" xlink:href="#m9b96b85a51" y="595.053489122"/>
     <use style="fill:#0000ff;stroke:#000000;stroke-width:0.1;" x="197.346948869" xlink:href="#m9b96b85a51" y="598.263866091"/>
     <use style="fill:#0000ff;stroke:#000000;stroke-width:0.1;" x="202.926948869" xlink:href="#m9b96b85a51" y="601.65931264"/>
     <use style="fill:#0000ff;stroke:#000000;stroke-width:0.1;" x="208.506948869" xlink:href="#m9b96b85a51" y="604.822447947"/>
     <use style="fill:#0000ff;stroke:#000000;stroke-width:0.1;" x="214.086948869" xlink:href="#m9b96b85a51" y="608.137754614"/>
     <use style="fill:#0000ff;stroke:#000000;stroke-width:0.1;" x="219.666948869" xlink:href="#m9b96b85a51" y="611.25112618"/>
     <use style="fill:#0000ff;stroke:#000000;stroke-width:0.1;" x="225.246948869" xlink:href="#m9b96b85a51" y="614.248891818"/>
     <use style="fill:#0000ff;stroke:#000000;stroke-width:0.1;" x="230.826948869" xlink:href="#m9b96b85a51" y="617.450681831"/>
     <use style="fill:#0000ff;stroke:#000000;stroke-width:0.1;" x="236.406948869" xlink:href="#m9b96b85a51" y="620.670439137"/>
     <use style="fill:#0000ff;stroke:#000000;stroke-width:0.1;" x="241.986948869" xlink:href="#m9b96b85a51" y="624.046028904"/>
     <use style="fill:#0000ff;stroke:#000000;stroke-width:0.1;" x="247.566948869" xlink:href="#m9b96b85a51" y="627.024225544"/>
     <use style="fill:#0000ff;stroke:#000000;stroke-width:0.1;" x="253.146948869" xlink:href="#m9b96b85a51" y="630.009355708"/>
     <use style="fill:#0000ff;stroke:#000000;stroke-width:0.1;" x="258.726948869" xlink:href="#m9b96b85a51" y="633.050423411"/>
     <use style="fill:#0000ff;stroke:#000000;stroke-width:0.1;" x="264.306948869" xlink:href="#m9b96b85a51" y="635.933695932"/>
     <use style="fill:#0000ff;stroke:#000000;stroke-width:0.1;" x="269.886948869" xlink:href="#m9b96b85a51" y="638.900927765"/>
     <use style="fill:#0000ff;stroke:#000000;stroke-width:0.1;" x="275.466948869" xlink:href="#m9b96b85a51" y="642.157291292"/>
     <use style="fill:#0000ff;stroke:#000000;stroke-width:0.1;" x="281.046948869" xlink:href="#m9b96b85a51" y="645.300913658"/>
     <use style="fill:#0000ff;stroke:#000000;stroke-width:0.1;" x="286.626948869" xlink:href="#m9b96b85a51" y="648.406339236"/>
     <use style="fill:#0000ff;stroke:#000000;stroke-width:0.1;" x="292.206948869" xlink:href="#m9b96b85a51" y="651.380370768"/>
     <use style="fill:#0000ff;stroke:#000000;stroke-width:0.1;" x="297.786948869" xlink:href="#m9b96b85a51" y="654.36946739"/>
     <use style="fill:#0000ff;stroke:#000000;stroke-width:0.1;" x="303.366948869" xlink:href="#m9b96b85a51" y="657.302789975"/>
     <use style="fill:#0000ff;stroke:#000000;stroke-width:0.1;" x="308.946948869" xlink:href="#m9b96b85a51" y="660.169441665"/>
     <use style="fill:#0000ff;stroke:#000000;stroke-width:0.1;" x="314.526948869" xlink:href="#m9b96b85a51" y="663.250552414"/>
     <use style="fill:#0000ff;stroke:#000000;stroke-width:0.1;" x="320.106948869" xlink:href="#m9b96b85a51" y="666.160408525"/>
     <use style="fill:#0000ff;stroke:#000000;stroke-width:0.1;" x="325.686948869" xlink:href="#m9b96b85a51" y="669.249892974"/>
     <use style="fill:#0000ff;stroke:#000000;stroke-width:0.1;" x="331.266948869" xlink:href="#m9b96b85a51" y="672.191443246"/>
     <use style="fill:#0000ff;stroke:#000000;stroke-width:0.1;" x="336.846948869" xlink:href="#m9b96b85a51" y="675.224657076"/>
     <use style="fill:#0000ff;stroke:#000000;stroke-width:0.1;" x="342.426948869" xlink:href="#m9b96b85a51" y="678.29657473"/>
     <use style="fill:#0000ff;stroke:#000000;stroke-width:0.1;" x="348.006948869" xlink:href="#m9b96b85a51" y="681.133677278"/>
     <use style="fill:#0000ff;stroke:#000000;stroke-width:0.1;" x="353.586948869" xlink:href="#m9b96b85a51" y="684.280333068"/>
     <use style="fill:#0000ff;stroke:#000000;stroke-width:0.1;" x="359.166948869" xlink:href="#m9b96b85a51" y="687.188462068"/>
     <use style="fill:#0000ff;stroke:#000000;stroke-width:0.1;" x="364.746948869" xlink:href="#m9b96b85a51" y="690.260743679"/>
     <use style="fill:#0000ff;stroke:#000000;stroke-width:0.1;" x="370.326948869" xlink:href="#m9b96b85a51" y="693.218611411"/>
     <use style="fill:#0000ff;stroke:#000000;stroke-width:0.1;" x="375.906948869" xlink:href="#m9b96b85a51" y="696.279313366"/>
     <use style="fill:#0000ff;stroke:#000000;stroke-width:0.1;" x="381.486948869" xlink:href="#m9b96b85a51" y="699.2592189"/>
     <use style="fill:#0000ff;stroke:#000000;stroke-width:0.1;" x="387.066948869" xlink:href="#m9b96b85a51" y="702.300862029"/>
     <use style="fill:#0000ff;stroke:#000000;stroke-width:0.1;" x="392.646948869" xlink:href="#m9b96b85a51" y="705.274341626"/>
     <use style="fill:#0000ff;stroke:#000000;stroke-width:0.1;" x="398.226948869" xlink:href="#m9b96b85a51" y="708.318381633"/>
     <use style="fill:#0000ff;stroke:#000000;stroke-width:0.1;" x="403.806948869" xlink:href="#m9b96b85a51" y="711.400565769"/>
     <use style="fill:#0000ff;stroke:#000000;stroke-width:0.1;" x="409.386948869" xlink:href="#m9b96b85a51" y="714.100447271"/>
     <use style="fill:#0000ff;stroke:#000000;stroke-width:0.1;" x="414.966948869" xlink:href="#m9b96b85a51" y="717.46837488"/>
     <use style="fill:#0000ff;stroke:#000000;stroke-width:0.1;" x="420.546948869" xlink:href="#m9b96b85a51" y="720.577135683"/>
     <use style="fill:#0000ff;stroke:#000000;stroke-width:0.1;" x="426.126948869" xlink:href="#m9b96b85a51" y="723.767949986"/>
     <use style="fill:#0000ff;stroke:#000000;stroke-width:0.1;" x="431.706948869" xlink:href="#m9b96b85a51" y="726.738494873"/>
     <use style="fill:#0000ff;stroke:#000000;stroke-width:0.1;" x="437.286948869" xlink:href="#m9b96b85a51" y="729.711267196"/>
     <use style="fill:#0000ff;stroke:#000000;stroke-width:0.1;" x="442.866948869" xlink:href="#m9b96b85a51" y="732.689845572"/>
     <use style="fill:#0000ff;stroke:#000000;stroke-width:0.1;" x="448.446948869" xlink:href="#m9b96b85a51" y="735.555476648"/>
     <use style="fill:#0000ff;stroke:#000000;stroke-width:0.1;" x="454.026948869" xlink:href="#m9b96b85a51" y="738.84904642"/>
     <use style="fill:#0000ff;stroke:#000000;stroke-width:0.1;" x="459.606948869" xlink:href="#m9b96b85a51" y="742.12020026"/>
     <use style="fill:#0000ff;stroke:#000000;stroke-width:0.1;" x="465.186948869" xlink:href="#m9b96b85a51" y="745.392797521"/>
     <use style="fill:#0000ff;stroke:#000000;stroke-width:0.1;" x="470.766948869" xlink:href="#m9b96b85a51" y="748.600138725"/>
     <use style="fill:#0000ff;stroke:#000000;stroke-width:0.1;" x="476.346948869" xlink:href="#m9b96b85a51" y="751.934722596"/>
     <use style="fill:#0000ff;stroke:#000000;stroke-width:0.1;" x="481.926948869" xlink:href="#m9b96b85a51" y="755.235402528"/>
     <use style="fill:#0000ff;stroke:#000000;stroke-width:0.1;" x="487.506948869" xlink:href="#m9b96b85a51" y="758.409690242"/>
     <use style="fill:#0000ff;stroke:#000000;stroke-width:0.1;" x="493.086948869" xlink:href="#m9b96b85a51" y="761.906097766"/>
     <use style="fill:#0000ff;stroke:#000000;stroke-width:0.1;" x="498.666948869" xlink:href="#m9b96b85a51" y="765.164156584"/>
     <use style="fill:#0000ff;stroke:#000000;stroke-width:0.1;" x="504.246948869" xlink:href="#m9b96b85a51" y="768.595630631"/>
     <use style="fill:#0000ff;stroke:#000000;stroke-width:0.1;" x="509.826948869" xlink:href="#m9b96b85a51" y="771.765896341"/>
     <use style="fill:#0000ff;stroke:#000000;stroke-width:0.1;" x="515.406948869" xlink:href="#m9b96b85a51" y="775.417008044"/>
     <use style="fill:#0000ff;stroke:#000000;stroke-width:0.1;" x="520.986948869" xlink:href="#m9b96b85a51" y="779.015736946"/>
     <use style="fill:#0000ff;stroke:#000000;stroke-width:0.1;" x="526.566948869" xlink:href="#m9b96b85a51" y="782.508230876"/>
     <use style="fill:#0000ff;stroke:#000000;stroke-width:0.1;" x="532.146948869" xlink:href="#m9b96b85a51" y="786.308777098"/>
     <use style="fill:#0000ff;stroke:#000000;stroke-width:0.1;" x="537.726948869" xlink:href="#m9b96b85a51" y="789.673583147"/>
     <use style="fill:#0000ff;stroke:#000000;stroke-width:0.1;" x="543.306948869" xlink:href="#m9b96b85a51" y="793.448579997"/>
     <use style="fill:#0000ff;stroke:#000000;stroke-width:0.1;" x="548.886948869" xlink:href="#m9b96b85a51" y="797.732099739"/>
     <use style="fill:#0000ff;stroke:#000000;stroke-width:0.1;" x="554.466948869" xlink:href="#m9b96b85a51" y="801.626800697"/>
     <use style="fill:#0000ff;stroke:#000000;stroke-width:0.1;" x="560.046948869" xlink:href="#m9b96b85a51" y="805.44228897"/>
     <use style="fill:#0000ff;stroke:#000000;stroke-width:0.1;" x="565.626948869" xlink:href="#m9b96b85a51" y="809.645131403"/>
     <use style="fill:#0000ff;stroke:#000000;stroke-width:0.1;" x="571.206948869" xlink:href="#m9b96b85a51" y="813.836064284"/>
     <use style="fill:#0000ff;stroke:#000000;stroke-width:0.1;" x="576.786948869" xlink:href="#m9b96b85a51" y="818.344118458"/>
     <use style="fill:#0000ff;stroke:#000000;stroke-width:0.1;" x="582.366948869" xlink:href="#m9b96b85a51" y="822.755960056"/>
     <use style="fill:#0000ff;stroke:#000000;stroke-width:0.1;" x="587.946948869" xlink:href="#m9b96b85a51" y="827.664456855"/>
     <use style="fill:#0000ff;stroke:#000000;stroke-width:0.1;" x="593.526948869" xlink:href="#m9b96b85a51" y="832.460822292"/>
     <use style="fill:#0000ff;stroke:#000000;stroke-width:0.1;" x="599.106948869" xlink:href="#m9b96b85a51" y="837.974289958"/>
     <use style="fill:#0000ff;stroke:#000000;stroke-width:0.1;" x="604.686948869" xlink:href="#m9b96b85a51" y="843.953369245"/>
     <use style="fill:#0000ff;stroke:#000000;stroke-width:0.1;" x="610.266948869" xlink:href="#m9b96b85a51" y="850.189390528"/>
     <use style="fill:#0000ff;stroke:#000000;stroke-width:0.1;" x="615.846948869" xlink:href="#m9b96b85a51" y="858.739833367"/>
    </g>
   </g>
   <g id="patch_8">
    <path d="M 63.426949 486.566048 
L 621.426949 486.566048 
" style="fill:none;"/>
   </g>
   <g id="patch_9">
    <path d="M 621.426949 867.020593 
L 621.426949 486.566048 
" style="fill:none;"/>
   </g>
   <g id="patch_10">
    <path d="M 63.426949 867.020593 
L 621.426949 867.020593 
" style="fill:none;"/>
   </g>
   <g id="patch_11">
    <path d="M 63.426949 867.020593 
L 63.426949 486.566048 
" style="fill:none;"/>
   </g>
   <g id="text_36">
    <!-- Expected values of 100 (sorted) GUE eigenvalues -->
    <defs>
     <path d="M 39.90625 31.15625 
C 39.90625 35.765625 40.40625 39.875 41.296875 43.484375 
C 37.296875 45.890625 33.796875 47 29.703125 47 
C 24.90625 47 19.296875 45.09375 13.296875 41.28125 
C 6.296875 36.875 2.59375 29.859375 2.59375 21.046875 
C 2.59375 7.515625 12.09375 -2 25.5 -2 
C 30.703125 -2 38.203125 -0.09375 39.203125 1.40625 
L 41.296875 4.609375 
L 40.296875 6.109375 
C 36.59375 4.109375 33.40625 3.203125 29.796875 3.203125 
C 18.703125 3.203125 11.40625 11.828125 11.40625 25.046875 
C 11.40625 35.765625 16.40625 41.78125 25.40625 41.78125 
C 29.796875 41.78125 34.59375 39.78125 36.40625 37.28125 
L 37.09375 31.15625 
z
" id="URW_Palladio_L_Roman-99"/>
     <path d="M 34.09375 71.890625 
C 32 72.6875 30.796875 73 29.5 73 
C 26.296875 73 22.796875 71.296875 20.59375 68.8125 
L 14.796875 62.265625 
C 11.90625 58.984375 10.59375 54.53125 10.59375 47.96875 
L 10.59375 43.796875 
L 3.703125 40.6875 
L 3.703125 38.6875 
L 10.59375 38.6875 
L 10.59375 10.171875 
C 10.59375 3.8125 10.296875 3.109375 6.90625 3.109375 
L 2.296875 3.109375 
L 2.296875 0 
C 12.296875 0 12.296875 0 14.796875 0 
C 17.296875 0 17.296875 0 27.296875 0 
L 27.296875 3.109375 
L 22.703125 3.109375 
C 19.296875 3.109375 19 3.828125 19 10.203125 
L 19 38.890625 
L 31.40625 38.890625 
L 32.09375 44 
L 19 44 
L 19 52.34375 
C 19 63.640625 20.296875 66.375 26 66.375 
C 28.703125 66.375 30.5 65.6875 32.90625 63.609375 
L 34.09375 64.203125 
z
" id="URW_Palladio_L_Roman-102"/>
     <path d="M 1 40.078125 
L 4.703125 40.078125 
C 8.703125 40.078125 9.09375 39.375 9.09375 32.734375 
L 9.09375 -17.84375 
C 9.09375 -24.1875 8.796875 -24.890625 5.40625 -24.890625 
L 0.796875 -24.890625 
L 0.796875 -28 
C 10.796875 -28 10.796875 -28 13.296875 -28 
C 15.796875 -28 15.796875 -28 25.796875 -28 
L 25.796875 -24.890625 
L 21.203125 -24.890625 
C 17.796875 -24.890625 17.5 -24.171875 17.5 -17.78125 
L 17.5 1.390625 
C 20.5 -0.40625 23.703125 -1.109375 28.203125 -1.109375 
C 31.09375 -1.109375 33.703125 -0.5 35.296875 0.5 
L 46.703125 7.890625 
C 50.703125 10.5 55.40625 20.78125 55.40625 27.1875 
C 55.40625 38.296875 46.203125 47 34.59375 47 
C 30.90625 47 27.296875 45.984375 25.703125 44.484375 
L 17.5 36.984375 
L 17.5 46.59375 
L 16.59375 47 
C 11.5 44.890625 6.296875 43.484375 1 42.890625 
z
M 17.5 30.6875 
C 17.5 32.078125 18 33.1875 19.296875 34.890625 
C 22.203125 38.578125 26.296875 40.484375 31.296875 40.484375 
C 40.703125 40.484375 46.703125 33.890625 46.703125 23.5 
C 46.703125 12.296875 40 4 31 4 
C 25.5 4 21.40625 5.8125 17.5 9.890625 
z
" id="URW_Palladio_L_Roman-112"/>
    </defs>
    <g style="fill:#262626;" transform="translate(72.741286764 481.566047974)scale(0.25 -0.25)">
     <use transform="scale(0.996264009963)" xlink:href="#URW_Palladio_L_Roman-69"/>
     <use transform="translate(60.871630677 0.0)scale(0.996264009963)" xlink:href="#URW_Palladio_L_Roman-120"/>
     <use transform="translate(112.277977968 0.0)scale(0.996264009963)" xlink:href="#URW_Palladio_L_Roman-112"/>
     <use transform="translate(172.152371721 0.0)scale(0.996264009963)" xlink:href="#URW_Palladio_L_Roman-101"/>
     <use transform="translate(219.87266683 0.0)scale(0.996264009963)" xlink:href="#URW_Palladio_L_Roman-99"/>
     <use transform="translate(264.106235528 0.0)scale(0.996264009963)" xlink:href="#URW_Palladio_L_Roman-116"/>
     <use transform="translate(296.583323402 0.0)scale(0.996264009963)" xlink:href="#URW_Palladio_L_Roman-101"/>
     <use transform="translate(344.303618511 0.0)scale(0.996264009963)" xlink:href="#URW_Palladio_L_Roman-100"/>
     <use transform="translate(430.081849437 0.0)scale(0.996264009963)" xlink:href="#URW_Palladio_L_Roman-118"/>
     <use transform="translate(486.369762682 0.0)scale(0.996264009963)" xlink:href="#URW_Palladio_L_Roman-97"/>
     <use transform="translate(536.18296318 0.0)scale(0.996264009963)" xlink:href="#URW_Palladio_L_Roman-108"/>
     <use transform="translate(565.173324642 0.0)scale(0.996264009963)" xlink:href="#URW_Palladio_L_Roman-117"/>
     <use transform="translate(625.247059367 0.0)scale(0.996264009963)" xlink:href="#URW_Palladio_L_Roman-101"/>
     <use transform="translate(672.967354476 0.0)scale(0.996264009963)" xlink:href="#URW_Palladio_L_Roman-115"/>
     <use transform="translate(740.115421053 0.0)scale(0.996264009963)" xlink:href="#URW_Palladio_L_Roman-111"/>
     <use transform="translate(794.511001226 0.0)scale(0.996264009963)" xlink:href="#URW_Palladio_L_Roman-102"/>
     <use transform="translate(852.592831204 0.0)scale(0.996264009963)" xlink:href="#URW_Palladio_L_Roman-49"/>
     <use transform="translate(902.406031702 0.0)scale(0.996264009963)" xlink:href="#URW_Palladio_L_Roman-48"/>
     <use transform="translate(952.219232201 0.0)scale(0.996264009963)" xlink:href="#URW_Palladio_L_Roman-48"/>
     <use transform="translate(1026.93903295 0.0)scale(0.996264009963)" xlink:href="#URW_Palladio_L_Roman-40"/>
     <use transform="translate(1060.11426268 0.0)scale(0.996264009963)" xlink:href="#URW_Palladio_L_Roman-115"/>
     <use transform="translate(1102.355729 0.0)scale(0.996264009963)" xlink:href="#URW_Palladio_L_Roman-111"/>
     <use transform="translate(1156.75130918 0.0)scale(0.996264009963)" xlink:href="#URW_Palladio_L_Roman-114"/>
     <use transform="translate(1196.10320551 0.0)scale(0.996264009963)" xlink:href="#URW_Palladio_L_Roman-116"/>
     <use transform="translate(1228.58029338 0.0)scale(0.996264009963)" xlink:href="#URW_Palladio_L_Roman-101"/>
     <use transform="translate(1276.30058849 0.0)scale(0.996264009963)" xlink:href="#URW_Palladio_L_Roman-100"/>
     <use transform="translate(1337.17221917 0.0)scale(0.996264009963)" xlink:href="#URW_Palladio_L_Roman-41"/>
     <use transform="translate(1395.25404915 0.0)scale(0.996264009963)" xlink:href="#URW_Palladio_L_Roman-71"/>
     <use transform="translate(1471.26779521 0.0)scale(0.996264009963)" xlink:href="#URW_Palladio_L_Roman-85"/>
     <use transform="translate(1548.77616531 0.0)scale(0.996264009963)" xlink:href="#URW_Palladio_L_Roman-69"/>
     <use transform="translate(1634.55439623 0.0)scale(0.996264009963)" xlink:href="#URW_Palladio_L_Roman-101"/>
     <use transform="translate(1682.27469134 0.0)scale(0.996264009963)" xlink:href="#URW_Palladio_L_Roman-105"/>
     <use transform="translate(1711.2650528 0.0)scale(0.996264009963)" xlink:href="#URW_Palladio_L_Roman-103"/>
     <use transform="translate(1766.65672977 0.0)scale(0.996264009963)" xlink:href="#URW_Palladio_L_Roman-101"/>
     <use transform="translate(1814.37702488 0.0)scale(0.996264009963)" xlink:href="#URW_Palladio_L_Roman-110"/>
     <use transform="translate(1872.35908556 0.0)scale(0.996264009963)" xlink:href="#URW_Palladio_L_Roman-118"/>
     <use transform="translate(1928.6469988 0.0)scale(0.996264009963)" xlink:href="#URW_Palladio_L_Roman-97"/>
     <use transform="translate(1978.4601993 0.0)scale(0.996264009963)" xlink:href="#URW_Palladio_L_Roman-108"/>
     <use transform="translate(2007.45056076 0.0)scale(0.996264009963)" xlink:href="#URW_Palladio_L_Roman-117"/>
     <use transform="translate(2067.52429549 0.0)scale(0.996264009963)" xlink:href="#URW_Palladio_L_Roman-101"/>
     <use transform="translate(2115.2445906 0.0)scale(0.996264009963)" xlink:href="#URW_Palladio_L_Roman-115"/>
    </g>
   </g>
  </g>
 </g>
 <defs>
  <clipPath id="p86cdbd0b99">
   <rect height="380.454545455" width="558.0" x="63.4269488685" y="30.0205934289"/>
  </clipPath>
  <clipPath id="p5a270cc1ad">
   <rect height="380.454545455" width="558.0" x="63.4269488685" y="486.566047974"/>
  </clipPath>
 </defs>
</svg>
