<?xml version="1.0" encoding="utf-8" standalone="no"?>
<!DOCTYPE svg PUBLIC "-//W3C//DTD SVG 1.1//EN"
  "http://www.w3.org/Graphics/SVG/1.1/DTD/svg11.dtd">
<!-- Created with matplotlib (http://matplotlib.org/) -->
<svg height="264pt" version="1.1" viewBox="0 0 398 264" width="398pt" xmlns="http://www.w3.org/2000/svg" xmlns:xlink="http://www.w3.org/1999/xlink">
 <defs>
  <style type="text/css">
*{stroke-linecap:butt;stroke-linejoin:round;stroke-miterlimit:100000;}
  </style>
 </defs>
 <g id="figure_1">
  <g id="patch_1">
   <path d="M 0 264.203271 
L 398.70651 264.203271 
L 398.70651 0 
L 0 0 
z
" style="fill:#ffffff;"/>
  </g>
  <g id="axes_1">
   <g id="patch_2">
    <path d="M 45.023321 223.2 
L 387.023321 223.2 
L 387.023321 7.2 
L 45.023321 7.2 
z
" style="fill:#eaeaf2;"/>
   </g>
   <g id="matplotlib.axis_1">
    <g id="xtick_1">
     <g id="line2d_1">
      <path clip-path="url(#p0458397f87)" d="M 45.023321 223.2 
L 45.023321 7.2 
" style="fill:none;stroke:#ffffff;stroke-linecap:round;stroke-width:0.8;"/>
     </g>
     <g id="line2d_2">
      <defs>
       <path d="M 0 0 
L 0 0 
" id="mf4c88de5f3" style="stroke:#262626;stroke-width:0.8;"/>
      </defs>
      <g>
       <use style="fill:#262626;stroke:#262626;stroke-width:0.8;" x="45.02332148" xlink:href="#mf4c88de5f3" y="223.2"/>
      </g>
     </g>
     <g id="line2d_3">
      <g>
       <use style="fill:#262626;stroke:#262626;stroke-width:0.8;" x="45.02332148" xlink:href="#mf4c88de5f3" y="7.2"/>
      </g>
     </g>
     <g id="text_1">
      <!-- $0$ -->
      <defs>
       <path d="M 26.296875 69 
C 10.796875 69 2.90625 56.6875 2.90625 32.453125 
C 2.90625 20.71875 5 10.625 8.5 5.71875 
C 12 0.796875 17.59375 -2 23.796875 -2 
C 38.90625 -2 46.5 11.015625 46.5 36.65625 
C 46.5 58.578125 40 69 26.296875 69 
M 24.5 65.5 
C 34.203125 65.5 38.09375 55.6875 38.09375 31.640625 
C 38.09375 10.328125 34.296875 1.5 25.09375 1.5 
C 15.40625 1.5 11.296875 11.625 11.296875 36.0625 
C 11.296875 57.1875 15 65.5 24.5 65.5 
" id="URW_Palladio_L_Roman-48"/>
      </defs>
      <g style="fill:#262626;" transform="translate(42.7817274576 235.215410594)scale(0.09 -0.09)">
       <use transform="scale(0.996264009963)" xlink:href="#URW_Palladio_L_Roman-48"/>
      </g>
     </g>
    </g>
    <g id="xtick_2">
     <g id="line2d_4">
      <path clip-path="url(#p0458397f87)" d="M 102.023321 223.2 
L 102.023321 7.2 
" style="fill:none;stroke:#ffffff;stroke-linecap:round;stroke-width:0.8;"/>
     </g>
     <g id="line2d_5">
      <g>
       <use style="fill:#262626;stroke:#262626;stroke-width:0.8;" x="102.02332148" xlink:href="#mf4c88de5f3" y="223.2"/>
      </g>
     </g>
     <g id="line2d_6">
      <g>
       <use style="fill:#262626;stroke:#262626;stroke-width:0.8;" x="102.02332148" xlink:href="#mf4c88de5f3" y="7.2"/>
      </g>
     </g>
     <g id="text_2">
      <!-- $5$ -->
      <defs>
       <path d="M 12.703125 60.578125 
C 25.59375 60.578125 31.203125 60.578125 43.203125 60.578125 
L 43.703125 61.046875 
C 43.5 62.75 43.5 63.5 43.5 64.75 
C 43.5 66.078125 43.5 66.828125 43.703125 68.53125 
L 43.203125 69 
C 35.703125 69 31.203125 69 25.796875 69 
C 20.296875 69 15.90625 69 8.40625 69 
L 7.90625 68.796875 
C 8 62.671875 8.09375 58.265625 8.09375 55.046875 
C 8.09375 46.515625 7.796875 36.875 7.5 32.453125 
L 9.5 31.84375 
C 14.203125 36.578125 16.90625 38 21.796875 38 
C 31.40625 38 37.40625 31.140625 37.40625 20.25 
C 37.40625 9.0625 31 2.5 20.09375 2.5 
C 14.703125 2.5 9.703125 4.328125 8.296875 6.9375 
L 3.703125 15.203125 
L 1.296875 13.796875 
C 3.59375 8.0625 4.796875 4.84375 6.203125 0.421875 
C 9 -1.109375 13 -2 17.296875 -2 
C 24 -2 31.09375 0.921875 36.59375 5.75 
C 42.703125 11.1875 45.90625 18.03125 45.90625 25.46875 
C 45.90625 36.859375 37.796875 44.90625 26.40625 44.90625 
C 21.59375 44.90625 18 43.609375 11.796875 39.90625 
z
" id="URW_Palladio_L_Roman-53"/>
      </defs>
      <g style="fill:#262626;" transform="translate(99.7817274576 235.215410594)scale(0.09 -0.09)">
       <use transform="scale(0.996264009963)" xlink:href="#URW_Palladio_L_Roman-53"/>
      </g>
     </g>
    </g>
    <g id="xtick_3">
     <g id="line2d_7">
      <path clip-path="url(#p0458397f87)" d="M 159.023321 223.2 
L 159.023321 7.2 
" style="fill:none;stroke:#ffffff;stroke-linecap:round;stroke-width:0.8;"/>
     </g>
     <g id="line2d_8">
      <g>
       <use style="fill:#262626;stroke:#262626;stroke-width:0.8;" x="159.02332148" xlink:href="#mf4c88de5f3" y="223.2"/>
      </g>
     </g>
     <g id="line2d_9">
      <g>
       <use style="fill:#262626;stroke:#262626;stroke-width:0.8;" x="159.02332148" xlink:href="#mf4c88de5f3" y="7.2"/>
      </g>
     </g>
     <g id="text_3">
      <!-- $10$ -->
      <defs>
       <path d="M 6.703125 56 
L 7.703125 56 
L 20.59375 61.8125 
C 20.703125 61.90625 20.796875 61.90625 20.90625 61.90625 
C 21.5 61.90625 21.703125 61.015625 21.703125 58.609375 
L 21.703125 9.578125 
C 21.703125 4.3125 20.59375 3.203125 15.203125 3.203125 
L 9.59375 3.203125 
L 9.59375 0 
C 25 0 25 0 26.09375 0 
C 27.40625 0 29.59375 0 33 0 
C 34.203125 0 37.703125 0 41.796875 0 
L 41.796875 3.203125 
L 36.59375 3.203125 
C 31.09375 3.203125 30.09375 4.3125 30.09375 9.5625 
L 30.09375 69.421875 
L 28.703125 69.921875 
C 22.203125 66.515625 15.09375 63.515625 6 60.3125 
z
" id="URW_Palladio_L_Roman-49"/>
      </defs>
      <g style="fill:#262626;" transform="translate(154.540133435 235.215410594)scale(0.09 -0.09)">
       <use transform="scale(0.996264009963)" xlink:href="#URW_Palladio_L_Roman-49"/>
       <use transform="translate(49.8132004981 0.0)scale(0.996264009963)" xlink:href="#URW_Palladio_L_Roman-48"/>
      </g>
     </g>
    </g>
    <g id="xtick_4">
     <g id="line2d_10">
      <path clip-path="url(#p0458397f87)" d="M 216.023321 223.2 
L 216.023321 7.2 
" style="fill:none;stroke:#ffffff;stroke-linecap:round;stroke-width:0.8;"/>
     </g>
     <g id="line2d_11">
      <g>
       <use style="fill:#262626;stroke:#262626;stroke-width:0.8;" x="216.02332148" xlink:href="#mf4c88de5f3" y="223.2"/>
      </g>
     </g>
     <g id="line2d_12">
      <g>
       <use style="fill:#262626;stroke:#262626;stroke-width:0.8;" x="216.02332148" xlink:href="#mf4c88de5f3" y="7.2"/>
      </g>
     </g>
     <g id="text_4">
      <!-- $15$ -->
      <g style="fill:#262626;" transform="translate(211.540133435 235.215410594)scale(0.09 -0.09)">
       <use transform="scale(0.996264009963)" xlink:href="#URW_Palladio_L_Roman-49"/>
       <use transform="translate(49.8132004981 0.0)scale(0.996264009963)" xlink:href="#URW_Palladio_L_Roman-53"/>
      </g>
     </g>
    </g>
    <g id="xtick_5">
     <g id="line2d_13">
      <path clip-path="url(#p0458397f87)" d="M 273.023321 223.2 
L 273.023321 7.2 
" style="fill:none;stroke:#ffffff;stroke-linecap:round;stroke-width:0.8;"/>
     </g>
     <g id="line2d_14">
      <g>
       <use style="fill:#262626;stroke:#262626;stroke-width:0.8;" x="273.02332148" xlink:href="#mf4c88de5f3" y="223.2"/>
      </g>
     </g>
     <g id="line2d_15">
      <g>
       <use style="fill:#262626;stroke:#262626;stroke-width:0.8;" x="273.02332148" xlink:href="#mf4c88de5f3" y="7.2"/>
      </g>
     </g>
     <g id="text_5">
      <!-- $20$ -->
      <defs>
       <path d="M 1.59375 2.5 
L 1.59375 0 
C 20.296875 0 20.296875 0 23.90625 0 
C 27.5 0 27.5 0 46.796875 0 
C 46.59375 1.953125 46.59375 2.90625 46.59375 4.203125 
C 46.59375 5.4375 46.59375 6.359375 46.796875 8.421875 
C 35.296875 8.421875 30.703125 8.421875 12.203125 8.421875 
L 30.40625 27.515625 
C 40.09375 37.71875 43.09375 43.171875 43.09375 50.59375 
C 43.09375 61.96875 35.296875 69 22.59375 69 
C 15.40625 69 10.5 67 5.59375 62.015625 
L 3.90625 48.421875 
L 6.796875 48.421875 
L 8.09375 53.015625 
C 9.703125 58.796875 13.296875 61.296875 20 61.296875 
C 28.59375 61.296875 34.09375 55.890625 34.09375 47.421875 
C 34.09375 39.921875 29.90625 32.546875 18.59375 20.5625 
z
" id="URW_Palladio_L_Roman-50"/>
      </defs>
      <g style="fill:#262626;" transform="translate(268.540133435 235.215410594)scale(0.09 -0.09)">
       <use transform="scale(0.996264009963)" xlink:href="#URW_Palladio_L_Roman-50"/>
       <use transform="translate(49.8132004981 0.0)scale(0.996264009963)" xlink:href="#URW_Palladio_L_Roman-48"/>
      </g>
     </g>
    </g>
    <g id="xtick_6">
     <g id="line2d_16">
      <path clip-path="url(#p0458397f87)" d="M 330.023321 223.2 
L 330.023321 7.2 
" style="fill:none;stroke:#ffffff;stroke-linecap:round;stroke-width:0.8;"/>
     </g>
     <g id="line2d_17">
      <g>
       <use style="fill:#262626;stroke:#262626;stroke-width:0.8;" x="330.02332148" xlink:href="#mf4c88de5f3" y="223.2"/>
      </g>
     </g>
     <g id="line2d_18">
      <g>
       <use style="fill:#262626;stroke:#262626;stroke-width:0.8;" x="330.02332148" xlink:href="#mf4c88de5f3" y="7.2"/>
      </g>
     </g>
     <g id="text_6">
      <!-- $25$ -->
      <g style="fill:#262626;" transform="translate(325.540133435 235.215410594)scale(0.09 -0.09)">
       <use transform="scale(0.996264009963)" xlink:href="#URW_Palladio_L_Roman-50"/>
       <use transform="translate(49.8132004981 0.0)scale(0.996264009963)" xlink:href="#URW_Palladio_L_Roman-53"/>
      </g>
     </g>
    </g>
    <g id="xtick_7">
     <g id="line2d_19">
      <path clip-path="url(#p0458397f87)" d="M 387.023321 223.2 
L 387.023321 7.2 
" style="fill:none;stroke:#ffffff;stroke-linecap:round;stroke-width:0.8;"/>
     </g>
     <g id="line2d_20">
      <g>
       <use style="fill:#262626;stroke:#262626;stroke-width:0.8;" x="387.02332148" xlink:href="#mf4c88de5f3" y="223.2"/>
      </g>
     </g>
     <g id="line2d_21">
      <g>
       <use style="fill:#262626;stroke:#262626;stroke-width:0.8;" x="387.02332148" xlink:href="#mf4c88de5f3" y="7.2"/>
      </g>
     </g>
     <g id="text_7">
      <!-- $30$ -->
      <defs>
       <path d="M 4.296875 49.953125 
L 7.40625 49.953125 
L 9.203125 55.53125 
C 10.296875 58.90625 16.59375 62.296875 21.796875 62.296875 
C 28.296875 62.296875 33.59375 57.015625 33.59375 50.75 
C 33.59375 43.28125 27.703125 37 20.59375 37 
C 19.796875 37 18.703125 37 17.40625 37.203125 
L 15.90625 37.203125 
L 14.703125 31.984375 
L 15.40625 31.375 
C 19.203125 33.09375 21.09375 33.59375 23.796875 33.59375 
C 32.09375 33.59375 36.90625 28.265625 36.90625 19.09375 
C 36.90625 8.84375 30.796875 2.109375 21.5 2.109375 
C 16.90625 2.109375 12.796875 3.609375 9.796875 6.421875 
C 7.40625 8.640625 6.09375 10.953125 4.203125 16.390625 
L 1.5 15.390625 
C 3.59375 9.265625 4.40625 5.640625 5 0.609375 
C 10.296875 -1.203125 14.703125 -2 18.40625 -2 
C 26.40625 -2 35.59375 2.515625 41.09375 9.265625 
C 44.5 13.375 46.203125 17.8125 46.203125 22.53125 
C 46.203125 27.359375 44.203125 31.59375 40.59375 34.09375 
C 38.09375 35.90625 35.796875 36.71875 30.796875 37.609375 
C 38.796875 43.796875 41.796875 48.375 41.796875 54.25 
C 41.796875 63.125 34.40625 69 23.296875 69 
C 16.5 69 12 67.109375 7.203125 62.328125 
z
" id="URW_Palladio_L_Roman-51"/>
      </defs>
      <g style="fill:#262626;" transform="translate(382.540133435 235.215410594)scale(0.09 -0.09)">
       <use transform="scale(0.996264009963)" xlink:href="#URW_Palladio_L_Roman-51"/>
       <use transform="translate(49.8132004981 0.0)scale(0.996264009963)" xlink:href="#URW_Palladio_L_Roman-48"/>
      </g>
     </g>
    </g>
    <g id="text_8">
     <!-- Empirical Average $\bar{\lambda}$ -->
     <defs>
      <path d="M 53.90625 43 
L 53.90625 45.8125 
C 47.90625 45.8125 46.09375 45.8125 44.5 45.8125 
C 42.90625 45.8125 41.09375 45.8125 35.09375 45.8125 
L 35.09375 43 
L 39.203125 43 
C 40.796875 43 41.59375 42.09375 41.59375 40.484375 
C 41.59375 38.890625 40.90625 36.203125 39.703125 33.1875 
L 35.5 22.578125 
C 34.296875 19.671875 33.09375 16.875 29.296875 8.578125 
L 17.40625 37.390625 
C 16.796875 38.78125 16.5 40.09375 16.5 41.1875 
C 16.5 42.296875 17.40625 43 19 43 
L 23.90625 43 
L 23.90625 45.8125 
C 14.09375 45.8125 14.09375 45.8125 12.203125 45.8125 
C 10.296875 45.8125 5.5 45.8125 0.59375 45.8125 
L 0.59375 43 
L 4 43 
C 5.5 42.796875 6 42.203125 7.09375 39.703125 
L 24.296875 -0.5 
L 29.296875 -0.5 
C 29.90625 1.203125 30.90625 3.796875 30.90625 4 
C 32 6.984375 33.296875 10.375 33.40625 10.375 
L 45.203125 36.3125 
C 47.40625 41.015625 48.796875 42.796875 50.796875 43 
z
" id="URW_Palladio_L_Roman-118"/>
      <path d="M 2.296875 66.5 
L 7.90625 66.5 
C 9.703125 66.5 10.40625 65.390625 10.40625 62.375 
L 10.40625 10.171875 
C 10.40625 3.8125 10.09375 3.109375 6.703125 3.109375 
L 2.09375 3.109375 
L 2.09375 0 
C 12.09375 0 12.09375 0 14.59375 0 
C 17.09375 0 17.09375 0 27.09375 0 
L 27.09375 3.109375 
L 22.5 3.109375 
C 19.09375 3.109375 18.796875 3.8125 18.796875 10.15625 
L 18.796875 72.203125 
L 17.90625 73.015625 
C 13.5 71.3125 10.203125 70.5 2.296875 69.296875 
z
" id="URW_Palladio_L_Roman-108"/>
      <path d="M 1.796875 40.078125 
L 5.5 40.078125 
C 9.5 40.078125 9.90625 39.375 9.90625 32.71875 
L 9.90625 10.046875 
C 9.90625 3.703125 9.59375 3 6.203125 3 
L 1.59375 3 
L 1.59375 -0.109375 
C 11.203125 -0.109375 11.5 -0.109375 14.296875 -0.109375 
C 17.09375 -0.109375 19.703125 -0.109375 26.203125 -0.109375 
L 26.203125 2.796875 
L 22 3.203125 
C 18.59375 3.203125 18.296875 3.90625 18.296875 10.21875 
L 18.296875 31.46875 
C 18.296875 35.96875 24.90625 40.875 30.90625 40.875 
C 36.296875 40.875 40 35.734375 40 28.09375 
L 40 10.046875 
C 40 3.703125 39.703125 3 36.296875 3 
L 31.703125 3 
L 31.703125 -0.109375 
C 41.703125 -0.109375 41.703125 -0.109375 44.203125 -0.109375 
C 46.703125 -0.109375 46.703125 -0.109375 56.703125 -0.109375 
L 56.703125 3 
L 52.09375 3 
C 48.703125 3 48.40625 3.703125 48.40625 10.046875 
L 48.40625 31.421875 
C 48.40625 35.9375 55 40.875 61 40.875 
C 66.40625 40.875 70.09375 35.78125 70.09375 28.21875 
L 70.09375 -0.109375 
C 76.203125 -0.109375 76.296875 -0.109375 78 -0.109375 
C 79.296875 -0.109375 79.296875 -0.109375 86.90625 -0.109375 
L 86.90625 3 
L 82.203125 3 
C 78.796875 3 78.5 3.703125 78.5 10.046875 
L 78.5 30.78125 
C 78.5 40.75 72.703125 47 63.5 47 
C 60 47 57.09375 46.09375 55.296875 44.484375 
L 47.703125 37.6875 
C 44.5 44.28125 40.40625 47 33.5 47 
C 29.796875 47 27 46.09375 25.203125 44.484375 
L 18.296875 38.078125 
L 18.296875 46.59375 
L 17.40625 47 
C 12.296875 44.890625 7.09375 43.484375 1.796875 42.890625 
z
" id="URW_Palladio_L_Roman-109"/>
      <path d="M 51.90625 38 
L 54.40625 42.109375 
L 54 43.109375 
L 39.796875 43.109375 
C 36.09375 45.890625 32.5 47 27.59375 47 
C 23.203125 47 18.09375 45.625 14 43.25 
C 8.40625 40.109375 5.5 35.28125 5.5 29.28125 
C 5.5 22 10.09375 16.984375 17.5 16.1875 
L 9.59375 10 
C 8.59375 8.484375 8.09375 7.171875 8.09375 5.640625 
C 8.09375 2.8125 9.90625 1.1875 14.703125 -0.21875 
L 6 -4.9375 
C 4.59375 -5.734375 3.203125 -9.4375 3.203125 -12.546875 
C 3.203125 -21.6875 12.09375 -28 24.796875 -28 
C 39.90625 -28 51.796875 -18.46875 51.796875 -6.234375 
C 51.796875 0.984375 47 6 40 6 
L 24 6 
C 18.796875 6 16.40625 7.21875 16.40625 9.984375 
C 16.40625 11.3125 17.203125 12.421875 19.796875 14.671875 
C 20.40625 15.1875 20.59375 15.390625 21 15.796875 
C 22 15.6875 22.59375 15.59375 23.40625 15.59375 
C 27.703125 15.59375 33 17.46875 37.09375 20.3125 
C 41.59375 23.546875 43.796875 27.484375 43.796875 32.703125 
C 43.796875 34.65625 43.5 35.9375 42.703125 38 
z
M 24 43.59375 
C 30.796875 43.59375 35.40625 38.09375 35.40625 29.765625 
C 35.40625 23.421875 31.203125 19 25.09375 19 
C 18.40625 19 13.90625 24.09375 13.90625 31.640625 
C 13.90625 39.171875 17.59375 43.59375 24 43.59375 
M 28.703125 -1.015625 
C 40 -1.015625 43.90625 -3.3125 43.90625 -9.84375 
C 43.90625 -18.46875 36 -24.890625 25.5 -24.890625 
C 16.796875 -24.890625 10.796875 -19.78125 10.796875 -12.34375 
C 10.796875 -7.84375 13.40625 -3.71875 17.40625 -2.015625 
C 19 -1.21875 21.796875 -1.015625 28.703125 -1.015625 
" id="URW_Palladio_L_Roman-103"/>
      <path d="M 32.296875 54 
L 32.296875 59.3125 
L 1.09375 59.3125 
L 1.09375 54 
z
" id="URW_Palladio_L_Roman-175"/>
      <path d="M 1 40.078125 
L 4.703125 40.078125 
C 8.703125 40.078125 9.09375 39.375 9.09375 32.734375 
L 9.09375 -17.84375 
C 9.09375 -24.1875 8.796875 -24.890625 5.40625 -24.890625 
L 0.796875 -24.890625 
L 0.796875 -28 
C 10.796875 -28 10.796875 -28 13.296875 -28 
C 15.796875 -28 15.796875 -28 25.796875 -28 
L 25.796875 -24.890625 
L 21.203125 -24.890625 
C 17.796875 -24.890625 17.5 -24.171875 17.5 -17.78125 
L 17.5 1.390625 
C 20.5 -0.40625 23.703125 -1.109375 28.203125 -1.109375 
C 31.09375 -1.109375 33.703125 -0.5 35.296875 0.5 
L 46.703125 7.890625 
C 50.703125 10.5 55.40625 20.78125 55.40625 27.1875 
C 55.40625 38.296875 46.203125 47 34.59375 47 
C 30.90625 47 27.296875 45.984375 25.703125 44.484375 
L 17.5 36.984375 
L 17.5 46.59375 
L 16.59375 47 
C 11.5 44.890625 6.296875 43.484375 1 42.890625 
z
M 17.5 30.6875 
C 17.5 32.078125 18 33.1875 19.296875 34.890625 
C 22.203125 38.578125 26.296875 40.484375 31.296875 40.484375 
C 40.703125 40.484375 46.703125 33.890625 46.703125 23.5 
C 46.703125 12.296875 40 4 31 4 
C 25.5 4 21.40625 5.8125 17.5 9.890625 
z
" id="URW_Palladio_L_Roman-112"/>
      <path d="M 43.703125 6.984375 
L 42.40625 7.984375 
C 36 4.203125 33.703125 3.3125 29.40625 3.3125 
C 22.90625 3.3125 17.5 6.21875 14.703125 11.109375 
C 12.796875 14.390625 12.09375 17.203125 11.90625 23 
L 26.5 23 
C 33.40625 23 37.703125 23 44.59375 24.125 
C 44.703125 25.53125 44.796875 26.453125 44.796875 27.671875 
C 44.796875 39.375 37.40625 47 26.203125 47 
C 22.5 47 18.203125 45.6875 14.09375 43.28125 
C 5.90625 38.578125 2.59375 32.359375 2.59375 21.9375 
C 2.59375 15.625 4.09375 10.21875 6.796875 6.40625 
C 10.796875 1.109375 17.5 -2 25 -2 
C 28.703125 -2 32.40625 -1.203125 36.5 0.578125 
C 39.203125 1.6875 41.296875 2.984375 41.703125 3.59375 
z
M 35.90625 26.40625 
C 30.703125 26.40625 28.296875 26.40625 24.703125 26.40625 
C 20.09375 26.40625 17.5 26.40625 12.09375 26.90625 
C 12.09375 31.671875 12.5 33.890625 13.796875 36.515625 
C 15.90625 40.96875 20.203125 43.6875 25 43.6875 
C 28.296875 43.6875 30.90625 42.359375 32.703125 39.59375 
C 34.90625 36.234375 35.59375 33.265625 35.90625 26.40625 
" id="URW_Palladio_L_Roman-101"/>
      <path d="M 2.296875 40.078125 
L 6 40.078125 
C 10 40.078125 10.40625 39.375 10.40625 32.71875 
L 10.40625 10.046875 
C 10.40625 3.703125 10.09375 3 6.703125 3 
L 2.09375 3 
L 2.09375 -0.109375 
C 9.296875 -0.109375 11.90625 -0.109375 14.40625 -0.109375 
C 16.40625 -0.109375 16.40625 -0.109375 28.703125 -0.109375 
L 28.703125 3 
L 23.5 3 
C 19 3 18.796875 3.296875 18.796875 9.96875 
L 18.796875 27.359375 
C 18.796875 33.421875 22.796875 38.484375 27.703125 38.484375 
C 30.703125 38.484375 32.796875 37.078125 34.40625 33.890625 
L 36.5 33.890625 
L 37.40625 45.890625 
C 36.296875 46.59375 34.5 47 32.703125 47 
C 29.703125 47 26.5 45.390625 24.40625 42.890625 
L 18.796875 36.28125 
L 18.796875 46.59375 
L 17.90625 47 
C 12.796875 44.890625 7.59375 43.484375 2.296875 42.890625 
z
" id="URW_Palladio_L_Roman-114"/>
      <path d="M 3.59375 -1.40625 
C 5.40625 -0.5 6.796875 0 9.296875 0.796875 
C 16.796875 15.96875 21.296875 25.203125 32.796875 41.5625 
L 40.09375 1.8125 
C 40.40625 0.109375 41.5 -1 43.09375 -1 
C 45.59375 -1 49.203125 1.21875 58.703125 8.40625 
L 57.796875 10.203125 
L 55.203125 8.5 
C 52.296875 6.5 49.90625 5.5 49.09375 5.5 
C 48.703125 5.5 48.296875 5.5 47.203125 7.40625 
C 46.40625 8.609375 45.90625 11 44.90625 14.421875 
L 38.40625 49.390625 
C 35.796875 63.40625 32.296875 70.53125 27.59375 71.125 
C 24.90625 68.921875 21 66.40625 18.796875 65 
L 18.5 62.59375 
C 20.40625 63.296875 23.40625 64.5 24.296875 64.5 
C 26.90625 64.5 29.5 60 30.5 54.1875 
L 32.203125 44.875 
C 23.703125 34.03125 6.796875 8.828125 1.59375 0.796875 
z
" id="Pazo_Math_Italic-108"/>
      <path d="M 18.796875 46.765625 
L 17.90625 47.171875 
C 12.796875 45.0625 7.59375 43.640625 2.296875 43.046875 
L 2.296875 40.25 
L 6 40.25 
C 10 40.25 10.40625 39.546875 10.40625 32.890625 
L 10.40625 10.171875 
C 10.40625 3.8125 10.09375 3.109375 6.703125 3.109375 
L 2.09375 3.109375 
L 2.09375 0 
C 12.09375 0 12.09375 0 14.59375 0 
C 17.09375 0 17.09375 0 27.09375 0 
L 27.09375 3.109375 
L 22.5 3.109375 
C 19.09375 3.109375 18.796875 3.8125 18.796875 10.171875 
z
M 14.203125 69 
C 11.203125 69 8.59375 66.390625 8.59375 63.375 
C 8.59375 60.46875 11.203125 57.875 14.09375 57.875 
C 17 57.875 19.703125 60.46875 19.703125 63.375 
C 19.703125 66.1875 17 69 14.203125 69 
" id="URW_Palladio_L_Roman-105"/>
      <path d="M 39.90625 31.15625 
C 39.90625 35.765625 40.40625 39.875 41.296875 43.484375 
C 37.296875 45.890625 33.796875 47 29.703125 47 
C 24.90625 47 19.296875 45.09375 13.296875 41.28125 
C 6.296875 36.875 2.59375 29.859375 2.59375 21.046875 
C 2.59375 7.515625 12.09375 -2 25.5 -2 
C 30.703125 -2 38.203125 -0.09375 39.203125 1.40625 
L 41.296875 4.609375 
L 40.296875 6.109375 
C 36.59375 4.109375 33.40625 3.203125 29.796875 3.203125 
C 18.703125 3.203125 11.40625 11.828125 11.40625 25.046875 
C 11.40625 35.765625 16.40625 41.78125 25.40625 41.78125 
C 29.796875 41.78125 34.59375 39.78125 36.40625 37.28125 
L 37.09375 31.15625 
z
" id="URW_Palladio_L_Roman-99"/>
      <path d="M 40.796875 70.5 
L 37.59375 70.5 
C 35.796875 66.171875 34.296875 62.46875 33.703125 60.96875 
L 28.40625 48.8125 
L 10.59375 8.15625 
C 9.40625 5.234375 7.40625 3.421875 5.203125 3.21875 
L 1.5 2.921875 
L 1.5 0 
C 10.796875 0 10.796875 0 12.40625 0 
C 13.703125 0 13.703125 0 24.5 0 
L 24.5 2.921875 
L 20.796875 3.21875 
C 17.296875 3.53125 16 4.21875 16 5.796875 
C 16 7.09375 17.40625 11.359375 19.5 16.34375 
L 22.296875 23 
L 51.09375 23 
L 55.703125 11.453125 
C 57.40625 7.234375 57.796875 5.921875 57.796875 5.03125 
C 57.796875 3.921875 56.203125 3.21875 53.703125 3.015625 
L 49 3.015625 
L 49 0 
C 61.296875 0 61.296875 0 62.90625 0 
C 64.796875 0 64.796875 0 75.59375 0 
L 75.59375 2.921875 
L 72.203125 3.21875 
C 69.59375 3.625 68.5 5.328125 65 13.453125 
z
M 24 27 
L 36.703125 57.078125 
L 49.296875 27 
z
" id="URW_Palladio_L_Roman-65"/>
      <path d="M 2.203125 66 
L 7 66 
C 11.59375 66 12.09375 65.1875 12.09375 57.265625 
L 12.09375 12.25 
C 12.09375 4.3125 11.703125 3.609375 7 3.203125 
L 3.40625 2.90625 
L 3.40625 0 
C 10 0 12.90625 0 15.703125 0 
C 16.203125 0 19 0 22.796875 0 
C 36.703125 0 36.703125 0 38.90625 0 
C 42 0 42 0 55.59375 0 
C 55.59375 5.96875 56.203125 11.5 57.203125 16.859375 
L 53.703125 16.859375 
C 53.5 15.1875 53.296875 13.71875 53.203125 13.3125 
C 52.59375 8.8125 51.296875 5.5625 49.90625 5.046875 
C 47.796875 4.3125 40.5 4.3125 31.5 4.3125 
C 26.296875 4.3125 24.5 4.46875 21.59375 4.921875 
L 21.59375 32.8125 
C 24.40625 33 27.40625 33 31.90625 33 
C 39.296875 33 42 32.71875 43.796875 31.875 
L 44.59375 29.53125 
L 45.09375 24 
L 48.09375 24 
C 47.796875 33.3125 47.796875 33.3125 47.796875 35.109375 
C 47.796875 36.71875 47.796875 36.71875 48.09375 46.734375 
L 45.09375 46.734375 
L 44.59375 41.28125 
C 44.5 40.328125 44.203125 39.390625 43.796875 38.546875 
C 42 37.71875 39.203125 37.40625 32.59375 37.40625 
C 28.40625 37.40625 25 37.40625 21.59375 37.40625 
L 21.59375 64.328125 
C 24.703125 65 26.40625 65 33.296875 65 
C 39 65 44.59375 64.53125 47.796875 63.6875 
C 50.203125 63.109375 50.5 62.625 50.5 60.4375 
L 50.5 54.140625 
L 54 54.140625 
C 54 60.046875 54.5 64.78125 55.59375 69.109375 
C 50.703125 69.109375 47.59375 69.109375 43.203125 69.109375 
C 40.703125 69.109375 37.40625 69.109375 33.296875 69.109375 
C 27 69.109375 22.703125 69.109375 20 69.109375 
C 16.59375 69.109375 12.09375 69.109375 2.203125 69.109375 
z
" id="URW_Palladio_L_Roman-69"/>
      <path d="M 32.40625 8.40625 
L 31.90625 -0.015625 
C 38.40625 -0.015625 38.40625 -0.015625 39.703125 -0.015625 
C 40.203125 -0.015625 42.703125 -0.015625 47.09375 -0.015625 
L 47.09375 3 
L 43.203125 3 
C 40.796875 3 40.40625 3.8125 40.40625 8.71875 
L 40.40625 27.046875 
C 40.40625 41.6875 36.203125 47 24.59375 47 
C 20.296875 47 16.296875 45.890625 12.5 43.609375 
L 7.203125 40.390625 
L 7.203125 33.921875 
L 9.796875 33.21875 
L 11.09375 36.296875 
C 13.203125 40.984375 14.203125 41.6875 18.796875 41.6875 
C 28.203125 41.6875 32.09375 37.984375 32.40625 28.9375 
L 22.5 27.125 
C 8.90625 24.640625 3.203125 19.953125 3.203125 11.28125 
C 3.203125 3.5 7.90625 -1 15.796875 -1 
C 17.59375 -1 19.296875 -0.703125 20 -0.203125 
z
M 32.40625 12.59375 
C 29.5 8.5 23.203125 4.71875 19.296875 4.71875 
C 15.296875 4.71875 11.796875 8.40625 11.796875 12.6875 
C 11.796875 16.375 13.796875 19.859375 16.796875 21.75 
C 19.296875 23.25 24.796875 24.640625 32.40625 25.75 
z
" id="URW_Palladio_L_Roman-97"/>
     </defs>
     <g style="fill:#262626;" transform="translate(157.195350018 253.351042721)scale(0.13 -0.13)">
      <use transform="scale(0.996264009963)" xlink:href="#URW_Palladio_L_Roman-69"/>
      <use transform="translate(60.871630677 0.0)scale(0.996264009963)" xlink:href="#URW_Palladio_L_Roman-109"/>
      <use transform="translate(148.841304945 0.0)scale(0.996264009963)" xlink:href="#URW_Palladio_L_Roman-112"/>
      <use transform="translate(208.715698698 0.0)scale(0.996264009963)" xlink:href="#URW_Palladio_L_Roman-105"/>
      <use transform="translate(237.70606016 0.0)scale(0.996264009963)" xlink:href="#URW_Palladio_L_Roman-114"/>
      <use transform="translate(277.057956491 0.0)scale(0.996264009963)" xlink:href="#URW_Palladio_L_Roman-105"/>
      <use transform="translate(306.048317953 0.0)scale(0.996264009963)" xlink:href="#URW_Palladio_L_Roman-99"/>
      <use transform="translate(350.281886651 0.0)scale(0.996264009963)" xlink:href="#URW_Palladio_L_Roman-97"/>
      <use transform="translate(400.095087149 0.0)scale(0.996264009963)" xlink:href="#URW_Palladio_L_Roman-108"/>
      <use transform="translate(453.99204886 0.0)scale(0.996264009963)" xlink:href="#URW_Palladio_L_Roman-65"/>
      <use transform="translate(522.335537997 0.0)scale(0.996264009963)" xlink:href="#URW_Palladio_L_Roman-118"/>
      <use transform="translate(578.623451242 0.0)scale(0.996264009963)" xlink:href="#URW_Palladio_L_Roman-101"/>
      <use transform="translate(626.343746352 0.0)scale(0.996264009963)" xlink:href="#URW_Palladio_L_Roman-114"/>
      <use transform="translate(665.695642683 0.0)scale(0.996264009963)" xlink:href="#URW_Palladio_L_Roman-97"/>
      <use transform="translate(715.508843181 0.0)scale(0.996264009963)" xlink:href="#URW_Palladio_L_Roman-103"/>
      <use transform="translate(770.900520144 0.0)scale(0.996264009963)" xlink:href="#URW_Palladio_L_Roman-101"/>
      <use transform="translate(855.831251703 24.1594326452)scale(0.996264009963)" xlink:href="#URW_Palladio_L_Roman-175"/>
      <use transform="translate(844.772715111 0.0)scale(0.996264009963)" xlink:href="#Pazo_Math_Italic-108"/>
     </g>
    </g>
   </g>
   <g id="matplotlib.axis_2">
    <g id="ytick_1">
     <g id="line2d_22">
      <path clip-path="url(#p0458397f87)" d="M 45.023321 223.2 
L 387.023321 223.2 
" style="fill:none;stroke:#ffffff;stroke-linecap:round;stroke-width:0.8;"/>
     </g>
     <g id="line2d_23">
      <g>
       <use style="fill:#262626;stroke:#262626;stroke-width:0.8;" x="45.02332148" xlink:href="#mf4c88de5f3" y="223.2"/>
      </g>
     </g>
     <g id="line2d_24">
      <g>
       <use style="fill:#262626;stroke:#262626;stroke-width:0.8;" x="387.02332148" xlink:href="#mf4c88de5f3" y="223.2"/>
      </g>
     </g>
     <g id="text_9">
      <!-- $0$ -->
      <g style="fill:#262626;" transform="translate(34.9401334352 225.143471868)scale(0.09 -0.09)">
       <use transform="scale(0.996264009963)" xlink:href="#URW_Palladio_L_Roman-48"/>
      </g>
     </g>
    </g>
    <g id="ytick_2">
     <g id="line2d_25">
      <path clip-path="url(#p0458397f87)" d="M 45.023321 183.927273 
L 387.023321 183.927273 
" style="fill:none;stroke:#ffffff;stroke-linecap:round;stroke-width:0.8;"/>
     </g>
     <g id="line2d_26">
      <g>
       <use style="fill:#262626;stroke:#262626;stroke-width:0.8;" x="45.02332148" xlink:href="#mf4c88de5f3" y="183.927272727"/>
      </g>
     </g>
     <g id="line2d_27">
      <g>
       <use style="fill:#262626;stroke:#262626;stroke-width:0.8;" x="387.02332148" xlink:href="#mf4c88de5f3" y="183.927272727"/>
      </g>
     </g>
     <g id="text_10">
      <!-- $20$ -->
      <g style="fill:#262626;" transform="translate(30.4569453903 185.870744595)scale(0.09 -0.09)">
       <use transform="scale(0.996264009963)" xlink:href="#URW_Palladio_L_Roman-50"/>
       <use transform="translate(49.8132004981 0.0)scale(0.996264009963)" xlink:href="#URW_Palladio_L_Roman-48"/>
      </g>
     </g>
    </g>
    <g id="ytick_3">
     <g id="line2d_28">
      <path clip-path="url(#p0458397f87)" d="M 45.023321 144.654545 
L 387.023321 144.654545 
" style="fill:none;stroke:#ffffff;stroke-linecap:round;stroke-width:0.8;"/>
     </g>
     <g id="line2d_29">
      <g>
       <use style="fill:#262626;stroke:#262626;stroke-width:0.8;" x="45.02332148" xlink:href="#mf4c88de5f3" y="144.654545455"/>
      </g>
     </g>
     <g id="line2d_30">
      <g>
       <use style="fill:#262626;stroke:#262626;stroke-width:0.8;" x="387.02332148" xlink:href="#mf4c88de5f3" y="144.654545455"/>
      </g>
     </g>
     <g id="text_11">
      <!-- $40$ -->
      <defs>
       <path d="M 28 18 
L 28 10.515625 
C 28 4.515625 26.90625 3.109375 22 3.109375 
L 15.796875 3.109375 
L 15.796875 0 
C 29.09375 0 29.09375 0 31.5 0 
C 33.90625 0 33.90625 0 47.203125 0 
L 47.203125 3.109375 
L 42.40625 3.109375 
C 37.5 3.109375 36.40625 4.40625 36.40625 10.453125 
L 36.40625 18 
C 42.296875 18 44.40625 18 47.203125 17.703125 
L 47.203125 24.8125 
C 42.5 24.421875 40.59375 24.421875 39.09375 24.421875 
L 38.796875 24.421875 
L 36.40625 24.421875 
L 36.40625 38.390625 
C 36.40625 56.25 36.59375 64.875 37.09375 69 
L 35.90625 69.5 
L 28.5 66.796875 
L 0.203125 20.296875 
L 1.296875 18 
z
M 28 24.421875 
L 6.5 24.421875 
L 28 59.78125 
z
" id="URW_Palladio_L_Roman-52"/>
      </defs>
      <g style="fill:#262626;" transform="translate(30.4569453903 146.598017323)scale(0.09 -0.09)">
       <use transform="scale(0.996264009963)" xlink:href="#URW_Palladio_L_Roman-52"/>
       <use transform="translate(49.8132004981 0.0)scale(0.996264009963)" xlink:href="#URW_Palladio_L_Roman-48"/>
      </g>
     </g>
    </g>
    <g id="ytick_4">
     <g id="line2d_31">
      <path clip-path="url(#p0458397f87)" d="M 45.023321 105.381818 
L 387.023321 105.381818 
" style="fill:none;stroke:#ffffff;stroke-linecap:round;stroke-width:0.8;"/>
     </g>
     <g id="line2d_32">
      <g>
       <use style="fill:#262626;stroke:#262626;stroke-width:0.8;" x="45.02332148" xlink:href="#mf4c88de5f3" y="105.381818182"/>
      </g>
     </g>
     <g id="line2d_33">
      <g>
       <use style="fill:#262626;stroke:#262626;stroke-width:0.8;" x="387.02332148" xlink:href="#mf4c88de5f3" y="105.381818182"/>
      </g>
     </g>
     <g id="text_12">
      <!-- $60$ -->
      <defs>
       <path d="M 41.59375 67.34375 
L 37.90625 69.046875 
C 28.296875 65.84375 24.203125 63.84375 19.09375 59.4375 
C 8.796875 50.71875 3.203125 38.5 3.203125 24.765625 
C 3.203125 8.21875 11.203125 -2 24.09375 -2 
C 37.09375 -2 46.796875 8.3125 46.796875 21.953125 
C 46.796875 33.484375 39.90625 41 29.296875 41 
C 24.296875 41 21.296875 39.6875 15.40625 34.984375 
C 14.296875 34.078125 14.203125 33.984375 13.09375 33.1875 
C 15.203125 51.3125 23.59375 61.140625 41.59375 66.546875 
z
M 25.5 34.984375 
C 33.09375 34.984375 38.203125 28.375 38.203125 18.453125 
C 38.203125 8.015625 33.09375 1.296875 25.40625 1.296875 
C 16.90625 1.296875 12.296875 8.609375 12.296875 22.0625 
C 12.296875 25.5625 12.703125 27.46875 13.796875 29.171875 
C 16 32.578125 20.703125 34.984375 25.5 34.984375 
" id="URW_Palladio_L_Roman-54"/>
      </defs>
      <g style="fill:#262626;" transform="translate(30.4569453903 107.32529005)scale(0.09 -0.09)">
       <use transform="scale(0.996264009963)" xlink:href="#URW_Palladio_L_Roman-54"/>
       <use transform="translate(49.8132004981 0.0)scale(0.996264009963)" xlink:href="#URW_Palladio_L_Roman-48"/>
      </g>
     </g>
    </g>
    <g id="ytick_5">
     <g id="line2d_34">
      <path clip-path="url(#p0458397f87)" d="M 45.023321 66.109091 
L 387.023321 66.109091 
" style="fill:none;stroke:#ffffff;stroke-linecap:round;stroke-width:0.8;"/>
     </g>
     <g id="line2d_35">
      <g>
       <use style="fill:#262626;stroke:#262626;stroke-width:0.8;" x="45.02332148" xlink:href="#mf4c88de5f3" y="66.1090909091"/>
      </g>
     </g>
     <g id="line2d_36">
      <g>
       <use style="fill:#262626;stroke:#262626;stroke-width:0.8;" x="387.02332148" xlink:href="#mf4c88de5f3" y="66.1090909091"/>
      </g>
     </g>
     <g id="text_13">
      <!-- $80$ -->
      <defs>
       <path d="M 16.796875 34.546875 
C 12.703125 32.65625 11 31.546875 8.796875 29.4375 
C 5 25.640625 3 21.125 3 15.921875 
C 3 5.609375 11.296875 -2 22.59375 -2 
C 35.59375 -2 46.40625 8.21875 46.40625 20.625 
C 46.40625 28.640625 42.703125 32.953125 31.296875 38.15625 
C 40.40625 44.375 43.59375 48.578125 43.59375 54.578125 
C 43.59375 63.1875 36.5 69 25.90625 69 
C 14 69 5.296875 61.390625 5.296875 50.890625 
C 5.296875 44.078125 8 40.265625 16.796875 34.546875 
M 28.40625 29.546875 
C 34.703125 26.734375 38.5 21.828125 38.5 16.4375 
C 38.5 8.015625 32.203125 1.40625 24.09375 1.40625 
C 15.59375 1.40625 10.09375 7.421875 10.09375 16.734375 
C 10.09375 24.03125 13 28.640625 20.40625 33.15625 
z
M 22.296875 42.375 
C 16 45.46875 12.796875 49.484375 12.796875 54.484375 
C 12.796875 61.09375 17.59375 65.59375 24.703125 65.59375 
C 32 65.59375 36.796875 60.796875 36.796875 53.46875 
C 36.796875 47.78125 34.296875 43.875 27.796875 39.65625 
z
" id="URW_Palladio_L_Roman-56"/>
      </defs>
      <g style="fill:#262626;" transform="translate(30.4569453903 68.0525627773)scale(0.09 -0.09)">
       <use transform="scale(0.996264009963)" xlink:href="#URW_Palladio_L_Roman-56"/>
       <use transform="translate(49.8132004981 0.0)scale(0.996264009963)" xlink:href="#URW_Palladio_L_Roman-48"/>
      </g>
     </g>
    </g>
    <g id="ytick_6">
     <g id="line2d_37">
      <path clip-path="url(#p0458397f87)" d="M 45.023321 26.836364 
L 387.023321 26.836364 
" style="fill:none;stroke:#ffffff;stroke-linecap:round;stroke-width:0.8;"/>
     </g>
     <g id="line2d_38">
      <g>
       <use style="fill:#262626;stroke:#262626;stroke-width:0.8;" x="45.02332148" xlink:href="#mf4c88de5f3" y="26.8363636364"/>
      </g>
     </g>
     <g id="line2d_39">
      <g>
       <use style="fill:#262626;stroke:#262626;stroke-width:0.8;" x="387.02332148" xlink:href="#mf4c88de5f3" y="26.8363636364"/>
      </g>
     </g>
     <g id="text_14">
      <!-- $100$ -->
      <g style="fill:#262626;" transform="translate(25.9737573455 28.7798355046)scale(0.09 -0.09)">
       <use transform="scale(0.996264009963)" xlink:href="#URW_Palladio_L_Roman-49"/>
       <use transform="translate(49.8132004981 0.0)scale(0.996264009963)" xlink:href="#URW_Palladio_L_Roman-48"/>
       <use transform="translate(99.6264009963 0.0)scale(0.996264009963)" xlink:href="#URW_Palladio_L_Roman-48"/>
      </g>
     </g>
    </g>
    <g id="text_15">
     <!-- Predicted Expected Value $\langle \lambda \rangle$ -->
     <defs>
      <path d="M 28.796875 25.46875 
L 43 42.09375 
C 43.59375 42.796875 44.703125 43.203125 46.40625 43.203125 
L 47.796875 43.203125 
L 47.796875 46 
L 39.59375 46 
L 27.203125 28.46875 
L 19.59375 40.09375 
C 18.09375 42.296875 17 43.609375 13.59375 47.015625 
L 2 45 
L 2.5 42.3125 
L 4.59375 42.09375 
C 6.40625 42.09375 8.59375 40.703125 9.59375 39.296875 
L 21.59375 21.84375 
L 6.703125 4.203125 
C 6 3.3125 4.703125 2.703125 3.703125 2.703125 
L 2 2.703125 
L 2 0 
L 10.59375 0 
C 11.296875 1.109375 11.5 1.5 12.703125 3.3125 
C 14.296875 6.109375 15.90625 8.609375 16.59375 9.421875 
L 24 19.234375 
L 34.703125 3.25 
L 34.796875 3.0625 
C 35.703125 1.671875 36.5 0.6875 37.296875 0 
C 42.5 0 42.5 0 43.40625 0 
C 44.40625 0 44.40625 0 49.59375 0 
L 49.59375 2.703125 
L 47.09375 3 
C 45.90625 3.109375 44.703125 3.90625 43.59375 5.40625 
z
" id="URW_Palladio_L_Roman-120"/>
      <path d="M 41.203125 43.78125 
C 35.59375 46.1875 32.796875 47 29.296875 47 
C 26.59375 47 24.203125 46.390625 21.703125 45.109375 
L 12.90625 40.515625 
C 7.203125 37.515625 3.5 30.234375 3.5 21.75 
C 3.5 13.765625 6.203125 7.1875 11.09375 3.1875 
C 14.5 0.296875 19.203125 -1 25.703125 -1 
C 27.703125 -1 30 -0.59375 30.5 -0.203125 
L 41.59375 9.109375 
L 41.09375 -0.109375 
C 46 -0.109375 47.59375 -0.109375 48.796875 -0.109375 
C 49.59375 -0.109375 51 -0.109375 53.09375 -0.109375 
C 53.796875 -0.109375 55.796875 -0.109375 57.90625 -0.109375 
L 57.90625 3 
L 53.296875 3 
C 49.90625 3 49.59375 3.703125 49.59375 10.046875 
L 49.59375 71.984375 
L 48.703125 72.796875 
C 44.296875 71.09375 41 70.28125 33.09375 69.078125 
L 33.09375 66.28125 
L 38.703125 66.28125 
C 40.5 66.28125 41.203125 65.171875 41.203125 62.15625 
z
M 41.203125 22.25 
C 41.203125 15.765625 41 14.78125 39.703125 12.484375 
C 36.90625 7.796875 32 4.71875 27.296875 4.71875 
C 18.5 4.71875 12.203125 13.1875 12.203125 25.046875 
C 12.203125 35.90625 17.59375 42.28125 26.59375 42.28125 
C 30.40625 42.28125 34.40625 40.984375 37.90625 38.59375 
C 40 37.203125 41.203125 35.90625 41.203125 35.09375 
z
" id="URW_Palladio_L_Roman-100"/>
      <path d="M 50.296875 47.015625 
L 49.40625 47.421875 
C 44.296875 45.3125 39.09375 43.90625 33.796875 43.3125 
L 33.796875 40.5 
L 37.5 40.5 
C 41.5 40.5 41.90625 39.796875 41.90625 33.140625 
L 41.90625 16.71875 
C 41.90625 14.5 40.5 11.671875 38.203125 9.359375 
C 35.40625 6.53125 32.203125 5.109375 28.296875 5.109375 
C 24.796875 5.109375 22 6.21875 20.40625 8.140625 
C 19 9.75 18.296875 12.875 18.296875 17.296875 
L 18.296875 47.015625 
L 17.40625 47.421875 
C 12.296875 45.3125 7.09375 43.90625 1.796875 43.3125 
L 1.796875 40.5 
L 5.5 40.5 
C 9.5 40.5 9.90625 39.796875 9.90625 33.15625 
L 9.90625 16.234375 
C 9.90625 9.171875 10.5 6.046875 12.296875 3.546875 
C 14.5 0.515625 18.296875 -1 24 -1 
C 28.5 -1 32.5 0.40625 35.203125 2.90625 
L 41.90625 9.140625 
C 41.90625 6.265625 41.796875 4.65625 41.5 0 
C 48.203125 0 48.296875 0 49.796875 0 
C 51.203125 0 51.203125 0 58.09375 0 
L 58.09375 2.90625 
L 54 3.3125 
C 50.59375 3.3125 50.296875 3.921875 50.296875 10.375 
z
" id="URW_Palladio_L_Roman-117"/>
      <path d="M 9.796875 38.6875 
L 9.796875 9.671875 
C 9.796875 2.21875 13.09375 -1 20.796875 -1 
C 23.09375 -1 25.5 -0.5 26.09375 0.203125 
L 30.90625 5.515625 
L 29.59375 7.234375 
C 27.09375 5.8125 25.59375 5.3125 23.703125 5.3125 
C 19.796875 5.3125 18.203125 7.34375 18.203125 12.3125 
L 18.203125 38.890625 
L 31 38.890625 
L 31.90625 44 
L 18.203125 44 
L 18.203125 47.75 
C 18.203125 51.890625 18.5 55.421875 19.296875 61.734375 
L 18.09375 62.828125 
C 15.703125 61.328125 12.703125 60.03125 9.59375 59.03125 
C 9.90625 56.015625 10 54.109375 10 51.109375 
L 10 44.09375 
L 2.203125 40.59375 
L 2.203125 38.6875 
z
" id="URW_Palladio_L_Roman-116"/>
      <path d="M 27.296875 23.296875 
C 27.796875 24.5 27.796875 24.703125 27.796875 25 
C 27.796875 25.296875 27.796875 25.5 27.296875 26.703125 
L 9.796875 72.703125 
C 9.203125 74.40625 8.59375 75 7.5 75 
C 6.40625 75 5.5 74.09375 5.5 73 
C 5.5 72.703125 5.5 72.5 6 71.40625 
L 23.703125 25 
L 6 -21.203125 
C 5.5 -22.296875 5.5 -22.5 5.5 -23 
C 5.5 -24.09375 6.40625 -25 7.5 -25 
C 8.796875 -25 9.203125 -24 9.59375 -23 
z
" id="CMSY10-105"/>
      <path d="M 21.59375 64.3125 
C 25.09375 65.09375 28 65.5 31.40625 65.5 
C 42.203125 65.5 48 60.546875 48 51.140625 
C 48 42.234375 41.90625 36 33.203125 36 
C 31.09375 36 29.59375 36.203125 27 36.984375 
L 28 33.390625 
C 30.40625 32.890625 31.796875 32.796875 33.796875 32.796875 
C 47.5 32.796875 58 42.0625 58 54.046875 
C 58 63.609375 50.203125 69.5 37.5 69.5 
C 37 69.5 36 69.5 34.703125 69.109375 
C 31 69.109375 23.40625 69.109375 20.5 69.109375 
C 18.296875 69.109375 18.296875 69.109375 2.296875 69.109375 
L 2.296875 66 
L 6.796875 66 
C 11.296875 66 12.09375 64.671875 12.09375 57.234375 
L 12.09375 11.96875 
C 12.09375 4 11.59375 3.203125 7 3.203125 
L 2.203125 3.203125 
L 2.203125 0 
C 8.09375 0 11.59375 0 16.796875 0 
C 22 0 25.59375 0 31.5 0 
L 31.5 3.203125 
L 26.703125 3.203125 
C 22.09375 3.203125 21.59375 4 21.59375 11.9375 
z
" id="URW_Palladio_L_Roman-80"/>
      <path d="M 32.796875 71.203125 
C 33.296875 72.296875 33.296875 72.5 33.296875 73 
C 33.296875 74.09375 32.40625 75 31.296875 75 
C 30.40625 75 29.703125 74.5 29 72.703125 
L 11.5 26.796875 
C 11.296875 26.203125 11 25.59375 11 25 
C 11 24.703125 11 24.5 11.5 23.296875 
L 29 -22.59375 
C 29.40625 -23.703125 29.90625 -25 31.296875 -25 
C 32.40625 -25 33.296875 -24.09375 33.296875 -23 
C 33.296875 -22.703125 33.296875 -22.5 32.796875 -21.40625 
L 15.09375 25 
z
" id="CMSY10-104"/>
      <path d="M 27.40625 66 
L 27.40625 69.015625 
C 16.40625 69.015625 16.40625 69.015625 14.09375 69.015625 
C 11.796875 69.015625 11.796875 69.015625 0.796875 69.015625 
L 0.796875 66.203125 
L 4.40625 65.90625 
C 6.5 65.703125 7.5 64.796875 8.796875 61.796875 
L 27.59375 15.53125 
C 30.703125 7.921875 31.90625 4.421875 33.40625 -1 
L 38.40625 -1 
C 40.296875 5.21875 41.5 8.515625 44.796875 16.53125 
L 62.203125 58.6875 
C 64.5 64.109375 65.59375 65.609375 67.59375 65.90625 
L 70.59375 66.203125 
L 70.59375 69.015625 
L 59.796875 69.015625 
C 58 69.015625 55.703125 69.015625 52.796875 69.015625 
C 52.296875 69.015625 50.59375 69.015625 49 69.015625 
L 49 66 
L 54.203125 66 
C 56.40625 66 57.703125 64.984375 57.703125 63.46875 
C 57.703125 62.46875 57.40625 61.0625 56.796875 59.5625 
L 38.5 12.015625 
L 18.796875 62.96875 
C 18.703125 63.375 18.59375 63.6875 18.59375 64.09375 
C 18.59375 65.296875 19.796875 66 21.796875 66 
z
" id="URW_Palladio_L_Roman-86"/>
     </defs>
     <g style="fill:#262626;" transform="translate(17.321529129 199.504608147)rotate(-90.0)scale(0.13 -0.13)">
      <use transform="scale(0.996264009963)" xlink:href="#URW_Palladio_L_Roman-80"/>
      <use transform="translate(60.1735952337 0.0)scale(0.996264009963)" xlink:href="#URW_Palladio_L_Roman-114"/>
      <use transform="translate(97.7329125885 0.0)scale(0.996264009963)" xlink:href="#URW_Palladio_L_Roman-101"/>
      <use transform="translate(145.453207698 0.0)scale(0.996264009963)" xlink:href="#URW_Palladio_L_Roman-100"/>
      <use transform="translate(206.324838375 0.0)scale(0.996264009963)" xlink:href="#URW_Palladio_L_Roman-105"/>
      <use transform="translate(235.315199837 0.0)scale(0.996264009963)" xlink:href="#URW_Palladio_L_Roman-99"/>
      <use transform="translate(279.548768534 0.0)scale(0.996264009963)" xlink:href="#URW_Palladio_L_Roman-116"/>
      <use transform="translate(312.025856408 0.0)scale(0.996264009963)" xlink:href="#URW_Palladio_L_Roman-101"/>
      <use transform="translate(359.746151517 0.0)scale(0.996264009963)" xlink:href="#URW_Palladio_L_Roman-100"/>
      <use transform="translate(445.524382443 0.0)scale(0.996264009963)" xlink:href="#URW_Palladio_L_Roman-69"/>
      <use transform="translate(506.39601312 0.0)scale(0.996264009963)" xlink:href="#URW_Palladio_L_Roman-120"/>
      <use transform="translate(557.802360411 0.0)scale(0.996264009963)" xlink:href="#URW_Palladio_L_Roman-112"/>
      <use transform="translate(617.676754164 0.0)scale(0.996264009963)" xlink:href="#URW_Palladio_L_Roman-101"/>
      <use transform="translate(665.397049273 0.0)scale(0.996264009963)" xlink:href="#URW_Palladio_L_Roman-99"/>
      <use transform="translate(709.630617971 0.0)scale(0.996264009963)" xlink:href="#URW_Palladio_L_Roman-116"/>
      <use transform="translate(742.107705844 0.0)scale(0.996264009963)" xlink:href="#URW_Palladio_L_Roman-101"/>
      <use transform="translate(789.828000953 0.0)scale(0.996264009963)" xlink:href="#URW_Palladio_L_Roman-100"/>
      <use transform="translate(875.606231879 0.0)scale(0.996264009963)" xlink:href="#URW_Palladio_L_Roman-86"/>
      <use transform="translate(938.371335762 0.0)scale(0.996264009963)" xlink:href="#URW_Palladio_L_Roman-97"/>
      <use transform="translate(988.184536261 0.0)scale(0.996264009963)" xlink:href="#URW_Palladio_L_Roman-108"/>
      <use transform="translate(1017.17489772 0.0)scale(0.996264009963)" xlink:href="#URW_Palladio_L_Roman-117"/>
      <use transform="translate(1077.24863245 0.0)scale(0.996264009963)" xlink:href="#URW_Palladio_L_Roman-101"/>
      <use transform="translate(1151.12082741 0.0)scale(1.03810691596)" xlink:href="#CMSY10-104"/>
      <use transform="translate(1193.86053216 0.0)scale(0.996264009963)" xlink:href="#Pazo_Math_Italic-108"/>
      <use transform="translate(1256.62413107 0.0)scale(1.03810691596)" xlink:href="#CMSY10-105"/>
     </g>
    </g>
   </g>
   <g id="line2d_40">
    <defs>
     <path d="M 0 4 
C 1.060812 4 2.078319 3.578535 2.828427 2.828427 
C 3.578535 2.078319 4 1.060812 4 0 
C 4 -1.060812 3.578535 -2.078319 2.828427 -2.828427 
C 2.078319 -3.578535 1.060812 -4 0 -4 
C -1.060812 -4 -2.078319 -3.578535 -2.828427 -2.828427 
C -3.578535 -2.078319 -4 -1.060812 -4 0 
C -4 1.060812 -3.578535 2.078319 -2.828427 2.828427 
C -2.078319 3.578535 -1.060812 4 0 4 
z
" id="mcbc7f19b46" style="stroke:#000000;stroke-width:0.1;"/>
    </defs>
    <g>
     <use style="fill:#d55e00;stroke:#000000;stroke-width:0.1;" x="73.8057450789" xlink:href="#mcbc7f19b46" y="217.309090909"/>
     <use style="fill:#d55e00;stroke:#000000;stroke-width:0.1;" x="102.12173996" xlink:href="#mcbc7f19b46" y="207.490909091"/>
     <use style="fill:#d55e00;stroke:#000000;stroke-width:0.1;" x="131.803819639" xlink:href="#mcbc7f19b46" y="193.745454545"/>
     <use style="fill:#d55e00;stroke:#000000;stroke-width:0.1;" x="160.335187879" xlink:href="#mcbc7f19b46" y="176.072727273"/>
     <use style="fill:#d55e00;stroke:#000000;stroke-width:0.1;" x="190.37025944" xlink:href="#mcbc7f19b46" y="154.472727273"/>
     <use style="fill:#d55e00;stroke:#000000;stroke-width:0.1;" x="218.10825836" xlink:href="#mcbc7f19b46" y="128.945454545"/>
     <use style="fill:#d55e00;stroke:#000000;stroke-width:0.1;" x="241.37870444" xlink:href="#mcbc7f19b46" y="99.4909090909"/>
     <use style="fill:#d55e00;stroke:#000000;stroke-width:0.1;" x="263.021205441" xlink:href="#mcbc7f19b46" y="66.1090909091"/>
     <use style="fill:#d55e00;stroke:#000000;stroke-width:0.1;" x="279.937277839" xlink:href="#mcbc7f19b46" y="28.8"/>
     <use style="fill:#d55e00;stroke:#000000;stroke-width:0.1;" x="74.8640412819" xlink:href="#mcbc7f19b46" y="217.309090909"/>
     <use style="fill:#d55e00;stroke:#000000;stroke-width:0.1;" x="113.130209243" xlink:href="#mcbc7f19b46" y="207.490909091"/>
     <use style="fill:#d55e00;stroke:#000000;stroke-width:0.1;" x="140.241230957" xlink:href="#mcbc7f19b46" y="193.745454545"/>
     <use style="fill:#d55e00;stroke:#000000;stroke-width:0.1;" x="169.417618037" xlink:href="#mcbc7f19b46" y="176.072727273"/>
     <use style="fill:#d55e00;stroke:#000000;stroke-width:0.1;" x="202.856285002" xlink:href="#mcbc7f19b46" y="154.472727273"/>
     <use style="fill:#d55e00;stroke:#000000;stroke-width:0.1;" x="233.729972481" xlink:href="#mcbc7f19b46" y="128.945454545"/>
     <use style="fill:#d55e00;stroke:#000000;stroke-width:0.1;" x="261.313654163" xlink:href="#mcbc7f19b46" y="99.4909090909"/>
     <use style="fill:#d55e00;stroke:#000000;stroke-width:0.1;" x="288.521607801" xlink:href="#mcbc7f19b46" y="66.1090909091"/>
     <use style="fill:#d55e00;stroke:#000000;stroke-width:0.1;" x="312.055359679" xlink:href="#mcbc7f19b46" y="28.8"/>
     <use style="fill:#d55e00;stroke:#000000;stroke-width:0.1;" x="70.6610003637" xlink:href="#mcbc7f19b46" y="217.309090909"/>
     <use style="fill:#d55e00;stroke:#000000;stroke-width:0.1;" x="104.940770725" xlink:href="#mcbc7f19b46" y="207.490909091"/>
     <use style="fill:#d55e00;stroke:#000000;stroke-width:0.1;" x="136.625306003" xlink:href="#mcbc7f19b46" y="193.745454545"/>
     <use style="fill:#d55e00;stroke:#000000;stroke-width:0.1;" x="171.05689016" xlink:href="#mcbc7f19b46" y="176.072727273"/>
     <use style="fill:#d55e00;stroke:#000000;stroke-width:0.1;" x="203.023153644" xlink:href="#mcbc7f19b46" y="154.472727273"/>
     <use style="fill:#d55e00;stroke:#000000;stroke-width:0.1;" x="232.104325643" xlink:href="#mcbc7f19b46" y="128.945454545"/>
     <use style="fill:#d55e00;stroke:#000000;stroke-width:0.1;" x="260.973555682" xlink:href="#mcbc7f19b46" y="99.4909090909"/>
     <use style="fill:#d55e00;stroke:#000000;stroke-width:0.1;" x="289.634220442" xlink:href="#mcbc7f19b46" y="66.1090909091"/>
     <use style="fill:#d55e00;stroke:#000000;stroke-width:0.1;" x="316.465766603" xlink:href="#mcbc7f19b46" y="28.8"/>
     <use style="fill:#d55e00;stroke:#000000;stroke-width:0.1;" x="81.482701161" xlink:href="#mcbc7f19b46" y="217.309090909"/>
     <use style="fill:#d55e00;stroke:#000000;stroke-width:0.1;" x="135.828019642" xlink:href="#mcbc7f19b46" y="207.490909091"/>
     <use style="fill:#d55e00;stroke:#000000;stroke-width:0.1;" x="183.787598481" xlink:href="#mcbc7f19b46" y="193.745454545"/>
     <use style="fill:#d55e00;stroke:#000000;stroke-width:0.1;" x="231.927780682" xlink:href="#mcbc7f19b46" y="176.072727273"/>
     <use style="fill:#d55e00;stroke:#000000;stroke-width:0.1;" x="275.362380325" xlink:href="#mcbc7f19b46" y="154.472727273"/>
     <use style="fill:#d55e00;stroke:#000000;stroke-width:0.1;" x="309.225042923" xlink:href="#mcbc7f19b46" y="128.945454545"/>
     <use style="fill:#d55e00;stroke:#000000;stroke-width:0.1;" x="336.022633044" xlink:href="#mcbc7f19b46" y="99.4909090909"/>
     <use style="fill:#d55e00;stroke:#000000;stroke-width:0.1;" x="102.981354685" xlink:href="#mcbc7f19b46" y="207.490909091"/>
     <use style="fill:#d55e00;stroke:#000000;stroke-width:0.1;" x="147.606732201" xlink:href="#mcbc7f19b46" y="193.745454545"/>
     <use style="fill:#d55e00;stroke:#000000;stroke-width:0.1;" x="177.265220725" xlink:href="#mcbc7f19b46" y="176.072727273"/>
     <use style="fill:#d55e00;stroke:#000000;stroke-width:0.1;" x="208.951812564" xlink:href="#mcbc7f19b46" y="154.472727273"/>
     <use style="fill:#d55e00;stroke:#000000;stroke-width:0.1;" x="240.765167843" xlink:href="#mcbc7f19b46" y="128.945454545"/>
     <use style="fill:#d55e00;stroke:#000000;stroke-width:0.1;" x="267.173320282" xlink:href="#mcbc7f19b46" y="99.4909090909"/>
     <use style="fill:#d55e00;stroke:#000000;stroke-width:0.1;" x="297.039874763" xlink:href="#mcbc7f19b46" y="66.1090909091"/>
     <use style="fill:#d55e00;stroke:#000000;stroke-width:0.1;" x="329.572722801" xlink:href="#mcbc7f19b46" y="28.8"/>
     <use style="fill:#d55e00;stroke:#000000;stroke-width:0.1;" x="135.5782502" xlink:href="#mcbc7f19b46" y="207.490909091"/>
     <use style="fill:#d55e00;stroke:#000000;stroke-width:0.1;" x="204.76455608" xlink:href="#mcbc7f19b46" y="193.745454545"/>
     <use style="fill:#d55e00;stroke:#000000;stroke-width:0.1;" x="257.27378828" xlink:href="#mcbc7f19b46" y="176.072727273"/>
     <use style="fill:#d55e00;stroke:#000000;stroke-width:0.1;" x="295.422005" xlink:href="#mcbc7f19b46" y="154.472727273"/>
     <use style="fill:#d55e00;stroke:#000000;stroke-width:0.1;" x="324.551627" xlink:href="#mcbc7f19b46" y="128.945454545"/>
     <use style="fill:#d55e00;stroke:#000000;stroke-width:0.1;" x="349.69461428" xlink:href="#mcbc7f19b46" y="99.4909090909"/>
     <use style="fill:#d55e00;stroke:#000000;stroke-width:0.1;" x="371.44092824" xlink:href="#mcbc7f19b46" y="66.1090909091"/>
     <use style="fill:#d55e00;stroke:#000000;stroke-width:0.1;" x="134.59443932" xlink:href="#mcbc7f19b46" y="207.490909091"/>
     <use style="fill:#d55e00;stroke:#000000;stroke-width:0.1;" x="182.7541178" xlink:href="#mcbc7f19b46" y="193.745454545"/>
     <use style="fill:#d55e00;stroke:#000000;stroke-width:0.1;" x="222.8778998" xlink:href="#mcbc7f19b46" y="176.072727273"/>
     <use style="fill:#d55e00;stroke:#000000;stroke-width:0.1;" x="263.31219728" xlink:href="#mcbc7f19b46" y="154.472727273"/>
     <use style="fill:#d55e00;stroke:#000000;stroke-width:0.1;" x="301.07062292" xlink:href="#mcbc7f19b46" y="128.945454545"/>
     <use style="fill:#d55e00;stroke:#000000;stroke-width:0.1;" x="330.70683356" xlink:href="#mcbc7f19b46" y="99.4909090909"/>
     <use style="fill:#d55e00;stroke:#000000;stroke-width:0.1;" x="357.12124916" xlink:href="#mcbc7f19b46" y="66.1090909091"/>
     <use style="fill:#d55e00;stroke:#000000;stroke-width:0.1;" x="376.73343068" xlink:href="#mcbc7f19b46" y="28.8"/>
     <use style="fill:#d55e00;stroke:#000000;stroke-width:0.1;" x="180.80693168" xlink:href="#mcbc7f19b46" y="193.745454545"/>
     <use style="fill:#d55e00;stroke:#000000;stroke-width:0.1;" x="258.86994104" xlink:href="#mcbc7f19b46" y="176.072727273"/>
     <use style="fill:#d55e00;stroke:#000000;stroke-width:0.1;" x="296.90644688" xlink:href="#mcbc7f19b46" y="154.472727273"/>
     <use style="fill:#d55e00;stroke:#000000;stroke-width:0.1;" x="327.18904892" xlink:href="#mcbc7f19b46" y="128.945454545"/>
     <use style="fill:#d55e00;stroke:#000000;stroke-width:0.1;" x="355.71980384" xlink:href="#mcbc7f19b46" y="99.4909090909"/>
     <use style="fill:#d55e00;stroke:#000000;stroke-width:0.1;" x="381.89104832" xlink:href="#mcbc7f19b46" y="66.1090909091"/>
     <use style="fill:#d55e00;stroke:#000000;stroke-width:0.1;" x="182.28368312" xlink:href="#mcbc7f19b46" y="193.745454545"/>
     <use style="fill:#d55e00;stroke:#000000;stroke-width:0.1;" x="251.505657319" xlink:href="#mcbc7f19b46" y="176.072727273"/>
     <use style="fill:#d55e00;stroke:#000000;stroke-width:0.1;" x="299.92489784" xlink:href="#mcbc7f19b46" y="154.472727273"/>
     <use style="fill:#d55e00;stroke:#000000;stroke-width:0.1;" x="338.63050844" xlink:href="#mcbc7f19b46" y="128.945454545"/>
     <use style="fill:#d55e00;stroke:#000000;stroke-width:0.1;" x="368.34524684" xlink:href="#mcbc7f19b46" y="99.4909090909"/>
     <use style="fill:#d55e00;stroke:#000000;stroke-width:0.1;" x="181.39374668" xlink:href="#mcbc7f19b46" y="193.745454545"/>
     <use style="fill:#d55e00;stroke:#000000;stroke-width:0.1;" x="245.92553972" xlink:href="#mcbc7f19b46" y="176.072727273"/>
     <use style="fill:#d55e00;stroke:#000000;stroke-width:0.1;" x="294.91057364" xlink:href="#mcbc7f19b46" y="154.472727273"/>
     <use style="fill:#d55e00;stroke:#000000;stroke-width:0.1;" x="337.97801348" xlink:href="#mcbc7f19b46" y="128.945454545"/>
     <use style="fill:#d55e00;stroke:#000000;stroke-width:0.1;" x="374.59196348" xlink:href="#mcbc7f19b46" y="99.4909090909"/>
     <use style="fill:#d55e00;stroke:#000000;stroke-width:0.1;" x="324.5853482" xlink:href="#mcbc7f19b46" y="176.072727273"/>
     <use style="fill:#d55e00;stroke:#000000;stroke-width:0.1;" x="301.947276081" xlink:href="#mcbc7f19b46" y="176.072727273"/>
     <use style="fill:#d55e00;stroke:#000000;stroke-width:0.1;" x="366.9391868" xlink:href="#mcbc7f19b46" y="154.472727273"/>
     <use style="fill:#d55e00;stroke:#000000;stroke-width:0.1;" x="295.13770952" xlink:href="#mcbc7f19b46" y="176.072727273"/>
     <use style="fill:#d55e00;stroke:#000000;stroke-width:0.1;" x="349.712605762" xlink:href="#mcbc7f19b46" y="154.472727273"/>
    </g>
   </g>
   <g id="line2d_41">
    <path clip-path="url(#p0458397f87)" d="M 45.023321 223.2 
L 399.70651 162.106245 
" style="fill:none;stroke:#ff0000;stroke-linecap:round;stroke-width:3.0;"/>
   </g>
   <g id="line2d_42">
    <defs>
     <path d="M -4 4 
L 4 4 
L 4 -4 
L -4 -4 
z
" id="mb2ff75741f" style="stroke:#000000;stroke-linejoin:miter;stroke-width:0.1;"/>
    </defs>
    <g>
     <use style="fill:#0072b2;stroke:#000000;stroke-linejoin:miter;stroke-width:0.1;" x="73.8057450789" xlink:href="#mb2ff75741f" y="217.338323278"/>
     <use style="fill:#0072b2;stroke:#000000;stroke-linejoin:miter;stroke-width:0.1;" x="102.12173996" xlink:href="#mb2ff75741f" y="212.324483731"/>
     <use style="fill:#0072b2;stroke:#000000;stroke-linejoin:miter;stroke-width:0.1;" x="131.803819639" xlink:href="#mb2ff75741f" y="206.294825946"/>
     <use style="fill:#0072b2;stroke:#000000;stroke-linejoin:miter;stroke-width:0.1;" x="160.335187879" xlink:href="#mb2ff75741f" y="199.75810247"/>
     <use style="fill:#0072b2;stroke:#000000;stroke-linejoin:miter;stroke-width:0.1;" x="190.37025944" xlink:href="#mb2ff75741f" y="192.87280091"/>
     <use style="fill:#0072b2;stroke:#000000;stroke-linejoin:miter;stroke-width:0.1;" x="218.10825836" xlink:href="#mb2ff75741f" y="185.720464159"/>
     <use style="fill:#0072b2;stroke:#000000;stroke-linejoin:miter;stroke-width:0.1;" x="241.37870444" xlink:href="#mb2ff75741f" y="178.352091348"/>
     <use style="fill:#0072b2;stroke:#000000;stroke-linejoin:miter;stroke-width:0.1;" x="263.021205441" xlink:href="#mb2ff75741f" y="170.802938928"/>
     <use style="fill:#0072b2;stroke:#000000;stroke-linejoin:miter;stroke-width:0.1;" x="279.937277839" xlink:href="#mb2ff75741f" y="163.098917433"/>
     <use style="fill:#0072b2;stroke:#000000;stroke-linejoin:miter;stroke-width:0.1;" x="74.8640412819" xlink:href="#mb2ff75741f" y="217.338323278"/>
     <use style="fill:#0072b2;stroke:#000000;stroke-linejoin:miter;stroke-width:0.1;" x="113.130209243" xlink:href="#mb2ff75741f" y="212.324483731"/>
     <use style="fill:#0072b2;stroke:#000000;stroke-linejoin:miter;stroke-width:0.1;" x="140.241230957" xlink:href="#mb2ff75741f" y="206.294825946"/>
     <use style="fill:#0072b2;stroke:#000000;stroke-linejoin:miter;stroke-width:0.1;" x="169.417618037" xlink:href="#mb2ff75741f" y="199.75810247"/>
     <use style="fill:#0072b2;stroke:#000000;stroke-linejoin:miter;stroke-width:0.1;" x="202.856285002" xlink:href="#mb2ff75741f" y="192.87280091"/>
     <use style="fill:#0072b2;stroke:#000000;stroke-linejoin:miter;stroke-width:0.1;" x="233.729972481" xlink:href="#mb2ff75741f" y="185.720464159"/>
     <use style="fill:#0072b2;stroke:#000000;stroke-linejoin:miter;stroke-width:0.1;" x="261.313654163" xlink:href="#mb2ff75741f" y="178.352091348"/>
     <use style="fill:#0072b2;stroke:#000000;stroke-linejoin:miter;stroke-width:0.1;" x="288.521607801" xlink:href="#mb2ff75741f" y="170.802938928"/>
     <use style="fill:#0072b2;stroke:#000000;stroke-linejoin:miter;stroke-width:0.1;" x="312.055359679" xlink:href="#mb2ff75741f" y="163.098917433"/>
     <use style="fill:#0072b2;stroke:#000000;stroke-linejoin:miter;stroke-width:0.1;" x="70.6610003637" xlink:href="#mb2ff75741f" y="217.338323278"/>
     <use style="fill:#0072b2;stroke:#000000;stroke-linejoin:miter;stroke-width:0.1;" x="104.940770725" xlink:href="#mb2ff75741f" y="212.324483731"/>
     <use style="fill:#0072b2;stroke:#000000;stroke-linejoin:miter;stroke-width:0.1;" x="136.625306003" xlink:href="#mb2ff75741f" y="206.294825946"/>
     <use style="fill:#0072b2;stroke:#000000;stroke-linejoin:miter;stroke-width:0.1;" x="171.05689016" xlink:href="#mb2ff75741f" y="199.75810247"/>
     <use style="fill:#0072b2;stroke:#000000;stroke-linejoin:miter;stroke-width:0.1;" x="203.023153644" xlink:href="#mb2ff75741f" y="192.87280091"/>
     <use style="fill:#0072b2;stroke:#000000;stroke-linejoin:miter;stroke-width:0.1;" x="232.104325643" xlink:href="#mb2ff75741f" y="185.720464159"/>
     <use style="fill:#0072b2;stroke:#000000;stroke-linejoin:miter;stroke-width:0.1;" x="260.973555682" xlink:href="#mb2ff75741f" y="178.352091348"/>
     <use style="fill:#0072b2;stroke:#000000;stroke-linejoin:miter;stroke-width:0.1;" x="289.634220442" xlink:href="#mb2ff75741f" y="170.802938928"/>
     <use style="fill:#0072b2;stroke:#000000;stroke-linejoin:miter;stroke-width:0.1;" x="316.465766603" xlink:href="#mb2ff75741f" y="163.098917433"/>
     <use style="fill:#0072b2;stroke:#000000;stroke-linejoin:miter;stroke-width:0.1;" x="81.482701161" xlink:href="#mb2ff75741f" y="219.272727273"/>
     <use style="fill:#0072b2;stroke:#000000;stroke-linejoin:miter;stroke-width:0.1;" x="135.828019642" xlink:href="#mb2ff75741f" y="200.178859442"/>
     <use style="fill:#0072b2;stroke:#000000;stroke-linejoin:miter;stroke-width:0.1;" x="183.787598481" xlink:href="#mb2ff75741f" y="195.826020385"/>
     <use style="fill:#0072b2;stroke:#000000;stroke-linejoin:miter;stroke-width:0.1;" x="231.927780682" xlink:href="#mb2ff75741f" y="186.603449688"/>
     <use style="fill:#0072b2;stroke:#000000;stroke-linejoin:miter;stroke-width:0.1;" x="275.362380325" xlink:href="#mb2ff75741f" y="175.770662198"/>
     <use style="fill:#0072b2;stroke:#000000;stroke-linejoin:miter;stroke-width:0.1;" x="309.225042923" xlink:href="#mb2ff75741f" y="164.029308406"/>
     <use style="fill:#0072b2;stroke:#000000;stroke-linejoin:miter;stroke-width:0.1;" x="336.022633044" xlink:href="#mb2ff75741f" y="151.652031058"/>
     <use style="fill:#0072b2;stroke:#000000;stroke-linejoin:miter;stroke-width:0.1;" x="102.981354685" xlink:href="#mb2ff75741f" y="212.324483731"/>
     <use style="fill:#0072b2;stroke:#000000;stroke-linejoin:miter;stroke-width:0.1;" x="147.606732201" xlink:href="#mb2ff75741f" y="206.294825946"/>
     <use style="fill:#0072b2;stroke:#000000;stroke-linejoin:miter;stroke-width:0.1;" x="177.265220725" xlink:href="#mb2ff75741f" y="199.75810247"/>
     <use style="fill:#0072b2;stroke:#000000;stroke-linejoin:miter;stroke-width:0.1;" x="208.951812564" xlink:href="#mb2ff75741f" y="192.87280091"/>
     <use style="fill:#0072b2;stroke:#000000;stroke-linejoin:miter;stroke-width:0.1;" x="240.765167843" xlink:href="#mb2ff75741f" y="185.720464159"/>
     <use style="fill:#0072b2;stroke:#000000;stroke-linejoin:miter;stroke-width:0.1;" x="267.173320282" xlink:href="#mb2ff75741f" y="178.352091348"/>
     <use style="fill:#0072b2;stroke:#000000;stroke-linejoin:miter;stroke-width:0.1;" x="297.039874763" xlink:href="#mb2ff75741f" y="170.802938928"/>
     <use style="fill:#0072b2;stroke:#000000;stroke-linejoin:miter;stroke-width:0.1;" x="329.572722801" xlink:href="#mb2ff75741f" y="163.098917433"/>
     <use style="fill:#0072b2;stroke:#000000;stroke-linejoin:miter;stroke-width:0.1;" x="135.5782502" xlink:href="#mb2ff75741f" y="211.418181818"/>
     <use style="fill:#0072b2;stroke:#000000;stroke-linejoin:miter;stroke-width:0.1;" x="257.27378828" xlink:href="#mb2ff75741f" y="167.759764522"/>
     <use style="fill:#0072b2;stroke:#000000;stroke-linejoin:miter;stroke-width:0.1;" x="295.422005" xlink:href="#mb2ff75741f" y="158.66309132"/>
     <use style="fill:#0072b2;stroke:#000000;stroke-linejoin:miter;stroke-width:0.1;" x="324.551627" xlink:href="#mb2ff75741f" y="145.371472492"/>
     <use style="fill:#0072b2;stroke:#000000;stroke-linejoin:miter;stroke-width:0.1;" x="349.69461428" xlink:href="#mb2ff75741f" y="130.076967738"/>
     <use style="fill:#0072b2;stroke:#000000;stroke-linejoin:miter;stroke-width:0.1;" x="371.44092824" xlink:href="#mb2ff75741f" y="113.538535399"/>
     <use style="fill:#0072b2;stroke:#000000;stroke-linejoin:miter;stroke-width:0.1;" x="134.59443932" xlink:href="#mb2ff75741f" y="200.178859442"/>
     <use style="fill:#0072b2;stroke:#000000;stroke-linejoin:miter;stroke-width:0.1;" x="182.7541178" xlink:href="#mb2ff75741f" y="195.826020385"/>
     <use style="fill:#0072b2;stroke:#000000;stroke-linejoin:miter;stroke-width:0.1;" x="222.8778998" xlink:href="#mb2ff75741f" y="186.603449688"/>
     <use style="fill:#0072b2;stroke:#000000;stroke-linejoin:miter;stroke-width:0.1;" x="263.31219728" xlink:href="#mb2ff75741f" y="175.770662198"/>
     <use style="fill:#0072b2;stroke:#000000;stroke-linejoin:miter;stroke-width:0.1;" x="301.07062292" xlink:href="#mb2ff75741f" y="164.029308406"/>
     <use style="fill:#0072b2;stroke:#000000;stroke-linejoin:miter;stroke-width:0.1;" x="330.70683356" xlink:href="#mb2ff75741f" y="151.652031058"/>
     <use style="fill:#0072b2;stroke:#000000;stroke-linejoin:miter;stroke-width:0.1;" x="357.12124916" xlink:href="#mb2ff75741f" y="138.781233335"/>
     <use style="fill:#0072b2;stroke:#000000;stroke-linejoin:miter;stroke-width:0.1;" x="376.73343068" xlink:href="#mb2ff75741f" y="125.505137154"/>
     <use style="fill:#0072b2;stroke:#000000;stroke-linejoin:miter;stroke-width:0.1;" x="180.80693168" xlink:href="#mb2ff75741f" y="195.826020385"/>
     <use style="fill:#0072b2;stroke:#000000;stroke-linejoin:miter;stroke-width:0.1;" x="258.86994104" xlink:href="#mb2ff75741f" y="186.603449688"/>
     <use style="fill:#0072b2;stroke:#000000;stroke-linejoin:miter;stroke-width:0.1;" x="296.90644688" xlink:href="#mb2ff75741f" y="175.770662198"/>
     <use style="fill:#0072b2;stroke:#000000;stroke-linejoin:miter;stroke-width:0.1;" x="327.18904892" xlink:href="#mb2ff75741f" y="164.029308406"/>
     <use style="fill:#0072b2;stroke:#000000;stroke-linejoin:miter;stroke-width:0.1;" x="355.71980384" xlink:href="#mb2ff75741f" y="151.652031058"/>
     <use style="fill:#0072b2;stroke:#000000;stroke-linejoin:miter;stroke-width:0.1;" x="381.89104832" xlink:href="#mb2ff75741f" y="138.781233335"/>
     <use style="fill:#0072b2;stroke:#000000;stroke-linejoin:miter;stroke-width:0.1;" x="182.28368312" xlink:href="#mb2ff75741f" y="195.826020385"/>
     <use style="fill:#0072b2;stroke:#000000;stroke-linejoin:miter;stroke-width:0.1;" x="251.505657319" xlink:href="#mb2ff75741f" y="186.603449688"/>
     <use style="fill:#0072b2;stroke:#000000;stroke-linejoin:miter;stroke-width:0.1;" x="299.92489784" xlink:href="#mb2ff75741f" y="175.770662198"/>
     <use style="fill:#0072b2;stroke:#000000;stroke-linejoin:miter;stroke-width:0.1;" x="338.63050844" xlink:href="#mb2ff75741f" y="164.029308406"/>
     <use style="fill:#0072b2;stroke:#000000;stroke-linejoin:miter;stroke-width:0.1;" x="368.34524684" xlink:href="#mb2ff75741f" y="151.652031058"/>
     <use style="fill:#0072b2;stroke:#000000;stroke-linejoin:miter;stroke-width:0.1;" x="181.39374668" xlink:href="#mb2ff75741f" y="195.826020385"/>
     <use style="fill:#0072b2;stroke:#000000;stroke-linejoin:miter;stroke-width:0.1;" x="245.92553972" xlink:href="#mb2ff75741f" y="186.603449688"/>
     <use style="fill:#0072b2;stroke:#000000;stroke-linejoin:miter;stroke-width:0.1;" x="294.91057364" xlink:href="#mb2ff75741f" y="175.770662198"/>
     <use style="fill:#0072b2;stroke:#000000;stroke-linejoin:miter;stroke-width:0.1;" x="337.97801348" xlink:href="#mb2ff75741f" y="164.029308406"/>
     <use style="fill:#0072b2;stroke:#000000;stroke-linejoin:miter;stroke-width:0.1;" x="374.59196348" xlink:href="#mb2ff75741f" y="151.652031058"/>
     <use style="fill:#0072b2;stroke:#000000;stroke-linejoin:miter;stroke-width:0.1;" x="324.5853482" xlink:href="#mb2ff75741f" y="183.927272727"/>
     <use style="fill:#0072b2;stroke:#000000;stroke-linejoin:miter;stroke-width:0.1;" x="301.947276081" xlink:href="#mb2ff75741f" y="183.927272727"/>
     <use style="fill:#0072b2;stroke:#000000;stroke-linejoin:miter;stroke-width:0.1;" x="295.13770952" xlink:href="#mb2ff75741f" y="183.927272727"/>
    </g>
   </g>
   <g id="patch_3">
    <path d="M 45.023321 7.2 
L 387.023321 7.2 
" style="fill:none;"/>
   </g>
   <g id="patch_4">
    <path d="M 387.023321 223.2 
L 387.023321 7.2 
" style="fill:none;"/>
   </g>
   <g id="patch_5">
    <path d="M 45.023321 223.2 
L 387.023321 223.2 
" style="fill:none;"/>
   </g>
   <g id="patch_6">
    <path d="M 45.023321 223.2 
L 45.023321 7.2 
" style="fill:none;"/>
   </g>
   <g id="legend_1">
    <g id="patch_7">
     <path d="M 51.023321 52.65032 
L 174.513481 52.65032 
L 174.513481 13.2 
L 51.023321 13.2 
z
" style="fill:#eaeaf2;stroke:#ffffff;stroke-linejoin:miter;stroke-width:0.24;"/>
    </g>
    <g id="line2d_43"/>
    <g id="line2d_44">
     <g>
      <use style="fill:#d55e00;stroke:#000000;stroke-width:0.1;" x="67.82332148" xlink:href="#mcbc7f19b46" y="22.3538757248"/>
     </g>
    </g>
    <g id="text_16">
     <!-- Wilks Theorem -->
     <defs>
      <path d="M 27.90625 47 
C 13.296875 47 3.203125 36.671875 3.203125 21.75 
C 3.203125 7.609375 12.09375 -2 25 -2 
C 40.40625 -2 51.40625 8.71875 51.40625 23.75 
C 51.40625 37.28125 41.59375 47 27.90625 47 
M 26.09375 43.6875 
C 35.296875 43.6875 42.09375 33.671875 42.09375 20.046875 
C 42.09375 8.515625 37 1.296875 28.90625 1.296875 
C 19.09375 1.296875 12.5 10.921875 12.5 25.15625 
C 12.5 37.171875 17.296875 43.6875 26.09375 43.6875 
" id="URW_Palladio_L_Roman-111"/>
      <path d="M 4.09375 14.328125 
C 4.09375 7.421875 3.796875 4.40625 3 0.40625 
C 8.203125 -1.296875 12.09375 -2 16.703125 -2 
C 29.796875 -2 39.09375 5.015625 39.09375 14.828125 
C 39.09375 17.9375 38.203125 20.234375 36.296875 22.25 
C 33.703125 24.75 30.40625 25.953125 21.59375 27.65625 
C 13.40625 29.265625 10.703125 31.265625 10.703125 35.875 
C 10.703125 40.875 14.203125 43.6875 20.296875 43.6875 
C 27 43.6875 32.09375 40.1875 32.09375 35.46875 
L 32.09375 33.171875 
L 34.90625 33.171875 
C 35 38.984375 35.09375 41.375 35.40625 44.484375 
C 30.09375 46.296875 26.5 47 22.40625 47 
C 10.796875 47 3.703125 41.484375 3.703125 32.46875 
C 3.703125 27.65625 5.90625 24.25 10.5 22.140625 
C 13.203125 20.9375 18.5 19.34375 25.296875 17.828125 
C 29.796875 16.828125 31.703125 14.734375 31.703125 10.921875 
C 31.703125 5.515625 26.703125 1.703125 19.59375 1.703125 
C 12.296875 1.703125 7.09375 5.203125 7.09375 10.21875 
L 7.09375 14.328125 
z
" id="URW_Palladio_L_Roman-115"/>
      <path d="M 2.296875 66.5 
L 7.90625 66.5 
C 9.703125 66.5 10.40625 65.390625 10.40625 62.375 
L 10.40625 10.171875 
C 10.40625 3.8125 10.09375 3.109375 6.703125 3.109375 
L 2.09375 3.109375 
L 2.09375 0 
C 12.09375 0 12.09375 0 14.703125 0 
C 17.5 0 18 0 26.90625 0 
L 26.90625 3.109375 
L 22.5 3.109375 
C 19.09375 3.109375 18.796875 3.8125 18.796875 10.1875 
L 18.796875 24.15625 
L 45.296875 -1 
L 54.90625 1.90625 
L 54.90625 4.21875 
C 52.5 4.21875 49.59375 5.921875 46.40625 9 
L 33.796875 21.46875 
C 30.203125 24.953125 29.09375 26.265625 27.40625 28.25 
L 40.296875 38.265625 
C 45 41.828125 47.703125 43 51.09375 43 
L 51.09375 46 
L 41.09375 46 
C 34.703125 39.625 30 35.234375 26.09375 32.140625 
L 18.796875 26.25 
L 18.796875 72.203125 
L 17.90625 73.015625 
C 13.5 71.3125 10.203125 70.5 2.296875 69.296875 
z
" id="URW_Palladio_L_Roman-107"/>
      <path d="M 0.703125 66.375 
L 6.296875 66.375 
C 8.09375 66.375 8.796875 65.265625 8.796875 62.25 
L 8.796875 10.046875 
C 8.796875 3.703125 8.5 3 5.09375 3 
L 0.59375 3 
L 0.59375 -0.109375 
C 7.40625 -0.109375 10.09375 -0.109375 13 -0.109375 
C 15.90625 -0.109375 18.59375 -0.109375 25.40625 -0.109375 
L 25.40625 3 
L 20.90625 3 
C 17.5 3 17.203125 3.703125 17.203125 10.046875 
L 17.203125 31.421875 
C 17.203125 35.9375 23.796875 40.875 29.90625 40.875 
C 36.59375 40.875 41 35.890625 41 28.21875 
L 41 -0.109375 
C 47.09375 -0.109375 47.203125 -0.109375 48.90625 -0.109375 
C 50.296875 -0.109375 50.296875 -0.109375 57.203125 -0.109375 
L 57.203125 2.796875 
L 53.09375 3.203125 
C 49.703125 3.203125 49.40625 3.8125 49.40625 10.21875 
L 49.40625 29.5625 
C 49.40625 41.28125 43.90625 47 32.703125 47 
C 29 47 26.90625 46.296875 24.796875 44.484375 
L 17.203125 37.875 
L 17.203125 72.078125 
L 16.296875 72.890625 
C 11.90625 71.1875 8.59375 70.375 0.703125 69.171875 
z
" id="URW_Palladio_L_Roman-104"/>
      <path d="M 73.40625 -1 
C 73.796875 0.5 74.09375 1.90625 74.203125 2.40625 
C 74.5 3.40625 75.296875 6.421875 76.09375 9.125 
L 91.40625 63 
C 92 64.796875 93 65.703125 95.203125 65.90625 
L 98.40625 66.203125 
L 98.40625 69 
L 87.90625 69 
C 86.90625 69 86.90625 69 77.40625 69 
L 77.40625 66.203125 
L 81.40625 65.90625 
C 84.90625 65.609375 86 65.109375 86.09375 63.484375 
C 86.09375 63.1875 86.09375 62.890625 86 62.578125 
L 72.796875 13.625 
L 56.40625 59.78125 
C 54.203125 65.796875 53.90625 66.59375 53.09375 70 
L 49.90625 70 
C 47.796875 63.78125 46.09375 59.296875 40.90625 45.859375 
L 28.5 14.328125 
L 18.5 59.296875 
C 18.203125 60.5 18.09375 61.59375 18.09375 62.59375 
C 18.09375 64.796875 19.09375 65.703125 21.796875 65.90625 
L 26 66.203125 
L 26 69 
L 13.40625 69 
C 12.703125 69 8.5 69 0.796875 69 
L 0.796875 66.203125 
L 3.59375 65.90625 
C 6.5 65.609375 7.703125 64.5 8.59375 60.890625 
L 20.5 9.328125 
C 21.796875 3.609375 21.796875 3.515625 22.796875 -1 
L 27.796875 -1 
C 28.703125 2.203125 29.5 4.609375 31.40625 9.328125 
L 48.796875 53.578125 
L 61.296875 19.625 
C 64.59375 10.734375 64.90625 9.921875 68.40625 -1 
z
" id="URW_Palladio_L_Roman-87"/>
      <path d="M 25.5 64.28125 
C 25.796875 60.875 25.90625 58.578125 25.90625 54.265625 
L 25.90625 11.921875 
C 25.90625 4 25.40625 3.203125 20.796875 3.203125 
L 16 3.203125 
L 16 0 
C 21.90625 0 25.40625 0 30.59375 0 
C 35.796875 0 39.40625 0 45.296875 0 
L 45.296875 3.203125 
L 40.5 3.203125 
C 35.90625 3.203125 35.40625 4 35.40625 11.921875 
L 35.40625 54.265625 
C 35.40625 58.78125 35.5 60.984375 35.796875 64.28125 
L 51.296875 64.28125 
C 54.09375 64.28125 55.203125 63.390625 55.296875 61 
L 55.703125 53.125 
L 58.796875 53.125 
C 58.796875 59.53125 59 63.375 59.5 69 
C 52.296875 69 49 69 46.203125 69 
C 42.296875 69 39.40625 69 37.90625 69 
L 22.09375 69 
C 21.09375 69 15.703125 69 8.59375 69 
L 1.796875 69 
C 2.296875 63.375 2.5 59.53125 2.5 53.125 
L 5.59375 53.125 
L 6 61 
C 6.09375 63.390625 7.203125 64.28125 10 64.28125 
z
" id="URW_Palladio_L_Roman-84"/>
     </defs>
     <g style="fill:#262626;" transform="translate(89.42332148 26.5538757248)scale(0.12 -0.12)">
      <use transform="scale(0.996264009963)" xlink:href="#URW_Palladio_L_Roman-87"/>
      <use transform="translate(94.147678627 0.0)scale(0.996264009963)" xlink:href="#URW_Palladio_L_Roman-105"/>
      <use transform="translate(123.138040089 0.0)scale(0.996264009963)" xlink:href="#URW_Palladio_L_Roman-108"/>
      <use transform="translate(152.128401551 0.0)scale(0.996264009963)" xlink:href="#URW_Palladio_L_Roman-107"/>
      <use transform="translate(207.520078514 0.0)scale(0.996264009963)" xlink:href="#URW_Palladio_L_Roman-115"/>
      <use transform="translate(274.668145091 0.0)scale(0.996264009963)" xlink:href="#URW_Palladio_L_Roman-84"/>
      <use transform="translate(335.737976606 0.0)scale(0.996264009963)" xlink:href="#URW_Palladio_L_Roman-104"/>
      <use transform="translate(393.720037287 0.0)scale(0.996264009963)" xlink:href="#URW_Palladio_L_Roman-101"/>
      <use transform="translate(441.440332396 0.0)scale(0.996264009963)" xlink:href="#URW_Palladio_L_Roman-111"/>
      <use transform="translate(495.835912569 0.0)scale(0.996264009963)" xlink:href="#URW_Palladio_L_Roman-114"/>
      <use transform="translate(533.395229924 0.0)scale(0.996264009963)" xlink:href="#URW_Palladio_L_Roman-101"/>
      <use transform="translate(581.115525033 0.0)scale(0.996264009963)" xlink:href="#URW_Palladio_L_Roman-109"/>
     </g>
    </g>
    <g id="line2d_45"/>
    <g id="line2d_46">
     <g>
      <use style="fill:#0072b2;stroke:#000000;stroke-linejoin:miter;stroke-width:0.1;" x="67.82332148" xlink:href="#mb2ff75741f" y="40.279035526"/>
     </g>
    </g>
    <g id="text_17">
     <!-- Equation (10) -->
     <defs>
      <path d="M 41 -0.109375 
C 47.09375 -0.109375 47.203125 -0.109375 48.90625 -0.109375 
C 50.296875 -0.109375 50.296875 -0.109375 57.203125 -0.109375 
L 57.203125 2.796875 
L 53.09375 3.203125 
C 49.703125 3.203125 49.40625 3.8125 49.40625 10.21875 
L 49.40625 29.5625 
C 49.40625 41.28125 43.90625 47 32.703125 47 
C 29 47 26.90625 46.296875 24.796875 44.484375 
L 17.203125 37.875 
L 17.203125 46.59375 
L 16.296875 47 
C 11.203125 44.890625 6 43.484375 0.703125 42.890625 
L 0.703125 40.078125 
L 4.40625 40.078125 
C 8.40625 40.078125 8.796875 39.375 8.796875 32.71875 
L 8.796875 10.046875 
C 8.796875 3.703125 8.5 3 5.09375 3 
L 0.59375 3 
L 0.59375 -0.109375 
C 7.40625 -0.109375 10.09375 -0.109375 13 -0.109375 
C 15.90625 -0.109375 18.59375 -0.109375 25.40625 -0.109375 
L 25.40625 3 
L 20.90625 3 
C 17.5 3 17.203125 3.703125 17.203125 10.046875 
L 17.203125 31.421875 
C 17.203125 35.9375 23.796875 40.875 29.90625 40.875 
C 36.59375 40.875 41 35.890625 41 28.21875 
z
" id="URW_Palladio_L_Roman-110"/>
      <path d="M 39.296875 6.8125 
L 39.296875 -17.78125 
C 39.296875 -24.171875 38.90625 -24.890625 35.59375 -24.890625 
L 29.796875 -24.890625 
L 29.796875 -28 
C 41.40625 -28 41.40625 -28 43.703125 -28 
C 46.09375 -28 48.90625 -28 56 -28 
L 56 -24.890625 
L 51.40625 -24.890625 
C 48 -24.890625 47.703125 -24.1875 47.703125 -17.859375 
L 47.703125 31.8125 
C 47.703125 38.046875 48.296875 41.875 50 45.6875 
L 48.09375 46.796875 
L 43.203125 43.6875 
C 38.09375 45.984375 33.796875 47 29.5 47 
C 26.59375 47 23.09375 46.1875 21.59375 45.296875 
L 13.203125 39.90625 
C 6.796875 35.8125 3.5 29.234375 3.5 20.546875 
C 3.5 7.484375 11.40625 -1 23.796875 -1 
C 25.90625 -1 27.59375 -0.59375 28.90625 0.203125 
z
M 39.296875 12.203125 
C 39.296875 10.796875 36.90625 8.203125 34.203125 6.703125 
C 31.796875 5.40625 29.5 4.71875 27.09375 4.71875 
C 18.296875 4.71875 12.203125 12.875 12.203125 24.9375 
C 12.203125 35.90625 17.796875 42.28125 27.40625 42.28125 
C 32.296875 42.28125 35.796875 41.09375 39.296875 38.203125 
z
" id="URW_Palladio_L_Roman-113"/>
      <path d="M 30.09375 -19.4375 
C 22.90625 -10.515625 20.296875 -5.71875 17.703125 3.3125 
C 15.59375 10.515625 14.59375 18.140625 14.59375 26.65625 
C 14.59375 34.96875 15.59375 42.078125 17.5 48.59375 
C 20.09375 56.90625 22.796875 61.625 30.09375 70.140625 
L 28.203125 72.75 
C 17.796875 63.421875 13.703125 57.921875 9.90625 48.09375 
C 7.296875 41.375 6 34.265625 6 26.65625 
C 6 15.9375 8.5 5.8125 13.296875 -3.203125 
C 16.796875 -9.921875 20 -13.828125 28.203125 -21.546875 
z
" id="URW_Palladio_L_Roman-40"/>
      <path d="M 5.09375 -21.546875 
C 12 -15.03125 14.90625 -11.71875 18 -6.8125 
C 24.09375 2.90625 27.296875 14.53125 27.296875 26.546875 
C 27.296875 34.265625 26 41.375 23.40625 48.09375 
C 19.59375 57.8125 15.5 63.328125 5.09375 72.75 
L 3.203125 70.140625 
C 10.5 61.515625 13.203125 56.8125 15.703125 48.59375 
C 17.703125 42.078125 18.703125 34.96875 18.703125 26.65625 
C 18.703125 18.140625 17.703125 10.515625 15.59375 3.3125 
C 13 -5.71875 10.40625 -10.515625 3.203125 -19.4375 
z
" id="URW_Palladio_L_Roman-41"/>
     </defs>
     <g style="fill:#262626;" transform="translate(89.42332148 44.479035526)scale(0.12 -0.12)">
      <use transform="scale(0.996264009963)" xlink:href="#URW_Palladio_L_Roman-69"/>
      <use transform="translate(60.871630677 0.0)scale(0.996264009963)" xlink:href="#URW_Palladio_L_Roman-113"/>
      <use transform="translate(116.662263217 0.0)scale(0.996264009963)" xlink:href="#URW_Palladio_L_Roman-117"/>
      <use transform="translate(176.735997942 0.0)scale(0.996264009963)" xlink:href="#URW_Palladio_L_Roman-97"/>
      <use transform="translate(226.54919844 0.0)scale(0.996264009963)" xlink:href="#URW_Palladio_L_Roman-116"/>
      <use transform="translate(259.026286314 0.0)scale(0.996264009963)" xlink:href="#URW_Palladio_L_Roman-105"/>
      <use transform="translate(288.016647776 0.0)scale(0.996264009963)" xlink:href="#URW_Palladio_L_Roman-111"/>
      <use transform="translate(342.412227949 0.0)scale(0.996264009963)" xlink:href="#URW_Palladio_L_Roman-110"/>
      <use transform="translate(425.300888879 0.0)scale(0.996264009963)" xlink:href="#URW_Palladio_L_Roman-40"/>
      <use transform="translate(458.476118608 0.0)scale(0.996264009963)" xlink:href="#URW_Palladio_L_Roman-49"/>
      <use transform="translate(508.289319106 0.0)scale(0.996264009963)" xlink:href="#URW_Palladio_L_Roman-48"/>
      <use transform="translate(558.102519604 0.0)scale(0.996264009963)" xlink:href="#URW_Palladio_L_Roman-41"/>
     </g>
    </g>
   </g>
  </g>
 </g>
 <defs>
  <clipPath id="p0458397f87">
   <rect height="216.0" width="342.0" x="45.02332148" y="7.2"/>
  </clipPath>
 </defs>
</svg>
