<?xml version="1.0" encoding="utf-8" standalone="no"?>
<!DOCTYPE svg PUBLIC "-//W3C//DTD SVG 1.1//EN"
  "http://www.w3.org/Graphics/SVG/1.1/DTD/svg11.dtd">
<!-- Created with matplotlib (http://matplotlib.org/) -->
<svg height="410pt" version="1.1" viewBox="0 0 670 410" width="670pt" xmlns="http://www.w3.org/2000/svg" xmlns:xlink="http://www.w3.org/1999/xlink">
 <defs>
  <style type="text/css">
*{stroke-linecap:butt;stroke-linejoin:round;}
  </style>
 </defs>
 <g id="figure_1">
  <g id="patch_1">
   <path d="M 0 410.4 
L 670.688896 410.4 
L 670.688896 0 
L 0 0 
z
" style="fill:#ffffff;"/>
  </g>
  <g id="axes_1">
   <g id="PolyCollection_1">
    <defs>
     <path d="M 33.381818 -24.543066 
L 33.381818 -24.543066 
L 38.671074 -31.550365 
L 43.960331 -38.557664 
L 49.249587 -45.564964 
L 54.538843 -52.572263 
L 59.828099 -59.579562 
L 65.117355 -66.586861 
L 70.406612 -73.594161 
L 75.695868 -80.60146 
L 80.985124 -87.608759 
L 86.27438 -94.616058 
L 91.563636 -101.623358 
L 96.852893 -108.630657 
L 102.142149 -115.637956 
L 107.431405 -122.645255 
L 112.720661 -129.652555 
L 118.009917 -136.659854 
L 123.299174 -143.667153 
L 128.58843 -150.674453 
L 133.877686 -157.681752 
L 139.166942 -164.689051 
L 144.456198 -171.69635 
L 149.745455 -178.70365 
L 155.034711 -185.710949 
L 160.323967 -192.718248 
L 165.613223 -199.725547 
L 170.902479 -206.732847 
L 176.191736 -213.740146 
L 181.480992 -220.747445 
L 186.770248 -227.754745 
L 192.059504 -234.762044 
L 197.34876 -241.769343 
L 202.638017 -248.776642 
L 207.927273 -255.783942 
L 213.216529 -262.791241 
L 218.505785 -269.79854 
L 223.795041 -276.805839 
L 229.084298 -283.813139 
L 234.373554 -290.820438 
L 239.66281 -297.827737 
L 244.952066 -304.835036 
L 250.241322 -311.842336 
L 255.530579 -318.849635 
L 260.819835 -325.856934 
L 266.109091 -332.864234 
L 271.398347 -339.871533 
L 276.687603 -346.878832 
L 281.97686 -353.886131 
L 287.266116 -360.893431 
L 292.555372 -367.90073 
L 297.844628 -367.90073 
L 303.133884 -360.893431 
L 308.42314 -353.886131 
L 313.712397 -346.878832 
L 319.001653 -339.871533 
L 324.290909 -332.864234 
L 329.580165 -325.856934 
L 334.869421 -318.849635 
L 340.158678 -311.842336 
L 345.447934 -304.835036 
L 350.73719 -297.827737 
L 356.026446 -290.820438 
L 361.315702 -283.813139 
L 366.604959 -276.805839 
L 371.894215 -269.79854 
L 377.183471 -262.791241 
L 382.472727 -255.783942 
L 387.761983 -248.776642 
L 393.05124 -241.769343 
L 398.340496 -234.762044 
L 403.629752 -227.754745 
L 408.919008 -220.747445 
L 414.208264 -213.740146 
L 419.497521 -206.732847 
L 424.786777 -199.725547 
L 430.076033 -192.718248 
L 435.365289 -185.710949 
L 440.654545 -178.70365 
L 445.943802 -171.69635 
L 451.233058 -164.689051 
L 456.522314 -157.681752 
L 461.81157 -150.674453 
L 467.100826 -143.667153 
L 472.390083 -136.659854 
L 477.679339 -129.652555 
L 482.968595 -122.645255 
L 488.257851 -115.637956 
L 493.547107 -108.630657 
L 498.836364 -101.623358 
L 504.12562 -94.616058 
L 509.414876 -87.608759 
L 514.704132 -80.60146 
L 519.993388 -73.594161 
L 525.282645 -66.586861 
L 530.571901 -59.579562 
L 535.861157 -52.572263 
L 541.150413 -45.564964 
L 546.439669 -38.557664 
L 551.728926 -31.550365 
L 557.018182 -24.543066 
L 557.018182 -24.543066 
L 557.018182 -24.543066 
L 551.728926 -24.543066 
L 546.439669 -24.543066 
L 541.150413 -24.543066 
L 535.861157 -24.543066 
L 530.571901 -24.543066 
L 525.282645 -24.543066 
L 519.993388 -24.543066 
L 514.704132 -24.543066 
L 509.414876 -24.543066 
L 504.12562 -24.543066 
L 498.836364 -24.543066 
L 493.547107 -24.543066 
L 488.257851 -24.543066 
L 482.968595 -24.543066 
L 477.679339 -24.543066 
L 472.390083 -24.543066 
L 467.100826 -24.543066 
L 461.81157 -24.543066 
L 456.522314 -24.543066 
L 451.233058 -24.543066 
L 445.943802 -24.543066 
L 440.654545 -24.543066 
L 435.365289 -24.543066 
L 430.076033 -24.543066 
L 424.786777 -24.543066 
L 419.497521 -24.543066 
L 414.208264 -24.543066 
L 408.919008 -24.543066 
L 403.629752 -24.543066 
L 398.340496 -24.543066 
L 393.05124 -24.543066 
L 387.761983 -24.543066 
L 382.472727 -24.543066 
L 377.183471 -24.543066 
L 371.894215 -24.543066 
L 366.604959 -24.543066 
L 361.315702 -24.543066 
L 356.026446 -24.543066 
L 350.73719 -24.543066 
L 345.447934 -24.543066 
L 340.158678 -24.543066 
L 334.869421 -24.543066 
L 329.580165 -24.543066 
L 324.290909 -24.543066 
L 319.001653 -24.543066 
L 313.712397 -24.543066 
L 308.42314 -24.543066 
L 303.133884 -24.543066 
L 297.844628 -24.543066 
L 292.555372 -24.543066 
L 287.266116 -24.543066 
L 281.97686 -24.543066 
L 276.687603 -24.543066 
L 271.398347 -24.543066 
L 266.109091 -24.543066 
L 260.819835 -24.543066 
L 255.530579 -24.543066 
L 250.241322 -24.543066 
L 244.952066 -24.543066 
L 239.66281 -24.543066 
L 234.373554 -24.543066 
L 229.084298 -24.543066 
L 223.795041 -24.543066 
L 218.505785 -24.543066 
L 213.216529 -24.543066 
L 207.927273 -24.543066 
L 202.638017 -24.543066 
L 197.34876 -24.543066 
L 192.059504 -24.543066 
L 186.770248 -24.543066 
L 181.480992 -24.543066 
L 176.191736 -24.543066 
L 170.902479 -24.543066 
L 165.613223 -24.543066 
L 160.323967 -24.543066 
L 155.034711 -24.543066 
L 149.745455 -24.543066 
L 144.456198 -24.543066 
L 139.166942 -24.543066 
L 133.877686 -24.543066 
L 128.58843 -24.543066 
L 123.299174 -24.543066 
L 118.009917 -24.543066 
L 112.720661 -24.543066 
L 107.431405 -24.543066 
L 102.142149 -24.543066 
L 96.852893 -24.543066 
L 91.563636 -24.543066 
L 86.27438 -24.543066 
L 80.985124 -24.543066 
L 75.695868 -24.543066 
L 70.406612 -24.543066 
L 65.117355 -24.543066 
L 59.828099 -24.543066 
L 54.538843 -24.543066 
L 49.249587 -24.543066 
L 43.960331 -24.543066 
L 38.671074 -24.543066 
L 33.381818 -24.543066 
z
" id="m8d9c5af06d" style="stroke:#8da0cb;stroke-opacity:0.25;stroke-width:0.3;"/>
    </defs>
    <g clip-path="url(#p8d0ea60cc9)">
     <use style="fill:#8da0cb;fill-opacity:0.25;stroke:#8da0cb;stroke-opacity:0.25;stroke-width:0.3;" x="0" xlink:href="#m8d9c5af06d" y="410.4"/>
    </g>
   </g>
   <g id="matplotlib.axis_1">
    <g id="xtick_1">
     <g id="line2d_1"/>
    </g>
    <g id="xtick_2">
     <g id="line2d_2"/>
    </g>
    <g id="xtick_3">
     <g id="line2d_3"/>
    </g>
    <g id="xtick_4">
     <g id="line2d_4"/>
    </g>
    <g id="xtick_5">
     <g id="line2d_5"/>
    </g>
    <g id="xtick_6">
     <g id="line2d_6"/>
    </g>
    <g id="xtick_7">
     <g id="line2d_7"/>
    </g>
   </g>
   <g id="matplotlib.axis_2">
    <g id="ytick_1">
     <g id="line2d_8"/>
    </g>
    <g id="ytick_2">
     <g id="line2d_9"/>
    </g>
    <g id="ytick_3">
     <g id="line2d_10"/>
    </g>
    <g id="ytick_4">
     <g id="line2d_11"/>
    </g>
    <g id="ytick_5">
     <g id="line2d_12"/>
    </g>
    <g id="ytick_6">
     <g id="line2d_13"/>
    </g>
    <g id="ytick_7">
     <g id="line2d_14"/>
    </g>
   </g>
   <g id="line2d_15">
    <path clip-path="url(#p8d0ea60cc9)" d="M 33.381818 385.856934 
L 36.026446 382.353285 
L 38.671074 378.849635 
L 41.315702 375.345985 
L 43.960331 371.842336 
L 46.604959 368.338686 
L 49.249587 364.835036 
L 51.894215 361.331387 
L 54.538843 357.827737 
L 57.183471 354.324088 
L 59.828099 350.820438 
L 62.472727 347.316788 
L 65.117355 343.813139 
L 67.761983 340.309489 
L 70.406612 336.805839 
L 73.05124 333.30219 
L 75.695868 329.79854 
L 78.340496 326.294891 
L 80.985124 322.791241 
L 83.629752 319.287591 
L 86.27438 315.783942 
L 88.919008 312.280292 
L 91.563636 308.776642 
L 94.208264 305.272993 
L 96.852893 301.769343 
L 99.497521 298.265693 
L 102.142149 294.762044 
L 104.786777 291.258394 
L 107.431405 287.754745 
L 110.076033 284.251095 
L 112.720661 280.747445 
L 115.365289 277.243796 
L 118.009917 273.740146 
L 120.654545 270.236496 
L 123.299174 266.732847 
L 125.943802 263.229197 
L 128.58843 259.725547 
L 131.233058 256.221898 
L 133.877686 252.718248 
L 136.522314 249.214599 
L 139.166942 245.710949 
L 141.81157 242.207299 
L 144.456198 238.70365 
L 147.100826 235.2 
L 149.745455 231.69635 
L 152.390083 228.192701 
L 155.034711 224.689051 
L 157.679339 221.185401 
L 160.323967 217.681752 
L 162.968595 214.178102 
L 165.613223 210.674453 
L 168.257851 207.170803 
L 170.902479 203.667153 
L 173.547107 200.163504 
L 176.191736 196.659854 
L 178.836364 193.156204 
L 181.480992 189.652555 
L 184.12562 186.148905 
L 186.770248 182.645255 
L 189.414876 179.141606 
L 192.059504 175.637956 
L 194.704132 172.134307 
L 197.34876 168.630657 
L 199.993388 165.127007 
L 202.638017 161.623358 
L 205.282645 158.119708 
L 207.927273 154.616058 
L 210.571901 151.112409 
L 213.216529 147.608759 
L 215.861157 144.105109 
L 218.505785 140.60146 
L 221.150413 137.09781 
L 223.795041 133.594161 
L 226.439669 130.090511 
L 229.084298 126.586861 
L 231.728926 123.083212 
L 234.373554 119.579562 
L 237.018182 116.075912 
L 239.66281 112.572263 
L 242.307438 109.068613 
L 244.952066 105.564964 
L 247.596694 102.061314 
L 250.241322 98.557664 
L 252.88595 95.054015 
L 255.530579 91.550365 
L 258.175207 88.046715 
L 260.819835 84.543066 
L 263.464463 81.039416 
L 266.109091 77.535766 
L 268.753719 74.032117 
L 271.398347 70.528467 
L 274.042975 67.024818 
L 276.687603 63.521168 
L 279.332231 60.017518 
L 281.97686 56.513869 
L 284.621488 53.010219 
L 287.266116 49.506569 
L 289.910744 46.00292 
L 292.555372 42.49927 
L 295.2 38.99562 
" style="fill:none;stroke:#e78ac3;stroke-linecap:round;stroke-width:2;"/>
   </g>
   <g id="line2d_16">
    <path clip-path="url(#p8d0ea60cc9)" d="M 295.2 38.99562 
L 297.844628 42.49927 
L 300.489256 46.00292 
L 303.133884 49.506569 
L 305.778512 53.010219 
L 308.42314 56.513869 
L 311.067769 60.017518 
L 313.712397 63.521168 
L 316.357025 67.024818 
L 319.001653 70.528467 
L 321.646281 74.032117 
L 324.290909 77.535766 
L 326.935537 81.039416 
L 329.580165 84.543066 
L 332.224793 88.046715 
L 334.869421 91.550365 
L 337.51405 95.054015 
L 340.158678 98.557664 
L 342.803306 102.061314 
L 345.447934 105.564964 
L 348.092562 109.068613 
L 350.73719 112.572263 
L 353.381818 116.075912 
L 356.026446 119.579562 
L 358.671074 123.083212 
L 361.315702 126.586861 
L 363.960331 130.090511 
L 366.604959 133.594161 
L 369.249587 137.09781 
L 371.894215 140.60146 
L 374.538843 144.105109 
L 377.183471 147.608759 
L 379.828099 151.112409 
L 382.472727 154.616058 
L 385.117355 158.119708 
L 387.761983 161.623358 
L 390.406612 165.127007 
L 393.05124 168.630657 
L 395.695868 172.134307 
L 398.340496 175.637956 
L 400.985124 179.141606 
L 403.629752 182.645255 
L 406.27438 186.148905 
L 408.919008 189.652555 
L 411.563636 193.156204 
L 414.208264 196.659854 
L 416.852893 200.163504 
L 419.497521 203.667153 
L 422.142149 207.170803 
L 424.786777 210.674453 
L 427.431405 214.178102 
L 430.076033 217.681752 
L 432.720661 221.185401 
L 435.365289 224.689051 
L 438.009917 228.192701 
L 440.654545 231.69635 
L 443.299174 235.2 
L 445.943802 238.70365 
L 448.58843 242.207299 
L 451.233058 245.710949 
L 453.877686 249.214599 
L 456.522314 252.718248 
L 459.166942 256.221898 
L 461.81157 259.725547 
L 464.456198 263.229197 
L 467.100826 266.732847 
L 469.745455 270.236496 
L 472.390083 273.740146 
L 475.034711 277.243796 
L 477.679339 280.747445 
L 480.323967 284.251095 
L 482.968595 287.754745 
L 485.613223 291.258394 
L 488.257851 294.762044 
L 490.902479 298.265693 
L 493.547107 301.769343 
L 496.191736 305.272993 
L 498.836364 308.776642 
L 501.480992 312.280292 
L 504.12562 315.783942 
L 506.770248 319.287591 
L 509.414876 322.791241 
L 512.059504 326.294891 
L 514.704132 329.79854 
L 517.34876 333.30219 
L 519.993388 336.805839 
L 522.638017 340.309489 
L 525.282645 343.813139 
L 527.927273 347.316788 
L 530.571901 350.820438 
L 533.216529 354.324088 
L 535.861157 357.827737 
L 538.505785 361.331387 
L 541.150413 364.835036 
L 543.795041 368.338686 
L 546.439669 371.842336 
L 549.084298 375.345985 
L 551.728926 378.849635 
L 554.373554 382.353285 
L 557.018182 385.856934 
" style="fill:none;stroke:#808080;stroke-linecap:round;stroke-width:2;"/>
   </g>
   <g id="line2d_17">
    <path clip-path="url(#p8d0ea60cc9)" d="M 491.563636 299.141606 
L 557.018182 241.331387 
" style="fill:none;stroke:#000000;stroke-dasharray:14.8,6.4;stroke-dashoffset:0;stroke-width:4;"/>
   </g>
   <g id="line2d_18">
    <path clip-path="url(#p8d0ea60cc9)" d="M 557.018182 241.331387 
L 255.927273 93.915328 
" style="fill:none;stroke:#000000;stroke-dasharray:14.8,6.4;stroke-dashoffset:0;stroke-width:4;"/>
   </g>
   <g id="line2d_19">
    <path clip-path="url(#p8d0ea60cc9)" d="M 295.2 38.99562 
L 255.927273 93.915328 
" style="fill:none;opacity:0.5;stroke:#ff0000;stroke-dasharray:8,13.2;stroke-dashoffset:0;stroke-width:8;"/>
   </g>
   <g id="line2d_20">
    <path clip-path="url(#p8d0ea60cc9)" d="M 295.2 38.99562 
L 491.563636 299.141606 
" style="fill:none;opacity:0.5;stroke:#ff0000;stroke-dasharray:8,13.2;stroke-dashoffset:0;stroke-width:8;"/>
   </g>
   <g id="line2d_21">
    <path clip-path="url(#p8d0ea60cc9)" d="M 295.2 38.99562 
L 557.018182 241.331387 
" style="fill:none;stroke:#000000;stroke-dasharray:14.8,6.4;stroke-dashoffset:0;stroke-width:4;"/>
   </g>
   <g id="text_1">
    <!-- $\rho_{0}$ -->
    <defs>
     <path d="M 3.09375 -17.296875 
C 3 -17.796875 2.796875 -18.390625 2.796875 -19 
C 2.796875 -20.5 4 -21.5 5.5 -21.5 
C 7 -21.5 8.40625 -20.5 9 -19.09375 
C 9.40625 -18.1875 12.203125 -6.203125 15.40625 6.09375 
C 17.40625 1.09375 21.09375 -1 25 -1 
C 36.296875 -1 49.09375 12.96875 49.09375 28.046875 
C 49.09375 38.71875 42.59375 44 35.703125 44 
C 26.90625 44 16.203125 34.921875 12.90625 21.640625 
z
M 24.90625 1 
C 18.09375 1 16.40625 8.890625 16.40625 10.078125 
C 16.40625 10.6875 18.90625 20.234375 19.203125 21.734375 
C 24.296875 41.71875 34.09375 41.71875 35.59375 41.71875 
C 40.09375 41.71875 42.59375 37.65625 42.59375 31.8125 
C 42.59375 26.75 39.90625 16.9375 38.203125 12.796875 
C 35.203125 5.953125 30 1 24.90625 1 
z
" id="CMMI12-26"/>
     <path d="M 42 31.640625 
C 42 37.75 41.90625 48.125 37.703125 56.109375 
C 34 63.109375 28.09375 65.59375 22.90625 65.59375 
C 18.09375 65.59375 12 63.40625 8.203125 56.203125 
C 4.203125 48.71875 3.796875 39.4375 3.796875 31.640625 
C 3.796875 25.953125 3.90625 17.28125 7 9.671875 
C 11.296875 -0.609375 19 -2 22.90625 -2 
C 27.5 -2 34.5 -0.109375 38.59375 9.375 
C 41.59375 16.28125 42 24.359375 42 31.640625 
z
M 22.90625 -0.40625 
C 16.5 -0.40625 12.703125 5.078125 11.296875 12.6875 
C 10.203125 18.5625 10.203125 27.15625 10.203125 32.75 
C 10.203125 40.4375 10.203125 46.828125 11.5 52.921875 
C 13.40625 61.390625 19 64 22.90625 64 
C 27 64 32.296875 61.296875 34.203125 53.125 
C 35.5 47.4375 35.59375 40.734375 35.59375 32.75 
C 35.59375 26.25 35.59375 18.265625 34.40625 12.375 
C 32.296875 1.484375 26.40625 -0.40625 22.90625 -0.40625 
z
" id="CMR17-48"/>
    </defs>
    <g style="fill:#262626;" transform="translate(338.836364 38.99562)scale(0.4 -0.4)">
     <use transform="translate(0 14.943915)scale(0.996264)" xlink:href="#CMMI12-26"/>
     <use transform="translate(50.314373 0)scale(0.697382)" xlink:href="#CMR17-48"/>
    </g>
   </g>
   <g id="text_2">
    <!-- $\hat\rho_{\mathrm{ML}, \mathcal{M}_{1}}$ -->
    <defs>
     <path d="M 22.90625 69.078125 
L 10.59375 55.546875 
L 11.796875 54.34375 
L 22.90625 65.09375 
L 34 54.34375 
L 35.203125 55.546875 
z
" id="CMR17-94"/>
     <path d="M 20.90625 66 
C 20.296875 67.5 20.203125 67.5 18.09375 67.5 
L 5.296875 67.5 
L 5.296875 65 
C 12.203125 65 13.296875 65 13.296875 60.546875 
L 13.296875 9.53125 
C 13.296875 7.046875 13.296875 2.390625 5.296875 2.390625 
L 5.296875 -0.203125 
C 7.59375 0 11.796875 0 14.296875 0 
C 16.796875 0 21 0 23.296875 -0.203125 
L 23.296875 2.390625 
C 15.296875 2.390625 15.296875 7.046875 15.296875 9.53125 
L 15.296875 64.609375 
L 15.40625 64.609375 
L 38.90625 1.390625 
C 39.296875 0.390625 39.5 -0.203125 40.296875 -0.203125 
C 41.09375 -0.203125 41.296875 0.390625 41.703125 1.390625 
L 65.40625 65.09375 
L 65.5 65.09375 
L 65.5 6.84375 
C 65.5 2.390625 64.40625 2.390625 57.5 2.390625 
L 57.5 -0.203125 
C 60.203125 0 65.59375 0 68.5 0 
C 71.40625 0 76.90625 0 79.59375 -0.203125 
L 79.59375 2.390625 
C 72.703125 2.390625 71.59375 2.390625 71.59375 6.84375 
L 71.59375 60.546875 
C 71.59375 65 72.703125 65 79.59375 65 
L 79.59375 67.5 
L 66.90625 67.5 
C 64.796875 67.5 64.703125 67.40625 64.09375 65.90625 
L 42.5 7.84375 
z
" id="CMR17-77"/>
     <path d="M 54.203125 25.234375 
L 52.40625 25.234375 
C 51.59375 15.359375 50.296875 2.59375 33.203125 2.59375 
L 23.90625 2.59375 
C 19.90625 2.59375 19.703125 3.078125 19.703125 6.46875 
L 19.703125 60.90625 
C 19.703125 64.515625 19.90625 65.5 27.5 65.5 
L 29.703125 65.5 
L 29.703125 68 
C 25.59375 68 20.796875 68 16.703125 68 
C 13.59375 68 8 68 5.09375 68 
L 5.09375 65.5 
C 12 65.5 13.09375 65.5 13.09375 61.03125 
L 13.09375 7.0625 
C 13.09375 2.59375 12 2.59375 5.09375 2.59375 
L 5.09375 0 
L 51.796875 0 
z
" id="CMR17-76"/>
     <path d="M 19.5 -0.484375 
C 19.5 5.359375 17.59375 9.671875 13.5 9.671875 
C 10.296875 9.671875 8.703125 7.078125 8.703125 4.890625 
C 8.703125 2.6875 10.203125 0 13.59375 0 
C 14.90625 0 16 0.40625 16.90625 1.296875 
C 17.09375 1.5 17.203125 1.5 17.296875 1.5 
C 17.5 1.5 17.5 0.078125 17.5 -0.421875 
C 17.5 -3.75 16.90625 -10.296875 11.09375 -16.875 
C 10 -18.078125 10 -18.28125 10 -18.484375 
C 10 -19 10.5 -19.5 11 -19.5 
C 11.796875 -19.5 19.5 -12.046875 19.5 -0.484375 
z
" id="CMMI12-59"/>
     <path d="M 38.5 56.703125 
C 41.203125 43.703125 45.59375 22.296875 51.296875 10.703125 
C 53.5 6.390625 54.59375 4.203125 55.59375 4.203125 
C 56 4.203125 56.203125 4.203125 58 6 
C 65.59375 13.265625 70.796875 19.046875 77.796875 27.03125 
L 99.703125 52.453125 
C 98.296875 43.96875 94.703125 21.53125 94.703125 9.859375 
C 94.703125 7.171875 94.796875 4.578125 95.09375 1.875 
C 95.203125 0.796875 95.59375 -2.109375 99.796875 -2.109375 
C 104 -2.109375 111.59375 2.296875 111.59375 4.296875 
C 111.59375 4.890625 111 5 110.703125 5 
C 109.40625 5 107.40625 4.109375 106.296875 3.40625 
C 103.90625 3.71875 103.703125 5.3125 103.5 7.59375 
C 103.203125 10.78125 103.203125 13.78125 103.203125 14.1875 
C 103.203125 25.234375 107.59375 55.4375 110.5 67.8125 
C 110.59375 68.515625 110.703125 68.6875 110.703125 69.5 
C 110.703125 69.890625 110.59375 71 109.90625 71 
C 109.5 71 109.40625 70.890625 107.5 68.6875 
C 98.09375 57.34375 68.90625 22.4375 59 14.0625 
C 56.5 19.328125 54.703125 23.125 51.203125 37.0625 
C 48.296875 48.3125 46.59375 56.5625 44.90625 66.21875 
C 44.59375 67.609375 44.09375 70.296875 44.09375 70.5 
C 43.796875 71 43.296875 71 43 71 
C 41.203125 71 37 68.8125 36.703125 66.71875 
C 35.5 58.359375 33.5 45.203125 26.5 26.203125 
C 18.5 5 16.296875 5 14.40625 5 
C 13.09375 5 9.40625 5.796875 7.203125 7.78125 
C 6.703125 8.28125 6.5 8.28125 6.296875 8.28125 
C 4.90625 8.28125 2.703125 3.75 2.703125 0.9375 
C 2.703125 0.03125 2.703125 -1.1875 5.90625 -2.875 
C 8.40625 -4.203125 10.796875 -4.203125 11.296875 -4.203125 
C 17.5 -4.203125 23.40625 10.09375 25.40625 15.203125 
C 30.09375 26.5 35.703125 42.296875 38.5 56.703125 
z
" id="CMSY10-77"/>
     <path d="M 26.59375 63.40625 
C 26.59375 65.5 26.5 65.5 25.09375 65.5 
C 21.203125 61.1875 15.296875 59.796875 9.703125 59.796875 
C 9.40625 59.796875 8.90625 59.796875 8.796875 59.5 
C 8.703125 59.296875 8.703125 59.09375 8.703125 57 
C 11.796875 57 17 57.59375 21 59.984375 
L 21 7.203125 
C 21 3.6875 20.796875 2.5 12.203125 2.5 
L 9.203125 2.5 
L 9.203125 0 
C 14 0 19 0 23.796875 0 
C 28.59375 0 33.59375 0 38.40625 0 
L 38.40625 2.5 
L 35.40625 2.5 
C 26.796875 2.5 26.59375 3.59375 26.59375 7.15625 
z
" id="CMR17-49"/>
    </defs>
    <g style="fill:#262626;" transform="translate(120.654545 96.805839)scale(0.4 -0.4)">
     <use transform="translate(10.441101 25.411071)scale(0.996264)" xlink:href="#CMR17-94"/>
     <use transform="translate(0 25.404611)scale(0.996264)" xlink:href="#CMMI12-26"/>
     <use transform="translate(50.314373 10.460696)scale(0.697382)" xlink:href="#CMR17-77"/>
     <use transform="translate(109.59497 10.460696)scale(0.697382)" xlink:href="#CMR17-76"/>
     <use transform="translate(149.761773 10.460696)scale(0.697382)" xlink:href="#CMMI12-59"/>
     <use transform="translate(168.729706 10.460696)scale(0.697382)" xlink:href="#CMSY10-77"/>
     <use transform="translate(252.478286 0)scale(0.498132)" xlink:href="#CMR17-49"/>
    </g>
   </g>
   <g id="text_3">
    <!-- $\hat\rho_{\mathrm{ML}, \mathcal{M}_{2}}$ -->
    <defs>
     <path d="M 41.703125 15.453125 
L 39.90625 15.453125 
C 38.90625 8.375 38.09375 7.171875 37.703125 6.5625 
C 37.203125 5.765625 30 5.765625 28.59375 5.765625 
L 9.40625 5.765625 
C 13 9.671875 20 16.75 28.5 24.953125 
C 34.59375 30.734375 41.703125 37.53125 41.703125 47.421875 
C 41.703125 59.21875 32.296875 66 21.796875 66 
C 10.796875 66 4.09375 56.3125 4.09375 47.34375 
C 4.09375 43.4375 7 42.9375 8.203125 42.9375 
C 9.203125 42.9375 12.203125 43.546875 12.203125 47.03125 
C 12.203125 50.109375 9.59375 51 8.203125 51 
C 7.59375 51 7 50.90625 6.59375 50.703125 
C 8.5 59.21875 14.296875 63.40625 20.40625 63.40625 
C 29.09375 63.40625 34.796875 56.515625 34.796875 47.421875 
C 34.796875 38.734375 29.703125 31.25 24 24.75 
L 4.09375 2.28125 
L 4.09375 0 
L 39.296875 0 
z
" id="CMR17-50"/>
    </defs>
    <g style="fill:#262626;" transform="translate(513.381818 328.046715)scale(0.4 -0.4)">
     <use transform="translate(10.441101 25.411071)scale(0.996264)" xlink:href="#CMR17-94"/>
     <use transform="translate(0 25.404611)scale(0.996264)" xlink:href="#CMMI12-26"/>
     <use transform="translate(50.314373 10.460696)scale(0.697382)" xlink:href="#CMR17-77"/>
     <use transform="translate(109.59497 10.460696)scale(0.697382)" xlink:href="#CMR17-76"/>
     <use transform="translate(149.761773 10.460696)scale(0.697382)" xlink:href="#CMMI12-59"/>
     <use transform="translate(168.729706 10.460696)scale(0.697382)" xlink:href="#CMSY10-77"/>
     <use transform="translate(252.478286 0)scale(0.498132)" xlink:href="#CMR17-50"/>
    </g>
   </g>
   <g id="text_4">
    <!-- $\hat\rho_{\mathrm{ML}, \mathcal{M}'}$ -->
    <defs>
     <path d="M 25.296875 47.5 
C 25.796875 48.703125 26.203125 49.59375 26.203125 50.59375 
C 26.203125 53.5 23.59375 55.90625 20.5 55.90625 
C 17.703125 55.90625 15.90625 54 15.203125 51.40625 
L 3.296875 7.703125 
C 3.296875 7.5 2.90625 6.40625 2.90625 6.296875 
C 2.90625 5.203125 5.5 4.5 6.296875 4.5 
C 6.90625 4.5 7 4.796875 7.59375 6.09375 
z
" id="CMSY10-48"/>
    </defs>
    <g style="fill:#262626;" transform="translate(557.018182 212.426277)scale(0.4 -0.4)">
     <use transform="translate(10.441101 14.950375)scale(0.996264)" xlink:href="#CMR17-94"/>
     <use transform="translate(0 14.943915)scale(0.996264)" xlink:href="#CMMI12-26"/>
     <use transform="translate(50.314373 0)scale(0.697382)" xlink:href="#CMR17-77"/>
     <use transform="translate(109.59497 0)scale(0.697382)" xlink:href="#CMR17-76"/>
     <use transform="translate(149.761773 0)scale(0.697382)" xlink:href="#CMMI12-59"/>
     <use transform="translate(168.729706 0)scale(0.697382)" xlink:href="#CMSY10-77"/>
     <use transform="translate(252.478286 20.146573)scale(0.498132)" xlink:href="#CMSY10-48"/>
    </g>
   </g>
   <g id="text_5">
    <g id="patch_2">
     <path d="M 120.654545 257.644837 
L 166.141896 257.644837 
Q 176.641896 257.644837 176.641896 247.144837 
L 176.641896 220.575892 
Q 176.641896 210.075892 166.141896 210.075892 
L 120.654545 210.075892 
Q 110.154545 210.075892 110.154545 220.575892 
L 110.154545 247.144837 
Q 110.154545 257.644837 120.654545 257.644837 
z
" style="fill:#e78ac3;stroke:#000000;stroke-linejoin:miter;stroke-width:0.3;"/>
    </g>
    <!-- $\mathcal{M}_{1}$ -->
    <g style="fill:#262626;" transform="translate(120.654545 241.331387)scale(0.3 -0.3)">
     <use transform="translate(0 14.943915)scale(0.996264)" xlink:href="#CMSY10-77"/>
     <use transform="translate(119.641341 0)scale(0.697382)" xlink:href="#CMR17-49"/>
    </g>
   </g>
   <g id="text_6">
    <!-- $\mathcal{M}_{2}$ -->
    <g style="fill:#262626;" transform="translate(273.381818 241.331387)scale(0.3 -0.3)">
     <use transform="translate(0 14.943915)scale(0.996264)" xlink:href="#CMSY10-77"/>
     <use transform="translate(119.641341 0)scale(0.697382)" xlink:href="#CMR17-50"/>
    </g>
   </g>
   <g id="line2d_22">
    <path clip-path="url(#p8d0ea60cc9)" d="M 295.2 38.99562 
" style="fill:none;stroke:#66c2a5;stroke-linecap:round;stroke-width:1.75;"/>
    <defs>
     <path d="M 0 -25 
L -7.347316 -10.112712 
L -23.776413 -7.725425 
L -11.888206 3.862712 
L -14.694631 20.225425 
L -0 12.5 
L 14.694631 20.225425 
L 11.888206 3.862712 
L 23.776413 -7.725425 
L 7.347316 -10.112712 
z
" id="m8cc10c6288" style="stroke:#000000;stroke-linejoin:bevel;stroke-width:4;"/>
    </defs>
    <g clip-path="url(#p8d0ea60cc9)">
     <use style="fill:#66c2a5;stroke:#000000;stroke-linejoin:bevel;stroke-width:4;" x="295.2" xlink:href="#m8cc10c6288" y="38.99562"/>
    </g>
   </g>
   <g id="line2d_23">
    <path clip-path="url(#p8d0ea60cc9)" d="M 557.018182 241.331387 
" style="fill:none;stroke:#fc8d62;stroke-linecap:round;stroke-width:1.75;"/>
    <defs>
     <path d="M 0 12.5 
C 3.315039 12.5 6.494748 11.182921 8.838835 8.838835 
C 11.182921 6.494748 12.5 3.315039 12.5 0 
C 12.5 -3.315039 11.182921 -6.494748 8.838835 -8.838835 
C 6.494748 -11.182921 3.315039 -12.5 0 -12.5 
C -3.315039 -12.5 -6.494748 -11.182921 -8.838835 -8.838835 
C -11.182921 -6.494748 -12.5 -3.315039 -12.5 0 
C -12.5 3.315039 -11.182921 6.494748 -8.838835 8.838835 
C -6.494748 11.182921 -3.315039 12.5 0 12.5 
z
" id="me37ef13736"/>
    </defs>
    <g clip-path="url(#p8d0ea60cc9)">
     <use style="fill:#fc8d62;" x="557.018182" xlink:href="#me37ef13736" y="241.331387"/>
    </g>
   </g>
   <g id="line2d_24">
    <path clip-path="url(#p8d0ea60cc9)" d="M 491.563636 299.141606 
" style="fill:none;stroke:#8da0cb;stroke-linecap:round;stroke-width:1.75;"/>
    <defs>
     <path d="M 0 12.5 
C 3.315039 12.5 6.494748 11.182921 8.838835 8.838835 
C 11.182921 6.494748 12.5 3.315039 12.5 0 
C 12.5 -3.315039 11.182921 -6.494748 8.838835 -8.838835 
C 6.494748 -11.182921 3.315039 -12.5 0 -12.5 
C -3.315039 -12.5 -6.494748 -11.182921 -8.838835 -8.838835 
C -11.182921 -6.494748 -12.5 -3.315039 -12.5 0 
C -12.5 3.315039 -11.182921 6.494748 -8.838835 8.838835 
C -6.494748 11.182921 -3.315039 12.5 0 12.5 
z
" id="mc31dcb7dda"/>
    </defs>
    <g clip-path="url(#p8d0ea60cc9)">
     <use style="fill:#8da0cb;" x="491.563636" xlink:href="#mc31dcb7dda" y="299.141606"/>
    </g>
   </g>
   <g id="line2d_25">
    <path clip-path="url(#p8d0ea60cc9)" d="M 251.563636 93.915328 
" style="fill:none;stroke:#e78ac3;stroke-linecap:round;stroke-width:1.75;"/>
    <defs>
     <path d="M 0 12.5 
C 3.315039 12.5 6.494748 11.182921 8.838835 8.838835 
C 11.182921 6.494748 12.5 3.315039 12.5 0 
C 12.5 -3.315039 11.182921 -6.494748 8.838835 -8.838835 
C 6.494748 -11.182921 3.315039 -12.5 0 -12.5 
C -3.315039 -12.5 -6.494748 -11.182921 -8.838835 -8.838835 
C -11.182921 -6.494748 -12.5 -3.315039 -12.5 0 
C -12.5 3.315039 -11.182921 6.494748 -8.838835 8.838835 
C -6.494748 11.182921 -3.315039 12.5 0 12.5 
z
" id="ma7d72e17f9" style="stroke:#e78ac3;stroke-width:4;"/>
    </defs>
    <g clip-path="url(#p8d0ea60cc9)">
     <use style="fill:#e78ac3;stroke:#e78ac3;stroke-width:4;" x="251.563636" xlink:href="#ma7d72e17f9" y="93.915328"/>
    </g>
   </g>
  </g>
 </g>
 <defs>
  <clipPath id="p8d0ea60cc9">
   <rect height="396" width="576" x="7.2" y="7.2"/>
  </clipPath>
 </defs>
</svg>
