<?xml version="1.0" encoding="utf-8" standalone="no"?>
<!DOCTYPE svg PUBLIC "-//W3C//DTD SVG 1.1//EN"
  "http://www.w3.org/Graphics/SVG/1.1/DTD/svg11.dtd">
<!-- Created with matplotlib (http://matplotlib.org/) -->
<svg height="670pt" version="1.1" viewBox="0 0 1245 670" width="1245pt" xmlns="http://www.w3.org/2000/svg" xmlns:xlink="http://www.w3.org/1999/xlink">
 <defs>
  <style type="text/css">
*{stroke-linecap:butt;stroke-linejoin:round;stroke-miterlimit:100000;}
  </style>
 </defs>
 <g id="figure_1">
  <g id="patch_1">
   <path d="M 0 670.550034 
L 1245.6 670.550034 
L 1245.6 0 
L 0 0 
z
" style="fill:#ffffff;"/>
  </g>
  <g id="axes_1">
   <g id="patch_2">
    <path d="M 639 663.350034 
L 1238.4 663.350034 
L 1238.4 57.848313 
L 639 57.848313 
z
" style="fill:#eaeaf2;"/>
   </g>
   <g id="matplotlib.axis_1">
    <g id="xtick_1">
     <g id="line2d_1">
      <defs>
       <path d="M 0 0 
L 0 0 
" id="m1612018bd1" style="stroke:#262626;"/>
      </defs>
      <g>
       <use style="fill:#262626;stroke:#262626;" x="676.4625" xlink:href="#m1612018bd1" y="663.350034426"/>
      </g>
     </g>
    </g>
    <g id="xtick_2">
     <g id="line2d_2">
      <g>
       <use style="fill:#262626;stroke:#262626;" x="751.3875" xlink:href="#m1612018bd1" y="663.350034426"/>
      </g>
     </g>
    </g>
    <g id="xtick_3">
     <g id="line2d_3">
      <g>
       <use style="fill:#262626;stroke:#262626;" x="826.3125" xlink:href="#m1612018bd1" y="663.350034426"/>
      </g>
     </g>
    </g>
    <g id="xtick_4">
     <g id="line2d_4">
      <g>
       <use style="fill:#262626;stroke:#262626;" x="901.2375" xlink:href="#m1612018bd1" y="663.350034426"/>
      </g>
     </g>
    </g>
    <g id="xtick_5">
     <g id="line2d_5">
      <g>
       <use style="fill:#262626;stroke:#262626;" x="976.1625" xlink:href="#m1612018bd1" y="663.350034426"/>
      </g>
     </g>
    </g>
    <g id="xtick_6">
     <g id="line2d_6">
      <g>
       <use style="fill:#262626;stroke:#262626;" x="1051.0875" xlink:href="#m1612018bd1" y="663.350034426"/>
      </g>
     </g>
    </g>
    <g id="xtick_7">
     <g id="line2d_7">
      <g>
       <use style="fill:#262626;stroke:#262626;" x="1126.0125" xlink:href="#m1612018bd1" y="663.350034426"/>
      </g>
     </g>
    </g>
    <g id="xtick_8">
     <g id="line2d_8">
      <g>
       <use style="fill:#262626;stroke:#262626;" x="1200.9375" xlink:href="#m1612018bd1" y="663.350034426"/>
      </g>
     </g>
    </g>
   </g>
   <g id="matplotlib.axis_2">
    <g id="ytick_1">
     <g id="line2d_9">
      <g>
       <use style="fill:#262626;stroke:#262626;" x="639.0" xlink:href="#m1612018bd1" y="625.506176845"/>
      </g>
     </g>
    </g>
    <g id="ytick_2">
     <g id="line2d_10">
      <g>
       <use style="fill:#262626;stroke:#262626;" x="639.0" xlink:href="#m1612018bd1" y="549.818461682"/>
      </g>
     </g>
    </g>
    <g id="ytick_3">
     <g id="line2d_11">
      <g>
       <use style="fill:#262626;stroke:#262626;" x="639.0" xlink:href="#m1612018bd1" y="474.130746519"/>
      </g>
     </g>
    </g>
    <g id="ytick_4">
     <g id="line2d_12">
      <g>
       <use style="fill:#262626;stroke:#262626;" x="639.0" xlink:href="#m1612018bd1" y="398.443031356"/>
      </g>
     </g>
    </g>
    <g id="ytick_5">
     <g id="line2d_13">
      <g>
       <use style="fill:#262626;stroke:#262626;" x="639.0" xlink:href="#m1612018bd1" y="322.755316193"/>
      </g>
     </g>
    </g>
    <g id="ytick_6">
     <g id="line2d_14">
      <g>
       <use style="fill:#262626;stroke:#262626;" x="639.0" xlink:href="#m1612018bd1" y="247.06760103"/>
      </g>
     </g>
    </g>
    <g id="ytick_7">
     <g id="line2d_15">
      <g>
       <use style="fill:#262626;stroke:#262626;" x="639.0" xlink:href="#m1612018bd1" y="171.379885867"/>
      </g>
     </g>
    </g>
    <g id="ytick_8">
     <g id="line2d_16">
      <g>
       <use style="fill:#262626;stroke:#262626;" x="639.0" xlink:href="#m1612018bd1" y="95.6921707037"/>
      </g>
     </g>
    </g>
   </g>
   <g id="QuadMesh_1">
    <path clip-path="url(#p631b1b35f3)" d="M 639 663.350034 
L 713.925 663.350034 
L 713.925 587.662319 
L 639 587.662319 
L 639 663.350034 
" style="fill:#f9f1ec;"/>
    <path clip-path="url(#p631b1b35f3)" d="M 713.925 663.350034 
L 788.85 663.350034 
L 788.85 587.662319 
L 713.925 587.662319 
L 713.925 663.350034 
" style="fill:#f9f1ec;"/>
    <path clip-path="url(#p631b1b35f3)" d="M 788.85 663.350034 
L 863.775 663.350034 
L 863.775 587.662319 
L 788.85 587.662319 
L 788.85 663.350034 
" style="fill:#f9f1ec;"/>
    <path clip-path="url(#p631b1b35f3)" d="M 863.775 663.350034 
L 938.7 663.350034 
L 938.7 587.662319 
L 863.775 587.662319 
L 863.775 663.350034 
" style="fill:#f9f1ec;"/>
    <path clip-path="url(#p631b1b35f3)" d="M 938.7 663.350034 
L 1013.625 663.350034 
L 1013.625 587.662319 
L 938.7 587.662319 
L 938.7 663.350034 
" style="fill:#f9f1ec;"/>
    <path clip-path="url(#p631b1b35f3)" d="M 1013.625 663.350034 
L 1088.55 663.350034 
L 1088.55 587.662319 
L 1013.625 587.662319 
L 1013.625 663.350034 
" style="fill:#f9f1ec;"/>
    <path clip-path="url(#p631b1b35f3)" d="M 1088.55 663.350034 
L 1163.475 663.350034 
L 1163.475 587.662319 
L 1088.55 587.662319 
L 1088.55 663.350034 
" style="fill:#f9f1ec;"/>
    <path clip-path="url(#p631b1b35f3)" d="M 1163.475 663.350034 
L 1238.4 663.350034 
L 1238.4 587.662319 
L 1163.475 587.662319 
L 1163.475 663.350034 
" style="fill:#f9f1ec;"/>
    <path clip-path="url(#p631b1b35f3)" d="M 639 587.662319 
L 713.925 587.662319 
L 713.925 511.974604 
L 639 511.974604 
L 639 587.662319 
" style="fill:#f9f1ec;"/>
    <path clip-path="url(#p631b1b35f3)" d="M 713.925 587.662319 
L 788.85 587.662319 
L 788.85 511.974604 
L 713.925 511.974604 
L 713.925 587.662319 
" style="fill:#f9f1ec;"/>
    <path clip-path="url(#p631b1b35f3)" d="M 788.85 587.662319 
L 863.775 587.662319 
L 863.775 511.974604 
L 788.85 511.974604 
L 788.85 587.662319 
" style="fill:#f9f1ec;"/>
    <path clip-path="url(#p631b1b35f3)" d="M 863.775 587.662319 
L 938.7 587.662319 
L 938.7 511.974604 
L 863.775 511.974604 
L 863.775 587.662319 
" style="fill:#f9f1ec;"/>
    <path clip-path="url(#p631b1b35f3)" d="M 938.7 587.662319 
L 1013.625 587.662319 
L 1013.625 511.974604 
L 938.7 511.974604 
L 938.7 587.662319 
" style="fill:#f9f1ec;"/>
    <path clip-path="url(#p631b1b35f3)" d="M 1013.625 587.662319 
L 1088.55 587.662319 
L 1088.55 511.974604 
L 1013.625 511.974604 
L 1013.625 587.662319 
" style="fill:#f9f1ec;"/>
    <path clip-path="url(#p631b1b35f3)" d="M 1088.55 587.662319 
L 1163.475 587.662319 
L 1163.475 511.974604 
L 1088.55 511.974604 
L 1088.55 587.662319 
" style="fill:#f9f1ec;"/>
    <path clip-path="url(#p631b1b35f3)" d="M 1163.475 587.662319 
L 1238.4 587.662319 
L 1238.4 511.974604 
L 1163.475 511.974604 
L 1163.475 587.662319 
" style="fill:#f9f1ec;"/>
    <path clip-path="url(#p631b1b35f3)" d="M 639 511.974604 
L 713.925 511.974604 
L 713.925 436.286889 
L 639 436.286889 
L 639 511.974604 
" style="fill:#f9f1ec;"/>
    <path clip-path="url(#p631b1b35f3)" d="M 713.925 511.974604 
L 788.85 511.974604 
L 788.85 436.286889 
L 713.925 436.286889 
L 713.925 511.974604 
" style="fill:#f9f1ec;"/>
    <path clip-path="url(#p631b1b35f3)" d="M 788.85 511.974604 
L 863.775 511.974604 
L 863.775 436.286889 
L 788.85 436.286889 
L 788.85 511.974604 
" style="fill:#f9f1ec;"/>
    <path clip-path="url(#p631b1b35f3)" d="M 863.775 511.974604 
L 938.7 511.974604 
L 938.7 436.286889 
L 863.775 436.286889 
L 863.775 511.974604 
" style="fill:#f9f1ec;"/>
    <path clip-path="url(#p631b1b35f3)" d="M 938.7 511.974604 
L 1013.625 511.974604 
L 1013.625 436.286889 
L 938.7 436.286889 
L 938.7 511.974604 
" style="fill:#f9f1ec;"/>
    <path clip-path="url(#p631b1b35f3)" d="M 1013.625 511.974604 
L 1088.55 511.974604 
L 1088.55 436.286889 
L 1013.625 436.286889 
L 1013.625 511.974604 
" style="fill:#f9f1ec;"/>
    <path clip-path="url(#p631b1b35f3)" d="M 1088.55 511.974604 
L 1163.475 511.974604 
L 1163.475 436.286889 
L 1088.55 436.286889 
L 1088.55 511.974604 
" style="fill:#f9f1ec;"/>
    <path clip-path="url(#p631b1b35f3)" d="M 1163.475 511.974604 
L 1238.4 511.974604 
L 1238.4 436.286889 
L 1163.475 436.286889 
L 1163.475 511.974604 
" style="fill:#f9f1ec;"/>
    <path clip-path="url(#p631b1b35f3)" d="M 639 436.286889 
L 713.925 436.286889 
L 713.925 360.599174 
L 639 360.599174 
L 639 436.286889 
" style="fill:#f9f1ec;"/>
    <path clip-path="url(#p631b1b35f3)" d="M 713.925 436.286889 
L 788.85 436.286889 
L 788.85 360.599174 
L 713.925 360.599174 
L 713.925 436.286889 
" style="fill:#f9f1ec;"/>
    <path clip-path="url(#p631b1b35f3)" d="M 788.85 436.286889 
L 863.775 436.286889 
L 863.775 360.599174 
L 788.85 360.599174 
L 788.85 436.286889 
" style="fill:#f9f1ec;"/>
    <path clip-path="url(#p631b1b35f3)" d="M 863.775 436.286889 
L 938.7 436.286889 
L 938.7 360.599174 
L 863.775 360.599174 
L 863.775 436.286889 
" style="fill:#f9f1ec;"/>
    <path clip-path="url(#p631b1b35f3)" d="M 938.7 436.286889 
L 1013.625 436.286889 
L 1013.625 360.599174 
L 938.7 360.599174 
L 938.7 436.286889 
" style="fill:#f9f1ec;"/>
    <path clip-path="url(#p631b1b35f3)" d="M 1013.625 436.286889 
L 1088.55 436.286889 
L 1088.55 360.599174 
L 1013.625 360.599174 
L 1013.625 436.286889 
" style="fill:#f9f1ec;"/>
    <path clip-path="url(#p631b1b35f3)" d="M 1088.55 436.286889 
L 1163.475 436.286889 
L 1163.475 360.599174 
L 1088.55 360.599174 
L 1088.55 436.286889 
" style="fill:#f9f1ec;"/>
    <path clip-path="url(#p631b1b35f3)" d="M 1163.475 436.286889 
L 1238.4 436.286889 
L 1238.4 360.599174 
L 1163.475 360.599174 
L 1163.475 436.286889 
" style="fill:#f9f1ec;"/>
    <path clip-path="url(#p631b1b35f3)" d="M 639 360.599174 
L 713.925 360.599174 
L 713.925 284.911459 
L 639 284.911459 
L 639 360.599174 
" style="fill:#f9f1ec;"/>
    <path clip-path="url(#p631b1b35f3)" d="M 713.925 360.599174 
L 788.85 360.599174 
L 788.85 284.911459 
L 713.925 284.911459 
L 713.925 360.599174 
" style="fill:#f9f1ec;"/>
    <path clip-path="url(#p631b1b35f3)" d="M 788.85 360.599174 
L 863.775 360.599174 
L 863.775 284.911459 
L 788.85 284.911459 
L 788.85 360.599174 
" style="fill:#f9f1ec;"/>
    <path clip-path="url(#p631b1b35f3)" d="M 863.775 360.599174 
L 938.7 360.599174 
L 938.7 284.911459 
L 863.775 284.911459 
L 863.775 360.599174 
" style="fill:#f9f1ec;"/>
    <path clip-path="url(#p631b1b35f3)" d="M 938.7 360.599174 
L 1013.625 360.599174 
L 1013.625 284.911459 
L 938.7 284.911459 
L 938.7 360.599174 
" style="fill:#f9f1ec;"/>
    <path clip-path="url(#p631b1b35f3)" d="M 1013.625 360.599174 
L 1088.55 360.599174 
L 1088.55 284.911459 
L 1013.625 284.911459 
L 1013.625 360.599174 
" style="fill:#f9f1ec;"/>
    <path clip-path="url(#p631b1b35f3)" d="M 1088.55 360.599174 
L 1163.475 360.599174 
L 1163.475 284.911459 
L 1088.55 284.911459 
L 1088.55 360.599174 
" style="fill:#f9f1ec;"/>
    <path clip-path="url(#p631b1b35f3)" d="M 1163.475 360.599174 
L 1238.4 360.599174 
L 1238.4 284.911459 
L 1163.475 284.911459 
L 1163.475 360.599174 
" style="fill:#f9f1ec;"/>
    <path clip-path="url(#p631b1b35f3)" d="M 639 284.911459 
L 713.925 284.911459 
L 713.925 209.223743 
L 639 209.223743 
L 639 284.911459 
" style="fill:#f9f1ec;"/>
    <path clip-path="url(#p631b1b35f3)" d="M 713.925 284.911459 
L 788.85 284.911459 
L 788.85 209.223743 
L 713.925 209.223743 
L 713.925 284.911459 
" style="fill:#f9f1ec;"/>
    <path clip-path="url(#p631b1b35f3)" d="M 788.85 284.911459 
L 863.775 284.911459 
L 863.775 209.223743 
L 788.85 209.223743 
L 788.85 284.911459 
" style="fill:#f9f1ec;"/>
    <path clip-path="url(#p631b1b35f3)" d="M 863.775 284.911459 
L 938.7 284.911459 
L 938.7 209.223743 
L 863.775 209.223743 
L 863.775 284.911459 
" style="fill:#f9f1ec;"/>
    <path clip-path="url(#p631b1b35f3)" d="M 938.7 284.911459 
L 1013.625 284.911459 
L 1013.625 209.223743 
L 938.7 209.223743 
L 938.7 284.911459 
" style="fill:#f9f1ec;"/>
    <path clip-path="url(#p631b1b35f3)" d="M 1013.625 284.911459 
L 1088.55 284.911459 
L 1088.55 209.223743 
L 1013.625 209.223743 
L 1013.625 284.911459 
" style="fill:#f9f1ec;"/>
    <path clip-path="url(#p631b1b35f3)" d="M 1088.55 284.911459 
L 1163.475 284.911459 
L 1163.475 209.223743 
L 1088.55 209.223743 
L 1088.55 284.911459 
" style="fill:#f9f1ec;"/>
    <path clip-path="url(#p631b1b35f3)" d="M 1163.475 284.911459 
L 1238.4 284.911459 
L 1238.4 209.223743 
L 1163.475 209.223743 
L 1163.475 284.911459 
" style="fill:#f9f1ec;"/>
    <path clip-path="url(#p631b1b35f3)" d="M 639 209.223743 
L 713.925 209.223743 
L 713.925 133.536028 
L 639 133.536028 
L 639 209.223743 
" style="fill:#f9f1ec;"/>
    <path clip-path="url(#p631b1b35f3)" d="M 713.925 209.223743 
L 788.85 209.223743 
L 788.85 133.536028 
L 713.925 133.536028 
L 713.925 209.223743 
" style="fill:#2d1e3e;"/>
    <path clip-path="url(#p631b1b35f3)" d="M 788.85 209.223743 
L 863.775 209.223743 
L 863.775 133.536028 
L 788.85 133.536028 
L 788.85 209.223743 
" style="fill:#f9f1ec;"/>
    <path clip-path="url(#p631b1b35f3)" d="M 863.775 209.223743 
L 938.7 209.223743 
L 938.7 133.536028 
L 863.775 133.536028 
L 863.775 209.223743 
" style="fill:#f9f1ec;"/>
    <path clip-path="url(#p631b1b35f3)" d="M 938.7 209.223743 
L 1013.625 209.223743 
L 1013.625 133.536028 
L 938.7 133.536028 
L 938.7 209.223743 
" style="fill:#f9f1ec;"/>
    <path clip-path="url(#p631b1b35f3)" d="M 1013.625 209.223743 
L 1088.55 209.223743 
L 1088.55 133.536028 
L 1013.625 133.536028 
L 1013.625 209.223743 
" style="fill:#f9f1ec;"/>
    <path clip-path="url(#p631b1b35f3)" d="M 1088.55 209.223743 
L 1163.475 209.223743 
L 1163.475 133.536028 
L 1088.55 133.536028 
L 1088.55 209.223743 
" style="fill:#f9f1ec;"/>
    <path clip-path="url(#p631b1b35f3)" d="M 1163.475 209.223743 
L 1238.4 209.223743 
L 1238.4 133.536028 
L 1163.475 133.536028 
L 1163.475 209.223743 
" style="fill:#f9f1ec;"/>
    <path clip-path="url(#p631b1b35f3)" d="M 639 133.536028 
L 713.925 133.536028 
L 713.925 57.848313 
L 639 57.848313 
L 639 133.536028 
" style="fill:#2d1e3e;"/>
    <path clip-path="url(#p631b1b35f3)" d="M 713.925 133.536028 
L 788.85 133.536028 
L 788.85 57.848313 
L 713.925 57.848313 
L 713.925 133.536028 
" style="fill:#f9f1ec;"/>
    <path clip-path="url(#p631b1b35f3)" d="M 788.85 133.536028 
L 863.775 133.536028 
L 863.775 57.848313 
L 788.85 57.848313 
L 788.85 133.536028 
" style="fill:#f9f1ec;"/>
    <path clip-path="url(#p631b1b35f3)" d="M 863.775 133.536028 
L 938.7 133.536028 
L 938.7 57.848313 
L 863.775 57.848313 
L 863.775 133.536028 
" style="fill:#f9f1ec;"/>
    <path clip-path="url(#p631b1b35f3)" d="M 938.7 133.536028 
L 1013.625 133.536028 
L 1013.625 57.848313 
L 938.7 57.848313 
L 938.7 133.536028 
" style="fill:#f9f1ec;"/>
    <path clip-path="url(#p631b1b35f3)" d="M 1013.625 133.536028 
L 1088.55 133.536028 
L 1088.55 57.848313 
L 1013.625 57.848313 
L 1013.625 133.536028 
" style="fill:#f9f1ec;"/>
    <path clip-path="url(#p631b1b35f3)" d="M 1088.55 133.536028 
L 1163.475 133.536028 
L 1163.475 57.848313 
L 1088.55 57.848313 
L 1088.55 133.536028 
" style="fill:#f9f1ec;"/>
    <path clip-path="url(#p631b1b35f3)" d="M 1163.475 133.536028 
L 1238.4 133.536028 
L 1238.4 57.848313 
L 1163.475 57.848313 
L 1163.475 133.536028 
" style="fill:#f9f1ec;"/>
   </g>
   <g id="patch_3">
    <path d="M 788.85 663.350034 
L 1238.4 663.350034 
L 1238.4 213.008129 
L 788.85 213.008129 
L 788.85 663.350034 
z
" style="fill:none;stroke:#d55e00;stroke-linejoin:miter;stroke-width:10.0;"/>
   </g>
   <g id="patch_4">
    <path d="M 639 133.536028 
L 713.925 133.536028 
L 713.925 57.848313 
L 639 57.848313 
L 639 133.536028 
z
" style="fill:none;stroke:#d55e00;stroke-linejoin:miter;stroke-width:10.0;"/>
   </g>
   <g id="patch_5">
    <path d="M 713.925 209.223743 
L 788.85 209.223743 
L 788.85 133.536028 
L 713.925 133.536028 
L 713.925 209.223743 
z
" style="fill:none;stroke:#d55e00;stroke-linejoin:miter;stroke-width:10.0;"/>
   </g>
   <g id="line2d_17">
    <path d="M 796.3425 207.331551 
L 1238.4 207.331551 
" style="fill:none;stroke:#0072b2;stroke-linecap:round;stroke-width:10.0;"/>
   </g>
   <g id="line2d_18">
    <path d="M 1238.4 206.953112 
L 1238.4 57.848313 
" style="fill:none;stroke:#0072b2;stroke-linecap:round;stroke-width:10.0;"/>
   </g>
   <g id="line2d_19">
    <path d="M 719.16975 57.848313 
L 1238.4 57.848313 
" style="fill:none;stroke:#0072b2;stroke-linecap:round;stroke-width:10.0;"/>
   </g>
   <g id="line2d_20">
    <path d="M 719.16975 126.724134 
L 794.844 126.724134 
" style="fill:none;stroke:#0072b2;stroke-linecap:round;stroke-width:10.0;"/>
   </g>
   <g id="line2d_21">
    <path d="M 719.16975 126.724134 
L 719.16975 57.848313 
" style="fill:none;stroke:#0072b2;stroke-linecap:round;stroke-width:10.0;"/>
   </g>
   <g id="line2d_22">
    <path d="M 794.844 206.953112 
L 794.844 126.724134 
" style="fill:none;stroke:#0072b2;stroke-linecap:round;stroke-width:10.0;"/>
   </g>
   <g id="line2d_23">
    <path d="M 639 663.350034 
L 639 141.1048 
" style="fill:none;stroke:#0072b2;stroke-linecap:round;stroke-width:10.0;"/>
   </g>
   <g id="line2d_24">
    <path d="M 783.60525 663.350034 
L 783.60525 214.521884 
" style="fill:none;stroke:#0072b2;stroke-linecap:round;stroke-width:10.0;"/>
   </g>
   <g id="line2d_25">
    <path d="M 639 663.350034 
L 783.60525 663.350034 
" style="fill:none;stroke:#0072b2;stroke-linecap:round;stroke-width:10.0;"/>
   </g>
   <g id="line2d_26">
    <path d="M 639 139.591045 
L 709.4295 139.591045 
" style="fill:none;stroke:#0072b2;stroke-linecap:round;stroke-width:10.0;"/>
   </g>
   <g id="line2d_27">
    <path d="M 710.17875 214.521884 
L 780.60825 214.521884 
" style="fill:none;stroke:#0072b2;stroke-linecap:round;stroke-width:10.0;"/>
   </g>
   <g id="line2d_28">
    <path d="M 709.4295 214.521884 
L 709.4295 139.591045 
" style="fill:none;stroke:#0072b2;stroke-linecap:round;stroke-width:10.0;"/>
   </g>
   <g id="text_1">
    <g id="patch_6">
     <path d="M 934.7 372.350441 
L 1048.177278 372.350441 
L 1048.177278 328.925165 
L 934.7 328.925165 
z
" style="fill:#d55e00;stroke:#000000;stroke-linejoin:miter;stroke-width:0.3;"/>
    </g>
    <!-- ``Kite" -->
    <defs>
     <path d="M 15.09375 40 
L 29.09375 40 
L 29.09375 42.578125 
L 15.09375 42.578125 
L 15.09375 61 
L 13.296875 61 
C 13.09375 50.703125 9.59375 41.6875 1.09375 41.6875 
L 1.09375 40 
L 9.796875 40 
L 9.796875 12.046875 
C 9.796875 10.15625 9.796875 -1 21.40625 -1 
C 27.296875 -1 30.703125 4.78125 30.703125 12.140625 
L 30.703125 17.8125 
L 28.90625 17.8125 
L 28.90625 12.234375 
C 28.90625 5.375 26.203125 0.796875 22 0.796875 
C 19.09375 0.796875 15.09375 2.78125 15.09375 11.84375 
z
" id="CMR17-116"/>
     <path d="M 17.40625 48.265625 
C 17.203125 49.359375 17.09375 49.75 17.09375 51.453125 
C 17.09375 57.734375 19.59375 63.515625 23.5 67.609375 
C 23.90625 68 24.09375 68.296875 24.09375 68.703125 
C 24.09375 69.09375 23.703125 69.5 23.296875 69.5 
C 22.59375 69.5 15.5 62.515625 15.5 51.5625 
C 15.5 49.375 15.703125 42 20.90625 42 
C 23.09375 42 25 43.484375 25 46.078125 
C 25 48.65625 23.09375 50.15625 20.90625 50.15625 
C 20 50.15625 18.296875 49.859375 17.40625 48.265625 
M 35.703125 48.265625 
C 35.5 49.359375 35.40625 49.75 35.40625 51.453125 
C 35.40625 57.734375 37.90625 63.515625 41.796875 67.609375 
C 42.203125 68 42.40625 68.296875 42.40625 68.703125 
C 42.40625 69.09375 42 69.5 41.59375 69.5 
C 40.90625 69.5 33.796875 62.515625 33.796875 51.5625 
C 33.796875 49.375 34 42 39.203125 42 
C 41.40625 42 43.296875 43.484375 43.296875 46.078125 
C 43.296875 48.65625 41.40625 50.15625 39.203125 50.15625 
C 38.296875 50.15625 36.59375 49.859375 35.703125 48.265625 
" id="CMR17-92"/>
     <path d="M 10.09375 62.890625 
C 10.296875 61.796875 10.40625 61.390625 10.40625 59.6875 
C 10.40625 53.359375 7.90625 47.53125 4 43.40625 
C 3.59375 43 3.40625 42.703125 3.40625 42.296875 
C 3.40625 41.890625 3.796875 41.5 4.203125 41.5 
C 4.90625 41.5 12 48.515625 12 59.546875 
C 12 61.75 11.796875 69.15625 6.59375 69.15625 
C 4.40625 69.15625 2.5 67.671875 2.5 65.078125 
C 2.5 62.484375 4.40625 61 6.59375 61 
C 7.5 61 9.203125 61.296875 10.09375 62.890625 
M 28.40625 62.890625 
C 28.59375 61.796875 28.703125 61.390625 28.703125 59.6875 
C 28.703125 53.359375 26.203125 47.53125 22.296875 43.40625 
C 21.90625 43 21.703125 42.703125 21.703125 42.296875 
C 21.703125 41.890625 22.09375 41.5 22.5 41.5 
C 23.203125 41.5 30.296875 48.515625 30.296875 59.546875 
C 30.296875 61.75 30.09375 69.15625 24.90625 69.15625 
C 22.703125 69.15625 20.796875 67.671875 20.796875 65.078125 
C 20.796875 62.484375 22.703125 61 24.90625 61 
C 25.796875 61 27.5 61.296875 28.40625 62.890625 
" id="CMR17-34"/>
     <path d="M 15.5 61.078125 
C 15.5 63.265625 13.703125 65.15625 11.40625 65.15625 
C 9.203125 65.15625 7.296875 63.375 7.296875 61.078125 
C 7.296875 58.890625 9.09375 57 11.40625 57 
C 13.59375 57 15.5 58.796875 15.5 61.078125 
M 3.796875 42.28125 
L 3.796875 39.703125 
C 9.40625 39.703125 10.203125 39.09375 10.203125 34.328125 
L 10.203125 6.671875 
C 10.203125 2.875 9.796875 2.390625 3.40625 2.390625 
L 3.40625 -0.203125 
C 5.796875 0 10.09375 0 12.59375 0 
C 15 0 19.09375 0 21.40625 -0.203125 
L 21.40625 2.390625 
C 15.5 2.390625 15.296875 2.984375 15.296875 6.5625 
L 15.296875 43.375 
z
" id="CMR17-105"/>
     <path d="M 36.90625 41.796875 
L 54.203125 59.09375 
C 57.796875 62.59375 61.59375 65.40625 67.203125 65.40625 
L 67.203125 68 
C 65.203125 68 62.703125 68 60.703125 68 
C 58 68 53.296875 68 50.703125 68.09375 
L 50.703125 65.5 
C 53.296875 65.3125 53.703125 63.515625 53.703125 62.796875 
C 53.703125 62.109375 53.296875 61.015625 52.90625 60.421875 
L 19.703125 27.15625 
L 19.703125 60.9375 
C 19.703125 65.40625 20.796875 65.40625 27.703125 65.40625 
L 27.703125 68 
C 24.796875 68 19.5 68 16.40625 68 
C 13.296875 68 8 68 5.09375 68 
L 5.09375 65.40625 
C 12 65.40625 13.09375 65.40625 13.09375 60.9375 
L 13.09375 6.96875 
C 13.09375 2.5 12 2.5 5.09375 2.5 
L 5.09375 0 
C 8 0 13.296875 0 16.40625 0 
C 19.5 0 24.796875 0 27.703125 0 
L 27.703125 2.5 
C 20.796875 2.5 19.703125 2.5 19.703125 6.984375 
L 19.703125 24.671875 
L 32.5 37.34375 
L 51.40625 8.390625 
C 52 7.390625 52.703125 6.09375 52.703125 5.09375 
C 52.703125 2.5 49.90625 2.5 48.59375 2.5 
L 48.59375 0 
C 51.796875 0 56.40625 0 59.703125 0 
C 62.09375 0 66.203125 0 68.5 -0.09375 
L 68.5 2.5 
C 63.703125 2.5 62.203125 3.09375 59.203125 7.703125 
z
" id="CMR17-75"/>
     <path d="M 38.09375 23 
C 38.5 23.40625 38.5 23.609375 38.5 24.625 
C 38.5 34.96875 33.09375 44 21.703125 44 
C 11.09375 44 2.703125 33.890625 2.703125 21.609375 
C 2.703125 8.609375 12.203125 -1 22.796875 -1 
C 34 -1 38.40625 9.484375 38.40625 11.5625 
C 38.40625 12.25 37.796875 12.25 37.59375 12.25 
C 36.90625 12.25 36.796875 12.046875 36.40625 10.875 
C 34.203125 4.140625 28.703125 0.796875 23.5 0.796875 
C 19.203125 0.796875 14.90625 3.171875 12.203125 7.5 
C 9.09375 12.546875 9.09375 18.375 9.09375 23 
z
M 9.203125 24.5 
C 9.90625 39.140625 17.59375 42.40625 21.59375 42.40625 
C 28.40625 42.40625 33 35.890625 33.09375 24.5 
z
" id="CMR17-101"/>
    </defs>
    <g style="fill:#ffffff;" transform="translate(938.7 360.599173774)scale(0.4 -0.4)">
     <use transform="scale(0.996264009963)" xlink:href="#CMR17-92"/>
     <use transform="translate(45.6904771171 0.0)scale(0.996264009963)" xlink:href="#CMR17-75"/>
     <use transform="translate(117.365254441 0.0)scale(0.996264009963)" xlink:href="#CMR17-105"/>
     <use transform="translate(142.236312923 0.0)scale(0.996264009963)" xlink:href="#CMR17-116"/>
     <use transform="translate(177.517080723 0.0)scale(0.996264009963)" xlink:href="#CMR17-101"/>
     <use transform="translate(218.002741185 0.0)scale(0.996264009963)" xlink:href="#CMR17-34"/>
    </g>
   </g>
   <g id="text_2">
    <g id="patch_7">
     <path d="M 672.4625 372.350441 
L 739.967445 372.350441 
L 739.967445 328.925165 
L 672.4625 328.925165 
z
" style="fill:#0072b2;stroke:#000000;stroke-linejoin:miter;stroke-width:0.3;"/>
    </g>
    <!-- ``L" -->
    <defs>
     <path d="M 54.203125 25.234375 
L 52.40625 25.234375 
C 51.59375 15.359375 50.296875 2.59375 33.203125 2.59375 
L 23.90625 2.59375 
C 19.90625 2.59375 19.703125 3.078125 19.703125 6.46875 
L 19.703125 60.90625 
C 19.703125 64.515625 19.90625 65.5 27.5 65.5 
L 29.703125 65.5 
L 29.703125 68 
C 25.59375 68 20.796875 68 16.703125 68 
C 13.59375 68 8 68 5.09375 68 
L 5.09375 65.5 
C 12 65.5 13.09375 65.5 13.09375 61.03125 
L 13.09375 7.0625 
C 13.09375 2.59375 12 2.59375 5.09375 2.59375 
L 5.09375 0 
L 51.796875 0 
z
" id="CMR17-76"/>
    </defs>
    <g style="fill:#ffffff;" transform="translate(676.4625 360.599173774)scale(0.4 -0.4)">
     <use transform="scale(0.996264009963)" xlink:href="#CMR17-92"/>
     <use transform="translate(45.6904771171 0.0)scale(0.996264009963)" xlink:href="#CMR17-76"/>
     <use transform="translate(103.071884972 0.0)scale(0.996264009963)" xlink:href="#CMR17-34"/>
    </g>
   </g>
   <g id="text_3">
    <g id="patch_8">
     <path d="M 972.1625 164.209224 
L 1039.667445 164.209224 
L 1039.667445 120.783948 
L 972.1625 120.783948 
z
" style="fill:#0072b2;stroke:#000000;stroke-linejoin:miter;stroke-width:0.3;"/>
    </g>
    <!-- ``L" -->
    <g style="fill:#ffffff;" transform="translate(976.1625 152.457957076)scale(0.4 -0.4)">
     <use transform="scale(0.996264009963)" xlink:href="#CMR17-92"/>
     <use transform="translate(45.6904771171 0.0)scale(0.996264009963)" xlink:href="#CMR17-76"/>
     <use transform="translate(103.071884972 0.0)scale(0.996264009963)" xlink:href="#CMR17-34"/>
    </g>
   </g>
   <g id="text_4">
    <!-- Matrix Elements of $\hat{\rho}$ -->
    <defs>
     <path d="M 60.703125 25.234375 
L 58.90625 25.234375 
C 56.703125 10.5625 55.40625 2.59375 37.796875 2.59375 
L 23.90625 2.59375 
C 19.90625 2.59375 19.703125 3.078125 19.703125 6.46875 
L 19.703125 34 
L 29.09375 34 
C 38.5 34 39.40625 30.625 39.40625 22.34375 
L 41.203125 22.34375 
L 41.203125 48.140625 
L 39.40625 48.140625 
C 39.40625 39.953125 38.5 36.59375 29.09375 36.59375 
L 19.703125 36.59375 
L 19.703125 61.140625 
C 19.703125 64.5 19.90625 65 23.90625 65 
L 37.59375 65 
C 53.09375 65 54.90625 58.890625 56.296875 45.765625 
L 58.09375 45.765625 
L 55.703125 67.578125 
L 5.09375 67.578125 
L 5.09375 65 
C 12 65 13.09375 65 13.09375 60.53125 
L 13.09375 7.046875 
C 13.09375 2.59375 12 2.59375 5.09375 2.59375 
L 5.09375 0 
L 57.09375 0 
z
" id="CMR17-69"/>
     <path d="M 22.90625 69.078125 
L 10.59375 55.546875 
L 11.796875 54.34375 
L 22.90625 65.09375 
L 34 54.34375 
L 35.203125 55.546875 
z
" id="CMR17-94"/>
     <path d="M 36 25.828125 
C 36 32.375 36 35.84375 31.796875 39.734375 
C 28.09375 43 23.796875 44 20.40625 44 
C 12.5 44 6.796875 37.609375 6.796875 30.796875 
C 6.796875 27 9.796875 27 10.40625 27 
C 11.703125 27 14 27.78125 14 30.53125 
C 14 33 12.09375 34.078125 10.40625 34.078125 
C 10 34.078125 9.5 33.96875 9.203125 33.875 
C 11.296875 40.5 16.703125 42.40625 20.203125 42.40625 
C 25.203125 42.40625 30.703125 37.953125 30.703125 29.453125 
L 30.703125 25 
C 24.796875 25 17.703125 24.203125 12.09375 21.203125 
C 5.796875 17.703125 4 12.703125 4 8.90625 
C 4 1.203125 13 -1 18.296875 -1 
C 23.796875 -1 28.90625 2.171875 31.09375 7.984375 
C 31.296875 3.640625 34.09375 -0.28125 38.5 -0.28125 
C 40.59375 -0.28125 45.90625 1.09375 45.90625 8.859375 
L 45.90625 14.375 
L 44.09375 14.375 
L 44.09375 8.78125 
C 44.09375 2.78125 41.40625 2 40.09375 2 
C 36 2 36 7.15625 36 11.53125 
z
M 30.703125 13.59375 
C 30.703125 4.953125 24.5 0.59375 19 0.59375 
C 14 0.59375 10.09375 4.296875 10.09375 8.90625 
C 10.09375 11.890625 11.40625 17.1875 17.203125 20.390625 
C 22 23.09375 27.5 23.5 30.703125 23.5 
z
" id="CMR17-97"/>
     <path d="M 15.296875 40 
L 26.703125 40 
L 26.703125 42.578125 
L 15.09375 42.578125 
L 15.09375 54.59375 
C 15.09375 62.84375 19.296875 68 23.59375 68 
C 24.90625 68 26.40625 67.609375 27.40625 66.90625 
C 26.59375 66.703125 24.5 66.015625 24.5 63.53125 
C 24.5 60.953125 26.5 60.15625 27.90625 60.15625 
C 29.296875 60.15625 31.296875 60.953125 31.296875 63.546875 
C 31.296875 67.3125 27.703125 69.59375 23.703125 69.59375 
C 18 69.59375 10.203125 64.9375 10.203125 54.390625 
L 10.203125 42.578125 
L 2.203125 42.578125 
L 2.203125 40 
L 10.203125 40 
L 10.203125 6.671875 
C 10.203125 2.875 9.796875 2.390625 3.40625 2.390625 
L 3.40625 -0.203125 
C 5.796875 0 10.40625 0 13 0 
C 15.90625 0 21 0 23.703125 -0.203125 
L 23.703125 2.390625 
C 16.5 2.390625 15.296875 2.390625 15.296875 6.859375 
z
" id="CMR17-102"/>
     <path d="M 26 23.078125 
C 29 26.96875 32.40625 31.34375 35.203125 34.625 
C 38.5 38.40625 42.296875 40 46.703125 40 
L 46.703125 42.59375 
C 45 42.59375 41.5 42.59375 39.703125 42.59375 
C 37 42.59375 33.90625 42.59375 31.59375 42.6875 
L 31.59375 40.09375 
C 33 39.890625 33.796875 38.890625 33.796875 37.5 
C 33.796875 35.703125 32.796875 34.609375 32.296875 33.921875 
L 24.90625 24.578125 
L 16.09375 36.03125 
C 15.203125 37.125 15.203125 37.3125 15.203125 37.8125 
C 15.203125 39.015625 16.203125 40 17.90625 40 
L 17.90625 42.6875 
C 15.5 42.59375 11.203125 42.59375 8.703125 42.59375 
C 6 42.59375 2.796875 42.59375 0.59375 42.6875 
L 0.59375 40 
C 6 40 7.203125 39.59375 9.59375 36.609375 
L 21.09375 21.796875 
C 21.296875 21.59375 21.796875 21 21.796875 20.703125 
C 21.796875 20.296875 13.09375 9.671875 12 8.28125 
C 7.5 2.890625 2.796875 2.5 0.09375 2.5 
L 0.09375 0 
C 1.796875 0 5.296875 0 7.09375 0 
C 9.09375 0 13.5 0 15.296875 -0.09375 
L 15.296875 2.5 
C 14.703125 2.59375 13.09375 2.796875 13.09375 5.078125 
C 13.09375 6.875 13.90625 7.96875 14.796875 9.15625 
L 23.09375 19.3125 
L 31.796875 8 
C 32.59375 6.90625 33.796875 5.40625 33.796875 4.703125 
C 33.796875 3.296875 32.59375 2.5 31 2.5 
L 31 -0.09375 
C 33.40625 0 37.703125 0 40.203125 0 
C 42.90625 0 46.09375 0 48.296875 -0.09375 
L 48.296875 2.5 
C 43.296875 2.5 41.796875 2.6875 39.40625 5.78125 
z
" id="CMR17-120"/>
     <path d="M 20.90625 66 
C 20.296875 67.5 20.203125 67.5 18.09375 67.5 
L 5.296875 67.5 
L 5.296875 65 
C 12.203125 65 13.296875 65 13.296875 60.546875 
L 13.296875 9.53125 
C 13.296875 7.046875 13.296875 2.390625 5.296875 2.390625 
L 5.296875 -0.203125 
C 7.59375 0 11.796875 0 14.296875 0 
C 16.796875 0 21 0 23.296875 -0.203125 
L 23.296875 2.390625 
C 15.296875 2.390625 15.296875 7.046875 15.296875 9.53125 
L 15.296875 64.609375 
L 15.40625 64.609375 
L 38.90625 1.390625 
C 39.296875 0.390625 39.5 -0.203125 40.296875 -0.203125 
C 41.09375 -0.203125 41.296875 0.390625 41.703125 1.390625 
L 65.40625 65.09375 
L 65.5 65.09375 
L 65.5 6.84375 
C 65.5 2.390625 64.40625 2.390625 57.5 2.390625 
L 57.5 -0.203125 
C 60.203125 0 65.59375 0 68.5 0 
C 71.40625 0 76.90625 0 79.59375 -0.203125 
L 79.59375 2.390625 
C 72.703125 2.390625 71.59375 2.390625 71.59375 6.84375 
L 71.59375 60.546875 
C 71.59375 65 72.703125 65 79.59375 65 
L 79.59375 67.5 
L 66.90625 67.5 
C 64.796875 67.5 64.703125 67.40625 64.09375 65.90625 
L 42.5 7.84375 
z
" id="CMR17-77"/>
     <path d="M 15 23.390625 
C 15 33 19.09375 42 26.59375 42 
C 27.296875 42 28 41.90625 28.703125 41.59375 
C 28.703125 41.59375 26.5 40.890625 26.5 38.3125 
C 26.5 35.90625 28.40625 34.90625 29.90625 34.90625 
C 31.09375 34.90625 33.296875 35.609375 33.296875 38.40625 
C 33.296875 41.609375 30.09375 43.59375 26.703125 43.59375 
C 19.09375 43.59375 15.796875 36.203125 14.796875 32.703125 
L 14.703125 32.703125 
L 14.703125 43.59375 
L 3.09375 42.5 
L 3.09375 39.90625 
C 9 39.90625 9.90625 39.296875 9.90625 34.5 
L 9.90625 6.6875 
C 9.90625 2.875 9.5 2.390625 3.09375 2.390625 
L 3.09375 -0.203125 
C 5.5 0 10.09375 0 12.703125 0 
C 15.59375 0 20.703125 0 23.40625 -0.203125 
L 23.40625 2.390625 
C 16.203125 2.390625 15 2.390625 15 6.875 
z
" id="CMR17-114"/>
     <path d="M 30.90625 42.140625 
C 30.90625 43.953125 30.796875 44.046875 30.203125 44.046875 
C 29.796875 44.046875 29.703125 43.953125 28.5 42.453125 
C 28.203125 42.046875 27.296875 41.03125 27 40.640625 
C 23.796875 44.046875 19.296875 44.046875 17.59375 44.046875 
C 6.5 44.046875 2.5 38.234375 2.5 32.4375 
C 2.5 23.40625 12.703125 21.328125 15.59375 20.703125 
C 21.90625 19.421875 24.09375 19.015625 26.203125 17.203125 
C 27.5 16.015625 29.703125 13.8125 29.703125 10.21875 
C 29.703125 6 27.296875 0.59375 18.09375 0.59375 
C 9.40625 0.59375 6.296875 7.1875 4.5 15.953125 
C 4.203125 17.34375 4.203125 17.453125 3.40625 17.453125 
C 2.59375 17.453125 2.5 17.34375 2.5 15.359375 
L 2.5 0.984375 
C 2.5 -0.796875 2.59375 -0.90625 3.203125 -0.90625 
C 3.703125 -0.90625 3.796875 -0.796875 4.296875 0 
C 4.90625 0.890625 6.40625 3.296875 7 4.3125 
C 9 1.609375 12.5 -1 18.09375 -1 
C 28 -1 33.296875 4.421875 33.296875 12.25 
C 33.296875 17.375 30.59375 20.078125 29.296875 21.28125 
C 26.296875 24.390625 22.796875 25.09375 18.59375 25.890625 
C 13.09375 27.109375 6.09375 28.515625 6.09375 34.640625 
C 6.09375 37.234375 7.5 42.765625 17.59375 42.765625 
C 28.296875 42.765625 28.90625 32.71875 29.09375 29.5 
C 29.203125 29 29.703125 28.890625 30 28.890625 
C 30.90625 28.890625 30.90625 29.203125 30.90625 30.90625 
z
" id="CMR17-115"/>
     <path d="M 41.5 30.203125 
C 41.5 35.296875 40.5 43.59375 28.703125 43.59375 
C 20.796875 43.59375 16.703125 37.5 15.203125 33.5 
L 15.09375 33.5 
L 15.09375 43.59375 
L 3.296875 42.5 
L 3.296875 39.90625 
C 9.203125 39.90625 10.09375 39.296875 10.09375 34.5 
L 10.09375 6.6875 
C 10.09375 2.875 9.703125 2.390625 3.296875 2.390625 
L 3.296875 -0.203125 
C 5.703125 0 10.09375 0 12.703125 0 
C 15.296875 0 19.796875 0 22.203125 -0.203125 
L 22.203125 2.390625 
C 15.796875 2.390625 15.40625 2.78125 15.40625 6.6875 
L 15.40625 25.90625 
C 15.40625 35.109375 21 42 28 42 
C 35.40625 42 36.203125 35.40625 36.203125 30.59375 
L 36.203125 6.6875 
C 36.203125 2.875 35.796875 2.390625 29.40625 2.390625 
L 29.40625 -0.203125 
C 31.796875 0 36.203125 0 38.796875 0 
C 41.40625 0 45.90625 0 48.296875 -0.203125 
L 48.296875 2.390625 
C 41.90625 2.390625 41.5 2.78125 41.5 6.6875 
z
" id="CMR17-110"/>
     <path d="M 43.09375 21.1875 
C 43.09375 34 33.796875 44 22.90625 44 
C 12 44 2.703125 34 2.703125 21.1875 
C 2.703125 8.609375 12 -1 22.90625 -1 
C 33.796875 -1 43.09375 8.609375 43.09375 21.1875 
M 22.90625 0.796875 
C 18.203125 0.796875 14.203125 3.59375 11.90625 7.5 
C 9.40625 11.984375 9.09375 17.59375 9.09375 22 
C 9.09375 26.203125 9.296875 31.40625 11.90625 35.90625 
C 13.90625 39.203125 17.796875 42.40625 22.90625 42.40625 
C 27.40625 42.40625 31.203125 39.90625 33.59375 36.40625 
C 36.703125 31.703125 36.703125 25.109375 36.703125 22 
C 36.703125 18.09375 36.5 12.109375 33.796875 7.296875 
C 31 2.703125 26.703125 0.796875 22.90625 0.796875 
" id="CMR17-111"/>
     <path d="M 3.09375 -17.296875 
C 3 -17.796875 2.796875 -18.390625 2.796875 -19 
C 2.796875 -20.5 4 -21.5 5.5 -21.5 
C 7 -21.5 8.40625 -20.5 9 -19.09375 
C 9.40625 -18.1875 12.203125 -6.203125 15.40625 6.09375 
C 17.40625 1.09375 21.09375 -1 25 -1 
C 36.296875 -1 49.09375 12.96875 49.09375 28.046875 
C 49.09375 38.71875 42.59375 44 35.703125 44 
C 26.90625 44 16.203125 34.921875 12.90625 21.640625 
z
M 24.90625 1 
C 18.09375 1 16.40625 8.890625 16.40625 10.078125 
C 16.40625 10.6875 18.90625 20.234375 19.203125 21.734375 
C 24.296875 41.71875 34.09375 41.71875 35.59375 41.71875 
C 40.09375 41.71875 42.59375 37.65625 42.59375 31.8125 
C 42.59375 26.75 39.90625 16.9375 38.203125 12.796875 
C 35.203125 5.953125 30 1 24.90625 1 
" id="CMMI12-26"/>
     <path d="M 67.59375 30.203125 
C 67.59375 35.1875 66.703125 43.59375 54.796875 43.59375 
C 48 43.59375 43.296875 39 41.5 33.609375 
L 41.40625 33.609375 
C 40.203125 41.8125 34.296875 43.59375 28.703125 43.59375 
C 20.796875 43.59375 16.703125 37.5 15.203125 33.5 
L 15.09375 33.5 
L 15.09375 43.59375 
L 3.296875 42.5 
L 3.296875 39.90625 
C 9.203125 39.90625 10.09375 39.296875 10.09375 34.5 
L 10.09375 6.6875 
C 10.09375 2.875 9.703125 2.390625 3.296875 2.390625 
L 3.296875 -0.203125 
C 5.703125 0 10.09375 0 12.703125 0 
C 15.296875 0 19.796875 0 22.203125 -0.203125 
L 22.203125 2.390625 
C 15.796875 2.390625 15.40625 2.78125 15.40625 6.6875 
L 15.40625 25.90625 
C 15.40625 35.109375 21 42 28 42 
C 35.40625 42 36.203125 35.40625 36.203125 30.59375 
L 36.203125 6.6875 
C 36.203125 2.875 35.796875 2.390625 29.40625 2.390625 
L 29.40625 -0.203125 
C 31.796875 0 36.203125 0 38.796875 0 
C 41.40625 0 45.90625 0 48.296875 -0.203125 
L 48.296875 2.390625 
C 41.90625 2.390625 41.5 2.78125 41.5 6.6875 
L 41.5 25.90625 
C 41.5 35.109375 47.09375 42 54.09375 42 
C 61.5 42 62.296875 35.40625 62.296875 30.59375 
L 62.296875 6.6875 
C 62.296875 2.875 61.90625 2.390625 55.5 2.390625 
L 55.5 -0.203125 
C 57.90625 0 62.296875 0 64.90625 0 
C 67.5 0 72 0 74.40625 -0.203125 
L 74.40625 2.390625 
C 68 2.390625 67.59375 2.78125 67.59375 6.6875 
z
" id="CMR17-109"/>
     <path d="M 15.296875 68.6875 
L 3.40625 67.59375 
L 3.40625 65 
C 9.296875 65 10.203125 64.40625 10.203125 59.640625 
L 10.203125 6.65625 
C 10.203125 2.875 9.796875 2.390625 3.40625 2.390625 
L 3.40625 -0.203125 
C 5.796875 0 10.203125 0 12.703125 0 
C 15.296875 0 19.703125 0 22.09375 -0.203125 
L 22.09375 2.390625 
C 15.703125 2.390625 15.296875 2.78125 15.296875 6.65625 
z
" id="CMR17-108"/>
    </defs>
    <g style="fill:#262626;" transform="translate(767.030079645 40.7382786961)scale(0.4 -0.4)">
     <use transform="scale(0.996264009963)" xlink:href="#CMR17-77"/>
     <use transform="translate(84.6869405744 0.0)scale(0.996264009963)" xlink:href="#CMR17-97"/>
     <use transform="translate(130.377417691 0.0)scale(0.996264009963)" xlink:href="#CMR17-116"/>
     <use transform="translate(165.658185491 0.0)scale(0.996264009963)" xlink:href="#CMR17-114"/>
     <use transform="translate(200.93895329 0.0)scale(0.996264009963)" xlink:href="#CMR17-105"/>
     <use transform="translate(225.810011772 0.0)scale(0.996264009963)" xlink:href="#CMR17-120"/>
     <use transform="translate(304.178893967 0.0)scale(0.996264009963)" xlink:href="#CMR17-69"/>
     <use transform="translate(366.765194486 0.0)scale(0.996264009963)" xlink:href="#CMR17-108"/>
     <use transform="translate(391.636252967 0.0)scale(0.996264009963)" xlink:href="#CMR17-101"/>
     <use transform="translate(432.12191343 0.0)scale(0.996264009963)" xlink:href="#CMR17-109"/>
     <use transform="translate(509.041503298 0.0)scale(0.996264009963)" xlink:href="#CMR17-101"/>
     <use transform="translate(549.527163761 0.0)scale(0.996264009963)" xlink:href="#CMR17-110"/>
     <use transform="translate(597.820079609 0.0)scale(0.996264009963)" xlink:href="#CMR17-116"/>
     <use transform="translate(633.100847408 0.0)scale(0.996264009963)" xlink:href="#CMR17-115"/>
     <use transform="translate(698.97815139 0.0)scale(0.996264009963)" xlink:href="#CMR17-111"/>
     <use transform="translate(744.668628507 0.0)scale(0.996264009963)" xlink:href="#CMR17-102"/>
     <use transform="translate(812.659208267 0.0064607575109)scale(0.996264009963)" xlink:href="#CMR17-94"/>
     <use transform="translate(802.218107269 0.0)scale(0.996264009963)" xlink:href="#CMMI12-26"/>
    </g>
   </g>
  </g>
  <g id="axes_2">
   <g id="patch_9">
    <path d="M 7.2 663.350034 
L 606.6 663.350034 
L 606.6 57.848313 
L 7.2 57.848313 
z
" style="fill:#eaeaf2;"/>
   </g>
   <g id="matplotlib.axis_3">
    <g id="xtick_9">
     <g id="line2d_29">
      <g>
       <use style="fill:#262626;stroke:#262626;" x="44.6625" xlink:href="#m1612018bd1" y="663.350034426"/>
      </g>
     </g>
    </g>
    <g id="xtick_10">
     <g id="line2d_30">
      <g>
       <use style="fill:#262626;stroke:#262626;" x="119.5875" xlink:href="#m1612018bd1" y="663.350034426"/>
      </g>
     </g>
    </g>
    <g id="xtick_11">
     <g id="line2d_31">
      <g>
       <use style="fill:#262626;stroke:#262626;" x="194.5125" xlink:href="#m1612018bd1" y="663.350034426"/>
      </g>
     </g>
    </g>
    <g id="xtick_12">
     <g id="line2d_32">
      <g>
       <use style="fill:#262626;stroke:#262626;" x="269.4375" xlink:href="#m1612018bd1" y="663.350034426"/>
      </g>
     </g>
    </g>
    <g id="xtick_13">
     <g id="line2d_33">
      <g>
       <use style="fill:#262626;stroke:#262626;" x="344.3625" xlink:href="#m1612018bd1" y="663.350034426"/>
      </g>
     </g>
    </g>
    <g id="xtick_14">
     <g id="line2d_34">
      <g>
       <use style="fill:#262626;stroke:#262626;" x="419.2875" xlink:href="#m1612018bd1" y="663.350034426"/>
      </g>
     </g>
    </g>
    <g id="xtick_15">
     <g id="line2d_35">
      <g>
       <use style="fill:#262626;stroke:#262626;" x="494.2125" xlink:href="#m1612018bd1" y="663.350034426"/>
      </g>
     </g>
    </g>
    <g id="xtick_16">
     <g id="line2d_36">
      <g>
       <use style="fill:#262626;stroke:#262626;" x="569.1375" xlink:href="#m1612018bd1" y="663.350034426"/>
      </g>
     </g>
    </g>
   </g>
   <g id="matplotlib.axis_4">
    <g id="ytick_9">
     <g id="line2d_37">
      <g>
       <use style="fill:#262626;stroke:#262626;" x="7.2" xlink:href="#m1612018bd1" y="625.506176845"/>
      </g>
     </g>
    </g>
    <g id="ytick_10">
     <g id="line2d_38">
      <g>
       <use style="fill:#262626;stroke:#262626;" x="7.2" xlink:href="#m1612018bd1" y="549.818461682"/>
      </g>
     </g>
    </g>
    <g id="ytick_11">
     <g id="line2d_39">
      <g>
       <use style="fill:#262626;stroke:#262626;" x="7.2" xlink:href="#m1612018bd1" y="474.130746519"/>
      </g>
     </g>
    </g>
    <g id="ytick_12">
     <g id="line2d_40">
      <g>
       <use style="fill:#262626;stroke:#262626;" x="7.2" xlink:href="#m1612018bd1" y="398.443031356"/>
      </g>
     </g>
    </g>
    <g id="ytick_13">
     <g id="line2d_41">
      <g>
       <use style="fill:#262626;stroke:#262626;" x="7.2" xlink:href="#m1612018bd1" y="322.755316193"/>
      </g>
     </g>
    </g>
    <g id="ytick_14">
     <g id="line2d_42">
      <g>
       <use style="fill:#262626;stroke:#262626;" x="7.2" xlink:href="#m1612018bd1" y="247.06760103"/>
      </g>
     </g>
    </g>
    <g id="ytick_15">
     <g id="line2d_43">
      <g>
       <use style="fill:#262626;stroke:#262626;" x="7.2" xlink:href="#m1612018bd1" y="171.379885867"/>
      </g>
     </g>
    </g>
    <g id="ytick_16">
     <g id="line2d_44">
      <g>
       <use style="fill:#262626;stroke:#262626;" x="7.2" xlink:href="#m1612018bd1" y="95.6921707037"/>
      </g>
     </g>
    </g>
   </g>
   <g id="QuadMesh_2">
    <path clip-path="url(#p62020ad853)" d="M 7.2 663.350034 
L 82.125 663.350034 
L 82.125 587.662319 
L 7.2 587.662319 
L 7.2 663.350034 
" style="fill:#cf90a2;"/>
    <path clip-path="url(#p62020ad853)" d="M 82.125 663.350034 
L 157.05 663.350034 
L 157.05 587.662319 
L 82.125 587.662319 
L 82.125 663.350034 
" style="fill:#d295a5;"/>
    <path clip-path="url(#p62020ad853)" d="M 157.05 663.350034 
L 231.975 663.350034 
L 231.975 587.662319 
L 157.05 587.662319 
L 157.05 663.350034 
" style="fill:#f5e8e1;"/>
    <path clip-path="url(#p62020ad853)" d="M 231.975 663.350034 
L 306.9 663.350034 
L 306.9 587.662319 
L 231.975 587.662319 
L 231.975 663.350034 
" style="fill:#f5e6e0;"/>
    <path clip-path="url(#p62020ad853)" d="M 306.9 663.350034 
L 381.825 663.350034 
L 381.825 587.662319 
L 306.9 587.662319 
L 306.9 663.350034 
" style="fill:#f5e8e1;"/>
    <path clip-path="url(#p62020ad853)" d="M 381.825 663.350034 
L 456.75 663.350034 
L 456.75 587.662319 
L 381.825 587.662319 
L 381.825 663.350034 
" style="fill:#f5e8e1;"/>
    <path clip-path="url(#p62020ad853)" d="M 456.75 663.350034 
L 531.675 663.350034 
L 531.675 587.662319 
L 456.75 587.662319 
L 456.75 663.350034 
" style="fill:#f5e8e1;"/>
    <path clip-path="url(#p62020ad853)" d="M 531.675 663.350034 
L 606.6 663.350034 
L 606.6 587.662319 
L 531.675 587.662319 
L 531.675 663.350034 
" style="fill:#efd5cf;"/>
    <path clip-path="url(#p62020ad853)" d="M 7.2 587.662319 
L 82.125 587.662319 
L 82.125 511.974604 
L 7.2 511.974604 
L 7.2 587.662319 
" style="fill:#d194a4;"/>
    <path clip-path="url(#p62020ad853)" d="M 82.125 587.662319 
L 157.05 587.662319 
L 157.05 511.974604 
L 82.125 511.974604 
L 82.125 587.662319 
" style="fill:#cf90a2;"/>
    <path clip-path="url(#p62020ad853)" d="M 157.05 587.662319 
L 231.975 587.662319 
L 231.975 511.974604 
L 157.05 511.974604 
L 157.05 587.662319 
" style="fill:#f5e6e0;"/>
    <path clip-path="url(#p62020ad853)" d="M 231.975 587.662319 
L 306.9 587.662319 
L 306.9 511.974604 
L 231.975 511.974604 
L 231.975 587.662319 
" style="fill:#f5e6e0;"/>
    <path clip-path="url(#p62020ad853)" d="M 306.9 587.662319 
L 381.825 587.662319 
L 381.825 511.974604 
L 306.9 511.974604 
L 306.9 587.662319 
" style="fill:#f5e8e1;"/>
    <path clip-path="url(#p62020ad853)" d="M 381.825 587.662319 
L 456.75 587.662319 
L 456.75 511.974604 
L 381.825 511.974604 
L 381.825 587.662319 
" style="fill:#f5e8e1;"/>
    <path clip-path="url(#p62020ad853)" d="M 456.75 587.662319 
L 531.675 587.662319 
L 531.675 511.974604 
L 456.75 511.974604 
L 456.75 587.662319 
" style="fill:#eed2cc;"/>
    <path clip-path="url(#p62020ad853)" d="M 531.675 587.662319 
L 606.6 587.662319 
L 606.6 511.974604 
L 531.675 511.974604 
L 531.675 587.662319 
" style="fill:#f5e8e1;"/>
    <path clip-path="url(#p62020ad853)" d="M 7.2 511.974604 
L 82.125 511.974604 
L 82.125 436.286889 
L 7.2 436.286889 
L 7.2 511.974604 
" style="fill:#cf91a3;"/>
    <path clip-path="url(#p62020ad853)" d="M 82.125 511.974604 
L 157.05 511.974604 
L 157.05 436.286889 
L 82.125 436.286889 
L 82.125 511.974604 
" style="fill:#d093a4;"/>
    <path clip-path="url(#p62020ad853)" d="M 157.05 511.974604 
L 231.975 511.974604 
L 231.975 436.286889 
L 157.05 436.286889 
L 157.05 511.974604 
" style="fill:#f5e6e0;"/>
    <path clip-path="url(#p62020ad853)" d="M 231.975 511.974604 
L 306.9 511.974604 
L 306.9 436.286889 
L 231.975 436.286889 
L 231.975 511.974604 
" style="fill:#f5e6e0;"/>
    <path clip-path="url(#p62020ad853)" d="M 306.9 511.974604 
L 381.825 511.974604 
L 381.825 436.286889 
L 306.9 436.286889 
L 306.9 511.974604 
" style="fill:#f5e6e0;"/>
    <path clip-path="url(#p62020ad853)" d="M 381.825 511.974604 
L 456.75 511.974604 
L 456.75 436.286889 
L 381.825 436.286889 
L 381.825 511.974604 
" style="fill:#eed2cc;"/>
    <path clip-path="url(#p62020ad853)" d="M 456.75 511.974604 
L 531.675 511.974604 
L 531.675 436.286889 
L 456.75 436.286889 
L 456.75 511.974604 
" style="fill:#f5e8e1;"/>
    <path clip-path="url(#p62020ad853)" d="M 531.675 511.974604 
L 606.6 511.974604 
L 606.6 436.286889 
L 531.675 436.286889 
L 531.675 511.974604 
" style="fill:#f5e8e1;"/>
    <path clip-path="url(#p62020ad853)" d="M 7.2 436.286889 
L 82.125 436.286889 
L 82.125 360.599174 
L 7.2 360.599174 
L 7.2 436.286889 
" style="fill:#d093a4;"/>
    <path clip-path="url(#p62020ad853)" d="M 82.125 436.286889 
L 157.05 436.286889 
L 157.05 360.599174 
L 82.125 360.599174 
L 82.125 436.286889 
" style="fill:#cf90a2;"/>
    <path clip-path="url(#p62020ad853)" d="M 157.05 436.286889 
L 231.975 436.286889 
L 231.975 360.599174 
L 157.05 360.599174 
L 157.05 436.286889 
" style="fill:#f5e8e1;"/>
    <path clip-path="url(#p62020ad853)" d="M 231.975 436.286889 
L 306.9 436.286889 
L 306.9 360.599174 
L 231.975 360.599174 
L 231.975 436.286889 
" style="fill:#f5e6e0;"/>
    <path clip-path="url(#p62020ad853)" d="M 306.9 436.286889 
L 381.825 436.286889 
L 381.825 360.599174 
L 306.9 360.599174 
L 306.9 436.286889 
" style="fill:#efd6d0;"/>
    <path clip-path="url(#p62020ad853)" d="M 381.825 436.286889 
L 456.75 436.286889 
L 456.75 360.599174 
L 381.825 360.599174 
L 381.825 436.286889 
" style="fill:#f5e6e0;"/>
    <path clip-path="url(#p62020ad853)" d="M 456.75 436.286889 
L 531.675 436.286889 
L 531.675 360.599174 
L 456.75 360.599174 
L 456.75 436.286889 
" style="fill:#f5e8e1;"/>
    <path clip-path="url(#p62020ad853)" d="M 531.675 436.286889 
L 606.6 436.286889 
L 606.6 360.599174 
L 531.675 360.599174 
L 531.675 436.286889 
" style="fill:#f5e8e1;"/>
    <path clip-path="url(#p62020ad853)" d="M 7.2 360.599174 
L 82.125 360.599174 
L 82.125 284.911459 
L 7.2 284.911459 
L 7.2 360.599174 
" style="fill:#d194a4;"/>
    <path clip-path="url(#p62020ad853)" d="M 82.125 360.599174 
L 157.05 360.599174 
L 157.05 284.911459 
L 82.125 284.911459 
L 82.125 360.599174 
" style="fill:#d194a4;"/>
    <path clip-path="url(#p62020ad853)" d="M 157.05 360.599174 
L 231.975 360.599174 
L 231.975 284.911459 
L 157.05 284.911459 
L 157.05 360.599174 
" style="fill:#f5e5de;"/>
    <path clip-path="url(#p62020ad853)" d="M 231.975 360.599174 
L 306.9 360.599174 
L 306.9 284.911459 
L 231.975 284.911459 
L 231.975 360.599174 
" style="fill:#edcfc9;"/>
    <path clip-path="url(#p62020ad853)" d="M 306.9 360.599174 
L 381.825 360.599174 
L 381.825 284.911459 
L 306.9 284.911459 
L 306.9 360.599174 
" style="fill:#f5e6e0;"/>
    <path clip-path="url(#p62020ad853)" d="M 381.825 360.599174 
L 456.75 360.599174 
L 456.75 284.911459 
L 381.825 284.911459 
L 381.825 360.599174 
" style="fill:#f5e6e0;"/>
    <path clip-path="url(#p62020ad853)" d="M 456.75 360.599174 
L 531.675 360.599174 
L 531.675 284.911459 
L 456.75 284.911459 
L 456.75 360.599174 
" style="fill:#f5e6e0;"/>
    <path clip-path="url(#p62020ad853)" d="M 531.675 360.599174 
L 606.6 360.599174 
L 606.6 284.911459 
L 531.675 284.911459 
L 531.675 360.599174 
" style="fill:#f5e6e0;"/>
    <path clip-path="url(#p62020ad853)" d="M 7.2 284.911459 
L 82.125 284.911459 
L 82.125 209.223743 
L 7.2 209.223743 
L 7.2 284.911459 
" style="fill:#d397a6;"/>
    <path clip-path="url(#p62020ad853)" d="M 82.125 284.911459 
L 157.05 284.911459 
L 157.05 209.223743 
L 82.125 209.223743 
L 82.125 284.911459 
" style="fill:#cf91a3;"/>
    <path clip-path="url(#p62020ad853)" d="M 157.05 284.911459 
L 231.975 284.911459 
L 231.975 209.223743 
L 157.05 209.223743 
L 157.05 284.911459 
" style="fill:#edd0ca;"/>
    <path clip-path="url(#p62020ad853)" d="M 231.975 284.911459 
L 306.9 284.911459 
L 306.9 209.223743 
L 231.975 209.223743 
L 231.975 284.911459 
" style="fill:#f5e5de;"/>
    <path clip-path="url(#p62020ad853)" d="M 306.9 284.911459 
L 381.825 284.911459 
L 381.825 209.223743 
L 306.9 209.223743 
L 306.9 284.911459 
" style="fill:#f5e8e1;"/>
    <path clip-path="url(#p62020ad853)" d="M 381.825 284.911459 
L 456.75 284.911459 
L 456.75 209.223743 
L 381.825 209.223743 
L 381.825 284.911459 
" style="fill:#f5e6e0;"/>
    <path clip-path="url(#p62020ad853)" d="M 456.75 284.911459 
L 531.675 284.911459 
L 531.675 209.223743 
L 456.75 209.223743 
L 456.75 284.911459 
" style="fill:#f5e6e0;"/>
    <path clip-path="url(#p62020ad853)" d="M 531.675 284.911459 
L 606.6 284.911459 
L 606.6 209.223743 
L 531.675 209.223743 
L 531.675 284.911459 
" style="fill:#f5e8e1;"/>
    <path clip-path="url(#p62020ad853)" d="M 7.2 209.223743 
L 82.125 209.223743 
L 82.125 133.536028 
L 7.2 133.536028 
L 7.2 209.223743 
" style="fill:#d093a4;"/>
    <path clip-path="url(#p62020ad853)" d="M 82.125 209.223743 
L 157.05 209.223743 
L 157.05 133.536028 
L 82.125 133.536028 
L 82.125 209.223743 
" style="fill:#3b264b;"/>
    <path clip-path="url(#p62020ad853)" d="M 157.05 209.223743 
L 231.975 209.223743 
L 231.975 133.536028 
L 157.05 133.536028 
L 157.05 209.223743 
" style="fill:#cf91a3;"/>
    <path clip-path="url(#p62020ad853)" d="M 231.975 209.223743 
L 306.9 209.223743 
L 306.9 133.536028 
L 231.975 133.536028 
L 231.975 209.223743 
" style="fill:#d194a4;"/>
    <path clip-path="url(#p62020ad853)" d="M 306.9 209.223743 
L 381.825 209.223743 
L 381.825 133.536028 
L 306.9 133.536028 
L 306.9 209.223743 
" style="fill:#cf90a2;"/>
    <path clip-path="url(#p62020ad853)" d="M 381.825 209.223743 
L 456.75 209.223743 
L 456.75 133.536028 
L 381.825 133.536028 
L 381.825 209.223743 
" style="fill:#d093a4;"/>
    <path clip-path="url(#p62020ad853)" d="M 456.75 209.223743 
L 531.675 209.223743 
L 531.675 133.536028 
L 456.75 133.536028 
L 456.75 209.223743 
" style="fill:#cf90a2;"/>
    <path clip-path="url(#p62020ad853)" d="M 531.675 209.223743 
L 606.6 209.223743 
L 606.6 133.536028 
L 531.675 133.536028 
L 531.675 209.223743 
" style="fill:#d295a5;"/>
    <path clip-path="url(#p62020ad853)" d="M 7.2 133.536028 
L 82.125 133.536028 
L 82.125 57.848313 
L 7.2 57.848313 
L 7.2 133.536028 
" style="fill:#2d1e3e;"/>
    <path clip-path="url(#p62020ad853)" d="M 82.125 133.536028 
L 157.05 133.536028 
L 157.05 57.848313 
L 82.125 57.848313 
L 82.125 133.536028 
" style="fill:#d093a4;"/>
    <path clip-path="url(#p62020ad853)" d="M 157.05 133.536028 
L 231.975 133.536028 
L 231.975 57.848313 
L 157.05 57.848313 
L 157.05 133.536028 
" style="fill:#d397a6;"/>
    <path clip-path="url(#p62020ad853)" d="M 231.975 133.536028 
L 306.9 133.536028 
L 306.9 57.848313 
L 231.975 57.848313 
L 231.975 133.536028 
" style="fill:#d194a4;"/>
    <path clip-path="url(#p62020ad853)" d="M 306.9 133.536028 
L 381.825 133.536028 
L 381.825 57.848313 
L 306.9 57.848313 
L 306.9 133.536028 
" style="fill:#d093a4;"/>
    <path clip-path="url(#p62020ad853)" d="M 381.825 133.536028 
L 456.75 133.536028 
L 456.75 57.848313 
L 381.825 57.848313 
L 381.825 133.536028 
" style="fill:#cf91a3;"/>
    <path clip-path="url(#p62020ad853)" d="M 456.75 133.536028 
L 531.675 133.536028 
L 531.675 57.848313 
L 456.75 57.848313 
L 456.75 133.536028 
" style="fill:#d194a4;"/>
    <path clip-path="url(#p62020ad853)" d="M 531.675 133.536028 
L 606.6 133.536028 
L 606.6 57.848313 
L 531.675 57.848313 
L 531.675 133.536028 
" style="fill:#cf90a2;"/>
   </g>
   <g id="patch_10">
    <path d="M 157.05 663.350034 
L 606.6 663.350034 
L 606.6 213.008129 
L 157.05 213.008129 
L 157.05 663.350034 
z
" style="fill:none;stroke:#d55e00;stroke-linejoin:miter;stroke-width:10.0;"/>
   </g>
   <g id="patch_11">
    <path d="M 7.2 133.536028 
L 82.125 133.536028 
L 82.125 57.848313 
L 7.2 57.848313 
L 7.2 133.536028 
z
" style="fill:none;stroke:#d55e00;stroke-linejoin:miter;stroke-width:10.0;"/>
   </g>
   <g id="patch_12">
    <path d="M 82.125 209.223743 
L 157.05 209.223743 
L 157.05 133.536028 
L 82.125 133.536028 
L 82.125 209.223743 
z
" style="fill:none;stroke:#d55e00;stroke-linejoin:miter;stroke-width:10.0;"/>
   </g>
   <g id="line2d_45">
    <path d="M 164.5425 207.331551 
L 606.6 207.331551 
" style="fill:none;stroke:#0072b2;stroke-linecap:round;stroke-width:10.0;"/>
   </g>
   <g id="line2d_46">
    <path d="M 606.6 206.953112 
L 606.6 57.848313 
" style="fill:none;stroke:#0072b2;stroke-linecap:round;stroke-width:10.0;"/>
   </g>
   <g id="line2d_47">
    <path d="M 87.36975 57.848313 
L 606.6 57.848313 
" style="fill:none;stroke:#0072b2;stroke-linecap:round;stroke-width:10.0;"/>
   </g>
   <g id="line2d_48">
    <path d="M 87.36975 126.724134 
L 163.044 126.724134 
" style="fill:none;stroke:#0072b2;stroke-linecap:round;stroke-width:10.0;"/>
   </g>
   <g id="line2d_49">
    <path d="M 87.36975 126.724134 
L 87.36975 57.848313 
" style="fill:none;stroke:#0072b2;stroke-linecap:round;stroke-width:10.0;"/>
   </g>
   <g id="line2d_50">
    <path d="M 163.044 206.953112 
L 163.044 126.724134 
" style="fill:none;stroke:#0072b2;stroke-linecap:round;stroke-width:10.0;"/>
   </g>
   <g id="line2d_51">
    <path d="M 7.2 663.350034 
L 7.2 141.1048 
" style="fill:none;stroke:#0072b2;stroke-linecap:round;stroke-width:10.0;"/>
   </g>
   <g id="line2d_52">
    <path d="M 151.80525 663.350034 
L 151.80525 214.521884 
" style="fill:none;stroke:#0072b2;stroke-linecap:round;stroke-width:10.0;"/>
   </g>
   <g id="line2d_53">
    <path d="M 7.2 663.350034 
L 151.80525 663.350034 
" style="fill:none;stroke:#0072b2;stroke-linecap:round;stroke-width:10.0;"/>
   </g>
   <g id="line2d_54">
    <path d="M 7.2 139.591045 
L 77.6295 139.591045 
" style="fill:none;stroke:#0072b2;stroke-linecap:round;stroke-width:10.0;"/>
   </g>
   <g id="line2d_55">
    <path d="M 78.37875 214.521884 
L 148.80825 214.521884 
" style="fill:none;stroke:#0072b2;stroke-linecap:round;stroke-width:10.0;"/>
   </g>
   <g id="line2d_56">
    <path d="M 77.6295 214.521884 
L 77.6295 139.591045 
" style="fill:none;stroke:#0072b2;stroke-linecap:round;stroke-width:10.0;"/>
   </g>
   <g id="text_5">
    <!-- 1 -->
    <defs>
     <path d="M 26.59375 63.40625 
C 26.59375 65.5 26.5 65.5 25.09375 65.5 
C 21.203125 61.1875 15.296875 59.796875 9.703125 59.796875 
C 9.40625 59.796875 8.90625 59.796875 8.796875 59.5 
C 8.703125 59.296875 8.703125 59.09375 8.703125 57 
C 11.796875 57 17 57.59375 21 59.984375 
L 21 7.203125 
C 21 3.6875 20.796875 2.5 12.203125 2.5 
L 9.203125 2.5 
L 9.203125 0 
C 14 0 19 0 23.796875 0 
C 28.59375 0 33.59375 0 38.40625 0 
L 38.40625 2.5 
L 35.40625 2.5 
C 26.796875 2.5 26.59375 3.59375 26.59375 7.15625 
z
" id="CMR17-49"/>
    </defs>
    <g style="fill:#ffffff;" transform="translate(38.2658332036 632.47913561)scale(0.28 -0.28)">
     <use transform="scale(0.996264009963)" xlink:href="#CMR17-49"/>
    </g>
   </g>
   <g id="text_6">
    <!-- 0.98 -->
    <defs>
     <path d="M 42 31.640625 
C 42 37.75 41.90625 48.125 37.703125 56.109375 
C 34 63.109375 28.09375 65.59375 22.90625 65.59375 
C 18.09375 65.59375 12 63.40625 8.203125 56.203125 
C 4.203125 48.71875 3.796875 39.4375 3.796875 31.640625 
C 3.796875 25.953125 3.90625 17.28125 7 9.671875 
C 11.296875 -0.609375 19 -2 22.90625 -2 
C 27.5 -2 34.5 -0.109375 38.59375 9.375 
C 41.59375 16.28125 42 24.359375 42 31.640625 
M 22.90625 -0.40625 
C 16.5 -0.40625 12.703125 5.078125 11.296875 12.6875 
C 10.203125 18.5625 10.203125 27.15625 10.203125 32.75 
C 10.203125 40.4375 10.203125 46.828125 11.5 52.921875 
C 13.40625 61.390625 19 64 22.90625 64 
C 27 64 32.296875 61.296875 34.203125 53.125 
C 35.5 47.4375 35.59375 40.734375 35.59375 32.75 
C 35.59375 26.25 35.59375 18.265625 34.40625 12.375 
C 32.296875 1.484375 26.40625 -0.40625 22.90625 -0.40625 
" id="CMR17-48"/>
     <path d="M 16.59375 4.078125 
C 16.59375 6.5625 14.59375 8.15625 12.5 8.15625 
C 10.5 8.15625 8.40625 6.5625 8.40625 4.078125 
C 8.40625 1.59375 10.40625 0 12.5 0 
C 14.5 0 16.59375 1.59375 16.59375 4.078125 
" id="CMR17-46"/>
     <path d="M 27.203125 35.375 
C 33.5 38.546875 39.90625 43.328125 39.90625 50.984375 
C 39.90625 60.015625 31.09375 65.296875 23 65.296875 
C 13.90625 65.296875 5.90625 58.734375 5.90625 49.6875 
C 5.90625 47.203125 6.5 42.921875 10.40625 39.140625 
C 11.40625 38.15625 15.59375 35.171875 18.296875 33.28125 
C 13.796875 30.984375 3.296875 25.53125 3.296875 14.59375 
C 3.296875 4.359375 13.09375 -2 22.796875 -2 
C 33.5 -2 42.5 5.65625 42.5 15.78125 
C 42.5 24.84375 36.40625 29.015625 32.40625 31.703125 
z
M 14.09375 44.09375 
C 13.296875 44.59375 9.296875 47.671875 9.296875 52.359375 
C 9.296875 58.421875 15.59375 63 22.796875 63 
C 30.703125 63 36.5 57.4375 36.5 50.96875 
C 36.5 41.703125 26.09375 36.421875 25.59375 36.421875 
C 25.5 36.421875 25.40625 36.421875 24.59375 37.03125 
z
M 32.5 23.734375 
C 34 22.640625 38.796875 19.375 38.796875 13.296875 
C 38.796875 5.953125 31.40625 0.390625 23 0.390625 
C 13.90625 0.390625 7 6.84375 7 14.6875 
C 7 22.546875 13.09375 29.09375 20 32.1875 
z
" id="CMR17-56"/>
     <path d="M 35.203125 29.125 
C 35.203125 7.25 26.09375 0.484375 18.59375 0.484375 
C 16.296875 0.484375 10.703125 0.484375 8.40625 4.59375 
C 11 4.1875 12.90625 5.578125 12.90625 8.09375 
C 12.90625 10.8125 10.703125 11.703125 9.296875 11.703125 
C 8.40625 11.703125 5.703125 11.296875 5.703125 7.90625 
C 5.703125 1.109375 11.59375 -2 18.796875 -2 
C 30.296875 -2 42 10.53125 42 32.390625 
C 42 59.640625 30.796875 65.296875 23.203125 65.296875 
C 13.296875 65.296875 3.796875 56.6875 3.796875 43.40625 
C 3.796875 31.109375 11.90625 22 22.09375 22 
C 30.5 22 34.203125 29.734375 35.203125 33 
z
M 22.296875 23.59375 
C 19.59375 23.59375 15.796875 24.09375 12.703125 30.03125 
C 10.59375 33.890625 10.59375 38.453125 10.59375 43.296875 
C 10.59375 49.15625 10.59375 53.203125 13.40625 57.5625 
C 14.796875 59.640625 17.40625 63 23.203125 63 
C 35 63 35 45.078125 35 41.125 
C 35 34.09375 31.796875 23.59375 22.296875 23.59375 
" id="CMR17-57"/>
    </defs>
    <g style="fill:#ffffff;" transform="translate(96.9155541597 632.47913561)scale(0.28 -0.28)">
     <use transform="scale(0.996264009963)" xlink:href="#CMR17-48"/>
     <use transform="translate(45.6904771171 0.0)scale(0.996264009963)" xlink:href="#CMR17-46"/>
     <use transform="translate(70.5615355989 0.0)scale(0.996264009963)" xlink:href="#CMR17-57"/>
     <use transform="translate(116.252012716 0.0)scale(0.996264009963)" xlink:href="#CMR17-56"/>
    </g>
   </g>
   <g id="text_7">
    <!-- 0.12 -->
    <defs>
     <path d="M 41.703125 15.453125 
L 39.90625 15.453125 
C 38.90625 8.375 38.09375 7.171875 37.703125 6.5625 
C 37.203125 5.765625 30 5.765625 28.59375 5.765625 
L 9.40625 5.765625 
C 13 9.671875 20 16.75 28.5 24.953125 
C 34.59375 30.734375 41.703125 37.53125 41.703125 47.421875 
C 41.703125 59.21875 32.296875 66 21.796875 66 
C 10.796875 66 4.09375 56.3125 4.09375 47.34375 
C 4.09375 43.4375 7 42.9375 8.203125 42.9375 
C 9.203125 42.9375 12.203125 43.546875 12.203125 47.03125 
C 12.203125 50.109375 9.59375 51 8.203125 51 
C 7.59375 51 7 50.90625 6.59375 50.703125 
C 8.5 59.21875 14.296875 63.40625 20.40625 63.40625 
C 29.09375 63.40625 34.796875 56.515625 34.796875 47.421875 
C 34.796875 38.734375 29.703125 31.25 24 24.75 
L 4.09375 2.28125 
L 4.09375 0 
L 39.296875 0 
z
" id="CMR17-50"/>
    </defs>
    <g style="fill:#262626;" transform="translate(171.84055416 632.47913561)scale(0.28 -0.28)">
     <use transform="scale(0.996264009963)" xlink:href="#CMR17-48"/>
     <use transform="translate(45.6904771171 0.0)scale(0.996264009963)" xlink:href="#CMR17-46"/>
     <use transform="translate(70.5615355989 0.0)scale(0.996264009963)" xlink:href="#CMR17-49"/>
     <use transform="translate(116.252012716 0.0)scale(0.996264009963)" xlink:href="#CMR17-50"/>
    </g>
   </g>
   <g id="text_8">
    <!-- 0.12 -->
    <g style="fill:#262626;" transform="translate(246.76555416 632.47913561)scale(0.28 -0.28)">
     <use transform="scale(0.996264009963)" xlink:href="#CMR17-48"/>
     <use transform="translate(45.6904771171 0.0)scale(0.996264009963)" xlink:href="#CMR17-46"/>
     <use transform="translate(70.5615355989 0.0)scale(0.996264009963)" xlink:href="#CMR17-49"/>
     <use transform="translate(116.252012716 0.0)scale(0.996264009963)" xlink:href="#CMR17-50"/>
    </g>
   </g>
   <g id="text_9">
    <!-- 0.12 -->
    <g style="fill:#262626;" transform="translate(321.69055416 632.47913561)scale(0.28 -0.28)">
     <use transform="scale(0.996264009963)" xlink:href="#CMR17-48"/>
     <use transform="translate(45.6904771171 0.0)scale(0.996264009963)" xlink:href="#CMR17-46"/>
     <use transform="translate(70.5615355989 0.0)scale(0.996264009963)" xlink:href="#CMR17-49"/>
     <use transform="translate(116.252012716 0.0)scale(0.996264009963)" xlink:href="#CMR17-50"/>
    </g>
   </g>
   <g id="text_10">
    <!-- 0.11 -->
    <g style="fill:#262626;" transform="translate(396.61555416 632.47913561)scale(0.28 -0.28)">
     <use transform="scale(0.996264009963)" xlink:href="#CMR17-48"/>
     <use transform="translate(45.6904771171 0.0)scale(0.996264009963)" xlink:href="#CMR17-46"/>
     <use transform="translate(70.5615355989 0.0)scale(0.996264009963)" xlink:href="#CMR17-49"/>
     <use transform="translate(116.252012716 0.0)scale(0.996264009963)" xlink:href="#CMR17-49"/>
    </g>
   </g>
   <g id="text_11">
    <!-- 0.11 -->
    <g style="fill:#262626;" transform="translate(471.54055416 632.47913561)scale(0.28 -0.28)">
     <use transform="scale(0.996264009963)" xlink:href="#CMR17-48"/>
     <use transform="translate(45.6904771171 0.0)scale(0.996264009963)" xlink:href="#CMR17-46"/>
     <use transform="translate(70.5615355989 0.0)scale(0.996264009963)" xlink:href="#CMR17-49"/>
     <use transform="translate(116.252012716 0.0)scale(0.996264009963)" xlink:href="#CMR17-49"/>
    </g>
   </g>
   <g id="text_12">
    <!-- 0.3 -->
    <defs>
     <path d="M 22.09375 33.703125 
C 31 33.703125 34.90625 25.96875 34.90625 17.03125 
C 34.90625 5 28.5 0.390625 22.703125 0.390625 
C 17.40625 0.390625 8.796875 3.03125 6.09375 10.828125 
C 6.59375 10.625 7.09375 10.625 7.59375 10.625 
C 10 10.625 11.796875 12.21875 11.796875 14.8125 
C 11.796875 17.703125 9.59375 19 7.59375 19 
C 5.90625 19 3.296875 18.203125 3.296875 14.46875 
C 3.296875 5.234375 12.296875 -2 22.90625 -2 
C 34 -2 42.5 6.71875 42.5 16.953125 
C 42.5 26.671875 34.5 33.6875 25 34.796875 
C 32.59375 36.375 39.90625 43.0625 39.90625 52.015625 
C 39.90625 59.6875 32 65.296875 23 65.296875 
C 13.90625 65.296875 5.90625 59.828125 5.90625 52.015625 
C 5.90625 48.59375 8.5 48 9.796875 48 
C 11.90625 48 13.703125 49.296875 13.703125 51.890625 
C 13.703125 54.46875 11.90625 55.765625 9.796875 55.765625 
C 9.40625 55.765625 8.90625 55.765625 8.5 55.578125 
C 11.40625 61.859375 19.296875 63 22.796875 63 
C 26.296875 63 32.90625 61.328125 32.90625 51.875 
C 32.90625 49.109375 32.5 44.1875 29.09375 39.84375 
C 26.09375 36 22.703125 36 19.40625 35.6875 
C 18.90625 35.6875 16.59375 35.453125 16.203125 35.453125 
C 15.5 35.359375 15.09375 35.265625 15.09375 34.5 
C 15.09375 33.796875 15.203125 33.703125 17.203125 33.703125 
z
" id="CMR17-51"/>
    </defs>
    <g style="fill:#262626;" transform="translate(552.862220956 632.47913561)scale(0.28 -0.28)">
     <use transform="scale(0.996264009963)" xlink:href="#CMR17-48"/>
     <use transform="translate(45.6904771171 0.0)scale(0.996264009963)" xlink:href="#CMR17-46"/>
     <use transform="translate(70.5615355989 0.0)scale(0.996264009963)" xlink:href="#CMR17-51"/>
    </g>
   </g>
   <g id="text_13">
    <!-- 1 -->
    <g style="fill:#ffffff;" transform="translate(38.2658332036 556.791420447)scale(0.28 -0.28)">
     <use transform="scale(0.996264009963)" xlink:href="#CMR17-49"/>
    </g>
   </g>
   <g id="text_14">
    <!-- 1 -->
    <g style="fill:#ffffff;" transform="translate(113.190833204 556.791420447)scale(0.28 -0.28)">
     <use transform="scale(0.996264009963)" xlink:href="#CMR17-49"/>
    </g>
   </g>
   <g id="text_15">
    <!-- 0.12 -->
    <g style="fill:#262626;" transform="translate(171.84055416 556.791420447)scale(0.28 -0.28)">
     <use transform="scale(0.996264009963)" xlink:href="#CMR17-48"/>
     <use transform="translate(45.6904771171 0.0)scale(0.996264009963)" xlink:href="#CMR17-46"/>
     <use transform="translate(70.5615355989 0.0)scale(0.996264009963)" xlink:href="#CMR17-49"/>
     <use transform="translate(116.252012716 0.0)scale(0.996264009963)" xlink:href="#CMR17-50"/>
    </g>
   </g>
   <g id="text_16">
    <!-- 0.12 -->
    <g style="fill:#262626;" transform="translate(246.76555416 556.791420447)scale(0.28 -0.28)">
     <use transform="scale(0.996264009963)" xlink:href="#CMR17-48"/>
     <use transform="translate(45.6904771171 0.0)scale(0.996264009963)" xlink:href="#CMR17-46"/>
     <use transform="translate(70.5615355989 0.0)scale(0.996264009963)" xlink:href="#CMR17-49"/>
     <use transform="translate(116.252012716 0.0)scale(0.996264009963)" xlink:href="#CMR17-50"/>
    </g>
   </g>
   <g id="text_17">
    <!-- 0.11 -->
    <g style="fill:#262626;" transform="translate(321.69055416 556.791420447)scale(0.28 -0.28)">
     <use transform="scale(0.996264009963)" xlink:href="#CMR17-48"/>
     <use transform="translate(45.6904771171 0.0)scale(0.996264009963)" xlink:href="#CMR17-46"/>
     <use transform="translate(70.5615355989 0.0)scale(0.996264009963)" xlink:href="#CMR17-49"/>
     <use transform="translate(116.252012716 0.0)scale(0.996264009963)" xlink:href="#CMR17-49"/>
    </g>
   </g>
   <g id="text_18">
    <!-- 0.12 -->
    <g style="fill:#262626;" transform="translate(396.61555416 556.791420447)scale(0.28 -0.28)">
     <use transform="scale(0.996264009963)" xlink:href="#CMR17-48"/>
     <use transform="translate(45.6904771171 0.0)scale(0.996264009963)" xlink:href="#CMR17-46"/>
     <use transform="translate(70.5615355989 0.0)scale(0.996264009963)" xlink:href="#CMR17-49"/>
     <use transform="translate(116.252012716 0.0)scale(0.996264009963)" xlink:href="#CMR17-50"/>
    </g>
   </g>
   <g id="text_19">
    <!-- 0.33 -->
    <g style="fill:#262626;" transform="translate(471.54055416 556.791420447)scale(0.28 -0.28)">
     <use transform="scale(0.996264009963)" xlink:href="#CMR17-48"/>
     <use transform="translate(45.6904771171 0.0)scale(0.996264009963)" xlink:href="#CMR17-46"/>
     <use transform="translate(70.5615355989 0.0)scale(0.996264009963)" xlink:href="#CMR17-51"/>
     <use transform="translate(116.252012716 0.0)scale(0.996264009963)" xlink:href="#CMR17-51"/>
    </g>
   </g>
   <g id="text_20">
    <!-- 0.11 -->
    <g style="fill:#262626;" transform="translate(546.46555416 556.791420447)scale(0.28 -0.28)">
     <use transform="scale(0.996264009963)" xlink:href="#CMR17-48"/>
     <use transform="translate(45.6904771171 0.0)scale(0.996264009963)" xlink:href="#CMR17-46"/>
     <use transform="translate(70.5615355989 0.0)scale(0.996264009963)" xlink:href="#CMR17-49"/>
     <use transform="translate(116.252012716 0.0)scale(0.996264009963)" xlink:href="#CMR17-49"/>
    </g>
   </g>
   <g id="text_21">
    <!-- 1 -->
    <g style="fill:#ffffff;" transform="translate(38.2658332036 481.103705284)scale(0.28 -0.28)">
     <use transform="scale(0.996264009963)" xlink:href="#CMR17-49"/>
    </g>
   </g>
   <g id="text_22">
    <!-- 1 -->
    <g style="fill:#ffffff;" transform="translate(113.190833204 481.103705284)scale(0.28 -0.28)">
     <use transform="scale(0.996264009963)" xlink:href="#CMR17-49"/>
    </g>
   </g>
   <g id="text_23">
    <!-- 0.12 -->
    <g style="fill:#262626;" transform="translate(171.84055416 481.103705284)scale(0.28 -0.28)">
     <use transform="scale(0.996264009963)" xlink:href="#CMR17-48"/>
     <use transform="translate(45.6904771171 0.0)scale(0.996264009963)" xlink:href="#CMR17-46"/>
     <use transform="translate(70.5615355989 0.0)scale(0.996264009963)" xlink:href="#CMR17-49"/>
     <use transform="translate(116.252012716 0.0)scale(0.996264009963)" xlink:href="#CMR17-50"/>
    </g>
   </g>
   <g id="text_24">
    <!-- 0.12 -->
    <g style="fill:#262626;" transform="translate(246.76555416 481.103705284)scale(0.28 -0.28)">
     <use transform="scale(0.996264009963)" xlink:href="#CMR17-48"/>
     <use transform="translate(45.6904771171 0.0)scale(0.996264009963)" xlink:href="#CMR17-46"/>
     <use transform="translate(70.5615355989 0.0)scale(0.996264009963)" xlink:href="#CMR17-49"/>
     <use transform="translate(116.252012716 0.0)scale(0.996264009963)" xlink:href="#CMR17-50"/>
    </g>
   </g>
   <g id="text_25">
    <!-- 0.12 -->
    <g style="fill:#262626;" transform="translate(321.69055416 481.103705284)scale(0.28 -0.28)">
     <use transform="scale(0.996264009963)" xlink:href="#CMR17-48"/>
     <use transform="translate(45.6904771171 0.0)scale(0.996264009963)" xlink:href="#CMR17-46"/>
     <use transform="translate(70.5615355989 0.0)scale(0.996264009963)" xlink:href="#CMR17-49"/>
     <use transform="translate(116.252012716 0.0)scale(0.996264009963)" xlink:href="#CMR17-50"/>
    </g>
   </g>
   <g id="text_26">
    <!-- 0.34 -->
    <defs>
     <path d="M 33.59375 64.40625 
C 33.59375 66.5 33.5 66.5 31.703125 66.5 
L 2 19.59375 
L 2 17 
L 27.796875 17 
L 27.796875 7.140625 
C 27.796875 3.5 27.59375 2.5 20.59375 2.5 
L 18.703125 2.5 
L 18.703125 0 
C 21.90625 0 27.296875 0 30.703125 0 
C 34.09375 0 39.5 0 42.703125 0 
L 42.703125 2.5 
L 40.796875 2.5 
C 33.796875 2.5 33.59375 3.5 33.59375 7.140625 
L 33.59375 17 
L 43.796875 17 
L 43.796875 19.59375 
L 33.59375 19.59375 
z
M 28.09375 57.859375 
L 28.09375 19.59375 
L 4 19.59375 
z
" id="CMR17-52"/>
    </defs>
    <g style="fill:#262626;" transform="translate(396.61555416 481.103705284)scale(0.28 -0.28)">
     <use transform="scale(0.996264009963)" xlink:href="#CMR17-48"/>
     <use transform="translate(45.6904771171 0.0)scale(0.996264009963)" xlink:href="#CMR17-46"/>
     <use transform="translate(70.5615355989 0.0)scale(0.996264009963)" xlink:href="#CMR17-51"/>
     <use transform="translate(116.252012716 0.0)scale(0.996264009963)" xlink:href="#CMR17-52"/>
    </g>
   </g>
   <g id="text_27">
    <!-- 0.12 -->
    <g style="fill:#262626;" transform="translate(471.54055416 481.103705284)scale(0.28 -0.28)">
     <use transform="scale(0.996264009963)" xlink:href="#CMR17-48"/>
     <use transform="translate(45.6904771171 0.0)scale(0.996264009963)" xlink:href="#CMR17-46"/>
     <use transform="translate(70.5615355989 0.0)scale(0.996264009963)" xlink:href="#CMR17-49"/>
     <use transform="translate(116.252012716 0.0)scale(0.996264009963)" xlink:href="#CMR17-50"/>
    </g>
   </g>
   <g id="text_28">
    <!-- 0.11 -->
    <g style="fill:#262626;" transform="translate(546.46555416 481.103705284)scale(0.28 -0.28)">
     <use transform="scale(0.996264009963)" xlink:href="#CMR17-48"/>
     <use transform="translate(45.6904771171 0.0)scale(0.996264009963)" xlink:href="#CMR17-46"/>
     <use transform="translate(70.5615355989 0.0)scale(0.996264009963)" xlink:href="#CMR17-49"/>
     <use transform="translate(116.252012716 0.0)scale(0.996264009963)" xlink:href="#CMR17-49"/>
    </g>
   </g>
   <g id="text_29">
    <!-- 1 -->
    <g style="fill:#ffffff;" transform="translate(38.2658332036 405.415990121)scale(0.28 -0.28)">
     <use transform="scale(0.996264009963)" xlink:href="#CMR17-49"/>
    </g>
   </g>
   <g id="text_30">
    <!-- 1 -->
    <g style="fill:#ffffff;" transform="translate(113.190833204 405.415990121)scale(0.28 -0.28)">
     <use transform="scale(0.996264009963)" xlink:href="#CMR17-49"/>
    </g>
   </g>
   <g id="text_31">
    <!-- 0.12 -->
    <g style="fill:#262626;" transform="translate(171.84055416 405.415990121)scale(0.28 -0.28)">
     <use transform="scale(0.996264009963)" xlink:href="#CMR17-48"/>
     <use transform="translate(45.6904771171 0.0)scale(0.996264009963)" xlink:href="#CMR17-46"/>
     <use transform="translate(70.5615355989 0.0)scale(0.996264009963)" xlink:href="#CMR17-49"/>
     <use transform="translate(116.252012716 0.0)scale(0.996264009963)" xlink:href="#CMR17-50"/>
    </g>
   </g>
   <g id="text_32">
    <!-- 0.12 -->
    <g style="fill:#262626;" transform="translate(246.76555416 405.415990121)scale(0.28 -0.28)">
     <use transform="scale(0.996264009963)" xlink:href="#CMR17-48"/>
     <use transform="translate(45.6904771171 0.0)scale(0.996264009963)" xlink:href="#CMR17-46"/>
     <use transform="translate(70.5615355989 0.0)scale(0.996264009963)" xlink:href="#CMR17-49"/>
     <use transform="translate(116.252012716 0.0)scale(0.996264009963)" xlink:href="#CMR17-50"/>
    </g>
   </g>
   <g id="text_33">
    <!-- 0.29 -->
    <g style="fill:#262626;" transform="translate(321.69055416 405.415990121)scale(0.28 -0.28)">
     <use transform="scale(0.996264009963)" xlink:href="#CMR17-48"/>
     <use transform="translate(45.6904771171 0.0)scale(0.996264009963)" xlink:href="#CMR17-46"/>
     <use transform="translate(70.5615355989 0.0)scale(0.996264009963)" xlink:href="#CMR17-50"/>
     <use transform="translate(116.252012716 0.0)scale(0.996264009963)" xlink:href="#CMR17-57"/>
    </g>
   </g>
   <g id="text_34">
    <!-- 0.12 -->
    <g style="fill:#262626;" transform="translate(396.61555416 405.415990121)scale(0.28 -0.28)">
     <use transform="scale(0.996264009963)" xlink:href="#CMR17-48"/>
     <use transform="translate(45.6904771171 0.0)scale(0.996264009963)" xlink:href="#CMR17-46"/>
     <use transform="translate(70.5615355989 0.0)scale(0.996264009963)" xlink:href="#CMR17-49"/>
     <use transform="translate(116.252012716 0.0)scale(0.996264009963)" xlink:href="#CMR17-50"/>
    </g>
   </g>
   <g id="text_35">
    <!-- 0.11 -->
    <g style="fill:#262626;" transform="translate(471.54055416 405.415990121)scale(0.28 -0.28)">
     <use transform="scale(0.996264009963)" xlink:href="#CMR17-48"/>
     <use transform="translate(45.6904771171 0.0)scale(0.996264009963)" xlink:href="#CMR17-46"/>
     <use transform="translate(70.5615355989 0.0)scale(0.996264009963)" xlink:href="#CMR17-49"/>
     <use transform="translate(116.252012716 0.0)scale(0.996264009963)" xlink:href="#CMR17-49"/>
    </g>
   </g>
   <g id="text_36">
    <!-- 0.12 -->
    <g style="fill:#262626;" transform="translate(546.46555416 405.415990121)scale(0.28 -0.28)">
     <use transform="scale(0.996264009963)" xlink:href="#CMR17-48"/>
     <use transform="translate(45.6904771171 0.0)scale(0.996264009963)" xlink:href="#CMR17-46"/>
     <use transform="translate(70.5615355989 0.0)scale(0.996264009963)" xlink:href="#CMR17-49"/>
     <use transform="translate(116.252012716 0.0)scale(0.996264009963)" xlink:href="#CMR17-50"/>
    </g>
   </g>
   <g id="text_37">
    <!-- 0.99 -->
    <g style="fill:#ffffff;" transform="translate(21.9905541597 329.728274958)scale(0.28 -0.28)">
     <use transform="scale(0.996264009963)" xlink:href="#CMR17-48"/>
     <use transform="translate(45.6904771171 0.0)scale(0.996264009963)" xlink:href="#CMR17-46"/>
     <use transform="translate(70.5615355989 0.0)scale(0.996264009963)" xlink:href="#CMR17-57"/>
     <use transform="translate(116.252012716 0.0)scale(0.996264009963)" xlink:href="#CMR17-57"/>
    </g>
   </g>
   <g id="text_38">
    <!-- 0.99 -->
    <g style="fill:#ffffff;" transform="translate(96.9155541597 329.728274958)scale(0.28 -0.28)">
     <use transform="scale(0.996264009963)" xlink:href="#CMR17-48"/>
     <use transform="translate(45.6904771171 0.0)scale(0.996264009963)" xlink:href="#CMR17-46"/>
     <use transform="translate(70.5615355989 0.0)scale(0.996264009963)" xlink:href="#CMR17-57"/>
     <use transform="translate(116.252012716 0.0)scale(0.996264009963)" xlink:href="#CMR17-57"/>
    </g>
   </g>
   <g id="text_39">
    <!-- 0.13 -->
    <g style="fill:#262626;" transform="translate(171.84055416 329.728274958)scale(0.28 -0.28)">
     <use transform="scale(0.996264009963)" xlink:href="#CMR17-48"/>
     <use transform="translate(45.6904771171 0.0)scale(0.996264009963)" xlink:href="#CMR17-46"/>
     <use transform="translate(70.5615355989 0.0)scale(0.996264009963)" xlink:href="#CMR17-49"/>
     <use transform="translate(116.252012716 0.0)scale(0.996264009963)" xlink:href="#CMR17-51"/>
    </g>
   </g>
   <g id="text_40">
    <!-- 0.38 -->
    <g style="fill:#262626;" transform="translate(246.76555416 329.728274958)scale(0.28 -0.28)">
     <use transform="scale(0.996264009963)" xlink:href="#CMR17-48"/>
     <use transform="translate(45.6904771171 0.0)scale(0.996264009963)" xlink:href="#CMR17-46"/>
     <use transform="translate(70.5615355989 0.0)scale(0.996264009963)" xlink:href="#CMR17-51"/>
     <use transform="translate(116.252012716 0.0)scale(0.996264009963)" xlink:href="#CMR17-56"/>
    </g>
   </g>
   <g id="text_41">
    <!-- 0.12 -->
    <g style="fill:#262626;" transform="translate(321.69055416 329.728274958)scale(0.28 -0.28)">
     <use transform="scale(0.996264009963)" xlink:href="#CMR17-48"/>
     <use transform="translate(45.6904771171 0.0)scale(0.996264009963)" xlink:href="#CMR17-46"/>
     <use transform="translate(70.5615355989 0.0)scale(0.996264009963)" xlink:href="#CMR17-49"/>
     <use transform="translate(116.252012716 0.0)scale(0.996264009963)" xlink:href="#CMR17-50"/>
    </g>
   </g>
   <g id="text_42">
    <!-- 0.12 -->
    <g style="fill:#262626;" transform="translate(396.61555416 329.728274958)scale(0.28 -0.28)">
     <use transform="scale(0.996264009963)" xlink:href="#CMR17-48"/>
     <use transform="translate(45.6904771171 0.0)scale(0.996264009963)" xlink:href="#CMR17-46"/>
     <use transform="translate(70.5615355989 0.0)scale(0.996264009963)" xlink:href="#CMR17-49"/>
     <use transform="translate(116.252012716 0.0)scale(0.996264009963)" xlink:href="#CMR17-50"/>
    </g>
   </g>
   <g id="text_43">
    <!-- 0.12 -->
    <g style="fill:#262626;" transform="translate(471.54055416 329.728274958)scale(0.28 -0.28)">
     <use transform="scale(0.996264009963)" xlink:href="#CMR17-48"/>
     <use transform="translate(45.6904771171 0.0)scale(0.996264009963)" xlink:href="#CMR17-46"/>
     <use transform="translate(70.5615355989 0.0)scale(0.996264009963)" xlink:href="#CMR17-49"/>
     <use transform="translate(116.252012716 0.0)scale(0.996264009963)" xlink:href="#CMR17-50"/>
    </g>
   </g>
   <g id="text_44">
    <!-- 0.12 -->
    <g style="fill:#262626;" transform="translate(546.46555416 329.728274958)scale(0.28 -0.28)">
     <use transform="scale(0.996264009963)" xlink:href="#CMR17-48"/>
     <use transform="translate(45.6904771171 0.0)scale(0.996264009963)" xlink:href="#CMR17-46"/>
     <use transform="translate(70.5615355989 0.0)scale(0.996264009963)" xlink:href="#CMR17-49"/>
     <use transform="translate(116.252012716 0.0)scale(0.996264009963)" xlink:href="#CMR17-50"/>
    </g>
   </g>
   <g id="text_45">
    <!-- 0.94 -->
    <g style="fill:#ffffff;" transform="translate(21.9905541597 254.040559795)scale(0.28 -0.28)">
     <use transform="scale(0.996264009963)" xlink:href="#CMR17-48"/>
     <use transform="translate(45.6904771171 0.0)scale(0.996264009963)" xlink:href="#CMR17-46"/>
     <use transform="translate(70.5615355989 0.0)scale(0.996264009963)" xlink:href="#CMR17-57"/>
     <use transform="translate(116.252012716 0.0)scale(0.996264009963)" xlink:href="#CMR17-52"/>
    </g>
   </g>
   <g id="text_46">
    <!-- 1 -->
    <g style="fill:#ffffff;" transform="translate(113.190833204 254.040559795)scale(0.28 -0.28)">
     <use transform="scale(0.996264009963)" xlink:href="#CMR17-49"/>
    </g>
   </g>
   <g id="text_47">
    <!-- 0.35 -->
    <defs>
     <path d="M 11.40625 57.6875 
C 12.40625 57.28125 16.5 56 20.703125 56 
C 30 56 35.09375 61.109375 38 64.0625 
C 38 64.953125 38 65.5 37.40625 65.5 
C 37.296875 65.5 37.09375 65.5 36.296875 65.046875 
C 32.796875 63.40625 28.703125 62.078125 23.703125 62.078125 
C 20.703125 62.078125 16.203125 62.484375 11.296875 64.671875 
C 10.203125 65.171875 10 65.171875 9.90625 65.171875 
C 9.40625 65.171875 9.296875 65.0625 9.296875 63.078125 
L 9.296875 34.421875 
C 9.296875 32.640625 9.296875 32.140625 10.296875 32.140625 
C 10.796875 32.140625 11 32.34375 11.5 33.03125 
C 14.703125 37.515625 19.09375 39.40625 24.09375 39.40625 
C 27.59375 39.40625 35.09375 37.21875 35.09375 20.140625 
C 35.09375 16.953125 35.09375 11.171875 32.09375 6.578125 
C 29.59375 2.484375 25.703125 0.390625 21.40625 0.390625 
C 14.796875 0.390625 8.09375 5 6.296875 12.71875 
C 6.703125 12.609375 7.5 12.421875 7.90625 12.421875 
C 9.203125 12.421875 11.703125 13.125 11.703125 16.21875 
C 11.703125 18.90625 9.796875 20 7.90625 20 
C 5.59375 20 4.09375 18.59375 4.09375 15.796875 
C 4.09375 7.09375 11 -2 21.59375 -2 
C 31.90625 -2 41.703125 6.875 41.703125 19.75 
C 41.703125 31.71875 33.90625 41 24.203125 41 
C 19.09375 41 14.796875 39.109375 11.40625 35.53125 
z
" id="CMR17-53"/>
    </defs>
    <g style="fill:#262626;" transform="translate(171.84055416 254.040559795)scale(0.28 -0.28)">
     <use transform="scale(0.996264009963)" xlink:href="#CMR17-48"/>
     <use transform="translate(45.6904771171 0.0)scale(0.996264009963)" xlink:href="#CMR17-46"/>
     <use transform="translate(70.5615355989 0.0)scale(0.996264009963)" xlink:href="#CMR17-51"/>
     <use transform="translate(116.252012716 0.0)scale(0.996264009963)" xlink:href="#CMR17-53"/>
    </g>
   </g>
   <g id="text_48">
    <!-- 0.13 -->
    <g style="fill:#262626;" transform="translate(246.76555416 254.040559795)scale(0.28 -0.28)">
     <use transform="scale(0.996264009963)" xlink:href="#CMR17-48"/>
     <use transform="translate(45.6904771171 0.0)scale(0.996264009963)" xlink:href="#CMR17-46"/>
     <use transform="translate(70.5615355989 0.0)scale(0.996264009963)" xlink:href="#CMR17-49"/>
     <use transform="translate(116.252012716 0.0)scale(0.996264009963)" xlink:href="#CMR17-51"/>
    </g>
   </g>
   <g id="text_49">
    <!-- 0.12 -->
    <g style="fill:#262626;" transform="translate(321.69055416 254.040559795)scale(0.28 -0.28)">
     <use transform="scale(0.996264009963)" xlink:href="#CMR17-48"/>
     <use transform="translate(45.6904771171 0.0)scale(0.996264009963)" xlink:href="#CMR17-46"/>
     <use transform="translate(70.5615355989 0.0)scale(0.996264009963)" xlink:href="#CMR17-49"/>
     <use transform="translate(116.252012716 0.0)scale(0.996264009963)" xlink:href="#CMR17-50"/>
    </g>
   </g>
   <g id="text_50">
    <!-- 0.12 -->
    <g style="fill:#262626;" transform="translate(396.61555416 254.040559795)scale(0.28 -0.28)">
     <use transform="scale(0.996264009963)" xlink:href="#CMR17-48"/>
     <use transform="translate(45.6904771171 0.0)scale(0.996264009963)" xlink:href="#CMR17-46"/>
     <use transform="translate(70.5615355989 0.0)scale(0.996264009963)" xlink:href="#CMR17-49"/>
     <use transform="translate(116.252012716 0.0)scale(0.996264009963)" xlink:href="#CMR17-50"/>
    </g>
   </g>
   <g id="text_51">
    <!-- 0.12 -->
    <g style="fill:#262626;" transform="translate(471.54055416 254.040559795)scale(0.28 -0.28)">
     <use transform="scale(0.996264009963)" xlink:href="#CMR17-48"/>
     <use transform="translate(45.6904771171 0.0)scale(0.996264009963)" xlink:href="#CMR17-46"/>
     <use transform="translate(70.5615355989 0.0)scale(0.996264009963)" xlink:href="#CMR17-49"/>
     <use transform="translate(116.252012716 0.0)scale(0.996264009963)" xlink:href="#CMR17-50"/>
    </g>
   </g>
   <g id="text_52">
    <!-- 0.12 -->
    <g style="fill:#262626;" transform="translate(546.46555416 254.040559795)scale(0.28 -0.28)">
     <use transform="scale(0.996264009963)" xlink:href="#CMR17-48"/>
     <use transform="translate(45.6904771171 0.0)scale(0.996264009963)" xlink:href="#CMR17-46"/>
     <use transform="translate(70.5615355989 0.0)scale(0.996264009963)" xlink:href="#CMR17-49"/>
     <use transform="translate(116.252012716 0.0)scale(0.996264009963)" xlink:href="#CMR17-50"/>
    </g>
   </g>
   <g id="text_53">
    <!-- 1 -->
    <g style="fill:#ffffff;" transform="translate(38.2658332036 178.352844632)scale(0.28 -0.28)">
     <use transform="scale(0.996264009963)" xlink:href="#CMR17-49"/>
    </g>
   </g>
   <g id="text_54">
    <!-- 2.6 -->
    <defs>
     <path d="M 10.59375 34 
C 10.59375 57.65625 21.796875 63 28.296875 63 
C 30.40625 63 35.5 62.640625 37.5 59 
C 35.90625 59 32.90625 59 32.90625 55.515625 
C 32.90625 52.828125 35.09375 51.921875 36.5 51.921875 
C 37.40625 51.921875 40.09375 52.3125 40.09375 55.625 
C 40.09375 61.78125 35.09375 65.296875 28.203125 65.296875 
C 16.296875 65.296875 3.796875 52.96875 3.796875 31 
C 3.796875 3.953125 15.09375 -2 23.09375 -2 
C 32.796875 -2 42 6.671875 42 20.046875 
C 42 32.515625 33.90625 41.59375 23.703125 41.59375 
C 17.59375 41.59375 13.09375 37.609375 10.59375 30.625 
z
M 23.09375 0.390625 
C 10.796875 0.390625 10.796875 18.75 10.796875 22.4375 
C 10.796875 29.625 14.203125 40 23.5 40 
C 25.203125 40 30.09375 40 33.40625 33.125 
C 35.203125 29.21875 35.203125 25.140625 35.203125 20.140625 
C 35.203125 14.75 35.203125 10.78125 33.09375 6.78125 
C 30.90625 2.671875 27.703125 0.390625 23.09375 0.390625 
" id="CMR17-54"/>
    </defs>
    <g style="fill:#ffffff;" transform="translate(103.312220956 178.352844632)scale(0.28 -0.28)">
     <use transform="scale(0.996264009963)" xlink:href="#CMR17-50"/>
     <use transform="translate(45.6904771171 0.0)scale(0.996264009963)" xlink:href="#CMR17-46"/>
     <use transform="translate(70.5615355989 0.0)scale(0.996264009963)" xlink:href="#CMR17-54"/>
    </g>
   </g>
   <g id="text_55">
    <!-- 1 -->
    <g style="fill:#ffffff;" transform="translate(188.115833204 178.352844632)scale(0.28 -0.28)">
     <use transform="scale(0.996264009963)" xlink:href="#CMR17-49"/>
    </g>
   </g>
   <g id="text_56">
    <!-- 0.99 -->
    <g style="fill:#ffffff;" transform="translate(246.76555416 178.352844632)scale(0.28 -0.28)">
     <use transform="scale(0.996264009963)" xlink:href="#CMR17-48"/>
     <use transform="translate(45.6904771171 0.0)scale(0.996264009963)" xlink:href="#CMR17-46"/>
     <use transform="translate(70.5615355989 0.0)scale(0.996264009963)" xlink:href="#CMR17-57"/>
     <use transform="translate(116.252012716 0.0)scale(0.996264009963)" xlink:href="#CMR17-57"/>
    </g>
   </g>
   <g id="text_57">
    <!-- 1 -->
    <g style="fill:#ffffff;" transform="translate(337.965833204 178.352844632)scale(0.28 -0.28)">
     <use transform="scale(0.996264009963)" xlink:href="#CMR17-49"/>
    </g>
   </g>
   <g id="text_58">
    <!-- 1 -->
    <g style="fill:#ffffff;" transform="translate(412.890833204 178.352844632)scale(0.28 -0.28)">
     <use transform="scale(0.996264009963)" xlink:href="#CMR17-49"/>
    </g>
   </g>
   <g id="text_59">
    <!-- 1 -->
    <g style="fill:#ffffff;" transform="translate(487.815833204 178.352844632)scale(0.28 -0.28)">
     <use transform="scale(0.996264009963)" xlink:href="#CMR17-49"/>
    </g>
   </g>
   <g id="text_60">
    <!-- 0.98 -->
    <g style="fill:#ffffff;" transform="translate(546.46555416 178.352844632)scale(0.28 -0.28)">
     <use transform="scale(0.996264009963)" xlink:href="#CMR17-48"/>
     <use transform="translate(45.6904771171 0.0)scale(0.996264009963)" xlink:href="#CMR17-46"/>
     <use transform="translate(70.5615355989 0.0)scale(0.996264009963)" xlink:href="#CMR17-57"/>
     <use transform="translate(116.252012716 0.0)scale(0.996264009963)" xlink:href="#CMR17-56"/>
    </g>
   </g>
   <g id="text_61">
    <!-- 2.7 -->
    <defs>
     <path d="M 45.09375 61.578125 
L 45.09375 63.765625 
L 21.59375 63.765625 
C 9.90625 63.765625 9.703125 65.078125 9.296875 67 
L 7.5 67 
L 4.59375 48.34375 
L 6.40625 48.34375 
C 6.703125 50.234375 7.40625 55.3125 8.59375 57.203125 
C 9.203125 58 16.59375 58 18.296875 58 
L 40.296875 58 
L 29.203125 41.578125 
C 21.796875 30.53125 16.703125 15.609375 16.703125 2.578125 
C 16.703125 1.390625 16.703125 -2 20.296875 -2 
C 23.90625 -2 23.90625 1.390625 23.90625 2.671875 
L 23.90625 7.265625 
C 23.90625 23.5625 26.703125 34.3125 31.296875 41.1875 
z
" id="CMR17-55"/>
    </defs>
    <g style="fill:#ffffff;" transform="translate(28.3872209561 102.665129469)scale(0.28 -0.28)">
     <use transform="scale(0.996264009963)" xlink:href="#CMR17-50"/>
     <use transform="translate(45.6904771171 0.0)scale(0.996264009963)" xlink:href="#CMR17-46"/>
     <use transform="translate(70.5615355989 0.0)scale(0.996264009963)" xlink:href="#CMR17-55"/>
    </g>
   </g>
   <g id="text_62">
    <!-- 1 -->
    <g style="fill:#ffffff;" transform="translate(113.190833204 102.665129469)scale(0.28 -0.28)">
     <use transform="scale(0.996264009963)" xlink:href="#CMR17-49"/>
    </g>
   </g>
   <g id="text_63">
    <!-- 0.94 -->
    <g style="fill:#ffffff;" transform="translate(171.84055416 102.665129469)scale(0.28 -0.28)">
     <use transform="scale(0.996264009963)" xlink:href="#CMR17-48"/>
     <use transform="translate(45.6904771171 0.0)scale(0.996264009963)" xlink:href="#CMR17-46"/>
     <use transform="translate(70.5615355989 0.0)scale(0.996264009963)" xlink:href="#CMR17-57"/>
     <use transform="translate(116.252012716 0.0)scale(0.996264009963)" xlink:href="#CMR17-52"/>
    </g>
   </g>
   <g id="text_64">
    <!-- 0.99 -->
    <g style="fill:#ffffff;" transform="translate(246.76555416 102.665129469)scale(0.28 -0.28)">
     <use transform="scale(0.996264009963)" xlink:href="#CMR17-48"/>
     <use transform="translate(45.6904771171 0.0)scale(0.996264009963)" xlink:href="#CMR17-46"/>
     <use transform="translate(70.5615355989 0.0)scale(0.996264009963)" xlink:href="#CMR17-57"/>
     <use transform="translate(116.252012716 0.0)scale(0.996264009963)" xlink:href="#CMR17-57"/>
    </g>
   </g>
   <g id="text_65">
    <!-- 1 -->
    <g style="fill:#ffffff;" transform="translate(337.965833204 102.665129469)scale(0.28 -0.28)">
     <use transform="scale(0.996264009963)" xlink:href="#CMR17-49"/>
    </g>
   </g>
   <g id="text_66">
    <!-- 1 -->
    <g style="fill:#ffffff;" transform="translate(412.890833204 102.665129469)scale(0.28 -0.28)">
     <use transform="scale(0.996264009963)" xlink:href="#CMR17-49"/>
    </g>
   </g>
   <g id="text_67">
    <!-- 1 -->
    <g style="fill:#ffffff;" transform="translate(487.815833204 102.665129469)scale(0.28 -0.28)">
     <use transform="scale(0.996264009963)" xlink:href="#CMR17-49"/>
    </g>
   </g>
   <g id="text_68">
    <!-- 1 -->
    <g style="fill:#ffffff;" transform="translate(562.740833204 102.665129469)scale(0.28 -0.28)">
     <use transform="scale(0.996264009963)" xlink:href="#CMR17-49"/>
    </g>
   </g>
   <g id="text_69">
    <!-- $\langle \lambda_{jk}\rangle$ -->
    <defs>
     <path d="M 27.296875 23.296875 
C 27.796875 24.5 27.796875 24.703125 27.796875 25 
C 27.796875 25.296875 27.796875 25.5 27.296875 26.703125 
L 9.796875 72.703125 
C 9.203125 74.40625 8.59375 75 7.5 75 
C 6.40625 75 5.5 74.09375 5.5 73 
C 5.5 72.703125 5.5 72.5 6 71.40625 
L 23.703125 25 
L 6 -21.203125 
C 5.5 -22.296875 5.5 -22.5 5.5 -23 
C 5.5 -24.09375 6.40625 -25 7.5 -25 
C 8.796875 -25 9.203125 -24 9.59375 -23 
z
" id="CMSY10-105"/>
     <path d="M 28.09375 66.515625 
C 28.203125 66.921875 28.40625 67.515625 28.40625 68 
C 28.40625 69 27.40625 69 27.203125 69 
C 27.09375 69 23.5 68.640625 21.703125 68.390625 
C 20 68.390625 18.5 68.09375 16.703125 68.09375 
C 14.296875 67.890625 13.59375 67.796875 13.59375 66 
C 13.59375 65 14.59375 65 15.59375 65 
C 20.703125 65 20.703125 64.109375 20.703125 63.125 
C 20.703125 62.734375 20.703125 62.53125 20.203125 60.75 
L 5.90625 3.875 
C 5.5 2.375 5.5 2.1875 5.5 1.578125 
C 5.5 -0.59375 7.203125 -1 8.203125 -1 
C 11 -1 11.59375 1.203125 12.40625 4.296875 
L 17.09375 22.953125 
C 24.296875 22.15625 28.59375 19.15625 28.59375 14.375 
C 28.59375 13.765625 28.59375 13.375 28.296875 11.875 
C 27.90625 10.375 27.90625 9.1875 27.90625 8.6875 
C 27.90625 2.890625 31.703125 -1 36.796875 -1 
C 41.40625 -1 43.796875 3.1875 44.59375 4.59375 
C 46.703125 8.28125 48 13.875 48 14.265625 
C 48 14.765625 47.59375 15.171875 47 15.171875 
C 46.09375 15.171875 46 14.765625 45.59375 13.171875 
C 44.203125 7.984375 42.09375 1 37 1 
C 35 1 33.703125 2 33.703125 5.78125 
C 33.703125 7.6875 34.09375 9.875 34.5 11.375 
C 34.90625 13.171875 34.90625 13.265625 34.90625 14.46875 
C 34.90625 20.359375 29.59375 23.65625 20.40625 24.84375 
C 24 27.046875 27.59375 30.9375 29 32.4375 
C 34.703125 38.8125 38.59375 42.015625 43.203125 42.015625 
C 45.5 42.015625 46.09375 41.40625 46.796875 40.8125 
C 43.09375 40.40625 41.703125 37.8125 41.703125 35.828125 
C 41.703125 33.421875 43.59375 32.625 45 32.625 
C 47.703125 32.625 50.09375 34.921875 50.09375 38.125 
C 50.09375 41.015625 47.796875 44 43.296875 44 
C 37.796875 44 33.296875 40.109375 26.203125 32.125 
C 25.203125 30.9375 21.5 27.140625 17.796875 25.75 
z
" id="CMMI12-107"/>
     <path d="M 35 31.6875 
C 35.40625 33.296875 35.40625 34.671875 35.40625 35.078125 
C 35.40625 40.828125 31.09375 44 26.59375 44 
C 16.5 44 11.09375 29.515625 11.09375 28.828125 
C 11.09375 28.328125 11.5 27.9375 12.09375 27.9375 
C 12.90625 27.9375 13 28.328125 13.5 29.3125 
C 17.5 38.9375 22.5 42.015625 26.296875 42.015625 
C 28.40625 42.015625 29.5 40.90625 29.5 37.453125 
C 29.5 35.078125 29.203125 34.078125 28.796875 32.296875 
L 19.296875 -5.109375 
C 17.40625 -12.4375 12.703125 -18 7.203125 -18 
C 6.796875 -18 4.703125 -18 2.796875 -17 
C 5.203125 -16.5 7.09375 -14.625 7.09375 -12.25 
C 7.09375 -10.65625 5.90625 -9.0625 3.703125 -9.0625 
C 1.09375 -9.0625 -1.296875 -11.25 -1.296875 -14.234375 
C -1.296875 -18.296875 3.09375 -20 7.203125 -20 
C 14.09375 -20 23.203125 -14.9375 25.703125 -5 
z
M 39.09375 62.703125 
C 39.09375 65.203125 37 66 35.796875 66 
C 33.09375 66 30.796875 63.40625 30.796875 61.203125 
C 30.796875 59.71875 32 57.921875 34.203125 57.921875 
C 36.5 57.921875 39.09375 60.109375 39.09375 62.703125 
" id="CMMI12-106"/>
     <path d="M 30.90625 61.953125 
C 28.40625 69 20.5 69 19.203125 69 
C 18.59375 69 17.5 69 17.5 68 
C 17.5 67.21875 18.09375 67.109375 18.59375 67.015625 
C 20.09375 66.8125 21.296875 66.609375 22.90625 63.75 
C 23.90625 61.859375 34.203125 32.171875 34.203125 31.96875 
C 34.203125 31.875 34.09375 31.765625 33.296875 30.96875 
L 7.296875 4.859375 
C 6.09375 3.65625 5.296875 2.859375 5.296875 1.59375 
C 5.296875 0.1875 6.5 -1 8.09375 -1 
C 8.5 -1 9.59375 -0.796875 10.203125 -0.203125 
C 11.796875 1.28125 26.09375 18.65625 35.203125 29.390625 
C 37.796875 21.609375 41 12.453125 44.09375 4.078125 
C 44.59375 2.59375 45.09375 1.1875 46.5 -0.09375 
C 47.5 -1 47.703125 -1 50.5 -1 
L 52.40625 -1 
C 52.796875 -1 53.5 -1 53.5 -0.203125 
C 53.5 0.203125 53.40625 0.296875 53 0.703125 
C 52.09375 1.796875 51.40625 3.578125 51 4.78125 
z
" id="CMMI12-21"/>
     <path d="M 32.796875 71.203125 
C 33.296875 72.296875 33.296875 72.5 33.296875 73 
C 33.296875 74.09375 32.40625 75 31.296875 75 
C 30.40625 75 29.703125 74.5 29 72.703125 
L 11.5 26.796875 
C 11.296875 26.203125 11 25.59375 11 25 
C 11 24.703125 11 24.5 11.5 23.296875 
L 29 -22.59375 
C 29.40625 -23.703125 29.90625 -25 31.296875 -25 
C 32.40625 -25 33.296875 -24.09375 33.296875 -23 
C 33.296875 -22.703125 33.296875 -22.5 32.796875 -21.40625 
L 15.09375 25 
z
" id="CMSY10-104"/>
    </defs>
    <g style="fill:#262626;" transform="translate(265.766880424 40.7382786961)scale(0.4 -0.4)">
     <use transform="translate(0.0 14.9439145441)scale(0.996264009963)" xlink:href="#CMSY10-104"/>
     <use transform="translate(38.7437338253 14.9439145441)scale(0.996264009963)" xlink:href="#CMMI12-21"/>
     <use transform="translate(95.6478057139 0.0)scale(0.697381766617)" xlink:href="#CMMI12-106"/>
     <use transform="translate(127.821390002 0.0)scale(0.697381766617)" xlink:href="#CMMI12-107"/>
     <use transform="translate(166.17477246 14.9439145441)scale(0.996264009963)" xlink:href="#CMSY10-105"/>
    </g>
   </g>
  </g>
 </g>
 <defs>
  <clipPath id="p62020ad853">
   <rect height="605.501721304" width="599.4" x="7.2" y="57.8483131222"/>
  </clipPath>
  <clipPath id="p631b1b35f3">
   <rect height="605.501721304" width="599.4" x="639.0" y="57.8483131222"/>
  </clipPath>
 </defs>
</svg>
