<?xml version="1.0" encoding="utf-8" standalone="no"?>
<!DOCTYPE svg PUBLIC "-//W3C//DTD SVG 1.1//EN"
  "http://www.w3.org/Graphics/SVG/1.1/DTD/svg11.dtd">
<!-- Created with matplotlib (http://matplotlib.org/) -->
<svg height="665pt" version="1.1" viewBox="0 0 786 665" width="786pt" xmlns="http://www.w3.org/2000/svg" xmlns:xlink="http://www.w3.org/1999/xlink">
 <defs>
  <style type="text/css">
*{stroke-linecap:butt;stroke-linejoin:round;stroke-miterlimit:100000;}
  </style>
 </defs>
 <g id="figure_1">
  <g id="patch_1">
   <path d="M 0 665.770312 
L 786.096094 665.770312 
L 786.096094 0 
L 0 0 
z
" style="fill:#ffffff;"/>
  </g>
  <g id="axes_1">
   <g id="patch_2">
    <path d="M 85.436719 260.9 
L 755.036719 260.9 
L 755.036719 37.7 
L 85.436719 37.7 
z
" style="fill:#eaeaf2;"/>
   </g>
   <g id="matplotlib.axis_1">
    <g id="xtick_1">
     <g id="line2d_1">
      <path clip-path="url(#pe97511e599)" d="M 85.436719 260.9 
L 85.436719 37.7 
" style="fill:none;stroke:#ffffff;stroke-linecap:round;"/>
     </g>
     <g id="line2d_2">
      <defs>
       <path d="M 0 0 
L 0 0 
" id="m7afb2ee71f" style="stroke:#262626;"/>
      </defs>
      <g>
       <use style="fill:#262626;stroke:#262626;" x="85.43671875" xlink:href="#m7afb2ee71f" y="260.9"/>
      </g>
     </g>
     <g id="line2d_3">
      <g>
       <use style="fill:#262626;stroke:#262626;" x="85.43671875" xlink:href="#m7afb2ee71f" y="37.7"/>
      </g>
     </g>
     <g id="text_1">
      <!-- 0 -->
      <defs>
       <path d="M 31.78125 66.40625 
Q 24.171875 66.40625 20.328125 58.90625 
Q 16.5 51.421875 16.5 36.375 
Q 16.5 21.390625 20.328125 13.890625 
Q 24.171875 6.390625 31.78125 6.390625 
Q 39.453125 6.390625 43.28125 13.890625 
Q 47.125 21.390625 47.125 36.375 
Q 47.125 51.421875 43.28125 58.90625 
Q 39.453125 66.40625 31.78125 66.40625 
M 31.78125 74.21875 
Q 44.046875 74.21875 50.515625 64.515625 
Q 56.984375 54.828125 56.984375 36.375 
Q 56.984375 17.96875 50.515625 8.265625 
Q 44.046875 -1.421875 31.78125 -1.421875 
Q 19.53125 -1.421875 13.0625 8.265625 
Q 6.59375 17.96875 6.59375 36.375 
Q 6.59375 54.828125 13.0625 64.515625 
Q 19.53125 74.21875 31.78125 74.21875 
" id="BitstreamVeraSans-Roman-30"/>
      </defs>
      <g style="fill:#262626;" transform="translate(77.48359375 286.89609375)scale(0.25 -0.25)">
       <use xlink:href="#BitstreamVeraSans-Roman-30"/>
      </g>
     </g>
    </g>
    <g id="xtick_2">
     <g id="line2d_4">
      <path clip-path="url(#pe97511e599)" d="M 219.356719 260.9 
L 219.356719 37.7 
" style="fill:none;stroke:#ffffff;stroke-linecap:round;"/>
     </g>
     <g id="line2d_5">
      <g>
       <use style="fill:#262626;stroke:#262626;" x="219.35671875" xlink:href="#m7afb2ee71f" y="260.9"/>
      </g>
     </g>
     <g id="line2d_6">
      <g>
       <use style="fill:#262626;stroke:#262626;" x="219.35671875" xlink:href="#m7afb2ee71f" y="37.7"/>
      </g>
     </g>
     <g id="text_2">
      <!-- 20 -->
      <defs>
       <path d="M 19.1875 8.296875 
L 53.609375 8.296875 
L 53.609375 0 
L 7.328125 0 
L 7.328125 8.296875 
Q 12.9375 14.109375 22.625 23.890625 
Q 32.328125 33.6875 34.8125 36.53125 
Q 39.546875 41.84375 41.421875 45.53125 
Q 43.3125 49.21875 43.3125 52.78125 
Q 43.3125 58.59375 39.234375 62.25 
Q 35.15625 65.921875 28.609375 65.921875 
Q 23.96875 65.921875 18.8125 64.3125 
Q 13.671875 62.703125 7.8125 59.421875 
L 7.8125 69.390625 
Q 13.765625 71.78125 18.9375 73 
Q 24.125 74.21875 28.421875 74.21875 
Q 39.75 74.21875 46.484375 68.546875 
Q 53.21875 62.890625 53.21875 53.421875 
Q 53.21875 48.921875 51.53125 44.890625 
Q 49.859375 40.875 45.40625 35.40625 
Q 44.1875 33.984375 37.640625 27.21875 
Q 31.109375 20.453125 19.1875 8.296875 
" id="BitstreamVeraSans-Roman-32"/>
      </defs>
      <g style="fill:#262626;" transform="translate(203.45046875 286.89609375)scale(0.25 -0.25)">
       <use xlink:href="#BitstreamVeraSans-Roman-32"/>
       <use x="63.623046875" xlink:href="#BitstreamVeraSans-Roman-30"/>
      </g>
     </g>
    </g>
    <g id="xtick_3">
     <g id="line2d_7">
      <path clip-path="url(#pe97511e599)" d="M 353.276719 260.9 
L 353.276719 37.7 
" style="fill:none;stroke:#ffffff;stroke-linecap:round;"/>
     </g>
     <g id="line2d_8">
      <g>
       <use style="fill:#262626;stroke:#262626;" x="353.27671875" xlink:href="#m7afb2ee71f" y="260.9"/>
      </g>
     </g>
     <g id="line2d_9">
      <g>
       <use style="fill:#262626;stroke:#262626;" x="353.27671875" xlink:href="#m7afb2ee71f" y="37.7"/>
      </g>
     </g>
     <g id="text_3">
      <!-- 40 -->
      <defs>
       <path d="M 37.796875 64.3125 
L 12.890625 25.390625 
L 37.796875 25.390625 
z
M 35.203125 72.90625 
L 47.609375 72.90625 
L 47.609375 25.390625 
L 58.015625 25.390625 
L 58.015625 17.1875 
L 47.609375 17.1875 
L 47.609375 0 
L 37.796875 0 
L 37.796875 17.1875 
L 4.890625 17.1875 
L 4.890625 26.703125 
z
" id="BitstreamVeraSans-Roman-34"/>
      </defs>
      <g style="fill:#262626;" transform="translate(337.37046875 286.89609375)scale(0.25 -0.25)">
       <use xlink:href="#BitstreamVeraSans-Roman-34"/>
       <use x="63.623046875" xlink:href="#BitstreamVeraSans-Roman-30"/>
      </g>
     </g>
    </g>
    <g id="xtick_4">
     <g id="line2d_10">
      <path clip-path="url(#pe97511e599)" d="M 487.196719 260.9 
L 487.196719 37.7 
" style="fill:none;stroke:#ffffff;stroke-linecap:round;"/>
     </g>
     <g id="line2d_11">
      <g>
       <use style="fill:#262626;stroke:#262626;" x="487.19671875" xlink:href="#m7afb2ee71f" y="260.9"/>
      </g>
     </g>
     <g id="line2d_12">
      <g>
       <use style="fill:#262626;stroke:#262626;" x="487.19671875" xlink:href="#m7afb2ee71f" y="37.7"/>
      </g>
     </g>
     <g id="text_4">
      <!-- 60 -->
      <defs>
       <path d="M 33.015625 40.375 
Q 26.375 40.375 22.484375 35.828125 
Q 18.609375 31.296875 18.609375 23.390625 
Q 18.609375 15.53125 22.484375 10.953125 
Q 26.375 6.390625 33.015625 6.390625 
Q 39.65625 6.390625 43.53125 10.953125 
Q 47.40625 15.53125 47.40625 23.390625 
Q 47.40625 31.296875 43.53125 35.828125 
Q 39.65625 40.375 33.015625 40.375 
M 52.59375 71.296875 
L 52.59375 62.3125 
Q 48.875 64.0625 45.09375 64.984375 
Q 41.3125 65.921875 37.59375 65.921875 
Q 27.828125 65.921875 22.671875 59.328125 
Q 17.53125 52.734375 16.796875 39.40625 
Q 19.671875 43.65625 24.015625 45.921875 
Q 28.375 48.1875 33.59375 48.1875 
Q 44.578125 48.1875 50.953125 41.515625 
Q 57.328125 34.859375 57.328125 23.390625 
Q 57.328125 12.15625 50.6875 5.359375 
Q 44.046875 -1.421875 33.015625 -1.421875 
Q 20.359375 -1.421875 13.671875 8.265625 
Q 6.984375 17.96875 6.984375 36.375 
Q 6.984375 53.65625 15.1875 63.9375 
Q 23.390625 74.21875 37.203125 74.21875 
Q 40.921875 74.21875 44.703125 73.484375 
Q 48.484375 72.75 52.59375 71.296875 
" id="BitstreamVeraSans-Roman-36"/>
      </defs>
      <g style="fill:#262626;" transform="translate(471.29046875 286.89609375)scale(0.25 -0.25)">
       <use xlink:href="#BitstreamVeraSans-Roman-36"/>
       <use x="63.623046875" xlink:href="#BitstreamVeraSans-Roman-30"/>
      </g>
     </g>
    </g>
    <g id="xtick_5">
     <g id="line2d_13">
      <path clip-path="url(#pe97511e599)" d="M 621.116719 260.9 
L 621.116719 37.7 
" style="fill:none;stroke:#ffffff;stroke-linecap:round;"/>
     </g>
     <g id="line2d_14">
      <g>
       <use style="fill:#262626;stroke:#262626;" x="621.11671875" xlink:href="#m7afb2ee71f" y="260.9"/>
      </g>
     </g>
     <g id="line2d_15">
      <g>
       <use style="fill:#262626;stroke:#262626;" x="621.11671875" xlink:href="#m7afb2ee71f" y="37.7"/>
      </g>
     </g>
     <g id="text_5">
      <!-- 80 -->
      <defs>
       <path d="M 31.78125 34.625 
Q 24.75 34.625 20.71875 30.859375 
Q 16.703125 27.09375 16.703125 20.515625 
Q 16.703125 13.921875 20.71875 10.15625 
Q 24.75 6.390625 31.78125 6.390625 
Q 38.8125 6.390625 42.859375 10.171875 
Q 46.921875 13.96875 46.921875 20.515625 
Q 46.921875 27.09375 42.890625 30.859375 
Q 38.875 34.625 31.78125 34.625 
M 21.921875 38.8125 
Q 15.578125 40.375 12.03125 44.71875 
Q 8.5 49.078125 8.5 55.328125 
Q 8.5 64.0625 14.71875 69.140625 
Q 20.953125 74.21875 31.78125 74.21875 
Q 42.671875 74.21875 48.875 69.140625 
Q 55.078125 64.0625 55.078125 55.328125 
Q 55.078125 49.078125 51.53125 44.71875 
Q 48 40.375 41.703125 38.8125 
Q 48.828125 37.15625 52.796875 32.3125 
Q 56.78125 27.484375 56.78125 20.515625 
Q 56.78125 9.90625 50.3125 4.234375 
Q 43.84375 -1.421875 31.78125 -1.421875 
Q 19.734375 -1.421875 13.25 4.234375 
Q 6.78125 9.90625 6.78125 20.515625 
Q 6.78125 27.484375 10.78125 32.3125 
Q 14.796875 37.15625 21.921875 38.8125 
M 18.3125 54.390625 
Q 18.3125 48.734375 21.84375 45.5625 
Q 25.390625 42.390625 31.78125 42.390625 
Q 38.140625 42.390625 41.71875 45.5625 
Q 45.3125 48.734375 45.3125 54.390625 
Q 45.3125 60.0625 41.71875 63.234375 
Q 38.140625 66.40625 31.78125 66.40625 
Q 25.390625 66.40625 21.84375 63.234375 
Q 18.3125 60.0625 18.3125 54.390625 
" id="BitstreamVeraSans-Roman-38"/>
      </defs>
      <g style="fill:#262626;" transform="translate(605.21046875 286.89609375)scale(0.25 -0.25)">
       <use xlink:href="#BitstreamVeraSans-Roman-38"/>
       <use x="63.623046875" xlink:href="#BitstreamVeraSans-Roman-30"/>
      </g>
     </g>
    </g>
    <g id="xtick_6">
     <g id="line2d_16">
      <path clip-path="url(#pe97511e599)" d="M 755.036719 260.9 
L 755.036719 37.7 
" style="fill:none;stroke:#ffffff;stroke-linecap:round;"/>
     </g>
     <g id="line2d_17">
      <g>
       <use style="fill:#262626;stroke:#262626;" x="755.03671875" xlink:href="#m7afb2ee71f" y="260.9"/>
      </g>
     </g>
     <g id="line2d_18">
      <g>
       <use style="fill:#262626;stroke:#262626;" x="755.03671875" xlink:href="#m7afb2ee71f" y="37.7"/>
      </g>
     </g>
     <g id="text_6">
      <!-- 100 -->
      <defs>
       <path d="M 12.40625 8.296875 
L 28.515625 8.296875 
L 28.515625 63.921875 
L 10.984375 60.40625 
L 10.984375 69.390625 
L 28.421875 72.90625 
L 38.28125 72.90625 
L 38.28125 8.296875 
L 54.390625 8.296875 
L 54.390625 0 
L 12.40625 0 
z
" id="BitstreamVeraSans-Roman-31"/>
      </defs>
      <g style="fill:#262626;" transform="translate(731.17734375 286.89609375)scale(0.25 -0.25)">
       <use xlink:href="#BitstreamVeraSans-Roman-31"/>
       <use x="63.623046875" xlink:href="#BitstreamVeraSans-Roman-30"/>
       <use x="127.24609375" xlink:href="#BitstreamVeraSans-Roman-30"/>
      </g>
     </g>
    </g>
    <g id="text_7">
     <!-- Index $j$  -->
     <defs>
      <path d="M -1.3125 -14.203125 
Q -1.3125 -11.765625 0.359375 -9.984375 
Q 2.046875 -8.203125 4.5 -8.203125 
Q 6.109375 -8.203125 7.203125 -9.203125 
Q 8.296875 -10.203125 8.296875 -11.8125 
Q 8.296875 -13.71875 7.09375 -15.25 
Q 5.90625 -16.796875 4.109375 -17.28125 
Q 5.859375 -17.921875 7.625 -17.921875 
Q 11.859375 -17.921875 14.984375 -13.984375 
Q 18.109375 -10.0625 19.390625 -5.171875 
L 28.8125 32.421875 
Q 29.5 35.296875 29.5 37.3125 
Q 29.5 41.609375 26.515625 41.609375 
Q 22.125 41.609375 18.828125 37.625 
Q 15.53125 33.640625 13.484375 28.421875 
Q 13.28125 27.78125 12.703125 27.78125 
L 11.53125 27.78125 
Q 10.6875 27.78125 10.6875 28.71875 
L 10.6875 29 
Q 12.9375 35.015625 17.078125 39.59375 
Q 21.234375 44.1875 26.703125 44.1875 
Q 30.859375 44.1875 33.515625 41.59375 
Q 36.1875 39.015625 36.1875 35.015625 
Q 36.1875 33.59375 35.890625 32.171875 
L 26.421875 -5.8125 
Q 25.390625 -9.859375 22.5 -13.234375 
Q 19.625 -16.609375 15.625 -18.5625 
Q 11.625 -20.515625 7.421875 -20.515625 
Q 4.046875 -20.515625 1.359375 -18.890625 
Q -1.3125 -17.28125 -1.3125 -14.203125 
M 30.328125 60.59375 
Q 30.328125 62.796875 32.03125 64.453125 
Q 33.734375 66.109375 35.890625 66.109375 
Q 37.59375 66.109375 38.6875 65.0625 
Q 39.796875 64.015625 39.796875 62.40625 
Q 39.796875 60.15625 38.015625 58.46875 
Q 36.234375 56.78125 34.078125 56.78125 
Q 32.46875 56.78125 31.390625 57.90625 
Q 30.328125 59.03125 30.328125 60.59375 
" id="Cmmi10-6a"/>
      <path id="BitstreamVeraSans-Roman-20"/>
      <path d="M 54.890625 33.015625 
L 54.890625 0 
L 45.90625 0 
L 45.90625 32.71875 
Q 45.90625 40.484375 42.875 44.328125 
Q 39.84375 48.1875 33.796875 48.1875 
Q 26.515625 48.1875 22.3125 43.546875 
Q 18.109375 38.921875 18.109375 30.90625 
L 18.109375 0 
L 9.078125 0 
L 9.078125 54.6875 
L 18.109375 54.6875 
L 18.109375 46.1875 
Q 21.34375 51.125 25.703125 53.5625 
Q 30.078125 56 35.796875 56 
Q 45.21875 56 50.046875 50.171875 
Q 54.890625 44.34375 54.890625 33.015625 
" id="BitstreamVeraSans-Roman-6e"/>
      <path d="M 54.890625 54.6875 
L 35.109375 28.078125 
L 55.90625 0 
L 45.3125 0 
L 29.390625 21.484375 
L 13.484375 0 
L 2.875 0 
L 24.125 28.609375 
L 4.6875 54.6875 
L 15.28125 54.6875 
L 29.78125 35.203125 
L 44.28125 54.6875 
z
" id="BitstreamVeraSans-Roman-78"/>
      <path d="M 56.203125 29.59375 
L 56.203125 25.203125 
L 14.890625 25.203125 
Q 15.484375 15.921875 20.484375 11.0625 
Q 25.484375 6.203125 34.421875 6.203125 
Q 39.59375 6.203125 44.453125 7.46875 
Q 49.3125 8.734375 54.109375 11.28125 
L 54.109375 2.78125 
Q 49.265625 0.734375 44.1875 -0.34375 
Q 39.109375 -1.421875 33.890625 -1.421875 
Q 20.796875 -1.421875 13.15625 6.1875 
Q 5.515625 13.8125 5.515625 26.8125 
Q 5.515625 40.234375 12.765625 48.109375 
Q 20.015625 56 32.328125 56 
Q 43.359375 56 49.78125 48.890625 
Q 56.203125 41.796875 56.203125 29.59375 
M 47.21875 32.234375 
Q 47.125 39.59375 43.09375 43.984375 
Q 39.0625 48.390625 32.421875 48.390625 
Q 24.90625 48.390625 20.390625 44.140625 
Q 15.875 39.890625 15.1875 32.171875 
z
" id="BitstreamVeraSans-Roman-65"/>
      <path d="M 45.40625 46.390625 
L 45.40625 75.984375 
L 54.390625 75.984375 
L 54.390625 0 
L 45.40625 0 
L 45.40625 8.203125 
Q 42.578125 3.328125 38.25 0.953125 
Q 33.9375 -1.421875 27.875 -1.421875 
Q 17.96875 -1.421875 11.734375 6.484375 
Q 5.515625 14.40625 5.515625 27.296875 
Q 5.515625 40.1875 11.734375 48.09375 
Q 17.96875 56 27.875 56 
Q 33.9375 56 38.25 53.625 
Q 42.578125 51.265625 45.40625 46.390625 
M 14.796875 27.296875 
Q 14.796875 17.390625 18.875 11.75 
Q 22.953125 6.109375 30.078125 6.109375 
Q 37.203125 6.109375 41.296875 11.75 
Q 45.40625 17.390625 45.40625 27.296875 
Q 45.40625 37.203125 41.296875 42.84375 
Q 37.203125 48.484375 30.078125 48.484375 
Q 22.953125 48.484375 18.875 42.84375 
Q 14.796875 37.203125 14.796875 27.296875 
" id="BitstreamVeraSans-Roman-64"/>
      <path d="M 9.8125 72.90625 
L 19.671875 72.90625 
L 19.671875 0 
L 9.8125 0 
z
" id="BitstreamVeraSans-Roman-49"/>
     </defs>
     <g style="fill:#262626;" transform="translate(367.71171875 317.9953125)scale(0.275 -0.275)">
      <use transform="translate(0.0 0.015625)" xlink:href="#BitstreamVeraSans-Roman-49"/>
      <use transform="translate(29.4921875 0.015625)" xlink:href="#BitstreamVeraSans-Roman-6e"/>
      <use transform="translate(92.87109375 0.015625)" xlink:href="#BitstreamVeraSans-Roman-64"/>
      <use transform="translate(156.34765625 0.015625)" xlink:href="#BitstreamVeraSans-Roman-65"/>
      <use transform="translate(217.87109375 0.015625)" xlink:href="#BitstreamVeraSans-Roman-78"/>
      <use transform="translate(277.05078125 0.015625)" xlink:href="#BitstreamVeraSans-Roman-20"/>
      <use transform="translate(308.837890625 0.015625)" xlink:href="#Cmmi10-6a"/>
      <use transform="translate(349.951171875 0.015625)" xlink:href="#BitstreamVeraSans-Roman-20"/>
     </g>
    </g>
   </g>
   <g id="matplotlib.axis_2">
    <g id="ytick_1">
     <g id="line2d_19">
      <path clip-path="url(#pe97511e599)" d="M 85.436719 260.9 
L 755.036719 260.9 
" style="fill:none;stroke:#ffffff;stroke-linecap:round;"/>
     </g>
     <g id="line2d_20">
      <g>
       <use style="fill:#262626;stroke:#262626;" x="85.43671875" xlink:href="#m7afb2ee71f" y="260.9"/>
      </g>
     </g>
     <g id="line2d_21">
      <g>
       <use style="fill:#262626;stroke:#262626;" x="755.03671875" xlink:href="#m7afb2ee71f" y="260.9"/>
      </g>
     </g>
     <g id="text_8">
      <!-- −20 -->
      <defs>
       <path d="M 10.59375 35.5 
L 73.1875 35.5 
L 73.1875 27.203125 
L 10.59375 27.203125 
z
" id="BitstreamVeraSans-Roman-2212"/>
      </defs>
      <g style="fill:#262626;" transform="translate(25.675 267.7984375)scale(0.25 -0.25)">
       <use xlink:href="#BitstreamVeraSans-Roman-2212"/>
       <use x="83.7890625" xlink:href="#BitstreamVeraSans-Roman-32"/>
       <use x="147.412109375" xlink:href="#BitstreamVeraSans-Roman-30"/>
      </g>
     </g>
    </g>
    <g id="ytick_2">
     <g id="line2d_22">
      <path clip-path="url(#pe97511e599)" d="M 85.436719 233 
L 755.036719 233 
" style="fill:none;stroke:#ffffff;stroke-linecap:round;"/>
     </g>
     <g id="line2d_23">
      <g>
       <use style="fill:#262626;stroke:#262626;" x="85.43671875" xlink:href="#m7afb2ee71f" y="233.0"/>
      </g>
     </g>
     <g id="line2d_24">
      <g>
       <use style="fill:#262626;stroke:#262626;" x="755.03671875" xlink:href="#m7afb2ee71f" y="233.0"/>
      </g>
     </g>
     <g id="text_9">
      <!-- −15 -->
      <defs>
       <path d="M 10.796875 72.90625 
L 49.515625 72.90625 
L 49.515625 64.59375 
L 19.828125 64.59375 
L 19.828125 46.734375 
Q 21.96875 47.46875 24.109375 47.828125 
Q 26.265625 48.1875 28.421875 48.1875 
Q 40.625 48.1875 47.75 41.5 
Q 54.890625 34.8125 54.890625 23.390625 
Q 54.890625 11.625 47.5625 5.09375 
Q 40.234375 -1.421875 26.90625 -1.421875 
Q 22.3125 -1.421875 17.546875 -0.640625 
Q 12.796875 0.140625 7.71875 1.703125 
L 7.71875 11.625 
Q 12.109375 9.234375 16.796875 8.0625 
Q 21.484375 6.890625 26.703125 6.890625 
Q 35.15625 6.890625 40.078125 11.328125 
Q 45.015625 15.765625 45.015625 23.390625 
Q 45.015625 31 40.078125 35.4375 
Q 35.15625 39.890625 26.703125 39.890625 
Q 22.75 39.890625 18.8125 39.015625 
Q 14.890625 38.140625 10.796875 36.28125 
z
" id="BitstreamVeraSans-Roman-35"/>
      </defs>
      <g style="fill:#262626;" transform="translate(25.675 239.8984375)scale(0.25 -0.25)">
       <use xlink:href="#BitstreamVeraSans-Roman-2212"/>
       <use x="83.7890625" xlink:href="#BitstreamVeraSans-Roman-31"/>
       <use x="147.412109375" xlink:href="#BitstreamVeraSans-Roman-35"/>
      </g>
     </g>
    </g>
    <g id="ytick_3">
     <g id="line2d_25">
      <path clip-path="url(#pe97511e599)" d="M 85.436719 205.1 
L 755.036719 205.1 
" style="fill:none;stroke:#ffffff;stroke-linecap:round;"/>
     </g>
     <g id="line2d_26">
      <g>
       <use style="fill:#262626;stroke:#262626;" x="85.43671875" xlink:href="#m7afb2ee71f" y="205.1"/>
      </g>
     </g>
     <g id="line2d_27">
      <g>
       <use style="fill:#262626;stroke:#262626;" x="755.03671875" xlink:href="#m7afb2ee71f" y="205.1"/>
      </g>
     </g>
     <g id="text_10">
      <!-- −10 -->
      <g style="fill:#262626;" transform="translate(25.675 211.9984375)scale(0.25 -0.25)">
       <use xlink:href="#BitstreamVeraSans-Roman-2212"/>
       <use x="83.7890625" xlink:href="#BitstreamVeraSans-Roman-31"/>
       <use x="147.412109375" xlink:href="#BitstreamVeraSans-Roman-30"/>
      </g>
     </g>
    </g>
    <g id="ytick_4">
     <g id="line2d_28">
      <path clip-path="url(#pe97511e599)" d="M 85.436719 177.2 
L 755.036719 177.2 
" style="fill:none;stroke:#ffffff;stroke-linecap:round;"/>
     </g>
     <g id="line2d_29">
      <g>
       <use style="fill:#262626;stroke:#262626;" x="85.43671875" xlink:href="#m7afb2ee71f" y="177.2"/>
      </g>
     </g>
     <g id="line2d_30">
      <g>
       <use style="fill:#262626;stroke:#262626;" x="755.03671875" xlink:href="#m7afb2ee71f" y="177.2"/>
      </g>
     </g>
     <g id="text_11">
      <!-- −5 -->
      <g style="fill:#262626;" transform="translate(41.58125 184.0984375)scale(0.25 -0.25)">
       <use xlink:href="#BitstreamVeraSans-Roman-2212"/>
       <use x="83.7890625" xlink:href="#BitstreamVeraSans-Roman-35"/>
      </g>
     </g>
    </g>
    <g id="ytick_5">
     <g id="line2d_31">
      <path clip-path="url(#pe97511e599)" d="M 85.436719 149.3 
L 755.036719 149.3 
" style="fill:none;stroke:#ffffff;stroke-linecap:round;"/>
     </g>
     <g id="line2d_32">
      <g>
       <use style="fill:#262626;stroke:#262626;" x="85.43671875" xlink:href="#m7afb2ee71f" y="149.3"/>
      </g>
     </g>
     <g id="line2d_33">
      <g>
       <use style="fill:#262626;stroke:#262626;" x="755.03671875" xlink:href="#m7afb2ee71f" y="149.3"/>
      </g>
     </g>
     <g id="text_12">
      <!-- 0 -->
      <g style="fill:#262626;" transform="translate(62.53046875 156.1984375)scale(0.25 -0.25)">
       <use xlink:href="#BitstreamVeraSans-Roman-30"/>
      </g>
     </g>
    </g>
    <g id="ytick_6">
     <g id="line2d_34">
      <path clip-path="url(#pe97511e599)" d="M 85.436719 121.4 
L 755.036719 121.4 
" style="fill:none;stroke:#ffffff;stroke-linecap:round;"/>
     </g>
     <g id="line2d_35">
      <g>
       <use style="fill:#262626;stroke:#262626;" x="85.43671875" xlink:href="#m7afb2ee71f" y="121.4"/>
      </g>
     </g>
     <g id="line2d_36">
      <g>
       <use style="fill:#262626;stroke:#262626;" x="755.03671875" xlink:href="#m7afb2ee71f" y="121.4"/>
      </g>
     </g>
     <g id="text_13">
      <!-- 5 -->
      <g style="fill:#262626;" transform="translate(62.53046875 128.2984375)scale(0.25 -0.25)">
       <use xlink:href="#BitstreamVeraSans-Roman-35"/>
      </g>
     </g>
    </g>
    <g id="ytick_7">
     <g id="line2d_37">
      <path clip-path="url(#pe97511e599)" d="M 85.436719 93.5 
L 755.036719 93.5 
" style="fill:none;stroke:#ffffff;stroke-linecap:round;"/>
     </g>
     <g id="line2d_38">
      <g>
       <use style="fill:#262626;stroke:#262626;" x="85.43671875" xlink:href="#m7afb2ee71f" y="93.5"/>
      </g>
     </g>
     <g id="line2d_39">
      <g>
       <use style="fill:#262626;stroke:#262626;" x="755.03671875" xlink:href="#m7afb2ee71f" y="93.5"/>
      </g>
     </g>
     <g id="text_14">
      <!-- 10 -->
      <g style="fill:#262626;" transform="translate(46.62421875 100.3984375)scale(0.25 -0.25)">
       <use xlink:href="#BitstreamVeraSans-Roman-31"/>
       <use x="63.623046875" xlink:href="#BitstreamVeraSans-Roman-30"/>
      </g>
     </g>
    </g>
    <g id="ytick_8">
     <g id="line2d_40">
      <path clip-path="url(#pe97511e599)" d="M 85.436719 65.6 
L 755.036719 65.6 
" style="fill:none;stroke:#ffffff;stroke-linecap:round;"/>
     </g>
     <g id="line2d_41">
      <g>
       <use style="fill:#262626;stroke:#262626;" x="85.43671875" xlink:href="#m7afb2ee71f" y="65.6"/>
      </g>
     </g>
     <g id="line2d_42">
      <g>
       <use style="fill:#262626;stroke:#262626;" x="755.03671875" xlink:href="#m7afb2ee71f" y="65.6"/>
      </g>
     </g>
     <g id="text_15">
      <!-- 15 -->
      <g style="fill:#262626;" transform="translate(46.62421875 72.4984375)scale(0.25 -0.25)">
       <use xlink:href="#BitstreamVeraSans-Roman-31"/>
       <use x="63.623046875" xlink:href="#BitstreamVeraSans-Roman-35"/>
      </g>
     </g>
    </g>
    <g id="ytick_9">
     <g id="line2d_43">
      <path clip-path="url(#pe97511e599)" d="M 85.436719 37.7 
L 755.036719 37.7 
" style="fill:none;stroke:#ffffff;stroke-linecap:round;"/>
     </g>
     <g id="line2d_44">
      <g>
       <use style="fill:#262626;stroke:#262626;" x="85.43671875" xlink:href="#m7afb2ee71f" y="37.7"/>
      </g>
     </g>
     <g id="line2d_45">
      <g>
       <use style="fill:#262626;stroke:#262626;" x="755.03671875" xlink:href="#m7afb2ee71f" y="37.7"/>
      </g>
     </g>
     <g id="text_16">
      <!-- 20 -->
      <g style="fill:#262626;" transform="translate(46.62421875 44.5984375)scale(0.25 -0.25)">
       <use xlink:href="#BitstreamVeraSans-Roman-32"/>
       <use x="63.623046875" xlink:href="#BitstreamVeraSans-Roman-30"/>
      </g>
     </g>
    </g>
    <g id="text_17">
     <!-- $\bar{\kappa}_{j}$ -->
     <defs>
      <path d="M 6.890625 55.515625 
L 6.890625 58.984375 
L 43.015625 58.984375 
L 43.015625 55.515625 
z
" id="Cmr10-b9"/>
      <path d="M 5.328125 1.703125 
Q 5.328125 2.296875 5.421875 2.59375 
L 14.984375 41.015625 
Q 15.375 42.4375 16.546875 43.3125 
Q 17.71875 44.1875 19.1875 44.1875 
Q 20.453125 44.1875 21.328125 43.421875 
Q 22.21875 42.671875 22.21875 41.40625 
Q 22.21875 41.109375 22.1875 40.9375 
Q 22.171875 40.765625 22.125 40.578125 
L 18.5 26.125 
Q 22.515625 27.4375 29.15625 32.984375 
Q 35.796875 38.53125 39.1875 40.8125 
Q 42.578125 43.109375 47.515625 43.109375 
Q 49.125 43.109375 50.21875 42.109375 
Q 51.3125 41.109375 51.3125 39.40625 
Q 51.3125 37.0625 49.625 35.421875 
Q 47.953125 33.796875 45.609375 33.796875 
Q 44 33.796875 42.890625 34.84375 
Q 41.796875 35.890625 41.796875 37.5 
Q 41.796875 38.625 42.1875 39.40625 
Q 39.796875 38.421875 37.28125 36.65625 
Q 34.765625 34.90625 32.71875 33.125 
Q 30.671875 31.34375 27.78125 28.953125 
Q 24.90625 26.5625 22.609375 25.296875 
Q 26.703125 25.296875 31 24.40625 
Q 35.296875 23.53125 38.453125 21.1875 
Q 41.609375 18.84375 41.609375 14.796875 
Q 41.609375 13.1875 41.21875 12.015625 
Q 40.28125 8.015625 40.28125 6 
Q 40.28125 1.515625 43.40625 1.515625 
Q 46.96875 1.515625 48.875 5.46875 
Q 50.78125 9.421875 52 14.703125 
Q 52.203125 15.28125 52.78125 15.28125 
L 54 15.28125 
Q 54.390625 15.28125 54.640625 15.015625 
Q 54.890625 14.75 54.890625 14.40625 
Q 54.890625 14.3125 54.78125 14.109375 
Q 51.125 -1.125 43.21875 -1.125 
Q 40.375 -1.125 38.203125 0.1875 
Q 36.03125 1.515625 34.859375 3.78125 
Q 33.6875 6.0625 33.6875 8.890625 
Q 33.6875 10.6875 34.078125 12.203125 
Q 34.421875 13.578125 34.421875 14.5 
Q 34.421875 17.71875 31.5625 19.578125 
Q 28.71875 21.4375 24.828125 22.109375 
Q 20.953125 22.796875 17.578125 22.796875 
L 12.5 2.203125 
Q 12.15625 0.828125 10.953125 -0.140625 
Q 9.765625 -1.125 8.296875 -1.125 
Q 7.078125 -1.125 6.203125 -0.34375 
Q 5.328125 0.4375 5.328125 1.703125 
" id="Cmmi10-2219"/>
     </defs>
     <g style="fill:#262626;" transform="translate(7.2 140.5)scale(0.275 -0.275)">
      <use transform="translate(11.513671875 2.015625)" xlink:href="#Cmr10-b9"/>
      <use transform="translate(0.0 0.84375)" xlink:href="#Cmmi10-2219"/>
      <use transform="translate(62.081328125 -16.1625)scale(0.7)" xlink:href="#Cmmi10-6a"/>
     </g>
    </g>
   </g>
   <g id="line2d_46">
    <defs>
     <path d="M 0 5 
C 1.326016 5 2.597899 4.473168 3.535534 3.535534 
C 4.473168 2.597899 5 1.326016 5 0 
C 5 -1.326016 4.473168 -2.597899 3.535534 -3.535534 
C 2.597899 -4.473168 1.326016 -5 0 -5 
C -1.326016 -5 -2.597899 -4.473168 -3.535534 -3.535534 
C -4.473168 -2.597899 -5 -1.326016 -5 0 
C -5 1.326016 -4.473168 2.597899 -3.535534 3.535534 
C -2.597899 4.473168 -1.326016 5 0 5 
z
" id="m502c6f52de"/>
    </defs>
    <g>
     <use style="fill:#0000ff;" x="85.43671875" xlink:href="#m502c6f52de" y="42.9286201119"/>
     <use style="fill:#0000ff;" x="92.13271875" xlink:href="#m502c6f52de" y="47.4711532322"/>
     <use style="fill:#0000ff;" x="98.82871875" xlink:href="#m502c6f52de" y="51.2730557669"/>
     <use style="fill:#0000ff;" x="105.52471875" xlink:href="#m502c6f52de" y="54.7420387762"/>
     <use style="fill:#0000ff;" x="112.22071875" xlink:href="#m502c6f52de" y="57.9652194314"/>
     <use style="fill:#0000ff;" x="118.91671875" xlink:href="#m502c6f52de" y="60.8153632175"/>
     <use style="fill:#0000ff;" x="125.61271875" xlink:href="#m502c6f52de" y="63.6313915212"/>
     <use style="fill:#0000ff;" x="132.30871875" xlink:href="#m502c6f52de" y="66.4268407227"/>
     <use style="fill:#0000ff;" x="139.00471875" xlink:href="#m502c6f52de" y="69.0504524529"/>
     <use style="fill:#0000ff;" x="145.70071875" xlink:href="#m502c6f52de" y="71.4528950325"/>
     <use style="fill:#0000ff;" x="152.39671875" xlink:href="#m502c6f52de" y="73.8746404091"/>
     <use style="fill:#0000ff;" x="159.09271875" xlink:href="#m502c6f52de" y="76.1379381438"/>
     <use style="fill:#0000ff;" x="165.78871875" xlink:href="#m502c6f52de" y="78.4062810542"/>
     <use style="fill:#0000ff;" x="172.48471875" xlink:href="#m502c6f52de" y="80.6235200589"/>
     <use style="fill:#0000ff;" x="179.18071875" xlink:href="#m502c6f52de" y="82.8390841766"/>
     <use style="fill:#0000ff;" x="185.87671875" xlink:href="#m502c6f52de" y="85.0997467491"/>
     <use style="fill:#0000ff;" x="192.57271875" xlink:href="#m502c6f52de" y="87.3194247538"/>
     <use style="fill:#0000ff;" x="199.26871875" xlink:href="#m502c6f52de" y="89.3492995372"/>
     <use style="fill:#0000ff;" x="205.96471875" xlink:href="#m502c6f52de" y="91.4679982882"/>
     <use style="fill:#0000ff;" x="212.66071875" xlink:href="#m502c6f52de" y="93.5660620404"/>
     <use style="fill:#0000ff;" x="219.35671875" xlink:href="#m502c6f52de" y="95.4971621577"/>
     <use style="fill:#0000ff;" x="226.05271875" xlink:href="#m502c6f52de" y="97.5315496907"/>
     <use style="fill:#0000ff;" x="232.74871875" xlink:href="#m502c6f52de" y="99.4183101608"/>
     <use style="fill:#0000ff;" x="239.44471875" xlink:href="#m502c6f52de" y="101.339068018"/>
     <use style="fill:#0000ff;" x="246.14071875" xlink:href="#m502c6f52de" y="103.212701138"/>
     <use style="fill:#0000ff;" x="252.83671875" xlink:href="#m502c6f52de" y="105.196703515"/>
     <use style="fill:#0000ff;" x="259.53271875" xlink:href="#m502c6f52de" y="107.043266072"/>
     <use style="fill:#0000ff;" x="266.22871875" xlink:href="#m502c6f52de" y="108.97933865"/>
     <use style="fill:#0000ff;" x="272.92471875" xlink:href="#m502c6f52de" y="110.8233317"/>
     <use style="fill:#0000ff;" x="279.62071875" xlink:href="#m502c6f52de" y="112.597254789"/>
     <use style="fill:#0000ff;" x="286.31671875" xlink:href="#m502c6f52de" y="114.48276426"/>
     <use style="fill:#0000ff;" x="293.01271875" xlink:href="#m502c6f52de" y="116.370338899"/>
     <use style="fill:#0000ff;" x="299.70871875" xlink:href="#m502c6f52de" y="118.352166232"/>
     <use style="fill:#0000ff;" x="306.40471875" xlink:href="#m502c6f52de" y="120.093359982"/>
     <use style="fill:#0000ff;" x="313.10071875" xlink:href="#m502c6f52de" y="121.833224601"/>
     <use style="fill:#0000ff;" x="319.79671875" xlink:href="#m502c6f52de" y="123.618968151"/>
     <use style="fill:#0000ff;" x="326.49271875" xlink:href="#m502c6f52de" y="125.313798107"/>
     <use style="fill:#0000ff;" x="333.18871875" xlink:href="#m502c6f52de" y="127.056865711"/>
     <use style="fill:#0000ff;" x="339.88471875" xlink:href="#m502c6f52de" y="128.965816687"/>
     <use style="fill:#0000ff;" x="346.58071875" xlink:href="#m502c6f52de" y="130.815053626"/>
     <use style="fill:#0000ff;" x="353.27671875" xlink:href="#m502c6f52de" y="132.622408738"/>
     <use style="fill:#0000ff;" x="359.97271875" xlink:href="#m502c6f52de" y="134.386805965"/>
     <use style="fill:#0000ff;" x="366.66871875" xlink:href="#m502c6f52de" y="136.140911346"/>
     <use style="fill:#0000ff;" x="373.36471875" xlink:href="#m502c6f52de" y="137.865963937"/>
     <use style="fill:#0000ff;" x="380.06071875" xlink:href="#m502c6f52de" y="139.541166945"/>
     <use style="fill:#0000ff;" x="386.75671875" xlink:href="#m502c6f52de" y="141.349810076"/>
     <use style="fill:#0000ff;" x="393.45271875" xlink:href="#m502c6f52de" y="143.065971483"/>
     <use style="fill:#0000ff;" x="400.14871875" xlink:href="#m502c6f52de" y="144.8724532"/>
     <use style="fill:#0000ff;" x="406.84471875" xlink:href="#m502c6f52de" y="146.580913211"/>
     <use style="fill:#0000ff;" x="413.54071875" xlink:href="#m502c6f52de" y="148.368025215"/>
     <use style="fill:#0000ff;" x="420.23671875" xlink:href="#m502c6f52de" y="150.166095205"/>
     <use style="fill:#0000ff;" x="426.93271875" xlink:href="#m502c6f52de" y="151.822307701"/>
     <use style="fill:#0000ff;" x="433.62871875" xlink:href="#m502c6f52de" y="153.685304933"/>
     <use style="fill:#0000ff;" x="440.32471875" xlink:href="#m502c6f52de" y="155.375312956"/>
     <use style="fill:#0000ff;" x="447.02071875" xlink:href="#m502c6f52de" y="157.179004264"/>
     <use style="fill:#0000ff;" x="453.71671875" xlink:href="#m502c6f52de" y="158.919422742"/>
     <use style="fill:#0000ff;" x="460.41271875" xlink:href="#m502c6f52de" y="160.705039373"/>
     <use style="fill:#0000ff;" x="467.10871875" xlink:href="#m502c6f52de" y="162.472264207"/>
     <use style="fill:#0000ff;" x="473.80471875" xlink:href="#m502c6f52de" y="164.256554665"/>
     <use style="fill:#0000ff;" x="480.50071875" xlink:href="#m502c6f52de" y="165.999454688"/>
     <use style="fill:#0000ff;" x="487.19671875" xlink:href="#m502c6f52de" y="167.792782825"/>
     <use style="fill:#0000ff;" x="493.89271875" xlink:href="#m502c6f52de" y="169.568605935"/>
     <use style="fill:#0000ff;" x="500.58871875" xlink:href="#m502c6f52de" y="171.167595693"/>
     <use style="fill:#0000ff;" x="507.28471875" xlink:href="#m502c6f52de" y="173.131945929"/>
     <use style="fill:#0000ff;" x="513.98071875" xlink:href="#m502c6f52de" y="174.962904527"/>
     <use style="fill:#0000ff;" x="520.67671875" xlink:href="#m502c6f52de" y="176.840241531"/>
     <use style="fill:#0000ff;" x="527.37271875" xlink:href="#m502c6f52de" y="178.584115255"/>
     <use style="fill:#0000ff;" x="534.06871875" xlink:href="#m502c6f52de" y="180.324670183"/>
     <use style="fill:#0000ff;" x="540.76471875" xlink:href="#m502c6f52de" y="182.083744979"/>
     <use style="fill:#0000ff;" x="547.46071875" xlink:href="#m502c6f52de" y="183.753907813"/>
     <use style="fill:#0000ff;" x="554.15671875" xlink:href="#m502c6f52de" y="185.68328363"/>
     <use style="fill:#0000ff;" x="560.85271875" xlink:href="#m502c6f52de" y="187.617357547"/>
     <use style="fill:#0000ff;" x="567.54871875" xlink:href="#m502c6f52de" y="189.534879976"/>
     <use style="fill:#0000ff;" x="574.24471875" xlink:href="#m502c6f52de" y="191.427035072"/>
     <use style="fill:#0000ff;" x="580.94071875" xlink:href="#m502c6f52de" y="193.378559622"/>
     <use style="fill:#0000ff;" x="587.63671875" xlink:href="#m502c6f52de" y="195.320605965"/>
     <use style="fill:#0000ff;" x="594.33271875" xlink:href="#m502c6f52de" y="197.192825862"/>
     <use style="fill:#0000ff;" x="601.02871875" xlink:href="#m502c6f52de" y="199.229746297"/>
     <use style="fill:#0000ff;" x="607.72471875" xlink:href="#m502c6f52de" y="201.140327469"/>
     <use style="fill:#0000ff;" x="614.42071875" xlink:href="#m502c6f52de" y="203.138216308"/>
     <use style="fill:#0000ff;" x="621.11671875" xlink:href="#m502c6f52de" y="205.001189285"/>
     <use style="fill:#0000ff;" x="627.81271875" xlink:href="#m502c6f52de" y="207.151751093"/>
     <use style="fill:#0000ff;" x="634.50871875" xlink:href="#m502c6f52de" y="209.26883637"/>
     <use style="fill:#0000ff;" x="641.20471875" xlink:href="#m502c6f52de" y="211.291428961"/>
     <use style="fill:#0000ff;" x="647.90071875" xlink:href="#m502c6f52de" y="213.536679279"/>
     <use style="fill:#0000ff;" x="654.59671875" xlink:href="#m502c6f52de" y="215.481485175"/>
     <use style="fill:#0000ff;" x="661.29271875" xlink:href="#m502c6f52de" y="217.728939694"/>
     <use style="fill:#0000ff;" x="667.98871875" xlink:href="#m502c6f52de" y="220.224006616"/>
     <use style="fill:#0000ff;" x="674.68471875" xlink:href="#m502c6f52de" y="222.510958156"/>
     <use style="fill:#0000ff;" x="681.38071875" xlink:href="#m502c6f52de" y="224.74780002"/>
     <use style="fill:#0000ff;" x="688.07671875" xlink:href="#m502c6f52de" y="227.214513379"/>
     <use style="fill:#0000ff;" x="694.77271875" xlink:href="#m502c6f52de" y="229.68002889"/>
     <use style="fill:#0000ff;" x="701.46871875" xlink:href="#m502c6f52de" y="232.316670132"/>
     <use style="fill:#0000ff;" x="708.16471875" xlink:href="#m502c6f52de" y="234.910499193"/>
     <use style="fill:#0000ff;" x="714.86071875" xlink:href="#m502c6f52de" y="237.789925012"/>
     <use style="fill:#0000ff;" x="721.55671875" xlink:href="#m502c6f52de" y="240.598121803"/>
     <use style="fill:#0000ff;" x="728.25271875" xlink:href="#m502c6f52de" y="243.803242204"/>
     <use style="fill:#0000ff;" x="734.94871875" xlink:href="#m502c6f52de" y="247.313449856"/>
     <use style="fill:#0000ff;" x="741.64471875" xlink:href="#m502c6f52de" y="250.992031917"/>
     <use style="fill:#0000ff;" x="748.34071875" xlink:href="#m502c6f52de" y="256.011017619"/>
    </g>
   </g>
   <g id="line2d_47">
    <path d="M 85.436719 42.305174 
L 92.132719 47.323244 
L 98.828719 51.277318 
L 105.524719 54.746956 
L 112.220719 57.916935 
L 118.916719 60.876405 
L 125.612719 63.67697 
L 132.308719 66.35187 
L 139.004719 68.924091 
L 145.700719 71.410367 
L 152.396719 73.823356 
L 159.092719 76.172927 
L 165.788719 78.466967 
L 172.484719 80.711904 
L 179.180719 82.913068 
L 185.876719 85.074942 
L 192.572719 87.201344 
L 199.268719 89.295563 
L 205.964719 91.360457 
L 212.660719 93.398535 
L 219.356719 95.412011 
L 226.052719 97.402859 
L 232.748719 99.372847 
L 239.444719 101.323566 
L 246.140719 103.256462 
L 252.836719 105.172848 
L 259.532719 107.073929 
L 266.228719 108.960811 
L 272.924719 110.834517 
L 279.620719 112.695996 
L 286.316719 114.546129 
L 293.012719 116.385742 
L 299.708719 118.215608 
L 306.404719 120.036458 
L 313.100719 121.848978 
L 319.796719 123.653822 
L 326.492719 125.45161 
L 333.188719 127.242935 
L 339.884719 129.028364 
L 346.580719 130.808443 
L 353.276719 132.583696 
L 359.972719 134.354633 
L 366.668719 136.121744 
L 373.364719 137.88551 
L 380.060719 139.6464 
L 386.756719 141.40487 
L 393.452719 143.161373 
L 400.148719 144.916351 
L 406.844719 146.670244 
L 413.540719 148.423487 
L 420.236719 150.176513 
L 426.932719 151.929756 
L 433.628719 153.683649 
L 440.324719 155.438627 
L 447.020719 157.19513 
L 453.716719 158.9536 
L 460.412719 160.71449 
L 467.108719 162.478256 
L 473.804719 164.245367 
L 480.500719 166.016304 
L 487.196719 167.791557 
L 493.892719 169.571636 
L 500.588719 171.357065 
L 507.284719 173.14839 
L 513.980719 174.946178 
L 520.676719 176.751022 
L 527.372719 178.563542 
L 534.068719 180.384392 
L 540.764719 182.214258 
L 547.460719 184.053871 
L 554.156719 185.904004 
L 560.852719 187.765483 
L 567.548719 189.639189 
L 574.244719 191.526071 
L 580.940719 193.427152 
L 587.636719 195.343538 
L 594.332719 197.276434 
L 601.028719 199.227153 
L 607.724719 201.197141 
L 614.420719 203.187989 
L 621.116719 205.201465 
L 627.812719 207.239543 
L 634.508719 209.304437 
L 641.204719 211.398656 
L 647.900719 213.525058 
L 654.596719 215.686932 
L 661.292719 217.888096 
L 667.988719 220.133033 
L 674.684719 222.427073 
L 681.380719 224.776644 
L 688.076719 227.189633 
L 694.772719 229.675909 
L 701.468719 232.24813 
L 708.164719 234.92303 
L 714.860719 237.723595 
L 721.556719 240.683065 
L 728.252719 243.853044 
L 734.948719 247.322682 
L 741.644719 251.276756 
L 748.340719 256.294826 
" style="fill:none;stroke:#ffa500;stroke-dasharray:6.000000,6.000000;stroke-dashoffset:0.0;stroke-width:4.0;"/>
   </g>
   <g id="patch_3">
    <path d="M 85.436719 37.7 
L 755.036719 37.7 
" style="fill:none;"/>
   </g>
   <g id="patch_4">
    <path d="M 755.036719 260.9 
L 755.036719 37.7 
" style="fill:none;"/>
   </g>
   <g id="patch_5">
    <path d="M 85.436719 260.9 
L 755.036719 260.9 
" style="fill:none;"/>
   </g>
   <g id="patch_6">
    <path d="M 85.436719 260.9 
L 85.436719 37.7 
" style="fill:none;"/>
   </g>
   <g id="text_18">
    <!-- Sorted GUE Eigenvalues vs CDF$^{-1}$ (N=100) -->
    <defs>
     <path d="M 8.015625 75.875 
L 15.828125 75.875 
Q 23.140625 64.359375 26.78125 53.3125 
Q 30.421875 42.28125 30.421875 31.390625 
Q 30.421875 20.453125 26.78125 9.375 
Q 23.140625 -1.703125 15.828125 -13.1875 
L 8.015625 -13.1875 
Q 14.5 -2 17.703125 9.0625 
Q 20.90625 20.125 20.90625 31.390625 
Q 20.90625 42.671875 17.703125 53.65625 
Q 14.5 64.65625 8.015625 75.875 
" id="BitstreamVeraSans-Roman-29"/>
     <path d="M 31 75.875 
Q 24.46875 64.65625 21.28125 53.65625 
Q 18.109375 42.671875 18.109375 31.390625 
Q 18.109375 20.125 21.3125 9.0625 
Q 24.515625 -2 31 -13.1875 
L 23.1875 -13.1875 
Q 15.875 -1.703125 12.234375 9.375 
Q 8.59375 20.453125 8.59375 31.390625 
Q 8.59375 42.28125 12.203125 53.3125 
Q 15.828125 64.359375 23.1875 75.875 
z
" id="BitstreamVeraSans-Roman-28"/>
     <path d="M 59.515625 10.40625 
L 59.515625 29.984375 
L 43.40625 29.984375 
L 43.40625 38.09375 
L 69.28125 38.09375 
L 69.28125 6.78125 
Q 63.578125 2.734375 56.6875 0.65625 
Q 49.8125 -1.421875 42 -1.421875 
Q 24.90625 -1.421875 15.25 8.5625 
Q 5.609375 18.5625 5.609375 36.375 
Q 5.609375 54.25 15.25 64.234375 
Q 24.90625 74.21875 42 74.21875 
Q 49.125 74.21875 55.546875 72.453125 
Q 61.96875 70.703125 67.390625 67.28125 
L 67.390625 56.78125 
Q 61.921875 61.421875 55.765625 63.765625 
Q 49.609375 66.109375 42.828125 66.109375 
Q 29.4375 66.109375 22.71875 58.640625 
Q 16.015625 51.171875 16.015625 36.375 
Q 16.015625 21.625 22.71875 14.15625 
Q 29.4375 6.6875 42.828125 6.6875 
Q 48.046875 6.6875 52.140625 7.59375 
Q 56.25 8.5 59.515625 10.40625 
" id="BitstreamVeraSans-Roman-47"/>
     <path d="M 9.8125 72.90625 
L 51.703125 72.90625 
L 51.703125 64.59375 
L 19.671875 64.59375 
L 19.671875 43.109375 
L 48.578125 43.109375 
L 48.578125 34.8125 
L 19.671875 34.8125 
L 19.671875 0 
L 9.8125 0 
z
" id="BitstreamVeraSans-Roman-46"/>
     <path d="M 9.8125 72.90625 
L 55.90625 72.90625 
L 55.90625 64.59375 
L 19.671875 64.59375 
L 19.671875 43.015625 
L 54.390625 43.015625 
L 54.390625 34.71875 
L 19.671875 34.71875 
L 19.671875 8.296875 
L 56.78125 8.296875 
L 56.78125 0 
L 9.8125 0 
z
" id="BitstreamVeraSans-Roman-45"/>
     <path d="M 19.671875 64.796875 
L 19.671875 8.109375 
L 31.59375 8.109375 
Q 46.6875 8.109375 53.6875 14.9375 
Q 60.6875 21.78125 60.6875 36.53125 
Q 60.6875 51.171875 53.6875 57.984375 
Q 46.6875 64.796875 31.59375 64.796875 
z
M 9.8125 72.90625 
L 30.078125 72.90625 
Q 51.265625 72.90625 61.171875 64.09375 
Q 71.09375 55.28125 71.09375 36.53125 
Q 71.09375 17.671875 61.125 8.828125 
Q 51.171875 0 30.078125 0 
L 9.8125 0 
z
" id="BitstreamVeraSans-Roman-44"/>
     <path d="M 9.421875 54.6875 
L 18.40625 54.6875 
L 18.40625 0 
L 9.421875 0 
z
M 9.421875 75.984375 
L 18.40625 75.984375 
L 18.40625 64.59375 
L 9.421875 64.59375 
z
" id="BitstreamVeraSans-Roman-69"/>
     <path d="M 10.59375 45.40625 
L 73.1875 45.40625 
L 73.1875 37.203125 
L 10.59375 37.203125 
z
M 10.59375 25.484375 
L 73.1875 25.484375 
L 73.1875 17.1875 
L 10.59375 17.1875 
z
" id="BitstreamVeraSans-Roman-3d"/>
     <path d="M 45.40625 27.984375 
Q 45.40625 37.75 41.375 43.109375 
Q 37.359375 48.484375 30.078125 48.484375 
Q 22.859375 48.484375 18.828125 43.109375 
Q 14.796875 37.75 14.796875 27.984375 
Q 14.796875 18.265625 18.828125 12.890625 
Q 22.859375 7.515625 30.078125 7.515625 
Q 37.359375 7.515625 41.375 12.890625 
Q 45.40625 18.265625 45.40625 27.984375 
M 54.390625 6.78125 
Q 54.390625 -7.171875 48.1875 -13.984375 
Q 42 -20.796875 29.203125 -20.796875 
Q 24.46875 -20.796875 20.265625 -20.09375 
Q 16.0625 -19.390625 12.109375 -17.921875 
L 12.109375 -9.1875 
Q 16.0625 -11.328125 19.921875 -12.34375 
Q 23.78125 -13.375 27.78125 -13.375 
Q 36.625 -13.375 41.015625 -8.765625 
Q 45.40625 -4.15625 45.40625 5.171875 
L 45.40625 9.625 
Q 42.625 4.78125 38.28125 2.390625 
Q 33.9375 0 27.875 0 
Q 17.828125 0 11.671875 7.65625 
Q 5.515625 15.328125 5.515625 27.984375 
Q 5.515625 40.671875 11.671875 48.328125 
Q 17.828125 56 27.875 56 
Q 33.9375 56 38.28125 53.609375 
Q 42.625 51.21875 45.40625 46.390625 
L 45.40625 54.6875 
L 54.390625 54.6875 
z
" id="BitstreamVeraSans-Roman-67"/>
     <path d="M 34.28125 27.484375 
Q 23.390625 27.484375 19.1875 25 
Q 14.984375 22.515625 14.984375 16.5 
Q 14.984375 11.71875 18.140625 8.90625 
Q 21.296875 6.109375 26.703125 6.109375 
Q 34.1875 6.109375 38.703125 11.40625 
Q 43.21875 16.703125 43.21875 25.484375 
L 43.21875 27.484375 
z
M 52.203125 31.203125 
L 52.203125 0 
L 43.21875 0 
L 43.21875 8.296875 
Q 40.140625 3.328125 35.546875 0.953125 
Q 30.953125 -1.421875 24.3125 -1.421875 
Q 15.921875 -1.421875 10.953125 3.296875 
Q 6 8.015625 6 15.921875 
Q 6 25.140625 12.171875 29.828125 
Q 18.359375 34.515625 30.609375 34.515625 
L 43.21875 34.515625 
L 43.21875 35.40625 
Q 43.21875 41.609375 39.140625 45 
Q 35.0625 48.390625 27.6875 48.390625 
Q 23 48.390625 18.546875 47.265625 
Q 14.109375 46.140625 10.015625 43.890625 
L 10.015625 52.203125 
Q 14.9375 54.109375 19.578125 55.046875 
Q 24.21875 56 28.609375 56 
Q 40.484375 56 46.34375 49.84375 
Q 52.203125 43.703125 52.203125 31.203125 
" id="BitstreamVeraSans-Roman-61"/>
     <path d="M 9.8125 72.90625 
L 23.09375 72.90625 
L 55.421875 11.921875 
L 55.421875 72.90625 
L 64.984375 72.90625 
L 64.984375 0 
L 51.703125 0 
L 19.390625 60.984375 
L 19.390625 0 
L 9.8125 0 
z
" id="BitstreamVeraSans-Roman-4e"/>
     <path d="M 10.203125 23 
Q 9.375 23 8.828125 23.625 
Q 8.296875 24.265625 8.296875 25 
Q 8.296875 25.734375 8.828125 26.359375 
Q 9.375 27 10.203125 27 
L 67.578125 27 
Q 68.359375 27 68.875 26.359375 
Q 69.390625 25.734375 69.390625 25 
Q 69.390625 24.265625 68.875 23.625 
Q 68.359375 23 67.578125 23 
z
" id="Cmsy10-a1"/>
     <path d="M 30.609375 48.390625 
Q 23.390625 48.390625 19.1875 42.75 
Q 14.984375 37.109375 14.984375 27.296875 
Q 14.984375 17.484375 19.15625 11.84375 
Q 23.34375 6.203125 30.609375 6.203125 
Q 37.796875 6.203125 41.984375 11.859375 
Q 46.1875 17.53125 46.1875 27.296875 
Q 46.1875 37.015625 41.984375 42.703125 
Q 37.796875 48.390625 30.609375 48.390625 
M 30.609375 56 
Q 42.328125 56 49.015625 48.375 
Q 55.71875 40.765625 55.71875 27.296875 
Q 55.71875 13.875 49.015625 6.21875 
Q 42.328125 -1.421875 30.609375 -1.421875 
Q 18.84375 -1.421875 12.171875 6.21875 
Q 5.515625 13.875 5.515625 27.296875 
Q 5.515625 40.765625 12.171875 48.375 
Q 18.84375 56 30.609375 56 
" id="BitstreamVeraSans-Roman-6f"/>
     <path d="M 9.421875 75.984375 
L 18.40625 75.984375 
L 18.40625 0 
L 9.421875 0 
z
" id="BitstreamVeraSans-Roman-6c"/>
     <path d="M 53.515625 70.515625 
L 53.515625 60.890625 
Q 47.90625 63.578125 42.921875 64.890625 
Q 37.9375 66.21875 33.296875 66.21875 
Q 25.25 66.21875 20.875 63.09375 
Q 16.5 59.96875 16.5 54.203125 
Q 16.5 49.359375 19.40625 46.890625 
Q 22.3125 44.4375 30.421875 42.921875 
L 36.375 41.703125 
Q 47.40625 39.59375 52.65625 34.296875 
Q 57.90625 29 57.90625 20.125 
Q 57.90625 9.515625 50.796875 4.046875 
Q 43.703125 -1.421875 29.984375 -1.421875 
Q 24.8125 -1.421875 18.96875 -0.25 
Q 13.140625 0.921875 6.890625 3.21875 
L 6.890625 13.375 
Q 12.890625 10.015625 18.65625 8.296875 
Q 24.421875 6.59375 29.984375 6.59375 
Q 38.421875 6.59375 43.015625 9.90625 
Q 47.609375 13.234375 47.609375 19.390625 
Q 47.609375 24.75 44.3125 27.78125 
Q 41.015625 30.8125 33.5 32.328125 
L 27.484375 33.5 
Q 16.453125 35.6875 11.515625 40.375 
Q 6.59375 45.0625 6.59375 53.421875 
Q 6.59375 63.09375 13.40625 68.65625 
Q 20.21875 74.21875 32.171875 74.21875 
Q 37.3125 74.21875 42.625 73.28125 
Q 47.953125 72.359375 53.515625 70.515625 
" id="BitstreamVeraSans-Roman-53"/>
     <path d="M 8.6875 72.90625 
L 18.609375 72.90625 
L 18.609375 28.609375 
Q 18.609375 16.890625 22.84375 11.734375 
Q 27.09375 6.59375 36.625 6.59375 
Q 46.09375 6.59375 50.34375 11.734375 
Q 54.59375 16.890625 54.59375 28.609375 
L 54.59375 72.90625 
L 64.5 72.90625 
L 64.5 27.390625 
Q 64.5 13.140625 57.4375 5.859375 
Q 50.390625 -1.421875 36.625 -1.421875 
Q 22.796875 -1.421875 15.734375 5.859375 
Q 8.6875 13.140625 8.6875 27.390625 
z
" id="BitstreamVeraSans-Roman-55"/>
     <path d="M 2.984375 54.6875 
L 12.5 54.6875 
L 29.59375 8.796875 
L 46.6875 54.6875 
L 56.203125 54.6875 
L 35.6875 0 
L 23.484375 0 
z
" id="BitstreamVeraSans-Roman-76"/>
     <path d="M 18.3125 70.21875 
L 18.3125 54.6875 
L 36.8125 54.6875 
L 36.8125 47.703125 
L 18.3125 47.703125 
L 18.3125 18.015625 
Q 18.3125 11.328125 20.140625 9.421875 
Q 21.96875 7.515625 27.59375 7.515625 
L 36.8125 7.515625 
L 36.8125 0 
L 27.59375 0 
Q 17.1875 0 13.234375 3.875 
Q 9.28125 7.765625 9.28125 18.015625 
L 9.28125 47.703125 
L 2.6875 47.703125 
L 2.6875 54.6875 
L 9.28125 54.6875 
L 9.28125 70.21875 
z
" id="BitstreamVeraSans-Roman-74"/>
     <path d="M 8.5 21.578125 
L 8.5 54.6875 
L 17.484375 54.6875 
L 17.484375 21.921875 
Q 17.484375 14.15625 20.5 10.265625 
Q 23.53125 6.390625 29.59375 6.390625 
Q 36.859375 6.390625 41.078125 11.03125 
Q 45.3125 15.671875 45.3125 23.6875 
L 45.3125 54.6875 
L 54.296875 54.6875 
L 54.296875 0 
L 45.3125 0 
L 45.3125 8.40625 
Q 42.046875 3.421875 37.71875 1 
Q 33.40625 -1.421875 27.6875 -1.421875 
Q 18.265625 -1.421875 13.375 4.4375 
Q 8.5 10.296875 8.5 21.578125 
" id="BitstreamVeraSans-Roman-75"/>
     <path d="M 41.109375 46.296875 
Q 39.59375 47.171875 37.8125 47.578125 
Q 36.03125 48 33.890625 48 
Q 26.265625 48 22.1875 43.046875 
Q 18.109375 38.09375 18.109375 28.8125 
L 18.109375 0 
L 9.078125 0 
L 9.078125 54.6875 
L 18.109375 54.6875 
L 18.109375 46.1875 
Q 20.953125 51.171875 25.484375 53.578125 
Q 30.03125 56 36.53125 56 
Q 37.453125 56 38.578125 55.875 
Q 39.703125 55.765625 41.0625 55.515625 
z
" id="BitstreamVeraSans-Roman-72"/>
     <path d="M 44.28125 53.078125 
L 44.28125 44.578125 
Q 40.484375 46.53125 36.375 47.5 
Q 32.28125 48.484375 27.875 48.484375 
Q 21.1875 48.484375 17.84375 46.4375 
Q 14.5 44.390625 14.5 40.28125 
Q 14.5 37.15625 16.890625 35.375 
Q 19.28125 33.59375 26.515625 31.984375 
L 29.59375 31.296875 
Q 39.15625 29.25 43.1875 25.515625 
Q 47.21875 21.78125 47.21875 15.09375 
Q 47.21875 7.46875 41.1875 3.015625 
Q 35.15625 -1.421875 24.609375 -1.421875 
Q 20.21875 -1.421875 15.453125 -0.5625 
Q 10.6875 0.296875 5.421875 2 
L 5.421875 11.28125 
Q 10.40625 8.6875 15.234375 7.390625 
Q 20.0625 6.109375 24.8125 6.109375 
Q 31.15625 6.109375 34.5625 8.28125 
Q 37.984375 10.453125 37.984375 14.40625 
Q 37.984375 18.0625 35.515625 20.015625 
Q 33.0625 21.96875 24.703125 23.78125 
L 21.578125 24.515625 
Q 13.234375 26.265625 9.515625 29.90625 
Q 5.8125 33.546875 5.8125 39.890625 
Q 5.8125 47.609375 11.28125 51.796875 
Q 16.75 56 26.8125 56 
Q 31.78125 56 36.171875 55.265625 
Q 40.578125 54.546875 44.28125 53.078125 
" id="BitstreamVeraSans-Roman-73"/>
     <path d="M 9.28125 0 
L 9.28125 3.515625 
Q 21.78125 3.515625 21.78125 6.6875 
L 21.78125 59.1875 
Q 16.609375 56.6875 8.6875 56.6875 
L 8.6875 60.203125 
Q 20.953125 60.203125 27.203125 66.609375 
L 28.609375 66.609375 
Q 28.953125 66.609375 29.265625 66.328125 
Q 29.59375 66.0625 29.59375 65.71875 
L 29.59375 6.6875 
Q 29.59375 3.515625 42.09375 3.515625 
L 42.09375 0 
z
" id="Cmr10-31"/>
     <path d="M 64.40625 67.28125 
L 64.40625 56.890625 
Q 59.421875 61.53125 53.78125 63.8125 
Q 48.140625 66.109375 41.796875 66.109375 
Q 29.296875 66.109375 22.65625 58.46875 
Q 16.015625 50.828125 16.015625 36.375 
Q 16.015625 21.96875 22.65625 14.328125 
Q 29.296875 6.6875 41.796875 6.6875 
Q 48.140625 6.6875 53.78125 8.984375 
Q 59.421875 11.28125 64.40625 15.921875 
L 64.40625 5.609375 
Q 59.234375 2.09375 53.4375 0.328125 
Q 47.65625 -1.421875 41.21875 -1.421875 
Q 24.65625 -1.421875 15.125 8.703125 
Q 5.609375 18.84375 5.609375 36.375 
Q 5.609375 53.953125 15.125 64.078125 
Q 24.65625 74.21875 41.21875 74.21875 
Q 47.75 74.21875 53.53125 72.484375 
Q 59.328125 70.75 64.40625 67.28125 
" id="BitstreamVeraSans-Roman-43"/>
    </defs>
    <g style="fill:#262626;" transform="translate(97.58671875 32.7)scale(0.3 -0.3)">
     <use transform="translate(0.0 0.109375)" xlink:href="#BitstreamVeraSans-Roman-53"/>
     <use transform="translate(63.4765625 0.109375)" xlink:href="#BitstreamVeraSans-Roman-6f"/>
     <use transform="translate(124.658203125 0.109375)" xlink:href="#BitstreamVeraSans-Roman-72"/>
     <use transform="translate(165.771484375 0.109375)" xlink:href="#BitstreamVeraSans-Roman-74"/>
     <use transform="translate(204.98046875 0.109375)" xlink:href="#BitstreamVeraSans-Roman-65"/>
     <use transform="translate(266.50390625 0.109375)" xlink:href="#BitstreamVeraSans-Roman-64"/>
     <use transform="translate(329.98046875 0.109375)" xlink:href="#BitstreamVeraSans-Roman-20"/>
     <use transform="translate(361.767578125 0.109375)" xlink:href="#BitstreamVeraSans-Roman-47"/>
     <use transform="translate(439.2578125 0.109375)" xlink:href="#BitstreamVeraSans-Roman-55"/>
     <use transform="translate(512.451171875 0.109375)" xlink:href="#BitstreamVeraSans-Roman-45"/>
     <use transform="translate(575.634765625 0.109375)" xlink:href="#BitstreamVeraSans-Roman-20"/>
     <use transform="translate(607.421875 0.109375)" xlink:href="#BitstreamVeraSans-Roman-45"/>
     <use transform="translate(670.60546875 0.109375)" xlink:href="#BitstreamVeraSans-Roman-69"/>
     <use transform="translate(698.388671875 0.109375)" xlink:href="#BitstreamVeraSans-Roman-67"/>
     <use transform="translate(761.865234375 0.109375)" xlink:href="#BitstreamVeraSans-Roman-65"/>
     <use transform="translate(823.388671875 0.109375)" xlink:href="#BitstreamVeraSans-Roman-6e"/>
     <use transform="translate(886.767578125 0.109375)" xlink:href="#BitstreamVeraSans-Roman-76"/>
     <use transform="translate(945.947265625 0.109375)" xlink:href="#BitstreamVeraSans-Roman-61"/>
     <use transform="translate(1007.2265625 0.109375)" xlink:href="#BitstreamVeraSans-Roman-6c"/>
     <use transform="translate(1035.00976562 0.109375)" xlink:href="#BitstreamVeraSans-Roman-75"/>
     <use transform="translate(1098.38867188 0.109375)" xlink:href="#BitstreamVeraSans-Roman-65"/>
     <use transform="translate(1159.91210938 0.109375)" xlink:href="#BitstreamVeraSans-Roman-73"/>
     <use transform="translate(1212.01171875 0.109375)" xlink:href="#BitstreamVeraSans-Roman-20"/>
     <use transform="translate(1243.79882812 0.109375)" xlink:href="#BitstreamVeraSans-Roman-76"/>
     <use transform="translate(1302.97851562 0.109375)" xlink:href="#BitstreamVeraSans-Roman-73"/>
     <use transform="translate(1355.078125 0.109375)" xlink:href="#BitstreamVeraSans-Roman-20"/>
     <use transform="translate(1386.86523438 0.109375)" xlink:href="#BitstreamVeraSans-Roman-43"/>
     <use transform="translate(1456.68945312 0.109375)" xlink:href="#BitstreamVeraSans-Roman-44"/>
     <use transform="translate(1533.69140625 0.109375)" xlink:href="#BitstreamVeraSans-Roman-46"/>
     <use transform="translate(1595.67507813 38.3734375)scale(0.7)" xlink:href="#Cmsy10-a1"/>
     <use transform="translate(1650.05496094 38.3734375)scale(0.7)" xlink:href="#Cmr10-31"/>
     <use transform="translate(1691.43230469 0.109375)" xlink:href="#BitstreamVeraSans-Roman-20"/>
     <use transform="translate(1723.21941406 0.109375)" xlink:href="#BitstreamVeraSans-Roman-28"/>
     <use transform="translate(1762.23308594 0.109375)" xlink:href="#BitstreamVeraSans-Roman-4e"/>
     <use transform="translate(1837.03777344 0.109375)" xlink:href="#BitstreamVeraSans-Roman-3d"/>
     <use transform="translate(1920.82683594 0.109375)" xlink:href="#BitstreamVeraSans-Roman-31"/>
     <use transform="translate(1984.44988281 0.109375)" xlink:href="#BitstreamVeraSans-Roman-30"/>
     <use transform="translate(2048.07292969 0.109375)" xlink:href="#BitstreamVeraSans-Roman-30"/>
     <use transform="translate(2111.69597656 0.109375)" xlink:href="#BitstreamVeraSans-Roman-29"/>
    </g>
   </g>
   <g id="legend_1">
    <g id="patch_7">
     <path d="M 452.11875 134.395313 
L 737.536719 134.395313 
Q 742.536719 134.395313 742.536719 129.395313 
L 742.536719 55.2 
Q 742.536719 50.2 737.536719 50.2 
L 452.11875 50.2 
Q 447.11875 50.2 447.11875 55.2 
L 447.11875 129.395313 
Q 447.11875 134.395313 452.11875 134.395313 
z
" style="fill:#eaeaf2;stroke:#ffffff;stroke-linejoin:miter;stroke-width:0.3;"/>
    </g>
    <g id="line2d_48"/>
    <g id="line2d_49">
     <g>
      <use style="fill:#0000ff;" x="482.11875" xlink:href="#m502c6f52de" y="70.44609375"/>
     </g>
    </g>
    <g id="text_19">
     <!-- Data (Numerics) -->
     <defs>
      <path d="M 52 44.1875 
Q 55.375 50.25 60.0625 53.125 
Q 64.75 56 71.09375 56 
Q 79.640625 56 84.28125 50.015625 
Q 88.921875 44.046875 88.921875 33.015625 
L 88.921875 0 
L 79.890625 0 
L 79.890625 32.71875 
Q 79.890625 40.578125 77.09375 44.375 
Q 74.3125 48.1875 68.609375 48.1875 
Q 61.625 48.1875 57.5625 43.546875 
Q 53.515625 38.921875 53.515625 30.90625 
L 53.515625 0 
L 44.484375 0 
L 44.484375 32.71875 
Q 44.484375 40.625 41.703125 44.40625 
Q 38.921875 48.1875 33.109375 48.1875 
Q 26.21875 48.1875 22.15625 43.53125 
Q 18.109375 38.875 18.109375 30.90625 
L 18.109375 0 
L 9.078125 0 
L 9.078125 54.6875 
L 18.109375 54.6875 
L 18.109375 46.1875 
Q 21.1875 51.21875 25.484375 53.609375 
Q 29.78125 56 35.6875 56 
Q 41.65625 56 45.828125 52.96875 
Q 50 49.953125 52 44.1875 
" id="BitstreamVeraSans-Roman-6d"/>
      <path d="M 48.78125 52.59375 
L 48.78125 44.1875 
Q 44.96875 46.296875 41.140625 47.34375 
Q 37.3125 48.390625 33.40625 48.390625 
Q 24.65625 48.390625 19.8125 42.84375 
Q 14.984375 37.3125 14.984375 27.296875 
Q 14.984375 17.28125 19.8125 11.734375 
Q 24.65625 6.203125 33.40625 6.203125 
Q 37.3125 6.203125 41.140625 7.25 
Q 44.96875 8.296875 48.78125 10.40625 
L 48.78125 2.09375 
Q 45.015625 0.34375 40.984375 -0.53125 
Q 36.96875 -1.421875 32.421875 -1.421875 
Q 20.0625 -1.421875 12.78125 6.34375 
Q 5.515625 14.109375 5.515625 27.296875 
Q 5.515625 40.671875 12.859375 48.328125 
Q 20.21875 56 33.015625 56 
Q 37.15625 56 41.109375 55.140625 
Q 45.0625 54.296875 48.78125 52.59375 
" id="BitstreamVeraSans-Roman-63"/>
     </defs>
     <g style="fill:#262626;" transform="translate(527.11875 79.19609375)scale(0.25 -0.25)">
      <use xlink:href="#BitstreamVeraSans-Roman-44"/>
      <use x="77.001953125" xlink:href="#BitstreamVeraSans-Roman-61"/>
      <use x="138.28125" xlink:href="#BitstreamVeraSans-Roman-74"/>
      <use x="177.490234375" xlink:href="#BitstreamVeraSans-Roman-61"/>
      <use x="238.76953125" xlink:href="#BitstreamVeraSans-Roman-20"/>
      <use x="270.556640625" xlink:href="#BitstreamVeraSans-Roman-28"/>
      <use x="309.5703125" xlink:href="#BitstreamVeraSans-Roman-4e"/>
      <use x="384.375" xlink:href="#BitstreamVeraSans-Roman-75"/>
      <use x="447.75390625" xlink:href="#BitstreamVeraSans-Roman-6d"/>
      <use x="545.166015625" xlink:href="#BitstreamVeraSans-Roman-65"/>
      <use x="606.689453125" xlink:href="#BitstreamVeraSans-Roman-72"/>
      <use x="647.802734375" xlink:href="#BitstreamVeraSans-Roman-69"/>
      <use x="675.5859375" xlink:href="#BitstreamVeraSans-Roman-63"/>
      <use x="730.56640625" xlink:href="#BitstreamVeraSans-Roman-73"/>
      <use x="782.666015625" xlink:href="#BitstreamVeraSans-Roman-29"/>
     </g>
    </g>
    <g id="line2d_50">
     <path d="M 457.11875 109.395313 
L 507.11875 109.395313 
" style="fill:none;stroke:#ffa500;stroke-dasharray:6.000000,6.000000;stroke-dashoffset:0.0;stroke-width:4.0;"/>
    </g>
    <g id="line2d_51"/>
    <g id="text_20">
     <!-- Theory (CDF$^{-1})$ -->
     <defs>
      <path d="M 6.5 -25 
Q 5.609375 -25 5.609375 -24.125 
Q 5.609375 -23.6875 5.8125 -23.484375 
Q 22.90625 -6.78125 22.90625 25 
Q 22.90625 56.78125 6 73.296875 
Q 5.609375 73.53125 5.609375 74.125 
Q 5.609375 74.46875 5.875 74.734375 
Q 6.15625 75 6.5 75 
L 7.421875 75 
Q 7.71875 75 7.90625 74.8125 
Q 15.09375 69.140625 19.875 61.03125 
Q 24.65625 52.9375 26.875 43.75 
Q 29.109375 34.578125 29.109375 25 
Q 29.109375 17.921875 27.90625 11.0625 
Q 26.703125 4.203125 24.09375 -2.453125 
Q 21.484375 -9.125 17.484375 -14.765625 
Q 13.484375 -20.40625 7.90625 -24.8125 
Q 7.71875 -25 7.421875 -25 
z
" id="Cmr10-29"/>
      <path d="M -0.296875 72.90625 
L 61.375 72.90625 
L 61.375 64.59375 
L 35.5 64.59375 
L 35.5 0 
L 25.59375 0 
L 25.59375 64.59375 
L -0.296875 64.59375 
z
" id="BitstreamVeraSans-Roman-54"/>
      <path d="M 54.890625 33.015625 
L 54.890625 0 
L 45.90625 0 
L 45.90625 32.71875 
Q 45.90625 40.484375 42.875 44.328125 
Q 39.84375 48.1875 33.796875 48.1875 
Q 26.515625 48.1875 22.3125 43.546875 
Q 18.109375 38.921875 18.109375 30.90625 
L 18.109375 0 
L 9.078125 0 
L 9.078125 75.984375 
L 18.109375 75.984375 
L 18.109375 46.1875 
Q 21.34375 51.125 25.703125 53.5625 
Q 30.078125 56 35.796875 56 
Q 45.21875 56 50.046875 50.171875 
Q 54.890625 44.34375 54.890625 33.015625 
" id="BitstreamVeraSans-Roman-68"/>
      <path d="M 32.171875 -5.078125 
Q 28.375 -14.84375 24.75 -17.8125 
Q 21.140625 -20.796875 15.09375 -20.796875 
L 7.90625 -20.796875 
L 7.90625 -13.28125 
L 13.1875 -13.28125 
Q 16.890625 -13.28125 18.9375 -11.515625 
Q 21 -9.765625 23.484375 -3.21875 
L 25.09375 0.875 
L 2.984375 54.6875 
L 12.5 54.6875 
L 29.59375 11.921875 
L 46.6875 54.6875 
L 56.203125 54.6875 
z
" id="BitstreamVeraSans-Roman-79"/>
     </defs>
     <g style="fill:#262626;" transform="translate(527.11875 118.1453125)scale(0.25 -0.25)">
      <use transform="translate(0.0 0.109375)" xlink:href="#BitstreamVeraSans-Roman-54"/>
      <use transform="translate(61.083984375 0.109375)" xlink:href="#BitstreamVeraSans-Roman-68"/>
      <use transform="translate(124.462890625 0.109375)" xlink:href="#BitstreamVeraSans-Roman-65"/>
      <use transform="translate(185.986328125 0.109375)" xlink:href="#BitstreamVeraSans-Roman-6f"/>
      <use transform="translate(247.16796875 0.109375)" xlink:href="#BitstreamVeraSans-Roman-72"/>
      <use transform="translate(288.28125 0.109375)" xlink:href="#BitstreamVeraSans-Roman-79"/>
      <use transform="translate(347.4609375 0.109375)" xlink:href="#BitstreamVeraSans-Roman-20"/>
      <use transform="translate(379.248046875 0.109375)" xlink:href="#BitstreamVeraSans-Roman-28"/>
      <use transform="translate(418.26171875 0.109375)" xlink:href="#BitstreamVeraSans-Roman-43"/>
      <use transform="translate(488.0859375 0.109375)" xlink:href="#BitstreamVeraSans-Roman-44"/>
      <use transform="translate(565.087890625 0.109375)" xlink:href="#BitstreamVeraSans-Roman-46"/>
      <use transform="translate(627.0715625 38.3734375)scale(0.7)" xlink:href="#Cmsy10-a1"/>
      <use transform="translate(681.451445313 38.3734375)scale(0.7)" xlink:href="#Cmr10-31"/>
      <use transform="translate(722.828789062 0.109375)" xlink:href="#Cmr10-29"/>
     </g>
    </g>
   </g>
  </g>
  <g id="axes_2">
   <g id="patch_8">
    <path d="M 85.436719 595.7 
L 755.036719 595.7 
L 755.036719 372.5 
L 85.436719 372.5 
z
" style="fill:#eaeaf2;"/>
   </g>
   <g id="matplotlib.axis_3">
    <g id="xtick_7">
     <g id="line2d_52">
      <path clip-path="url(#p17c6a900d0)" d="M 85.436719 595.7 
L 85.436719 372.5 
" style="fill:none;stroke:#ffffff;stroke-linecap:round;"/>
     </g>
     <g id="line2d_53">
      <g>
       <use style="fill:#262626;stroke:#262626;" x="85.43671875" xlink:href="#m7afb2ee71f" y="595.7"/>
      </g>
     </g>
     <g id="line2d_54">
      <g>
       <use style="fill:#262626;stroke:#262626;" x="85.43671875" xlink:href="#m7afb2ee71f" y="372.5"/>
      </g>
     </g>
     <g id="text_21">
      <!-- 0 -->
      <g style="fill:#262626;" transform="translate(77.48359375 621.69609375)scale(0.25 -0.25)">
       <use xlink:href="#BitstreamVeraSans-Roman-30"/>
      </g>
     </g>
    </g>
    <g id="xtick_8">
     <g id="line2d_55">
      <path clip-path="url(#p17c6a900d0)" d="M 159.836719 595.7 
L 159.836719 372.5 
" style="fill:none;stroke:#ffffff;stroke-linecap:round;"/>
     </g>
     <g id="line2d_56">
      <g>
       <use style="fill:#262626;stroke:#262626;" x="159.83671875" xlink:href="#m7afb2ee71f" y="595.7"/>
      </g>
     </g>
     <g id="line2d_57">
      <g>
       <use style="fill:#262626;stroke:#262626;" x="159.83671875" xlink:href="#m7afb2ee71f" y="372.5"/>
      </g>
     </g>
     <g id="text_22">
      <!-- 1 -->
      <g style="fill:#262626;" transform="translate(151.88359375 621.69609375)scale(0.25 -0.25)">
       <use xlink:href="#BitstreamVeraSans-Roman-31"/>
      </g>
     </g>
    </g>
    <g id="xtick_9">
     <g id="line2d_58">
      <path clip-path="url(#p17c6a900d0)" d="M 234.236719 595.7 
L 234.236719 372.5 
" style="fill:none;stroke:#ffffff;stroke-linecap:round;"/>
     </g>
     <g id="line2d_59">
      <g>
       <use style="fill:#262626;stroke:#262626;" x="234.23671875" xlink:href="#m7afb2ee71f" y="595.7"/>
      </g>
     </g>
     <g id="line2d_60">
      <g>
       <use style="fill:#262626;stroke:#262626;" x="234.23671875" xlink:href="#m7afb2ee71f" y="372.5"/>
      </g>
     </g>
     <g id="text_23">
      <!-- 2 -->
      <g style="fill:#262626;" transform="translate(226.28359375 621.69609375)scale(0.25 -0.25)">
       <use xlink:href="#BitstreamVeraSans-Roman-32"/>
      </g>
     </g>
    </g>
    <g id="xtick_10">
     <g id="line2d_61">
      <path clip-path="url(#p17c6a900d0)" d="M 308.636719 595.7 
L 308.636719 372.5 
" style="fill:none;stroke:#ffffff;stroke-linecap:round;"/>
     </g>
     <g id="line2d_62">
      <g>
       <use style="fill:#262626;stroke:#262626;" x="308.63671875" xlink:href="#m7afb2ee71f" y="595.7"/>
      </g>
     </g>
     <g id="line2d_63">
      <g>
       <use style="fill:#262626;stroke:#262626;" x="308.63671875" xlink:href="#m7afb2ee71f" y="372.5"/>
      </g>
     </g>
     <g id="text_24">
      <!-- 3 -->
      <defs>
       <path d="M 40.578125 39.3125 
Q 47.65625 37.796875 51.625 33 
Q 55.609375 28.21875 55.609375 21.1875 
Q 55.609375 10.40625 48.1875 4.484375 
Q 40.765625 -1.421875 27.09375 -1.421875 
Q 22.515625 -1.421875 17.65625 -0.515625 
Q 12.796875 0.390625 7.625 2.203125 
L 7.625 11.71875 
Q 11.71875 9.328125 16.59375 8.109375 
Q 21.484375 6.890625 26.8125 6.890625 
Q 36.078125 6.890625 40.9375 10.546875 
Q 45.796875 14.203125 45.796875 21.1875 
Q 45.796875 27.640625 41.28125 31.265625 
Q 36.765625 34.90625 28.71875 34.90625 
L 20.21875 34.90625 
L 20.21875 43.015625 
L 29.109375 43.015625 
Q 36.375 43.015625 40.234375 45.921875 
Q 44.09375 48.828125 44.09375 54.296875 
Q 44.09375 59.90625 40.109375 62.90625 
Q 36.140625 65.921875 28.71875 65.921875 
Q 24.65625 65.921875 20.015625 65.03125 
Q 15.375 64.15625 9.8125 62.3125 
L 9.8125 71.09375 
Q 15.4375 72.65625 20.34375 73.4375 
Q 25.25 74.21875 29.59375 74.21875 
Q 40.828125 74.21875 47.359375 69.109375 
Q 53.90625 64.015625 53.90625 55.328125 
Q 53.90625 49.265625 50.4375 45.09375 
Q 46.96875 40.921875 40.578125 39.3125 
" id="BitstreamVeraSans-Roman-33"/>
      </defs>
      <g style="fill:#262626;" transform="translate(300.68359375 621.69609375)scale(0.25 -0.25)">
       <use xlink:href="#BitstreamVeraSans-Roman-33"/>
      </g>
     </g>
    </g>
    <g id="xtick_11">
     <g id="line2d_64">
      <path clip-path="url(#p17c6a900d0)" d="M 383.036719 595.7 
L 383.036719 372.5 
" style="fill:none;stroke:#ffffff;stroke-linecap:round;"/>
     </g>
     <g id="line2d_65">
      <g>
       <use style="fill:#262626;stroke:#262626;" x="383.03671875" xlink:href="#m7afb2ee71f" y="595.7"/>
      </g>
     </g>
     <g id="line2d_66">
      <g>
       <use style="fill:#262626;stroke:#262626;" x="383.03671875" xlink:href="#m7afb2ee71f" y="372.5"/>
      </g>
     </g>
     <g id="text_25">
      <!-- 4 -->
      <g style="fill:#262626;" transform="translate(375.08359375 621.69609375)scale(0.25 -0.25)">
       <use xlink:href="#BitstreamVeraSans-Roman-34"/>
      </g>
     </g>
    </g>
    <g id="xtick_12">
     <g id="line2d_67">
      <path clip-path="url(#p17c6a900d0)" d="M 457.436719 595.7 
L 457.436719 372.5 
" style="fill:none;stroke:#ffffff;stroke-linecap:round;"/>
     </g>
     <g id="line2d_68">
      <g>
       <use style="fill:#262626;stroke:#262626;" x="457.43671875" xlink:href="#m7afb2ee71f" y="595.7"/>
      </g>
     </g>
     <g id="line2d_69">
      <g>
       <use style="fill:#262626;stroke:#262626;" x="457.43671875" xlink:href="#m7afb2ee71f" y="372.5"/>
      </g>
     </g>
     <g id="text_26">
      <!-- 5 -->
      <g style="fill:#262626;" transform="translate(449.48359375 621.69609375)scale(0.25 -0.25)">
       <use xlink:href="#BitstreamVeraSans-Roman-35"/>
      </g>
     </g>
    </g>
    <g id="xtick_13">
     <g id="line2d_70">
      <path clip-path="url(#p17c6a900d0)" d="M 531.836719 595.7 
L 531.836719 372.5 
" style="fill:none;stroke:#ffffff;stroke-linecap:round;"/>
     </g>
     <g id="line2d_71">
      <g>
       <use style="fill:#262626;stroke:#262626;" x="531.83671875" xlink:href="#m7afb2ee71f" y="595.7"/>
      </g>
     </g>
     <g id="line2d_72">
      <g>
       <use style="fill:#262626;stroke:#262626;" x="531.83671875" xlink:href="#m7afb2ee71f" y="372.5"/>
      </g>
     </g>
     <g id="text_27">
      <!-- 6 -->
      <g style="fill:#262626;" transform="translate(523.88359375 621.69609375)scale(0.25 -0.25)">
       <use xlink:href="#BitstreamVeraSans-Roman-36"/>
      </g>
     </g>
    </g>
    <g id="xtick_14">
     <g id="line2d_73">
      <path clip-path="url(#p17c6a900d0)" d="M 606.236719 595.7 
L 606.236719 372.5 
" style="fill:none;stroke:#ffffff;stroke-linecap:round;"/>
     </g>
     <g id="line2d_74">
      <g>
       <use style="fill:#262626;stroke:#262626;" x="606.23671875" xlink:href="#m7afb2ee71f" y="595.7"/>
      </g>
     </g>
     <g id="line2d_75">
      <g>
       <use style="fill:#262626;stroke:#262626;" x="606.23671875" xlink:href="#m7afb2ee71f" y="372.5"/>
      </g>
     </g>
     <g id="text_28">
      <!-- 7 -->
      <defs>
       <path d="M 8.203125 72.90625 
L 55.078125 72.90625 
L 55.078125 68.703125 
L 28.609375 0 
L 18.3125 0 
L 43.21875 64.59375 
L 8.203125 64.59375 
z
" id="BitstreamVeraSans-Roman-37"/>
      </defs>
      <g style="fill:#262626;" transform="translate(598.28359375 621.69609375)scale(0.25 -0.25)">
       <use xlink:href="#BitstreamVeraSans-Roman-37"/>
      </g>
     </g>
    </g>
    <g id="xtick_15">
     <g id="line2d_76">
      <path clip-path="url(#p17c6a900d0)" d="M 680.636719 595.7 
L 680.636719 372.5 
" style="fill:none;stroke:#ffffff;stroke-linecap:round;"/>
     </g>
     <g id="line2d_77">
      <g>
       <use style="fill:#262626;stroke:#262626;" x="680.63671875" xlink:href="#m7afb2ee71f" y="595.7"/>
      </g>
     </g>
     <g id="line2d_78">
      <g>
       <use style="fill:#262626;stroke:#262626;" x="680.63671875" xlink:href="#m7afb2ee71f" y="372.5"/>
      </g>
     </g>
     <g id="text_29">
      <!-- 8 -->
      <g style="fill:#262626;" transform="translate(672.68359375 621.69609375)scale(0.25 -0.25)">
       <use xlink:href="#BitstreamVeraSans-Roman-38"/>
      </g>
     </g>
    </g>
    <g id="xtick_16">
     <g id="line2d_79">
      <path clip-path="url(#p17c6a900d0)" d="M 755.036719 595.7 
L 755.036719 372.5 
" style="fill:none;stroke:#ffffff;stroke-linecap:round;"/>
     </g>
     <g id="line2d_80">
      <g>
       <use style="fill:#262626;stroke:#262626;" x="755.03671875" xlink:href="#m7afb2ee71f" y="595.7"/>
      </g>
     </g>
     <g id="line2d_81">
      <g>
       <use style="fill:#262626;stroke:#262626;" x="755.03671875" xlink:href="#m7afb2ee71f" y="372.5"/>
      </g>
     </g>
     <g id="text_30">
      <!-- 9 -->
      <defs>
       <path d="M 10.984375 1.515625 
L 10.984375 10.5 
Q 14.703125 8.734375 18.5 7.8125 
Q 22.3125 6.890625 25.984375 6.890625 
Q 35.75 6.890625 40.890625 13.453125 
Q 46.046875 20.015625 46.78125 33.40625 
Q 43.953125 29.203125 39.59375 26.953125 
Q 35.25 24.703125 29.984375 24.703125 
Q 19.046875 24.703125 12.671875 31.3125 
Q 6.296875 37.9375 6.296875 49.421875 
Q 6.296875 60.640625 12.9375 67.421875 
Q 19.578125 74.21875 30.609375 74.21875 
Q 43.265625 74.21875 49.921875 64.515625 
Q 56.59375 54.828125 56.59375 36.375 
Q 56.59375 19.140625 48.40625 8.859375 
Q 40.234375 -1.421875 26.421875 -1.421875 
Q 22.703125 -1.421875 18.890625 -0.6875 
Q 15.09375 0.046875 10.984375 1.515625 
M 30.609375 32.421875 
Q 37.25 32.421875 41.125 36.953125 
Q 45.015625 41.5 45.015625 49.421875 
Q 45.015625 57.28125 41.125 61.84375 
Q 37.25 66.40625 30.609375 66.40625 
Q 23.96875 66.40625 20.09375 61.84375 
Q 16.21875 57.28125 16.21875 49.421875 
Q 16.21875 41.5 20.09375 36.953125 
Q 23.96875 32.421875 30.609375 32.421875 
" id="BitstreamVeraSans-Roman-39"/>
      </defs>
      <g style="fill:#262626;" transform="translate(747.08359375 621.69609375)scale(0.25 -0.25)">
       <use xlink:href="#BitstreamVeraSans-Roman-39"/>
      </g>
     </g>
    </g>
    <g id="text_31">
     <!-- Index $j$  -->
     <g style="fill:#262626;" transform="translate(367.71171875 652.7953125)scale(0.275 -0.275)">
      <use transform="translate(0.0 0.015625)" xlink:href="#BitstreamVeraSans-Roman-49"/>
      <use transform="translate(29.4921875 0.015625)" xlink:href="#BitstreamVeraSans-Roman-6e"/>
      <use transform="translate(92.87109375 0.015625)" xlink:href="#BitstreamVeraSans-Roman-64"/>
      <use transform="translate(156.34765625 0.015625)" xlink:href="#BitstreamVeraSans-Roman-65"/>
      <use transform="translate(217.87109375 0.015625)" xlink:href="#BitstreamVeraSans-Roman-78"/>
      <use transform="translate(277.05078125 0.015625)" xlink:href="#BitstreamVeraSans-Roman-20"/>
      <use transform="translate(308.837890625 0.015625)" xlink:href="#Cmmi10-6a"/>
      <use transform="translate(349.951171875 0.015625)" xlink:href="#BitstreamVeraSans-Roman-20"/>
     </g>
    </g>
   </g>
   <g id="matplotlib.axis_4">
    <g id="ytick_10">
     <g id="line2d_82">
      <path clip-path="url(#p17c6a900d0)" d="M 85.436719 595.7 
L 755.036719 595.7 
" style="fill:none;stroke:#ffffff;stroke-linecap:round;"/>
     </g>
     <g id="line2d_83">
      <g>
       <use style="fill:#262626;stroke:#262626;" x="85.43671875" xlink:href="#m7afb2ee71f" y="595.7"/>
      </g>
     </g>
     <g id="line2d_84">
      <g>
       <use style="fill:#262626;stroke:#262626;" x="755.03671875" xlink:href="#m7afb2ee71f" y="595.7"/>
      </g>
     </g>
     <g id="text_32">
      <!-- −6 -->
      <g style="fill:#262626;" transform="translate(41.58125 602.5984375)scale(0.25 -0.25)">
       <use xlink:href="#BitstreamVeraSans-Roman-2212"/>
       <use x="83.7890625" xlink:href="#BitstreamVeraSans-Roman-36"/>
      </g>
     </g>
    </g>
    <g id="ytick_11">
     <g id="line2d_85">
      <path clip-path="url(#p17c6a900d0)" d="M 85.436719 558.5 
L 755.036719 558.5 
" style="fill:none;stroke:#ffffff;stroke-linecap:round;"/>
     </g>
     <g id="line2d_86">
      <g>
       <use style="fill:#262626;stroke:#262626;" x="85.43671875" xlink:href="#m7afb2ee71f" y="558.5"/>
      </g>
     </g>
     <g id="line2d_87">
      <g>
       <use style="fill:#262626;stroke:#262626;" x="755.03671875" xlink:href="#m7afb2ee71f" y="558.5"/>
      </g>
     </g>
     <g id="text_33">
      <!-- −4 -->
      <g style="fill:#262626;" transform="translate(41.58125 565.3984375)scale(0.25 -0.25)">
       <use xlink:href="#BitstreamVeraSans-Roman-2212"/>
       <use x="83.7890625" xlink:href="#BitstreamVeraSans-Roman-34"/>
      </g>
     </g>
    </g>
    <g id="ytick_12">
     <g id="line2d_88">
      <path clip-path="url(#p17c6a900d0)" d="M 85.436719 521.3 
L 755.036719 521.3 
" style="fill:none;stroke:#ffffff;stroke-linecap:round;"/>
     </g>
     <g id="line2d_89">
      <g>
       <use style="fill:#262626;stroke:#262626;" x="85.43671875" xlink:href="#m7afb2ee71f" y="521.3"/>
      </g>
     </g>
     <g id="line2d_90">
      <g>
       <use style="fill:#262626;stroke:#262626;" x="755.03671875" xlink:href="#m7afb2ee71f" y="521.3"/>
      </g>
     </g>
     <g id="text_34">
      <!-- −2 -->
      <g style="fill:#262626;" transform="translate(41.58125 528.1984375)scale(0.25 -0.25)">
       <use xlink:href="#BitstreamVeraSans-Roman-2212"/>
       <use x="83.7890625" xlink:href="#BitstreamVeraSans-Roman-32"/>
      </g>
     </g>
    </g>
    <g id="ytick_13">
     <g id="line2d_91">
      <path clip-path="url(#p17c6a900d0)" d="M 85.436719 484.1 
L 755.036719 484.1 
" style="fill:none;stroke:#ffffff;stroke-linecap:round;"/>
     </g>
     <g id="line2d_92">
      <g>
       <use style="fill:#262626;stroke:#262626;" x="85.43671875" xlink:href="#m7afb2ee71f" y="484.1"/>
      </g>
     </g>
     <g id="line2d_93">
      <g>
       <use style="fill:#262626;stroke:#262626;" x="755.03671875" xlink:href="#m7afb2ee71f" y="484.1"/>
      </g>
     </g>
     <g id="text_35">
      <!-- 0 -->
      <g style="fill:#262626;" transform="translate(62.53046875 490.9984375)scale(0.25 -0.25)">
       <use xlink:href="#BitstreamVeraSans-Roman-30"/>
      </g>
     </g>
    </g>
    <g id="ytick_14">
     <g id="line2d_94">
      <path clip-path="url(#p17c6a900d0)" d="M 85.436719 446.9 
L 755.036719 446.9 
" style="fill:none;stroke:#ffffff;stroke-linecap:round;"/>
     </g>
     <g id="line2d_95">
      <g>
       <use style="fill:#262626;stroke:#262626;" x="85.43671875" xlink:href="#m7afb2ee71f" y="446.9"/>
      </g>
     </g>
     <g id="line2d_96">
      <g>
       <use style="fill:#262626;stroke:#262626;" x="755.03671875" xlink:href="#m7afb2ee71f" y="446.9"/>
      </g>
     </g>
     <g id="text_36">
      <!-- 2 -->
      <g style="fill:#262626;" transform="translate(62.53046875 453.7984375)scale(0.25 -0.25)">
       <use xlink:href="#BitstreamVeraSans-Roman-32"/>
      </g>
     </g>
    </g>
    <g id="ytick_15">
     <g id="line2d_97">
      <path clip-path="url(#p17c6a900d0)" d="M 85.436719 409.7 
L 755.036719 409.7 
" style="fill:none;stroke:#ffffff;stroke-linecap:round;"/>
     </g>
     <g id="line2d_98">
      <g>
       <use style="fill:#262626;stroke:#262626;" x="85.43671875" xlink:href="#m7afb2ee71f" y="409.7"/>
      </g>
     </g>
     <g id="line2d_99">
      <g>
       <use style="fill:#262626;stroke:#262626;" x="755.03671875" xlink:href="#m7afb2ee71f" y="409.7"/>
      </g>
     </g>
     <g id="text_37">
      <!-- 4 -->
      <g style="fill:#262626;" transform="translate(62.53046875 416.5984375)scale(0.25 -0.25)">
       <use xlink:href="#BitstreamVeraSans-Roman-34"/>
      </g>
     </g>
    </g>
    <g id="ytick_16">
     <g id="line2d_100">
      <path clip-path="url(#p17c6a900d0)" d="M 85.436719 372.5 
L 755.036719 372.5 
" style="fill:none;stroke:#ffffff;stroke-linecap:round;"/>
     </g>
     <g id="line2d_101">
      <g>
       <use style="fill:#262626;stroke:#262626;" x="85.43671875" xlink:href="#m7afb2ee71f" y="372.5"/>
      </g>
     </g>
     <g id="line2d_102">
      <g>
       <use style="fill:#262626;stroke:#262626;" x="755.03671875" xlink:href="#m7afb2ee71f" y="372.5"/>
      </g>
     </g>
     <g id="text_38">
      <!-- 6 -->
      <g style="fill:#262626;" transform="translate(62.53046875 379.3984375)scale(0.25 -0.25)">
       <use xlink:href="#BitstreamVeraSans-Roman-36"/>
      </g>
     </g>
    </g>
    <g id="text_39">
     <!-- $\bar{\kappa}_{j}$ -->
     <g style="fill:#262626;" transform="translate(23.10625 475.3)scale(0.275 -0.275)">
      <use transform="translate(11.513671875 2.015625)" xlink:href="#Cmr10-b9"/>
      <use transform="translate(0.0 0.84375)" xlink:href="#Cmmi10-2219"/>
      <use transform="translate(62.081328125 -16.1625)scale(0.7)" xlink:href="#Cmmi10-6a"/>
     </g>
    </g>
   </g>
   <g id="line2d_103">
    <g>
     <use style="fill:#0000ff;" x="85.43671875" xlink:href="#m502c6f52de" y="391.023110205"/>
     <use style="fill:#0000ff;" x="159.83671875" xlink:href="#m502c6f52de" y="415.848715942"/>
     <use style="fill:#0000ff;" x="234.23671875" xlink:href="#m502c6f52de" y="436.421590895"/>
     <use style="fill:#0000ff;" x="308.63671875" xlink:href="#m502c6f52de" y="456.812602933"/>
     <use style="fill:#0000ff;" x="383.03671875" xlink:href="#m502c6f52de" y="475.728789445"/>
     <use style="fill:#0000ff;" x="457.43671875" xlink:href="#m502c6f52de" y="492.840381231"/>
     <use style="fill:#0000ff;" x="531.83671875" xlink:href="#m502c6f52de" y="511.840919665"/>
     <use style="fill:#0000ff;" x="606.23671875" xlink:href="#m502c6f52de" y="530.09103384"/>
     <use style="fill:#0000ff;" x="680.63671875" xlink:href="#m502c6f52de" y="552.129766805"/>
     <use style="fill:#0000ff;" x="755.03671875" xlink:href="#m502c6f52de" y="578.141702448"/>
    </g>
   </g>
   <g id="line2d_104">
    <path d="M 85.436719 389.357303 
L 159.836719 415.266348 
L 234.236719 436.577967 
L 308.636719 456.116288 
L 383.036719 474.851296 
L 457.436719 493.348704 
L 531.836719 512.083712 
L 606.236719 531.622033 
L 680.636719 552.933652 
L 755.036719 578.842697 
" style="fill:none;stroke:#ffa500;stroke-dasharray:6.000000,6.000000;stroke-dashoffset:0.0;stroke-width:4.0;"/>
   </g>
   <g id="patch_9">
    <path d="M 85.436719 372.5 
L 755.036719 372.5 
" style="fill:none;"/>
   </g>
   <g id="patch_10">
    <path d="M 755.036719 595.7 
L 755.036719 372.5 
" style="fill:none;"/>
   </g>
   <g id="patch_11">
    <path d="M 85.436719 595.7 
L 755.036719 595.7 
" style="fill:none;"/>
   </g>
   <g id="patch_12">
    <path d="M 85.436719 595.7 
L 85.436719 372.5 
" style="fill:none;"/>
   </g>
   <g id="text_40">
    <!-- Sorted GUE Eigenvalues vs CDF$^{-1}$ (N=10) -->
    <g style="fill:#262626;" transform="translate(107.03671875 367.5)scale(0.3 -0.3)">
     <use transform="translate(0.0 0.109375)" xlink:href="#BitstreamVeraSans-Roman-53"/>
     <use transform="translate(63.4765625 0.109375)" xlink:href="#BitstreamVeraSans-Roman-6f"/>
     <use transform="translate(124.658203125 0.109375)" xlink:href="#BitstreamVeraSans-Roman-72"/>
     <use transform="translate(165.771484375 0.109375)" xlink:href="#BitstreamVeraSans-Roman-74"/>
     <use transform="translate(204.98046875 0.109375)" xlink:href="#BitstreamVeraSans-Roman-65"/>
     <use transform="translate(266.50390625 0.109375)" xlink:href="#BitstreamVeraSans-Roman-64"/>
     <use transform="translate(329.98046875 0.109375)" xlink:href="#BitstreamVeraSans-Roman-20"/>
     <use transform="translate(361.767578125 0.109375)" xlink:href="#BitstreamVeraSans-Roman-47"/>
     <use transform="translate(439.2578125 0.109375)" xlink:href="#BitstreamVeraSans-Roman-55"/>
     <use transform="translate(512.451171875 0.109375)" xlink:href="#BitstreamVeraSans-Roman-45"/>
     <use transform="translate(575.634765625 0.109375)" xlink:href="#BitstreamVeraSans-Roman-20"/>
     <use transform="translate(607.421875 0.109375)" xlink:href="#BitstreamVeraSans-Roman-45"/>
     <use transform="translate(670.60546875 0.109375)" xlink:href="#BitstreamVeraSans-Roman-69"/>
     <use transform="translate(698.388671875 0.109375)" xlink:href="#BitstreamVeraSans-Roman-67"/>
     <use transform="translate(761.865234375 0.109375)" xlink:href="#BitstreamVeraSans-Roman-65"/>
     <use transform="translate(823.388671875 0.109375)" xlink:href="#BitstreamVeraSans-Roman-6e"/>
     <use transform="translate(886.767578125 0.109375)" xlink:href="#BitstreamVeraSans-Roman-76"/>
     <use transform="translate(945.947265625 0.109375)" xlink:href="#BitstreamVeraSans-Roman-61"/>
     <use transform="translate(1007.2265625 0.109375)" xlink:href="#BitstreamVeraSans-Roman-6c"/>
     <use transform="translate(1035.00976562 0.109375)" xlink:href="#BitstreamVeraSans-Roman-75"/>
     <use transform="translate(1098.38867188 0.109375)" xlink:href="#BitstreamVeraSans-Roman-65"/>
     <use transform="translate(1159.91210938 0.109375)" xlink:href="#BitstreamVeraSans-Roman-73"/>
     <use transform="translate(1212.01171875 0.109375)" xlink:href="#BitstreamVeraSans-Roman-20"/>
     <use transform="translate(1243.79882812 0.109375)" xlink:href="#BitstreamVeraSans-Roman-76"/>
     <use transform="translate(1302.97851562 0.109375)" xlink:href="#BitstreamVeraSans-Roman-73"/>
     <use transform="translate(1355.078125 0.109375)" xlink:href="#BitstreamVeraSans-Roman-20"/>
     <use transform="translate(1386.86523438 0.109375)" xlink:href="#BitstreamVeraSans-Roman-43"/>
     <use transform="translate(1456.68945312 0.109375)" xlink:href="#BitstreamVeraSans-Roman-44"/>
     <use transform="translate(1533.69140625 0.109375)" xlink:href="#BitstreamVeraSans-Roman-46"/>
     <use transform="translate(1595.67507813 38.3734375)scale(0.7)" xlink:href="#Cmsy10-a1"/>
     <use transform="translate(1650.05496094 38.3734375)scale(0.7)" xlink:href="#Cmr10-31"/>
     <use transform="translate(1691.43230469 0.109375)" xlink:href="#BitstreamVeraSans-Roman-20"/>
     <use transform="translate(1723.21941406 0.109375)" xlink:href="#BitstreamVeraSans-Roman-28"/>
     <use transform="translate(1762.23308594 0.109375)" xlink:href="#BitstreamVeraSans-Roman-4e"/>
     <use transform="translate(1837.03777344 0.109375)" xlink:href="#BitstreamVeraSans-Roman-3d"/>
     <use transform="translate(1920.82683594 0.109375)" xlink:href="#BitstreamVeraSans-Roman-31"/>
     <use transform="translate(1984.44988281 0.109375)" xlink:href="#BitstreamVeraSans-Roman-30"/>
     <use transform="translate(2048.07292969 0.109375)" xlink:href="#BitstreamVeraSans-Roman-29"/>
    </g>
   </g>
   <g id="legend_2">
    <g id="patch_13">
     <path d="M 452.11875 469.195312 
L 737.536719 469.195312 
Q 742.536719 469.195312 742.536719 464.195312 
L 742.536719 390 
Q 742.536719 385 737.536719 385 
L 452.11875 385 
Q 447.11875 385 447.11875 390 
L 447.11875 464.195312 
Q 447.11875 469.195312 452.11875 469.195312 
z
" style="fill:#eaeaf2;stroke:#ffffff;stroke-linejoin:miter;stroke-width:0.3;"/>
    </g>
    <g id="line2d_105"/>
    <g id="line2d_106">
     <g>
      <use style="fill:#0000ff;" x="482.11875" xlink:href="#m502c6f52de" y="405.24609375"/>
     </g>
    </g>
    <g id="text_41">
     <!-- Data (Numerics) -->
     <g style="fill:#262626;" transform="translate(527.11875 413.99609375)scale(0.25 -0.25)">
      <use xlink:href="#BitstreamVeraSans-Roman-44"/>
      <use x="77.001953125" xlink:href="#BitstreamVeraSans-Roman-61"/>
      <use x="138.28125" xlink:href="#BitstreamVeraSans-Roman-74"/>
      <use x="177.490234375" xlink:href="#BitstreamVeraSans-Roman-61"/>
      <use x="238.76953125" xlink:href="#BitstreamVeraSans-Roman-20"/>
      <use x="270.556640625" xlink:href="#BitstreamVeraSans-Roman-28"/>
      <use x="309.5703125" xlink:href="#BitstreamVeraSans-Roman-4e"/>
      <use x="384.375" xlink:href="#BitstreamVeraSans-Roman-75"/>
      <use x="447.75390625" xlink:href="#BitstreamVeraSans-Roman-6d"/>
      <use x="545.166015625" xlink:href="#BitstreamVeraSans-Roman-65"/>
      <use x="606.689453125" xlink:href="#BitstreamVeraSans-Roman-72"/>
      <use x="647.802734375" xlink:href="#BitstreamVeraSans-Roman-69"/>
      <use x="675.5859375" xlink:href="#BitstreamVeraSans-Roman-63"/>
      <use x="730.56640625" xlink:href="#BitstreamVeraSans-Roman-73"/>
      <use x="782.666015625" xlink:href="#BitstreamVeraSans-Roman-29"/>
     </g>
    </g>
    <g id="line2d_107">
     <path d="M 457.11875 444.195312 
L 507.11875 444.195312 
" style="fill:none;stroke:#ffa500;stroke-dasharray:6.000000,6.000000;stroke-dashoffset:0.0;stroke-width:4.0;"/>
    </g>
    <g id="line2d_108"/>
    <g id="text_42">
     <!-- Theory (CDF$^{-1})$ -->
     <g style="fill:#262626;" transform="translate(527.11875 452.9453125)scale(0.25 -0.25)">
      <use transform="translate(0.0 0.109375)" xlink:href="#BitstreamVeraSans-Roman-54"/>
      <use transform="translate(61.083984375 0.109375)" xlink:href="#BitstreamVeraSans-Roman-68"/>
      <use transform="translate(124.462890625 0.109375)" xlink:href="#BitstreamVeraSans-Roman-65"/>
      <use transform="translate(185.986328125 0.109375)" xlink:href="#BitstreamVeraSans-Roman-6f"/>
      <use transform="translate(247.16796875 0.109375)" xlink:href="#BitstreamVeraSans-Roman-72"/>
      <use transform="translate(288.28125 0.109375)" xlink:href="#BitstreamVeraSans-Roman-79"/>
      <use transform="translate(347.4609375 0.109375)" xlink:href="#BitstreamVeraSans-Roman-20"/>
      <use transform="translate(379.248046875 0.109375)" xlink:href="#BitstreamVeraSans-Roman-28"/>
      <use transform="translate(418.26171875 0.109375)" xlink:href="#BitstreamVeraSans-Roman-43"/>
      <use transform="translate(488.0859375 0.109375)" xlink:href="#BitstreamVeraSans-Roman-44"/>
      <use transform="translate(565.087890625 0.109375)" xlink:href="#BitstreamVeraSans-Roman-46"/>
      <use transform="translate(627.0715625 38.3734375)scale(0.7)" xlink:href="#Cmsy10-a1"/>
      <use transform="translate(681.451445313 38.3734375)scale(0.7)" xlink:href="#Cmr10-31"/>
      <use transform="translate(722.828789062 0.109375)" xlink:href="#Cmr10-29"/>
     </g>
    </g>
   </g>
  </g>
 </g>
 <defs>
  <clipPath id="p17c6a900d0">
   <rect height="223.2" width="669.6" x="85.43671875" y="372.5"/>
  </clipPath>
  <clipPath id="pe97511e599">
   <rect height="223.2" width="669.6" x="85.43671875" y="37.7"/>
  </clipPath>
 </defs>
</svg>
