<?xml version="1.0" encoding="utf-8" standalone="no"?>
<!DOCTYPE svg PUBLIC "-//W3C//DTD SVG 1.1//EN"
  "http://www.w3.org/Graphics/SVG/1.1/DTD/svg11.dtd">
<!-- Created with matplotlib (http://matplotlib.org/) -->
<svg height="580pt" version="1.1" viewBox="0 0 1089 580" width="1089pt" xmlns="http://www.w3.org/2000/svg" xmlns:xlink="http://www.w3.org/1999/xlink">
 <defs>
  <style type="text/css">
*{stroke-linecap:butt;stroke-linejoin:round;}
  </style>
 </defs>
 <g id="figure_1">
  <g id="patch_1">
   <path d="M 0 580.495767 
L 1089.840263 580.495767 
L 1089.840263 0 
L 0 0 
z
" style="fill:#ffffff;"/>
  </g>
  <g id="axes_1">
   <g id="patch_2">
    <path d="M 77.298069 504.729704 
L 523.698069 504.729704 
L 523.698069 69.849704 
L 77.298069 69.849704 
z
" style="fill:#eaeaf2;"/>
   </g>
   <g id="matplotlib.axis_1">
    <g id="xtick_1">
     <g id="line2d_1">
      <path clip-path="url(#p2b05dac6c0)" d="M 97.588978 504.729704 
L 97.588978 69.849704 
" style="fill:none;stroke:#ffffff;stroke-linecap:round;"/>
     </g>
     <g id="line2d_2"/>
     <g id="text_1">
      <!-- $0$ -->
      <defs>
       <path d="M 42 31.640625 
C 42 37.75 41.90625 48.125 37.703125 56.109375 
C 34 63.109375 28.09375 65.59375 22.90625 65.59375 
C 18.09375 65.59375 12 63.40625 8.203125 56.203125 
C 4.203125 48.71875 3.796875 39.4375 3.796875 31.640625 
C 3.796875 25.953125 3.90625 17.28125 7 9.671875 
C 11.296875 -0.609375 19 -2 22.90625 -2 
C 27.5 -2 34.5 -0.109375 38.59375 9.375 
C 41.59375 16.28125 42 24.359375 42 31.640625 
z
M 22.90625 -0.40625 
C 16.5 -0.40625 12.703125 5.078125 11.296875 12.6875 
C 10.203125 18.5625 10.203125 27.15625 10.203125 32.75 
C 10.203125 40.4375 10.203125 46.828125 11.5 52.921875 
C 13.40625 61.390625 19 64 22.90625 64 
C 27 64 32.296875 61.296875 34.203125 53.125 
C 35.5 47.4375 35.59375 40.734375 35.59375 32.75 
C 35.59375 26.25 35.59375 18.265625 34.40625 12.375 
C 32.296875 1.484375 26.40625 -0.40625 22.90625 -0.40625 
z
" id="CMR17-48"/>
      </defs>
      <g style="fill:#262626;" transform="translate(91.877669 529.025957)scale(0.25 -0.25)">
       <use transform="scale(0.996264)" xlink:href="#CMR17-48"/>
      </g>
     </g>
    </g>
    <g id="xtick_2">
     <g id="line2d_3">
      <path clip-path="url(#p2b05dac6c0)" d="M 200.068317 504.729704 
L 200.068317 69.849704 
" style="fill:none;stroke:#ffffff;stroke-linecap:round;"/>
     </g>
     <g id="line2d_4"/>
     <g id="text_2">
      <!-- $25$ -->
      <defs>
       <path d="M 41.703125 15.453125 
L 39.90625 15.453125 
C 38.90625 8.375 38.09375 7.171875 37.703125 6.5625 
C 37.203125 5.765625 30 5.765625 28.59375 5.765625 
L 9.40625 5.765625 
C 13 9.671875 20 16.75 28.5 24.953125 
C 34.59375 30.734375 41.703125 37.53125 41.703125 47.421875 
C 41.703125 59.21875 32.296875 66 21.796875 66 
C 10.796875 66 4.09375 56.3125 4.09375 47.34375 
C 4.09375 43.4375 7 42.9375 8.203125 42.9375 
C 9.203125 42.9375 12.203125 43.546875 12.203125 47.03125 
C 12.203125 50.109375 9.59375 51 8.203125 51 
C 7.59375 51 7 50.90625 6.59375 50.703125 
C 8.5 59.21875 14.296875 63.40625 20.40625 63.40625 
C 29.09375 63.40625 34.796875 56.515625 34.796875 47.421875 
C 34.796875 38.734375 29.703125 31.25 24 24.75 
L 4.09375 2.28125 
L 4.09375 0 
L 39.296875 0 
z
" id="CMR17-50"/>
       <path d="M 11.40625 57.6875 
C 12.40625 57.28125 16.5 56 20.703125 56 
C 30 56 35.09375 61.109375 38 64.0625 
C 38 64.953125 38 65.5 37.40625 65.5 
C 37.296875 65.5 37.09375 65.5 36.296875 65.046875 
C 32.796875 63.40625 28.703125 62.078125 23.703125 62.078125 
C 20.703125 62.078125 16.203125 62.484375 11.296875 64.671875 
C 10.203125 65.171875 10 65.171875 9.90625 65.171875 
C 9.40625 65.171875 9.296875 65.0625 9.296875 63.078125 
L 9.296875 34.421875 
C 9.296875 32.640625 9.296875 32.140625 10.296875 32.140625 
C 10.796875 32.140625 11 32.34375 11.5 33.03125 
C 14.703125 37.515625 19.09375 39.40625 24.09375 39.40625 
C 27.59375 39.40625 35.09375 37.21875 35.09375 20.140625 
C 35.09375 16.953125 35.09375 11.171875 32.09375 6.578125 
C 29.59375 2.484375 25.703125 0.390625 21.40625 0.390625 
C 14.796875 0.390625 8.09375 5 6.296875 12.71875 
C 6.703125 12.609375 7.5 12.421875 7.90625 12.421875 
C 9.203125 12.421875 11.703125 13.125 11.703125 16.21875 
C 11.703125 18.90625 9.796875 20 7.90625 20 
C 5.59375 20 4.09375 18.59375 4.09375 15.796875 
C 4.09375 7.09375 11 -2 21.59375 -2 
C 31.90625 -2 41.703125 6.875 41.703125 19.75 
C 41.703125 31.71875 33.90625 41 24.203125 41 
C 19.09375 41 14.796875 39.109375 11.40625 35.53125 
z
" id="CMR17-53"/>
      </defs>
      <g style="fill:#262626;" transform="translate(188.645698 529.025957)scale(0.25 -0.25)">
       <use transform="scale(0.996264)" xlink:href="#CMR17-50"/>
       <use transform="translate(45.690477 0)scale(0.996264)" xlink:href="#CMR17-53"/>
      </g>
     </g>
    </g>
    <g id="xtick_3">
     <g id="line2d_5">
      <path clip-path="url(#p2b05dac6c0)" d="M 302.547656 504.729704 
L 302.547656 69.849704 
" style="fill:none;stroke:#ffffff;stroke-linecap:round;"/>
     </g>
     <g id="line2d_6"/>
     <g id="text_3">
      <!-- $50$ -->
      <g style="fill:#262626;" transform="translate(291.125037 529.025957)scale(0.25 -0.25)">
       <use transform="scale(0.996264)" xlink:href="#CMR17-53"/>
       <use transform="translate(45.690477 0)scale(0.996264)" xlink:href="#CMR17-48"/>
      </g>
     </g>
    </g>
    <g id="xtick_4">
     <g id="line2d_7">
      <path clip-path="url(#p2b05dac6c0)" d="M 405.026995 504.729704 
L 405.026995 69.849704 
" style="fill:none;stroke:#ffffff;stroke-linecap:round;"/>
     </g>
     <g id="line2d_8"/>
     <g id="text_4">
      <!-- $75$ -->
      <defs>
       <path d="M 45.09375 61.578125 
L 45.09375 63.765625 
L 21.59375 63.765625 
C 9.90625 63.765625 9.703125 65.078125 9.296875 67 
L 7.5 67 
L 4.59375 48.34375 
L 6.40625 48.34375 
C 6.703125 50.234375 7.40625 55.3125 8.59375 57.203125 
C 9.203125 58 16.59375 58 18.296875 58 
L 40.296875 58 
L 29.203125 41.578125 
C 21.796875 30.53125 16.703125 15.609375 16.703125 2.578125 
C 16.703125 1.390625 16.703125 -2 20.296875 -2 
C 23.90625 -2 23.90625 1.390625 23.90625 2.671875 
L 23.90625 7.265625 
C 23.90625 23.5625 26.703125 34.3125 31.296875 41.1875 
z
" id="CMR17-55"/>
      </defs>
      <g style="fill:#262626;" transform="translate(393.604375 529.025957)scale(0.25 -0.25)">
       <use transform="scale(0.996264)" xlink:href="#CMR17-55"/>
       <use transform="translate(45.690477 0)scale(0.996264)" xlink:href="#CMR17-53"/>
      </g>
     </g>
    </g>
    <g id="xtick_5">
     <g id="line2d_9">
      <path clip-path="url(#p2b05dac6c0)" d="M 507.506334 504.729704 
L 507.506334 69.849704 
" style="fill:none;stroke:#ffffff;stroke-linecap:round;"/>
     </g>
     <g id="line2d_10"/>
     <g id="text_5">
      <!-- $100$ -->
      <defs>
       <path d="M 26.59375 63.40625 
C 26.59375 65.5 26.5 65.5 25.09375 65.5 
C 21.203125 61.1875 15.296875 59.796875 9.703125 59.796875 
C 9.40625 59.796875 8.90625 59.796875 8.796875 59.5 
C 8.703125 59.296875 8.703125 59.09375 8.703125 57 
C 11.796875 57 17 57.59375 21 59.984375 
L 21 7.203125 
C 21 3.6875 20.796875 2.5 12.203125 2.5 
L 9.203125 2.5 
L 9.203125 0 
C 14 0 19 0 23.796875 0 
C 28.59375 0 33.59375 0 38.40625 0 
L 38.40625 2.5 
L 35.40625 2.5 
C 26.796875 2.5 26.59375 3.59375 26.59375 7.15625 
z
" id="CMR17-49"/>
      </defs>
      <g style="fill:#262626;" transform="translate(490.372405 529.025957)scale(0.25 -0.25)">
       <use transform="scale(0.996264)" xlink:href="#CMR17-49"/>
       <use transform="translate(45.690477 0)scale(0.996264)" xlink:href="#CMR17-48"/>
       <use transform="translate(91.380954 0)scale(0.996264)" xlink:href="#CMR17-48"/>
      </g>
     </g>
    </g>
    <g id="text_6">
     <!-- Index $j$ -->
     <defs>
      <path d="M 17.09375 69 
L 8.703125 69 
L 8.703125 0 
L 17.09375 0 
z
" id="CMSS17-73"/>
      <path d="M 40.90625 29.328125 
C 40.90625 35.671875 39.40625 44 28.09375 44 
C 21.703125 44 17.5 40.71875 14.703125 37.328125 
L 14.703125 43.09375 
L 7.40625 43.09375 
L 7.40625 0 
L 15 0 
L 15 24.359375 
C 15 30.6875 17.40625 37.9375 24.203125 37.9375 
C 33 37.9375 33.296875 32 33.296875 28.578125 
L 33.296875 0 
L 40.90625 0 
z
" id="CMSS17-110"/>
      <path d="M 40.796875 69 
L 33.40625 69 
L 33.40625 38.09375 
C 30.296875 40.671875 25.203125 43.0625 19.59375 43.0625 
C 10.5 43.0625 3.296875 33.296875 3.296875 21.03125 
C 3.296875 8.78125 10.40625 -1 19.296875 -1 
C 26.203125 -1 30.796875 2.6875 33.203125 4.78125 
L 33.203125 -0.203125 
L 40.796875 -0.203125 
z
M 33.203125 13.0625 
C 33.203125 11.671875 33.203125 10.203125 30.09375 7.53125 
C 28.09375 5.859375 25.703125 5.078125 23.40625 5.078125 
C 18 5.078125 10.90625 9 10.90625 20.9375 
C 10.90625 33.34375 18.90625 37 24.40625 37 
C 28.09375 37 31.09375 35.21875 33.203125 32.265625 
z
" id="CMSS17-100"/>
      <path d="M 39.09375 21.515625 
C 39.09375 24.84375 38.90625 31.296875 35.703125 36.640625 
C 32.203125 42.390625 26.5 44 22.203125 44 
C 11.796875 44 3 34.1875 3 21.484375 
C 3 9.09375 12.09375 -1 23.59375 -1 
C 28.09375 -1 33.59375 0.296875 38.59375 3.875 
C 38.59375 4.28125 38.40625 6.46875 38.296875 6.5625 
C 38.296875 6.765625 38 9.84375 38 10.25 
C 33.203125 6.359375 27.703125 5.078125 23.703125 5.078125 
C 17.296875 5.078125 10.40625 10.421875 10.09375 21.515625 
z
M 10.90625 27 
C 12.203125 32.5625 16.59375 37.828125 22.203125 37.828125 
C 23.703125 37.828125 30.703125 37.828125 32.5 27 
z
" id="CMSS17-101"/>
      <path d="M 24.796875 22.09375 
L 41.5 42.796875 
L 32.796875 42.796875 
L 21.296875 27.765625 
L 9.40625 42.796875 
L 0.5 42.796875 
L 17.796875 22.09375 
L 0 0 
L 8.796875 0 
L 21.296875 17.515625 
L 34.296875 0 
L 43.09375 0 
z
" id="CMSS17-120"/>
      <path d="M 35 31.6875 
C 35.40625 33.296875 35.40625 34.671875 35.40625 35.078125 
C 35.40625 40.828125 31.09375 44 26.59375 44 
C 16.5 44 11.09375 29.515625 11.09375 28.828125 
C 11.09375 28.328125 11.5 27.9375 12.09375 27.9375 
C 12.90625 27.9375 13 28.328125 13.5 29.3125 
C 17.5 38.9375 22.5 42.015625 26.296875 42.015625 
C 28.40625 42.015625 29.5 40.90625 29.5 37.453125 
C 29.5 35.078125 29.203125 34.078125 28.796875 32.296875 
L 19.296875 -5.109375 
C 17.40625 -12.4375 12.703125 -18 7.203125 -18 
C 6.796875 -18 4.703125 -18 2.796875 -17 
C 5.203125 -16.5 7.09375 -14.625 7.09375 -12.25 
C 7.09375 -10.65625 5.90625 -9.0625 3.703125 -9.0625 
C 1.09375 -9.0625 -1.296875 -11.25 -1.296875 -14.234375 
C -1.296875 -18.296875 3.09375 -20 7.203125 -20 
C 14.09375 -20 23.203125 -14.9375 25.703125 -5 
z
M 39.09375 62.703125 
C 39.09375 65.203125 37 66 35.796875 66 
C 33.09375 66 30.796875 63.40625 30.796875 61.203125 
C 30.796875 59.71875 32 57.921875 34.203125 57.921875 
C 36.5 57.921875 39.09375 60.109375 39.09375 62.703125 
z
" id="CMMI12-106"/>
     </defs>
     <g style="fill:#262626;" transform="translate(244.814161 565.5445)scale(0.4 -0.4)">
      <use transform="scale(0.996264)" xlink:href="#CMSS17-73"/>
      <use transform="translate(25.783926 0)scale(0.996264)" xlink:href="#CMSS17-110"/>
      <use transform="translate(73.988869 0)scale(0.996264)" xlink:href="#CMSS17-100"/>
      <use transform="translate(122.193812 0)scale(0.996264)" xlink:href="#CMSS17-101"/>
      <use transform="translate(163.832634 0)scale(0.996264)" xlink:href="#CMSS17-120"/>
      <use transform="translate(238.061888 0)scale(0.996264)" xlink:href="#CMMI12-106"/>
     </g>
    </g>
   </g>
   <g id="matplotlib.axis_2">
    <g id="ytick_1">
     <g id="line2d_11">
      <path clip-path="url(#p2b05dac6c0)" d="M 77.298069 499.29029 
L 523.698069 499.29029 
" style="fill:none;stroke:#ffffff;stroke-linecap:round;"/>
     </g>
     <g id="line2d_12"/>
     <g id="text_7">
      <!-- $-20$ -->
      <defs>
       <path d="M 65.90625 23 
C 67.59375 23 69.40625 23 69.40625 25 
C 69.40625 27 67.59375 27 65.90625 27 
L 11.796875 27 
C 10.09375 27 8.296875 27 8.296875 25 
C 8.296875 23 10.09375 23 11.796875 23 
z
" id="CMSY10-0"/>
      </defs>
      <g style="fill:#262626;" transform="translate(28.080971 507.938417)scale(0.25 -0.25)">
       <use transform="scale(0.996264)" xlink:href="#CMSY10-0"/>
       <use transform="translate(77.487468 0)scale(0.996264)" xlink:href="#CMR17-50"/>
       <use transform="translate(123.177945 0)scale(0.996264)" xlink:href="#CMR17-48"/>
      </g>
     </g>
    </g>
    <g id="ytick_2">
     <g id="line2d_13">
      <path clip-path="url(#p2b05dac6c0)" d="M 77.298069 394.575326 
L 523.698069 394.575326 
" style="fill:none;stroke:#ffffff;stroke-linecap:round;"/>
     </g>
     <g id="line2d_14"/>
     <g id="text_8">
      <!-- $-10$ -->
      <g style="fill:#262626;" transform="translate(28.080971 403.223453)scale(0.25 -0.25)">
       <use transform="scale(0.996264)" xlink:href="#CMSY10-0"/>
       <use transform="translate(77.487468 0)scale(0.996264)" xlink:href="#CMR17-49"/>
       <use transform="translate(123.177945 0)scale(0.996264)" xlink:href="#CMR17-48"/>
      </g>
     </g>
    </g>
    <g id="ytick_3">
     <g id="line2d_15">
      <path clip-path="url(#p2b05dac6c0)" d="M 77.298069 289.860362 
L 523.698069 289.860362 
" style="fill:none;stroke:#ffffff;stroke-linecap:round;"/>
     </g>
     <g id="line2d_16"/>
     <g id="text_9">
      <!-- $0$ -->
      <g style="fill:#262626;" transform="translate(58.87545 298.508489)scale(0.25 -0.25)">
       <use transform="scale(0.996264)" xlink:href="#CMR17-48"/>
      </g>
     </g>
    </g>
    <g id="ytick_4">
     <g id="line2d_17">
      <path clip-path="url(#p2b05dac6c0)" d="M 77.298069 185.145398 
L 523.698069 185.145398 
" style="fill:none;stroke:#ffffff;stroke-linecap:round;"/>
     </g>
     <g id="line2d_18"/>
     <g id="text_10">
      <!-- $10$ -->
      <g style="fill:#262626;" transform="translate(47.452831 193.793525)scale(0.25 -0.25)">
       <use transform="scale(0.996264)" xlink:href="#CMR17-49"/>
       <use transform="translate(45.690477 0)scale(0.996264)" xlink:href="#CMR17-48"/>
      </g>
     </g>
    </g>
    <g id="ytick_5">
     <g id="line2d_19">
      <path clip-path="url(#p2b05dac6c0)" d="M 77.298069 80.430434 
L 523.698069 80.430434 
" style="fill:none;stroke:#ffffff;stroke-linecap:round;"/>
     </g>
     <g id="line2d_20"/>
     <g id="text_11">
      <!-- $20$ -->
      <g style="fill:#262626;" transform="translate(47.452831 89.078561)scale(0.25 -0.25)">
       <use transform="scale(0.996264)" xlink:href="#CMR17-50"/>
       <use transform="translate(45.690477 0)scale(0.996264)" xlink:href="#CMR17-48"/>
      </g>
     </g>
    </g>
    <g id="text_12">
     <!-- $\kappa_{j}$ -->
     <defs>
      <path d="M 21.296875 25 
C 24.59375 26.78125 28.296875 29.875 30.796875 31.96875 
C 36.796875 37.140625 39 38.734375 42.796875 40.21875 
C 42.40625 39.625 42.296875 38.828125 42.296875 38.140625 
C 42.296875 35.4375 44.59375 34.9375 45.59375 34.9375 
C 48.796875 34.9375 50.59375 37.921875 50.59375 39.8125 
C 50.59375 40.40625 50.40625 43 46.90625 43 
C 40.90625 43 35 37.984375 30.59375 34.34375 
C 24.796875 29.3125 21.90625 27.15625 17.796875 25.875 
L 21.59375 41.5 
C 21.59375 43.109375 20.296875 44 19 44 
C 18.09375 44 15.90625 43.703125 15.09375 40.5 
L 5.796875 3.5 
C 5.5 2.3125 5.5 2.09375 5.5 1.5 
C 5.5 0.09375 6.59375 -1 8.09375 -1 
C 11.09375 -1 11.703125 1.65625 12.203125 3.8125 
C 12.796875 5.9375 16.90625 23 17.09375 23 
C 29.796875 23 34.09375 19.75 34.09375 14.734375 
C 34.09375 14.015625 34.09375 13.71875 33.796875 12.59375 
C 33.40625 10.65625 33.40625 9.515625 33.40625 8.90625 
C 33.40625 2.78125 37.296875 -1 42.203125 -1 
C 46.296875 -1 48.59375 1.921875 50.09375 4.546875 
C 52.203125 8.484375 53.5 14.03125 53.5 14.421875 
C 53.5 14.9375 53.09375 15.328125 52.5 15.328125 
C 51.59375 15.328125 51.5 14.9375 51.09375 13.3125 
C 49.796875 8.46875 47.59375 1 42.5 1 
C 40.296875 1 39.203125 2.3125 39.203125 5.84375 
C 39.203125 7.78125 39.59375 10.015625 40 11.515625 
C 40.203125 12.546875 40.5 13.75 40.5 14.859375 
C 40.5 24.078125 27.90625 25 21.296875 25 
z
" id="CMMI12-20"/>
     </defs>
     <g style="fill:#262626;" transform="translate(7.2 279.538436)scale(0.4 -0.4)">
      <use transform="translate(0 14.943915)scale(0.996264)" xlink:href="#CMMI12-20"/>
      <use transform="translate(56.154624 0)scale(0.697382)" xlink:href="#CMMI12-106"/>
     </g>
    </g>
   </g>
   <g id="line2d_21">
    <defs>
     <path d="M 0 3.5 
C 0.928211 3.5 1.81853 3.131218 2.474874 2.474874 
C 3.131218 1.81853 3.5 0.928211 3.5 0 
C 3.5 -0.928211 3.131218 -1.81853 2.474874 -2.474874 
C 1.81853 -3.131218 0.928211 -3.5 0 -3.5 
C -0.928211 -3.5 -1.81853 -3.131218 -2.474874 -2.474874 
C -3.131218 -1.81853 -3.5 -0.928211 -3.5 0 
C -3.5 0.928211 -3.131218 1.81853 -2.474874 2.474874 
C -1.81853 3.131218 -0.928211 3.5 0 3.5 
z
" id="m5fb6e73dbf"/>
    </defs>
    <g>
     <use style="fill:#0000ff;" x="97.588978" xlink:href="#m5fb6e73dbf" y="89.616976"/>
     <use style="fill:#0000ff;" x="101.688152" xlink:href="#m5fb6e73dbf" y="98.834961"/>
     <use style="fill:#0000ff;" x="105.787325" xlink:href="#m5fb6e73dbf" y="101.863684"/>
     <use style="fill:#0000ff;" x="109.886499" xlink:href="#m5fb6e73dbf" y="111.341727"/>
     <use style="fill:#0000ff;" x="113.985672" xlink:href="#m5fb6e73dbf" y="119.25985"/>
     <use style="fill:#0000ff;" x="118.084846" xlink:href="#m5fb6e73dbf" y="124.582766"/>
     <use style="fill:#0000ff;" x="122.18402" xlink:href="#m5fb6e73dbf" y="127.588438"/>
     <use style="fill:#0000ff;" x="126.283193" xlink:href="#m5fb6e73dbf" y="132.963725"/>
     <use style="fill:#0000ff;" x="130.382367" xlink:href="#m5fb6e73dbf" y="136.306283"/>
     <use style="fill:#0000ff;" x="134.48154" xlink:href="#m5fb6e73dbf" y="143.231178"/>
     <use style="fill:#0000ff;" x="138.580714" xlink:href="#m5fb6e73dbf" y="147.362605"/>
     <use style="fill:#0000ff;" x="142.679887" xlink:href="#m5fb6e73dbf" y="152.047625"/>
     <use style="fill:#0000ff;" x="146.779061" xlink:href="#m5fb6e73dbf" y="156.840079"/>
     <use style="fill:#0000ff;" x="150.878234" xlink:href="#m5fb6e73dbf" y="163.370332"/>
     <use style="fill:#0000ff;" x="154.977408" xlink:href="#m5fb6e73dbf" y="166.795462"/>
     <use style="fill:#0000ff;" x="159.076582" xlink:href="#m5fb6e73dbf" y="169.84311"/>
     <use style="fill:#0000ff;" x="163.175755" xlink:href="#m5fb6e73dbf" y="173.341421"/>
     <use style="fill:#0000ff;" x="167.274929" xlink:href="#m5fb6e73dbf" y="176.252514"/>
     <use style="fill:#0000ff;" x="171.374102" xlink:href="#m5fb6e73dbf" y="181.801953"/>
     <use style="fill:#0000ff;" x="175.473276" xlink:href="#m5fb6e73dbf" y="184.435293"/>
     <use style="fill:#0000ff;" x="179.572449" xlink:href="#m5fb6e73dbf" y="190.760424"/>
     <use style="fill:#0000ff;" x="183.671623" xlink:href="#m5fb6e73dbf" y="192.317278"/>
     <use style="fill:#0000ff;" x="187.770796" xlink:href="#m5fb6e73dbf" y="195.384412"/>
     <use style="fill:#0000ff;" x="191.86997" xlink:href="#m5fb6e73dbf" y="199.62481"/>
     <use style="fill:#0000ff;" x="195.969144" xlink:href="#m5fb6e73dbf" y="201.132988"/>
     <use style="fill:#0000ff;" x="200.068317" xlink:href="#m5fb6e73dbf" y="205.631158"/>
     <use style="fill:#0000ff;" x="204.167491" xlink:href="#m5fb6e73dbf" y="208.057489"/>
     <use style="fill:#0000ff;" x="208.266664" xlink:href="#m5fb6e73dbf" y="210.485839"/>
     <use style="fill:#0000ff;" x="212.365838" xlink:href="#m5fb6e73dbf" y="216.825864"/>
     <use style="fill:#0000ff;" x="216.465011" xlink:href="#m5fb6e73dbf" y="220.810885"/>
     <use style="fill:#0000ff;" x="220.564185" xlink:href="#m5fb6e73dbf" y="227.469914"/>
     <use style="fill:#0000ff;" x="224.663358" xlink:href="#m5fb6e73dbf" y="229.24068"/>
     <use style="fill:#0000ff;" x="228.762532" xlink:href="#m5fb6e73dbf" y="232.804454"/>
     <use style="fill:#0000ff;" x="232.861705" xlink:href="#m5fb6e73dbf" y="235.842234"/>
     <use style="fill:#0000ff;" x="236.960879" xlink:href="#m5fb6e73dbf" y="238.369918"/>
     <use style="fill:#0000ff;" x="241.060053" xlink:href="#m5fb6e73dbf" y="241.007026"/>
     <use style="fill:#0000ff;" x="245.159226" xlink:href="#m5fb6e73dbf" y="243.059221"/>
     <use style="fill:#0000ff;" x="249.2584" xlink:href="#m5fb6e73dbf" y="246.460396"/>
     <use style="fill:#0000ff;" x="253.357573" xlink:href="#m5fb6e73dbf" y="249.905852"/>
     <use style="fill:#0000ff;" x="257.456747" xlink:href="#m5fb6e73dbf" y="254.867421"/>
     <use style="fill:#0000ff;" x="261.55592" xlink:href="#m5fb6e73dbf" y="255.592297"/>
     <use style="fill:#0000ff;" x="265.655094" xlink:href="#m5fb6e73dbf" y="260.905131"/>
     <use style="fill:#0000ff;" x="269.754267" xlink:href="#m5fb6e73dbf" y="264.161252"/>
     <use style="fill:#0000ff;" x="273.853441" xlink:href="#m5fb6e73dbf" y="268.754998"/>
     <use style="fill:#0000ff;" x="277.952615" xlink:href="#m5fb6e73dbf" y="270.525535"/>
     <use style="fill:#0000ff;" x="282.051788" xlink:href="#m5fb6e73dbf" y="273.977147"/>
     <use style="fill:#0000ff;" x="286.150962" xlink:href="#m5fb6e73dbf" y="277.041225"/>
     <use style="fill:#0000ff;" x="290.250135" xlink:href="#m5fb6e73dbf" y="279.869948"/>
     <use style="fill:#0000ff;" x="294.349309" xlink:href="#m5fb6e73dbf" y="284.261595"/>
     <use style="fill:#0000ff;" x="298.448482" xlink:href="#m5fb6e73dbf" y="287.399706"/>
     <use style="fill:#0000ff;" x="302.547656" xlink:href="#m5fb6e73dbf" y="289.845494"/>
     <use style="fill:#0000ff;" x="306.646829" xlink:href="#m5fb6e73dbf" y="291.937739"/>
     <use style="fill:#0000ff;" x="310.746003" xlink:href="#m5fb6e73dbf" y="298.64213"/>
     <use style="fill:#0000ff;" x="314.845177" xlink:href="#m5fb6e73dbf" y="299.520495"/>
     <use style="fill:#0000ff;" x="318.94435" xlink:href="#m5fb6e73dbf" y="302.582237"/>
     <use style="fill:#0000ff;" x="323.043524" xlink:href="#m5fb6e73dbf" y="306.044913"/>
     <use style="fill:#0000ff;" x="327.142697" xlink:href="#m5fb6e73dbf" y="309.664318"/>
     <use style="fill:#0000ff;" x="331.241871" xlink:href="#m5fb6e73dbf" y="314.344272"/>
     <use style="fill:#0000ff;" x="335.341044" xlink:href="#m5fb6e73dbf" y="317.574378"/>
     <use style="fill:#0000ff;" x="339.440218" xlink:href="#m5fb6e73dbf" y="319.393626"/>
     <use style="fill:#0000ff;" x="343.539391" xlink:href="#m5fb6e73dbf" y="323.287776"/>
     <use style="fill:#0000ff;" x="347.638565" xlink:href="#m5fb6e73dbf" y="324.248342"/>
     <use style="fill:#0000ff;" x="351.737739" xlink:href="#m5fb6e73dbf" y="330.619222"/>
     <use style="fill:#0000ff;" x="355.836912" xlink:href="#m5fb6e73dbf" y="332.802445"/>
     <use style="fill:#0000ff;" x="359.936086" xlink:href="#m5fb6e73dbf" y="335.600838"/>
     <use style="fill:#0000ff;" x="364.035259" xlink:href="#m5fb6e73dbf" y="339.407074"/>
     <use style="fill:#0000ff;" x="368.134433" xlink:href="#m5fb6e73dbf" y="342.715075"/>
     <use style="fill:#0000ff;" x="372.233606" xlink:href="#m5fb6e73dbf" y="345.61653"/>
     <use style="fill:#0000ff;" x="376.33278" xlink:href="#m5fb6e73dbf" y="350.663423"/>
     <use style="fill:#0000ff;" x="380.431953" xlink:href="#m5fb6e73dbf" y="352.917974"/>
     <use style="fill:#0000ff;" x="384.531127" xlink:href="#m5fb6e73dbf" y="356.505023"/>
     <use style="fill:#0000ff;" x="388.630301" xlink:href="#m5fb6e73dbf" y="362.343081"/>
     <use style="fill:#0000ff;" x="392.729474" xlink:href="#m5fb6e73dbf" y="363.746816"/>
     <use style="fill:#0000ff;" x="396.828648" xlink:href="#m5fb6e73dbf" y="367.75997"/>
     <use style="fill:#0000ff;" x="400.927821" xlink:href="#m5fb6e73dbf" y="370.542563"/>
     <use style="fill:#0000ff;" x="405.026995" xlink:href="#m5fb6e73dbf" y="374.489768"/>
     <use style="fill:#0000ff;" x="409.126168" xlink:href="#m5fb6e73dbf" y="379.445577"/>
     <use style="fill:#0000ff;" x="413.225342" xlink:href="#m5fb6e73dbf" y="381.292181"/>
     <use style="fill:#0000ff;" x="417.324515" xlink:href="#m5fb6e73dbf" y="385.524125"/>
     <use style="fill:#0000ff;" x="421.423689" xlink:href="#m5fb6e73dbf" y="387.659963"/>
     <use style="fill:#0000ff;" x="425.522863" xlink:href="#m5fb6e73dbf" y="391.450708"/>
     <use style="fill:#0000ff;" x="429.622036" xlink:href="#m5fb6e73dbf" y="397.056891"/>
     <use style="fill:#0000ff;" x="433.72121" xlink:href="#m5fb6e73dbf" y="399.267816"/>
     <use style="fill:#0000ff;" x="437.820383" xlink:href="#m5fb6e73dbf" y="400.923112"/>
     <use style="fill:#0000ff;" x="441.919557" xlink:href="#m5fb6e73dbf" y="405.739635"/>
     <use style="fill:#0000ff;" x="446.01873" xlink:href="#m5fb6e73dbf" y="408.797729"/>
     <use style="fill:#0000ff;" x="450.117904" xlink:href="#m5fb6e73dbf" y="416.058622"/>
     <use style="fill:#0000ff;" x="454.217077" xlink:href="#m5fb6e73dbf" y="417.381925"/>
     <use style="fill:#0000ff;" x="458.316251" xlink:href="#m5fb6e73dbf" y="421.298375"/>
     <use style="fill:#0000ff;" x="462.415425" xlink:href="#m5fb6e73dbf" y="425.344699"/>
     <use style="fill:#0000ff;" x="466.514598" xlink:href="#m5fb6e73dbf" y="429.660257"/>
     <use style="fill:#0000ff;" x="470.613772" xlink:href="#m5fb6e73dbf" y="434.569758"/>
     <use style="fill:#0000ff;" x="474.712945" xlink:href="#m5fb6e73dbf" y="437.620269"/>
     <use style="fill:#0000ff;" x="478.812119" xlink:href="#m5fb6e73dbf" y="442.921035"/>
     <use style="fill:#0000ff;" x="482.911292" xlink:href="#m5fb6e73dbf" y="449.134083"/>
     <use style="fill:#0000ff;" x="487.010466" xlink:href="#m5fb6e73dbf" y="454.278281"/>
     <use style="fill:#0000ff;" x="491.109639" xlink:href="#m5fb6e73dbf" y="457.527217"/>
     <use style="fill:#0000ff;" x="495.208813" xlink:href="#m5fb6e73dbf" y="464.096619"/>
     <use style="fill:#0000ff;" x="499.307986" xlink:href="#m5fb6e73dbf" y="474.095428"/>
     <use style="fill:#0000ff;" x="503.40716" xlink:href="#m5fb6e73dbf" y="484.962431"/>
    </g>
   </g>
   <g id="patch_3">
    <path d="M 77.298069 504.729704 
L 77.298069 69.849704 
" style="fill:none;"/>
   </g>
   <g id="patch_4">
    <path d="M 523.698069 504.729704 
L 523.698069 69.849704 
" style="fill:none;"/>
   </g>
   <g id="patch_5">
    <path d="M 77.298069 504.729704 
L 523.698069 504.729704 
" style="fill:none;"/>
   </g>
   <g id="patch_6">
    <path d="M 77.298069 69.849704 
L 523.698069 69.849704 
" style="fill:none;"/>
   </g>
   <g id="text_13">
    <!-- 100 (sorted) GUE eigenvalues -->
    <defs>
     <path d="M 28.40625 67 
L 26.5 67 
C 21.09375 61.5625 14.796875 60.78125 8.40625 60.78125 
L 8.40625 55 
C 11.296875 55 16 55 20.703125 57.296875 
L 20.703125 5.765625 
L 8.90625 5.765625 
L 8.90625 0 
L 40.203125 0 
L 40.203125 5.765625 
L 28.40625 5.765625 
z
" id="CMSS17-49"/>
     <path d="M 43.09375 31.9375 
C 43.09375 37.578125 43 48.078125 38.90625 56.1875 
C 34.796875 64 28.203125 66.078125 23.5 66.078125 
C 16.703125 66.078125 10.90625 62.125 7.90625 55.78125 
C 4.703125 49.15625 3.796875 42.328125 3.796875 31.9375 
C 3.796875 24.828125 4.09375 16.109375 7.703125 8.484375 
C 11.796875 0.078125 18.703125 -2 23.40625 -2 
C 29.59375 -2 35.59375 1.265625 39 8.09375 
C 42.5 15.21875 43.09375 23.03125 43.09375 31.9375 
z
M 23.40625 4.078125 
C 15.796875 4.078125 13.5 12.671875 12.796875 15.546875 
C 11.59375 20.46875 11.40625 25.21875 11.40625 33.03125 
C 11.40625 39.15625 11.40625 46.0625 13.296875 51.515625 
C 15.59375 57.828125 19.59375 60 23.40625 60 
C 30.796875 60 33.203125 52.6875 34 50.125 
C 35.5 44.890625 35.5 38.765625 35.5 33.03125 
C 35.5 23.84375 35.5 4.078125 23.40625 4.078125 
z
" id="CMSS17-48"/>
     <path d="M 25.203125 74.5 
C 19.796875 69.015625 7.40625 56.265625 7.40625 24.8125 
C 7.40625 -6.765625 19.796875 -19.421875 25.203125 -25 
L 31.296875 -25 
C 19 -12.25 15 5.578125 15 24.6875 
C 15 43.71875 18.796875 61.65625 31.296875 74.5 
z
" id="CMSS17-40"/>
     <path d="M 32.203125 41.046875 
C 26.296875 43.859375 21.703125 43.859375 18.703125 43.859375 
C 11.59375 43.859375 3.09375 41.375 3.09375 31.296875 
C 3.09375 21.234375 14.09375 19.03125 17.09375 18.421875 
C 21.703125 17.53125 26.796875 16.53125 26.796875 11.5625 
C 26.796875 5.265625 19.59375 5.265625 18.296875 5.265625 
C 14.296875 5.265625 8.796875 6.359375 3.796875 9.96875 
L 2.59375 3.28125 
C 8.296875 0 13.796875 -1 18.40625 -1 
C 30.703125 -1 33.796875 6.5 33.796875 12.203125 
C 33.796875 17.09375 31 20.390625 29.09375 21.890625 
C 25.796875 24.5 24.59375 24.796875 16.40625 26.5 
C 15 26.703125 10.09375 27.796875 10.09375 32.28125 
C 10.09375 38 16.40625 38 17.796875 38 
C 24.296875 38 28.296875 35.984375 31 34.5 
z
" id="CMSS17-115"/>
     <path d="M 44.203125 21.1875 
C 44.203125 34 34.703125 44 23.5 44 
C 12 44 2.703125 33.703125 2.703125 21.1875 
C 2.703125 8.5 12.296875 -1 23.40625 -1 
C 34.796875 -1 44.203125 8.796875 44.203125 21.1875 
z
M 23.5 5.265625 
C 16.40625 5.265625 10.296875 11.078125 10.296875 22 
C 10.296875 33.609375 17.40625 37.921875 23.40625 37.921875 
C 29.90625 37.921875 36.59375 33.21875 36.59375 22 
C 36.59375 10.671875 30.09375 5.265625 23.5 5.265625 
z
" id="CMSS17-111"/>
     <path d="M 14.90625 21.296875 
C 14.90625 30.703125 21.796875 37 30.59375 37 
L 30.59375 43.578125 
C 24.203125 43.578125 18.203125 40.390625 14.59375 35.203125 
L 14.59375 43.09375 
L 7.5 43.09375 
L 7.5 0 
L 14.90625 0 
z
" id="CMSS17-114"/>
     <path d="M 16.703125 37 
L 29.703125 37 
L 29.703125 42.765625 
L 16.703125 42.765625 
L 16.703125 55 
L 9.59375 55 
L 9.59375 42.765625 
L 1.703125 42.765625 
L 1.703125 37 
L 9.40625 37 
L 9.40625 11.703125 
C 9.40625 6 10.703125 -1 17.296875 -1 
C 22.296875 -1 26.90625 0.390625 31.296875 2.6875 
L 29.703125 8.5625 
C 27.296875 6.46875 24.40625 5.265625 21.296875 5.265625 
C 16.90625 5.265625 16.703125 10.875 16.703125 13.375 
z
" id="CMSS17-116"/>
     <path d="M 11.296875 -25 
C 16.703125 -19.515625 29.09375 -6.765625 29.09375 24.6875 
C 29.09375 56.265625 16.703125 68.921875 11.296875 74.5 
L 5.203125 74.5 
C 17.5 61.75 21.5 43.921875 21.5 24.8125 
C 21.5 5.78125 17.703125 -12.15625 5.203125 -25 
z
" id="CMSS17-41"/>
     <path d="M 56.40625 29 
L 36.5 29 
L 36.5 22.828125 
L 48.796875 22.828125 
L 48.796875 7.359375 
C 44.90625 6.265625 40.90625 5.46875 36.90625 5.46875 
C 22.90625 5.46875 14.59375 20.328125 14.59375 34.375 
C 14.59375 48.359375 23.296875 63 36.90625 63 
C 44.59375 63 48.90625 60.640625 54.203125 56.671875 
L 55.5 64.59375 
C 48.90625 67.984375 44.796875 69.375 37.296875 69.375 
C 17.90625 69.375 6.203125 51.9375 6.203125 34.09375 
C 6.203125 17.03125 18 -1 36.703125 -1 
C 43.703125 -1 50.203125 0.796875 56.40625 3.875 
z
" id="CMSS17-71"/>
     <path d="M 55.5 68.5 
L 47.90625 68.5 
L 47.90625 22.640625 
C 47.90625 9.4375 39.796875 3.578125 32.40625 3.578125 
C 24.796875 3.578125 17.203125 9.734375 17.203125 22.546875 
L 17.203125 68.5 
L 8.796875 68.5 
L 8.796875 22.71875 
C 8.796875 8.421875 19.90625 -2 32.296875 -2 
C 44.703125 -2 55.5 8.421875 55.5 22.71875 
z
" id="CMSS17-85"/>
     <path d="M 30.59375 6.765625 
C 22.59375 6.765625 19 6.765625 17.203125 6.765625 
L 17.203125 32.921875 
L 48.203125 32.921875 
L 48.203125 39 
L 17.203125 39 
L 17.203125 62.640625 
L 30.09375 62.640625 
C 31.296875 62.640625 32.5 62.640625 33.703125 62.640625 
L 50.796875 62.640625 
L 50.796875 69 
L 8.796875 69 
L 8.796875 0 
L 52.09375 0 
L 52.09375 6.765625 
z
" id="CMSS17-69"/>
     <path d="M 15.296875 65.359375 
L 6.90625 65.359375 
L 6.90625 57 
L 15.296875 57 
z
M 14.796875 42.796875 
L 7.40625 42.796875 
L 7.40625 0 
L 14.796875 0 
z
" id="CMSS17-105"/>
     <path d="M 44.5 43.875 
C 38.796875 43.875 33.90625 42.78125 29.90625 40.890625 
C 26.59375 43.390625 23.203125 43.875 20.90625 43.875 
C 12.203125 43.875 5.59375 36.703125 5.59375 28.34375 
C 5.59375 22.9375 8.59375 18.859375 8.796875 18.671875 
C 7 16.171875 6 13.484375 6 10.5 
C 6 7 7.40625 4.515625 8.5 3.125 
C 3.296875 -0.046875 2.59375 -4.90625 2.59375 -6.796875 
C 2.59375 -14.03125 11.703125 -20 23.40625 -20 
C 35.203125 -20 44.296875 -14.03125 44.296875 -6.6875 
C 44.296875 7 29 7 24.796875 7 
L 16.703125 7 
C 15.203125 7 11.203125 7 11.203125 12.359375 
C 11.203125 14.390625 12.09375 15.6875 12.203125 15.78125 
C 13.703125 14.6875 16.796875 13 20.90625 13 
C 29.203125 13 36.09375 19.96875 36.09375 28.546875 
C 36.09375 33.3125 33.90625 36.796875 33 38 
L 33.296875 38 
C 33.59375 38 37.796875 38 39.296875 38 
C 42.5 38 42.796875 37.9375 45.59375 37.796875 
z
M 20.90625 18.46875 
C 17.5 18.46875 12.703125 20.546875 12.703125 28.484375 
C 12.703125 37.109375 18.203125 38.5 20.796875 38.5 
C 24.203125 38.5 29 36.421875 29 28.484375 
C 29 19.859375 23.5 18.46875 20.90625 18.46875 
z
M 24.703125 -0.15625 
C 27.09375 -0.15625 37.203125 -0.15625 37.203125 -6.90625 
C 37.203125 -11.15625 31 -14.515625 23.5 -14.515625 
C 15.90625 -14.515625 9.703125 -11.25 9.703125 -6.796875 
C 9.703125 -6.296875 9.703125 -0.15625 16.59375 -0.15625 
z
" id="CMSS17-103"/>
     <path d="M 41.796875 43 
L 34 43 
L 27.296875 24.3125 
C 25.203125 18.203125 22.203125 9.796875 21.703125 5.5 
L 21.59375 5.5 
C 21.40625 7.3125 20.59375 9.90625 20.09375 11.703125 
C 19.5 13.90625 18.703125 16.5 18.09375 18.3125 
L 9.296875 43 
L 1.296875 43 
L 17.09375 0 
L 26 0 
z
" id="CMSS17-118"/>
     <path d="M 37.59375 27.984375 
C 37.59375 37.375 30.90625 43.875 21.90625 43.875 
C 17.5 43.875 12.703125 43.078125 7.203125 39.890625 
L 7.796875 33.359375 
C 10.296875 35.125 14.59375 38 21.796875 38 
C 26.90625 38 30 34.0625 30 27.84375 
L 30 24 
C 14 24 4 19.34375 4 11.34375 
C 4 7.203125 6.5 -1 14.796875 -1 
C 16.296875 -1 24.40625 -1 30.203125 3.390625 
L 30.203125 -0.296875 
L 37.59375 -0.296875 
z
M 30 12.75 
C 30 10.953125 30 8.5625 27 6.78125 
C 24.40625 5.078125 21.09375 5.078125 19.703125 5.078125 
C 14.703125 5.078125 11.296875 7.984375 11.296875 11.625 
C 11.296875 18.921875 26.90625 18.921875 30 18.921875 
z
" id="CMSS17-97"/>
     <path d="M 14.796875 69 
L 7.40625 69 
L 7.40625 0 
L 14.796875 0 
z
" id="CMSS17-108"/>
     <path d="M 40.90625 42.796875 
L 33.296875 42.796875 
L 33.296875 15.1875 
C 33.296875 7.78125 27.90625 4.78125 22.203125 4.78125 
C 15.59375 4.78125 15 6.984375 15 11.078125 
L 15 42.796875 
L 7.40625 42.796875 
L 7.40625 10.59375 
C 7.40625 2.796875 10.09375 -1 17 -1 
C 20.40625 -1 28.09375 -0.203125 33.5 4.78125 
L 33.5 0 
L 40.90625 0 
z
" id="CMSS17-117"/>
    </defs>
    <g style="fill:#262626;" transform="translate(114.628795 63.849704)scale(0.32 -0.32)">
     <use transform="scale(0.996264)" xlink:href="#CMSS17-49"/>
     <use transform="translate(46.843624 0)scale(0.996264)" xlink:href="#CMSS17-48"/>
     <use transform="translate(93.687247 0)scale(0.996264)" xlink:href="#CMSS17-48"/>
     <use transform="translate(171.759983 0)scale(0.996264)" xlink:href="#CMSS17-40"/>
     <use transform="translate(208.193898 0)scale(0.996264)" xlink:href="#CMSS17-115"/>
     <use transform="translate(244.10744 0)scale(0.996264)" xlink:href="#CMSS17-111"/>
     <use transform="translate(288.348609 0)scale(0.996264)" xlink:href="#CMSS17-114"/>
     <use transform="translate(320.258382 0)scale(0.996264)" xlink:href="#CMSS17-116"/>
     <use transform="translate(354.089948 0)scale(0.996264)" xlink:href="#CMSS17-101"/>
     <use transform="translate(395.72877 0)scale(0.996264)" xlink:href="#CMSS17-100"/>
     <use transform="translate(443.933714 0)scale(0.996264)" xlink:href="#CMSS17-41"/>
     <use transform="translate(511.59674 0)scale(0.996264)" xlink:href="#CMSS17-71"/>
     <use transform="translate(574.054966 0)scale(0.996264)" xlink:href="#CMSS17-85"/>
     <use transform="translate(638.194706 0)scale(0.996264)" xlink:href="#CMSS17-69"/>
     <use transform="translate(725.315832 0)scale(0.996264)" xlink:href="#CMSS17-101"/>
     <use transform="translate(766.954654 0)scale(0.996264)" xlink:href="#CMSS17-105"/>
     <use transform="translate(789.135377 0)scale(0.996264)" xlink:href="#CMSS17-103"/>
     <use transform="translate(835.979001 0)scale(0.996264)" xlink:href="#CMSS17-101"/>
     <use transform="translate(877.617823 0)scale(0.996264)" xlink:href="#CMSS17-110"/>
     <use transform="translate(925.822766 0)scale(0.996264)" xlink:href="#CMSS17-118"/>
     <use transform="translate(968.822908 0)scale(0.996264)" xlink:href="#CMSS17-97"/>
     <use transform="translate(1013.744828 0)scale(0.996264)" xlink:href="#CMSS17-108"/>
     <use transform="translate(1035.925551 0)scale(0.996264)" xlink:href="#CMSS17-117"/>
     <use transform="translate(1084.130495 0)scale(0.996264)" xlink:href="#CMSS17-101"/>
     <use transform="translate(1125.769317 0)scale(0.996264)" xlink:href="#CMSS17-115"/>
    </g>
   </g>
  </g>
  <g id="axes_2">
   <g id="patch_7">
    <path d="M 635.298069 504.729704 
L 1081.698069 504.729704 
L 1081.698069 69.849704 
L 635.298069 69.849704 
z
" style="fill:#eaeaf2;"/>
   </g>
   <g id="matplotlib.axis_3">
    <g id="xtick_6">
     <g id="line2d_22">
      <path clip-path="url(#p55d2296bb9)" d="M 655.588978 504.729704 
L 655.588978 69.849704 
" style="fill:none;stroke:#ffffff;stroke-linecap:round;"/>
     </g>
     <g id="line2d_23"/>
     <g id="text_14">
      <!-- $0$ -->
      <g style="fill:#262626;" transform="translate(649.877669 529.025957)scale(0.25 -0.25)">
       <use transform="scale(0.996264)" xlink:href="#CMR17-48"/>
      </g>
     </g>
    </g>
    <g id="xtick_7">
     <g id="line2d_24">
      <path clip-path="url(#p55d2296bb9)" d="M 758.068317 504.729704 
L 758.068317 69.849704 
" style="fill:none;stroke:#ffffff;stroke-linecap:round;"/>
     </g>
     <g id="line2d_25"/>
     <g id="text_15">
      <!-- $25$ -->
      <g style="fill:#262626;" transform="translate(746.645698 529.025957)scale(0.25 -0.25)">
       <use transform="scale(0.996264)" xlink:href="#CMR17-50"/>
       <use transform="translate(45.690477 0)scale(0.996264)" xlink:href="#CMR17-53"/>
      </g>
     </g>
    </g>
    <g id="xtick_8">
     <g id="line2d_26">
      <path clip-path="url(#p55d2296bb9)" d="M 860.547656 504.729704 
L 860.547656 69.849704 
" style="fill:none;stroke:#ffffff;stroke-linecap:round;"/>
     </g>
     <g id="line2d_27"/>
     <g id="text_16">
      <!-- $50$ -->
      <g style="fill:#262626;" transform="translate(849.125037 529.025957)scale(0.25 -0.25)">
       <use transform="scale(0.996264)" xlink:href="#CMR17-53"/>
       <use transform="translate(45.690477 0)scale(0.996264)" xlink:href="#CMR17-48"/>
      </g>
     </g>
    </g>
    <g id="xtick_9">
     <g id="line2d_28">
      <path clip-path="url(#p55d2296bb9)" d="M 963.026995 504.729704 
L 963.026995 69.849704 
" style="fill:none;stroke:#ffffff;stroke-linecap:round;"/>
     </g>
     <g id="line2d_29"/>
     <g id="text_17">
      <!-- $75$ -->
      <g style="fill:#262626;" transform="translate(951.604375 529.025957)scale(0.25 -0.25)">
       <use transform="scale(0.996264)" xlink:href="#CMR17-55"/>
       <use transform="translate(45.690477 0)scale(0.996264)" xlink:href="#CMR17-53"/>
      </g>
     </g>
    </g>
    <g id="xtick_10">
     <g id="line2d_30">
      <path clip-path="url(#p55d2296bb9)" d="M 1065.506334 504.729704 
L 1065.506334 69.849704 
" style="fill:none;stroke:#ffffff;stroke-linecap:round;"/>
     </g>
     <g id="line2d_31"/>
     <g id="text_18">
      <!-- $100$ -->
      <g style="fill:#262626;" transform="translate(1048.372405 529.025957)scale(0.25 -0.25)">
       <use transform="scale(0.996264)" xlink:href="#CMR17-49"/>
       <use transform="translate(45.690477 0)scale(0.996264)" xlink:href="#CMR17-48"/>
       <use transform="translate(91.380954 0)scale(0.996264)" xlink:href="#CMR17-48"/>
      </g>
     </g>
    </g>
    <g id="text_19">
     <!-- Index $j$ -->
     <g style="fill:#262626;" transform="translate(802.814161 565.5445)scale(0.4 -0.4)">
      <use transform="scale(0.996264)" xlink:href="#CMSS17-73"/>
      <use transform="translate(25.783926 0)scale(0.996264)" xlink:href="#CMSS17-110"/>
      <use transform="translate(73.988869 0)scale(0.996264)" xlink:href="#CMSS17-100"/>
      <use transform="translate(122.193812 0)scale(0.996264)" xlink:href="#CMSS17-101"/>
      <use transform="translate(163.832634 0)scale(0.996264)" xlink:href="#CMSS17-120"/>
      <use transform="translate(238.061888 0)scale(0.996264)" xlink:href="#CMMI12-106"/>
     </g>
    </g>
   </g>
   <g id="matplotlib.axis_4">
    <g id="ytick_6">
     <g id="line2d_32">
      <path clip-path="url(#p55d2296bb9)" d="M 635.298069 494.033274 
L 1081.698069 494.033274 
" style="fill:none;stroke:#ffffff;stroke-linecap:round;"/>
     </g>
     <g id="line2d_33"/>
     <g id="text_20">
      <!-- $-20$ -->
      <g style="fill:#262626;" transform="translate(586.080971 502.6814)scale(0.25 -0.25)">
       <use transform="scale(0.996264)" xlink:href="#CMSY10-0"/>
       <use transform="translate(77.487468 0)scale(0.996264)" xlink:href="#CMR17-50"/>
       <use transform="translate(123.177945 0)scale(0.996264)" xlink:href="#CMR17-48"/>
      </g>
     </g>
    </g>
    <g id="ytick_7">
     <g id="line2d_34">
      <path clip-path="url(#p55d2296bb9)" d="M 635.298069 390.503951 
L 1081.698069 390.503951 
" style="fill:none;stroke:#ffffff;stroke-linecap:round;"/>
     </g>
     <g id="line2d_35"/>
     <g id="text_21">
      <!-- $-10$ -->
      <g style="fill:#262626;" transform="translate(586.080971 399.152077)scale(0.25 -0.25)">
       <use transform="scale(0.996264)" xlink:href="#CMSY10-0"/>
       <use transform="translate(77.487468 0)scale(0.996264)" xlink:href="#CMR17-49"/>
       <use transform="translate(123.177945 0)scale(0.996264)" xlink:href="#CMR17-48"/>
      </g>
     </g>
    </g>
    <g id="ytick_8">
     <g id="line2d_36">
      <path clip-path="url(#p55d2296bb9)" d="M 635.298069 286.974628 
L 1081.698069 286.974628 
" style="fill:none;stroke:#ffffff;stroke-linecap:round;"/>
     </g>
     <g id="line2d_37"/>
     <g id="text_22">
      <!-- $0$ -->
      <g style="fill:#262626;" transform="translate(616.87545 295.622754)scale(0.25 -0.25)">
       <use transform="scale(0.996264)" xlink:href="#CMR17-48"/>
      </g>
     </g>
    </g>
    <g id="ytick_9">
     <g id="line2d_38">
      <path clip-path="url(#p55d2296bb9)" d="M 635.298069 183.445305 
L 1081.698069 183.445305 
" style="fill:none;stroke:#ffffff;stroke-linecap:round;"/>
     </g>
     <g id="line2d_39"/>
     <g id="text_23">
      <!-- $10$ -->
      <g style="fill:#262626;" transform="translate(605.452831 192.093431)scale(0.25 -0.25)">
       <use transform="scale(0.996264)" xlink:href="#CMR17-49"/>
       <use transform="translate(45.690477 0)scale(0.996264)" xlink:href="#CMR17-48"/>
      </g>
     </g>
    </g>
    <g id="ytick_10">
     <g id="line2d_40">
      <path clip-path="url(#p55d2296bb9)" d="M 635.298069 79.915982 
L 1081.698069 79.915982 
" style="fill:none;stroke:#ffffff;stroke-linecap:round;"/>
     </g>
     <g id="line2d_41"/>
     <g id="text_24">
      <!-- $20$ -->
      <g style="fill:#262626;" transform="translate(605.452831 88.564108)scale(0.25 -0.25)">
       <use transform="scale(0.996264)" xlink:href="#CMR17-50"/>
       <use transform="translate(45.690477 0)scale(0.996264)" xlink:href="#CMR17-48"/>
      </g>
     </g>
    </g>
    <g id="text_25">
     <!-- $\bar{\kappa}_{j}$ -->
     <defs>
      <path d="M 39.90625 55 
L 39.90625 57.28125 
L 5.90625 57.28125 
L 5.90625 55 
z
" id="CMR17-22"/>
     </defs>
     <g style="fill:#262626;" transform="translate(565.2 279.538436)scale(0.4 -0.4)">
      <use transform="translate(5.232073 14.950375)scale(0.996264)" xlink:href="#CMR17-22"/>
      <use transform="translate(0 14.943915)scale(0.996264)" xlink:href="#CMMI12-20"/>
      <use transform="translate(56.154624 0)scale(0.697382)" xlink:href="#CMMI12-106"/>
     </g>
    </g>
   </g>
   <g id="line2d_42">
    <g>
     <use style="fill:#0000ff;" x="655.588978" xlink:href="#m5fb6e73dbf" y="89.616976"/>
     <use style="fill:#0000ff;" x="659.688152" xlink:href="#m5fb6e73dbf" y="98.04503"/>
     <use style="fill:#0000ff;" x="663.787325" xlink:href="#m5fb6e73dbf" y="105.098944"/>
     <use style="fill:#0000ff;" x="667.886499" xlink:href="#m5fb6e73dbf" y="111.53517"/>
     <use style="fill:#0000ff;" x="671.985672" xlink:href="#m5fb6e73dbf" y="117.515344"/>
     <use style="fill:#0000ff;" x="676.084846" xlink:href="#m5fb6e73dbf" y="122.803399"/>
     <use style="fill:#0000ff;" x="680.18402" xlink:href="#m5fb6e73dbf" y="128.028157"/>
     <use style="fill:#0000ff;" x="684.283193" xlink:href="#m5fb6e73dbf" y="133.214734"/>
     <use style="fill:#0000ff;" x="688.382367" xlink:href="#m5fb6e73dbf" y="138.082489"/>
     <use style="fill:#0000ff;" x="692.48154" xlink:href="#m5fb6e73dbf" y="142.539895"/>
     <use style="fill:#0000ff;" x="696.580714" xlink:href="#m5fb6e73dbf" y="147.033115"/>
     <use style="fill:#0000ff;" x="700.679887" xlink:href="#m5fb6e73dbf" y="151.232356"/>
     <use style="fill:#0000ff;" x="704.779061" xlink:href="#m5fb6e73dbf" y="155.440959"/>
     <use style="fill:#0000ff;" x="708.878234" xlink:href="#m5fb6e73dbf" y="159.554745"/>
     <use style="fill:#0000ff;" x="712.977408" xlink:href="#m5fb6e73dbf" y="163.665423"/>
     <use style="fill:#0000ff;" x="717.076582" xlink:href="#m5fb6e73dbf" y="167.859775"/>
     <use style="fill:#0000ff;" x="721.175755" xlink:href="#m5fb6e73dbf" y="171.978087"/>
     <use style="fill:#0000ff;" x="725.274929" xlink:href="#m5fb6e73dbf" y="175.744244"/>
     <use style="fill:#0000ff;" x="729.374102" xlink:href="#m5fb6e73dbf" y="179.675201"/>
     <use style="fill:#0000ff;" x="733.473276" xlink:href="#m5fb6e73dbf" y="183.567874"/>
     <use style="fill:#0000ff;" x="737.572449" xlink:href="#m5fb6e73dbf" y="187.150768"/>
     <use style="fill:#0000ff;" x="741.671623" xlink:href="#m5fb6e73dbf" y="190.925298"/>
     <use style="fill:#0000ff;" x="745.770796" xlink:href="#m5fb6e73dbf" y="194.425925"/>
     <use style="fill:#0000ff;" x="749.86997" xlink:href="#m5fb6e73dbf" y="197.989631"/>
     <use style="fill:#0000ff;" x="753.969144" xlink:href="#m5fb6e73dbf" y="201.465903"/>
     <use style="fill:#0000ff;" x="758.068317" xlink:href="#m5fb6e73dbf" y="205.14695"/>
     <use style="fill:#0000ff;" x="762.167491" xlink:href="#m5fb6e73dbf" y="208.572996"/>
     <use style="fill:#0000ff;" x="766.266664" xlink:href="#m5fb6e73dbf" y="212.165116"/>
     <use style="fill:#0000ff;" x="770.365838" xlink:href="#m5fb6e73dbf" y="215.586394"/>
     <use style="fill:#0000ff;" x="774.465011" xlink:href="#m5fb6e73dbf" y="218.877668"/>
     <use style="fill:#0000ff;" x="778.564185" xlink:href="#m5fb6e73dbf" y="222.375975"/>
     <use style="fill:#0000ff;" x="782.663358" xlink:href="#m5fb6e73dbf" y="225.878113"/>
     <use style="fill:#0000ff;" x="786.762532" xlink:href="#m5fb6e73dbf" y="229.555124"/>
     <use style="fill:#0000ff;" x="790.861705" xlink:href="#m5fb6e73dbf" y="232.785673"/>
     <use style="fill:#0000ff;" x="794.960879" xlink:href="#m5fb6e73dbf" y="236.013756"/>
     <use style="fill:#0000ff;" x="799.060053" xlink:href="#m5fb6e73dbf" y="239.32696"/>
     <use style="fill:#0000ff;" x="803.159226" xlink:href="#m5fb6e73dbf" y="242.471487"/>
     <use style="fill:#0000ff;" x="807.2584" xlink:href="#m5fb6e73dbf" y="245.705512"/>
     <use style="fill:#0000ff;" x="811.357573" xlink:href="#m5fb6e73dbf" y="249.247312"/>
     <use style="fill:#0000ff;" x="815.456747" xlink:href="#m5fb6e73dbf" y="252.67832"/>
     <use style="fill:#0000ff;" x="819.55592" xlink:href="#m5fb6e73dbf" y="256.031622"/>
     <use style="fill:#0000ff;" x="823.655094" xlink:href="#m5fb6e73dbf" y="259.305221"/>
     <use style="fill:#0000ff;" x="827.754267" xlink:href="#m5fb6e73dbf" y="262.559726"/>
     <use style="fill:#0000ff;" x="831.853441" xlink:href="#m5fb6e73dbf" y="265.760326"/>
     <use style="fill:#0000ff;" x="835.952615" xlink:href="#m5fb6e73dbf" y="268.868438"/>
     <use style="fill:#0000ff;" x="840.051788" xlink:href="#m5fb6e73dbf" y="272.22413"/>
     <use style="fill:#0000ff;" x="844.150962" xlink:href="#m5fb6e73dbf" y="275.408234"/>
     <use style="fill:#0000ff;" x="848.250135" xlink:href="#m5fb6e73dbf" y="278.759916"/>
     <use style="fill:#0000ff;" x="852.349309" xlink:href="#m5fb6e73dbf" y="281.929731"/>
     <use style="fill:#0000ff;" x="856.448482" xlink:href="#m5fb6e73dbf" y="285.245475"/>
     <use style="fill:#0000ff;" x="860.547656" xlink:href="#m5fb6e73dbf" y="288.58155"/>
     <use style="fill:#0000ff;" x="864.646829" xlink:href="#m5fb6e73dbf" y="291.654427"/>
     <use style="fill:#0000ff;" x="868.746003" xlink:href="#m5fb6e73dbf" y="295.110965"/>
     <use style="fill:#0000ff;" x="872.845177" xlink:href="#m5fb6e73dbf" y="298.246546"/>
     <use style="fill:#0000ff;" x="876.94435" xlink:href="#m5fb6e73dbf" y="301.59305"/>
     <use style="fill:#0000ff;" x="881.043524" xlink:href="#m5fb6e73dbf" y="304.82216"/>
     <use style="fill:#0000ff;" x="885.142697" xlink:href="#m5fb6e73dbf" y="308.13513"/>
     <use style="fill:#0000ff;" x="889.241871" xlink:href="#m5fb6e73dbf" y="311.413975"/>
     <use style="fill:#0000ff;" x="893.341044" xlink:href="#m5fb6e73dbf" y="314.724484"/>
     <use style="fill:#0000ff;" x="897.440218" xlink:href="#m5fb6e73dbf" y="317.958198"/>
     <use style="fill:#0000ff;" x="901.539391" xlink:href="#m5fb6e73dbf" y="321.285475"/>
     <use style="fill:#0000ff;" x="905.638565" xlink:href="#m5fb6e73dbf" y="324.580274"/>
     <use style="fill:#0000ff;" x="909.737739" xlink:href="#m5fb6e73dbf" y="327.546982"/>
     <use style="fill:#0000ff;" x="913.836912" xlink:href="#m5fb6e73dbf" y="331.191567"/>
     <use style="fill:#0000ff;" x="917.936086" xlink:href="#m5fb6e73dbf" y="334.588662"/>
     <use style="fill:#0000ff;" x="922.035259" xlink:href="#m5fb6e73dbf" y="338.071806"/>
     <use style="fill:#0000ff;" x="926.134433" xlink:href="#m5fb6e73dbf" y="341.307327"/>
     <use style="fill:#0000ff;" x="930.233606" xlink:href="#m5fb6e73dbf" y="344.53669"/>
     <use style="fill:#0000ff;" x="934.33278" xlink:href="#m5fb6e73dbf" y="347.800415"/>
     <use style="fill:#0000ff;" x="938.431953" xlink:href="#m5fb6e73dbf" y="350.899175"/>
     <use style="fill:#0000ff;" x="942.531127" xlink:href="#m5fb6e73dbf" y="354.47887"/>
     <use style="fill:#0000ff;" x="946.630301" xlink:href="#m5fb6e73dbf" y="358.067282"/>
     <use style="fill:#0000ff;" x="950.729474" xlink:href="#m5fb6e73dbf" y="361.624984"/>
     <use style="fill:#0000ff;" x="954.828648" xlink:href="#m5fb6e73dbf" y="365.135621"/>
     <use style="fill:#0000ff;" x="958.927821" xlink:href="#m5fb6e73dbf" y="368.75641"/>
     <use style="fill:#0000ff;" x="963.026995" xlink:href="#m5fb6e73dbf" y="372.359613"/>
     <use style="fill:#0000ff;" x="967.126168" xlink:href="#m5fb6e73dbf" y="375.833263"/>
     <use style="fill:#0000ff;" x="971.225342" xlink:href="#m5fb6e73dbf" y="379.612492"/>
     <use style="fill:#0000ff;" x="975.324515" xlink:href="#m5fb6e73dbf" y="383.157316"/>
     <use style="fill:#0000ff;" x="979.423689" xlink:href="#m5fb6e73dbf" y="386.864127"/>
     <use style="fill:#0000ff;" x="983.522863" xlink:href="#m5fb6e73dbf" y="390.320621"/>
     <use style="fill:#0000ff;" x="987.622036" xlink:href="#m5fb6e73dbf" y="394.310696"/>
     <use style="fill:#0000ff;" x="991.72121" xlink:href="#m5fb6e73dbf" y="398.23866"/>
     <use style="fill:#0000ff;" x="995.820383" xlink:href="#m5fb6e73dbf" y="401.991306"/>
     <use style="fill:#0000ff;" x="999.919557" xlink:href="#m5fb6e73dbf" y="406.157063"/>
     <use style="fill:#0000ff;" x="1004.01873" xlink:href="#m5fb6e73dbf" y="409.765387"/>
     <use style="fill:#0000ff;" x="1008.117904" xlink:href="#m5fb6e73dbf" y="413.935233"/>
     <use style="fill:#0000ff;" x="1012.217077" xlink:href="#m5fb6e73dbf" y="418.564491"/>
     <use style="fill:#0000ff;" x="1016.316251" xlink:href="#m5fb6e73dbf" y="422.807619"/>
     <use style="fill:#0000ff;" x="1020.415425" xlink:href="#m5fb6e73dbf" y="426.957776"/>
     <use style="fill:#0000ff;" x="1024.514598" xlink:href="#m5fb6e73dbf" y="431.534427"/>
     <use style="fill:#0000ff;" x="1028.613772" xlink:href="#m5fb6e73dbf" y="436.108857"/>
     <use style="fill:#0000ff;" x="1032.712945" xlink:href="#m5fb6e73dbf" y="441.000786"/>
     <use style="fill:#0000ff;" x="1036.812119" xlink:href="#m5fb6e73dbf" y="445.813284"/>
     <use style="fill:#0000ff;" x="1040.911292" xlink:href="#m5fb6e73dbf" y="451.155668"/>
     <use style="fill:#0000ff;" x="1045.010466" xlink:href="#m5fb6e73dbf" y="456.365895"/>
     <use style="fill:#0000ff;" x="1049.109639" xlink:href="#m5fb6e73dbf" y="462.312561"/>
     <use style="fill:#0000ff;" x="1053.208813" xlink:href="#m5fb6e73dbf" y="468.825275"/>
     <use style="fill:#0000ff;" x="1057.307986" xlink:href="#m5fb6e73dbf" y="475.650384"/>
     <use style="fill:#0000ff;" x="1061.40716" xlink:href="#m5fb6e73dbf" y="484.962431"/>
    </g>
   </g>
   <g id="patch_8">
    <path d="M 635.298069 504.729704 
L 635.298069 69.849704 
" style="fill:none;"/>
   </g>
   <g id="patch_9">
    <path d="M 1081.698069 504.729704 
L 1081.698069 69.849704 
" style="fill:none;"/>
   </g>
   <g id="patch_10">
    <path d="M 635.298069 504.729704 
L 1081.698069 504.729704 
" style="fill:none;"/>
   </g>
   <g id="patch_11">
    <path d="M 635.298069 69.849704 
L 1081.698069 69.849704 
" style="fill:none;"/>
   </g>
   <g id="text_26">
    <!-- Expected values of -->
    <defs>
     <path d="M 15.09375 5.203125 
C 18.40625 2.015625 22.90625 -0.078125 27.703125 -0.078125 
C 37 -0.078125 45 9.421875 45 22.0625 
C 45 33.734375 39 44 30.40625 44 
C 25.40625 44 19.40625 42.21875 14.90625 38.625 
L 14.90625 43.203125 
L 7.5 43.203125 
L 7.5 -19 
L 15.09375 -19 
z
M 15.09375 32.8125 
C 15.90625 34 19.296875 37.734375 24.796875 37.734375 
C 31.796875 37.734375 37.40625 30.625 37.40625 22.0625 
C 37.40625 12.296875 30.59375 6 23.90625 6 
C 21.90625 6 19.796875 6.484375 17.796875 8.171875 
C 15.09375 10.53125 15.09375 12 15.09375 13.390625 
z
" id="CMSS17-112"/>
     <path d="M 38.5 39.703125 
C 38.5 40.390625 33.90625 42.40625 32.703125 42.796875 
C 29.40625 44 25.203125 44 24.09375 44 
C 11.09375 44 3.296875 32.703125 3.296875 21.296875 
C 3.296875 9.296875 12 -1 23.703125 -1 
C 30.40625 -1 35.203125 1.1875 39.09375 3.78125 
L 38.5 10.375 
C 34.203125 7.078125 29.203125 5.265625 23.796875 5.265625 
C 16 5.265625 10.90625 12.09375 10.90625 21.390625 
C 10.90625 28.609375 14.203125 37.71875 24.203125 37.71875 
C 29.703125 37.71875 32.796875 36.609375 37.40625 33.515625 
z
" id="CMSS17-99"/>
     <path d="M 16.796875 37 
L 26.90625 37 
L 26.90625 42.765625 
L 16.59375 42.765625 
L 16.59375 55.609375 
C 16.59375 62.71875 22 63.9375 25.09375 63.9375 
C 26.09375 63.9375 28.90625 63.9375 32.5 62.640625 
L 32.5 69.203125 
C 30.203125 69.703125 27.40625 70 25.203125 70 
C 15.90625 70 9.40625 62.390625 9.40625 52.484375 
L 9.40625 42.765625 
L 2.5 42.765625 
L 2.5 37 
L 9.40625 37 
L 9.40625 0 
L 16.796875 0 
z
" id="CMSS17-102"/>
    </defs>
    <g style="fill:#262626;" transform="translate(741.627481 27.596779)scale(0.32 -0.32)">
     <use transform="scale(0.996264)" xlink:href="#CMSS17-69"/>
     <use transform="translate(55.892013 0)scale(0.996264)" xlink:href="#CMSS17-120"/>
     <use transform="translate(98.892155 0)scale(0.996264)" xlink:href="#CMSS17-112"/>
     <use transform="translate(149.699537 0)scale(0.996264)" xlink:href="#CMSS17-101"/>
     <use transform="translate(191.338359 0)scale(0.996264)" xlink:href="#CMSS17-99"/>
     <use transform="translate(232.977181 0)scale(0.996264)" xlink:href="#CMSS17-116"/>
     <use transform="translate(266.808748 0)scale(0.996264)" xlink:href="#CMSS17-101"/>
     <use transform="translate(308.44757 0)scale(0.996264)" xlink:href="#CMSS17-100"/>
     <use transform="translate(387.881626 0)scale(0.996264)" xlink:href="#CMSS17-118"/>
     <use transform="translate(430.881767 0)scale(0.996264)" xlink:href="#CMSS17-97"/>
     <use transform="translate(475.803688 0)scale(0.996264)" xlink:href="#CMSS17-108"/>
     <use transform="translate(497.984411 0)scale(0.996264)" xlink:href="#CMSS17-117"/>
     <use transform="translate(546.189354 0)scale(0.996264)" xlink:href="#CMSS17-101"/>
     <use transform="translate(587.828176 0)scale(0.996264)" xlink:href="#CMSS17-115"/>
     <use transform="translate(654.970831 0)scale(0.996264)" xlink:href="#CMSS17-111"/>
     <use transform="translate(701.814454 0)scale(0.996264)" xlink:href="#CMSS17-102"/>
    </g>
    <!-- 100 (sorted) GUE eigenvalues -->
    <g style="fill:#262626;" transform="translate(672.628795 62.455761)scale(0.32 -0.32)">
     <use transform="scale(0.996264)" xlink:href="#CMSS17-49"/>
     <use transform="translate(46.843624 0)scale(0.996264)" xlink:href="#CMSS17-48"/>
     <use transform="translate(93.687247 0)scale(0.996264)" xlink:href="#CMSS17-48"/>
     <use transform="translate(171.759983 0)scale(0.996264)" xlink:href="#CMSS17-40"/>
     <use transform="translate(208.193898 0)scale(0.996264)" xlink:href="#CMSS17-115"/>
     <use transform="translate(244.10744 0)scale(0.996264)" xlink:href="#CMSS17-111"/>
     <use transform="translate(288.348609 0)scale(0.996264)" xlink:href="#CMSS17-114"/>
     <use transform="translate(320.258382 0)scale(0.996264)" xlink:href="#CMSS17-116"/>
     <use transform="translate(354.089948 0)scale(0.996264)" xlink:href="#CMSS17-101"/>
     <use transform="translate(395.72877 0)scale(0.996264)" xlink:href="#CMSS17-100"/>
     <use transform="translate(443.933714 0)scale(0.996264)" xlink:href="#CMSS17-41"/>
     <use transform="translate(511.59674 0)scale(0.996264)" xlink:href="#CMSS17-71"/>
     <use transform="translate(574.054966 0)scale(0.996264)" xlink:href="#CMSS17-85"/>
     <use transform="translate(638.194706 0)scale(0.996264)" xlink:href="#CMSS17-69"/>
     <use transform="translate(725.315832 0)scale(0.996264)" xlink:href="#CMSS17-101"/>
     <use transform="translate(766.954654 0)scale(0.996264)" xlink:href="#CMSS17-105"/>
     <use transform="translate(789.135377 0)scale(0.996264)" xlink:href="#CMSS17-103"/>
     <use transform="translate(835.979001 0)scale(0.996264)" xlink:href="#CMSS17-101"/>
     <use transform="translate(877.617823 0)scale(0.996264)" xlink:href="#CMSS17-110"/>
     <use transform="translate(925.822766 0)scale(0.996264)" xlink:href="#CMSS17-118"/>
     <use transform="translate(968.822908 0)scale(0.996264)" xlink:href="#CMSS17-97"/>
     <use transform="translate(1013.744828 0)scale(0.996264)" xlink:href="#CMSS17-108"/>
     <use transform="translate(1035.925551 0)scale(0.996264)" xlink:href="#CMSS17-117"/>
     <use transform="translate(1084.130495 0)scale(0.996264)" xlink:href="#CMSS17-101"/>
     <use transform="translate(1125.769317 0)scale(0.996264)" xlink:href="#CMSS17-115"/>
    </g>
   </g>
  </g>
 </g>
 <defs>
  <clipPath id="p2b05dac6c0">
   <rect height="434.88" width="446.4" x="77.298069" y="69.849704"/>
  </clipPath>
  <clipPath id="p55d2296bb9">
   <rect height="434.88" width="446.4" x="635.298069" y="69.849704"/>
  </clipPath>
 </defs>
</svg>
