<?xml version="1.0" encoding="utf-8" standalone="no"?>
<!DOCTYPE svg PUBLIC "-//W3C//DTD SVG 1.1//EN"
  "http://www.w3.org/Graphics/SVG/1.1/DTD/svg11.dtd">
<!-- Created with matplotlib (http://matplotlib.org/) -->
<svg height="645pt" version="1.1" viewBox="0 0 748 645" width="748pt" xmlns="http://www.w3.org/2000/svg" xmlns:xlink="http://www.w3.org/1999/xlink">
 <defs>
  <style type="text/css">
*{stroke-linecap:butt;stroke-linejoin:round;}
  </style>
 </defs>
 <g id="figure_1">
  <g id="patch_1">
   <path d="M 0 645.827947 
L 748.822762 645.827947 
L 748.822762 0 
L 0 0 
z
" style="fill:#ffffff;"/>
  </g>
  <g id="axes_1">
   <g id="patch_2">
    <path d="M 72.022762 254.972292 
L 741.622762 254.972292 
L 741.622762 37.532292 
L 72.022762 37.532292 
z
" style="fill:#eaeaf2;"/>
   </g>
   <g id="matplotlib.axis_1">
    <g id="xtick_1">
     <g id="line2d_1">
      <path clip-path="url(#p5716d9c753)" d="M 102.459125 254.972292 
L 102.459125 37.532292 
" style="fill:none;stroke:#ffffff;stroke-linecap:round;"/>
     </g>
     <g id="line2d_2"/>
     <g id="text_1">
      <!-- $0$ -->
      <defs>
       <path d="M 42 31.640625 
C 42 37.75 41.90625 48.125 37.703125 56.109375 
C 34 63.109375 28.09375 65.59375 22.90625 65.59375 
C 18.09375 65.59375 12 63.40625 8.203125 56.203125 
C 4.203125 48.71875 3.796875 39.4375 3.796875 31.640625 
C 3.796875 25.953125 3.90625 17.28125 7 9.671875 
C 11.296875 -0.609375 19 -2 22.90625 -2 
C 27.5 -2 34.5 -0.109375 38.59375 9.375 
C 41.59375 16.28125 42 24.359375 42 31.640625 
z
M 22.90625 -0.40625 
C 16.5 -0.40625 12.703125 5.078125 11.296875 12.6875 
C 10.203125 18.5625 10.203125 27.15625 10.203125 32.75 
C 10.203125 40.4375 10.203125 46.828125 11.5 52.921875 
C 13.40625 61.390625 19 64 22.90625 64 
C 27 64 32.296875 61.296875 34.203125 53.125 
C 35.5 47.4375 35.59375 40.734375 35.59375 32.75 
C 35.59375 26.25 35.59375 18.265625 34.40625 12.375 
C 32.296875 1.484375 26.40625 -0.40625 22.90625 -0.40625 
z
" id="CMR17-48"/>
      </defs>
      <g style="fill:#262626;" transform="translate(96.747816 279.268546)scale(0.25 -0.25)">
       <use transform="scale(0.996264)" xlink:href="#CMR17-48"/>
      </g>
     </g>
    </g>
    <g id="xtick_2">
     <g id="line2d_3">
      <path clip-path="url(#p5716d9c753)" d="M 225.434332 254.972292 
L 225.434332 37.532292 
" style="fill:none;stroke:#ffffff;stroke-linecap:round;"/>
     </g>
     <g id="line2d_4"/>
     <g id="text_2">
      <!-- $20$ -->
      <defs>
       <path d="M 41.703125 15.453125 
L 39.90625 15.453125 
C 38.90625 8.375 38.09375 7.171875 37.703125 6.5625 
C 37.203125 5.765625 30 5.765625 28.59375 5.765625 
L 9.40625 5.765625 
C 13 9.671875 20 16.75 28.5 24.953125 
C 34.59375 30.734375 41.703125 37.53125 41.703125 47.421875 
C 41.703125 59.21875 32.296875 66 21.796875 66 
C 10.796875 66 4.09375 56.3125 4.09375 47.34375 
C 4.09375 43.4375 7 42.9375 8.203125 42.9375 
C 9.203125 42.9375 12.203125 43.546875 12.203125 47.03125 
C 12.203125 50.109375 9.59375 51 8.203125 51 
C 7.59375 51 7 50.90625 6.59375 50.703125 
C 8.5 59.21875 14.296875 63.40625 20.40625 63.40625 
C 29.09375 63.40625 34.796875 56.515625 34.796875 47.421875 
C 34.796875 38.734375 29.703125 31.25 24 24.75 
L 4.09375 2.28125 
L 4.09375 0 
L 39.296875 0 
z
" id="CMR17-50"/>
      </defs>
      <g style="fill:#262626;" transform="translate(214.011713 279.268546)scale(0.25 -0.25)">
       <use transform="scale(0.996264)" xlink:href="#CMR17-50"/>
       <use transform="translate(45.690477 0)scale(0.996264)" xlink:href="#CMR17-48"/>
      </g>
     </g>
    </g>
    <g id="xtick_3">
     <g id="line2d_5">
      <path clip-path="url(#p5716d9c753)" d="M 348.409539 254.972292 
L 348.409539 37.532292 
" style="fill:none;stroke:#ffffff;stroke-linecap:round;"/>
     </g>
     <g id="line2d_6"/>
     <g id="text_3">
      <!-- $40$ -->
      <defs>
       <path d="M 33.59375 64.40625 
C 33.59375 66.5 33.5 66.5 31.703125 66.5 
L 2 19.59375 
L 2 17 
L 27.796875 17 
L 27.796875 7.140625 
C 27.796875 3.5 27.59375 2.5 20.59375 2.5 
L 18.703125 2.5 
L 18.703125 0 
C 21.90625 0 27.296875 0 30.703125 0 
C 34.09375 0 39.5 0 42.703125 0 
L 42.703125 2.5 
L 40.796875 2.5 
C 33.796875 2.5 33.59375 3.5 33.59375 7.140625 
L 33.59375 17 
L 43.796875 17 
L 43.796875 19.59375 
L 33.59375 19.59375 
z
M 28.09375 57.859375 
L 28.09375 19.59375 
L 4 19.59375 
z
" id="CMR17-52"/>
      </defs>
      <g style="fill:#262626;" transform="translate(336.986919 279.268546)scale(0.25 -0.25)">
       <use transform="scale(0.996264)" xlink:href="#CMR17-52"/>
       <use transform="translate(45.690477 0)scale(0.996264)" xlink:href="#CMR17-48"/>
      </g>
     </g>
    </g>
    <g id="xtick_4">
     <g id="line2d_7">
      <path clip-path="url(#p5716d9c753)" d="M 471.384745 254.972292 
L 471.384745 37.532292 
" style="fill:none;stroke:#ffffff;stroke-linecap:round;"/>
     </g>
     <g id="line2d_8"/>
     <g id="text_4">
      <!-- $60$ -->
      <defs>
       <path d="M 10.59375 34 
C 10.59375 57.65625 21.796875 63 28.296875 63 
C 30.40625 63 35.5 62.640625 37.5 59 
C 35.90625 59 32.90625 59 32.90625 55.515625 
C 32.90625 52.828125 35.09375 51.921875 36.5 51.921875 
C 37.40625 51.921875 40.09375 52.3125 40.09375 55.625 
C 40.09375 61.78125 35.09375 65.296875 28.203125 65.296875 
C 16.296875 65.296875 3.796875 52.96875 3.796875 31 
C 3.796875 3.953125 15.09375 -2 23.09375 -2 
C 32.796875 -2 42 6.671875 42 20.046875 
C 42 32.515625 33.90625 41.59375 23.703125 41.59375 
C 17.59375 41.59375 13.09375 37.609375 10.59375 30.625 
z
M 23.09375 0.390625 
C 10.796875 0.390625 10.796875 18.75 10.796875 22.4375 
C 10.796875 29.625 14.203125 40 23.5 40 
C 25.203125 40 30.09375 40 33.40625 33.125 
C 35.203125 29.21875 35.203125 25.140625 35.203125 20.140625 
C 35.203125 14.75 35.203125 10.78125 33.09375 6.78125 
C 30.90625 2.671875 27.703125 0.390625 23.09375 0.390625 
z
" id="CMR17-54"/>
      </defs>
      <g style="fill:#262626;" transform="translate(459.962126 279.268546)scale(0.25 -0.25)">
       <use transform="scale(0.996264)" xlink:href="#CMR17-54"/>
       <use transform="translate(45.690477 0)scale(0.996264)" xlink:href="#CMR17-48"/>
      </g>
     </g>
    </g>
    <g id="xtick_5">
     <g id="line2d_9">
      <path clip-path="url(#p5716d9c753)" d="M 594.359952 254.972292 
L 594.359952 37.532292 
" style="fill:none;stroke:#ffffff;stroke-linecap:round;"/>
     </g>
     <g id="line2d_10"/>
     <g id="text_5">
      <!-- $80$ -->
      <defs>
       <path d="M 27.203125 35.375 
C 33.5 38.546875 39.90625 43.328125 39.90625 50.984375 
C 39.90625 60.015625 31.09375 65.296875 23 65.296875 
C 13.90625 65.296875 5.90625 58.734375 5.90625 49.6875 
C 5.90625 47.203125 6.5 42.921875 10.40625 39.140625 
C 11.40625 38.15625 15.59375 35.171875 18.296875 33.28125 
C 13.796875 30.984375 3.296875 25.53125 3.296875 14.59375 
C 3.296875 4.359375 13.09375 -2 22.796875 -2 
C 33.5 -2 42.5 5.65625 42.5 15.78125 
C 42.5 24.84375 36.40625 29.015625 32.40625 31.703125 
z
M 14.09375 44.09375 
C 13.296875 44.59375 9.296875 47.671875 9.296875 52.359375 
C 9.296875 58.421875 15.59375 63 22.796875 63 
C 30.703125 63 36.5 57.4375 36.5 50.96875 
C 36.5 41.703125 26.09375 36.421875 25.59375 36.421875 
C 25.5 36.421875 25.40625 36.421875 24.59375 37.03125 
z
M 32.5 23.734375 
C 34 22.640625 38.796875 19.375 38.796875 13.296875 
C 38.796875 5.953125 31.40625 0.390625 23 0.390625 
C 13.90625 0.390625 7 6.84375 7 14.6875 
C 7 22.546875 13.09375 29.09375 20 32.1875 
z
" id="CMR17-56"/>
      </defs>
      <g style="fill:#262626;" transform="translate(582.937333 279.268546)scale(0.25 -0.25)">
       <use transform="scale(0.996264)" xlink:href="#CMR17-56"/>
       <use transform="translate(45.690477 0)scale(0.996264)" xlink:href="#CMR17-48"/>
      </g>
     </g>
    </g>
    <g id="xtick_6">
     <g id="line2d_11">
      <path clip-path="url(#p5716d9c753)" d="M 717.335159 254.972292 
L 717.335159 37.532292 
" style="fill:none;stroke:#ffffff;stroke-linecap:round;"/>
     </g>
     <g id="line2d_12"/>
     <g id="text_6">
      <!-- $100$ -->
      <defs>
       <path d="M 26.59375 63.40625 
C 26.59375 65.5 26.5 65.5 25.09375 65.5 
C 21.203125 61.1875 15.296875 59.796875 9.703125 59.796875 
C 9.40625 59.796875 8.90625 59.796875 8.796875 59.5 
C 8.703125 59.296875 8.703125 59.09375 8.703125 57 
C 11.796875 57 17 57.59375 21 59.984375 
L 21 7.203125 
C 21 3.6875 20.796875 2.5 12.203125 2.5 
L 9.203125 2.5 
L 9.203125 0 
C 14 0 19 0 23.796875 0 
C 28.59375 0 33.59375 0 38.40625 0 
L 38.40625 2.5 
L 35.40625 2.5 
C 26.796875 2.5 26.59375 3.59375 26.59375 7.15625 
z
" id="CMR17-49"/>
      </defs>
      <g style="fill:#262626;" transform="translate(700.20123 279.268546)scale(0.25 -0.25)">
       <use transform="scale(0.996264)" xlink:href="#CMR17-49"/>
       <use transform="translate(45.690477 0)scale(0.996264)" xlink:href="#CMR17-48"/>
       <use transform="translate(91.380954 0)scale(0.996264)" xlink:href="#CMR17-48"/>
      </g>
     </g>
    </g>
    <g id="text_7">
     <!-- Index $j$  -->
     <defs>
      <path d="M 17.09375 69 
L 8.703125 69 
L 8.703125 0 
L 17.09375 0 
z
" id="CMSS17-73"/>
      <path d="M 40.90625 29.328125 
C 40.90625 35.671875 39.40625 44 28.09375 44 
C 21.703125 44 17.5 40.71875 14.703125 37.328125 
L 14.703125 43.09375 
L 7.40625 43.09375 
L 7.40625 0 
L 15 0 
L 15 24.359375 
C 15 30.6875 17.40625 37.9375 24.203125 37.9375 
C 33 37.9375 33.296875 32 33.296875 28.578125 
L 33.296875 0 
L 40.90625 0 
z
" id="CMSS17-110"/>
      <path d="M 40.796875 69 
L 33.40625 69 
L 33.40625 38.09375 
C 30.296875 40.671875 25.203125 43.0625 19.59375 43.0625 
C 10.5 43.0625 3.296875 33.296875 3.296875 21.03125 
C 3.296875 8.78125 10.40625 -1 19.296875 -1 
C 26.203125 -1 30.796875 2.6875 33.203125 4.78125 
L 33.203125 -0.203125 
L 40.796875 -0.203125 
z
M 33.203125 13.0625 
C 33.203125 11.671875 33.203125 10.203125 30.09375 7.53125 
C 28.09375 5.859375 25.703125 5.078125 23.40625 5.078125 
C 18 5.078125 10.90625 9 10.90625 20.9375 
C 10.90625 33.34375 18.90625 37 24.40625 37 
C 28.09375 37 31.09375 35.21875 33.203125 32.265625 
z
" id="CMSS17-100"/>
      <path d="M 39.09375 21.515625 
C 39.09375 24.84375 38.90625 31.296875 35.703125 36.640625 
C 32.203125 42.390625 26.5 44 22.203125 44 
C 11.796875 44 3 34.1875 3 21.484375 
C 3 9.09375 12.09375 -1 23.59375 -1 
C 28.09375 -1 33.59375 0.296875 38.59375 3.875 
C 38.59375 4.28125 38.40625 6.46875 38.296875 6.5625 
C 38.296875 6.765625 38 9.84375 38 10.25 
C 33.203125 6.359375 27.703125 5.078125 23.703125 5.078125 
C 17.296875 5.078125 10.40625 10.421875 10.09375 21.515625 
z
M 10.90625 27 
C 12.203125 32.5625 16.59375 37.828125 22.203125 37.828125 
C 23.703125 37.828125 30.703125 37.828125 32.5 27 
z
" id="CMSS17-101"/>
      <path d="M 24.796875 22.09375 
L 41.5 42.796875 
L 32.796875 42.796875 
L 21.296875 27.765625 
L 9.40625 42.796875 
L 0.5 42.796875 
L 17.796875 22.09375 
L 0 0 
L 8.796875 0 
L 21.296875 17.515625 
L 34.296875 0 
L 43.09375 0 
z
" id="CMSS17-120"/>
      <path d="M 35 31.6875 
C 35.40625 33.296875 35.40625 34.671875 35.40625 35.078125 
C 35.40625 40.828125 31.09375 44 26.59375 44 
C 16.5 44 11.09375 29.515625 11.09375 28.828125 
C 11.09375 28.328125 11.5 27.9375 12.09375 27.9375 
C 12.90625 27.9375 13 28.328125 13.5 29.3125 
C 17.5 38.9375 22.5 42.015625 26.296875 42.015625 
C 28.40625 42.015625 29.5 40.90625 29.5 37.453125 
C 29.5 35.078125 29.203125 34.078125 28.796875 32.296875 
L 19.296875 -5.109375 
C 17.40625 -12.4375 12.703125 -18 7.203125 -18 
C 6.796875 -18 4.703125 -18 2.796875 -17 
C 5.203125 -16.5 7.09375 -14.625 7.09375 -12.25 
C 7.09375 -10.65625 5.90625 -9.0625 3.703125 -9.0625 
C 1.09375 -9.0625 -1.296875 -11.25 -1.296875 -14.234375 
C -1.296875 -18.296875 3.09375 -20 7.203125 -20 
C 14.09375 -20 23.203125 -14.9375 25.703125 -5 
z
M 39.09375 62.703125 
C 39.09375 65.203125 37 66 35.796875 66 
C 33.09375 66 30.796875 63.40625 30.796875 61.203125 
C 30.796875 59.71875 32 57.921875 34.203125 57.921875 
C 36.5 57.921875 39.09375 60.109375 39.09375 62.703125 
z
" id="CMMI12-106"/>
     </defs>
     <g style="fill:#262626;" transform="translate(368.540098 307.138947)scale(0.275 -0.275)">
      <use transform="scale(0.996264)" xlink:href="#CMSS17-73"/>
      <use transform="translate(25.783926 0)scale(0.996264)" xlink:href="#CMSS17-110"/>
      <use transform="translate(73.988869 0)scale(0.996264)" xlink:href="#CMSS17-100"/>
      <use transform="translate(122.193812 0)scale(0.996264)" xlink:href="#CMSS17-101"/>
      <use transform="translate(163.832634 0)scale(0.996264)" xlink:href="#CMSS17-120"/>
      <use transform="translate(238.061888 0)scale(0.996264)" xlink:href="#CMMI12-106"/>
     </g>
    </g>
   </g>
   <g id="matplotlib.axis_2">
    <g id="ytick_1">
     <g id="line2d_13">
      <path clip-path="url(#p5716d9c753)" d="M 72.022762 249.34268 
L 741.622762 249.34268 
" style="fill:none;stroke:#ffffff;stroke-linecap:round;"/>
     </g>
     <g id="line2d_14"/>
     <g id="text_8">
      <!-- $-20$ -->
      <defs>
       <path d="M 65.90625 23 
C 67.59375 23 69.40625 23 69.40625 25 
C 69.40625 27 67.59375 27 65.90625 27 
L 11.796875 27 
C 10.09375 27 8.296875 27 8.296875 25 
C 8.296875 23 10.09375 23 11.796875 23 
z
" id="CMSY10-0"/>
      </defs>
      <g style="fill:#262626;" transform="translate(22.805664 257.990807)scale(0.25 -0.25)">
       <use transform="scale(0.996264)" xlink:href="#CMSY10-0"/>
       <use transform="translate(77.487468 0)scale(0.996264)" xlink:href="#CMR17-50"/>
       <use transform="translate(123.177945 0)scale(0.996264)" xlink:href="#CMR17-48"/>
      </g>
     </g>
    </g>
    <g id="ytick_2">
     <g id="line2d_15">
      <path clip-path="url(#p5716d9c753)" d="M 72.022762 146.252292 
L 741.622762 146.252292 
" style="fill:none;stroke:#ffffff;stroke-linecap:round;"/>
     </g>
     <g id="line2d_16"/>
     <g id="text_9">
      <!-- $0$ -->
      <g style="fill:#262626;" transform="translate(53.600143 154.900419)scale(0.25 -0.25)">
       <use transform="scale(0.996264)" xlink:href="#CMR17-48"/>
      </g>
     </g>
    </g>
    <g id="ytick_3">
     <g id="line2d_17">
      <path clip-path="url(#p5716d9c753)" d="M 72.022762 43.161904 
L 741.622762 43.161904 
" style="fill:none;stroke:#ffffff;stroke-linecap:round;"/>
     </g>
     <g id="line2d_18"/>
     <g id="text_10">
      <!-- $20$ -->
      <g style="fill:#262626;" transform="translate(42.177523 51.810031)scale(0.25 -0.25)">
       <use transform="scale(0.996264)" xlink:href="#CMR17-50"/>
       <use transform="translate(45.690477 0)scale(0.996264)" xlink:href="#CMR17-48"/>
      </g>
     </g>
    </g>
    <g id="text_11">
     <!-- $\bar{\kappa}_{j}$ -->
     <defs>
      <path d="M 39.90625 55 
L 39.90625 57.28125 
L 5.90625 57.28125 
L 5.90625 55 
z
" id="CMR17-22"/>
      <path d="M 21.296875 25 
C 24.59375 26.78125 28.296875 29.875 30.796875 31.96875 
C 36.796875 37.140625 39 38.734375 42.796875 40.21875 
C 42.40625 39.625 42.296875 38.828125 42.296875 38.140625 
C 42.296875 35.4375 44.59375 34.9375 45.59375 34.9375 
C 48.796875 34.9375 50.59375 37.921875 50.59375 39.8125 
C 50.59375 40.40625 50.40625 43 46.90625 43 
C 40.90625 43 35 37.984375 30.59375 34.34375 
C 24.796875 29.3125 21.90625 27.15625 17.796875 25.875 
L 21.59375 41.5 
C 21.59375 43.109375 20.296875 44 19 44 
C 18.09375 44 15.90625 43.703125 15.09375 40.5 
L 5.796875 3.5 
C 5.5 2.3125 5.5 2.09375 5.5 1.5 
C 5.5 0.09375 6.59375 -1 8.09375 -1 
C 11.09375 -1 11.703125 1.65625 12.203125 3.8125 
C 12.796875 5.9375 16.90625 23 17.09375 23 
C 29.796875 23 34.09375 19.75 34.09375 14.734375 
C 34.09375 14.015625 34.09375 13.71875 33.796875 12.59375 
C 33.40625 10.65625 33.40625 9.515625 33.40625 8.90625 
C 33.40625 2.78125 37.296875 -1 42.203125 -1 
C 46.296875 -1 48.59375 1.921875 50.09375 4.546875 
C 52.203125 8.484375 53.5 14.03125 53.5 14.421875 
C 53.5 14.9375 53.09375 15.328125 52.5 15.328125 
C 51.59375 15.328125 51.5 14.9375 51.09375 13.3125 
C 49.796875 8.46875 47.59375 1 42.5 1 
C 40.296875 1 39.203125 2.3125 39.203125 5.84375 
C 39.203125 7.78125 39.59375 10.015625 40 11.515625 
C 40.203125 12.546875 40.5 13.75 40.5 14.859375 
C 40.5 24.078125 27.90625 25 21.296875 25 
z
" id="CMMI12-20"/>
     </defs>
     <g style="fill:#262626;" transform="translate(7.2 140.923292)scale(0.275 -0.275)">
      <use transform="translate(5.232073 14.950375)scale(0.996264)" xlink:href="#CMR17-22"/>
      <use transform="translate(0 14.943915)scale(0.996264)" xlink:href="#CMMI12-20"/>
      <use transform="translate(56.154624 0)scale(0.697382)" xlink:href="#CMMI12-106"/>
     </g>
    </g>
   </g>
   <g id="line2d_19">
    <defs>
     <path d="M 0 5 
C 1.326016 5 2.597899 4.473168 3.535534 3.535534 
C 4.473168 2.597899 5 1.326016 5 0 
C 5 -1.326016 4.473168 -2.597899 3.535534 -3.535534 
C 2.597899 -4.473168 1.326016 -5 0 -5 
C -1.326016 -5 -2.597899 -4.473168 -3.535534 -3.535534 
C -4.473168 -2.597899 -5 -1.326016 -5 0 
C -5 1.326016 -4.473168 2.597899 -3.535534 3.535534 
C -2.597899 4.473168 -1.326016 5 0 5 
z
" id="ma7bbad96ac"/>
    </defs>
    <g>
     <use style="fill:#0000ff;" x="102.459125" xlink:href="#ma7bbad96ac" y="47.991837"/>
     <use style="fill:#0000ff;" x="108.607886" xlink:href="#ma7bbad96ac" y="52.187997"/>
     <use style="fill:#0000ff;" x="114.756646" xlink:href="#ma7bbad96ac" y="55.700001"/>
     <use style="fill:#0000ff;" x="120.905406" xlink:href="#ma7bbad96ac" y="58.90447"/>
     <use style="fill:#0000ff;" x="127.054167" xlink:href="#ma7bbad96ac" y="61.88188"/>
     <use style="fill:#0000ff;" x="133.202927" xlink:href="#ma7bbad96ac" y="64.514698"/>
     <use style="fill:#0000ff;" x="139.351687" xlink:href="#ma7bbad96ac" y="67.116001"/>
     <use style="fill:#0000ff;" x="145.500448" xlink:href="#ma7bbad96ac" y="69.698294"/>
     <use style="fill:#0000ff;" x="151.649208" xlink:href="#ma7bbad96ac" y="72.121853"/>
     <use style="fill:#0000ff;" x="157.797968" xlink:href="#ma7bbad96ac" y="74.341107"/>
     <use style="fill:#0000ff;" x="163.946729" xlink:href="#ma7bbad96ac" y="76.578192"/>
     <use style="fill:#0000ff;" x="170.095489" xlink:href="#ma7bbad96ac" y="78.668911"/>
     <use style="fill:#0000ff;" x="176.244249" xlink:href="#ma7bbad96ac" y="80.76429"/>
     <use style="fill:#0000ff;" x="182.39301" xlink:href="#ma7bbad96ac" y="82.812463"/>
     <use style="fill:#0000ff;" x="188.54177" xlink:href="#ma7bbad96ac" y="84.859088"/>
     <use style="fill:#0000ff;" x="194.69053" xlink:href="#ma7bbad96ac" y="86.947373"/>
     <use style="fill:#0000ff;" x="200.839291" xlink:href="#ma7bbad96ac" y="88.997798"/>
     <use style="fill:#0000ff;" x="206.988051" xlink:href="#ma7bbad96ac" y="90.872893"/>
     <use style="fill:#0000ff;" x="213.136811" xlink:href="#ma7bbad96ac" y="92.830039"/>
     <use style="fill:#0000ff;" x="219.285572" xlink:href="#ma7bbad96ac" y="94.768123"/>
     <use style="fill:#0000ff;" x="225.434332" xlink:href="#ma7bbad96ac" y="96.551975"/>
     <use style="fill:#0000ff;" x="231.583092" xlink:href="#ma7bbad96ac" y="98.431238"/>
     <use style="fill:#0000ff;" x="237.731853" xlink:href="#ma7bbad96ac" y="100.174131"/>
     <use style="fill:#0000ff;" x="243.880613" xlink:href="#ma7bbad96ac" y="101.948429"/>
     <use style="fill:#0000ff;" x="250.029373" xlink:href="#ma7bbad96ac" y="103.679196"/>
     <use style="fill:#0000ff;" x="256.178134" xlink:href="#ma7bbad96ac" y="105.511916"/>
     <use style="fill:#0000ff;" x="262.326894" xlink:href="#ma7bbad96ac" y="107.217677"/>
     <use style="fill:#0000ff;" x="268.475654" xlink:href="#ma7bbad96ac" y="109.006122"/>
     <use style="fill:#0000ff;" x="274.624415" xlink:href="#ma7bbad96ac" y="110.709508"/>
     <use style="fill:#0000ff;" x="280.773175" xlink:href="#ma7bbad96ac" y="112.348168"/>
     <use style="fill:#0000ff;" x="286.921935" xlink:href="#ma7bbad96ac" y="114.089905"/>
     <use style="fill:#0000ff;" x="293.070696" xlink:href="#ma7bbad96ac" y="115.833551"/>
     <use style="fill:#0000ff;" x="299.219456" xlink:href="#ma7bbad96ac" y="117.664262"/>
     <use style="fill:#0000ff;" x="305.368216" xlink:href="#ma7bbad96ac" y="119.272688"/>
     <use style="fill:#0000ff;" x="311.516977" xlink:href="#ma7bbad96ac" y="120.879886"/>
     <use style="fill:#0000ff;" x="317.665737" xlink:href="#ma7bbad96ac" y="122.529465"/>
     <use style="fill:#0000ff;" x="323.814497" xlink:href="#ma7bbad96ac" y="124.095062"/>
     <use style="fill:#0000ff;" x="329.963258" xlink:href="#ma7bbad96ac" y="125.705219"/>
     <use style="fill:#0000ff;" x="336.112018" xlink:href="#ma7bbad96ac" y="127.468611"/>
     <use style="fill:#0000ff;" x="342.260778" xlink:href="#ma7bbad96ac" y="129.176841"/>
     <use style="fill:#0000ff;" x="348.409539" xlink:href="#ma7bbad96ac" y="130.846384"/>
     <use style="fill:#0000ff;" x="354.558299" xlink:href="#ma7bbad96ac" y="132.476244"/>
     <use style="fill:#0000ff;" x="360.707059" xlink:href="#ma7bbad96ac" y="134.096597"/>
     <use style="fill:#0000ff;" x="366.85582" xlink:href="#ma7bbad96ac" y="135.690113"/>
     <use style="fill:#0000ff;" x="373.00458" xlink:href="#ma7bbad96ac" y="137.23758"/>
     <use style="fill:#0000ff;" x="379.15334" xlink:href="#ma7bbad96ac" y="138.908312"/>
     <use style="fill:#0000ff;" x="385.302101" xlink:href="#ma7bbad96ac" y="140.493615"/>
     <use style="fill:#0000ff;" x="391.450861" xlink:href="#ma7bbad96ac" y="142.16235"/>
     <use style="fill:#0000ff;" x="397.599621" xlink:href="#ma7bbad96ac" y="143.740538"/>
     <use style="fill:#0000ff;" x="403.748382" xlink:href="#ma7bbad96ac" y="145.391381"/>
     <use style="fill:#0000ff;" x="409.897142" xlink:href="#ma7bbad96ac" y="147.052347"/>
     <use style="fill:#0000ff;" x="416.045902" xlink:href="#ma7bbad96ac" y="148.582271"/>
     <use style="fill:#0000ff;" x="422.194663" xlink:href="#ma7bbad96ac" y="150.303213"/>
     <use style="fill:#0000ff;" x="428.343423" xlink:href="#ma7bbad96ac" y="151.864356"/>
     <use style="fill:#0000ff;" x="434.492183" xlink:href="#ma7bbad96ac" y="153.530514"/>
     <use style="fill:#0000ff;" x="440.640944" xlink:href="#ma7bbad96ac" y="155.138224"/>
     <use style="fill:#0000ff;" x="446.789704" xlink:href="#ma7bbad96ac" y="156.787686"/>
     <use style="fill:#0000ff;" x="452.938464" xlink:href="#ma7bbad96ac" y="158.420158"/>
     <use style="fill:#0000ff;" x="459.087225" xlink:href="#ma7bbad96ac" y="160.068394"/>
     <use style="fill:#0000ff;" x="465.235985" xlink:href="#ma7bbad96ac" y="161.678397"/>
     <use style="fill:#0000ff;" x="471.384745" xlink:href="#ma7bbad96ac" y="163.334982"/>
     <use style="fill:#0000ff;" x="477.533506" xlink:href="#ma7bbad96ac" y="164.975397"/>
     <use style="fill:#0000ff;" x="483.682266" xlink:href="#ma7bbad96ac" y="166.452462"/>
     <use style="fill:#0000ff;" x="489.831026" xlink:href="#ma7bbad96ac" y="168.267028"/>
     <use style="fill:#0000ff;" x="495.979787" xlink:href="#ma7bbad96ac" y="169.958374"/>
     <use style="fill:#0000ff;" x="502.128547" xlink:href="#ma7bbad96ac" y="171.692563"/>
     <use style="fill:#0000ff;" x="508.277307" xlink:href="#ma7bbad96ac" y="173.303464"/>
     <use style="fill:#0000ff;" x="514.426068" xlink:href="#ma7bbad96ac" y="174.9113"/>
     <use style="fill:#0000ff;" x="520.574828" xlink:href="#ma7bbad96ac" y="176.536244"/>
     <use style="fill:#0000ff;" x="526.723588" xlink:href="#ma7bbad96ac" y="178.079055"/>
     <use style="fill:#0000ff;" x="532.872349" xlink:href="#ma7bbad96ac" y="179.861314"/>
     <use style="fill:#0000ff;" x="539.021109" xlink:href="#ma7bbad96ac" y="181.647913"/>
     <use style="fill:#0000ff;" x="545.169869" xlink:href="#ma7bbad96ac" y="183.419222"/>
     <use style="fill:#0000ff;" x="551.31863" xlink:href="#ma7bbad96ac" y="185.167099"/>
     <use style="fill:#0000ff;" x="557.46739" xlink:href="#ma7bbad96ac" y="186.969817"/>
     <use style="fill:#0000ff;" x="563.61615" xlink:href="#ma7bbad96ac" y="188.763781"/>
     <use style="fill:#0000ff;" x="569.764911" xlink:href="#ma7bbad96ac" y="190.493242"/>
     <use style="fill:#0000ff;" x="575.913671" xlink:href="#ma7bbad96ac" y="192.374845"/>
     <use style="fill:#0000ff;" x="582.062431" xlink:href="#ma7bbad96ac" y="194.139743"/>
     <use style="fill:#0000ff;" x="588.211192" xlink:href="#ma7bbad96ac" y="195.98529"/>
     <use style="fill:#0000ff;" x="594.359952" xlink:href="#ma7bbad96ac" y="197.70621"/>
     <use style="fill:#0000ff;" x="600.508712" xlink:href="#ma7bbad96ac" y="199.692789"/>
     <use style="fill:#0000ff;" x="606.657473" xlink:href="#ma7bbad96ac" y="201.648445"/>
     <use style="fill:#0000ff;" x="612.806233" xlink:href="#ma7bbad96ac" y="203.516812"/>
     <use style="fill:#0000ff;" x="618.954993" xlink:href="#ma7bbad96ac" y="205.59086"/>
     <use style="fill:#0000ff;" x="625.103754" xlink:href="#ma7bbad96ac" y="207.387373"/>
     <use style="fill:#0000ff;" x="631.252514" xlink:href="#ma7bbad96ac" y="209.463457"/>
     <use style="fill:#0000ff;" x="637.401274" xlink:href="#ma7bbad96ac" y="211.768272"/>
     <use style="fill:#0000ff;" x="643.550035" xlink:href="#ma7bbad96ac" y="213.880841"/>
     <use style="fill:#0000ff;" x="649.698795" xlink:href="#ma7bbad96ac" y="215.947122"/>
     <use style="fill:#0000ff;" x="655.847555" xlink:href="#ma7bbad96ac" y="218.225746"/>
     <use style="fill:#0000ff;" x="661.996316" xlink:href="#ma7bbad96ac" y="220.503263"/>
     <use style="fill:#0000ff;" x="668.145076" xlink:href="#ma7bbad96ac" y="222.938858"/>
     <use style="fill:#0000ff;" x="674.293836" xlink:href="#ma7bbad96ac" y="225.334905"/>
     <use style="fill:#0000ff;" x="680.442597" xlink:href="#ma7bbad96ac" y="227.994772"/>
     <use style="fill:#0000ff;" x="686.591357" xlink:href="#ma7bbad96ac" y="230.588841"/>
     <use style="fill:#0000ff;" x="692.740117" xlink:href="#ma7bbad96ac" y="233.549567"/>
     <use style="fill:#0000ff;" x="698.888878" xlink:href="#ma7bbad96ac" y="236.792118"/>
     <use style="fill:#0000ff;" x="705.037638" xlink:href="#ma7bbad96ac" y="240.190205"/>
     <use style="fill:#0000ff;" x="711.186398" xlink:href="#ma7bbad96ac" y="244.826488"/>
    </g>
   </g>
   <g id="line2d_20">
    <path d="M 102.459125 47.415928 
L 108.607886 52.051366 
L 114.756646 55.703937 
L 120.905406 58.909013 
L 127.054167 61.837277 
L 133.202927 64.571085 
L 139.351687 67.158104 
L 145.500448 69.62904 
L 151.649208 72.005127 
L 157.797968 74.301821 
L 163.946729 76.530818 
L 170.095489 78.701232 
L 176.244249 80.820349 
L 182.39301 82.894107 
L 188.54177 84.92743 
L 194.69053 86.924459 
L 200.839291 88.888721 
L 206.988051 90.823253 
L 213.136811 92.730698 
L 219.285572 94.61337 
L 225.434332 96.473316 
L 231.583092 98.31236 
L 237.731853 100.132134 
L 243.880613 101.93411 
L 250.029373 103.71962 
L 256.178134 105.48988 
L 262.326894 107.246001 
L 268.475654 108.989007 
L 274.624415 110.719841 
L 280.773175 112.43938 
L 286.921935 114.148438 
L 293.070696 115.847779 
L 299.219456 117.538117 
L 305.368216 119.220124 
L 311.516977 120.894438 
L 317.665737 122.561661 
L 323.814497 124.222366 
L 329.963258 125.8771 
L 336.112018 127.526389 
L 342.260778 129.170735 
L 348.409539 130.810623 
L 354.558299 132.446524 
L 360.707059 134.078891 
L 366.85582 135.708169 
L 373.00458 137.334788 
L 379.15334 138.959174 
L 385.302101 140.581741 
L 391.450861 142.2029 
L 397.599621 143.823057 
L 403.748382 145.442614 
L 409.897142 147.06197 
L 416.045902 148.681527 
L 422.194663 150.301684 
L 428.343423 151.922843 
L 434.492183 153.54541 
L 440.640944 155.169796 
L 446.789704 156.796415 
L 452.938464 158.425693 
L 459.087225 160.05806 
L 465.235985 161.693961 
L 471.384745 163.333849 
L 477.533506 164.978195 
L 483.682266 166.627484 
L 489.831026 168.282219 
L 495.979787 169.942924 
L 502.128547 171.610146 
L 508.277307 173.28446 
L 514.426068 174.966468 
L 520.574828 176.656805 
L 526.723588 178.356146 
L 532.872349 180.065204 
L 539.021109 181.784743 
L 545.169869 183.515578 
L 551.31863 185.258583 
L 557.46739 187.014705 
L 563.61615 188.784964 
L 569.764911 190.570475 
L 575.913671 192.37245 
L 582.062431 194.192224 
L 588.211192 196.031268 
L 594.359952 197.891215 
L 600.508712 199.773887 
L 606.657473 201.681331 
L 612.806233 203.615863 
L 618.954993 205.580125 
L 625.103754 207.577154 
L 631.252514 209.610477 
L 637.401274 211.684235 
L 643.550035 213.803352 
L 649.698795 215.973767 
L 655.847555 218.202763 
L 661.996316 220.499458 
L 668.145076 222.875544 
L 674.293836 225.34648 
L 680.442597 227.933499 
L 686.591357 230.667307 
L 692.740117 233.595572 
L 698.888878 236.800647 
L 705.037638 240.453218 
L 711.186398 245.088656 
" style="fill:none;stroke:#ffa500;stroke-dasharray:14.8,6.4;stroke-dashoffset:0;stroke-width:4;"/>
   </g>
   <g id="patch_3">
    <path d="M 72.022762 254.972292 
L 72.022762 37.532292 
" style="fill:none;"/>
   </g>
   <g id="patch_4">
    <path d="M 741.622762 254.972292 
L 741.622762 37.532292 
" style="fill:none;"/>
   </g>
   <g id="patch_5">
    <path d="M 72.022762 254.972292 
L 741.622762 254.972292 
" style="fill:none;"/>
   </g>
   <g id="patch_6">
    <path d="M 72.022762 37.532292 
L 741.622762 37.532292 
" style="fill:none;"/>
   </g>
   <g id="text_12">
    <!-- Sorted GUE Eigenvalues vs CDF$^{-1}$ (N=100) -->
    <defs>
     <path d="M 43.703125 65.140625 
C 39.296875 67.71875 34.5 70 26.40625 70 
C 13.5 70 5.203125 60.609375 5.203125 51.03125 
C 5.203125 47.265625 6.296875 43.015625 10.203125 38.671875 
C 14.09375 34.3125 18.5 33.140625 24.09375 31.765625 
C 26.40625 31.15625 30.296875 30.0625 31 29.78125 
C 36.59375 27.609375 39.296875 22.5625 39.296875 17.8125 
C 39.296875 11.59375 34.40625 4.96875 25.703125 4.96875 
C 22.703125 4.96875 13.90625 4.96875 5.59375 12.796875 
L 4.203125 4.96875 
C 12.40625 -1 21.296875 -2 25.796875 -2 
C 38.09375 -2 46.90625 7.625 46.90625 18.53125 
C 46.90625 22.5 45.703125 27.546875 41.5 32.203125 
C 37.40625 36.671875 33.796875 37.65625 25.59375 39.828125 
C 20.90625 41.03125 17.90625 41.828125 15.40625 44.890625 
C 13.703125 47.078125 12.796875 49.15625 12.796875 51.828125 
C 12.796875 57.390625 17.59375 63.4375 26.40625 63.4375 
C 30.796875 63.4375 36.5 62.53125 42.296875 57.1875 
z
" id="CMSS17-83"/>
     <path d="M 44.203125 21.1875 
C 44.203125 34 34.703125 44 23.5 44 
C 12 44 2.703125 33.703125 2.703125 21.1875 
C 2.703125 8.5 12.296875 -1 23.40625 -1 
C 34.796875 -1 44.203125 8.796875 44.203125 21.1875 
z
M 23.5 5.265625 
C 16.40625 5.265625 10.296875 11.078125 10.296875 22 
C 10.296875 33.609375 17.40625 37.921875 23.40625 37.921875 
C 29.90625 37.921875 36.59375 33.21875 36.59375 22 
C 36.59375 10.671875 30.09375 5.265625 23.5 5.265625 
z
" id="CMSS17-111"/>
     <path d="M 14.90625 21.296875 
C 14.90625 30.703125 21.796875 37 30.59375 37 
L 30.59375 43.578125 
C 24.203125 43.578125 18.203125 40.390625 14.59375 35.203125 
L 14.59375 43.09375 
L 7.5 43.09375 
L 7.5 0 
L 14.90625 0 
z
" id="CMSS17-114"/>
     <path d="M 16.703125 37 
L 29.703125 37 
L 29.703125 42.765625 
L 16.703125 42.765625 
L 16.703125 55 
L 9.59375 55 
L 9.59375 42.765625 
L 1.703125 42.765625 
L 1.703125 37 
L 9.40625 37 
L 9.40625 11.703125 
C 9.40625 6 10.703125 -1 17.296875 -1 
C 22.296875 -1 26.90625 0.390625 31.296875 2.6875 
L 29.703125 8.5625 
C 27.296875 6.46875 24.40625 5.265625 21.296875 5.265625 
C 16.90625 5.265625 16.703125 10.875 16.703125 13.375 
z
" id="CMSS17-116"/>
     <path d="M 56.40625 29 
L 36.5 29 
L 36.5 22.828125 
L 48.796875 22.828125 
L 48.796875 7.359375 
C 44.90625 6.265625 40.90625 5.46875 36.90625 5.46875 
C 22.90625 5.46875 14.59375 20.328125 14.59375 34.375 
C 14.59375 48.359375 23.296875 63 36.90625 63 
C 44.59375 63 48.90625 60.640625 54.203125 56.671875 
L 55.5 64.59375 
C 48.90625 67.984375 44.796875 69.375 37.296875 69.375 
C 17.90625 69.375 6.203125 51.9375 6.203125 34.09375 
C 6.203125 17.03125 18 -1 36.703125 -1 
C 43.703125 -1 50.203125 0.796875 56.40625 3.875 
z
" id="CMSS17-71"/>
     <path d="M 55.5 68.5 
L 47.90625 68.5 
L 47.90625 22.640625 
C 47.90625 9.4375 39.796875 3.578125 32.40625 3.578125 
C 24.796875 3.578125 17.203125 9.734375 17.203125 22.546875 
L 17.203125 68.5 
L 8.796875 68.5 
L 8.796875 22.71875 
C 8.796875 8.421875 19.90625 -2 32.296875 -2 
C 44.703125 -2 55.5 8.421875 55.5 22.71875 
z
" id="CMSS17-85"/>
     <path d="M 30.59375 6.765625 
C 22.59375 6.765625 19 6.765625 17.203125 6.765625 
L 17.203125 32.921875 
L 48.203125 32.921875 
L 48.203125 39 
L 17.203125 39 
L 17.203125 62.640625 
L 30.09375 62.640625 
C 31.296875 62.640625 32.5 62.640625 33.703125 62.640625 
L 50.796875 62.640625 
L 50.796875 69 
L 8.796875 69 
L 8.796875 0 
L 52.09375 0 
L 52.09375 6.765625 
z
" id="CMSS17-69"/>
     <path d="M 15.296875 65.359375 
L 6.90625 65.359375 
L 6.90625 57 
L 15.296875 57 
z
M 14.796875 42.796875 
L 7.40625 42.796875 
L 7.40625 0 
L 14.796875 0 
z
" id="CMSS17-105"/>
     <path d="M 44.5 43.875 
C 38.796875 43.875 33.90625 42.78125 29.90625 40.890625 
C 26.59375 43.390625 23.203125 43.875 20.90625 43.875 
C 12.203125 43.875 5.59375 36.703125 5.59375 28.34375 
C 5.59375 22.9375 8.59375 18.859375 8.796875 18.671875 
C 7 16.171875 6 13.484375 6 10.5 
C 6 7 7.40625 4.515625 8.5 3.125 
C 3.296875 -0.046875 2.59375 -4.90625 2.59375 -6.796875 
C 2.59375 -14.03125 11.703125 -20 23.40625 -20 
C 35.203125 -20 44.296875 -14.03125 44.296875 -6.6875 
C 44.296875 7 29 7 24.796875 7 
L 16.703125 7 
C 15.203125 7 11.203125 7 11.203125 12.359375 
C 11.203125 14.390625 12.09375 15.6875 12.203125 15.78125 
C 13.703125 14.6875 16.796875 13 20.90625 13 
C 29.203125 13 36.09375 19.96875 36.09375 28.546875 
C 36.09375 33.3125 33.90625 36.796875 33 38 
L 33.296875 38 
C 33.59375 38 37.796875 38 39.296875 38 
C 42.5 38 42.796875 37.9375 45.59375 37.796875 
z
M 20.90625 18.46875 
C 17.5 18.46875 12.703125 20.546875 12.703125 28.484375 
C 12.703125 37.109375 18.203125 38.5 20.796875 38.5 
C 24.203125 38.5 29 36.421875 29 28.484375 
C 29 19.859375 23.5 18.46875 20.90625 18.46875 
z
M 24.703125 -0.15625 
C 27.09375 -0.15625 37.203125 -0.15625 37.203125 -6.90625 
C 37.203125 -11.15625 31 -14.515625 23.5 -14.515625 
C 15.90625 -14.515625 9.703125 -11.25 9.703125 -6.796875 
C 9.703125 -6.296875 9.703125 -0.15625 16.59375 -0.15625 
z
" id="CMSS17-103"/>
     <path d="M 41.796875 43 
L 34 43 
L 27.296875 24.3125 
C 25.203125 18.203125 22.203125 9.796875 21.703125 5.5 
L 21.59375 5.5 
C 21.40625 7.3125 20.59375 9.90625 20.09375 11.703125 
C 19.5 13.90625 18.703125 16.5 18.09375 18.3125 
L 9.296875 43 
L 1.296875 43 
L 17.09375 0 
L 26 0 
z
" id="CMSS17-118"/>
     <path d="M 37.59375 27.984375 
C 37.59375 37.375 30.90625 43.875 21.90625 43.875 
C 17.5 43.875 12.703125 43.078125 7.203125 39.890625 
L 7.796875 33.359375 
C 10.296875 35.125 14.59375 38 21.796875 38 
C 26.90625 38 30 34.0625 30 27.84375 
L 30 24 
C 14 24 4 19.34375 4 11.34375 
C 4 7.203125 6.5 -1 14.796875 -1 
C 16.296875 -1 24.40625 -1 30.203125 3.390625 
L 30.203125 -0.296875 
L 37.59375 -0.296875 
z
M 30 12.75 
C 30 10.953125 30 8.5625 27 6.78125 
C 24.40625 5.078125 21.09375 5.078125 19.703125 5.078125 
C 14.703125 5.078125 11.296875 7.984375 11.296875 11.625 
C 11.296875 18.921875 26.90625 18.921875 30 18.921875 
z
" id="CMSS17-97"/>
     <path d="M 14.796875 69 
L 7.40625 69 
L 7.40625 0 
L 14.796875 0 
z
" id="CMSS17-108"/>
     <path d="M 40.90625 42.796875 
L 33.296875 42.796875 
L 33.296875 15.1875 
C 33.296875 7.78125 27.90625 4.78125 22.203125 4.78125 
C 15.59375 4.78125 15 6.984375 15 11.078125 
L 15 42.796875 
L 7.40625 42.796875 
L 7.40625 10.59375 
C 7.40625 2.796875 10.09375 -1 17 -1 
C 20.40625 -1 28.09375 -0.203125 33.5 4.78125 
L 33.5 0 
L 40.90625 0 
z
" id="CMSS17-117"/>
     <path d="M 32.203125 41.046875 
C 26.296875 43.859375 21.703125 43.859375 18.703125 43.859375 
C 11.59375 43.859375 3.09375 41.375 3.09375 31.296875 
C 3.09375 21.234375 14.09375 19.03125 17.09375 18.421875 
C 21.703125 17.53125 26.796875 16.53125 26.796875 11.5625 
C 26.796875 5.265625 19.59375 5.265625 18.296875 5.265625 
C 14.296875 5.265625 8.796875 6.359375 3.796875 9.96875 
L 2.59375 3.28125 
C 8.296875 0 13.796875 -1 18.40625 -1 
C 30.703125 -1 33.796875 6.5 33.796875 12.203125 
C 33.796875 17.09375 31 20.390625 29.09375 21.890625 
C 25.796875 24.5 24.59375 24.796875 16.40625 26.5 
C 15 26.703125 10.09375 27.796875 10.09375 32.28125 
C 10.09375 38 16.40625 38 17.796875 38 
C 24.296875 38 28.296875 35.984375 31 34.5 
z
" id="CMSS17-115"/>
     <path d="M 54.703125 11.15625 
C 48 6.671875 44.90625 5.375 36.796875 5.375 
C 22.796875 5.375 14.59375 20.359375 14.59375 34.046875 
C 14.59375 48.625 23 63 37.203125 63 
C 43.59375 63 47.796875 61.21875 52.90625 58.046875 
L 54.296875 65.890625 
C 49.5 68.28125 43.40625 69.375 37.296875 69.375 
C 18.09375 69.375 6.203125 51.8125 6.203125 34.046875 
C 6.203125 14.484375 20.296875 -1 36.296875 -1 
C 44.90625 -1 47.90625 -0.296875 55.296875 4.375 
z
" id="CMSS17-67"/>
     <path d="M 8.90625 69 
L 8.90625 0 
L 33.5 0 
C 49.90625 0 62.5 15.3125 62.5 33.90625 
C 62.5 53.09375 49.90625 69 33.5 69 
z
M 17.09375 5.578125 
L 17.09375 63.421875 
L 31.296875 63.421875 
C 44.703125 63.421875 54.296875 51.203125 54.296875 33.90625 
C 54.296875 17.296875 44.796875 5.578125 31.296875 5.578125 
z
" id="CMSS17-68"/>
     <path d="M 45.59375 31 
L 45.59375 37.078125 
L 17.203125 37.078125 
L 17.203125 62 
L 29.40625 62 
C 30.59375 62 31.796875 62 33 62 
L 49.5 62 
L 49.5 68.359375 
L 8.796875 68.359375 
L 8.796875 -0.5 
L 17.203125 -0.5 
L 17.203125 31 
z
" id="CMSS17-70"/>
     <path d="M 25.203125 74.5 
C 19.796875 69.015625 7.40625 56.265625 7.40625 24.8125 
C 7.40625 -6.765625 19.796875 -19.421875 25.203125 -25 
L 31.296875 -25 
C 19 -12.25 15 5.578125 15 24.6875 
C 15 43.71875 18.796875 61.65625 31.296875 74.5 
z
" id="CMSS17-40"/>
     <path d="M 22.90625 65.3125 
L 21.09375 69 
L 8.796875 69 
L 8.796875 0 
L 16.59375 0 
L 16.59375 61.34375 
L 16.703125 61.4375 
C 17.40625 59.640625 17.796875 58.75 21.90625 49.90625 
L 43.296875 3.6875 
L 45.09375 0 
L 57.40625 0 
L 57.40625 69 
L 49.59375 69 
L 49.59375 7.65625 
L 49.5 7.546875 
C 48.796875 9.34375 48.40625 10.234375 44.296875 19.078125 
z
" id="CMSS17-78"/>
     <path d="M 64.796875 31.515625 
C 66.296875 31.515625 67.796875 31.515625 67.796875 33.203125 
C 67.796875 35 66.09375 35 64.40625 35 
L 8.59375 35 
C 6.90625 35 5.203125 35 5.203125 33.203125 
C 5.203125 31.515625 6.703125 31.515625 8.203125 31.515625 
z
M 64.40625 14 
C 66.09375 14 67.796875 14 67.796875 15.796875 
C 67.796875 17.484375 66.296875 17.484375 64.796875 17.484375 
L 8.203125 17.484375 
C 6.703125 17.484375 5.203125 17.484375 5.203125 15.796875 
C 5.203125 14 6.90625 14 8.59375 14 
z
" id="CMSS17-61"/>
     <path d="M 28.40625 67 
L 26.5 67 
C 21.09375 61.5625 14.796875 60.78125 8.40625 60.78125 
L 8.40625 55 
C 11.296875 55 16 55 20.703125 57.296875 
L 20.703125 5.765625 
L 8.90625 5.765625 
L 8.90625 0 
L 40.203125 0 
L 40.203125 5.765625 
L 28.40625 5.765625 
z
" id="CMSS17-49"/>
     <path d="M 43.09375 31.9375 
C 43.09375 37.578125 43 48.078125 38.90625 56.1875 
C 34.796875 64 28.203125 66.078125 23.5 66.078125 
C 16.703125 66.078125 10.90625 62.125 7.90625 55.78125 
C 4.703125 49.15625 3.796875 42.328125 3.796875 31.9375 
C 3.796875 24.828125 4.09375 16.109375 7.703125 8.484375 
C 11.796875 0.078125 18.703125 -2 23.40625 -2 
C 29.59375 -2 35.59375 1.265625 39 8.09375 
C 42.5 15.21875 43.09375 23.03125 43.09375 31.9375 
z
M 23.40625 4.078125 
C 15.796875 4.078125 13.5 12.671875 12.796875 15.546875 
C 11.59375 20.46875 11.40625 25.21875 11.40625 33.03125 
C 11.40625 39.15625 11.40625 46.0625 13.296875 51.515625 
C 15.59375 57.828125 19.59375 60 23.40625 60 
C 30.796875 60 33.203125 52.6875 34 50.125 
C 35.5 44.890625 35.5 38.765625 35.5 33.03125 
C 35.5 23.84375 35.5 4.078125 23.40625 4.078125 
z
" id="CMSS17-48"/>
     <path d="M 11.296875 -25 
C 16.703125 -19.515625 29.09375 -6.765625 29.09375 24.6875 
C 29.09375 56.265625 16.703125 68.921875 11.296875 74.5 
L 5.203125 74.5 
C 17.5 61.75 21.5 43.921875 21.5 24.8125 
C 21.5 5.78125 17.703125 -12.15625 5.203125 -25 
z
" id="CMSS17-41"/>
    </defs>
    <g style="fill:#262626;" transform="translate(145.681132 31.532292)scale(0.3 -0.3)">
     <use transform="scale(0.996264)" xlink:href="#CMSS17-83"/>
     <use transform="translate(52.048516 0)scale(0.996264)" xlink:href="#CMSS17-111"/>
     <use transform="translate(96.289686 0)scale(0.996264)" xlink:href="#CMSS17-114"/>
     <use transform="translate(128.199458 0)scale(0.996264)" xlink:href="#CMSS17-116"/>
     <use transform="translate(162.031025 0)scale(0.996264)" xlink:href="#CMSS17-101"/>
     <use transform="translate(203.669847 0)scale(0.996264)" xlink:href="#CMSS17-100"/>
     <use transform="translate(283.103903 0)scale(0.996264)" xlink:href="#CMSS17-71"/>
     <use transform="translate(345.562128 0)scale(0.996264)" xlink:href="#CMSS17-85"/>
     <use transform="translate(409.701869 0)scale(0.996264)" xlink:href="#CMSS17-69"/>
     <use transform="translate(496.822995 0)scale(0.996264)" xlink:href="#CMSS17-69"/>
     <use transform="translate(552.715008 0)scale(0.996264)" xlink:href="#CMSS17-105"/>
     <use transform="translate(574.895731 0)scale(0.996264)" xlink:href="#CMSS17-103"/>
     <use transform="translate(621.739354 0)scale(0.996264)" xlink:href="#CMSS17-101"/>
     <use transform="translate(663.378177 0)scale(0.996264)" xlink:href="#CMSS17-110"/>
     <use transform="translate(711.58312 0)scale(0.996264)" xlink:href="#CMSS17-118"/>
     <use transform="translate(754.583261 0)scale(0.996264)" xlink:href="#CMSS17-97"/>
     <use transform="translate(799.505182 0)scale(0.996264)" xlink:href="#CMSS17-108"/>
     <use transform="translate(821.685905 0)scale(0.996264)" xlink:href="#CMSS17-117"/>
     <use transform="translate(869.890848 0)scale(0.996264)" xlink:href="#CMSS17-101"/>
     <use transform="translate(911.52967 0)scale(0.996264)" xlink:href="#CMSS17-115"/>
     <use transform="translate(978.672325 0)scale(0.996264)" xlink:href="#CMSS17-118"/>
     <use transform="translate(1021.672467 0)scale(0.996264)" xlink:href="#CMSS17-115"/>
     <use transform="translate(1088.815121 0)scale(0.996264)" xlink:href="#CMSS17-67"/>
     <use transform="translate(1148.670893 0)scale(0.996264)" xlink:href="#CMSS17-68"/>
     <use transform="translate(1216.213735 0)scale(0.996264)" xlink:href="#CMSS17-70"/>
     <use transform="translate(1269.503294 36.153639)scale(0.697382)" xlink:href="#CMSY10-0"/>
     <use transform="translate(1323.744287 36.153639)scale(0.697382)" xlink:href="#CMR17-49"/>
     <use transform="translate(1387.454714 0)scale(0.996264)" xlink:href="#CMSS17-40"/>
     <use transform="translate(1423.888628 0)scale(0.996264)" xlink:href="#CMSS17-78"/>
     <use transform="translate(1489.950147 0)scale(0.996264)" xlink:href="#CMSS17-61"/>
     <use transform="translate(1562.818082 0)scale(0.996264)" xlink:href="#CMSS17-49"/>
     <use transform="translate(1609.661706 0)scale(0.996264)" xlink:href="#CMSS17-48"/>
     <use transform="translate(1656.505329 0)scale(0.996264)" xlink:href="#CMSS17-48"/>
     <use transform="translate(1703.348953 0)scale(0.996264)" xlink:href="#CMSS17-41"/>
    </g>
   </g>
   <g id="legend_1">
    <g id="patch_7">
     <path d="M 479.849748 133.878334 
L 724.122762 133.878334 
Q 729.122762 133.878334 729.122762 128.878334 
L 729.122762 55.032292 
Q 729.122762 50.032292 724.122762 50.032292 
L 479.849748 50.032292 
Q 474.849748 50.032292 474.849748 55.032292 
L 474.849748 128.878334 
Q 474.849748 133.878334 479.849748 133.878334 
z
" style="fill:#eaeaf2;opacity:0.8;stroke:#cccccc;stroke-linejoin:miter;stroke-width:0.3;"/>
    </g>
    <g id="line2d_21"/>
    <g id="line2d_22">
     <g>
      <use style="fill:#0000ff;" x="509.849748" xlink:href="#ma7bbad96ac" y="69.93982"/>
     </g>
    </g>
    <g id="text_13">
     <!-- Data (Numerics) -->
     <defs>
      <path d="M 67 29.328125 
C 67 36.0625 65.296875 44 54.09375 44 
C 46.59375 44 42.09375 39.3125 40.09375 36.421875 
C 38.296875 41.71875 34.09375 44 28.09375 44 
C 21.296875 44 17 40.125 14.703125 37.328125 
L 14.703125 43.09375 
L 7.40625 43.09375 
L 7.40625 0 
L 15 0 
L 15 24.359375 
C 15 30.296875 17.203125 37.9375 24.296875 37.9375 
C 33.40625 37.9375 33.40625 31.5 33.40625 28.578125 
L 33.40625 0 
L 41 0 
L 41 24.359375 
C 41 30.296875 43.203125 37.9375 50.296875 37.9375 
C 59.40625 37.9375 59.40625 31.5 59.40625 28.578125 
L 59.40625 0 
L 67 0 
z
" id="CMSS17-109"/>
      <path d="M 38.5 39.703125 
C 38.5 40.390625 33.90625 42.40625 32.703125 42.796875 
C 29.40625 44 25.203125 44 24.09375 44 
C 11.09375 44 3.296875 32.703125 3.296875 21.296875 
C 3.296875 9.296875 12 -1 23.703125 -1 
C 30.40625 -1 35.203125 1.1875 39.09375 3.78125 
L 38.5 10.375 
C 34.203125 7.078125 29.203125 5.265625 23.796875 5.265625 
C 16 5.265625 10.90625 12.09375 10.90625 21.390625 
C 10.90625 28.609375 14.203125 37.71875 24.203125 37.71875 
C 29.703125 37.71875 32.796875 36.609375 37.40625 33.515625 
z
" id="CMSS17-99"/>
     </defs>
     <g style="fill:#262626;" transform="translate(554.849748 78.68982)scale(0.25 -0.25)">
      <use transform="scale(0.996264)" xlink:href="#CMSS17-68"/>
      <use transform="translate(67.542842 0)scale(0.996264)" xlink:href="#CMSS17-97"/>
      <use transform="translate(112.464762 0)scale(0.996264)" xlink:href="#CMSS17-116"/>
      <use transform="translate(146.296329 0)scale(0.996264)" xlink:href="#CMSS17-97"/>
      <use transform="translate(222.447362 0)scale(0.996264)" xlink:href="#CMSS17-40"/>
      <use transform="translate(258.881277 0)scale(0.996264)" xlink:href="#CMSS17-78"/>
      <use transform="translate(324.942796 0)scale(0.996264)" xlink:href="#CMSS17-117"/>
      <use transform="translate(373.147739 0)scale(0.996264)" xlink:href="#CMSS17-109"/>
      <use transform="translate(447.376993 0)scale(0.996264)" xlink:href="#CMSS17-101"/>
      <use transform="translate(489.015815 0)scale(0.996264)" xlink:href="#CMSS17-114"/>
      <use transform="translate(520.925588 0)scale(0.996264)" xlink:href="#CMSS17-105"/>
      <use transform="translate(543.106311 0)scale(0.996264)" xlink:href="#CMSS17-99"/>
      <use transform="translate(584.745133 0)scale(0.996264)" xlink:href="#CMSS17-115"/>
      <use transform="translate(620.658675 0)scale(0.996264)" xlink:href="#CMSS17-41"/>
     </g>
    </g>
    <g id="line2d_23">
     <path d="M 484.849748 108.922526 
L 534.849748 108.922526 
" style="fill:none;stroke:#ffa500;stroke-dasharray:14.8,6.4;stroke-dashoffset:0;stroke-width:4;"/>
    </g>
    <g id="line2d_24"/>
    <g id="text_14">
     <!-- Theory (CDF$^{-1})$ -->
     <defs>
      <path d="M 36.203125 62 
L 44.5 62 
C 45.703125 62 46.90625 62 48.09375 62 
L 60.59375 62 
L 60.59375 68.375 
L 3.40625 68.375 
L 3.40625 62 
L 15.90625 62 
C 17.09375 62 18.296875 62 19.5 62 
L 27.796875 62 
L 27.796875 -0.5 
L 36.203125 -0.5 
z
" id="CMSS17-84"/>
      <path d="M 40.90625 29.546875 
C 40.90625 35.8125 39.40625 44.0625 28.09375 44.0625 
C 21.796875 44.0625 17.703125 40.984375 14.796875 37.609375 
L 14.796875 69.5 
L 7.40625 69.5 
L 7.40625 0.5 
L 15 0.5 
L 15 24.578125 
C 15 30.828125 17.40625 38 24.203125 38 
C 33 38 33.296875 32.125 33.296875 28.734375 
L 33.296875 0.5 
L 40.90625 0.5 
z
" id="CMSS17-104"/>
      <path d="M 41.796875 43 
L 34 43 
C 25.5 20.21875 22.59375 10.96875 22.40625 5.984375 
L 22.296875 5.984375 
C 22 10.875 17.59375 22.8125 14.09375 31.359375 
L 9.40625 43 
L 1.296875 43 
L 19 0.203125 
C 17.90625 -2.78125 16.296875 -7.265625 15.796875 -8.265625 
C 13.59375 -13.828125 12.09375 -13.828125 10.5 -13.828125 
C 10.09375 -13.828125 6.90625 -13.828125 3.296875 -12.640625 
L 3.90625 -19.203125 
C 6.40625 -19.703125 8.90625 -20 10.703125 -20 
C 13.203125 -20 18.203125 -20 22.796875 -7.765625 
z
" id="CMSS17-121"/>
      <path d="M 26.296875 24.6875 
C 26.296875 31.875 25.59375 44.015625 19.59375 56.859375 
C 14.796875 67.234375 6.59375 74.5 5.40625 74.5 
C 5.09375 74.5 4.703125 74.390625 4.703125 73.890625 
C 4.703125 73.703125 4.796875 73.59375 4.90625 73.390625 
C 9.703125 68.40625 21.90625 55.75 21.90625 24.75 
C 21.90625 -6.359375 9.796875 -19.015625 4.90625 -24.015625 
C 4.796875 -24.203125 4.703125 -24.3125 4.703125 -24.5 
C 4.703125 -25 5.09375 -25 5.40625 -25 
C 6.5 -25 15 -17.625 19.90625 -6.65625 
C 24.90625 4.390625 26.296875 15.140625 26.296875 24.6875 
z
" id="CMR17-41"/>
     </defs>
     <g style="fill:#262626;" transform="translate(554.849748 117.672526)scale(0.25 -0.25)">
      <use transform="scale(0.996264)" xlink:href="#CMSS17-84"/>
      <use transform="translate(63.819454 0)scale(0.996264)" xlink:href="#CMSS17-104"/>
      <use transform="translate(112.024397 0)scale(0.996264)" xlink:href="#CMSS17-101"/>
      <use transform="translate(153.663219 0)scale(0.996264)" xlink:href="#CMSS17-111"/>
      <use transform="translate(197.904389 0)scale(0.996264)" xlink:href="#CMSS17-114"/>
      <use transform="translate(229.814161 0)scale(0.996264)" xlink:href="#CMSS17-121"/>
      <use transform="translate(304.043416 0)scale(0.996264)" xlink:href="#CMSS17-40"/>
      <use transform="translate(340.47733 0)scale(0.996264)" xlink:href="#CMSS17-67"/>
      <use transform="translate(400.333101 0)scale(0.996264)" xlink:href="#CMSS17-68"/>
      <use transform="translate(467.875943 0)scale(0.996264)" xlink:href="#CMSS17-70"/>
      <use transform="translate(521.165502 36.153639)scale(0.697382)" xlink:href="#CMSY10-0"/>
      <use transform="translate(575.406496 36.153639)scale(0.697382)" xlink:href="#CMR17-49"/>
      <use transform="translate(607.88781 0)scale(0.996264)" xlink:href="#CMR17-41"/>
     </g>
    </g>
   </g>
  </g>
  <g id="axes_2">
   <g id="patch_8">
    <path d="M 72.022762 581.132292 
L 741.622762 581.132292 
L 741.622762 363.692292 
L 72.022762 363.692292 
z
" style="fill:#eaeaf2;"/>
   </g>
   <g id="matplotlib.axis_3">
    <g id="xtick_7">
     <g id="line2d_25">
      <path clip-path="url(#p3f0439903b)" d="M 102.459125 581.132292 
L 102.459125 363.692292 
" style="fill:none;stroke:#ffffff;stroke-linecap:round;"/>
     </g>
     <g id="line2d_26"/>
     <g id="text_15">
      <!-- $0$ -->
      <g style="fill:#262626;" transform="translate(96.747816 605.428546)scale(0.25 -0.25)">
       <use transform="scale(0.996264)" xlink:href="#CMR17-48"/>
      </g>
     </g>
    </g>
    <g id="xtick_8">
     <g id="line2d_27">
      <path clip-path="url(#p3f0439903b)" d="M 237.731853 581.132292 
L 237.731853 363.692292 
" style="fill:none;stroke:#ffffff;stroke-linecap:round;"/>
     </g>
     <g id="line2d_28"/>
     <g id="text_16">
      <!-- $2$ -->
      <g style="fill:#262626;" transform="translate(232.020543 605.428546)scale(0.25 -0.25)">
       <use transform="scale(0.996264)" xlink:href="#CMR17-50"/>
      </g>
     </g>
    </g>
    <g id="xtick_9">
     <g id="line2d_29">
      <path clip-path="url(#p3f0439903b)" d="M 373.00458 581.132292 
L 373.00458 363.692292 
" style="fill:none;stroke:#ffffff;stroke-linecap:round;"/>
     </g>
     <g id="line2d_30"/>
     <g id="text_17">
      <!-- $4$ -->
      <g style="fill:#262626;" transform="translate(367.29327 605.428546)scale(0.25 -0.25)">
       <use transform="scale(0.996264)" xlink:href="#CMR17-52"/>
      </g>
     </g>
    </g>
    <g id="xtick_10">
     <g id="line2d_31">
      <path clip-path="url(#p3f0439903b)" d="M 508.277307 581.132292 
L 508.277307 363.692292 
" style="fill:none;stroke:#ffffff;stroke-linecap:round;"/>
     </g>
     <g id="line2d_32"/>
     <g id="text_18">
      <!-- $6$ -->
      <g style="fill:#262626;" transform="translate(502.565998 605.428546)scale(0.25 -0.25)">
       <use transform="scale(0.996264)" xlink:href="#CMR17-54"/>
      </g>
     </g>
    </g>
    <g id="xtick_11">
     <g id="line2d_33">
      <path clip-path="url(#p3f0439903b)" d="M 643.550035 581.132292 
L 643.550035 363.692292 
" style="fill:none;stroke:#ffffff;stroke-linecap:round;"/>
     </g>
     <g id="line2d_34"/>
     <g id="text_19">
      <!-- $8$ -->
      <g style="fill:#262626;" transform="translate(637.838725 605.428546)scale(0.25 -0.25)">
       <use transform="scale(0.996264)" xlink:href="#CMR17-56"/>
      </g>
     </g>
    </g>
    <g id="text_20">
     <!-- Index $j$  -->
     <g style="fill:#262626;" transform="translate(368.540098 633.298947)scale(0.275 -0.275)">
      <use transform="scale(0.996264)" xlink:href="#CMSS17-73"/>
      <use transform="translate(25.783926 0)scale(0.996264)" xlink:href="#CMSS17-110"/>
      <use transform="translate(73.988869 0)scale(0.996264)" xlink:href="#CMSS17-100"/>
      <use transform="translate(122.193812 0)scale(0.996264)" xlink:href="#CMSS17-101"/>
      <use transform="translate(163.832634 0)scale(0.996264)" xlink:href="#CMSS17-120"/>
      <use transform="translate(238.061888 0)scale(0.996264)" xlink:href="#CMMI12-106"/>
     </g>
    </g>
   </g>
   <g id="matplotlib.axis_4">
    <g id="ytick_4">
     <g id="line2d_35">
      <path clip-path="url(#p3f0439903b)" d="M 72.022762 569.43066 
L 741.622762 569.43066 
" style="fill:none;stroke:#ffffff;stroke-linecap:round;"/>
     </g>
     <g id="line2d_36"/>
     <g id="text_21">
      <!-- $-5$ -->
      <defs>
       <path d="M 11.40625 57.6875 
C 12.40625 57.28125 16.5 56 20.703125 56 
C 30 56 35.09375 61.109375 38 64.0625 
C 38 64.953125 38 65.5 37.40625 65.5 
C 37.296875 65.5 37.09375 65.5 36.296875 65.046875 
C 32.796875 63.40625 28.703125 62.078125 23.703125 62.078125 
C 20.703125 62.078125 16.203125 62.484375 11.296875 64.671875 
C 10.203125 65.171875 10 65.171875 9.90625 65.171875 
C 9.40625 65.171875 9.296875 65.0625 9.296875 63.078125 
L 9.296875 34.421875 
C 9.296875 32.640625 9.296875 32.140625 10.296875 32.140625 
C 10.796875 32.140625 11 32.34375 11.5 33.03125 
C 14.703125 37.515625 19.09375 39.40625 24.09375 39.40625 
C 27.59375 39.40625 35.09375 37.21875 35.09375 20.140625 
C 35.09375 16.953125 35.09375 11.171875 32.09375 6.578125 
C 29.59375 2.484375 25.703125 0.390625 21.40625 0.390625 
C 14.796875 0.390625 8.09375 5 6.296875 12.71875 
C 6.703125 12.609375 7.5 12.421875 7.90625 12.421875 
C 9.203125 12.421875 11.703125 13.125 11.703125 16.21875 
C 11.703125 18.90625 9.796875 20 7.90625 20 
C 5.59375 20 4.09375 18.59375 4.09375 15.796875 
C 4.09375 7.09375 11 -2 21.59375 -2 
C 31.90625 -2 41.703125 6.875 41.703125 19.75 
C 41.703125 31.71875 33.90625 41 24.203125 41 
C 19.09375 41 14.796875 39.109375 11.40625 35.53125 
z
" id="CMR17-53"/>
      </defs>
      <g style="fill:#262626;" transform="translate(34.228283 578.078787)scale(0.25 -0.25)">
       <use transform="scale(0.996264)" xlink:href="#CMSY10-0"/>
       <use transform="translate(77.487468 0)scale(0.996264)" xlink:href="#CMR17-53"/>
      </g>
     </g>
    </g>
    <g id="ytick_5">
     <g id="line2d_37">
      <path clip-path="url(#p3f0439903b)" d="M 72.022762 472.412292 
L 741.622762 472.412292 
" style="fill:none;stroke:#ffffff;stroke-linecap:round;"/>
     </g>
     <g id="line2d_38"/>
     <g id="text_22">
      <!-- $0$ -->
      <g style="fill:#262626;" transform="translate(53.600143 481.060419)scale(0.25 -0.25)">
       <use transform="scale(0.996264)" xlink:href="#CMR17-48"/>
      </g>
     </g>
    </g>
    <g id="ytick_6">
     <g id="line2d_39">
      <path clip-path="url(#p3f0439903b)" d="M 72.022762 375.393924 
L 741.622762 375.393924 
" style="fill:none;stroke:#ffffff;stroke-linecap:round;"/>
     </g>
     <g id="line2d_40"/>
     <g id="text_23">
      <!-- $5$ -->
      <g style="fill:#262626;" transform="translate(53.600143 384.042051)scale(0.25 -0.25)">
       <use transform="scale(0.996264)" xlink:href="#CMR17-53"/>
      </g>
     </g>
    </g>
    <g id="text_24">
     <!-- $\bar{\kappa}_{j}$ -->
     <g style="fill:#262626;" transform="translate(18.622619 467.083292)scale(0.275 -0.275)">
      <use transform="translate(5.232073 14.950375)scale(0.996264)" xlink:href="#CMR17-22"/>
      <use transform="translate(0 14.943915)scale(0.996264)" xlink:href="#CMMI12-20"/>
      <use transform="translate(56.154624 0)scale(0.697382)" xlink:href="#CMMI12-106"/>
     </g>
    </g>
   </g>
   <g id="line2d_41">
    <g>
     <use style="fill:#0000ff;" x="102.459125" xlink:href="#ma7bbad96ac" y="375.313712"/>
     <use style="fill:#0000ff;" x="170.095489" xlink:href="#ma7bbad96ac" y="401.211989"/>
     <use style="fill:#0000ff;" x="237.731853" xlink:href="#ma7bbad96ac" y="422.673782"/>
     <use style="fill:#0000ff;" x="305.368216" xlink:href="#ma7bbad96ac" y="443.945854"/>
     <use style="fill:#0000ff;" x="373.00458" xlink:href="#ma7bbad96ac" y="463.679376"/>
     <use style="fill:#0000ff;" x="440.640944" xlink:href="#ma7bbad96ac" y="481.53033"/>
     <use style="fill:#0000ff;" x="508.277307" xlink:href="#ma7bbad96ac" y="501.351849"/>
     <use style="fill:#0000ff;" x="575.913671" xlink:href="#ma7bbad96ac" y="520.390519"/>
     <use style="fill:#0000ff;" x="643.550035" xlink:href="#ma7bbad96ac" y="543.381507"/>
     <use style="fill:#0000ff;" x="711.186398" xlink:href="#ma7bbad96ac" y="570.517373"/>
    </g>
   </g>
   <g id="line2d_42">
    <path d="M 102.459125 373.575928 
L 170.095489 400.604457 
L 237.731853 422.836914 
L 305.368216 443.219453 
L 373.00458 462.763968 
L 440.640944 482.060617 
L 508.277307 501.605132 
L 575.913671 521.98767 
L 643.550035 544.220127 
L 711.186398 571.248656 
" style="fill:none;stroke:#ffa500;stroke-dasharray:14.8,6.4;stroke-dashoffset:0;stroke-width:4;"/>
   </g>
   <g id="patch_9">
    <path d="M 72.022762 581.132292 
L 72.022762 363.692292 
" style="fill:none;"/>
   </g>
   <g id="patch_10">
    <path d="M 741.622762 581.132292 
L 741.622762 363.692292 
" style="fill:none;"/>
   </g>
   <g id="patch_11">
    <path d="M 72.022762 581.132292 
L 741.622762 581.132292 
" style="fill:none;"/>
   </g>
   <g id="patch_12">
    <path d="M 72.022762 363.692292 
L 741.622762 363.692292 
" style="fill:none;"/>
   </g>
   <g id="text_25">
    <!-- Sorted GUE Eigenvalues vs CDF$^{-1}$ (N=10) -->
    <g style="fill:#262626;" transform="translate(152.70767 357.692292)scale(0.3 -0.3)">
     <use transform="scale(0.996264)" xlink:href="#CMSS17-83"/>
     <use transform="translate(52.048516 0)scale(0.996264)" xlink:href="#CMSS17-111"/>
     <use transform="translate(96.289686 0)scale(0.996264)" xlink:href="#CMSS17-114"/>
     <use transform="translate(128.199458 0)scale(0.996264)" xlink:href="#CMSS17-116"/>
     <use transform="translate(162.031025 0)scale(0.996264)" xlink:href="#CMSS17-101"/>
     <use transform="translate(203.669847 0)scale(0.996264)" xlink:href="#CMSS17-100"/>
     <use transform="translate(283.103903 0)scale(0.996264)" xlink:href="#CMSS17-71"/>
     <use transform="translate(345.562128 0)scale(0.996264)" xlink:href="#CMSS17-85"/>
     <use transform="translate(409.701869 0)scale(0.996264)" xlink:href="#CMSS17-69"/>
     <use transform="translate(496.822995 0)scale(0.996264)" xlink:href="#CMSS17-69"/>
     <use transform="translate(552.715008 0)scale(0.996264)" xlink:href="#CMSS17-105"/>
     <use transform="translate(574.895731 0)scale(0.996264)" xlink:href="#CMSS17-103"/>
     <use transform="translate(621.739354 0)scale(0.996264)" xlink:href="#CMSS17-101"/>
     <use transform="translate(663.378177 0)scale(0.996264)" xlink:href="#CMSS17-110"/>
     <use transform="translate(711.58312 0)scale(0.996264)" xlink:href="#CMSS17-118"/>
     <use transform="translate(754.583261 0)scale(0.996264)" xlink:href="#CMSS17-97"/>
     <use transform="translate(799.505182 0)scale(0.996264)" xlink:href="#CMSS17-108"/>
     <use transform="translate(821.685905 0)scale(0.996264)" xlink:href="#CMSS17-117"/>
     <use transform="translate(869.890848 0)scale(0.996264)" xlink:href="#CMSS17-101"/>
     <use transform="translate(911.52967 0)scale(0.996264)" xlink:href="#CMSS17-115"/>
     <use transform="translate(978.672325 0)scale(0.996264)" xlink:href="#CMSS17-118"/>
     <use transform="translate(1021.672467 0)scale(0.996264)" xlink:href="#CMSS17-115"/>
     <use transform="translate(1088.815121 0)scale(0.996264)" xlink:href="#CMSS17-67"/>
     <use transform="translate(1148.670893 0)scale(0.996264)" xlink:href="#CMSS17-68"/>
     <use transform="translate(1216.213735 0)scale(0.996264)" xlink:href="#CMSS17-70"/>
     <use transform="translate(1269.503294 36.153639)scale(0.697382)" xlink:href="#CMSY10-0"/>
     <use transform="translate(1323.744287 36.153639)scale(0.697382)" xlink:href="#CMR17-49"/>
     <use transform="translate(1387.454714 0)scale(0.996264)" xlink:href="#CMSS17-40"/>
     <use transform="translate(1423.888628 0)scale(0.996264)" xlink:href="#CMSS17-78"/>
     <use transform="translate(1489.950147 0)scale(0.996264)" xlink:href="#CMSS17-61"/>
     <use transform="translate(1562.818082 0)scale(0.996264)" xlink:href="#CMSS17-49"/>
     <use transform="translate(1609.661706 0)scale(0.996264)" xlink:href="#CMSS17-48"/>
     <use transform="translate(1656.505329 0)scale(0.996264)" xlink:href="#CMSS17-41"/>
    </g>
   </g>
   <g id="legend_2">
    <g id="patch_13">
     <path d="M 479.849748 460.038334 
L 724.122762 460.038334 
Q 729.122762 460.038334 729.122762 455.038334 
L 729.122762 381.192292 
Q 729.122762 376.192292 724.122762 376.192292 
L 479.849748 376.192292 
Q 474.849748 376.192292 474.849748 381.192292 
L 474.849748 455.038334 
Q 474.849748 460.038334 479.849748 460.038334 
z
" style="fill:#eaeaf2;opacity:0.8;stroke:#cccccc;stroke-linejoin:miter;stroke-width:0.3;"/>
    </g>
    <g id="line2d_43"/>
    <g id="line2d_44">
     <g>
      <use style="fill:#0000ff;" x="509.849748" xlink:href="#ma7bbad96ac" y="396.09982"/>
     </g>
    </g>
    <g id="text_26">
     <!-- Data (Numerics) -->
     <g style="fill:#262626;" transform="translate(554.849748 404.84982)scale(0.25 -0.25)">
      <use transform="scale(0.996264)" xlink:href="#CMSS17-68"/>
      <use transform="translate(67.542842 0)scale(0.996264)" xlink:href="#CMSS17-97"/>
      <use transform="translate(112.464762 0)scale(0.996264)" xlink:href="#CMSS17-116"/>
      <use transform="translate(146.296329 0)scale(0.996264)" xlink:href="#CMSS17-97"/>
      <use transform="translate(222.447362 0)scale(0.996264)" xlink:href="#CMSS17-40"/>
      <use transform="translate(258.881277 0)scale(0.996264)" xlink:href="#CMSS17-78"/>
      <use transform="translate(324.942796 0)scale(0.996264)" xlink:href="#CMSS17-117"/>
      <use transform="translate(373.147739 0)scale(0.996264)" xlink:href="#CMSS17-109"/>
      <use transform="translate(447.376993 0)scale(0.996264)" xlink:href="#CMSS17-101"/>
      <use transform="translate(489.015815 0)scale(0.996264)" xlink:href="#CMSS17-114"/>
      <use transform="translate(520.925588 0)scale(0.996264)" xlink:href="#CMSS17-105"/>
      <use transform="translate(543.106311 0)scale(0.996264)" xlink:href="#CMSS17-99"/>
      <use transform="translate(584.745133 0)scale(0.996264)" xlink:href="#CMSS17-115"/>
      <use transform="translate(620.658675 0)scale(0.996264)" xlink:href="#CMSS17-41"/>
     </g>
    </g>
    <g id="line2d_45">
     <path d="M 484.849748 435.082526 
L 534.849748 435.082526 
" style="fill:none;stroke:#ffa500;stroke-dasharray:14.8,6.4;stroke-dashoffset:0;stroke-width:4;"/>
    </g>
    <g id="line2d_46"/>
    <g id="text_27">
     <!-- Theory (CDF$^{-1})$ -->
     <g style="fill:#262626;" transform="translate(554.849748 443.832526)scale(0.25 -0.25)">
      <use transform="scale(0.996264)" xlink:href="#CMSS17-84"/>
      <use transform="translate(63.819454 0)scale(0.996264)" xlink:href="#CMSS17-104"/>
      <use transform="translate(112.024397 0)scale(0.996264)" xlink:href="#CMSS17-101"/>
      <use transform="translate(153.663219 0)scale(0.996264)" xlink:href="#CMSS17-111"/>
      <use transform="translate(197.904389 0)scale(0.996264)" xlink:href="#CMSS17-114"/>
      <use transform="translate(229.814161 0)scale(0.996264)" xlink:href="#CMSS17-121"/>
      <use transform="translate(304.043416 0)scale(0.996264)" xlink:href="#CMSS17-40"/>
      <use transform="translate(340.47733 0)scale(0.996264)" xlink:href="#CMSS17-67"/>
      <use transform="translate(400.333101 0)scale(0.996264)" xlink:href="#CMSS17-68"/>
      <use transform="translate(467.875943 0)scale(0.996264)" xlink:href="#CMSS17-70"/>
      <use transform="translate(521.165502 36.153639)scale(0.697382)" xlink:href="#CMSY10-0"/>
      <use transform="translate(575.406496 36.153639)scale(0.697382)" xlink:href="#CMR17-49"/>
      <use transform="translate(607.88781 0)scale(0.996264)" xlink:href="#CMR17-41"/>
     </g>
    </g>
   </g>
  </g>
 </g>
 <defs>
  <clipPath id="p5716d9c753">
   <rect height="217.44" width="669.6" x="72.022762" y="37.532292"/>
  </clipPath>
  <clipPath id="p3f0439903b">
   <rect height="217.44" width="669.6" x="72.022762" y="363.692292"/>
  </clipPath>
 </defs>
</svg>
