<?xml version="1.0" encoding="utf-8" standalone="no"?>
<!DOCTYPE svg PUBLIC "-//W3C//DTD SVG 1.1//EN"
  "http://www.w3.org/Graphics/SVG/1.1/DTD/svg11.dtd">
<!-- Created with matplotlib (http://matplotlib.org/) -->
<svg height="690pt" version="1.1" viewBox="0 0 693 690" width="693pt" xmlns="http://www.w3.org/2000/svg" xmlns:xlink="http://www.w3.org/1999/xlink">
 <defs>
  <style type="text/css">
*{stroke-linecap:butt;stroke-linejoin:round;}
  </style>
 </defs>
 <g id="figure_1">
  <g id="patch_1">
   <path d="M 0 690.146844 
L 693.57629 690.146844 
L 693.57629 0 
L 0 0 
z
" style="fill:#ffffff;"/>
  </g>
  <g id="axes_1">
   <g id="patch_2">
    <path d="M 110.37629 609.955495 
L 686.37629 609.955495 
L 686.37629 33.955495 
L 110.37629 33.955495 
z
" style="fill:#e6e6e6;"/>
   </g>
   <g id="matplotlib.axis_1">
    <g id="xtick_1">
     <g id="line2d_1">
      <path clip-path="url(#p5411def025)" d="M 147.941507 609.955495 
L 147.941507 33.955495 
" style="fill:none;stroke:#ffffff;stroke-linecap:round;"/>
     </g>
     <g id="line2d_2"/>
     <g id="text_1">
      <!-- $-1.0$ -->
      <defs>
       <path d="M 65.90625 23 
C 67.59375 23 69.40625 23 69.40625 25 
C 69.40625 27 67.59375 27 65.90625 27 
L 11.796875 27 
C 10.09375 27 8.296875 27 8.296875 25 
C 8.296875 23 10.09375 23 11.796875 23 
z
" id="CMSY10-0"/>
       <path d="M 26.59375 63.40625 
C 26.59375 65.5 26.5 65.5 25.09375 65.5 
C 21.203125 61.1875 15.296875 59.796875 9.703125 59.796875 
C 9.40625 59.796875 8.90625 59.796875 8.796875 59.5 
C 8.703125 59.296875 8.703125 59.09375 8.703125 57 
C 11.796875 57 17 57.59375 21 59.984375 
L 21 7.203125 
C 21 3.6875 20.796875 2.5 12.203125 2.5 
L 9.203125 2.5 
L 9.203125 0 
C 14 0 19 0 23.796875 0 
C 28.59375 0 33.59375 0 38.40625 0 
L 38.40625 2.5 
L 35.40625 2.5 
C 26.796875 2.5 26.59375 3.59375 26.59375 7.15625 
z
" id="CMR17-49"/>
       <path d="M 18.40625 4.796875 
C 18.40625 7.6875 16 9.671875 13.59375 9.671875 
C 10.703125 9.671875 8.703125 7.28125 8.703125 4.890625 
C 8.703125 2 11.09375 0 13.5 0 
C 16.40625 0 18.40625 2.390625 18.40625 4.796875 
z
" id="CMMI12-58"/>
       <path d="M 42 31.640625 
C 42 37.75 41.90625 48.125 37.703125 56.109375 
C 34 63.109375 28.09375 65.59375 22.90625 65.59375 
C 18.09375 65.59375 12 63.40625 8.203125 56.203125 
C 4.203125 48.71875 3.796875 39.4375 3.796875 31.640625 
C 3.796875 25.953125 3.90625 17.28125 7 9.671875 
C 11.296875 -0.609375 19 -2 22.90625 -2 
C 27.5 -2 34.5 -0.109375 38.59375 9.375 
C 41.59375 16.28125 42 24.359375 42 31.640625 
z
M 22.90625 -0.40625 
C 16.5 -0.40625 12.703125 5.078125 11.296875 12.6875 
C 10.203125 18.5625 10.203125 27.15625 10.203125 32.75 
C 10.203125 40.4375 10.203125 46.828125 11.5 52.921875 
C 13.40625 61.390625 19 64 22.90625 64 
C 27 64 32.296875 61.296875 34.203125 53.125 
C 35.5 47.4375 35.59375 40.734375 35.59375 32.75 
C 35.59375 26.25 35.59375 18.265625 34.40625 12.375 
C 32.296875 1.484375 26.40625 -0.40625 22.90625 -0.40625 
z
" id="CMR17-48"/>
      </defs>
      <g style="fill:#262626;" transform="translate(123.445811 634.251749)scale(0.25 -0.25)">
       <use transform="scale(0.996264)" xlink:href="#CMSY10-0"/>
       <use transform="translate(77.487468 0)scale(0.996264)" xlink:href="#CMR17-49"/>
       <use transform="translate(123.177945 0)scale(0.996264)" xlink:href="#CMMI12-58"/>
       <use transform="translate(150.275122 0)scale(0.996264)" xlink:href="#CMR17-48"/>
      </g>
     </g>
    </g>
    <g id="xtick_2">
     <g id="line2d_3">
      <path clip-path="url(#p5411def025)" d="M 273.158898 609.955495 
L 273.158898 33.955495 
" style="fill:none;stroke:#ffffff;stroke-linecap:round;"/>
     </g>
     <g id="line2d_4"/>
     <g id="text_2">
      <!-- $-0.5$ -->
      <defs>
       <path d="M 11.40625 57.6875 
C 12.40625 57.28125 16.5 56 20.703125 56 
C 30 56 35.09375 61.109375 38 64.0625 
C 38 64.953125 38 65.5 37.40625 65.5 
C 37.296875 65.5 37.09375 65.5 36.296875 65.046875 
C 32.796875 63.40625 28.703125 62.078125 23.703125 62.078125 
C 20.703125 62.078125 16.203125 62.484375 11.296875 64.671875 
C 10.203125 65.171875 10 65.171875 9.90625 65.171875 
C 9.40625 65.171875 9.296875 65.0625 9.296875 63.078125 
L 9.296875 34.421875 
C 9.296875 32.640625 9.296875 32.140625 10.296875 32.140625 
C 10.796875 32.140625 11 32.34375 11.5 33.03125 
C 14.703125 37.515625 19.09375 39.40625 24.09375 39.40625 
C 27.59375 39.40625 35.09375 37.21875 35.09375 20.140625 
C 35.09375 16.953125 35.09375 11.171875 32.09375 6.578125 
C 29.59375 2.484375 25.703125 0.390625 21.40625 0.390625 
C 14.796875 0.390625 8.09375 5 6.296875 12.71875 
C 6.703125 12.609375 7.5 12.421875 7.90625 12.421875 
C 9.203125 12.421875 11.703125 13.125 11.703125 16.21875 
C 11.703125 18.90625 9.796875 20 7.90625 20 
C 5.59375 20 4.09375 18.59375 4.09375 15.796875 
C 4.09375 7.09375 11 -2 21.59375 -2 
C 31.90625 -2 41.703125 6.875 41.703125 19.75 
C 41.703125 31.71875 33.90625 41 24.203125 41 
C 19.09375 41 14.796875 39.109375 11.40625 35.53125 
z
" id="CMR17-53"/>
      </defs>
      <g style="fill:#262626;" transform="translate(248.663202 634.251749)scale(0.25 -0.25)">
       <use transform="scale(0.996264)" xlink:href="#CMSY10-0"/>
       <use transform="translate(77.487468 0)scale(0.996264)" xlink:href="#CMR17-48"/>
       <use transform="translate(123.177945 0)scale(0.996264)" xlink:href="#CMMI12-58"/>
       <use transform="translate(150.275122 0)scale(0.996264)" xlink:href="#CMR17-53"/>
      </g>
     </g>
    </g>
    <g id="xtick_3">
     <g id="line2d_5">
      <path clip-path="url(#p5411def025)" d="M 398.37629 609.955495 
L 398.37629 33.955495 
" style="fill:none;stroke:#ffffff;stroke-linecap:round;"/>
     </g>
     <g id="line2d_6"/>
     <g id="text_3">
      <!-- $0.0$ -->
      <g style="fill:#262626;" transform="translate(383.566523 634.251749)scale(0.25 -0.25)">
       <use transform="scale(0.996264)" xlink:href="#CMR17-48"/>
       <use transform="translate(45.690477 0)scale(0.996264)" xlink:href="#CMMI12-58"/>
       <use transform="translate(72.787654 0)scale(0.996264)" xlink:href="#CMR17-48"/>
      </g>
     </g>
    </g>
    <g id="xtick_4">
     <g id="line2d_7">
      <path clip-path="url(#p5411def025)" d="M 523.593681 609.955495 
L 523.593681 33.955495 
" style="fill:none;stroke:#ffffff;stroke-linecap:round;"/>
     </g>
     <g id="line2d_8"/>
     <g id="text_4">
      <!-- $0.5$ -->
      <g style="fill:#262626;" transform="translate(508.783914 634.251749)scale(0.25 -0.25)">
       <use transform="scale(0.996264)" xlink:href="#CMR17-48"/>
       <use transform="translate(45.690477 0)scale(0.996264)" xlink:href="#CMMI12-58"/>
       <use transform="translate(72.787654 0)scale(0.996264)" xlink:href="#CMR17-53"/>
      </g>
     </g>
    </g>
    <g id="xtick_5">
     <g id="line2d_9">
      <path clip-path="url(#p5411def025)" d="M 648.811072 609.955495 
L 648.811072 33.955495 
" style="fill:none;stroke:#ffffff;stroke-linecap:round;"/>
     </g>
     <g id="line2d_10"/>
     <g id="text_5">
      <!-- $1.0$ -->
      <g style="fill:#262626;" transform="translate(634.001306 634.251749)scale(0.25 -0.25)">
       <use transform="scale(0.996264)" xlink:href="#CMR17-49"/>
       <use transform="translate(45.690477 0)scale(0.996264)" xlink:href="#CMMI12-58"/>
       <use transform="translate(72.787654 0)scale(0.996264)" xlink:href="#CMR17-48"/>
      </g>
     </g>
    </g>
    <g id="text_6">
     <!-- $\langle\sigma_{X}\rangle$ -->
     <defs>
      <path d="M 32.796875 71.203125 
C 33.296875 72.296875 33.296875 72.5 33.296875 73 
C 33.296875 74.09375 32.40625 75 31.296875 75 
C 30.40625 75 29.703125 74.5 29 72.703125 
L 11.5 26.796875 
C 11.296875 26.203125 11 25.59375 11 25 
C 11 24.703125 11 24.5 11.5 23.296875 
L 29 -22.59375 
C 29.40625 -23.703125 29.90625 -25 31.296875 -25 
C 32.40625 -25 33.296875 -24.09375 33.296875 -23 
C 33.296875 -22.703125 33.296875 -22.5 32.796875 -21.40625 
L 15.09375 25 
z
" id="CMSY10-104"/>
      <path d="M 50.796875 37.625 
C 52.09375 37.625 55.40625 37.625 55.40625 40.8125 
C 55.40625 43 53.5 43 51.703125 43 
L 29.59375 43 
C 14.59375 43 3.796875 26.34375 3.796875 14.5625 
C 3.796875 6.09375 9.296875 -1 18.296875 -1 
C 30.09375 -1 43 11.671875 43 26.640625 
C 43 30.53125 42.09375 34.3125 39.703125 37.625 
z
M 18.40625 1 
C 13.296875 1 9.59375 4.890625 9.59375 11.78125 
C 9.59375 17.765625 13.203125 37.625 27.90625 37.625 
C 32.203125 37.625 37 35.53125 37 27.828125 
C 37 24.34375 35.40625 15.953125 31.90625 10.1875 
C 28.296875 4.296875 22.90625 1 18.40625 1 
z
" id="CMMI12-27"/>
      <path d="M 47.5 40.5625 
L 38.09375 62.40625 
C 39.40625 64.796875 42.40625 65.1875 43.59375 65.296875 
C 44.203125 65.296875 45.296875 65.296875 45.296875 67.0625 
C 45.296875 68.1875 44.40625 68.1875 43.796875 68.1875 
C 42.09375 68.1875 40.09375 68.1875 38.40625 68.1875 
L 32.59375 68.1875 
C 26.5 68.1875 22.09375 68.1875 22 68.1875 
C 21.203125 68.1875 20.203125 68.1875 20.203125 66.296875 
C 20.203125 65.296875 21.09375 65.296875 22.40625 65.296875 
C 28.203125 65.296875 28.59375 64.296875 29.59375 61.90625 
L 41.5 34.140625 
L 19.796875 10.828125 
C 16.203125 6.90625 11.90625 3.09375 4.5 3.09375 
C 3.296875 3 2.5 3 2.5 1.0625 
C 2.5 0.75 2.59375 0 3.703125 0 
C 5.09375 0 6.59375 0 8 0 
L 12.703125 0 
C 15.90625 0 19.40625 0 22.5 0 
C 23.203125 0 24.40625 0 24.40625 1.796875 
C 24.40625 2.796875 23.703125 2.890625 23.09375 2.890625 
C 21.09375 3.09375 19.796875 4.1875 19.796875 5.78125 
C 19.796875 7.484375 21 8.703125 23.90625 11.6875 
L 32.796875 21.375 
C 35 23.671875 40.296875 29.46875 42.5 31.65625 
L 53 7.078125 
C 53.09375 6.890625 53.5 5.890625 53.5 5.78125 
C 53.5 4.890625 51.296875 3.09375 48.09375 3.09375 
C 47.5 3.09375 46.40625 3.09375 46.40625 1.109375 
C 46.40625 0 47.40625 0 47.90625 0 
C 49.59375 0 51.59375 0 53.296875 0 
L 64.296875 0 
C 66.09375 0 68 0 69.703125 0 
C 70.40625 0 71.5 0 71.5 2.03125 
C 71.5 3.09375 70.5 3.09375 69.59375 3.09375 
C 63.59375 3.09375 63.40625 3.59375 61.703125 7.265625 
L 48.5 38.140625 
L 61.203125 51.8125 
C 62.203125 52.828125 64.5 55.34375 65.40625 56.34375 
C 69.703125 60.875 73.703125 65 81.796875 65 
C 82.796875 65.296875 83.796875 65.296875 83.796875 67.0625 
C 83.796875 68.1875 82.90625 68.1875 82.5 68.1875 
C 81.09375 68.1875 79.59375 68.1875 78.203125 68.1875 
L 73.59375 68.1875 
C 70.40625 68.1875 66.90625 68.1875 63.796875 68.1875 
C 63.09375 68.1875 61.90625 68.1875 61.90625 66.390625 
C 61.90625 65.390625 62.59375 65.296875 63.203125 65.296875 
C 64.796875 65.109375 66.5 64.3125 66.5 62.40625 
L 66.40625 62.21875 
C 66.296875 61.515625 66.09375 60.515625 65 59.328125 
z
" id="CMMI12-88"/>
      <path d="M 27.296875 23.296875 
C 27.796875 24.5 27.796875 24.703125 27.796875 25 
C 27.796875 25.296875 27.796875 25.5 27.296875 26.703125 
L 9.796875 72.703125 
C 9.203125 74.40625 8.59375 75 7.5 75 
C 6.40625 75 5.5 74.09375 5.5 73 
C 5.5 72.703125 5.5 72.5 6 71.40625 
L 23.703125 25 
L 6 -21.203125 
C 5.5 -22.296875 5.5 -22.5 5.5 -23 
C 5.5 -24.09375 6.40625 -25 7.5 -25 
C 8.796875 -25 9.203125 -24 9.59375 -23 
z
" id="CMSY10-105"/>
     </defs>
     <g style="fill:#262626;" transform="translate(359.109744 675.195576)scale(0.4 -0.4)">
      <use transform="translate(0 14.943915)scale(0.996264)" xlink:href="#CMSY10-104"/>
      <use transform="translate(38.743734 14.943915)scale(0.996264)" xlink:href="#CMMI12-27"/>
      <use transform="translate(94.189195 0)scale(0.697382)" xlink:href="#CMMI12-88"/>
      <use transform="translate(156.841836 14.943915)scale(0.996264)" xlink:href="#CMSY10-105"/>
     </g>
    </g>
   </g>
   <g id="matplotlib.axis_2">
    <g id="ytick_1">
     <g id="line2d_11">
      <path clip-path="url(#p5411def025)" d="M 110.37629 572.390278 
L 686.37629 572.390278 
" style="fill:none;stroke:#ffffff;stroke-linecap:round;"/>
     </g>
     <g id="line2d_12"/>
     <g id="text_7">
      <!-- $-1.0$ -->
      <g style="fill:#262626;" transform="translate(54.384897 581.038405)scale(0.25 -0.25)">
       <use transform="scale(0.996264)" xlink:href="#CMSY10-0"/>
       <use transform="translate(77.487468 0)scale(0.996264)" xlink:href="#CMR17-49"/>
       <use transform="translate(123.177945 0)scale(0.996264)" xlink:href="#CMMI12-58"/>
       <use transform="translate(150.275122 0)scale(0.996264)" xlink:href="#CMR17-48"/>
      </g>
     </g>
    </g>
    <g id="ytick_2">
     <g id="line2d_13">
      <path clip-path="url(#p5411def025)" d="M 110.37629 447.172886 
L 686.37629 447.172886 
" style="fill:none;stroke:#ffffff;stroke-linecap:round;"/>
     </g>
     <g id="line2d_14"/>
     <g id="text_8">
      <!-- $-0.5$ -->
      <g style="fill:#262626;" transform="translate(54.384897 455.821013)scale(0.25 -0.25)">
       <use transform="scale(0.996264)" xlink:href="#CMSY10-0"/>
       <use transform="translate(77.487468 0)scale(0.996264)" xlink:href="#CMR17-48"/>
       <use transform="translate(123.177945 0)scale(0.996264)" xlink:href="#CMMI12-58"/>
       <use transform="translate(150.275122 0)scale(0.996264)" xlink:href="#CMR17-53"/>
      </g>
     </g>
    </g>
    <g id="ytick_3">
     <g id="line2d_15">
      <path clip-path="url(#p5411def025)" d="M 110.37629 321.955495 
L 686.37629 321.955495 
" style="fill:none;stroke:#ffffff;stroke-linecap:round;"/>
     </g>
     <g id="line2d_16"/>
     <g id="text_9">
      <!-- $0.0$ -->
      <g style="fill:#262626;" transform="translate(73.756757 330.603622)scale(0.25 -0.25)">
       <use transform="scale(0.996264)" xlink:href="#CMR17-48"/>
       <use transform="translate(45.690477 0)scale(0.996264)" xlink:href="#CMMI12-58"/>
       <use transform="translate(72.787654 0)scale(0.996264)" xlink:href="#CMR17-48"/>
      </g>
     </g>
    </g>
    <g id="ytick_4">
     <g id="line2d_17">
      <path clip-path="url(#p5411def025)" d="M 110.37629 196.738104 
L 686.37629 196.738104 
" style="fill:none;stroke:#ffffff;stroke-linecap:round;"/>
     </g>
     <g id="line2d_18"/>
     <g id="text_10">
      <!-- $0.5$ -->
      <g style="fill:#262626;" transform="translate(73.756757 205.386231)scale(0.25 -0.25)">
       <use transform="scale(0.996264)" xlink:href="#CMR17-48"/>
       <use transform="translate(45.690477 0)scale(0.996264)" xlink:href="#CMMI12-58"/>
       <use transform="translate(72.787654 0)scale(0.996264)" xlink:href="#CMR17-53"/>
      </g>
     </g>
    </g>
    <g id="ytick_5">
     <g id="line2d_19">
      <path clip-path="url(#p5411def025)" d="M 110.37629 71.520713 
L 686.37629 71.520713 
" style="fill:none;stroke:#ffffff;stroke-linecap:round;"/>
     </g>
     <g id="line2d_20"/>
     <g id="text_11">
      <!-- $1.0$ -->
      <g style="fill:#262626;" transform="translate(73.756757 80.168839)scale(0.25 -0.25)">
       <use transform="scale(0.996264)" xlink:href="#CMR17-49"/>
       <use transform="translate(45.690477 0)scale(0.996264)" xlink:href="#CMMI12-58"/>
       <use transform="translate(72.787654 0)scale(0.996264)" xlink:href="#CMR17-48"/>
      </g>
     </g>
    </g>
    <g id="text_12">
     <!-- $\langle\sigma_{Z}\rangle$ -->
     <defs>
      <path d="M 70 64.90625 
C 70.59375 65.609375 71.09375 66.203125 71.09375 67.203125 
C 71.09375 67.90625 71 68 68.703125 68 
L 27.40625 68 
C 25.09375 68 25 67.90625 24.40625 66.109375 
L 18.90625 48.1875 
C 18.59375 47.1875 18.59375 46.984375 18.59375 46.796875 
C 18.59375 46.390625 18.90625 45.796875 19.59375 45.796875 
C 20.40625 45.796875 20.59375 46.1875 21 47.484375 
C 24.703125 58.234375 29.59375 65.109375 45.40625 65.109375 
L 61.796875 65.109375 
L 7 3.375 
C 6.09375 2.296875 5.703125 1.890625 5.703125 0.796875 
C 5.703125 0 6.203125 0 8.09375 0 
L 50.796875 0 
C 53.09375 0 53.203125 0.09375 53.796875 1.890625 
L 60.796875 23.890625 
C 60.90625 24.1875 61.09375 24.890625 61.09375 25.28125 
C 61.09375 25.78125 60.703125 26.28125 60.09375 26.28125 
C 59.296875 26.28125 59.203125 26.1875 58.40625 23.6875 
C 54.203125 10.859375 49.796875 3.09375 32.40625 3.09375 
L 15.09375 3.09375 
z
" id="CMMI12-90"/>
     </defs>
     <g style="fill:#262626;" transform="translate(7.2 314.204228)scale(0.4 -0.4)">
      <use transform="translate(0 14.943915)scale(0.996264)" xlink:href="#CMSY10-104"/>
      <use transform="translate(38.743734 14.943915)scale(0.996264)" xlink:href="#CMMI12-27"/>
      <use transform="translate(94.189195 0)scale(0.697382)" xlink:href="#CMMI12-90"/>
      <use transform="translate(146.433601 14.943915)scale(0.996264)" xlink:href="#CMSY10-105"/>
     </g>
    </g>
   </g>
   <g id="patch_3">
    <path clip-path="url(#p5411def025)" d="M 398.37629 572.390278 
C 464.79237 572.390278 528.497162 546.002889 575.460423 499.039628 
C 622.423684 452.076367 648.811072 388.371576 648.811072 321.955495 
C 648.811072 255.539414 622.423684 191.834623 575.460423 144.871362 
C 528.497162 97.908101 464.79237 71.520713 398.37629 71.520713 
C 331.960209 71.520713 268.255418 97.908101 221.292157 144.871362 
C 174.328896 191.834623 147.941507 255.539414 147.941507 321.955495 
C 147.941507 388.371576 174.328896 452.076367 221.292157 499.039628 
C 268.255418 546.002889 331.960209 572.390278 398.37629 572.390278 
z
" style="fill:none;stroke:#000000;stroke-linejoin:miter;stroke-width:4;"/>
   </g>
   <g id="patch_4">
    <path clip-path="url(#p5411def025)" d="M 398.37629 102.82506 
C 431.58433 102.82506 463.436726 99.526637 486.918356 93.656229 
C 510.399987 87.785822 523.593681 79.822723 523.593681 71.520713 
C 523.593681 63.218702 510.399987 55.255604 486.918356 49.385196 
C 463.436726 43.514788 431.58433 40.216365 398.37629 40.216365 
C 365.168249 40.216365 333.315854 43.514788 309.834223 49.385196 
C 286.352593 55.255604 273.158898 63.218702 273.158898 71.520713 
C 273.158898 79.822723 286.352593 87.785822 309.834223 93.656229 
C 333.315854 99.526637 365.168249 102.82506 398.37629 102.82506 
z
" style="fill:#4c72b0;opacity:0.75;"/>
   </g>
   <g id="patch_5">
    <path clip-path="url(#p5411def025)" d="M 398.37629 447.172886 
C 431.58433 447.172886 463.436726 433.979192 486.918356 410.497562 
C 510.399987 387.015931 523.593681 355.163535 523.593681 321.955495 
C 523.593681 288.747455 510.399987 256.895059 486.918356 233.413429 
C 463.436726 209.931798 431.58433 196.738104 398.37629 196.738104 
C 365.168249 196.738104 333.315854 209.931798 309.834223 233.413429 
C 286.352593 256.895059 273.158898 288.747455 273.158898 321.955495 
C 273.158898 355.163535 286.352593 387.015931 309.834223 410.497562 
C 333.315854 433.979192 365.168249 447.172886 398.37629 447.172886 
z
" style="fill:#4c72b0;opacity:0.75;"/>
   </g>
   <g id="patch_6">
    <path clip-path="url(#p5411def025)" d="M 147.941507 447.172886 
C 156.243517 447.172886 164.206616 433.979192 170.077024 410.497562 
C 175.947431 387.015931 179.245855 355.163535 179.245855 321.955495 
C 179.245855 288.747455 175.947431 256.895059 170.077024 233.413429 
C 164.206616 209.931798 156.243517 196.738104 147.941507 196.738104 
C 139.639497 196.738104 131.676398 209.931798 125.80599 233.413429 
C 119.935583 256.895059 116.637159 288.747455 116.637159 321.955495 
C 116.637159 355.163535 119.935583 387.015931 125.80599 410.497562 
C 131.676398 433.979192 139.639497 447.172886 147.941507 447.172886 
z
" style="fill:#4c72b0;opacity:0.75;"/>
   </g>
   <g id="patch_7">
    <path clip-path="url(#p5411def025)" d="M 223.071942 184.216365 
C 233.034354 184.216365 242.590073 180.258256 249.634562 173.213767 
C 256.679051 166.169278 260.637159 156.613559 260.637159 146.651147 
C 260.637159 136.688735 256.679051 127.133017 249.634562 120.088527 
C 242.590073 113.044038 233.034354 109.08593 223.071942 109.08593 
C 213.10953 109.08593 203.553811 113.044038 196.509322 120.088527 
C 189.464833 127.133017 185.506724 136.688735 185.506724 146.651147 
C 185.506724 156.613559 189.464833 166.169278 196.509322 173.213767 
C 203.553811 180.258256 213.10953 184.216365 223.071942 184.216365 
z
" style="fill:#4c72b0;opacity:0.75;"/>
   </g>
   <g id="patch_8">
    <path d="M 110.37629 609.955495 
L 110.37629 33.955495 
" style="fill:none;"/>
   </g>
   <g id="patch_9">
    <path d="M 686.37629 609.955495 
L 686.37629 33.955495 
" style="fill:none;"/>
   </g>
   <g id="patch_10">
    <path d="M 110.37629 609.955495 
L 686.37629 609.955495 
" style="fill:none;"/>
   </g>
   <g id="patch_11">
    <path d="M 110.37629 33.955495 
L 686.37629 33.955495 
" style="fill:none;"/>
   </g>
   <g id="text_13">
    <!-- Anisotropic Fisher information for a rebit -->
    <defs>
     <path d="M 35.5 69 
L 26.90625 69 
L 2.59375 0 
L 10.203125 0 
L 17.203125 20 
L 44 20 
L 51.09375 0 
L 59.796875 0 
z
M 42.09375 25.578125 
L 19.09375 25.578125 
C 23.90625 39.5 29.90625 56.84375 30.59375 61.328125 
L 30.703125 61.328125 
C 31.40625 57.234375 33.40625 51.265625 35.09375 46.1875 
z
" id="CMSS17-65"/>
     <path d="M 40.90625 29.328125 
C 40.90625 35.671875 39.40625 44 28.09375 44 
C 21.703125 44 17.5 40.71875 14.703125 37.328125 
L 14.703125 43.09375 
L 7.40625 43.09375 
L 7.40625 0 
L 15 0 
L 15 24.359375 
C 15 30.6875 17.40625 37.9375 24.203125 37.9375 
C 33 37.9375 33.296875 32 33.296875 28.578125 
L 33.296875 0 
L 40.90625 0 
z
" id="CMSS17-110"/>
     <path d="M 15.296875 65.359375 
L 6.90625 65.359375 
L 6.90625 57 
L 15.296875 57 
z
M 14.796875 42.796875 
L 7.40625 42.796875 
L 7.40625 0 
L 14.796875 0 
z
" id="CMSS17-105"/>
     <path d="M 32.203125 41.046875 
C 26.296875 43.859375 21.703125 43.859375 18.703125 43.859375 
C 11.59375 43.859375 3.09375 41.375 3.09375 31.296875 
C 3.09375 21.234375 14.09375 19.03125 17.09375 18.421875 
C 21.703125 17.53125 26.796875 16.53125 26.796875 11.5625 
C 26.796875 5.265625 19.59375 5.265625 18.296875 5.265625 
C 14.296875 5.265625 8.796875 6.359375 3.796875 9.96875 
L 2.59375 3.28125 
C 8.296875 0 13.796875 -1 18.40625 -1 
C 30.703125 -1 33.796875 6.5 33.796875 12.203125 
C 33.796875 17.09375 31 20.390625 29.09375 21.890625 
C 25.796875 24.5 24.59375 24.796875 16.40625 26.5 
C 15 26.703125 10.09375 27.796875 10.09375 32.28125 
C 10.09375 38 16.40625 38 17.796875 38 
C 24.296875 38 28.296875 35.984375 31 34.5 
z
" id="CMSS17-115"/>
     <path d="M 44.203125 21.1875 
C 44.203125 34 34.703125 44 23.5 44 
C 12 44 2.703125 33.703125 2.703125 21.1875 
C 2.703125 8.5 12.296875 -1 23.40625 -1 
C 34.796875 -1 44.203125 8.796875 44.203125 21.1875 
z
M 23.5 5.265625 
C 16.40625 5.265625 10.296875 11.078125 10.296875 22 
C 10.296875 33.609375 17.40625 37.921875 23.40625 37.921875 
C 29.90625 37.921875 36.59375 33.21875 36.59375 22 
C 36.59375 10.671875 30.09375 5.265625 23.5 5.265625 
z
" id="CMSS17-111"/>
     <path d="M 16.703125 37 
L 29.703125 37 
L 29.703125 42.765625 
L 16.703125 42.765625 
L 16.703125 55 
L 9.59375 55 
L 9.59375 42.765625 
L 1.703125 42.765625 
L 1.703125 37 
L 9.40625 37 
L 9.40625 11.703125 
C 9.40625 6 10.703125 -1 17.296875 -1 
C 22.296875 -1 26.90625 0.390625 31.296875 2.6875 
L 29.703125 8.5625 
C 27.296875 6.46875 24.40625 5.265625 21.296875 5.265625 
C 16.90625 5.265625 16.703125 10.875 16.703125 13.375 
z
" id="CMSS17-116"/>
     <path d="M 14.90625 21.296875 
C 14.90625 30.703125 21.796875 37 30.59375 37 
L 30.59375 43.578125 
C 24.203125 43.578125 18.203125 40.390625 14.59375 35.203125 
L 14.59375 43.09375 
L 7.5 43.09375 
L 7.5 0 
L 14.90625 0 
z
" id="CMSS17-114"/>
     <path d="M 15.09375 5.203125 
C 18.40625 2.015625 22.90625 -0.078125 27.703125 -0.078125 
C 37 -0.078125 45 9.421875 45 22.0625 
C 45 33.734375 39 44 30.40625 44 
C 25.40625 44 19.40625 42.21875 14.90625 38.625 
L 14.90625 43.203125 
L 7.5 43.203125 
L 7.5 -19 
L 15.09375 -19 
z
M 15.09375 32.8125 
C 15.90625 34 19.296875 37.734375 24.796875 37.734375 
C 31.796875 37.734375 37.40625 30.625 37.40625 22.0625 
C 37.40625 12.296875 30.59375 6 23.90625 6 
C 21.90625 6 19.796875 6.484375 17.796875 8.171875 
C 15.09375 10.53125 15.09375 12 15.09375 13.390625 
z
" id="CMSS17-112"/>
     <path d="M 38.5 39.703125 
C 38.5 40.390625 33.90625 42.40625 32.703125 42.796875 
C 29.40625 44 25.203125 44 24.09375 44 
C 11.09375 44 3.296875 32.703125 3.296875 21.296875 
C 3.296875 9.296875 12 -1 23.703125 -1 
C 30.40625 -1 35.203125 1.1875 39.09375 3.78125 
L 38.5 10.375 
C 34.203125 7.078125 29.203125 5.265625 23.796875 5.265625 
C 16 5.265625 10.90625 12.09375 10.90625 21.390625 
C 10.90625 28.609375 14.203125 37.71875 24.203125 37.71875 
C 29.703125 37.71875 32.796875 36.609375 37.40625 33.515625 
z
" id="CMSS17-99"/>
     <path d="M 45.59375 31 
L 45.59375 37.078125 
L 17.203125 37.078125 
L 17.203125 62 
L 29.40625 62 
C 30.59375 62 31.796875 62 33 62 
L 49.5 62 
L 49.5 68.359375 
L 8.796875 68.359375 
L 8.796875 -0.5 
L 17.203125 -0.5 
L 17.203125 31 
z
" id="CMSS17-70"/>
     <path d="M 40.90625 29.546875 
C 40.90625 35.8125 39.40625 44.0625 28.09375 44.0625 
C 21.796875 44.0625 17.703125 40.984375 14.796875 37.609375 
L 14.796875 69.5 
L 7.40625 69.5 
L 7.40625 0.5 
L 15 0.5 
L 15 24.578125 
C 15 30.828125 17.40625 38 24.203125 38 
C 33 38 33.296875 32.125 33.296875 28.734375 
L 33.296875 0.5 
L 40.90625 0.5 
z
" id="CMSS17-104"/>
     <path d="M 39.09375 21.515625 
C 39.09375 24.84375 38.90625 31.296875 35.703125 36.640625 
C 32.203125 42.390625 26.5 44 22.203125 44 
C 11.796875 44 3 34.1875 3 21.484375 
C 3 9.09375 12.09375 -1 23.59375 -1 
C 28.09375 -1 33.59375 0.296875 38.59375 3.875 
C 38.59375 4.28125 38.40625 6.46875 38.296875 6.5625 
C 38.296875 6.765625 38 9.84375 38 10.25 
C 33.203125 6.359375 27.703125 5.078125 23.703125 5.078125 
C 17.296875 5.078125 10.40625 10.421875 10.09375 21.515625 
z
M 10.90625 27 
C 12.203125 32.5625 16.59375 37.828125 22.203125 37.828125 
C 23.703125 37.828125 30.703125 37.828125 32.5 27 
z
" id="CMSS17-101"/>
     <path d="M 16.796875 37 
L 26.90625 37 
L 26.90625 42.765625 
L 16.59375 42.765625 
L 16.59375 55.609375 
C 16.59375 62.71875 22 63.9375 25.09375 63.9375 
C 26.09375 63.9375 28.90625 63.9375 32.5 62.640625 
L 32.5 69.203125 
C 30.203125 69.703125 27.40625 70 25.203125 70 
C 15.90625 70 9.40625 62.390625 9.40625 52.484375 
L 9.40625 42.765625 
L 2.5 42.765625 
L 2.5 37 
L 9.40625 37 
L 9.40625 0 
L 16.796875 0 
z
" id="CMSS17-102"/>
     <path d="M 67 29.328125 
C 67 36.0625 65.296875 44 54.09375 44 
C 46.59375 44 42.09375 39.3125 40.09375 36.421875 
C 38.296875 41.71875 34.09375 44 28.09375 44 
C 21.296875 44 17 40.125 14.703125 37.328125 
L 14.703125 43.09375 
L 7.40625 43.09375 
L 7.40625 0 
L 15 0 
L 15 24.359375 
C 15 30.296875 17.203125 37.9375 24.296875 37.9375 
C 33.40625 37.9375 33.40625 31.5 33.40625 28.578125 
L 33.40625 0 
L 41 0 
L 41 24.359375 
C 41 30.296875 43.203125 37.9375 50.296875 37.9375 
C 59.40625 37.9375 59.40625 31.5 59.40625 28.578125 
L 59.40625 0 
L 67 0 
z
" id="CMSS17-109"/>
     <path d="M 37.59375 27.984375 
C 37.59375 37.375 30.90625 43.875 21.90625 43.875 
C 17.5 43.875 12.703125 43.078125 7.203125 39.890625 
L 7.796875 33.359375 
C 10.296875 35.125 14.59375 38 21.796875 38 
C 26.90625 38 30 34.0625 30 27.84375 
L 30 24 
C 14 24 4 19.34375 4 11.34375 
C 4 7.203125 6.5 -1 14.796875 -1 
C 16.296875 -1 24.40625 -1 30.203125 3.390625 
L 30.203125 -0.296875 
L 37.59375 -0.296875 
z
M 30 12.75 
C 30 10.953125 30 8.5625 27 6.78125 
C 24.40625 5.078125 21.09375 5.078125 19.703125 5.078125 
C 14.703125 5.078125 11.296875 7.984375 11.296875 11.625 
C 11.296875 18.921875 26.90625 18.921875 30 18.921875 
z
" id="CMSS17-97"/>
     <path d="M 14.90625 69 
L 7.5 69 
L 7.5 -0.203125 
L 15.09375 -0.203125 
L 15.09375 4.28125 
C 18.90625 0.59375 23.5 -1 27.59375 -1 
C 37.203125 -1 45 8.578125 45 21.125 
C 45 32.59375 39 43.0625 30.09375 43.0625 
C 23.796875 43.0625 18.203125 40.484375 14.90625 37.796875 
z
M 15.09375 31.96875 
C 17.296875 34.71875 20.40625 37 24.796875 37 
C 30.703125 37 37.40625 32.765625 37.40625 21.125 
C 37.40625 8.71875 29.40625 5.078125 23.90625 5.078125 
C 21.90625 5.078125 19.796875 5.5625 17.796875 7.25 
C 15.09375 9.609375 15.09375 11.078125 15.09375 12.453125 
z
" id="CMSS17-98"/>
    </defs>
    <g style="fill:#262626;" transform="translate(158.062394 27.955495)scale(0.3 -0.3)">
     <use transform="scale(0.996264)" xlink:href="#CMSS17-65"/>
     <use transform="translate(62.217855 0)scale(0.996264)" xlink:href="#CMSS17-110"/>
     <use transform="translate(110.422798 0)scale(0.996264)" xlink:href="#CMSS17-105"/>
     <use transform="translate(132.603521 0)scale(0.996264)" xlink:href="#CMSS17-115"/>
     <use transform="translate(168.517063 0)scale(0.996264)" xlink:href="#CMSS17-111"/>
     <use transform="translate(215.360687 0)scale(0.996264)" xlink:href="#CMSS17-116"/>
     <use transform="translate(249.192253 0)scale(0.996264)" xlink:href="#CMSS17-114"/>
     <use transform="translate(281.102026 0)scale(0.996264)" xlink:href="#CMSS17-111"/>
     <use transform="translate(327.945649 0)scale(0.996264)" xlink:href="#CMSS17-112"/>
     <use transform="translate(376.150593 0)scale(0.996264)" xlink:href="#CMSS17-105"/>
     <use transform="translate(398.331316 0)scale(0.996264)" xlink:href="#CMSS17-99"/>
     <use transform="translate(471.19925 0)scale(0.996264)" xlink:href="#CMSS17-70"/>
     <use transform="translate(524.48881 0)scale(0.996264)" xlink:href="#CMSS17-105"/>
     <use transform="translate(546.669533 0)scale(0.996264)" xlink:href="#CMSS17-115"/>
     <use transform="translate(582.583075 0)scale(0.996264)" xlink:href="#CMSS17-104"/>
     <use transform="translate(630.788018 0)scale(0.996264)" xlink:href="#CMSS17-101"/>
     <use transform="translate(672.42684 0)scale(0.996264)" xlink:href="#CMSS17-114"/>
     <use transform="translate(735.565725 0)scale(0.996264)" xlink:href="#CMSS17-105"/>
     <use transform="translate(757.746448 0)scale(0.996264)" xlink:href="#CMSS17-110"/>
     <use transform="translate(805.951391 0)scale(0.996264)" xlink:href="#CMSS17-102"/>
     <use transform="translate(834.57805 0)scale(0.996264)" xlink:href="#CMSS17-111"/>
     <use transform="translate(878.81922 0)scale(0.996264)" xlink:href="#CMSS17-114"/>
     <use transform="translate(910.728992 0)scale(0.996264)" xlink:href="#CMSS17-109"/>
     <use transform="translate(984.958247 0)scale(0.996264)" xlink:href="#CMSS17-97"/>
     <use transform="translate(1029.880167 0)scale(0.996264)" xlink:href="#CMSS17-116"/>
     <use transform="translate(1063.711734 0)scale(0.996264)" xlink:href="#CMSS17-105"/>
     <use transform="translate(1085.892457 0)scale(0.996264)" xlink:href="#CMSS17-111"/>
     <use transform="translate(1132.736081 0)scale(0.996264)" xlink:href="#CMSS17-110"/>
     <use transform="translate(1212.170137 0)scale(0.996264)" xlink:href="#CMSS17-102"/>
     <use transform="translate(1240.796795 0)scale(0.996264)" xlink:href="#CMSS17-111"/>
     <use transform="translate(1285.037965 0)scale(0.996264)" xlink:href="#CMSS17-114"/>
     <use transform="translate(1348.17685 0)scale(0.996264)" xlink:href="#CMSS17-97"/>
     <use transform="translate(1424.327884 0)scale(0.996264)" xlink:href="#CMSS17-114"/>
     <use transform="translate(1456.237656 0)scale(0.996264)" xlink:href="#CMSS17-101"/>
     <use transform="translate(1497.876478 0)scale(0.996264)" xlink:href="#CMSS17-98"/>
     <use transform="translate(1546.081421 0)scale(0.996264)" xlink:href="#CMSS17-105"/>
     <use transform="translate(1568.262144 0)scale(0.996264)" xlink:href="#CMSS17-116"/>
    </g>
   </g>
   <g id="line2d_21">
    <path clip-path="url(#p5411def025)" d="M 398.37629 71.520713 
" style="fill:none;stroke:#66c2a5;stroke-linecap:round;stroke-width:1.75;"/>
    <defs>
     <path d="M 0 -25 
L -7.347316 -10.112712 
L -23.776413 -7.725425 
L -11.888206 3.862712 
L -14.694631 20.225425 
L -0 12.5 
L 14.694631 20.225425 
L 11.888206 3.862712 
L 23.776413 -7.725425 
L 7.347316 -10.112712 
z
" id="mf960c6543e" style="stroke:#000000;stroke-linejoin:bevel;stroke-width:4;"/>
    </defs>
    <g clip-path="url(#p5411def025)">
     <use style="fill:#66c2a5;stroke:#000000;stroke-linejoin:bevel;stroke-width:4;" x="398.37629" xlink:href="#mf960c6543e" y="71.520713"/>
    </g>
   </g>
   <g id="line2d_22">
    <path clip-path="url(#p5411def025)" d="M 398.37629 321.955495 
" style="fill:none;stroke:#66c2a5;stroke-linecap:round;stroke-width:1.75;"/>
    <g clip-path="url(#p5411def025)">
     <use style="fill:#66c2a5;stroke:#000000;stroke-linejoin:bevel;stroke-width:4;" x="398.37629" xlink:href="#mf960c6543e" y="321.955495"/>
    </g>
   </g>
   <g id="line2d_23">
    <path clip-path="url(#p5411def025)" d="M 147.941507 321.955495 
" style="fill:none;stroke:#66c2a5;stroke-linecap:round;stroke-width:1.75;"/>
    <g clip-path="url(#p5411def025)">
     <use style="fill:#66c2a5;stroke:#000000;stroke-linejoin:bevel;stroke-width:4;" x="147.941507" xlink:href="#mf960c6543e" y="321.955495"/>
    </g>
   </g>
   <g id="line2d_24">
    <path clip-path="url(#p5411def025)" d="M 223.071942 146.651147 
" style="fill:none;stroke:#66c2a5;stroke-linecap:round;stroke-width:1.75;"/>
    <g clip-path="url(#p5411def025)">
     <use style="fill:#66c2a5;stroke:#000000;stroke-linejoin:bevel;stroke-width:4;" x="223.071942" xlink:href="#mf960c6543e" y="146.651147"/>
    </g>
   </g>
  </g>
 </g>
 <defs>
  <clipPath id="p5411def025">
   <rect height="576" width="576" x="110.37629" y="33.955495"/>
  </clipPath>
 </defs>
</svg>
