<?xml version="1.0" encoding="utf-8" standalone="no"?>
<!DOCTYPE svg PUBLIC "-//W3C//DTD SVG 1.1//EN"
  "http://www.w3.org/Graphics/SVG/1.1/DTD/svg11.dtd">
<!-- Created with matplotlib (http://matplotlib.org/) -->
<svg height="263pt" version="1.1" viewBox="0 0 399 263" width="399pt" xmlns="http://www.w3.org/2000/svg" xmlns:xlink="http://www.w3.org/1999/xlink">
 <defs>
  <style type="text/css">
*{stroke-linecap:butt;stroke-linejoin:round;stroke-miterlimit:100000;}
  </style>
 </defs>
 <g id="figure_1">
  <g id="patch_1">
   <path d="M 0 263.621263 
L 399.782195 263.621263 
L 399.782195 -0 
L 0 -0 
z
" style="fill:#ffffff;"/>
  </g>
  <g id="axes_1">
   <g id="patch_2">
    <path d="M 45.974504 223.2 
L 387.974504 223.2 
L 387.974504 7.2 
L 45.974504 7.2 
z
" style="fill:#eaeaf2;"/>
   </g>
   <g id="matplotlib.axis_1">
    <g id="xtick_1">
     <g id="line2d_1">
      <path clip-path="url(#pb724ab06e5)" d="M 45.974504 223.2 
L 45.974504 7.2 
" style="fill:none;stroke:#ffffff;stroke-linecap:round;"/>
     </g>
     <g id="line2d_2">
      <defs>
       <path d="M 0 0 
L 0 0 
" id="mc4957f6b92" style="stroke:#262626;"/>
      </defs>
      <g>
       <use style="fill:#262626;stroke:#262626;" x="45.9745040571" xlink:href="#mc4957f6b92" y="223.2"/>
      </g>
     </g>
     <g id="line2d_3">
      <g>
       <use style="fill:#262626;stroke:#262626;" x="45.9745040571" xlink:href="#mc4957f6b92" y="7.2"/>
      </g>
     </g>
     <g id="text_1">
      <!-- $0$ -->
      <defs>
       <path d="M 42 31.640625 
C 42 37.75 41.90625 48.125 37.703125 56.109375 
C 34 63.109375 28.09375 65.59375 22.90625 65.59375 
C 18.09375 65.59375 12 63.40625 8.203125 56.203125 
C 4.203125 48.71875 3.796875 39.4375 3.796875 31.640625 
C 3.796875 25.953125 3.90625 17.28125 7 9.671875 
C 11.296875 -0.609375 19 -2 22.90625 -2 
C 27.5 -2 34.5 -0.109375 38.59375 9.375 
C 41.59375 16.28125 42 24.359375 42 31.640625 
M 22.90625 -0.40625 
C 16.5 -0.40625 12.703125 5.078125 11.296875 12.6875 
C 10.203125 18.5625 10.203125 27.15625 10.203125 32.75 
C 10.203125 40.4375 10.203125 46.828125 11.5 52.921875 
C 13.40625 61.390625 19 64 22.90625 64 
C 27 64 32.296875 61.296875 34.203125 53.125 
C 35.5 47.4375 35.59375 40.734375 35.59375 32.75 
C 35.59375 26.25 35.59375 18.265625 34.40625 12.375 
C 32.296875 1.484375 26.40625 -0.40625 22.90625 -0.40625 
" id="CMR17-48"/>
      </defs>
      <g style="fill:#262626;" transform="translate(43.6706587358 236.426650062)scale(0.09 -0.09)">
       <use transform="scale(0.996264009963)" xlink:href="#CMR17-48"/>
      </g>
     </g>
    </g>
    <g id="xtick_2">
     <g id="line2d_4">
      <path clip-path="url(#pb724ab06e5)" d="M 102.974504 223.2 
L 102.974504 7.2 
" style="fill:none;stroke:#ffffff;stroke-linecap:round;"/>
     </g>
     <g id="line2d_5">
      <g>
       <use style="fill:#262626;stroke:#262626;" x="102.974504057" xlink:href="#mc4957f6b92" y="223.2"/>
      </g>
     </g>
     <g id="line2d_6">
      <g>
       <use style="fill:#262626;stroke:#262626;" x="102.974504057" xlink:href="#mc4957f6b92" y="7.2"/>
      </g>
     </g>
     <g id="text_2">
      <!-- $5$ -->
      <defs>
       <path d="M 11.40625 57.6875 
C 12.40625 57.28125 16.5 56 20.703125 56 
C 30 56 35.09375 61.109375 38 64.0625 
C 38 64.953125 38 65.5 37.40625 65.5 
C 37.296875 65.5 37.09375 65.5 36.296875 65.046875 
C 32.796875 63.40625 28.703125 62.078125 23.703125 62.078125 
C 20.703125 62.078125 16.203125 62.484375 11.296875 64.671875 
C 10.203125 65.171875 10 65.171875 9.90625 65.171875 
C 9.40625 65.171875 9.296875 65.0625 9.296875 63.078125 
L 9.296875 34.421875 
C 9.296875 32.640625 9.296875 32.140625 10.296875 32.140625 
C 10.796875 32.140625 11 32.34375 11.5 33.03125 
C 14.703125 37.515625 19.09375 39.40625 24.09375 39.40625 
C 27.59375 39.40625 35.09375 37.21875 35.09375 20.140625 
C 35.09375 16.953125 35.09375 11.171875 32.09375 6.578125 
C 29.59375 2.484375 25.703125 0.390625 21.40625 0.390625 
C 14.796875 0.390625 8.09375 5 6.296875 12.71875 
C 6.703125 12.609375 7.5 12.421875 7.90625 12.421875 
C 9.203125 12.421875 11.703125 13.125 11.703125 16.21875 
C 11.703125 18.90625 9.796875 20 7.90625 20 
C 5.59375 20 4.09375 18.59375 4.09375 15.796875 
C 4.09375 7.09375 11 -2 21.59375 -2 
C 31.90625 -2 41.703125 6.875 41.703125 19.75 
C 41.703125 31.71875 33.90625 41 24.203125 41 
C 19.09375 41 14.796875 39.109375 11.40625 35.53125 
z
" id="CMR17-53"/>
      </defs>
      <g style="fill:#262626;" transform="translate(100.670658736 236.426650062)scale(0.09 -0.09)">
       <use transform="scale(0.996264009963)" xlink:href="#CMR17-53"/>
      </g>
     </g>
    </g>
    <g id="xtick_3">
     <g id="line2d_7">
      <path clip-path="url(#pb724ab06e5)" d="M 159.974504 223.2 
L 159.974504 7.2 
" style="fill:none;stroke:#ffffff;stroke-linecap:round;"/>
     </g>
     <g id="line2d_8">
      <g>
       <use style="fill:#262626;stroke:#262626;" x="159.974504057" xlink:href="#mc4957f6b92" y="223.2"/>
      </g>
     </g>
     <g id="line2d_9">
      <g>
       <use style="fill:#262626;stroke:#262626;" x="159.974504057" xlink:href="#mc4957f6b92" y="7.2"/>
      </g>
     </g>
     <g id="text_3">
      <!-- $10$ -->
      <defs>
       <path d="M 26.59375 63.40625 
C 26.59375 65.5 26.5 65.5 25.09375 65.5 
C 21.203125 61.1875 15.296875 59.796875 9.703125 59.796875 
C 9.40625 59.796875 8.90625 59.796875 8.796875 59.5 
C 8.703125 59.296875 8.703125 59.09375 8.703125 57 
C 11.796875 57 17 57.59375 21 59.984375 
L 21 7.203125 
C 21 3.6875 20.796875 2.5 12.203125 2.5 
L 9.203125 2.5 
L 9.203125 0 
C 14 0 19 0 23.796875 0 
C 28.59375 0 33.59375 0 38.40625 0 
L 38.40625 2.5 
L 35.40625 2.5 
C 26.796875 2.5 26.59375 3.59375 26.59375 7.15625 
z
" id="CMR17-49"/>
      </defs>
      <g style="fill:#262626;" transform="translate(155.366813415 236.426650062)scale(0.09 -0.09)">
       <use transform="scale(0.996264009963)" xlink:href="#CMR17-49"/>
       <use transform="translate(45.6904771171 0.0)scale(0.996264009963)" xlink:href="#CMR17-48"/>
      </g>
     </g>
    </g>
    <g id="xtick_4">
     <g id="line2d_10">
      <path clip-path="url(#pb724ab06e5)" d="M 216.974504 223.2 
L 216.974504 7.2 
" style="fill:none;stroke:#ffffff;stroke-linecap:round;"/>
     </g>
     <g id="line2d_11">
      <g>
       <use style="fill:#262626;stroke:#262626;" x="216.974504057" xlink:href="#mc4957f6b92" y="223.2"/>
      </g>
     </g>
     <g id="line2d_12">
      <g>
       <use style="fill:#262626;stroke:#262626;" x="216.974504057" xlink:href="#mc4957f6b92" y="7.2"/>
      </g>
     </g>
     <g id="text_4">
      <!-- $15$ -->
      <g style="fill:#262626;" transform="translate(212.366813415 236.426650062)scale(0.09 -0.09)">
       <use transform="scale(0.996264009963)" xlink:href="#CMR17-49"/>
       <use transform="translate(45.6904771171 0.0)scale(0.996264009963)" xlink:href="#CMR17-53"/>
      </g>
     </g>
    </g>
    <g id="xtick_5">
     <g id="line2d_13">
      <path clip-path="url(#pb724ab06e5)" d="M 273.974504 223.2 
L 273.974504 7.2 
" style="fill:none;stroke:#ffffff;stroke-linecap:round;"/>
     </g>
     <g id="line2d_14">
      <g>
       <use style="fill:#262626;stroke:#262626;" x="273.974504057" xlink:href="#mc4957f6b92" y="223.2"/>
      </g>
     </g>
     <g id="line2d_15">
      <g>
       <use style="fill:#262626;stroke:#262626;" x="273.974504057" xlink:href="#mc4957f6b92" y="7.2"/>
      </g>
     </g>
     <g id="text_5">
      <!-- $20$ -->
      <defs>
       <path d="M 41.703125 15.453125 
L 39.90625 15.453125 
C 38.90625 8.375 38.09375 7.171875 37.703125 6.5625 
C 37.203125 5.765625 30 5.765625 28.59375 5.765625 
L 9.40625 5.765625 
C 13 9.671875 20 16.75 28.5 24.953125 
C 34.59375 30.734375 41.703125 37.53125 41.703125 47.421875 
C 41.703125 59.21875 32.296875 66 21.796875 66 
C 10.796875 66 4.09375 56.3125 4.09375 47.34375 
C 4.09375 43.4375 7 42.9375 8.203125 42.9375 
C 9.203125 42.9375 12.203125 43.546875 12.203125 47.03125 
C 12.203125 50.109375 9.59375 51 8.203125 51 
C 7.59375 51 7 50.90625 6.59375 50.703125 
C 8.5 59.21875 14.296875 63.40625 20.40625 63.40625 
C 29.09375 63.40625 34.796875 56.515625 34.796875 47.421875 
C 34.796875 38.734375 29.703125 31.25 24 24.75 
L 4.09375 2.28125 
L 4.09375 0 
L 39.296875 0 
z
" id="CMR17-50"/>
      </defs>
      <g style="fill:#262626;" transform="translate(269.366813415 236.426650062)scale(0.09 -0.09)">
       <use transform="scale(0.996264009963)" xlink:href="#CMR17-50"/>
       <use transform="translate(45.6904771171 0.0)scale(0.996264009963)" xlink:href="#CMR17-48"/>
      </g>
     </g>
    </g>
    <g id="xtick_6">
     <g id="line2d_16">
      <path clip-path="url(#pb724ab06e5)" d="M 330.974504 223.2 
L 330.974504 7.2 
" style="fill:none;stroke:#ffffff;stroke-linecap:round;"/>
     </g>
     <g id="line2d_17">
      <g>
       <use style="fill:#262626;stroke:#262626;" x="330.974504057" xlink:href="#mc4957f6b92" y="223.2"/>
      </g>
     </g>
     <g id="line2d_18">
      <g>
       <use style="fill:#262626;stroke:#262626;" x="330.974504057" xlink:href="#mc4957f6b92" y="7.2"/>
      </g>
     </g>
     <g id="text_6">
      <!-- $25$ -->
      <g style="fill:#262626;" transform="translate(326.366813415 236.426650062)scale(0.09 -0.09)">
       <use transform="scale(0.996264009963)" xlink:href="#CMR17-50"/>
       <use transform="translate(45.6904771171 0.0)scale(0.996264009963)" xlink:href="#CMR17-53"/>
      </g>
     </g>
    </g>
    <g id="xtick_7">
     <g id="line2d_19">
      <path clip-path="url(#pb724ab06e5)" d="M 387.974504 223.2 
L 387.974504 7.2 
" style="fill:none;stroke:#ffffff;stroke-linecap:round;"/>
     </g>
     <g id="line2d_20">
      <g>
       <use style="fill:#262626;stroke:#262626;" x="387.974504057" xlink:href="#mc4957f6b92" y="223.2"/>
      </g>
     </g>
     <g id="line2d_21">
      <g>
       <use style="fill:#262626;stroke:#262626;" x="387.974504057" xlink:href="#mc4957f6b92" y="7.2"/>
      </g>
     </g>
     <g id="text_7">
      <!-- $30$ -->
      <defs>
       <path d="M 22.09375 33.703125 
C 31 33.703125 34.90625 25.96875 34.90625 17.03125 
C 34.90625 5 28.5 0.390625 22.703125 0.390625 
C 17.40625 0.390625 8.796875 3.03125 6.09375 10.828125 
C 6.59375 10.625 7.09375 10.625 7.59375 10.625 
C 10 10.625 11.796875 12.21875 11.796875 14.8125 
C 11.796875 17.703125 9.59375 19 7.59375 19 
C 5.90625 19 3.296875 18.203125 3.296875 14.46875 
C 3.296875 5.234375 12.296875 -2 22.90625 -2 
C 34 -2 42.5 6.71875 42.5 16.953125 
C 42.5 26.671875 34.5 33.6875 25 34.796875 
C 32.59375 36.375 39.90625 43.0625 39.90625 52.015625 
C 39.90625 59.6875 32 65.296875 23 65.296875 
C 13.90625 65.296875 5.90625 59.828125 5.90625 52.015625 
C 5.90625 48.59375 8.5 48 9.796875 48 
C 11.90625 48 13.703125 49.296875 13.703125 51.890625 
C 13.703125 54.46875 11.90625 55.765625 9.796875 55.765625 
C 9.40625 55.765625 8.90625 55.765625 8.5 55.578125 
C 11.40625 61.859375 19.296875 63 22.796875 63 
C 26.296875 63 32.90625 61.328125 32.90625 51.875 
C 32.90625 49.109375 32.5 44.1875 29.09375 39.84375 
C 26.09375 36 22.703125 36 19.40625 35.6875 
C 18.90625 35.6875 16.59375 35.453125 16.203125 35.453125 
C 15.5 35.359375 15.09375 35.265625 15.09375 34.5 
C 15.09375 33.796875 15.203125 33.703125 17.203125 33.703125 
z
" id="CMR17-51"/>
      </defs>
      <g style="fill:#262626;" transform="translate(383.366813415 236.426650062)scale(0.09 -0.09)">
       <use transform="scale(0.996264009963)" xlink:href="#CMR17-51"/>
       <use transform="translate(45.6904771171 0.0)scale(0.996264009963)" xlink:href="#CMR17-48"/>
      </g>
     </g>
    </g>
    <g id="text_8">
     <!-- Empirical Average $\bar{\lambda}$ -->
     <defs>
      <path d="M 14.90625 21.296875 
C 14.90625 30.703125 21.796875 37 30.59375 37 
L 30.59375 43.578125 
C 24.203125 43.578125 18.203125 40.390625 14.59375 35.203125 
L 14.59375 43.09375 
L 7.5 43.09375 
L 7.5 0 
L 14.90625 0 
z
" id="CMSS17-114"/>
      <path d="M 15.296875 65.359375 
L 6.90625 65.359375 
L 6.90625 57 
L 15.296875 57 
z
M 14.796875 42.796875 
L 7.40625 42.796875 
L 7.40625 0 
L 14.796875 0 
z
" id="CMSS17-105"/>
      <path d="M 44.5 43.875 
C 38.796875 43.875 33.90625 42.78125 29.90625 40.890625 
C 26.59375 43.390625 23.203125 43.875 20.90625 43.875 
C 12.203125 43.875 5.59375 36.703125 5.59375 28.34375 
C 5.59375 22.9375 8.59375 18.859375 8.796875 18.671875 
C 7 16.171875 6 13.484375 6 10.5 
C 6 7 7.40625 4.515625 8.5 3.125 
C 3.296875 -0.046875 2.59375 -4.90625 2.59375 -6.796875 
C 2.59375 -14.03125 11.703125 -20 23.40625 -20 
C 35.203125 -20 44.296875 -14.03125 44.296875 -6.6875 
C 44.296875 7 29 7 24.796875 7 
L 16.703125 7 
C 15.203125 7 11.203125 7 11.203125 12.359375 
C 11.203125 14.390625 12.09375 15.6875 12.203125 15.78125 
C 13.703125 14.6875 16.796875 13 20.90625 13 
C 29.203125 13 36.09375 19.96875 36.09375 28.546875 
C 36.09375 33.3125 33.90625 36.796875 33 38 
L 33.296875 38 
C 33.59375 38 37.796875 38 39.296875 38 
C 42.5 38 42.796875 37.9375 45.59375 37.796875 
z
M 20.90625 18.46875 
C 17.5 18.46875 12.703125 20.546875 12.703125 28.484375 
C 12.703125 37.109375 18.203125 38.5 20.796875 38.5 
C 24.203125 38.5 29 36.421875 29 28.484375 
C 29 19.859375 23.5 18.46875 20.90625 18.46875 
M 24.703125 -0.15625 
C 27.09375 -0.15625 37.203125 -0.15625 37.203125 -6.90625 
C 37.203125 -11.15625 31 -14.515625 23.5 -14.515625 
C 15.90625 -14.515625 9.703125 -11.25 9.703125 -6.796875 
C 9.703125 -6.296875 9.703125 -0.15625 16.59375 -0.15625 
z
" id="CMSS17-103"/>
      <path d="M 15.09375 5.203125 
C 18.40625 2.015625 22.90625 -0.078125 27.703125 -0.078125 
C 37 -0.078125 45 9.421875 45 22.0625 
C 45 33.734375 39 44 30.40625 44 
C 25.40625 44 19.40625 42.21875 14.90625 38.625 
L 14.90625 43.203125 
L 7.5 43.203125 
L 7.5 -19 
L 15.09375 -19 
z
M 15.09375 32.8125 
C 15.90625 34 19.296875 37.734375 24.796875 37.734375 
C 31.796875 37.734375 37.40625 30.625 37.40625 22.0625 
C 37.40625 12.296875 30.59375 6 23.90625 6 
C 21.90625 6 19.796875 6.484375 17.796875 8.171875 
C 15.09375 10.53125 15.09375 12 15.09375 13.390625 
z
" id="CMSS17-112"/>
      <path d="M 39.09375 21.515625 
C 39.09375 24.84375 38.90625 31.296875 35.703125 36.640625 
C 32.203125 42.390625 26.5 44 22.203125 44 
C 11.796875 44 3 34.1875 3 21.484375 
C 3 9.09375 12.09375 -1 23.59375 -1 
C 28.09375 -1 33.59375 0.296875 38.59375 3.875 
C 38.59375 4.28125 38.40625 6.46875 38.296875 6.5625 
C 38.296875 6.765625 38 9.84375 38 10.25 
C 33.203125 6.359375 27.703125 5.078125 23.703125 5.078125 
C 17.296875 5.078125 10.40625 10.421875 10.09375 21.515625 
z
M 10.90625 27 
C 12.203125 32.5625 16.59375 37.828125 22.203125 37.828125 
C 23.703125 37.828125 30.703125 37.828125 32.5 27 
z
" id="CMSS17-101"/>
      <path d="M 41.796875 43 
L 34 43 
L 27.296875 24.3125 
C 25.203125 18.203125 22.203125 9.796875 21.703125 5.5 
L 21.59375 5.5 
C 21.40625 7.3125 20.59375 9.90625 20.09375 11.703125 
C 19.5 13.90625 18.703125 16.5 18.09375 18.3125 
L 9.296875 43 
L 1.296875 43 
L 17.09375 0 
L 26 0 
z
" id="CMSS17-118"/>
      <path d="M 14.796875 69 
L 7.40625 69 
L 7.40625 0 
L 14.796875 0 
z
" id="CMSS17-108"/>
      <path d="M 67 29.328125 
C 67 36.0625 65.296875 44 54.09375 44 
C 46.59375 44 42.09375 39.3125 40.09375 36.421875 
C 38.296875 41.71875 34.09375 44 28.09375 44 
C 21.296875 44 17 40.125 14.703125 37.328125 
L 14.703125 43.09375 
L 7.40625 43.09375 
L 7.40625 0 
L 15 0 
L 15 24.359375 
C 15 30.296875 17.203125 37.9375 24.296875 37.9375 
C 33.40625 37.9375 33.40625 31.5 33.40625 28.578125 
L 33.40625 0 
L 41 0 
L 41 24.359375 
C 41 30.296875 43.203125 37.9375 50.296875 37.9375 
C 59.40625 37.9375 59.40625 31.5 59.40625 28.578125 
L 59.40625 0 
L 67 0 
z
" id="CMSS17-109"/>
      <path d="M 30.59375 6.765625 
C 22.59375 6.765625 19 6.765625 17.203125 6.765625 
L 17.203125 32.921875 
L 48.203125 32.921875 
L 48.203125 39 
L 17.203125 39 
L 17.203125 62.640625 
L 30.09375 62.640625 
C 31.296875 62.640625 32.5 62.640625 33.703125 62.640625 
L 50.796875 62.640625 
L 50.796875 69 
L 8.796875 69 
L 8.796875 0 
L 52.09375 0 
L 52.09375 6.765625 
z
" id="CMSS17-69"/>
      <path d="M 37.59375 27.984375 
C 37.59375 37.375 30.90625 43.875 21.90625 43.875 
C 17.5 43.875 12.703125 43.078125 7.203125 39.890625 
L 7.796875 33.359375 
C 10.296875 35.125 14.59375 38 21.796875 38 
C 26.90625 38 30 34.0625 30 27.84375 
L 30 24 
C 14 24 4 19.34375 4 11.34375 
C 4 7.203125 6.5 -1 14.796875 -1 
C 16.296875 -1 24.40625 -1 30.203125 3.390625 
L 30.203125 -0.296875 
L 37.59375 -0.296875 
z
M 30 12.75 
C 30 10.953125 30 8.5625 27 6.78125 
C 24.40625 5.078125 21.09375 5.078125 19.703125 5.078125 
C 14.703125 5.078125 11.296875 7.984375 11.296875 11.625 
C 11.296875 18.921875 26.90625 18.921875 30 18.921875 
z
" id="CMSS17-97"/>
      <path d="M 39.90625 55 
L 39.90625 57.28125 
L 5.90625 57.28125 
L 5.90625 55 
z
" id="CMR17-22"/>
      <path d="M 38.5 39.703125 
C 38.5 40.390625 33.90625 42.40625 32.703125 42.796875 
C 29.40625 44 25.203125 44 24.09375 44 
C 11.09375 44 3.296875 32.703125 3.296875 21.296875 
C 3.296875 9.296875 12 -1 23.703125 -1 
C 30.40625 -1 35.203125 1.1875 39.09375 3.78125 
L 38.5 10.375 
C 34.203125 7.078125 29.203125 5.265625 23.796875 5.265625 
C 16 5.265625 10.90625 12.09375 10.90625 21.390625 
C 10.90625 28.609375 14.203125 37.71875 24.203125 37.71875 
C 29.703125 37.71875 32.796875 36.609375 37.40625 33.515625 
z
" id="CMSS17-99"/>
      <path d="M 35.5 69 
L 26.90625 69 
L 2.59375 0 
L 10.203125 0 
L 17.203125 20 
L 44 20 
L 51.09375 0 
L 59.796875 0 
z
M 42.09375 25.578125 
L 19.09375 25.578125 
C 23.90625 39.5 29.90625 56.84375 30.59375 61.328125 
L 30.703125 61.328125 
C 31.40625 57.234375 33.40625 51.265625 35.09375 46.1875 
z
" id="CMSS17-65"/>
      <path d="M 30.90625 61.953125 
C 28.40625 69 20.5 69 19.203125 69 
C 18.59375 69 17.5 69 17.5 68 
C 17.5 67.21875 18.09375 67.109375 18.59375 67.015625 
C 20.09375 66.8125 21.296875 66.609375 22.90625 63.75 
C 23.90625 61.859375 34.203125 32.171875 34.203125 31.96875 
C 34.203125 31.875 34.09375 31.765625 33.296875 30.96875 
L 7.296875 4.859375 
C 6.09375 3.65625 5.296875 2.859375 5.296875 1.59375 
C 5.296875 0.1875 6.5 -1 8.09375 -1 
C 8.5 -1 9.59375 -0.796875 10.203125 -0.203125 
C 11.796875 1.28125 26.09375 18.65625 35.203125 29.390625 
C 37.796875 21.609375 41 12.453125 44.09375 4.078125 
C 44.59375 2.59375 45.09375 1.1875 46.5 -0.09375 
C 47.5 -1 47.703125 -1 50.5 -1 
L 52.40625 -1 
C 52.796875 -1 53.5 -1 53.5 -0.203125 
C 53.5 0.203125 53.40625 0.296875 53 0.703125 
C 52.09375 1.796875 51.40625 3.578125 51 4.78125 
z
" id="CMMI12-21"/>
     </defs>
     <g style="fill:#262626;" transform="translate(163.434312977 253.902950484)scale(0.13 -0.13)">
      <use transform="scale(0.996264009963)" xlink:href="#CMSS17-69"/>
      <use transform="translate(55.8920132268 0.0)scale(0.996264009963)" xlink:href="#CMSS17-109"/>
      <use transform="translate(130.121267658 0.0)scale(0.996264009963)" xlink:href="#CMSS17-112"/>
      <use transform="translate(178.326210792 0.0)scale(0.996264009963)" xlink:href="#CMSS17-105"/>
      <use transform="translate(200.506933837 0.0)scale(0.996264009963)" xlink:href="#CMSS17-114"/>
      <use transform="translate(232.416706394 0.0)scale(0.996264009963)" xlink:href="#CMSS17-105"/>
      <use transform="translate(254.597429439 0.0)scale(0.996264009963)" xlink:href="#CMSS17-99"/>
      <use transform="translate(296.236251508 0.0)scale(0.996264009963)" xlink:href="#CMSS17-97"/>
      <use transform="translate(341.158172113 0.0)scale(0.996264009963)" xlink:href="#CMSS17-108"/>
      <use transform="translate(394.56800791 0.0)scale(0.996264009963)" xlink:href="#CMSS17-65"/>
      <use transform="translate(456.785862829 0.0)scale(0.996264009963)" xlink:href="#CMSS17-118"/>
      <use transform="translate(499.786004509 0.0)scale(0.996264009963)" xlink:href="#CMSS17-101"/>
      <use transform="translate(541.424826578 0.0)scale(0.996264009963)" xlink:href="#CMSS17-114"/>
      <use transform="translate(573.334599135 0.0)scale(0.996264009963)" xlink:href="#CMSS17-97"/>
      <use transform="translate(618.25651974 0.0)scale(0.996264009963)" xlink:href="#CMSS17-103"/>
      <use transform="translate(665.100143262 0.0)scale(0.996264009963)" xlink:href="#CMSS17-101"/>
      <use transform="translate(743.574875467 26.2966208262)scale(0.996264009963)" xlink:href="#CMR17-22"/>
      <use transform="translate(737.968078081 0.0)scale(0.996264009963)" xlink:href="#CMMI12-21"/>
     </g>
    </g>
   </g>
   <g id="matplotlib.axis_2">
    <g id="ytick_1">
     <g id="line2d_22">
      <path clip-path="url(#pb724ab06e5)" d="M 45.974504 223.2 
L 387.974504 223.2 
" style="fill:none;stroke:#ffffff;stroke-linecap:round;"/>
     </g>
     <g id="line2d_23">
      <g>
       <use style="fill:#262626;stroke:#262626;" x="45.9745040571" xlink:href="#mc4957f6b92" y="223.2"/>
      </g>
     </g>
     <g id="line2d_24">
      <g>
       <use style="fill:#262626;stroke:#262626;" x="387.974504057" xlink:href="#mc4957f6b92" y="223.2"/>
      </g>
     </g>
     <g id="text_9">
      <!-- $0$ -->
      <g style="fill:#262626;" transform="translate(34.3668134145 225.441594022)scale(0.09 -0.09)">
       <use transform="scale(0.996264009963)" xlink:href="#CMR17-48"/>
      </g>
     </g>
    </g>
    <g id="ytick_2">
     <g id="line2d_25">
      <path clip-path="url(#pb724ab06e5)" d="M 45.974504 183.927273 
L 387.974504 183.927273 
" style="fill:none;stroke:#ffffff;stroke-linecap:round;"/>
     </g>
     <g id="line2d_26">
      <g>
       <use style="fill:#262626;stroke:#262626;" x="45.9745040571" xlink:href="#mc4957f6b92" y="183.927272727"/>
      </g>
     </g>
     <g id="line2d_27">
      <g>
       <use style="fill:#262626;stroke:#262626;" x="387.974504057" xlink:href="#mc4957f6b92" y="183.927272727"/>
      </g>
     </g>
     <g id="text_10">
      <!-- $20$ -->
      <g style="fill:#262626;" transform="translate(29.759122772 186.16886675)scale(0.09 -0.09)">
       <use transform="scale(0.996264009963)" xlink:href="#CMR17-50"/>
       <use transform="translate(45.6904771171 0.0)scale(0.996264009963)" xlink:href="#CMR17-48"/>
      </g>
     </g>
    </g>
    <g id="ytick_3">
     <g id="line2d_28">
      <path clip-path="url(#pb724ab06e5)" d="M 45.974504 144.654545 
L 387.974504 144.654545 
" style="fill:none;stroke:#ffffff;stroke-linecap:round;"/>
     </g>
     <g id="line2d_29">
      <g>
       <use style="fill:#262626;stroke:#262626;" x="45.9745040571" xlink:href="#mc4957f6b92" y="144.654545455"/>
      </g>
     </g>
     <g id="line2d_30">
      <g>
       <use style="fill:#262626;stroke:#262626;" x="387.974504057" xlink:href="#mc4957f6b92" y="144.654545455"/>
      </g>
     </g>
     <g id="text_11">
      <!-- $40$ -->
      <defs>
       <path d="M 33.59375 64.40625 
C 33.59375 66.5 33.5 66.5 31.703125 66.5 
L 2 19.59375 
L 2 17 
L 27.796875 17 
L 27.796875 7.140625 
C 27.796875 3.5 27.59375 2.5 20.59375 2.5 
L 18.703125 2.5 
L 18.703125 0 
C 21.90625 0 27.296875 0 30.703125 0 
C 34.09375 0 39.5 0 42.703125 0 
L 42.703125 2.5 
L 40.796875 2.5 
C 33.796875 2.5 33.59375 3.5 33.59375 7.140625 
L 33.59375 17 
L 43.796875 17 
L 43.796875 19.59375 
L 33.59375 19.59375 
z
M 28.09375 57.859375 
L 28.09375 19.59375 
L 4 19.59375 
z
" id="CMR17-52"/>
      </defs>
      <g style="fill:#262626;" transform="translate(29.759122772 146.896139477)scale(0.09 -0.09)">
       <use transform="scale(0.996264009963)" xlink:href="#CMR17-52"/>
       <use transform="translate(45.6904771171 0.0)scale(0.996264009963)" xlink:href="#CMR17-48"/>
      </g>
     </g>
    </g>
    <g id="ytick_4">
     <g id="line2d_31">
      <path clip-path="url(#pb724ab06e5)" d="M 45.974504 105.381818 
L 387.974504 105.381818 
" style="fill:none;stroke:#ffffff;stroke-linecap:round;"/>
     </g>
     <g id="line2d_32">
      <g>
       <use style="fill:#262626;stroke:#262626;" x="45.9745040571" xlink:href="#mc4957f6b92" y="105.381818182"/>
      </g>
     </g>
     <g id="line2d_33">
      <g>
       <use style="fill:#262626;stroke:#262626;" x="387.974504057" xlink:href="#mc4957f6b92" y="105.381818182"/>
      </g>
     </g>
     <g id="text_12">
      <!-- $60$ -->
      <defs>
       <path d="M 10.59375 34 
C 10.59375 57.65625 21.796875 63 28.296875 63 
C 30.40625 63 35.5 62.640625 37.5 59 
C 35.90625 59 32.90625 59 32.90625 55.515625 
C 32.90625 52.828125 35.09375 51.921875 36.5 51.921875 
C 37.40625 51.921875 40.09375 52.3125 40.09375 55.625 
C 40.09375 61.78125 35.09375 65.296875 28.203125 65.296875 
C 16.296875 65.296875 3.796875 52.96875 3.796875 31 
C 3.796875 3.953125 15.09375 -2 23.09375 -2 
C 32.796875 -2 42 6.671875 42 20.046875 
C 42 32.515625 33.90625 41.59375 23.703125 41.59375 
C 17.59375 41.59375 13.09375 37.609375 10.59375 30.625 
z
M 23.09375 0.390625 
C 10.796875 0.390625 10.796875 18.75 10.796875 22.4375 
C 10.796875 29.625 14.203125 40 23.5 40 
C 25.203125 40 30.09375 40 33.40625 33.125 
C 35.203125 29.21875 35.203125 25.140625 35.203125 20.140625 
C 35.203125 14.75 35.203125 10.78125 33.09375 6.78125 
C 30.90625 2.671875 27.703125 0.390625 23.09375 0.390625 
" id="CMR17-54"/>
      </defs>
      <g style="fill:#262626;" transform="translate(29.759122772 107.623412204)scale(0.09 -0.09)">
       <use transform="scale(0.996264009963)" xlink:href="#CMR17-54"/>
       <use transform="translate(45.6904771171 0.0)scale(0.996264009963)" xlink:href="#CMR17-48"/>
      </g>
     </g>
    </g>
    <g id="ytick_5">
     <g id="line2d_34">
      <path clip-path="url(#pb724ab06e5)" d="M 45.974504 66.109091 
L 387.974504 66.109091 
" style="fill:none;stroke:#ffffff;stroke-linecap:round;"/>
     </g>
     <g id="line2d_35">
      <g>
       <use style="fill:#262626;stroke:#262626;" x="45.9745040571" xlink:href="#mc4957f6b92" y="66.1090909091"/>
      </g>
     </g>
     <g id="line2d_36">
      <g>
       <use style="fill:#262626;stroke:#262626;" x="387.974504057" xlink:href="#mc4957f6b92" y="66.1090909091"/>
      </g>
     </g>
     <g id="text_13">
      <!-- $80$ -->
      <defs>
       <path d="M 27.203125 35.375 
C 33.5 38.546875 39.90625 43.328125 39.90625 50.984375 
C 39.90625 60.015625 31.09375 65.296875 23 65.296875 
C 13.90625 65.296875 5.90625 58.734375 5.90625 49.6875 
C 5.90625 47.203125 6.5 42.921875 10.40625 39.140625 
C 11.40625 38.15625 15.59375 35.171875 18.296875 33.28125 
C 13.796875 30.984375 3.296875 25.53125 3.296875 14.59375 
C 3.296875 4.359375 13.09375 -2 22.796875 -2 
C 33.5 -2 42.5 5.65625 42.5 15.78125 
C 42.5 24.84375 36.40625 29.015625 32.40625 31.703125 
z
M 14.09375 44.09375 
C 13.296875 44.59375 9.296875 47.671875 9.296875 52.359375 
C 9.296875 58.421875 15.59375 63 22.796875 63 
C 30.703125 63 36.5 57.4375 36.5 50.96875 
C 36.5 41.703125 26.09375 36.421875 25.59375 36.421875 
C 25.5 36.421875 25.40625 36.421875 24.59375 37.03125 
z
M 32.5 23.734375 
C 34 22.640625 38.796875 19.375 38.796875 13.296875 
C 38.796875 5.953125 31.40625 0.390625 23 0.390625 
C 13.90625 0.390625 7 6.84375 7 14.6875 
C 7 22.546875 13.09375 29.09375 20 32.1875 
z
" id="CMR17-56"/>
      </defs>
      <g style="fill:#262626;" transform="translate(29.759122772 68.3506849315)scale(0.09 -0.09)">
       <use transform="scale(0.996264009963)" xlink:href="#CMR17-56"/>
       <use transform="translate(45.6904771171 0.0)scale(0.996264009963)" xlink:href="#CMR17-48"/>
      </g>
     </g>
    </g>
    <g id="ytick_6">
     <g id="line2d_37">
      <path clip-path="url(#pb724ab06e5)" d="M 45.974504 26.836364 
L 387.974504 26.836364 
" style="fill:none;stroke:#ffffff;stroke-linecap:round;"/>
     </g>
     <g id="line2d_38">
      <g>
       <use style="fill:#262626;stroke:#262626;" x="45.9745040571" xlink:href="#mc4957f6b92" y="26.8363636364"/>
      </g>
     </g>
     <g id="line2d_39">
      <g>
       <use style="fill:#262626;stroke:#262626;" x="387.974504057" xlink:href="#mc4957f6b92" y="26.8363636364"/>
      </g>
     </g>
     <g id="text_14">
      <!-- $100$ -->
      <g style="fill:#262626;" transform="translate(25.1514321295 29.0779576588)scale(0.09 -0.09)">
       <use transform="scale(0.996264009963)" xlink:href="#CMR17-49"/>
       <use transform="translate(45.6904771171 0.0)scale(0.996264009963)" xlink:href="#CMR17-48"/>
       <use transform="translate(91.3809542341 0.0)scale(0.996264009963)" xlink:href="#CMR17-48"/>
      </g>
     </g>
    </g>
    <g id="text_15">
     <!-- Predicted Expected Value $\langle \lambda \rangle$ -->
     <defs>
      <path d="M 40.90625 42.796875 
L 33.296875 42.796875 
L 33.296875 15.1875 
C 33.296875 7.78125 27.90625 4.78125 22.203125 4.78125 
C 15.59375 4.78125 15 6.984375 15 11.078125 
L 15 42.796875 
L 7.40625 42.796875 
L 7.40625 10.59375 
C 7.40625 2.796875 10.09375 -1 17 -1 
C 20.40625 -1 28.09375 -0.203125 33.5 4.78125 
L 33.5 0 
L 40.90625 0 
z
" id="CMSS17-117"/>
      <path d="M 16.703125 37 
L 29.703125 37 
L 29.703125 42.765625 
L 16.703125 42.765625 
L 16.703125 55 
L 9.59375 55 
L 9.59375 42.765625 
L 1.703125 42.765625 
L 1.703125 37 
L 9.40625 37 
L 9.40625 11.703125 
C 9.40625 6 10.703125 -1 17.296875 -1 
C 22.296875 -1 26.90625 0.390625 31.296875 2.6875 
L 29.703125 8.5625 
C 27.296875 6.46875 24.40625 5.265625 21.296875 5.265625 
C 16.90625 5.265625 16.703125 10.875 16.703125 13.375 
z
" id="CMSS17-116"/>
      <path d="M 40.796875 69 
L 33.40625 69 
L 33.40625 38.09375 
C 30.296875 40.671875 25.203125 43.0625 19.59375 43.0625 
C 10.5 43.0625 3.296875 33.296875 3.296875 21.03125 
C 3.296875 8.78125 10.40625 -1 19.296875 -1 
C 26.203125 -1 30.796875 2.6875 33.203125 4.78125 
L 33.203125 -0.203125 
L 40.796875 -0.203125 
z
M 33.203125 13.0625 
C 33.203125 11.671875 33.203125 10.203125 30.09375 7.53125 
C 28.09375 5.859375 25.703125 5.078125 23.40625 5.078125 
C 18 5.078125 10.90625 9 10.90625 20.9375 
C 10.90625 33.34375 18.90625 37 24.40625 37 
C 28.09375 37 31.09375 35.21875 33.203125 32.265625 
z
" id="CMSS17-100"/>
      <path d="M 27.296875 23.296875 
C 27.796875 24.5 27.796875 24.703125 27.796875 25 
C 27.796875 25.296875 27.796875 25.5 27.296875 26.703125 
L 9.796875 72.703125 
C 9.203125 74.40625 8.59375 75 7.5 75 
C 6.40625 75 5.5 74.09375 5.5 73 
C 5.5 72.703125 5.5 72.5 6 71.40625 
L 23.703125 25 
L 6 -21.203125 
C 5.5 -22.296875 5.5 -22.5 5.5 -23 
C 5.5 -24.09375 6.40625 -25 7.5 -25 
C 8.796875 -25 9.203125 -24 9.59375 -23 
z
" id="CMSY10-105"/>
      <path d="M 32.796875 71.203125 
C 33.296875 72.296875 33.296875 72.5 33.296875 73 
C 33.296875 74.09375 32.40625 75 31.296875 75 
C 30.40625 75 29.703125 74.5 29 72.703125 
L 11.5 26.796875 
C 11.296875 26.203125 11 25.59375 11 25 
C 11 24.703125 11 24.5 11.5 23.296875 
L 29 -22.59375 
C 29.40625 -23.703125 29.90625 -25 31.296875 -25 
C 32.40625 -25 33.296875 -24.09375 33.296875 -23 
C 33.296875 -22.703125 33.296875 -22.5 32.796875 -21.40625 
L 15.09375 25 
z
" id="CMSY10-104"/>
      <path d="M 61.09375 69 
L 53.296875 69 
L 36 21.28125 
C 35.5 19.890625 32.40625 10.75 31.796875 7.5625 
L 31.703125 7.5625 
C 30.90625 11.34375 27.703125 20.1875 26 25.0625 
L 14.40625 57.375 
L 10.09375 69 
L 1.296875 69 
L 26.796875 0 
L 35.59375 0 
z
" id="CMSS17-86"/>
      <path d="M 32.90625 29 
C 44.90625 29 54.703125 38.328125 54.703125 49.34375 
C 54.703125 60.15625 45.296875 69.578125 32.296875 69.578125 
L 8.90625 69.578125 
L 8.90625 0 
L 17.296875 0 
L 17.296875 29 
z
M 30.09375 64 
C 41.703125 64 46.796875 56.671875 46.796875 49.328125 
C 46.796875 42.5 42.09375 34.78125 30.09375 34.78125 
L 17.09375 34.78125 
L 17.09375 64 
z
" id="CMSS17-80"/>
      <path d="M 24.796875 22.09375 
L 41.5 42.796875 
L 32.796875 42.796875 
L 21.296875 27.765625 
L 9.40625 42.796875 
L 0.5 42.796875 
L 17.796875 22.09375 
L 0 0 
L 8.796875 0 
L 21.296875 17.515625 
L 34.296875 0 
L 43.09375 0 
z
" id="CMSS17-120"/>
     </defs>
     <g style="fill:#262626;" transform="translate(16.9135740971 193.919564511)rotate(-90.0)scale(0.13 -0.13)">
      <use transform="scale(0.996264009963)" xlink:href="#CMSS17-80"/>
      <use transform="translate(59.735586278 0.0)scale(0.996264009963)" xlink:href="#CMSS17-114"/>
      <use transform="translate(91.645358835 0.0)scale(0.996264009963)" xlink:href="#CMSS17-101"/>
      <use transform="translate(133.284180904 0.0)scale(0.996264009963)" xlink:href="#CMSS17-100"/>
      <use transform="translate(181.489124037 0.0)scale(0.996264009963)" xlink:href="#CMSS17-105"/>
      <use transform="translate(203.669847082 0.0)scale(0.996264009963)" xlink:href="#CMSS17-99"/>
      <use transform="translate(245.308669151 0.0)scale(0.996264009963)" xlink:href="#CMSS17-116"/>
      <use transform="translate(279.140235834 0.0)scale(0.996264009963)" xlink:href="#CMSS17-101"/>
      <use transform="translate(320.779057903 0.0)scale(0.996264009963)" xlink:href="#CMSS17-100"/>
      <use transform="translate(400.213113787 0.0)scale(0.996264009963)" xlink:href="#CMSS17-69"/>
      <use transform="translate(456.105127014 0.0)scale(0.996264009963)" xlink:href="#CMSS17-120"/>
      <use transform="translate(499.105268695 0.0)scale(0.996264009963)" xlink:href="#CMSS17-112"/>
      <use transform="translate(549.912650558 0.0)scale(0.996264009963)" xlink:href="#CMSS17-101"/>
      <use transform="translate(591.551472627 0.0)scale(0.996264009963)" xlink:href="#CMSS17-99"/>
      <use transform="translate(633.190294696 0.0)scale(0.996264009963)" xlink:href="#CMSS17-116"/>
      <use transform="translate(667.021861379 0.0)scale(0.996264009963)" xlink:href="#CMSS17-101"/>
      <use transform="translate(708.660683448 0.0)scale(0.996264009963)" xlink:href="#CMSS17-100"/>
      <use transform="translate(788.094739332 0.0)scale(0.996264009963)" xlink:href="#CMSS17-86"/>
      <use transform="translate(847.710140319 0.0)scale(0.996264009963)" xlink:href="#CMSS17-97"/>
      <use transform="translate(892.632060924 0.0)scale(0.996264009963)" xlink:href="#CMSS17-108"/>
      <use transform="translate(914.812783969 0.0)scale(0.996264009963)" xlink:href="#CMSS17-117"/>
      <use transform="translate(963.017727102 0.0)scale(0.996264009963)" xlink:href="#CMSS17-101"/>
      <use transform="translate(1035.88566192 0.0)scale(0.996264009963)" xlink:href="#CMSY10-104"/>
      <use transform="translate(1074.62939575 0.0)scale(0.996264009963)" xlink:href="#CMMI12-21"/>
      <use transform="translate(1131.53346764 0.0)scale(0.996264009963)" xlink:href="#CMSY10-105"/>
     </g>
    </g>
   </g>
   <g id="line2d_40">
    <defs>
     <path d="M 0 3 
C 0.795609 3 1.55874 2.683901 2.12132 2.12132 
C 2.683901 1.55874 3 0.795609 3 0 
C 3 -0.795609 2.683901 -1.55874 2.12132 -2.12132 
C 1.55874 -2.683901 0.795609 -3 0 -3 
C -0.795609 -3 -1.55874 -2.683901 -2.12132 -2.12132 
C -2.683901 -1.55874 -3 -0.795609 -3 0 
C -3 0.795609 -2.683901 1.55874 -2.12132 2.12132 
C -1.55874 2.683901 -0.795609 3 0 3 
z
" id="mbd9f72b33d"/>
    </defs>
    <g>
     <use style="fill:#d55e00;" x="74.7569276569" xlink:href="#mbd9f72b33d" y="217.309090909"/>
     <use style="fill:#d55e00;" x="75.8152352564" xlink:href="#mbd9f72b33d" y="217.309090909"/>
     <use style="fill:#d55e00;" x="71.6121692567" xlink:href="#mbd9f72b33d" y="217.309090909"/>
     <use style="fill:#d55e00;" x="103.072931657" xlink:href="#mbd9f72b33d" y="207.490909091"/>
     <use style="fill:#d55e00;" x="114.081387256" xlink:href="#mbd9f72b33d" y="207.490909091"/>
     <use style="fill:#d55e00;" x="105.891946457" xlink:href="#mbd9f72b33d" y="207.490909091"/>
     <use style="fill:#d55e00;" x="103.932560057" xlink:href="#mbd9f72b33d" y="207.490909091"/>
     <use style="fill:#d55e00;" x="132.754997657" xlink:href="#mbd9f72b33d" y="193.745454545"/>
     <use style="fill:#d55e00;" x="141.192411257" xlink:href="#mbd9f72b33d" y="193.745454545"/>
     <use style="fill:#d55e00;" x="137.576490857" xlink:href="#mbd9f72b33d" y="193.745454545"/>
     <use style="fill:#d55e00;" x="148.557928457" xlink:href="#mbd9f72b33d" y="193.745454545"/>
     <use style="fill:#d55e00;" x="161.286370457" xlink:href="#mbd9f72b33d" y="176.072727273"/>
     <use style="fill:#d55e00;" x="170.368796057" xlink:href="#mbd9f72b33d" y="176.072727273"/>
     <use style="fill:#d55e00;" x="172.008070457" xlink:href="#mbd9f72b33d" y="176.072727273"/>
     <use style="fill:#d55e00;" x="178.216419257" xlink:href="#mbd9f72b33d" y="176.072727273"/>
     <use style="fill:#d55e00;" x="191.321448857" xlink:href="#mbd9f72b33d" y="154.472727273"/>
     <use style="fill:#d55e00;" x="203.807481257" xlink:href="#mbd9f72b33d" y="154.472727273"/>
     <use style="fill:#d55e00;" x="203.974331656" xlink:href="#mbd9f72b33d" y="154.472727273"/>
     <use style="fill:#d55e00;" x="209.903015657" xlink:href="#mbd9f72b33d" y="154.472727273"/>
     <use style="fill:#d55e00;" x="219.059450057" xlink:href="#mbd9f72b33d" y="128.945454545"/>
     <use style="fill:#d55e00;" x="234.681166457" xlink:href="#mbd9f72b33d" y="128.945454545"/>
     <use style="fill:#d55e00;" x="233.055503657" xlink:href="#mbd9f72b33d" y="128.945454545"/>
     <use style="fill:#d55e00;" x="241.716357256" xlink:href="#mbd9f72b33d" y="128.945454545"/>
     <use style="fill:#d55e00;" x="242.329882457" xlink:href="#mbd9f72b33d" y="99.4909090909"/>
     <use style="fill:#d55e00;" x="262.264834456" xlink:href="#mbd9f72b33d" y="99.4909090909"/>
     <use style="fill:#d55e00;" x="261.924726857" xlink:href="#mbd9f72b33d" y="99.4909090909"/>
     <use style="fill:#d55e00;" x="268.124502856" xlink:href="#mbd9f72b33d" y="99.4909090909"/>
     <use style="fill:#d55e00;" x="263.972394857" xlink:href="#mbd9f72b33d" y="66.1090909091"/>
     <use style="fill:#d55e00;" x="289.472804057" xlink:href="#mbd9f72b33d" y="66.1090909091"/>
     <use style="fill:#d55e00;" x="290.585398457" xlink:href="#mbd9f72b33d" y="66.1090909091"/>
     <use style="fill:#d55e00;" x="297.991066457" xlink:href="#mbd9f72b33d" y="66.1090909091"/>
     <use style="fill:#d55e00;" x="280.888467257" xlink:href="#mbd9f72b33d" y="28.8"/>
     <use style="fill:#d55e00;" x="313.006553656" xlink:href="#mbd9f72b33d" y="28.8"/>
     <use style="fill:#d55e00;" x="317.416940057" xlink:href="#mbd9f72b33d" y="28.8"/>
     <use style="fill:#d55e00;" x="330.523907657" xlink:href="#mbd9f72b33d" y="28.8"/>
     <use style="fill:#d55e00;" x="82.4338928575" xlink:href="#mbd9f72b33d" y="217.309090909"/>
     <use style="fill:#d55e00;" x="136.779197657" xlink:href="#mbd9f72b33d" y="207.490909091"/>
     <use style="fill:#d55e00;" x="135.545621897" xlink:href="#mbd9f72b33d" y="207.490909091"/>
     <use style="fill:#d55e00;" x="184.738792457" xlink:href="#mbd9f72b33d" y="193.745454545"/>
     <use style="fill:#d55e00;" x="183.705300377" xlink:href="#mbd9f72b33d" y="193.745454545"/>
     <use style="fill:#d55e00;" x="181.758114257" xlink:href="#mbd9f72b33d" y="193.745454545"/>
     <use style="fill:#d55e00;" x="183.234865697" xlink:href="#mbd9f72b33d" y="193.745454545"/>
     <use style="fill:#d55e00;" x="182.344929257" xlink:href="#mbd9f72b33d" y="193.745454545"/>
     <use style="fill:#d55e00;" x="232.878963257" xlink:href="#mbd9f72b33d" y="176.072727273"/>
     <use style="fill:#d55e00;" x="223.829082377" xlink:href="#mbd9f72b33d" y="176.072727273"/>
     <use style="fill:#d55e00;" x="259.821123617" xlink:href="#mbd9f72b33d" y="176.072727273"/>
     <use style="fill:#d55e00;" x="252.456839897" xlink:href="#mbd9f72b33d" y="176.072727273"/>
     <use style="fill:#d55e00;" x="246.876722297" xlink:href="#mbd9f72b33d" y="176.072727273"/>
     <use style="fill:#d55e00;" x="276.313578857" xlink:href="#mbd9f72b33d" y="154.472727273"/>
     <use style="fill:#d55e00;" x="264.263379857" xlink:href="#mbd9f72b33d" y="154.472727273"/>
     <use style="fill:#d55e00;" x="297.857629457" xlink:href="#mbd9f72b33d" y="154.472727273"/>
     <use style="fill:#d55e00;" x="300.876080417" xlink:href="#mbd9f72b33d" y="154.472727273"/>
     <use style="fill:#d55e00;" x="295.861756217" xlink:href="#mbd9f72b33d" y="154.472727273"/>
     <use style="fill:#d55e00;" x="310.176230057" xlink:href="#mbd9f72b33d" y="128.945454545"/>
     <use style="fill:#d55e00;" x="302.021805497" xlink:href="#mbd9f72b33d" y="128.945454545"/>
     <use style="fill:#d55e00;" x="328.140231497" xlink:href="#mbd9f72b33d" y="128.945454545"/>
     <use style="fill:#d55e00;" x="339.581691017" xlink:href="#mbd9f72b33d" y="128.945454545"/>
     <use style="fill:#d55e00;" x="338.929196057" xlink:href="#mbd9f72b33d" y="128.945454545"/>
     <use style="fill:#d55e00;" x="336.973822457" xlink:href="#mbd9f72b33d" y="99.4909090909"/>
     <use style="fill:#d55e00;" x="331.658016137" xlink:href="#mbd9f72b33d" y="99.4909090909"/>
     <use style="fill:#d55e00;" x="356.670986417" xlink:href="#mbd9f72b33d" y="99.4909090909"/>
     <use style="fill:#d55e00;" x="369.296429417" xlink:href="#mbd9f72b33d" y="99.4909090909"/>
     <use style="fill:#d55e00;" x="375.543146057" xlink:href="#mbd9f72b33d" y="99.4909090909"/>
     <use style="fill:#d55e00;" x="136.529432777" xlink:href="#mbd9f72b33d" y="207.490909091"/>
     <use style="fill:#d55e00;" x="205.715738657" xlink:href="#mbd9f72b33d" y="193.745454545"/>
     <use style="fill:#d55e00;" x="258.224970857" xlink:href="#mbd9f72b33d" y="176.072727273"/>
     <use style="fill:#d55e00;" x="296.373187577" xlink:href="#mbd9f72b33d" y="154.472727273"/>
     <use style="fill:#d55e00;" x="325.502809577" xlink:href="#mbd9f72b33d" y="128.945454545"/>
     <use style="fill:#d55e00;" x="350.645796857" xlink:href="#mbd9f72b33d" y="99.4909090909"/>
     <use style="fill:#d55e00;" x="372.392110817" xlink:href="#mbd9f72b33d" y="66.1090909091"/>
     <use style="fill:#d55e00;" x="358.072431737" xlink:href="#mbd9f72b33d" y="66.1090909091"/>
     <use style="fill:#d55e00;" x="382.842230897" xlink:href="#mbd9f72b33d" y="66.1090909091"/>
     <use style="fill:#d55e00;" x="377.684613257" xlink:href="#mbd9f72b33d" y="28.8"/>
     <use style="fill:#d55e00;" x="325.536530777" xlink:href="#mbd9f72b33d" y="176.072727273"/>
     <use style="fill:#d55e00;" x="302.898458657" xlink:href="#mbd9f72b33d" y="176.072727273"/>
     <use style="fill:#d55e00;" x="296.088908057" xlink:href="#mbd9f72b33d" y="176.072727273"/>
     <use style="fill:#d55e00;" x="367.890369377" xlink:href="#mbd9f72b33d" y="154.472727273"/>
     <use style="fill:#d55e00;" x="350.663786057" xlink:href="#mbd9f72b33d" y="154.472727273"/>
    </g>
   </g>
   <g id="line2d_41">
    <path clip-path="url(#pb724ab06e5)" d="M 45.974504 223.2 
L 400.782195 162.0848 
" style="fill:none;stroke:#ff0000;stroke-linecap:round;stroke-width:3.0;"/>
   </g>
   <g id="line2d_42">
    <defs>
     <path d="M -3 3 
L 3 3 
L 3 -3 
L -3 -3 
z
" id="me4a01f9624"/>
    </defs>
    <g>
     <use style="fill:#0072b2;" x="74.7569276569" xlink:href="#me4a01f9624" y="217.338323278"/>
     <use style="fill:#0072b2;" x="75.8152352564" xlink:href="#me4a01f9624" y="217.338323278"/>
     <use style="fill:#0072b2;" x="71.6121692567" xlink:href="#me4a01f9624" y="217.338323278"/>
     <use style="fill:#0072b2;" x="103.072931657" xlink:href="#me4a01f9624" y="212.324483731"/>
     <use style="fill:#0072b2;" x="114.081387256" xlink:href="#me4a01f9624" y="212.324483731"/>
     <use style="fill:#0072b2;" x="105.891946457" xlink:href="#me4a01f9624" y="212.324483731"/>
     <use style="fill:#0072b2;" x="103.932560057" xlink:href="#me4a01f9624" y="212.324483731"/>
     <use style="fill:#0072b2;" x="132.754997657" xlink:href="#me4a01f9624" y="206.294825946"/>
     <use style="fill:#0072b2;" x="141.192411257" xlink:href="#me4a01f9624" y="206.294825946"/>
     <use style="fill:#0072b2;" x="137.576490857" xlink:href="#me4a01f9624" y="206.294825946"/>
     <use style="fill:#0072b2;" x="148.557928457" xlink:href="#me4a01f9624" y="206.294825946"/>
     <use style="fill:#0072b2;" x="161.286370457" xlink:href="#me4a01f9624" y="199.75810247"/>
     <use style="fill:#0072b2;" x="170.368796057" xlink:href="#me4a01f9624" y="199.75810247"/>
     <use style="fill:#0072b2;" x="172.008070457" xlink:href="#me4a01f9624" y="199.75810247"/>
     <use style="fill:#0072b2;" x="178.216419257" xlink:href="#me4a01f9624" y="199.75810247"/>
     <use style="fill:#0072b2;" x="191.321448857" xlink:href="#me4a01f9624" y="192.87280091"/>
     <use style="fill:#0072b2;" x="203.807481257" xlink:href="#me4a01f9624" y="192.87280091"/>
     <use style="fill:#0072b2;" x="203.974331656" xlink:href="#me4a01f9624" y="192.87280091"/>
     <use style="fill:#0072b2;" x="209.903015657" xlink:href="#me4a01f9624" y="192.87280091"/>
     <use style="fill:#0072b2;" x="219.059450057" xlink:href="#me4a01f9624" y="185.720464159"/>
     <use style="fill:#0072b2;" x="234.681166457" xlink:href="#me4a01f9624" y="185.720464159"/>
     <use style="fill:#0072b2;" x="233.055503657" xlink:href="#me4a01f9624" y="185.720464159"/>
     <use style="fill:#0072b2;" x="241.716357256" xlink:href="#me4a01f9624" y="185.720464159"/>
     <use style="fill:#0072b2;" x="242.329882457" xlink:href="#me4a01f9624" y="178.352091348"/>
     <use style="fill:#0072b2;" x="262.264834456" xlink:href="#me4a01f9624" y="178.352091348"/>
     <use style="fill:#0072b2;" x="261.924726857" xlink:href="#me4a01f9624" y="178.352091348"/>
     <use style="fill:#0072b2;" x="268.124502856" xlink:href="#me4a01f9624" y="178.352091348"/>
     <use style="fill:#0072b2;" x="263.972394857" xlink:href="#me4a01f9624" y="170.802938928"/>
     <use style="fill:#0072b2;" x="289.472804057" xlink:href="#me4a01f9624" y="170.802938928"/>
     <use style="fill:#0072b2;" x="290.585398457" xlink:href="#me4a01f9624" y="170.802938928"/>
     <use style="fill:#0072b2;" x="297.991066457" xlink:href="#me4a01f9624" y="170.802938928"/>
     <use style="fill:#0072b2;" x="280.888467257" xlink:href="#me4a01f9624" y="163.098917433"/>
     <use style="fill:#0072b2;" x="313.006553656" xlink:href="#me4a01f9624" y="163.098917433"/>
     <use style="fill:#0072b2;" x="317.416940057" xlink:href="#me4a01f9624" y="163.098917433"/>
     <use style="fill:#0072b2;" x="330.523907657" xlink:href="#me4a01f9624" y="163.098917433"/>
     <use style="fill:#0072b2;" x="82.4338928575" xlink:href="#me4a01f9624" y="219.272727273"/>
     <use style="fill:#0072b2;" x="136.779197657" xlink:href="#me4a01f9624" y="200.178859442"/>
     <use style="fill:#0072b2;" x="135.545621897" xlink:href="#me4a01f9624" y="200.178859442"/>
     <use style="fill:#0072b2;" x="184.738792457" xlink:href="#me4a01f9624" y="195.826020385"/>
     <use style="fill:#0072b2;" x="183.705300377" xlink:href="#me4a01f9624" y="195.826020385"/>
     <use style="fill:#0072b2;" x="181.758114257" xlink:href="#me4a01f9624" y="195.826020385"/>
     <use style="fill:#0072b2;" x="183.234865697" xlink:href="#me4a01f9624" y="195.826020385"/>
     <use style="fill:#0072b2;" x="182.344929257" xlink:href="#me4a01f9624" y="195.826020385"/>
     <use style="fill:#0072b2;" x="232.878963257" xlink:href="#me4a01f9624" y="186.603449687"/>
     <use style="fill:#0072b2;" x="223.829082377" xlink:href="#me4a01f9624" y="186.603449687"/>
     <use style="fill:#0072b2;" x="259.821123617" xlink:href="#me4a01f9624" y="186.603449687"/>
     <use style="fill:#0072b2;" x="252.456839897" xlink:href="#me4a01f9624" y="186.603449687"/>
     <use style="fill:#0072b2;" x="246.876722297" xlink:href="#me4a01f9624" y="186.603449687"/>
     <use style="fill:#0072b2;" x="276.313578857" xlink:href="#me4a01f9624" y="175.770662198"/>
     <use style="fill:#0072b2;" x="264.263379857" xlink:href="#me4a01f9624" y="175.770662198"/>
     <use style="fill:#0072b2;" x="297.857629457" xlink:href="#me4a01f9624" y="175.770662198"/>
     <use style="fill:#0072b2;" x="300.876080417" xlink:href="#me4a01f9624" y="175.770662198"/>
     <use style="fill:#0072b2;" x="295.861756217" xlink:href="#me4a01f9624" y="175.770662198"/>
     <use style="fill:#0072b2;" x="310.176230057" xlink:href="#me4a01f9624" y="164.029308406"/>
     <use style="fill:#0072b2;" x="302.021805497" xlink:href="#me4a01f9624" y="164.029308406"/>
     <use style="fill:#0072b2;" x="328.140231497" xlink:href="#me4a01f9624" y="164.029308406"/>
     <use style="fill:#0072b2;" x="339.581691017" xlink:href="#me4a01f9624" y="164.029308406"/>
     <use style="fill:#0072b2;" x="338.929196057" xlink:href="#me4a01f9624" y="164.029308406"/>
     <use style="fill:#0072b2;" x="336.973822457" xlink:href="#me4a01f9624" y="151.652031058"/>
     <use style="fill:#0072b2;" x="331.658016137" xlink:href="#me4a01f9624" y="151.652031058"/>
     <use style="fill:#0072b2;" x="356.670986417" xlink:href="#me4a01f9624" y="151.652031058"/>
     <use style="fill:#0072b2;" x="369.296429417" xlink:href="#me4a01f9624" y="151.652031058"/>
     <use style="fill:#0072b2;" x="375.543146057" xlink:href="#me4a01f9624" y="151.652031058"/>
     <use style="fill:#0072b2;" x="136.529432777" xlink:href="#me4a01f9624" y="211.418181818"/>
     <use style="fill:#0072b2;" x="205.715738657" xlink:href="#me4a01f9624" y="199.636363636"/>
     <use style="fill:#0072b2;" x="258.224970857" xlink:href="#me4a01f9624" y="167.759764522"/>
     <use style="fill:#0072b2;" x="296.373187577" xlink:href="#me4a01f9624" y="158.66309132"/>
     <use style="fill:#0072b2;" x="325.502809577" xlink:href="#me4a01f9624" y="145.371472493"/>
     <use style="fill:#0072b2;" x="350.645796857" xlink:href="#me4a01f9624" y="130.076967738"/>
     <use style="fill:#0072b2;" x="372.392110817" xlink:href="#me4a01f9624" y="113.538535399"/>
     <use style="fill:#0072b2;" x="358.072431737" xlink:href="#me4a01f9624" y="138.781233335"/>
     <use style="fill:#0072b2;" x="382.842230897" xlink:href="#me4a01f9624" y="138.781233335"/>
     <use style="fill:#0072b2;" x="377.684613257" xlink:href="#me4a01f9624" y="125.505137154"/>
     <use style="fill:#0072b2;" x="325.536530777" xlink:href="#me4a01f9624" y="183.927272727"/>
     <use style="fill:#0072b2;" x="302.898458657" xlink:href="#me4a01f9624" y="183.927272727"/>
     <use style="fill:#0072b2;" x="296.088908057" xlink:href="#me4a01f9624" y="183.927272727"/>
     <use style="fill:#0072b2;" x="367.890369377" xlink:href="#me4a01f9624" y="164.290909091"/>
     <use style="fill:#0072b2;" x="350.663786057" xlink:href="#me4a01f9624" y="164.290909091"/>
    </g>
   </g>
   <g id="patch_3">
    <path d="M 45.974504 7.2 
L 387.974504 7.2 
" style="fill:none;"/>
   </g>
   <g id="patch_4">
    <path d="M 387.974504 223.2 
L 387.974504 7.2 
" style="fill:none;"/>
   </g>
   <g id="patch_5">
    <path d="M 45.974504 223.2 
L 387.974504 223.2 
" style="fill:none;"/>
   </g>
   <g id="patch_6">
    <path d="M 45.974504 223.2 
L 45.974504 7.2 
" style="fill:none;"/>
   </g>
   <g id="legend_1">
    <g id="patch_7">
     <path d="M 51.974504 51.479764 
L 168.894377 51.479764 
L 168.894377 13.2 
L 51.974504 13.2 
z
" style="fill:#eaeaf2;stroke:#ffffff;stroke-linejoin:miter;stroke-width:0.3;"/>
    </g>
    <g id="line2d_43"/>
    <g id="line2d_44">
     <g>
      <use style="fill:#d55e00;" x="68.7745040571" xlink:href="#mbd9f72b33d" y="22.2"/>
     </g>
    </g>
    <g id="text_16">
     <!-- Wilks Theorem -->
     <defs>
      <path d="M 32.203125 41.046875 
C 26.296875 43.859375 21.703125 43.859375 18.703125 43.859375 
C 11.59375 43.859375 3.09375 41.375 3.09375 31.296875 
C 3.09375 21.234375 14.09375 19.03125 17.09375 18.421875 
C 21.703125 17.53125 26.796875 16.53125 26.796875 11.5625 
C 26.796875 5.265625 19.59375 5.265625 18.296875 5.265625 
C 14.296875 5.265625 8.796875 6.359375 3.796875 9.96875 
L 2.59375 3.28125 
C 8.296875 0 13.796875 -1 18.40625 -1 
C 30.703125 -1 33.796875 6.5 33.796875 12.203125 
C 33.796875 17.09375 31 20.390625 29.09375 21.890625 
C 25.796875 24.5 24.59375 24.796875 16.40625 26.5 
C 15 26.703125 10.09375 27.796875 10.09375 32.28125 
C 10.09375 38 16.40625 38 17.796875 38 
C 24.296875 38 28.296875 35.984375 31 34.5 
z
" id="CMSS17-115"/>
      <path d="M 26.5 26.375 
L 42 42.796875 
L 32.40625 42.796875 
L 14.90625 24.28125 
L 14.90625 69 
L 7.5 69 
L 7.5 0 
L 14.796875 0 
L 14.796875 13.9375 
L 21.5 21 
L 35.59375 0 
L 44.09375 0 
z
" id="CMSS17-107"/>
      <path d="M 40.90625 29.546875 
C 40.90625 35.8125 39.40625 44.0625 28.09375 44.0625 
C 21.796875 44.0625 17.703125 40.984375 14.796875 37.609375 
L 14.796875 69.5 
L 7.40625 69.5 
L 7.40625 0.5 
L 15 0.5 
L 15 24.578125 
C 15 30.828125 17.40625 38 24.203125 38 
C 33 38 33.296875 32.125 33.296875 28.734375 
L 33.296875 0.5 
L 40.90625 0.5 
z
" id="CMSS17-104"/>
      <path d="M 44.203125 21.1875 
C 44.203125 34 34.703125 44 23.5 44 
C 12 44 2.703125 33.703125 2.703125 21.1875 
C 2.703125 8.5 12.296875 -1 23.40625 -1 
C 34.796875 -1 44.203125 8.796875 44.203125 21.1875 
M 23.5 5.265625 
C 16.40625 5.265625 10.296875 11.078125 10.296875 22 
C 10.296875 33.609375 17.40625 37.921875 23.40625 37.921875 
C 29.90625 37.921875 36.59375 33.21875 36.59375 22 
C 36.59375 10.671875 30.09375 5.265625 23.5 5.265625 
" id="CMSS17-111"/>
      <path d="M 87.203125 69 
L 79.59375 69 
L 71.203125 38.078125 
C 69.90625 33.09375 68.703125 28.140625 67.5 23.15625 
C 65.703125 15.796875 64.40625 10.640625 64.203125 8.046875 
L 64.09375 8.046875 
C 63.90625 10.734375 62.59375 16.390625 61 22.765625 
C 59.796875 28.046875 58.5 33.296875 57.09375 38.46875 
L 48.796875 69 
L 40.40625 69 
L 32.5 40.03125 
L 28.5 24.203125 
C 25.5 11.671875 25.40625 9.875 25.203125 7.890625 
L 25.09375 7.890625 
C 25.09375 8.484375 24.703125 11.765625 21.90625 23.40625 
C 20.5 29.1875 19.09375 35.0625 17.59375 40.640625 
L 9.90625 69 
L 1.296875 69 
L 20.296875 0 
L 28.59375 0 
L 36.5 28.734375 
L 40.5 44.546875 
C 43.203125 55.6875 43.796875 58.46875 44 60.953125 
L 44.09375 60.953125 
C 44.09375 60.5625 45 54.28125 48.90625 39.765625 
L 59.5 0 
L 68.203125 0 
z
" id="CMSS17-87"/>
      <path d="M 36.203125 62 
L 44.5 62 
C 45.703125 62 46.90625 62 48.09375 62 
L 60.59375 62 
L 60.59375 68.375 
L 3.40625 68.375 
L 3.40625 62 
L 15.90625 62 
C 17.09375 62 18.296875 62 19.5 62 
L 27.796875 62 
L 27.796875 -0.5 
L 36.203125 -0.5 
z
" id="CMSS17-84"/>
     </defs>
     <g style="fill:#262626;" transform="translate(90.3745040571 26.4)scale(0.12 -0.12)">
      <use transform="scale(0.996264009963)" xlink:href="#CMSS17-87"/>
      <use transform="translate(88.2421662175 0.0)scale(0.996264009963)" xlink:href="#CMSS17-105"/>
      <use transform="translate(110.422889263 0.0)scale(0.996264009963)" xlink:href="#CMSS17-108"/>
      <use transform="translate(132.603612308 0.0)scale(0.996264009963)" xlink:href="#CMSS17-107"/>
      <use transform="translate(178.206101509 0.0)scale(0.996264009963)" xlink:href="#CMSS17-115"/>
      <use transform="translate(245.348756251 0.0)scale(0.996264009963)" xlink:href="#CMSS17-84"/>
      <use transform="translate(309.168210154 0.0)scale(0.996264009963)" xlink:href="#CMSS17-104"/>
      <use transform="translate(357.373153287 0.0)scale(0.996264009963)" xlink:href="#CMSS17-101"/>
      <use transform="translate(399.011975356 0.0)scale(0.996264009963)" xlink:href="#CMSS17-111"/>
      <use transform="translate(443.253144945 0.0)scale(0.996264009963)" xlink:href="#CMSS17-114"/>
      <use transform="translate(475.162917502 0.0)scale(0.996264009963)" xlink:href="#CMSS17-101"/>
      <use transform="translate(516.80173957 0.0)scale(0.996264009963)" xlink:href="#CMSS17-109"/>
     </g>
    </g>
    <g id="line2d_45"/>
    <g id="line2d_46">
     <g>
      <use style="fill:#0072b2;" x="68.7745040571" xlink:href="#me4a01f9624" y="39.4909718439"/>
     </g>
    </g>
    <g id="text_17">
     <!-- Equation (???) -->
     <defs>
      <path d="M 11.296875 -25 
C 16.703125 -19.515625 29.09375 -6.765625 29.09375 24.6875 
C 29.09375 56.265625 16.703125 68.921875 11.296875 74.5 
L 5.203125 74.5 
C 17.5 61.75 21.5 43.921875 21.5 24.8125 
C 21.5 5.78125 17.703125 -12.15625 5.203125 -25 
z
" id="CMSS17-41"/>
      <path d="M 25.203125 74.5 
C 19.796875 69.015625 7.40625 56.265625 7.40625 24.8125 
C 7.40625 -6.765625 19.796875 -19.421875 25.203125 -25 
L 31.296875 -25 
C 19 -12.25 15 5.578125 15 24.6875 
C 15 43.71875 18.796875 61.65625 31.296875 74.5 
z
" id="CMSS17-40"/>
      <path d="M 24 21.625 
C 24 32.390625 30.296875 39.484375 33.90625 42.5625 
C 35.703125 44.171875 39.09375 47.359375 39.09375 54.4375 
C 39.09375 62.921875 33.796875 70 21 70 
C 15.5 70 10.203125 68.40625 5.203125 64.734375 
L 7.40625 58.546875 
C 12.203125 62.9375 17.09375 63.9375 21 63.9375 
C 26.203125 63.9375 31.5 62.640625 31.5 54.65625 
C 31.5 50.0625 29.5 48.171875 28.59375 47.28125 
C 19 38.1875 17.59375 28.125 17.59375 22.03125 
L 17.59375 16.84375 
L 24 16.84375 
z
M 16.796875 0 
L 24.796875 0 
L 24.796875 7.96875 
L 16.796875 7.96875 
z
" id="CMSS17-63"/>
      <path d="M 40.90625 29.328125 
C 40.90625 35.671875 39.40625 44 28.09375 44 
C 21.703125 44 17.5 40.71875 14.703125 37.328125 
L 14.703125 43.09375 
L 7.40625 43.09375 
L 7.40625 0 
L 15 0 
L 15 24.359375 
C 15 30.6875 17.40625 37.9375 24.203125 37.9375 
C 33 37.9375 33.296875 32 33.296875 28.578125 
L 33.296875 0 
L 40.90625 0 
z
" id="CMSS17-110"/>
      <path d="M 40.796875 44 
L 33.40625 44 
L 33.40625 37.9375 
C 33 38.4375 28.40625 44 20.59375 44 
C 11.5 44 3.296875 34.8125 3.296875 21.859375 
C 3.296875 9.890625 10.203125 -0.078125 19.203125 -0.078125 
C 23.40625 -0.078125 28.703125 1.421875 33.203125 5.703125 
L 33.203125 -19 
L 40.796875 -19 
z
M 33.40625 14.28125 
C 33.40625 13 33.40625 11.21875 30.296875 8.65625 
C 29.5 7.96875 27.296875 6 23.5 6 
C 16.40625 6 10.90625 13.28125 10.90625 21.859375 
C 10.90625 31.421875 17.59375 37.734375 24.40625 37.734375 
C 30.09375 37.734375 33.40625 32.203125 33.40625 28.078125 
z
" id="CMSS17-113"/>
     </defs>
     <g style="fill:#262626;" transform="translate(90.3745040571 43.6909718439)scale(0.12 -0.12)">
      <use transform="scale(0.996264009963)" xlink:href="#CMSS17-69"/>
      <use transform="translate(55.8920132268 0.0)scale(0.996264009963)" xlink:href="#CMSS17-113"/>
      <use transform="translate(104.09695636 0.0)scale(0.996264009963)" xlink:href="#CMSS17-117"/>
      <use transform="translate(152.301899493 0.0)scale(0.996264009963)" xlink:href="#CMSS17-97"/>
      <use transform="translate(197.223820098 0.0)scale(0.996264009963)" xlink:href="#CMSS17-116"/>
      <use transform="translate(231.055386782 0.0)scale(0.996264009963)" xlink:href="#CMSS17-105"/>
      <use transform="translate(253.236109827 0.0)scale(0.996264009963)" xlink:href="#CMSS17-111"/>
      <use transform="translate(300.079733349 0.0)scale(0.996264009963)" xlink:href="#CMSS17-110"/>
      <use transform="translate(379.513789233 0.0)scale(0.996264009963)" xlink:href="#CMSS17-40"/>
      <use transform="translate(415.947703436 0.0)scale(0.996264009963)" xlink:href="#CMSS17-63"/>
      <use transform="translate(460.188964236 0.0)scale(0.996264009963)" xlink:href="#CMSS17-63"/>
      <use transform="translate(504.430225035 0.0)scale(0.996264009963)" xlink:href="#CMSS17-63"/>
      <use transform="translate(548.671485834 0.0)scale(0.996264009963)" xlink:href="#CMSS17-41"/>
     </g>
    </g>
   </g>
  </g>
 </g>
 <defs>
  <clipPath id="pb724ab06e5">
   <rect height="216.0" width="342.0" x="45.9745040571" y="7.2"/>
  </clipPath>
 </defs>
</svg>
