<?xml version="1.0" encoding="utf-8" standalone="no"?>
<!DOCTYPE svg PUBLIC "-//W3C//DTD SVG 1.1//EN"
  "http://www.w3.org/Graphics/SVG/1.1/DTD/svg11.dtd">
<!-- Created with matplotlib (http://matplotlib.org/) -->
<svg height="586pt" version="1.1" viewBox="0 0 636 586" width="636pt" xmlns="http://www.w3.org/2000/svg" xmlns:xlink="http://www.w3.org/1999/xlink">
 <defs>
  <style type="text/css">
*{stroke-linecap:butt;stroke-linejoin:round;}
  </style>
 </defs>
 <g id="figure_1">
  <g id="patch_1">
   <path d="M 0 586.814073 
L 636.211802 586.814073 
L 636.211802 0 
L 0 0 
z
" style="fill:#ffffff;"/>
  </g>
  <g id="axes_1">
   <g id="patch_2">
    <path d="M 71.011802 230.788497 
L 629.011802 230.788497 
L 629.011802 35.092497 
L 71.011802 35.092497 
z
" style="fill:#eaeaf2;"/>
   </g>
   <g id="matplotlib.axis_1">
    <g id="xtick_1">
     <g id="line2d_1">
      <path clip-path="url(#pfa57971937)" d="M 96.375438 230.788497 
L 96.375438 35.092497 
" style="fill:none;stroke:#ffffff;stroke-linecap:round;"/>
     </g>
     <g id="line2d_2"/>
     <g id="text_1">
      <!-- $10^{0}$ -->
      <defs>
       <path d="M 26.59375 63.40625 
C 26.59375 65.5 26.5 65.5 25.09375 65.5 
C 21.203125 61.1875 15.296875 59.796875 9.703125 59.796875 
C 9.40625 59.796875 8.90625 59.796875 8.796875 59.5 
C 8.703125 59.296875 8.703125 59.09375 8.703125 57 
C 11.796875 57 17 57.59375 21 59.984375 
L 21 7.203125 
C 21 3.6875 20.796875 2.5 12.203125 2.5 
L 9.203125 2.5 
L 9.203125 0 
C 14 0 19 0 23.796875 0 
C 28.59375 0 33.59375 0 38.40625 0 
L 38.40625 2.5 
L 35.40625 2.5 
C 26.796875 2.5 26.59375 3.59375 26.59375 7.15625 
z
" id="CMR17-49"/>
       <path d="M 42 31.640625 
C 42 37.75 41.90625 48.125 37.703125 56.109375 
C 34 63.109375 28.09375 65.59375 22.90625 65.59375 
C 18.09375 65.59375 12 63.40625 8.203125 56.203125 
C 4.203125 48.71875 3.796875 39.4375 3.796875 31.640625 
C 3.796875 25.953125 3.90625 17.28125 7 9.671875 
C 11.296875 -0.609375 19 -2 22.90625 -2 
C 27.5 -2 34.5 -0.109375 38.59375 9.375 
C 41.59375 16.28125 42 24.359375 42 31.640625 
z
M 22.90625 -0.40625 
C 16.5 -0.40625 12.703125 5.078125 11.296875 12.6875 
C 10.203125 18.5625 10.203125 27.15625 10.203125 32.75 
C 10.203125 40.4375 10.203125 46.828125 11.5 52.921875 
C 13.40625 61.390625 19 64 22.90625 64 
C 27 64 32.296875 61.296875 34.203125 53.125 
C 35.5 47.4375 35.59375 40.734375 35.59375 32.75 
C 35.59375 26.25 35.59375 18.265625 34.40625 12.375 
C 32.296875 1.484375 26.40625 -0.40625 22.90625 -0.40625 
z
" id="CMR17-48"/>
      </defs>
      <g style="fill:#262626;" transform="translate(83.823113 251.625494)scale(0.2 -0.2)">
       <use transform="scale(0.996264)" xlink:href="#CMR17-49"/>
       <use transform="translate(45.690477 0)scale(0.996264)" xlink:href="#CMR17-48"/>
       <use transform="translate(91.380954 36.153639)scale(0.697382)" xlink:href="#CMR17-48"/>
      </g>
     </g>
    </g>
    <g id="xtick_2">
     <g id="line2d_3">
      <path clip-path="url(#pfa57971937)" d="M 205.500025 230.788497 
L 205.500025 35.092497 
" style="fill:none;stroke:#ffffff;stroke-linecap:round;"/>
     </g>
     <g id="line2d_4"/>
     <g id="text_2">
      <!-- $10^{1}$ -->
      <g style="fill:#262626;" transform="translate(192.947701 251.625494)scale(0.2 -0.2)">
       <use transform="scale(0.996264)" xlink:href="#CMR17-49"/>
       <use transform="translate(45.690477 0)scale(0.996264)" xlink:href="#CMR17-48"/>
       <use transform="translate(91.380954 36.153639)scale(0.697382)" xlink:href="#CMR17-49"/>
      </g>
     </g>
    </g>
    <g id="xtick_3">
     <g id="line2d_5">
      <path clip-path="url(#pfa57971937)" d="M 314.624613 230.788497 
L 314.624613 35.092497 
" style="fill:none;stroke:#ffffff;stroke-linecap:round;"/>
     </g>
     <g id="line2d_6"/>
     <g id="text_3">
      <!-- $10^{2}$ -->
      <defs>
       <path d="M 41.703125 15.453125 
L 39.90625 15.453125 
C 38.90625 8.375 38.09375 7.171875 37.703125 6.5625 
C 37.203125 5.765625 30 5.765625 28.59375 5.765625 
L 9.40625 5.765625 
C 13 9.671875 20 16.75 28.5 24.953125 
C 34.59375 30.734375 41.703125 37.53125 41.703125 47.421875 
C 41.703125 59.21875 32.296875 66 21.796875 66 
C 10.796875 66 4.09375 56.3125 4.09375 47.34375 
C 4.09375 43.4375 7 42.9375 8.203125 42.9375 
C 9.203125 42.9375 12.203125 43.546875 12.203125 47.03125 
C 12.203125 50.109375 9.59375 51 8.203125 51 
C 7.59375 51 7 50.90625 6.59375 50.703125 
C 8.5 59.21875 14.296875 63.40625 20.40625 63.40625 
C 29.09375 63.40625 34.796875 56.515625 34.796875 47.421875 
C 34.796875 38.734375 29.703125 31.25 24 24.75 
L 4.09375 2.28125 
L 4.09375 0 
L 39.296875 0 
z
" id="CMR17-50"/>
      </defs>
      <g style="fill:#262626;" transform="translate(302.072288 251.625494)scale(0.2 -0.2)">
       <use transform="scale(0.996264)" xlink:href="#CMR17-49"/>
       <use transform="translate(45.690477 0)scale(0.996264)" xlink:href="#CMR17-48"/>
       <use transform="translate(91.380954 36.153639)scale(0.697382)" xlink:href="#CMR17-50"/>
      </g>
     </g>
    </g>
    <g id="xtick_4">
     <g id="line2d_7">
      <path clip-path="url(#pfa57971937)" d="M 423.7492 230.788497 
L 423.7492 35.092497 
" style="fill:none;stroke:#ffffff;stroke-linecap:round;"/>
     </g>
     <g id="line2d_8"/>
     <g id="text_4">
      <!-- $10^{3}$ -->
      <defs>
       <path d="M 22.09375 33.703125 
C 31 33.703125 34.90625 25.96875 34.90625 17.03125 
C 34.90625 5 28.5 0.390625 22.703125 0.390625 
C 17.40625 0.390625 8.796875 3.03125 6.09375 10.828125 
C 6.59375 10.625 7.09375 10.625 7.59375 10.625 
C 10 10.625 11.796875 12.21875 11.796875 14.8125 
C 11.796875 17.703125 9.59375 19 7.59375 19 
C 5.90625 19 3.296875 18.203125 3.296875 14.46875 
C 3.296875 5.234375 12.296875 -2 22.90625 -2 
C 34 -2 42.5 6.71875 42.5 16.953125 
C 42.5 26.671875 34.5 33.6875 25 34.796875 
C 32.59375 36.375 39.90625 43.0625 39.90625 52.015625 
C 39.90625 59.6875 32 65.296875 23 65.296875 
C 13.90625 65.296875 5.90625 59.828125 5.90625 52.015625 
C 5.90625 48.59375 8.5 48 9.796875 48 
C 11.90625 48 13.703125 49.296875 13.703125 51.890625 
C 13.703125 54.46875 11.90625 55.765625 9.796875 55.765625 
C 9.40625 55.765625 8.90625 55.765625 8.5 55.578125 
C 11.40625 61.859375 19.296875 63 22.796875 63 
C 26.296875 63 32.90625 61.328125 32.90625 51.875 
C 32.90625 49.109375 32.5 44.1875 29.09375 39.84375 
C 26.09375 36 22.703125 36 19.40625 35.6875 
C 18.90625 35.6875 16.59375 35.453125 16.203125 35.453125 
C 15.5 35.359375 15.09375 35.265625 15.09375 34.5 
C 15.09375 33.796875 15.203125 33.703125 17.203125 33.703125 
z
" id="CMR17-51"/>
      </defs>
      <g style="fill:#262626;" transform="translate(411.196875 251.625494)scale(0.2 -0.2)">
       <use transform="scale(0.996264)" xlink:href="#CMR17-49"/>
       <use transform="translate(45.690477 0)scale(0.996264)" xlink:href="#CMR17-48"/>
       <use transform="translate(91.380954 36.153639)scale(0.697382)" xlink:href="#CMR17-51"/>
      </g>
     </g>
    </g>
    <g id="xtick_5">
     <g id="line2d_9">
      <path clip-path="url(#pfa57971937)" d="M 532.873787 230.788497 
L 532.873787 35.092497 
" style="fill:none;stroke:#ffffff;stroke-linecap:round;"/>
     </g>
     <g id="line2d_10"/>
     <g id="text_5">
      <!-- $10^{4}$ -->
      <defs>
       <path d="M 33.59375 64.40625 
C 33.59375 66.5 33.5 66.5 31.703125 66.5 
L 2 19.59375 
L 2 17 
L 27.796875 17 
L 27.796875 7.140625 
C 27.796875 3.5 27.59375 2.5 20.59375 2.5 
L 18.703125 2.5 
L 18.703125 0 
C 21.90625 0 27.296875 0 30.703125 0 
C 34.09375 0 39.5 0 42.703125 0 
L 42.703125 2.5 
L 40.796875 2.5 
C 33.796875 2.5 33.59375 3.5 33.59375 7.140625 
L 33.59375 17 
L 43.796875 17 
L 43.796875 19.59375 
L 33.59375 19.59375 
z
M 28.09375 57.859375 
L 28.09375 19.59375 
L 4 19.59375 
z
" id="CMR17-52"/>
      </defs>
      <g style="fill:#262626;" transform="translate(520.321463 251.625494)scale(0.2 -0.2)">
       <use transform="scale(0.996264)" xlink:href="#CMR17-49"/>
       <use transform="translate(45.690477 0)scale(0.996264)" xlink:href="#CMR17-48"/>
       <use transform="translate(91.380954 36.153639)scale(0.697382)" xlink:href="#CMR17-52"/>
      </g>
     </g>
    </g>
    <g id="xtick_6">
     <g id="line2d_11"/>
    </g>
    <g id="xtick_7">
     <g id="line2d_12"/>
    </g>
    <g id="xtick_8">
     <g id="line2d_13"/>
    </g>
    <g id="xtick_9">
     <g id="line2d_14"/>
    </g>
    <g id="xtick_10">
     <g id="line2d_15"/>
    </g>
    <g id="xtick_11">
     <g id="line2d_16"/>
    </g>
    <g id="xtick_12">
     <g id="line2d_17"/>
    </g>
    <g id="xtick_13">
     <g id="line2d_18"/>
    </g>
    <g id="xtick_14">
     <g id="line2d_19"/>
    </g>
    <g id="xtick_15">
     <g id="line2d_20"/>
    </g>
    <g id="xtick_16">
     <g id="line2d_21"/>
    </g>
    <g id="xtick_17">
     <g id="line2d_22"/>
    </g>
    <g id="xtick_18">
     <g id="line2d_23"/>
    </g>
    <g id="xtick_19">
     <g id="line2d_24"/>
    </g>
    <g id="xtick_20">
     <g id="line2d_25"/>
    </g>
    <g id="xtick_21">
     <g id="line2d_26"/>
    </g>
    <g id="xtick_22">
     <g id="line2d_27"/>
    </g>
    <g id="xtick_23">
     <g id="line2d_28"/>
    </g>
    <g id="xtick_24">
     <g id="line2d_29"/>
    </g>
    <g id="xtick_25">
     <g id="line2d_30"/>
    </g>
    <g id="xtick_26">
     <g id="line2d_31"/>
    </g>
    <g id="xtick_27">
     <g id="line2d_32"/>
    </g>
    <g id="xtick_28">
     <g id="line2d_33"/>
    </g>
    <g id="xtick_29">
     <g id="line2d_34"/>
    </g>
    <g id="xtick_30">
     <g id="line2d_35"/>
    </g>
    <g id="xtick_31">
     <g id="line2d_36"/>
    </g>
    <g id="xtick_32">
     <g id="line2d_37"/>
    </g>
    <g id="xtick_33">
     <g id="line2d_38"/>
    </g>
    <g id="xtick_34">
     <g id="line2d_39"/>
    </g>
    <g id="xtick_35">
     <g id="line2d_40"/>
    </g>
    <g id="xtick_36">
     <g id="line2d_41"/>
    </g>
    <g id="xtick_37">
     <g id="line2d_42"/>
    </g>
    <g id="xtick_38">
     <g id="line2d_43"/>
    </g>
    <g id="xtick_39">
     <g id="line2d_44"/>
    </g>
    <g id="xtick_40">
     <g id="line2d_45"/>
    </g>
    <g id="xtick_41">
     <g id="line2d_46"/>
    </g>
    <g id="xtick_42">
     <g id="line2d_47"/>
    </g>
    <g id="xtick_43">
     <g id="line2d_48"/>
    </g>
    <g id="xtick_44">
     <g id="line2d_49"/>
    </g>
    <g id="xtick_45">
     <g id="line2d_50"/>
    </g>
    <g id="xtick_46">
     <g id="line2d_51"/>
    </g>
    <g id="xtick_47">
     <g id="line2d_52"/>
    </g>
    <g id="text_6">
     <!-- Sample Size $N$ -->
     <defs>
      <path d="M 43.703125 65.140625 
C 39.296875 67.71875 34.5 70 26.40625 70 
C 13.5 70 5.203125 60.609375 5.203125 51.03125 
C 5.203125 47.265625 6.296875 43.015625 10.203125 38.671875 
C 14.09375 34.3125 18.5 33.140625 24.09375 31.765625 
C 26.40625 31.15625 30.296875 30.0625 31 29.78125 
C 36.59375 27.609375 39.296875 22.5625 39.296875 17.8125 
C 39.296875 11.59375 34.40625 4.96875 25.703125 4.96875 
C 22.703125 4.96875 13.90625 4.96875 5.59375 12.796875 
L 4.203125 4.96875 
C 12.40625 -1 21.296875 -2 25.796875 -2 
C 38.09375 -2 46.90625 7.625 46.90625 18.53125 
C 46.90625 22.5 45.703125 27.546875 41.5 32.203125 
C 37.40625 36.671875 33.796875 37.65625 25.59375 39.828125 
C 20.90625 41.03125 17.90625 41.828125 15.40625 44.890625 
C 13.703125 47.078125 12.796875 49.15625 12.796875 51.828125 
C 12.796875 57.390625 17.59375 63.4375 26.40625 63.4375 
C 30.796875 63.4375 36.5 62.53125 42.296875 57.1875 
z
" id="CMSS17-83"/>
      <path d="M 37.59375 27.984375 
C 37.59375 37.375 30.90625 43.875 21.90625 43.875 
C 17.5 43.875 12.703125 43.078125 7.203125 39.890625 
L 7.796875 33.359375 
C 10.296875 35.125 14.59375 38 21.796875 38 
C 26.90625 38 30 34.0625 30 27.84375 
L 30 24 
C 14 24 4 19.34375 4 11.34375 
C 4 7.203125 6.5 -1 14.796875 -1 
C 16.296875 -1 24.40625 -1 30.203125 3.390625 
L 30.203125 -0.296875 
L 37.59375 -0.296875 
z
M 30 12.75 
C 30 10.953125 30 8.5625 27 6.78125 
C 24.40625 5.078125 21.09375 5.078125 19.703125 5.078125 
C 14.703125 5.078125 11.296875 7.984375 11.296875 11.625 
C 11.296875 18.921875 26.90625 18.921875 30 18.921875 
z
" id="CMSS17-97"/>
      <path d="M 67 29.328125 
C 67 36.0625 65.296875 44 54.09375 44 
C 46.59375 44 42.09375 39.3125 40.09375 36.421875 
C 38.296875 41.71875 34.09375 44 28.09375 44 
C 21.296875 44 17 40.125 14.703125 37.328125 
L 14.703125 43.09375 
L 7.40625 43.09375 
L 7.40625 0 
L 15 0 
L 15 24.359375 
C 15 30.296875 17.203125 37.9375 24.296875 37.9375 
C 33.40625 37.9375 33.40625 31.5 33.40625 28.578125 
L 33.40625 0 
L 41 0 
L 41 24.359375 
C 41 30.296875 43.203125 37.9375 50.296875 37.9375 
C 59.40625 37.9375 59.40625 31.5 59.40625 28.578125 
L 59.40625 0 
L 67 0 
z
" id="CMSS17-109"/>
      <path d="M 15.09375 5.203125 
C 18.40625 2.015625 22.90625 -0.078125 27.703125 -0.078125 
C 37 -0.078125 45 9.421875 45 22.0625 
C 45 33.734375 39 44 30.40625 44 
C 25.40625 44 19.40625 42.21875 14.90625 38.625 
L 14.90625 43.203125 
L 7.5 43.203125 
L 7.5 -19 
L 15.09375 -19 
z
M 15.09375 32.8125 
C 15.90625 34 19.296875 37.734375 24.796875 37.734375 
C 31.796875 37.734375 37.40625 30.625 37.40625 22.0625 
C 37.40625 12.296875 30.59375 6 23.90625 6 
C 21.90625 6 19.796875 6.484375 17.796875 8.171875 
C 15.09375 10.53125 15.09375 12 15.09375 13.390625 
z
" id="CMSS17-112"/>
      <path d="M 14.796875 69 
L 7.40625 69 
L 7.40625 0 
L 14.796875 0 
z
" id="CMSS17-108"/>
      <path d="M 39.09375 21.515625 
C 39.09375 24.84375 38.90625 31.296875 35.703125 36.640625 
C 32.203125 42.390625 26.5 44 22.203125 44 
C 11.796875 44 3 34.1875 3 21.484375 
C 3 9.09375 12.09375 -1 23.59375 -1 
C 28.09375 -1 33.59375 0.296875 38.59375 3.875 
C 38.59375 4.28125 38.40625 6.46875 38.296875 6.5625 
C 38.296875 6.765625 38 9.84375 38 10.25 
C 33.203125 6.359375 27.703125 5.078125 23.703125 5.078125 
C 17.296875 5.078125 10.40625 10.421875 10.09375 21.515625 
z
M 10.90625 27 
C 12.203125 32.5625 16.59375 37.828125 22.203125 37.828125 
C 23.703125 37.828125 30.703125 37.828125 32.5 27 
z
" id="CMSS17-101"/>
      <path d="M 15.296875 65.359375 
L 6.90625 65.359375 
L 6.90625 57 
L 15.296875 57 
z
M 14.796875 42.796875 
L 7.40625 42.796875 
L 7.40625 0 
L 14.796875 0 
z
" id="CMSS17-105"/>
      <path d="M 37.5 39.09375 
L 37.5 42.96875 
L 3.90625 42.96875 
L 3.90625 37 
L 16.703125 37 
C 17.90625 37 19.09375 37 20.296875 37 
L 27.296875 37 
L 2.59375 4.078125 
L 2.59375 0 
L 37.796875 0 
L 37.796875 6.171875 
L 24.203125 6.171875 
C 23 6.171875 21.796875 6.171875 20.59375 6.171875 
L 12.90625 6.171875 
z
" id="CMSS17-122"/>
      <path d="M 74 57.78125 
C 75.09375 62.09375 76.703125 65.09375 84.296875 65.09375 
C 84.59375 65.09375 85.796875 65.09375 85.796875 66.859375 
C 85.796875 68 84.90625 68 84.5 68 
C 82.5 68 77.40625 68 75.40625 68 
L 70.59375 68 
C 69.203125 68 67.40625 68 66 68 
C 65.40625 68 64.203125 68 64.203125 66.09375 
C 64.203125 65.09375 65 65.09375 65.703125 65.09375 
C 71.703125 65.09375 72.09375 62.796875 72.09375 60.984375 
C 72.09375 60.09375 72 59.78125 71.703125 58.390625 
L 60.40625 13.28125 
L 39 66.390625 
C 38.296875 68 38.203125 68 36 68 
L 23.796875 68 
C 21.796875 68 20.90625 68 20.90625 66.09375 
C 20.90625 65.09375 21.59375 65.09375 23.5 65.09375 
C 24 65.09375 29.90625 65.09375 29.90625 64.296875 
C 29.90625 64.09375 29.703125 63.296875 29.59375 63 
L 16.296875 9.921875 
C 15.09375 5 12.703125 2.90625 6.09375 2.90625 
C 5.59375 2.90625 4.59375 2.90625 4.59375 1.046875 
C 4.59375 0 5.59375 0 5.90625 0 
C 7.90625 0 13 0 15 0 
L 19.796875 0 
C 21.203125 0 22.90625 0 24.296875 0 
C 25 0 26.09375 0 26.09375 1.90625 
C 26.09375 2.8125 25.09375 2.90625 24.703125 2.90625 
C 21.40625 2.90625 18.203125 3.5 18.203125 7.09375 
C 18.203125 7.890625 18.40625 8.78125 18.59375 9.578125 
L 32.09375 63 
C 32.703125 62 32.703125 61.8125 33.09375 60.90625 
L 56.90625 1.796875 
C 57.40625 0.59375 57.59375 0 58.5 0 
C 59.5 0 59.59375 0.296875 60 2 
z
" id="CMMI12-78"/>
     </defs>
     <g style="fill:#262626;" transform="translate(262.960315 280.256623)scale(0.3 -0.3)">
      <use transform="scale(0.996264)" xlink:href="#CMSS17-83"/>
      <use transform="translate(52.048516 0)scale(0.996264)" xlink:href="#CMSS17-97"/>
      <use transform="translate(96.970437 0)scale(0.996264)" xlink:href="#CMSS17-109"/>
      <use transform="translate(171.199691 0)scale(0.996264)" xlink:href="#CMSS17-112"/>
      <use transform="translate(219.404634 0)scale(0.996264)" xlink:href="#CMSS17-108"/>
      <use transform="translate(241.585357 0)scale(0.996264)" xlink:href="#CMSS17-101"/>
      <use transform="translate(314.453292 0)scale(0.996264)" xlink:href="#CMSS17-83"/>
      <use transform="translate(366.501808 0)scale(0.996264)" xlink:href="#CMSS17-105"/>
      <use transform="translate(388.682531 0)scale(0.996264)" xlink:href="#CMSS17-122"/>
      <use transform="translate(429.360403 0)scale(0.996264)" xlink:href="#CMSS17-101"/>
      <use transform="translate(502.228338 0)scale(0.996264)" xlink:href="#CMMI12-78"/>
     </g>
    </g>
   </g>
   <g id="matplotlib.axis_2">
    <g id="ytick_1">
     <g id="line2d_53">
      <path clip-path="url(#pfa57971937)" d="M 71.011802 230.788497 
L 629.011802 230.788497 
" style="fill:none;stroke:#ffffff;stroke-linecap:round;"/>
     </g>
     <g id="line2d_54"/>
     <g id="text_7">
      <!-- $0$ -->
      <g style="fill:#262626;" transform="translate(54.873706 237.706996)scale(0.2 -0.2)">
       <use transform="scale(0.996264)" xlink:href="#CMR17-48"/>
      </g>
     </g>
    </g>
    <g id="ytick_2">
     <g id="line2d_55">
      <path clip-path="url(#pfa57971937)" d="M 71.011802 173.305709 
L 629.011802 173.305709 
" style="fill:none;stroke:#ffffff;stroke-linecap:round;"/>
     </g>
     <g id="line2d_56"/>
     <g id="text_8">
      <!-- $10$ -->
      <g style="fill:#262626;" transform="translate(45.735611 180.224207)scale(0.2 -0.2)">
       <use transform="scale(0.996264)" xlink:href="#CMR17-49"/>
       <use transform="translate(45.690477 0)scale(0.996264)" xlink:href="#CMR17-48"/>
      </g>
     </g>
    </g>
    <g id="ytick_3">
     <g id="line2d_57">
      <path clip-path="url(#pfa57971937)" d="M 71.011802 115.82292 
L 629.011802 115.82292 
" style="fill:none;stroke:#ffffff;stroke-linecap:round;"/>
     </g>
     <g id="line2d_58"/>
     <g id="text_9">
      <!-- $20$ -->
      <g style="fill:#262626;" transform="translate(45.735611 122.741419)scale(0.2 -0.2)">
       <use transform="scale(0.996264)" xlink:href="#CMR17-50"/>
       <use transform="translate(45.690477 0)scale(0.996264)" xlink:href="#CMR17-48"/>
      </g>
     </g>
    </g>
    <g id="ytick_4">
     <g id="line2d_59">
      <path clip-path="url(#pfa57971937)" d="M 71.011802 58.340132 
L 629.011802 58.340132 
" style="fill:none;stroke:#ffffff;stroke-linecap:round;"/>
     </g>
     <g id="line2d_60"/>
     <g id="text_10">
      <!-- $30$ -->
      <g style="fill:#262626;" transform="translate(45.735611 65.25863)scale(0.2 -0.2)">
       <use transform="scale(0.996264)" xlink:href="#CMR17-51"/>
       <use transform="translate(45.690477 0)scale(0.996264)" xlink:href="#CMR17-48"/>
      </g>
     </g>
    </g>
    <g id="text_11">
     <!-- $\bar{\lambda}$ -->
     <defs>
      <path d="M 39.90625 55 
L 39.90625 57.28125 
L 5.90625 57.28125 
L 5.90625 55 
z
" id="CMR17-22"/>
      <path d="M 30.90625 61.953125 
C 28.40625 69 20.5 69 19.203125 69 
C 18.59375 69 17.5 69 17.5 68 
C 17.5 67.21875 18.09375 67.109375 18.59375 67.015625 
C 20.09375 66.8125 21.296875 66.609375 22.90625 63.75 
C 23.90625 61.859375 34.203125 32.171875 34.203125 31.96875 
C 34.203125 31.875 34.09375 31.765625 33.296875 30.96875 
L 7.296875 4.859375 
C 6.09375 3.65625 5.296875 2.859375 5.296875 1.59375 
C 5.296875 0.1875 6.5 -1 8.09375 -1 
C 8.5 -1 9.59375 -0.796875 10.203125 -0.203125 
C 11.796875 1.28125 26.09375 18.65625 35.203125 29.390625 
C 37.796875 21.609375 41 12.453125 44.09375 4.078125 
C 44.59375 2.59375 45.09375 1.1875 46.5 -0.09375 
C 47.5 -1 47.703125 -1 50.5 -1 
L 52.40625 -1 
C 52.796875 -1 53.5 -1 53.5 -0.203125 
C 53.5 0.203125 53.40625 0.296875 53 0.703125 
C 52.09375 1.796875 51.40625 3.578125 51 4.78125 
z
" id="CMMI12-21"/>
     </defs>
     <g style="fill:#262626;" transform="translate(7.2 127.127047)scale(0.3 -0.3)">
      <use transform="translate(5.606797 26.296621)scale(0.996264)" xlink:href="#CMR17-22"/>
      <use transform="scale(0.996264)" xlink:href="#CMMI12-21"/>
     </g>
    </g>
   </g>
   <g id="line2d_61">
    <path d="M 96.375438 223.107596 
L 339.492655 215.377301 
L 401.474691 216.629287 
L 441.161904 214.976858 
L 469.051219 216.55844 
L 490.572726 217.030324 
L 508.100482 216.612638 
L 522.887253 217.673155 
L 535.849401 216.042859 
L 547.755295 215.921739 
L 558.468151 216.453282 
L 567.43627 215.609215 
L 575.628725 215.139535 
L 583.724996 215.835838 
L 590.670058 215.934141 
L 597.62072 216.45966 
L 603.648165 217.495842 
" style="fill:none;opacity:0.75;stroke:#db5f57;stroke-dasharray:7.4,3.2;stroke-dashoffset:0;stroke-width:2;"/>
    <defs>
     <path d="M 0 5 
C 1.326016 5 2.597899 4.473168 3.535534 3.535534 
C 4.473168 2.597899 5 1.326016 5 0 
C 5 -1.326016 4.473168 -2.597899 3.535534 -3.535534 
C 2.597899 -4.473168 1.326016 -5 0 -5 
C -1.326016 -5 -2.597899 -4.473168 -3.535534 -3.535534 
C -4.473168 -2.597899 -5 -1.326016 -5 0 
C -5 1.326016 -4.473168 2.597899 -3.535534 3.535534 
C -2.597899 4.473168 -1.326016 5 0 5 
z
" id="m6962fb56b5"/>
    </defs>
    <g>
     <use style="fill:#db5f57;opacity:0.75;" x="96.375438" xlink:href="#m6962fb56b5" y="223.107596"/>
     <use style="fill:#db5f57;opacity:0.75;" x="339.492655" xlink:href="#m6962fb56b5" y="215.377301"/>
     <use style="fill:#db5f57;opacity:0.75;" x="401.474691" xlink:href="#m6962fb56b5" y="216.629287"/>
     <use style="fill:#db5f57;opacity:0.75;" x="441.161904" xlink:href="#m6962fb56b5" y="214.976858"/>
     <use style="fill:#db5f57;opacity:0.75;" x="469.051219" xlink:href="#m6962fb56b5" y="216.55844"/>
     <use style="fill:#db5f57;opacity:0.75;" x="490.572726" xlink:href="#m6962fb56b5" y="217.030324"/>
     <use style="fill:#db5f57;opacity:0.75;" x="508.100482" xlink:href="#m6962fb56b5" y="216.612638"/>
     <use style="fill:#db5f57;opacity:0.75;" x="522.887253" xlink:href="#m6962fb56b5" y="217.673155"/>
     <use style="fill:#db5f57;opacity:0.75;" x="535.849401" xlink:href="#m6962fb56b5" y="216.042859"/>
     <use style="fill:#db5f57;opacity:0.75;" x="547.755295" xlink:href="#m6962fb56b5" y="215.921739"/>
     <use style="fill:#db5f57;opacity:0.75;" x="558.468151" xlink:href="#m6962fb56b5" y="216.453282"/>
     <use style="fill:#db5f57;opacity:0.75;" x="567.43627" xlink:href="#m6962fb56b5" y="215.609215"/>
     <use style="fill:#db5f57;opacity:0.75;" x="575.628725" xlink:href="#m6962fb56b5" y="215.139535"/>
     <use style="fill:#db5f57;opacity:0.75;" x="583.724996" xlink:href="#m6962fb56b5" y="215.835838"/>
     <use style="fill:#db5f57;opacity:0.75;" x="590.670058" xlink:href="#m6962fb56b5" y="215.934141"/>
     <use style="fill:#db5f57;opacity:0.75;" x="597.62072" xlink:href="#m6962fb56b5" y="216.45966"/>
     <use style="fill:#db5f57;opacity:0.75;" x="603.648165" xlink:href="#m6962fb56b5" y="217.495842"/>
    </g>
   </g>
   <g id="line2d_62">
    <path d="M 575.628725 210.951088 
L 583.724996 210.951088 
L 590.670058 210.951088 
L 597.62072 210.951088 
L 603.648165 210.951088 
" style="fill:none;stroke:#db5f57;stroke-linecap:round;stroke-width:5;"/>
   </g>
   <g id="line2d_63">
    <path d="M 96.375438 218.908179 
L 339.492655 187.869757 
L 401.474691 188.826135 
L 441.161904 185.126244 
L 469.051219 188.650259 
L 490.572726 189.834064 
L 508.100482 188.521112 
L 522.887253 189.430262 
L 535.849401 187.144289 
L 547.755295 184.523461 
L 558.468151 185.67958 
L 567.43627 186.062543 
L 575.628725 185.428512 
L 583.724996 187.553241 
L 590.670058 187.483291 
L 597.62072 189.245322 
L 603.648165 189.242318 
" style="fill:none;opacity:0.75;stroke:#b9db57;stroke-dasharray:7.4,3.2;stroke-dashoffset:0;stroke-width:2;"/>
    <defs>
     <path d="M 0 5 
C 1.326016 5 2.597899 4.473168 3.535534 3.535534 
C 4.473168 2.597899 5 1.326016 5 0 
C 5 -1.326016 4.473168 -2.597899 3.535534 -3.535534 
C 2.597899 -4.473168 1.326016 -5 0 -5 
C -1.326016 -5 -2.597899 -4.473168 -3.535534 -3.535534 
C -4.473168 -2.597899 -5 -1.326016 -5 0 
C -5 1.326016 -4.473168 2.597899 -3.535534 3.535534 
C -2.597899 4.473168 -1.326016 5 0 5 
z
" id="m73d9def725"/>
    </defs>
    <g>
     <use style="fill:#b9db57;opacity:0.75;" x="96.375438" xlink:href="#m73d9def725" y="218.908179"/>
     <use style="fill:#b9db57;opacity:0.75;" x="339.492655" xlink:href="#m73d9def725" y="187.869757"/>
     <use style="fill:#b9db57;opacity:0.75;" x="401.474691" xlink:href="#m73d9def725" y="188.826135"/>
     <use style="fill:#b9db57;opacity:0.75;" x="441.161904" xlink:href="#m73d9def725" y="185.126244"/>
     <use style="fill:#b9db57;opacity:0.75;" x="469.051219" xlink:href="#m73d9def725" y="188.650259"/>
     <use style="fill:#b9db57;opacity:0.75;" x="490.572726" xlink:href="#m73d9def725" y="189.834064"/>
     <use style="fill:#b9db57;opacity:0.75;" x="508.100482" xlink:href="#m73d9def725" y="188.521112"/>
     <use style="fill:#b9db57;opacity:0.75;" x="522.887253" xlink:href="#m73d9def725" y="189.430262"/>
     <use style="fill:#b9db57;opacity:0.75;" x="535.849401" xlink:href="#m73d9def725" y="187.144289"/>
     <use style="fill:#b9db57;opacity:0.75;" x="547.755295" xlink:href="#m73d9def725" y="184.523461"/>
     <use style="fill:#b9db57;opacity:0.75;" x="558.468151" xlink:href="#m73d9def725" y="185.67958"/>
     <use style="fill:#b9db57;opacity:0.75;" x="567.43627" xlink:href="#m73d9def725" y="186.062543"/>
     <use style="fill:#b9db57;opacity:0.75;" x="575.628725" xlink:href="#m73d9def725" y="185.428512"/>
     <use style="fill:#b9db57;opacity:0.75;" x="583.724996" xlink:href="#m73d9def725" y="187.553241"/>
     <use style="fill:#b9db57;opacity:0.75;" x="590.670058" xlink:href="#m73d9def725" y="187.483291"/>
     <use style="fill:#b9db57;opacity:0.75;" x="597.62072" xlink:href="#m73d9def725" y="189.245322"/>
     <use style="fill:#b9db57;opacity:0.75;" x="603.648165" xlink:href="#m73d9def725" y="189.242318"/>
    </g>
   </g>
   <g id="line2d_64">
    <path d="M 575.628725 176.55609 
L 583.724996 176.55609 
L 590.670058 176.55609 
L 597.62072 176.55609 
L 603.648165 176.55609 
" style="fill:none;stroke:#b9db57;stroke-linecap:round;stroke-width:5;"/>
   </g>
   <g id="line2d_65">
    <path d="M 96.375438 218.125879 
L 339.492655 173.116823 
L 401.474691 168.279472 
L 441.161904 162.044385 
L 469.051219 165.05999 
L 490.572726 166.179646 
L 508.100482 164.263604 
L 522.887253 164.9869 
L 535.849401 160.88322 
L 547.755295 158.215177 
L 558.468151 159.438721 
L 567.43627 160.106326 
L 575.628725 158.436673 
L 583.724996 160.535446 
L 590.670058 159.917649 
L 597.62072 159.930715 
L 603.648165 159.702894 
" style="fill:none;opacity:0.75;stroke:#57db94;stroke-dasharray:7.4,3.2;stroke-dashoffset:0;stroke-width:2;"/>
    <defs>
     <path d="M 0 5 
C 1.326016 5 2.597899 4.473168 3.535534 3.535534 
C 4.473168 2.597899 5 1.326016 5 0 
C 5 -1.326016 4.473168 -2.597899 3.535534 -3.535534 
C 2.597899 -4.473168 1.326016 -5 0 -5 
C -1.326016 -5 -2.597899 -4.473168 -3.535534 -3.535534 
C -4.473168 -2.597899 -5 -1.326016 -5 0 
C -5 1.326016 -4.473168 2.597899 -3.535534 3.535534 
C -2.597899 4.473168 -1.326016 5 0 5 
z
" id="ma51a33b0bb"/>
    </defs>
    <g>
     <use style="fill:#57db94;opacity:0.75;" x="96.375438" xlink:href="#ma51a33b0bb" y="218.125879"/>
     <use style="fill:#57db94;opacity:0.75;" x="339.492655" xlink:href="#ma51a33b0bb" y="173.116823"/>
     <use style="fill:#57db94;opacity:0.75;" x="401.474691" xlink:href="#ma51a33b0bb" y="168.279472"/>
     <use style="fill:#57db94;opacity:0.75;" x="441.161904" xlink:href="#ma51a33b0bb" y="162.044385"/>
     <use style="fill:#57db94;opacity:0.75;" x="469.051219" xlink:href="#ma51a33b0bb" y="165.05999"/>
     <use style="fill:#57db94;opacity:0.75;" x="490.572726" xlink:href="#ma51a33b0bb" y="166.179646"/>
     <use style="fill:#57db94;opacity:0.75;" x="508.100482" xlink:href="#ma51a33b0bb" y="164.263604"/>
     <use style="fill:#57db94;opacity:0.75;" x="522.887253" xlink:href="#ma51a33b0bb" y="164.9869"/>
     <use style="fill:#57db94;opacity:0.75;" x="535.849401" xlink:href="#ma51a33b0bb" y="160.88322"/>
     <use style="fill:#57db94;opacity:0.75;" x="547.755295" xlink:href="#ma51a33b0bb" y="158.215177"/>
     <use style="fill:#57db94;opacity:0.75;" x="558.468151" xlink:href="#ma51a33b0bb" y="159.438721"/>
     <use style="fill:#57db94;opacity:0.75;" x="567.43627" xlink:href="#ma51a33b0bb" y="160.106326"/>
     <use style="fill:#57db94;opacity:0.75;" x="575.628725" xlink:href="#ma51a33b0bb" y="158.436673"/>
     <use style="fill:#57db94;opacity:0.75;" x="583.724996" xlink:href="#ma51a33b0bb" y="160.535446"/>
     <use style="fill:#57db94;opacity:0.75;" x="590.670058" xlink:href="#ma51a33b0bb" y="159.917649"/>
     <use style="fill:#57db94;opacity:0.75;" x="597.62072" xlink:href="#ma51a33b0bb" y="159.930715"/>
     <use style="fill:#57db94;opacity:0.75;" x="603.648165" xlink:href="#ma51a33b0bb" y="159.702894"/>
    </g>
   </g>
   <g id="line2d_66">
    <path d="M 575.628725 136.909145 
L 583.724996 136.909145 
L 590.670058 136.909145 
L 597.62072 136.909145 
L 603.648165 136.909145 
" style="fill:none;stroke:#57db94;stroke-linecap:round;stroke-width:5;"/>
   </g>
   <g id="line2d_67">
    <path d="M 96.375438 217.979175 
L 339.492655 166.902875 
L 401.474691 158.308967 
L 441.161904 149.969075 
L 469.051219 150.472224 
L 490.572726 150.39977 
L 508.100482 146.92193 
L 522.887253 146.551932 
L 535.849401 142.653299 
L 547.755295 137.867641 
L 558.468151 138.120095 
L 567.43627 138.101632 
L 575.628725 136.788916 
L 583.724996 137.583927 
L 590.670058 135.729489 
L 597.62072 134.847683 
L 603.648165 132.726673 
" style="fill:none;opacity:0.75;stroke:#5784db;stroke-dasharray:7.4,3.2;stroke-dashoffset:0;stroke-width:2;"/>
    <defs>
     <path d="M 0 5 
C 1.326016 5 2.597899 4.473168 3.535534 3.535534 
C 4.473168 2.597899 5 1.326016 5 0 
C 5 -1.326016 4.473168 -2.597899 3.535534 -3.535534 
C 2.597899 -4.473168 1.326016 -5 0 -5 
C -1.326016 -5 -2.597899 -4.473168 -3.535534 -3.535534 
C -4.473168 -2.597899 -5 -1.326016 -5 0 
C -5 1.326016 -4.473168 2.597899 -3.535534 3.535534 
C -2.597899 4.473168 -1.326016 5 0 5 
z
" id="mfa6d405bd4"/>
    </defs>
    <g>
     <use style="fill:#5784db;opacity:0.75;" x="96.375438" xlink:href="#mfa6d405bd4" y="217.979175"/>
     <use style="fill:#5784db;opacity:0.75;" x="339.492655" xlink:href="#mfa6d405bd4" y="166.902875"/>
     <use style="fill:#5784db;opacity:0.75;" x="401.474691" xlink:href="#mfa6d405bd4" y="158.308967"/>
     <use style="fill:#5784db;opacity:0.75;" x="441.161904" xlink:href="#mfa6d405bd4" y="149.969075"/>
     <use style="fill:#5784db;opacity:0.75;" x="469.051219" xlink:href="#mfa6d405bd4" y="150.472224"/>
     <use style="fill:#5784db;opacity:0.75;" x="490.572726" xlink:href="#mfa6d405bd4" y="150.39977"/>
     <use style="fill:#5784db;opacity:0.75;" x="508.100482" xlink:href="#mfa6d405bd4" y="146.92193"/>
     <use style="fill:#5784db;opacity:0.75;" x="522.887253" xlink:href="#mfa6d405bd4" y="146.551932"/>
     <use style="fill:#5784db;opacity:0.75;" x="535.849401" xlink:href="#mfa6d405bd4" y="142.653299"/>
     <use style="fill:#5784db;opacity:0.75;" x="547.755295" xlink:href="#mfa6d405bd4" y="137.867641"/>
     <use style="fill:#5784db;opacity:0.75;" x="558.468151" xlink:href="#mfa6d405bd4" y="138.120095"/>
     <use style="fill:#5784db;opacity:0.75;" x="567.43627" xlink:href="#mfa6d405bd4" y="138.101632"/>
     <use style="fill:#5784db;opacity:0.75;" x="575.628725" xlink:href="#mfa6d405bd4" y="136.788916"/>
     <use style="fill:#5784db;opacity:0.75;" x="583.724996" xlink:href="#mfa6d405bd4" y="137.583927"/>
     <use style="fill:#5784db;opacity:0.75;" x="590.670058" xlink:href="#mfa6d405bd4" y="135.729489"/>
     <use style="fill:#5784db;opacity:0.75;" x="597.62072" xlink:href="#mfa6d405bd4" y="134.847683"/>
     <use style="fill:#5784db;opacity:0.75;" x="603.648165" xlink:href="#mfa6d405bd4" y="132.726673"/>
    </g>
   </g>
   <g id="line2d_68">
    <path d="M 575.628725 94.254014 
L 583.724996 94.254014 
L 590.670058 94.254014 
L 597.62072 94.254014 
L 603.648165 94.254014 
" style="fill:none;stroke:#5784db;stroke-linecap:round;stroke-width:5;"/>
   </g>
   <g id="line2d_69">
    <path d="M 96.375438 217.954325 
L 339.492655 164.481746 
L 401.474691 154.353708 
L 441.161904 144.592607 
L 469.051219 143.591636 
L 490.572726 142.163921 
L 508.100482 138.030806 
L 522.887253 136.413602 
L 535.849401 131.114064 
L 547.755295 125.018125 
L 558.468151 124.508528 
L 567.43627 124.291598 
L 575.628725 121.855108 
L 583.724996 122.030514 
L 590.670058 119.89358 
L 597.62072 117.312817 
L 603.648165 114.556801 
" style="fill:none;opacity:0.75;stroke:#c957db;stroke-dasharray:7.4,3.2;stroke-dashoffset:0;stroke-width:2;"/>
    <defs>
     <path d="M 0 5 
C 1.326016 5 2.597899 4.473168 3.535534 3.535534 
C 4.473168 2.597899 5 1.326016 5 0 
C 5 -1.326016 4.473168 -2.597899 3.535534 -3.535534 
C 2.597899 -4.473168 1.326016 -5 0 -5 
C -1.326016 -5 -2.597899 -4.473168 -3.535534 -3.535534 
C -4.473168 -2.597899 -5 -1.326016 -5 0 
C -5 1.326016 -4.473168 2.597899 -3.535534 3.535534 
C -2.597899 4.473168 -1.326016 5 0 5 
z
" id="meea0451a90"/>
    </defs>
    <g>
     <use style="fill:#c957db;opacity:0.75;" x="96.375438" xlink:href="#meea0451a90" y="217.954325"/>
     <use style="fill:#c957db;opacity:0.75;" x="339.492655" xlink:href="#meea0451a90" y="164.481746"/>
     <use style="fill:#c957db;opacity:0.75;" x="401.474691" xlink:href="#meea0451a90" y="154.353708"/>
     <use style="fill:#c957db;opacity:0.75;" x="441.161904" xlink:href="#meea0451a90" y="144.592607"/>
     <use style="fill:#c957db;opacity:0.75;" x="469.051219" xlink:href="#meea0451a90" y="143.591636"/>
     <use style="fill:#c957db;opacity:0.75;" x="490.572726" xlink:href="#meea0451a90" y="142.163921"/>
     <use style="fill:#c957db;opacity:0.75;" x="508.100482" xlink:href="#meea0451a90" y="138.030806"/>
     <use style="fill:#c957db;opacity:0.75;" x="522.887253" xlink:href="#meea0451a90" y="136.413602"/>
     <use style="fill:#c957db;opacity:0.75;" x="535.849401" xlink:href="#meea0451a90" y="131.114064"/>
     <use style="fill:#c957db;opacity:0.75;" x="547.755295" xlink:href="#meea0451a90" y="125.018125"/>
     <use style="fill:#c957db;opacity:0.75;" x="558.468151" xlink:href="#meea0451a90" y="124.508528"/>
     <use style="fill:#c957db;opacity:0.75;" x="567.43627" xlink:href="#meea0451a90" y="124.291598"/>
     <use style="fill:#c957db;opacity:0.75;" x="575.628725" xlink:href="#meea0451a90" y="121.855108"/>
     <use style="fill:#c957db;opacity:0.75;" x="583.724996" xlink:href="#meea0451a90" y="122.030514"/>
     <use style="fill:#c957db;opacity:0.75;" x="590.670058" xlink:href="#meea0451a90" y="119.89358"/>
     <use style="fill:#c957db;opacity:0.75;" x="597.62072" xlink:href="#meea0451a90" y="117.312817"/>
     <use style="fill:#c957db;opacity:0.75;" x="603.648165" xlink:href="#meea0451a90" y="114.556801"/>
    </g>
   </g>
   <g id="line2d_70">
    <path d="M 575.628725 49.520148 
L 583.724996 49.520148 
L 590.670058 49.520148 
L 597.62072 49.520148 
L 603.648165 49.520148 
" style="fill:none;stroke:#c957db;stroke-linecap:round;stroke-width:5;"/>
   </g>
   <g id="patch_3">
    <path d="M 71.011802 230.788497 
L 71.011802 35.092497 
" style="fill:none;"/>
   </g>
   <g id="patch_4">
    <path d="M 629.011802 230.788497 
L 629.011802 35.092497 
" style="fill:none;"/>
   </g>
   <g id="patch_5">
    <path d="M 71.011802 230.788497 
L 629.011802 230.788497 
" style="fill:none;"/>
   </g>
   <g id="patch_6">
    <path d="M 71.011802 35.092497 
L 629.011802 35.092497 
" style="fill:none;"/>
   </g>
   <g id="text_12">
    <!-- $\bar\lambda(\rho_{0}, \mathcal{M}_{d})$ for $\rho_0 = \vert 0\rangle\langle 0|$ -->
    <defs>
     <path d="M 30.59375 -24.390625 
C 30.59375 -24.296875 30.59375 -24.09375 30.296875 -23.796875 
C 25.703125 -19.125 13.40625 -6.359375 13.40625 24.6875 
C 13.40625 55.765625 25.5 68.421875 30.40625 73.390625 
C 30.40625 73.5 30.59375 73.703125 30.59375 74 
C 30.59375 74.296875 30.296875 74.5 29.90625 74.5 
C 28.796875 74.5 20.296875 67.125 15.40625 56.15625 
C 10.40625 45.109375 9 34.359375 9 24.8125 
C 9 17.625 9.703125 5.484375 15.703125 -7.359375 
C 20.5 -17.734375 28.703125 -25 29.90625 -25 
C 30.40625 -25 30.59375 -24.796875 30.59375 -24.390625 
z
" id="CMR17-40"/>
     <path d="M 3.09375 -17.296875 
C 3 -17.796875 2.796875 -18.390625 2.796875 -19 
C 2.796875 -20.5 4 -21.5 5.5 -21.5 
C 7 -21.5 8.40625 -20.5 9 -19.09375 
C 9.40625 -18.1875 12.203125 -6.203125 15.40625 6.09375 
C 17.40625 1.09375 21.09375 -1 25 -1 
C 36.296875 -1 49.09375 12.96875 49.09375 28.046875 
C 49.09375 38.71875 42.59375 44 35.703125 44 
C 26.90625 44 16.203125 34.921875 12.90625 21.640625 
z
M 24.90625 1 
C 18.09375 1 16.40625 8.890625 16.40625 10.078125 
C 16.40625 10.6875 18.90625 20.234375 19.203125 21.734375 
C 24.296875 41.71875 34.09375 41.71875 35.59375 41.71875 
C 40.09375 41.71875 42.59375 37.65625 42.59375 31.8125 
C 42.59375 26.75 39.90625 16.9375 38.203125 12.796875 
C 35.203125 5.953125 30 1 24.90625 1 
z
" id="CMMI12-26"/>
     <path d="M 19.5 -0.484375 
C 19.5 5.359375 17.59375 9.671875 13.5 9.671875 
C 10.296875 9.671875 8.703125 7.078125 8.703125 4.890625 
C 8.703125 2.6875 10.203125 0 13.59375 0 
C 14.90625 0 16 0.40625 16.90625 1.296875 
C 17.09375 1.5 17.203125 1.5 17.296875 1.5 
C 17.5 1.5 17.5 0.078125 17.5 -0.421875 
C 17.5 -3.75 16.90625 -10.296875 11.09375 -16.875 
C 10 -18.078125 10 -18.28125 10 -18.484375 
C 10 -19 10.5 -19.5 11 -19.5 
C 11.796875 -19.5 19.5 -12.046875 19.5 -0.484375 
z
" id="CMMI12-59"/>
     <path d="M 38.5 56.703125 
C 41.203125 43.703125 45.59375 22.296875 51.296875 10.703125 
C 53.5 6.390625 54.59375 4.203125 55.59375 4.203125 
C 56 4.203125 56.203125 4.203125 58 6 
C 65.59375 13.265625 70.796875 19.046875 77.796875 27.03125 
L 99.703125 52.453125 
C 98.296875 43.96875 94.703125 21.53125 94.703125 9.859375 
C 94.703125 7.171875 94.796875 4.578125 95.09375 1.875 
C 95.203125 0.796875 95.59375 -2.109375 99.796875 -2.109375 
C 104 -2.109375 111.59375 2.296875 111.59375 4.296875 
C 111.59375 4.890625 111 5 110.703125 5 
C 109.40625 5 107.40625 4.109375 106.296875 3.40625 
C 103.90625 3.71875 103.703125 5.3125 103.5 7.59375 
C 103.203125 10.78125 103.203125 13.78125 103.203125 14.1875 
C 103.203125 25.234375 107.59375 55.4375 110.5 67.8125 
C 110.59375 68.515625 110.703125 68.6875 110.703125 69.5 
C 110.703125 69.890625 110.59375 71 109.90625 71 
C 109.5 71 109.40625 70.890625 107.5 68.6875 
C 98.09375 57.34375 68.90625 22.4375 59 14.0625 
C 56.5 19.328125 54.703125 23.125 51.203125 37.0625 
C 48.296875 48.3125 46.59375 56.5625 44.90625 66.21875 
C 44.59375 67.609375 44.09375 70.296875 44.09375 70.5 
C 43.796875 71 43.296875 71 43 71 
C 41.203125 71 37 68.8125 36.703125 66.71875 
C 35.5 58.359375 33.5 45.203125 26.5 26.203125 
C 18.5 5 16.296875 5 14.40625 5 
C 13.09375 5 9.40625 5.796875 7.203125 7.78125 
C 6.703125 8.28125 6.5 8.28125 6.296875 8.28125 
C 4.90625 8.28125 2.703125 3.75 2.703125 0.9375 
C 2.703125 0.03125 2.703125 -1.1875 5.90625 -2.875 
C 8.40625 -4.203125 10.796875 -4.203125 11.296875 -4.203125 
C 17.5 -4.203125 23.40625 10.09375 25.40625 15.203125 
C 30.09375 26.5 35.703125 42.296875 38.5 56.703125 
z
" id="CMSY10-77"/>
     <path d="M 50.296875 66.515625 
C 50.40625 66.90625 50.59375 67.5 50.59375 68 
C 50.59375 69 49.59375 69 49.40625 69 
C 49.296875 69 44.40625 68.5625 43.90625 68.4375 
C 42.203125 68.328125 40.703125 68.09375 38.90625 68.09375 
C 36.40625 67.890625 35.703125 67.796875 35.703125 66 
C 35.703125 65 36.5 65 37.90625 65 
C 42.796875 65 42.90625 64.109375 42.90625 63.125 
C 42.90625 62.53125 42.703125 61.75 42.59375 61.453125 
L 36.5 37.421875 
C 35.40625 40.015625 32.703125 44 27.5 44 
C 16.203125 44 4 29.4375 4 14.671875 
C 4 4.796875 9.796875 -1 16.59375 -1 
C 22.09375 -1 26.796875 3.296875 29.59375 6.59375 
C 30.59375 0.703125 35.296875 -1 38.296875 -1 
C 41.296875 -1 43.703125 0.796875 45.5 4.390625 
C 47.09375 7.78125 48.5 13.875 48.5 14.265625 
C 48.5 14.765625 48.09375 15.171875 47.5 15.171875 
C 46.59375 15.171875 46.5 14.671875 46.09375 13.171875 
C 44.59375 7.28125 42.703125 1 38.59375 1 
C 35.703125 1 35.5 3.578125 35.5 5.578125 
C 35.5 5.96875 35.5 8.046875 36.203125 10.84375 
z
M 30.09375 11.875 
C 29.59375 10.171875 29.59375 9.984375 28.203125 8.078125 
C 26 5.28125 21.59375 1 16.90625 1 
C 12.796875 1 10.5 4.6875 10.5 10.578125 
C 10.5 16.0625 13.59375 27.234375 15.5 31.4375 
C 18.90625 38.421875 23.59375 42.015625 27.5 42.015625 
C 34.09375 42.015625 35.40625 33.828125 35.40625 33.03125 
C 35.40625 32.9375 35.09375 31.625 35 31.4375 
z
" id="CMMI12-100"/>
     <path d="M 26.296875 24.6875 
C 26.296875 31.875 25.59375 44.015625 19.59375 56.859375 
C 14.796875 67.234375 6.59375 74.5 5.40625 74.5 
C 5.09375 74.5 4.703125 74.390625 4.703125 73.890625 
C 4.703125 73.703125 4.796875 73.59375 4.90625 73.390625 
C 9.703125 68.40625 21.90625 55.75 21.90625 24.75 
C 21.90625 -6.359375 9.796875 -19.015625 4.90625 -24.015625 
C 4.796875 -24.203125 4.703125 -24.3125 4.703125 -24.5 
C 4.703125 -25 5.09375 -25 5.40625 -25 
C 6.5 -25 15 -17.625 19.90625 -6.65625 
C 24.90625 4.390625 26.296875 15.140625 26.296875 24.6875 
z
" id="CMR17-41"/>
     <path d="M 16.796875 37 
L 26.90625 37 
L 26.90625 42.765625 
L 16.59375 42.765625 
L 16.59375 55.609375 
C 16.59375 62.71875 22 63.9375 25.09375 63.9375 
C 26.09375 63.9375 28.90625 63.9375 32.5 62.640625 
L 32.5 69.203125 
C 30.203125 69.703125 27.40625 70 25.203125 70 
C 15.90625 70 9.40625 62.390625 9.40625 52.484375 
L 9.40625 42.765625 
L 2.5 42.765625 
L 2.5 37 
L 9.40625 37 
L 9.40625 0 
L 16.796875 0 
z
" id="CMSS17-102"/>
     <path d="M 44.203125 21.1875 
C 44.203125 34 34.703125 44 23.5 44 
C 12 44 2.703125 33.703125 2.703125 21.1875 
C 2.703125 8.5 12.296875 -1 23.40625 -1 
C 34.796875 -1 44.203125 8.796875 44.203125 21.1875 
z
M 23.5 5.265625 
C 16.40625 5.265625 10.296875 11.078125 10.296875 22 
C 10.296875 33.609375 17.40625 37.921875 23.40625 37.921875 
C 29.90625 37.921875 36.59375 33.21875 36.59375 22 
C 36.59375 10.671875 30.09375 5.265625 23.5 5.265625 
z
" id="CMSS17-111"/>
     <path d="M 14.90625 21.296875 
C 14.90625 30.703125 21.796875 37 30.59375 37 
L 30.59375 43.578125 
C 24.203125 43.578125 18.203125 40.390625 14.59375 35.203125 
L 14.59375 43.09375 
L 7.5 43.09375 
L 7.5 0 
L 14.90625 0 
z
" id="CMSS17-114"/>
     <path d="M 64.296875 31.515625 
C 65.796875 31.515625 67.296875 31.515625 67.296875 33.203125 
C 67.296875 35 65.59375 35 63.90625 35 
L 8 35 
C 6.296875 35 4.59375 35 4.59375 33.203125 
C 4.59375 31.515625 6.09375 31.515625 7.59375 31.515625 
z
M 63.90625 14 
C 65.59375 14 67.296875 14 67.296875 15.796875 
C 67.296875 17.484375 65.796875 17.484375 64.296875 17.484375 
L 7.59375 17.484375 
C 6.09375 17.484375 4.59375 17.484375 4.59375 15.796875 
C 4.59375 14 6.296875 14 8 14 
z
" id="CMR17-61"/>
     <path d="M 15.90625 71.40625 
C 15.90625 73.203125 15.90625 75 13.90625 75 
C 11.90625 75 11.90625 73.203125 11.90625 71.40625 
L 11.90625 -21.40625 
C 11.90625 -23.203125 11.90625 -25 13.90625 -25 
C 15.90625 -25 15.90625 -23.203125 15.90625 -21.40625 
z
" id="CMSY10-106"/>
     <path d="M 27.296875 23.296875 
C 27.796875 24.5 27.796875 24.703125 27.796875 25 
C 27.796875 25.296875 27.796875 25.5 27.296875 26.703125 
L 9.796875 72.703125 
C 9.203125 74.40625 8.59375 75 7.5 75 
C 6.40625 75 5.5 74.09375 5.5 73 
C 5.5 72.703125 5.5 72.5 6 71.40625 
L 23.703125 25 
L 6 -21.203125 
C 5.5 -22.296875 5.5 -22.5 5.5 -23 
C 5.5 -24.09375 6.40625 -25 7.5 -25 
C 8.796875 -25 9.203125 -24 9.59375 -23 
z
" id="CMSY10-105"/>
     <path d="M 32.796875 71.203125 
C 33.296875 72.296875 33.296875 72.5 33.296875 73 
C 33.296875 74.09375 32.40625 75 31.296875 75 
C 30.40625 75 29.703125 74.5 29 72.703125 
L 11.5 26.796875 
C 11.296875 26.203125 11 25.59375 11 25 
C 11 24.703125 11 24.5 11.5 23.296875 
L 29 -22.59375 
C 29.40625 -23.703125 29.90625 -25 31.296875 -25 
C 32.40625 -25 33.296875 -24.09375 33.296875 -23 
C 33.296875 -22.703125 33.296875 -22.5 32.796875 -21.40625 
L 15.09375 25 
z
" id="CMSY10-104"/>
    </defs>
    <g style="fill:#262626;" transform="translate(223.089559 29.092497)scale(0.25 -0.25)">
     <use transform="translate(5.606797 41.240535)scale(0.996264)" xlink:href="#CMR17-22"/>
     <use transform="translate(0 14.943915)scale(0.996264)" xlink:href="#CMMI12-21"/>
     <use transform="translate(56.904072 14.943915)scale(0.996264)" xlink:href="#CMR17-40"/>
     <use transform="translate(92.18484 14.943915)scale(0.996264)" xlink:href="#CMMI12-26"/>
     <use transform="translate(142.499213 0)scale(0.697382)" xlink:href="#CMR17-48"/>
     <use transform="translate(174.980527 14.943915)scale(0.996264)" xlink:href="#CMMI12-59"/>
     <use transform="translate(218.682109 14.943915)scale(0.996264)" xlink:href="#CMSY10-77"/>
     <use transform="translate(338.32345 0)scale(0.697382)" xlink:href="#CMMI12-100"/>
     <use transform="translate(374.303789 14.943915)scale(0.996264)" xlink:href="#CMR17-41"/>
     <use transform="translate(440.813669 14.943915)scale(0.996264)" xlink:href="#CMSS17-102"/>
     <use transform="translate(469.440328 14.943915)scale(0.996264)" xlink:href="#CMSS17-111"/>
     <use transform="translate(513.681498 14.943915)scale(0.996264)" xlink:href="#CMSS17-114"/>
     <use transform="translate(576.820383 14.943915)scale(0.996264)" xlink:href="#CMMI12-26"/>
     <use transform="translate(627.134756 0)scale(0.697382)" xlink:href="#CMR17-48"/>
     <use transform="translate(687.290079 14.943915)scale(0.996264)" xlink:href="#CMR17-61"/>
     <use transform="translate(786.678876 14.943915)scale(0.996264)" xlink:href="#CMSY10-106"/>
     <use transform="translate(814.35296 14.943915)scale(0.996264)" xlink:href="#CMR17-48"/>
     <use transform="translate(860.043438 14.943915)scale(0.996264)" xlink:href="#CMSY10-105"/>
     <use transform="translate(898.787171 14.943915)scale(0.996264)" xlink:href="#CMSY10-104"/>
     <use transform="translate(937.530905 14.943915)scale(0.996264)" xlink:href="#CMR17-48"/>
     <use transform="translate(983.221382 14.943915)scale(0.996264)" xlink:href="#CMSY10-106"/>
    </g>
   </g>
   <g id="legend_1">
    <g id="patch_7">
     <path d="M 86.411802 144.682061 
L 370.778163 144.682061 
Q 375.178163 144.682061 375.178163 140.282061 
L 375.178163 50.492497 
Q 375.178163 46.092497 370.778163 46.092497 
L 86.411802 46.092497 
Q 82.011802 46.092497 82.011802 50.492497 
L 82.011802 140.282061 
Q 82.011802 144.682061 86.411802 144.682061 
z
" style="fill:#eaeaf2;opacity:0.8;stroke:#cccccc;stroke-linejoin:miter;stroke-width:0.3;"/>
    </g>
    <g id="line2d_71">
     <path d="M 90.811802 62.592497 
L 134.811802 62.592497 
" style="fill:none;opacity:0.75;stroke:#db5f57;stroke-dasharray:7.4,3.2;stroke-dashoffset:0;stroke-width:2;"/>
    </g>
    <g id="line2d_72">
     <g>
      <use style="fill:#db5f57;opacity:0.75;" x="112.811802" xlink:href="#m6962fb56b5" y="62.592497"/>
     </g>
    </g>
    <g id="text_13">
     <!-- $d=2$ -->
     <g style="fill:#262626;" transform="translate(152.411802 70.292497)scale(0.22 -0.22)">
      <use transform="scale(0.996264)" xlink:href="#CMMI12-100"/>
      <use transform="translate(78.363106 0)scale(0.996264)" xlink:href="#CMR17-61"/>
      <use transform="translate(177.751903 0)scale(0.996264)" xlink:href="#CMR17-50"/>
     </g>
    </g>
    <g id="line2d_73">
     <path d="M 90.811802 93.255685 
L 134.811802 93.255685 
" style="fill:none;opacity:0.75;stroke:#b9db57;stroke-dasharray:7.4,3.2;stroke-dashoffset:0;stroke-width:2;"/>
    </g>
    <g id="line2d_74">
     <g>
      <use style="fill:#b9db57;opacity:0.75;" x="112.811802" xlink:href="#m73d9def725" y="93.255685"/>
     </g>
    </g>
    <g id="text_14">
     <!-- $d=4$ -->
     <g style="fill:#262626;" transform="translate(152.411802 100.955685)scale(0.22 -0.22)">
      <use transform="scale(0.996264)" xlink:href="#CMMI12-100"/>
      <use transform="translate(78.363106 0)scale(0.996264)" xlink:href="#CMR17-61"/>
      <use transform="translate(177.751903 0)scale(0.996264)" xlink:href="#CMR17-52"/>
     </g>
    </g>
    <g id="line2d_75">
     <path d="M 90.811802 123.918873 
L 134.811802 123.918873 
" style="fill:none;opacity:0.75;stroke:#57db94;stroke-dasharray:7.4,3.2;stroke-dashoffset:0;stroke-width:2;"/>
    </g>
    <g id="line2d_76">
     <g>
      <use style="fill:#57db94;opacity:0.75;" x="112.811802" xlink:href="#ma51a33b0bb" y="123.918873"/>
     </g>
    </g>
    <g id="text_15">
     <!-- $d=6$ -->
     <defs>
      <path d="M 10.59375 34 
C 10.59375 57.65625 21.796875 63 28.296875 63 
C 30.40625 63 35.5 62.640625 37.5 59 
C 35.90625 59 32.90625 59 32.90625 55.515625 
C 32.90625 52.828125 35.09375 51.921875 36.5 51.921875 
C 37.40625 51.921875 40.09375 52.3125 40.09375 55.625 
C 40.09375 61.78125 35.09375 65.296875 28.203125 65.296875 
C 16.296875 65.296875 3.796875 52.96875 3.796875 31 
C 3.796875 3.953125 15.09375 -2 23.09375 -2 
C 32.796875 -2 42 6.671875 42 20.046875 
C 42 32.515625 33.90625 41.59375 23.703125 41.59375 
C 17.59375 41.59375 13.09375 37.609375 10.59375 30.625 
z
M 23.09375 0.390625 
C 10.796875 0.390625 10.796875 18.75 10.796875 22.4375 
C 10.796875 29.625 14.203125 40 23.5 40 
C 25.203125 40 30.09375 40 33.40625 33.125 
C 35.203125 29.21875 35.203125 25.140625 35.203125 20.140625 
C 35.203125 14.75 35.203125 10.78125 33.09375 6.78125 
C 30.90625 2.671875 27.703125 0.390625 23.09375 0.390625 
z
" id="CMR17-54"/>
     </defs>
     <g style="fill:#262626;" transform="translate(152.411802 131.618873)scale(0.22 -0.22)">
      <use transform="scale(0.996264)" xlink:href="#CMMI12-100"/>
      <use transform="translate(78.363106 0)scale(0.996264)" xlink:href="#CMR17-61"/>
      <use transform="translate(177.751903 0)scale(0.996264)" xlink:href="#CMR17-54"/>
     </g>
    </g>
    <g id="line2d_77">
     <path d="M 245.56903 62.592497 
L 289.56903 62.592497 
" style="fill:none;opacity:0.75;stroke:#5784db;stroke-dasharray:7.4,3.2;stroke-dashoffset:0;stroke-width:2;"/>
    </g>
    <g id="line2d_78">
     <g>
      <use style="fill:#5784db;opacity:0.75;" x="267.56903" xlink:href="#mfa6d405bd4" y="62.592497"/>
     </g>
    </g>
    <g id="text_16">
     <!-- $d=8$ -->
     <defs>
      <path d="M 27.203125 35.375 
C 33.5 38.546875 39.90625 43.328125 39.90625 50.984375 
C 39.90625 60.015625 31.09375 65.296875 23 65.296875 
C 13.90625 65.296875 5.90625 58.734375 5.90625 49.6875 
C 5.90625 47.203125 6.5 42.921875 10.40625 39.140625 
C 11.40625 38.15625 15.59375 35.171875 18.296875 33.28125 
C 13.796875 30.984375 3.296875 25.53125 3.296875 14.59375 
C 3.296875 4.359375 13.09375 -2 22.796875 -2 
C 33.5 -2 42.5 5.65625 42.5 15.78125 
C 42.5 24.84375 36.40625 29.015625 32.40625 31.703125 
z
M 14.09375 44.09375 
C 13.296875 44.59375 9.296875 47.671875 9.296875 52.359375 
C 9.296875 58.421875 15.59375 63 22.796875 63 
C 30.703125 63 36.5 57.4375 36.5 50.96875 
C 36.5 41.703125 26.09375 36.421875 25.59375 36.421875 
C 25.5 36.421875 25.40625 36.421875 24.59375 37.03125 
z
M 32.5 23.734375 
C 34 22.640625 38.796875 19.375 38.796875 13.296875 
C 38.796875 5.953125 31.40625 0.390625 23 0.390625 
C 13.90625 0.390625 7 6.84375 7 14.6875 
C 7 22.546875 13.09375 29.09375 20 32.1875 
z
" id="CMR17-56"/>
     </defs>
     <g style="fill:#262626;" transform="translate(307.16903 70.292497)scale(0.22 -0.22)">
      <use transform="scale(0.996264)" xlink:href="#CMMI12-100"/>
      <use transform="translate(78.363106 0)scale(0.996264)" xlink:href="#CMR17-61"/>
      <use transform="translate(177.751903 0)scale(0.996264)" xlink:href="#CMR17-56"/>
     </g>
    </g>
    <g id="line2d_79">
     <path d="M 245.56903 93.255685 
L 289.56903 93.255685 
" style="fill:none;opacity:0.75;stroke:#c957db;stroke-dasharray:7.4,3.2;stroke-dashoffset:0;stroke-width:2;"/>
    </g>
    <g id="line2d_80">
     <g>
      <use style="fill:#c957db;opacity:0.75;" x="267.56903" xlink:href="#meea0451a90" y="93.255685"/>
     </g>
    </g>
    <g id="text_17">
     <!-- $d=10$ -->
     <g style="fill:#262626;" transform="translate(307.16903 100.955685)scale(0.22 -0.22)">
      <use transform="scale(0.996264)" xlink:href="#CMMI12-100"/>
      <use transform="translate(78.363106 0)scale(0.996264)" xlink:href="#CMR17-61"/>
      <use transform="translate(177.751903 0)scale(0.996264)" xlink:href="#CMR17-49"/>
      <use transform="translate(223.44238 0)scale(0.996264)" xlink:href="#CMR17-48"/>
     </g>
    </g>
   </g>
  </g>
  <g id="axes_2">
   <g id="patch_8">
    <path d="M 71.011802 524.332497 
L 629.011802 524.332497 
L 629.011802 328.636497 
L 71.011802 328.636497 
z
" style="fill:#eaeaf2;"/>
   </g>
   <g id="matplotlib.axis_3">
    <g id="xtick_48">
     <g id="line2d_81">
      <path clip-path="url(#p17844779be)" d="M 96.375438 524.332497 
L 96.375438 328.636497 
" style="fill:none;stroke:#ffffff;stroke-linecap:round;"/>
     </g>
     <g id="line2d_82"/>
     <g id="text_18">
      <!-- $10^{0}$ -->
      <g style="fill:#262626;" transform="translate(83.823113 545.169494)scale(0.2 -0.2)">
       <use transform="scale(0.996264)" xlink:href="#CMR17-49"/>
       <use transform="translate(45.690477 0)scale(0.996264)" xlink:href="#CMR17-48"/>
       <use transform="translate(91.380954 36.153639)scale(0.697382)" xlink:href="#CMR17-48"/>
      </g>
     </g>
    </g>
    <g id="xtick_49">
     <g id="line2d_83">
      <path clip-path="url(#p17844779be)" d="M 211.879971 524.332497 
L 211.879971 328.636497 
" style="fill:none;stroke:#ffffff;stroke-linecap:round;"/>
     </g>
     <g id="line2d_84"/>
     <g id="text_19">
      <!-- $10^{1}$ -->
      <g style="fill:#262626;" transform="translate(199.327646 545.169494)scale(0.2 -0.2)">
       <use transform="scale(0.996264)" xlink:href="#CMR17-49"/>
       <use transform="translate(45.690477 0)scale(0.996264)" xlink:href="#CMR17-48"/>
       <use transform="translate(91.380954 36.153639)scale(0.697382)" xlink:href="#CMR17-49"/>
      </g>
     </g>
    </g>
    <g id="xtick_50">
     <g id="line2d_85">
      <path clip-path="url(#p17844779be)" d="M 327.384504 524.332497 
L 327.384504 328.636497 
" style="fill:none;stroke:#ffffff;stroke-linecap:round;"/>
     </g>
     <g id="line2d_86"/>
     <g id="text_20">
      <!-- $10^{2}$ -->
      <g style="fill:#262626;" transform="translate(314.832179 545.169494)scale(0.2 -0.2)">
       <use transform="scale(0.996264)" xlink:href="#CMR17-49"/>
       <use transform="translate(45.690477 0)scale(0.996264)" xlink:href="#CMR17-48"/>
       <use transform="translate(91.380954 36.153639)scale(0.697382)" xlink:href="#CMR17-50"/>
      </g>
     </g>
    </g>
    <g id="xtick_51">
     <g id="line2d_87">
      <path clip-path="url(#p17844779be)" d="M 442.889037 524.332497 
L 442.889037 328.636497 
" style="fill:none;stroke:#ffffff;stroke-linecap:round;"/>
     </g>
     <g id="line2d_88"/>
     <g id="text_21">
      <!-- $10^{3}$ -->
      <g style="fill:#262626;" transform="translate(430.336712 545.169494)scale(0.2 -0.2)">
       <use transform="scale(0.996264)" xlink:href="#CMR17-49"/>
       <use transform="translate(45.690477 0)scale(0.996264)" xlink:href="#CMR17-48"/>
       <use transform="translate(91.380954 36.153639)scale(0.697382)" xlink:href="#CMR17-51"/>
      </g>
     </g>
    </g>
    <g id="xtick_52">
     <g id="line2d_89">
      <path clip-path="url(#p17844779be)" d="M 558.39357 524.332497 
L 558.39357 328.636497 
" style="fill:none;stroke:#ffffff;stroke-linecap:round;"/>
     </g>
     <g id="line2d_90"/>
     <g id="text_22">
      <!-- $10^{4}$ -->
      <g style="fill:#262626;" transform="translate(545.841245 545.169494)scale(0.2 -0.2)">
       <use transform="scale(0.996264)" xlink:href="#CMR17-49"/>
       <use transform="translate(45.690477 0)scale(0.996264)" xlink:href="#CMR17-48"/>
       <use transform="translate(91.380954 36.153639)scale(0.697382)" xlink:href="#CMR17-52"/>
      </g>
     </g>
    </g>
    <g id="xtick_53">
     <g id="line2d_91"/>
    </g>
    <g id="xtick_54">
     <g id="line2d_92"/>
    </g>
    <g id="xtick_55">
     <g id="line2d_93"/>
    </g>
    <g id="xtick_56">
     <g id="line2d_94"/>
    </g>
    <g id="xtick_57">
     <g id="line2d_95"/>
    </g>
    <g id="xtick_58">
     <g id="line2d_96"/>
    </g>
    <g id="xtick_59">
     <g id="line2d_97"/>
    </g>
    <g id="xtick_60">
     <g id="line2d_98"/>
    </g>
    <g id="xtick_61">
     <g id="line2d_99"/>
    </g>
    <g id="xtick_62">
     <g id="line2d_100"/>
    </g>
    <g id="xtick_63">
     <g id="line2d_101"/>
    </g>
    <g id="xtick_64">
     <g id="line2d_102"/>
    </g>
    <g id="xtick_65">
     <g id="line2d_103"/>
    </g>
    <g id="xtick_66">
     <g id="line2d_104"/>
    </g>
    <g id="xtick_67">
     <g id="line2d_105"/>
    </g>
    <g id="xtick_68">
     <g id="line2d_106"/>
    </g>
    <g id="xtick_69">
     <g id="line2d_107"/>
    </g>
    <g id="xtick_70">
     <g id="line2d_108"/>
    </g>
    <g id="xtick_71">
     <g id="line2d_109"/>
    </g>
    <g id="xtick_72">
     <g id="line2d_110"/>
    </g>
    <g id="xtick_73">
     <g id="line2d_111"/>
    </g>
    <g id="xtick_74">
     <g id="line2d_112"/>
    </g>
    <g id="xtick_75">
     <g id="line2d_113"/>
    </g>
    <g id="xtick_76">
     <g id="line2d_114"/>
    </g>
    <g id="xtick_77">
     <g id="line2d_115"/>
    </g>
    <g id="xtick_78">
     <g id="line2d_116"/>
    </g>
    <g id="xtick_79">
     <g id="line2d_117"/>
    </g>
    <g id="xtick_80">
     <g id="line2d_118"/>
    </g>
    <g id="xtick_81">
     <g id="line2d_119"/>
    </g>
    <g id="xtick_82">
     <g id="line2d_120"/>
    </g>
    <g id="xtick_83">
     <g id="line2d_121"/>
    </g>
    <g id="xtick_84">
     <g id="line2d_122"/>
    </g>
    <g id="xtick_85">
     <g id="line2d_123"/>
    </g>
    <g id="xtick_86">
     <g id="line2d_124"/>
    </g>
    <g id="xtick_87">
     <g id="line2d_125"/>
    </g>
    <g id="xtick_88">
     <g id="line2d_126"/>
    </g>
    <g id="xtick_89">
     <g id="line2d_127"/>
    </g>
    <g id="xtick_90">
     <g id="line2d_128"/>
    </g>
    <g id="xtick_91">
     <g id="line2d_129"/>
    </g>
    <g id="text_23">
     <!-- Sample Size $N$ -->
     <g style="fill:#262626;" transform="translate(262.960315 573.800623)scale(0.3 -0.3)">
      <use transform="scale(0.996264)" xlink:href="#CMSS17-83"/>
      <use transform="translate(52.048516 0)scale(0.996264)" xlink:href="#CMSS17-97"/>
      <use transform="translate(96.970437 0)scale(0.996264)" xlink:href="#CMSS17-109"/>
      <use transform="translate(171.199691 0)scale(0.996264)" xlink:href="#CMSS17-112"/>
      <use transform="translate(219.404634 0)scale(0.996264)" xlink:href="#CMSS17-108"/>
      <use transform="translate(241.585357 0)scale(0.996264)" xlink:href="#CMSS17-101"/>
      <use transform="translate(314.453292 0)scale(0.996264)" xlink:href="#CMSS17-83"/>
      <use transform="translate(366.501808 0)scale(0.996264)" xlink:href="#CMSS17-105"/>
      <use transform="translate(388.682531 0)scale(0.996264)" xlink:href="#CMSS17-122"/>
      <use transform="translate(429.360403 0)scale(0.996264)" xlink:href="#CMSS17-101"/>
      <use transform="translate(502.228338 0)scale(0.996264)" xlink:href="#CMMI12-78"/>
     </g>
    </g>
   </g>
   <g id="matplotlib.axis_4">
    <g id="ytick_5">
     <g id="line2d_130">
      <path clip-path="url(#p17844779be)" d="M 71.011802 524.332497 
L 629.011802 524.332497 
" style="fill:none;stroke:#ffffff;stroke-linecap:round;"/>
     </g>
     <g id="line2d_131"/>
     <g id="text_24">
      <!-- $0$ -->
      <g style="fill:#262626;" transform="translate(54.873706 531.250996)scale(0.2 -0.2)">
       <use transform="scale(0.996264)" xlink:href="#CMR17-48"/>
      </g>
     </g>
    </g>
    <g id="ytick_6">
     <g id="line2d_132">
      <path clip-path="url(#p17844779be)" d="M 71.011802 470.811655 
L 629.011802 470.811655 
" style="fill:none;stroke:#ffffff;stroke-linecap:round;"/>
     </g>
     <g id="line2d_133"/>
     <g id="text_25">
      <!-- $25$ -->
      <defs>
       <path d="M 11.40625 57.6875 
C 12.40625 57.28125 16.5 56 20.703125 56 
C 30 56 35.09375 61.109375 38 64.0625 
C 38 64.953125 38 65.5 37.40625 65.5 
C 37.296875 65.5 37.09375 65.5 36.296875 65.046875 
C 32.796875 63.40625 28.703125 62.078125 23.703125 62.078125 
C 20.703125 62.078125 16.203125 62.484375 11.296875 64.671875 
C 10.203125 65.171875 10 65.171875 9.90625 65.171875 
C 9.40625 65.171875 9.296875 65.0625 9.296875 63.078125 
L 9.296875 34.421875 
C 9.296875 32.640625 9.296875 32.140625 10.296875 32.140625 
C 10.796875 32.140625 11 32.34375 11.5 33.03125 
C 14.703125 37.515625 19.09375 39.40625 24.09375 39.40625 
C 27.59375 39.40625 35.09375 37.21875 35.09375 20.140625 
C 35.09375 16.953125 35.09375 11.171875 32.09375 6.578125 
C 29.59375 2.484375 25.703125 0.390625 21.40625 0.390625 
C 14.796875 0.390625 8.09375 5 6.296875 12.71875 
C 6.703125 12.609375 7.5 12.421875 7.90625 12.421875 
C 9.203125 12.421875 11.703125 13.125 11.703125 16.21875 
C 11.703125 18.90625 9.796875 20 7.90625 20 
C 5.59375 20 4.09375 18.59375 4.09375 15.796875 
C 4.09375 7.09375 11 -2 21.59375 -2 
C 31.90625 -2 41.703125 6.875 41.703125 19.75 
C 41.703125 31.71875 33.90625 41 24.203125 41 
C 19.09375 41 14.796875 39.109375 11.40625 35.53125 
z
" id="CMR17-53"/>
      </defs>
      <g style="fill:#262626;" transform="translate(45.735611 477.730154)scale(0.2 -0.2)">
       <use transform="scale(0.996264)" xlink:href="#CMR17-50"/>
       <use transform="translate(45.690477 0)scale(0.996264)" xlink:href="#CMR17-53"/>
      </g>
     </g>
    </g>
    <g id="ytick_7">
     <g id="line2d_134">
      <path clip-path="url(#p17844779be)" d="M 71.011802 417.290814 
L 629.011802 417.290814 
" style="fill:none;stroke:#ffffff;stroke-linecap:round;"/>
     </g>
     <g id="line2d_135"/>
     <g id="text_26">
      <!-- $50$ -->
      <g style="fill:#262626;" transform="translate(45.735611 424.209312)scale(0.2 -0.2)">
       <use transform="scale(0.996264)" xlink:href="#CMR17-53"/>
       <use transform="translate(45.690477 0)scale(0.996264)" xlink:href="#CMR17-48"/>
      </g>
     </g>
    </g>
    <g id="ytick_8">
     <g id="line2d_136">
      <path clip-path="url(#p17844779be)" d="M 71.011802 363.769972 
L 629.011802 363.769972 
" style="fill:none;stroke:#ffffff;stroke-linecap:round;"/>
     </g>
     <g id="line2d_137"/>
     <g id="text_27">
      <!-- $75$ -->
      <defs>
       <path d="M 45.09375 61.578125 
L 45.09375 63.765625 
L 21.59375 63.765625 
C 9.90625 63.765625 9.703125 65.078125 9.296875 67 
L 7.5 67 
L 4.59375 48.34375 
L 6.40625 48.34375 
C 6.703125 50.234375 7.40625 55.3125 8.59375 57.203125 
C 9.203125 58 16.59375 58 18.296875 58 
L 40.296875 58 
L 29.203125 41.578125 
C 21.796875 30.53125 16.703125 15.609375 16.703125 2.578125 
C 16.703125 1.390625 16.703125 -2 20.296875 -2 
C 23.90625 -2 23.90625 1.390625 23.90625 2.671875 
L 23.90625 7.265625 
C 23.90625 23.5625 26.703125 34.3125 31.296875 41.1875 
z
" id="CMR17-55"/>
      </defs>
      <g style="fill:#262626;" transform="translate(45.735611 370.68847)scale(0.2 -0.2)">
       <use transform="scale(0.996264)" xlink:href="#CMR17-55"/>
       <use transform="translate(45.690477 0)scale(0.996264)" xlink:href="#CMR17-53"/>
      </g>
     </g>
    </g>
    <g id="text_28">
     <!-- $\bar{\lambda}$ -->
     <g style="fill:#262626;" transform="translate(7.2 420.671047)scale(0.3 -0.3)">
      <use transform="translate(5.606797 26.296621)scale(0.996264)" xlink:href="#CMR17-22"/>
      <use transform="scale(0.996264)" xlink:href="#CMMI12-21"/>
     </g>
    </g>
   </g>
   <g id="line2d_138">
    <path d="M 96.375438 516.707563 
L 353.706451 477.695686 
L 419.312253 469.137573 
L 461.319771 465.811045 
L 490.839629 463.098498 
L 513.619386 459.853027 
L 532.171898 457.312651 
L 547.823174 455.57559 
L 561.543152 455.391425 
L 574.145122 453.754648 
L 585.484302 454.378402 
L 594.976741 454.199752 
L 603.648165 452.509872 
" style="fill:none;opacity:0.75;stroke:#db5f57;stroke-dasharray:7.4,3.2;stroke-dashoffset:0;stroke-width:2;"/>
    <g>
     <use style="fill:#db5f57;opacity:0.75;" x="96.375438" xlink:href="#m6962fb56b5" y="516.707563"/>
     <use style="fill:#db5f57;opacity:0.75;" x="353.706451" xlink:href="#m6962fb56b5" y="477.695686"/>
     <use style="fill:#db5f57;opacity:0.75;" x="419.312253" xlink:href="#m6962fb56b5" y="469.137573"/>
     <use style="fill:#db5f57;opacity:0.75;" x="461.319771" xlink:href="#m6962fb56b5" y="465.811045"/>
     <use style="fill:#db5f57;opacity:0.75;" x="490.839629" xlink:href="#m6962fb56b5" y="463.098498"/>
     <use style="fill:#db5f57;opacity:0.75;" x="513.619386" xlink:href="#m6962fb56b5" y="459.853027"/>
     <use style="fill:#db5f57;opacity:0.75;" x="532.171898" xlink:href="#m6962fb56b5" y="457.312651"/>
     <use style="fill:#db5f57;opacity:0.75;" x="547.823174" xlink:href="#m6962fb56b5" y="455.57559"/>
     <use style="fill:#db5f57;opacity:0.75;" x="561.543152" xlink:href="#m6962fb56b5" y="455.391425"/>
     <use style="fill:#db5f57;opacity:0.75;" x="574.145122" xlink:href="#m6962fb56b5" y="453.754648"/>
     <use style="fill:#db5f57;opacity:0.75;" x="585.484302" xlink:href="#m6962fb56b5" y="454.378402"/>
     <use style="fill:#db5f57;opacity:0.75;" x="594.976741" xlink:href="#m6962fb56b5" y="454.199752"/>
     <use style="fill:#db5f57;opacity:0.75;" x="603.648165" xlink:href="#m6962fb56b5" y="452.509872"/>
    </g>
   </g>
   <g id="line2d_139">
    <path d="M 561.543152 431.759237 
L 574.145122 431.759237 
L 585.484302 431.759237 
L 594.976741 431.759237 
L 603.648165 431.759237 
" style="fill:none;stroke:#db5f57;stroke-linecap:round;stroke-width:5;"/>
   </g>
   <g id="line2d_140">
    <path d="M 96.375438 515.920478 
L 353.706451 468.654972 
L 419.312253 456.872861 
L 461.319771 452.339004 
L 490.839629 448.967717 
L 513.619386 444.276675 
L 532.171898 440.739055 
L 547.823174 438.704852 
L 561.543152 438.275506 
L 574.145122 436.05639 
L 585.484302 435.643147 
L 594.976741 435.274812 
L 603.648165 433.157446 
" style="fill:none;opacity:0.75;stroke:#57db5f;stroke-dasharray:7.4,3.2;stroke-dashoffset:0;stroke-width:2;"/>
    <defs>
     <path d="M 0 5 
C 1.326016 5 2.597899 4.473168 3.535534 3.535534 
C 4.473168 2.597899 5 1.326016 5 0 
C 5 -1.326016 4.473168 -2.597899 3.535534 -3.535534 
C 2.597899 -4.473168 1.326016 -5 0 -5 
C -1.326016 -5 -2.597899 -4.473168 -3.535534 -3.535534 
C -4.473168 -2.597899 -5 -1.326016 -5 0 
C -5 1.326016 -4.473168 2.597899 -3.535534 3.535534 
C -2.597899 4.473168 -1.326016 5 0 5 
z
" id="m31eded51ce"/>
    </defs>
    <g>
     <use style="fill:#57db5f;opacity:0.75;" x="96.375438" xlink:href="#m31eded51ce" y="515.920478"/>
     <use style="fill:#57db5f;opacity:0.75;" x="353.706451" xlink:href="#m31eded51ce" y="468.654972"/>
     <use style="fill:#57db5f;opacity:0.75;" x="419.312253" xlink:href="#m31eded51ce" y="456.872861"/>
     <use style="fill:#57db5f;opacity:0.75;" x="461.319771" xlink:href="#m31eded51ce" y="452.339004"/>
     <use style="fill:#57db5f;opacity:0.75;" x="490.839629" xlink:href="#m31eded51ce" y="448.967717"/>
     <use style="fill:#57db5f;opacity:0.75;" x="513.619386" xlink:href="#m31eded51ce" y="444.276675"/>
     <use style="fill:#57db5f;opacity:0.75;" x="532.171898" xlink:href="#m31eded51ce" y="440.739055"/>
     <use style="fill:#57db5f;opacity:0.75;" x="547.823174" xlink:href="#m31eded51ce" y="438.704852"/>
     <use style="fill:#57db5f;opacity:0.75;" x="561.543152" xlink:href="#m31eded51ce" y="438.275506"/>
     <use style="fill:#57db5f;opacity:0.75;" x="574.145122" xlink:href="#m31eded51ce" y="436.05639"/>
     <use style="fill:#57db5f;opacity:0.75;" x="585.484302" xlink:href="#m31eded51ce" y="435.643147"/>
     <use style="fill:#57db5f;opacity:0.75;" x="594.976741" xlink:href="#m31eded51ce" y="435.274812"/>
     <use style="fill:#57db5f;opacity:0.75;" x="603.648165" xlink:href="#m31eded51ce" y="433.157446"/>
    </g>
   </g>
   <g id="line2d_141">
    <path d="M 561.543152 391.861108 
L 574.145122 391.861108 
L 585.484302 391.861108 
L 594.976741 391.861108 
L 603.648165 391.861108 
" style="fill:none;stroke:#57db5f;stroke-linecap:round;stroke-width:5;"/>
   </g>
   <g id="line2d_142">
    <path d="M 96.375438 515.581504 
L 353.706451 463.214259 
L 419.312253 448.988272 
L 461.319771 443.546381 
L 490.839629 439.180027 
L 513.619386 434.085049 
L 532.171898 428.938487 
L 547.823174 426.774171 
L 561.543152 426.266333 
L 574.145122 423.771256 
L 585.484302 423.016243 
L 594.976741 422.152535 
L 603.648165 420.018369 
" style="fill:none;opacity:0.75;stroke:#5f57db;stroke-dasharray:7.4,3.2;stroke-dashoffset:0;stroke-width:2;"/>
    <defs>
     <path d="M 0 5 
C 1.326016 5 2.597899 4.473168 3.535534 3.535534 
C 4.473168 2.597899 5 1.326016 5 0 
C 5 -1.326016 4.473168 -2.597899 3.535534 -3.535534 
C 2.597899 -4.473168 1.326016 -5 0 -5 
C -1.326016 -5 -2.597899 -4.473168 -3.535534 -3.535534 
C -4.473168 -2.597899 -5 -1.326016 -5 0 
C -5 1.326016 -4.473168 2.597899 -3.535534 3.535534 
C -2.597899 4.473168 -1.326016 5 0 5 
z
" id="m9b4eb3d7bb"/>
    </defs>
    <g>
     <use style="fill:#5f57db;opacity:0.75;" x="96.375438" xlink:href="#m9b4eb3d7bb" y="515.581504"/>
     <use style="fill:#5f57db;opacity:0.75;" x="353.706451" xlink:href="#m9b4eb3d7bb" y="463.214259"/>
     <use style="fill:#5f57db;opacity:0.75;" x="419.312253" xlink:href="#m9b4eb3d7bb" y="448.988272"/>
     <use style="fill:#5f57db;opacity:0.75;" x="461.319771" xlink:href="#m9b4eb3d7bb" y="443.546381"/>
     <use style="fill:#5f57db;opacity:0.75;" x="490.839629" xlink:href="#m9b4eb3d7bb" y="439.180027"/>
     <use style="fill:#5f57db;opacity:0.75;" x="513.619386" xlink:href="#m9b4eb3d7bb" y="434.085049"/>
     <use style="fill:#5f57db;opacity:0.75;" x="532.171898" xlink:href="#m9b4eb3d7bb" y="428.938487"/>
     <use style="fill:#5f57db;opacity:0.75;" x="547.823174" xlink:href="#m9b4eb3d7bb" y="426.774171"/>
     <use style="fill:#5f57db;opacity:0.75;" x="561.543152" xlink:href="#m9b4eb3d7bb" y="426.266333"/>
     <use style="fill:#5f57db;opacity:0.75;" x="574.145122" xlink:href="#m9b4eb3d7bb" y="423.771256"/>
     <use style="fill:#5f57db;opacity:0.75;" x="585.484302" xlink:href="#m9b4eb3d7bb" y="423.016243"/>
     <use style="fill:#5f57db;opacity:0.75;" x="594.976741" xlink:href="#m9b4eb3d7bb" y="422.152535"/>
     <use style="fill:#5f57db;opacity:0.75;" x="603.648165" xlink:href="#m9b4eb3d7bb" y="420.018369"/>
    </g>
   </g>
   <g id="line2d_143">
    <path d="M 561.543152 339.631152 
L 574.145122 339.631152 
L 585.484302 339.631152 
L 594.976741 339.631152 
L 603.648165 339.631152 
" style="fill:none;stroke:#5f57db;stroke-linecap:round;stroke-width:5;"/>
   </g>
   <g id="patch_9">
    <path d="M 71.011802 524.332497 
L 71.011802 328.636497 
" style="fill:none;"/>
   </g>
   <g id="patch_10">
    <path d="M 629.011802 524.332497 
L 629.011802 328.636497 
" style="fill:none;"/>
   </g>
   <g id="patch_11">
    <path d="M 71.011802 524.332497 
L 629.011802 524.332497 
" style="fill:none;"/>
   </g>
   <g id="patch_12">
    <path d="M 71.011802 328.636497 
L 629.011802 328.636497 
" style="fill:none;"/>
   </g>
   <g id="text_29">
    <!-- $\bar\lambda(\rho_{0}, \mathcal{M}_{d})$ for $\rho_0 = 1\!\mathrm{l}_{5}/5$ -->
    <defs>
     <path d="M 15.296875 68.6875 
L 3.40625 67.59375 
L 3.40625 65 
C 9.296875 65 10.203125 64.40625 10.203125 59.640625 
L 10.203125 6.65625 
C 10.203125 2.875 9.796875 2.390625 3.40625 2.390625 
L 3.40625 -0.203125 
C 5.796875 0 10.203125 0 12.703125 0 
C 15.296875 0 19.703125 0 22.09375 -0.203125 
L 22.09375 2.390625 
C 15.703125 2.390625 15.296875 2.78125 15.296875 6.65625 
z
" id="CMR17-108"/>
     <path d="M 42.90625 71.296875 
C 42.90625 71.40625 43.5 72.90625 43.5 73.09375 
C 43.5 74.296875 42.5 75 41.703125 75 
C 41.203125 75 40.296875 75 39.5 72.796875 
L 6 -21.296875 
C 6 -21.40625 5.40625 -22.890625 5.40625 -23.09375 
C 5.40625 -24.296875 6.40625 -25 7.203125 -25 
C 7.796875 -25 8.703125 -24.890625 9.40625 -22.796875 
z
" id="CMMI12-61"/>
    </defs>
    <g style="fill:#262626;" transform="translate(228.316836 322.636497)scale(0.25 -0.25)">
     <use transform="translate(5.606797 41.240535)scale(0.996264)" xlink:href="#CMR17-22"/>
     <use transform="translate(0 14.943915)scale(0.996264)" xlink:href="#CMMI12-21"/>
     <use transform="translate(56.904072 14.943915)scale(0.996264)" xlink:href="#CMR17-40"/>
     <use transform="translate(92.18484 14.943915)scale(0.996264)" xlink:href="#CMMI12-26"/>
     <use transform="translate(142.499213 0)scale(0.697382)" xlink:href="#CMR17-48"/>
     <use transform="translate(174.980527 14.943915)scale(0.996264)" xlink:href="#CMMI12-59"/>
     <use transform="translate(218.682109 14.943915)scale(0.996264)" xlink:href="#CMSY10-77"/>
     <use transform="translate(338.32345 0)scale(0.697382)" xlink:href="#CMMI12-100"/>
     <use transform="translate(374.303789 14.943915)scale(0.996264)" xlink:href="#CMR17-41"/>
     <use transform="translate(440.813669 14.943915)scale(0.996264)" xlink:href="#CMSS17-102"/>
     <use transform="translate(469.440328 14.943915)scale(0.996264)" xlink:href="#CMSS17-111"/>
     <use transform="translate(513.681498 14.943915)scale(0.996264)" xlink:href="#CMSS17-114"/>
     <use transform="translate(576.820383 14.943915)scale(0.996264)" xlink:href="#CMMI12-26"/>
     <use transform="translate(627.134756 0)scale(0.697382)" xlink:href="#CMR17-48"/>
     <use transform="translate(687.290079 14.943915)scale(0.996264)" xlink:href="#CMR17-61"/>
     <use transform="translate(786.678876 14.943915)scale(0.996264)" xlink:href="#CMR17-49"/>
     <use transform="translate(815.764948 14.943915)scale(0.996264)" xlink:href="#CMR17-108"/>
     <use transform="translate(840.636006 0)scale(0.697382)" xlink:href="#CMR17-53"/>
     <use transform="translate(873.11732 14.943915)scale(0.996264)" xlink:href="#CMMI12-61"/>
     <use transform="translate(921.892239 14.943915)scale(0.996264)" xlink:href="#CMR17-53"/>
    </g>
   </g>
   <g id="legend_2">
    <g id="patch_13">
     <path d="M 86.411802 407.562873 
L 370.778163 407.562873 
Q 375.178163 407.562873 375.178163 403.162873 
L 375.178163 344.036497 
Q 375.178163 339.636497 370.778163 339.636497 
L 86.411802 339.636497 
Q 82.011802 339.636497 82.011802 344.036497 
L 82.011802 403.162873 
Q 82.011802 407.562873 86.411802 407.562873 
z
" style="fill:#eaeaf2;opacity:0.8;stroke:#cccccc;stroke-linejoin:miter;stroke-width:0.3;"/>
    </g>
    <g id="line2d_144">
     <path d="M 90.811802 356.136497 
L 134.811802 356.136497 
" style="fill:none;opacity:0.75;stroke:#db5f57;stroke-dasharray:7.4,3.2;stroke-dashoffset:0;stroke-width:2;"/>
    </g>
    <g id="line2d_145">
     <g>
      <use style="fill:#db5f57;opacity:0.75;" x="112.811802" xlink:href="#m6962fb56b5" y="356.136497"/>
     </g>
    </g>
    <g id="text_30">
     <!-- $d=6$ -->
     <g style="fill:#262626;" transform="translate(152.411802 363.836497)scale(0.22 -0.22)">
      <use transform="scale(0.996264)" xlink:href="#CMMI12-100"/>
      <use transform="translate(78.363106 0)scale(0.996264)" xlink:href="#CMR17-61"/>
      <use transform="translate(177.751903 0)scale(0.996264)" xlink:href="#CMR17-54"/>
     </g>
    </g>
    <g id="line2d_146">
     <path d="M 90.811802 386.799685 
L 134.811802 386.799685 
" style="fill:none;opacity:0.75;stroke:#57db5f;stroke-dasharray:7.4,3.2;stroke-dashoffset:0;stroke-width:2;"/>
    </g>
    <g id="line2d_147">
     <g>
      <use style="fill:#57db5f;opacity:0.75;" x="112.811802" xlink:href="#m31eded51ce" y="386.799685"/>
     </g>
    </g>
    <g id="text_31">
     <!-- $d=8$ -->
     <g style="fill:#262626;" transform="translate(152.411802 394.499685)scale(0.22 -0.22)">
      <use transform="scale(0.996264)" xlink:href="#CMMI12-100"/>
      <use transform="translate(78.363106 0)scale(0.996264)" xlink:href="#CMR17-61"/>
      <use transform="translate(177.751903 0)scale(0.996264)" xlink:href="#CMR17-56"/>
     </g>
    </g>
    <g id="line2d_148">
     <path d="M 245.56903 356.136497 
L 289.56903 356.136497 
" style="fill:none;opacity:0.75;stroke:#5f57db;stroke-dasharray:7.4,3.2;stroke-dashoffset:0;stroke-width:2;"/>
    </g>
    <g id="line2d_149">
     <g>
      <use style="fill:#5f57db;opacity:0.75;" x="267.56903" xlink:href="#m9b4eb3d7bb" y="356.136497"/>
     </g>
    </g>
    <g id="text_32">
     <!-- $d=10$ -->
     <g style="fill:#262626;" transform="translate(307.16903 363.836497)scale(0.22 -0.22)">
      <use transform="scale(0.996264)" xlink:href="#CMMI12-100"/>
      <use transform="translate(78.363106 0)scale(0.996264)" xlink:href="#CMR17-61"/>
      <use transform="translate(177.751903 0)scale(0.996264)" xlink:href="#CMR17-49"/>
      <use transform="translate(223.44238 0)scale(0.996264)" xlink:href="#CMR17-48"/>
     </g>
    </g>
   </g>
  </g>
 </g>
 <defs>
  <clipPath id="pfa57971937">
   <rect height="195.696" width="558" x="71.011802" y="35.092497"/>
  </clipPath>
  <clipPath id="p17844779be">
   <rect height="195.696" width="558" x="71.011802" y="328.636497"/>
  </clipPath>
 </defs>
</svg>
