<?xml version="1.0" encoding="utf-8" standalone="no"?>
<!DOCTYPE svg PUBLIC "-//W3C//DTD SVG 1.1//EN"
  "http://www.w3.org/Graphics/SVG/1.1/DTD/svg11.dtd">
<!-- Created with matplotlib (http://matplotlib.org/) -->
<svg height="590pt" version="1.1" viewBox="0 0 734 590" width="734pt" xmlns="http://www.w3.org/2000/svg" xmlns:xlink="http://www.w3.org/1999/xlink">
 <defs>
  <style type="text/css">
*{stroke-linecap:butt;stroke-linejoin:round;stroke-miterlimit:100000;}
  </style>
 </defs>
 <g id="figure_1">
  <g id="patch_1">
   <path d="M 0 590.4 
L 734.4 590.4 
L 734.4 0 
L 0 0 
z
" style="fill:#ffffff;"/>
  </g>
  <g id="axes_1">
   <g id="patch_2">
    <path d="M 7.2 583.2 
L 727.2 583.2 
L 727.2 7.2 
L 7.2 7.2 
z
" style="fill:#eaeaf2;"/>
   </g>
   <g id="matplotlib.axis_1">
    <g id="xtick_1"/>
    <g id="xtick_2">
     <g id="line2d_1">
      <path clip-path="url(#pdbd53461e6)" d="M 151.2 583.2 
L 151.2 7.2 
" style="fill:none;stroke:#ffffff;stroke-linecap:round;"/>
     </g>
     <g id="line2d_2">
      <defs>
       <path d="M 0 0 
L 0 0 
" id="mace9c6bb77" style="stroke:#262626;"/>
      </defs>
      <g>
       <use style="fill:#262626;stroke:#262626;" x="151.2" xlink:href="#mace9c6bb77" y="583.2"/>
      </g>
     </g>
     <g id="line2d_3">
      <g>
       <use style="fill:#262626;stroke:#262626;" x="151.2" xlink:href="#mace9c6bb77" y="7.2"/>
      </g>
     </g>
    </g>
    <g id="xtick_3">
     <g id="line2d_4">
      <path clip-path="url(#pdbd53461e6)" d="M 295.2 583.2 
L 295.2 7.2 
" style="fill:none;stroke:#ffffff;stroke-linecap:round;"/>
     </g>
     <g id="line2d_5">
      <g>
       <use style="fill:#262626;stroke:#262626;" x="295.2" xlink:href="#mace9c6bb77" y="583.2"/>
      </g>
     </g>
     <g id="line2d_6">
      <g>
       <use style="fill:#262626;stroke:#262626;" x="295.2" xlink:href="#mace9c6bb77" y="7.2"/>
      </g>
     </g>
    </g>
    <g id="xtick_4">
     <g id="line2d_7">
      <path clip-path="url(#pdbd53461e6)" d="M 439.2 583.2 
L 439.2 7.2 
" style="fill:none;stroke:#ffffff;stroke-linecap:round;"/>
     </g>
     <g id="line2d_8">
      <g>
       <use style="fill:#262626;stroke:#262626;" x="439.2" xlink:href="#mace9c6bb77" y="583.2"/>
      </g>
     </g>
     <g id="line2d_9">
      <g>
       <use style="fill:#262626;stroke:#262626;" x="439.2" xlink:href="#mace9c6bb77" y="7.2"/>
      </g>
     </g>
    </g>
    <g id="xtick_5">
     <g id="line2d_10">
      <path clip-path="url(#pdbd53461e6)" d="M 583.2 583.2 
L 583.2 7.2 
" style="fill:none;stroke:#ffffff;stroke-linecap:round;"/>
     </g>
     <g id="line2d_11">
      <g>
       <use style="fill:#262626;stroke:#262626;" x="583.2" xlink:href="#mace9c6bb77" y="583.2"/>
      </g>
     </g>
     <g id="line2d_12">
      <g>
       <use style="fill:#262626;stroke:#262626;" x="583.2" xlink:href="#mace9c6bb77" y="7.2"/>
      </g>
     </g>
    </g>
    <g id="xtick_6">
     <g id="line2d_13">
      <path clip-path="url(#pdbd53461e6)" d="M 727.2 583.2 
L 727.2 7.2 
" style="fill:none;stroke:#ffffff;stroke-linecap:round;"/>
     </g>
     <g id="line2d_14">
      <g>
       <use style="fill:#262626;stroke:#262626;" x="727.2" xlink:href="#mace9c6bb77" y="583.2"/>
      </g>
     </g>
     <g id="line2d_15">
      <g>
       <use style="fill:#262626;stroke:#262626;" x="727.2" xlink:href="#mace9c6bb77" y="7.2"/>
      </g>
     </g>
    </g>
   </g>
   <g id="matplotlib.axis_2">
    <g id="ytick_1">
     <g id="line2d_16">
      <path clip-path="url(#pdbd53461e6)" d="M 7.2 583.2 
L 727.2 583.2 
" style="fill:none;stroke:#ffffff;stroke-linecap:round;"/>
     </g>
     <g id="line2d_17">
      <g>
       <use style="fill:#262626;stroke:#262626;" x="7.2" xlink:href="#mace9c6bb77" y="583.2"/>
      </g>
     </g>
     <g id="line2d_18">
      <g>
       <use style="fill:#262626;stroke:#262626;" x="727.2" xlink:href="#mace9c6bb77" y="583.2"/>
      </g>
     </g>
    </g>
    <g id="ytick_2">
     <g id="line2d_19">
      <path clip-path="url(#pdbd53461e6)" d="M 7.2 511.2 
L 727.2 511.2 
" style="fill:none;stroke:#ffffff;stroke-linecap:round;"/>
     </g>
     <g id="line2d_20">
      <g>
       <use style="fill:#262626;stroke:#262626;" x="7.2" xlink:href="#mace9c6bb77" y="511.2"/>
      </g>
     </g>
     <g id="line2d_21">
      <g>
       <use style="fill:#262626;stroke:#262626;" x="727.2" xlink:href="#mace9c6bb77" y="511.2"/>
      </g>
     </g>
    </g>
    <g id="ytick_3">
     <g id="line2d_22">
      <path clip-path="url(#pdbd53461e6)" d="M 7.2 439.2 
L 727.2 439.2 
" style="fill:none;stroke:#ffffff;stroke-linecap:round;"/>
     </g>
     <g id="line2d_23">
      <g>
       <use style="fill:#262626;stroke:#262626;" x="7.2" xlink:href="#mace9c6bb77" y="439.2"/>
      </g>
     </g>
     <g id="line2d_24">
      <g>
       <use style="fill:#262626;stroke:#262626;" x="727.2" xlink:href="#mace9c6bb77" y="439.2"/>
      </g>
     </g>
    </g>
    <g id="ytick_4">
     <g id="line2d_25">
      <path clip-path="url(#pdbd53461e6)" d="M 7.2 367.2 
L 727.2 367.2 
" style="fill:none;stroke:#ffffff;stroke-linecap:round;"/>
     </g>
     <g id="line2d_26">
      <g>
       <use style="fill:#262626;stroke:#262626;" x="7.2" xlink:href="#mace9c6bb77" y="367.2"/>
      </g>
     </g>
     <g id="line2d_27">
      <g>
       <use style="fill:#262626;stroke:#262626;" x="727.2" xlink:href="#mace9c6bb77" y="367.2"/>
      </g>
     </g>
    </g>
    <g id="ytick_5">
     <g id="line2d_28">
      <path clip-path="url(#pdbd53461e6)" d="M 7.2 295.2 
L 727.2 295.2 
" style="fill:none;stroke:#ffffff;stroke-linecap:round;"/>
     </g>
     <g id="line2d_29">
      <g>
       <use style="fill:#262626;stroke:#262626;" x="7.2" xlink:href="#mace9c6bb77" y="295.2"/>
      </g>
     </g>
     <g id="line2d_30">
      <g>
       <use style="fill:#262626;stroke:#262626;" x="727.2" xlink:href="#mace9c6bb77" y="295.2"/>
      </g>
     </g>
    </g>
    <g id="ytick_6">
     <g id="line2d_31">
      <path clip-path="url(#pdbd53461e6)" d="M 7.2 223.2 
L 727.2 223.2 
" style="fill:none;stroke:#ffffff;stroke-linecap:round;"/>
     </g>
     <g id="line2d_32">
      <g>
       <use style="fill:#262626;stroke:#262626;" x="7.2" xlink:href="#mace9c6bb77" y="223.2"/>
      </g>
     </g>
     <g id="line2d_33">
      <g>
       <use style="fill:#262626;stroke:#262626;" x="727.2" xlink:href="#mace9c6bb77" y="223.2"/>
      </g>
     </g>
    </g>
    <g id="ytick_7">
     <g id="line2d_34">
      <path clip-path="url(#pdbd53461e6)" d="M 7.2 151.2 
L 727.2 151.2 
" style="fill:none;stroke:#ffffff;stroke-linecap:round;"/>
     </g>
     <g id="line2d_35">
      <g>
       <use style="fill:#262626;stroke:#262626;" x="7.2" xlink:href="#mace9c6bb77" y="151.2"/>
      </g>
     </g>
     <g id="line2d_36">
      <g>
       <use style="fill:#262626;stroke:#262626;" x="727.2" xlink:href="#mace9c6bb77" y="151.2"/>
      </g>
     </g>
    </g>
    <g id="ytick_8">
     <g id="line2d_37">
      <path clip-path="url(#pdbd53461e6)" d="M 7.2 79.2 
L 727.2 79.2 
" style="fill:none;stroke:#ffffff;stroke-linecap:round;"/>
     </g>
     <g id="line2d_38">
      <g>
       <use style="fill:#262626;stroke:#262626;" x="7.2" xlink:href="#mace9c6bb77" y="79.2"/>
      </g>
     </g>
     <g id="line2d_39">
      <g>
       <use style="fill:#262626;stroke:#262626;" x="727.2" xlink:href="#mace9c6bb77" y="79.2"/>
      </g>
     </g>
    </g>
    <g id="ytick_9"/>
   </g>
   <g id="patch_3">
    <path clip-path="url(#pdbd53461e6)" d="M -338.4 2311.2 
C -48.161727 2311.2 230.228211 2195.887112 435.457661 1990.657661 
C 640.687112 1785.428211 756 1507.038273 756 1216.8 
C 756 926.561727 640.687112 648.171789 435.457661 442.942339 
C 230.228211 237.712888 -48.161727 122.4 -338.4 122.4 
C -628.638273 122.4 -907.028211 237.712888 -1112.257661 442.942339 
C -1317.487112 648.171789 -1432.8 926.561727 -1432.8 1216.8 
C -1432.8 1507.038273 -1317.487112 1785.428211 -1112.257661 1990.657661 
C -907.028211 2195.887112 -628.638273 2311.2 -338.4 2311.2 
" style="fill:none;stroke:#000000;stroke-linejoin:miter;stroke-width:4.0;"/>
   </g>
   <g id="line2d_40">
    <path clip-path="url(#pdbd53461e6)" d="M 7.2 7.2 
L 24.832653 24.832653 
L 42.465306 42.465306 
L 60.097959 60.097959 
L 77.730612 77.730612 
L 95.363265 95.363265 
L 112.995918 112.995918 
L 130.628571 130.628571 
L 148.261224 148.261224 
L 165.893878 165.893878 
L 183.526531 183.526531 
L 201.159184 201.159184 
L 218.791837 218.791837 
L 236.42449 236.42449 
L 254.057143 254.057143 
L 271.689796 271.689796 
L 289.322449 289.322449 
L 306.955102 306.955102 
L 324.587755 324.587755 
L 342.220408 342.220408 
L 359.853061 359.853061 
L 377.485714 377.485714 
L 395.118367 395.118367 
L 412.75102 412.75102 
L 430.383673 430.383673 
L 448.016327 448.016327 
L 465.64898 465.64898 
L 483.281633 483.281633 
L 500.914286 500.914286 
L 518.546939 518.546939 
L 536.179592 536.179592 
L 553.812245 553.812245 
L 571.444898 571.444898 
L 589.077551 589.077551 
L 591.4 591.4 
" style="fill:none;stroke:#4c72b0;stroke-linecap:round;stroke-width:4.0;"/>
   </g>
   <g id="line2d_41">
    <path clip-path="url(#pdbd53461e6)" d="M 511.2 151.2 
" style="fill:none;stroke:#000000;stroke-linecap:round;stroke-width:1.75;"/>
    <defs>
     <path d="M 0 10 
C 2.652031 10 5.195799 8.946337 7.071068 7.071068 
C 8.946337 5.195799 10 2.652031 10 0 
C 10 -2.652031 8.946337 -5.195799 7.071068 -7.071068 
C 5.195799 -8.946337 2.652031 -10 0 -10 
C -2.652031 -10 -5.195799 -8.946337 -7.071068 -7.071068 
C -8.946337 -5.195799 -10 -2.652031 -10 0 
C -10 2.652031 -8.946337 5.195799 -7.071068 7.071068 
C -5.195799 8.946337 -2.652031 10 0 10 
z
" id="m04664bc3eb"/>
    </defs>
    <g clip-path="url(#pdbd53461e6)">
     <use x="511.2" xlink:href="#m04664bc3eb" y="151.2"/>
    </g>
   </g>
   <g id="line2d_42">
    <path clip-path="url(#pdbd53461e6)" d="M 331.2 331.2 
" style="fill:none;stroke:#000000;stroke-linecap:round;stroke-width:1.75;"/>
    <g clip-path="url(#pdbd53461e6)">
     <use x="331.2" xlink:href="#m04664bc3eb" y="331.2"/>
    </g>
   </g>
   <g id="line2d_43">
    <path clip-path="url(#pdbd53461e6)" d="M 331.2 331.2 
L 511.2 151.2 
" style="fill:none;stroke:#ff0000;stroke-dasharray:6.000000,6.000000;stroke-dashoffset:0.0;stroke-width:4.0;"/>
   </g>
   <g id="patch_4">
    <path d="M 7.2 7.2 
L 727.2 7.2 
" style="fill:none;"/>
   </g>
   <g id="patch_5">
    <path d="M 727.2 583.2 
L 727.2 7.2 
" style="fill:none;"/>
   </g>
   <g id="patch_6">
    <path d="M 7.2 583.2 
L 727.2 583.2 
" style="fill:none;"/>
   </g>
   <g id="patch_7">
    <path d="M 7.2 583.2 
L 7.2 7.2 
" style="fill:none;"/>
   </g>
   <g id="text_1">
    <!-- $\rho_{0}$ -->
    <defs>
     <path d="M 2.78125 -18.796875 
Q 2.78125 -18.21875 2.875 -18.015625 
L 12.796875 21.921875 
Q 14.203125 27.296875 17.640625 32.4375 
Q 21.09375 37.59375 25.96875 40.890625 
Q 30.859375 44.1875 36.28125 44.1875 
Q 40.625 44.1875 43.875 41.921875 
Q 47.125 39.65625 48.75 35.96875 
Q 50.390625 32.28125 50.390625 27.875 
Q 50.390625 23.046875 48.40625 17.875 
Q 46.4375 12.703125 42.9375 8.40625 
Q 39.453125 4.109375 34.90625 1.484375 
Q 30.375 -1.125 25.390625 -1.125 
Q 22.46875 -1.125 19.875 0.609375 
Q 17.28125 2.34375 15.828125 5.171875 
L 9.90625 -18.40625 
Q 9.625 -19.828125 8.453125 -20.703125 
Q 7.28125 -21.578125 5.8125 -21.578125 
Q 4.59375 -21.578125 3.6875 -20.8125 
Q 2.78125 -20.0625 2.78125 -18.796875 
M 25.59375 1.515625 
Q 30.90625 1.515625 34.828125 6.953125 
Q 38.765625 12.40625 40.84375 19.75 
Q 42.921875 27.09375 42.921875 32.171875 
Q 42.921875 35.984375 41.25 38.796875 
Q 39.59375 41.609375 36.078125 41.609375 
Q 31.734375 41.609375 28.40625 38.3125 
Q 25.09375 35.015625 23.09375 30.5625 
Q 21.09375 26.125 19.828125 21.296875 
L 17.09375 10.109375 
Q 17.71875 6.5 19.9375 4 
Q 22.171875 1.515625 25.59375 1.515625 
" id="Cmmi10-bd"/>
     <path d="M 25 -2.203125 
Q 12.75 -2.203125 8.328125 7.875 
Q 3.90625 17.96875 3.90625 31.890625 
Q 3.90625 40.578125 5.484375 48.234375 
Q 7.078125 55.90625 11.78125 61.25 
Q 16.5 66.609375 25 66.609375 
Q 31.59375 66.609375 35.78125 63.375 
Q 39.984375 60.15625 42.1875 55.046875 
Q 44.390625 49.953125 45.1875 44.109375 
Q 46 38.28125 46 31.890625 
Q 46 23.296875 44.40625 15.796875 
Q 42.828125 8.296875 38.1875 3.046875 
Q 33.546875 -2.203125 25 -2.203125 
M 25 0.390625 
Q 30.5625 0.390625 33.296875 6.09375 
Q 36.03125 11.8125 36.671875 18.75 
Q 37.3125 25.6875 37.3125 33.5 
Q 37.3125 41.015625 36.671875 47.359375 
Q 36.03125 53.71875 33.3125 58.859375 
Q 30.609375 64.015625 25 64.015625 
Q 19.34375 64.015625 16.609375 58.828125 
Q 13.875 53.65625 13.234375 47.328125 
Q 12.59375 41.015625 12.59375 33.5 
Q 12.59375 27.9375 12.859375 23 
Q 13.140625 18.0625 14.3125 12.8125 
Q 15.484375 7.5625 18.09375 3.96875 
Q 20.703125 0.390625 25 0.390625 
" id="Cmr10-30"/>
    </defs>
    <g style="fill:#262626;" transform="translate(403.2 511.2)scale(0.45 -0.45)">
     <use transform="translate(0.0 0.8125)" xlink:href="#Cmmi10-bd"/>
     <use transform="translate(51.708984375 -16.19375)scale(0.7)" xlink:href="#Cmr10-30"/>
    </g>
   </g>
   <g id="text_2">
    <!-- $\hat\rho_T$ -->
    <defs>
     <path d="M 13.484375 53.8125 
L 11.53125 55.90625 
L 25 69.390625 
L 38.375 55.90625 
L 36.375 53.8125 
L 25 63.8125 
z
" id="Cmr10-5e"/>
     <path d="M 4.59375 1.3125 
Q 4.640625 1.5625 4.8125 2.1875 
Q 4.984375 2.828125 5.25 3.171875 
Q 5.515625 3.515625 6 3.515625 
Q 14.59375 3.515625 17.390625 4 
Q 20.0625 4.6875 20.609375 6.890625 
L 34.28125 61.8125 
Q 34.71875 63.03125 34.71875 64.015625 
Q 34.71875 64.796875 31.203125 64.796875 
L 25.390625 64.796875 
Q 18.703125 64.796875 15.0625 62.734375 
Q 11.421875 60.6875 9.71875 57.3125 
Q 8.015625 53.953125 5.328125 46.296875 
Q 4.984375 45.40625 4.296875 45.40625 
L 3.421875 45.40625 
Q 2.390625 45.40625 2.390625 46.6875 
L 9.515625 67.390625 
Q 9.71875 68.3125 10.5 68.3125 
L 69.578125 68.3125 
Q 70.609375 68.3125 70.609375 67 
L 67.28125 46.296875 
Q 67.28125 46 66.9375 45.703125 
Q 66.609375 45.40625 66.3125 45.40625 
L 65.375 45.40625 
Q 64.40625 45.40625 64.40625 46.6875 
Q 65.484375 53.765625 65.484375 56.6875 
Q 65.484375 60.203125 64.015625 62 
Q 62.546875 63.8125 60.203125 64.296875 
Q 57.859375 64.796875 54.109375 64.796875 
L 48.1875 64.796875 
Q 45.515625 64.796875 44.578125 64.296875 
Q 43.65625 63.8125 43.015625 61.375 
L 29.296875 6.5 
Q 29.25 6.296875 29.21875 6.09375 
Q 29.203125 5.90625 29.109375 5.609375 
Q 29.109375 4.34375 30.609375 4 
Q 33.203125 3.515625 41.703125 3.515625 
Q 42.671875 3.515625 42.671875 2.203125 
Q 42.328125 0.78125 42.125 0.390625 
Q 41.9375 0 41.015625 0 
L 5.609375 0 
Q 4.59375 0 4.59375 1.3125 
" id="Cmmi10-54"/>
    </defs>
    <g style="fill:#262626;" transform="translate(280.8 367.2)scale(0.45 -0.45)">
     <use transform="translate(4.3671875 3.609375)" xlink:href="#Cmr10-5e"/>
     <use transform="translate(0.0 0.734375)" xlink:href="#Cmmi10-bd"/>
     <use transform="translate(56.173125 -16.271875)scale(0.7)" xlink:href="#Cmmi10-54"/>
    </g>
   </g>
   <g id="text_3">
    <!-- $T(\rho_{0})$ -->
    <defs>
     <path d="M 31 -24.8125 
Q 25.4375 -20.40625 21.40625 -14.71875 
Q 17.390625 -9.03125 14.8125 -2.578125 
Q 12.25 3.859375 10.984375 10.890625 
Q 9.71875 17.921875 9.71875 25 
Q 9.71875 32.171875 10.984375 39.203125 
Q 12.25 46.234375 14.859375 52.734375 
Q 17.484375 59.234375 21.53125 64.890625 
Q 25.59375 70.5625 31 74.8125 
Q 31 75 31.5 75 
L 32.421875 75 
Q 32.71875 75 32.953125 74.734375 
Q 33.203125 74.46875 33.203125 74.125 
Q 33.203125 73.6875 33.015625 73.484375 
Q 28.125 68.703125 24.875 63.234375 
Q 21.625 57.765625 19.640625 51.578125 
Q 17.671875 45.40625 16.796875 38.78125 
Q 15.921875 32.171875 15.921875 25 
Q 15.921875 -6.78125 32.90625 -23.296875 
Q 33.203125 -23.578125 33.203125 -24.125 
Q 33.203125 -24.359375 32.9375 -24.671875 
Q 32.671875 -25 32.421875 -25 
L 31.5 -25 
Q 31 -25 31 -24.8125 
" id="Cmr10-28"/>
     <path d="M 6.5 -25 
Q 5.609375 -25 5.609375 -24.125 
Q 5.609375 -23.6875 5.8125 -23.484375 
Q 22.90625 -6.78125 22.90625 25 
Q 22.90625 56.78125 6 73.296875 
Q 5.609375 73.53125 5.609375 74.125 
Q 5.609375 74.46875 5.875 74.734375 
Q 6.15625 75 6.5 75 
L 7.421875 75 
Q 7.71875 75 7.90625 74.8125 
Q 15.09375 69.140625 19.875 61.03125 
Q 24.65625 52.9375 26.875 43.75 
Q 29.109375 34.578125 29.109375 25 
Q 29.109375 17.921875 27.90625 11.0625 
Q 26.703125 4.203125 24.09375 -2.453125 
Q 21.484375 -9.125 17.484375 -14.765625 
Q 13.484375 -20.40625 7.90625 -24.8125 
Q 7.71875 -25 7.421875 -25 
z
" id="Cmr10-29"/>
    </defs>
    <g style="fill:#262626;" transform="translate(108.0 79.2)scale(0.45 -0.45)">
     <use xlink:href="#Cmmi10-54"/>
     <use transform="translate(58.3984375 0.0)" xlink:href="#Cmr10-28"/>
     <use transform="translate(97.216796875 0.0)" xlink:href="#Cmmi10-bd"/>
     <use transform="translate(148.92578125 -17.00625)scale(0.7)" xlink:href="#Cmr10-30"/>
     <use transform="translate(190.303125 0.0)" xlink:href="#Cmr10-29"/>
    </g>
   </g>
   <g id="text_4">
    <!-- $\mathcal{M}$ -->
    <defs>
     <path d="M 2.6875 0.203125 
Q 2.6875 1.953125 3.921875 4.984375 
Q 5.171875 8.015625 6.6875 8.015625 
Q 6.78125 8.015625 6.984375 7.90625 
Q 8.5 6.390625 10.5625 5.484375 
Q 12.640625 4.59375 14.703125 4.59375 
Q 16.84375 4.59375 19.65625 9.953125 
Q 22.46875 15.328125 25 22.140625 
Q 27.546875 28.953125 28.609375 32.328125 
Q 30.421875 37.796875 31.953125 43.4375 
Q 33.5 49.078125 34.640625 54.640625 
Q 35.796875 60.203125 36.625 66.3125 
Q 36.625 66.890625 37.3125 67.578125 
Q 38.28125 68.609375 39.890625 69.578125 
Q 41.21875 70.21875 42.828125 70.515625 
L 43.5 70.515625 
Q 44.1875 70.171875 44.28125 69.828125 
Q 46 59.578125 48.125 49.4375 
Q 50.25 39.3125 53 29.8125 
Q 55.765625 20.3125 59.078125 13.625 
Q 67.484375 21.625 74.421875 29.390625 
Q 80.078125 35.796875 84.4375 40.875 
Q 88.8125 45.953125 92.359375 50.125 
Q 95.90625 54.296875 101.078125 60.5 
Q 106.25 66.703125 108.5 69.484375 
Q 109.421875 70.515625 110.015625 70.515625 
Q 110.796875 70.515625 110.796875 68.796875 
Q 110.796875 67.4375 110.203125 65.375 
Q 105.765625 43.40625 103.8125 20.609375 
Q 103.515625 17.1875 103.515625 13.71875 
Q 103.515625 9.90625 104 5.421875 
Q 104.15625 3.375 106.390625 2.984375 
Q 109.125 4.5 110.984375 4.6875 
L 111.625 4.6875 
Q 112.3125 4.34375 112.3125 3.90625 
Q 112.3125 1.90625 107.375 -0.484375 
Q 102.4375 -2.875 100 -2.875 
L 99.421875 -2.875 
Q 96.296875 -2.875 95.4375 0.703125 
Q 94.578125 4.296875 94.578125 9.421875 
Q 94.578125 23.296875 99.421875 51.125 
Q 92.671875 43.0625 88.453125 38.0625 
Q 84.234375 33.0625 79.953125 28.15625 
Q 75.6875 23.25 70.671875 17.875 
Q 65.671875 12.5 61.8125 8.6875 
Q 57.03125 3.65625 56 3.421875 
L 55.328125 3.421875 
Q 53.609375 4.25 50.609375 11.40625 
Q 47.609375 18.5625 46.390625 22.703125 
Q 44.046875 30.953125 42.140625 38.765625 
Q 40.234375 46.578125 38.484375 55.078125 
Q 37.640625 50.6875 34.703125 40.5 
Q 31.78125 30.328125 27.921875 19.921875 
Q 24.078125 9.515625 19.75 2.265625 
Q 15.4375 -4.984375 11.53125 -4.984375 
Q 9.03125 -4.984375 5.859375 -3.484375 
Q 2.6875 -2 2.6875 0.203125 
" id="Cmsy10-4d"/>
    </defs>
    <g style="fill:#262626;" transform="translate(79.2 295.2)scale(0.45 -0.45)">
     <use transform="translate(0.0 0.484375)" xlink:href="#Cmsy10-4d"/>
    </g>
   </g>
   <g id="text_5">
    <!-- $\mathcal{M}'$ -->
    <defs>
     <path d="M 3.515625 5.421875 
Q 2.875 5.609375 2.875 6.390625 
L 15.09375 51.8125 
Q 15.671875 53.65625 17.078125 54.78125 
Q 18.5 55.90625 20.3125 55.90625 
Q 22.65625 55.90625 24.4375 54.359375 
Q 26.21875 52.828125 26.21875 50.484375 
Q 26.21875 49.46875 25.6875 48.1875 
L 7.625 4.984375 
Q 7.28125 4.296875 6.6875 4.296875 
Q 6.15625 4.296875 5 4.78125 
Q 3.859375 5.28125 3.515625 5.421875 
" id="Cmsy10-30"/>
    </defs>
    <g style="fill:#262626;" transform="translate(295.2 79.2)scale(0.45 -0.45)">
     <use transform="translate(0.0 0.484375)" xlink:href="#Cmsy10-4d"/>
     <use transform="translate(124.483671875 38.7484375)scale(0.7)" xlink:href="#Cmsy10-30"/>
    </g>
   </g>
   <g id="text_6">
    <!-- $\hat\rho_{\mathcal{M}'}$ -->
    <g style="fill:#262626;" transform="translate(547.2 144.0)scale(0.45 -0.45)">
     <use transform="translate(4.3671875 3.609375)" xlink:href="#Cmr10-5e"/>
     <use transform="translate(0.0 0.734375)" xlink:href="#Cmmi10-bd"/>
     <use transform="translate(56.173125 -16.271875)scale(0.7)" xlink:href="#Cmsy10-4d"/>
     <use transform="translate(143.311695313 10.51296875)scale(0.49)" xlink:href="#Cmsy10-30"/>
    </g>
   </g>
   <g id="line2d_44">
    <path clip-path="url(#pdbd53461e6)" d="M 439.2 439.2 
" style="fill:none;stroke:#66c2a5;stroke-linecap:round;stroke-width:1.75;"/>
    <defs>
     <path d="M 0 -25 
L -7.347316 -10.112712 
L -23.776413 -7.725425 
L -11.888206 3.862712 
L -14.694631 20.225425 
L -0 12.5 
L 14.694631 20.225425 
L 11.888206 3.862712 
L 23.776413 -7.725425 
L 7.347316 -10.112712 
z
" id="m16de94ea4e" style="stroke:#000000;stroke-linejoin:bevel;stroke-width:4.0;"/>
    </defs>
    <g clip-path="url(#pdbd53461e6)">
     <use style="fill:#66c2a5;stroke:#000000;stroke-linejoin:bevel;stroke-width:4.0;" x="439.2" xlink:href="#m16de94ea4e" y="439.2"/>
    </g>
   </g>
  </g>
 </g>
 <defs>
  <clipPath id="pdbd53461e6">
   <rect height="576.0" width="720.0" x="7.2" y="7.2"/>
  </clipPath>
 </defs>
</svg>
