<?xml version="1.0" encoding="utf-8" standalone="no"?>
<!DOCTYPE svg PUBLIC "-//W3C//DTD SVG 1.1//EN"
  "http://www.w3.org/Graphics/SVG/1.1/DTD/svg11.dtd">
<!-- Created with matplotlib (http://matplotlib.org/) -->
<svg height="641pt" version="1.1" viewBox="0 0 636 641" width="636pt" xmlns="http://www.w3.org/2000/svg" xmlns:xlink="http://www.w3.org/1999/xlink">
 <defs>
  <style type="text/css">
*{stroke-linecap:butt;stroke-linejoin:round;}
  </style>
 </defs>
 <g id="figure_1">
  <g id="patch_1">
   <path d="M 0 641.174073 
L 636.211802 641.174073 
L 636.211802 0 
L 0 0 
z
" style="fill:#ffffff;"/>
  </g>
  <g id="axes_1">
   <g id="patch_2">
    <path d="M 71.011802 252.532497 
L 629.011802 252.532497 
L 629.011802 35.092497 
L 71.011802 35.092497 
z
" style="fill:#eaeaf2;"/>
   </g>
   <g id="matplotlib.axis_1">
    <g id="xtick_1">
     <g id="line2d_1">
      <path clip-path="url(#p8504c3aa34)" d="M 96.375438 252.532497 
L 96.375438 35.092497 
" style="fill:none;stroke:#ffffff;stroke-linecap:round;"/>
     </g>
     <g id="line2d_2"/>
     <g id="text_1">
      <!-- $10^{0}$ -->
      <defs>
       <path d="M 26.59375 63.40625 
C 26.59375 65.5 26.5 65.5 25.09375 65.5 
C 21.203125 61.1875 15.296875 59.796875 9.703125 59.796875 
C 9.40625 59.796875 8.90625 59.796875 8.796875 59.5 
C 8.703125 59.296875 8.703125 59.09375 8.703125 57 
C 11.796875 57 17 57.59375 21 59.984375 
L 21 7.203125 
C 21 3.6875 20.796875 2.5 12.203125 2.5 
L 9.203125 2.5 
L 9.203125 0 
C 14 0 19 0 23.796875 0 
C 28.59375 0 33.59375 0 38.40625 0 
L 38.40625 2.5 
L 35.40625 2.5 
C 26.796875 2.5 26.59375 3.59375 26.59375 7.15625 
z
" id="CMR17-49"/>
       <path d="M 42 31.640625 
C 42 37.75 41.90625 48.125 37.703125 56.109375 
C 34 63.109375 28.09375 65.59375 22.90625 65.59375 
C 18.09375 65.59375 12 63.40625 8.203125 56.203125 
C 4.203125 48.71875 3.796875 39.4375 3.796875 31.640625 
C 3.796875 25.953125 3.90625 17.28125 7 9.671875 
C 11.296875 -0.609375 19 -2 22.90625 -2 
C 27.5 -2 34.5 -0.109375 38.59375 9.375 
C 41.59375 16.28125 42 24.359375 42 31.640625 
z
M 22.90625 -0.40625 
C 16.5 -0.40625 12.703125 5.078125 11.296875 12.6875 
C 10.203125 18.5625 10.203125 27.15625 10.203125 32.75 
C 10.203125 40.4375 10.203125 46.828125 11.5 52.921875 
C 13.40625 61.390625 19 64 22.90625 64 
C 27 64 32.296875 61.296875 34.203125 53.125 
C 35.5 47.4375 35.59375 40.734375 35.59375 32.75 
C 35.59375 26.25 35.59375 18.265625 34.40625 12.375 
C 32.296875 1.484375 26.40625 -0.40625 22.90625 -0.40625 
z
" id="CMR17-48"/>
      </defs>
      <g style="fill:#262626;" transform="translate(83.823113 273.369494)scale(0.2 -0.2)">
       <use transform="scale(0.996264)" xlink:href="#CMR17-49"/>
       <use transform="translate(45.690477 0)scale(0.996264)" xlink:href="#CMR17-48"/>
       <use transform="translate(91.380954 36.153639)scale(0.697382)" xlink:href="#CMR17-48"/>
      </g>
     </g>
    </g>
    <g id="xtick_2">
     <g id="line2d_3">
      <path clip-path="url(#p8504c3aa34)" d="M 205.500025 252.532497 
L 205.500025 35.092497 
" style="fill:none;stroke:#ffffff;stroke-linecap:round;"/>
     </g>
     <g id="line2d_4"/>
     <g id="text_2">
      <!-- $10^{1}$ -->
      <g style="fill:#262626;" transform="translate(192.947701 273.369494)scale(0.2 -0.2)">
       <use transform="scale(0.996264)" xlink:href="#CMR17-49"/>
       <use transform="translate(45.690477 0)scale(0.996264)" xlink:href="#CMR17-48"/>
       <use transform="translate(91.380954 36.153639)scale(0.697382)" xlink:href="#CMR17-49"/>
      </g>
     </g>
    </g>
    <g id="xtick_3">
     <g id="line2d_5">
      <path clip-path="url(#p8504c3aa34)" d="M 314.624613 252.532497 
L 314.624613 35.092497 
" style="fill:none;stroke:#ffffff;stroke-linecap:round;"/>
     </g>
     <g id="line2d_6"/>
     <g id="text_3">
      <!-- $10^{2}$ -->
      <defs>
       <path d="M 41.703125 15.453125 
L 39.90625 15.453125 
C 38.90625 8.375 38.09375 7.171875 37.703125 6.5625 
C 37.203125 5.765625 30 5.765625 28.59375 5.765625 
L 9.40625 5.765625 
C 13 9.671875 20 16.75 28.5 24.953125 
C 34.59375 30.734375 41.703125 37.53125 41.703125 47.421875 
C 41.703125 59.21875 32.296875 66 21.796875 66 
C 10.796875 66 4.09375 56.3125 4.09375 47.34375 
C 4.09375 43.4375 7 42.9375 8.203125 42.9375 
C 9.203125 42.9375 12.203125 43.546875 12.203125 47.03125 
C 12.203125 50.109375 9.59375 51 8.203125 51 
C 7.59375 51 7 50.90625 6.59375 50.703125 
C 8.5 59.21875 14.296875 63.40625 20.40625 63.40625 
C 29.09375 63.40625 34.796875 56.515625 34.796875 47.421875 
C 34.796875 38.734375 29.703125 31.25 24 24.75 
L 4.09375 2.28125 
L 4.09375 0 
L 39.296875 0 
z
" id="CMR17-50"/>
      </defs>
      <g style="fill:#262626;" transform="translate(302.072288 273.369494)scale(0.2 -0.2)">
       <use transform="scale(0.996264)" xlink:href="#CMR17-49"/>
       <use transform="translate(45.690477 0)scale(0.996264)" xlink:href="#CMR17-48"/>
       <use transform="translate(91.380954 36.153639)scale(0.697382)" xlink:href="#CMR17-50"/>
      </g>
     </g>
    </g>
    <g id="xtick_4">
     <g id="line2d_7">
      <path clip-path="url(#p8504c3aa34)" d="M 423.7492 252.532497 
L 423.7492 35.092497 
" style="fill:none;stroke:#ffffff;stroke-linecap:round;"/>
     </g>
     <g id="line2d_8"/>
     <g id="text_4">
      <!-- $10^{3}$ -->
      <defs>
       <path d="M 22.09375 33.703125 
C 31 33.703125 34.90625 25.96875 34.90625 17.03125 
C 34.90625 5 28.5 0.390625 22.703125 0.390625 
C 17.40625 0.390625 8.796875 3.03125 6.09375 10.828125 
C 6.59375 10.625 7.09375 10.625 7.59375 10.625 
C 10 10.625 11.796875 12.21875 11.796875 14.8125 
C 11.796875 17.703125 9.59375 19 7.59375 19 
C 5.90625 19 3.296875 18.203125 3.296875 14.46875 
C 3.296875 5.234375 12.296875 -2 22.90625 -2 
C 34 -2 42.5 6.71875 42.5 16.953125 
C 42.5 26.671875 34.5 33.6875 25 34.796875 
C 32.59375 36.375 39.90625 43.0625 39.90625 52.015625 
C 39.90625 59.6875 32 65.296875 23 65.296875 
C 13.90625 65.296875 5.90625 59.828125 5.90625 52.015625 
C 5.90625 48.59375 8.5 48 9.796875 48 
C 11.90625 48 13.703125 49.296875 13.703125 51.890625 
C 13.703125 54.46875 11.90625 55.765625 9.796875 55.765625 
C 9.40625 55.765625 8.90625 55.765625 8.5 55.578125 
C 11.40625 61.859375 19.296875 63 22.796875 63 
C 26.296875 63 32.90625 61.328125 32.90625 51.875 
C 32.90625 49.109375 32.5 44.1875 29.09375 39.84375 
C 26.09375 36 22.703125 36 19.40625 35.6875 
C 18.90625 35.6875 16.59375 35.453125 16.203125 35.453125 
C 15.5 35.359375 15.09375 35.265625 15.09375 34.5 
C 15.09375 33.796875 15.203125 33.703125 17.203125 33.703125 
z
" id="CMR17-51"/>
      </defs>
      <g style="fill:#262626;" transform="translate(411.196875 273.369494)scale(0.2 -0.2)">
       <use transform="scale(0.996264)" xlink:href="#CMR17-49"/>
       <use transform="translate(45.690477 0)scale(0.996264)" xlink:href="#CMR17-48"/>
       <use transform="translate(91.380954 36.153639)scale(0.697382)" xlink:href="#CMR17-51"/>
      </g>
     </g>
    </g>
    <g id="xtick_5">
     <g id="line2d_9">
      <path clip-path="url(#p8504c3aa34)" d="M 532.873787 252.532497 
L 532.873787 35.092497 
" style="fill:none;stroke:#ffffff;stroke-linecap:round;"/>
     </g>
     <g id="line2d_10"/>
     <g id="text_5">
      <!-- $10^{4}$ -->
      <defs>
       <path d="M 33.59375 64.40625 
C 33.59375 66.5 33.5 66.5 31.703125 66.5 
L 2 19.59375 
L 2 17 
L 27.796875 17 
L 27.796875 7.140625 
C 27.796875 3.5 27.59375 2.5 20.59375 2.5 
L 18.703125 2.5 
L 18.703125 0 
C 21.90625 0 27.296875 0 30.703125 0 
C 34.09375 0 39.5 0 42.703125 0 
L 42.703125 2.5 
L 40.796875 2.5 
C 33.796875 2.5 33.59375 3.5 33.59375 7.140625 
L 33.59375 17 
L 43.796875 17 
L 43.796875 19.59375 
L 33.59375 19.59375 
z
M 28.09375 57.859375 
L 28.09375 19.59375 
L 4 19.59375 
z
" id="CMR17-52"/>
      </defs>
      <g style="fill:#262626;" transform="translate(520.321463 273.369494)scale(0.2 -0.2)">
       <use transform="scale(0.996264)" xlink:href="#CMR17-49"/>
       <use transform="translate(45.690477 0)scale(0.996264)" xlink:href="#CMR17-48"/>
       <use transform="translate(91.380954 36.153639)scale(0.697382)" xlink:href="#CMR17-52"/>
      </g>
     </g>
    </g>
    <g id="xtick_6">
     <g id="line2d_11"/>
    </g>
    <g id="xtick_7">
     <g id="line2d_12"/>
    </g>
    <g id="xtick_8">
     <g id="line2d_13"/>
    </g>
    <g id="xtick_9">
     <g id="line2d_14"/>
    </g>
    <g id="xtick_10">
     <g id="line2d_15"/>
    </g>
    <g id="xtick_11">
     <g id="line2d_16"/>
    </g>
    <g id="xtick_12">
     <g id="line2d_17"/>
    </g>
    <g id="xtick_13">
     <g id="line2d_18"/>
    </g>
    <g id="xtick_14">
     <g id="line2d_19"/>
    </g>
    <g id="xtick_15">
     <g id="line2d_20"/>
    </g>
    <g id="xtick_16">
     <g id="line2d_21"/>
    </g>
    <g id="xtick_17">
     <g id="line2d_22"/>
    </g>
    <g id="xtick_18">
     <g id="line2d_23"/>
    </g>
    <g id="xtick_19">
     <g id="line2d_24"/>
    </g>
    <g id="xtick_20">
     <g id="line2d_25"/>
    </g>
    <g id="xtick_21">
     <g id="line2d_26"/>
    </g>
    <g id="xtick_22">
     <g id="line2d_27"/>
    </g>
    <g id="xtick_23">
     <g id="line2d_28"/>
    </g>
    <g id="xtick_24">
     <g id="line2d_29"/>
    </g>
    <g id="xtick_25">
     <g id="line2d_30"/>
    </g>
    <g id="xtick_26">
     <g id="line2d_31"/>
    </g>
    <g id="xtick_27">
     <g id="line2d_32"/>
    </g>
    <g id="xtick_28">
     <g id="line2d_33"/>
    </g>
    <g id="xtick_29">
     <g id="line2d_34"/>
    </g>
    <g id="xtick_30">
     <g id="line2d_35"/>
    </g>
    <g id="xtick_31">
     <g id="line2d_36"/>
    </g>
    <g id="xtick_32">
     <g id="line2d_37"/>
    </g>
    <g id="xtick_33">
     <g id="line2d_38"/>
    </g>
    <g id="xtick_34">
     <g id="line2d_39"/>
    </g>
    <g id="xtick_35">
     <g id="line2d_40"/>
    </g>
    <g id="xtick_36">
     <g id="line2d_41"/>
    </g>
    <g id="xtick_37">
     <g id="line2d_42"/>
    </g>
    <g id="xtick_38">
     <g id="line2d_43"/>
    </g>
    <g id="xtick_39">
     <g id="line2d_44"/>
    </g>
    <g id="xtick_40">
     <g id="line2d_45"/>
    </g>
    <g id="xtick_41">
     <g id="line2d_46"/>
    </g>
    <g id="xtick_42">
     <g id="line2d_47"/>
    </g>
    <g id="xtick_43">
     <g id="line2d_48"/>
    </g>
    <g id="xtick_44">
     <g id="line2d_49"/>
    </g>
    <g id="xtick_45">
     <g id="line2d_50"/>
    </g>
    <g id="xtick_46">
     <g id="line2d_51"/>
    </g>
    <g id="xtick_47">
     <g id="line2d_52"/>
    </g>
    <g id="text_6">
     <!-- Sample Size $N$ -->
     <defs>
      <path d="M 43.703125 65.140625 
C 39.296875 67.71875 34.5 70 26.40625 70 
C 13.5 70 5.203125 60.609375 5.203125 51.03125 
C 5.203125 47.265625 6.296875 43.015625 10.203125 38.671875 
C 14.09375 34.3125 18.5 33.140625 24.09375 31.765625 
C 26.40625 31.15625 30.296875 30.0625 31 29.78125 
C 36.59375 27.609375 39.296875 22.5625 39.296875 17.8125 
C 39.296875 11.59375 34.40625 4.96875 25.703125 4.96875 
C 22.703125 4.96875 13.90625 4.96875 5.59375 12.796875 
L 4.203125 4.96875 
C 12.40625 -1 21.296875 -2 25.796875 -2 
C 38.09375 -2 46.90625 7.625 46.90625 18.53125 
C 46.90625 22.5 45.703125 27.546875 41.5 32.203125 
C 37.40625 36.671875 33.796875 37.65625 25.59375 39.828125 
C 20.90625 41.03125 17.90625 41.828125 15.40625 44.890625 
C 13.703125 47.078125 12.796875 49.15625 12.796875 51.828125 
C 12.796875 57.390625 17.59375 63.4375 26.40625 63.4375 
C 30.796875 63.4375 36.5 62.53125 42.296875 57.1875 
z
" id="CMSS17-83"/>
      <path d="M 37.59375 27.984375 
C 37.59375 37.375 30.90625 43.875 21.90625 43.875 
C 17.5 43.875 12.703125 43.078125 7.203125 39.890625 
L 7.796875 33.359375 
C 10.296875 35.125 14.59375 38 21.796875 38 
C 26.90625 38 30 34.0625 30 27.84375 
L 30 24 
C 14 24 4 19.34375 4 11.34375 
C 4 7.203125 6.5 -1 14.796875 -1 
C 16.296875 -1 24.40625 -1 30.203125 3.390625 
L 30.203125 -0.296875 
L 37.59375 -0.296875 
z
M 30 12.75 
C 30 10.953125 30 8.5625 27 6.78125 
C 24.40625 5.078125 21.09375 5.078125 19.703125 5.078125 
C 14.703125 5.078125 11.296875 7.984375 11.296875 11.625 
C 11.296875 18.921875 26.90625 18.921875 30 18.921875 
z
" id="CMSS17-97"/>
      <path d="M 67 29.328125 
C 67 36.0625 65.296875 44 54.09375 44 
C 46.59375 44 42.09375 39.3125 40.09375 36.421875 
C 38.296875 41.71875 34.09375 44 28.09375 44 
C 21.296875 44 17 40.125 14.703125 37.328125 
L 14.703125 43.09375 
L 7.40625 43.09375 
L 7.40625 0 
L 15 0 
L 15 24.359375 
C 15 30.296875 17.203125 37.9375 24.296875 37.9375 
C 33.40625 37.9375 33.40625 31.5 33.40625 28.578125 
L 33.40625 0 
L 41 0 
L 41 24.359375 
C 41 30.296875 43.203125 37.9375 50.296875 37.9375 
C 59.40625 37.9375 59.40625 31.5 59.40625 28.578125 
L 59.40625 0 
L 67 0 
z
" id="CMSS17-109"/>
      <path d="M 15.09375 5.203125 
C 18.40625 2.015625 22.90625 -0.078125 27.703125 -0.078125 
C 37 -0.078125 45 9.421875 45 22.0625 
C 45 33.734375 39 44 30.40625 44 
C 25.40625 44 19.40625 42.21875 14.90625 38.625 
L 14.90625 43.203125 
L 7.5 43.203125 
L 7.5 -19 
L 15.09375 -19 
z
M 15.09375 32.8125 
C 15.90625 34 19.296875 37.734375 24.796875 37.734375 
C 31.796875 37.734375 37.40625 30.625 37.40625 22.0625 
C 37.40625 12.296875 30.59375 6 23.90625 6 
C 21.90625 6 19.796875 6.484375 17.796875 8.171875 
C 15.09375 10.53125 15.09375 12 15.09375 13.390625 
z
" id="CMSS17-112"/>
      <path d="M 14.796875 69 
L 7.40625 69 
L 7.40625 0 
L 14.796875 0 
z
" id="CMSS17-108"/>
      <path d="M 39.09375 21.515625 
C 39.09375 24.84375 38.90625 31.296875 35.703125 36.640625 
C 32.203125 42.390625 26.5 44 22.203125 44 
C 11.796875 44 3 34.1875 3 21.484375 
C 3 9.09375 12.09375 -1 23.59375 -1 
C 28.09375 -1 33.59375 0.296875 38.59375 3.875 
C 38.59375 4.28125 38.40625 6.46875 38.296875 6.5625 
C 38.296875 6.765625 38 9.84375 38 10.25 
C 33.203125 6.359375 27.703125 5.078125 23.703125 5.078125 
C 17.296875 5.078125 10.40625 10.421875 10.09375 21.515625 
z
M 10.90625 27 
C 12.203125 32.5625 16.59375 37.828125 22.203125 37.828125 
C 23.703125 37.828125 30.703125 37.828125 32.5 27 
z
" id="CMSS17-101"/>
      <path d="M 15.296875 65.359375 
L 6.90625 65.359375 
L 6.90625 57 
L 15.296875 57 
z
M 14.796875 42.796875 
L 7.40625 42.796875 
L 7.40625 0 
L 14.796875 0 
z
" id="CMSS17-105"/>
      <path d="M 37.5 39.09375 
L 37.5 42.96875 
L 3.90625 42.96875 
L 3.90625 37 
L 16.703125 37 
C 17.90625 37 19.09375 37 20.296875 37 
L 27.296875 37 
L 2.59375 4.078125 
L 2.59375 0 
L 37.796875 0 
L 37.796875 6.171875 
L 24.203125 6.171875 
C 23 6.171875 21.796875 6.171875 20.59375 6.171875 
L 12.90625 6.171875 
z
" id="CMSS17-122"/>
      <path d="M 74 57.78125 
C 75.09375 62.09375 76.703125 65.09375 84.296875 65.09375 
C 84.59375 65.09375 85.796875 65.09375 85.796875 66.859375 
C 85.796875 68 84.90625 68 84.5 68 
C 82.5 68 77.40625 68 75.40625 68 
L 70.59375 68 
C 69.203125 68 67.40625 68 66 68 
C 65.40625 68 64.203125 68 64.203125 66.09375 
C 64.203125 65.09375 65 65.09375 65.703125 65.09375 
C 71.703125 65.09375 72.09375 62.796875 72.09375 60.984375 
C 72.09375 60.09375 72 59.78125 71.703125 58.390625 
L 60.40625 13.28125 
L 39 66.390625 
C 38.296875 68 38.203125 68 36 68 
L 23.796875 68 
C 21.796875 68 20.90625 68 20.90625 66.09375 
C 20.90625 65.09375 21.59375 65.09375 23.5 65.09375 
C 24 65.09375 29.90625 65.09375 29.90625 64.296875 
C 29.90625 64.09375 29.703125 63.296875 29.59375 63 
L 16.296875 9.921875 
C 15.09375 5 12.703125 2.90625 6.09375 2.90625 
C 5.59375 2.90625 4.59375 2.90625 4.59375 1.046875 
C 4.59375 0 5.59375 0 5.90625 0 
C 7.90625 0 13 0 15 0 
L 19.796875 0 
C 21.203125 0 22.90625 0 24.296875 0 
C 25 0 26.09375 0 26.09375 1.90625 
C 26.09375 2.8125 25.09375 2.90625 24.703125 2.90625 
C 21.40625 2.90625 18.203125 3.5 18.203125 7.09375 
C 18.203125 7.890625 18.40625 8.78125 18.59375 9.578125 
L 32.09375 63 
C 32.703125 62 32.703125 61.8125 33.09375 60.90625 
L 56.90625 1.796875 
C 57.40625 0.59375 57.59375 0 58.5 0 
C 59.5 0 59.59375 0.296875 60 2 
z
" id="CMMI12-78"/>
     </defs>
     <g style="fill:#262626;" transform="translate(262.960315 302.000623)scale(0.3 -0.3)">
      <use transform="scale(0.996264)" xlink:href="#CMSS17-83"/>
      <use transform="translate(52.048516 0)scale(0.996264)" xlink:href="#CMSS17-97"/>
      <use transform="translate(96.970437 0)scale(0.996264)" xlink:href="#CMSS17-109"/>
      <use transform="translate(171.199691 0)scale(0.996264)" xlink:href="#CMSS17-112"/>
      <use transform="translate(219.404634 0)scale(0.996264)" xlink:href="#CMSS17-108"/>
      <use transform="translate(241.585357 0)scale(0.996264)" xlink:href="#CMSS17-101"/>
      <use transform="translate(314.453292 0)scale(0.996264)" xlink:href="#CMSS17-83"/>
      <use transform="translate(366.501808 0)scale(0.996264)" xlink:href="#CMSS17-105"/>
      <use transform="translate(388.682531 0)scale(0.996264)" xlink:href="#CMSS17-122"/>
      <use transform="translate(429.360403 0)scale(0.996264)" xlink:href="#CMSS17-101"/>
      <use transform="translate(502.228338 0)scale(0.996264)" xlink:href="#CMMI12-78"/>
     </g>
    </g>
   </g>
   <g id="matplotlib.axis_2">
    <g id="ytick_1">
     <g id="line2d_53">
      <path clip-path="url(#p8504c3aa34)" d="M 71.011802 252.532497 
L 629.011802 252.532497 
" style="fill:none;stroke:#ffffff;stroke-linecap:round;"/>
     </g>
     <g id="line2d_54"/>
     <g id="text_7">
      <!-- $0$ -->
      <g style="fill:#262626;" transform="translate(54.873706 259.450996)scale(0.2 -0.2)">
       <use transform="scale(0.996264)" xlink:href="#CMR17-48"/>
      </g>
     </g>
    </g>
    <g id="ytick_2">
     <g id="line2d_55">
      <path clip-path="url(#p8504c3aa34)" d="M 71.011802 186.782202 
L 629.011802 186.782202 
" style="fill:none;stroke:#ffffff;stroke-linecap:round;"/>
     </g>
     <g id="line2d_56"/>
     <g id="text_8">
      <!-- $10$ -->
      <g style="fill:#262626;" transform="translate(45.735611 193.7007)scale(0.2 -0.2)">
       <use transform="scale(0.996264)" xlink:href="#CMR17-49"/>
       <use transform="translate(45.690477 0)scale(0.996264)" xlink:href="#CMR17-48"/>
      </g>
     </g>
    </g>
    <g id="ytick_3">
     <g id="line2d_57">
      <path clip-path="url(#p8504c3aa34)" d="M 71.011802 121.031907 
L 629.011802 121.031907 
" style="fill:none;stroke:#ffffff;stroke-linecap:round;"/>
     </g>
     <g id="line2d_58"/>
     <g id="text_9">
      <!-- $20$ -->
      <g style="fill:#262626;" transform="translate(45.735611 127.950405)scale(0.2 -0.2)">
       <use transform="scale(0.996264)" xlink:href="#CMR17-50"/>
       <use transform="translate(45.690477 0)scale(0.996264)" xlink:href="#CMR17-48"/>
      </g>
     </g>
    </g>
    <g id="ytick_4">
     <g id="line2d_59">
      <path clip-path="url(#p8504c3aa34)" d="M 71.011802 55.281612 
L 629.011802 55.281612 
" style="fill:none;stroke:#ffffff;stroke-linecap:round;"/>
     </g>
     <g id="line2d_60"/>
     <g id="text_10">
      <!-- $30$ -->
      <g style="fill:#262626;" transform="translate(45.735611 62.20011)scale(0.2 -0.2)">
       <use transform="scale(0.996264)" xlink:href="#CMR17-51"/>
       <use transform="translate(45.690477 0)scale(0.996264)" xlink:href="#CMR17-48"/>
      </g>
     </g>
    </g>
    <g id="text_11">
     <!-- $\bar{\lambda}$ -->
     <defs>
      <path d="M 39.90625 55 
L 39.90625 57.28125 
L 5.90625 57.28125 
L 5.90625 55 
z
" id="CMR17-22"/>
      <path d="M 30.90625 61.953125 
C 28.40625 69 20.5 69 19.203125 69 
C 18.59375 69 17.5 69 17.5 68 
C 17.5 67.21875 18.09375 67.109375 18.59375 67.015625 
C 20.09375 66.8125 21.296875 66.609375 22.90625 63.75 
C 23.90625 61.859375 34.203125 32.171875 34.203125 31.96875 
C 34.203125 31.875 34.09375 31.765625 33.296875 30.96875 
L 7.296875 4.859375 
C 6.09375 3.65625 5.296875 2.859375 5.296875 1.59375 
C 5.296875 0.1875 6.5 -1 8.09375 -1 
C 8.5 -1 9.59375 -0.796875 10.203125 -0.203125 
C 11.796875 1.28125 26.09375 18.65625 35.203125 29.390625 
C 37.796875 21.609375 41 12.453125 44.09375 4.078125 
C 44.59375 2.59375 45.09375 1.1875 46.5 -0.09375 
C 47.5 -1 47.703125 -1 50.5 -1 
L 52.40625 -1 
C 52.796875 -1 53.5 -1 53.5 -0.203125 
C 53.5 0.203125 53.40625 0.296875 53 0.703125 
C 52.09375 1.796875 51.40625 3.578125 51 4.78125 
z
" id="CMMI12-21"/>
     </defs>
     <g style="fill:#262626;" transform="translate(7.2 137.999047)scale(0.3 -0.3)">
      <use transform="translate(5.606797 26.296621)scale(0.996264)" xlink:href="#CMR17-22"/>
      <use transform="scale(0.996264)" xlink:href="#CMMI12-21"/>
     </g>
    </g>
   </g>
   <g id="line2d_61">
    <path d="M 96.375438 243.746885 
L 339.492655 234.904773 
L 401.474691 236.336828 
L 441.161904 234.446737 
L 469.051219 236.255791 
L 490.572726 236.795544 
L 508.100482 236.317784 
L 522.887253 237.530831 
L 535.849401 235.666057 
L 547.755295 235.527516 
L 558.468151 236.135508 
L 567.43627 235.170043 
L 575.628725 234.63281 
L 583.724996 235.42926 
L 590.670058 235.541702 
L 597.62072 236.142804 
L 603.648165 237.328015 
" style="fill:none;opacity:0.75;stroke:#db5f57;stroke-dasharray:7.4,3.2;stroke-dashoffset:0;stroke-width:2;"/>
    <defs>
     <path d="M 0 5 
C 1.326016 5 2.597899 4.473168 3.535534 3.535534 
C 4.473168 2.597899 5 1.326016 5 0 
C 5 -1.326016 4.473168 -2.597899 3.535534 -3.535534 
C 2.597899 -4.473168 1.326016 -5 0 -5 
C -1.326016 -5 -2.597899 -4.473168 -3.535534 -3.535534 
C -4.473168 -2.597899 -5 -1.326016 -5 0 
C -5 1.326016 -4.473168 2.597899 -3.535534 3.535534 
C -2.597899 4.473168 -1.326016 5 0 5 
z
" id="mc298b8c73e"/>
    </defs>
    <g>
     <use style="fill:#db5f57;opacity:0.75;" x="96.375438" xlink:href="#mc298b8c73e" y="243.746885"/>
     <use style="fill:#db5f57;opacity:0.75;" x="339.492655" xlink:href="#mc298b8c73e" y="234.904773"/>
     <use style="fill:#db5f57;opacity:0.75;" x="401.474691" xlink:href="#mc298b8c73e" y="236.336828"/>
     <use style="fill:#db5f57;opacity:0.75;" x="441.161904" xlink:href="#mc298b8c73e" y="234.446737"/>
     <use style="fill:#db5f57;opacity:0.75;" x="469.051219" xlink:href="#mc298b8c73e" y="236.255791"/>
     <use style="fill:#db5f57;opacity:0.75;" x="490.572726" xlink:href="#mc298b8c73e" y="236.795544"/>
     <use style="fill:#db5f57;opacity:0.75;" x="508.100482" xlink:href="#mc298b8c73e" y="236.317784"/>
     <use style="fill:#db5f57;opacity:0.75;" x="522.887253" xlink:href="#mc298b8c73e" y="237.530831"/>
     <use style="fill:#db5f57;opacity:0.75;" x="535.849401" xlink:href="#mc298b8c73e" y="235.666057"/>
     <use style="fill:#db5f57;opacity:0.75;" x="547.755295" xlink:href="#mc298b8c73e" y="235.527516"/>
     <use style="fill:#db5f57;opacity:0.75;" x="558.468151" xlink:href="#mc298b8c73e" y="236.135508"/>
     <use style="fill:#db5f57;opacity:0.75;" x="567.43627" xlink:href="#mc298b8c73e" y="235.170043"/>
     <use style="fill:#db5f57;opacity:0.75;" x="575.628725" xlink:href="#mc298b8c73e" y="234.63281"/>
     <use style="fill:#db5f57;opacity:0.75;" x="583.724996" xlink:href="#mc298b8c73e" y="235.42926"/>
     <use style="fill:#db5f57;opacity:0.75;" x="590.670058" xlink:href="#mc298b8c73e" y="235.541702"/>
     <use style="fill:#db5f57;opacity:0.75;" x="597.62072" xlink:href="#mc298b8c73e" y="236.142804"/>
     <use style="fill:#db5f57;opacity:0.75;" x="603.648165" xlink:href="#mc298b8c73e" y="237.328015"/>
    </g>
   </g>
   <g id="line2d_62">
    <path d="M 575.628725 232.90529 
L 583.724996 232.90529 
L 590.670058 232.90529 
L 597.62072 232.90529 
L 603.648165 232.90529 
" style="fill:none;stroke:#db5f57;stroke-linecap:round;stroke-width:5;"/>
   </g>
   <g id="line2d_63">
    <path d="M 96.375438 238.943483 
L 339.492655 203.440936 
L 401.474691 204.534866 
L 441.161904 200.302835 
L 469.051219 204.333694 
L 490.572726 205.687761 
L 508.100482 204.185973 
L 522.887253 205.225882 
L 535.849401 202.611127 
L 547.755295 199.613356 
L 558.468151 200.935755 
L 567.43627 201.373798 
L 575.628725 200.648576 
L 583.724996 203.078897 
L 590.670058 202.998886 
L 597.62072 205.014342 
L 603.648165 205.010906 
" style="fill:none;opacity:0.75;stroke:#b9db57;stroke-dasharray:7.4,3.2;stroke-dashoffset:0;stroke-width:2;"/>
    <defs>
     <path d="M 0 5 
C 1.326016 5 2.597899 4.473168 3.535534 3.535534 
C 4.473168 2.597899 5 1.326016 5 0 
C 5 -1.326016 4.473168 -2.597899 3.535534 -3.535534 
C 2.597899 -4.473168 1.326016 -5 0 -5 
C -1.326016 -5 -2.597899 -4.473168 -3.535534 -3.535534 
C -4.473168 -2.597899 -5 -1.326016 -5 0 
C -5 1.326016 -4.473168 2.597899 -3.535534 3.535534 
C -2.597899 4.473168 -1.326016 5 0 5 
z
" id="m551994167e"/>
    </defs>
    <g>
     <use style="fill:#b9db57;opacity:0.75;" x="96.375438" xlink:href="#m551994167e" y="238.943483"/>
     <use style="fill:#b9db57;opacity:0.75;" x="339.492655" xlink:href="#m551994167e" y="203.440936"/>
     <use style="fill:#b9db57;opacity:0.75;" x="401.474691" xlink:href="#m551994167e" y="204.534866"/>
     <use style="fill:#b9db57;opacity:0.75;" x="441.161904" xlink:href="#m551994167e" y="200.302835"/>
     <use style="fill:#b9db57;opacity:0.75;" x="469.051219" xlink:href="#m551994167e" y="204.333694"/>
     <use style="fill:#b9db57;opacity:0.75;" x="490.572726" xlink:href="#m551994167e" y="205.687761"/>
     <use style="fill:#b9db57;opacity:0.75;" x="508.100482" xlink:href="#m551994167e" y="204.185973"/>
     <use style="fill:#b9db57;opacity:0.75;" x="522.887253" xlink:href="#m551994167e" y="205.225882"/>
     <use style="fill:#b9db57;opacity:0.75;" x="535.849401" xlink:href="#m551994167e" y="202.611127"/>
     <use style="fill:#b9db57;opacity:0.75;" x="547.755295" xlink:href="#m551994167e" y="199.613356"/>
     <use style="fill:#b9db57;opacity:0.75;" x="558.468151" xlink:href="#m551994167e" y="200.935755"/>
     <use style="fill:#b9db57;opacity:0.75;" x="567.43627" xlink:href="#m551994167e" y="201.373798"/>
     <use style="fill:#b9db57;opacity:0.75;" x="575.628725" xlink:href="#m551994167e" y="200.648576"/>
     <use style="fill:#b9db57;opacity:0.75;" x="583.724996" xlink:href="#m551994167e" y="203.078897"/>
     <use style="fill:#b9db57;opacity:0.75;" x="590.670058" xlink:href="#m551994167e" y="202.998886"/>
     <use style="fill:#b9db57;opacity:0.75;" x="597.62072" xlink:href="#m551994167e" y="205.014342"/>
     <use style="fill:#b9db57;opacity:0.75;" x="603.648165" xlink:href="#m551994167e" y="205.010906"/>
    </g>
   </g>
   <g id="line2d_64">
    <path d="M 575.628725 195.927303 
L 583.724996 195.927303 
L 590.670058 195.927303 
L 597.62072 195.927303 
L 603.648165 195.927303 
" style="fill:none;stroke:#b9db57;stroke-linecap:round;stroke-width:5;"/>
   </g>
   <g id="line2d_65">
    <path d="M 96.375438 238.048669 
L 339.492655 186.566149 
L 401.474691 181.033063 
L 441.161904 173.901209 
L 469.051219 177.350537 
L 490.572726 178.631227 
L 508.100482 176.43961 
L 522.887253 177.266934 
L 535.849401 172.573039 
L 547.755295 169.521262 
L 558.468151 170.920784 
L 567.43627 171.684408 
L 575.628725 169.774615 
L 583.724996 172.175247 
L 590.670058 171.468594 
L 597.62072 171.483539 
L 603.648165 171.222952 
" style="fill:none;opacity:0.75;stroke:#57db94;stroke-dasharray:7.4,3.2;stroke-dashoffset:0;stroke-width:2;"/>
    <defs>
     <path d="M 0 5 
C 1.326016 5 2.597899 4.473168 3.535534 3.535534 
C 4.473168 2.597899 5 1.326016 5 0 
C 5 -1.326016 4.473168 -2.597899 3.535534 -3.535534 
C 2.597899 -4.473168 1.326016 -5 0 -5 
C -1.326016 -5 -2.597899 -4.473168 -3.535534 -3.535534 
C -4.473168 -2.597899 -5 -1.326016 -5 0 
C -5 1.326016 -4.473168 2.597899 -3.535534 3.535534 
C -2.597899 4.473168 -1.326016 5 0 5 
z
" id="m7946fc6e30"/>
    </defs>
    <g>
     <use style="fill:#57db94;opacity:0.75;" x="96.375438" xlink:href="#m7946fc6e30" y="238.048669"/>
     <use style="fill:#57db94;opacity:0.75;" x="339.492655" xlink:href="#m7946fc6e30" y="186.566149"/>
     <use style="fill:#57db94;opacity:0.75;" x="401.474691" xlink:href="#m7946fc6e30" y="181.033063"/>
     <use style="fill:#57db94;opacity:0.75;" x="441.161904" xlink:href="#m7946fc6e30" y="173.901209"/>
     <use style="fill:#57db94;opacity:0.75;" x="469.051219" xlink:href="#m7946fc6e30" y="177.350537"/>
     <use style="fill:#57db94;opacity:0.75;" x="490.572726" xlink:href="#m7946fc6e30" y="178.631227"/>
     <use style="fill:#57db94;opacity:0.75;" x="508.100482" xlink:href="#m7946fc6e30" y="176.43961"/>
     <use style="fill:#57db94;opacity:0.75;" x="522.887253" xlink:href="#m7946fc6e30" y="177.266934"/>
     <use style="fill:#57db94;opacity:0.75;" x="535.849401" xlink:href="#m7946fc6e30" y="172.573039"/>
     <use style="fill:#57db94;opacity:0.75;" x="547.755295" xlink:href="#m7946fc6e30" y="169.521262"/>
     <use style="fill:#57db94;opacity:0.75;" x="558.468151" xlink:href="#m7946fc6e30" y="170.920784"/>
     <use style="fill:#57db94;opacity:0.75;" x="567.43627" xlink:href="#m7946fc6e30" y="171.684408"/>
     <use style="fill:#57db94;opacity:0.75;" x="575.628725" xlink:href="#m7946fc6e30" y="169.774615"/>
     <use style="fill:#57db94;opacity:0.75;" x="583.724996" xlink:href="#m7946fc6e30" y="172.175247"/>
     <use style="fill:#57db94;opacity:0.75;" x="590.670058" xlink:href="#m7946fc6e30" y="171.468594"/>
     <use style="fill:#57db94;opacity:0.75;" x="597.62072" xlink:href="#m7946fc6e30" y="171.483539"/>
     <use style="fill:#57db94;opacity:0.75;" x="603.648165" xlink:href="#m7946fc6e30" y="171.222952"/>
    </g>
   </g>
   <g id="line2d_66">
    <path d="M 575.628725 150.985066 
L 583.724996 150.985066 
L 590.670058 150.985066 
L 597.62072 150.985066 
L 603.648165 150.985066 
" style="fill:none;stroke:#57db94;stroke-linecap:round;stroke-width:5;"/>
   </g>
   <g id="line2d_67">
    <path d="M 96.375438 237.880865 
L 339.492655 179.458475 
L 401.474691 169.628542 
L 441.161904 160.089159 
L 469.051219 160.664674 
L 490.572726 160.581798 
L 508.100482 156.603756 
L 522.887253 156.180542 
L 535.849401 151.721186 
L 547.755295 146.247227 
L 558.468151 146.53599 
L 567.43627 146.514871 
L 575.628725 145.013353 
L 583.724996 145.922707 
L 590.670058 143.801554 
L 597.62072 142.792921 
L 603.648165 140.366854 
" style="fill:none;opacity:0.75;stroke:#5784db;stroke-dasharray:7.4,3.2;stroke-dashoffset:0;stroke-width:2;"/>
    <defs>
     <path d="M 0 5 
C 1.326016 5 2.597899 4.473168 3.535534 3.535534 
C 4.473168 2.597899 5 1.326016 5 0 
C 5 -1.326016 4.473168 -2.597899 3.535534 -3.535534 
C 2.597899 -4.473168 1.326016 -5 0 -5 
C -1.326016 -5 -2.597899 -4.473168 -3.535534 -3.535534 
C -4.473168 -2.597899 -5 -1.326016 -5 0 
C -5 1.326016 -4.473168 2.597899 -3.535534 3.535534 
C -2.597899 4.473168 -1.326016 5 0 5 
z
" id="m7c76004b5c"/>
    </defs>
    <g>
     <use style="fill:#5784db;opacity:0.75;" x="96.375438" xlink:href="#m7c76004b5c" y="237.880865"/>
     <use style="fill:#5784db;opacity:0.75;" x="339.492655" xlink:href="#m7c76004b5c" y="179.458475"/>
     <use style="fill:#5784db;opacity:0.75;" x="401.474691" xlink:href="#m7c76004b5c" y="169.628542"/>
     <use style="fill:#5784db;opacity:0.75;" x="441.161904" xlink:href="#m7c76004b5c" y="160.089159"/>
     <use style="fill:#5784db;opacity:0.75;" x="469.051219" xlink:href="#m7c76004b5c" y="160.664674"/>
     <use style="fill:#5784db;opacity:0.75;" x="490.572726" xlink:href="#m7c76004b5c" y="160.581798"/>
     <use style="fill:#5784db;opacity:0.75;" x="508.100482" xlink:href="#m7c76004b5c" y="156.603756"/>
     <use style="fill:#5784db;opacity:0.75;" x="522.887253" xlink:href="#m7c76004b5c" y="156.180542"/>
     <use style="fill:#5784db;opacity:0.75;" x="535.849401" xlink:href="#m7c76004b5c" y="151.721186"/>
     <use style="fill:#5784db;opacity:0.75;" x="547.755295" xlink:href="#m7c76004b5c" y="146.247227"/>
     <use style="fill:#5784db;opacity:0.75;" x="558.468151" xlink:href="#m7c76004b5c" y="146.53599"/>
     <use style="fill:#5784db;opacity:0.75;" x="567.43627" xlink:href="#m7c76004b5c" y="146.514871"/>
     <use style="fill:#5784db;opacity:0.75;" x="575.628725" xlink:href="#m7c76004b5c" y="145.013353"/>
     <use style="fill:#5784db;opacity:0.75;" x="583.724996" xlink:href="#m7c76004b5c" y="145.922707"/>
     <use style="fill:#5784db;opacity:0.75;" x="590.670058" xlink:href="#m7c76004b5c" y="143.801554"/>
     <use style="fill:#5784db;opacity:0.75;" x="597.62072" xlink:href="#m7c76004b5c" y="142.792921"/>
     <use style="fill:#5784db;opacity:0.75;" x="603.648165" xlink:href="#m7c76004b5c" y="140.366854"/>
    </g>
   </g>
   <g id="line2d_68">
    <path d="M 575.628725 102.363999 
L 583.724996 102.363999 
L 590.670058 102.363999 
L 597.62072 102.363999 
L 603.648165 102.363999 
" style="fill:none;stroke:#5784db;stroke-linecap:round;stroke-width:5;"/>
   </g>
   <g id="line2d_69">
    <path d="M 96.375438 237.852441 
L 339.492655 176.689125 
L 401.474691 165.104415 
L 441.161904 153.939416 
L 469.051219 152.794479 
L 490.572726 151.161422 
L 508.100482 146.433859 
L 522.887253 144.58406 
L 535.849401 138.522311 
L 547.755295 131.549619 
L 558.468151 130.966729 
L 567.43627 130.718598 
L 575.628725 127.931679 
L 583.724996 128.132313 
L 590.670058 125.688033 
L 597.62072 122.736089 
L 603.648165 119.583687 
" style="fill:none;opacity:0.75;stroke:#c957db;stroke-dasharray:7.4,3.2;stroke-dashoffset:0;stroke-width:2;"/>
    <defs>
     <path d="M 0 5 
C 1.326016 5 2.597899 4.473168 3.535534 3.535534 
C 4.473168 2.597899 5 1.326016 5 0 
C 5 -1.326016 4.473168 -2.597899 3.535534 -3.535534 
C 2.597899 -4.473168 1.326016 -5 0 -5 
C -1.326016 -5 -2.597899 -4.473168 -3.535534 -3.535534 
C -4.473168 -2.597899 -5 -1.326016 -5 0 
C -5 1.326016 -4.473168 2.597899 -3.535534 3.535534 
C -2.597899 4.473168 -1.326016 5 0 5 
z
" id="mac0567f124"/>
    </defs>
    <g>
     <use style="fill:#c957db;opacity:0.75;" x="96.375438" xlink:href="#mac0567f124" y="237.852441"/>
     <use style="fill:#c957db;opacity:0.75;" x="339.492655" xlink:href="#mac0567f124" y="176.689125"/>
     <use style="fill:#c957db;opacity:0.75;" x="401.474691" xlink:href="#mac0567f124" y="165.104415"/>
     <use style="fill:#c957db;opacity:0.75;" x="441.161904" xlink:href="#mac0567f124" y="153.939416"/>
     <use style="fill:#c957db;opacity:0.75;" x="469.051219" xlink:href="#mac0567f124" y="152.794479"/>
     <use style="fill:#c957db;opacity:0.75;" x="490.572726" xlink:href="#mac0567f124" y="151.161422"/>
     <use style="fill:#c957db;opacity:0.75;" x="508.100482" xlink:href="#mac0567f124" y="146.433859"/>
     <use style="fill:#c957db;opacity:0.75;" x="522.887253" xlink:href="#mac0567f124" y="144.58406"/>
     <use style="fill:#c957db;opacity:0.75;" x="535.849401" xlink:href="#mac0567f124" y="138.522311"/>
     <use style="fill:#c957db;opacity:0.75;" x="547.755295" xlink:href="#mac0567f124" y="131.549619"/>
     <use style="fill:#c957db;opacity:0.75;" x="558.468151" xlink:href="#mac0567f124" y="130.966729"/>
     <use style="fill:#c957db;opacity:0.75;" x="567.43627" xlink:href="#mac0567f124" y="130.718598"/>
     <use style="fill:#c957db;opacity:0.75;" x="575.628725" xlink:href="#mac0567f124" y="127.931679"/>
     <use style="fill:#c957db;opacity:0.75;" x="583.724996" xlink:href="#mac0567f124" y="128.132313"/>
     <use style="fill:#c957db;opacity:0.75;" x="590.670058" xlink:href="#mac0567f124" y="125.688033"/>
     <use style="fill:#c957db;opacity:0.75;" x="597.62072" xlink:href="#mac0567f124" y="122.736089"/>
     <use style="fill:#c957db;opacity:0.75;" x="603.648165" xlink:href="#mac0567f124" y="119.583687"/>
    </g>
   </g>
   <g id="line2d_70">
    <path d="M 575.628725 51.290353 
L 583.724996 51.290353 
L 590.670058 51.290353 
L 597.62072 51.290353 
L 603.648165 51.290353 
" style="fill:none;stroke:#c957db;stroke-linecap:round;stroke-width:5;"/>
   </g>
   <g id="patch_3">
    <path d="M 71.011802 252.532497 
L 71.011802 35.092497 
" style="fill:none;"/>
   </g>
   <g id="patch_4">
    <path d="M 629.011802 252.532497 
L 629.011802 35.092497 
" style="fill:none;"/>
   </g>
   <g id="patch_5">
    <path d="M 71.011802 252.532497 
L 629.011802 252.532497 
" style="fill:none;"/>
   </g>
   <g id="patch_6">
    <path d="M 71.011802 35.092497 
L 629.011802 35.092497 
" style="fill:none;"/>
   </g>
   <g id="text_12">
    <!-- $\bar\lambda(\rho_{0}, \mathcal{M}_{d})$ for $\rho_0 = \vert 0\rangle\langle 0|$ -->
    <defs>
     <path d="M 30.59375 -24.390625 
C 30.59375 -24.296875 30.59375 -24.09375 30.296875 -23.796875 
C 25.703125 -19.125 13.40625 -6.359375 13.40625 24.6875 
C 13.40625 55.765625 25.5 68.421875 30.40625 73.390625 
C 30.40625 73.5 30.59375 73.703125 30.59375 74 
C 30.59375 74.296875 30.296875 74.5 29.90625 74.5 
C 28.796875 74.5 20.296875 67.125 15.40625 56.15625 
C 10.40625 45.109375 9 34.359375 9 24.8125 
C 9 17.625 9.703125 5.484375 15.703125 -7.359375 
C 20.5 -17.734375 28.703125 -25 29.90625 -25 
C 30.40625 -25 30.59375 -24.796875 30.59375 -24.390625 
z
" id="CMR17-40"/>
     <path d="M 3.09375 -17.296875 
C 3 -17.796875 2.796875 -18.390625 2.796875 -19 
C 2.796875 -20.5 4 -21.5 5.5 -21.5 
C 7 -21.5 8.40625 -20.5 9 -19.09375 
C 9.40625 -18.1875 12.203125 -6.203125 15.40625 6.09375 
C 17.40625 1.09375 21.09375 -1 25 -1 
C 36.296875 -1 49.09375 12.96875 49.09375 28.046875 
C 49.09375 38.71875 42.59375 44 35.703125 44 
C 26.90625 44 16.203125 34.921875 12.90625 21.640625 
z
M 24.90625 1 
C 18.09375 1 16.40625 8.890625 16.40625 10.078125 
C 16.40625 10.6875 18.90625 20.234375 19.203125 21.734375 
C 24.296875 41.71875 34.09375 41.71875 35.59375 41.71875 
C 40.09375 41.71875 42.59375 37.65625 42.59375 31.8125 
C 42.59375 26.75 39.90625 16.9375 38.203125 12.796875 
C 35.203125 5.953125 30 1 24.90625 1 
z
" id="CMMI12-26"/>
     <path d="M 19.5 -0.484375 
C 19.5 5.359375 17.59375 9.671875 13.5 9.671875 
C 10.296875 9.671875 8.703125 7.078125 8.703125 4.890625 
C 8.703125 2.6875 10.203125 0 13.59375 0 
C 14.90625 0 16 0.40625 16.90625 1.296875 
C 17.09375 1.5 17.203125 1.5 17.296875 1.5 
C 17.5 1.5 17.5 0.078125 17.5 -0.421875 
C 17.5 -3.75 16.90625 -10.296875 11.09375 -16.875 
C 10 -18.078125 10 -18.28125 10 -18.484375 
C 10 -19 10.5 -19.5 11 -19.5 
C 11.796875 -19.5 19.5 -12.046875 19.5 -0.484375 
z
" id="CMMI12-59"/>
     <path d="M 38.5 56.703125 
C 41.203125 43.703125 45.59375 22.296875 51.296875 10.703125 
C 53.5 6.390625 54.59375 4.203125 55.59375 4.203125 
C 56 4.203125 56.203125 4.203125 58 6 
C 65.59375 13.265625 70.796875 19.046875 77.796875 27.03125 
L 99.703125 52.453125 
C 98.296875 43.96875 94.703125 21.53125 94.703125 9.859375 
C 94.703125 7.171875 94.796875 4.578125 95.09375 1.875 
C 95.203125 0.796875 95.59375 -2.109375 99.796875 -2.109375 
C 104 -2.109375 111.59375 2.296875 111.59375 4.296875 
C 111.59375 4.890625 111 5 110.703125 5 
C 109.40625 5 107.40625 4.109375 106.296875 3.40625 
C 103.90625 3.71875 103.703125 5.3125 103.5 7.59375 
C 103.203125 10.78125 103.203125 13.78125 103.203125 14.1875 
C 103.203125 25.234375 107.59375 55.4375 110.5 67.8125 
C 110.59375 68.515625 110.703125 68.6875 110.703125 69.5 
C 110.703125 69.890625 110.59375 71 109.90625 71 
C 109.5 71 109.40625 70.890625 107.5 68.6875 
C 98.09375 57.34375 68.90625 22.4375 59 14.0625 
C 56.5 19.328125 54.703125 23.125 51.203125 37.0625 
C 48.296875 48.3125 46.59375 56.5625 44.90625 66.21875 
C 44.59375 67.609375 44.09375 70.296875 44.09375 70.5 
C 43.796875 71 43.296875 71 43 71 
C 41.203125 71 37 68.8125 36.703125 66.71875 
C 35.5 58.359375 33.5 45.203125 26.5 26.203125 
C 18.5 5 16.296875 5 14.40625 5 
C 13.09375 5 9.40625 5.796875 7.203125 7.78125 
C 6.703125 8.28125 6.5 8.28125 6.296875 8.28125 
C 4.90625 8.28125 2.703125 3.75 2.703125 0.9375 
C 2.703125 0.03125 2.703125 -1.1875 5.90625 -2.875 
C 8.40625 -4.203125 10.796875 -4.203125 11.296875 -4.203125 
C 17.5 -4.203125 23.40625 10.09375 25.40625 15.203125 
C 30.09375 26.5 35.703125 42.296875 38.5 56.703125 
z
" id="CMSY10-77"/>
     <path d="M 50.296875 66.515625 
C 50.40625 66.90625 50.59375 67.5 50.59375 68 
C 50.59375 69 49.59375 69 49.40625 69 
C 49.296875 69 44.40625 68.5625 43.90625 68.4375 
C 42.203125 68.328125 40.703125 68.09375 38.90625 68.09375 
C 36.40625 67.890625 35.703125 67.796875 35.703125 66 
C 35.703125 65 36.5 65 37.90625 65 
C 42.796875 65 42.90625 64.109375 42.90625 63.125 
C 42.90625 62.53125 42.703125 61.75 42.59375 61.453125 
L 36.5 37.421875 
C 35.40625 40.015625 32.703125 44 27.5 44 
C 16.203125 44 4 29.4375 4 14.671875 
C 4 4.796875 9.796875 -1 16.59375 -1 
C 22.09375 -1 26.796875 3.296875 29.59375 6.59375 
C 30.59375 0.703125 35.296875 -1 38.296875 -1 
C 41.296875 -1 43.703125 0.796875 45.5 4.390625 
C 47.09375 7.78125 48.5 13.875 48.5 14.265625 
C 48.5 14.765625 48.09375 15.171875 47.5 15.171875 
C 46.59375 15.171875 46.5 14.671875 46.09375 13.171875 
C 44.59375 7.28125 42.703125 1 38.59375 1 
C 35.703125 1 35.5 3.578125 35.5 5.578125 
C 35.5 5.96875 35.5 8.046875 36.203125 10.84375 
z
M 30.09375 11.875 
C 29.59375 10.171875 29.59375 9.984375 28.203125 8.078125 
C 26 5.28125 21.59375 1 16.90625 1 
C 12.796875 1 10.5 4.6875 10.5 10.578125 
C 10.5 16.0625 13.59375 27.234375 15.5 31.4375 
C 18.90625 38.421875 23.59375 42.015625 27.5 42.015625 
C 34.09375 42.015625 35.40625 33.828125 35.40625 33.03125 
C 35.40625 32.9375 35.09375 31.625 35 31.4375 
z
" id="CMMI12-100"/>
     <path d="M 26.296875 24.6875 
C 26.296875 31.875 25.59375 44.015625 19.59375 56.859375 
C 14.796875 67.234375 6.59375 74.5 5.40625 74.5 
C 5.09375 74.5 4.703125 74.390625 4.703125 73.890625 
C 4.703125 73.703125 4.796875 73.59375 4.90625 73.390625 
C 9.703125 68.40625 21.90625 55.75 21.90625 24.75 
C 21.90625 -6.359375 9.796875 -19.015625 4.90625 -24.015625 
C 4.796875 -24.203125 4.703125 -24.3125 4.703125 -24.5 
C 4.703125 -25 5.09375 -25 5.40625 -25 
C 6.5 -25 15 -17.625 19.90625 -6.65625 
C 24.90625 4.390625 26.296875 15.140625 26.296875 24.6875 
z
" id="CMR17-41"/>
     <path d="M 16.796875 37 
L 26.90625 37 
L 26.90625 42.765625 
L 16.59375 42.765625 
L 16.59375 55.609375 
C 16.59375 62.71875 22 63.9375 25.09375 63.9375 
C 26.09375 63.9375 28.90625 63.9375 32.5 62.640625 
L 32.5 69.203125 
C 30.203125 69.703125 27.40625 70 25.203125 70 
C 15.90625 70 9.40625 62.390625 9.40625 52.484375 
L 9.40625 42.765625 
L 2.5 42.765625 
L 2.5 37 
L 9.40625 37 
L 9.40625 0 
L 16.796875 0 
z
" id="CMSS17-102"/>
     <path d="M 44.203125 21.1875 
C 44.203125 34 34.703125 44 23.5 44 
C 12 44 2.703125 33.703125 2.703125 21.1875 
C 2.703125 8.5 12.296875 -1 23.40625 -1 
C 34.796875 -1 44.203125 8.796875 44.203125 21.1875 
z
M 23.5 5.265625 
C 16.40625 5.265625 10.296875 11.078125 10.296875 22 
C 10.296875 33.609375 17.40625 37.921875 23.40625 37.921875 
C 29.90625 37.921875 36.59375 33.21875 36.59375 22 
C 36.59375 10.671875 30.09375 5.265625 23.5 5.265625 
z
" id="CMSS17-111"/>
     <path d="M 14.90625 21.296875 
C 14.90625 30.703125 21.796875 37 30.59375 37 
L 30.59375 43.578125 
C 24.203125 43.578125 18.203125 40.390625 14.59375 35.203125 
L 14.59375 43.09375 
L 7.5 43.09375 
L 7.5 0 
L 14.90625 0 
z
" id="CMSS17-114"/>
     <path d="M 64.296875 31.515625 
C 65.796875 31.515625 67.296875 31.515625 67.296875 33.203125 
C 67.296875 35 65.59375 35 63.90625 35 
L 8 35 
C 6.296875 35 4.59375 35 4.59375 33.203125 
C 4.59375 31.515625 6.09375 31.515625 7.59375 31.515625 
z
M 63.90625 14 
C 65.59375 14 67.296875 14 67.296875 15.796875 
C 67.296875 17.484375 65.796875 17.484375 64.296875 17.484375 
L 7.59375 17.484375 
C 6.09375 17.484375 4.59375 17.484375 4.59375 15.796875 
C 4.59375 14 6.296875 14 8 14 
z
" id="CMR17-61"/>
     <path d="M 15.90625 71.40625 
C 15.90625 73.203125 15.90625 75 13.90625 75 
C 11.90625 75 11.90625 73.203125 11.90625 71.40625 
L 11.90625 -21.40625 
C 11.90625 -23.203125 11.90625 -25 13.90625 -25 
C 15.90625 -25 15.90625 -23.203125 15.90625 -21.40625 
z
" id="CMSY10-106"/>
     <path d="M 27.296875 23.296875 
C 27.796875 24.5 27.796875 24.703125 27.796875 25 
C 27.796875 25.296875 27.796875 25.5 27.296875 26.703125 
L 9.796875 72.703125 
C 9.203125 74.40625 8.59375 75 7.5 75 
C 6.40625 75 5.5 74.09375 5.5 73 
C 5.5 72.703125 5.5 72.5 6 71.40625 
L 23.703125 25 
L 6 -21.203125 
C 5.5 -22.296875 5.5 -22.5 5.5 -23 
C 5.5 -24.09375 6.40625 -25 7.5 -25 
C 8.796875 -25 9.203125 -24 9.59375 -23 
z
" id="CMSY10-105"/>
     <path d="M 32.796875 71.203125 
C 33.296875 72.296875 33.296875 72.5 33.296875 73 
C 33.296875 74.09375 32.40625 75 31.296875 75 
C 30.40625 75 29.703125 74.5 29 72.703125 
L 11.5 26.796875 
C 11.296875 26.203125 11 25.59375 11 25 
C 11 24.703125 11 24.5 11.5 23.296875 
L 29 -22.59375 
C 29.40625 -23.703125 29.90625 -25 31.296875 -25 
C 32.40625 -25 33.296875 -24.09375 33.296875 -23 
C 33.296875 -22.703125 33.296875 -22.5 32.796875 -21.40625 
L 15.09375 25 
z
" id="CMSY10-104"/>
    </defs>
    <g style="fill:#262626;" transform="translate(223.089559 29.092497)scale(0.25 -0.25)">
     <use transform="translate(5.606797 41.240535)scale(0.996264)" xlink:href="#CMR17-22"/>
     <use transform="translate(0 14.943915)scale(0.996264)" xlink:href="#CMMI12-21"/>
     <use transform="translate(56.904072 14.943915)scale(0.996264)" xlink:href="#CMR17-40"/>
     <use transform="translate(92.18484 14.943915)scale(0.996264)" xlink:href="#CMMI12-26"/>
     <use transform="translate(142.499213 0)scale(0.697382)" xlink:href="#CMR17-48"/>
     <use transform="translate(174.980527 14.943915)scale(0.996264)" xlink:href="#CMMI12-59"/>
     <use transform="translate(218.682109 14.943915)scale(0.996264)" xlink:href="#CMSY10-77"/>
     <use transform="translate(338.32345 0)scale(0.697382)" xlink:href="#CMMI12-100"/>
     <use transform="translate(374.303789 14.943915)scale(0.996264)" xlink:href="#CMR17-41"/>
     <use transform="translate(440.813669 14.943915)scale(0.996264)" xlink:href="#CMSS17-102"/>
     <use transform="translate(469.440328 14.943915)scale(0.996264)" xlink:href="#CMSS17-111"/>
     <use transform="translate(513.681498 14.943915)scale(0.996264)" xlink:href="#CMSS17-114"/>
     <use transform="translate(576.820383 14.943915)scale(0.996264)" xlink:href="#CMMI12-26"/>
     <use transform="translate(627.134756 0)scale(0.697382)" xlink:href="#CMR17-48"/>
     <use transform="translate(687.290079 14.943915)scale(0.996264)" xlink:href="#CMR17-61"/>
     <use transform="translate(786.678876 14.943915)scale(0.996264)" xlink:href="#CMSY10-106"/>
     <use transform="translate(814.35296 14.943915)scale(0.996264)" xlink:href="#CMR17-48"/>
     <use transform="translate(860.043438 14.943915)scale(0.996264)" xlink:href="#CMSY10-105"/>
     <use transform="translate(898.787171 14.943915)scale(0.996264)" xlink:href="#CMSY10-104"/>
     <use transform="translate(937.530905 14.943915)scale(0.996264)" xlink:href="#CMR17-48"/>
     <use transform="translate(983.221382 14.943915)scale(0.996264)" xlink:href="#CMSY10-106"/>
    </g>
   </g>
   <g id="legend_1">
    <g id="patch_7">
     <path d="M 86.411802 144.682061 
L 370.778163 144.682061 
Q 375.178163 144.682061 375.178163 140.282061 
L 375.178163 50.492497 
Q 375.178163 46.092497 370.778163 46.092497 
L 86.411802 46.092497 
Q 82.011802 46.092497 82.011802 50.492497 
L 82.011802 140.282061 
Q 82.011802 144.682061 86.411802 144.682061 
z
" style="fill:#eaeaf2;opacity:0.8;stroke:#cccccc;stroke-linejoin:miter;stroke-width:0.3;"/>
    </g>
    <g id="line2d_71">
     <path d="M 90.811802 62.592497 
L 134.811802 62.592497 
" style="fill:none;opacity:0.75;stroke:#db5f57;stroke-dasharray:7.4,3.2;stroke-dashoffset:0;stroke-width:2;"/>
    </g>
    <g id="line2d_72">
     <g>
      <use style="fill:#db5f57;opacity:0.75;" x="112.811802" xlink:href="#mc298b8c73e" y="62.592497"/>
     </g>
    </g>
    <g id="text_13">
     <!-- $d=2$ -->
     <g style="fill:#262626;" transform="translate(152.411802 70.292497)scale(0.22 -0.22)">
      <use transform="scale(0.996264)" xlink:href="#CMMI12-100"/>
      <use transform="translate(78.363106 0)scale(0.996264)" xlink:href="#CMR17-61"/>
      <use transform="translate(177.751903 0)scale(0.996264)" xlink:href="#CMR17-50"/>
     </g>
    </g>
    <g id="line2d_73">
     <path d="M 90.811802 93.255685 
L 134.811802 93.255685 
" style="fill:none;opacity:0.75;stroke:#b9db57;stroke-dasharray:7.4,3.2;stroke-dashoffset:0;stroke-width:2;"/>
    </g>
    <g id="line2d_74">
     <g>
      <use style="fill:#b9db57;opacity:0.75;" x="112.811802" xlink:href="#m551994167e" y="93.255685"/>
     </g>
    </g>
    <g id="text_14">
     <!-- $d=4$ -->
     <g style="fill:#262626;" transform="translate(152.411802 100.955685)scale(0.22 -0.22)">
      <use transform="scale(0.996264)" xlink:href="#CMMI12-100"/>
      <use transform="translate(78.363106 0)scale(0.996264)" xlink:href="#CMR17-61"/>
      <use transform="translate(177.751903 0)scale(0.996264)" xlink:href="#CMR17-52"/>
     </g>
    </g>
    <g id="line2d_75">
     <path d="M 90.811802 123.918873 
L 134.811802 123.918873 
" style="fill:none;opacity:0.75;stroke:#57db94;stroke-dasharray:7.4,3.2;stroke-dashoffset:0;stroke-width:2;"/>
    </g>
    <g id="line2d_76">
     <g>
      <use style="fill:#57db94;opacity:0.75;" x="112.811802" xlink:href="#m7946fc6e30" y="123.918873"/>
     </g>
    </g>
    <g id="text_15">
     <!-- $d=6$ -->
     <defs>
      <path d="M 10.59375 34 
C 10.59375 57.65625 21.796875 63 28.296875 63 
C 30.40625 63 35.5 62.640625 37.5 59 
C 35.90625 59 32.90625 59 32.90625 55.515625 
C 32.90625 52.828125 35.09375 51.921875 36.5 51.921875 
C 37.40625 51.921875 40.09375 52.3125 40.09375 55.625 
C 40.09375 61.78125 35.09375 65.296875 28.203125 65.296875 
C 16.296875 65.296875 3.796875 52.96875 3.796875 31 
C 3.796875 3.953125 15.09375 -2 23.09375 -2 
C 32.796875 -2 42 6.671875 42 20.046875 
C 42 32.515625 33.90625 41.59375 23.703125 41.59375 
C 17.59375 41.59375 13.09375 37.609375 10.59375 30.625 
z
M 23.09375 0.390625 
C 10.796875 0.390625 10.796875 18.75 10.796875 22.4375 
C 10.796875 29.625 14.203125 40 23.5 40 
C 25.203125 40 30.09375 40 33.40625 33.125 
C 35.203125 29.21875 35.203125 25.140625 35.203125 20.140625 
C 35.203125 14.75 35.203125 10.78125 33.09375 6.78125 
C 30.90625 2.671875 27.703125 0.390625 23.09375 0.390625 
z
" id="CMR17-54"/>
     </defs>
     <g style="fill:#262626;" transform="translate(152.411802 131.618873)scale(0.22 -0.22)">
      <use transform="scale(0.996264)" xlink:href="#CMMI12-100"/>
      <use transform="translate(78.363106 0)scale(0.996264)" xlink:href="#CMR17-61"/>
      <use transform="translate(177.751903 0)scale(0.996264)" xlink:href="#CMR17-54"/>
     </g>
    </g>
    <g id="line2d_77">
     <path d="M 245.56903 62.592497 
L 289.56903 62.592497 
" style="fill:none;opacity:0.75;stroke:#5784db;stroke-dasharray:7.4,3.2;stroke-dashoffset:0;stroke-width:2;"/>
    </g>
    <g id="line2d_78">
     <g>
      <use style="fill:#5784db;opacity:0.75;" x="267.56903" xlink:href="#m7c76004b5c" y="62.592497"/>
     </g>
    </g>
    <g id="text_16">
     <!-- $d=8$ -->
     <defs>
      <path d="M 27.203125 35.375 
C 33.5 38.546875 39.90625 43.328125 39.90625 50.984375 
C 39.90625 60.015625 31.09375 65.296875 23 65.296875 
C 13.90625 65.296875 5.90625 58.734375 5.90625 49.6875 
C 5.90625 47.203125 6.5 42.921875 10.40625 39.140625 
C 11.40625 38.15625 15.59375 35.171875 18.296875 33.28125 
C 13.796875 30.984375 3.296875 25.53125 3.296875 14.59375 
C 3.296875 4.359375 13.09375 -2 22.796875 -2 
C 33.5 -2 42.5 5.65625 42.5 15.78125 
C 42.5 24.84375 36.40625 29.015625 32.40625 31.703125 
z
M 14.09375 44.09375 
C 13.296875 44.59375 9.296875 47.671875 9.296875 52.359375 
C 9.296875 58.421875 15.59375 63 22.796875 63 
C 30.703125 63 36.5 57.4375 36.5 50.96875 
C 36.5 41.703125 26.09375 36.421875 25.59375 36.421875 
C 25.5 36.421875 25.40625 36.421875 24.59375 37.03125 
z
M 32.5 23.734375 
C 34 22.640625 38.796875 19.375 38.796875 13.296875 
C 38.796875 5.953125 31.40625 0.390625 23 0.390625 
C 13.90625 0.390625 7 6.84375 7 14.6875 
C 7 22.546875 13.09375 29.09375 20 32.1875 
z
" id="CMR17-56"/>
     </defs>
     <g style="fill:#262626;" transform="translate(307.16903 70.292497)scale(0.22 -0.22)">
      <use transform="scale(0.996264)" xlink:href="#CMMI12-100"/>
      <use transform="translate(78.363106 0)scale(0.996264)" xlink:href="#CMR17-61"/>
      <use transform="translate(177.751903 0)scale(0.996264)" xlink:href="#CMR17-56"/>
     </g>
    </g>
    <g id="line2d_79">
     <path d="M 245.56903 93.255685 
L 289.56903 93.255685 
" style="fill:none;opacity:0.75;stroke:#c957db;stroke-dasharray:7.4,3.2;stroke-dashoffset:0;stroke-width:2;"/>
    </g>
    <g id="line2d_80">
     <g>
      <use style="fill:#c957db;opacity:0.75;" x="267.56903" xlink:href="#mac0567f124" y="93.255685"/>
     </g>
    </g>
    <g id="text_17">
     <!-- $d=10$ -->
     <g style="fill:#262626;" transform="translate(307.16903 100.955685)scale(0.22 -0.22)">
      <use transform="scale(0.996264)" xlink:href="#CMMI12-100"/>
      <use transform="translate(78.363106 0)scale(0.996264)" xlink:href="#CMR17-61"/>
      <use transform="translate(177.751903 0)scale(0.996264)" xlink:href="#CMR17-49"/>
      <use transform="translate(223.44238 0)scale(0.996264)" xlink:href="#CMR17-48"/>
     </g>
    </g>
   </g>
  </g>
  <g id="axes_2">
   <g id="patch_8">
    <path d="M 71.011802 578.692497 
L 629.011802 578.692497 
L 629.011802 361.252497 
L 71.011802 361.252497 
z
" style="fill:#eaeaf2;"/>
   </g>
   <g id="matplotlib.axis_3">
    <g id="xtick_48">
     <g id="line2d_81">
      <path clip-path="url(#pdc7d630d27)" d="M 96.375438 578.692497 
L 96.375438 361.252497 
" style="fill:none;stroke:#ffffff;stroke-linecap:round;"/>
     </g>
     <g id="line2d_82"/>
     <g id="text_18">
      <!-- $10^{0}$ -->
      <g style="fill:#262626;" transform="translate(83.823113 599.529494)scale(0.2 -0.2)">
       <use transform="scale(0.996264)" xlink:href="#CMR17-49"/>
       <use transform="translate(45.690477 0)scale(0.996264)" xlink:href="#CMR17-48"/>
       <use transform="translate(91.380954 36.153639)scale(0.697382)" xlink:href="#CMR17-48"/>
      </g>
     </g>
    </g>
    <g id="xtick_49">
     <g id="line2d_83">
      <path clip-path="url(#pdc7d630d27)" d="M 211.879971 578.692497 
L 211.879971 361.252497 
" style="fill:none;stroke:#ffffff;stroke-linecap:round;"/>
     </g>
     <g id="line2d_84"/>
     <g id="text_19">
      <!-- $10^{1}$ -->
      <g style="fill:#262626;" transform="translate(199.327646 599.529494)scale(0.2 -0.2)">
       <use transform="scale(0.996264)" xlink:href="#CMR17-49"/>
       <use transform="translate(45.690477 0)scale(0.996264)" xlink:href="#CMR17-48"/>
       <use transform="translate(91.380954 36.153639)scale(0.697382)" xlink:href="#CMR17-49"/>
      </g>
     </g>
    </g>
    <g id="xtick_50">
     <g id="line2d_85">
      <path clip-path="url(#pdc7d630d27)" d="M 327.384504 578.692497 
L 327.384504 361.252497 
" style="fill:none;stroke:#ffffff;stroke-linecap:round;"/>
     </g>
     <g id="line2d_86"/>
     <g id="text_20">
      <!-- $10^{2}$ -->
      <g style="fill:#262626;" transform="translate(314.832179 599.529494)scale(0.2 -0.2)">
       <use transform="scale(0.996264)" xlink:href="#CMR17-49"/>
       <use transform="translate(45.690477 0)scale(0.996264)" xlink:href="#CMR17-48"/>
       <use transform="translate(91.380954 36.153639)scale(0.697382)" xlink:href="#CMR17-50"/>
      </g>
     </g>
    </g>
    <g id="xtick_51">
     <g id="line2d_87">
      <path clip-path="url(#pdc7d630d27)" d="M 442.889037 578.692497 
L 442.889037 361.252497 
" style="fill:none;stroke:#ffffff;stroke-linecap:round;"/>
     </g>
     <g id="line2d_88"/>
     <g id="text_21">
      <!-- $10^{3}$ -->
      <g style="fill:#262626;" transform="translate(430.336712 599.529494)scale(0.2 -0.2)">
       <use transform="scale(0.996264)" xlink:href="#CMR17-49"/>
       <use transform="translate(45.690477 0)scale(0.996264)" xlink:href="#CMR17-48"/>
       <use transform="translate(91.380954 36.153639)scale(0.697382)" xlink:href="#CMR17-51"/>
      </g>
     </g>
    </g>
    <g id="xtick_52">
     <g id="line2d_89">
      <path clip-path="url(#pdc7d630d27)" d="M 558.39357 578.692497 
L 558.39357 361.252497 
" style="fill:none;stroke:#ffffff;stroke-linecap:round;"/>
     </g>
     <g id="line2d_90"/>
     <g id="text_22">
      <!-- $10^{4}$ -->
      <g style="fill:#262626;" transform="translate(545.841245 599.529494)scale(0.2 -0.2)">
       <use transform="scale(0.996264)" xlink:href="#CMR17-49"/>
       <use transform="translate(45.690477 0)scale(0.996264)" xlink:href="#CMR17-48"/>
       <use transform="translate(91.380954 36.153639)scale(0.697382)" xlink:href="#CMR17-52"/>
      </g>
     </g>
    </g>
    <g id="xtick_53">
     <g id="line2d_91"/>
    </g>
    <g id="xtick_54">
     <g id="line2d_92"/>
    </g>
    <g id="xtick_55">
     <g id="line2d_93"/>
    </g>
    <g id="xtick_56">
     <g id="line2d_94"/>
    </g>
    <g id="xtick_57">
     <g id="line2d_95"/>
    </g>
    <g id="xtick_58">
     <g id="line2d_96"/>
    </g>
    <g id="xtick_59">
     <g id="line2d_97"/>
    </g>
    <g id="xtick_60">
     <g id="line2d_98"/>
    </g>
    <g id="xtick_61">
     <g id="line2d_99"/>
    </g>
    <g id="xtick_62">
     <g id="line2d_100"/>
    </g>
    <g id="xtick_63">
     <g id="line2d_101"/>
    </g>
    <g id="xtick_64">
     <g id="line2d_102"/>
    </g>
    <g id="xtick_65">
     <g id="line2d_103"/>
    </g>
    <g id="xtick_66">
     <g id="line2d_104"/>
    </g>
    <g id="xtick_67">
     <g id="line2d_105"/>
    </g>
    <g id="xtick_68">
     <g id="line2d_106"/>
    </g>
    <g id="xtick_69">
     <g id="line2d_107"/>
    </g>
    <g id="xtick_70">
     <g id="line2d_108"/>
    </g>
    <g id="xtick_71">
     <g id="line2d_109"/>
    </g>
    <g id="xtick_72">
     <g id="line2d_110"/>
    </g>
    <g id="xtick_73">
     <g id="line2d_111"/>
    </g>
    <g id="xtick_74">
     <g id="line2d_112"/>
    </g>
    <g id="xtick_75">
     <g id="line2d_113"/>
    </g>
    <g id="xtick_76">
     <g id="line2d_114"/>
    </g>
    <g id="xtick_77">
     <g id="line2d_115"/>
    </g>
    <g id="xtick_78">
     <g id="line2d_116"/>
    </g>
    <g id="xtick_79">
     <g id="line2d_117"/>
    </g>
    <g id="xtick_80">
     <g id="line2d_118"/>
    </g>
    <g id="xtick_81">
     <g id="line2d_119"/>
    </g>
    <g id="xtick_82">
     <g id="line2d_120"/>
    </g>
    <g id="xtick_83">
     <g id="line2d_121"/>
    </g>
    <g id="xtick_84">
     <g id="line2d_122"/>
    </g>
    <g id="xtick_85">
     <g id="line2d_123"/>
    </g>
    <g id="xtick_86">
     <g id="line2d_124"/>
    </g>
    <g id="xtick_87">
     <g id="line2d_125"/>
    </g>
    <g id="xtick_88">
     <g id="line2d_126"/>
    </g>
    <g id="xtick_89">
     <g id="line2d_127"/>
    </g>
    <g id="xtick_90">
     <g id="line2d_128"/>
    </g>
    <g id="xtick_91">
     <g id="line2d_129"/>
    </g>
    <g id="text_23">
     <!-- Sample Size $N$ -->
     <g style="fill:#262626;" transform="translate(262.960315 628.160623)scale(0.3 -0.3)">
      <use transform="scale(0.996264)" xlink:href="#CMSS17-83"/>
      <use transform="translate(52.048516 0)scale(0.996264)" xlink:href="#CMSS17-97"/>
      <use transform="translate(96.970437 0)scale(0.996264)" xlink:href="#CMSS17-109"/>
      <use transform="translate(171.199691 0)scale(0.996264)" xlink:href="#CMSS17-112"/>
      <use transform="translate(219.404634 0)scale(0.996264)" xlink:href="#CMSS17-108"/>
      <use transform="translate(241.585357 0)scale(0.996264)" xlink:href="#CMSS17-101"/>
      <use transform="translate(314.453292 0)scale(0.996264)" xlink:href="#CMSS17-83"/>
      <use transform="translate(366.501808 0)scale(0.996264)" xlink:href="#CMSS17-105"/>
      <use transform="translate(388.682531 0)scale(0.996264)" xlink:href="#CMSS17-122"/>
      <use transform="translate(429.360403 0)scale(0.996264)" xlink:href="#CMSS17-101"/>
      <use transform="translate(502.228338 0)scale(0.996264)" xlink:href="#CMMI12-78"/>
     </g>
    </g>
   </g>
   <g id="matplotlib.axis_4">
    <g id="ytick_5">
     <g id="line2d_130">
      <path clip-path="url(#pdc7d630d27)" d="M 71.011802 578.692497 
L 629.011802 578.692497 
" style="fill:none;stroke:#ffffff;stroke-linecap:round;"/>
     </g>
     <g id="line2d_131"/>
     <g id="text_24">
      <!-- $0$ -->
      <g style="fill:#262626;" transform="translate(54.873706 585.610996)scale(0.2 -0.2)">
       <use transform="scale(0.996264)" xlink:href="#CMR17-48"/>
      </g>
     </g>
    </g>
    <g id="ytick_6">
     <g id="line2d_132">
      <path clip-path="url(#pdc7d630d27)" d="M 71.011802 530.857284 
L 629.011802 530.857284 
" style="fill:none;stroke:#ffffff;stroke-linecap:round;"/>
     </g>
     <g id="line2d_133"/>
     <g id="text_25">
      <!-- $20$ -->
      <g style="fill:#262626;" transform="translate(45.735611 537.775783)scale(0.2 -0.2)">
       <use transform="scale(0.996264)" xlink:href="#CMR17-50"/>
       <use transform="translate(45.690477 0)scale(0.996264)" xlink:href="#CMR17-48"/>
      </g>
     </g>
    </g>
    <g id="ytick_7">
     <g id="line2d_134">
      <path clip-path="url(#pdc7d630d27)" d="M 71.011802 483.022071 
L 629.011802 483.022071 
" style="fill:none;stroke:#ffffff;stroke-linecap:round;"/>
     </g>
     <g id="line2d_135"/>
     <g id="text_26">
      <!-- $40$ -->
      <g style="fill:#262626;" transform="translate(45.735611 489.94057)scale(0.2 -0.2)">
       <use transform="scale(0.996264)" xlink:href="#CMR17-52"/>
       <use transform="translate(45.690477 0)scale(0.996264)" xlink:href="#CMR17-48"/>
      </g>
     </g>
    </g>
    <g id="ytick_8">
     <g id="line2d_136">
      <path clip-path="url(#pdc7d630d27)" d="M 71.011802 435.186858 
L 629.011802 435.186858 
" style="fill:none;stroke:#ffffff;stroke-linecap:round;"/>
     </g>
     <g id="line2d_137"/>
     <g id="text_27">
      <!-- $60$ -->
      <g style="fill:#262626;" transform="translate(45.735611 442.105357)scale(0.2 -0.2)">
       <use transform="scale(0.996264)" xlink:href="#CMR17-54"/>
       <use transform="translate(45.690477 0)scale(0.996264)" xlink:href="#CMR17-48"/>
      </g>
     </g>
    </g>
    <g id="ytick_9">
     <g id="line2d_138">
      <path clip-path="url(#pdc7d630d27)" d="M 71.011802 387.351646 
L 629.011802 387.351646 
" style="fill:none;stroke:#ffffff;stroke-linecap:round;"/>
     </g>
     <g id="line2d_139"/>
     <g id="text_28">
      <!-- $80$ -->
      <g style="fill:#262626;" transform="translate(45.735611 394.270144)scale(0.2 -0.2)">
       <use transform="scale(0.996264)" xlink:href="#CMR17-56"/>
       <use transform="translate(45.690477 0)scale(0.996264)" xlink:href="#CMR17-48"/>
      </g>
     </g>
    </g>
    <g id="text_29">
     <!-- $\bar{\lambda}$ -->
     <g style="fill:#262626;" transform="translate(7.2 464.159047)scale(0.3 -0.3)">
      <use transform="translate(5.606797 26.296621)scale(0.996264)" xlink:href="#CMR17-22"/>
      <use transform="scale(0.996264)" xlink:href="#CMMI12-21"/>
     </g>
    </g>
   </g>
   <g id="line2d_140">
    <path d="M 96.375438 570.993716 
L 353.706451 535.15386 
L 419.312253 528.176726 
L 461.319771 526.855311 
L 490.839629 525.373585 
L 513.619386 522.872089 
L 532.171898 520.915087 
L 547.823174 519.93655 
L 561.543152 520.725364 
L 574.145122 518.70681 
L 585.484302 520.250767 
L 594.976741 521.122284 
L 603.648165 520.213128 
" style="fill:none;opacity:0.75;stroke:#db5f57;stroke-dasharray:7.4,3.2;stroke-dashoffset:0;stroke-width:2;"/>
    <g>
     <use style="fill:#db5f57;opacity:0.75;" x="96.375438" xlink:href="#mc298b8c73e" y="570.993716"/>
     <use style="fill:#db5f57;opacity:0.75;" x="353.706451" xlink:href="#mc298b8c73e" y="535.15386"/>
     <use style="fill:#db5f57;opacity:0.75;" x="419.312253" xlink:href="#mc298b8c73e" y="528.176726"/>
     <use style="fill:#db5f57;opacity:0.75;" x="461.319771" xlink:href="#mc298b8c73e" y="526.855311"/>
     <use style="fill:#db5f57;opacity:0.75;" x="490.839629" xlink:href="#mc298b8c73e" y="525.373585"/>
     <use style="fill:#db5f57;opacity:0.75;" x="513.619386" xlink:href="#mc298b8c73e" y="522.872089"/>
     <use style="fill:#db5f57;opacity:0.75;" x="532.171898" xlink:href="#mc298b8c73e" y="520.915087"/>
     <use style="fill:#db5f57;opacity:0.75;" x="547.823174" xlink:href="#mc298b8c73e" y="519.93655"/>
     <use style="fill:#db5f57;opacity:0.75;" x="561.543152" xlink:href="#mc298b8c73e" y="520.725364"/>
     <use style="fill:#db5f57;opacity:0.75;" x="574.145122" xlink:href="#mc298b8c73e" y="518.70681"/>
     <use style="fill:#db5f57;opacity:0.75;" x="585.484302" xlink:href="#mc298b8c73e" y="520.250767"/>
     <use style="fill:#db5f57;opacity:0.75;" x="594.976741" xlink:href="#mc298b8c73e" y="521.122284"/>
     <use style="fill:#db5f57;opacity:0.75;" x="603.648165" xlink:href="#mc298b8c73e" y="520.213128"/>
    </g>
   </g>
   <g id="line2d_141">
    <path d="M 561.543152 530.857284 
L 574.145122 530.857284 
L 585.484302 530.857284 
L 594.976741 530.857284 
L 603.648165 530.857284 
" style="fill:none;stroke:#db5f57;stroke-linecap:round;stroke-width:5;"/>
   </g>
   <g id="line2d_142">
    <path d="M 96.375438 569.066383 
L 353.706451 513.094295 
L 419.312253 498.613758 
L 461.319771 493.133837 
L 490.839629 488.547038 
L 513.619386 482.858352 
L 532.171898 478.14806 
L 547.823174 475.914196 
L 561.543152 475.535097 
L 574.145122 472.687577 
L 585.484302 472.172722 
L 594.976741 471.331929 
L 603.648165 468.960798 
" style="fill:none;opacity:0.75;stroke:#57d3db;stroke-dasharray:7.4,3.2;stroke-dashoffset:0;stroke-width:2;"/>
    <defs>
     <path d="M 0 5 
C 1.326016 5 2.597899 4.473168 3.535534 3.535534 
C 4.473168 2.597899 5 1.326016 5 0 
C 5 -1.326016 4.473168 -2.597899 3.535534 -3.535534 
C 2.597899 -4.473168 1.326016 -5 0 -5 
C -1.326016 -5 -2.597899 -4.473168 -3.535534 -3.535534 
C -4.473168 -2.597899 -5 -1.326016 -5 0 
C -5 1.326016 -4.473168 2.597899 -3.535534 3.535534 
C -2.597899 4.473168 -1.326016 5 0 5 
z
" id="m0cc9295b6b"/>
    </defs>
    <g>
     <use style="fill:#57d3db;opacity:0.75;" x="96.375438" xlink:href="#m0cc9295b6b" y="569.066383"/>
     <use style="fill:#57d3db;opacity:0.75;" x="353.706451" xlink:href="#m0cc9295b6b" y="513.094295"/>
     <use style="fill:#57d3db;opacity:0.75;" x="419.312253" xlink:href="#m0cc9295b6b" y="498.613758"/>
     <use style="fill:#57d3db;opacity:0.75;" x="461.319771" xlink:href="#m0cc9295b6b" y="493.133837"/>
     <use style="fill:#57d3db;opacity:0.75;" x="490.839629" xlink:href="#m0cc9295b6b" y="488.547038"/>
     <use style="fill:#57d3db;opacity:0.75;" x="513.619386" xlink:href="#m0cc9295b6b" y="482.858352"/>
     <use style="fill:#57d3db;opacity:0.75;" x="532.171898" xlink:href="#m0cc9295b6b" y="478.14806"/>
     <use style="fill:#57d3db;opacity:0.75;" x="547.823174" xlink:href="#m0cc9295b6b" y="475.914196"/>
     <use style="fill:#57d3db;opacity:0.75;" x="561.543152" xlink:href="#m0cc9295b6b" y="475.535097"/>
     <use style="fill:#57d3db;opacity:0.75;" x="574.145122" xlink:href="#m0cc9295b6b" y="472.687577"/>
     <use style="fill:#57d3db;opacity:0.75;" x="585.484302" xlink:href="#m0cc9295b6b" y="472.172722"/>
     <use style="fill:#57d3db;opacity:0.75;" x="594.976741" xlink:href="#m0cc9295b6b" y="471.331929"/>
     <use style="fill:#57d3db;opacity:0.75;" x="603.648165" xlink:href="#m0cc9295b6b" y="468.960798"/>
    </g>
   </g>
   <g id="line2d_143">
    <path d="M 561.543152 373.518042 
L 574.145122 373.518042 
L 585.484302 373.518042 
L 594.976741 373.518042 
L 603.648165 373.518042 
" style="fill:none;stroke:#57d3db;stroke-linecap:round;stroke-width:5;"/>
   </g>
   <g id="patch_9">
    <path d="M 71.011802 578.692497 
L 71.011802 361.252497 
" style="fill:none;"/>
   </g>
   <g id="patch_10">
    <path d="M 629.011802 578.692497 
L 629.011802 361.252497 
" style="fill:none;"/>
   </g>
   <g id="patch_11">
    <path d="M 71.011802 578.692497 
L 629.011802 578.692497 
" style="fill:none;"/>
   </g>
   <g id="patch_12">
    <path d="M 71.011802 361.252497 
L 629.011802 361.252497 
" style="fill:none;"/>
   </g>
   <g id="text_30">
    <!-- $\bar\lambda(\rho_{0}, \mathcal{M}_{d})$ for $\rho_0 = 1\!\mathrm{l}_{5}/5$ -->
    <defs>
     <path d="M 15.296875 68.6875 
L 3.40625 67.59375 
L 3.40625 65 
C 9.296875 65 10.203125 64.40625 10.203125 59.640625 
L 10.203125 6.65625 
C 10.203125 2.875 9.796875 2.390625 3.40625 2.390625 
L 3.40625 -0.203125 
C 5.796875 0 10.203125 0 12.703125 0 
C 15.296875 0 19.703125 0 22.09375 -0.203125 
L 22.09375 2.390625 
C 15.703125 2.390625 15.296875 2.78125 15.296875 6.65625 
z
" id="CMR17-108"/>
     <path d="M 11.40625 57.6875 
C 12.40625 57.28125 16.5 56 20.703125 56 
C 30 56 35.09375 61.109375 38 64.0625 
C 38 64.953125 38 65.5 37.40625 65.5 
C 37.296875 65.5 37.09375 65.5 36.296875 65.046875 
C 32.796875 63.40625 28.703125 62.078125 23.703125 62.078125 
C 20.703125 62.078125 16.203125 62.484375 11.296875 64.671875 
C 10.203125 65.171875 10 65.171875 9.90625 65.171875 
C 9.40625 65.171875 9.296875 65.0625 9.296875 63.078125 
L 9.296875 34.421875 
C 9.296875 32.640625 9.296875 32.140625 10.296875 32.140625 
C 10.796875 32.140625 11 32.34375 11.5 33.03125 
C 14.703125 37.515625 19.09375 39.40625 24.09375 39.40625 
C 27.59375 39.40625 35.09375 37.21875 35.09375 20.140625 
C 35.09375 16.953125 35.09375 11.171875 32.09375 6.578125 
C 29.59375 2.484375 25.703125 0.390625 21.40625 0.390625 
C 14.796875 0.390625 8.09375 5 6.296875 12.71875 
C 6.703125 12.609375 7.5 12.421875 7.90625 12.421875 
C 9.203125 12.421875 11.703125 13.125 11.703125 16.21875 
C 11.703125 18.90625 9.796875 20 7.90625 20 
C 5.59375 20 4.09375 18.59375 4.09375 15.796875 
C 4.09375 7.09375 11 -2 21.59375 -2 
C 31.90625 -2 41.703125 6.875 41.703125 19.75 
C 41.703125 31.71875 33.90625 41 24.203125 41 
C 19.09375 41 14.796875 39.109375 11.40625 35.53125 
z
" id="CMR17-53"/>
     <path d="M 42.90625 71.296875 
C 42.90625 71.40625 43.5 72.90625 43.5 73.09375 
C 43.5 74.296875 42.5 75 41.703125 75 
C 41.203125 75 40.296875 75 39.5 72.796875 
L 6 -21.296875 
C 6 -21.40625 5.40625 -22.890625 5.40625 -23.09375 
C 5.40625 -24.296875 6.40625 -25 7.203125 -25 
C 7.796875 -25 8.703125 -24.890625 9.40625 -22.796875 
z
" id="CMMI12-61"/>
    </defs>
    <g style="fill:#262626;" transform="translate(228.316836 355.252497)scale(0.25 -0.25)">
     <use transform="translate(5.606797 41.240535)scale(0.996264)" xlink:href="#CMR17-22"/>
     <use transform="translate(0 14.943915)scale(0.996264)" xlink:href="#CMMI12-21"/>
     <use transform="translate(56.904072 14.943915)scale(0.996264)" xlink:href="#CMR17-40"/>
     <use transform="translate(92.18484 14.943915)scale(0.996264)" xlink:href="#CMMI12-26"/>
     <use transform="translate(142.499213 0)scale(0.697382)" xlink:href="#CMR17-48"/>
     <use transform="translate(174.980527 14.943915)scale(0.996264)" xlink:href="#CMMI12-59"/>
     <use transform="translate(218.682109 14.943915)scale(0.996264)" xlink:href="#CMSY10-77"/>
     <use transform="translate(338.32345 0)scale(0.697382)" xlink:href="#CMMI12-100"/>
     <use transform="translate(374.303789 14.943915)scale(0.996264)" xlink:href="#CMR17-41"/>
     <use transform="translate(440.813669 14.943915)scale(0.996264)" xlink:href="#CMSS17-102"/>
     <use transform="translate(469.440328 14.943915)scale(0.996264)" xlink:href="#CMSS17-111"/>
     <use transform="translate(513.681498 14.943915)scale(0.996264)" xlink:href="#CMSS17-114"/>
     <use transform="translate(576.820383 14.943915)scale(0.996264)" xlink:href="#CMMI12-26"/>
     <use transform="translate(627.134756 0)scale(0.697382)" xlink:href="#CMR17-48"/>
     <use transform="translate(687.290079 14.943915)scale(0.996264)" xlink:href="#CMR17-61"/>
     <use transform="translate(786.678876 14.943915)scale(0.996264)" xlink:href="#CMR17-49"/>
     <use transform="translate(815.764948 14.943915)scale(0.996264)" xlink:href="#CMR17-108"/>
     <use transform="translate(840.636006 0)scale(0.697382)" xlink:href="#CMR17-53"/>
     <use transform="translate(873.11732 14.943915)scale(0.996264)" xlink:href="#CMMI12-61"/>
     <use transform="translate(921.892239 14.943915)scale(0.996264)" xlink:href="#CMR17-53"/>
    </g>
   </g>
   <g id="legend_2">
    <g id="patch_13">
     <path d="M 86.411802 409.515685 
L 360.726258 409.515685 
Q 365.126258 409.515685 365.126258 405.115685 
L 365.126258 376.652497 
Q 365.126258 372.252497 360.726258 372.252497 
L 86.411802 372.252497 
Q 82.011802 372.252497 82.011802 376.652497 
L 82.011802 405.115685 
Q 82.011802 409.515685 86.411802 409.515685 
z
" style="fill:#eaeaf2;opacity:0.8;stroke:#cccccc;stroke-linejoin:miter;stroke-width:0.3;"/>
    </g>
    <g id="line2d_144">
     <path d="M 90.811802 388.752497 
L 134.811802 388.752497 
" style="fill:none;opacity:0.75;stroke:#db5f57;stroke-dasharray:7.4,3.2;stroke-dashoffset:0;stroke-width:2;"/>
    </g>
    <g id="line2d_145">
     <g>
      <use style="fill:#db5f57;opacity:0.75;" x="112.811802" xlink:href="#mc298b8c73e" y="388.752497"/>
     </g>
    </g>
    <g id="text_31">
     <!-- $d=5$ -->
     <g style="fill:#262626;" transform="translate(152.411802 396.452497)scale(0.22 -0.22)">
      <use transform="scale(0.996264)" xlink:href="#CMMI12-100"/>
      <use transform="translate(78.363106 0)scale(0.996264)" xlink:href="#CMR17-61"/>
      <use transform="translate(177.751903 0)scale(0.996264)" xlink:href="#CMR17-53"/>
     </g>
    </g>
    <g id="line2d_146">
     <path d="M 245.56903 388.752497 
L 289.56903 388.752497 
" style="fill:none;opacity:0.75;stroke:#57d3db;stroke-dasharray:7.4,3.2;stroke-dashoffset:0;stroke-width:2;"/>
    </g>
    <g id="line2d_147">
     <g>
      <use style="fill:#57d3db;opacity:0.75;" x="267.56903" xlink:href="#m0cc9295b6b" y="388.752497"/>
     </g>
    </g>
    <g id="text_32">
     <!-- $d=9$ -->
     <defs>
      <path d="M 35.203125 29.125 
C 35.203125 7.25 26.09375 0.484375 18.59375 0.484375 
C 16.296875 0.484375 10.703125 0.484375 8.40625 4.59375 
C 11 4.1875 12.90625 5.578125 12.90625 8.09375 
C 12.90625 10.8125 10.703125 11.703125 9.296875 11.703125 
C 8.40625 11.703125 5.703125 11.296875 5.703125 7.90625 
C 5.703125 1.109375 11.59375 -2 18.796875 -2 
C 30.296875 -2 42 10.53125 42 32.390625 
C 42 59.640625 30.796875 65.296875 23.203125 65.296875 
C 13.296875 65.296875 3.796875 56.6875 3.796875 43.40625 
C 3.796875 31.109375 11.90625 22 22.09375 22 
C 30.5 22 34.203125 29.734375 35.203125 33 
z
M 22.296875 23.59375 
C 19.59375 23.59375 15.796875 24.09375 12.703125 30.03125 
C 10.59375 33.890625 10.59375 38.453125 10.59375 43.296875 
C 10.59375 49.15625 10.59375 53.203125 13.40625 57.5625 
C 14.796875 59.640625 17.40625 63 23.203125 63 
C 35 63 35 45.078125 35 41.125 
C 35 34.09375 31.796875 23.59375 22.296875 23.59375 
z
" id="CMR17-57"/>
     </defs>
     <g style="fill:#262626;" transform="translate(307.16903 396.452497)scale(0.22 -0.22)">
      <use transform="scale(0.996264)" xlink:href="#CMMI12-100"/>
      <use transform="translate(78.363106 0)scale(0.996264)" xlink:href="#CMR17-61"/>
      <use transform="translate(177.751903 0)scale(0.996264)" xlink:href="#CMR17-57"/>
     </g>
    </g>
   </g>
  </g>
 </g>
 <defs>
  <clipPath id="p8504c3aa34">
   <rect height="217.44" width="558" x="71.011802" y="35.092497"/>
  </clipPath>
  <clipPath id="pdc7d630d27">
   <rect height="217.44" width="558" x="71.011802" y="361.252497"/>
  </clipPath>
 </defs>
</svg>
