<?xml version="1.0" encoding="utf-8" standalone="no"?>
<!DOCTYPE svg PUBLIC "-//W3C//DTD SVG 1.1//EN"
  "http://www.w3.org/Graphics/SVG/1.1/DTD/svg11.dtd">
<!-- Created with matplotlib (http://matplotlib.org/) -->
<svg height="660pt" version="1.1" viewBox="0 0 766 660" width="766pt" xmlns="http://www.w3.org/2000/svg" xmlns:xlink="http://www.w3.org/1999/xlink">
 <defs>
  <style type="text/css">
*{stroke-linecap:butt;stroke-linejoin:round;stroke-miterlimit:100000;}
  </style>
 </defs>
 <g id="figure_1">
  <g id="patch_1">
   <path d="M 0 660.227947 
L 766.956691 660.227947 
L 766.956691 0 
L 0 0 
z
" style="fill:#ffffff;"/>
  </g>
  <g id="axes_1">
   <g id="patch_2">
    <path d="M 73.022762 259.732292 
L 742.622762 259.732292 
L 742.622762 36.532292 
L 73.022762 36.532292 
z
" style="fill:#eaeaf2;"/>
   </g>
   <g id="matplotlib.axis_1">
    <g id="xtick_1">
     <g id="line2d_1">
      <path clip-path="url(#pe9698a44ab)" d="M 73.022762 259.732292 
L 73.022762 36.532292 
" style="fill:none;stroke:#ffffff;stroke-linecap:round;"/>
     </g>
     <g id="line2d_2">
      <defs>
       <path d="M 0 0 
L 0 0 
" id="mf1689f23e8" style="stroke:#262626;"/>
      </defs>
      <g>
       <use style="fill:#262626;stroke:#262626;" x="73.0227618112" xlink:href="#mf1689f23e8" y="259.732292113"/>
      </g>
     </g>
     <g id="line2d_3">
      <g>
       <use style="fill:#262626;stroke:#262626;" x="73.0227618112" xlink:href="#mf1689f23e8" y="36.5322921126"/>
      </g>
     </g>
     <g id="text_1">
      <!-- $0$ -->
      <defs>
       <path d="M 42 31.640625 
C 42 37.75 41.90625 48.125 37.703125 56.109375 
C 34 63.109375 28.09375 65.59375 22.90625 65.59375 
C 18.09375 65.59375 12 63.40625 8.203125 56.203125 
C 4.203125 48.71875 3.796875 39.4375 3.796875 31.640625 
C 3.796875 25.953125 3.90625 17.28125 7 9.671875 
C 11.296875 -0.609375 19 -2 22.90625 -2 
C 27.5 -2 34.5 -0.109375 38.59375 9.375 
C 41.59375 16.28125 42 24.359375 42 31.640625 
M 22.90625 -0.40625 
C 16.5 -0.40625 12.703125 5.078125 11.296875 12.6875 
C 10.203125 18.5625 10.203125 27.15625 10.203125 32.75 
C 10.203125 40.4375 10.203125 46.828125 11.5 52.921875 
C 13.40625 61.390625 19 64 22.90625 64 
C 27 64 32.296875 61.296875 34.203125 53.125 
C 35.5 47.4375 35.59375 40.734375 35.59375 32.75 
C 35.59375 26.25 35.59375 18.265625 34.40625 12.375 
C 32.296875 1.484375 26.40625 -0.40625 22.90625 -0.40625 
" id="CMR17-48"/>
      </defs>
      <g style="fill:#262626;" transform="translate(67.3114521715 284.028545664)scale(0.25 -0.25)">
       <use transform="scale(0.996264009963)" xlink:href="#CMR17-48"/>
      </g>
     </g>
    </g>
    <g id="xtick_2">
     <g id="line2d_4">
      <path clip-path="url(#pe9698a44ab)" d="M 206.942762 259.732292 
L 206.942762 36.532292 
" style="fill:none;stroke:#ffffff;stroke-linecap:round;"/>
     </g>
     <g id="line2d_5">
      <g>
       <use style="fill:#262626;stroke:#262626;" x="206.942761811" xlink:href="#mf1689f23e8" y="259.732292113"/>
      </g>
     </g>
     <g id="line2d_6">
      <g>
       <use style="fill:#262626;stroke:#262626;" x="206.942761811" xlink:href="#mf1689f23e8" y="36.5322921126"/>
      </g>
     </g>
     <g id="text_2">
      <!-- $20$ -->
      <defs>
       <path d="M 41.703125 15.453125 
L 39.90625 15.453125 
C 38.90625 8.375 38.09375 7.171875 37.703125 6.5625 
C 37.203125 5.765625 30 5.765625 28.59375 5.765625 
L 9.40625 5.765625 
C 13 9.671875 20 16.75 28.5 24.953125 
C 34.59375 30.734375 41.703125 37.53125 41.703125 47.421875 
C 41.703125 59.21875 32.296875 66 21.796875 66 
C 10.796875 66 4.09375 56.3125 4.09375 47.34375 
C 4.09375 43.4375 7 42.9375 8.203125 42.9375 
C 9.203125 42.9375 12.203125 43.546875 12.203125 47.03125 
C 12.203125 50.109375 9.59375 51 8.203125 51 
C 7.59375 51 7 50.90625 6.59375 50.703125 
C 8.5 59.21875 14.296875 63.40625 20.40625 63.40625 
C 29.09375 63.40625 34.796875 56.515625 34.796875 47.421875 
C 34.796875 38.734375 29.703125 31.25 24 24.75 
L 4.09375 2.28125 
L 4.09375 0 
L 39.296875 0 
z
" id="CMR17-50"/>
      </defs>
      <g style="fill:#262626;" transform="translate(195.520142532 284.028545664)scale(0.25 -0.25)">
       <use transform="scale(0.996264009963)" xlink:href="#CMR17-50"/>
       <use transform="translate(45.6904771171 0.0)scale(0.996264009963)" xlink:href="#CMR17-48"/>
      </g>
     </g>
    </g>
    <g id="xtick_3">
     <g id="line2d_7">
      <path clip-path="url(#pe9698a44ab)" d="M 340.862762 259.732292 
L 340.862762 36.532292 
" style="fill:none;stroke:#ffffff;stroke-linecap:round;"/>
     </g>
     <g id="line2d_8">
      <g>
       <use style="fill:#262626;stroke:#262626;" x="340.862761811" xlink:href="#mf1689f23e8" y="259.732292113"/>
      </g>
     </g>
     <g id="line2d_9">
      <g>
       <use style="fill:#262626;stroke:#262626;" x="340.862761811" xlink:href="#mf1689f23e8" y="36.5322921126"/>
      </g>
     </g>
     <g id="text_3">
      <!-- $40$ -->
      <defs>
       <path d="M 33.59375 64.40625 
C 33.59375 66.5 33.5 66.5 31.703125 66.5 
L 2 19.59375 
L 2 17 
L 27.796875 17 
L 27.796875 7.140625 
C 27.796875 3.5 27.59375 2.5 20.59375 2.5 
L 18.703125 2.5 
L 18.703125 0 
C 21.90625 0 27.296875 0 30.703125 0 
C 34.09375 0 39.5 0 42.703125 0 
L 42.703125 2.5 
L 40.796875 2.5 
C 33.796875 2.5 33.59375 3.5 33.59375 7.140625 
L 33.59375 17 
L 43.796875 17 
L 43.796875 19.59375 
L 33.59375 19.59375 
z
M 28.09375 57.859375 
L 28.09375 19.59375 
L 4 19.59375 
z
" id="CMR17-52"/>
      </defs>
      <g style="fill:#262626;" transform="translate(329.440142532 284.028545664)scale(0.25 -0.25)">
       <use transform="scale(0.996264009963)" xlink:href="#CMR17-52"/>
       <use transform="translate(45.6904771171 0.0)scale(0.996264009963)" xlink:href="#CMR17-48"/>
      </g>
     </g>
    </g>
    <g id="xtick_4">
     <g id="line2d_10">
      <path clip-path="url(#pe9698a44ab)" d="M 474.782762 259.732292 
L 474.782762 36.532292 
" style="fill:none;stroke:#ffffff;stroke-linecap:round;"/>
     </g>
     <g id="line2d_11">
      <g>
       <use style="fill:#262626;stroke:#262626;" x="474.782761811" xlink:href="#mf1689f23e8" y="259.732292113"/>
      </g>
     </g>
     <g id="line2d_12">
      <g>
       <use style="fill:#262626;stroke:#262626;" x="474.782761811" xlink:href="#mf1689f23e8" y="36.5322921126"/>
      </g>
     </g>
     <g id="text_4">
      <!-- $60$ -->
      <defs>
       <path d="M 10.59375 34 
C 10.59375 57.65625 21.796875 63 28.296875 63 
C 30.40625 63 35.5 62.640625 37.5 59 
C 35.90625 59 32.90625 59 32.90625 55.515625 
C 32.90625 52.828125 35.09375 51.921875 36.5 51.921875 
C 37.40625 51.921875 40.09375 52.3125 40.09375 55.625 
C 40.09375 61.78125 35.09375 65.296875 28.203125 65.296875 
C 16.296875 65.296875 3.796875 52.96875 3.796875 31 
C 3.796875 3.953125 15.09375 -2 23.09375 -2 
C 32.796875 -2 42 6.671875 42 20.046875 
C 42 32.515625 33.90625 41.59375 23.703125 41.59375 
C 17.59375 41.59375 13.09375 37.609375 10.59375 30.625 
z
M 23.09375 0.390625 
C 10.796875 0.390625 10.796875 18.75 10.796875 22.4375 
C 10.796875 29.625 14.203125 40 23.5 40 
C 25.203125 40 30.09375 40 33.40625 33.125 
C 35.203125 29.21875 35.203125 25.140625 35.203125 20.140625 
C 35.203125 14.75 35.203125 10.78125 33.09375 6.78125 
C 30.90625 2.671875 27.703125 0.390625 23.09375 0.390625 
" id="CMR17-54"/>
      </defs>
      <g style="fill:#262626;" transform="translate(463.360142532 284.028545664)scale(0.25 -0.25)">
       <use transform="scale(0.996264009963)" xlink:href="#CMR17-54"/>
       <use transform="translate(45.6904771171 0.0)scale(0.996264009963)" xlink:href="#CMR17-48"/>
      </g>
     </g>
    </g>
    <g id="xtick_5">
     <g id="line2d_13">
      <path clip-path="url(#pe9698a44ab)" d="M 608.702762 259.732292 
L 608.702762 36.532292 
" style="fill:none;stroke:#ffffff;stroke-linecap:round;"/>
     </g>
     <g id="line2d_14">
      <g>
       <use style="fill:#262626;stroke:#262626;" x="608.702761811" xlink:href="#mf1689f23e8" y="259.732292113"/>
      </g>
     </g>
     <g id="line2d_15">
      <g>
       <use style="fill:#262626;stroke:#262626;" x="608.702761811" xlink:href="#mf1689f23e8" y="36.5322921126"/>
      </g>
     </g>
     <g id="text_5">
      <!-- $80$ -->
      <defs>
       <path d="M 27.203125 35.375 
C 33.5 38.546875 39.90625 43.328125 39.90625 50.984375 
C 39.90625 60.015625 31.09375 65.296875 23 65.296875 
C 13.90625 65.296875 5.90625 58.734375 5.90625 49.6875 
C 5.90625 47.203125 6.5 42.921875 10.40625 39.140625 
C 11.40625 38.15625 15.59375 35.171875 18.296875 33.28125 
C 13.796875 30.984375 3.296875 25.53125 3.296875 14.59375 
C 3.296875 4.359375 13.09375 -2 22.796875 -2 
C 33.5 -2 42.5 5.65625 42.5 15.78125 
C 42.5 24.84375 36.40625 29.015625 32.40625 31.703125 
z
M 14.09375 44.09375 
C 13.296875 44.59375 9.296875 47.671875 9.296875 52.359375 
C 9.296875 58.421875 15.59375 63 22.796875 63 
C 30.703125 63 36.5 57.4375 36.5 50.96875 
C 36.5 41.703125 26.09375 36.421875 25.59375 36.421875 
C 25.5 36.421875 25.40625 36.421875 24.59375 37.03125 
z
M 32.5 23.734375 
C 34 22.640625 38.796875 19.375 38.796875 13.296875 
C 38.796875 5.953125 31.40625 0.390625 23 0.390625 
C 13.90625 0.390625 7 6.84375 7 14.6875 
C 7 22.546875 13.09375 29.09375 20 32.1875 
z
" id="CMR17-56"/>
      </defs>
      <g style="fill:#262626;" transform="translate(597.280142532 284.028545664)scale(0.25 -0.25)">
       <use transform="scale(0.996264009963)" xlink:href="#CMR17-56"/>
       <use transform="translate(45.6904771171 0.0)scale(0.996264009963)" xlink:href="#CMR17-48"/>
      </g>
     </g>
    </g>
    <g id="xtick_6">
     <g id="line2d_16">
      <path clip-path="url(#pe9698a44ab)" d="M 742.622762 259.732292 
L 742.622762 36.532292 
" style="fill:none;stroke:#ffffff;stroke-linecap:round;"/>
     </g>
     <g id="line2d_17">
      <g>
       <use style="fill:#262626;stroke:#262626;" x="742.622761811" xlink:href="#mf1689f23e8" y="259.732292113"/>
      </g>
     </g>
     <g id="line2d_18">
      <g>
       <use style="fill:#262626;stroke:#262626;" x="742.622761811" xlink:href="#mf1689f23e8" y="36.5322921126"/>
      </g>
     </g>
     <g id="text_6">
      <!-- $100$ -->
      <defs>
       <path d="M 26.59375 63.40625 
C 26.59375 65.5 26.5 65.5 25.09375 65.5 
C 21.203125 61.1875 15.296875 59.796875 9.703125 59.796875 
C 9.40625 59.796875 8.90625 59.796875 8.796875 59.5 
C 8.703125 59.296875 8.703125 59.09375 8.703125 57 
C 11.796875 57 17 57.59375 21 59.984375 
L 21 7.203125 
C 21 3.6875 20.796875 2.5 12.203125 2.5 
L 9.203125 2.5 
L 9.203125 0 
C 14 0 19 0 23.796875 0 
C 28.59375 0 33.59375 0 38.40625 0 
L 38.40625 2.5 
L 35.40625 2.5 
C 26.796875 2.5 26.59375 3.59375 26.59375 7.15625 
z
" id="CMR17-49"/>
      </defs>
      <g style="fill:#262626;" transform="translate(725.488832892 284.028545664)scale(0.25 -0.25)">
       <use transform="scale(0.996264009963)" xlink:href="#CMR17-49"/>
       <use transform="translate(45.6904771171 0.0)scale(0.996264009963)" xlink:href="#CMR17-48"/>
       <use transform="translate(91.3809542341 0.0)scale(0.996264009963)" xlink:href="#CMR17-48"/>
      </g>
     </g>
    </g>
    <g id="text_7">
     <!-- Index $j$  -->
     <defs>
      <path d="M 17.09375 69 
L 8.703125 69 
L 8.703125 0 
L 17.09375 0 
z
" id="CMSS17-73"/>
      <path d="M 35 31.6875 
C 35.40625 33.296875 35.40625 34.671875 35.40625 35.078125 
C 35.40625 40.828125 31.09375 44 26.59375 44 
C 16.5 44 11.09375 29.515625 11.09375 28.828125 
C 11.09375 28.328125 11.5 27.9375 12.09375 27.9375 
C 12.90625 27.9375 13 28.328125 13.5 29.3125 
C 17.5 38.9375 22.5 42.015625 26.296875 42.015625 
C 28.40625 42.015625 29.5 40.90625 29.5 37.453125 
C 29.5 35.078125 29.203125 34.078125 28.796875 32.296875 
L 19.296875 -5.109375 
C 17.40625 -12.4375 12.703125 -18 7.203125 -18 
C 6.796875 -18 4.703125 -18 2.796875 -17 
C 5.203125 -16.5 7.09375 -14.625 7.09375 -12.25 
C 7.09375 -10.65625 5.90625 -9.0625 3.703125 -9.0625 
C 1.09375 -9.0625 -1.296875 -11.25 -1.296875 -14.234375 
C -1.296875 -18.296875 3.09375 -20 7.203125 -20 
C 14.09375 -20 23.203125 -14.9375 25.703125 -5 
z
M 39.09375 62.703125 
C 39.09375 65.203125 37 66 35.796875 66 
C 33.09375 66 30.796875 63.40625 30.796875 61.203125 
C 30.796875 59.71875 32 57.921875 34.203125 57.921875 
C 36.5 57.921875 39.09375 60.109375 39.09375 62.703125 
" id="CMMI12-106"/>
      <path d="M 40.796875 69 
L 33.40625 69 
L 33.40625 38.09375 
C 30.296875 40.671875 25.203125 43.0625 19.59375 43.0625 
C 10.5 43.0625 3.296875 33.296875 3.296875 21.03125 
C 3.296875 8.78125 10.40625 -1 19.296875 -1 
C 26.203125 -1 30.796875 2.6875 33.203125 4.78125 
L 33.203125 -0.203125 
L 40.796875 -0.203125 
z
M 33.203125 13.0625 
C 33.203125 11.671875 33.203125 10.203125 30.09375 7.53125 
C 28.09375 5.859375 25.703125 5.078125 23.40625 5.078125 
C 18 5.078125 10.90625 9 10.90625 20.9375 
C 10.90625 33.34375 18.90625 37 24.40625 37 
C 28.09375 37 31.09375 35.21875 33.203125 32.265625 
z
" id="CMSS17-100"/>
      <path d="M 39.09375 21.515625 
C 39.09375 24.84375 38.90625 31.296875 35.703125 36.640625 
C 32.203125 42.390625 26.5 44 22.203125 44 
C 11.796875 44 3 34.1875 3 21.484375 
C 3 9.09375 12.09375 -1 23.59375 -1 
C 28.09375 -1 33.59375 0.296875 38.59375 3.875 
C 38.59375 4.28125 38.40625 6.46875 38.296875 6.5625 
C 38.296875 6.765625 38 9.84375 38 10.25 
C 33.203125 6.359375 27.703125 5.078125 23.703125 5.078125 
C 17.296875 5.078125 10.40625 10.421875 10.09375 21.515625 
z
M 10.90625 27 
C 12.203125 32.5625 16.59375 37.828125 22.203125 37.828125 
C 23.703125 37.828125 30.703125 37.828125 32.5 27 
z
" id="CMSS17-101"/>
      <path d="M 24.796875 22.09375 
L 41.5 42.796875 
L 32.796875 42.796875 
L 21.296875 27.765625 
L 9.40625 42.796875 
L 0.5 42.796875 
L 17.796875 22.09375 
L 0 0 
L 8.796875 0 
L 21.296875 17.515625 
L 34.296875 0 
L 43.09375 0 
z
" id="CMSS17-120"/>
      <path d="M 40.90625 29.328125 
C 40.90625 35.671875 39.40625 44 28.09375 44 
C 21.703125 44 17.5 40.71875 14.703125 37.328125 
L 14.703125 43.09375 
L 7.40625 43.09375 
L 7.40625 0 
L 15 0 
L 15 24.359375 
C 15 30.6875 17.40625 37.9375 24.203125 37.9375 
C 33 37.9375 33.296875 32 33.296875 28.578125 
L 33.296875 0 
L 40.90625 0 
z
" id="CMSS17-110"/>
     </defs>
     <g style="fill:#262626;" transform="translate(369.540098045 312.898946821)scale(0.275 -0.275)">
      <use transform="scale(0.996264009963)" xlink:href="#CMSS17-73"/>
      <use transform="translate(25.7839255137 0.0)scale(0.996264009963)" xlink:href="#CMSS17-110"/>
      <use transform="translate(73.9888686469 0.0)scale(0.996264009963)" xlink:href="#CMSS17-100"/>
      <use transform="translate(122.19381178 0.0)scale(0.996264009963)" xlink:href="#CMSS17-101"/>
      <use transform="translate(163.832633849 0.0)scale(0.996264009963)" xlink:href="#CMSS17-120"/>
      <use transform="translate(238.06188828 0.0)scale(0.996264009963)" xlink:href="#CMMI12-106"/>
     </g>
    </g>
   </g>
   <g id="matplotlib.axis_2">
    <g id="ytick_1">
     <g id="line2d_19">
      <path clip-path="url(#pe9698a44ab)" d="M 73.022762 259.732292 
L 742.622762 259.732292 
" style="fill:none;stroke:#ffffff;stroke-linecap:round;"/>
     </g>
     <g id="line2d_20">
      <g>
       <use style="fill:#262626;stroke:#262626;" x="73.0227618112" xlink:href="#mf1689f23e8" y="259.732292113"/>
      </g>
     </g>
     <g id="line2d_21">
      <g>
       <use style="fill:#262626;stroke:#262626;" x="742.622761811" xlink:href="#mf1689f23e8" y="259.732292113"/>
      </g>
     </g>
     <g id="text_8">
      <!-- $-20$ -->
      <defs>
       <path d="M 65.90625 23 
C 67.59375 23 69.40625 23 69.40625 25 
C 69.40625 27 67.59375 27 65.90625 27 
L 11.796875 27 
C 10.09375 27 8.296875 27 8.296875 25 
C 8.296875 23 10.09375 23 11.796875 23 
z
" id="CMSY10-0"/>
      </defs>
      <g style="fill:#262626;" transform="translate(23.8056639409 265.958151682)scale(0.25 -0.25)">
       <use transform="scale(0.996264009963)" xlink:href="#CMSY10-0"/>
       <use transform="translate(77.4874676506 0.0)scale(0.996264009963)" xlink:href="#CMR17-50"/>
       <use transform="translate(123.177944768 0.0)scale(0.996264009963)" xlink:href="#CMR17-48"/>
      </g>
     </g>
    </g>
    <g id="ytick_2">
     <g id="line2d_22">
      <path clip-path="url(#pe9698a44ab)" d="M 73.022762 231.832292 
L 742.622762 231.832292 
" style="fill:none;stroke:#ffffff;stroke-linecap:round;"/>
     </g>
     <g id="line2d_23">
      <g>
       <use style="fill:#262626;stroke:#262626;" x="73.0227618112" xlink:href="#mf1689f23e8" y="231.832292113"/>
      </g>
     </g>
     <g id="line2d_24">
      <g>
       <use style="fill:#262626;stroke:#262626;" x="742.622761811" xlink:href="#mf1689f23e8" y="231.832292113"/>
      </g>
     </g>
     <g id="text_9">
      <!-- $-15$ -->
      <defs>
       <path d="M 11.40625 57.6875 
C 12.40625 57.28125 16.5 56 20.703125 56 
C 30 56 35.09375 61.109375 38 64.0625 
C 38 64.953125 38 65.5 37.40625 65.5 
C 37.296875 65.5 37.09375 65.5 36.296875 65.046875 
C 32.796875 63.40625 28.703125 62.078125 23.703125 62.078125 
C 20.703125 62.078125 16.203125 62.484375 11.296875 64.671875 
C 10.203125 65.171875 10 65.171875 9.90625 65.171875 
C 9.40625 65.171875 9.296875 65.0625 9.296875 63.078125 
L 9.296875 34.421875 
C 9.296875 32.640625 9.296875 32.140625 10.296875 32.140625 
C 10.796875 32.140625 11 32.34375 11.5 33.03125 
C 14.703125 37.515625 19.09375 39.40625 24.09375 39.40625 
C 27.59375 39.40625 35.09375 37.21875 35.09375 20.140625 
C 35.09375 16.953125 35.09375 11.171875 32.09375 6.578125 
C 29.59375 2.484375 25.703125 0.390625 21.40625 0.390625 
C 14.796875 0.390625 8.09375 5 6.296875 12.71875 
C 6.703125 12.609375 7.5 12.421875 7.90625 12.421875 
C 9.203125 12.421875 11.703125 13.125 11.703125 16.21875 
C 11.703125 18.90625 9.796875 20 7.90625 20 
C 5.59375 20 4.09375 18.59375 4.09375 15.796875 
C 4.09375 7.09375 11 -2 21.59375 -2 
C 31.90625 -2 41.703125 6.875 41.703125 19.75 
C 41.703125 31.71875 33.90625 41 24.203125 41 
C 19.09375 41 14.796875 39.109375 11.40625 35.53125 
z
" id="CMR17-53"/>
      </defs>
      <g style="fill:#262626;" transform="translate(23.8056639409 238.058151682)scale(0.25 -0.25)">
       <use transform="scale(0.996264009963)" xlink:href="#CMSY10-0"/>
       <use transform="translate(77.4874676506 0.0)scale(0.996264009963)" xlink:href="#CMR17-49"/>
       <use transform="translate(123.177944768 0.0)scale(0.996264009963)" xlink:href="#CMR17-53"/>
      </g>
     </g>
    </g>
    <g id="ytick_3">
     <g id="line2d_25">
      <path clip-path="url(#pe9698a44ab)" d="M 73.022762 203.932292 
L 742.622762 203.932292 
" style="fill:none;stroke:#ffffff;stroke-linecap:round;"/>
     </g>
     <g id="line2d_26">
      <g>
       <use style="fill:#262626;stroke:#262626;" x="73.0227618112" xlink:href="#mf1689f23e8" y="203.932292113"/>
      </g>
     </g>
     <g id="line2d_27">
      <g>
       <use style="fill:#262626;stroke:#262626;" x="742.622761811" xlink:href="#mf1689f23e8" y="203.932292113"/>
      </g>
     </g>
     <g id="text_10">
      <!-- $-10$ -->
      <g style="fill:#262626;" transform="translate(23.8056639409 210.158151682)scale(0.25 -0.25)">
       <use transform="scale(0.996264009963)" xlink:href="#CMSY10-0"/>
       <use transform="translate(77.4874676506 0.0)scale(0.996264009963)" xlink:href="#CMR17-49"/>
       <use transform="translate(123.177944768 0.0)scale(0.996264009963)" xlink:href="#CMR17-48"/>
      </g>
     </g>
    </g>
    <g id="ytick_4">
     <g id="line2d_28">
      <path clip-path="url(#pe9698a44ab)" d="M 73.022762 176.032292 
L 742.622762 176.032292 
" style="fill:none;stroke:#ffffff;stroke-linecap:round;"/>
     </g>
     <g id="line2d_29">
      <g>
       <use style="fill:#262626;stroke:#262626;" x="73.0227618112" xlink:href="#mf1689f23e8" y="176.032292113"/>
      </g>
     </g>
     <g id="line2d_30">
      <g>
       <use style="fill:#262626;stroke:#262626;" x="742.622761811" xlink:href="#mf1689f23e8" y="176.032292113"/>
      </g>
     </g>
     <g id="text_11">
      <!-- $-5$ -->
      <g style="fill:#262626;" transform="translate(35.2282832202 182.258151682)scale(0.25 -0.25)">
       <use transform="scale(0.996264009963)" xlink:href="#CMSY10-0"/>
       <use transform="translate(77.4874676506 0.0)scale(0.996264009963)" xlink:href="#CMR17-53"/>
      </g>
     </g>
    </g>
    <g id="ytick_5">
     <g id="line2d_31">
      <path clip-path="url(#pe9698a44ab)" d="M 73.022762 148.132292 
L 742.622762 148.132292 
" style="fill:none;stroke:#ffffff;stroke-linecap:round;"/>
     </g>
     <g id="line2d_32">
      <g>
       <use style="fill:#262626;stroke:#262626;" x="73.0227618112" xlink:href="#mf1689f23e8" y="148.132292113"/>
      </g>
     </g>
     <g id="line2d_33">
      <g>
       <use style="fill:#262626;stroke:#262626;" x="742.622761811" xlink:href="#mf1689f23e8" y="148.132292113"/>
      </g>
     </g>
     <g id="text_12">
      <!-- $0$ -->
      <g style="fill:#262626;" transform="translate(54.6001425319 154.358151682)scale(0.25 -0.25)">
       <use transform="scale(0.996264009963)" xlink:href="#CMR17-48"/>
      </g>
     </g>
    </g>
    <g id="ytick_6">
     <g id="line2d_34">
      <path clip-path="url(#pe9698a44ab)" d="M 73.022762 120.232292 
L 742.622762 120.232292 
" style="fill:none;stroke:#ffffff;stroke-linecap:round;"/>
     </g>
     <g id="line2d_35">
      <g>
       <use style="fill:#262626;stroke:#262626;" x="73.0227618112" xlink:href="#mf1689f23e8" y="120.232292113"/>
      </g>
     </g>
     <g id="line2d_36">
      <g>
       <use style="fill:#262626;stroke:#262626;" x="742.622761811" xlink:href="#mf1689f23e8" y="120.232292113"/>
      </g>
     </g>
     <g id="text_13">
      <!-- $5$ -->
      <g style="fill:#262626;" transform="translate(54.6001425319 126.458151682)scale(0.25 -0.25)">
       <use transform="scale(0.996264009963)" xlink:href="#CMR17-53"/>
      </g>
     </g>
    </g>
    <g id="ytick_7">
     <g id="line2d_37">
      <path clip-path="url(#pe9698a44ab)" d="M 73.022762 92.332292 
L 742.622762 92.332292 
" style="fill:none;stroke:#ffffff;stroke-linecap:round;"/>
     </g>
     <g id="line2d_38">
      <g>
       <use style="fill:#262626;stroke:#262626;" x="73.0227618112" xlink:href="#mf1689f23e8" y="92.3322921126"/>
      </g>
     </g>
     <g id="line2d_39">
      <g>
       <use style="fill:#262626;stroke:#262626;" x="742.622761811" xlink:href="#mf1689f23e8" y="92.3322921126"/>
      </g>
     </g>
     <g id="text_14">
      <!-- $10$ -->
      <g style="fill:#262626;" transform="translate(43.1775232526 98.5581516822)scale(0.25 -0.25)">
       <use transform="scale(0.996264009963)" xlink:href="#CMR17-49"/>
       <use transform="translate(45.6904771171 0.0)scale(0.996264009963)" xlink:href="#CMR17-48"/>
      </g>
     </g>
    </g>
    <g id="ytick_8">
     <g id="line2d_40">
      <path clip-path="url(#pe9698a44ab)" d="M 73.022762 64.432292 
L 742.622762 64.432292 
" style="fill:none;stroke:#ffffff;stroke-linecap:round;"/>
     </g>
     <g id="line2d_41">
      <g>
       <use style="fill:#262626;stroke:#262626;" x="73.0227618112" xlink:href="#mf1689f23e8" y="64.4322921126"/>
      </g>
     </g>
     <g id="line2d_42">
      <g>
       <use style="fill:#262626;stroke:#262626;" x="742.622761811" xlink:href="#mf1689f23e8" y="64.4322921126"/>
      </g>
     </g>
     <g id="text_15">
      <!-- $15$ -->
      <g style="fill:#262626;" transform="translate(43.1775232526 70.6581516822)scale(0.25 -0.25)">
       <use transform="scale(0.996264009963)" xlink:href="#CMR17-49"/>
       <use transform="translate(45.6904771171 0.0)scale(0.996264009963)" xlink:href="#CMR17-53"/>
      </g>
     </g>
    </g>
    <g id="ytick_9">
     <g id="line2d_43">
      <path clip-path="url(#pe9698a44ab)" d="M 73.022762 36.532292 
L 742.622762 36.532292 
" style="fill:none;stroke:#ffffff;stroke-linecap:round;"/>
     </g>
     <g id="line2d_44">
      <g>
       <use style="fill:#262626;stroke:#262626;" x="73.0227618112" xlink:href="#mf1689f23e8" y="36.5322921126"/>
      </g>
     </g>
     <g id="line2d_45">
      <g>
       <use style="fill:#262626;stroke:#262626;" x="742.622761811" xlink:href="#mf1689f23e8" y="36.5322921126"/>
      </g>
     </g>
     <g id="text_16">
      <!-- $20$ -->
      <g style="fill:#262626;" transform="translate(43.1775232526 42.7581516822)scale(0.25 -0.25)">
       <use transform="scale(0.996264009963)" xlink:href="#CMR17-50"/>
       <use transform="translate(45.6904771171 0.0)scale(0.996264009963)" xlink:href="#CMR17-48"/>
      </g>
     </g>
    </g>
    <g id="text_17">
     <!-- $\bar{\kappa}_{j}$ -->
     <defs>
      <path d="M 21.296875 25 
C 24.59375 26.78125 28.296875 29.875 30.796875 31.96875 
C 36.796875 37.140625 39 38.734375 42.796875 40.21875 
C 42.40625 39.625 42.296875 38.828125 42.296875 38.140625 
C 42.296875 35.4375 44.59375 34.9375 45.59375 34.9375 
C 48.796875 34.9375 50.59375 37.921875 50.59375 39.8125 
C 50.59375 40.40625 50.40625 43 46.90625 43 
C 40.90625 43 35 37.984375 30.59375 34.34375 
C 24.796875 29.3125 21.90625 27.15625 17.796875 25.875 
L 21.59375 41.5 
C 21.59375 43.109375 20.296875 44 19 44 
C 18.09375 44 15.90625 43.703125 15.09375 40.5 
L 5.796875 3.5 
C 5.5 2.3125 5.5 2.09375 5.5 1.5 
C 5.5 0.09375 6.59375 -1 8.09375 -1 
C 11.09375 -1 11.703125 1.65625 12.203125 3.8125 
C 12.796875 5.9375 16.90625 23 17.09375 23 
C 29.796875 23 34.09375 19.75 34.09375 14.734375 
C 34.09375 14.015625 34.09375 13.71875 33.796875 12.59375 
C 33.40625 10.65625 33.40625 9.515625 33.40625 8.90625 
C 33.40625 2.78125 37.296875 -1 42.203125 -1 
C 46.296875 -1 48.59375 1.921875 50.09375 4.546875 
C 52.203125 8.484375 53.5 14.03125 53.5 14.421875 
C 53.5 14.9375 53.09375 15.328125 52.5 15.328125 
C 51.59375 15.328125 51.5 14.9375 51.09375 13.3125 
C 49.796875 8.46875 47.59375 1 42.5 1 
C 40.296875 1 39.203125 2.3125 39.203125 5.84375 
C 39.203125 7.78125 39.59375 10.015625 40 11.515625 
C 40.203125 12.546875 40.5 13.75 40.5 14.859375 
C 40.5 24.078125 27.90625 25 21.296875 25 
" id="CMMI12-20"/>
      <path d="M 39.90625 55 
L 39.90625 57.28125 
L 5.90625 57.28125 
L 5.90625 55 
z
" id="CMR17-22"/>
     </defs>
     <g style="fill:#262626;" transform="translate(7.2 142.803292098)scale(0.275 -0.275)">
      <use transform="translate(5.23207345015 14.9503753016)scale(0.996264009963)" xlink:href="#CMR17-22"/>
      <use transform="translate(0.0 14.9439145441)scale(0.996264009963)" xlink:href="#CMMI12-20"/>
      <use transform="translate(56.1546240174 0.0)scale(0.697381766617)" xlink:href="#CMMI12-106"/>
     </g>
    </g>
   </g>
   <g id="line2d_46">
    <defs>
     <path d="M 0 3.5 
C 0.928211 3.5 1.81853 3.131218 2.474874 2.474874 
C 3.131218 1.81853 3.5 0.928211 3.5 0 
C 3.5 -0.928211 3.131218 -1.81853 2.474874 -2.474874 
C 1.81853 -3.131218 0.928211 -3.5 0 -3.5 
C -0.928211 -3.5 -1.81853 -3.131218 -2.474874 -2.474874 
C -3.131218 -1.81853 -3.5 -0.928211 -3.5 0 
C -3.5 0.928211 -3.131218 1.81853 -2.474874 2.474874 
C -1.81853 3.131218 -0.928211 3.5 0 3.5 
z
" id="m04c2b1c526"/>
    </defs>
    <g>
     <use style="fill:#0000ff;" x="73.0227618112" xlink:href="#m04c2b1c526" y="41.7609122245"/>
     <use style="fill:#0000ff;" x="79.7187618112" xlink:href="#m04c2b1c526" y="46.3034453448"/>
     <use style="fill:#0000ff;" x="86.4147618112" xlink:href="#m04c2b1c526" y="50.1053478795"/>
     <use style="fill:#0000ff;" x="93.1107618112" xlink:href="#m04c2b1c526" y="53.5743308888"/>
     <use style="fill:#0000ff;" x="99.8067618112" xlink:href="#m04c2b1c526" y="56.797511544"/>
     <use style="fill:#0000ff;" x="106.502761811" xlink:href="#m04c2b1c526" y="59.6476553301"/>
     <use style="fill:#0000ff;" x="113.198761811" xlink:href="#m04c2b1c526" y="62.4636836338"/>
     <use style="fill:#0000ff;" x="119.894761811" xlink:href="#m04c2b1c526" y="65.2591328353"/>
     <use style="fill:#0000ff;" x="126.590761811" xlink:href="#m04c2b1c526" y="67.8827445655"/>
     <use style="fill:#0000ff;" x="133.286761811" xlink:href="#m04c2b1c526" y="70.2851871451"/>
     <use style="fill:#0000ff;" x="139.982761811" xlink:href="#m04c2b1c526" y="72.7069325216"/>
     <use style="fill:#0000ff;" x="146.678761811" xlink:href="#m04c2b1c526" y="74.9702302564"/>
     <use style="fill:#0000ff;" x="153.374761811" xlink:href="#m04c2b1c526" y="77.2385731667"/>
     <use style="fill:#0000ff;" x="160.070761811" xlink:href="#m04c2b1c526" y="79.4558121715"/>
     <use style="fill:#0000ff;" x="166.766761811" xlink:href="#m04c2b1c526" y="81.6713762892"/>
     <use style="fill:#0000ff;" x="173.462761811" xlink:href="#m04c2b1c526" y="83.9320388617"/>
     <use style="fill:#0000ff;" x="180.158761811" xlink:href="#m04c2b1c526" y="86.1517168664"/>
     <use style="fill:#0000ff;" x="186.854761811" xlink:href="#m04c2b1c526" y="88.1815916498"/>
     <use style="fill:#0000ff;" x="193.550761811" xlink:href="#m04c2b1c526" y="90.3002904007"/>
     <use style="fill:#0000ff;" x="200.246761811" xlink:href="#m04c2b1c526" y="92.3983541529"/>
     <use style="fill:#0000ff;" x="206.942761811" xlink:href="#m04c2b1c526" y="94.3294542703"/>
     <use style="fill:#0000ff;" x="213.638761811" xlink:href="#m04c2b1c526" y="96.3638418033"/>
     <use style="fill:#0000ff;" x="220.334761811" xlink:href="#m04c2b1c526" y="98.2506022734"/>
     <use style="fill:#0000ff;" x="227.030761811" xlink:href="#m04c2b1c526" y="100.171360131"/>
     <use style="fill:#0000ff;" x="233.726761811" xlink:href="#m04c2b1c526" y="102.044993251"/>
     <use style="fill:#0000ff;" x="240.422761811" xlink:href="#m04c2b1c526" y="104.028995628"/>
     <use style="fill:#0000ff;" x="247.118761811" xlink:href="#m04c2b1c526" y="105.875558184"/>
     <use style="fill:#0000ff;" x="253.814761811" xlink:href="#m04c2b1c526" y="107.811630763"/>
     <use style="fill:#0000ff;" x="260.510761811" xlink:href="#m04c2b1c526" y="109.655623813"/>
     <use style="fill:#0000ff;" x="267.206761811" xlink:href="#m04c2b1c526" y="111.429546901"/>
     <use style="fill:#0000ff;" x="273.902761811" xlink:href="#m04c2b1c526" y="113.315056373"/>
     <use style="fill:#0000ff;" x="280.598761811" xlink:href="#m04c2b1c526" y="115.202631012"/>
     <use style="fill:#0000ff;" x="287.294761811" xlink:href="#m04c2b1c526" y="117.184458345"/>
     <use style="fill:#0000ff;" x="293.990761811" xlink:href="#m04c2b1c526" y="118.925652095"/>
     <use style="fill:#0000ff;" x="300.686761811" xlink:href="#m04c2b1c526" y="120.665516714"/>
     <use style="fill:#0000ff;" x="307.382761811" xlink:href="#m04c2b1c526" y="122.451260264"/>
     <use style="fill:#0000ff;" x="314.078761811" xlink:href="#m04c2b1c526" y="124.14609022"/>
     <use style="fill:#0000ff;" x="320.774761811" xlink:href="#m04c2b1c526" y="125.889157824"/>
     <use style="fill:#0000ff;" x="327.470761811" xlink:href="#m04c2b1c526" y="127.798108799"/>
     <use style="fill:#0000ff;" x="334.166761811" xlink:href="#m04c2b1c526" y="129.647345738"/>
     <use style="fill:#0000ff;" x="340.862761811" xlink:href="#m04c2b1c526" y="131.45470085"/>
     <use style="fill:#0000ff;" x="347.558761811" xlink:href="#m04c2b1c526" y="133.219098077"/>
     <use style="fill:#0000ff;" x="354.254761811" xlink:href="#m04c2b1c526" y="134.973203459"/>
     <use style="fill:#0000ff;" x="360.950761811" xlink:href="#m04c2b1c526" y="136.69825605"/>
     <use style="fill:#0000ff;" x="367.646761811" xlink:href="#m04c2b1c526" y="138.373459057"/>
     <use style="fill:#0000ff;" x="374.342761811" xlink:href="#m04c2b1c526" y="140.182102189"/>
     <use style="fill:#0000ff;" x="381.038761811" xlink:href="#m04c2b1c526" y="141.898263595"/>
     <use style="fill:#0000ff;" x="387.734761811" xlink:href="#m04c2b1c526" y="143.704745312"/>
     <use style="fill:#0000ff;" x="394.430761811" xlink:href="#m04c2b1c526" y="145.413205324"/>
     <use style="fill:#0000ff;" x="401.126761811" xlink:href="#m04c2b1c526" y="147.200317328"/>
     <use style="fill:#0000ff;" x="407.822761811" xlink:href="#m04c2b1c526" y="148.998387318"/>
     <use style="fill:#0000ff;" x="414.518761811" xlink:href="#m04c2b1c526" y="150.654599814"/>
     <use style="fill:#0000ff;" x="421.214761811" xlink:href="#m04c2b1c526" y="152.517597045"/>
     <use style="fill:#0000ff;" x="427.910761811" xlink:href="#m04c2b1c526" y="154.207605069"/>
     <use style="fill:#0000ff;" x="434.606761811" xlink:href="#m04c2b1c526" y="156.011296377"/>
     <use style="fill:#0000ff;" x="441.302761811" xlink:href="#m04c2b1c526" y="157.751714855"/>
     <use style="fill:#0000ff;" x="447.998761811" xlink:href="#m04c2b1c526" y="159.537331486"/>
     <use style="fill:#0000ff;" x="454.694761811" xlink:href="#m04c2b1c526" y="161.30455632"/>
     <use style="fill:#0000ff;" x="461.390761811" xlink:href="#m04c2b1c526" y="163.088846778"/>
     <use style="fill:#0000ff;" x="468.086761811" xlink:href="#m04c2b1c526" y="164.8317468"/>
     <use style="fill:#0000ff;" x="474.782761811" xlink:href="#m04c2b1c526" y="166.625074938"/>
     <use style="fill:#0000ff;" x="481.478761811" xlink:href="#m04c2b1c526" y="168.400898047"/>
     <use style="fill:#0000ff;" x="488.174761811" xlink:href="#m04c2b1c526" y="169.999887805"/>
     <use style="fill:#0000ff;" x="494.870761811" xlink:href="#m04c2b1c526" y="171.964238042"/>
     <use style="fill:#0000ff;" x="501.566761811" xlink:href="#m04c2b1c526" y="173.79519664"/>
     <use style="fill:#0000ff;" x="508.262761811" xlink:href="#m04c2b1c526" y="175.672533644"/>
     <use style="fill:#0000ff;" x="514.958761811" xlink:href="#m04c2b1c526" y="177.416407367"/>
     <use style="fill:#0000ff;" x="521.654761811" xlink:href="#m04c2b1c526" y="179.156962295"/>
     <use style="fill:#0000ff;" x="528.350761811" xlink:href="#m04c2b1c526" y="180.916037092"/>
     <use style="fill:#0000ff;" x="535.046761811" xlink:href="#m04c2b1c526" y="182.586199926"/>
     <use style="fill:#0000ff;" x="541.742761811" xlink:href="#m04c2b1c526" y="184.515575743"/>
     <use style="fill:#0000ff;" x="548.438761811" xlink:href="#m04c2b1c526" y="186.44964966"/>
     <use style="fill:#0000ff;" x="555.134761811" xlink:href="#m04c2b1c526" y="188.367172088"/>
     <use style="fill:#0000ff;" x="561.830761811" xlink:href="#m04c2b1c526" y="190.259327184"/>
     <use style="fill:#0000ff;" x="568.526761811" xlink:href="#m04c2b1c526" y="192.210851734"/>
     <use style="fill:#0000ff;" x="575.222761811" xlink:href="#m04c2b1c526" y="194.152898077"/>
     <use style="fill:#0000ff;" x="581.918761811" xlink:href="#m04c2b1c526" y="196.025117975"/>
     <use style="fill:#0000ff;" x="588.614761811" xlink:href="#m04c2b1c526" y="198.06203841"/>
     <use style="fill:#0000ff;" x="595.310761811" xlink:href="#m04c2b1c526" y="199.972619581"/>
     <use style="fill:#0000ff;" x="602.006761811" xlink:href="#m04c2b1c526" y="201.97050842"/>
     <use style="fill:#0000ff;" x="608.702761811" xlink:href="#m04c2b1c526" y="203.833481398"/>
     <use style="fill:#0000ff;" x="615.398761811" xlink:href="#m04c2b1c526" y="205.984043205"/>
     <use style="fill:#0000ff;" x="622.094761811" xlink:href="#m04c2b1c526" y="208.101128483"/>
     <use style="fill:#0000ff;" x="628.790761811" xlink:href="#m04c2b1c526" y="210.123721074"/>
     <use style="fill:#0000ff;" x="635.486761811" xlink:href="#m04c2b1c526" y="212.368971392"/>
     <use style="fill:#0000ff;" x="642.182761811" xlink:href="#m04c2b1c526" y="214.313777288"/>
     <use style="fill:#0000ff;" x="648.878761811" xlink:href="#m04c2b1c526" y="216.561231806"/>
     <use style="fill:#0000ff;" x="655.574761811" xlink:href="#m04c2b1c526" y="219.056298729"/>
     <use style="fill:#0000ff;" x="662.270761811" xlink:href="#m04c2b1c526" y="221.343250269"/>
     <use style="fill:#0000ff;" x="668.966761811" xlink:href="#m04c2b1c526" y="223.580092132"/>
     <use style="fill:#0000ff;" x="675.662761811" xlink:href="#m04c2b1c526" y="226.046805492"/>
     <use style="fill:#0000ff;" x="682.358761811" xlink:href="#m04c2b1c526" y="228.512321002"/>
     <use style="fill:#0000ff;" x="689.054761811" xlink:href="#m04c2b1c526" y="231.148962245"/>
     <use style="fill:#0000ff;" x="695.750761811" xlink:href="#m04c2b1c526" y="233.742791305"/>
     <use style="fill:#0000ff;" x="702.446761811" xlink:href="#m04c2b1c526" y="236.622217124"/>
     <use style="fill:#0000ff;" x="709.142761811" xlink:href="#m04c2b1c526" y="239.430413915"/>
     <use style="fill:#0000ff;" x="715.838761811" xlink:href="#m04c2b1c526" y="242.635534316"/>
     <use style="fill:#0000ff;" x="722.534761811" xlink:href="#m04c2b1c526" y="246.145741968"/>
     <use style="fill:#0000ff;" x="729.230761811" xlink:href="#m04c2b1c526" y="249.82432403"/>
     <use style="fill:#0000ff;" x="735.926761811" xlink:href="#m04c2b1c526" y="254.843309732"/>
    </g>
   </g>
   <g id="line2d_47">
    <path d="M 73.022762 41.137466 
L 79.718762 46.155536 
L 86.414762 50.10961 
L 93.110762 53.579248 
L 99.806762 56.749227 
L 106.502762 59.708697 
L 113.198762 62.509263 
L 119.894762 65.184162 
L 126.590762 67.756383 
L 133.286762 70.242659 
L 139.982762 72.655648 
L 146.678762 75.005219 
L 153.374762 77.299259 
L 160.070762 79.544196 
L 166.766762 81.74536 
L 173.462762 83.907234 
L 180.158762 86.033636 
L 186.854762 88.127855 
L 193.550762 90.192749 
L 200.246762 92.230827 
L 206.942762 94.244303 
L 213.638762 96.235151 
L 220.334762 98.205139 
L 227.030762 100.155858 
L 233.726762 102.088754 
L 240.422762 104.00514 
L 247.118762 105.906221 
L 253.814762 107.793103 
L 260.510762 109.666809 
L 267.206762 111.528288 
L 273.902762 113.378421 
L 280.598762 115.218034 
L 287.294762 117.047901 
L 293.990762 118.86875 
L 300.686762 120.68127 
L 307.382762 122.486114 
L 314.078762 124.283902 
L 320.774762 126.075227 
L 327.470762 127.860656 
L 334.166762 129.640735 
L 340.862762 131.415989 
L 347.558762 133.186925 
L 354.254762 134.954036 
L 360.950762 136.717803 
L 367.646762 138.478692 
L 374.342762 140.237162 
L 381.038762 141.993665 
L 387.734762 143.748643 
L 394.430762 145.502536 
L 401.126762 147.255779 
L 407.822762 149.008805 
L 414.518762 150.762049 
L 421.214762 152.515941 
L 427.910762 154.270919 
L 434.606762 156.027422 
L 441.302762 157.785892 
L 447.998762 159.546782 
L 454.694762 161.310548 
L 461.390762 163.07766 
L 468.086762 164.848596 
L 474.782762 166.623849 
L 481.478762 168.403928 
L 488.174762 170.189357 
L 494.870762 171.980682 
L 501.566762 173.778471 
L 508.262762 175.583314 
L 514.958762 177.395834 
L 521.654762 179.216684 
L 528.350762 181.04655 
L 535.046762 182.886163 
L 541.742762 184.736296 
L 548.438762 186.597775 
L 555.134762 188.471481 
L 561.830762 190.358363 
L 568.526762 192.259444 
L 575.222762 194.17583 
L 581.918762 196.108726 
L 588.614762 198.059445 
L 595.310762 200.029433 
L 602.006762 202.020281 
L 608.702762 204.033757 
L 615.398762 206.071835 
L 622.094762 208.136729 
L 628.790762 210.230948 
L 635.486762 212.35735 
L 642.182762 214.519224 
L 648.878762 216.720388 
L 655.574762 218.965325 
L 662.270762 221.259365 
L 668.966762 223.608936 
L 675.662762 226.021925 
L 682.358762 228.508201 
L 689.054762 231.080423 
L 695.750762 233.755322 
L 702.446762 236.555887 
L 709.142762 239.515357 
L 715.838762 242.685336 
L 722.534762 246.154975 
L 729.230762 250.109048 
L 735.926762 255.127119 
" style="fill:none;stroke:#ffa500;stroke-linecap:round;stroke-width:1.75;"/>
   </g>
   <g id="patch_3">
    <path d="M 73.022762 36.532292 
L 742.622762 36.532292 
" style="fill:none;"/>
   </g>
   <g id="patch_4">
    <path d="M 742.622762 259.732292 
L 742.622762 36.532292 
" style="fill:none;"/>
   </g>
   <g id="patch_5">
    <path d="M 73.022762 259.732292 
L 742.622762 259.732292 
" style="fill:none;"/>
   </g>
   <g id="patch_6">
    <path d="M 73.022762 259.732292 
L 73.022762 36.532292 
" style="fill:none;"/>
   </g>
   <g id="text_18">
    <!-- Sorted GUE eigenvalues vs CDF$^{-1}$ (N=100) -->
    <defs>
     <path d="M 25.203125 74.5 
C 19.796875 69.015625 7.40625 56.265625 7.40625 24.8125 
C 7.40625 -6.765625 19.796875 -19.421875 25.203125 -25 
L 31.296875 -25 
C 19 -12.25 15 5.578125 15 24.6875 
C 15 43.71875 18.796875 61.65625 31.296875 74.5 
z
" id="CMSS17-40"/>
     <path d="M 11.296875 -25 
C 16.703125 -19.515625 29.09375 -6.765625 29.09375 24.6875 
C 29.09375 56.265625 16.703125 68.921875 11.296875 74.5 
L 5.203125 74.5 
C 17.5 61.75 21.5 43.921875 21.5 24.8125 
C 21.5 5.78125 17.703125 -12.15625 5.203125 -25 
z
" id="CMSS17-41"/>
     <path d="M 43.09375 31.9375 
C 43.09375 37.578125 43 48.078125 38.90625 56.1875 
C 34.796875 64 28.203125 66.078125 23.5 66.078125 
C 16.703125 66.078125 10.90625 62.125 7.90625 55.78125 
C 4.703125 49.15625 3.796875 42.328125 3.796875 31.9375 
C 3.796875 24.828125 4.09375 16.109375 7.703125 8.484375 
C 11.796875 0.078125 18.703125 -2 23.40625 -2 
C 29.59375 -2 35.59375 1.265625 39 8.09375 
C 42.5 15.21875 43.09375 23.03125 43.09375 31.9375 
M 23.40625 4.078125 
C 15.796875 4.078125 13.5 12.671875 12.796875 15.546875 
C 11.59375 20.46875 11.40625 25.21875 11.40625 33.03125 
C 11.40625 39.15625 11.40625 46.0625 13.296875 51.515625 
C 15.59375 57.828125 19.59375 60 23.40625 60 
C 30.796875 60 33.203125 52.6875 34 50.125 
C 35.5 44.890625 35.5 38.765625 35.5 33.03125 
C 35.5 23.84375 35.5 4.078125 23.40625 4.078125 
" id="CMSS17-48"/>
     <path d="M 28.40625 67 
L 26.5 67 
C 21.09375 61.5625 14.796875 60.78125 8.40625 60.78125 
L 8.40625 55 
C 11.296875 55 16 55 20.703125 57.296875 
L 20.703125 5.765625 
L 8.90625 5.765625 
L 8.90625 0 
L 40.203125 0 
L 40.203125 5.765625 
L 28.40625 5.765625 
z
" id="CMSS17-49"/>
     <path d="M 55.5 68.5 
L 47.90625 68.5 
L 47.90625 22.640625 
C 47.90625 9.4375 39.796875 3.578125 32.40625 3.578125 
C 24.796875 3.578125 17.203125 9.734375 17.203125 22.546875 
L 17.203125 68.5 
L 8.796875 68.5 
L 8.796875 22.71875 
C 8.796875 8.421875 19.90625 -2 32.296875 -2 
C 44.703125 -2 55.5 8.421875 55.5 22.71875 
z
" id="CMSS17-85"/>
     <path d="M 43.703125 65.140625 
C 39.296875 67.71875 34.5 70 26.40625 70 
C 13.5 70 5.203125 60.609375 5.203125 51.03125 
C 5.203125 47.265625 6.296875 43.015625 10.203125 38.671875 
C 14.09375 34.3125 18.5 33.140625 24.09375 31.765625 
C 26.40625 31.15625 30.296875 30.0625 31 29.78125 
C 36.59375 27.609375 39.296875 22.5625 39.296875 17.8125 
C 39.296875 11.59375 34.40625 4.96875 25.703125 4.96875 
C 22.703125 4.96875 13.90625 4.96875 5.59375 12.796875 
L 4.203125 4.96875 
C 12.40625 -1 21.296875 -2 25.796875 -2 
C 38.09375 -2 46.90625 7.625 46.90625 18.53125 
C 46.90625 22.5 45.703125 27.546875 41.5 32.203125 
C 37.40625 36.671875 33.796875 37.65625 25.59375 39.828125 
C 20.90625 41.03125 17.90625 41.828125 15.40625 44.890625 
C 13.703125 47.078125 12.796875 49.15625 12.796875 51.828125 
C 12.796875 57.390625 17.59375 63.4375 26.40625 63.4375 
C 30.796875 63.4375 36.5 62.53125 42.296875 57.1875 
z
" id="CMSS17-83"/>
     <path d="M 15.296875 65.359375 
L 6.90625 65.359375 
L 6.90625 57 
L 15.296875 57 
z
M 14.796875 42.796875 
L 7.40625 42.796875 
L 7.40625 0 
L 14.796875 0 
z
" id="CMSS17-105"/>
     <path d="M 44.5 43.875 
C 38.796875 43.875 33.90625 42.78125 29.90625 40.890625 
C 26.59375 43.390625 23.203125 43.875 20.90625 43.875 
C 12.203125 43.875 5.59375 36.703125 5.59375 28.34375 
C 5.59375 22.9375 8.59375 18.859375 8.796875 18.671875 
C 7 16.171875 6 13.484375 6 10.5 
C 6 7 7.40625 4.515625 8.5 3.125 
C 3.296875 -0.046875 2.59375 -4.90625 2.59375 -6.796875 
C 2.59375 -14.03125 11.703125 -20 23.40625 -20 
C 35.203125 -20 44.296875 -14.03125 44.296875 -6.6875 
C 44.296875 7 29 7 24.796875 7 
L 16.703125 7 
C 15.203125 7 11.203125 7 11.203125 12.359375 
C 11.203125 14.390625 12.09375 15.6875 12.203125 15.78125 
C 13.703125 14.6875 16.796875 13 20.90625 13 
C 29.203125 13 36.09375 19.96875 36.09375 28.546875 
C 36.09375 33.3125 33.90625 36.796875 33 38 
L 33.296875 38 
C 33.59375 38 37.796875 38 39.296875 38 
C 42.5 38 42.796875 37.9375 45.59375 37.796875 
z
M 20.90625 18.46875 
C 17.5 18.46875 12.703125 20.546875 12.703125 28.484375 
C 12.703125 37.109375 18.203125 38.5 20.796875 38.5 
C 24.203125 38.5 29 36.421875 29 28.484375 
C 29 19.859375 23.5 18.46875 20.90625 18.46875 
M 24.703125 -0.15625 
C 27.09375 -0.15625 37.203125 -0.15625 37.203125 -6.90625 
C 37.203125 -11.15625 31 -14.515625 23.5 -14.515625 
C 15.90625 -14.515625 9.703125 -11.25 9.703125 -6.796875 
C 9.703125 -6.296875 9.703125 -0.15625 16.59375 -0.15625 
z
" id="CMSS17-103"/>
     <path d="M 14.796875 69 
L 7.40625 69 
L 7.40625 0 
L 14.796875 0 
z
" id="CMSS17-108"/>
     <path d="M 56.40625 29 
L 36.5 29 
L 36.5 22.828125 
L 48.796875 22.828125 
L 48.796875 7.359375 
C 44.90625 6.265625 40.90625 5.46875 36.90625 5.46875 
C 22.90625 5.46875 14.59375 20.328125 14.59375 34.375 
C 14.59375 48.359375 23.296875 63 36.90625 63 
C 44.59375 63 48.90625 60.640625 54.203125 56.671875 
L 55.5 64.59375 
C 48.90625 67.984375 44.796875 69.375 37.296875 69.375 
C 17.90625 69.375 6.203125 51.9375 6.203125 34.09375 
C 6.203125 17.03125 18 -1 36.703125 -1 
C 43.703125 -1 50.203125 0.796875 56.40625 3.875 
z
" id="CMSS17-71"/>
     <path d="M 45.59375 31 
L 45.59375 37.078125 
L 17.203125 37.078125 
L 17.203125 62 
L 29.40625 62 
C 30.59375 62 31.796875 62 33 62 
L 49.5 62 
L 49.5 68.359375 
L 8.796875 68.359375 
L 8.796875 -0.5 
L 17.203125 -0.5 
L 17.203125 31 
z
" id="CMSS17-70"/>
     <path d="M 22.90625 65.3125 
L 21.09375 69 
L 8.796875 69 
L 8.796875 0 
L 16.59375 0 
L 16.59375 61.34375 
L 16.703125 61.4375 
C 17.40625 59.640625 17.796875 58.75 21.90625 49.90625 
L 43.296875 3.6875 
L 45.09375 0 
L 57.40625 0 
L 57.40625 69 
L 49.59375 69 
L 49.59375 7.65625 
L 49.5 7.546875 
C 48.796875 9.34375 48.40625 10.234375 44.296875 19.078125 
z
" id="CMSS17-78"/>
     <path d="M 37.59375 27.984375 
C 37.59375 37.375 30.90625 43.875 21.90625 43.875 
C 17.5 43.875 12.703125 43.078125 7.203125 39.890625 
L 7.796875 33.359375 
C 10.296875 35.125 14.59375 38 21.796875 38 
C 26.90625 38 30 34.0625 30 27.84375 
L 30 24 
C 14 24 4 19.34375 4 11.34375 
C 4 7.203125 6.5 -1 14.796875 -1 
C 16.296875 -1 24.40625 -1 30.203125 3.390625 
L 30.203125 -0.296875 
L 37.59375 -0.296875 
z
M 30 12.75 
C 30 10.953125 30 8.5625 27 6.78125 
C 24.40625 5.078125 21.09375 5.078125 19.703125 5.078125 
C 14.703125 5.078125 11.296875 7.984375 11.296875 11.625 
C 11.296875 18.921875 26.90625 18.921875 30 18.921875 
z
" id="CMSS17-97"/>
     <path d="M 32.203125 41.046875 
C 26.296875 43.859375 21.703125 43.859375 18.703125 43.859375 
C 11.59375 43.859375 3.09375 41.375 3.09375 31.296875 
C 3.09375 21.234375 14.09375 19.03125 17.09375 18.421875 
C 21.703125 17.53125 26.796875 16.53125 26.796875 11.5625 
C 26.796875 5.265625 19.59375 5.265625 18.296875 5.265625 
C 14.296875 5.265625 8.796875 6.359375 3.796875 9.96875 
L 2.59375 3.28125 
C 8.296875 0 13.796875 -1 18.40625 -1 
C 30.703125 -1 33.796875 6.5 33.796875 12.203125 
C 33.796875 17.09375 31 20.390625 29.09375 21.890625 
C 25.796875 24.5 24.59375 24.796875 16.40625 26.5 
C 15 26.703125 10.09375 27.796875 10.09375 32.28125 
C 10.09375 38 16.40625 38 17.796875 38 
C 24.296875 38 28.296875 35.984375 31 34.5 
z
" id="CMSS17-115"/>
     <path d="M 14.90625 21.296875 
C 14.90625 30.703125 21.796875 37 30.59375 37 
L 30.59375 43.578125 
C 24.203125 43.578125 18.203125 40.390625 14.59375 35.203125 
L 14.59375 43.09375 
L 7.5 43.09375 
L 7.5 0 
L 14.90625 0 
z
" id="CMSS17-114"/>
     <path d="M 40.90625 42.796875 
L 33.296875 42.796875 
L 33.296875 15.1875 
C 33.296875 7.78125 27.90625 4.78125 22.203125 4.78125 
C 15.59375 4.78125 15 6.984375 15 11.078125 
L 15 42.796875 
L 7.40625 42.796875 
L 7.40625 10.59375 
C 7.40625 2.796875 10.09375 -1 17 -1 
C 20.40625 -1 28.09375 -0.203125 33.5 4.78125 
L 33.5 0 
L 40.90625 0 
z
" id="CMSS17-117"/>
     <path d="M 16.703125 37 
L 29.703125 37 
L 29.703125 42.765625 
L 16.703125 42.765625 
L 16.703125 55 
L 9.59375 55 
L 9.59375 42.765625 
L 1.703125 42.765625 
L 1.703125 37 
L 9.40625 37 
L 9.40625 11.703125 
C 9.40625 6 10.703125 -1 17.296875 -1 
C 22.296875 -1 26.90625 0.390625 31.296875 2.6875 
L 29.703125 8.5625 
C 27.296875 6.46875 24.40625 5.265625 21.296875 5.265625 
C 16.90625 5.265625 16.703125 10.875 16.703125 13.375 
z
" id="CMSS17-116"/>
     <path d="M 44.203125 21.1875 
C 44.203125 34 34.703125 44 23.5 44 
C 12 44 2.703125 33.703125 2.703125 21.1875 
C 2.703125 8.5 12.296875 -1 23.40625 -1 
C 34.796875 -1 44.203125 8.796875 44.203125 21.1875 
M 23.5 5.265625 
C 16.40625 5.265625 10.296875 11.078125 10.296875 22 
C 10.296875 33.609375 17.40625 37.921875 23.40625 37.921875 
C 29.90625 37.921875 36.59375 33.21875 36.59375 22 
C 36.59375 10.671875 30.09375 5.265625 23.5 5.265625 
" id="CMSS17-111"/>
     <path d="M 41.796875 43 
L 34 43 
L 27.296875 24.3125 
C 25.203125 18.203125 22.203125 9.796875 21.703125 5.5 
L 21.59375 5.5 
C 21.40625 7.3125 20.59375 9.90625 20.09375 11.703125 
C 19.5 13.90625 18.703125 16.5 18.09375 18.3125 
L 9.296875 43 
L 1.296875 43 
L 17.09375 0 
L 26 0 
z
" id="CMSS17-118"/>
     <path d="M 8.90625 69 
L 8.90625 0 
L 33.5 0 
C 49.90625 0 62.5 15.3125 62.5 33.90625 
C 62.5 53.09375 49.90625 69 33.5 69 
z
M 17.09375 5.578125 
L 17.09375 63.421875 
L 31.296875 63.421875 
C 44.703125 63.421875 54.296875 51.203125 54.296875 33.90625 
C 54.296875 17.296875 44.796875 5.578125 31.296875 5.578125 
z
" id="CMSS17-68"/>
     <path d="M 30.59375 6.765625 
C 22.59375 6.765625 19 6.765625 17.203125 6.765625 
L 17.203125 32.921875 
L 48.203125 32.921875 
L 48.203125 39 
L 17.203125 39 
L 17.203125 62.640625 
L 30.09375 62.640625 
C 31.296875 62.640625 32.5 62.640625 33.703125 62.640625 
L 50.796875 62.640625 
L 50.796875 69 
L 8.796875 69 
L 8.796875 0 
L 52.09375 0 
L 52.09375 6.765625 
z
" id="CMSS17-69"/>
     <path d="M 64.796875 31.515625 
C 66.296875 31.515625 67.796875 31.515625 67.796875 33.203125 
C 67.796875 35 66.09375 35 64.40625 35 
L 8.59375 35 
C 6.90625 35 5.203125 35 5.203125 33.203125 
C 5.203125 31.515625 6.703125 31.515625 8.203125 31.515625 
z
M 64.40625 14 
C 66.09375 14 67.796875 14 67.796875 15.796875 
C 67.796875 17.484375 66.296875 17.484375 64.796875 17.484375 
L 8.203125 17.484375 
C 6.703125 17.484375 5.203125 17.484375 5.203125 15.796875 
C 5.203125 14 6.90625 14 8.59375 14 
z
" id="CMSS17-61"/>
     <path d="M 54.703125 11.15625 
C 48 6.671875 44.90625 5.375 36.796875 5.375 
C 22.796875 5.375 14.59375 20.359375 14.59375 34.046875 
C 14.59375 48.625 23 63 37.203125 63 
C 43.59375 63 47.796875 61.21875 52.90625 58.046875 
L 54.296875 65.890625 
C 49.5 68.28125 43.40625 69.375 37.296875 69.375 
C 18.09375 69.375 6.203125 51.8125 6.203125 34.046875 
C 6.203125 14.484375 20.296875 -1 36.296875 -1 
C 44.90625 -1 47.90625 -0.296875 55.296875 4.375 
z
" id="CMSS17-67"/>
    </defs>
    <g style="fill:#262626;" transform="translate(148.819110951 31.5322921126)scale(0.3 -0.3)">
     <use transform="scale(0.996264009963)" xlink:href="#CMSS17-83"/>
     <use transform="translate(52.0485161844 0.0)scale(0.996264009963)" xlink:href="#CMSS17-111"/>
     <use transform="translate(96.2896857731 0.0)scale(0.996264009963)" xlink:href="#CMSS17-114"/>
     <use transform="translate(128.19945833 0.0)scale(0.996264009963)" xlink:href="#CMSS17-116"/>
     <use transform="translate(162.031025014 0.0)scale(0.996264009963)" xlink:href="#CMSS17-101"/>
     <use transform="translate(203.669847082 0.0)scale(0.996264009963)" xlink:href="#CMSS17-100"/>
     <use transform="translate(283.103902966 0.0)scale(0.996264009963)" xlink:href="#CMSS17-71"/>
     <use transform="translate(345.562128468 0.0)scale(0.996264009963)" xlink:href="#CMSS17-85"/>
     <use transform="translate(409.701868725 0.0)scale(0.996264009963)" xlink:href="#CMSS17-69"/>
     <use transform="translate(496.822994702 0.0)scale(0.996264009963)" xlink:href="#CMSS17-101"/>
     <use transform="translate(538.461816771 0.0)scale(0.996264009963)" xlink:href="#CMSS17-105"/>
     <use transform="translate(560.642539817 0.0)scale(0.996264009963)" xlink:href="#CMSS17-103"/>
     <use transform="translate(607.486163338 0.0)scale(0.996264009963)" xlink:href="#CMSS17-101"/>
     <use transform="translate(649.124985406 0.0)scale(0.996264009963)" xlink:href="#CMSS17-110"/>
     <use transform="translate(697.329928539 0.0)scale(0.996264009963)" xlink:href="#CMSS17-118"/>
     <use transform="translate(740.33007022 0.0)scale(0.996264009963)" xlink:href="#CMSS17-97"/>
     <use transform="translate(785.251990825 0.0)scale(0.996264009963)" xlink:href="#CMSS17-108"/>
     <use transform="translate(807.432713871 0.0)scale(0.996264009963)" xlink:href="#CMSS17-117"/>
     <use transform="translate(855.637657004 0.0)scale(0.996264009963)" xlink:href="#CMSS17-101"/>
     <use transform="translate(897.276479073 0.0)scale(0.996264009963)" xlink:href="#CMSS17-115"/>
     <use transform="translate(964.419133815 0.0)scale(0.996264009963)" xlink:href="#CMSS17-118"/>
     <use transform="translate(1007.4192755 0.0)scale(0.996264009963)" xlink:href="#CMSS17-115"/>
     <use transform="translate(1074.56193024 0.0)scale(0.996264009963)" xlink:href="#CMSS17-67"/>
     <use transform="translate(1134.41770181 0.0)scale(0.996264009963)" xlink:href="#CMSS17-68"/>
     <use transform="translate(1201.96054347 0.0)scale(0.996264009963)" xlink:href="#CMSS17-70"/>
     <use transform="translate(1255.25010276 36.1536389419)scale(0.697381766617)" xlink:href="#CMSY10-0"/>
     <use transform="translate(1309.49109601 36.1536389419)scale(0.697381766617)" xlink:href="#CMR17-49"/>
     <use transform="translate(1373.20152273 0.0)scale(0.996264009963)" xlink:href="#CMSS17-40"/>
     <use transform="translate(1409.63543694 0.0)scale(0.996264009963)" xlink:href="#CMSS17-78"/>
     <use transform="translate(1475.69695612 0.0)scale(0.996264009963)" xlink:href="#CMSS17-61"/>
     <use transform="translate(1548.56489094 0.0)scale(0.996264009963)" xlink:href="#CMSS17-49"/>
     <use transform="translate(1595.40851446 0.0)scale(0.996264009963)" xlink:href="#CMSS17-48"/>
     <use transform="translate(1642.25213798 0.0)scale(0.996264009963)" xlink:href="#CMSS17-48"/>
     <use transform="translate(1689.0957615 0.0)scale(0.996264009963)" xlink:href="#CMSS17-41"/>
    </g>
   </g>
   <g id="legend_1">
    <g id="patch_7">
     <path d="M 480.849748 132.878334 
L 725.122762 132.878334 
Q 730.122762 132.878334 730.122762 127.878334 
L 730.122762 54.032292 
Q 730.122762 49.032292 725.122762 49.032292 
L 480.849748 49.032292 
Q 475.849748 49.032292 475.849748 54.032292 
L 475.849748 127.878334 
Q 475.849748 132.878334 480.849748 132.878334 
z
" style="fill:#eaeaf2;stroke:#ffffff;stroke-linejoin:miter;stroke-width:0.3;"/>
    </g>
    <g id="line2d_48"/>
    <g id="line2d_49">
     <g>
      <use style="fill:#0000ff;" x="510.849747529" xlink:href="#m04c2b1c526" y="68.9398196704"/>
     </g>
    </g>
    <g id="text_19">
     <!-- Data (Numerics) -->
     <defs>
      <path d="M 38.5 39.703125 
C 38.5 40.390625 33.90625 42.40625 32.703125 42.796875 
C 29.40625 44 25.203125 44 24.09375 44 
C 11.09375 44 3.296875 32.703125 3.296875 21.296875 
C 3.296875 9.296875 12 -1 23.703125 -1 
C 30.40625 -1 35.203125 1.1875 39.09375 3.78125 
L 38.5 10.375 
C 34.203125 7.078125 29.203125 5.265625 23.796875 5.265625 
C 16 5.265625 10.90625 12.09375 10.90625 21.390625 
C 10.90625 28.609375 14.203125 37.71875 24.203125 37.71875 
C 29.703125 37.71875 32.796875 36.609375 37.40625 33.515625 
z
" id="CMSS17-99"/>
      <path d="M 67 29.328125 
C 67 36.0625 65.296875 44 54.09375 44 
C 46.59375 44 42.09375 39.3125 40.09375 36.421875 
C 38.296875 41.71875 34.09375 44 28.09375 44 
C 21.296875 44 17 40.125 14.703125 37.328125 
L 14.703125 43.09375 
L 7.40625 43.09375 
L 7.40625 0 
L 15 0 
L 15 24.359375 
C 15 30.296875 17.203125 37.9375 24.296875 37.9375 
C 33.40625 37.9375 33.40625 31.5 33.40625 28.578125 
L 33.40625 0 
L 41 0 
L 41 24.359375 
C 41 30.296875 43.203125 37.9375 50.296875 37.9375 
C 59.40625 37.9375 59.40625 31.5 59.40625 28.578125 
L 59.40625 0 
L 67 0 
z
" id="CMSS17-109"/>
     </defs>
     <g style="fill:#262626;" transform="translate(555.849747529 77.6898196704)scale(0.25 -0.25)">
      <use transform="scale(0.996264009963)" xlink:href="#CMSS17-68"/>
      <use transform="translate(67.5428416631 0.0)scale(0.996264009963)" xlink:href="#CMSS17-97"/>
      <use transform="translate(112.464762268 0.0)scale(0.996264009963)" xlink:href="#CMSS17-116"/>
      <use transform="translate(146.296328952 0.0)scale(0.996264009963)" xlink:href="#CMSS17-97"/>
      <use transform="translate(222.447362308 0.0)scale(0.996264009963)" xlink:href="#CMSS17-40"/>
      <use transform="translate(258.881276512 0.0)scale(0.996264009963)" xlink:href="#CMSS17-78"/>
      <use transform="translate(324.942795693 0.0)scale(0.996264009963)" xlink:href="#CMSS17-117"/>
      <use transform="translate(373.147738826 0.0)scale(0.996264009963)" xlink:href="#CMSS17-109"/>
      <use transform="translate(447.376993258 0.0)scale(0.996264009963)" xlink:href="#CMSS17-101"/>
      <use transform="translate(489.015815326 0.0)scale(0.996264009963)" xlink:href="#CMSS17-114"/>
      <use transform="translate(520.925587883 0.0)scale(0.996264009963)" xlink:href="#CMSS17-105"/>
      <use transform="translate(543.106310929 0.0)scale(0.996264009963)" xlink:href="#CMSS17-99"/>
      <use transform="translate(584.745132997 0.0)scale(0.996264009963)" xlink:href="#CMSS17-115"/>
      <use transform="translate(620.658674988 0.0)scale(0.996264009963)" xlink:href="#CMSS17-41"/>
     </g>
    </g>
    <g id="line2d_50">
     <path d="M 485.849748 107.922526 
L 535.849748 107.922526 
" style="fill:none;stroke:#ffa500;stroke-linecap:round;stroke-width:1.75;"/>
    </g>
    <g id="line2d_51"/>
    <g id="text_20">
     <!-- Theory (CDF$^{-1})$ -->
     <defs>
      <path d="M 26.296875 24.6875 
C 26.296875 31.875 25.59375 44.015625 19.59375 56.859375 
C 14.796875 67.234375 6.59375 74.5 5.40625 74.5 
C 5.09375 74.5 4.703125 74.390625 4.703125 73.890625 
C 4.703125 73.703125 4.796875 73.59375 4.90625 73.390625 
C 9.703125 68.40625 21.90625 55.75 21.90625 24.75 
C 21.90625 -6.359375 9.796875 -19.015625 4.90625 -24.015625 
C 4.796875 -24.203125 4.703125 -24.3125 4.703125 -24.5 
C 4.703125 -25 5.09375 -25 5.40625 -25 
C 6.5 -25 15 -17.625 19.90625 -6.65625 
C 24.90625 4.390625 26.296875 15.140625 26.296875 24.6875 
" id="CMR17-41"/>
      <path d="M 41.796875 43 
L 34 43 
C 25.5 20.21875 22.59375 10.96875 22.40625 5.984375 
L 22.296875 5.984375 
C 22 10.875 17.59375 22.8125 14.09375 31.359375 
L 9.40625 43 
L 1.296875 43 
L 19 0.203125 
C 17.90625 -2.78125 16.296875 -7.265625 15.796875 -8.265625 
C 13.59375 -13.828125 12.09375 -13.828125 10.5 -13.828125 
C 10.09375 -13.828125 6.90625 -13.828125 3.296875 -12.640625 
L 3.90625 -19.203125 
C 6.40625 -19.703125 8.90625 -20 10.703125 -20 
C 13.203125 -20 18.203125 -20 22.796875 -7.765625 
z
" id="CMSS17-121"/>
      <path d="M 36.203125 62 
L 44.5 62 
C 45.703125 62 46.90625 62 48.09375 62 
L 60.59375 62 
L 60.59375 68.375 
L 3.40625 68.375 
L 3.40625 62 
L 15.90625 62 
C 17.09375 62 18.296875 62 19.5 62 
L 27.796875 62 
L 27.796875 -0.5 
L 36.203125 -0.5 
z
" id="CMSS17-84"/>
      <path d="M 40.90625 29.546875 
C 40.90625 35.8125 39.40625 44.0625 28.09375 44.0625 
C 21.796875 44.0625 17.703125 40.984375 14.796875 37.609375 
L 14.796875 69.5 
L 7.40625 69.5 
L 7.40625 0.5 
L 15 0.5 
L 15 24.578125 
C 15 30.828125 17.40625 38 24.203125 38 
C 33 38 33.296875 32.125 33.296875 28.734375 
L 33.296875 0.5 
L 40.90625 0.5 
z
" id="CMSS17-104"/>
     </defs>
     <g style="fill:#262626;" transform="translate(555.849747529 116.672525515)scale(0.25 -0.25)">
      <use transform="scale(0.996264009963)" xlink:href="#CMSS17-84"/>
      <use transform="translate(63.8194539033 0.0)scale(0.996264009963)" xlink:href="#CMSS17-104"/>
      <use transform="translate(112.024397037 0.0)scale(0.996264009963)" xlink:href="#CMSS17-101"/>
      <use transform="translate(153.663219105 0.0)scale(0.996264009963)" xlink:href="#CMSS17-111"/>
      <use transform="translate(197.904388694 0.0)scale(0.996264009963)" xlink:href="#CMSS17-114"/>
      <use transform="translate(229.814161251 0.0)scale(0.996264009963)" xlink:href="#CMSS17-121"/>
      <use transform="translate(304.043415682 0.0)scale(0.996264009963)" xlink:href="#CMSS17-40"/>
      <use transform="translate(340.477329886 0.0)scale(0.996264009963)" xlink:href="#CMSS17-67"/>
      <use transform="translate(400.333101455 0.0)scale(0.996264009963)" xlink:href="#CMSS17-68"/>
      <use transform="translate(467.875943119 0.0)scale(0.996264009963)" xlink:href="#CMSS17-70"/>
      <use transform="translate(521.165502413 36.1536389419)scale(0.697381766617)" xlink:href="#CMSY10-0"/>
      <use transform="translate(575.406495661 36.1536389419)scale(0.697381766617)" xlink:href="#CMR17-49"/>
      <use transform="translate(607.88780963 0.0)scale(0.996264009963)" xlink:href="#CMR17-41"/>
     </g>
    </g>
   </g>
  </g>
  <g id="axes_2">
   <g id="patch_8">
    <path d="M 73.022762 594.532292 
L 742.622762 594.532292 
L 742.622762 371.332292 
L 73.022762 371.332292 
z
" style="fill:#eaeaf2;"/>
   </g>
   <g id="matplotlib.axis_3">
    <g id="xtick_7">
     <g id="line2d_52">
      <path clip-path="url(#p96ee62f277)" d="M 73.022762 594.532292 
L 73.022762 371.332292 
" style="fill:none;stroke:#ffffff;stroke-linecap:round;"/>
     </g>
     <g id="line2d_53">
      <g>
       <use style="fill:#262626;stroke:#262626;" x="73.0227618112" xlink:href="#mf1689f23e8" y="594.532292113"/>
      </g>
     </g>
     <g id="line2d_54">
      <g>
       <use style="fill:#262626;stroke:#262626;" x="73.0227618112" xlink:href="#mf1689f23e8" y="371.332292113"/>
      </g>
     </g>
     <g id="text_21">
      <!-- $0$ -->
      <g style="fill:#262626;" transform="translate(67.3114521715 618.828545664)scale(0.25 -0.25)">
       <use transform="scale(0.996264009963)" xlink:href="#CMR17-48"/>
      </g>
     </g>
    </g>
    <g id="xtick_8">
     <g id="line2d_55">
      <path clip-path="url(#p96ee62f277)" d="M 147.422762 594.532292 
L 147.422762 371.332292 
" style="fill:none;stroke:#ffffff;stroke-linecap:round;"/>
     </g>
     <g id="line2d_56">
      <g>
       <use style="fill:#262626;stroke:#262626;" x="147.422761811" xlink:href="#mf1689f23e8" y="594.532292113"/>
      </g>
     </g>
     <g id="line2d_57">
      <g>
       <use style="fill:#262626;stroke:#262626;" x="147.422761811" xlink:href="#mf1689f23e8" y="371.332292113"/>
      </g>
     </g>
     <g id="text_22">
      <!-- $1$ -->
      <g style="fill:#262626;" transform="translate(141.711452172 618.828545664)scale(0.25 -0.25)">
       <use transform="scale(0.996264009963)" xlink:href="#CMR17-49"/>
      </g>
     </g>
    </g>
    <g id="xtick_9">
     <g id="line2d_58">
      <path clip-path="url(#p96ee62f277)" d="M 221.822762 594.532292 
L 221.822762 371.332292 
" style="fill:none;stroke:#ffffff;stroke-linecap:round;"/>
     </g>
     <g id="line2d_59">
      <g>
       <use style="fill:#262626;stroke:#262626;" x="221.822761811" xlink:href="#mf1689f23e8" y="594.532292113"/>
      </g>
     </g>
     <g id="line2d_60">
      <g>
       <use style="fill:#262626;stroke:#262626;" x="221.822761811" xlink:href="#mf1689f23e8" y="371.332292113"/>
      </g>
     </g>
     <g id="text_23">
      <!-- $2$ -->
      <g style="fill:#262626;" transform="translate(216.111452172 618.828545664)scale(0.25 -0.25)">
       <use transform="scale(0.996264009963)" xlink:href="#CMR17-50"/>
      </g>
     </g>
    </g>
    <g id="xtick_10">
     <g id="line2d_61">
      <path clip-path="url(#p96ee62f277)" d="M 296.222762 594.532292 
L 296.222762 371.332292 
" style="fill:none;stroke:#ffffff;stroke-linecap:round;"/>
     </g>
     <g id="line2d_62">
      <g>
       <use style="fill:#262626;stroke:#262626;" x="296.222761811" xlink:href="#mf1689f23e8" y="594.532292113"/>
      </g>
     </g>
     <g id="line2d_63">
      <g>
       <use style="fill:#262626;stroke:#262626;" x="296.222761811" xlink:href="#mf1689f23e8" y="371.332292113"/>
      </g>
     </g>
     <g id="text_24">
      <!-- $3$ -->
      <defs>
       <path d="M 22.09375 33.703125 
C 31 33.703125 34.90625 25.96875 34.90625 17.03125 
C 34.90625 5 28.5 0.390625 22.703125 0.390625 
C 17.40625 0.390625 8.796875 3.03125 6.09375 10.828125 
C 6.59375 10.625 7.09375 10.625 7.59375 10.625 
C 10 10.625 11.796875 12.21875 11.796875 14.8125 
C 11.796875 17.703125 9.59375 19 7.59375 19 
C 5.90625 19 3.296875 18.203125 3.296875 14.46875 
C 3.296875 5.234375 12.296875 -2 22.90625 -2 
C 34 -2 42.5 6.71875 42.5 16.953125 
C 42.5 26.671875 34.5 33.6875 25 34.796875 
C 32.59375 36.375 39.90625 43.0625 39.90625 52.015625 
C 39.90625 59.6875 32 65.296875 23 65.296875 
C 13.90625 65.296875 5.90625 59.828125 5.90625 52.015625 
C 5.90625 48.59375 8.5 48 9.796875 48 
C 11.90625 48 13.703125 49.296875 13.703125 51.890625 
C 13.703125 54.46875 11.90625 55.765625 9.796875 55.765625 
C 9.40625 55.765625 8.90625 55.765625 8.5 55.578125 
C 11.40625 61.859375 19.296875 63 22.796875 63 
C 26.296875 63 32.90625 61.328125 32.90625 51.875 
C 32.90625 49.109375 32.5 44.1875 29.09375 39.84375 
C 26.09375 36 22.703125 36 19.40625 35.6875 
C 18.90625 35.6875 16.59375 35.453125 16.203125 35.453125 
C 15.5 35.359375 15.09375 35.265625 15.09375 34.5 
C 15.09375 33.796875 15.203125 33.703125 17.203125 33.703125 
z
" id="CMR17-51"/>
      </defs>
      <g style="fill:#262626;" transform="translate(290.511452172 618.828545664)scale(0.25 -0.25)">
       <use transform="scale(0.996264009963)" xlink:href="#CMR17-51"/>
      </g>
     </g>
    </g>
    <g id="xtick_11">
     <g id="line2d_64">
      <path clip-path="url(#p96ee62f277)" d="M 370.622762 594.532292 
L 370.622762 371.332292 
" style="fill:none;stroke:#ffffff;stroke-linecap:round;"/>
     </g>
     <g id="line2d_65">
      <g>
       <use style="fill:#262626;stroke:#262626;" x="370.622761811" xlink:href="#mf1689f23e8" y="594.532292113"/>
      </g>
     </g>
     <g id="line2d_66">
      <g>
       <use style="fill:#262626;stroke:#262626;" x="370.622761811" xlink:href="#mf1689f23e8" y="371.332292113"/>
      </g>
     </g>
     <g id="text_25">
      <!-- $4$ -->
      <g style="fill:#262626;" transform="translate(364.911452172 618.828545664)scale(0.25 -0.25)">
       <use transform="scale(0.996264009963)" xlink:href="#CMR17-52"/>
      </g>
     </g>
    </g>
    <g id="xtick_12">
     <g id="line2d_67">
      <path clip-path="url(#p96ee62f277)" d="M 445.022762 594.532292 
L 445.022762 371.332292 
" style="fill:none;stroke:#ffffff;stroke-linecap:round;"/>
     </g>
     <g id="line2d_68">
      <g>
       <use style="fill:#262626;stroke:#262626;" x="445.022761811" xlink:href="#mf1689f23e8" y="594.532292113"/>
      </g>
     </g>
     <g id="line2d_69">
      <g>
       <use style="fill:#262626;stroke:#262626;" x="445.022761811" xlink:href="#mf1689f23e8" y="371.332292113"/>
      </g>
     </g>
     <g id="text_26">
      <!-- $5$ -->
      <g style="fill:#262626;" transform="translate(439.311452172 618.828545664)scale(0.25 -0.25)">
       <use transform="scale(0.996264009963)" xlink:href="#CMR17-53"/>
      </g>
     </g>
    </g>
    <g id="xtick_13">
     <g id="line2d_70">
      <path clip-path="url(#p96ee62f277)" d="M 519.422762 594.532292 
L 519.422762 371.332292 
" style="fill:none;stroke:#ffffff;stroke-linecap:round;"/>
     </g>
     <g id="line2d_71">
      <g>
       <use style="fill:#262626;stroke:#262626;" x="519.422761811" xlink:href="#mf1689f23e8" y="594.532292113"/>
      </g>
     </g>
     <g id="line2d_72">
      <g>
       <use style="fill:#262626;stroke:#262626;" x="519.422761811" xlink:href="#mf1689f23e8" y="371.332292113"/>
      </g>
     </g>
     <g id="text_27">
      <!-- $6$ -->
      <g style="fill:#262626;" transform="translate(513.711452172 618.828545664)scale(0.25 -0.25)">
       <use transform="scale(0.996264009963)" xlink:href="#CMR17-54"/>
      </g>
     </g>
    </g>
    <g id="xtick_14">
     <g id="line2d_73">
      <path clip-path="url(#p96ee62f277)" d="M 593.822762 594.532292 
L 593.822762 371.332292 
" style="fill:none;stroke:#ffffff;stroke-linecap:round;"/>
     </g>
     <g id="line2d_74">
      <g>
       <use style="fill:#262626;stroke:#262626;" x="593.822761811" xlink:href="#mf1689f23e8" y="594.532292113"/>
      </g>
     </g>
     <g id="line2d_75">
      <g>
       <use style="fill:#262626;stroke:#262626;" x="593.822761811" xlink:href="#mf1689f23e8" y="371.332292113"/>
      </g>
     </g>
     <g id="text_28">
      <!-- $7$ -->
      <defs>
       <path d="M 45.09375 61.578125 
L 45.09375 63.765625 
L 21.59375 63.765625 
C 9.90625 63.765625 9.703125 65.078125 9.296875 67 
L 7.5 67 
L 4.59375 48.34375 
L 6.40625 48.34375 
C 6.703125 50.234375 7.40625 55.3125 8.59375 57.203125 
C 9.203125 58 16.59375 58 18.296875 58 
L 40.296875 58 
L 29.203125 41.578125 
C 21.796875 30.53125 16.703125 15.609375 16.703125 2.578125 
C 16.703125 1.390625 16.703125 -2 20.296875 -2 
C 23.90625 -2 23.90625 1.390625 23.90625 2.671875 
L 23.90625 7.265625 
C 23.90625 23.5625 26.703125 34.3125 31.296875 41.1875 
z
" id="CMR17-55"/>
      </defs>
      <g style="fill:#262626;" transform="translate(588.111452172 618.828545664)scale(0.25 -0.25)">
       <use transform="scale(0.996264009963)" xlink:href="#CMR17-55"/>
      </g>
     </g>
    </g>
    <g id="xtick_15">
     <g id="line2d_76">
      <path clip-path="url(#p96ee62f277)" d="M 668.222762 594.532292 
L 668.222762 371.332292 
" style="fill:none;stroke:#ffffff;stroke-linecap:round;"/>
     </g>
     <g id="line2d_77">
      <g>
       <use style="fill:#262626;stroke:#262626;" x="668.222761811" xlink:href="#mf1689f23e8" y="594.532292113"/>
      </g>
     </g>
     <g id="line2d_78">
      <g>
       <use style="fill:#262626;stroke:#262626;" x="668.222761811" xlink:href="#mf1689f23e8" y="371.332292113"/>
      </g>
     </g>
     <g id="text_29">
      <!-- $8$ -->
      <g style="fill:#262626;" transform="translate(662.511452172 618.828545664)scale(0.25 -0.25)">
       <use transform="scale(0.996264009963)" xlink:href="#CMR17-56"/>
      </g>
     </g>
    </g>
    <g id="xtick_16">
     <g id="line2d_79">
      <path clip-path="url(#p96ee62f277)" d="M 742.622762 594.532292 
L 742.622762 371.332292 
" style="fill:none;stroke:#ffffff;stroke-linecap:round;"/>
     </g>
     <g id="line2d_80">
      <g>
       <use style="fill:#262626;stroke:#262626;" x="742.622761811" xlink:href="#mf1689f23e8" y="594.532292113"/>
      </g>
     </g>
     <g id="line2d_81">
      <g>
       <use style="fill:#262626;stroke:#262626;" x="742.622761811" xlink:href="#mf1689f23e8" y="371.332292113"/>
      </g>
     </g>
     <g id="text_30">
      <!-- $9$ -->
      <defs>
       <path d="M 35.203125 29.125 
C 35.203125 7.25 26.09375 0.484375 18.59375 0.484375 
C 16.296875 0.484375 10.703125 0.484375 8.40625 4.59375 
C 11 4.1875 12.90625 5.578125 12.90625 8.09375 
C 12.90625 10.8125 10.703125 11.703125 9.296875 11.703125 
C 8.40625 11.703125 5.703125 11.296875 5.703125 7.90625 
C 5.703125 1.109375 11.59375 -2 18.796875 -2 
C 30.296875 -2 42 10.53125 42 32.390625 
C 42 59.640625 30.796875 65.296875 23.203125 65.296875 
C 13.296875 65.296875 3.796875 56.6875 3.796875 43.40625 
C 3.796875 31.109375 11.90625 22 22.09375 22 
C 30.5 22 34.203125 29.734375 35.203125 33 
z
M 22.296875 23.59375 
C 19.59375 23.59375 15.796875 24.09375 12.703125 30.03125 
C 10.59375 33.890625 10.59375 38.453125 10.59375 43.296875 
C 10.59375 49.15625 10.59375 53.203125 13.40625 57.5625 
C 14.796875 59.640625 17.40625 63 23.203125 63 
C 35 63 35 45.078125 35 41.125 
C 35 34.09375 31.796875 23.59375 22.296875 23.59375 
" id="CMR17-57"/>
      </defs>
      <g style="fill:#262626;" transform="translate(736.911452172 618.828545664)scale(0.25 -0.25)">
       <use transform="scale(0.996264009963)" xlink:href="#CMR17-57"/>
      </g>
     </g>
    </g>
    <g id="text_31">
     <!-- Index $j$  -->
     <g style="fill:#262626;" transform="translate(369.540098045 647.698946821)scale(0.275 -0.275)">
      <use transform="scale(0.996264009963)" xlink:href="#CMSS17-73"/>
      <use transform="translate(25.7839255137 0.0)scale(0.996264009963)" xlink:href="#CMSS17-110"/>
      <use transform="translate(73.9888686469 0.0)scale(0.996264009963)" xlink:href="#CMSS17-100"/>
      <use transform="translate(122.19381178 0.0)scale(0.996264009963)" xlink:href="#CMSS17-101"/>
      <use transform="translate(163.832633849 0.0)scale(0.996264009963)" xlink:href="#CMSS17-120"/>
      <use transform="translate(238.06188828 0.0)scale(0.996264009963)" xlink:href="#CMMI12-106"/>
     </g>
    </g>
   </g>
   <g id="matplotlib.axis_4">
    <g id="ytick_10">
     <g id="line2d_82">
      <path clip-path="url(#p96ee62f277)" d="M 73.022762 594.532292 
L 742.622762 594.532292 
" style="fill:none;stroke:#ffffff;stroke-linecap:round;"/>
     </g>
     <g id="line2d_83">
      <g>
       <use style="fill:#262626;stroke:#262626;" x="73.0227618112" xlink:href="#mf1689f23e8" y="594.532292113"/>
      </g>
     </g>
     <g id="line2d_84">
      <g>
       <use style="fill:#262626;stroke:#262626;" x="742.622761811" xlink:href="#mf1689f23e8" y="594.532292113"/>
      </g>
     </g>
     <g id="text_32">
      <!-- $-6$ -->
      <g style="fill:#262626;" transform="translate(35.2282832202 600.758151682)scale(0.25 -0.25)">
       <use transform="scale(0.996264009963)" xlink:href="#CMSY10-0"/>
       <use transform="translate(77.4874676506 0.0)scale(0.996264009963)" xlink:href="#CMR17-54"/>
      </g>
     </g>
    </g>
    <g id="ytick_11">
     <g id="line2d_85">
      <path clip-path="url(#p96ee62f277)" d="M 73.022762 557.332292 
L 742.622762 557.332292 
" style="fill:none;stroke:#ffffff;stroke-linecap:round;"/>
     </g>
     <g id="line2d_86">
      <g>
       <use style="fill:#262626;stroke:#262626;" x="73.0227618112" xlink:href="#mf1689f23e8" y="557.332292113"/>
      </g>
     </g>
     <g id="line2d_87">
      <g>
       <use style="fill:#262626;stroke:#262626;" x="742.622761811" xlink:href="#mf1689f23e8" y="557.332292113"/>
      </g>
     </g>
     <g id="text_33">
      <!-- $-4$ -->
      <g style="fill:#262626;" transform="translate(35.2282832202 563.558151682)scale(0.25 -0.25)">
       <use transform="scale(0.996264009963)" xlink:href="#CMSY10-0"/>
       <use transform="translate(77.4874676506 0.0)scale(0.996264009963)" xlink:href="#CMR17-52"/>
      </g>
     </g>
    </g>
    <g id="ytick_12">
     <g id="line2d_88">
      <path clip-path="url(#p96ee62f277)" d="M 73.022762 520.132292 
L 742.622762 520.132292 
" style="fill:none;stroke:#ffffff;stroke-linecap:round;"/>
     </g>
     <g id="line2d_89">
      <g>
       <use style="fill:#262626;stroke:#262626;" x="73.0227618112" xlink:href="#mf1689f23e8" y="520.132292113"/>
      </g>
     </g>
     <g id="line2d_90">
      <g>
       <use style="fill:#262626;stroke:#262626;" x="742.622761811" xlink:href="#mf1689f23e8" y="520.132292113"/>
      </g>
     </g>
     <g id="text_34">
      <!-- $-2$ -->
      <g style="fill:#262626;" transform="translate(35.2282832202 526.358151682)scale(0.25 -0.25)">
       <use transform="scale(0.996264009963)" xlink:href="#CMSY10-0"/>
       <use transform="translate(77.4874676506 0.0)scale(0.996264009963)" xlink:href="#CMR17-50"/>
      </g>
     </g>
    </g>
    <g id="ytick_13">
     <g id="line2d_91">
      <path clip-path="url(#p96ee62f277)" d="M 73.022762 482.932292 
L 742.622762 482.932292 
" style="fill:none;stroke:#ffffff;stroke-linecap:round;"/>
     </g>
     <g id="line2d_92">
      <g>
       <use style="fill:#262626;stroke:#262626;" x="73.0227618112" xlink:href="#mf1689f23e8" y="482.932292113"/>
      </g>
     </g>
     <g id="line2d_93">
      <g>
       <use style="fill:#262626;stroke:#262626;" x="742.622761811" xlink:href="#mf1689f23e8" y="482.932292113"/>
      </g>
     </g>
     <g id="text_35">
      <!-- $0$ -->
      <g style="fill:#262626;" transform="translate(54.6001425319 489.158151682)scale(0.25 -0.25)">
       <use transform="scale(0.996264009963)" xlink:href="#CMR17-48"/>
      </g>
     </g>
    </g>
    <g id="ytick_14">
     <g id="line2d_94">
      <path clip-path="url(#p96ee62f277)" d="M 73.022762 445.732292 
L 742.622762 445.732292 
" style="fill:none;stroke:#ffffff;stroke-linecap:round;"/>
     </g>
     <g id="line2d_95">
      <g>
       <use style="fill:#262626;stroke:#262626;" x="73.0227618112" xlink:href="#mf1689f23e8" y="445.732292113"/>
      </g>
     </g>
     <g id="line2d_96">
      <g>
       <use style="fill:#262626;stroke:#262626;" x="742.622761811" xlink:href="#mf1689f23e8" y="445.732292113"/>
      </g>
     </g>
     <g id="text_36">
      <!-- $2$ -->
      <g style="fill:#262626;" transform="translate(54.6001425319 451.958151682)scale(0.25 -0.25)">
       <use transform="scale(0.996264009963)" xlink:href="#CMR17-50"/>
      </g>
     </g>
    </g>
    <g id="ytick_15">
     <g id="line2d_97">
      <path clip-path="url(#p96ee62f277)" d="M 73.022762 408.532292 
L 742.622762 408.532292 
" style="fill:none;stroke:#ffffff;stroke-linecap:round;"/>
     </g>
     <g id="line2d_98">
      <g>
       <use style="fill:#262626;stroke:#262626;" x="73.0227618112" xlink:href="#mf1689f23e8" y="408.532292113"/>
      </g>
     </g>
     <g id="line2d_99">
      <g>
       <use style="fill:#262626;stroke:#262626;" x="742.622761811" xlink:href="#mf1689f23e8" y="408.532292113"/>
      </g>
     </g>
     <g id="text_37">
      <!-- $4$ -->
      <g style="fill:#262626;" transform="translate(54.6001425319 414.758151682)scale(0.25 -0.25)">
       <use transform="scale(0.996264009963)" xlink:href="#CMR17-52"/>
      </g>
     </g>
    </g>
    <g id="ytick_16">
     <g id="line2d_100">
      <path clip-path="url(#p96ee62f277)" d="M 73.022762 371.332292 
L 742.622762 371.332292 
" style="fill:none;stroke:#ffffff;stroke-linecap:round;"/>
     </g>
     <g id="line2d_101">
      <g>
       <use style="fill:#262626;stroke:#262626;" x="73.0227618112" xlink:href="#mf1689f23e8" y="371.332292113"/>
      </g>
     </g>
     <g id="line2d_102">
      <g>
       <use style="fill:#262626;stroke:#262626;" x="742.622761811" xlink:href="#mf1689f23e8" y="371.332292113"/>
      </g>
     </g>
     <g id="text_38">
      <!-- $6$ -->
      <g style="fill:#262626;" transform="translate(54.6001425319 377.558151682)scale(0.25 -0.25)">
       <use transform="scale(0.996264009963)" xlink:href="#CMR17-54"/>
      </g>
     </g>
    </g>
    <g id="text_39">
     <!-- $\bar{\kappa}_{j}$ -->
     <g style="fill:#262626;" transform="translate(18.6226192793 477.603292098)scale(0.275 -0.275)">
      <use transform="translate(5.23207345015 14.9503753016)scale(0.996264009963)" xlink:href="#CMR17-22"/>
      <use transform="translate(0.0 14.9439145441)scale(0.996264009963)" xlink:href="#CMMI12-20"/>
      <use transform="translate(56.1546240174 0.0)scale(0.697381766617)" xlink:href="#CMMI12-106"/>
     </g>
    </g>
   </g>
   <g id="line2d_103">
    <g>
     <use style="fill:#0000ff;" x="73.0227618112" xlink:href="#m04c2b1c526" y="389.855402318"/>
     <use style="fill:#0000ff;" x="147.422761811" xlink:href="#m04c2b1c526" y="414.681008055"/>
     <use style="fill:#0000ff;" x="221.822761811" xlink:href="#m04c2b1c526" y="435.253883007"/>
     <use style="fill:#0000ff;" x="296.222761811" xlink:href="#m04c2b1c526" y="455.644895046"/>
     <use style="fill:#0000ff;" x="370.622761811" xlink:href="#m04c2b1c526" y="474.561081558"/>
     <use style="fill:#0000ff;" x="445.022761811" xlink:href="#m04c2b1c526" y="491.672673343"/>
     <use style="fill:#0000ff;" x="519.422761811" xlink:href="#m04c2b1c526" y="510.673211778"/>
     <use style="fill:#0000ff;" x="593.822761811" xlink:href="#m04c2b1c526" y="528.923325952"/>
     <use style="fill:#0000ff;" x="668.222761811" xlink:href="#m04c2b1c526" y="550.962058917"/>
     <use style="fill:#0000ff;" x="742.622761811" xlink:href="#m04c2b1c526" y="576.973994561"/>
    </g>
   </g>
   <g id="line2d_104">
    <path d="M 73.022762 388.189596 
L 147.422762 414.09864 
L 221.822762 435.410259 
L 296.222762 454.94858 
L 370.622762 473.683588 
L 445.022762 492.180996 
L 519.422762 510.916004 
L 593.822762 530.454325 
L 668.222762 551.765945 
L 742.622762 577.674989 
" style="fill:none;stroke:#ffa500;stroke-linecap:round;stroke-width:1.75;"/>
   </g>
   <g id="patch_9">
    <path d="M 73.022762 371.332292 
L 742.622762 371.332292 
" style="fill:none;"/>
   </g>
   <g id="patch_10">
    <path d="M 742.622762 594.532292 
L 742.622762 371.332292 
" style="fill:none;"/>
   </g>
   <g id="patch_11">
    <path d="M 73.022762 594.532292 
L 742.622762 594.532292 
" style="fill:none;"/>
   </g>
   <g id="patch_12">
    <path d="M 73.022762 594.532292 
L 73.022762 371.332292 
" style="fill:none;"/>
   </g>
   <g id="text_40">
    <!-- Sorted GUE eigenvalues vs CDF$^{-1}$ (N=10) -->
    <g style="fill:#262626;" transform="translate(155.845648399 366.332292113)scale(0.3 -0.3)">
     <use transform="scale(0.996264009963)" xlink:href="#CMSS17-83"/>
     <use transform="translate(52.0485161844 0.0)scale(0.996264009963)" xlink:href="#CMSS17-111"/>
     <use transform="translate(96.2896857731 0.0)scale(0.996264009963)" xlink:href="#CMSS17-114"/>
     <use transform="translate(128.19945833 0.0)scale(0.996264009963)" xlink:href="#CMSS17-116"/>
     <use transform="translate(162.031025014 0.0)scale(0.996264009963)" xlink:href="#CMSS17-101"/>
     <use transform="translate(203.669847082 0.0)scale(0.996264009963)" xlink:href="#CMSS17-100"/>
     <use transform="translate(283.103902966 0.0)scale(0.996264009963)" xlink:href="#CMSS17-71"/>
     <use transform="translate(345.562128468 0.0)scale(0.996264009963)" xlink:href="#CMSS17-85"/>
     <use transform="translate(409.701868725 0.0)scale(0.996264009963)" xlink:href="#CMSS17-69"/>
     <use transform="translate(496.822994702 0.0)scale(0.996264009963)" xlink:href="#CMSS17-101"/>
     <use transform="translate(538.461816771 0.0)scale(0.996264009963)" xlink:href="#CMSS17-105"/>
     <use transform="translate(560.642539817 0.0)scale(0.996264009963)" xlink:href="#CMSS17-103"/>
     <use transform="translate(607.486163338 0.0)scale(0.996264009963)" xlink:href="#CMSS17-101"/>
     <use transform="translate(649.124985406 0.0)scale(0.996264009963)" xlink:href="#CMSS17-110"/>
     <use transform="translate(697.329928539 0.0)scale(0.996264009963)" xlink:href="#CMSS17-118"/>
     <use transform="translate(740.33007022 0.0)scale(0.996264009963)" xlink:href="#CMSS17-97"/>
     <use transform="translate(785.251990825 0.0)scale(0.996264009963)" xlink:href="#CMSS17-108"/>
     <use transform="translate(807.432713871 0.0)scale(0.996264009963)" xlink:href="#CMSS17-117"/>
     <use transform="translate(855.637657004 0.0)scale(0.996264009963)" xlink:href="#CMSS17-101"/>
     <use transform="translate(897.276479073 0.0)scale(0.996264009963)" xlink:href="#CMSS17-115"/>
     <use transform="translate(964.419133815 0.0)scale(0.996264009963)" xlink:href="#CMSS17-118"/>
     <use transform="translate(1007.4192755 0.0)scale(0.996264009963)" xlink:href="#CMSS17-115"/>
     <use transform="translate(1074.56193024 0.0)scale(0.996264009963)" xlink:href="#CMSS17-67"/>
     <use transform="translate(1134.41770181 0.0)scale(0.996264009963)" xlink:href="#CMSS17-68"/>
     <use transform="translate(1201.96054347 0.0)scale(0.996264009963)" xlink:href="#CMSS17-70"/>
     <use transform="translate(1255.25010276 36.1536389419)scale(0.697381766617)" xlink:href="#CMSY10-0"/>
     <use transform="translate(1309.49109601 36.1536389419)scale(0.697381766617)" xlink:href="#CMR17-49"/>
     <use transform="translate(1373.20152273 0.0)scale(0.996264009963)" xlink:href="#CMSS17-40"/>
     <use transform="translate(1409.63543694 0.0)scale(0.996264009963)" xlink:href="#CMSS17-78"/>
     <use transform="translate(1475.69695612 0.0)scale(0.996264009963)" xlink:href="#CMSS17-61"/>
     <use transform="translate(1548.56489094 0.0)scale(0.996264009963)" xlink:href="#CMSS17-49"/>
     <use transform="translate(1595.40851446 0.0)scale(0.996264009963)" xlink:href="#CMSS17-48"/>
     <use transform="translate(1642.25213798 0.0)scale(0.996264009963)" xlink:href="#CMSS17-41"/>
    </g>
   </g>
   <g id="legend_2">
    <g id="patch_13">
     <path d="M 480.849748 467.678334 
L 725.122762 467.678334 
Q 730.122762 467.678334 730.122762 462.678334 
L 730.122762 388.832292 
Q 730.122762 383.832292 725.122762 383.832292 
L 480.849748 383.832292 
Q 475.849748 383.832292 475.849748 388.832292 
L 475.849748 462.678334 
Q 475.849748 467.678334 480.849748 467.678334 
z
" style="fill:#eaeaf2;stroke:#ffffff;stroke-linejoin:miter;stroke-width:0.3;"/>
    </g>
    <g id="line2d_105"/>
    <g id="line2d_106">
     <g>
      <use style="fill:#0000ff;" x="510.849747529" xlink:href="#m04c2b1c526" y="403.73981967"/>
     </g>
    </g>
    <g id="text_41">
     <!-- Data (Numerics) -->
     <g style="fill:#262626;" transform="translate(555.849747529 412.48981967)scale(0.25 -0.25)">
      <use transform="scale(0.996264009963)" xlink:href="#CMSS17-68"/>
      <use transform="translate(67.5428416631 0.0)scale(0.996264009963)" xlink:href="#CMSS17-97"/>
      <use transform="translate(112.464762268 0.0)scale(0.996264009963)" xlink:href="#CMSS17-116"/>
      <use transform="translate(146.296328952 0.0)scale(0.996264009963)" xlink:href="#CMSS17-97"/>
      <use transform="translate(222.447362308 0.0)scale(0.996264009963)" xlink:href="#CMSS17-40"/>
      <use transform="translate(258.881276512 0.0)scale(0.996264009963)" xlink:href="#CMSS17-78"/>
      <use transform="translate(324.942795693 0.0)scale(0.996264009963)" xlink:href="#CMSS17-117"/>
      <use transform="translate(373.147738826 0.0)scale(0.996264009963)" xlink:href="#CMSS17-109"/>
      <use transform="translate(447.376993258 0.0)scale(0.996264009963)" xlink:href="#CMSS17-101"/>
      <use transform="translate(489.015815326 0.0)scale(0.996264009963)" xlink:href="#CMSS17-114"/>
      <use transform="translate(520.925587883 0.0)scale(0.996264009963)" xlink:href="#CMSS17-105"/>
      <use transform="translate(543.106310929 0.0)scale(0.996264009963)" xlink:href="#CMSS17-99"/>
      <use transform="translate(584.745132997 0.0)scale(0.996264009963)" xlink:href="#CMSS17-115"/>
      <use transform="translate(620.658674988 0.0)scale(0.996264009963)" xlink:href="#CMSS17-41"/>
     </g>
    </g>
    <g id="line2d_107">
     <path d="M 485.849748 442.722526 
L 535.849748 442.722526 
" style="fill:none;stroke:#ffa500;stroke-linecap:round;stroke-width:1.75;"/>
    </g>
    <g id="line2d_108"/>
    <g id="text_42">
     <!-- Theory (CDF$^{-1})$ -->
     <g style="fill:#262626;" transform="translate(555.849747529 451.472525515)scale(0.25 -0.25)">
      <use transform="scale(0.996264009963)" xlink:href="#CMSS17-84"/>
      <use transform="translate(63.8194539033 0.0)scale(0.996264009963)" xlink:href="#CMSS17-104"/>
      <use transform="translate(112.024397037 0.0)scale(0.996264009963)" xlink:href="#CMSS17-101"/>
      <use transform="translate(153.663219105 0.0)scale(0.996264009963)" xlink:href="#CMSS17-111"/>
      <use transform="translate(197.904388694 0.0)scale(0.996264009963)" xlink:href="#CMSS17-114"/>
      <use transform="translate(229.814161251 0.0)scale(0.996264009963)" xlink:href="#CMSS17-121"/>
      <use transform="translate(304.043415682 0.0)scale(0.996264009963)" xlink:href="#CMSS17-40"/>
      <use transform="translate(340.477329886 0.0)scale(0.996264009963)" xlink:href="#CMSS17-67"/>
      <use transform="translate(400.333101455 0.0)scale(0.996264009963)" xlink:href="#CMSS17-68"/>
      <use transform="translate(467.875943119 0.0)scale(0.996264009963)" xlink:href="#CMSS17-70"/>
      <use transform="translate(521.165502413 36.1536389419)scale(0.697381766617)" xlink:href="#CMSY10-0"/>
      <use transform="translate(575.406495661 36.1536389419)scale(0.697381766617)" xlink:href="#CMR17-49"/>
      <use transform="translate(607.88780963 0.0)scale(0.996264009963)" xlink:href="#CMR17-41"/>
     </g>
    </g>
   </g>
  </g>
 </g>
 <defs>
  <clipPath id="p96ee62f277">
   <rect height="223.2" width="669.6" x="73.0227618112" y="371.332292113"/>
  </clipPath>
  <clipPath id="pe9698a44ab">
   <rect height="223.2" width="669.6" x="73.0227618112" y="36.5322921126"/>
  </clipPath>
 </defs>
</svg>
