<?xml version="1.0" encoding="utf-8" standalone="no"?>
<!DOCTYPE svg PUBLIC "-//W3C//DTD SVG 1.1//EN"
  "http://www.w3.org/Graphics/SVG/1.1/DTD/svg11.dtd">
<!-- Created with matplotlib (http://matplotlib.org/) -->
<svg height="440pt" version="1.1" viewBox="0 0 496 440" width="496pt" xmlns="http://www.w3.org/2000/svg" xmlns:xlink="http://www.w3.org/1999/xlink">
 <defs>
  <style type="text/css">
*{stroke-linecap:butt;stroke-linejoin:round;stroke-miterlimit:100000;}
  </style>
 </defs>
 <g id="figure_1">
  <g id="patch_1">
   <path d="M 0 440.878906 
L 496.771094 440.878906 
L 496.771094 0 
L 0 0 
z
" style="fill:#ffffff;"/>
  </g>
  <g id="axes_1">
   <g id="patch_2">
    <path d="M 14.385547 433.678906 
L 482.385547 433.678906 
L 482.385547 37.678906 
L 14.385547 37.678906 
z
" style="fill:#e6e6e6;"/>
   </g>
   <g id="matplotlib.axis_1">
    <g id="xtick_1"/>
    <g id="xtick_2">
     <g id="line2d_1">
      <path clip-path="url(#p5dc68ff35f)" d="M 72.885547 433.678906 
L 72.885547 37.678906 
" style="fill:none;stroke:#ffffff;stroke-linecap:round;"/>
     </g>
     <g id="line2d_2">
      <defs>
       <path d="M 0 0 
L 0 0 
" id="m23c700d15b" style="stroke:#262626;"/>
      </defs>
      <g>
       <use style="fill:#262626;stroke:#262626;" x="72.885546875" xlink:href="#m23c700d15b" y="433.67890625"/>
      </g>
     </g>
     <g id="line2d_3">
      <g>
       <use style="fill:#262626;stroke:#262626;" x="72.885546875" xlink:href="#m23c700d15b" y="37.67890625"/>
      </g>
     </g>
    </g>
    <g id="xtick_3">
     <g id="line2d_4">
      <path clip-path="url(#p5dc68ff35f)" d="M 131.385547 433.678906 
L 131.385547 37.678906 
" style="fill:none;stroke:#ffffff;stroke-linecap:round;"/>
     </g>
     <g id="line2d_5">
      <g>
       <use style="fill:#262626;stroke:#262626;" x="131.385546875" xlink:href="#m23c700d15b" y="433.67890625"/>
      </g>
     </g>
     <g id="line2d_6">
      <g>
       <use style="fill:#262626;stroke:#262626;" x="131.385546875" xlink:href="#m23c700d15b" y="37.67890625"/>
      </g>
     </g>
    </g>
    <g id="xtick_4">
     <g id="line2d_7">
      <path clip-path="url(#p5dc68ff35f)" d="M 189.885547 433.678906 
L 189.885547 37.678906 
" style="fill:none;stroke:#ffffff;stroke-linecap:round;"/>
     </g>
     <g id="line2d_8">
      <g>
       <use style="fill:#262626;stroke:#262626;" x="189.885546875" xlink:href="#m23c700d15b" y="433.67890625"/>
      </g>
     </g>
     <g id="line2d_9">
      <g>
       <use style="fill:#262626;stroke:#262626;" x="189.885546875" xlink:href="#m23c700d15b" y="37.67890625"/>
      </g>
     </g>
    </g>
    <g id="xtick_5">
     <g id="line2d_10">
      <path clip-path="url(#p5dc68ff35f)" d="M 248.385547 433.678906 
L 248.385547 37.678906 
" style="fill:none;stroke:#ffffff;stroke-linecap:round;"/>
     </g>
     <g id="line2d_11">
      <g>
       <use style="fill:#262626;stroke:#262626;" x="248.385546875" xlink:href="#m23c700d15b" y="433.67890625"/>
      </g>
     </g>
     <g id="line2d_12">
      <g>
       <use style="fill:#262626;stroke:#262626;" x="248.385546875" xlink:href="#m23c700d15b" y="37.67890625"/>
      </g>
     </g>
    </g>
    <g id="xtick_6">
     <g id="line2d_13">
      <path clip-path="url(#p5dc68ff35f)" d="M 306.885547 433.678906 
L 306.885547 37.678906 
" style="fill:none;stroke:#ffffff;stroke-linecap:round;"/>
     </g>
     <g id="line2d_14">
      <g>
       <use style="fill:#262626;stroke:#262626;" x="306.885546875" xlink:href="#m23c700d15b" y="433.67890625"/>
      </g>
     </g>
     <g id="line2d_15">
      <g>
       <use style="fill:#262626;stroke:#262626;" x="306.885546875" xlink:href="#m23c700d15b" y="37.67890625"/>
      </g>
     </g>
    </g>
    <g id="xtick_7">
     <g id="line2d_16">
      <path clip-path="url(#p5dc68ff35f)" d="M 365.385547 433.678906 
L 365.385547 37.678906 
" style="fill:none;stroke:#ffffff;stroke-linecap:round;"/>
     </g>
     <g id="line2d_17">
      <g>
       <use style="fill:#262626;stroke:#262626;" x="365.385546875" xlink:href="#m23c700d15b" y="433.67890625"/>
      </g>
     </g>
     <g id="line2d_18">
      <g>
       <use style="fill:#262626;stroke:#262626;" x="365.385546875" xlink:href="#m23c700d15b" y="37.67890625"/>
      </g>
     </g>
    </g>
    <g id="xtick_8">
     <g id="line2d_19">
      <path clip-path="url(#p5dc68ff35f)" d="M 423.885547 433.678906 
L 423.885547 37.678906 
" style="fill:none;stroke:#ffffff;stroke-linecap:round;"/>
     </g>
     <g id="line2d_20">
      <g>
       <use style="fill:#262626;stroke:#262626;" x="423.885546875" xlink:href="#m23c700d15b" y="433.67890625"/>
      </g>
     </g>
     <g id="line2d_21">
      <g>
       <use style="fill:#262626;stroke:#262626;" x="423.885546875" xlink:href="#m23c700d15b" y="37.67890625"/>
      </g>
     </g>
    </g>
    <g id="xtick_9">
     <g id="line2d_22">
      <path clip-path="url(#p5dc68ff35f)" d="M 482.385547 433.678906 
L 482.385547 37.678906 
" style="fill:none;stroke:#ffffff;stroke-linecap:round;"/>
     </g>
     <g id="line2d_23">
      <g>
       <use style="fill:#262626;stroke:#262626;" x="482.385546875" xlink:href="#m23c700d15b" y="433.67890625"/>
      </g>
     </g>
     <g id="line2d_24">
      <g>
       <use style="fill:#262626;stroke:#262626;" x="482.385546875" xlink:href="#m23c700d15b" y="37.67890625"/>
      </g>
     </g>
    </g>
   </g>
   <g id="matplotlib.axis_2">
    <g id="ytick_1">
     <g id="line2d_25">
      <path clip-path="url(#p5dc68ff35f)" d="M 14.385547 433.678906 
L 482.385547 433.678906 
" style="fill:none;stroke:#ffffff;stroke-linecap:round;"/>
     </g>
     <g id="line2d_26">
      <g>
       <use style="fill:#262626;stroke:#262626;" x="14.385546875" xlink:href="#m23c700d15b" y="433.67890625"/>
      </g>
     </g>
     <g id="line2d_27">
      <g>
       <use style="fill:#262626;stroke:#262626;" x="482.385546875" xlink:href="#m23c700d15b" y="433.67890625"/>
      </g>
     </g>
    </g>
    <g id="ytick_2">
     <g id="line2d_28">
      <path clip-path="url(#p5dc68ff35f)" d="M 14.385547 384.178906 
L 482.385547 384.178906 
" style="fill:none;stroke:#ffffff;stroke-linecap:round;"/>
     </g>
     <g id="line2d_29">
      <g>
       <use style="fill:#262626;stroke:#262626;" x="14.385546875" xlink:href="#m23c700d15b" y="384.17890625"/>
      </g>
     </g>
     <g id="line2d_30">
      <g>
       <use style="fill:#262626;stroke:#262626;" x="482.385546875" xlink:href="#m23c700d15b" y="384.17890625"/>
      </g>
     </g>
    </g>
    <g id="ytick_3">
     <g id="line2d_31">
      <path clip-path="url(#p5dc68ff35f)" d="M 14.385547 334.678906 
L 482.385547 334.678906 
" style="fill:none;stroke:#ffffff;stroke-linecap:round;"/>
     </g>
     <g id="line2d_32">
      <g>
       <use style="fill:#262626;stroke:#262626;" x="14.385546875" xlink:href="#m23c700d15b" y="334.67890625"/>
      </g>
     </g>
     <g id="line2d_33">
      <g>
       <use style="fill:#262626;stroke:#262626;" x="482.385546875" xlink:href="#m23c700d15b" y="334.67890625"/>
      </g>
     </g>
    </g>
    <g id="ytick_4">
     <g id="line2d_34">
      <path clip-path="url(#p5dc68ff35f)" d="M 14.385547 285.178906 
L 482.385547 285.178906 
" style="fill:none;stroke:#ffffff;stroke-linecap:round;"/>
     </g>
     <g id="line2d_35">
      <g>
       <use style="fill:#262626;stroke:#262626;" x="14.385546875" xlink:href="#m23c700d15b" y="285.17890625"/>
      </g>
     </g>
     <g id="line2d_36">
      <g>
       <use style="fill:#262626;stroke:#262626;" x="482.385546875" xlink:href="#m23c700d15b" y="285.17890625"/>
      </g>
     </g>
    </g>
    <g id="ytick_5">
     <g id="line2d_37">
      <path clip-path="url(#p5dc68ff35f)" d="M 14.385547 235.678906 
L 482.385547 235.678906 
" style="fill:none;stroke:#ffffff;stroke-linecap:round;"/>
     </g>
     <g id="line2d_38">
      <g>
       <use style="fill:#262626;stroke:#262626;" x="14.385546875" xlink:href="#m23c700d15b" y="235.67890625"/>
      </g>
     </g>
     <g id="line2d_39">
      <g>
       <use style="fill:#262626;stroke:#262626;" x="482.385546875" xlink:href="#m23c700d15b" y="235.67890625"/>
      </g>
     </g>
    </g>
    <g id="ytick_6">
     <g id="line2d_40">
      <path clip-path="url(#p5dc68ff35f)" d="M 14.385547 186.178906 
L 482.385547 186.178906 
" style="fill:none;stroke:#ffffff;stroke-linecap:round;"/>
     </g>
     <g id="line2d_41">
      <g>
       <use style="fill:#262626;stroke:#262626;" x="14.385546875" xlink:href="#m23c700d15b" y="186.17890625"/>
      </g>
     </g>
     <g id="line2d_42">
      <g>
       <use style="fill:#262626;stroke:#262626;" x="482.385546875" xlink:href="#m23c700d15b" y="186.17890625"/>
      </g>
     </g>
    </g>
    <g id="ytick_7">
     <g id="line2d_43">
      <path clip-path="url(#p5dc68ff35f)" d="M 14.385547 136.678906 
L 482.385547 136.678906 
" style="fill:none;stroke:#ffffff;stroke-linecap:round;"/>
     </g>
     <g id="line2d_44">
      <g>
       <use style="fill:#262626;stroke:#262626;" x="14.385546875" xlink:href="#m23c700d15b" y="136.67890625"/>
      </g>
     </g>
     <g id="line2d_45">
      <g>
       <use style="fill:#262626;stroke:#262626;" x="482.385546875" xlink:href="#m23c700d15b" y="136.67890625"/>
      </g>
     </g>
    </g>
    <g id="ytick_8">
     <g id="line2d_46">
      <path clip-path="url(#p5dc68ff35f)" d="M 14.385547 87.178906 
L 482.385547 87.178906 
" style="fill:none;stroke:#ffffff;stroke-linecap:round;"/>
     </g>
     <g id="line2d_47">
      <g>
       <use style="fill:#262626;stroke:#262626;" x="14.385546875" xlink:href="#m23c700d15b" y="87.17890625"/>
      </g>
     </g>
     <g id="line2d_48">
      <g>
       <use style="fill:#262626;stroke:#262626;" x="482.385546875" xlink:href="#m23c700d15b" y="87.17890625"/>
      </g>
     </g>
    </g>
    <g id="ytick_9"/>
   </g>
   <g id="patch_3">
    <path clip-path="url(#p5dc68ff35f)" d="M -266.414453 1621.678906 
C -30.595857 1621.678906 195.595968 1542.401296 362.344897 1401.306048 
C 529.093825 1260.210801 622.785547 1068.817719 622.785547 869.278906 
C 622.785547 669.740094 529.093825 478.347011 362.344897 337.251764 
C 195.595968 196.156517 -30.595857 116.878906 -266.414453 116.878906 
C -502.23305 116.878906 -728.424874 196.156517 -895.173803 337.251764 
C -1061.922732 478.347011 -1155.614453 669.740094 -1155.614453 869.278906 
C -1155.614453 1068.817719 -1061.922732 1260.210801 -895.173803 1401.306048 
C -728.424874 1542.401296 -502.23305 1621.678906 -266.414453 1621.678906 
z
" style="fill:#4c72b0;opacity:0.25;stroke:#000000;stroke-linejoin:miter;stroke-width:4.0;"/>
   </g>
   <g id="line2d_49">
    <path clip-path="url(#p5dc68ff35f)" d="M 14.385547 37.678906 
L 28.712077 49.801355 
L 43.038608 61.923804 
L 57.365139 74.046253 
L 71.691669 86.168702 
L 86.0182 98.291151 
L 100.344731 110.4136 
L 114.671261 122.536049 
L 128.997792 134.658498 
L 143.324322 146.780947 
L 157.650853 158.903396 
L 171.977384 171.025845 
L 186.303914 183.148294 
L 200.630445 195.270743 
L 214.956975 207.393192 
L 229.283506 219.515641 
L 243.610037 231.63809 
L 257.936567 243.760539 
L 272.263098 255.882988 
L 286.589629 268.005437 
L 300.916159 280.127886 
L 315.24269 292.250335 
L 329.56922 304.372784 
L 343.895751 316.495233 
L 358.222282 328.617682 
L 372.548812 340.740131 
L 386.875343 352.86258 
L 401.201873 364.985029 
L 415.528404 377.107478 
L 429.854935 389.229927 
L 444.181465 401.352376 
L 458.507996 413.474825 
L 472.834526 425.597274 
L 487.161057 437.719723 
L 492.076456 441.878906 
" style="fill:none;stroke:#4c72b0;stroke-linecap:round;stroke-width:4.0;"/>
   </g>
   <g id="line2d_50">
    <path clip-path="url(#p5dc68ff35f)" d="M 306.885547 136.678906 
" style="fill:none;stroke:#000000;stroke-linecap:round;stroke-width:1.75;"/>
    <defs>
     <path d="M 0 10 
C 2.652031 10 5.195799 8.946337 7.071068 7.071068 
C 8.946337 5.195799 10 2.652031 10 0 
C 10 -2.652031 8.946337 -5.195799 7.071068 -7.071068 
C 5.195799 -8.946337 2.652031 -10 0 -10 
C -2.652031 -10 -5.195799 -8.946337 -7.071068 -7.071068 
C -8.946337 -5.195799 -10 -2.652031 -10 0 
C -10 2.652031 -8.946337 5.195799 -7.071068 7.071068 
C -5.195799 8.946337 -2.652031 10 0 10 
z
" id="m53af290ca6"/>
    </defs>
    <g clip-path="url(#p5dc68ff35f)">
     <use x="306.885546875" xlink:href="#m53af290ca6" y="136.67890625"/>
    </g>
   </g>
   <g id="line2d_51">
    <path clip-path="url(#p5dc68ff35f)" d="M 219.135547 210.928906 
" style="fill:none;stroke:#000000;stroke-linecap:round;stroke-width:1.75;"/>
    <g clip-path="url(#p5dc68ff35f)">
     <use x="219.135546875" xlink:href="#m53af290ca6" y="210.92890625"/>
    </g>
   </g>
   <g id="line2d_52">
    <path clip-path="url(#p5dc68ff35f)" d="M 219.135547 210.928906 
L 306.885547 136.678906 
" style="fill:none;stroke:#808080;stroke-dasharray:6.000000,6.000000;stroke-dashoffset:0.0;stroke-width:4.0;"/>
   </g>
   <g id="patch_4">
    <path d="M 14.385547 37.678906 
L 482.385547 37.678906 
" style="fill:none;"/>
   </g>
   <g id="patch_5">
    <path d="M 482.385547 433.678906 
L 482.385547 37.678906 
" style="fill:none;"/>
   </g>
   <g id="patch_6">
    <path d="M 14.385547 433.678906 
L 482.385547 433.678906 
" style="fill:none;"/>
   </g>
   <g id="patch_7">
    <path d="M 14.385547 433.678906 
L 14.385547 37.678906 
" style="fill:none;"/>
   </g>
   <g id="text_1">
    <!-- $\rho_{0}$ -->
    <defs>
     <path d="M 2.78125 -18.796875 
Q 2.78125 -18.21875 2.875 -18.015625 
L 12.796875 21.921875 
Q 14.203125 27.296875 17.640625 32.4375 
Q 21.09375 37.59375 25.96875 40.890625 
Q 30.859375 44.1875 36.28125 44.1875 
Q 40.625 44.1875 43.875 41.921875 
Q 47.125 39.65625 48.75 35.96875 
Q 50.390625 32.28125 50.390625 27.875 
Q 50.390625 23.046875 48.40625 17.875 
Q 46.4375 12.703125 42.9375 8.40625 
Q 39.453125 4.109375 34.90625 1.484375 
Q 30.375 -1.125 25.390625 -1.125 
Q 22.46875 -1.125 19.875 0.609375 
Q 17.28125 2.34375 15.828125 5.171875 
L 9.90625 -18.40625 
Q 9.625 -19.828125 8.453125 -20.703125 
Q 7.28125 -21.578125 5.8125 -21.578125 
Q 4.59375 -21.578125 3.6875 -20.8125 
Q 2.78125 -20.0625 2.78125 -18.796875 
M 25.59375 1.515625 
Q 30.90625 1.515625 34.828125 6.953125 
Q 38.765625 12.40625 40.84375 19.75 
Q 42.921875 27.09375 42.921875 32.171875 
Q 42.921875 35.984375 41.25 38.796875 
Q 39.59375 41.609375 36.078125 41.609375 
Q 31.734375 41.609375 28.40625 38.3125 
Q 25.09375 35.015625 23.09375 30.5625 
Q 21.09375 26.125 19.828125 21.296875 
L 17.09375 10.109375 
Q 17.71875 6.5 19.9375 4 
Q 22.171875 1.515625 25.59375 1.515625 
" id="Cmmi10-bd"/>
     <path d="M 25 -2.203125 
Q 12.75 -2.203125 8.328125 7.875 
Q 3.90625 17.96875 3.90625 31.890625 
Q 3.90625 40.578125 5.484375 48.234375 
Q 7.078125 55.90625 11.78125 61.25 
Q 16.5 66.609375 25 66.609375 
Q 31.59375 66.609375 35.78125 63.375 
Q 39.984375 60.15625 42.1875 55.046875 
Q 44.390625 49.953125 45.1875 44.109375 
Q 46 38.28125 46 31.890625 
Q 46 23.296875 44.40625 15.796875 
Q 42.828125 8.296875 38.1875 3.046875 
Q 33.546875 -2.203125 25 -2.203125 
M 25 0.390625 
Q 30.5625 0.390625 33.296875 6.09375 
Q 36.03125 11.8125 36.671875 18.75 
Q 37.3125 25.6875 37.3125 33.5 
Q 37.3125 41.015625 36.671875 47.359375 
Q 36.03125 53.71875 33.3125 58.859375 
Q 30.609375 64.015625 25 64.015625 
Q 19.34375 64.015625 16.609375 58.828125 
Q 13.875 53.65625 13.234375 47.328125 
Q 12.59375 41.015625 12.59375 33.5 
Q 12.59375 27.9375 12.859375 23 
Q 13.140625 18.0625 14.3125 12.8125 
Q 15.484375 7.5625 18.09375 3.96875 
Q 20.703125 0.390625 25 0.390625 
" id="Cmr10-30"/>
    </defs>
    <g style="fill:#262626;" transform="translate(336.135546875 384.17890625)scale(0.35 -0.35)">
     <use transform="translate(0.0 0.8125)" xlink:href="#Cmmi10-bd"/>
     <use transform="translate(51.708984375 -16.19375)scale(0.7)" xlink:href="#Cmr10-30"/>
    </g>
   </g>
   <g id="text_2">
    <!-- $\hat\rho_{\mathcal{M}}$ -->
    <defs>
     <path d="M 13.484375 53.8125 
L 11.53125 55.90625 
L 25 69.390625 
L 38.375 55.90625 
L 36.375 53.8125 
L 25 63.8125 
z
" id="Cmr10-5e"/>
     <path d="M 2.6875 0.203125 
Q 2.6875 1.953125 3.921875 4.984375 
Q 5.171875 8.015625 6.6875 8.015625 
Q 6.78125 8.015625 6.984375 7.90625 
Q 8.5 6.390625 10.5625 5.484375 
Q 12.640625 4.59375 14.703125 4.59375 
Q 16.84375 4.59375 19.65625 9.953125 
Q 22.46875 15.328125 25 22.140625 
Q 27.546875 28.953125 28.609375 32.328125 
Q 30.421875 37.796875 31.953125 43.4375 
Q 33.5 49.078125 34.640625 54.640625 
Q 35.796875 60.203125 36.625 66.3125 
Q 36.625 66.890625 37.3125 67.578125 
Q 38.28125 68.609375 39.890625 69.578125 
Q 41.21875 70.21875 42.828125 70.515625 
L 43.5 70.515625 
Q 44.1875 70.171875 44.28125 69.828125 
Q 46 59.578125 48.125 49.4375 
Q 50.25 39.3125 53 29.8125 
Q 55.765625 20.3125 59.078125 13.625 
Q 67.484375 21.625 74.421875 29.390625 
Q 80.078125 35.796875 84.4375 40.875 
Q 88.8125 45.953125 92.359375 50.125 
Q 95.90625 54.296875 101.078125 60.5 
Q 106.25 66.703125 108.5 69.484375 
Q 109.421875 70.515625 110.015625 70.515625 
Q 110.796875 70.515625 110.796875 68.796875 
Q 110.796875 67.4375 110.203125 65.375 
Q 105.765625 43.40625 103.8125 20.609375 
Q 103.515625 17.1875 103.515625 13.71875 
Q 103.515625 9.90625 104 5.421875 
Q 104.15625 3.375 106.390625 2.984375 
Q 109.125 4.5 110.984375 4.6875 
L 111.625 4.6875 
Q 112.3125 4.34375 112.3125 3.90625 
Q 112.3125 1.90625 107.375 -0.484375 
Q 102.4375 -2.875 100 -2.875 
L 99.421875 -2.875 
Q 96.296875 -2.875 95.4375 0.703125 
Q 94.578125 4.296875 94.578125 9.421875 
Q 94.578125 23.296875 99.421875 51.125 
Q 92.671875 43.0625 88.453125 38.0625 
Q 84.234375 33.0625 79.953125 28.15625 
Q 75.6875 23.25 70.671875 17.875 
Q 65.671875 12.5 61.8125 8.6875 
Q 57.03125 3.65625 56 3.421875 
L 55.328125 3.421875 
Q 53.609375 4.25 50.609375 11.40625 
Q 47.609375 18.5625 46.390625 22.703125 
Q 44.046875 30.953125 42.140625 38.765625 
Q 40.234375 46.578125 38.484375 55.078125 
Q 37.640625 50.6875 34.703125 40.5 
Q 31.78125 30.328125 27.921875 19.921875 
Q 24.078125 9.515625 19.75 2.265625 
Q 15.4375 -4.984375 11.53125 -4.984375 
Q 9.03125 -4.984375 5.859375 -3.484375 
Q 2.6875 -2 2.6875 0.203125 
" id="Cmsy10-4d"/>
    </defs>
    <g style="fill:#262626;" transform="translate(154.785546875 245.57890625)scale(0.35 -0.35)">
     <use transform="translate(4.3671875 3.609375)" xlink:href="#Cmr10-5e"/>
     <use transform="translate(0.0 0.734375)" xlink:href="#Cmmi10-bd"/>
     <use transform="translate(56.173125 -16.271875)scale(0.7)" xlink:href="#Cmsy10-4d"/>
    </g>
   </g>
   <g id="text_3">
    <!-- $T(\rho_{0})$ -->
    <defs>
     <path d="M 31 -24.8125 
Q 25.4375 -20.40625 21.40625 -14.71875 
Q 17.390625 -9.03125 14.8125 -2.578125 
Q 12.25 3.859375 10.984375 10.890625 
Q 9.71875 17.921875 9.71875 25 
Q 9.71875 32.171875 10.984375 39.203125 
Q 12.25 46.234375 14.859375 52.734375 
Q 17.484375 59.234375 21.53125 64.890625 
Q 25.59375 70.5625 31 74.8125 
Q 31 75 31.5 75 
L 32.421875 75 
Q 32.71875 75 32.953125 74.734375 
Q 33.203125 74.46875 33.203125 74.125 
Q 33.203125 73.6875 33.015625 73.484375 
Q 28.125 68.703125 24.875 63.234375 
Q 21.625 57.765625 19.640625 51.578125 
Q 17.671875 45.40625 16.796875 38.78125 
Q 15.921875 32.171875 15.921875 25 
Q 15.921875 -6.78125 32.90625 -23.296875 
Q 33.203125 -23.578125 33.203125 -24.125 
Q 33.203125 -24.359375 32.9375 -24.671875 
Q 32.671875 -25 32.421875 -25 
L 31.5 -25 
Q 31 -25 31 -24.8125 
" id="Cmr10-28"/>
     <path d="M 6.5 -25 
Q 5.609375 -25 5.609375 -24.125 
Q 5.609375 -23.6875 5.8125 -23.484375 
Q 22.90625 -6.78125 22.90625 25 
Q 22.90625 56.78125 6 73.296875 
Q 5.609375 73.53125 5.609375 74.125 
Q 5.609375 74.46875 5.875 74.734375 
Q 6.15625 75 6.5 75 
L 7.421875 75 
Q 7.71875 75 7.90625 74.8125 
Q 15.09375 69.140625 19.875 61.03125 
Q 24.65625 52.9375 26.875 43.75 
Q 29.109375 34.578125 29.109375 25 
Q 29.109375 17.921875 27.90625 11.0625 
Q 26.703125 4.203125 24.09375 -2.453125 
Q 21.484375 -9.125 17.484375 -14.765625 
Q 13.484375 -20.40625 7.90625 -24.8125 
Q 7.71875 -25 7.421875 -25 
z
" id="Cmr10-29"/>
     <path d="M 4.59375 1.3125 
Q 4.640625 1.5625 4.8125 2.1875 
Q 4.984375 2.828125 5.25 3.171875 
Q 5.515625 3.515625 6 3.515625 
Q 14.59375 3.515625 17.390625 4 
Q 20.0625 4.6875 20.609375 6.890625 
L 34.28125 61.8125 
Q 34.71875 63.03125 34.71875 64.015625 
Q 34.71875 64.796875 31.203125 64.796875 
L 25.390625 64.796875 
Q 18.703125 64.796875 15.0625 62.734375 
Q 11.421875 60.6875 9.71875 57.3125 
Q 8.015625 53.953125 5.328125 46.296875 
Q 4.984375 45.40625 4.296875 45.40625 
L 3.421875 45.40625 
Q 2.390625 45.40625 2.390625 46.6875 
L 9.515625 67.390625 
Q 9.71875 68.3125 10.5 68.3125 
L 69.578125 68.3125 
Q 70.609375 68.3125 70.609375 67 
L 67.28125 46.296875 
Q 67.28125 46 66.9375 45.703125 
Q 66.609375 45.40625 66.3125 45.40625 
L 65.375 45.40625 
Q 64.40625 45.40625 64.40625 46.6875 
Q 65.484375 53.765625 65.484375 56.6875 
Q 65.484375 60.203125 64.015625 62 
Q 62.546875 63.8125 60.203125 64.296875 
Q 57.859375 64.796875 54.109375 64.796875 
L 48.1875 64.796875 
Q 45.515625 64.796875 44.578125 64.296875 
Q 43.65625 63.8125 43.015625 61.375 
L 29.296875 6.5 
Q 29.25 6.296875 29.21875 6.09375 
Q 29.203125 5.90625 29.109375 5.609375 
Q 29.109375 4.34375 30.609375 4 
Q 33.203125 3.515625 41.703125 3.515625 
Q 42.671875 3.515625 42.671875 2.203125 
Q 42.328125 0.78125 42.125 0.390625 
Q 41.9375 0 41.015625 0 
L 5.609375 0 
Q 4.59375 0 4.59375 1.3125 
" id="Cmmi10-54"/>
    </defs>
    <g style="fill:#262626;" transform="translate(96.285546875 87.17890625)scale(0.35 -0.35)">
     <use xlink:href="#Cmmi10-54"/>
     <use transform="translate(58.3984375 0.0)" xlink:href="#Cmr10-28"/>
     <use transform="translate(97.216796875 0.0)" xlink:href="#Cmmi10-bd"/>
     <use transform="translate(148.92578125 -17.00625)scale(0.7)" xlink:href="#Cmr10-30"/>
     <use transform="translate(190.303125 0.0)" xlink:href="#Cmr10-29"/>
    </g>
   </g>
   <g id="text_4">
    <!-- $\mathcal{M}$ -->
    <g style="fill:#262626;" transform="translate(72.885546875 235.67890625)scale(0.35 -0.35)">
     <use transform="translate(0.0 0.484375)" xlink:href="#Cmsy10-4d"/>
    </g>
   </g>
   <g id="text_5">
    <!-- $\mathcal{M}'$ -->
    <defs>
     <path d="M 3.515625 5.421875 
Q 2.875 5.609375 2.875 6.390625 
L 15.09375 51.8125 
Q 15.671875 53.65625 17.078125 54.78125 
Q 18.5 55.90625 20.3125 55.90625 
Q 22.65625 55.90625 24.4375 54.359375 
Q 26.21875 52.828125 26.21875 50.484375 
Q 26.21875 49.46875 25.6875 48.1875 
L 7.625 4.984375 
Q 7.28125 4.296875 6.6875 4.296875 
Q 6.15625 4.296875 5 4.78125 
Q 3.859375 5.28125 3.515625 5.421875 
" id="Cmsy10-30"/>
    </defs>
    <g style="fill:#262626;" transform="translate(248.385546875 87.17890625)scale(0.35 -0.35)">
     <use transform="translate(0.0 0.484375)" xlink:href="#Cmsy10-4d"/>
     <use transform="translate(124.483671875 38.7484375)scale(0.7)" xlink:href="#Cmsy10-30"/>
    </g>
   </g>
   <g id="text_6">
    <!-- $\hat\rho_{\mathcal{M}'}$ -->
    <g style="fill:#262626;" transform="translate(336.135546875 131.72890625)scale(0.35 -0.35)">
     <use transform="translate(4.3671875 3.609375)" xlink:href="#Cmr10-5e"/>
     <use transform="translate(0.0 0.734375)" xlink:href="#Cmmi10-bd"/>
     <use transform="translate(56.173125 -16.271875)scale(0.7)" xlink:href="#Cmsy10-4d"/>
     <use transform="translate(143.311695313 10.51296875)scale(0.49)" xlink:href="#Cmsy10-30"/>
    </g>
   </g>
   <g id="text_7">
    <!-- Tangent Cone Example (Rebit) -->
    <defs>
     <path d="M 14.703125 0 
L 6.546875 0 
L 6.546875 71.578125 
L 15.328125 71.578125 
L 15.328125 46.046875 
Q 20.90625 53.03125 29.546875 53.03125 
Q 34.328125 53.03125 38.59375 51.09375 
Q 42.875 49.171875 45.625 45.671875 
Q 48.390625 42.1875 49.953125 37.25 
Q 51.515625 32.328125 51.515625 26.703125 
Q 51.515625 13.375 44.921875 6.09375 
Q 38.328125 -1.171875 29.109375 -1.171875 
Q 19.921875 -1.171875 14.703125 6.5 
z
M 14.59375 26.3125 
Q 14.59375 17 17.140625 12.84375 
Q 21.296875 6.0625 28.375 6.0625 
Q 34.125 6.0625 38.328125 11.0625 
Q 42.53125 16.0625 42.53125 25.984375 
Q 42.53125 36.140625 38.5 40.96875 
Q 34.46875 45.796875 28.765625 45.796875 
Q 23 45.796875 18.796875 40.796875 
Q 14.59375 35.796875 14.59375 26.3125 
" id="ArialMT-62"/>
     <path d="M 40.4375 6.390625 
Q 35.546875 2.25 31.03125 0.53125 
Q 26.515625 -1.171875 21.34375 -1.171875 
Q 12.796875 -1.171875 8.203125 3 
Q 3.609375 7.171875 3.609375 13.671875 
Q 3.609375 17.484375 5.34375 20.625 
Q 7.078125 23.78125 9.890625 25.6875 
Q 12.703125 27.59375 16.21875 28.5625 
Q 18.796875 29.25 24.03125 29.890625 
Q 34.671875 31.15625 39.703125 32.90625 
Q 39.75 34.71875 39.75 35.203125 
Q 39.75 40.578125 37.25 42.78125 
Q 33.890625 45.75 27.25 45.75 
Q 21.046875 45.75 18.09375 43.578125 
Q 15.140625 41.40625 13.71875 35.890625 
L 5.125 37.0625 
Q 6.296875 42.578125 8.984375 45.96875 
Q 11.671875 49.359375 16.75 51.1875 
Q 21.828125 53.03125 28.515625 53.03125 
Q 35.15625 53.03125 39.296875 51.46875 
Q 43.453125 49.90625 45.40625 47.53125 
Q 47.359375 45.171875 48.140625 41.546875 
Q 48.578125 39.3125 48.578125 33.453125 
L 48.578125 21.734375 
Q 48.578125 9.46875 49.140625 6.21875 
Q 49.703125 2.984375 51.375 0 
L 42.1875 0 
Q 40.828125 2.734375 40.4375 6.390625 
M 39.703125 26.03125 
Q 34.90625 24.078125 25.34375 22.703125 
Q 19.921875 21.921875 17.671875 20.9375 
Q 15.4375 19.96875 14.203125 18.09375 
Q 12.984375 16.21875 12.984375 13.921875 
Q 12.984375 10.40625 15.640625 8.0625 
Q 18.3125 5.71875 23.4375 5.71875 
Q 28.515625 5.71875 32.46875 7.9375 
Q 36.421875 10.15625 38.28125 14.015625 
Q 39.703125 17 39.703125 22.796875 
z
" id="ArialMT-61"/>
     <path d="M 4.984375 -4.296875 
L 13.53125 -5.5625 
Q 14.0625 -9.515625 16.5 -11.328125 
Q 19.78125 -13.765625 25.4375 -13.765625 
Q 31.546875 -13.765625 34.859375 -11.328125 
Q 38.1875 -8.890625 39.359375 -4.5 
Q 40.046875 -1.8125 39.984375 6.78125 
Q 34.234375 0 25.640625 0 
Q 14.9375 0 9.078125 7.71875 
Q 3.21875 15.4375 3.21875 26.21875 
Q 3.21875 33.640625 5.90625 39.90625 
Q 8.59375 46.1875 13.6875 49.609375 
Q 18.796875 53.03125 25.6875 53.03125 
Q 34.859375 53.03125 40.828125 45.609375 
L 40.828125 51.859375 
L 48.921875 51.859375 
L 48.921875 7.03125 
Q 48.921875 -5.078125 46.453125 -10.125 
Q 44 -15.1875 38.640625 -18.109375 
Q 33.296875 -21.046875 25.484375 -21.046875 
Q 16.21875 -21.046875 10.5 -16.875 
Q 4.78125 -12.703125 4.984375 -4.296875 
M 12.25 26.859375 
Q 12.25 16.65625 16.296875 11.96875 
Q 20.359375 7.28125 26.46875 7.28125 
Q 32.515625 7.28125 36.609375 11.9375 
Q 40.71875 16.609375 40.71875 26.5625 
Q 40.71875 36.078125 36.5 40.90625 
Q 32.28125 45.75 26.3125 45.75 
Q 20.453125 45.75 16.34375 40.984375 
Q 12.25 36.234375 12.25 26.859375 
" id="ArialMT-67"/>
     <path d="M 12.359375 -21.046875 
L 6.0625 -21.046875 
Q 20.65625 2.390625 20.65625 25.875 
Q 20.65625 35.0625 18.5625 44.09375 
Q 16.890625 51.421875 13.921875 58.15625 
Q 12.015625 62.546875 6.0625 72.796875 
L 12.359375 72.796875 
Q 21.53125 60.546875 25.921875 48.1875 
Q 29.6875 37.546875 29.6875 25.921875 
Q 29.6875 12.75 24.625 0.4375 
Q 19.578125 -11.859375 12.359375 -21.046875 
" id="ArialMT-29"/>
     <path d="M 42.09375 16.703125 
L 51.171875 15.578125 
Q 49.03125 7.625 43.21875 3.21875 
Q 37.40625 -1.171875 28.375 -1.171875 
Q 17 -1.171875 10.328125 5.828125 
Q 3.65625 12.84375 3.65625 25.484375 
Q 3.65625 38.578125 10.390625 45.796875 
Q 17.140625 53.03125 27.875 53.03125 
Q 38.28125 53.03125 44.875 45.953125 
Q 51.46875 38.875 51.46875 26.03125 
Q 51.46875 25.25 51.421875 23.6875 
L 12.75 23.6875 
Q 13.234375 15.140625 17.578125 10.59375 
Q 21.921875 6.0625 28.421875 6.0625 
Q 33.25 6.0625 36.671875 8.59375 
Q 40.09375 11.140625 42.09375 16.703125 
M 13.234375 30.90625 
L 42.1875 30.90625 
Q 41.609375 37.453125 38.875 40.71875 
Q 34.671875 45.796875 27.984375 45.796875 
Q 21.921875 45.796875 17.796875 41.75 
Q 13.671875 37.703125 13.234375 30.90625 
" id="ArialMT-65"/>
     <path d="M 25.78125 7.859375 
L 27.046875 0.09375 
Q 23.34375 -0.6875 20.40625 -0.6875 
Q 15.625 -0.6875 12.984375 0.828125 
Q 10.359375 2.34375 9.28125 4.8125 
Q 8.203125 7.28125 8.203125 15.1875 
L 8.203125 45.015625 
L 1.765625 45.015625 
L 1.765625 51.859375 
L 8.203125 51.859375 
L 8.203125 64.703125 
L 16.9375 69.96875 
L 16.9375 51.859375 
L 25.78125 51.859375 
L 25.78125 45.015625 
L 16.9375 45.015625 
L 16.9375 14.703125 
Q 16.9375 10.9375 17.40625 9.859375 
Q 17.875 8.796875 18.921875 8.15625 
Q 19.96875 7.515625 21.921875 7.515625 
Q 23.390625 7.515625 25.78125 7.859375 
" id="ArialMT-74"/>
     <path d="M 6.59375 -19.875 
L 6.59375 51.859375 
L 14.59375 51.859375 
L 14.59375 45.125 
Q 17.4375 49.078125 21 51.046875 
Q 24.5625 53.03125 29.640625 53.03125 
Q 36.28125 53.03125 41.359375 49.609375 
Q 46.4375 46.1875 49.015625 39.953125 
Q 51.609375 33.734375 51.609375 26.3125 
Q 51.609375 18.359375 48.75 11.984375 
Q 45.90625 5.609375 40.453125 2.21875 
Q 35.015625 -1.171875 29 -1.171875 
Q 24.609375 -1.171875 21.109375 0.6875 
Q 17.625 2.546875 15.375 5.375 
L 15.375 -19.875 
z
M 14.546875 25.640625 
Q 14.546875 15.625 18.59375 10.84375 
Q 22.65625 6.0625 28.421875 6.0625 
Q 34.28125 6.0625 38.453125 11.015625 
Q 42.625 15.96875 42.625 26.375 
Q 42.625 36.28125 38.546875 41.203125 
Q 34.46875 46.140625 28.8125 46.140625 
Q 23.1875 46.140625 18.859375 40.890625 
Q 14.546875 35.640625 14.546875 25.640625 
" id="ArialMT-70"/>
     <path d="M 58.796875 25.09375 
L 68.265625 22.703125 
Q 65.28125 11.03125 57.546875 4.90625 
Q 49.8125 -1.21875 38.625 -1.21875 
Q 27.046875 -1.21875 19.796875 3.484375 
Q 12.546875 8.203125 8.765625 17.140625 
Q 4.984375 26.078125 4.984375 36.328125 
Q 4.984375 47.515625 9.25 55.828125 
Q 13.53125 64.15625 21.40625 68.46875 
Q 29.296875 72.796875 38.765625 72.796875 
Q 49.515625 72.796875 56.828125 67.328125 
Q 64.15625 61.859375 67.046875 51.953125 
L 57.71875 49.75 
Q 55.21875 57.5625 50.484375 61.125 
Q 45.75 64.703125 38.578125 64.703125 
Q 30.328125 64.703125 24.78125 60.734375 
Q 19.234375 56.78125 16.984375 50.109375 
Q 14.75 43.453125 14.75 36.375 
Q 14.75 27.25 17.40625 20.4375 
Q 20.0625 13.625 25.671875 10.25 
Q 31.296875 6.890625 37.84375 6.890625 
Q 45.796875 6.890625 51.3125 11.46875 
Q 56.84375 16.0625 58.796875 25.09375 
" id="ArialMT-43"/>
     <path d="M 23.390625 -21.046875 
Q 16.109375 -11.859375 11.078125 0.4375 
Q 6.0625 12.75 6.0625 25.921875 
Q 6.0625 37.546875 9.8125 48.1875 
Q 14.203125 60.546875 23.390625 72.796875 
L 29.6875 72.796875 
Q 23.78125 62.640625 21.875 58.296875 
Q 18.890625 51.5625 17.1875 44.234375 
Q 15.09375 35.109375 15.09375 25.875 
Q 15.09375 2.390625 29.6875 -21.046875 
z
" id="ArialMT-28"/>
     <path d="M 7.90625 0 
L 7.90625 71.578125 
L 59.671875 71.578125 
L 59.671875 63.140625 
L 17.390625 63.140625 
L 17.390625 41.21875 
L 56.984375 41.21875 
L 56.984375 32.8125 
L 17.390625 32.8125 
L 17.390625 8.453125 
L 61.328125 8.453125 
L 61.328125 0 
z
" id="ArialMT-45"/>
     <path d="M 25.921875 0 
L 25.921875 63.140625 
L 2.34375 63.140625 
L 2.34375 71.578125 
L 59.078125 71.578125 
L 59.078125 63.140625 
L 35.40625 63.140625 
L 35.40625 0 
z
" id="ArialMT-54"/>
     <path d="M 6.390625 0 
L 6.390625 71.578125 
L 15.1875 71.578125 
L 15.1875 0 
z
" id="ArialMT-6c"/>
     <path d="M 7.859375 0 
L 7.859375 71.578125 
L 39.59375 71.578125 
Q 49.171875 71.578125 54.140625 69.640625 
Q 59.125 67.71875 62.109375 62.828125 
Q 65.09375 57.953125 65.09375 52.046875 
Q 65.09375 44.4375 60.15625 39.203125 
Q 55.21875 33.984375 44.921875 32.5625 
Q 48.6875 30.765625 50.640625 29 
Q 54.78125 25.203125 58.5 19.484375 
L 70.953125 0 
L 59.03125 0 
L 49.5625 14.890625 
Q 45.40625 21.34375 42.71875 24.75 
Q 40.046875 28.171875 37.921875 29.53125 
Q 35.796875 30.90625 33.59375 31.453125 
Q 31.984375 31.78125 28.328125 31.78125 
L 17.328125 31.78125 
L 17.328125 0 
z
M 17.328125 39.984375 
L 37.703125 39.984375 
Q 44.1875 39.984375 47.84375 41.328125 
Q 51.515625 42.671875 53.421875 45.625 
Q 55.328125 48.578125 55.328125 52.046875 
Q 55.328125 57.125 51.640625 60.390625 
Q 47.953125 63.671875 39.984375 63.671875 
L 17.328125 63.671875 
z
" id="ArialMT-52"/>
     <path d="M 3.328125 25.921875 
Q 3.328125 40.328125 11.328125 47.265625 
Q 18.015625 53.03125 27.640625 53.03125 
Q 38.328125 53.03125 45.109375 46.015625 
Q 51.90625 39.015625 51.90625 26.65625 
Q 51.90625 16.65625 48.90625 10.90625 
Q 45.90625 5.171875 40.15625 2 
Q 34.421875 -1.171875 27.640625 -1.171875 
Q 16.75 -1.171875 10.03125 5.8125 
Q 3.328125 12.796875 3.328125 25.921875 
M 12.359375 25.921875 
Q 12.359375 15.96875 16.703125 11.015625 
Q 21.046875 6.0625 27.640625 6.0625 
Q 34.1875 6.0625 38.53125 11.03125 
Q 42.875 16.015625 42.875 26.21875 
Q 42.875 35.84375 38.5 40.796875 
Q 34.125 45.75 27.640625 45.75 
Q 21.046875 45.75 16.703125 40.8125 
Q 12.359375 35.890625 12.359375 25.921875 
" id="ArialMT-6f"/>
     <path d="M 6.59375 0 
L 6.59375 51.859375 
L 14.5 51.859375 
L 14.5 44.484375 
Q 20.21875 53.03125 31 53.03125 
Q 35.6875 53.03125 39.625 51.34375 
Q 43.5625 49.65625 45.515625 46.921875 
Q 47.46875 44.1875 48.25 40.4375 
Q 48.734375 37.984375 48.734375 31.890625 
L 48.734375 0 
L 39.9375 0 
L 39.9375 31.546875 
Q 39.9375 36.921875 38.90625 39.578125 
Q 37.890625 42.234375 35.28125 43.8125 
Q 32.671875 45.40625 29.15625 45.40625 
Q 23.53125 45.40625 19.453125 41.84375 
Q 15.375 38.28125 15.375 28.328125 
L 15.375 0 
z
" id="ArialMT-6e"/>
     <path d="M 6.59375 0 
L 6.59375 51.859375 
L 14.453125 51.859375 
L 14.453125 44.578125 
Q 16.890625 48.390625 20.9375 50.703125 
Q 25 53.03125 30.171875 53.03125 
Q 35.9375 53.03125 39.625 50.640625 
Q 43.3125 48.25 44.828125 43.953125 
Q 50.984375 53.03125 60.84375 53.03125 
Q 68.5625 53.03125 72.703125 48.75 
Q 76.859375 44.484375 76.859375 35.59375 
L 76.859375 0 
L 68.109375 0 
L 68.109375 32.671875 
Q 68.109375 37.9375 67.25 40.25 
Q 66.40625 42.578125 64.15625 43.984375 
Q 61.921875 45.40625 58.890625 45.40625 
Q 53.421875 45.40625 49.796875 41.765625 
Q 46.1875 38.140625 46.1875 30.125 
L 46.1875 0 
L 37.40625 0 
L 37.40625 33.6875 
Q 37.40625 39.546875 35.25 42.46875 
Q 33.109375 45.40625 28.21875 45.40625 
Q 24.515625 45.40625 21.359375 43.453125 
Q 18.21875 41.5 16.796875 37.734375 
Q 15.375 33.984375 15.375 26.90625 
L 15.375 0 
z
" id="ArialMT-6d"/>
     <path d="M 0.734375 0 
L 19.671875 26.953125 
L 2.15625 51.859375 
L 13.140625 51.859375 
L 21.09375 39.703125 
Q 23.34375 36.234375 24.703125 33.890625 
Q 26.859375 37.109375 28.65625 39.59375 
L 37.40625 51.859375 
L 47.90625 51.859375 
L 29.984375 27.4375 
L 49.265625 0 
L 38.484375 0 
L 27.828125 16.109375 
L 25 20.453125 
L 11.375 0 
z
" id="ArialMT-78"/>
     <path d="M 6.640625 61.46875 
L 6.640625 71.578125 
L 15.4375 71.578125 
L 15.4375 61.46875 
z
M 6.640625 0 
L 6.640625 51.859375 
L 15.4375 51.859375 
L 15.4375 0 
z
" id="ArialMT-69"/>
     <path id="ArialMT-20"/>
    </defs>
    <g style="fill:#262626;" transform="translate(7.2 32.67890625)scale(0.35 -0.35)">
     <use xlink:href="#ArialMT-54"/>
     <use x="60.912109375" xlink:href="#ArialMT-61"/>
     <use x="116.52734375" xlink:href="#ArialMT-6e"/>
     <use x="172.142578125" xlink:href="#ArialMT-67"/>
     <use x="227.7578125" xlink:href="#ArialMT-65"/>
     <use x="283.373046875" xlink:href="#ArialMT-6e"/>
     <use x="338.98828125" xlink:href="#ArialMT-74"/>
     <use x="366.771484375" xlink:href="#ArialMT-20"/>
     <use x="394.5546875" xlink:href="#ArialMT-43"/>
     <use x="466.771484375" xlink:href="#ArialMT-6f"/>
     <use x="522.38671875" xlink:href="#ArialMT-6e"/>
     <use x="578.001953125" xlink:href="#ArialMT-65"/>
     <use x="633.6171875" xlink:href="#ArialMT-20"/>
     <use x="661.400390625" xlink:href="#ArialMT-45"/>
     <use x="728.099609375" xlink:href="#ArialMT-78"/>
     <use x="778.099609375" xlink:href="#ArialMT-61"/>
     <use x="833.71484375" xlink:href="#ArialMT-6d"/>
     <use x="917.015625" xlink:href="#ArialMT-70"/>
     <use x="972.630859375" xlink:href="#ArialMT-6c"/>
     <use x="994.84765625" xlink:href="#ArialMT-65"/>
     <use x="1050.46289062" xlink:href="#ArialMT-20"/>
     <use x="1078.24609375" xlink:href="#ArialMT-28"/>
     <use x="1111.546875" xlink:href="#ArialMT-52"/>
     <use x="1183.76367188" xlink:href="#ArialMT-65"/>
     <use x="1239.37890625" xlink:href="#ArialMT-62"/>
     <use x="1294.99414062" xlink:href="#ArialMT-69"/>
     <use x="1317.2109375" xlink:href="#ArialMT-74"/>
     <use x="1344.99414062" xlink:href="#ArialMT-29"/>
    </g>
   </g>
   <g id="line2d_53">
    <path clip-path="url(#p5dc68ff35f)" d="M 365.385547 334.678906 
" style="fill:none;stroke:#66c2a5;stroke-linecap:round;stroke-width:1.75;"/>
    <defs>
     <path d="M 0 -25 
L -7.347316 -10.112712 
L -23.776413 -7.725425 
L -11.888206 3.862712 
L -14.694631 20.225425 
L -0 12.5 
L 14.694631 20.225425 
L 11.888206 3.862712 
L 23.776413 -7.725425 
L 7.347316 -10.112712 
z
" id="m100f9c5560" style="stroke:#000000;stroke-linejoin:bevel;stroke-width:4.0;"/>
    </defs>
    <g clip-path="url(#p5dc68ff35f)">
     <use style="fill:#66c2a5;stroke:#000000;stroke-linejoin:bevel;stroke-width:4.0;" x="365.385546875" xlink:href="#m100f9c5560" y="334.67890625"/>
    </g>
   </g>
  </g>
 </g>
 <defs>
  <clipPath id="p5dc68ff35f">
   <rect height="396.0" width="468.0" x="14.385546875" y="37.67890625"/>
  </clipPath>
 </defs>
</svg>
