<?xml version="1.0" encoding="utf-8" standalone="no"?>
<!DOCTYPE svg PUBLIC "-//W3C//DTD SVG 1.1//EN"
  "http://www.w3.org/Graphics/SVG/1.1/DTD/svg11.dtd">
<!-- Created with matplotlib (http://matplotlib.org/) -->
<svg height="451pt" version="1.1" viewBox="0 0 868 451" width="868pt" xmlns="http://www.w3.org/2000/svg" xmlns:xlink="http://www.w3.org/1999/xlink">
 <defs>
  <style type="text/css">
*{stroke-linecap:butt;stroke-linejoin:round;}
  </style>
 </defs>
 <g id="figure_1">
  <g id="patch_1">
   <path d="M 0 451.750292 
L 868.106874 451.750292 
L 868.106874 0 
L 0 0 
z
" style="fill:#ffffff;"/>
  </g>
  <g id="axes_1">
   <g id="patch_2">
    <path d="M 127.199731 367.2 
L 847.199731 367.2 
L 847.199731 7.2 
L 127.199731 7.2 
z
" style="fill:#eaeaf2;"/>
   </g>
   <g id="matplotlib.axis_1">
    <g id="xtick_1">
     <g id="line2d_1">
      <path clip-path="url(#p4aa51d978e)" d="M 204.342588 367.2 
L 204.342588 7.2 
" style="fill:none;stroke:#ffffff;stroke-linecap:round;"/>
     </g>
     <g id="line2d_2"/>
     <g id="text_1">
      <!-- $5$ -->
      <defs>
       <path d="M 11.40625 57.6875 
C 12.40625 57.28125 16.5 56 20.703125 56 
C 30 56 35.09375 61.109375 38 64.0625 
C 38 64.953125 38 65.5 37.40625 65.5 
C 37.296875 65.5 37.09375 65.5 36.296875 65.046875 
C 32.796875 63.40625 28.703125 62.078125 23.703125 62.078125 
C 20.703125 62.078125 16.203125 62.484375 11.296875 64.671875 
C 10.203125 65.171875 10 65.171875 9.90625 65.171875 
C 9.40625 65.171875 9.296875 65.0625 9.296875 63.078125 
L 9.296875 34.421875 
C 9.296875 32.640625 9.296875 32.140625 10.296875 32.140625 
C 10.796875 32.140625 11 32.34375 11.5 33.03125 
C 14.703125 37.515625 19.09375 39.40625 24.09375 39.40625 
C 27.59375 39.40625 35.09375 37.21875 35.09375 20.140625 
C 35.09375 16.953125 35.09375 11.171875 32.09375 6.578125 
C 29.59375 2.484375 25.703125 0.390625 21.40625 0.390625 
C 14.796875 0.390625 8.09375 5 6.296875 12.71875 
C 6.703125 12.609375 7.5 12.421875 7.90625 12.421875 
C 9.203125 12.421875 11.703125 13.125 11.703125 16.21875 
C 11.703125 18.90625 9.796875 20 7.90625 20 
C 5.59375 20 4.09375 18.59375 4.09375 15.796875 
C 4.09375 7.09375 11 -2 21.59375 -2 
C 31.90625 -2 41.703125 6.875 41.703125 19.75 
C 41.703125 31.71875 33.90625 41 24.203125 41 
C 19.09375 41 14.796875 39.109375 11.40625 35.53125 
z
" id="CMR17-53"/>
      </defs>
      <g style="fill:#262626;" transform="translate(197.489017 394.955495)scale(0.3 -0.3)">
       <use transform="scale(0.996264)" xlink:href="#CMR17-53"/>
      </g>
     </g>
    </g>
    <g id="xtick_2">
     <g id="line2d_3">
      <path clip-path="url(#p4aa51d978e)" d="M 332.914017 367.2 
L 332.914017 7.2 
" style="fill:none;stroke:#ffffff;stroke-linecap:round;"/>
     </g>
     <g id="line2d_4"/>
     <g id="text_2">
      <!-- $10$ -->
      <defs>
       <path d="M 26.59375 63.40625 
C 26.59375 65.5 26.5 65.5 25.09375 65.5 
C 21.203125 61.1875 15.296875 59.796875 9.703125 59.796875 
C 9.40625 59.796875 8.90625 59.796875 8.796875 59.5 
C 8.703125 59.296875 8.703125 59.09375 8.703125 57 
C 11.796875 57 17 57.59375 21 59.984375 
L 21 7.203125 
C 21 3.6875 20.796875 2.5 12.203125 2.5 
L 9.203125 2.5 
L 9.203125 0 
C 14 0 19 0 23.796875 0 
C 28.59375 0 33.59375 0 38.40625 0 
L 38.40625 2.5 
L 35.40625 2.5 
C 26.796875 2.5 26.59375 3.59375 26.59375 7.15625 
z
" id="CMR17-49"/>
       <path d="M 42 31.640625 
C 42 37.75 41.90625 48.125 37.703125 56.109375 
C 34 63.109375 28.09375 65.59375 22.90625 65.59375 
C 18.09375 65.59375 12 63.40625 8.203125 56.203125 
C 4.203125 48.71875 3.796875 39.4375 3.796875 31.640625 
C 3.796875 25.953125 3.90625 17.28125 7 9.671875 
C 11.296875 -0.609375 19 -2 22.90625 -2 
C 27.5 -2 34.5 -0.109375 38.59375 9.375 
C 41.59375 16.28125 42 24.359375 42 31.640625 
z
M 22.90625 -0.40625 
C 16.5 -0.40625 12.703125 5.078125 11.296875 12.6875 
C 10.203125 18.5625 10.203125 27.15625 10.203125 32.75 
C 10.203125 40.4375 10.203125 46.828125 11.5 52.921875 
C 13.40625 61.390625 19 64 22.90625 64 
C 27 64 32.296875 61.296875 34.203125 53.125 
C 35.5 47.4375 35.59375 40.734375 35.59375 32.75 
C 35.59375 26.25 35.59375 18.265625 34.40625 12.375 
C 32.296875 1.484375 26.40625 -0.40625 22.90625 -0.40625 
z
" id="CMR17-48"/>
      </defs>
      <g style="fill:#262626;" transform="translate(319.206874 394.955495)scale(0.3 -0.3)">
       <use transform="scale(0.996264)" xlink:href="#CMR17-49"/>
       <use transform="translate(45.690477 0)scale(0.996264)" xlink:href="#CMR17-48"/>
      </g>
     </g>
    </g>
    <g id="xtick_3">
     <g id="line2d_5">
      <path clip-path="url(#p4aa51d978e)" d="M 461.485446 367.2 
L 461.485446 7.2 
" style="fill:none;stroke:#ffffff;stroke-linecap:round;"/>
     </g>
     <g id="line2d_6"/>
     <g id="text_3">
      <!-- $15$ -->
      <g style="fill:#262626;" transform="translate(447.778302 394.955495)scale(0.3 -0.3)">
       <use transform="scale(0.996264)" xlink:href="#CMR17-49"/>
       <use transform="translate(45.690477 0)scale(0.996264)" xlink:href="#CMR17-53"/>
      </g>
     </g>
    </g>
    <g id="xtick_4">
     <g id="line2d_7">
      <path clip-path="url(#p4aa51d978e)" d="M 590.056874 367.2 
L 590.056874 7.2 
" style="fill:none;stroke:#ffffff;stroke-linecap:round;"/>
     </g>
     <g id="line2d_8"/>
     <g id="text_4">
      <!-- $20$ -->
      <defs>
       <path d="M 41.703125 15.453125 
L 39.90625 15.453125 
C 38.90625 8.375 38.09375 7.171875 37.703125 6.5625 
C 37.203125 5.765625 30 5.765625 28.59375 5.765625 
L 9.40625 5.765625 
C 13 9.671875 20 16.75 28.5 24.953125 
C 34.59375 30.734375 41.703125 37.53125 41.703125 47.421875 
C 41.703125 59.21875 32.296875 66 21.796875 66 
C 10.796875 66 4.09375 56.3125 4.09375 47.34375 
C 4.09375 43.4375 7 42.9375 8.203125 42.9375 
C 9.203125 42.9375 12.203125 43.546875 12.203125 47.03125 
C 12.203125 50.109375 9.59375 51 8.203125 51 
C 7.59375 51 7 50.90625 6.59375 50.703125 
C 8.5 59.21875 14.296875 63.40625 20.40625 63.40625 
C 29.09375 63.40625 34.796875 56.515625 34.796875 47.421875 
C 34.796875 38.734375 29.703125 31.25 24 24.75 
L 4.09375 2.28125 
L 4.09375 0 
L 39.296875 0 
z
" id="CMR17-50"/>
      </defs>
      <g style="fill:#262626;" transform="translate(576.349731 394.955495)scale(0.3 -0.3)">
       <use transform="scale(0.996264)" xlink:href="#CMR17-50"/>
       <use transform="translate(45.690477 0)scale(0.996264)" xlink:href="#CMR17-48"/>
      </g>
     </g>
    </g>
    <g id="xtick_5">
     <g id="line2d_9">
      <path clip-path="url(#p4aa51d978e)" d="M 718.628303 367.2 
L 718.628303 7.2 
" style="fill:none;stroke:#ffffff;stroke-linecap:round;"/>
     </g>
     <g id="line2d_10"/>
     <g id="text_5">
      <!-- $25$ -->
      <g style="fill:#262626;" transform="translate(704.92116 394.955495)scale(0.3 -0.3)">
       <use transform="scale(0.996264)" xlink:href="#CMR17-50"/>
       <use transform="translate(45.690477 0)scale(0.996264)" xlink:href="#CMR17-53"/>
      </g>
     </g>
    </g>
    <g id="xtick_6">
     <g id="line2d_11">
      <path clip-path="url(#p4aa51d978e)" d="M 847.199731 367.2 
L 847.199731 7.2 
" style="fill:none;stroke:#ffffff;stroke-linecap:round;"/>
     </g>
     <g id="line2d_12"/>
     <g id="text_6">
      <!-- $30$ -->
      <defs>
       <path d="M 22.09375 33.703125 
C 31 33.703125 34.90625 25.96875 34.90625 17.03125 
C 34.90625 5 28.5 0.390625 22.703125 0.390625 
C 17.40625 0.390625 8.796875 3.03125 6.09375 10.828125 
C 6.59375 10.625 7.09375 10.625 7.59375 10.625 
C 10 10.625 11.796875 12.21875 11.796875 14.8125 
C 11.796875 17.703125 9.59375 19 7.59375 19 
C 5.90625 19 3.296875 18.203125 3.296875 14.46875 
C 3.296875 5.234375 12.296875 -2 22.90625 -2 
C 34 -2 42.5 6.71875 42.5 16.953125 
C 42.5 26.671875 34.5 33.6875 25 34.796875 
C 32.59375 36.375 39.90625 43.0625 39.90625 52.015625 
C 39.90625 59.6875 32 65.296875 23 65.296875 
C 13.90625 65.296875 5.90625 59.828125 5.90625 52.015625 
C 5.90625 48.59375 8.5 48 9.796875 48 
C 11.90625 48 13.703125 49.296875 13.703125 51.890625 
C 13.703125 54.46875 11.90625 55.765625 9.796875 55.765625 
C 9.40625 55.765625 8.90625 55.765625 8.5 55.578125 
C 11.40625 61.859375 19.296875 63 22.796875 63 
C 26.296875 63 32.90625 61.328125 32.90625 51.875 
C 32.90625 49.109375 32.5 44.1875 29.09375 39.84375 
C 26.09375 36 22.703125 36 19.40625 35.6875 
C 18.90625 35.6875 16.59375 35.453125 16.203125 35.453125 
C 15.5 35.359375 15.09375 35.265625 15.09375 34.5 
C 15.09375 33.796875 15.203125 33.703125 17.203125 33.703125 
z
" id="CMR17-51"/>
      </defs>
      <g style="fill:#262626;" transform="translate(833.492588 394.955495)scale(0.3 -0.3)">
       <use transform="scale(0.996264)" xlink:href="#CMR17-51"/>
       <use transform="translate(45.690477 0)scale(0.996264)" xlink:href="#CMR17-48"/>
      </g>
     </g>
    </g>
    <g id="text_7">
     <!-- $d$ (Hilbert Space Dimension) -->
     <defs>
      <path d="M 50.296875 66.515625 
C 50.40625 66.90625 50.59375 67.5 50.59375 68 
C 50.59375 69 49.59375 69 49.40625 69 
C 49.296875 69 44.40625 68.5625 43.90625 68.4375 
C 42.203125 68.328125 40.703125 68.09375 38.90625 68.09375 
C 36.40625 67.890625 35.703125 67.796875 35.703125 66 
C 35.703125 65 36.5 65 37.90625 65 
C 42.796875 65 42.90625 64.109375 42.90625 63.125 
C 42.90625 62.53125 42.703125 61.75 42.59375 61.453125 
L 36.5 37.421875 
C 35.40625 40.015625 32.703125 44 27.5 44 
C 16.203125 44 4 29.4375 4 14.671875 
C 4 4.796875 9.796875 -1 16.59375 -1 
C 22.09375 -1 26.796875 3.296875 29.59375 6.59375 
C 30.59375 0.703125 35.296875 -1 38.296875 -1 
C 41.296875 -1 43.703125 0.796875 45.5 4.390625 
C 47.09375 7.78125 48.5 13.875 48.5 14.265625 
C 48.5 14.765625 48.09375 15.171875 47.5 15.171875 
C 46.59375 15.171875 46.5 14.671875 46.09375 13.171875 
C 44.59375 7.28125 42.703125 1 38.59375 1 
C 35.703125 1 35.5 3.578125 35.5 5.578125 
C 35.5 5.96875 35.5 8.046875 36.203125 10.84375 
z
M 30.09375 11.875 
C 29.59375 10.171875 29.59375 9.984375 28.203125 8.078125 
C 26 5.28125 21.59375 1 16.90625 1 
C 12.796875 1 10.5 4.6875 10.5 10.578125 
C 10.5 16.0625 13.59375 27.234375 15.5 31.4375 
C 18.90625 38.421875 23.59375 42.015625 27.5 42.015625 
C 34.09375 42.015625 35.40625 33.828125 35.40625 33.03125 
C 35.40625 32.9375 35.09375 31.625 35 31.4375 
z
" id="CMMI12-100"/>
      <path d="M 25.203125 74.5 
C 19.796875 69.015625 7.40625 56.265625 7.40625 24.8125 
C 7.40625 -6.765625 19.796875 -19.421875 25.203125 -25 
L 31.296875 -25 
C 19 -12.25 15 5.578125 15 24.6875 
C 15 43.71875 18.796875 61.65625 31.296875 74.5 
z
" id="CMSS17-40"/>
      <path d="M 57.40625 69 
L 49 69 
L 49 39.078125 
L 17.203125 39.078125 
L 17.203125 69 
L 8.796875 69 
L 8.796875 0 
L 17.203125 0 
L 17.203125 33 
L 49 33 
L 49 0 
L 57.40625 0 
z
" id="CMSS17-72"/>
      <path d="M 15.296875 65.359375 
L 6.90625 65.359375 
L 6.90625 57 
L 15.296875 57 
z
M 14.796875 42.796875 
L 7.40625 42.796875 
L 7.40625 0 
L 14.796875 0 
z
" id="CMSS17-105"/>
      <path d="M 14.796875 69 
L 7.40625 69 
L 7.40625 0 
L 14.796875 0 
z
" id="CMSS17-108"/>
      <path d="M 14.90625 69 
L 7.5 69 
L 7.5 -0.203125 
L 15.09375 -0.203125 
L 15.09375 4.28125 
C 18.90625 0.59375 23.5 -1 27.59375 -1 
C 37.203125 -1 45 8.578125 45 21.125 
C 45 32.59375 39 43.0625 30.09375 43.0625 
C 23.796875 43.0625 18.203125 40.484375 14.90625 37.796875 
z
M 15.09375 31.96875 
C 17.296875 34.71875 20.40625 37 24.796875 37 
C 30.703125 37 37.40625 32.765625 37.40625 21.125 
C 37.40625 8.71875 29.40625 5.078125 23.90625 5.078125 
C 21.90625 5.078125 19.796875 5.5625 17.796875 7.25 
C 15.09375 9.609375 15.09375 11.078125 15.09375 12.453125 
z
" id="CMSS17-98"/>
      <path d="M 39.09375 21.515625 
C 39.09375 24.84375 38.90625 31.296875 35.703125 36.640625 
C 32.203125 42.390625 26.5 44 22.203125 44 
C 11.796875 44 3 34.1875 3 21.484375 
C 3 9.09375 12.09375 -1 23.59375 -1 
C 28.09375 -1 33.59375 0.296875 38.59375 3.875 
C 38.59375 4.28125 38.40625 6.46875 38.296875 6.5625 
C 38.296875 6.765625 38 9.84375 38 10.25 
C 33.203125 6.359375 27.703125 5.078125 23.703125 5.078125 
C 17.296875 5.078125 10.40625 10.421875 10.09375 21.515625 
z
M 10.90625 27 
C 12.203125 32.5625 16.59375 37.828125 22.203125 37.828125 
C 23.703125 37.828125 30.703125 37.828125 32.5 27 
z
" id="CMSS17-101"/>
      <path d="M 14.90625 21.296875 
C 14.90625 30.703125 21.796875 37 30.59375 37 
L 30.59375 43.578125 
C 24.203125 43.578125 18.203125 40.390625 14.59375 35.203125 
L 14.59375 43.09375 
L 7.5 43.09375 
L 7.5 0 
L 14.90625 0 
z
" id="CMSS17-114"/>
      <path d="M 16.703125 37 
L 29.703125 37 
L 29.703125 42.765625 
L 16.703125 42.765625 
L 16.703125 55 
L 9.59375 55 
L 9.59375 42.765625 
L 1.703125 42.765625 
L 1.703125 37 
L 9.40625 37 
L 9.40625 11.703125 
C 9.40625 6 10.703125 -1 17.296875 -1 
C 22.296875 -1 26.90625 0.390625 31.296875 2.6875 
L 29.703125 8.5625 
C 27.296875 6.46875 24.40625 5.265625 21.296875 5.265625 
C 16.90625 5.265625 16.703125 10.875 16.703125 13.375 
z
" id="CMSS17-116"/>
      <path d="M 43.703125 65.140625 
C 39.296875 67.71875 34.5 70 26.40625 70 
C 13.5 70 5.203125 60.609375 5.203125 51.03125 
C 5.203125 47.265625 6.296875 43.015625 10.203125 38.671875 
C 14.09375 34.3125 18.5 33.140625 24.09375 31.765625 
C 26.40625 31.15625 30.296875 30.0625 31 29.78125 
C 36.59375 27.609375 39.296875 22.5625 39.296875 17.8125 
C 39.296875 11.59375 34.40625 4.96875 25.703125 4.96875 
C 22.703125 4.96875 13.90625 4.96875 5.59375 12.796875 
L 4.203125 4.96875 
C 12.40625 -1 21.296875 -2 25.796875 -2 
C 38.09375 -2 46.90625 7.625 46.90625 18.53125 
C 46.90625 22.5 45.703125 27.546875 41.5 32.203125 
C 37.40625 36.671875 33.796875 37.65625 25.59375 39.828125 
C 20.90625 41.03125 17.90625 41.828125 15.40625 44.890625 
C 13.703125 47.078125 12.796875 49.15625 12.796875 51.828125 
C 12.796875 57.390625 17.59375 63.4375 26.40625 63.4375 
C 30.796875 63.4375 36.5 62.53125 42.296875 57.1875 
z
" id="CMSS17-83"/>
      <path d="M 15.09375 5.203125 
C 18.40625 2.015625 22.90625 -0.078125 27.703125 -0.078125 
C 37 -0.078125 45 9.421875 45 22.0625 
C 45 33.734375 39 44 30.40625 44 
C 25.40625 44 19.40625 42.21875 14.90625 38.625 
L 14.90625 43.203125 
L 7.5 43.203125 
L 7.5 -19 
L 15.09375 -19 
z
M 15.09375 32.8125 
C 15.90625 34 19.296875 37.734375 24.796875 37.734375 
C 31.796875 37.734375 37.40625 30.625 37.40625 22.0625 
C 37.40625 12.296875 30.59375 6 23.90625 6 
C 21.90625 6 19.796875 6.484375 17.796875 8.171875 
C 15.09375 10.53125 15.09375 12 15.09375 13.390625 
z
" id="CMSS17-112"/>
      <path d="M 37.59375 27.984375 
C 37.59375 37.375 30.90625 43.875 21.90625 43.875 
C 17.5 43.875 12.703125 43.078125 7.203125 39.890625 
L 7.796875 33.359375 
C 10.296875 35.125 14.59375 38 21.796875 38 
C 26.90625 38 30 34.0625 30 27.84375 
L 30 24 
C 14 24 4 19.34375 4 11.34375 
C 4 7.203125 6.5 -1 14.796875 -1 
C 16.296875 -1 24.40625 -1 30.203125 3.390625 
L 30.203125 -0.296875 
L 37.59375 -0.296875 
z
M 30 12.75 
C 30 10.953125 30 8.5625 27 6.78125 
C 24.40625 5.078125 21.09375 5.078125 19.703125 5.078125 
C 14.703125 5.078125 11.296875 7.984375 11.296875 11.625 
C 11.296875 18.921875 26.90625 18.921875 30 18.921875 
z
" id="CMSS17-97"/>
      <path d="M 38.5 39.703125 
C 38.5 40.390625 33.90625 42.40625 32.703125 42.796875 
C 29.40625 44 25.203125 44 24.09375 44 
C 11.09375 44 3.296875 32.703125 3.296875 21.296875 
C 3.296875 9.296875 12 -1 23.703125 -1 
C 30.40625 -1 35.203125 1.1875 39.09375 3.78125 
L 38.5 10.375 
C 34.203125 7.078125 29.203125 5.265625 23.796875 5.265625 
C 16 5.265625 10.90625 12.09375 10.90625 21.390625 
C 10.90625 28.609375 14.203125 37.71875 24.203125 37.71875 
C 29.703125 37.71875 32.796875 36.609375 37.40625 33.515625 
z
" id="CMSS17-99"/>
      <path d="M 8.90625 69 
L 8.90625 0 
L 33.5 0 
C 49.90625 0 62.5 15.3125 62.5 33.90625 
C 62.5 53.09375 49.90625 69 33.5 69 
z
M 17.09375 5.578125 
L 17.09375 63.421875 
L 31.296875 63.421875 
C 44.703125 63.421875 54.296875 51.203125 54.296875 33.90625 
C 54.296875 17.296875 44.796875 5.578125 31.296875 5.578125 
z
" id="CMSS17-68"/>
      <path d="M 67 29.328125 
C 67 36.0625 65.296875 44 54.09375 44 
C 46.59375 44 42.09375 39.3125 40.09375 36.421875 
C 38.296875 41.71875 34.09375 44 28.09375 44 
C 21.296875 44 17 40.125 14.703125 37.328125 
L 14.703125 43.09375 
L 7.40625 43.09375 
L 7.40625 0 
L 15 0 
L 15 24.359375 
C 15 30.296875 17.203125 37.9375 24.296875 37.9375 
C 33.40625 37.9375 33.40625 31.5 33.40625 28.578125 
L 33.40625 0 
L 41 0 
L 41 24.359375 
C 41 30.296875 43.203125 37.9375 50.296875 37.9375 
C 59.40625 37.9375 59.40625 31.5 59.40625 28.578125 
L 59.40625 0 
L 67 0 
z
" id="CMSS17-109"/>
      <path d="M 40.90625 29.328125 
C 40.90625 35.671875 39.40625 44 28.09375 44 
C 21.703125 44 17.5 40.71875 14.703125 37.328125 
L 14.703125 43.09375 
L 7.40625 43.09375 
L 7.40625 0 
L 15 0 
L 15 24.359375 
C 15 30.6875 17.40625 37.9375 24.203125 37.9375 
C 33 37.9375 33.296875 32 33.296875 28.578125 
L 33.296875 0 
L 40.90625 0 
z
" id="CMSS17-110"/>
      <path d="M 32.203125 41.046875 
C 26.296875 43.859375 21.703125 43.859375 18.703125 43.859375 
C 11.59375 43.859375 3.09375 41.375 3.09375 31.296875 
C 3.09375 21.234375 14.09375 19.03125 17.09375 18.421875 
C 21.703125 17.53125 26.796875 16.53125 26.796875 11.5625 
C 26.796875 5.265625 19.59375 5.265625 18.296875 5.265625 
C 14.296875 5.265625 8.796875 6.359375 3.796875 9.96875 
L 2.59375 3.28125 
C 8.296875 0 13.796875 -1 18.40625 -1 
C 30.703125 -1 33.796875 6.5 33.796875 12.203125 
C 33.796875 17.09375 31 20.390625 29.09375 21.890625 
C 25.796875 24.5 24.59375 24.796875 16.40625 26.5 
C 15 26.703125 10.09375 27.796875 10.09375 32.28125 
C 10.09375 38 16.40625 38 17.796875 38 
C 24.296875 38 28.296875 35.984375 31 34.5 
z
" id="CMSS17-115"/>
      <path d="M 44.203125 21.1875 
C 44.203125 34 34.703125 44 23.5 44 
C 12 44 2.703125 33.703125 2.703125 21.1875 
C 2.703125 8.5 12.296875 -1 23.40625 -1 
C 34.796875 -1 44.203125 8.796875 44.203125 21.1875 
z
M 23.5 5.265625 
C 16.40625 5.265625 10.296875 11.078125 10.296875 22 
C 10.296875 33.609375 17.40625 37.921875 23.40625 37.921875 
C 29.90625 37.921875 36.59375 33.21875 36.59375 22 
C 36.59375 10.671875 30.09375 5.265625 23.5 5.265625 
z
" id="CMSS17-111"/>
      <path d="M 11.296875 -25 
C 16.703125 -19.515625 29.09375 -6.765625 29.09375 24.6875 
C 29.09375 56.265625 16.703125 68.921875 11.296875 74.5 
L 5.203125 74.5 
C 17.5 61.75 21.5 43.921875 21.5 24.8125 
C 21.5 5.78125 17.703125 -12.15625 5.203125 -25 
z
" id="CMSS17-41"/>
     </defs>
     <g style="fill:#262626;" transform="translate(262.950319 434.62099)scale(0.4 -0.4)">
      <use transform="scale(0.996264)" xlink:href="#CMMI12-100"/>
      <use transform="translate(81.91821 0)scale(0.996264)" xlink:href="#CMSS17-40"/>
      <use transform="translate(118.352124 0)scale(0.996264)" xlink:href="#CMSS17-72"/>
      <use transform="translate(184.413643 0)scale(0.996264)" xlink:href="#CMSS17-105"/>
      <use transform="translate(206.594366 0)scale(0.996264)" xlink:href="#CMSS17-108"/>
      <use transform="translate(228.775089 0)scale(0.996264)" xlink:href="#CMSS17-98"/>
      <use transform="translate(279.582471 0)scale(0.996264)" xlink:href="#CMSS17-101"/>
      <use transform="translate(321.221293 0)scale(0.996264)" xlink:href="#CMSS17-114"/>
      <use transform="translate(353.131066 0)scale(0.996264)" xlink:href="#CMSS17-116"/>
      <use transform="translate(418.191745 0)scale(0.996264)" xlink:href="#CMSS17-83"/>
      <use transform="translate(470.240261 0)scale(0.996264)" xlink:href="#CMSS17-112"/>
      <use transform="translate(518.445204 0)scale(0.996264)" xlink:href="#CMSS17-97"/>
      <use transform="translate(563.367125 0)scale(0.996264)" xlink:href="#CMSS17-99"/>
      <use transform="translate(605.005947 0)scale(0.996264)" xlink:href="#CMSS17-101"/>
      <use transform="translate(677.873882 0)scale(0.996264)" xlink:href="#CMSS17-68"/>
      <use transform="translate(745.416723 0)scale(0.996264)" xlink:href="#CMSS17-105"/>
      <use transform="translate(767.597446 0)scale(0.996264)" xlink:href="#CMSS17-109"/>
      <use transform="translate(841.826701 0)scale(0.996264)" xlink:href="#CMSS17-101"/>
      <use transform="translate(883.465523 0)scale(0.996264)" xlink:href="#CMSS17-110"/>
      <use transform="translate(931.670466 0)scale(0.996264)" xlink:href="#CMSS17-115"/>
      <use transform="translate(967.584008 0)scale(0.996264)" xlink:href="#CMSS17-105"/>
      <use transform="translate(989.764731 0)scale(0.996264)" xlink:href="#CMSS17-111"/>
      <use transform="translate(1036.608355 0)scale(0.996264)" xlink:href="#CMSS17-110"/>
      <use transform="translate(1084.813298 0)scale(0.996264)" xlink:href="#CMSS17-41"/>
     </g>
    </g>
   </g>
   <g id="matplotlib.axis_2">
    <g id="ytick_1">
     <g id="line2d_13">
      <path clip-path="url(#p4aa51d978e)" d="M 127.199731 351.717072 
L 847.199731 351.717072 
" style="fill:none;stroke:#ffffff;stroke-linecap:round;"/>
     </g>
     <g id="line2d_14"/>
     <g id="text_8">
      <!-- $0$ -->
      <g style="fill:#262626;" transform="translate(106.492588 362.09482)scale(0.3 -0.3)">
       <use transform="scale(0.996264)" xlink:href="#CMR17-48"/>
      </g>
     </g>
    </g>
    <g id="ytick_2">
     <g id="line2d_15">
      <path clip-path="url(#p4aa51d978e)" d="M 127.199731 278.712971 
L 847.199731 278.712971 
" style="fill:none;stroke:#ffffff;stroke-linecap:round;"/>
     </g>
     <g id="line2d_16"/>
     <g id="text_9">
      <!-- $200$ -->
      <g style="fill:#262626;" transform="translate(79.078302 289.090718)scale(0.3 -0.3)">
       <use transform="scale(0.996264)" xlink:href="#CMR17-50"/>
       <use transform="translate(45.690477 0)scale(0.996264)" xlink:href="#CMR17-48"/>
       <use transform="translate(91.380954 0)scale(0.996264)" xlink:href="#CMR17-48"/>
      </g>
     </g>
    </g>
    <g id="ytick_3">
     <g id="line2d_17">
      <path clip-path="url(#p4aa51d978e)" d="M 127.199731 205.708869 
L 847.199731 205.708869 
" style="fill:none;stroke:#ffffff;stroke-linecap:round;"/>
     </g>
     <g id="line2d_18"/>
     <g id="text_10">
      <!-- $400$ -->
      <defs>
       <path d="M 33.59375 64.40625 
C 33.59375 66.5 33.5 66.5 31.703125 66.5 
L 2 19.59375 
L 2 17 
L 27.796875 17 
L 27.796875 7.140625 
C 27.796875 3.5 27.59375 2.5 20.59375 2.5 
L 18.703125 2.5 
L 18.703125 0 
C 21.90625 0 27.296875 0 30.703125 0 
C 34.09375 0 39.5 0 42.703125 0 
L 42.703125 2.5 
L 40.796875 2.5 
C 33.796875 2.5 33.59375 3.5 33.59375 7.140625 
L 33.59375 17 
L 43.796875 17 
L 43.796875 19.59375 
L 33.59375 19.59375 
z
M 28.09375 57.859375 
L 28.09375 19.59375 
L 4 19.59375 
z
" id="CMR17-52"/>
      </defs>
      <g style="fill:#262626;" transform="translate(79.078302 216.086617)scale(0.3 -0.3)">
       <use transform="scale(0.996264)" xlink:href="#CMR17-52"/>
       <use transform="translate(45.690477 0)scale(0.996264)" xlink:href="#CMR17-48"/>
       <use transform="translate(91.380954 0)scale(0.996264)" xlink:href="#CMR17-48"/>
      </g>
     </g>
    </g>
    <g id="ytick_4">
     <g id="line2d_19">
      <path clip-path="url(#p4aa51d978e)" d="M 127.199731 132.704768 
L 847.199731 132.704768 
" style="fill:none;stroke:#ffffff;stroke-linecap:round;"/>
     </g>
     <g id="line2d_20"/>
     <g id="text_11">
      <!-- $600$ -->
      <defs>
       <path d="M 10.59375 34 
C 10.59375 57.65625 21.796875 63 28.296875 63 
C 30.40625 63 35.5 62.640625 37.5 59 
C 35.90625 59 32.90625 59 32.90625 55.515625 
C 32.90625 52.828125 35.09375 51.921875 36.5 51.921875 
C 37.40625 51.921875 40.09375 52.3125 40.09375 55.625 
C 40.09375 61.78125 35.09375 65.296875 28.203125 65.296875 
C 16.296875 65.296875 3.796875 52.96875 3.796875 31 
C 3.796875 3.953125 15.09375 -2 23.09375 -2 
C 32.796875 -2 42 6.671875 42 20.046875 
C 42 32.515625 33.90625 41.59375 23.703125 41.59375 
C 17.59375 41.59375 13.09375 37.609375 10.59375 30.625 
z
M 23.09375 0.390625 
C 10.796875 0.390625 10.796875 18.75 10.796875 22.4375 
C 10.796875 29.625 14.203125 40 23.5 40 
C 25.203125 40 30.09375 40 33.40625 33.125 
C 35.203125 29.21875 35.203125 25.140625 35.203125 20.140625 
C 35.203125 14.75 35.203125 10.78125 33.09375 6.78125 
C 30.90625 2.671875 27.703125 0.390625 23.09375 0.390625 
z
" id="CMR17-54"/>
      </defs>
      <g style="fill:#262626;" transform="translate(79.078302 143.082516)scale(0.3 -0.3)">
       <use transform="scale(0.996264)" xlink:href="#CMR17-54"/>
       <use transform="translate(45.690477 0)scale(0.996264)" xlink:href="#CMR17-48"/>
       <use transform="translate(91.380954 0)scale(0.996264)" xlink:href="#CMR17-48"/>
      </g>
     </g>
    </g>
    <g id="ytick_5">
     <g id="line2d_21">
      <path clip-path="url(#p4aa51d978e)" d="M 127.199731 59.700667 
L 847.199731 59.700667 
" style="fill:none;stroke:#ffffff;stroke-linecap:round;"/>
     </g>
     <g id="line2d_22"/>
     <g id="text_12">
      <!-- $800$ -->
      <defs>
       <path d="M 27.203125 35.375 
C 33.5 38.546875 39.90625 43.328125 39.90625 50.984375 
C 39.90625 60.015625 31.09375 65.296875 23 65.296875 
C 13.90625 65.296875 5.90625 58.734375 5.90625 49.6875 
C 5.90625 47.203125 6.5 42.921875 10.40625 39.140625 
C 11.40625 38.15625 15.59375 35.171875 18.296875 33.28125 
C 13.796875 30.984375 3.296875 25.53125 3.296875 14.59375 
C 3.296875 4.359375 13.09375 -2 22.796875 -2 
C 33.5 -2 42.5 5.65625 42.5 15.78125 
C 42.5 24.84375 36.40625 29.015625 32.40625 31.703125 
z
M 14.09375 44.09375 
C 13.296875 44.59375 9.296875 47.671875 9.296875 52.359375 
C 9.296875 58.421875 15.59375 63 22.796875 63 
C 30.703125 63 36.5 57.4375 36.5 50.96875 
C 36.5 41.703125 26.09375 36.421875 25.59375 36.421875 
C 25.5 36.421875 25.40625 36.421875 24.59375 37.03125 
z
M 32.5 23.734375 
C 34 22.640625 38.796875 19.375 38.796875 13.296875 
C 38.796875 5.953125 31.40625 0.390625 23 0.390625 
C 13.90625 0.390625 7 6.84375 7 14.6875 
C 7 22.546875 13.09375 29.09375 20 32.1875 
z
" id="CMR17-56"/>
      </defs>
      <g style="fill:#262626;" transform="translate(79.078302 70.078414)scale(0.3 -0.3)">
       <use transform="scale(0.996264)" xlink:href="#CMR17-56"/>
       <use transform="translate(45.690477 0)scale(0.996264)" xlink:href="#CMR17-48"/>
       <use transform="translate(91.380954 0)scale(0.996264)" xlink:href="#CMR17-48"/>
      </g>
     </g>
    </g>
    <g id="text_13">
     <!-- $\langle \lambda\rangle$ -->
     <defs>
      <path d="M 32.796875 71.203125 
C 33.296875 72.296875 33.296875 72.5 33.296875 73 
C 33.296875 74.09375 32.40625 75 31.296875 75 
C 30.40625 75 29.703125 74.5 29 72.703125 
L 11.5 26.796875 
C 11.296875 26.203125 11 25.59375 11 25 
C 11 24.703125 11 24.5 11.5 23.296875 
L 29 -22.59375 
C 29.40625 -23.703125 29.90625 -25 31.296875 -25 
C 32.40625 -25 33.296875 -24.09375 33.296875 -23 
C 33.296875 -22.703125 33.296875 -22.5 32.796875 -21.40625 
L 15.09375 25 
z
" id="CMSY10-104"/>
      <path d="M 30.90625 61.953125 
C 28.40625 69 20.5 69 19.203125 69 
C 18.59375 69 17.5 69 17.5 68 
C 17.5 67.21875 18.09375 67.109375 18.59375 67.015625 
C 20.09375 66.8125 21.296875 66.609375 22.90625 63.75 
C 23.90625 61.859375 34.203125 32.171875 34.203125 31.96875 
C 34.203125 31.875 34.09375 31.765625 33.296875 30.96875 
L 7.296875 4.859375 
C 6.09375 3.65625 5.296875 2.859375 5.296875 1.59375 
C 5.296875 0.1875 6.5 -1 8.09375 -1 
C 8.5 -1 9.59375 -0.796875 10.203125 -0.203125 
C 11.796875 1.28125 26.09375 18.65625 35.203125 29.390625 
C 37.796875 21.609375 41 12.453125 44.09375 4.078125 
C 44.59375 2.59375 45.09375 1.1875 46.5 -0.09375 
C 47.5 -1 47.703125 -1 50.5 -1 
L 52.40625 -1 
C 52.796875 -1 53.5 -1 53.5 -0.203125 
C 53.5 0.203125 53.40625 0.296875 53 0.703125 
C 52.09375 1.796875 51.40625 3.578125 51 4.78125 
z
" id="CMMI12-21"/>
      <path d="M 27.296875 23.296875 
C 27.796875 24.5 27.796875 24.703125 27.796875 25 
C 27.796875 25.296875 27.796875 25.5 27.296875 26.703125 
L 9.796875 72.703125 
C 9.203125 74.40625 8.59375 75 7.5 75 
C 6.40625 75 5.5 74.09375 5.5 73 
C 5.5 72.703125 5.5 72.5 6 71.40625 
L 23.703125 25 
L 6 -21.203125 
C 5.5 -22.296875 5.5 -22.5 5.5 -23 
C 5.5 -24.09375 6.40625 -25 7.5 -25 
C 8.796875 -25 9.203125 -24 9.59375 -23 
z
" id="CMSY10-105"/>
     </defs>
     <g style="fill:#262626;" transform="translate(7.2 177.23736)scale(0.4 -0.4)">
      <use transform="scale(0.996264)" xlink:href="#CMSY10-104"/>
      <use transform="translate(38.743734 0)scale(0.996264)" xlink:href="#CMMI12-21"/>
      <use transform="translate(95.647806 0)scale(0.996264)" xlink:href="#CMSY10-105"/>
     </g>
    </g>
   </g>
   <g id="line2d_23">
    <defs>
     <path d="M -5 5 
L 5 5 
L 5 -5 
L -5 -5 
z
" id="m618e659076"/>
    </defs>
    <g>
     <use style="fill:#e18632;" x="127.199731" xlink:href="#m618e659076" y="350.836364"/>
     <use style="fill:#e18632;" x="152.914017" xlink:href="#m618e659076" y="349.708772"/>
     <use style="fill:#e18632;" x="178.628303" xlink:href="#m618e659076" y="348.672078"/>
     <use style="fill:#e18632;" x="204.342588" xlink:href="#m618e659076" y="347.513658"/>
     <use style="fill:#e18632;" x="230.056874" xlink:href="#m618e659076" y="346.147699"/>
     <use style="fill:#e18632;" x="255.77116" xlink:href="#m618e659076" y="344.73053"/>
     <use style="fill:#e18632;" x="281.485446" xlink:href="#m618e659076" y="343.407917"/>
     <use style="fill:#e18632;" x="307.199731" xlink:href="#m618e659076" y="341.90031"/>
     <use style="fill:#e18632;" x="332.914017" xlink:href="#m618e659076" y="340.434098"/>
     <use style="fill:#e18632;" x="358.628303" xlink:href="#m618e659076" y="338.890086"/>
     <use style="fill:#e18632;" x="384.342588" xlink:href="#m618e659076" y="337.417101"/>
     <use style="fill:#e18632;" x="410.056874" xlink:href="#m618e659076" y="336.167262"/>
     <use style="fill:#e18632;" x="435.77116" xlink:href="#m618e659076" y="334.327597"/>
     <use style="fill:#e18632;" x="461.485446" xlink:href="#m618e659076" y="332.97117"/>
     <use style="fill:#e18632;" x="487.199731" xlink:href="#m618e659076" y="331.732095"/>
     <use style="fill:#e18632;" x="512.914017" xlink:href="#m618e659076" y="330.177778"/>
     <use style="fill:#e18632;" x="538.628303" xlink:href="#m618e659076" y="327.841243"/>
     <use style="fill:#e18632;" x="564.342588" xlink:href="#m618e659076" y="326.692201"/>
     <use style="fill:#e18632;" x="590.056874" xlink:href="#m618e659076" y="324.795231"/>
     <use style="fill:#e18632;" x="615.77116" xlink:href="#m618e659076" y="323.538006"/>
     <use style="fill:#e18632;" x="641.485446" xlink:href="#m618e659076" y="322.191317"/>
     <use style="fill:#e18632;" x="667.199731" xlink:href="#m618e659076" y="320.510747"/>
     <use style="fill:#e18632;" x="692.914017" xlink:href="#m618e659076" y="318.888809"/>
     <use style="fill:#e18632;" x="718.628303" xlink:href="#m618e659076" y="317.281432"/>
     <use style="fill:#e18632;" x="744.342588" xlink:href="#m618e659076" y="314.82021"/>
     <use style="fill:#e18632;" x="770.056874" xlink:href="#m618e659076" y="313.606539"/>
     <use style="fill:#e18632;" x="795.77116" xlink:href="#m618e659076" y="312.143862"/>
     <use style="fill:#e18632;" x="821.485446" xlink:href="#m618e659076" y="309.832302"/>
     <use style="fill:#e18632;" x="847.199731" xlink:href="#m618e659076" y="308.129195"/>
    </g>
   </g>
   <g id="line2d_24">
    <defs>
     <path d="M 0 5 
C 1.326016 5 2.597899 4.473168 3.535534 3.535534 
C 4.473168 2.597899 5 1.326016 5 0 
C 5 -1.326016 4.473168 -2.597899 3.535534 -3.535534 
C 2.597899 -4.473168 1.326016 -5 0 -5 
C -1.326016 -5 -2.597899 -4.473168 -3.535534 -3.535534 
C -4.473168 -2.597899 -5 -1.326016 -5 0 
C -5 1.326016 -4.473168 2.597899 -3.535534 3.535534 
C -2.597899 4.473168 -1.326016 5 0 5 
z
" id="m01aeaa61ba"/>
    </defs>
    <g>
     <use style="fill:#b59a32;" x="127.199731" xlink:href="#m01aeaa61ba" y="350.684318"/>
     <use style="fill:#b59a32;" x="152.914017" xlink:href="#m01aeaa61ba" y="349.007324"/>
     <use style="fill:#b59a32;" x="178.628303" xlink:href="#m01aeaa61ba" y="347.23764"/>
     <use style="fill:#b59a32;" x="204.342588" xlink:href="#m01aeaa61ba" y="345.341546"/>
     <use style="fill:#b59a32;" x="230.056874" xlink:href="#m01aeaa61ba" y="343.03829"/>
     <use style="fill:#b59a32;" x="255.77116" xlink:href="#m01aeaa61ba" y="340.650182"/>
     <use style="fill:#b59a32;" x="281.485446" xlink:href="#m01aeaa61ba" y="338.380981"/>
     <use style="fill:#b59a32;" x="307.199731" xlink:href="#m01aeaa61ba" y="335.909371"/>
     <use style="fill:#b59a32;" x="332.914017" xlink:href="#m01aeaa61ba" y="333.341632"/>
     <use style="fill:#b59a32;" x="358.628303" xlink:href="#m01aeaa61ba" y="330.811788"/>
     <use style="fill:#b59a32;" x="384.342588" xlink:href="#m01aeaa61ba" y="327.969014"/>
     <use style="fill:#b59a32;" x="410.056874" xlink:href="#m01aeaa61ba" y="325.626042"/>
     <use style="fill:#b59a32;" x="435.77116" xlink:href="#m01aeaa61ba" y="322.675936"/>
     <use style="fill:#b59a32;" x="461.485446" xlink:href="#m01aeaa61ba" y="319.932805"/>
     <use style="fill:#b59a32;" x="487.199731" xlink:href="#m01aeaa61ba" y="317.669193"/>
     <use style="fill:#b59a32;" x="512.914017" xlink:href="#m01aeaa61ba" y="314.979648"/>
     <use style="fill:#b59a32;" x="538.628303" xlink:href="#m01aeaa61ba" y="311.437499"/>
     <use style="fill:#b59a32;" x="564.342588" xlink:href="#m01aeaa61ba" y="309.036194"/>
     <use style="fill:#b59a32;" x="590.056874" xlink:href="#m01aeaa61ba" y="305.690238"/>
     <use style="fill:#b59a32;" x="615.77116" xlink:href="#m01aeaa61ba" y="303.376146"/>
     <use style="fill:#b59a32;" x="641.485446" xlink:href="#m01aeaa61ba" y="300.576526"/>
     <use style="fill:#b59a32;" x="667.199731" xlink:href="#m01aeaa61ba" y="298.077122"/>
     <use style="fill:#b59a32;" x="692.914017" xlink:href="#m01aeaa61ba" y="294.383624"/>
     <use style="fill:#b59a32;" x="718.628303" xlink:href="#m01aeaa61ba" y="291.534388"/>
     <use style="fill:#b59a32;" x="744.342588" xlink:href="#m01aeaa61ba" y="288.045266"/>
     <use style="fill:#b59a32;" x="770.056874" xlink:href="#m01aeaa61ba" y="285.158216"/>
     <use style="fill:#b59a32;" x="795.77116" xlink:href="#m01aeaa61ba" y="281.846375"/>
     <use style="fill:#b59a32;" x="821.485446" xlink:href="#m01aeaa61ba" y="278.773067"/>
     <use style="fill:#b59a32;" x="847.199731" xlink:href="#m01aeaa61ba" y="275.621495"/>
    </g>
   </g>
   <g id="line2d_25">
    <defs>
     <path d="M 0 5 
C 1.326016 5 2.597899 4.473168 3.535534 3.535534 
C 4.473168 2.597899 5 1.326016 5 0 
C 5 -1.326016 4.473168 -2.597899 3.535534 -3.535534 
C 2.597899 -4.473168 1.326016 -5 0 -5 
C -1.326016 -5 -2.597899 -4.473168 -3.535534 -3.535534 
C -4.473168 -2.597899 -5 -1.326016 -5 0 
C -5 1.326016 -4.473168 2.597899 -3.535534 3.535534 
C -2.597899 4.473168 -1.326016 5 0 5 
z
" id="m2352267825"/>
    </defs>
    <g>
     <use style="fill:#8ba731;" x="152.914017" xlink:href="#m2352267825" y="348.801059"/>
     <use style="fill:#8ba731;" x="178.628303" xlink:href="#m2352267825" y="346.57896"/>
     <use style="fill:#8ba731;" x="204.342588" xlink:href="#m2352267825" y="344.155081"/>
     <use style="fill:#8ba731;" x="230.056874" xlink:href="#m2352267825" y="341.111932"/>
     <use style="fill:#8ba731;" x="255.77116" xlink:href="#m2352267825" y="338.077561"/>
     <use style="fill:#8ba731;" x="281.485446" xlink:href="#m2352267825" y="334.789661"/>
     <use style="fill:#8ba731;" x="307.199731" xlink:href="#m2352267825" y="331.601921"/>
     <use style="fill:#8ba731;" x="332.914017" xlink:href="#m2352267825" y="328.151211"/>
     <use style="fill:#8ba731;" x="358.628303" xlink:href="#m2352267825" y="324.754154"/>
     <use style="fill:#8ba731;" x="384.342588" xlink:href="#m2352267825" y="321.109257"/>
     <use style="fill:#8ba731;" x="410.056874" xlink:href="#m2352267825" y="317.704384"/>
     <use style="fill:#8ba731;" x="435.77116" xlink:href="#m2352267825" y="313.578311"/>
     <use style="fill:#8ba731;" x="461.485446" xlink:href="#m2352267825" y="310.023136"/>
     <use style="fill:#8ba731;" x="487.199731" xlink:href="#m2352267825" y="306.557258"/>
     <use style="fill:#8ba731;" x="512.914017" xlink:href="#m2352267825" y="302.70083"/>
     <use style="fill:#8ba731;" x="538.628303" xlink:href="#m2352267825" y="298.322777"/>
     <use style="fill:#8ba731;" x="564.342588" xlink:href="#m2352267825" y="294.716611"/>
     <use style="fill:#8ba731;" x="590.056874" xlink:href="#m2352267825" y="290.120797"/>
     <use style="fill:#8ba731;" x="615.77116" xlink:href="#m2352267825" y="286.699078"/>
     <use style="fill:#8ba731;" x="641.485446" xlink:href="#m2352267825" y="282.768554"/>
     <use style="fill:#8ba731;" x="667.199731" xlink:href="#m2352267825" y="279.190673"/>
     <use style="fill:#8ba731;" x="692.914017" xlink:href="#m2352267825" y="273.764876"/>
     <use style="fill:#8ba731;" x="718.628303" xlink:href="#m2352267825" y="270.270577"/>
     <use style="fill:#8ba731;" x="744.342588" xlink:href="#m2352267825" y="265.33308"/>
     <use style="fill:#8ba731;" x="770.056874" xlink:href="#m2352267825" y="261.56623"/>
     <use style="fill:#8ba731;" x="795.77116" xlink:href="#m2352267825" y="256.892369"/>
     <use style="fill:#8ba731;" x="821.485446" xlink:href="#m2352267825" y="252.519612"/>
     <use style="fill:#8ba731;" x="847.199731" xlink:href="#m2352267825" y="248.218542"/>
    </g>
   </g>
   <g id="line2d_26">
    <defs>
     <path d="M 0 5 
C 1.326016 5 2.597899 4.473168 3.535534 3.535534 
C 4.473168 2.597899 5 1.326016 5 0 
C 5 -1.326016 4.473168 -2.597899 3.535534 -3.535534 
C 2.597899 -4.473168 1.326016 -5 0 -5 
C -1.326016 -5 -2.597899 -4.473168 -3.535534 -3.535534 
C -4.473168 -2.597899 -5 -1.326016 -5 0 
C -5 1.326016 -4.473168 2.597899 -3.535534 3.535534 
C -2.597899 4.473168 -1.326016 5 0 5 
z
" id="mf5b2531cef"/>
    </defs>
    <g>
     <use style="fill:#32b258;" x="178.628303" xlink:href="#mf5b2531cef" y="346.371412"/>
     <use style="fill:#32b258;" x="204.342588" xlink:href="#mf5b2531cef" y="343.44441"/>
     <use style="fill:#32b258;" x="230.056874" xlink:href="#mf5b2531cef" y="339.922712"/>
     <use style="fill:#32b258;" x="255.77116" xlink:href="#mf5b2531cef" y="336.215747"/>
     <use style="fill:#32b258;" x="281.485446" xlink:href="#mf5b2531cef" y="332.390081"/>
     <use style="fill:#32b258;" x="307.199731" xlink:href="#mf5b2531cef" y="328.372252"/>
     <use style="fill:#32b258;" x="332.914017" xlink:href="#mf5b2531cef" y="324.245413"/>
     <use style="fill:#32b258;" x="358.628303" xlink:href="#mf5b2531cef" y="320.137095"/>
     <use style="fill:#32b258;" x="384.342588" xlink:href="#mf5b2531cef" y="315.754852"/>
     <use style="fill:#32b258;" x="410.056874" xlink:href="#mf5b2531cef" y="311.338048"/>
     <use style="fill:#32b258;" x="435.77116" xlink:href="#mf5b2531cef" y="306.355591"/>
     <use style="fill:#32b258;" x="461.485446" xlink:href="#mf5b2531cef" y="302.072406"/>
     <use style="fill:#32b258;" x="487.199731" xlink:href="#mf5b2531cef" y="297.625126"/>
     <use style="fill:#32b258;" x="512.914017" xlink:href="#mf5b2531cef" y="292.45083"/>
     <use style="fill:#32b258;" x="538.628303" xlink:href="#mf5b2531cef" y="287.574274"/>
     <use style="fill:#32b258;" x="564.342588" xlink:href="#mf5b2531cef" y="282.707183"/>
     <use style="fill:#32b258;" x="590.056874" xlink:href="#mf5b2531cef" y="277.184955"/>
     <use style="fill:#32b258;" x="615.77116" xlink:href="#mf5b2531cef" y="272.798184"/>
     <use style="fill:#32b258;" x="641.485446" xlink:href="#mf5b2531cef" y="267.749209"/>
     <use style="fill:#32b258;" x="667.199731" xlink:href="#mf5b2531cef" y="262.921332"/>
     <use style="fill:#32b258;" x="692.914017" xlink:href="#mf5b2531cef" y="256.622857"/>
     <use style="fill:#32b258;" x="718.628303" xlink:href="#mf5b2531cef" y="251.675682"/>
     <use style="fill:#32b258;" x="744.342588" xlink:href="#mf5b2531cef" y="245.614185"/>
     <use style="fill:#32b258;" x="770.056874" xlink:href="#mf5b2531cef" y="240.876818"/>
     <use style="fill:#32b258;" x="795.77116" xlink:href="#mf5b2531cef" y="235.216074"/>
     <use style="fill:#32b258;" x="821.485446" xlink:href="#mf5b2531cef" y="229.930944"/>
     <use style="fill:#32b258;" x="847.199731" xlink:href="#mf5b2531cef" y="224.420817"/>
    </g>
   </g>
   <g id="line2d_27">
    <defs>
     <path d="M 0 5 
C 1.326016 5 2.597899 4.473168 3.535534 3.535534 
C 4.473168 2.597899 5 1.326016 5 0 
C 5 -1.326016 4.473168 -2.597899 3.535534 -3.535534 
C 2.597899 -4.473168 1.326016 -5 0 -5 
C -1.326016 -5 -2.597899 -4.473168 -3.535534 -3.535534 
C -4.473168 -2.597899 -5 -1.326016 -5 0 
C -5 1.326016 -4.473168 2.597899 -3.535534 3.535534 
C -2.597899 4.473168 -1.326016 5 0 5 
z
" id="md7bde6058a"/>
    </defs>
    <g>
     <use style="fill:#35ae95;" x="204.342588" xlink:href="#md7bde6058a" y="343.240836"/>
     <use style="fill:#35ae95;" x="230.056874" xlink:href="#md7bde6058a" y="339.312201"/>
     <use style="fill:#35ae95;" x="255.77116" xlink:href="#md7bde6058a" y="335.131738"/>
     <use style="fill:#35ae95;" x="281.485446" xlink:href="#md7bde6058a" y="330.574537"/>
     <use style="fill:#35ae95;" x="307.199731" xlink:href="#md7bde6058a" y="326.01679"/>
     <use style="fill:#35ae95;" x="332.914017" xlink:href="#md7bde6058a" y="321.354305"/>
     <use style="fill:#35ae95;" x="358.628303" xlink:href="#md7bde6058a" y="316.496218"/>
     <use style="fill:#35ae95;" x="384.342588" xlink:href="#md7bde6058a" y="311.354492"/>
     <use style="fill:#35ae95;" x="410.056874" xlink:href="#md7bde6058a" y="306.171542"/>
     <use style="fill:#35ae95;" x="435.77116" xlink:href="#md7bde6058a" y="300.379199"/>
     <use style="fill:#35ae95;" x="461.485446" xlink:href="#md7bde6058a" y="295.379622"/>
     <use style="fill:#35ae95;" x="487.199731" xlink:href="#md7bde6058a" y="290.051482"/>
     <use style="fill:#35ae95;" x="512.914017" xlink:href="#md7bde6058a" y="284.058169"/>
     <use style="fill:#35ae95;" x="538.628303" xlink:href="#md7bde6058a" y="278.202549"/>
     <use style="fill:#35ae95;" x="564.342588" xlink:href="#md7bde6058a" y="272.62214"/>
     <use style="fill:#35ae95;" x="590.056874" xlink:href="#md7bde6058a" y="266.214816"/>
     <use style="fill:#35ae95;" x="615.77116" xlink:href="#md7bde6058a" y="260.438019"/>
     <use style="fill:#35ae95;" x="641.485446" xlink:href="#md7bde6058a" y="254.548578"/>
     <use style="fill:#35ae95;" x="667.199731" xlink:href="#md7bde6058a" y="248.996651"/>
     <use style="fill:#35ae95;" x="692.914017" xlink:href="#md7bde6058a" y="241.597075"/>
     <use style="fill:#35ae95;" x="718.628303" xlink:href="#md7bde6058a" y="235.424871"/>
     <use style="fill:#35ae95;" x="744.342588" xlink:href="#md7bde6058a" y="228.564345"/>
     <use style="fill:#35ae95;" x="770.056874" xlink:href="#md7bde6058a" y="223.221033"/>
     <use style="fill:#35ae95;" x="795.77116" xlink:href="#md7bde6058a" y="216.414254"/>
     <use style="fill:#35ae95;" x="821.485446" xlink:href="#md7bde6058a" y="209.957057"/>
     <use style="fill:#35ae95;" x="847.199731" xlink:href="#md7bde6058a" y="203.73518"/>
    </g>
   </g>
   <g id="line2d_28">
    <defs>
     <path d="M 0 5 
C 1.326016 5 2.597899 4.473168 3.535534 3.535534 
C 4.473168 2.597899 5 1.326016 5 0 
C 5 -1.326016 4.473168 -2.597899 3.535534 -3.535534 
C 2.597899 -4.473168 1.326016 -5 0 -5 
C -1.326016 -5 -2.597899 -4.473168 -3.535534 -3.535534 
C -4.473168 -2.597899 -5 -1.326016 -5 0 
C -5 1.326016 -4.473168 2.597899 -3.535534 3.535534 
C -2.597899 4.473168 -1.326016 5 0 5 
z
" id="m75d8b243c3"/>
    </defs>
    <g>
     <use style="fill:#37abb2;" x="230.056874" xlink:href="#m75d8b243c3" y="339.113977"/>
     <use style="fill:#37abb2;" x="255.77116" xlink:href="#m75d8b243c3" y="334.561069"/>
     <use style="fill:#37abb2;" x="281.485446" xlink:href="#m75d8b243c3" y="329.43497"/>
     <use style="fill:#37abb2;" x="307.199731" xlink:href="#m75d8b243c3" y="324.413212"/>
     <use style="fill:#37abb2;" x="332.914017" xlink:href="#m75d8b243c3" y="319.309468"/>
     <use style="fill:#37abb2;" x="358.628303" xlink:href="#m75d8b243c3" y="313.525287"/>
     <use style="fill:#37abb2;" x="384.342588" xlink:href="#m75d8b243c3" y="307.745585"/>
     <use style="fill:#37abb2;" x="410.056874" xlink:href="#m75d8b243c3" y="302.063008"/>
     <use style="fill:#37abb2;" x="435.77116" xlink:href="#m75d8b243c3" y="295.699584"/>
     <use style="fill:#37abb2;" x="461.485446" xlink:href="#m75d8b243c3" y="289.682486"/>
     <use style="fill:#37abb2;" x="487.199731" xlink:href="#m75d8b243c3" y="283.812053"/>
     <use style="fill:#37abb2;" x="512.914017" xlink:href="#m75d8b243c3" y="276.930691"/>
     <use style="fill:#37abb2;" x="538.628303" xlink:href="#m75d8b243c3" y="270.20165"/>
     <use style="fill:#37abb2;" x="564.342588" xlink:href="#m75d8b243c3" y="263.988258"/>
     <use style="fill:#37abb2;" x="590.056874" xlink:href="#m75d8b243c3" y="256.657075"/>
     <use style="fill:#37abb2;" x="615.77116" xlink:href="#m75d8b243c3" y="250.006787"/>
     <use style="fill:#37abb2;" x="641.485446" xlink:href="#m75d8b243c3" y="243.292981"/>
     <use style="fill:#37abb2;" x="667.199731" xlink:href="#m75d8b243c3" y="236.655286"/>
     <use style="fill:#37abb2;" x="692.914017" xlink:href="#m75d8b243c3" y="228.272073"/>
     <use style="fill:#37abb2;" x="718.628303" xlink:href="#m75d8b243c3" y="221.303422"/>
     <use style="fill:#37abb2;" x="744.342588" xlink:href="#m75d8b243c3" y="213.514755"/>
     <use style="fill:#37abb2;" x="770.056874" xlink:href="#m75d8b243c3" y="207.22055"/>
     <use style="fill:#37abb2;" x="795.77116" xlink:href="#m75d8b243c3" y="199.471244"/>
     <use style="fill:#37abb2;" x="821.485446" xlink:href="#m75d8b243c3" y="192.117482"/>
     <use style="fill:#37abb2;" x="847.199731" xlink:href="#m75d8b243c3" y="184.900016"/>
    </g>
   </g>
   <g id="line2d_29">
    <defs>
     <path d="M 0 5 
C 1.326016 5 2.597899 4.473168 3.535534 3.535534 
C 4.473168 2.597899 5 1.326016 5 0 
C 5 -1.326016 4.473168 -2.597899 3.535534 -3.535534 
C 2.597899 -4.473168 1.326016 -5 0 -5 
C -1.326016 -5 -2.597899 -4.473168 -3.535534 -3.535534 
C -4.473168 -2.597899 -5 -1.326016 -5 0 
C -5 1.326016 -4.473168 2.597899 -3.535534 3.535534 
C -2.597899 4.473168 -1.326016 5 0 5 
z
" id="meeffd9bf66"/>
    </defs>
    <g>
     <use style="fill:#39a7d6;" x="255.77116" xlink:href="#meeffd9bf66" y="334.388324"/>
     <use style="fill:#39a7d6;" x="281.485446" xlink:href="#meeffd9bf66" y="328.799603"/>
     <use style="fill:#39a7d6;" x="307.199731" xlink:href="#meeffd9bf66" y="323.355966"/>
     <use style="fill:#39a7d6;" x="332.914017" xlink:href="#meeffd9bf66" y="317.735193"/>
     <use style="fill:#39a7d6;" x="358.628303" xlink:href="#meeffd9bf66" y="311.430789"/>
     <use style="fill:#39a7d6;" x="384.342588" xlink:href="#meeffd9bf66" y="304.925716"/>
     <use style="fill:#39a7d6;" x="410.056874" xlink:href="#meeffd9bf66" y="298.755255"/>
     <use style="fill:#39a7d6;" x="435.77116" xlink:href="#meeffd9bf66" y="291.583959"/>
     <use style="fill:#39a7d6;" x="461.485446" xlink:href="#meeffd9bf66" y="284.982566"/>
     <use style="fill:#39a7d6;" x="487.199731" xlink:href="#meeffd9bf66" y="278.427632"/>
     <use style="fill:#39a7d6;" x="512.914017" xlink:href="#meeffd9bf66" y="270.761002"/>
     <use style="fill:#39a7d6;" x="538.628303" xlink:href="#meeffd9bf66" y="263.323979"/>
     <use style="fill:#39a7d6;" x="564.342588" xlink:href="#meeffd9bf66" y="256.372457"/>
     <use style="fill:#39a7d6;" x="590.056874" xlink:href="#meeffd9bf66" y="248.208898"/>
     <use style="fill:#39a7d6;" x="615.77116" xlink:href="#meeffd9bf66" y="240.802769"/>
     <use style="fill:#39a7d6;" x="641.485446" xlink:href="#meeffd9bf66" y="232.945376"/>
     <use style="fill:#39a7d6;" x="667.199731" xlink:href="#meeffd9bf66" y="225.930811"/>
     <use style="fill:#39a7d6;" x="692.914017" xlink:href="#meeffd9bf66" y="216.748698"/>
     <use style="fill:#39a7d6;" x="718.628303" xlink:href="#meeffd9bf66" y="208.92377"/>
     <use style="fill:#39a7d6;" x="744.342588" xlink:href="#meeffd9bf66" y="199.858704"/>
     <use style="fill:#39a7d6;" x="770.056874" xlink:href="#meeffd9bf66" y="192.45857"/>
     <use style="fill:#39a7d6;" x="795.77116" xlink:href="#meeffd9bf66" y="184.250057"/>
     <use style="fill:#39a7d6;" x="821.485446" xlink:href="#meeffd9bf66" y="175.662791"/>
     <use style="fill:#39a7d6;" x="847.199731" xlink:href="#meeffd9bf66" y="167.845759"/>
    </g>
   </g>
   <g id="line2d_30">
    <defs>
     <path d="M 0 5 
C 1.326016 5 2.597899 4.473168 3.535534 3.535534 
C 4.473168 2.597899 5 1.326016 5 0 
C 5 -1.326016 4.473168 -2.597899 3.535534 -3.535534 
C 2.597899 -4.473168 1.326016 -5 0 -5 
C -1.326016 -5 -2.597899 -4.473168 -3.535534 -3.535534 
C -4.473168 -2.597899 -5 -1.326016 -5 0 
C -5 1.326016 -4.473168 2.597899 -3.535534 3.535534 
C -2.597899 4.473168 -1.326016 5 0 5 
z
" id="m7920231b45"/>
    </defs>
    <g>
     <use style="fill:#8f93f4;" x="281.485446" xlink:href="#m7920231b45" y="328.611135"/>
     <use style="fill:#8f93f4;" x="307.199731" xlink:href="#m7920231b45" y="322.787349"/>
     <use style="fill:#8f93f4;" x="332.914017" xlink:href="#m7920231b45" y="316.697711"/>
     <use style="fill:#8f93f4;" x="358.628303" xlink:href="#m7920231b45" y="309.838876"/>
     <use style="fill:#8f93f4;" x="384.342588" xlink:href="#m7920231b45" y="302.816193"/>
     <use style="fill:#8f93f4;" x="410.056874" xlink:href="#m7920231b45" y="296.246113"/>
     <use style="fill:#8f93f4;" x="435.77116" xlink:href="#m7920231b45" y="288.39016"/>
     <use style="fill:#8f93f4;" x="461.485446" xlink:href="#m7920231b45" y="281.032503"/>
     <use style="fill:#8f93f4;" x="487.199731" xlink:href="#m7920231b45" y="273.813985"/>
     <use style="fill:#8f93f4;" x="512.914017" xlink:href="#m7920231b45" y="265.528993"/>
     <use style="fill:#8f93f4;" x="538.628303" xlink:href="#m7920231b45" y="257.469052"/>
     <use style="fill:#8f93f4;" x="564.342588" xlink:href="#m7920231b45" y="249.739487"/>
     <use style="fill:#8f93f4;" x="590.056874" xlink:href="#m7920231b45" y="240.911567"/>
     <use style="fill:#8f93f4;" x="615.77116" xlink:href="#m7920231b45" y="232.769991"/>
     <use style="fill:#8f93f4;" x="641.485446" xlink:href="#m7920231b45" y="224.168103"/>
     <use style="fill:#8f93f4;" x="667.199731" xlink:href="#m7920231b45" y="216.165092"/>
     <use style="fill:#8f93f4;" x="692.914017" xlink:href="#m7920231b45" y="206.440898"/>
     <use style="fill:#8f93f4;" x="718.628303" xlink:href="#m7920231b45" y="197.869032"/>
     <use style="fill:#8f93f4;" x="744.342588" xlink:href="#m7920231b45" y="187.828952"/>
     <use style="fill:#8f93f4;" x="770.056874" xlink:href="#m7920231b45" y="179.834637"/>
     <use style="fill:#8f93f4;" x="795.77116" xlink:href="#m7920231b45" y="170.526406"/>
     <use style="fill:#8f93f4;" x="821.485446" xlink:href="#m7920231b45" y="161.166312"/>
     <use style="fill:#8f93f4;" x="847.199731" xlink:href="#m7920231b45" y="152.384902"/>
    </g>
   </g>
   <g id="line2d_31">
    <defs>
     <path d="M 0 5 
C 1.326016 5 2.597899 4.473168 3.535534 3.535534 
C 4.473168 2.597899 5 1.326016 5 0 
C 5 -1.326016 4.473168 -2.597899 3.535534 -3.535534 
C 2.597899 -4.473168 1.326016 -5 0 -5 
C -1.326016 -5 -2.597899 -4.473168 -3.535534 -3.535534 
C -4.473168 -2.597899 -5 -1.326016 -5 0 
C -5 1.326016 -4.473168 2.597899 -3.535534 3.535534 
C -2.597899 4.473168 -1.326016 5 0 5 
z
" id="mf94ed17cd2"/>
    </defs>
    <g>
     <use style="fill:#db70f4;" x="307.199731" xlink:href="#mf94ed17cd2" y="322.615456"/>
     <use style="fill:#db70f4;" x="332.914017" xlink:href="#mf94ed17cd2" y="316.166642"/>
     <use style="fill:#db70f4;" x="358.628303" xlink:href="#mf94ed17cd2" y="308.847423"/>
     <use style="fill:#db70f4;" x="384.342588" xlink:href="#mf94ed17cd2" y="301.275006"/>
     <use style="fill:#db70f4;" x="410.056874" xlink:href="#mf94ed17cd2" y="294.187944"/>
     <use style="fill:#db70f4;" x="435.77116" xlink:href="#mf94ed17cd2" y="285.866899"/>
     <use style="fill:#db70f4;" x="461.485446" xlink:href="#mf94ed17cd2" y="278.096768"/>
     <use style="fill:#db70f4;" x="487.199731" xlink:href="#mf94ed17cd2" y="269.898822"/>
     <use style="fill:#db70f4;" x="512.914017" xlink:href="#mf94ed17cd2" y="261.177222"/>
     <use style="fill:#db70f4;" x="538.628303" xlink:href="#mf94ed17cd2" y="252.582163"/>
     <use style="fill:#db70f4;" x="564.342588" xlink:href="#mf94ed17cd2" y="244.024399"/>
     <use style="fill:#db70f4;" x="590.056874" xlink:href="#mf94ed17cd2" y="234.646946"/>
     <use style="fill:#db70f4;" x="615.77116" xlink:href="#mf94ed17cd2" y="225.681101"/>
     <use style="fill:#db70f4;" x="641.485446" xlink:href="#mf94ed17cd2" y="216.496053"/>
     <use style="fill:#db70f4;" x="667.199731" xlink:href="#mf94ed17cd2" y="207.540124"/>
     <use style="fill:#db70f4;" x="692.914017" xlink:href="#mf94ed17cd2" y="197.146704"/>
     <use style="fill:#db70f4;" x="718.628303" xlink:href="#mf94ed17cd2" y="187.770562"/>
     <use style="fill:#db70f4;" x="744.342588" xlink:href="#mf94ed17cd2" y="177.120782"/>
     <use style="fill:#db70f4;" x="770.056874" xlink:href="#mf94ed17cd2" y="168.22227"/>
     <use style="fill:#db70f4;" x="795.77116" xlink:href="#mf94ed17cd2" y="158.129472"/>
     <use style="fill:#db70f4;" x="821.485446" xlink:href="#mf94ed17cd2" y="147.872753"/>
     <use style="fill:#db70f4;" x="847.199731" xlink:href="#mf94ed17cd2" y="138.47433"/>
    </g>
   </g>
   <g id="line2d_32">
    <defs>
     <path d="M 0 -5 
L -5 5 
L 5 5 
z
" id="mff24c265d7"/>
    </defs>
    <g>
     <use style="fill:#f667c6;" x="332.914017" xlink:href="#mff24c265d7" y="315.997374"/>
     <use style="fill:#f667c6;" x="358.628303" xlink:href="#mff24c265d7" y="308.219392"/>
     <use style="fill:#f667c6;" x="384.342588" xlink:href="#mff24c265d7" y="300.255584"/>
     <use style="fill:#f667c6;" x="410.056874" xlink:href="#mff24c265d7" y="292.689247"/>
     <use style="fill:#f667c6;" x="435.77116" xlink:href="#mff24c265d7" y="283.817336"/>
     <use style="fill:#f667c6;" x="461.485446" xlink:href="#mff24c265d7" y="275.602125"/>
     <use style="fill:#f667c6;" x="487.199731" xlink:href="#mff24c265d7" y="266.815241"/>
     <use style="fill:#f667c6;" x="512.914017" xlink:href="#mff24c265d7" y="257.421112"/>
     <use style="fill:#f667c6;" x="538.628303" xlink:href="#mff24c265d7" y="248.320061"/>
     <use style="fill:#f667c6;" x="564.342588" xlink:href="#mff24c265d7" y="238.956618"/>
     <use style="fill:#f667c6;" x="590.056874" xlink:href="#mff24c265d7" y="229.2282"/>
     <use style="fill:#f667c6;" x="615.77116" xlink:href="#mff24c265d7" y="219.546583"/>
     <use style="fill:#f667c6;" x="641.485446" xlink:href="#mff24c265d7" y="209.642399"/>
     <use style="fill:#f667c6;" x="667.199731" xlink:href="#mff24c265d7" y="199.832957"/>
     <use style="fill:#f667c6;" x="692.914017" xlink:href="#mff24c265d7" y="189.044211"/>
     <use style="fill:#f667c6;" x="718.628303" xlink:href="#mff24c265d7" y="178.879086"/>
     <use style="fill:#f667c6;" x="744.342588" xlink:href="#mff24c265d7" y="167.337817"/>
     <use style="fill:#f667c6;" x="770.056874" xlink:href="#mff24c265d7" y="157.739311"/>
     <use style="fill:#f667c6;" x="795.77116" xlink:href="#mff24c265d7" y="146.627459"/>
     <use style="fill:#f667c6;" x="821.485446" xlink:href="#mff24c265d7" y="135.962641"/>
     <use style="fill:#f667c6;" x="847.199731" xlink:href="#mff24c265d7" y="125.789574"/>
    </g>
   </g>
   <g id="line2d_33">
    <path d="M 127.199731 350.622011 
L 152.914017 348.796908 
L 178.628303 346.241765 
L 204.342588 342.95658 
L 230.056874 338.941355 
L 255.77116 334.196088 
L 281.485446 328.72078 
L 307.199731 322.515432 
L 332.914017 315.580042 
L 358.628303 307.914611 
L 384.342588 299.51914 
L 410.056874 290.393627 
L 435.77116 280.538073 
L 461.485446 269.952479 
L 487.199731 258.636843 
L 512.914017 246.591166 
L 538.628303 233.815449 
L 564.342588 220.30969 
L 590.056874 206.07389 
L 615.77116 191.108049 
L 641.485446 175.412167 
L 667.199731 158.986245 
L 692.914017 141.830281 
L 718.628303 123.944276 
L 744.342588 105.32823 
L 770.056874 85.982143 
L 795.77116 65.906015 
L 821.485446 45.099846 
L 847.199731 23.563636 
" style="fill:none;stroke:#000000;stroke-linecap:round;stroke-width:2;"/>
   </g>
   <g id="line2d_34"/>
   <g id="patch_3">
    <path d="M 127.199731 367.2 
L 127.199731 7.2 
" style="fill:none;"/>
   </g>
   <g id="patch_4">
    <path d="M 847.199731 367.2 
L 847.199731 7.2 
" style="fill:none;"/>
   </g>
   <g id="patch_5">
    <path d="M 127.199731 367.2 
L 847.199731 367.2 
" style="fill:none;"/>
   </g>
   <g id="patch_6">
    <path d="M 127.199731 7.2 
L 847.199731 7.2 
" style="fill:none;"/>
   </g>
   <g id="legend_1">
    <g id="patch_7">
     <path d="M 144.699731 174.134542 
L 548.620192 174.134542 
Q 553.620192 174.134542 553.620192 169.134542 
L 553.620192 24.7 
Q 553.620192 19.7 548.620192 19.7 
L 144.699731 19.7 
Q 139.699731 19.7 139.699731 24.7 
L 139.699731 169.134542 
Q 139.699731 174.134542 144.699731 174.134542 
z
" style="fill:#eaeaf2;opacity:0.8;stroke:#cccccc;stroke-linejoin:miter;stroke-width:0.3;"/>
    </g>
    <g id="line2d_35"/>
    <g id="line2d_36">
     <g>
      <use style="fill:#e18632;" x="174.699731" xlink:href="#m618e659076" y="40.968802"/>
     </g>
    </g>
    <g id="text_14">
     <!-- $\mathrm{Rank}(\rho_{0})=$1 -->
     <defs>
      <path d="M 39.203125 33.53125 
C 48.703125 35.4375 56.703125 41.8125 56.703125 49.78125 
C 56.703125 59.140625 46.09375 67.59375 32.09375 67.59375 
L 5.203125 67.59375 
L 5.203125 65 
C 12.09375 65 13.203125 65 13.203125 60.515625 
L 13.203125 6.484375 
C 13.203125 2 12.09375 2 5.203125 2 
L 5.203125 -0.40625 
C 8.09375 -0.40625 13.296875 -0.40625 16.40625 -0.40625 
C 19.5 -0.40625 24.703125 -0.40625 27.59375 -0.40625 
L 27.59375 2 
C 20.703125 2 19.59375 2 19.59375 6.515625 
L 19.59375 33 
L 31.296875 33 
C 37 33 40.203125 30.6875 41.59375 29.390625 
C 45.59375 25.5 45.59375 22.796875 45.59375 16 
C 45.59375 9.296875 45.59375 5.890625 48.59375 2.5 
C 52.40625 -1.59375 57.5 -2 59.703125 -2 
C 67.09375 -2 68.203125 6.1875 68.203125 7.859375 
C 68.203125 8.4375 68.203125 9.140625 67.296875 9.140625 
C 66.5 9.140625 66.40625 8.546875 66.40625 8.15625 
C 65.90625 1.75 63 -0.40625 59.90625 -0.40625 
C 54.40625 -0.40625 53.796875 5.859375 53.203125 11.9375 
C 52.90625 14.03125 52.703125 15.515625 52.5 17.703125 
C 51.90625 22.6875 51.09375 29.953125 39.203125 33.53125 
z
M 31 34.59375 
L 19.59375 34.59375 
L 19.59375 61.140625 
C 19.59375 64.515625 19.796875 65 23.796875 65 
L 31.09375 65 
C 39.40625 65 49.09375 62.140625 49.09375 49.84375 
C 49.09375 37.0625 38.5 34.59375 31 34.59375 
z
" id="CMR17-82"/>
      <path d="M 36 25.828125 
C 36 32.375 36 35.84375 31.796875 39.734375 
C 28.09375 43 23.796875 44 20.40625 44 
C 12.5 44 6.796875 37.609375 6.796875 30.796875 
C 6.796875 27 9.796875 27 10.40625 27 
C 11.703125 27 14 27.78125 14 30.53125 
C 14 33 12.09375 34.078125 10.40625 34.078125 
C 10 34.078125 9.5 33.96875 9.203125 33.875 
C 11.296875 40.5 16.703125 42.40625 20.203125 42.40625 
C 25.203125 42.40625 30.703125 37.953125 30.703125 29.453125 
L 30.703125 25 
C 24.796875 25 17.703125 24.203125 12.09375 21.203125 
C 5.796875 17.703125 4 12.703125 4 8.90625 
C 4 1.203125 13 -1 18.296875 -1 
C 23.796875 -1 28.90625 2.171875 31.09375 7.984375 
C 31.296875 3.640625 34.09375 -0.28125 38.5 -0.28125 
C 40.59375 -0.28125 45.90625 1.09375 45.90625 8.859375 
L 45.90625 14.375 
L 44.09375 14.375 
L 44.09375 8.78125 
C 44.09375 2.78125 41.40625 2 40.09375 2 
C 36 2 36 7.15625 36 11.53125 
z
M 30.703125 13.59375 
C 30.703125 4.953125 24.5 0.59375 19 0.59375 
C 14 0.59375 10.09375 4.296875 10.09375 8.90625 
C 10.09375 11.890625 11.40625 17.1875 17.203125 20.390625 
C 22 23.09375 27.5 23.5 30.703125 23.5 
z
" id="CMR17-97"/>
      <path d="M 41.5 30.203125 
C 41.5 35.296875 40.5 43.59375 28.703125 43.59375 
C 20.796875 43.59375 16.703125 37.5 15.203125 33.5 
L 15.09375 33.5 
L 15.09375 43.59375 
L 3.296875 42.5 
L 3.296875 39.90625 
C 9.203125 39.90625 10.09375 39.296875 10.09375 34.5 
L 10.09375 6.6875 
C 10.09375 2.875 9.703125 2.390625 3.296875 2.390625 
L 3.296875 -0.203125 
C 5.703125 0 10.09375 0 12.703125 0 
C 15.296875 0 19.796875 0 22.203125 -0.203125 
L 22.203125 2.390625 
C 15.796875 2.390625 15.40625 2.78125 15.40625 6.6875 
L 15.40625 25.90625 
C 15.40625 35.109375 21 42 28 42 
C 35.40625 42 36.203125 35.40625 36.203125 30.59375 
L 36.203125 6.6875 
C 36.203125 2.875 35.796875 2.390625 29.40625 2.390625 
L 29.40625 -0.203125 
C 31.796875 0 36.203125 0 38.796875 0 
C 41.40625 0 45.90625 0 48.296875 -0.203125 
L 48.296875 2.390625 
C 41.90625 2.390625 41.5 2.78125 41.5 6.6875 
z
" id="CMR17-110"/>
      <path d="M 26.09375 26.140625 
C 26 26.34375 25.5 26.9375 25.5 27.234375 
C 25.5 27.4375 32.59375 33.921875 33.5 34.71875 
C 39.203125 39.5 42.796875 40 45.40625 40 
L 45.40625 42.703125 
C 44.796875 42.703125 44.59375 42.703125 44.5 42.5 
L 39.59375 42.5 
C 36.796875 42.5 32.5 42.5 29.796875 42.703125 
L 29.796875 40.09375 
C 31.203125 39.984375 32.203125 39.1875 32.203125 37.796875 
C 32.203125 35.796875 30.203125 33.90625 30.09375 33.90625 
L 15 20.140625 
L 15 68.6875 
L 3.09375 67.59375 
L 3.09375 65 
C 9 65 9.90625 64.40625 9.90625 59.640625 
L 9.90625 6.65625 
C 9.90625 2.875 9.5 2.390625 3.09375 2.390625 
L 3.09375 -0.203125 
C 5.5 0 9.90625 0 12.40625 0 
C 14.90625 0 19.296875 0 21.703125 -0.203125 
L 21.703125 2.390625 
C 15.296875 2.390625 14.90625 2.78125 14.90625 6.6875 
L 14.90625 17.65625 
L 21.796875 23.9375 
L 31.90625 8.96875 
C 33.09375 7.171875 34.09375 5.765625 34.09375 4.46875 
C 34.09375 2.6875 32.296875 2.390625 31.09375 2.390625 
L 31.09375 -0.203125 
C 33.5 0 37.796875 0 40.296875 0 
C 42.09375 0 45.796875 0 47.5 0 
L 47.5 2.390625 
C 42.796875 2.390625 41.703125 3.28125 38.703125 7.671875 
z
" id="CMR17-107"/>
      <path d="M 30.59375 -24.390625 
C 30.59375 -24.296875 30.59375 -24.09375 30.296875 -23.796875 
C 25.703125 -19.125 13.40625 -6.359375 13.40625 24.6875 
C 13.40625 55.765625 25.5 68.421875 30.40625 73.390625 
C 30.40625 73.5 30.59375 73.703125 30.59375 74 
C 30.59375 74.296875 30.296875 74.5 29.90625 74.5 
C 28.796875 74.5 20.296875 67.125 15.40625 56.15625 
C 10.40625 45.109375 9 34.359375 9 24.8125 
C 9 17.625 9.703125 5.484375 15.703125 -7.359375 
C 20.5 -17.734375 28.703125 -25 29.90625 -25 
C 30.40625 -25 30.59375 -24.796875 30.59375 -24.390625 
z
" id="CMR17-40"/>
      <path d="M 3.09375 -17.296875 
C 3 -17.796875 2.796875 -18.390625 2.796875 -19 
C 2.796875 -20.5 4 -21.5 5.5 -21.5 
C 7 -21.5 8.40625 -20.5 9 -19.09375 
C 9.40625 -18.1875 12.203125 -6.203125 15.40625 6.09375 
C 17.40625 1.09375 21.09375 -1 25 -1 
C 36.296875 -1 49.09375 12.96875 49.09375 28.046875 
C 49.09375 38.71875 42.59375 44 35.703125 44 
C 26.90625 44 16.203125 34.921875 12.90625 21.640625 
z
M 24.90625 1 
C 18.09375 1 16.40625 8.890625 16.40625 10.078125 
C 16.40625 10.6875 18.90625 20.234375 19.203125 21.734375 
C 24.296875 41.71875 34.09375 41.71875 35.59375 41.71875 
C 40.09375 41.71875 42.59375 37.65625 42.59375 31.8125 
C 42.59375 26.75 39.90625 16.9375 38.203125 12.796875 
C 35.203125 5.953125 30 1 24.90625 1 
z
" id="CMMI12-26"/>
      <path d="M 26.296875 24.6875 
C 26.296875 31.875 25.59375 44.015625 19.59375 56.859375 
C 14.796875 67.234375 6.59375 74.5 5.40625 74.5 
C 5.09375 74.5 4.703125 74.390625 4.703125 73.890625 
C 4.703125 73.703125 4.796875 73.59375 4.90625 73.390625 
C 9.703125 68.40625 21.90625 55.75 21.90625 24.75 
C 21.90625 -6.359375 9.796875 -19.015625 4.90625 -24.015625 
C 4.796875 -24.203125 4.703125 -24.3125 4.703125 -24.5 
C 4.703125 -25 5.09375 -25 5.40625 -25 
C 6.5 -25 15 -17.625 19.90625 -6.65625 
C 24.90625 4.390625 26.296875 15.140625 26.296875 24.6875 
z
" id="CMR17-41"/>
      <path d="M 64.296875 31.515625 
C 65.796875 31.515625 67.296875 31.515625 67.296875 33.203125 
C 67.296875 35 65.59375 35 63.90625 35 
L 8 35 
C 6.296875 35 4.59375 35 4.59375 33.203125 
C 4.59375 31.515625 6.09375 31.515625 7.59375 31.515625 
z
M 63.90625 14 
C 65.59375 14 67.296875 14 67.296875 15.796875 
C 67.296875 17.484375 65.796875 17.484375 64.296875 17.484375 
L 7.59375 17.484375 
C 6.09375 17.484375 4.59375 17.484375 4.59375 15.796875 
C 4.59375 14 6.296875 14 8 14 
z
" id="CMR17-61"/>
      <path d="M 28.40625 67 
L 26.5 67 
C 21.09375 61.5625 14.796875 60.78125 8.40625 60.78125 
L 8.40625 55 
C 11.296875 55 16 55 20.703125 57.296875 
L 20.703125 5.765625 
L 8.90625 5.765625 
L 8.90625 0 
L 40.203125 0 
L 40.203125 5.765625 
L 28.40625 5.765625 
z
" id="CMSS17-49"/>
     </defs>
     <g style="fill:#262626;" transform="translate(219.699731 49.718802)scale(0.25 -0.25)">
      <use transform="translate(0 14.943915)scale(0.996264)" xlink:href="#CMR17-82"/>
      <use transform="translate(67.791102 14.943915)scale(0.996264)" xlink:href="#CMR17-97"/>
      <use transform="translate(113.481579 14.943915)scale(0.996264)" xlink:href="#CMR17-110"/>
      <use transform="translate(164.376949 14.943915)scale(0.996264)" xlink:href="#CMR17-107"/>
      <use transform="translate(212.669865 14.943915)scale(0.996264)" xlink:href="#CMR17-40"/>
      <use transform="translate(247.950633 14.943915)scale(0.996264)" xlink:href="#CMMI12-26"/>
      <use transform="translate(298.265005 0)scale(0.697382)" xlink:href="#CMR17-48"/>
      <use transform="translate(330.746319 14.943915)scale(0.996264)" xlink:href="#CMR17-41"/>
      <use transform="translate(393.701096 14.943915)scale(0.996264)" xlink:href="#CMR17-61"/>
      <use transform="translate(465.415884 14.943915)scale(0.996264)" xlink:href="#CMSS17-49"/>
     </g>
    </g>
    <g id="line2d_37">
     <path d="M 149.699731 75.813336 
L 199.699731 75.813336 
" style="fill:none;stroke:#000000;stroke-linecap:round;stroke-width:2;"/>
    </g>
    <g id="line2d_38"/>
    <g id="text_15">
     <!-- Wilks Theorem -->
     <defs>
      <path d="M 87.203125 69 
L 79.59375 69 
L 71.203125 38.078125 
C 69.90625 33.09375 68.703125 28.140625 67.5 23.15625 
C 65.703125 15.796875 64.40625 10.640625 64.203125 8.046875 
L 64.09375 8.046875 
C 63.90625 10.734375 62.59375 16.390625 61 22.765625 
C 59.796875 28.046875 58.5 33.296875 57.09375 38.46875 
L 48.796875 69 
L 40.40625 69 
L 32.5 40.03125 
L 28.5 24.203125 
C 25.5 11.671875 25.40625 9.875 25.203125 7.890625 
L 25.09375 7.890625 
C 25.09375 8.484375 24.703125 11.765625 21.90625 23.40625 
C 20.5 29.1875 19.09375 35.0625 17.59375 40.640625 
L 9.90625 69 
L 1.296875 69 
L 20.296875 0 
L 28.59375 0 
L 36.5 28.734375 
L 40.5 44.546875 
C 43.203125 55.6875 43.796875 58.46875 44 60.953125 
L 44.09375 60.953125 
C 44.09375 60.5625 45 54.28125 48.90625 39.765625 
L 59.5 0 
L 68.203125 0 
z
" id="CMSS17-87"/>
      <path d="M 26.5 26.375 
L 42 42.796875 
L 32.40625 42.796875 
L 14.90625 24.28125 
L 14.90625 69 
L 7.5 69 
L 7.5 0 
L 14.796875 0 
L 14.796875 13.9375 
L 21.5 21 
L 35.59375 0 
L 44.09375 0 
z
" id="CMSS17-107"/>
      <path d="M 36.203125 62 
L 44.5 62 
C 45.703125 62 46.90625 62 48.09375 62 
L 60.59375 62 
L 60.59375 68.375 
L 3.40625 68.375 
L 3.40625 62 
L 15.90625 62 
C 17.09375 62 18.296875 62 19.5 62 
L 27.796875 62 
L 27.796875 -0.5 
L 36.203125 -0.5 
z
" id="CMSS17-84"/>
      <path d="M 40.90625 29.546875 
C 40.90625 35.8125 39.40625 44.0625 28.09375 44.0625 
C 21.796875 44.0625 17.703125 40.984375 14.796875 37.609375 
L 14.796875 69.5 
L 7.40625 69.5 
L 7.40625 0.5 
L 15 0.5 
L 15 24.578125 
C 15 30.828125 17.40625 38 24.203125 38 
C 33 38 33.296875 32.125 33.296875 28.734375 
L 33.296875 0.5 
L 40.90625 0.5 
z
" id="CMSS17-104"/>
     </defs>
     <g style="fill:#262626;" transform="translate(219.699731 84.563336)scale(0.25 -0.25)">
      <use transform="scale(0.996264)" xlink:href="#CMSS17-87"/>
      <use transform="translate(88.242166 0)scale(0.996264)" xlink:href="#CMSS17-105"/>
      <use transform="translate(110.422889 0)scale(0.996264)" xlink:href="#CMSS17-108"/>
      <use transform="translate(132.603612 0)scale(0.996264)" xlink:href="#CMSS17-107"/>
      <use transform="translate(178.206102 0)scale(0.996264)" xlink:href="#CMSS17-115"/>
      <use transform="translate(245.348756 0)scale(0.996264)" xlink:href="#CMSS17-84"/>
      <use transform="translate(309.16821 0)scale(0.996264)" xlink:href="#CMSS17-104"/>
      <use transform="translate(357.373153 0)scale(0.996264)" xlink:href="#CMSS17-101"/>
      <use transform="translate(399.011975 0)scale(0.996264)" xlink:href="#CMSS17-111"/>
      <use transform="translate(443.253145 0)scale(0.996264)" xlink:href="#CMSS17-114"/>
      <use transform="translate(475.162918 0)scale(0.996264)" xlink:href="#CMSS17-101"/>
      <use transform="translate(516.80174 0)scale(0.996264)" xlink:href="#CMSS17-109"/>
     </g>
    </g>
    <g id="line2d_39"/>
    <g id="line2d_40">
     <defs>
      <path d="M 0 5 
C 1.326016 5 2.597899 4.473168 3.535534 3.535534 
C 4.473168 2.597899 5 1.326016 5 0 
C 5 -1.326016 4.473168 -2.597899 3.535534 -3.535534 
C 2.597899 -4.473168 1.326016 -5 0 -5 
C -1.326016 -5 -2.597899 -4.473168 -3.535534 -3.535534 
C -4.473168 -2.597899 -5 -1.326016 -5 0 
C -5 1.326016 -4.473168 2.597899 -3.535534 3.535534 
C -2.597899 4.473168 -1.326016 5 0 5 
z
" id="ma5cff6822b"/>
     </defs>
     <g>
      <use x="174.699731" xlink:href="#ma5cff6822b" y="113.176672"/>
     </g>
    </g>
    <g id="text_16">
     <!-- (various colors) $\mathrm{Rank}(\rho_{0}) = 2...9$ -->
     <defs>
      <path d="M 41.796875 43 
L 34 43 
L 27.296875 24.3125 
C 25.203125 18.203125 22.203125 9.796875 21.703125 5.5 
L 21.59375 5.5 
C 21.40625 7.3125 20.59375 9.90625 20.09375 11.703125 
C 19.5 13.90625 18.703125 16.5 18.09375 18.3125 
L 9.296875 43 
L 1.296875 43 
L 17.09375 0 
L 26 0 
z
" id="CMSS17-118"/>
      <path d="M 40.90625 42.796875 
L 33.296875 42.796875 
L 33.296875 15.1875 
C 33.296875 7.78125 27.90625 4.78125 22.203125 4.78125 
C 15.59375 4.78125 15 6.984375 15 11.078125 
L 15 42.796875 
L 7.40625 42.796875 
L 7.40625 10.59375 
C 7.40625 2.796875 10.09375 -1 17 -1 
C 20.40625 -1 28.09375 -0.203125 33.5 4.78125 
L 33.5 0 
L 40.90625 0 
z
" id="CMSS17-117"/>
      <path d="M 18.40625 4.796875 
C 18.40625 7.6875 16 9.671875 13.59375 9.671875 
C 10.703125 9.671875 8.703125 7.28125 8.703125 4.890625 
C 8.703125 2 11.09375 0 13.5 0 
C 16.40625 0 18.40625 2.390625 18.40625 4.796875 
z
" id="CMMI12-58"/>
      <path d="M 35.203125 29.125 
C 35.203125 7.25 26.09375 0.484375 18.59375 0.484375 
C 16.296875 0.484375 10.703125 0.484375 8.40625 4.59375 
C 11 4.1875 12.90625 5.578125 12.90625 8.09375 
C 12.90625 10.8125 10.703125 11.703125 9.296875 11.703125 
C 8.40625 11.703125 5.703125 11.296875 5.703125 7.90625 
C 5.703125 1.109375 11.59375 -2 18.796875 -2 
C 30.296875 -2 42 10.53125 42 32.390625 
C 42 59.640625 30.796875 65.296875 23.203125 65.296875 
C 13.296875 65.296875 3.796875 56.6875 3.796875 43.40625 
C 3.796875 31.109375 11.90625 22 22.09375 22 
C 30.5 22 34.203125 29.734375 35.203125 33 
z
M 22.296875 23.59375 
C 19.59375 23.59375 15.796875 24.09375 12.703125 30.03125 
C 10.59375 33.890625 10.59375 38.453125 10.59375 43.296875 
C 10.59375 49.15625 10.59375 53.203125 13.40625 57.5625 
C 14.796875 59.640625 17.40625 63 23.203125 63 
C 35 63 35 45.078125 35 41.125 
C 35 34.09375 31.796875 23.59375 22.296875 23.59375 
z
" id="CMR17-57"/>
     </defs>
     <g style="fill:#262626;" transform="translate(219.699731 121.926672)scale(0.25 -0.25)">
      <use transform="translate(0 14.943915)scale(0.996264)" xlink:href="#CMSS17-40"/>
      <use transform="translate(36.433914 14.943915)scale(0.996264)" xlink:href="#CMSS17-118"/>
      <use transform="translate(79.434056 14.943915)scale(0.996264)" xlink:href="#CMSS17-97"/>
      <use transform="translate(121.753523 14.943915)scale(0.996264)" xlink:href="#CMSS17-114"/>
      <use transform="translate(153.663295 14.943915)scale(0.996264)" xlink:href="#CMSS17-105"/>
      <use transform="translate(175.844018 14.943915)scale(0.996264)" xlink:href="#CMSS17-111"/>
      <use transform="translate(222.687642 14.943915)scale(0.996264)" xlink:href="#CMSS17-117"/>
      <use transform="translate(270.892585 14.943915)scale(0.996264)" xlink:href="#CMSS17-115"/>
      <use transform="translate(338.03524 14.943915)scale(0.996264)" xlink:href="#CMSS17-99"/>
      <use transform="translate(379.674062 14.943915)scale(0.996264)" xlink:href="#CMSS17-111"/>
      <use transform="translate(426.517685 14.943915)scale(0.996264)" xlink:href="#CMSS17-108"/>
      <use transform="translate(448.698408 14.943915)scale(0.996264)" xlink:href="#CMSS17-111"/>
      <use transform="translate(492.939578 14.943915)scale(0.996264)" xlink:href="#CMSS17-114"/>
      <use transform="translate(524.84935 14.943915)scale(0.996264)" xlink:href="#CMSS17-115"/>
      <use transform="translate(560.762892 14.943915)scale(0.996264)" xlink:href="#CMSS17-41"/>
      <use transform="translate(628.425919 14.943915)scale(0.996264)" xlink:href="#CMR17-82"/>
      <use transform="translate(696.217021 14.943915)scale(0.996264)" xlink:href="#CMR17-97"/>
      <use transform="translate(741.907498 14.943915)scale(0.996264)" xlink:href="#CMR17-110"/>
      <use transform="translate(792.802868 14.943915)scale(0.996264)" xlink:href="#CMR17-107"/>
      <use transform="translate(841.095784 14.943915)scale(0.996264)" xlink:href="#CMR17-40"/>
      <use transform="translate(876.376552 14.943915)scale(0.996264)" xlink:href="#CMMI12-26"/>
      <use transform="translate(926.690925 0)scale(0.697382)" xlink:href="#CMR17-48"/>
      <use transform="translate(959.172239 14.943915)scale(0.996264)" xlink:href="#CMR17-41"/>
      <use transform="translate(1022.127015 14.943915)scale(0.996264)" xlink:href="#CMR17-61"/>
      <use transform="translate(1121.515812 14.943915)scale(0.996264)" xlink:href="#CMR17-50"/>
      <use transform="translate(1167.206289 14.943915)scale(0.996264)" xlink:href="#CMMI12-58"/>
      <use transform="translate(1194.303466 14.943915)scale(0.996264)" xlink:href="#CMMI12-58"/>
      <use transform="translate(1221.400644 14.943915)scale(0.996264)" xlink:href="#CMMI12-58"/>
      <use transform="translate(1248.497821 14.943915)scale(0.996264)" xlink:href="#CMR17-57"/>
     </g>
    </g>
    <g id="line2d_41"/>
    <g id="line2d_42">
     <g>
      <use style="fill:#f667c6;" x="174.699731" xlink:href="#mff24c265d7" y="150.540008"/>
     </g>
    </g>
    <g id="text_17">
     <!-- $\mathrm{Rank}(\rho_{0})=$10 -->
     <defs>
      <path d="M 43.09375 31.9375 
C 43.09375 37.578125 43 48.078125 38.90625 56.1875 
C 34.796875 64 28.203125 66.078125 23.5 66.078125 
C 16.703125 66.078125 10.90625 62.125 7.90625 55.78125 
C 4.703125 49.15625 3.796875 42.328125 3.796875 31.9375 
C 3.796875 24.828125 4.09375 16.109375 7.703125 8.484375 
C 11.796875 0.078125 18.703125 -2 23.40625 -2 
C 29.59375 -2 35.59375 1.265625 39 8.09375 
C 42.5 15.21875 43.09375 23.03125 43.09375 31.9375 
z
M 23.40625 4.078125 
C 15.796875 4.078125 13.5 12.671875 12.796875 15.546875 
C 11.59375 20.46875 11.40625 25.21875 11.40625 33.03125 
C 11.40625 39.15625 11.40625 46.0625 13.296875 51.515625 
C 15.59375 57.828125 19.59375 60 23.40625 60 
C 30.796875 60 33.203125 52.6875 34 50.125 
C 35.5 44.890625 35.5 38.765625 35.5 33.03125 
C 35.5 23.84375 35.5 4.078125 23.40625 4.078125 
z
" id="CMSS17-48"/>
     </defs>
     <g style="fill:#262626;" transform="translate(219.699731 159.290008)scale(0.25 -0.25)">
      <use transform="translate(0 14.943915)scale(0.996264)" xlink:href="#CMR17-82"/>
      <use transform="translate(67.791102 14.943915)scale(0.996264)" xlink:href="#CMR17-97"/>
      <use transform="translate(113.481579 14.943915)scale(0.996264)" xlink:href="#CMR17-110"/>
      <use transform="translate(164.376949 14.943915)scale(0.996264)" xlink:href="#CMR17-107"/>
      <use transform="translate(212.669865 14.943915)scale(0.996264)" xlink:href="#CMR17-40"/>
      <use transform="translate(247.950633 14.943915)scale(0.996264)" xlink:href="#CMMI12-26"/>
      <use transform="translate(298.265005 0)scale(0.697382)" xlink:href="#CMR17-48"/>
      <use transform="translate(330.746319 14.943915)scale(0.996264)" xlink:href="#CMR17-41"/>
      <use transform="translate(393.701096 14.943915)scale(0.996264)" xlink:href="#CMR17-61"/>
      <use transform="translate(465.415884 14.943915)scale(0.996264)" xlink:href="#CMSS17-49"/>
      <use transform="translate(512.259508 14.943915)scale(0.996264)" xlink:href="#CMSS17-48"/>
     </g>
    </g>
   </g>
  </g>
 </g>
 <defs>
  <clipPath id="p4aa51d978e">
   <rect height="360" width="720" x="127.199731" y="7.2"/>
  </clipPath>
 </defs>
</svg>
