<?xml version="1.0" encoding="utf-8" standalone="no"?>
<!DOCTYPE svg PUBLIC "-//W3C//DTD SVG 1.1//EN"
  "http://www.w3.org/Graphics/SVG/1.1/DTD/svg11.dtd">
<!-- Created with matplotlib (http://matplotlib.org/) -->
<svg height="270pt" version="1.1" viewBox="0 0 412 270" width="412pt" xmlns="http://www.w3.org/2000/svg" xmlns:xlink="http://www.w3.org/1999/xlink">
 <defs>
  <style type="text/css">
*{stroke-linecap:butt;stroke-linejoin:round;stroke-miterlimit:100000;}
  </style>
 </defs>
 <g id="figure_1">
  <g id="patch_1">
   <path d="M 0 270.973255 
L 412.608911 270.973255 
L 412.608911 -0 
L 0 -0 
z
" style="fill:#ffffff;"/>
  </g>
  <g id="axes_1">
   <g id="patch_2">
    <path d="M 56.092674 223.2 
L 398.092674 223.2 
L 398.092674 7.2 
L 56.092674 7.2 
z
" style="fill:#eaeaf2;"/>
   </g>
   <g id="matplotlib.axis_1">
    <g id="xtick_1">
     <g id="line2d_1">
      <path clip-path="url(#pda946c34e7)" d="M 56.092674 223.2 
L 56.092674 7.2 
" style="fill:none;stroke:#ffffff;stroke-linecap:round;"/>
     </g>
     <g id="line2d_2">
      <defs>
       <path d="M 0 0 
L 0 0 
" id="m4185f0a25d" style="stroke:#262626;"/>
      </defs>
      <g>
       <use style="fill:#262626;stroke:#262626;" x="56.0926735922" xlink:href="#m4185f0a25d" y="223.2"/>
      </g>
     </g>
     <g id="line2d_3">
      <g>
       <use style="fill:#262626;stroke:#262626;" x="56.0926735922" xlink:href="#m4185f0a25d" y="7.2"/>
      </g>
     </g>
     <g id="text_1">
      <!-- $0$ -->
      <defs>
       <path d="M 42 31.640625 
C 42 37.75 41.90625 48.125 37.703125 56.109375 
C 34 63.109375 28.09375 65.59375 22.90625 65.59375 
C 18.09375 65.59375 12 63.40625 8.203125 56.203125 
C 4.203125 48.71875 3.796875 39.4375 3.796875 31.640625 
C 3.796875 25.953125 3.90625 17.28125 7 9.671875 
C 11.296875 -0.609375 19 -2 22.90625 -2 
C 27.5 -2 34.5 -0.109375 38.59375 9.375 
C 41.59375 16.28125 42 24.359375 42 31.640625 
M 22.90625 -0.40625 
C 16.5 -0.40625 12.703125 5.078125 11.296875 12.6875 
C 10.203125 18.5625 10.203125 27.15625 10.203125 32.75 
C 10.203125 40.4375 10.203125 46.828125 11.5 52.921875 
C 13.40625 61.390625 19 64 22.90625 64 
C 27 64 32.296875 61.296875 34.203125 53.125 
C 35.5 47.4375 35.59375 40.734375 35.59375 32.75 
C 35.59375 26.25 35.59375 18.265625 34.40625 12.375 
C 32.296875 1.484375 26.40625 -0.40625 22.90625 -0.40625 
" id="CMR17-48"/>
      </defs>
      <g style="fill:#262626;" transform="translate(52.4345546851 240.577724767)scale(0.15 -0.15)">
       <use transform="scale(0.996264009963)" xlink:href="#CMR17-48"/>
      </g>
     </g>
    </g>
    <g id="xtick_2">
     <g id="line2d_4">
      <path clip-path="url(#pda946c34e7)" d="M 113.092674 223.2 
L 113.092674 7.2 
" style="fill:none;stroke:#ffffff;stroke-linecap:round;"/>
     </g>
     <g id="line2d_5">
      <g>
       <use style="fill:#262626;stroke:#262626;" x="113.092673592" xlink:href="#m4185f0a25d" y="223.2"/>
      </g>
     </g>
     <g id="line2d_6">
      <g>
       <use style="fill:#262626;stroke:#262626;" x="113.092673592" xlink:href="#m4185f0a25d" y="7.2"/>
      </g>
     </g>
     <g id="text_2">
      <!-- $5$ -->
      <defs>
       <path d="M 11.40625 57.6875 
C 12.40625 57.28125 16.5 56 20.703125 56 
C 30 56 35.09375 61.109375 38 64.0625 
C 38 64.953125 38 65.5 37.40625 65.5 
C 37.296875 65.5 37.09375 65.5 36.296875 65.046875 
C 32.796875 63.40625 28.703125 62.078125 23.703125 62.078125 
C 20.703125 62.078125 16.203125 62.484375 11.296875 64.671875 
C 10.203125 65.171875 10 65.171875 9.90625 65.171875 
C 9.40625 65.171875 9.296875 65.0625 9.296875 63.078125 
L 9.296875 34.421875 
C 9.296875 32.640625 9.296875 32.140625 10.296875 32.140625 
C 10.796875 32.140625 11 32.34375 11.5 33.03125 
C 14.703125 37.515625 19.09375 39.40625 24.09375 39.40625 
C 27.59375 39.40625 35.09375 37.21875 35.09375 20.140625 
C 35.09375 16.953125 35.09375 11.171875 32.09375 6.578125 
C 29.59375 2.484375 25.703125 0.390625 21.40625 0.390625 
C 14.796875 0.390625 8.09375 5 6.296875 12.71875 
C 6.703125 12.609375 7.5 12.421875 7.90625 12.421875 
C 9.203125 12.421875 11.703125 13.125 11.703125 16.21875 
C 11.703125 18.90625 9.796875 20 7.90625 20 
C 5.59375 20 4.09375 18.59375 4.09375 15.796875 
C 4.09375 7.09375 11 -2 21.59375 -2 
C 31.90625 -2 41.703125 6.875 41.703125 19.75 
C 41.703125 31.71875 33.90625 41 24.203125 41 
C 19.09375 41 14.796875 39.109375 11.40625 35.53125 
z
" id="CMR17-53"/>
      </defs>
      <g style="fill:#262626;" transform="translate(109.434554685 240.577724767)scale(0.15 -0.15)">
       <use transform="scale(0.996264009963)" xlink:href="#CMR17-53"/>
      </g>
     </g>
    </g>
    <g id="xtick_3">
     <g id="line2d_7">
      <path clip-path="url(#pda946c34e7)" d="M 170.092674 223.2 
L 170.092674 7.2 
" style="fill:none;stroke:#ffffff;stroke-linecap:round;"/>
     </g>
     <g id="line2d_8">
      <g>
       <use style="fill:#262626;stroke:#262626;" x="170.092673592" xlink:href="#m4185f0a25d" y="223.2"/>
      </g>
     </g>
     <g id="line2d_9">
      <g>
       <use style="fill:#262626;stroke:#262626;" x="170.092673592" xlink:href="#m4185f0a25d" y="7.2"/>
      </g>
     </g>
     <g id="text_3">
      <!-- $10$ -->
      <defs>
       <path d="M 26.59375 63.40625 
C 26.59375 65.5 26.5 65.5 25.09375 65.5 
C 21.203125 61.1875 15.296875 59.796875 9.703125 59.796875 
C 9.40625 59.796875 8.90625 59.796875 8.796875 59.5 
C 8.703125 59.296875 8.703125 59.09375 8.703125 57 
C 11.796875 57 17 57.59375 21 59.984375 
L 21 7.203125 
C 21 3.6875 20.796875 2.5 12.203125 2.5 
L 9.203125 2.5 
L 9.203125 0 
C 14 0 19 0 23.796875 0 
C 28.59375 0 33.59375 0 38.40625 0 
L 38.40625 2.5 
L 35.40625 2.5 
C 26.796875 2.5 26.59375 3.59375 26.59375 7.15625 
z
" id="CMR17-49"/>
      </defs>
      <g style="fill:#262626;" transform="translate(162.776435778 240.577724767)scale(0.15 -0.15)">
       <use transform="scale(0.996264009963)" xlink:href="#CMR17-49"/>
       <use transform="translate(45.6904771171 0.0)scale(0.996264009963)" xlink:href="#CMR17-48"/>
      </g>
     </g>
    </g>
    <g id="xtick_4">
     <g id="line2d_10">
      <path clip-path="url(#pda946c34e7)" d="M 227.092674 223.2 
L 227.092674 7.2 
" style="fill:none;stroke:#ffffff;stroke-linecap:round;"/>
     </g>
     <g id="line2d_11">
      <g>
       <use style="fill:#262626;stroke:#262626;" x="227.092673592" xlink:href="#m4185f0a25d" y="223.2"/>
      </g>
     </g>
     <g id="line2d_12">
      <g>
       <use style="fill:#262626;stroke:#262626;" x="227.092673592" xlink:href="#m4185f0a25d" y="7.2"/>
      </g>
     </g>
     <g id="text_4">
      <!-- $15$ -->
      <g style="fill:#262626;" transform="translate(219.776435778 240.577724767)scale(0.15 -0.15)">
       <use transform="scale(0.996264009963)" xlink:href="#CMR17-49"/>
       <use transform="translate(45.6904771171 0.0)scale(0.996264009963)" xlink:href="#CMR17-53"/>
      </g>
     </g>
    </g>
    <g id="xtick_5">
     <g id="line2d_13">
      <path clip-path="url(#pda946c34e7)" d="M 284.092674 223.2 
L 284.092674 7.2 
" style="fill:none;stroke:#ffffff;stroke-linecap:round;"/>
     </g>
     <g id="line2d_14">
      <g>
       <use style="fill:#262626;stroke:#262626;" x="284.092673592" xlink:href="#m4185f0a25d" y="223.2"/>
      </g>
     </g>
     <g id="line2d_15">
      <g>
       <use style="fill:#262626;stroke:#262626;" x="284.092673592" xlink:href="#m4185f0a25d" y="7.2"/>
      </g>
     </g>
     <g id="text_5">
      <!-- $20$ -->
      <defs>
       <path d="M 41.703125 15.453125 
L 39.90625 15.453125 
C 38.90625 8.375 38.09375 7.171875 37.703125 6.5625 
C 37.203125 5.765625 30 5.765625 28.59375 5.765625 
L 9.40625 5.765625 
C 13 9.671875 20 16.75 28.5 24.953125 
C 34.59375 30.734375 41.703125 37.53125 41.703125 47.421875 
C 41.703125 59.21875 32.296875 66 21.796875 66 
C 10.796875 66 4.09375 56.3125 4.09375 47.34375 
C 4.09375 43.4375 7 42.9375 8.203125 42.9375 
C 9.203125 42.9375 12.203125 43.546875 12.203125 47.03125 
C 12.203125 50.109375 9.59375 51 8.203125 51 
C 7.59375 51 7 50.90625 6.59375 50.703125 
C 8.5 59.21875 14.296875 63.40625 20.40625 63.40625 
C 29.09375 63.40625 34.796875 56.515625 34.796875 47.421875 
C 34.796875 38.734375 29.703125 31.25 24 24.75 
L 4.09375 2.28125 
L 4.09375 0 
L 39.296875 0 
z
" id="CMR17-50"/>
      </defs>
      <g style="fill:#262626;" transform="translate(276.776435778 240.577724767)scale(0.15 -0.15)">
       <use transform="scale(0.996264009963)" xlink:href="#CMR17-50"/>
       <use transform="translate(45.6904771171 0.0)scale(0.996264009963)" xlink:href="#CMR17-48"/>
      </g>
     </g>
    </g>
    <g id="xtick_6">
     <g id="line2d_16">
      <path clip-path="url(#pda946c34e7)" d="M 341.092674 223.2 
L 341.092674 7.2 
" style="fill:none;stroke:#ffffff;stroke-linecap:round;"/>
     </g>
     <g id="line2d_17">
      <g>
       <use style="fill:#262626;stroke:#262626;" x="341.092673592" xlink:href="#m4185f0a25d" y="223.2"/>
      </g>
     </g>
     <g id="line2d_18">
      <g>
       <use style="fill:#262626;stroke:#262626;" x="341.092673592" xlink:href="#m4185f0a25d" y="7.2"/>
      </g>
     </g>
     <g id="text_6">
      <!-- $25$ -->
      <g style="fill:#262626;" transform="translate(333.776435778 240.577724767)scale(0.15 -0.15)">
       <use transform="scale(0.996264009963)" xlink:href="#CMR17-50"/>
       <use transform="translate(45.6904771171 0.0)scale(0.996264009963)" xlink:href="#CMR17-53"/>
      </g>
     </g>
    </g>
    <g id="xtick_7">
     <g id="line2d_19">
      <path clip-path="url(#pda946c34e7)" d="M 398.092674 223.2 
L 398.092674 7.2 
" style="fill:none;stroke:#ffffff;stroke-linecap:round;"/>
     </g>
     <g id="line2d_20">
      <g>
       <use style="fill:#262626;stroke:#262626;" x="398.092673592" xlink:href="#m4185f0a25d" y="223.2"/>
      </g>
     </g>
     <g id="line2d_21">
      <g>
       <use style="fill:#262626;stroke:#262626;" x="398.092673592" xlink:href="#m4185f0a25d" y="7.2"/>
      </g>
     </g>
     <g id="text_7">
      <!-- $30$ -->
      <defs>
       <path d="M 22.09375 33.703125 
C 31 33.703125 34.90625 25.96875 34.90625 17.03125 
C 34.90625 5 28.5 0.390625 22.703125 0.390625 
C 17.40625 0.390625 8.796875 3.03125 6.09375 10.828125 
C 6.59375 10.625 7.09375 10.625 7.59375 10.625 
C 10 10.625 11.796875 12.21875 11.796875 14.8125 
C 11.796875 17.703125 9.59375 19 7.59375 19 
C 5.90625 19 3.296875 18.203125 3.296875 14.46875 
C 3.296875 5.234375 12.296875 -2 22.90625 -2 
C 34 -2 42.5 6.71875 42.5 16.953125 
C 42.5 26.671875 34.5 33.6875 25 34.796875 
C 32.59375 36.375 39.90625 43.0625 39.90625 52.015625 
C 39.90625 59.6875 32 65.296875 23 65.296875 
C 13.90625 65.296875 5.90625 59.828125 5.90625 52.015625 
C 5.90625 48.59375 8.5 48 9.796875 48 
C 11.90625 48 13.703125 49.296875 13.703125 51.890625 
C 13.703125 54.46875 11.90625 55.765625 9.796875 55.765625 
C 9.40625 55.765625 8.90625 55.765625 8.5 55.578125 
C 11.40625 61.859375 19.296875 63 22.796875 63 
C 26.296875 63 32.90625 61.328125 32.90625 51.875 
C 32.90625 49.109375 32.5 44.1875 29.09375 39.84375 
C 26.09375 36 22.703125 36 19.40625 35.6875 
C 18.90625 35.6875 16.59375 35.453125 16.203125 35.453125 
C 15.5 35.359375 15.09375 35.265625 15.09375 34.5 
C 15.09375 33.796875 15.203125 33.703125 17.203125 33.703125 
z
" id="CMR17-51"/>
      </defs>
      <g style="fill:#262626;" transform="translate(390.776435778 240.577724767)scale(0.15 -0.15)">
       <use transform="scale(0.996264009963)" xlink:href="#CMR17-51"/>
       <use transform="translate(45.6904771171 0.0)scale(0.996264009963)" xlink:href="#CMR17-48"/>
      </g>
     </g>
    </g>
    <g id="text_8">
     <!-- Empirical Average $\bar{\lambda}$ -->
     <defs>
      <path d="M 60.703125 25.234375 
L 58.90625 25.234375 
C 56.703125 10.5625 55.40625 2.59375 37.796875 2.59375 
L 23.90625 2.59375 
C 19.90625 2.59375 19.703125 3.078125 19.703125 6.46875 
L 19.703125 34 
L 29.09375 34 
C 38.5 34 39.40625 30.625 39.40625 22.34375 
L 41.203125 22.34375 
L 41.203125 48.140625 
L 39.40625 48.140625 
C 39.40625 39.953125 38.5 36.59375 29.09375 36.59375 
L 19.703125 36.59375 
L 19.703125 61.140625 
C 19.703125 64.5 19.90625 65 23.90625 65 
L 37.59375 65 
C 53.09375 65 54.90625 58.890625 56.296875 45.765625 
L 58.09375 45.765625 
L 55.703125 67.578125 
L 5.09375 67.578125 
L 5.09375 65 
C 12 65 13.09375 65 13.09375 60.53125 
L 13.09375 7.046875 
C 13.09375 2.59375 12 2.59375 5.09375 2.59375 
L 5.09375 0 
L 57.09375 0 
z
" id="CMR17-69"/>
      <path d="M 36 25.828125 
C 36 32.375 36 35.84375 31.796875 39.734375 
C 28.09375 43 23.796875 44 20.40625 44 
C 12.5 44 6.796875 37.609375 6.796875 30.796875 
C 6.796875 27 9.796875 27 10.40625 27 
C 11.703125 27 14 27.78125 14 30.53125 
C 14 33 12.09375 34.078125 10.40625 34.078125 
C 10 34.078125 9.5 33.96875 9.203125 33.875 
C 11.296875 40.5 16.703125 42.40625 20.203125 42.40625 
C 25.203125 42.40625 30.703125 37.953125 30.703125 29.453125 
L 30.703125 25 
C 24.796875 25 17.703125 24.203125 12.09375 21.203125 
C 5.796875 17.703125 4 12.703125 4 8.90625 
C 4 1.203125 13 -1 18.296875 -1 
C 23.796875 -1 28.90625 2.171875 31.09375 7.984375 
C 31.296875 3.640625 34.09375 -0.28125 38.5 -0.28125 
C 40.59375 -0.28125 45.90625 1.09375 45.90625 8.859375 
L 45.90625 14.375 
L 44.09375 14.375 
L 44.09375 8.78125 
C 44.09375 2.78125 41.40625 2 40.09375 2 
C 36 2 36 7.15625 36 11.53125 
z
M 30.703125 13.59375 
C 30.703125 4.953125 24.5 0.59375 19 0.59375 
C 14 0.59375 10.09375 4.296875 10.09375 8.90625 
C 10.09375 11.890625 11.40625 17.1875 17.203125 20.390625 
C 22 23.09375 27.5 23.5 30.703125 23.5 
z
" id="CMR17-97"/>
      <path d="M 39.90625 55 
L 39.90625 57.28125 
L 5.90625 57.28125 
L 5.90625 55 
z
" id="CMR17-22"/>
      <path d="M 36.296875 68.40625 
C 35.796875 69.703125 35.59375 70 34.59375 70 
C 33.59375 70 33.40625 69.703125 32.90625 68.40625 
L 11.703125 8.84375 
C 9.796875 3.484375 5.796875 2.390625 2.296875 2.390625 
L 2.296875 -0.203125 
C 4.09375 0 8.09375 0 10 0 
C 12.5 0 16.5 0 18.90625 -0.203125 
L 18.90625 2.390625 
C 14.203125 2.390625 13.5 5.640625 13.5 6.859375 
C 13.5 7.765625 13.703125 8.28125 13.90625 8.890625 
L 19.203125 24 
L 45.40625 24 
L 51.40625 6.90625 
C 51.90625 5.703125 51.90625 5.5 51.90625 5.109375 
C 51.90625 2.390625 47.59375 2.390625 45.703125 2.390625 
L 45.703125 0 
C 48.59375 0 53.796875 0 56.90625 0 
C 59.5 0 64.5 0 66.90625 -0.203125 
L 66.90625 2.390625 
C 61.59375 2.390625 59.796875 2.390625 58.5 6.046875 
z
M 32.296875 60.828125 
L 44.5 26.59375 
L 20.09375 26.59375 
z
" id="CMR17-65"/>
      <path d="M 34.90625 35 
C 33 35 30.203125 35 30.203125 31.515625 
C 30.203125 28.71875 32.5 27.921875 33.796875 27.921875 
C 34.5 27.921875 37.40625 28.234375 37.40625 31.625 
C 37.40625 38.546875 30.59375 43.796875 22.90625 43.796875 
C 12.296875 43.796875 3.296875 34.03125 3.296875 21.296875 
C 3.296875 8.0625 12.703125 -1 22.90625 -1 
C 35.296875 -1 38.40625 10.578125 38.40625 11.6875 
C 38.40625 12.09375 38.296875 12.390625 37.59375 12.390625 
C 36.90625 12.390625 36.796875 12.296875 36.40625 10.984375 
C 33.796875 2.8125 28.09375 0.796875 23.796875 0.796875 
C 17.40625 0.796875 9.703125 6.671875 9.703125 21.390625 
C 9.703125 36.53125 17.09375 42 23 42 
C 26.90625 42 32.703125 40.203125 34.90625 35 
" id="CMR17-99"/>
      <path d="M 15.5 61.078125 
C 15.5 63.265625 13.703125 65.15625 11.40625 65.15625 
C 9.203125 65.15625 7.296875 63.375 7.296875 61.078125 
C 7.296875 58.890625 9.09375 57 11.40625 57 
C 13.59375 57 15.5 58.796875 15.5 61.078125 
M 3.796875 42.28125 
L 3.796875 39.703125 
C 9.40625 39.703125 10.203125 39.09375 10.203125 34.328125 
L 10.203125 6.671875 
C 10.203125 2.875 9.796875 2.390625 3.40625 2.390625 
L 3.40625 -0.203125 
C 5.796875 0 10.09375 0 12.59375 0 
C 15 0 19.09375 0 21.40625 -0.203125 
L 21.40625 2.390625 
C 15.5 2.390625 15.296875 2.984375 15.296875 6.5625 
L 15.296875 43.375 
z
" id="CMR17-105"/>
      <path d="M 15 23.390625 
C 15 33 19.09375 42 26.59375 42 
C 27.296875 42 28 41.90625 28.703125 41.59375 
C 28.703125 41.59375 26.5 40.890625 26.5 38.3125 
C 26.5 35.90625 28.40625 34.90625 29.90625 34.90625 
C 31.09375 34.90625 33.296875 35.609375 33.296875 38.40625 
C 33.296875 41.609375 30.09375 43.59375 26.703125 43.59375 
C 19.09375 43.59375 15.796875 36.203125 14.796875 32.703125 
L 14.703125 32.703125 
L 14.703125 43.59375 
L 3.09375 42.5 
L 3.09375 39.90625 
C 9 39.90625 9.90625 39.296875 9.90625 34.5 
L 9.90625 6.6875 
C 9.90625 2.875 9.5 2.390625 3.09375 2.390625 
L 3.09375 -0.203125 
C 5.5 0 10.09375 0 12.703125 0 
C 15.59375 0 20.703125 0 23.40625 -0.203125 
L 23.40625 2.390625 
C 16.203125 2.390625 15 2.390625 15 6.875 
z
" id="CMR17-114"/>
      <path d="M 22 -16.609375 
C 15.59375 -16.609375 15.203125 -16.203125 15.203125 -12.328125 
L 15.203125 6.28125 
C 18.09375 2.09375 22.296875 -0.59375 27.59375 -0.59375 
C 37.59375 -0.59375 47.703125 8.171875 47.703125 21.6875 
C 47.703125 34.234375 39 43.78125 28.703125 43.78125 
C 22.703125 43.78125 17.796875 40.5 15 36.53125 
L 15 43.78125 
L 3.09375 42.6875 
L 3.09375 40.109375 
C 9 40.109375 9.90625 39.5 9.90625 34.734375 
L 9.90625 -12.328125 
C 9.90625 -16.109375 9.5 -16.609375 3.09375 -16.609375 
L 3.09375 -19.1875 
C 5.5 -19 9.90625 -19 12.5 -19 
C 15.09375 -19 19.59375 -19 22 -19.1875 
z
M 15.203125 31.4375 
C 15.203125 32.84375 15.203125 34.921875 19.09375 38.609375 
C 19.59375 39.015625 23 42 28 42 
C 35.296875 42 41.296875 32.9375 41.296875 21.59375 
C 41.296875 10.25 34.90625 1 27 1 
C 23.40625 1 19.5 2.6875 16.5 7.375 
C 15.203125 9.5625 15.203125 10.15625 15.203125 11.75 
z
" id="CMR17-112"/>
      <path d="M 30.90625 61.953125 
C 28.40625 69 20.5 69 19.203125 69 
C 18.59375 69 17.5 69 17.5 68 
C 17.5 67.21875 18.09375 67.109375 18.59375 67.015625 
C 20.09375 66.8125 21.296875 66.609375 22.90625 63.75 
C 23.90625 61.859375 34.203125 32.171875 34.203125 31.96875 
C 34.203125 31.875 34.09375 31.765625 33.296875 30.96875 
L 7.296875 4.859375 
C 6.09375 3.65625 5.296875 2.859375 5.296875 1.59375 
C 5.296875 0.1875 6.5 -1 8.09375 -1 
C 8.5 -1 9.59375 -0.796875 10.203125 -0.203125 
C 11.796875 1.28125 26.09375 18.65625 35.203125 29.390625 
C 37.796875 21.609375 41 12.453125 44.09375 4.078125 
C 44.59375 2.59375 45.09375 1.1875 46.5 -0.09375 
C 47.5 -1 47.703125 -1 50.5 -1 
L 52.40625 -1 
C 52.796875 -1 53.5 -1 53.5 -0.203125 
C 53.5 0.203125 53.40625 0.296875 53 0.703125 
C 52.09375 1.796875 51.40625 3.578125 51 4.78125 
z
" id="CMMI12-21"/>
      <path d="M 11.09375 18.1875 
C 13 16.6875 16.296875 15 20.296875 15 
C 28.203125 15 35 21.203125 35 29.5 
C 35 32.09375 34.203125 36.09375 31.203125 39.203125 
C 34 42.0625 38.09375 43 40.40625 43 
C 40.796875 43 41.40625 43 41.90625 42.71875 
C 41.5 42.625 40.59375 42.234375 40.59375 40.703125 
C 40.59375 39.484375 41.5 38.609375 42.796875 38.609375 
C 44.296875 38.609375 45.09375 39.578125 45.09375 40.84375 
C 45.09375 42.671875 43.59375 44.59375 40.40625 44.59375 
C 36.40625 44.59375 32.90625 42.78125 30.09375 40.3125 
C 27.09375 43.015625 23.5 44 20.296875 44 
C 12.40625 44 5.59375 37.796875 5.59375 29.5 
C 5.59375 23.78125 8.90625 20.1875 9.90625 19.1875 
C 6.90625 15.6875 6.90625 11.609375 6.90625 11.109375 
C 6.90625 8.515625 7.90625 4.71875 11.296875 2.625 
C 6.09375 1.328125 2 -2.640625 2 -7.59375 
C 2 -14.734375 11.5 -20 22.90625 -20 
C 33.90625 -20 43.796875 -14.9375 43.796875 -7.484375 
C 43.796875 6 29 6 21.296875 6 
C 19 6 14.90625 6 14.40625 6.109375 
C 11.296875 6.609375 9.203125 9.40625 9.203125 12.90625 
C 9.203125 13.796875 9.203125 16 11.09375 18.1875 
M 20.296875 16.6875 
C 11.5 16.6875 11.5 27.5 11.5 29.515625 
C 11.5 31.5 11.5 42.3125 20.296875 42.3125 
C 29.09375 42.3125 29.09375 31.5 29.09375 29.515625 
C 29.09375 27.5 29.09375 16.6875 20.296875 16.6875 
M 22.90625 -18.296875 
C 12.90625 -18.296875 6 -13.046875 6 -7.59375 
C 6 -4.515625 7.703125 -1.640625 9.90625 -0.0625 
C 12.40625 1.625 13.40625 1.625 20.203125 1.625 
C 28.40625 1.625 39.796875 1.625 39.796875 -7.59375 
C 39.796875 -13.046875 32.90625 -18.296875 22.90625 -18.296875 
" id="CMR17-103"/>
      <path d="M 38.09375 23 
C 38.5 23.40625 38.5 23.609375 38.5 24.625 
C 38.5 34.96875 33.09375 44 21.703125 44 
C 11.09375 44 2.703125 33.890625 2.703125 21.609375 
C 2.703125 8.609375 12.203125 -1 22.796875 -1 
C 34 -1 38.40625 9.484375 38.40625 11.5625 
C 38.40625 12.25 37.796875 12.25 37.59375 12.25 
C 36.90625 12.25 36.796875 12.046875 36.40625 10.875 
C 34.203125 4.140625 28.703125 0.796875 23.5 0.796875 
C 19.203125 0.796875 14.90625 3.171875 12.203125 7.5 
C 9.09375 12.546875 9.09375 18.375 9.09375 23 
z
M 9.203125 24.5 
C 9.90625 39.140625 17.59375 42.40625 21.59375 42.40625 
C 28.40625 42.40625 33 35.890625 33.09375 24.5 
z
" id="CMR17-101"/>
      <path d="M 67.59375 30.203125 
C 67.59375 35.1875 66.703125 43.59375 54.796875 43.59375 
C 48 43.59375 43.296875 39 41.5 33.609375 
L 41.40625 33.609375 
C 40.203125 41.8125 34.296875 43.59375 28.703125 43.59375 
C 20.796875 43.59375 16.703125 37.5 15.203125 33.5 
L 15.09375 33.5 
L 15.09375 43.59375 
L 3.296875 42.5 
L 3.296875 39.90625 
C 9.203125 39.90625 10.09375 39.296875 10.09375 34.5 
L 10.09375 6.6875 
C 10.09375 2.875 9.703125 2.390625 3.296875 2.390625 
L 3.296875 -0.203125 
C 5.703125 0 10.09375 0 12.703125 0 
C 15.296875 0 19.796875 0 22.203125 -0.203125 
L 22.203125 2.390625 
C 15.796875 2.390625 15.40625 2.78125 15.40625 6.6875 
L 15.40625 25.90625 
C 15.40625 35.109375 21 42 28 42 
C 35.40625 42 36.203125 35.40625 36.203125 30.59375 
L 36.203125 6.6875 
C 36.203125 2.875 35.796875 2.390625 29.40625 2.390625 
L 29.40625 -0.203125 
C 31.796875 0 36.203125 0 38.796875 0 
C 41.40625 0 45.90625 0 48.296875 -0.203125 
L 48.296875 2.390625 
C 41.90625 2.390625 41.5 2.78125 41.5 6.6875 
L 41.5 25.90625 
C 41.5 35.109375 47.09375 42 54.09375 42 
C 61.5 42 62.296875 35.40625 62.296875 30.59375 
L 62.296875 6.6875 
C 62.296875 2.875 61.90625 2.390625 55.5 2.390625 
L 55.5 -0.203125 
C 57.90625 0 62.296875 0 64.90625 0 
C 67.5 0 72 0 74.40625 -0.203125 
L 74.40625 2.390625 
C 68 2.390625 67.59375 2.78125 67.59375 6.6875 
z
" id="CMR17-109"/>
      <path d="M 15.296875 68.6875 
L 3.40625 67.59375 
L 3.40625 65 
C 9.296875 65 10.203125 64.40625 10.203125 59.640625 
L 10.203125 6.65625 
C 10.203125 2.875 9.796875 2.390625 3.40625 2.390625 
L 3.40625 -0.203125 
C 5.796875 0 10.203125 0 12.703125 0 
C 15.296875 0 19.703125 0 22.09375 -0.203125 
L 22.09375 2.390625 
C 15.703125 2.390625 15.296875 2.78125 15.296875 6.65625 
z
" id="CMR17-108"/>
      <path d="M 39.09375 33.796875 
C 40 36 41.59375 40 47.40625 40 
L 47.40625 42.59375 
C 45.5 42.59375 43 42.59375 41.09375 42.59375 
C 39 42.59375 35.703125 42.59375 33.703125 42.6875 
L 33.703125 40.09375 
C 36.203125 39.890625 37.59375 38.703125 37.59375 36.109375 
C 37.59375 35.203125 37.59375 35 37 33.609375 
L 26 5.890625 
L 14.09375 35.71875 
C 13.5 37.015625 13.5 37.203125 13.5 37.609375 
C 13.5 40 16.796875 40 18.296875 40 
L 18.296875 42.6875 
C 15.90625 42.59375 11.5 42.59375 9 42.59375 
C 6.296875 42.59375 3.203125 42.59375 1 42.6875 
L 1 40 
C 4.796875 40 6.90625 40 8.09375 36.90625 
L 22.59375 0.6875 
C 23.203125 -0.796875 23.296875 -1 24.203125 -1 
C 25.09375 -1 25.203125 -0.796875 25.796875 0.6875 
z
" id="CMR17-118"/>
     </defs>
     <g style="fill:#262626;" transform="translate(161.148808606 260.867510264)scale(0.15 -0.15)">
      <use transform="scale(0.996264009963)" xlink:href="#CMR17-69"/>
      <use transform="translate(62.5863005186 0.0)scale(0.996264009963)" xlink:href="#CMR17-109"/>
      <use transform="translate(139.505890387 0.0)scale(0.996264009963)" xlink:href="#CMR17-112"/>
      <use transform="translate(190.401260167 0.0)scale(0.996264009963)" xlink:href="#CMR17-105"/>
      <use transform="translate(215.272318649 0.0)scale(0.996264009963)" xlink:href="#CMR17-114"/>
      <use transform="translate(250.553086448 0.0)scale(0.996264009963)" xlink:href="#CMR17-105"/>
      <use transform="translate(275.42414493 0.0)scale(0.996264009963)" xlink:href="#CMR17-99"/>
      <use transform="translate(315.909805393 0.0)scale(0.996264009963)" xlink:href="#CMR17-97"/>
      <use transform="translate(361.60028251 0.0)scale(0.996264009963)" xlink:href="#CMR17-108"/>
      <use transform="translate(416.547307339 0.0)scale(0.996264009963)" xlink:href="#CMR17-65"/>
      <use transform="translate(485.619737143 0.0)scale(0.996264009963)" xlink:href="#CMR17-118"/>
      <use transform="translate(531.310199058 0.0)scale(0.996264009963)" xlink:href="#CMR17-101"/>
      <use transform="translate(571.795859521 0.0)scale(0.996264009963)" xlink:href="#CMR17-114"/>
      <use transform="translate(607.07662732 0.0)scale(0.996264009963)" xlink:href="#CMR17-97"/>
      <use transform="translate(652.767104437 0.0)scale(0.996264009963)" xlink:href="#CMR17-103"/>
      <use transform="translate(698.457581555 0.0)scale(0.996264009963)" xlink:href="#CMR17-101"/>
      <use transform="translate(774.62600575 26.2966208262)scale(0.996264009963)" xlink:href="#CMR17-22"/>
      <use transform="translate(769.019208364 0.0)scale(0.996264009963)" xlink:href="#CMMI12-21"/>
     </g>
    </g>
   </g>
   <g id="matplotlib.axis_2">
    <g id="ytick_1">
     <g id="line2d_22">
      <path clip-path="url(#pda946c34e7)" d="M 56.092674 223.2 
L 398.092674 223.2 
" style="fill:none;stroke:#ffffff;stroke-linecap:round;"/>
     </g>
     <g id="line2d_23">
      <g>
       <use style="fill:#262626;stroke:#262626;" x="56.0926735922" xlink:href="#m4185f0a25d" y="223.2"/>
      </g>
     </g>
     <g id="line2d_24">
      <g>
       <use style="fill:#262626;stroke:#262626;" x="398.092673592" xlink:href="#m4185f0a25d" y="223.2"/>
      </g>
     </g>
     <g id="text_9">
      <!-- $0$ -->
      <g style="fill:#262626;" transform="translate(41.7764357779 226.935990037)scale(0.15 -0.15)">
       <use transform="scale(0.996264009963)" xlink:href="#CMR17-48"/>
      </g>
     </g>
    </g>
    <g id="ytick_2">
     <g id="line2d_25">
      <path clip-path="url(#pda946c34e7)" d="M 56.092674 183.927273 
L 398.092674 183.927273 
" style="fill:none;stroke:#ffffff;stroke-linecap:round;"/>
     </g>
     <g id="line2d_26">
      <g>
       <use style="fill:#262626;stroke:#262626;" x="56.0926735922" xlink:href="#m4185f0a25d" y="183.927272727"/>
      </g>
     </g>
     <g id="line2d_27">
      <g>
       <use style="fill:#262626;stroke:#262626;" x="398.092673592" xlink:href="#m4185f0a25d" y="183.927272727"/>
      </g>
     </g>
     <g id="text_10">
      <!-- $20$ -->
      <g style="fill:#262626;" transform="translate(34.4601979637 187.663262765)scale(0.15 -0.15)">
       <use transform="scale(0.996264009963)" xlink:href="#CMR17-50"/>
       <use transform="translate(45.6904771171 0.0)scale(0.996264009963)" xlink:href="#CMR17-48"/>
      </g>
     </g>
    </g>
    <g id="ytick_3">
     <g id="line2d_28">
      <path clip-path="url(#pda946c34e7)" d="M 56.092674 144.654545 
L 398.092674 144.654545 
" style="fill:none;stroke:#ffffff;stroke-linecap:round;"/>
     </g>
     <g id="line2d_29">
      <g>
       <use style="fill:#262626;stroke:#262626;" x="56.0926735922" xlink:href="#m4185f0a25d" y="144.654545455"/>
      </g>
     </g>
     <g id="line2d_30">
      <g>
       <use style="fill:#262626;stroke:#262626;" x="398.092673592" xlink:href="#m4185f0a25d" y="144.654545455"/>
      </g>
     </g>
     <g id="text_11">
      <!-- $40$ -->
      <defs>
       <path d="M 33.59375 64.40625 
C 33.59375 66.5 33.5 66.5 31.703125 66.5 
L 2 19.59375 
L 2 17 
L 27.796875 17 
L 27.796875 7.140625 
C 27.796875 3.5 27.59375 2.5 20.59375 2.5 
L 18.703125 2.5 
L 18.703125 0 
C 21.90625 0 27.296875 0 30.703125 0 
C 34.09375 0 39.5 0 42.703125 0 
L 42.703125 2.5 
L 40.796875 2.5 
C 33.796875 2.5 33.59375 3.5 33.59375 7.140625 
L 33.59375 17 
L 43.796875 17 
L 43.796875 19.59375 
L 33.59375 19.59375 
z
M 28.09375 57.859375 
L 28.09375 19.59375 
L 4 19.59375 
z
" id="CMR17-52"/>
      </defs>
      <g style="fill:#262626;" transform="translate(34.4601979637 148.390535492)scale(0.15 -0.15)">
       <use transform="scale(0.996264009963)" xlink:href="#CMR17-52"/>
       <use transform="translate(45.6904771171 0.0)scale(0.996264009963)" xlink:href="#CMR17-48"/>
      </g>
     </g>
    </g>
    <g id="ytick_4">
     <g id="line2d_31">
      <path clip-path="url(#pda946c34e7)" d="M 56.092674 105.381818 
L 398.092674 105.381818 
" style="fill:none;stroke:#ffffff;stroke-linecap:round;"/>
     </g>
     <g id="line2d_32">
      <g>
       <use style="fill:#262626;stroke:#262626;" x="56.0926735922" xlink:href="#m4185f0a25d" y="105.381818182"/>
      </g>
     </g>
     <g id="line2d_33">
      <g>
       <use style="fill:#262626;stroke:#262626;" x="398.092673592" xlink:href="#m4185f0a25d" y="105.381818182"/>
      </g>
     </g>
     <g id="text_12">
      <!-- $60$ -->
      <defs>
       <path d="M 10.59375 34 
C 10.59375 57.65625 21.796875 63 28.296875 63 
C 30.40625 63 35.5 62.640625 37.5 59 
C 35.90625 59 32.90625 59 32.90625 55.515625 
C 32.90625 52.828125 35.09375 51.921875 36.5 51.921875 
C 37.40625 51.921875 40.09375 52.3125 40.09375 55.625 
C 40.09375 61.78125 35.09375 65.296875 28.203125 65.296875 
C 16.296875 65.296875 3.796875 52.96875 3.796875 31 
C 3.796875 3.953125 15.09375 -2 23.09375 -2 
C 32.796875 -2 42 6.671875 42 20.046875 
C 42 32.515625 33.90625 41.59375 23.703125 41.59375 
C 17.59375 41.59375 13.09375 37.609375 10.59375 30.625 
z
M 23.09375 0.390625 
C 10.796875 0.390625 10.796875 18.75 10.796875 22.4375 
C 10.796875 29.625 14.203125 40 23.5 40 
C 25.203125 40 30.09375 40 33.40625 33.125 
C 35.203125 29.21875 35.203125 25.140625 35.203125 20.140625 
C 35.203125 14.75 35.203125 10.78125 33.09375 6.78125 
C 30.90625 2.671875 27.703125 0.390625 23.09375 0.390625 
" id="CMR17-54"/>
      </defs>
      <g style="fill:#262626;" transform="translate(34.4601979637 109.117808219)scale(0.15 -0.15)">
       <use transform="scale(0.996264009963)" xlink:href="#CMR17-54"/>
       <use transform="translate(45.6904771171 0.0)scale(0.996264009963)" xlink:href="#CMR17-48"/>
      </g>
     </g>
    </g>
    <g id="ytick_5">
     <g id="line2d_34">
      <path clip-path="url(#pda946c34e7)" d="M 56.092674 66.109091 
L 398.092674 66.109091 
" style="fill:none;stroke:#ffffff;stroke-linecap:round;"/>
     </g>
     <g id="line2d_35">
      <g>
       <use style="fill:#262626;stroke:#262626;" x="56.0926735922" xlink:href="#m4185f0a25d" y="66.1090909091"/>
      </g>
     </g>
     <g id="line2d_36">
      <g>
       <use style="fill:#262626;stroke:#262626;" x="398.092673592" xlink:href="#m4185f0a25d" y="66.1090909091"/>
      </g>
     </g>
     <g id="text_13">
      <!-- $80$ -->
      <defs>
       <path d="M 27.203125 35.375 
C 33.5 38.546875 39.90625 43.328125 39.90625 50.984375 
C 39.90625 60.015625 31.09375 65.296875 23 65.296875 
C 13.90625 65.296875 5.90625 58.734375 5.90625 49.6875 
C 5.90625 47.203125 6.5 42.921875 10.40625 39.140625 
C 11.40625 38.15625 15.59375 35.171875 18.296875 33.28125 
C 13.796875 30.984375 3.296875 25.53125 3.296875 14.59375 
C 3.296875 4.359375 13.09375 -2 22.796875 -2 
C 33.5 -2 42.5 5.65625 42.5 15.78125 
C 42.5 24.84375 36.40625 29.015625 32.40625 31.703125 
z
M 14.09375 44.09375 
C 13.296875 44.59375 9.296875 47.671875 9.296875 52.359375 
C 9.296875 58.421875 15.59375 63 22.796875 63 
C 30.703125 63 36.5 57.4375 36.5 50.96875 
C 36.5 41.703125 26.09375 36.421875 25.59375 36.421875 
C 25.5 36.421875 25.40625 36.421875 24.59375 37.03125 
z
M 32.5 23.734375 
C 34 22.640625 38.796875 19.375 38.796875 13.296875 
C 38.796875 5.953125 31.40625 0.390625 23 0.390625 
C 13.90625 0.390625 7 6.84375 7 14.6875 
C 7 22.546875 13.09375 29.09375 20 32.1875 
z
" id="CMR17-56"/>
      </defs>
      <g style="fill:#262626;" transform="translate(34.4601979637 69.8450809465)scale(0.15 -0.15)">
       <use transform="scale(0.996264009963)" xlink:href="#CMR17-56"/>
       <use transform="translate(45.6904771171 0.0)scale(0.996264009963)" xlink:href="#CMR17-48"/>
      </g>
     </g>
    </g>
    <g id="ytick_6">
     <g id="line2d_37">
      <path clip-path="url(#pda946c34e7)" d="M 56.092674 26.836364 
L 398.092674 26.836364 
" style="fill:none;stroke:#ffffff;stroke-linecap:round;"/>
     </g>
     <g id="line2d_38">
      <g>
       <use style="fill:#262626;stroke:#262626;" x="56.0926735922" xlink:href="#m4185f0a25d" y="26.8363636364"/>
      </g>
     </g>
     <g id="line2d_39">
      <g>
       <use style="fill:#262626;stroke:#262626;" x="398.092673592" xlink:href="#m4185f0a25d" y="26.8363636364"/>
      </g>
     </g>
     <g id="text_14">
      <!-- $100$ -->
      <g style="fill:#262626;" transform="translate(27.1439601494 30.5723536737)scale(0.15 -0.15)">
       <use transform="scale(0.996264009963)" xlink:href="#CMR17-49"/>
       <use transform="translate(45.6904771171 0.0)scale(0.996264009963)" xlink:href="#CMR17-48"/>
       <use transform="translate(91.3809542341 0.0)scale(0.996264009963)" xlink:href="#CMR17-48"/>
      </g>
     </g>
    </g>
    <g id="text_15">
     <!-- Predicted Expected Value $\langle \lambda \rangle$ -->
     <defs>
      <path d="M 59 58.515625 
C 59.90625 60.71875 61.5 65 68.203125 65 
L 68.203125 67.6875 
C 65.90625 67.484375 63.296875 67.484375 60.796875 67.484375 
C 58.40625 67.484375 54.296875 67.484375 52 67.6875 
L 52 65 
C 57 65 57.203125 61.5 57.203125 60.90625 
C 57.203125 59.796875 56.90625 59.109375 56.59375 58.3125 
L 36.90625 6.96875 
L 16.296875 60.71875 
C 16 61.421875 15.796875 61.921875 15.796875 62.40625 
C 15.796875 65 19.796875 65 21.90625 65 
L 21.90625 67.484375 
C 18.703125 67.484375 14 67.484375 10.703125 67.484375 
C 8.09375 67.484375 3.40625 67.484375 1 67.6875 
L 1 65 
C 6.796875 65 7.90625 64.609375 9.09375 61.421875 
L 32.90625 -0.40625 
C 33.40625 -1.796875 33.5 -2 34.59375 -2 
C 35.703125 -2 35.796875 -1.796875 36.296875 -0.40625 
z
" id="CMR17-86"/>
      <path d="M 19.796875 31.90625 
L 35.796875 31.90625 
C 48.703125 31.90625 58.09375 40.28125 58.09375 49.75 
C 58.09375 59.234375 48.90625 68 35.796875 68 
L 5.203125 68 
L 5.203125 65.40625 
C 12.09375 65.40625 13.203125 65.40625 13.203125 60.9375 
L 13.203125 6.96875 
C 13.203125 2.5 12.09375 2.5 5.203125 2.5 
L 5.203125 0 
C 8.09375 0 13.40625 0 16.5 0 
C 19.59375 0 24.90625 0 27.796875 0 
L 27.796875 2.5 
C 20.90625 2.5 19.796875 2.5 19.796875 6.96875 
z
M 19.59375 34 
L 19.59375 61.53125 
C 19.59375 64.921875 19.796875 65.40625 23.796875 65.40625 
L 33.90625 65.40625 
C 46.796875 65.40625 50.5 58.03125 50.5 49.75 
C 50.5 40.6875 46.09375 34 33.90625 34 
z
" id="CMR17-80"/>
      <path d="M 26 23.078125 
C 29 26.96875 32.40625 31.34375 35.203125 34.625 
C 38.5 38.40625 42.296875 40 46.703125 40 
L 46.703125 42.59375 
C 45 42.59375 41.5 42.59375 39.703125 42.59375 
C 37 42.59375 33.90625 42.59375 31.59375 42.6875 
L 31.59375 40.09375 
C 33 39.890625 33.796875 38.890625 33.796875 37.5 
C 33.796875 35.703125 32.796875 34.609375 32.296875 33.921875 
L 24.90625 24.578125 
L 16.09375 36.03125 
C 15.203125 37.125 15.203125 37.3125 15.203125 37.8125 
C 15.203125 39.015625 16.203125 40 17.90625 40 
L 17.90625 42.6875 
C 15.5 42.59375 11.203125 42.59375 8.703125 42.59375 
C 6 42.59375 2.796875 42.59375 0.59375 42.6875 
L 0.59375 40 
C 6 40 7.203125 39.59375 9.59375 36.609375 
L 21.09375 21.796875 
C 21.296875 21.59375 21.796875 21 21.796875 20.703125 
C 21.796875 20.296875 13.09375 9.671875 12 8.28125 
C 7.5 2.890625 2.796875 2.5 0.09375 2.5 
L 0.09375 0 
C 1.796875 0 5.296875 0 7.09375 0 
C 9.09375 0 13.5 0 15.296875 -0.09375 
L 15.296875 2.5 
C 14.703125 2.59375 13.09375 2.796875 13.09375 5.078125 
C 13.09375 6.875 13.90625 7.96875 14.796875 9.15625 
L 23.09375 19.3125 
L 31.796875 8 
C 32.59375 6.90625 33.796875 5.40625 33.796875 4.703125 
C 33.796875 3.296875 32.59375 2.5 31 2.5 
L 31 -0.09375 
C 33.40625 0 37.703125 0 40.203125 0 
C 42.90625 0 46.09375 0 48.296875 -0.09375 
L 48.296875 2.5 
C 43.296875 2.5 41.796875 2.6875 39.40625 5.78125 
z
" id="CMR17-120"/>
      <path d="M 27.296875 23.296875 
C 27.796875 24.5 27.796875 24.703125 27.796875 25 
C 27.796875 25.296875 27.796875 25.5 27.296875 26.703125 
L 9.796875 72.703125 
C 9.203125 74.40625 8.59375 75 7.5 75 
C 6.40625 75 5.5 74.09375 5.5 73 
C 5.5 72.703125 5.5 72.5 6 71.40625 
L 23.703125 25 
L 6 -21.203125 
C 5.5 -22.296875 5.5 -22.5 5.5 -23 
C 5.5 -24.09375 6.40625 -25 7.5 -25 
C 8.796875 -25 9.203125 -24 9.59375 -23 
z
" id="CMSY10-105"/>
      <path d="M 32.796875 71.203125 
C 33.296875 72.296875 33.296875 72.5 33.296875 73 
C 33.296875 74.09375 32.40625 75 31.296875 75 
C 30.40625 75 29.703125 74.5 29 72.703125 
L 11.5 26.796875 
C 11.296875 26.203125 11 25.59375 11 25 
C 11 24.703125 11 24.5 11.5 23.296875 
L 29 -22.59375 
C 29.40625 -23.703125 29.90625 -25 31.296875 -25 
C 32.40625 -25 33.296875 -24.09375 33.296875 -23 
C 33.296875 -22.703125 33.296875 -22.5 32.796875 -21.40625 
L 15.09375 25 
z
" id="CMSY10-104"/>
      <path d="M 15.09375 40 
L 29.09375 40 
L 29.09375 42.578125 
L 15.09375 42.578125 
L 15.09375 61 
L 13.296875 61 
C 13.09375 50.703125 9.59375 41.6875 1.09375 41.6875 
L 1.09375 40 
L 9.796875 40 
L 9.796875 12.046875 
C 9.796875 10.15625 9.796875 -1 21.40625 -1 
C 27.296875 -1 30.703125 4.78125 30.703125 12.140625 
L 30.703125 17.8125 
L 28.90625 17.8125 
L 28.90625 12.234375 
C 28.90625 5.375 26.203125 0.796875 22 0.796875 
C 19.09375 0.796875 15.09375 2.78125 15.09375 11.84375 
z
" id="CMR17-116"/>
      <path d="M 29.40625 42.078125 
L 29.40625 39.5 
C 35.296875 39.5 36.203125 38.890625 36.203125 34.15625 
L 36.203125 16.125 
C 36.203125 7.8125 31.703125 0.59375 24.296875 0.59375 
C 16.09375 0.59375 15.40625 5.4375 15.40625 10.59375 
L 15.40625 43.171875 
L 3.296875 42.078125 
L 3.296875 39.5 
C 7.296875 39.5 10 39.5 10.09375 35.53125 
L 10.09375 16.53125 
C 10.09375 9.890625 10.09375 5.640625 12.703125 2.859375 
C 14 1.578125 16.5 -1 23.703125 -1 
C 32.203125 -1 35.5 5.890625 36.296875 7.90625 
L 36.40625 7.90625 
L 36.40625 -0.984375 
L 48.296875 -0.984375 
L 48.296875 2 
C 42.40625 2 41.5 2.59375 41.5 7.390625 
L 41.5 43.171875 
z
" id="CMR17-117"/>
      <path d="M 29.203125 67.59375 
L 29.203125 65 
C 35.09375 65 36 64.40625 36 59.6875 
L 36 36.640625 
C 35.59375 37.140625 31.5 43.59375 23.40625 43.59375 
C 13.203125 43.59375 3.296875 34.5 3.296875 21.3125 
C 3.296875 8.203125 12.59375 -1 22.40625 -1 
C 30.90625 -1 35.296875 5.265625 35.796875 5.9375 
L 35.796875 -0.984375 
L 47.90625 -0.984375 
L 47.90625 2 
C 42 2 41.09375 2.59375 41.09375 7.390625 
L 41.09375 68.6875 
z
M 35.796875 11.796875 
C 35.796875 8.796875 34 6.09375 31.703125 4.09375 
C 28.296875 1.09375 24.90625 0.59375 23 0.59375 
C 20.09375 0.59375 9.703125 2.09375 9.703125 21.1875 
C 9.703125 40.8125 21.296875 42 23.90625 42 
C 28.5 42 32.203125 39.40625 34.5 35.796875 
C 35.796875 33.703125 35.796875 33.40625 35.796875 31.609375 
z
" id="CMR17-100"/>
     </defs>
     <g style="fill:#262626;" transform="translate(18.4079701121 210.833508438)rotate(-90.0)scale(0.15 -0.15)">
      <use transform="scale(0.996264009963)" xlink:href="#CMR17-80"/>
      <use transform="translate(62.5863005186 0.0)scale(0.996264009963)" xlink:href="#CMR17-114"/>
      <use transform="translate(97.867068318 0.0)scale(0.996264009963)" xlink:href="#CMR17-101"/>
      <use transform="translate(138.352728781 0.0)scale(0.996264009963)" xlink:href="#CMR17-100"/>
      <use transform="translate(189.248098561 0.0)scale(0.996264009963)" xlink:href="#CMR17-105"/>
      <use transform="translate(214.119157043 0.0)scale(0.996264009963)" xlink:href="#CMR17-99"/>
      <use transform="translate(254.604817506 0.0)scale(0.996264009963)" xlink:href="#CMR17-116"/>
      <use transform="translate(289.885585305 0.0)scale(0.996264009963)" xlink:href="#CMR17-101"/>
      <use transform="translate(330.371245768 0.0)scale(0.996264009963)" xlink:href="#CMR17-100"/>
      <use transform="translate(411.342581895 0.0)scale(0.996264009963)" xlink:href="#CMR17-69"/>
      <use transform="translate(473.928882414 0.0)scale(0.996264009963)" xlink:href="#CMR17-120"/>
      <use transform="translate(522.221798261 0.0)scale(0.996264009963)" xlink:href="#CMR17-112"/>
      <use transform="translate(575.719606772 0.0)scale(0.996264009963)" xlink:href="#CMR17-101"/>
      <use transform="translate(616.205267235 0.0)scale(0.996264009963)" xlink:href="#CMR17-99"/>
      <use transform="translate(656.690927698 0.0)scale(0.996264009963)" xlink:href="#CMR17-116"/>
      <use transform="translate(691.971695497 0.0)scale(0.996264009963)" xlink:href="#CMR17-101"/>
      <use transform="translate(732.45735596 0.0)scale(0.996264009963)" xlink:href="#CMR17-100"/>
      <use transform="translate(813.428692087 0.0)scale(0.996264009963)" xlink:href="#CMR17-86"/>
      <use transform="translate(874.693866506 0.0)scale(0.996264009963)" xlink:href="#CMR17-97"/>
      <use transform="translate(920.384343624 0.0)scale(0.996264009963)" xlink:href="#CMR17-108"/>
      <use transform="translate(945.255402105 0.0)scale(0.996264009963)" xlink:href="#CMR17-117"/>
      <use transform="translate(996.150771886 0.0)scale(0.996264009963)" xlink:href="#CMR17-101"/>
      <use transform="translate(1066.7123987 0.0)scale(0.996264009963)" xlink:href="#CMSY10-104"/>
      <use transform="translate(1105.45613252 0.0)scale(0.996264009963)" xlink:href="#CMMI12-21"/>
      <use transform="translate(1162.36020441 0.0)scale(0.996264009963)" xlink:href="#CMSY10-105"/>
     </g>
    </g>
   </g>
   <g id="line2d_40">
    <defs>
     <path d="M 0 3 
C 0.795609 3 1.55874 2.683901 2.12132 2.12132 
C 2.683901 1.55874 3 0.795609 3 0 
C 3 -0.795609 2.683901 -1.55874 2.12132 -2.12132 
C 1.55874 -2.683901 0.795609 -3 0 -3 
C -0.795609 -3 -1.55874 -2.683901 -2.12132 -2.12132 
C -2.683901 -1.55874 -3 -0.795609 -3 0 
C -3 0.795609 -2.683901 1.55874 -2.12132 2.12132 
C -1.55874 2.683901 -0.795609 3 0 3 
z
" id="md668e9b8d6"/>
    </defs>
    <g>
     <use style="fill:#d55e00;" x="84.8750971921" xlink:href="#md668e9b8d6" y="217.309090909"/>
     <use style="fill:#d55e00;" x="85.9334047915" xlink:href="#md668e9b8d6" y="217.309090909"/>
     <use style="fill:#d55e00;" x="81.7303387918" xlink:href="#md668e9b8d6" y="217.309090909"/>
     <use style="fill:#d55e00;" x="113.191101192" xlink:href="#md668e9b8d6" y="207.490909091"/>
     <use style="fill:#d55e00;" x="124.199556791" xlink:href="#md668e9b8d6" y="207.490909091"/>
     <use style="fill:#d55e00;" x="116.010115992" xlink:href="#md668e9b8d6" y="207.490909091"/>
     <use style="fill:#d55e00;" x="114.050729592" xlink:href="#md668e9b8d6" y="207.490909091"/>
     <use style="fill:#d55e00;" x="142.873167192" xlink:href="#md668e9b8d6" y="193.745454545"/>
     <use style="fill:#d55e00;" x="151.310580792" xlink:href="#md668e9b8d6" y="193.745454545"/>
     <use style="fill:#d55e00;" x="147.694660392" xlink:href="#md668e9b8d6" y="193.745454545"/>
     <use style="fill:#d55e00;" x="158.676097992" xlink:href="#md668e9b8d6" y="193.745454545"/>
     <use style="fill:#d55e00;" x="171.404539992" xlink:href="#md668e9b8d6" y="176.072727273"/>
     <use style="fill:#d55e00;" x="180.486965592" xlink:href="#md668e9b8d6" y="176.072727273"/>
     <use style="fill:#d55e00;" x="182.126239992" xlink:href="#md668e9b8d6" y="176.072727273"/>
     <use style="fill:#d55e00;" x="188.334588792" xlink:href="#md668e9b8d6" y="176.072727273"/>
     <use style="fill:#d55e00;" x="201.439618392" xlink:href="#md668e9b8d6" y="154.472727273"/>
     <use style="fill:#d55e00;" x="213.925650792" xlink:href="#md668e9b8d6" y="154.472727273"/>
     <use style="fill:#d55e00;" x="214.092501191" xlink:href="#md668e9b8d6" y="154.472727273"/>
     <use style="fill:#d55e00;" x="220.021185192" xlink:href="#md668e9b8d6" y="154.472727273"/>
     <use style="fill:#d55e00;" x="229.177619592" xlink:href="#md668e9b8d6" y="128.945454545"/>
     <use style="fill:#d55e00;" x="244.799335992" xlink:href="#md668e9b8d6" y="128.945454545"/>
     <use style="fill:#d55e00;" x="243.173673192" xlink:href="#md668e9b8d6" y="128.945454545"/>
     <use style="fill:#d55e00;" x="251.834526791" xlink:href="#md668e9b8d6" y="128.945454545"/>
     <use style="fill:#d55e00;" x="252.448051992" xlink:href="#md668e9b8d6" y="99.4909090909"/>
     <use style="fill:#d55e00;" x="272.383003991" xlink:href="#md668e9b8d6" y="99.4909090909"/>
     <use style="fill:#d55e00;" x="272.042896392" xlink:href="#md668e9b8d6" y="99.4909090909"/>
     <use style="fill:#d55e00;" x="278.242672391" xlink:href="#md668e9b8d6" y="99.4909090909"/>
     <use style="fill:#d55e00;" x="274.090564392" xlink:href="#md668e9b8d6" y="66.1090909091"/>
     <use style="fill:#d55e00;" x="299.590973592" xlink:href="#md668e9b8d6" y="66.1090909091"/>
     <use style="fill:#d55e00;" x="300.703567993" xlink:href="#md668e9b8d6" y="66.1090909091"/>
     <use style="fill:#d55e00;" x="308.109235992" xlink:href="#md668e9b8d6" y="66.1090909091"/>
     <use style="fill:#d55e00;" x="291.006636792" xlink:href="#md668e9b8d6" y="28.8"/>
     <use style="fill:#d55e00;" x="323.124723191" xlink:href="#md668e9b8d6" y="28.8"/>
     <use style="fill:#d55e00;" x="327.535109592" xlink:href="#md668e9b8d6" y="28.8"/>
     <use style="fill:#d55e00;" x="340.642077192" xlink:href="#md668e9b8d6" y="28.8"/>
     <use style="fill:#d55e00;" x="92.5520623926" xlink:href="#md668e9b8d6" y="217.309090909"/>
     <use style="fill:#d55e00;" x="146.897367192" xlink:href="#md668e9b8d6" y="207.490909091"/>
     <use style="fill:#d55e00;" x="145.663791432" xlink:href="#md668e9b8d6" y="207.490909091"/>
     <use style="fill:#d55e00;" x="194.856961992" xlink:href="#md668e9b8d6" y="193.745454545"/>
     <use style="fill:#d55e00;" x="193.823469912" xlink:href="#md668e9b8d6" y="193.745454545"/>
     <use style="fill:#d55e00;" x="191.876283792" xlink:href="#md668e9b8d6" y="193.745454545"/>
     <use style="fill:#d55e00;" x="193.353035232" xlink:href="#md668e9b8d6" y="193.745454545"/>
     <use style="fill:#d55e00;" x="192.463098792" xlink:href="#md668e9b8d6" y="193.745454545"/>
     <use style="fill:#d55e00;" x="242.997132792" xlink:href="#md668e9b8d6" y="176.072727273"/>
     <use style="fill:#d55e00;" x="233.947251912" xlink:href="#md668e9b8d6" y="176.072727273"/>
     <use style="fill:#d55e00;" x="269.939293152" xlink:href="#md668e9b8d6" y="176.072727273"/>
     <use style="fill:#d55e00;" x="262.575009432" xlink:href="#md668e9b8d6" y="176.072727273"/>
     <use style="fill:#d55e00;" x="256.994891832" xlink:href="#md668e9b8d6" y="176.072727273"/>
     <use style="fill:#d55e00;" x="286.431748392" xlink:href="#md668e9b8d6" y="154.472727273"/>
     <use style="fill:#d55e00;" x="274.381549392" xlink:href="#md668e9b8d6" y="154.472727273"/>
     <use style="fill:#d55e00;" x="307.975798992" xlink:href="#md668e9b8d6" y="154.472727273"/>
     <use style="fill:#d55e00;" x="310.994249952" xlink:href="#md668e9b8d6" y="154.472727273"/>
     <use style="fill:#d55e00;" x="305.979925752" xlink:href="#md668e9b8d6" y="154.472727273"/>
     <use style="fill:#d55e00;" x="320.294399592" xlink:href="#md668e9b8d6" y="128.945454545"/>
     <use style="fill:#d55e00;" x="312.139975032" xlink:href="#md668e9b8d6" y="128.945454545"/>
     <use style="fill:#d55e00;" x="338.258401032" xlink:href="#md668e9b8d6" y="128.945454545"/>
     <use style="fill:#d55e00;" x="349.699860552" xlink:href="#md668e9b8d6" y="128.945454545"/>
     <use style="fill:#d55e00;" x="349.047365592" xlink:href="#md668e9b8d6" y="128.945454545"/>
     <use style="fill:#d55e00;" x="347.091991992" xlink:href="#md668e9b8d6" y="99.4909090909"/>
     <use style="fill:#d55e00;" x="341.776185672" xlink:href="#md668e9b8d6" y="99.4909090909"/>
     <use style="fill:#d55e00;" x="366.789155952" xlink:href="#md668e9b8d6" y="99.4909090909"/>
     <use style="fill:#d55e00;" x="379.414598952" xlink:href="#md668e9b8d6" y="99.4909090909"/>
     <use style="fill:#d55e00;" x="385.661315592" xlink:href="#md668e9b8d6" y="99.4909090909"/>
     <use style="fill:#d55e00;" x="146.647602312" xlink:href="#md668e9b8d6" y="207.490909091"/>
     <use style="fill:#d55e00;" x="215.833908192" xlink:href="#md668e9b8d6" y="193.745454545"/>
     <use style="fill:#d55e00;" x="268.343140392" xlink:href="#md668e9b8d6" y="176.072727273"/>
     <use style="fill:#d55e00;" x="306.491357112" xlink:href="#md668e9b8d6" y="154.472727273"/>
     <use style="fill:#d55e00;" x="335.620979112" xlink:href="#md668e9b8d6" y="128.945454545"/>
     <use style="fill:#d55e00;" x="360.763966392" xlink:href="#md668e9b8d6" y="99.4909090909"/>
     <use style="fill:#d55e00;" x="382.510280352" xlink:href="#md668e9b8d6" y="66.1090909091"/>
     <use style="fill:#d55e00;" x="368.190601272" xlink:href="#md668e9b8d6" y="66.1090909091"/>
     <use style="fill:#d55e00;" x="392.960400432" xlink:href="#md668e9b8d6" y="66.1090909091"/>
     <use style="fill:#d55e00;" x="387.802782792" xlink:href="#md668e9b8d6" y="28.8"/>
     <use style="fill:#d55e00;" x="335.654700312" xlink:href="#md668e9b8d6" y="176.072727273"/>
     <use style="fill:#d55e00;" x="313.016628192" xlink:href="#md668e9b8d6" y="176.072727273"/>
     <use style="fill:#d55e00;" x="306.207077592" xlink:href="#md668e9b8d6" y="176.072727273"/>
     <use style="fill:#d55e00;" x="378.008538912" xlink:href="#md668e9b8d6" y="154.472727273"/>
     <use style="fill:#d55e00;" x="360.781955592" xlink:href="#md668e9b8d6" y="154.472727273"/>
    </g>
   </g>
   <g id="line2d_41">
    <path clip-path="url(#pda946c34e7)" d="M 56.092674 223.2 
L 413.608911 161.618256 
" style="fill:none;stroke:#ff0000;stroke-linecap:round;stroke-width:3.0;"/>
   </g>
   <g id="line2d_42">
    <defs>
     <path d="M -3 3 
L 3 3 
L 3 -3 
L -3 -3 
z
" id="me8aa6dc157"/>
    </defs>
    <g>
     <use style="fill:#0072b2;" x="84.8750971921" xlink:href="#me8aa6dc157" y="217.338323278"/>
     <use style="fill:#0072b2;" x="85.9334047915" xlink:href="#me8aa6dc157" y="217.338323278"/>
     <use style="fill:#0072b2;" x="81.7303387918" xlink:href="#me8aa6dc157" y="217.338323278"/>
     <use style="fill:#0072b2;" x="113.191101192" xlink:href="#me8aa6dc157" y="212.324483731"/>
     <use style="fill:#0072b2;" x="124.199556791" xlink:href="#me8aa6dc157" y="212.324483731"/>
     <use style="fill:#0072b2;" x="116.010115992" xlink:href="#me8aa6dc157" y="212.324483731"/>
     <use style="fill:#0072b2;" x="114.050729592" xlink:href="#me8aa6dc157" y="212.324483731"/>
     <use style="fill:#0072b2;" x="142.873167192" xlink:href="#me8aa6dc157" y="206.294825946"/>
     <use style="fill:#0072b2;" x="151.310580792" xlink:href="#me8aa6dc157" y="206.294825946"/>
     <use style="fill:#0072b2;" x="147.694660392" xlink:href="#me8aa6dc157" y="206.294825946"/>
     <use style="fill:#0072b2;" x="158.676097992" xlink:href="#me8aa6dc157" y="206.294825946"/>
     <use style="fill:#0072b2;" x="171.404539992" xlink:href="#me8aa6dc157" y="199.75810247"/>
     <use style="fill:#0072b2;" x="180.486965592" xlink:href="#me8aa6dc157" y="199.75810247"/>
     <use style="fill:#0072b2;" x="182.126239992" xlink:href="#me8aa6dc157" y="199.75810247"/>
     <use style="fill:#0072b2;" x="188.334588792" xlink:href="#me8aa6dc157" y="199.75810247"/>
     <use style="fill:#0072b2;" x="201.439618392" xlink:href="#me8aa6dc157" y="192.87280091"/>
     <use style="fill:#0072b2;" x="213.925650792" xlink:href="#me8aa6dc157" y="192.87280091"/>
     <use style="fill:#0072b2;" x="214.092501191" xlink:href="#me8aa6dc157" y="192.87280091"/>
     <use style="fill:#0072b2;" x="220.021185192" xlink:href="#me8aa6dc157" y="192.87280091"/>
     <use style="fill:#0072b2;" x="229.177619592" xlink:href="#me8aa6dc157" y="185.720464159"/>
     <use style="fill:#0072b2;" x="244.799335992" xlink:href="#me8aa6dc157" y="185.720464159"/>
     <use style="fill:#0072b2;" x="243.173673192" xlink:href="#me8aa6dc157" y="185.720464159"/>
     <use style="fill:#0072b2;" x="251.834526791" xlink:href="#me8aa6dc157" y="185.720464159"/>
     <use style="fill:#0072b2;" x="252.448051992" xlink:href="#me8aa6dc157" y="178.352091348"/>
     <use style="fill:#0072b2;" x="272.383003991" xlink:href="#me8aa6dc157" y="178.352091348"/>
     <use style="fill:#0072b2;" x="272.042896392" xlink:href="#me8aa6dc157" y="178.352091348"/>
     <use style="fill:#0072b2;" x="278.242672391" xlink:href="#me8aa6dc157" y="178.352091348"/>
     <use style="fill:#0072b2;" x="274.090564392" xlink:href="#me8aa6dc157" y="170.802938928"/>
     <use style="fill:#0072b2;" x="299.590973592" xlink:href="#me8aa6dc157" y="170.802938928"/>
     <use style="fill:#0072b2;" x="300.703567993" xlink:href="#me8aa6dc157" y="170.802938928"/>
     <use style="fill:#0072b2;" x="308.109235992" xlink:href="#me8aa6dc157" y="170.802938928"/>
     <use style="fill:#0072b2;" x="291.006636792" xlink:href="#me8aa6dc157" y="163.098917433"/>
     <use style="fill:#0072b2;" x="323.124723191" xlink:href="#me8aa6dc157" y="163.098917433"/>
     <use style="fill:#0072b2;" x="327.535109592" xlink:href="#me8aa6dc157" y="163.098917433"/>
     <use style="fill:#0072b2;" x="340.642077192" xlink:href="#me8aa6dc157" y="163.098917433"/>
     <use style="fill:#0072b2;" x="92.5520623926" xlink:href="#me8aa6dc157" y="219.272727273"/>
     <use style="fill:#0072b2;" x="146.897367192" xlink:href="#me8aa6dc157" y="200.178859442"/>
     <use style="fill:#0072b2;" x="145.663791432" xlink:href="#me8aa6dc157" y="200.178859442"/>
     <use style="fill:#0072b2;" x="194.856961992" xlink:href="#me8aa6dc157" y="195.826020385"/>
     <use style="fill:#0072b2;" x="193.823469912" xlink:href="#me8aa6dc157" y="195.826020385"/>
     <use style="fill:#0072b2;" x="191.876283792" xlink:href="#me8aa6dc157" y="195.826020385"/>
     <use style="fill:#0072b2;" x="193.353035232" xlink:href="#me8aa6dc157" y="195.826020385"/>
     <use style="fill:#0072b2;" x="192.463098792" xlink:href="#me8aa6dc157" y="195.826020385"/>
     <use style="fill:#0072b2;" x="242.997132792" xlink:href="#me8aa6dc157" y="186.603449687"/>
     <use style="fill:#0072b2;" x="233.947251912" xlink:href="#me8aa6dc157" y="186.603449687"/>
     <use style="fill:#0072b2;" x="269.939293152" xlink:href="#me8aa6dc157" y="186.603449687"/>
     <use style="fill:#0072b2;" x="262.575009432" xlink:href="#me8aa6dc157" y="186.603449687"/>
     <use style="fill:#0072b2;" x="256.994891832" xlink:href="#me8aa6dc157" y="186.603449687"/>
     <use style="fill:#0072b2;" x="286.431748392" xlink:href="#me8aa6dc157" y="175.770662198"/>
     <use style="fill:#0072b2;" x="274.381549392" xlink:href="#me8aa6dc157" y="175.770662198"/>
     <use style="fill:#0072b2;" x="307.975798992" xlink:href="#me8aa6dc157" y="175.770662198"/>
     <use style="fill:#0072b2;" x="310.994249952" xlink:href="#me8aa6dc157" y="175.770662198"/>
     <use style="fill:#0072b2;" x="305.979925752" xlink:href="#me8aa6dc157" y="175.770662198"/>
     <use style="fill:#0072b2;" x="320.294399592" xlink:href="#me8aa6dc157" y="164.029308406"/>
     <use style="fill:#0072b2;" x="312.139975032" xlink:href="#me8aa6dc157" y="164.029308406"/>
     <use style="fill:#0072b2;" x="338.258401032" xlink:href="#me8aa6dc157" y="164.029308406"/>
     <use style="fill:#0072b2;" x="349.699860552" xlink:href="#me8aa6dc157" y="164.029308406"/>
     <use style="fill:#0072b2;" x="349.047365592" xlink:href="#me8aa6dc157" y="164.029308406"/>
     <use style="fill:#0072b2;" x="347.091991992" xlink:href="#me8aa6dc157" y="151.652031058"/>
     <use style="fill:#0072b2;" x="341.776185672" xlink:href="#me8aa6dc157" y="151.652031058"/>
     <use style="fill:#0072b2;" x="366.789155952" xlink:href="#me8aa6dc157" y="151.652031058"/>
     <use style="fill:#0072b2;" x="379.414598952" xlink:href="#me8aa6dc157" y="151.652031058"/>
     <use style="fill:#0072b2;" x="385.661315592" xlink:href="#me8aa6dc157" y="151.652031058"/>
     <use style="fill:#0072b2;" x="146.647602312" xlink:href="#me8aa6dc157" y="211.418181818"/>
     <use style="fill:#0072b2;" x="268.343140392" xlink:href="#me8aa6dc157" y="167.759764522"/>
     <use style="fill:#0072b2;" x="306.491357112" xlink:href="#me8aa6dc157" y="158.66309132"/>
     <use style="fill:#0072b2;" x="335.620979112" xlink:href="#me8aa6dc157" y="145.371472493"/>
     <use style="fill:#0072b2;" x="360.763966392" xlink:href="#me8aa6dc157" y="130.076967738"/>
     <use style="fill:#0072b2;" x="382.510280352" xlink:href="#me8aa6dc157" y="113.538535399"/>
     <use style="fill:#0072b2;" x="368.190601272" xlink:href="#me8aa6dc157" y="138.781233335"/>
     <use style="fill:#0072b2;" x="392.960400432" xlink:href="#me8aa6dc157" y="138.781233335"/>
     <use style="fill:#0072b2;" x="387.802782792" xlink:href="#me8aa6dc157" y="125.505137154"/>
     <use style="fill:#0072b2;" x="335.654700312" xlink:href="#me8aa6dc157" y="183.927272727"/>
     <use style="fill:#0072b2;" x="313.016628192" xlink:href="#me8aa6dc157" y="183.927272727"/>
     <use style="fill:#0072b2;" x="306.207077592" xlink:href="#me8aa6dc157" y="183.927272727"/>
    </g>
   </g>
   <g id="patch_3">
    <path d="M 56.092674 7.2 
L 398.092674 7.2 
" style="fill:none;"/>
   </g>
   <g id="patch_4">
    <path d="M 398.092674 223.2 
L 398.092674 7.2 
" style="fill:none;"/>
   </g>
   <g id="patch_5">
    <path d="M 56.092674 223.2 
L 398.092674 223.2 
" style="fill:none;"/>
   </g>
   <g id="patch_6">
    <path d="M 56.092674 223.2 
L 56.092674 7.2 
" style="fill:none;"/>
   </g>
   <g id="legend_1">
    <g id="patch_7">
     <path d="M 63.592674 62.549705 
L 216.031527 62.549705 
L 216.031527 14.7 
L 63.592674 14.7 
z
" style="fill:#eaeaf2;stroke:#ffffff;stroke-linejoin:miter;stroke-width:0.3;"/>
    </g>
    <g id="line2d_43"/>
    <g id="line2d_44">
     <g>
      <use style="fill:#d55e00;" x="84.5926735922" xlink:href="#md668e9b8d6" y="25.95"/>
     </g>
    </g>
    <g id="text_16">
     <!-- Wilks Theorem -->
     <defs>
      <path d="M 86.296875 58.8125 
C 87.203125 61.5 88.703125 65 94.5 65 
L 94.5 67.59375 
C 92.796875 67.59375 89.296875 67.59375 87.5 67.59375 
C 85 67.59375 80.59375 67.59375 78.203125 67.6875 
L 78.203125 65 
C 82.703125 65 84.59375 62.5 84.59375 60.109375 
C 84.59375 59.40625 84.5 59.015625 84.09375 57.921875 
L 68.59375 8.671875 
L 52.296875 60.515625 
C 52 61.515625 51.90625 61.921875 51.90625 62.3125 
C 51.90625 65 56.296875 65 58.203125 65 
L 58.203125 67.59375 
C 55.296875 67.59375 50.296875 67.59375 47.203125 67.59375 
C 44.703125 67.59375 40.203125 67.59375 37.90625 67.6875 
L 37.90625 65 
C 42.5 65 43.703125 64.703125 44.703125 62.921875 
C 45.09375 62.015625 46.703125 56.84375 46.703125 56.546875 
C 46.703125 56.140625 46.5 55.546875 46.40625 55.25 
L 31.703125 8.765625 
L 15.40625 60.421875 
C 14.90625 61.828125 14.90625 62.015625 14.90625 62.21875 
C 14.90625 65 19.296875 65 21.296875 65 
L 21.296875 67.59375 
C 18.40625 67.59375 13.40625 67.59375 10.296875 67.59375 
C 7.703125 67.59375 3.296875 67.59375 0.90625 67.6875 
L 0.90625 65 
C 6.90625 65 7.296875 64.40625 8.296875 61.21875 
L 27.796875 -0.3125 
C 28.296875 -1.796875 28.296875 -2 29.203125 -2 
C 30 -2 30.296875 -1.796875 30.703125 -0.40625 
L 47.703125 53.640625 
L 64.703125 -0.40625 
C 65.09375 -1.796875 65.40625 -2 66.203125 -2 
C 67.09375 -2 67.09375 -1.796875 67.59375 -0.3125 
z
" id="CMR17-87"/>
      <path d="M 62.203125 67.59375 
L 4.5 67.59375 
L 2.796875 45.59375 
L 4.59375 45.59375 
C 5.90625 62.125 7.296875 65 22.703125 65 
C 24.5 65 27.40625 65 28.203125 64.90625 
C 30.09375 64.609375 30.09375 63.40625 30.09375 61.125 
L 30.09375 7.171875 
C 30.09375 3.59375 29.796875 2.5 21.5 2.5 
L 18.703125 2.5 
L 18.703125 0 
C 23.5 0 28.5 0 33.40625 0 
C 38.296875 0 43.296875 0 48.09375 0 
L 48.09375 2.5 
L 45.296875 2.5 
C 37 2.5 36.703125 3.59375 36.703125 7.171875 
L 36.703125 61.125 
C 36.703125 63.3125 36.703125 64.515625 38.5 64.90625 
C 39.296875 65 42.203125 65 44 65 
C 59.296875 65 60.796875 62.125 62.09375 45.59375 
L 63.90625 45.59375 
z
" id="CMR17-84"/>
      <path d="M 41.5 30.203125 
C 41.5 35.296875 40.5 43.59375 28.703125 43.59375 
C 20.5 43.59375 16.5 37 15.296875 33.703125 
L 15.203125 33.703125 
L 15.203125 68.6875 
L 3.296875 67.59375 
L 3.296875 65 
C 9.203125 65 10.09375 64.40625 10.09375 59.640625 
L 10.09375 6.65625 
C 10.09375 2.875 9.703125 2.390625 3.296875 2.390625 
L 3.296875 -0.203125 
C 5.703125 0 10.09375 0 12.703125 0 
C 15.296875 0 19.796875 0 22.203125 -0.203125 
L 22.203125 2.390625 
C 15.796875 2.390625 15.40625 2.78125 15.40625 6.6875 
L 15.40625 25.90625 
C 15.40625 35.109375 21 42 28 42 
C 35.40625 42 36.203125 35.40625 36.203125 30.59375 
L 36.203125 6.6875 
C 36.203125 2.875 35.796875 2.390625 29.40625 2.390625 
L 29.40625 -0.203125 
C 31.796875 0 36.203125 0 38.796875 0 
C 41.40625 0 45.90625 0 48.296875 -0.203125 
L 48.296875 2.390625 
C 41.90625 2.390625 41.5 2.78125 41.5 6.6875 
z
" id="CMR17-104"/>
      <path d="M 26.09375 26.140625 
C 26 26.34375 25.5 26.9375 25.5 27.234375 
C 25.5 27.4375 32.59375 33.921875 33.5 34.71875 
C 39.203125 39.5 42.796875 40 45.40625 40 
L 45.40625 42.703125 
C 44.796875 42.703125 44.59375 42.703125 44.5 42.5 
L 39.59375 42.5 
C 36.796875 42.5 32.5 42.5 29.796875 42.703125 
L 29.796875 40.09375 
C 31.203125 39.984375 32.203125 39.1875 32.203125 37.796875 
C 32.203125 35.796875 30.203125 33.90625 30.09375 33.90625 
L 15 20.140625 
L 15 68.6875 
L 3.09375 67.59375 
L 3.09375 65 
C 9 65 9.90625 64.40625 9.90625 59.640625 
L 9.90625 6.65625 
C 9.90625 2.875 9.5 2.390625 3.09375 2.390625 
L 3.09375 -0.203125 
C 5.5 0 9.90625 0 12.40625 0 
C 14.90625 0 19.296875 0 21.703125 -0.203125 
L 21.703125 2.390625 
C 15.296875 2.390625 14.90625 2.78125 14.90625 6.6875 
L 14.90625 17.65625 
L 21.796875 23.9375 
L 31.90625 8.96875 
C 33.09375 7.171875 34.09375 5.765625 34.09375 4.46875 
C 34.09375 2.6875 32.296875 2.390625 31.09375 2.390625 
L 31.09375 -0.203125 
C 33.5 0 37.796875 0 40.296875 0 
C 42.09375 0 45.796875 0 47.5 0 
L 47.5 2.390625 
C 42.796875 2.390625 41.703125 3.28125 38.703125 7.671875 
z
" id="CMR17-107"/>
      <path d="M 30.90625 42.140625 
C 30.90625 43.953125 30.796875 44.046875 30.203125 44.046875 
C 29.796875 44.046875 29.703125 43.953125 28.5 42.453125 
C 28.203125 42.046875 27.296875 41.03125 27 40.640625 
C 23.796875 44.046875 19.296875 44.046875 17.59375 44.046875 
C 6.5 44.046875 2.5 38.234375 2.5 32.4375 
C 2.5 23.40625 12.703125 21.328125 15.59375 20.703125 
C 21.90625 19.421875 24.09375 19.015625 26.203125 17.203125 
C 27.5 16.015625 29.703125 13.8125 29.703125 10.21875 
C 29.703125 6 27.296875 0.59375 18.09375 0.59375 
C 9.40625 0.59375 6.296875 7.1875 4.5 15.953125 
C 4.203125 17.34375 4.203125 17.453125 3.40625 17.453125 
C 2.59375 17.453125 2.5 17.34375 2.5 15.359375 
L 2.5 0.984375 
C 2.5 -0.796875 2.59375 -0.90625 3.203125 -0.90625 
C 3.703125 -0.90625 3.796875 -0.796875 4.296875 0 
C 4.90625 0.890625 6.40625 3.296875 7 4.3125 
C 9 1.609375 12.5 -1 18.09375 -1 
C 28 -1 33.296875 4.421875 33.296875 12.25 
C 33.296875 17.375 30.59375 20.078125 29.296875 21.28125 
C 26.296875 24.390625 22.796875 25.09375 18.59375 25.890625 
C 13.09375 27.109375 6.09375 28.515625 6.09375 34.640625 
C 6.09375 37.234375 7.5 42.765625 17.59375 42.765625 
C 28.296875 42.765625 28.90625 32.71875 29.09375 29.5 
C 29.203125 29 29.703125 28.890625 30 28.890625 
C 30.90625 28.890625 30.90625 29.203125 30.90625 30.90625 
z
" id="CMR17-115"/>
      <path d="M 43.09375 21.1875 
C 43.09375 34 33.796875 44 22.90625 44 
C 12 44 2.703125 34 2.703125 21.1875 
C 2.703125 8.609375 12 -1 22.90625 -1 
C 33.796875 -1 43.09375 8.609375 43.09375 21.1875 
M 22.90625 0.796875 
C 18.203125 0.796875 14.203125 3.59375 11.90625 7.5 
C 9.40625 11.984375 9.09375 17.59375 9.09375 22 
C 9.09375 26.203125 9.296875 31.40625 11.90625 35.90625 
C 13.90625 39.203125 17.796875 42.40625 22.90625 42.40625 
C 27.40625 42.40625 31.203125 39.90625 33.59375 36.40625 
C 36.703125 31.703125 36.703125 25.109375 36.703125 22 
C 36.703125 18.09375 36.5 12.109375 33.796875 7.296875 
C 31 2.703125 26.703125 0.796875 22.90625 0.796875 
" id="CMR17-111"/>
     </defs>
     <g style="fill:#262626;" transform="translate(111.592673592 31.2)scale(0.15 -0.15)">
      <use transform="scale(0.996264009963)" xlink:href="#CMR17-87"/>
      <use transform="translate(95.096649892 0.0)scale(0.996264009963)" xlink:href="#CMR17-105"/>
      <use transform="translate(119.967708374 0.0)scale(0.996264009963)" xlink:href="#CMR17-108"/>
      <use transform="translate(144.838766856 0.0)scale(0.996264009963)" xlink:href="#CMR17-107"/>
      <use transform="translate(193.131682704 0.0)scale(0.996264009963)" xlink:href="#CMR17-115"/>
      <use transform="translate(259.008986686 0.0)scale(0.996264009963)" xlink:href="#CMR17-84"/>
      <use transform="translate(325.518867236 0.0)scale(0.996264009963)" xlink:href="#CMR17-104"/>
      <use transform="translate(376.414237016 0.0)scale(0.996264009963)" xlink:href="#CMR17-101"/>
      <use transform="translate(416.899897479 0.0)scale(0.996264009963)" xlink:href="#CMR17-111"/>
      <use transform="translate(462.590374596 0.0)scale(0.996264009963)" xlink:href="#CMR17-114"/>
      <use transform="translate(497.871142396 0.0)scale(0.996264009963)" xlink:href="#CMR17-101"/>
      <use transform="translate(538.356802858 0.0)scale(0.996264009963)" xlink:href="#CMR17-109"/>
     </g>
    </g>
    <g id="line2d_45"/>
    <g id="line2d_46">
     <g>
      <use style="fill:#0072b2;" x="84.5926735922" xlink:href="#me8aa6dc157" y="47.5637148048"/>
     </g>
    </g>
    <g id="text_17">
     <!-- Equation (???) -->
     <defs>
      <path d="M 26.296875 24.6875 
C 26.296875 31.875 25.59375 44.015625 19.59375 56.859375 
C 14.796875 67.234375 6.59375 74.5 5.40625 74.5 
C 5.09375 74.5 4.703125 74.390625 4.703125 73.890625 
C 4.703125 73.703125 4.796875 73.59375 4.90625 73.390625 
C 9.703125 68.40625 21.90625 55.75 21.90625 24.75 
C 21.90625 -6.359375 9.796875 -19.015625 4.90625 -24.015625 
C 4.796875 -24.203125 4.703125 -24.3125 4.703125 -24.5 
C 4.703125 -25 5.09375 -25 5.40625 -25 
C 6.5 -25 15 -17.625 19.90625 -6.65625 
C 24.90625 4.390625 26.296875 15.140625 26.296875 24.6875 
" id="CMR17-41"/>
      <path d="M 21.09375 22.453125 
C 21.09375 31.828125 25.90625 40.109375 33.09375 45.78125 
C 35 47.171875 38.5 49.96875 38.5 56.25 
C 38.5 64.328125 32.40625 70 20.59375 70 
C 10.59375 70 4.59375 63.203125 4.59375 56.6875 
C 4.59375 52.84375 7.90625 52.84375 8.203125 52.84375 
C 9.296875 52.84375 11.796875 53.53125 11.796875 56.421875 
C 11.796875 58.90625 9.90625 60 8.203125 60 
C 7.796875 60 7.296875 59.90625 7 59.8125 
C 9.09375 65.96875 15.09375 68.40625 20.40625 68.40625 
C 32 68.40625 32.09375 60.4375 32.09375 56.75 
C 32.09375 50.671875 30.203125 48.5625 28.296875 46.578125 
C 21.703125 39.515625 19.296875 30.140625 19.296875 22.859375 
L 19.296875 18.96875 
C 19.296875 17.28125 19.296875 16.890625 20.203125 16.890625 
C 21.09375 16.890625 21.09375 17.28125 21.09375 18.96875 
z
M 24.296875 4.078125 
C 24.296875 6.265625 22.5 8.15625 20.203125 8.15625 
C 18 8.15625 16.09375 6.375 16.09375 4.078125 
C 16.09375 1.890625 17.90625 0 20.203125 0 
C 22.40625 0 24.296875 1.796875 24.296875 4.078125 
" id="CMR17-63"/>
      <path d="M 30.59375 -24.390625 
C 30.59375 -24.296875 30.59375 -24.09375 30.296875 -23.796875 
C 25.703125 -19.125 13.40625 -6.359375 13.40625 24.6875 
C 13.40625 55.765625 25.5 68.421875 30.40625 73.390625 
C 30.40625 73.5 30.59375 73.703125 30.59375 74 
C 30.59375 74.296875 30.296875 74.5 29.90625 74.5 
C 28.796875 74.5 20.296875 67.125 15.40625 56.15625 
C 10.40625 45.109375 9 34.359375 9 24.8125 
C 9 17.625 9.703125 5.484375 15.703125 -7.359375 
C 20.5 -17.734375 28.703125 -25 29.90625 -25 
C 30.40625 -25 30.59375 -24.796875 30.59375 -24.390625 
" id="CMR17-40"/>
      <path d="M 41.09375 43.78125 
L 39.5 43.78125 
L 36.5 33.9375 
C 34.203125 39.203125 30 43.78125 23.296875 43.78125 
C 13.09375 43.78125 3.296875 34.734375 3.296875 21.59375 
C 3.296875 8.5625 12.5 -0.59375 22.5 -0.59375 
C 30.203125 -0.59375 34.5 5.28125 35.796875 7.46875 
L 35.796875 -12.328125 
C 35.796875 -16.109375 35.40625 -16.609375 29 -16.609375 
L 29 -19.1875 
C 31.40625 -19 35.796875 -19 38.40625 -19 
C 41 -19 45.5 -19 47.90625 -19.1875 
L 47.90625 -16.609375 
C 41.5 -16.609375 41.09375 -16.203125 41.09375 -12.328125 
z
M 36 13.84375 
C 36 9.5625 32.40625 5.578125 32.09375 5.28125 
C 29 1.796875 25.40625 1 23 1 
C 15.5 1 9.703125 10.453125 9.703125 21.5 
C 9.703125 33.140625 16.296875 42 24 42 
C 32 42 36 32.9375 36 27.765625 
z
" id="CMR17-113"/>
      <path d="M 41.5 30.203125 
C 41.5 35.296875 40.5 43.59375 28.703125 43.59375 
C 20.796875 43.59375 16.703125 37.5 15.203125 33.5 
L 15.09375 33.5 
L 15.09375 43.59375 
L 3.296875 42.5 
L 3.296875 39.90625 
C 9.203125 39.90625 10.09375 39.296875 10.09375 34.5 
L 10.09375 6.6875 
C 10.09375 2.875 9.703125 2.390625 3.296875 2.390625 
L 3.296875 -0.203125 
C 5.703125 0 10.09375 0 12.703125 0 
C 15.296875 0 19.796875 0 22.203125 -0.203125 
L 22.203125 2.390625 
C 15.796875 2.390625 15.40625 2.78125 15.40625 6.6875 
L 15.40625 25.90625 
C 15.40625 35.109375 21 42 28 42 
C 35.40625 42 36.203125 35.40625 36.203125 30.59375 
L 36.203125 6.6875 
C 36.203125 2.875 35.796875 2.390625 29.40625 2.390625 
L 29.40625 -0.203125 
C 31.796875 0 36.203125 0 38.796875 0 
C 41.40625 0 45.90625 0 48.296875 -0.203125 
L 48.296875 2.390625 
C 41.90625 2.390625 41.5 2.78125 41.5 6.6875 
z
" id="CMR17-110"/>
     </defs>
     <g style="fill:#262626;" transform="translate(111.592673592 52.8137148048)scale(0.15 -0.15)">
      <use transform="scale(0.996264009963)" xlink:href="#CMR17-69"/>
      <use transform="translate(62.5863005186 0.0)scale(0.996264009963)" xlink:href="#CMR17-113"/>
      <use transform="translate(110.879216366 0.0)scale(0.996264009963)" xlink:href="#CMR17-117"/>
      <use transform="translate(161.774586147 0.0)scale(0.996264009963)" xlink:href="#CMR17-97"/>
      <use transform="translate(207.465063264 0.0)scale(0.996264009963)" xlink:href="#CMR17-116"/>
      <use transform="translate(242.745831063 0.0)scale(0.996264009963)" xlink:href="#CMR17-105"/>
      <use transform="translate(267.616889545 0.0)scale(0.996264009963)" xlink:href="#CMR17-111"/>
      <use transform="translate(313.307366662 0.0)scale(0.996264009963)" xlink:href="#CMR17-110"/>
      <use transform="translate(394.278702789 0.0)scale(0.996264009963)" xlink:href="#CMR17-40"/>
      <use transform="translate(429.559470589 0.0)scale(0.996264009963)" xlink:href="#CMR17-63"/>
      <use transform="translate(472.647584984 0.0)scale(0.996264009963)" xlink:href="#CMR17-63"/>
      <use transform="translate(515.735699379 0.0)scale(0.996264009963)" xlink:href="#CMR17-63"/>
      <use transform="translate(558.823813775 0.0)scale(0.996264009963)" xlink:href="#CMR17-41"/>
     </g>
    </g>
   </g>
  </g>
 </g>
 <defs>
  <clipPath id="pda946c34e7">
   <rect height="216.0" width="342.0" x="56.0926735922" y="7.2"/>
  </clipPath>
 </defs>
</svg>
