<?xml version="1.0" encoding="utf-8" standalone="no"?>
<!DOCTYPE svg PUBLIC "-//W3C//DTD SVG 1.1//EN"
  "http://www.w3.org/Graphics/SVG/1.1/DTD/svg11.dtd">
<!-- Created with matplotlib (http://matplotlib.org/) -->
<svg height="600pt" version="1.1" viewBox="0 0 1126 600" width="1126pt" xmlns="http://www.w3.org/2000/svg" xmlns:xlink="http://www.w3.org/1999/xlink">
 <defs>
  <style type="text/css">
*{stroke-linecap:butt;stroke-linejoin:round;stroke-miterlimit:100000;}
  </style>
 </defs>
 <g id="figure_1">
  <g id="patch_1">
   <path d="M 0 600.943313 
L 1126.021094 600.943313 
L 1126.021094 0 
L 0 0 
z
" style="fill:#ffffff;"/>
  </g>
  <g id="axes_1">
   <g id="patch_2">
    <path d="M 90.561719 518.748 
L 536.961719 518.748 
L 536.961719 72.348 
L 90.561719 72.348 
z
" style="fill:#eaeaf2;"/>
   </g>
   <g id="matplotlib.axis_1">
    <g id="xtick_1">
     <g id="line2d_1">
      <path clip-path="url(#pff136443f1)" d="M 90.561719 518.748 
L 90.561719 72.348 
" style="fill:none;stroke:#ffffff;stroke-linecap:round;"/>
     </g>
     <g id="line2d_2">
      <defs>
       <path d="M 0 0 
L 0 0 
" id="md43cd7c564" style="stroke:#262626;"/>
      </defs>
      <g>
       <use style="fill:#262626;stroke:#262626;" x="90.56171875" xlink:href="#md43cd7c564" y="518.748"/>
      </g>
     </g>
     <g id="line2d_3">
      <g>
       <use style="fill:#262626;stroke:#262626;" x="90.56171875" xlink:href="#md43cd7c564" y="72.348"/>
      </g>
     </g>
     <g id="text_1">
      <!-- 0 -->
      <defs>
       <path d="M 31.78125 66.40625 
Q 24.171875 66.40625 20.328125 58.90625 
Q 16.5 51.421875 16.5 36.375 
Q 16.5 21.390625 20.328125 13.890625 
Q 24.171875 6.390625 31.78125 6.390625 
Q 39.453125 6.390625 43.28125 13.890625 
Q 47.125 21.390625 47.125 36.375 
Q 47.125 51.421875 43.28125 58.90625 
Q 39.453125 66.40625 31.78125 66.40625 
M 31.78125 74.21875 
Q 44.046875 74.21875 50.515625 64.515625 
Q 56.984375 54.828125 56.984375 36.375 
Q 56.984375 17.96875 50.515625 8.265625 
Q 44.046875 -1.421875 31.78125 -1.421875 
Q 19.53125 -1.421875 13.0625 8.265625 
Q 6.59375 17.96875 6.59375 36.375 
Q 6.59375 54.828125 13.0625 64.515625 
Q 19.53125 74.21875 31.78125 74.21875 
" id="BitstreamVeraSans-Roman-30"/>
      </defs>
      <g style="fill:#262626;" transform="translate(82.60859375 544.74409375)scale(0.25 -0.25)">
       <use xlink:href="#BitstreamVeraSans-Roman-30"/>
      </g>
     </g>
    </g>
    <g id="xtick_2">
     <g id="line2d_4">
      <path clip-path="url(#pff136443f1)" d="M 179.841719 518.748 
L 179.841719 72.348 
" style="fill:none;stroke:#ffffff;stroke-linecap:round;"/>
     </g>
     <g id="line2d_5">
      <g>
       <use style="fill:#262626;stroke:#262626;" x="179.84171875" xlink:href="#md43cd7c564" y="518.748"/>
      </g>
     </g>
     <g id="line2d_6">
      <g>
       <use style="fill:#262626;stroke:#262626;" x="179.84171875" xlink:href="#md43cd7c564" y="72.348"/>
      </g>
     </g>
     <g id="text_2">
      <!-- 20 -->
      <defs>
       <path d="M 19.1875 8.296875 
L 53.609375 8.296875 
L 53.609375 0 
L 7.328125 0 
L 7.328125 8.296875 
Q 12.9375 14.109375 22.625 23.890625 
Q 32.328125 33.6875 34.8125 36.53125 
Q 39.546875 41.84375 41.421875 45.53125 
Q 43.3125 49.21875 43.3125 52.78125 
Q 43.3125 58.59375 39.234375 62.25 
Q 35.15625 65.921875 28.609375 65.921875 
Q 23.96875 65.921875 18.8125 64.3125 
Q 13.671875 62.703125 7.8125 59.421875 
L 7.8125 69.390625 
Q 13.765625 71.78125 18.9375 73 
Q 24.125 74.21875 28.421875 74.21875 
Q 39.75 74.21875 46.484375 68.546875 
Q 53.21875 62.890625 53.21875 53.421875 
Q 53.21875 48.921875 51.53125 44.890625 
Q 49.859375 40.875 45.40625 35.40625 
Q 44.1875 33.984375 37.640625 27.21875 
Q 31.109375 20.453125 19.1875 8.296875 
" id="BitstreamVeraSans-Roman-32"/>
      </defs>
      <g style="fill:#262626;" transform="translate(163.93546875 544.74409375)scale(0.25 -0.25)">
       <use xlink:href="#BitstreamVeraSans-Roman-32"/>
       <use x="63.623046875" xlink:href="#BitstreamVeraSans-Roman-30"/>
      </g>
     </g>
    </g>
    <g id="xtick_3">
     <g id="line2d_7">
      <path clip-path="url(#pff136443f1)" d="M 269.121719 518.748 
L 269.121719 72.348 
" style="fill:none;stroke:#ffffff;stroke-linecap:round;"/>
     </g>
     <g id="line2d_8">
      <g>
       <use style="fill:#262626;stroke:#262626;" x="269.12171875" xlink:href="#md43cd7c564" y="518.748"/>
      </g>
     </g>
     <g id="line2d_9">
      <g>
       <use style="fill:#262626;stroke:#262626;" x="269.12171875" xlink:href="#md43cd7c564" y="72.348"/>
      </g>
     </g>
     <g id="text_3">
      <!-- 40 -->
      <defs>
       <path d="M 37.796875 64.3125 
L 12.890625 25.390625 
L 37.796875 25.390625 
z
M 35.203125 72.90625 
L 47.609375 72.90625 
L 47.609375 25.390625 
L 58.015625 25.390625 
L 58.015625 17.1875 
L 47.609375 17.1875 
L 47.609375 0 
L 37.796875 0 
L 37.796875 17.1875 
L 4.890625 17.1875 
L 4.890625 26.703125 
z
" id="BitstreamVeraSans-Roman-34"/>
      </defs>
      <g style="fill:#262626;" transform="translate(253.21546875 544.74409375)scale(0.25 -0.25)">
       <use xlink:href="#BitstreamVeraSans-Roman-34"/>
       <use x="63.623046875" xlink:href="#BitstreamVeraSans-Roman-30"/>
      </g>
     </g>
    </g>
    <g id="xtick_4">
     <g id="line2d_10">
      <path clip-path="url(#pff136443f1)" d="M 358.401719 518.748 
L 358.401719 72.348 
" style="fill:none;stroke:#ffffff;stroke-linecap:round;"/>
     </g>
     <g id="line2d_11">
      <g>
       <use style="fill:#262626;stroke:#262626;" x="358.40171875" xlink:href="#md43cd7c564" y="518.748"/>
      </g>
     </g>
     <g id="line2d_12">
      <g>
       <use style="fill:#262626;stroke:#262626;" x="358.40171875" xlink:href="#md43cd7c564" y="72.348"/>
      </g>
     </g>
     <g id="text_4">
      <!-- 60 -->
      <defs>
       <path d="M 33.015625 40.375 
Q 26.375 40.375 22.484375 35.828125 
Q 18.609375 31.296875 18.609375 23.390625 
Q 18.609375 15.53125 22.484375 10.953125 
Q 26.375 6.390625 33.015625 6.390625 
Q 39.65625 6.390625 43.53125 10.953125 
Q 47.40625 15.53125 47.40625 23.390625 
Q 47.40625 31.296875 43.53125 35.828125 
Q 39.65625 40.375 33.015625 40.375 
M 52.59375 71.296875 
L 52.59375 62.3125 
Q 48.875 64.0625 45.09375 64.984375 
Q 41.3125 65.921875 37.59375 65.921875 
Q 27.828125 65.921875 22.671875 59.328125 
Q 17.53125 52.734375 16.796875 39.40625 
Q 19.671875 43.65625 24.015625 45.921875 
Q 28.375 48.1875 33.59375 48.1875 
Q 44.578125 48.1875 50.953125 41.515625 
Q 57.328125 34.859375 57.328125 23.390625 
Q 57.328125 12.15625 50.6875 5.359375 
Q 44.046875 -1.421875 33.015625 -1.421875 
Q 20.359375 -1.421875 13.671875 8.265625 
Q 6.984375 17.96875 6.984375 36.375 
Q 6.984375 53.65625 15.1875 63.9375 
Q 23.390625 74.21875 37.203125 74.21875 
Q 40.921875 74.21875 44.703125 73.484375 
Q 48.484375 72.75 52.59375 71.296875 
" id="BitstreamVeraSans-Roman-36"/>
      </defs>
      <g style="fill:#262626;" transform="translate(342.49546875 544.74409375)scale(0.25 -0.25)">
       <use xlink:href="#BitstreamVeraSans-Roman-36"/>
       <use x="63.623046875" xlink:href="#BitstreamVeraSans-Roman-30"/>
      </g>
     </g>
    </g>
    <g id="xtick_5">
     <g id="line2d_13">
      <path clip-path="url(#pff136443f1)" d="M 447.681719 518.748 
L 447.681719 72.348 
" style="fill:none;stroke:#ffffff;stroke-linecap:round;"/>
     </g>
     <g id="line2d_14">
      <g>
       <use style="fill:#262626;stroke:#262626;" x="447.68171875" xlink:href="#md43cd7c564" y="518.748"/>
      </g>
     </g>
     <g id="line2d_15">
      <g>
       <use style="fill:#262626;stroke:#262626;" x="447.68171875" xlink:href="#md43cd7c564" y="72.348"/>
      </g>
     </g>
     <g id="text_5">
      <!-- 80 -->
      <defs>
       <path d="M 31.78125 34.625 
Q 24.75 34.625 20.71875 30.859375 
Q 16.703125 27.09375 16.703125 20.515625 
Q 16.703125 13.921875 20.71875 10.15625 
Q 24.75 6.390625 31.78125 6.390625 
Q 38.8125 6.390625 42.859375 10.171875 
Q 46.921875 13.96875 46.921875 20.515625 
Q 46.921875 27.09375 42.890625 30.859375 
Q 38.875 34.625 31.78125 34.625 
M 21.921875 38.8125 
Q 15.578125 40.375 12.03125 44.71875 
Q 8.5 49.078125 8.5 55.328125 
Q 8.5 64.0625 14.71875 69.140625 
Q 20.953125 74.21875 31.78125 74.21875 
Q 42.671875 74.21875 48.875 69.140625 
Q 55.078125 64.0625 55.078125 55.328125 
Q 55.078125 49.078125 51.53125 44.71875 
Q 48 40.375 41.703125 38.8125 
Q 48.828125 37.15625 52.796875 32.3125 
Q 56.78125 27.484375 56.78125 20.515625 
Q 56.78125 9.90625 50.3125 4.234375 
Q 43.84375 -1.421875 31.78125 -1.421875 
Q 19.734375 -1.421875 13.25 4.234375 
Q 6.78125 9.90625 6.78125 20.515625 
Q 6.78125 27.484375 10.78125 32.3125 
Q 14.796875 37.15625 21.921875 38.8125 
M 18.3125 54.390625 
Q 18.3125 48.734375 21.84375 45.5625 
Q 25.390625 42.390625 31.78125 42.390625 
Q 38.140625 42.390625 41.71875 45.5625 
Q 45.3125 48.734375 45.3125 54.390625 
Q 45.3125 60.0625 41.71875 63.234375 
Q 38.140625 66.40625 31.78125 66.40625 
Q 25.390625 66.40625 21.84375 63.234375 
Q 18.3125 60.0625 18.3125 54.390625 
" id="BitstreamVeraSans-Roman-38"/>
      </defs>
      <g style="fill:#262626;" transform="translate(431.77546875 544.74409375)scale(0.25 -0.25)">
       <use xlink:href="#BitstreamVeraSans-Roman-38"/>
       <use x="63.623046875" xlink:href="#BitstreamVeraSans-Roman-30"/>
      </g>
     </g>
    </g>
    <g id="xtick_6">
     <g id="line2d_16">
      <path clip-path="url(#pff136443f1)" d="M 536.961719 518.748 
L 536.961719 72.348 
" style="fill:none;stroke:#ffffff;stroke-linecap:round;"/>
     </g>
     <g id="line2d_17">
      <g>
       <use style="fill:#262626;stroke:#262626;" x="536.96171875" xlink:href="#md43cd7c564" y="518.748"/>
      </g>
     </g>
     <g id="line2d_18">
      <g>
       <use style="fill:#262626;stroke:#262626;" x="536.96171875" xlink:href="#md43cd7c564" y="72.348"/>
      </g>
     </g>
     <g id="text_6">
      <!-- 100 -->
      <defs>
       <path d="M 12.40625 8.296875 
L 28.515625 8.296875 
L 28.515625 63.921875 
L 10.984375 60.40625 
L 10.984375 69.390625 
L 28.421875 72.90625 
L 38.28125 72.90625 
L 38.28125 8.296875 
L 54.390625 8.296875 
L 54.390625 0 
L 12.40625 0 
z
" id="BitstreamVeraSans-Roman-31"/>
      </defs>
      <g style="fill:#262626;" transform="translate(513.10234375 544.74409375)scale(0.25 -0.25)">
       <use xlink:href="#BitstreamVeraSans-Roman-31"/>
       <use x="63.623046875" xlink:href="#BitstreamVeraSans-Roman-30"/>
       <use x="127.24609375" xlink:href="#BitstreamVeraSans-Roman-30"/>
      </g>
     </g>
    </g>
    <g id="text_7">
     <!-- Index $j$ -->
     <defs>
      <path d="M -1.3125 -14.203125 
Q -1.3125 -11.765625 0.359375 -9.984375 
Q 2.046875 -8.203125 4.5 -8.203125 
Q 6.109375 -8.203125 7.203125 -9.203125 
Q 8.296875 -10.203125 8.296875 -11.8125 
Q 8.296875 -13.71875 7.09375 -15.25 
Q 5.90625 -16.796875 4.109375 -17.28125 
Q 5.859375 -17.921875 7.625 -17.921875 
Q 11.859375 -17.921875 14.984375 -13.984375 
Q 18.109375 -10.0625 19.390625 -5.171875 
L 28.8125 32.421875 
Q 29.5 35.296875 29.5 37.3125 
Q 29.5 41.609375 26.515625 41.609375 
Q 22.125 41.609375 18.828125 37.625 
Q 15.53125 33.640625 13.484375 28.421875 
Q 13.28125 27.78125 12.703125 27.78125 
L 11.53125 27.78125 
Q 10.6875 27.78125 10.6875 28.71875 
L 10.6875 29 
Q 12.9375 35.015625 17.078125 39.59375 
Q 21.234375 44.1875 26.703125 44.1875 
Q 30.859375 44.1875 33.515625 41.59375 
Q 36.1875 39.015625 36.1875 35.015625 
Q 36.1875 33.59375 35.890625 32.171875 
L 26.421875 -5.8125 
Q 25.390625 -9.859375 22.5 -13.234375 
Q 19.625 -16.609375 15.625 -18.5625 
Q 11.625 -20.515625 7.421875 -20.515625 
Q 4.046875 -20.515625 1.359375 -18.890625 
Q -1.3125 -17.28125 -1.3125 -14.203125 
M 30.328125 60.59375 
Q 30.328125 62.796875 32.03125 64.453125 
Q 33.734375 66.109375 35.890625 66.109375 
Q 37.59375 66.109375 38.6875 65.0625 
Q 39.796875 64.015625 39.796875 62.40625 
Q 39.796875 60.15625 38.015625 58.46875 
Q 36.234375 56.78125 34.078125 56.78125 
Q 32.46875 56.78125 31.390625 57.90625 
Q 30.328125 59.03125 30.328125 60.59375 
" id="Cmmi10-6a"/>
      <path id="BitstreamVeraSans-Roman-20"/>
      <path d="M 54.890625 33.015625 
L 54.890625 0 
L 45.90625 0 
L 45.90625 32.71875 
Q 45.90625 40.484375 42.875 44.328125 
Q 39.84375 48.1875 33.796875 48.1875 
Q 26.515625 48.1875 22.3125 43.546875 
Q 18.109375 38.921875 18.109375 30.90625 
L 18.109375 0 
L 9.078125 0 
L 9.078125 54.6875 
L 18.109375 54.6875 
L 18.109375 46.1875 
Q 21.34375 51.125 25.703125 53.5625 
Q 30.078125 56 35.796875 56 
Q 45.21875 56 50.046875 50.171875 
Q 54.890625 44.34375 54.890625 33.015625 
" id="BitstreamVeraSans-Roman-6e"/>
      <path d="M 54.890625 54.6875 
L 35.109375 28.078125 
L 55.90625 0 
L 45.3125 0 
L 29.390625 21.484375 
L 13.484375 0 
L 2.875 0 
L 24.125 28.609375 
L 4.6875 54.6875 
L 15.28125 54.6875 
L 29.78125 35.203125 
L 44.28125 54.6875 
z
" id="BitstreamVeraSans-Roman-78"/>
      <path d="M 56.203125 29.59375 
L 56.203125 25.203125 
L 14.890625 25.203125 
Q 15.484375 15.921875 20.484375 11.0625 
Q 25.484375 6.203125 34.421875 6.203125 
Q 39.59375 6.203125 44.453125 7.46875 
Q 49.3125 8.734375 54.109375 11.28125 
L 54.109375 2.78125 
Q 49.265625 0.734375 44.1875 -0.34375 
Q 39.109375 -1.421875 33.890625 -1.421875 
Q 20.796875 -1.421875 13.15625 6.1875 
Q 5.515625 13.8125 5.515625 26.8125 
Q 5.515625 40.234375 12.765625 48.109375 
Q 20.015625 56 32.328125 56 
Q 43.359375 56 49.78125 48.890625 
Q 56.203125 41.796875 56.203125 29.59375 
M 47.21875 32.234375 
Q 47.125 39.59375 43.09375 43.984375 
Q 39.0625 48.390625 32.421875 48.390625 
Q 24.90625 48.390625 20.390625 44.140625 
Q 15.875 39.890625 15.1875 32.171875 
z
" id="BitstreamVeraSans-Roman-65"/>
      <path d="M 45.40625 46.390625 
L 45.40625 75.984375 
L 54.390625 75.984375 
L 54.390625 0 
L 45.40625 0 
L 45.40625 8.203125 
Q 42.578125 3.328125 38.25 0.953125 
Q 33.9375 -1.421875 27.875 -1.421875 
Q 17.96875 -1.421875 11.734375 6.484375 
Q 5.515625 14.40625 5.515625 27.296875 
Q 5.515625 40.1875 11.734375 48.09375 
Q 17.96875 56 27.875 56 
Q 33.9375 56 38.25 53.625 
Q 42.578125 51.265625 45.40625 46.390625 
M 14.796875 27.296875 
Q 14.796875 17.390625 18.875 11.75 
Q 22.953125 6.109375 30.078125 6.109375 
Q 37.203125 6.109375 41.296875 11.75 
Q 45.40625 17.390625 45.40625 27.296875 
Q 45.40625 37.203125 41.296875 42.84375 
Q 37.203125 48.484375 30.078125 48.484375 
Q 22.953125 48.484375 18.875 42.84375 
Q 14.796875 37.203125 14.796875 27.296875 
" id="BitstreamVeraSans-Roman-64"/>
      <path d="M 9.8125 72.90625 
L 19.671875 72.90625 
L 19.671875 0 
L 9.8125 0 
z
" id="BitstreamVeraSans-Roman-49"/>
     </defs>
     <g style="fill:#262626;" transform="translate(243.76171875 585.3433125)scale(0.4 -0.4)">
      <use transform="translate(0.0 0.015625)" xlink:href="#BitstreamVeraSans-Roman-49"/>
      <use transform="translate(29.4921875 0.015625)" xlink:href="#BitstreamVeraSans-Roman-6e"/>
      <use transform="translate(92.87109375 0.015625)" xlink:href="#BitstreamVeraSans-Roman-64"/>
      <use transform="translate(156.34765625 0.015625)" xlink:href="#BitstreamVeraSans-Roman-65"/>
      <use transform="translate(217.87109375 0.015625)" xlink:href="#BitstreamVeraSans-Roman-78"/>
      <use transform="translate(277.05078125 0.015625)" xlink:href="#BitstreamVeraSans-Roman-20"/>
      <use transform="translate(308.837890625 0.015625)" xlink:href="#Cmmi10-6a"/>
     </g>
    </g>
   </g>
   <g id="matplotlib.axis_2">
    <g id="ytick_1">
     <g id="line2d_19">
      <path clip-path="url(#pff136443f1)" d="M 90.561719 518.748 
L 536.961719 518.748 
" style="fill:none;stroke:#ffffff;stroke-linecap:round;"/>
     </g>
     <g id="line2d_20">
      <g>
       <use style="fill:#262626;stroke:#262626;" x="90.56171875" xlink:href="#md43cd7c564" y="518.748"/>
      </g>
     </g>
     <g id="line2d_21">
      <g>
       <use style="fill:#262626;stroke:#262626;" x="536.96171875" xlink:href="#md43cd7c564" y="518.748"/>
      </g>
     </g>
     <g id="text_8">
      <!-- −20 -->
      <defs>
       <path d="M 10.59375 35.5 
L 73.1875 35.5 
L 73.1875 27.203125 
L 10.59375 27.203125 
z
" id="BitstreamVeraSans-Roman-2212"/>
      </defs>
      <g style="fill:#262626;" transform="translate(30.8 525.6464375)scale(0.25 -0.25)">
       <use xlink:href="#BitstreamVeraSans-Roman-2212"/>
       <use x="83.7890625" xlink:href="#BitstreamVeraSans-Roman-32"/>
       <use x="147.412109375" xlink:href="#BitstreamVeraSans-Roman-30"/>
      </g>
     </g>
    </g>
    <g id="ytick_2">
     <g id="line2d_22">
      <path clip-path="url(#pff136443f1)" d="M 90.561719 462.948 
L 536.961719 462.948 
" style="fill:none;stroke:#ffffff;stroke-linecap:round;"/>
     </g>
     <g id="line2d_23">
      <g>
       <use style="fill:#262626;stroke:#262626;" x="90.56171875" xlink:href="#md43cd7c564" y="462.948"/>
      </g>
     </g>
     <g id="line2d_24">
      <g>
       <use style="fill:#262626;stroke:#262626;" x="536.96171875" xlink:href="#md43cd7c564" y="462.948"/>
      </g>
     </g>
     <g id="text_9">
      <!-- −15 -->
      <defs>
       <path d="M 10.796875 72.90625 
L 49.515625 72.90625 
L 49.515625 64.59375 
L 19.828125 64.59375 
L 19.828125 46.734375 
Q 21.96875 47.46875 24.109375 47.828125 
Q 26.265625 48.1875 28.421875 48.1875 
Q 40.625 48.1875 47.75 41.5 
Q 54.890625 34.8125 54.890625 23.390625 
Q 54.890625 11.625 47.5625 5.09375 
Q 40.234375 -1.421875 26.90625 -1.421875 
Q 22.3125 -1.421875 17.546875 -0.640625 
Q 12.796875 0.140625 7.71875 1.703125 
L 7.71875 11.625 
Q 12.109375 9.234375 16.796875 8.0625 
Q 21.484375 6.890625 26.703125 6.890625 
Q 35.15625 6.890625 40.078125 11.328125 
Q 45.015625 15.765625 45.015625 23.390625 
Q 45.015625 31 40.078125 35.4375 
Q 35.15625 39.890625 26.703125 39.890625 
Q 22.75 39.890625 18.8125 39.015625 
Q 14.890625 38.140625 10.796875 36.28125 
z
" id="BitstreamVeraSans-Roman-35"/>
      </defs>
      <g style="fill:#262626;" transform="translate(30.8 469.8464375)scale(0.25 -0.25)">
       <use xlink:href="#BitstreamVeraSans-Roman-2212"/>
       <use x="83.7890625" xlink:href="#BitstreamVeraSans-Roman-31"/>
       <use x="147.412109375" xlink:href="#BitstreamVeraSans-Roman-35"/>
      </g>
     </g>
    </g>
    <g id="ytick_3">
     <g id="line2d_25">
      <path clip-path="url(#pff136443f1)" d="M 90.561719 407.148 
L 536.961719 407.148 
" style="fill:none;stroke:#ffffff;stroke-linecap:round;"/>
     </g>
     <g id="line2d_26">
      <g>
       <use style="fill:#262626;stroke:#262626;" x="90.56171875" xlink:href="#md43cd7c564" y="407.148"/>
      </g>
     </g>
     <g id="line2d_27">
      <g>
       <use style="fill:#262626;stroke:#262626;" x="536.96171875" xlink:href="#md43cd7c564" y="407.148"/>
      </g>
     </g>
     <g id="text_10">
      <!-- −10 -->
      <g style="fill:#262626;" transform="translate(30.8 414.0464375)scale(0.25 -0.25)">
       <use xlink:href="#BitstreamVeraSans-Roman-2212"/>
       <use x="83.7890625" xlink:href="#BitstreamVeraSans-Roman-31"/>
       <use x="147.412109375" xlink:href="#BitstreamVeraSans-Roman-30"/>
      </g>
     </g>
    </g>
    <g id="ytick_4">
     <g id="line2d_28">
      <path clip-path="url(#pff136443f1)" d="M 90.561719 351.348 
L 536.961719 351.348 
" style="fill:none;stroke:#ffffff;stroke-linecap:round;"/>
     </g>
     <g id="line2d_29">
      <g>
       <use style="fill:#262626;stroke:#262626;" x="90.56171875" xlink:href="#md43cd7c564" y="351.348"/>
      </g>
     </g>
     <g id="line2d_30">
      <g>
       <use style="fill:#262626;stroke:#262626;" x="536.96171875" xlink:href="#md43cd7c564" y="351.348"/>
      </g>
     </g>
     <g id="text_11">
      <!-- −5 -->
      <g style="fill:#262626;" transform="translate(46.70625 358.2464375)scale(0.25 -0.25)">
       <use xlink:href="#BitstreamVeraSans-Roman-2212"/>
       <use x="83.7890625" xlink:href="#BitstreamVeraSans-Roman-35"/>
      </g>
     </g>
    </g>
    <g id="ytick_5">
     <g id="line2d_31">
      <path clip-path="url(#pff136443f1)" d="M 90.561719 295.548 
L 536.961719 295.548 
" style="fill:none;stroke:#ffffff;stroke-linecap:round;"/>
     </g>
     <g id="line2d_32">
      <g>
       <use style="fill:#262626;stroke:#262626;" x="90.56171875" xlink:href="#md43cd7c564" y="295.548"/>
      </g>
     </g>
     <g id="line2d_33">
      <g>
       <use style="fill:#262626;stroke:#262626;" x="536.96171875" xlink:href="#md43cd7c564" y="295.548"/>
      </g>
     </g>
     <g id="text_12">
      <!-- 0 -->
      <g style="fill:#262626;" transform="translate(67.65546875 302.4464375)scale(0.25 -0.25)">
       <use xlink:href="#BitstreamVeraSans-Roman-30"/>
      </g>
     </g>
    </g>
    <g id="ytick_6">
     <g id="line2d_34">
      <path clip-path="url(#pff136443f1)" d="M 90.561719 239.748 
L 536.961719 239.748 
" style="fill:none;stroke:#ffffff;stroke-linecap:round;"/>
     </g>
     <g id="line2d_35">
      <g>
       <use style="fill:#262626;stroke:#262626;" x="90.56171875" xlink:href="#md43cd7c564" y="239.748"/>
      </g>
     </g>
     <g id="line2d_36">
      <g>
       <use style="fill:#262626;stroke:#262626;" x="536.96171875" xlink:href="#md43cd7c564" y="239.748"/>
      </g>
     </g>
     <g id="text_13">
      <!-- 5 -->
      <g style="fill:#262626;" transform="translate(67.65546875 246.6464375)scale(0.25 -0.25)">
       <use xlink:href="#BitstreamVeraSans-Roman-35"/>
      </g>
     </g>
    </g>
    <g id="ytick_7">
     <g id="line2d_37">
      <path clip-path="url(#pff136443f1)" d="M 90.561719 183.948 
L 536.961719 183.948 
" style="fill:none;stroke:#ffffff;stroke-linecap:round;"/>
     </g>
     <g id="line2d_38">
      <g>
       <use style="fill:#262626;stroke:#262626;" x="90.56171875" xlink:href="#md43cd7c564" y="183.948"/>
      </g>
     </g>
     <g id="line2d_39">
      <g>
       <use style="fill:#262626;stroke:#262626;" x="536.96171875" xlink:href="#md43cd7c564" y="183.948"/>
      </g>
     </g>
     <g id="text_14">
      <!-- 10 -->
      <g style="fill:#262626;" transform="translate(51.74921875 190.8464375)scale(0.25 -0.25)">
       <use xlink:href="#BitstreamVeraSans-Roman-31"/>
       <use x="63.623046875" xlink:href="#BitstreamVeraSans-Roman-30"/>
      </g>
     </g>
    </g>
    <g id="ytick_8">
     <g id="line2d_40">
      <path clip-path="url(#pff136443f1)" d="M 90.561719 128.148 
L 536.961719 128.148 
" style="fill:none;stroke:#ffffff;stroke-linecap:round;"/>
     </g>
     <g id="line2d_41">
      <g>
       <use style="fill:#262626;stroke:#262626;" x="90.56171875" xlink:href="#md43cd7c564" y="128.148"/>
      </g>
     </g>
     <g id="line2d_42">
      <g>
       <use style="fill:#262626;stroke:#262626;" x="536.96171875" xlink:href="#md43cd7c564" y="128.148"/>
      </g>
     </g>
     <g id="text_15">
      <!-- 15 -->
      <g style="fill:#262626;" transform="translate(51.74921875 135.0464375)scale(0.25 -0.25)">
       <use xlink:href="#BitstreamVeraSans-Roman-31"/>
       <use x="63.623046875" xlink:href="#BitstreamVeraSans-Roman-35"/>
      </g>
     </g>
    </g>
    <g id="ytick_9">
     <g id="line2d_43">
      <path clip-path="url(#pff136443f1)" d="M 90.561719 72.348 
L 536.961719 72.348 
" style="fill:none;stroke:#ffffff;stroke-linecap:round;"/>
     </g>
     <g id="line2d_44">
      <g>
       <use style="fill:#262626;stroke:#262626;" x="90.56171875" xlink:href="#md43cd7c564" y="72.348"/>
      </g>
     </g>
     <g id="line2d_45">
      <g>
       <use style="fill:#262626;stroke:#262626;" x="536.96171875" xlink:href="#md43cd7c564" y="72.348"/>
      </g>
     </g>
     <g id="text_16">
      <!-- 20 -->
      <g style="fill:#262626;" transform="translate(51.74921875 79.2464375)scale(0.25 -0.25)">
       <use xlink:href="#BitstreamVeraSans-Roman-32"/>
       <use x="63.623046875" xlink:href="#BitstreamVeraSans-Roman-30"/>
      </g>
     </g>
    </g>
    <g id="text_17">
     <!-- $\kappa_{j}$ -->
     <defs>
      <path d="M 5.328125 1.703125 
Q 5.328125 2.296875 5.421875 2.59375 
L 14.984375 41.015625 
Q 15.375 42.4375 16.546875 43.3125 
Q 17.71875 44.1875 19.1875 44.1875 
Q 20.453125 44.1875 21.328125 43.421875 
Q 22.21875 42.671875 22.21875 41.40625 
Q 22.21875 41.109375 22.1875 40.9375 
Q 22.171875 40.765625 22.125 40.578125 
L 18.5 26.125 
Q 22.515625 27.4375 29.15625 32.984375 
Q 35.796875 38.53125 39.1875 40.8125 
Q 42.578125 43.109375 47.515625 43.109375 
Q 49.125 43.109375 50.21875 42.109375 
Q 51.3125 41.109375 51.3125 39.40625 
Q 51.3125 37.0625 49.625 35.421875 
Q 47.953125 33.796875 45.609375 33.796875 
Q 44 33.796875 42.890625 34.84375 
Q 41.796875 35.890625 41.796875 37.5 
Q 41.796875 38.625 42.1875 39.40625 
Q 39.796875 38.421875 37.28125 36.65625 
Q 34.765625 34.90625 32.71875 33.125 
Q 30.671875 31.34375 27.78125 28.953125 
Q 24.90625 26.5625 22.609375 25.296875 
Q 26.703125 25.296875 31 24.40625 
Q 35.296875 23.53125 38.453125 21.1875 
Q 41.609375 18.84375 41.609375 14.796875 
Q 41.609375 13.1875 41.21875 12.015625 
Q 40.28125 8.015625 40.28125 6 
Q 40.28125 1.515625 43.40625 1.515625 
Q 46.96875 1.515625 48.875 5.46875 
Q 50.78125 9.421875 52 14.703125 
Q 52.203125 15.28125 52.78125 15.28125 
L 54 15.28125 
Q 54.390625 15.28125 54.640625 15.015625 
Q 54.890625 14.75 54.890625 14.40625 
Q 54.890625 14.3125 54.78125 14.109375 
Q 51.125 -1.125 43.21875 -1.125 
Q 40.375 -1.125 38.203125 0.1875 
Q 36.03125 1.515625 34.859375 3.78125 
Q 33.6875 6.0625 33.6875 8.890625 
Q 33.6875 10.6875 34.078125 12.203125 
Q 34.421875 13.578125 34.421875 14.5 
Q 34.421875 17.71875 31.5625 19.578125 
Q 28.71875 21.4375 24.828125 22.109375 
Q 20.953125 22.796875 17.578125 22.796875 
L 12.5 2.203125 
Q 12.15625 0.828125 10.953125 -0.140625 
Q 9.765625 -1.125 8.296875 -1.125 
Q 7.078125 -1.125 6.203125 -0.34375 
Q 5.328125 0.4375 5.328125 1.703125 
" id="Cmmi10-2219"/>
     </defs>
     <g style="fill:#262626;" transform="translate(7.2 282.748)scale(0.4 -0.4)">
      <use transform="translate(0.0 0.8125)" xlink:href="#Cmmi10-2219"/>
      <use transform="translate(57.6171875 -16.19375)scale(0.7)" xlink:href="#Cmmi10-6a"/>
     </g>
    </g>
   </g>
   <g id="line2d_46">
    <defs>
     <path d="M 0 3.5 
C 0.928211 3.5 1.81853 3.131218 2.474874 2.474874 
C 3.131218 1.81853 3.5 0.928211 3.5 0 
C 3.5 -0.928211 3.131218 -1.81853 2.474874 -2.474874 
C 1.81853 -3.131218 0.928211 -3.5 0 -3.5 
C -0.928211 -3.5 -1.81853 -3.131218 -2.474874 -2.474874 
C -3.131218 -1.81853 -3.5 -0.928211 -3.5 0 
C -3.5 0.928211 -3.131218 1.81853 -2.474874 2.474874 
C -1.81853 3.131218 -0.928211 3.5 0 3.5 
z
" id="ma863898617"/>
    </defs>
    <g>
     <use style="fill:#0000ff;" x="90.56171875" xlink:href="#ma863898617" y="82.1385595637"/>
     <use style="fill:#0000ff;" x="95.02571875" xlink:href="#ma863898617" y="91.962629714"/>
     <use style="fill:#0000ff;" x="99.48971875" xlink:href="#ma863898617" y="95.1904911592"/>
     <use style="fill:#0000ff;" x="103.95371875" xlink:href="#ma863898617" y="105.291718823"/>
     <use style="fill:#0000ff;" x="108.41771875" xlink:href="#ma863898617" y="113.730460459"/>
     <use style="fill:#0000ff;" x="112.88171875" xlink:href="#ma863898617" y="119.403359052"/>
     <use style="fill:#0000ff;" x="117.34571875" xlink:href="#ma863898617" y="122.606654316"/>
     <use style="fill:#0000ff;" x="121.80971875" xlink:href="#ma863898617" y="128.335368692"/>
     <use style="fill:#0000ff;" x="126.27371875" xlink:href="#ma863898617" y="131.897700278"/>
     <use style="fill:#0000ff;" x="130.73771875" xlink:href="#ma863898617" y="139.277909351"/>
     <use style="fill:#0000ff;" x="135.20171875" xlink:href="#ma863898617" y="143.680978476"/>
     <use style="fill:#0000ff;" x="139.66571875" xlink:href="#ma863898617" y="148.674039609"/>
     <use style="fill:#0000ff;" x="144.12971875" xlink:href="#ma863898617" y="153.781598664"/>
     <use style="fill:#0000ff;" x="148.59371875" xlink:href="#ma863898617" y="160.741218086"/>
     <use style="fill:#0000ff;" x="153.05771875" xlink:href="#ma863898617" y="164.391551086"/>
     <use style="fill:#0000ff;" x="157.52171875" xlink:href="#ma863898617" y="167.639582505"/>
     <use style="fill:#0000ff;" x="161.98571875" xlink:href="#ma863898617" y="171.367907848"/>
     <use style="fill:#0000ff;" x="166.44971875" xlink:href="#ma863898617" y="174.470406552"/>
     <use style="fill:#0000ff;" x="170.91371875" xlink:href="#ma863898617" y="180.38472228"/>
     <use style="fill:#0000ff;" x="175.37771875" xlink:href="#ma863898617" y="183.191205491"/>
     <use style="fill:#0000ff;" x="179.84171875" xlink:href="#ma863898617" y="189.932215126"/>
     <use style="fill:#0000ff;" x="184.30571875" xlink:href="#ma863898617" y="191.591433084"/>
     <use style="fill:#0000ff;" x="188.76971875" xlink:href="#ma863898617" y="194.860231941"/>
     <use style="fill:#0000ff;" x="193.23371875" xlink:href="#ma863898617" y="199.379437189"/>
     <use style="fill:#0000ff;" x="197.69771875" xlink:href="#ma863898617" y="200.986777929"/>
     <use style="fill:#0000ff;" x="202.16171875" xlink:href="#ma863898617" y="205.780703902"/>
     <use style="fill:#0000ff;" x="206.62571875" xlink:href="#ma863898617" y="208.366566859"/>
     <use style="fill:#0000ff;" x="211.08971875" xlink:href="#ma863898617" y="210.954581194"/>
     <use style="fill:#0000ff;" x="215.55371875" xlink:href="#ma863898617" y="217.711465203"/>
     <use style="fill:#0000ff;" x="220.01771875" xlink:href="#ma863898617" y="221.958501541"/>
     <use style="fill:#0000ff;" x="224.48171875" xlink:href="#ma863898617" y="229.055363925"/>
     <use style="fill:#0000ff;" x="228.94571875" xlink:href="#ma863898617" y="230.942558108"/>
     <use style="fill:#0000ff;" x="233.40971875" xlink:href="#ma863898617" y="234.740650959"/>
     <use style="fill:#0000ff;" x="237.87371875" xlink:href="#ma863898617" y="237.978165915"/>
     <use style="fill:#0000ff;" x="242.33771875" xlink:href="#ma863898617" y="240.672045539"/>
     <use style="fill:#0000ff;" x="246.80171875" xlink:href="#ma863898617" y="243.482544181"/>
     <use style="fill:#0000ff;" x="251.26571875" xlink:href="#ma863898617" y="245.669672191"/>
     <use style="fill:#0000ff;" x="255.72971875" xlink:href="#ma863898617" y="249.294474592"/>
     <use style="fill:#0000ff;" x="260.19371875" xlink:href="#ma863898617" y="252.966470272"/>
     <use style="fill:#0000ff;" x="264.65771875" xlink:href="#ma863898617" y="258.254264368"/>
     <use style="fill:#0000ff;" x="269.12171875" xlink:href="#ma863898617" y="259.026801206"/>
     <use style="fill:#0000ff;" x="273.58571875" xlink:href="#ma863898617" y="264.688955354"/>
     <use style="fill:#0000ff;" x="278.04971875" xlink:href="#ma863898617" y="268.159166447"/>
     <use style="fill:#0000ff;" x="282.51371875" xlink:href="#ma863898617" y="273.054952928"/>
     <use style="fill:#0000ff;" x="286.97771875" xlink:href="#ma863898617" y="274.941903413"/>
     <use style="fill:#0000ff;" x="291.44171875" xlink:href="#ma863898617" y="278.620458969"/>
     <use style="fill:#0000ff;" x="295.90571875" xlink:href="#ma863898617" y="281.886001471"/>
     <use style="fill:#0000ff;" x="300.36971875" xlink:href="#ma863898617" y="284.900713951"/>
     <use style="fill:#0000ff;" x="304.83371875" xlink:href="#ma863898617" y="289.581112543"/>
     <use style="fill:#0000ff;" x="309.29771875" xlink:href="#ma863898617" y="292.925554718"/>
     <use style="fill:#0000ff;" x="313.76171875" xlink:href="#ma863898617" y="295.53215438"/>
     <use style="fill:#0000ff;" x="318.22571875" xlink:href="#ma863898617" y="297.76196503"/>
     <use style="fill:#0000ff;" x="322.68971875" xlink:href="#ma863898617" y="304.907172026"/>
     <use style="fill:#0000ff;" x="327.15371875" xlink:href="#ma863898617" y="305.843289171"/>
     <use style="fill:#0000ff;" x="331.61771875" xlink:href="#ma863898617" y="309.106341905"/>
     <use style="fill:#0000ff;" x="336.08171875" xlink:href="#ma863898617" y="312.79668974"/>
     <use style="fill:#0000ff;" x="340.54571875" xlink:href="#ma863898617" y="316.654071142"/>
     <use style="fill:#0000ff;" x="345.00971875" xlink:href="#ma863898617" y="321.641733404"/>
     <use style="fill:#0000ff;" x="349.47371875" xlink:href="#ma863898617" y="325.084219765"/>
     <use style="fill:#0000ff;" x="353.93771875" xlink:href="#ma863898617" y="327.023083432"/>
     <use style="fill:#0000ff;" x="358.40171875" xlink:href="#ma863898617" y="331.173274857"/>
     <use style="fill:#0000ff;" x="362.86571875" xlink:href="#ma863898617" y="332.196998483"/>
     <use style="fill:#0000ff;" x="367.32971875" xlink:href="#ma863898617" y="338.986765699"/>
     <use style="fill:#0000ff;" x="371.79371875" xlink:href="#ma863898617" y="341.313535698"/>
     <use style="fill:#0000ff;" x="376.25771875" xlink:href="#ma863898617" y="344.295924645"/>
     <use style="fill:#0000ff;" x="380.72171875" xlink:href="#ma863898617" y="348.352421686"/>
     <use style="fill:#0000ff;" x="385.18571875" xlink:href="#ma863898617" y="351.877924497"/>
     <use style="fill:#0000ff;" x="389.64971875" xlink:href="#ma863898617" y="354.970150309"/>
     <use style="fill:#0000ff;" x="394.11371875" xlink:href="#ma863898617" y="360.348878395"/>
     <use style="fill:#0000ff;" x="398.57771875" xlink:href="#ma863898617" y="362.751666666"/>
     <use style="fill:#0000ff;" x="403.04171875" xlink:href="#ma863898617" y="366.574565104"/>
     <use style="fill:#0000ff;" x="407.50571875" xlink:href="#ma863898617" y="372.796476101"/>
     <use style="fill:#0000ff;" x="411.96971875" xlink:href="#ma863898617" y="374.292507726"/>
     <use style="fill:#0000ff;" x="416.43371875" xlink:href="#ma863898617" y="378.569527366"/>
     <use style="fill:#0000ff;" x="420.89771875" xlink:href="#ma863898617" y="381.535077133"/>
     <use style="fill:#0000ff;" x="425.36171875" xlink:href="#ma863898617" y="385.741811181"/>
     <use style="fill:#0000ff;" x="429.82571875" xlink:href="#ma863898617" y="391.02346568"/>
     <use style="fill:#0000ff;" x="434.28971875" xlink:href="#ma863898617" y="392.991484706"/>
     <use style="fill:#0000ff;" x="438.75371875" xlink:href="#ma863898617" y="397.50167994"/>
     <use style="fill:#0000ff;" x="443.21771875" xlink:href="#ma863898617" y="399.777949774"/>
     <use style="fill:#0000ff;" x="447.68171875" xlink:href="#ma863898617" y="403.817937907"/>
     <use style="fill:#0000ff;" x="452.14571875" xlink:href="#ma863898617" y="409.792729065"/>
     <use style="fill:#0000ff;" x="456.60971875" xlink:href="#ma863898617" y="412.149022602"/>
     <use style="fill:#0000ff;" x="461.07371875" xlink:href="#ma863898617" y="413.913154994"/>
     <use style="fill:#0000ff;" x="465.53771875" xlink:href="#ma863898617" y="419.046364961"/>
     <use style="fill:#0000ff;" x="470.00171875" xlink:href="#ma863898617" y="422.305530149"/>
     <use style="fill:#0000ff;" x="474.46571875" xlink:href="#ma863898617" y="430.04382831"/>
     <use style="fill:#0000ff;" x="478.92971875" xlink:href="#ma863898617" y="431.454138454"/>
     <use style="fill:#0000ff;" x="483.39371875" xlink:href="#ma863898617" y="435.628096006"/>
     <use style="fill:#0000ff;" x="487.85771875" xlink:href="#ma863898617" y="439.940467042"/>
     <use style="fill:#0000ff;" x="492.32171875" xlink:href="#ma863898617" y="444.539773881"/>
     <use style="fill:#0000ff;" x="496.78571875" xlink:href="#ma863898617" y="449.772076195"/>
     <use style="fill:#0000ff;" x="501.24971875" xlink:href="#ma863898617" y="453.023159549"/>
     <use style="fill:#0000ff;" x="505.71371875" xlink:href="#ma863898617" y="458.672451803"/>
     <use style="fill:#0000ff;" x="510.17771875" xlink:href="#ma863898617" y="465.294009155"/>
     <use style="fill:#0000ff;" x="514.64171875" xlink:href="#ma863898617" y="470.776439527"/>
     <use style="fill:#0000ff;" x="519.10571875" xlink:href="#ma863898617" y="474.238994372"/>
     <use style="fill:#0000ff;" x="523.56971875" xlink:href="#ma863898617" y="481.240336418"/>
     <use style="fill:#0000ff;" x="528.03371875" xlink:href="#ma863898617" y="491.896569439"/>
     <use style="fill:#0000ff;" x="532.49771875" xlink:href="#ma863898617" y="503.478080455"/>
    </g>
   </g>
   <g id="patch_3">
    <path d="M 90.561719 72.348 
L 536.961719 72.348 
" style="fill:none;"/>
   </g>
   <g id="patch_4">
    <path d="M 536.961719 518.748 
L 536.961719 72.348 
" style="fill:none;"/>
   </g>
   <g id="patch_5">
    <path d="M 90.561719 518.748 
L 536.961719 518.748 
" style="fill:none;"/>
   </g>
   <g id="patch_6">
    <path d="M 90.561719 518.748 
L 90.561719 72.348 
" style="fill:none;"/>
   </g>
   <g id="text_18">
    <!-- 100 (sorted) GUE eigenvalues -->
    <defs>
     <path d="M 34.28125 27.484375 
Q 23.390625 27.484375 19.1875 25 
Q 14.984375 22.515625 14.984375 16.5 
Q 14.984375 11.71875 18.140625 8.90625 
Q 21.296875 6.109375 26.703125 6.109375 
Q 34.1875 6.109375 38.703125 11.40625 
Q 43.21875 16.703125 43.21875 25.484375 
L 43.21875 27.484375 
z
M 52.203125 31.203125 
L 52.203125 0 
L 43.21875 0 
L 43.21875 8.296875 
Q 40.140625 3.328125 35.546875 0.953125 
Q 30.953125 -1.421875 24.3125 -1.421875 
Q 15.921875 -1.421875 10.953125 3.296875 
Q 6 8.015625 6 15.921875 
Q 6 25.140625 12.171875 29.828125 
Q 18.359375 34.515625 30.609375 34.515625 
L 43.21875 34.515625 
L 43.21875 35.40625 
Q 43.21875 41.609375 39.140625 45 
Q 35.0625 48.390625 27.6875 48.390625 
Q 23 48.390625 18.546875 47.265625 
Q 14.109375 46.140625 10.015625 43.890625 
L 10.015625 52.203125 
Q 14.9375 54.109375 19.578125 55.046875 
Q 24.21875 56 28.609375 56 
Q 40.484375 56 46.34375 49.84375 
Q 52.203125 43.703125 52.203125 31.203125 
" id="BitstreamVeraSans-Roman-61"/>
     <path d="M 8.015625 75.875 
L 15.828125 75.875 
Q 23.140625 64.359375 26.78125 53.3125 
Q 30.421875 42.28125 30.421875 31.390625 
Q 30.421875 20.453125 26.78125 9.375 
Q 23.140625 -1.703125 15.828125 -13.1875 
L 8.015625 -13.1875 
Q 14.5 -2 17.703125 9.0625 
Q 20.90625 20.125 20.90625 31.390625 
Q 20.90625 42.671875 17.703125 53.65625 
Q 14.5 64.65625 8.015625 75.875 
" id="BitstreamVeraSans-Roman-29"/>
     <path d="M 31 75.875 
Q 24.46875 64.65625 21.28125 53.65625 
Q 18.109375 42.671875 18.109375 31.390625 
Q 18.109375 20.125 21.3125 9.0625 
Q 24.515625 -2 31 -13.1875 
L 23.1875 -13.1875 
Q 15.875 -1.703125 12.234375 9.375 
Q 8.59375 20.453125 8.59375 31.390625 
Q 8.59375 42.28125 12.203125 53.3125 
Q 15.828125 64.359375 23.1875 75.875 
z
" id="BitstreamVeraSans-Roman-28"/>
     <path d="M 30.609375 48.390625 
Q 23.390625 48.390625 19.1875 42.75 
Q 14.984375 37.109375 14.984375 27.296875 
Q 14.984375 17.484375 19.15625 11.84375 
Q 23.34375 6.203125 30.609375 6.203125 
Q 37.796875 6.203125 41.984375 11.859375 
Q 46.1875 17.53125 46.1875 27.296875 
Q 46.1875 37.015625 41.984375 42.703125 
Q 37.796875 48.390625 30.609375 48.390625 
M 30.609375 56 
Q 42.328125 56 49.015625 48.375 
Q 55.71875 40.765625 55.71875 27.296875 
Q 55.71875 13.875 49.015625 6.21875 
Q 42.328125 -1.421875 30.609375 -1.421875 
Q 18.84375 -1.421875 12.171875 6.21875 
Q 5.515625 13.875 5.515625 27.296875 
Q 5.515625 40.765625 12.171875 48.375 
Q 18.84375 56 30.609375 56 
" id="BitstreamVeraSans-Roman-6f"/>
     <path d="M 9.421875 75.984375 
L 18.40625 75.984375 
L 18.40625 0 
L 9.421875 0 
z
" id="BitstreamVeraSans-Roman-6c"/>
     <path d="M 59.515625 10.40625 
L 59.515625 29.984375 
L 43.40625 29.984375 
L 43.40625 38.09375 
L 69.28125 38.09375 
L 69.28125 6.78125 
Q 63.578125 2.734375 56.6875 0.65625 
Q 49.8125 -1.421875 42 -1.421875 
Q 24.90625 -1.421875 15.25 8.5625 
Q 5.609375 18.5625 5.609375 36.375 
Q 5.609375 54.25 15.25 64.234375 
Q 24.90625 74.21875 42 74.21875 
Q 49.125 74.21875 55.546875 72.453125 
Q 61.96875 70.703125 67.390625 67.28125 
L 67.390625 56.78125 
Q 61.921875 61.421875 55.765625 63.765625 
Q 49.609375 66.109375 42.828125 66.109375 
Q 29.4375 66.109375 22.71875 58.640625 
Q 16.015625 51.171875 16.015625 36.375 
Q 16.015625 21.625 22.71875 14.15625 
Q 29.4375 6.6875 42.828125 6.6875 
Q 48.046875 6.6875 52.140625 7.59375 
Q 56.25 8.5 59.515625 10.40625 
" id="BitstreamVeraSans-Roman-47"/>
     <path d="M 9.8125 72.90625 
L 55.90625 72.90625 
L 55.90625 64.59375 
L 19.671875 64.59375 
L 19.671875 43.015625 
L 54.390625 43.015625 
L 54.390625 34.71875 
L 19.671875 34.71875 
L 19.671875 8.296875 
L 56.78125 8.296875 
L 56.78125 0 
L 9.8125 0 
z
" id="BitstreamVeraSans-Roman-45"/>
     <path d="M 9.421875 54.6875 
L 18.40625 54.6875 
L 18.40625 0 
L 9.421875 0 
z
M 9.421875 75.984375 
L 18.40625 75.984375 
L 18.40625 64.59375 
L 9.421875 64.59375 
z
" id="BitstreamVeraSans-Roman-69"/>
     <path d="M 8.6875 72.90625 
L 18.609375 72.90625 
L 18.609375 28.609375 
Q 18.609375 16.890625 22.84375 11.734375 
Q 27.09375 6.59375 36.625 6.59375 
Q 46.09375 6.59375 50.34375 11.734375 
Q 54.59375 16.890625 54.59375 28.609375 
L 54.59375 72.90625 
L 64.5 72.90625 
L 64.5 27.390625 
Q 64.5 13.140625 57.4375 5.859375 
Q 50.390625 -1.421875 36.625 -1.421875 
Q 22.796875 -1.421875 15.734375 5.859375 
Q 8.6875 13.140625 8.6875 27.390625 
z
" id="BitstreamVeraSans-Roman-55"/>
     <path d="M 2.984375 54.6875 
L 12.5 54.6875 
L 29.59375 8.796875 
L 46.6875 54.6875 
L 56.203125 54.6875 
L 35.6875 0 
L 23.484375 0 
z
" id="BitstreamVeraSans-Roman-76"/>
     <path d="M 18.3125 70.21875 
L 18.3125 54.6875 
L 36.8125 54.6875 
L 36.8125 47.703125 
L 18.3125 47.703125 
L 18.3125 18.015625 
Q 18.3125 11.328125 20.140625 9.421875 
Q 21.96875 7.515625 27.59375 7.515625 
L 36.8125 7.515625 
L 36.8125 0 
L 27.59375 0 
Q 17.1875 0 13.234375 3.875 
Q 9.28125 7.765625 9.28125 18.015625 
L 9.28125 47.703125 
L 2.6875 47.703125 
L 2.6875 54.6875 
L 9.28125 54.6875 
L 9.28125 70.21875 
z
" id="BitstreamVeraSans-Roman-74"/>
     <path d="M 8.5 21.578125 
L 8.5 54.6875 
L 17.484375 54.6875 
L 17.484375 21.921875 
Q 17.484375 14.15625 20.5 10.265625 
Q 23.53125 6.390625 29.59375 6.390625 
Q 36.859375 6.390625 41.078125 11.03125 
Q 45.3125 15.671875 45.3125 23.6875 
L 45.3125 54.6875 
L 54.296875 54.6875 
L 54.296875 0 
L 45.3125 0 
L 45.3125 8.40625 
Q 42.046875 3.421875 37.71875 1 
Q 33.40625 -1.421875 27.6875 -1.421875 
Q 18.265625 -1.421875 13.375 4.4375 
Q 8.5 10.296875 8.5 21.578125 
" id="BitstreamVeraSans-Roman-75"/>
     <path d="M 41.109375 46.296875 
Q 39.59375 47.171875 37.8125 47.578125 
Q 36.03125 48 33.890625 48 
Q 26.265625 48 22.1875 43.046875 
Q 18.109375 38.09375 18.109375 28.8125 
L 18.109375 0 
L 9.078125 0 
L 9.078125 54.6875 
L 18.109375 54.6875 
L 18.109375 46.1875 
Q 20.953125 51.171875 25.484375 53.578125 
Q 30.03125 56 36.53125 56 
Q 37.453125 56 38.578125 55.875 
Q 39.703125 55.765625 41.0625 55.515625 
z
" id="BitstreamVeraSans-Roman-72"/>
     <path d="M 44.28125 53.078125 
L 44.28125 44.578125 
Q 40.484375 46.53125 36.375 47.5 
Q 32.28125 48.484375 27.875 48.484375 
Q 21.1875 48.484375 17.84375 46.4375 
Q 14.5 44.390625 14.5 40.28125 
Q 14.5 37.15625 16.890625 35.375 
Q 19.28125 33.59375 26.515625 31.984375 
L 29.59375 31.296875 
Q 39.15625 29.25 43.1875 25.515625 
Q 47.21875 21.78125 47.21875 15.09375 
Q 47.21875 7.46875 41.1875 3.015625 
Q 35.15625 -1.421875 24.609375 -1.421875 
Q 20.21875 -1.421875 15.453125 -0.5625 
Q 10.6875 0.296875 5.421875 2 
L 5.421875 11.28125 
Q 10.40625 8.6875 15.234375 7.390625 
Q 20.0625 6.109375 24.8125 6.109375 
Q 31.15625 6.109375 34.5625 8.28125 
Q 37.984375 10.453125 37.984375 14.40625 
Q 37.984375 18.0625 35.515625 20.015625 
Q 33.0625 21.96875 24.703125 23.78125 
L 21.578125 24.515625 
Q 13.234375 26.265625 9.515625 29.90625 
Q 5.8125 33.546875 5.8125 39.890625 
Q 5.8125 47.609375 11.28125 51.796875 
Q 16.75 56 26.8125 56 
Q 31.78125 56 36.171875 55.265625 
Q 40.578125 54.546875 44.28125 53.078125 
" id="BitstreamVeraSans-Roman-73"/>
     <path d="M 45.40625 27.984375 
Q 45.40625 37.75 41.375 43.109375 
Q 37.359375 48.484375 30.078125 48.484375 
Q 22.859375 48.484375 18.828125 43.109375 
Q 14.796875 37.75 14.796875 27.984375 
Q 14.796875 18.265625 18.828125 12.890625 
Q 22.859375 7.515625 30.078125 7.515625 
Q 37.359375 7.515625 41.375 12.890625 
Q 45.40625 18.265625 45.40625 27.984375 
M 54.390625 6.78125 
Q 54.390625 -7.171875 48.1875 -13.984375 
Q 42 -20.796875 29.203125 -20.796875 
Q 24.46875 -20.796875 20.265625 -20.09375 
Q 16.0625 -19.390625 12.109375 -17.921875 
L 12.109375 -9.1875 
Q 16.0625 -11.328125 19.921875 -12.34375 
Q 23.78125 -13.375 27.78125 -13.375 
Q 36.625 -13.375 41.015625 -8.765625 
Q 45.40625 -4.15625 45.40625 5.171875 
L 45.40625 9.625 
Q 42.625 4.78125 38.28125 2.390625 
Q 33.9375 0 27.875 0 
Q 17.828125 0 11.671875 7.65625 
Q 5.515625 15.328125 5.515625 27.984375 
Q 5.515625 40.671875 11.671875 48.328125 
Q 17.828125 56 27.875 56 
Q 33.9375 56 38.28125 53.609375 
Q 42.625 51.21875 45.40625 46.390625 
L 45.40625 54.6875 
L 54.390625 54.6875 
z
" id="BitstreamVeraSans-Roman-67"/>
    </defs>
    <g style="fill:#262626;" transform="translate(73.81421875 67.348)scale(0.32 -0.32)">
     <use xlink:href="#BitstreamVeraSans-Roman-31"/>
     <use x="63.623046875" xlink:href="#BitstreamVeraSans-Roman-30"/>
     <use x="127.24609375" xlink:href="#BitstreamVeraSans-Roman-30"/>
     <use x="190.869140625" xlink:href="#BitstreamVeraSans-Roman-20"/>
     <use x="222.65625" xlink:href="#BitstreamVeraSans-Roman-28"/>
     <use x="261.669921875" xlink:href="#BitstreamVeraSans-Roman-73"/>
     <use x="313.76953125" xlink:href="#BitstreamVeraSans-Roman-6f"/>
     <use x="374.951171875" xlink:href="#BitstreamVeraSans-Roman-72"/>
     <use x="416.064453125" xlink:href="#BitstreamVeraSans-Roman-74"/>
     <use x="455.2734375" xlink:href="#BitstreamVeraSans-Roman-65"/>
     <use x="516.796875" xlink:href="#BitstreamVeraSans-Roman-64"/>
     <use x="580.2734375" xlink:href="#BitstreamVeraSans-Roman-29"/>
     <use x="619.287109375" xlink:href="#BitstreamVeraSans-Roman-20"/>
     <use x="651.07421875" xlink:href="#BitstreamVeraSans-Roman-47"/>
     <use x="728.564453125" xlink:href="#BitstreamVeraSans-Roman-55"/>
     <use x="801.7578125" xlink:href="#BitstreamVeraSans-Roman-45"/>
     <use x="864.94140625" xlink:href="#BitstreamVeraSans-Roman-20"/>
     <use x="896.728515625" xlink:href="#BitstreamVeraSans-Roman-65"/>
     <use x="958.251953125" xlink:href="#BitstreamVeraSans-Roman-69"/>
     <use x="986.03515625" xlink:href="#BitstreamVeraSans-Roman-67"/>
     <use x="1049.51171875" xlink:href="#BitstreamVeraSans-Roman-65"/>
     <use x="1111.03515625" xlink:href="#BitstreamVeraSans-Roman-6e"/>
     <use x="1174.4140625" xlink:href="#BitstreamVeraSans-Roman-76"/>
     <use x="1233.59375" xlink:href="#BitstreamVeraSans-Roman-61"/>
     <use x="1294.87304688" xlink:href="#BitstreamVeraSans-Roman-6c"/>
     <use x="1322.65625" xlink:href="#BitstreamVeraSans-Roman-75"/>
     <use x="1386.03515625" xlink:href="#BitstreamVeraSans-Roman-65"/>
     <use x="1447.55859375" xlink:href="#BitstreamVeraSans-Roman-73"/>
    </g>
   </g>
  </g>
  <g id="axes_2">
   <g id="patch_7">
    <path d="M 648.561719 518.748 
L 1094.961719 518.748 
L 1094.961719 72.348 
L 648.561719 72.348 
z
" style="fill:#eaeaf2;"/>
   </g>
   <g id="matplotlib.axis_3">
    <g id="xtick_7">
     <g id="line2d_47">
      <path clip-path="url(#peea2d5ea86)" d="M 648.561719 518.748 
L 648.561719 72.348 
" style="fill:none;stroke:#ffffff;stroke-linecap:round;"/>
     </g>
     <g id="line2d_48">
      <g>
       <use style="fill:#262626;stroke:#262626;" x="648.56171875" xlink:href="#md43cd7c564" y="518.748"/>
      </g>
     </g>
     <g id="line2d_49">
      <g>
       <use style="fill:#262626;stroke:#262626;" x="648.56171875" xlink:href="#md43cd7c564" y="72.348"/>
      </g>
     </g>
     <g id="text_19">
      <!-- 0 -->
      <g style="fill:#262626;" transform="translate(640.60859375 544.74409375)scale(0.25 -0.25)">
       <use xlink:href="#BitstreamVeraSans-Roman-30"/>
      </g>
     </g>
    </g>
    <g id="xtick_8">
     <g id="line2d_50">
      <path clip-path="url(#peea2d5ea86)" d="M 737.841719 518.748 
L 737.841719 72.348 
" style="fill:none;stroke:#ffffff;stroke-linecap:round;"/>
     </g>
     <g id="line2d_51">
      <g>
       <use style="fill:#262626;stroke:#262626;" x="737.84171875" xlink:href="#md43cd7c564" y="518.748"/>
      </g>
     </g>
     <g id="line2d_52">
      <g>
       <use style="fill:#262626;stroke:#262626;" x="737.84171875" xlink:href="#md43cd7c564" y="72.348"/>
      </g>
     </g>
     <g id="text_20">
      <!-- 20 -->
      <g style="fill:#262626;" transform="translate(721.93546875 544.74409375)scale(0.25 -0.25)">
       <use xlink:href="#BitstreamVeraSans-Roman-32"/>
       <use x="63.623046875" xlink:href="#BitstreamVeraSans-Roman-30"/>
      </g>
     </g>
    </g>
    <g id="xtick_9">
     <g id="line2d_53">
      <path clip-path="url(#peea2d5ea86)" d="M 827.121719 518.748 
L 827.121719 72.348 
" style="fill:none;stroke:#ffffff;stroke-linecap:round;"/>
     </g>
     <g id="line2d_54">
      <g>
       <use style="fill:#262626;stroke:#262626;" x="827.12171875" xlink:href="#md43cd7c564" y="518.748"/>
      </g>
     </g>
     <g id="line2d_55">
      <g>
       <use style="fill:#262626;stroke:#262626;" x="827.12171875" xlink:href="#md43cd7c564" y="72.348"/>
      </g>
     </g>
     <g id="text_21">
      <!-- 40 -->
      <g style="fill:#262626;" transform="translate(811.21546875 544.74409375)scale(0.25 -0.25)">
       <use xlink:href="#BitstreamVeraSans-Roman-34"/>
       <use x="63.623046875" xlink:href="#BitstreamVeraSans-Roman-30"/>
      </g>
     </g>
    </g>
    <g id="xtick_10">
     <g id="line2d_56">
      <path clip-path="url(#peea2d5ea86)" d="M 916.401719 518.748 
L 916.401719 72.348 
" style="fill:none;stroke:#ffffff;stroke-linecap:round;"/>
     </g>
     <g id="line2d_57">
      <g>
       <use style="fill:#262626;stroke:#262626;" x="916.40171875" xlink:href="#md43cd7c564" y="518.748"/>
      </g>
     </g>
     <g id="line2d_58">
      <g>
       <use style="fill:#262626;stroke:#262626;" x="916.40171875" xlink:href="#md43cd7c564" y="72.348"/>
      </g>
     </g>
     <g id="text_22">
      <!-- 60 -->
      <g style="fill:#262626;" transform="translate(900.49546875 544.74409375)scale(0.25 -0.25)">
       <use xlink:href="#BitstreamVeraSans-Roman-36"/>
       <use x="63.623046875" xlink:href="#BitstreamVeraSans-Roman-30"/>
      </g>
     </g>
    </g>
    <g id="xtick_11">
     <g id="line2d_59">
      <path clip-path="url(#peea2d5ea86)" d="M 1005.681719 518.748 
L 1005.681719 72.348 
" style="fill:none;stroke:#ffffff;stroke-linecap:round;"/>
     </g>
     <g id="line2d_60">
      <g>
       <use style="fill:#262626;stroke:#262626;" x="1005.68171875" xlink:href="#md43cd7c564" y="518.748"/>
      </g>
     </g>
     <g id="line2d_61">
      <g>
       <use style="fill:#262626;stroke:#262626;" x="1005.68171875" xlink:href="#md43cd7c564" y="72.348"/>
      </g>
     </g>
     <g id="text_23">
      <!-- 80 -->
      <g style="fill:#262626;" transform="translate(989.77546875 544.74409375)scale(0.25 -0.25)">
       <use xlink:href="#BitstreamVeraSans-Roman-38"/>
       <use x="63.623046875" xlink:href="#BitstreamVeraSans-Roman-30"/>
      </g>
     </g>
    </g>
    <g id="xtick_12">
     <g id="line2d_62">
      <path clip-path="url(#peea2d5ea86)" d="M 1094.961719 518.748 
L 1094.961719 72.348 
" style="fill:none;stroke:#ffffff;stroke-linecap:round;"/>
     </g>
     <g id="line2d_63">
      <g>
       <use style="fill:#262626;stroke:#262626;" x="1094.96171875" xlink:href="#md43cd7c564" y="518.748"/>
      </g>
     </g>
     <g id="line2d_64">
      <g>
       <use style="fill:#262626;stroke:#262626;" x="1094.96171875" xlink:href="#md43cd7c564" y="72.348"/>
      </g>
     </g>
     <g id="text_24">
      <!-- 100 -->
      <g style="fill:#262626;" transform="translate(1071.10234375 544.74409375)scale(0.25 -0.25)">
       <use xlink:href="#BitstreamVeraSans-Roman-31"/>
       <use x="63.623046875" xlink:href="#BitstreamVeraSans-Roman-30"/>
       <use x="127.24609375" xlink:href="#BitstreamVeraSans-Roman-30"/>
      </g>
     </g>
    </g>
    <g id="text_25">
     <!-- Index $j$ -->
     <g style="fill:#262626;" transform="translate(801.76171875 585.3433125)scale(0.4 -0.4)">
      <use transform="translate(0.0 0.015625)" xlink:href="#BitstreamVeraSans-Roman-49"/>
      <use transform="translate(29.4921875 0.015625)" xlink:href="#BitstreamVeraSans-Roman-6e"/>
      <use transform="translate(92.87109375 0.015625)" xlink:href="#BitstreamVeraSans-Roman-64"/>
      <use transform="translate(156.34765625 0.015625)" xlink:href="#BitstreamVeraSans-Roman-65"/>
      <use transform="translate(217.87109375 0.015625)" xlink:href="#BitstreamVeraSans-Roman-78"/>
      <use transform="translate(277.05078125 0.015625)" xlink:href="#BitstreamVeraSans-Roman-20"/>
      <use transform="translate(308.837890625 0.015625)" xlink:href="#Cmmi10-6a"/>
     </g>
    </g>
   </g>
   <g id="matplotlib.axis_4">
    <g id="ytick_10">
     <g id="line2d_65">
      <path clip-path="url(#peea2d5ea86)" d="M 648.561719 518.748 
L 1094.961719 518.748 
" style="fill:none;stroke:#ffffff;stroke-linecap:round;"/>
     </g>
     <g id="line2d_66">
      <g>
       <use style="fill:#262626;stroke:#262626;" x="648.56171875" xlink:href="#md43cd7c564" y="518.748"/>
      </g>
     </g>
     <g id="line2d_67">
      <g>
       <use style="fill:#262626;stroke:#262626;" x="1094.96171875" xlink:href="#md43cd7c564" y="518.748"/>
      </g>
     </g>
     <g id="text_26">
      <!-- −20 -->
      <g style="fill:#262626;" transform="translate(588.8 525.6464375)scale(0.25 -0.25)">
       <use xlink:href="#BitstreamVeraSans-Roman-2212"/>
       <use x="83.7890625" xlink:href="#BitstreamVeraSans-Roman-32"/>
       <use x="147.412109375" xlink:href="#BitstreamVeraSans-Roman-30"/>
      </g>
     </g>
    </g>
    <g id="ytick_11">
     <g id="line2d_68">
      <path clip-path="url(#peea2d5ea86)" d="M 648.561719 462.948 
L 1094.961719 462.948 
" style="fill:none;stroke:#ffffff;stroke-linecap:round;"/>
     </g>
     <g id="line2d_69">
      <g>
       <use style="fill:#262626;stroke:#262626;" x="648.56171875" xlink:href="#md43cd7c564" y="462.948"/>
      </g>
     </g>
     <g id="line2d_70">
      <g>
       <use style="fill:#262626;stroke:#262626;" x="1094.96171875" xlink:href="#md43cd7c564" y="462.948"/>
      </g>
     </g>
     <g id="text_27">
      <!-- −15 -->
      <g style="fill:#262626;" transform="translate(588.8 469.8464375)scale(0.25 -0.25)">
       <use xlink:href="#BitstreamVeraSans-Roman-2212"/>
       <use x="83.7890625" xlink:href="#BitstreamVeraSans-Roman-31"/>
       <use x="147.412109375" xlink:href="#BitstreamVeraSans-Roman-35"/>
      </g>
     </g>
    </g>
    <g id="ytick_12">
     <g id="line2d_71">
      <path clip-path="url(#peea2d5ea86)" d="M 648.561719 407.148 
L 1094.961719 407.148 
" style="fill:none;stroke:#ffffff;stroke-linecap:round;"/>
     </g>
     <g id="line2d_72">
      <g>
       <use style="fill:#262626;stroke:#262626;" x="648.56171875" xlink:href="#md43cd7c564" y="407.148"/>
      </g>
     </g>
     <g id="line2d_73">
      <g>
       <use style="fill:#262626;stroke:#262626;" x="1094.96171875" xlink:href="#md43cd7c564" y="407.148"/>
      </g>
     </g>
     <g id="text_28">
      <!-- −10 -->
      <g style="fill:#262626;" transform="translate(588.8 414.0464375)scale(0.25 -0.25)">
       <use xlink:href="#BitstreamVeraSans-Roman-2212"/>
       <use x="83.7890625" xlink:href="#BitstreamVeraSans-Roman-31"/>
       <use x="147.412109375" xlink:href="#BitstreamVeraSans-Roman-30"/>
      </g>
     </g>
    </g>
    <g id="ytick_13">
     <g id="line2d_74">
      <path clip-path="url(#peea2d5ea86)" d="M 648.561719 351.348 
L 1094.961719 351.348 
" style="fill:none;stroke:#ffffff;stroke-linecap:round;"/>
     </g>
     <g id="line2d_75">
      <g>
       <use style="fill:#262626;stroke:#262626;" x="648.56171875" xlink:href="#md43cd7c564" y="351.348"/>
      </g>
     </g>
     <g id="line2d_76">
      <g>
       <use style="fill:#262626;stroke:#262626;" x="1094.96171875" xlink:href="#md43cd7c564" y="351.348"/>
      </g>
     </g>
     <g id="text_29">
      <!-- −5 -->
      <g style="fill:#262626;" transform="translate(604.70625 358.2464375)scale(0.25 -0.25)">
       <use xlink:href="#BitstreamVeraSans-Roman-2212"/>
       <use x="83.7890625" xlink:href="#BitstreamVeraSans-Roman-35"/>
      </g>
     </g>
    </g>
    <g id="ytick_14">
     <g id="line2d_77">
      <path clip-path="url(#peea2d5ea86)" d="M 648.561719 295.548 
L 1094.961719 295.548 
" style="fill:none;stroke:#ffffff;stroke-linecap:round;"/>
     </g>
     <g id="line2d_78">
      <g>
       <use style="fill:#262626;stroke:#262626;" x="648.56171875" xlink:href="#md43cd7c564" y="295.548"/>
      </g>
     </g>
     <g id="line2d_79">
      <g>
       <use style="fill:#262626;stroke:#262626;" x="1094.96171875" xlink:href="#md43cd7c564" y="295.548"/>
      </g>
     </g>
     <g id="text_30">
      <!-- 0 -->
      <g style="fill:#262626;" transform="translate(625.65546875 302.4464375)scale(0.25 -0.25)">
       <use xlink:href="#BitstreamVeraSans-Roman-30"/>
      </g>
     </g>
    </g>
    <g id="ytick_15">
     <g id="line2d_80">
      <path clip-path="url(#peea2d5ea86)" d="M 648.561719 239.748 
L 1094.961719 239.748 
" style="fill:none;stroke:#ffffff;stroke-linecap:round;"/>
     </g>
     <g id="line2d_81">
      <g>
       <use style="fill:#262626;stroke:#262626;" x="648.56171875" xlink:href="#md43cd7c564" y="239.748"/>
      </g>
     </g>
     <g id="line2d_82">
      <g>
       <use style="fill:#262626;stroke:#262626;" x="1094.96171875" xlink:href="#md43cd7c564" y="239.748"/>
      </g>
     </g>
     <g id="text_31">
      <!-- 5 -->
      <g style="fill:#262626;" transform="translate(625.65546875 246.6464375)scale(0.25 -0.25)">
       <use xlink:href="#BitstreamVeraSans-Roman-35"/>
      </g>
     </g>
    </g>
    <g id="ytick_16">
     <g id="line2d_83">
      <path clip-path="url(#peea2d5ea86)" d="M 648.561719 183.948 
L 1094.961719 183.948 
" style="fill:none;stroke:#ffffff;stroke-linecap:round;"/>
     </g>
     <g id="line2d_84">
      <g>
       <use style="fill:#262626;stroke:#262626;" x="648.56171875" xlink:href="#md43cd7c564" y="183.948"/>
      </g>
     </g>
     <g id="line2d_85">
      <g>
       <use style="fill:#262626;stroke:#262626;" x="1094.96171875" xlink:href="#md43cd7c564" y="183.948"/>
      </g>
     </g>
     <g id="text_32">
      <!-- 10 -->
      <g style="fill:#262626;" transform="translate(609.74921875 190.8464375)scale(0.25 -0.25)">
       <use xlink:href="#BitstreamVeraSans-Roman-31"/>
       <use x="63.623046875" xlink:href="#BitstreamVeraSans-Roman-30"/>
      </g>
     </g>
    </g>
    <g id="ytick_17">
     <g id="line2d_86">
      <path clip-path="url(#peea2d5ea86)" d="M 648.561719 128.148 
L 1094.961719 128.148 
" style="fill:none;stroke:#ffffff;stroke-linecap:round;"/>
     </g>
     <g id="line2d_87">
      <g>
       <use style="fill:#262626;stroke:#262626;" x="648.56171875" xlink:href="#md43cd7c564" y="128.148"/>
      </g>
     </g>
     <g id="line2d_88">
      <g>
       <use style="fill:#262626;stroke:#262626;" x="1094.96171875" xlink:href="#md43cd7c564" y="128.148"/>
      </g>
     </g>
     <g id="text_33">
      <!-- 15 -->
      <g style="fill:#262626;" transform="translate(609.74921875 135.0464375)scale(0.25 -0.25)">
       <use xlink:href="#BitstreamVeraSans-Roman-31"/>
       <use x="63.623046875" xlink:href="#BitstreamVeraSans-Roman-35"/>
      </g>
     </g>
    </g>
    <g id="ytick_18">
     <g id="line2d_89">
      <path clip-path="url(#peea2d5ea86)" d="M 648.561719 72.348 
L 1094.961719 72.348 
" style="fill:none;stroke:#ffffff;stroke-linecap:round;"/>
     </g>
     <g id="line2d_90">
      <g>
       <use style="fill:#262626;stroke:#262626;" x="648.56171875" xlink:href="#md43cd7c564" y="72.348"/>
      </g>
     </g>
     <g id="line2d_91">
      <g>
       <use style="fill:#262626;stroke:#262626;" x="1094.96171875" xlink:href="#md43cd7c564" y="72.348"/>
      </g>
     </g>
     <g id="text_34">
      <!-- 20 -->
      <g style="fill:#262626;" transform="translate(609.74921875 79.2464375)scale(0.25 -0.25)">
       <use xlink:href="#BitstreamVeraSans-Roman-32"/>
       <use x="63.623046875" xlink:href="#BitstreamVeraSans-Roman-30"/>
      </g>
     </g>
    </g>
    <g id="text_35">
     <!-- $\bar{\kappa}_{j}$ -->
     <defs>
      <path d="M 6.890625 55.515625 
L 6.890625 58.984375 
L 43.015625 58.984375 
L 43.015625 55.515625 
z
" id="Cmr10-b9"/>
     </defs>
     <g style="fill:#262626;" transform="translate(564.2 282.748)scale(0.4 -0.4)">
      <use transform="translate(11.513671875 2.015625)" xlink:href="#Cmr10-b9"/>
      <use transform="translate(0.0 0.84375)" xlink:href="#Cmmi10-2219"/>
      <use transform="translate(62.081328125 -16.1625)scale(0.7)" xlink:href="#Cmmi10-6a"/>
     </g>
    </g>
   </g>
   <g id="line2d_92">
    <g>
     <use style="fill:#0000ff;" x="648.56171875" xlink:href="#ma863898617" y="82.8052402239"/>
     <use style="fill:#0000ff;" x="653.02571875" xlink:href="#ma863898617" y="91.8903064644"/>
     <use style="fill:#0000ff;" x="657.48971875" xlink:href="#ma863898617" y="99.4941115338"/>
     <use style="fill:#0000ff;" x="661.95371875" xlink:href="#ma863898617" y="106.432077552"/>
     <use style="fill:#0000ff;" x="666.41771875" xlink:href="#ma863898617" y="112.878438863"/>
     <use style="fill:#0000ff;" x="670.88171875" xlink:href="#ma863898617" y="118.578726435"/>
     <use style="fill:#0000ff;" x="675.34571875" xlink:href="#ma863898617" y="124.210783042"/>
     <use style="fill:#0000ff;" x="679.80971875" xlink:href="#ma863898617" y="129.801681445"/>
     <use style="fill:#0000ff;" x="684.27371875" xlink:href="#ma863898617" y="135.048904906"/>
     <use style="fill:#0000ff;" x="688.73771875" xlink:href="#ma863898617" y="139.853790065"/>
     <use style="fill:#0000ff;" x="693.20171875" xlink:href="#ma863898617" y="144.697280818"/>
     <use style="fill:#0000ff;" x="697.66571875" xlink:href="#ma863898617" y="149.223876288"/>
     <use style="fill:#0000ff;" x="702.12971875" xlink:href="#ma863898617" y="153.760562108"/>
     <use style="fill:#0000ff;" x="706.59371875" xlink:href="#ma863898617" y="158.195040118"/>
     <use style="fill:#0000ff;" x="711.05771875" xlink:href="#ma863898617" y="162.626168353"/>
     <use style="fill:#0000ff;" x="715.52171875" xlink:href="#ma863898617" y="167.147493498"/>
     <use style="fill:#0000ff;" x="719.98571875" xlink:href="#ma863898617" y="171.586849508"/>
     <use style="fill:#0000ff;" x="724.44971875" xlink:href="#ma863898617" y="175.646599074"/>
     <use style="fill:#0000ff;" x="728.91371875" xlink:href="#ma863898617" y="179.883996576"/>
     <use style="fill:#0000ff;" x="733.37771875" xlink:href="#ma863898617" y="184.080124081"/>
     <use style="fill:#0000ff;" x="737.84171875" xlink:href="#ma863898617" y="187.942324315"/>
     <use style="fill:#0000ff;" x="742.30571875" xlink:href="#ma863898617" y="192.011099381"/>
     <use style="fill:#0000ff;" x="746.76971875" xlink:href="#ma863898617" y="195.784620322"/>
     <use style="fill:#0000ff;" x="751.23371875" xlink:href="#ma863898617" y="199.626136036"/>
     <use style="fill:#0000ff;" x="755.69771875" xlink:href="#ma863898617" y="203.373402277"/>
     <use style="fill:#0000ff;" x="760.16171875" xlink:href="#ma863898617" y="207.34140703"/>
     <use style="fill:#0000ff;" x="764.62571875" xlink:href="#ma863898617" y="211.034532143"/>
     <use style="fill:#0000ff;" x="769.08971875" xlink:href="#ma863898617" y="214.9066773"/>
     <use style="fill:#0000ff;" x="773.55371875" xlink:href="#ma863898617" y="218.5946634"/>
     <use style="fill:#0000ff;" x="778.01771875" xlink:href="#ma863898617" y="222.142509578"/>
     <use style="fill:#0000ff;" x="782.48171875" xlink:href="#ma863898617" y="225.91352852"/>
     <use style="fill:#0000ff;" x="786.94571875" xlink:href="#ma863898617" y="229.688677798"/>
     <use style="fill:#0000ff;" x="791.40971875" xlink:href="#ma863898617" y="233.652332465"/>
     <use style="fill:#0000ff;" x="795.87371875" xlink:href="#ma863898617" y="237.134719964"/>
     <use style="fill:#0000ff;" x="800.33771875" xlink:href="#ma863898617" y="240.614449203"/>
     <use style="fill:#0000ff;" x="804.80171875" xlink:href="#ma863898617" y="244.185936303"/>
     <use style="fill:#0000ff;" x="809.26571875" xlink:href="#ma863898617" y="247.575596214"/>
     <use style="fill:#0000ff;" x="813.72971875" xlink:href="#ma863898617" y="251.061731423"/>
     <use style="fill:#0000ff;" x="818.19371875" xlink:href="#ma863898617" y="254.879633374"/>
     <use style="fill:#0000ff;" x="822.65771875" xlink:href="#ma863898617" y="258.578107252"/>
     <use style="fill:#0000ff;" x="827.12171875" xlink:href="#ma863898617" y="262.192817475"/>
     <use style="fill:#0000ff;" x="831.58571875" xlink:href="#ma863898617" y="265.721611929"/>
     <use style="fill:#0000ff;" x="836.04971875" xlink:href="#ma863898617" y="269.229822692"/>
     <use style="fill:#0000ff;" x="840.51371875" xlink:href="#ma863898617" y="272.679927874"/>
     <use style="fill:#0000ff;" x="844.97771875" xlink:href="#ma863898617" y="276.030333889"/>
     <use style="fill:#0000ff;" x="849.44171875" xlink:href="#ma863898617" y="279.647620153"/>
     <use style="fill:#0000ff;" x="853.90571875" xlink:href="#ma863898617" y="283.079942965"/>
     <use style="fill:#0000ff;" x="858.36971875" xlink:href="#ma863898617" y="286.6929064"/>
     <use style="fill:#0000ff;" x="862.83371875" xlink:href="#ma863898617" y="290.109826422"/>
     <use style="fill:#0000ff;" x="867.29771875" xlink:href="#ma863898617" y="293.684050431"/>
     <use style="fill:#0000ff;" x="871.76171875" xlink:href="#ma863898617" y="297.28019041"/>
     <use style="fill:#0000ff;" x="876.22571875" xlink:href="#ma863898617" y="300.592615403"/>
     <use style="fill:#0000ff;" x="880.68971875" xlink:href="#ma863898617" y="304.318609865"/>
     <use style="fill:#0000ff;" x="885.15371875" xlink:href="#ma863898617" y="307.698625912"/>
     <use style="fill:#0000ff;" x="889.61771875" xlink:href="#ma863898617" y="311.306008528"/>
     <use style="fill:#0000ff;" x="894.08171875" xlink:href="#ma863898617" y="314.786845484"/>
     <use style="fill:#0000ff;" x="898.54571875" xlink:href="#ma863898617" y="318.358078746"/>
     <use style="fill:#0000ff;" x="903.00971875" xlink:href="#ma863898617" y="321.892528415"/>
     <use style="fill:#0000ff;" x="907.47371875" xlink:href="#ma863898617" y="325.46110933"/>
     <use style="fill:#0000ff;" x="911.93771875" xlink:href="#ma863898617" y="328.946909375"/>
     <use style="fill:#0000ff;" x="916.40171875" xlink:href="#ma863898617" y="332.533565651"/>
     <use style="fill:#0000ff;" x="920.86571875" xlink:href="#ma863898617" y="336.08521187"/>
     <use style="fill:#0000ff;" x="925.32971875" xlink:href="#ma863898617" y="339.283191385"/>
     <use style="fill:#0000ff;" x="929.79371875" xlink:href="#ma863898617" y="343.211891858"/>
     <use style="fill:#0000ff;" x="934.25771875" xlink:href="#ma863898617" y="346.873809054"/>
     <use style="fill:#0000ff;" x="938.72171875" xlink:href="#ma863898617" y="350.628483062"/>
     <use style="fill:#0000ff;" x="943.18571875" xlink:href="#ma863898617" y="354.11623051"/>
     <use style="fill:#0000ff;" x="947.64971875" xlink:href="#ma863898617" y="357.597340365"/>
     <use style="fill:#0000ff;" x="952.11371875" xlink:href="#ma863898617" y="361.115489959"/>
     <use style="fill:#0000ff;" x="956.57771875" xlink:href="#ma863898617" y="364.455815627"/>
     <use style="fill:#0000ff;" x="961.04171875" xlink:href="#ma863898617" y="368.314567261"/>
     <use style="fill:#0000ff;" x="965.50571875" xlink:href="#ma863898617" y="372.182715094"/>
     <use style="fill:#0000ff;" x="969.96971875" xlink:href="#ma863898617" y="376.017759951"/>
     <use style="fill:#0000ff;" x="974.43371875" xlink:href="#ma863898617" y="379.802070144"/>
     <use style="fill:#0000ff;" x="978.89771875" xlink:href="#ma863898617" y="383.705119244"/>
     <use style="fill:#0000ff;" x="983.36171875" xlink:href="#ma863898617" y="387.589211929"/>
     <use style="fill:#0000ff;" x="987.82571875" xlink:href="#ma863898617" y="391.333651724"/>
     <use style="fill:#0000ff;" x="992.28971875" xlink:href="#ma863898617" y="395.407492595"/>
     <use style="fill:#0000ff;" x="996.75371875" xlink:href="#ma863898617" y="399.228654938"/>
     <use style="fill:#0000ff;" x="1001.21771875" xlink:href="#ma863898617" y="403.224432616"/>
     <use style="fill:#0000ff;" x="1005.68171875" xlink:href="#ma863898617" y="406.95037857"/>
     <use style="fill:#0000ff;" x="1010.14571875" xlink:href="#ma863898617" y="411.251502185"/>
     <use style="fill:#0000ff;" x="1014.60971875" xlink:href="#ma863898617" y="415.485672741"/>
     <use style="fill:#0000ff;" x="1019.07371875" xlink:href="#ma863898617" y="419.530857922"/>
     <use style="fill:#0000ff;" x="1023.53771875" xlink:href="#ma863898617" y="424.021358558"/>
     <use style="fill:#0000ff;" x="1028.00171875" xlink:href="#ma863898617" y="427.910970351"/>
     <use style="fill:#0000ff;" x="1032.46571875" xlink:href="#ma863898617" y="432.405879387"/>
     <use style="fill:#0000ff;" x="1036.92971875" xlink:href="#ma863898617" y="437.396013233"/>
     <use style="fill:#0000ff;" x="1041.39371875" xlink:href="#ma863898617" y="441.969916312"/>
     <use style="fill:#0000ff;" x="1045.85771875" xlink:href="#ma863898617" y="446.44360004"/>
     <use style="fill:#0000ff;" x="1050.32171875" xlink:href="#ma863898617" y="451.377026758"/>
     <use style="fill:#0000ff;" x="1054.78571875" xlink:href="#ma863898617" y="456.308057779"/>
     <use style="fill:#0000ff;" x="1059.24971875" xlink:href="#ma863898617" y="461.581340265"/>
     <use style="fill:#0000ff;" x="1063.71371875" xlink:href="#ma863898617" y="466.768998385"/>
     <use style="fill:#0000ff;" x="1068.17771875" xlink:href="#ma863898617" y="472.527850023"/>
     <use style="fill:#0000ff;" x="1072.64171875" xlink:href="#ma863898617" y="478.144243606"/>
     <use style="fill:#0000ff;" x="1077.10571875" xlink:href="#ma863898617" y="484.554484408"/>
     <use style="fill:#0000ff;" x="1081.56971875" xlink:href="#ma863898617" y="491.574899712"/>
     <use style="fill:#0000ff;" x="1086.03371875" xlink:href="#ma863898617" y="498.932063834"/>
     <use style="fill:#0000ff;" x="1090.49771875" xlink:href="#ma863898617" y="508.970035238"/>
    </g>
   </g>
   <g id="patch_8">
    <path d="M 648.561719 72.348 
L 1094.961719 72.348 
" style="fill:none;"/>
   </g>
   <g id="patch_9">
    <path d="M 1094.961719 518.748 
L 1094.961719 72.348 
" style="fill:none;"/>
   </g>
   <g id="patch_10">
    <path d="M 648.561719 518.748 
L 1094.961719 518.748 
" style="fill:none;"/>
   </g>
   <g id="patch_11">
    <path d="M 648.561719 518.748 
L 648.561719 72.348 
" style="fill:none;"/>
   </g>
   <g id="text_36">
    <!-- Expected values of -->
    <defs>
     <path d="M 37.109375 75.984375 
L 37.109375 68.5 
L 28.515625 68.5 
Q 23.6875 68.5 21.796875 66.546875 
Q 19.921875 64.59375 19.921875 59.515625 
L 19.921875 54.6875 
L 34.71875 54.6875 
L 34.71875 47.703125 
L 19.921875 47.703125 
L 19.921875 0 
L 10.890625 0 
L 10.890625 47.703125 
L 2.296875 47.703125 
L 2.296875 54.6875 
L 10.890625 54.6875 
L 10.890625 58.5 
Q 10.890625 67.625 15.140625 71.796875 
Q 19.390625 75.984375 28.609375 75.984375 
z
" id="BitstreamVeraSans-Roman-66"/>
     <path d="M 48.78125 52.59375 
L 48.78125 44.1875 
Q 44.96875 46.296875 41.140625 47.34375 
Q 37.3125 48.390625 33.40625 48.390625 
Q 24.65625 48.390625 19.8125 42.84375 
Q 14.984375 37.3125 14.984375 27.296875 
Q 14.984375 17.28125 19.8125 11.734375 
Q 24.65625 6.203125 33.40625 6.203125 
Q 37.3125 6.203125 41.140625 7.25 
Q 44.96875 8.296875 48.78125 10.40625 
L 48.78125 2.09375 
Q 45.015625 0.34375 40.984375 -0.53125 
Q 36.96875 -1.421875 32.421875 -1.421875 
Q 20.0625 -1.421875 12.78125 6.34375 
Q 5.515625 14.109375 5.515625 27.296875 
Q 5.515625 40.671875 12.859375 48.328125 
Q 20.21875 56 33.015625 56 
Q 37.15625 56 41.109375 55.140625 
Q 45.0625 54.296875 48.78125 52.59375 
" id="BitstreamVeraSans-Roman-63"/>
     <path d="M 18.109375 8.203125 
L 18.109375 -20.796875 
L 9.078125 -20.796875 
L 9.078125 54.6875 
L 18.109375 54.6875 
L 18.109375 46.390625 
Q 20.953125 51.265625 25.265625 53.625 
Q 29.59375 56 35.59375 56 
Q 45.5625 56 51.78125 48.09375 
Q 58.015625 40.1875 58.015625 27.296875 
Q 58.015625 14.40625 51.78125 6.484375 
Q 45.5625 -1.421875 35.59375 -1.421875 
Q 29.59375 -1.421875 25.265625 0.953125 
Q 20.953125 3.328125 18.109375 8.203125 
M 48.6875 27.296875 
Q 48.6875 37.203125 44.609375 42.84375 
Q 40.53125 48.484375 33.40625 48.484375 
Q 26.265625 48.484375 22.1875 42.84375 
Q 18.109375 37.203125 18.109375 27.296875 
Q 18.109375 17.390625 22.1875 11.75 
Q 26.265625 6.109375 33.40625 6.109375 
Q 40.53125 6.109375 44.609375 11.75 
Q 48.6875 17.390625 48.6875 27.296875 
" id="BitstreamVeraSans-Roman-70"/>
    </defs>
    <g style="fill:#262626;" transform="translate(719.47421875 31.515)scale(0.32 -0.32)">
     <use xlink:href="#BitstreamVeraSans-Roman-45"/>
     <use x="63.18359375" xlink:href="#BitstreamVeraSans-Roman-78"/>
     <use x="122.36328125" xlink:href="#BitstreamVeraSans-Roman-70"/>
     <use x="185.83984375" xlink:href="#BitstreamVeraSans-Roman-65"/>
     <use x="247.36328125" xlink:href="#BitstreamVeraSans-Roman-63"/>
     <use x="302.34375" xlink:href="#BitstreamVeraSans-Roman-74"/>
     <use x="341.552734375" xlink:href="#BitstreamVeraSans-Roman-65"/>
     <use x="403.076171875" xlink:href="#BitstreamVeraSans-Roman-64"/>
     <use x="466.552734375" xlink:href="#BitstreamVeraSans-Roman-20"/>
     <use x="498.33984375" xlink:href="#BitstreamVeraSans-Roman-76"/>
     <use x="557.51953125" xlink:href="#BitstreamVeraSans-Roman-61"/>
     <use x="618.798828125" xlink:href="#BitstreamVeraSans-Roman-6c"/>
     <use x="646.58203125" xlink:href="#BitstreamVeraSans-Roman-75"/>
     <use x="709.9609375" xlink:href="#BitstreamVeraSans-Roman-65"/>
     <use x="771.484375" xlink:href="#BitstreamVeraSans-Roman-73"/>
     <use x="823.583984375" xlink:href="#BitstreamVeraSans-Roman-20"/>
     <use x="855.37109375" xlink:href="#BitstreamVeraSans-Roman-6f"/>
     <use x="916.552734375" xlink:href="#BitstreamVeraSans-Roman-66"/>
    </g>
    <!-- 100 (sorted) GUE eigenvalues -->
    <g style="fill:#262626;" transform="translate(631.81421875 67.348)scale(0.32 -0.32)">
     <use xlink:href="#BitstreamVeraSans-Roman-31"/>
     <use x="63.623046875" xlink:href="#BitstreamVeraSans-Roman-30"/>
     <use x="127.24609375" xlink:href="#BitstreamVeraSans-Roman-30"/>
     <use x="190.869140625" xlink:href="#BitstreamVeraSans-Roman-20"/>
     <use x="222.65625" xlink:href="#BitstreamVeraSans-Roman-28"/>
     <use x="261.669921875" xlink:href="#BitstreamVeraSans-Roman-73"/>
     <use x="313.76953125" xlink:href="#BitstreamVeraSans-Roman-6f"/>
     <use x="374.951171875" xlink:href="#BitstreamVeraSans-Roman-72"/>
     <use x="416.064453125" xlink:href="#BitstreamVeraSans-Roman-74"/>
     <use x="455.2734375" xlink:href="#BitstreamVeraSans-Roman-65"/>
     <use x="516.796875" xlink:href="#BitstreamVeraSans-Roman-64"/>
     <use x="580.2734375" xlink:href="#BitstreamVeraSans-Roman-29"/>
     <use x="619.287109375" xlink:href="#BitstreamVeraSans-Roman-20"/>
     <use x="651.07421875" xlink:href="#BitstreamVeraSans-Roman-47"/>
     <use x="728.564453125" xlink:href="#BitstreamVeraSans-Roman-55"/>
     <use x="801.7578125" xlink:href="#BitstreamVeraSans-Roman-45"/>
     <use x="864.94140625" xlink:href="#BitstreamVeraSans-Roman-20"/>
     <use x="896.728515625" xlink:href="#BitstreamVeraSans-Roman-65"/>
     <use x="958.251953125" xlink:href="#BitstreamVeraSans-Roman-69"/>
     <use x="986.03515625" xlink:href="#BitstreamVeraSans-Roman-67"/>
     <use x="1049.51171875" xlink:href="#BitstreamVeraSans-Roman-65"/>
     <use x="1111.03515625" xlink:href="#BitstreamVeraSans-Roman-6e"/>
     <use x="1174.4140625" xlink:href="#BitstreamVeraSans-Roman-76"/>
     <use x="1233.59375" xlink:href="#BitstreamVeraSans-Roman-61"/>
     <use x="1294.87304688" xlink:href="#BitstreamVeraSans-Roman-6c"/>
     <use x="1322.65625" xlink:href="#BitstreamVeraSans-Roman-75"/>
     <use x="1386.03515625" xlink:href="#BitstreamVeraSans-Roman-65"/>
     <use x="1447.55859375" xlink:href="#BitstreamVeraSans-Roman-73"/>
    </g>
   </g>
  </g>
 </g>
 <defs>
  <clipPath id="pff136443f1">
   <rect height="446.4" width="446.4" x="90.56171875" y="72.348"/>
  </clipPath>
  <clipPath id="peea2d5ea86">
   <rect height="446.4" width="446.4" x="648.56171875" y="72.348"/>
  </clipPath>
 </defs>
</svg>
