<?xml version="1.0" encoding="utf-8" standalone="no"?>
<!DOCTYPE svg PUBLIC "-//W3C//DTD SVG 1.1//EN"
  "http://www.w3.org/Graphics/SVG/1.1/DTD/svg11.dtd">
<!-- Created with matplotlib (http://matplotlib.org/) -->
<svg height="476pt" version="1.1" viewBox="0 0 826 476" width="826pt" xmlns="http://www.w3.org/2000/svg" xmlns:xlink="http://www.w3.org/1999/xlink">
 <defs>
  <style type="text/css">
*{stroke-linecap:butt;stroke-linejoin:round;stroke-miterlimit:100000;}
  </style>
 </defs>
 <g id="figure_1">
  <g id="patch_1">
   <path d="M 0 476.557758 
L 826.750374 476.557758 
L 826.750374 -0 
L 0 -0 
z
" style="fill:#ffffff;"/>
  </g>
  <g id="axes_1">
   <g id="patch_2">
    <path d="M 89.587734 414.414752 
L 809.587734 414.414752 
L 809.587734 36.414752 
L 89.587734 36.414752 
z
" style="fill:#eaeaf2;"/>
   </g>
   <g id="matplotlib.axis_1">
    <g id="xtick_1">
     <g id="line2d_1">
      <path clip-path="url(#p881d646de3)" d="M 89.587734 414.414752 
L 89.587734 36.414752 
" style="fill:none;stroke:#ffffff;stroke-linecap:round;stroke-width:0.8;"/>
     </g>
     <g id="line2d_2">
      <defs>
       <path d="M 0 0 
L 0 0 
" id="mb2586c5d16" style="stroke:#262626;stroke-width:0.8;"/>
      </defs>
      <g>
       <use style="fill:#262626;stroke:#262626;stroke-width:0.8;" x="89.5877341683" xlink:href="#mb2586c5d16" y="414.414751931"/>
      </g>
     </g>
     <g id="line2d_3">
      <g>
       <use style="fill:#262626;stroke:#262626;stroke-width:0.8;" x="89.5877341683" xlink:href="#mb2586c5d16" y="36.4147519312"/>
      </g>
     </g>
     <g id="text_1">
      <!-- $0$ -->
      <defs>
       <path d="M 26.296875 69 
C 10.796875 69 2.90625 56.6875 2.90625 32.453125 
C 2.90625 20.71875 5 10.625 8.5 5.71875 
C 12 0.796875 17.59375 -2 23.796875 -2 
C 38.90625 -2 46.5 11.015625 46.5 36.65625 
C 46.5 58.578125 40 69 26.296875 69 
M 24.5 65.5 
C 34.203125 65.5 38.09375 55.6875 38.09375 31.640625 
C 38.09375 10.328125 34.296875 1.5 25.09375 1.5 
C 15.40625 1.5 11.296875 11.625 11.296875 36.0625 
C 11.296875 57.1875 15 65.5 24.5 65.5 
" id="URW_Palladio_L_Roman-48"/>
      </defs>
      <g style="fill:#262626;" transform="translate(84.6064141184 433.851748691)scale(0.2 -0.2)">
       <use transform="scale(0.996264009963)" xlink:href="#URW_Palladio_L_Roman-48"/>
      </g>
     </g>
    </g>
    <g id="xtick_2">
     <g id="line2d_4">
      <path clip-path="url(#p881d646de3)" d="M 137.587734 414.414752 
L 137.587734 36.414752 
" style="fill:none;stroke:#ffffff;stroke-linecap:round;stroke-width:0.8;"/>
     </g>
     <g id="line2d_5">
      <g>
       <use style="fill:#262626;stroke:#262626;stroke-width:0.8;" x="137.587734168" xlink:href="#mb2586c5d16" y="414.414751931"/>
      </g>
     </g>
     <g id="line2d_6">
      <g>
       <use style="fill:#262626;stroke:#262626;stroke-width:0.8;" x="137.587734168" xlink:href="#mb2586c5d16" y="36.4147519312"/>
      </g>
     </g>
     <g id="text_2">
      <!-- $1$ -->
      <defs>
       <path d="M 6.703125 56 
L 7.703125 56 
L 20.59375 61.8125 
C 20.703125 61.90625 20.796875 61.90625 20.90625 61.90625 
C 21.5 61.90625 21.703125 61.015625 21.703125 58.609375 
L 21.703125 9.578125 
C 21.703125 4.3125 20.59375 3.203125 15.203125 3.203125 
L 9.59375 3.203125 
L 9.59375 0 
C 25 0 25 0 26.09375 0 
C 27.40625 0 29.59375 0 33 0 
C 34.203125 0 37.703125 0 41.796875 0 
L 41.796875 3.203125 
L 36.59375 3.203125 
C 31.09375 3.203125 30.09375 4.3125 30.09375 9.5625 
L 30.09375 69.421875 
L 28.703125 69.921875 
C 22.203125 66.515625 15.09375 63.515625 6 60.3125 
z
" id="URW_Palladio_L_Roman-49"/>
      </defs>
      <g style="fill:#262626;" transform="translate(132.606414118 433.851748691)scale(0.2 -0.2)">
       <use transform="scale(0.996264009963)" xlink:href="#URW_Palladio_L_Roman-49"/>
      </g>
     </g>
    </g>
    <g id="xtick_3">
     <g id="line2d_7">
      <path clip-path="url(#p881d646de3)" d="M 185.587734 414.414752 
L 185.587734 36.414752 
" style="fill:none;stroke:#ffffff;stroke-linecap:round;stroke-width:0.8;"/>
     </g>
     <g id="line2d_8">
      <g>
       <use style="fill:#262626;stroke:#262626;stroke-width:0.8;" x="185.587734168" xlink:href="#mb2586c5d16" y="414.414751931"/>
      </g>
     </g>
     <g id="line2d_9">
      <g>
       <use style="fill:#262626;stroke:#262626;stroke-width:0.8;" x="185.587734168" xlink:href="#mb2586c5d16" y="36.4147519312"/>
      </g>
     </g>
     <g id="text_3">
      <!-- $2$ -->
      <defs>
       <path d="M 1.59375 2.5 
L 1.59375 0 
C 20.296875 0 20.296875 0 23.90625 0 
C 27.5 0 27.5 0 46.796875 0 
C 46.59375 1.953125 46.59375 2.90625 46.59375 4.203125 
C 46.59375 5.4375 46.59375 6.359375 46.796875 8.421875 
C 35.296875 8.421875 30.703125 8.421875 12.203125 8.421875 
L 30.40625 27.515625 
C 40.09375 37.71875 43.09375 43.171875 43.09375 50.59375 
C 43.09375 61.96875 35.296875 69 22.59375 69 
C 15.40625 69 10.5 67 5.59375 62.015625 
L 3.90625 48.421875 
L 6.796875 48.421875 
L 8.09375 53.015625 
C 9.703125 58.796875 13.296875 61.296875 20 61.296875 
C 28.59375 61.296875 34.09375 55.890625 34.09375 47.421875 
C 34.09375 39.921875 29.90625 32.546875 18.59375 20.5625 
z
" id="URW_Palladio_L_Roman-50"/>
      </defs>
      <g style="fill:#262626;" transform="translate(180.606414118 433.851748691)scale(0.2 -0.2)">
       <use transform="scale(0.996264009963)" xlink:href="#URW_Palladio_L_Roman-50"/>
      </g>
     </g>
    </g>
    <g id="xtick_4">
     <g id="line2d_10">
      <path clip-path="url(#p881d646de3)" d="M 233.587734 414.414752 
L 233.587734 36.414752 
" style="fill:none;stroke:#ffffff;stroke-linecap:round;stroke-width:0.8;"/>
     </g>
     <g id="line2d_11">
      <g>
       <use style="fill:#262626;stroke:#262626;stroke-width:0.8;" x="233.587734168" xlink:href="#mb2586c5d16" y="414.414751931"/>
      </g>
     </g>
     <g id="line2d_12">
      <g>
       <use style="fill:#262626;stroke:#262626;stroke-width:0.8;" x="233.587734168" xlink:href="#mb2586c5d16" y="36.4147519312"/>
      </g>
     </g>
     <g id="text_4">
      <!-- $3$ -->
      <defs>
       <path d="M 4.296875 49.953125 
L 7.40625 49.953125 
L 9.203125 55.53125 
C 10.296875 58.90625 16.59375 62.296875 21.796875 62.296875 
C 28.296875 62.296875 33.59375 57.015625 33.59375 50.75 
C 33.59375 43.28125 27.703125 37 20.59375 37 
C 19.796875 37 18.703125 37 17.40625 37.203125 
L 15.90625 37.203125 
L 14.703125 31.984375 
L 15.40625 31.375 
C 19.203125 33.09375 21.09375 33.59375 23.796875 33.59375 
C 32.09375 33.59375 36.90625 28.265625 36.90625 19.09375 
C 36.90625 8.84375 30.796875 2.109375 21.5 2.109375 
C 16.90625 2.109375 12.796875 3.609375 9.796875 6.421875 
C 7.40625 8.640625 6.09375 10.953125 4.203125 16.390625 
L 1.5 15.390625 
C 3.59375 9.265625 4.40625 5.640625 5 0.609375 
C 10.296875 -1.203125 14.703125 -2 18.40625 -2 
C 26.40625 -2 35.59375 2.515625 41.09375 9.265625 
C 44.5 13.375 46.203125 17.8125 46.203125 22.53125 
C 46.203125 27.359375 44.203125 31.59375 40.59375 34.09375 
C 38.09375 35.90625 35.796875 36.71875 30.796875 37.609375 
C 38.796875 43.796875 41.796875 48.375 41.796875 54.25 
C 41.796875 63.125 34.40625 69 23.296875 69 
C 16.5 69 12 67.109375 7.203125 62.328125 
z
" id="URW_Palladio_L_Roman-51"/>
      </defs>
      <g style="fill:#262626;" transform="translate(228.606414118 433.851748691)scale(0.2 -0.2)">
       <use transform="scale(0.996264009963)" xlink:href="#URW_Palladio_L_Roman-51"/>
      </g>
     </g>
    </g>
    <g id="xtick_5">
     <g id="line2d_13">
      <path clip-path="url(#p881d646de3)" d="M 281.587734 414.414752 
L 281.587734 36.414752 
" style="fill:none;stroke:#ffffff;stroke-linecap:round;stroke-width:0.8;"/>
     </g>
     <g id="line2d_14">
      <g>
       <use style="fill:#262626;stroke:#262626;stroke-width:0.8;" x="281.587734168" xlink:href="#mb2586c5d16" y="414.414751931"/>
      </g>
     </g>
     <g id="line2d_15">
      <g>
       <use style="fill:#262626;stroke:#262626;stroke-width:0.8;" x="281.587734168" xlink:href="#mb2586c5d16" y="36.4147519312"/>
      </g>
     </g>
     <g id="text_5">
      <!-- $4$ -->
      <defs>
       <path d="M 28 18 
L 28 10.515625 
C 28 4.515625 26.90625 3.109375 22 3.109375 
L 15.796875 3.109375 
L 15.796875 0 
C 29.09375 0 29.09375 0 31.5 0 
C 33.90625 0 33.90625 0 47.203125 0 
L 47.203125 3.109375 
L 42.40625 3.109375 
C 37.5 3.109375 36.40625 4.40625 36.40625 10.453125 
L 36.40625 18 
C 42.296875 18 44.40625 18 47.203125 17.703125 
L 47.203125 24.8125 
C 42.5 24.421875 40.59375 24.421875 39.09375 24.421875 
L 38.796875 24.421875 
L 36.40625 24.421875 
L 36.40625 38.390625 
C 36.40625 56.25 36.59375 64.875 37.09375 69 
L 35.90625 69.5 
L 28.5 66.796875 
L 0.203125 20.296875 
L 1.296875 18 
z
M 28 24.421875 
L 6.5 24.421875 
L 28 59.78125 
z
" id="URW_Palladio_L_Roman-52"/>
      </defs>
      <g style="fill:#262626;" transform="translate(276.606414118 433.851748691)scale(0.2 -0.2)">
       <use transform="scale(0.996264009963)" xlink:href="#URW_Palladio_L_Roman-52"/>
      </g>
     </g>
    </g>
    <g id="xtick_6">
     <g id="line2d_16">
      <path clip-path="url(#p881d646de3)" d="M 329.587734 414.414752 
L 329.587734 36.414752 
" style="fill:none;stroke:#ffffff;stroke-linecap:round;stroke-width:0.8;"/>
     </g>
     <g id="line2d_17">
      <g>
       <use style="fill:#262626;stroke:#262626;stroke-width:0.8;" x="329.587734168" xlink:href="#mb2586c5d16" y="414.414751931"/>
      </g>
     </g>
     <g id="line2d_18">
      <g>
       <use style="fill:#262626;stroke:#262626;stroke-width:0.8;" x="329.587734168" xlink:href="#mb2586c5d16" y="36.4147519312"/>
      </g>
     </g>
     <g id="text_6">
      <!-- $5$ -->
      <defs>
       <path d="M 12.703125 60.578125 
C 25.59375 60.578125 31.203125 60.578125 43.203125 60.578125 
L 43.703125 61.046875 
C 43.5 62.75 43.5 63.5 43.5 64.75 
C 43.5 66.078125 43.5 66.828125 43.703125 68.53125 
L 43.203125 69 
C 35.703125 69 31.203125 69 25.796875 69 
C 20.296875 69 15.90625 69 8.40625 69 
L 7.90625 68.796875 
C 8 62.671875 8.09375 58.265625 8.09375 55.046875 
C 8.09375 46.515625 7.796875 36.875 7.5 32.453125 
L 9.5 31.84375 
C 14.203125 36.578125 16.90625 38 21.796875 38 
C 31.40625 38 37.40625 31.140625 37.40625 20.25 
C 37.40625 9.0625 31 2.5 20.09375 2.5 
C 14.703125 2.5 9.703125 4.328125 8.296875 6.9375 
L 3.703125 15.203125 
L 1.296875 13.796875 
C 3.59375 8.0625 4.796875 4.84375 6.203125 0.421875 
C 9 -1.109375 13 -2 17.296875 -2 
C 24 -2 31.09375 0.921875 36.59375 5.75 
C 42.703125 11.1875 45.90625 18.03125 45.90625 25.46875 
C 45.90625 36.859375 37.796875 44.90625 26.40625 44.90625 
C 21.59375 44.90625 18 43.609375 11.796875 39.90625 
z
" id="URW_Palladio_L_Roman-53"/>
      </defs>
      <g style="fill:#262626;" transform="translate(324.606414118 433.851748691)scale(0.2 -0.2)">
       <use transform="scale(0.996264009963)" xlink:href="#URW_Palladio_L_Roman-53"/>
      </g>
     </g>
    </g>
    <g id="xtick_7">
     <g id="line2d_19">
      <path clip-path="url(#p881d646de3)" d="M 377.587734 414.414752 
L 377.587734 36.414752 
" style="fill:none;stroke:#ffffff;stroke-linecap:round;stroke-width:0.8;"/>
     </g>
     <g id="line2d_20">
      <g>
       <use style="fill:#262626;stroke:#262626;stroke-width:0.8;" x="377.587734168" xlink:href="#mb2586c5d16" y="414.414751931"/>
      </g>
     </g>
     <g id="line2d_21">
      <g>
       <use style="fill:#262626;stroke:#262626;stroke-width:0.8;" x="377.587734168" xlink:href="#mb2586c5d16" y="36.4147519312"/>
      </g>
     </g>
     <g id="text_7">
      <!-- $6$ -->
      <defs>
       <path d="M 41.59375 67.34375 
L 37.90625 69.046875 
C 28.296875 65.84375 24.203125 63.84375 19.09375 59.4375 
C 8.796875 50.71875 3.203125 38.5 3.203125 24.765625 
C 3.203125 8.21875 11.203125 -2 24.09375 -2 
C 37.09375 -2 46.796875 8.3125 46.796875 21.953125 
C 46.796875 33.484375 39.90625 41 29.296875 41 
C 24.296875 41 21.296875 39.6875 15.40625 34.984375 
C 14.296875 34.078125 14.203125 33.984375 13.09375 33.1875 
C 15.203125 51.3125 23.59375 61.140625 41.59375 66.546875 
z
M 25.5 34.984375 
C 33.09375 34.984375 38.203125 28.375 38.203125 18.453125 
C 38.203125 8.015625 33.09375 1.296875 25.40625 1.296875 
C 16.90625 1.296875 12.296875 8.609375 12.296875 22.0625 
C 12.296875 25.5625 12.703125 27.46875 13.796875 29.171875 
C 16 32.578125 20.703125 34.984375 25.5 34.984375 
" id="URW_Palladio_L_Roman-54"/>
      </defs>
      <g style="fill:#262626;" transform="translate(372.606414118 433.851748691)scale(0.2 -0.2)">
       <use transform="scale(0.996264009963)" xlink:href="#URW_Palladio_L_Roman-54"/>
      </g>
     </g>
    </g>
    <g id="xtick_8">
     <g id="line2d_22">
      <path clip-path="url(#p881d646de3)" d="M 425.587734 414.414752 
L 425.587734 36.414752 
" style="fill:none;stroke:#ffffff;stroke-linecap:round;stroke-width:0.8;"/>
     </g>
     <g id="line2d_23">
      <g>
       <use style="fill:#262626;stroke:#262626;stroke-width:0.8;" x="425.587734168" xlink:href="#mb2586c5d16" y="414.414751931"/>
      </g>
     </g>
     <g id="line2d_24">
      <g>
       <use style="fill:#262626;stroke:#262626;stroke-width:0.8;" x="425.587734168" xlink:href="#mb2586c5d16" y="36.4147519312"/>
      </g>
     </g>
     <g id="text_8">
      <!-- $7$ -->
      <defs>
       <path d="M 5.59375 0.5 
L 6.5 -0.796875 
C 10.40625 -0.5 10.40625 -0.5 11.09375 -0.5 
C 11.796875 -0.5 11.796875 -0.5 15.703125 -0.796875 
C 19.90625 10.140625 24.796875 20.578125 31.40625 32.609375 
L 49.703125 65.609375 
L 49.703125 68.3125 
C 38.90625 68.3125 35.40625 68.3125 27.296875 68.3125 
C 20 68.3125 15.09375 68.3125 5.40625 68.3125 
L 4.40625 68.109375 
C 4.703125 58.59375 4.703125 58.59375 4.703125 57.578125 
C 4.703125 56.46875 4.703125 56.46875 4.40625 47.359375 
L 7.40625 47.359375 
L 8.09375 52.96875 
C 8.90625 59.203125 9.59375 60 14.203125 60 
L 40.90625 60 
C 36.90625 51.765625 33.796875 45.953125 30 39.828125 
z
" id="URW_Palladio_L_Roman-55"/>
      </defs>
      <g style="fill:#262626;" transform="translate(420.606414118 433.851748691)scale(0.2 -0.2)">
       <use transform="scale(0.996264009963)" xlink:href="#URW_Palladio_L_Roman-55"/>
      </g>
     </g>
    </g>
    <g id="xtick_9">
     <g id="line2d_25">
      <path clip-path="url(#p881d646de3)" d="M 473.587734 414.414752 
L 473.587734 36.414752 
" style="fill:none;stroke:#ffffff;stroke-linecap:round;stroke-width:0.8;"/>
     </g>
     <g id="line2d_26">
      <g>
       <use style="fill:#262626;stroke:#262626;stroke-width:0.8;" x="473.587734168" xlink:href="#mb2586c5d16" y="414.414751931"/>
      </g>
     </g>
     <g id="line2d_27">
      <g>
       <use style="fill:#262626;stroke:#262626;stroke-width:0.8;" x="473.587734168" xlink:href="#mb2586c5d16" y="36.4147519312"/>
      </g>
     </g>
     <g id="text_9">
      <!-- $8$ -->
      <defs>
       <path d="M 16.796875 34.546875 
C 12.703125 32.65625 11 31.546875 8.796875 29.4375 
C 5 25.640625 3 21.125 3 15.921875 
C 3 5.609375 11.296875 -2 22.59375 -2 
C 35.59375 -2 46.40625 8.21875 46.40625 20.625 
C 46.40625 28.640625 42.703125 32.953125 31.296875 38.15625 
C 40.40625 44.375 43.59375 48.578125 43.59375 54.578125 
C 43.59375 63.1875 36.5 69 25.90625 69 
C 14 69 5.296875 61.390625 5.296875 50.890625 
C 5.296875 44.078125 8 40.265625 16.796875 34.546875 
M 28.40625 29.546875 
C 34.703125 26.734375 38.5 21.828125 38.5 16.4375 
C 38.5 8.015625 32.203125 1.40625 24.09375 1.40625 
C 15.59375 1.40625 10.09375 7.421875 10.09375 16.734375 
C 10.09375 24.03125 13 28.640625 20.40625 33.15625 
z
M 22.296875 42.375 
C 16 45.46875 12.796875 49.484375 12.796875 54.484375 
C 12.796875 61.09375 17.59375 65.59375 24.703125 65.59375 
C 32 65.59375 36.796875 60.796875 36.796875 53.46875 
C 36.796875 47.78125 34.296875 43.875 27.796875 39.65625 
z
" id="URW_Palladio_L_Roman-56"/>
      </defs>
      <g style="fill:#262626;" transform="translate(468.606414118 433.851748691)scale(0.2 -0.2)">
       <use transform="scale(0.996264009963)" xlink:href="#URW_Palladio_L_Roman-56"/>
      </g>
     </g>
    </g>
    <g id="xtick_10">
     <g id="line2d_28">
      <path clip-path="url(#p881d646de3)" d="M 521.587734 414.414752 
L 521.587734 36.414752 
" style="fill:none;stroke:#ffffff;stroke-linecap:round;stroke-width:0.8;"/>
     </g>
     <g id="line2d_29">
      <g>
       <use style="fill:#262626;stroke:#262626;stroke-width:0.8;" x="521.587734168" xlink:href="#mb2586c5d16" y="414.414751931"/>
      </g>
     </g>
     <g id="line2d_30">
      <g>
       <use style="fill:#262626;stroke:#262626;stroke-width:0.8;" x="521.587734168" xlink:href="#mb2586c5d16" y="36.4147519312"/>
      </g>
     </g>
     <g id="text_10">
      <!-- $9$ -->
      <defs>
       <path d="M 9.59375 -1.65625 
C 20.703125 1.953125 25.5 4.25 30.90625 8.84375 
C 40.59375 17.15625 45.703125 28.671875 45.703125 42.078125 
C 45.703125 59 37.59375 69.296875 24.40625 69.296875 
C 11.59375 69.296875 2 59.296875 2 45.90625 
C 2 34.390625 9.5 26 19.90625 26 
C 23.296875 26 27.203125 27.09375 29 28.59375 
L 36 34.40625 
C 35.203125 17.578125 24.296875 5.25 6.203125 0.84375 
L 6.203125 0.046875 
z
M 24 66 
C 28.5 66 31.796875 64.09375 34 60.09375 
C 35.796875 56.890625 37 52 37 47.5 
C 37 38.296875 31.703125 32.109375 24 32.109375 
C 16 32.109375 10.59375 39.203125 10.59375 49.59375 
C 10.59375 59.703125 15.796875 66 24 66 
" id="URW_Palladio_L_Roman-57"/>
      </defs>
      <g style="fill:#262626;" transform="translate(516.606414118 433.851748691)scale(0.2 -0.2)">
       <use transform="scale(0.996264009963)" xlink:href="#URW_Palladio_L_Roman-57"/>
      </g>
     </g>
    </g>
    <g id="xtick_11">
     <g id="line2d_31">
      <path clip-path="url(#p881d646de3)" d="M 569.587734 414.414752 
L 569.587734 36.414752 
" style="fill:none;stroke:#ffffff;stroke-linecap:round;stroke-width:0.8;"/>
     </g>
     <g id="line2d_32">
      <g>
       <use style="fill:#262626;stroke:#262626;stroke-width:0.8;" x="569.587734168" xlink:href="#mb2586c5d16" y="414.414751931"/>
      </g>
     </g>
     <g id="line2d_33">
      <g>
       <use style="fill:#262626;stroke:#262626;stroke-width:0.8;" x="569.587734168" xlink:href="#mb2586c5d16" y="36.4147519312"/>
      </g>
     </g>
     <g id="text_11">
      <!-- $10$ -->
      <g style="fill:#262626;" transform="translate(559.625094069 433.851748691)scale(0.2 -0.2)">
       <use transform="scale(0.996264009963)" xlink:href="#URW_Palladio_L_Roman-49"/>
       <use transform="translate(49.8132004981 0.0)scale(0.996264009963)" xlink:href="#URW_Palladio_L_Roman-48"/>
      </g>
     </g>
    </g>
    <g id="xtick_12">
     <g id="line2d_34">
      <path clip-path="url(#p881d646de3)" d="M 617.587734 414.414752 
L 617.587734 36.414752 
" style="fill:none;stroke:#ffffff;stroke-linecap:round;stroke-width:0.8;"/>
     </g>
     <g id="line2d_35">
      <g>
       <use style="fill:#262626;stroke:#262626;stroke-width:0.8;" x="617.587734168" xlink:href="#mb2586c5d16" y="414.414751931"/>
      </g>
     </g>
     <g id="line2d_36">
      <g>
       <use style="fill:#262626;stroke:#262626;stroke-width:0.8;" x="617.587734168" xlink:href="#mb2586c5d16" y="36.4147519312"/>
      </g>
     </g>
     <g id="text_12">
      <!-- $11$ -->
      <g style="fill:#262626;" transform="translate(607.625094069 433.851748691)scale(0.2 -0.2)">
       <use transform="scale(0.996264009963)" xlink:href="#URW_Palladio_L_Roman-49"/>
       <use transform="translate(49.8132004981 0.0)scale(0.996264009963)" xlink:href="#URW_Palladio_L_Roman-49"/>
      </g>
     </g>
    </g>
    <g id="xtick_13">
     <g id="line2d_37">
      <path clip-path="url(#p881d646de3)" d="M 665.587734 414.414752 
L 665.587734 36.414752 
" style="fill:none;stroke:#ffffff;stroke-linecap:round;stroke-width:0.8;"/>
     </g>
     <g id="line2d_38">
      <g>
       <use style="fill:#262626;stroke:#262626;stroke-width:0.8;" x="665.587734168" xlink:href="#mb2586c5d16" y="414.414751931"/>
      </g>
     </g>
     <g id="line2d_39">
      <g>
       <use style="fill:#262626;stroke:#262626;stroke-width:0.8;" x="665.587734168" xlink:href="#mb2586c5d16" y="36.4147519312"/>
      </g>
     </g>
     <g id="text_13">
      <!-- $12$ -->
      <g style="fill:#262626;" transform="translate(655.625094069 433.851748691)scale(0.2 -0.2)">
       <use transform="scale(0.996264009963)" xlink:href="#URW_Palladio_L_Roman-49"/>
       <use transform="translate(49.8132004981 0.0)scale(0.996264009963)" xlink:href="#URW_Palladio_L_Roman-50"/>
      </g>
     </g>
    </g>
    <g id="xtick_14">
     <g id="line2d_40">
      <path clip-path="url(#p881d646de3)" d="M 713.587734 414.414752 
L 713.587734 36.414752 
" style="fill:none;stroke:#ffffff;stroke-linecap:round;stroke-width:0.8;"/>
     </g>
     <g id="line2d_41">
      <g>
       <use style="fill:#262626;stroke:#262626;stroke-width:0.8;" x="713.587734168" xlink:href="#mb2586c5d16" y="414.414751931"/>
      </g>
     </g>
     <g id="line2d_42">
      <g>
       <use style="fill:#262626;stroke:#262626;stroke-width:0.8;" x="713.587734168" xlink:href="#mb2586c5d16" y="36.4147519312"/>
      </g>
     </g>
     <g id="text_14">
      <!-- $13$ -->
      <g style="fill:#262626;" transform="translate(703.625094069 433.851748691)scale(0.2 -0.2)">
       <use transform="scale(0.996264009963)" xlink:href="#URW_Palladio_L_Roman-49"/>
       <use transform="translate(49.8132004981 0.0)scale(0.996264009963)" xlink:href="#URW_Palladio_L_Roman-51"/>
      </g>
     </g>
    </g>
    <g id="xtick_15">
     <g id="line2d_43">
      <path clip-path="url(#p881d646de3)" d="M 761.587734 414.414752 
L 761.587734 36.414752 
" style="fill:none;stroke:#ffffff;stroke-linecap:round;stroke-width:0.8;"/>
     </g>
     <g id="line2d_44">
      <g>
       <use style="fill:#262626;stroke:#262626;stroke-width:0.8;" x="761.587734168" xlink:href="#mb2586c5d16" y="414.414751931"/>
      </g>
     </g>
     <g id="line2d_45">
      <g>
       <use style="fill:#262626;stroke:#262626;stroke-width:0.8;" x="761.587734168" xlink:href="#mb2586c5d16" y="36.4147519312"/>
      </g>
     </g>
     <g id="text_15">
      <!-- $14$ -->
      <g style="fill:#262626;" transform="translate(751.625094069 433.851748691)scale(0.2 -0.2)">
       <use transform="scale(0.996264009963)" xlink:href="#URW_Palladio_L_Roman-49"/>
       <use transform="translate(49.8132004981 0.0)scale(0.996264009963)" xlink:href="#URW_Palladio_L_Roman-52"/>
      </g>
     </g>
    </g>
    <g id="xtick_16">
     <g id="line2d_46">
      <path clip-path="url(#p881d646de3)" d="M 809.587734 414.414752 
L 809.587734 36.414752 
" style="fill:none;stroke:#ffffff;stroke-linecap:round;stroke-width:0.8;"/>
     </g>
     <g id="line2d_47">
      <g>
       <use style="fill:#262626;stroke:#262626;stroke-width:0.8;" x="809.587734168" xlink:href="#mb2586c5d16" y="414.414751931"/>
      </g>
     </g>
     <g id="line2d_48">
      <g>
       <use style="fill:#262626;stroke:#262626;stroke-width:0.8;" x="809.587734168" xlink:href="#mb2586c5d16" y="36.4147519312"/>
      </g>
     </g>
     <g id="text_16">
      <!-- $15$ -->
      <g style="fill:#262626;" transform="translate(799.625094069 433.851748691)scale(0.2 -0.2)">
       <use transform="scale(0.996264009963)" xlink:href="#URW_Palladio_L_Roman-49"/>
       <use transform="translate(49.8132004981 0.0)scale(0.996264009963)" xlink:href="#URW_Palladio_L_Roman-53"/>
      </g>
     </g>
    </g>
    <g id="text_17">
     <!-- $\theta_{0}$ -->
     <defs>
      <path d="M 31.703125 71 
C 27.40625 71 23 68.90625 18.40625 64.421875 
C 9.5 55.953125 2.90625 40.875 2.90625 22.546875 
C 2.90625 6.6875 6.09375 -1 14.5 -1 
C 19.796875 -1 26 2.6875 30.703125 8.6875 
C 37.5 17.359375 43.703125 33.8125 43.703125 48.875 
C 43.703125 62.734375 39.90625 71 31.703125 71 
M 23.09375 33 
C 29.90625 33 32.703125 32.703125 34.40625 31.90625 
C 32.203125 21.84375 28.5 12.890625 25.296875 7.6875 
C 23.296875 4.609375 20.59375 2.828125 17.59375 2.828125 
C 11.59375 2.828125 10.5 10.484375 10.5 22.34375 
C 10.5 25.421875 10.703125 28.609375 11.203125 31.8125 
C 13.296875 32.703125 16 33 23.09375 33 
M 29.203125 67.1875 
C 35.5 67.1875 36.09375 59.015625 36.09375 46.671875 
C 36.09375 43.875 35.90625 41 35.5 38.203125 
C 33.5 37.515625 30.40625 37.21875 23.796875 37.21875 
C 17 37.21875 14.09375 37.515625 12.296875 38.21875 
C 14.90625 49.96875 19.5 60.71875 23.09375 64.890625 
C 24.5 66.390625 26.796875 67.1875 29.203125 67.1875 
" id="Pazo_Math_Italic-113"/>
     </defs>
     <g style="fill:#262626;" transform="translate(437.0871489 463.544307845)scale(0.3 -0.3)">
      <use transform="translate(0.0 17.4414305729)scale(0.996264009963)" xlink:href="#Pazo_Math_Italic-113"/>
      <use transform="translate(45.4794611759 0.0)scale(0.75715517493)" xlink:href="#URW_Palladio_L_Roman-48"/>
     </g>
    </g>
   </g>
   <g id="matplotlib.axis_2">
    <g id="ytick_1">
     <g id="line2d_49">
      <path clip-path="url(#p881d646de3)" d="M 89.587734 414.414752 
L 809.587734 414.414752 
" style="fill:none;stroke:#ffffff;stroke-linecap:round;stroke-width:0.8;"/>
     </g>
     <g id="line2d_50">
      <g>
       <use style="fill:#262626;stroke:#262626;stroke-width:0.8;" x="89.5877341683" xlink:href="#mb2586c5d16" y="414.414751931"/>
      </g>
     </g>
     <g id="line2d_51">
      <g>
       <use style="fill:#262626;stroke:#262626;stroke-width:0.8;" x="809.587734168" xlink:href="#mb2586c5d16" y="414.414751931"/>
      </g>
     </g>
     <g id="text_18">
      <!-- $0.0$ -->
      <defs>
       <path d="M 12.40625 11.625 
C 9.40625 11.625 6.703125 8.8125 6.703125 5.8125 
C 6.703125 2.796875 9.40625 0 12.296875 0 
C 15.5 0 18.296875 2.703125 18.296875 5.8125 
C 18.296875 8.8125 15.5 11.625 12.40625 11.625 
" id="URW_Palladio_L_Roman-46"/>
      </defs>
      <g style="fill:#262626;" transform="translate(59.0811339192 419.395433506)scale(0.2 -0.2)">
       <use transform="scale(0.996264009963)" xlink:href="#URW_Palladio_L_Roman-48"/>
       <use transform="translate(49.8132004981 0.0)scale(0.996264009963)" xlink:href="#URW_Palladio_L_Roman-46"/>
       <use transform="translate(74.7198007472 0.0)scale(0.996264009963)" xlink:href="#URW_Palladio_L_Roman-48"/>
      </g>
     </g>
    </g>
    <g id="ytick_2">
     <g id="line2d_52">
      <path clip-path="url(#p881d646de3)" d="M 89.587734 351.414752 
L 809.587734 351.414752 
" style="fill:none;stroke:#ffffff;stroke-linecap:round;stroke-width:0.8;"/>
     </g>
     <g id="line2d_53">
      <g>
       <use style="fill:#262626;stroke:#262626;stroke-width:0.8;" x="89.5877341683" xlink:href="#mb2586c5d16" y="351.414751931"/>
      </g>
     </g>
     <g id="line2d_54">
      <g>
       <use style="fill:#262626;stroke:#262626;stroke-width:0.8;" x="809.587734168" xlink:href="#mb2586c5d16" y="351.414751931"/>
      </g>
     </g>
     <g id="text_19">
      <!-- $0.2$ -->
      <g style="fill:#262626;" transform="translate(59.0811339192 356.395433506)scale(0.2 -0.2)">
       <use transform="scale(0.996264009963)" xlink:href="#URW_Palladio_L_Roman-48"/>
       <use transform="translate(49.8132004981 0.0)scale(0.996264009963)" xlink:href="#URW_Palladio_L_Roman-46"/>
       <use transform="translate(74.7198007472 0.0)scale(0.996264009963)" xlink:href="#URW_Palladio_L_Roman-50"/>
      </g>
     </g>
    </g>
    <g id="ytick_3">
     <g id="line2d_55">
      <path clip-path="url(#p881d646de3)" d="M 89.587734 288.414752 
L 809.587734 288.414752 
" style="fill:none;stroke:#ffffff;stroke-linecap:round;stroke-width:0.8;"/>
     </g>
     <g id="line2d_56">
      <g>
       <use style="fill:#262626;stroke:#262626;stroke-width:0.8;" x="89.5877341683" xlink:href="#mb2586c5d16" y="288.414751931"/>
      </g>
     </g>
     <g id="line2d_57">
      <g>
       <use style="fill:#262626;stroke:#262626;stroke-width:0.8;" x="809.587734168" xlink:href="#mb2586c5d16" y="288.414751931"/>
      </g>
     </g>
     <g id="text_20">
      <!-- $0.4$ -->
      <g style="fill:#262626;" transform="translate(59.0811339192 293.395433506)scale(0.2 -0.2)">
       <use transform="scale(0.996264009963)" xlink:href="#URW_Palladio_L_Roman-48"/>
       <use transform="translate(49.8132004981 0.0)scale(0.996264009963)" xlink:href="#URW_Palladio_L_Roman-46"/>
       <use transform="translate(74.7198007472 0.0)scale(0.996264009963)" xlink:href="#URW_Palladio_L_Roman-52"/>
      </g>
     </g>
    </g>
    <g id="ytick_4">
     <g id="line2d_58">
      <path clip-path="url(#p881d646de3)" d="M 89.587734 225.414752 
L 809.587734 225.414752 
" style="fill:none;stroke:#ffffff;stroke-linecap:round;stroke-width:0.8;"/>
     </g>
     <g id="line2d_59">
      <g>
       <use style="fill:#262626;stroke:#262626;stroke-width:0.8;" x="89.5877341683" xlink:href="#mb2586c5d16" y="225.414751931"/>
      </g>
     </g>
     <g id="line2d_60">
      <g>
       <use style="fill:#262626;stroke:#262626;stroke-width:0.8;" x="809.587734168" xlink:href="#mb2586c5d16" y="225.414751931"/>
      </g>
     </g>
     <g id="text_21">
      <!-- $0.6$ -->
      <g style="fill:#262626;" transform="translate(59.0811339192 230.395433506)scale(0.2 -0.2)">
       <use transform="scale(0.996264009963)" xlink:href="#URW_Palladio_L_Roman-48"/>
       <use transform="translate(49.8132004981 0.0)scale(0.996264009963)" xlink:href="#URW_Palladio_L_Roman-46"/>
       <use transform="translate(74.7198007472 0.0)scale(0.996264009963)" xlink:href="#URW_Palladio_L_Roman-54"/>
      </g>
     </g>
    </g>
    <g id="ytick_5">
     <g id="line2d_61">
      <path clip-path="url(#p881d646de3)" d="M 89.587734 162.414752 
L 809.587734 162.414752 
" style="fill:none;stroke:#ffffff;stroke-linecap:round;stroke-width:0.8;"/>
     </g>
     <g id="line2d_62">
      <g>
       <use style="fill:#262626;stroke:#262626;stroke-width:0.8;" x="89.5877341683" xlink:href="#mb2586c5d16" y="162.414751931"/>
      </g>
     </g>
     <g id="line2d_63">
      <g>
       <use style="fill:#262626;stroke:#262626;stroke-width:0.8;" x="809.587734168" xlink:href="#mb2586c5d16" y="162.414751931"/>
      </g>
     </g>
     <g id="text_22">
      <!-- $0.8$ -->
      <g style="fill:#262626;" transform="translate(59.0811339192 167.395433506)scale(0.2 -0.2)">
       <use transform="scale(0.996264009963)" xlink:href="#URW_Palladio_L_Roman-48"/>
       <use transform="translate(49.8132004981 0.0)scale(0.996264009963)" xlink:href="#URW_Palladio_L_Roman-46"/>
       <use transform="translate(74.7198007472 0.0)scale(0.996264009963)" xlink:href="#URW_Palladio_L_Roman-56"/>
      </g>
     </g>
    </g>
    <g id="ytick_6">
     <g id="line2d_64">
      <path clip-path="url(#p881d646de3)" d="M 89.587734 99.414752 
L 809.587734 99.414752 
" style="fill:none;stroke:#ffffff;stroke-linecap:round;stroke-width:0.8;"/>
     </g>
     <g id="line2d_65">
      <g>
       <use style="fill:#262626;stroke:#262626;stroke-width:0.8;" x="89.5877341683" xlink:href="#mb2586c5d16" y="99.4147519312"/>
      </g>
     </g>
     <g id="line2d_66">
      <g>
       <use style="fill:#262626;stroke:#262626;stroke-width:0.8;" x="809.587734168" xlink:href="#mb2586c5d16" y="99.4147519312"/>
      </g>
     </g>
     <g id="text_23">
      <!-- $1.0$ -->
      <g style="fill:#262626;" transform="translate(59.0811339192 104.395433506)scale(0.2 -0.2)">
       <use transform="scale(0.996264009963)" xlink:href="#URW_Palladio_L_Roman-49"/>
       <use transform="translate(49.8132004981 0.0)scale(0.996264009963)" xlink:href="#URW_Palladio_L_Roman-46"/>
       <use transform="translate(74.7198007472 0.0)scale(0.996264009963)" xlink:href="#URW_Palladio_L_Roman-48"/>
      </g>
     </g>
    </g>
    <g id="ytick_7">
     <g id="line2d_67">
      <path clip-path="url(#p881d646de3)" d="M 89.587734 36.414752 
L 809.587734 36.414752 
" style="fill:none;stroke:#ffffff;stroke-linecap:round;stroke-width:0.8;"/>
     </g>
     <g id="line2d_68">
      <g>
       <use style="fill:#262626;stroke:#262626;stroke-width:0.8;" x="89.5877341683" xlink:href="#mb2586c5d16" y="36.4147519312"/>
      </g>
     </g>
     <g id="line2d_69">
      <g>
       <use style="fill:#262626;stroke:#262626;stroke-width:0.8;" x="809.587734168" xlink:href="#mb2586c5d16" y="36.4147519312"/>
      </g>
     </g>
     <g id="text_24">
      <!-- $1.2$ -->
      <g style="fill:#262626;" transform="translate(59.0811339192 41.3954335062)scale(0.2 -0.2)">
       <use transform="scale(0.996264009963)" xlink:href="#URW_Palladio_L_Roman-49"/>
       <use transform="translate(49.8132004981 0.0)scale(0.996264009963)" xlink:href="#URW_Palladio_L_Roman-46"/>
       <use transform="translate(74.7198007472 0.0)scale(0.996264009963)" xlink:href="#URW_Palladio_L_Roman-50"/>
      </g>
     </g>
    </g>
    <g id="text_25">
     <!-- $\langle \lambda \rangle$ -->
     <defs>
      <path d="M 27.296875 23.296875 
C 27.796875 24.5 27.796875 24.703125 27.796875 25 
C 27.796875 25.296875 27.796875 25.5 27.296875 26.703125 
L 9.796875 72.703125 
C 9.203125 74.40625 8.59375 75 7.5 75 
C 6.40625 75 5.5 74.09375 5.5 73 
C 5.5 72.703125 5.5 72.5 6 71.40625 
L 23.703125 25 
L 6 -21.203125 
C 5.5 -22.296875 5.5 -22.5 5.5 -23 
C 5.5 -24.09375 6.40625 -25 7.5 -25 
C 8.796875 -25 9.203125 -24 9.59375 -23 
z
" id="CMSY10-105"/>
      <path d="M 3.59375 -1.40625 
C 5.40625 -0.5 6.796875 0 9.296875 0.796875 
C 16.796875 15.96875 21.296875 25.203125 32.796875 41.5625 
L 40.09375 1.8125 
C 40.40625 0.109375 41.5 -1 43.09375 -1 
C 45.59375 -1 49.203125 1.21875 58.703125 8.40625 
L 57.796875 10.203125 
L 55.203125 8.5 
C 52.296875 6.5 49.90625 5.5 49.09375 5.5 
C 48.703125 5.5 48.296875 5.5 47.203125 7.40625 
C 46.40625 8.609375 45.90625 11 44.90625 14.421875 
L 38.40625 49.390625 
C 35.796875 63.40625 32.296875 70.53125 27.59375 71.125 
C 24.90625 68.921875 21 66.40625 18.796875 65 
L 18.5 62.59375 
C 20.40625 63.296875 23.40625 64.5 24.296875 64.5 
C 26.90625 64.5 29.5 60 30.5 54.1875 
L 32.203125 44.875 
C 23.703125 34.03125 6.796875 8.828125 1.59375 0.796875 
z
" id="Pazo_Math_Italic-108"/>
      <path d="M 32.796875 71.203125 
C 33.296875 72.296875 33.296875 72.5 33.296875 73 
C 33.296875 74.09375 32.40625 75 31.296875 75 
C 30.40625 75 29.703125 74.5 29 72.703125 
L 11.5 26.796875 
C 11.296875 26.203125 11 25.59375 11 25 
C 11 24.703125 11 24.5 11.5 23.296875 
L 29 -22.59375 
C 29.40625 -23.703125 29.90625 -25 31.296875 -25 
C 32.40625 -25 33.296875 -24.09375 33.296875 -23 
C 33.296875 -22.703125 33.296875 -22.5 32.796875 -21.40625 
L 15.09375 25 
z
" id="CMSY10-104"/>
     </defs>
     <g style="fill:#262626;" transform="translate(7.2 217.628961463)scale(0.3 -0.3)">
      <use transform="scale(1.03810691596)" xlink:href="#CMSY10-104"/>
      <use transform="translate(42.7397047449 0.0)scale(0.996264009963)" xlink:href="#Pazo_Math_Italic-108"/>
      <use transform="translate(105.503303651 0.0)scale(1.03810691596)" xlink:href="#CMSY10-105"/>
     </g>
    </g>
   </g>
   <g id="line2d_70">
    <path d="M 89.587734 414.414752 
L 96.860461 224.566562 
L 104.133189 148.763364 
L 111.405916 106.210114 
L 118.678643 80.807574 
L 125.951371 65.497294 
L 133.224098 56.503705 
L 140.496825 51.593645 
L 147.769552 49.364968 
L 155.04228 48.903025 
L 162.315007 49.596005 
L 169.587734 51.027985 
L 176.860461 52.91352 
L 184.133189 55.055972 
L 191.405916 57.320111 
L 198.678643 59.613651 
L 205.951371 61.874564 
L 213.224098 64.062233 
L 220.496825 66.151202 
L 227.769552 68.126735 
L 235.04228 69.981618 
L 242.315007 71.713865 
L 249.587734 73.325062 
L 256.860461 74.819164 
L 264.133189 76.201637 
L 271.405916 77.478837 
L 278.678643 78.657567 
L 285.951371 79.744776 
L 293.224098 80.747335 
L 300.496825 81.6719 
L 307.769552 82.524817 
L 315.04228 83.312067 
L 322.315007 84.039236 
L 329.587734 84.711508 
L 336.860461 85.333661 
L 344.133189 85.910088 
L 351.405916 86.444806 
L 358.678643 86.941485 
L 365.951371 87.403464 
L 373.224098 87.833781 
L 380.496825 88.235191 
L 387.769552 88.610197 
L 395.04228 88.961063 
L 402.315007 89.289843 
L 409.587734 89.598394 
L 416.860461 89.888399 
L 424.133189 90.161382 
L 431.405916 90.418724 
L 438.678643 90.661674 
L 445.951371 90.891367 
L 453.224098 91.108829 
L 460.496825 91.314994 
L 467.769552 91.51071 
L 475.04228 91.696746 
L 482.315007 91.873804 
L 489.587734 92.042523 
L 496.860461 92.203483 
L 504.133189 92.357217 
L 511.405916 92.50421 
L 518.678643 92.644906 
L 525.951371 92.779712 
L 533.224098 92.909 
L 540.496825 93.033114 
L 547.769552 93.152369 
L 555.04228 93.267053 
L 562.315007 93.377436 
L 569.587734 93.483762 
L 576.860461 93.58626 
L 584.133189 93.685142 
L 591.405916 93.780603 
L 598.678643 93.872823 
L 605.951371 93.961972 
L 613.224098 94.048206 
L 620.496825 94.131672 
L 627.769552 94.212505 
L 635.04228 94.290833 
L 642.315007 94.366773 
L 649.587734 94.440439 
L 656.860461 94.511933 
L 664.133189 94.581353 
L 671.405916 94.648791 
L 678.678643 94.714334 
L 685.951371 94.778062 
L 693.224098 94.840052 
L 700.496825 94.900376 
L 707.769552 94.959103 
L 715.04228 95.016295 
L 722.315007 95.072014 
L 729.587734 95.126318 
L 736.860461 95.179261 
L 744.133189 95.230894 
L 751.405916 95.281266 
L 758.678643 95.330425 
L 765.951371 95.378414 
L 773.224098 95.425275 
L 780.496825 95.471048 
L 787.769552 95.515771 
L 795.04228 95.559481 
L 802.315007 95.602212 
L 809.587734 95.643997 
" style="fill:none;stroke:#001c7f;stroke-linecap:round;stroke-width:4.0;"/>
   </g>
   <g id="line2d_71">
    <path clip-path="url(#p881d646de3)" d="M 89.587734 99.414752 
L 96.860461 99.414752 
L 104.133189 99.414752 
L 111.405916 99.414752 
L 118.678643 99.414752 
L 125.951371 99.414752 
L 133.224098 99.414752 
L 140.496825 99.414752 
L 147.769552 99.414752 
L 155.04228 99.414752 
L 162.315007 99.414752 
L 169.587734 99.414752 
L 176.860461 99.414752 
L 184.133189 99.414752 
L 191.405916 99.414752 
L 198.678643 99.414752 
L 205.951371 99.414752 
L 213.224098 99.414752 
L 220.496825 99.414752 
L 227.769552 99.414752 
L 235.04228 99.414752 
L 242.315007 99.414752 
L 249.587734 99.414752 
L 256.860461 99.414752 
L 264.133189 99.414752 
L 271.405916 99.414752 
L 278.678643 99.414752 
L 285.951371 99.414752 
L 293.224098 99.414752 
L 300.496825 99.414752 
L 307.769552 99.414752 
L 315.04228 99.414752 
L 322.315007 99.414752 
L 329.587734 99.414752 
L 336.860461 99.414752 
L 344.133189 99.414752 
L 351.405916 99.414752 
L 358.678643 99.414752 
L 365.951371 99.414752 
L 373.224098 99.414752 
L 380.496825 99.414752 
L 387.769552 99.414752 
L 395.04228 99.414752 
L 402.315007 99.414752 
L 409.587734 99.414752 
L 416.860461 99.414752 
L 424.133189 99.414752 
L 431.405916 99.414752 
L 438.678643 99.414752 
L 445.951371 99.414752 
L 453.224098 99.414752 
L 460.496825 99.414752 
L 467.769552 99.414752 
L 475.04228 99.414752 
L 482.315007 99.414752 
L 489.587734 99.414752 
L 496.860461 99.414752 
L 504.133189 99.414752 
L 511.405916 99.414752 
L 518.678643 99.414752 
L 525.951371 99.414752 
L 533.224098 99.414752 
L 540.496825 99.414752 
L 547.769552 99.414752 
L 555.04228 99.414752 
L 562.315007 99.414752 
L 569.587734 99.414752 
L 576.860461 99.414752 
L 584.133189 99.414752 
L 591.405916 99.414752 
L 598.678643 99.414752 
L 605.951371 99.414752 
L 613.224098 99.414752 
L 620.496825 99.414752 
L 627.769552 99.414752 
L 635.04228 99.414752 
L 642.315007 99.414752 
L 649.587734 99.414752 
L 656.860461 99.414752 
L 664.133189 99.414752 
L 671.405916 99.414752 
L 678.678643 99.414752 
L 685.951371 99.414752 
L 693.224098 99.414752 
L 700.496825 99.414752 
L 707.769552 99.414752 
L 715.04228 99.414752 
L 722.315007 99.414752 
L 729.587734 99.414752 
L 736.860461 99.414752 
L 744.133189 99.414752 
L 751.405916 99.414752 
L 758.678643 99.414752 
L 765.951371 99.414752 
L 773.224098 99.414752 
L 780.496825 99.414752 
L 787.769552 99.414752 
L 795.04228 99.414752 
L 802.315007 99.414752 
L 809.587734 99.414752 
" style="fill:none;stroke:#017517;stroke-dasharray:6.000000,6.000000;stroke-dashoffset:0.0;stroke-width:3.0;"/>
   </g>
   <g id="patch_3">
    <path d="M 89.587734 36.414752 
L 809.587734 36.414752 
" style="fill:none;"/>
   </g>
   <g id="patch_4">
    <path d="M 809.587734 414.414752 
L 809.587734 36.414752 
" style="fill:none;"/>
   </g>
   <g id="patch_5">
    <path d="M 89.587734 414.414752 
L 809.587734 414.414752 
" style="fill:none;"/>
   </g>
   <g id="patch_6">
    <path d="M 89.587734 414.414752 
L 89.587734 36.414752 
" style="fill:none;"/>
   </g>
   <g id="text_26">
    <!-- The ``Poisson Bump" Phenomenon -->
    <defs>
     <path d="M 32.203125 41.046875 
C 26.296875 43.859375 21.703125 43.859375 18.703125 43.859375 
C 11.59375 43.859375 3.09375 41.375 3.09375 31.296875 
C 3.09375 21.234375 14.09375 19.03125 17.09375 18.421875 
C 21.703125 17.53125 26.796875 16.53125 26.796875 11.5625 
C 26.796875 5.265625 19.59375 5.265625 18.296875 5.265625 
C 14.296875 5.265625 8.796875 6.359375 3.796875 9.96875 
L 2.59375 3.28125 
C 8.296875 0 13.796875 -1 18.40625 -1 
C 30.703125 -1 33.796875 6.5 33.796875 12.203125 
C 33.796875 17.09375 31 20.390625 29.09375 21.890625 
C 25.796875 24.5 24.59375 24.796875 16.40625 26.5 
C 15 26.703125 10.09375 27.796875 10.09375 32.28125 
C 10.09375 38 16.40625 38 17.796875 38 
C 24.296875 38 28.296875 35.984375 31 34.5 
z
" id="CMSS17-115"/>
     <path d="M 40.90625 29.546875 
C 40.90625 35.8125 39.40625 44.0625 28.09375 44.0625 
C 21.796875 44.0625 17.703125 40.984375 14.796875 37.609375 
L 14.796875 69.5 
L 7.40625 69.5 
L 7.40625 0.5 
L 15 0.5 
L 15 24.578125 
C 15 30.828125 17.40625 38 24.203125 38 
C 33 38 33.296875 32.125 33.296875 28.734375 
L 33.296875 0.5 
L 40.90625 0.5 
z
" id="CMSS17-104"/>
     <path d="M 15.296875 65.359375 
L 6.90625 65.359375 
L 6.90625 57 
L 15.296875 57 
z
M 14.796875 42.796875 
L 7.40625 42.796875 
L 7.40625 0 
L 14.796875 0 
z
" id="CMSS17-105"/>
     <path d="M 44.203125 21.1875 
C 44.203125 34 34.703125 44 23.5 44 
C 12 44 2.703125 33.703125 2.703125 21.1875 
C 2.703125 8.5 12.296875 -1 23.40625 -1 
C 34.796875 -1 44.203125 8.796875 44.203125 21.1875 
M 23.5 5.265625 
C 16.40625 5.265625 10.296875 11.078125 10.296875 22 
C 10.296875 33.609375 17.40625 37.921875 23.40625 37.921875 
C 29.90625 37.921875 36.59375 33.21875 36.59375 22 
C 36.59375 10.671875 30.09375 5.265625 23.5 5.265625 
" id="CMSS17-111"/>
     <path d="M 40.90625 29.328125 
C 40.90625 35.671875 39.40625 44 28.09375 44 
C 21.703125 44 17.5 40.71875 14.703125 37.328125 
L 14.703125 43.09375 
L 7.40625 43.09375 
L 7.40625 0 
L 15 0 
L 15 24.359375 
C 15 30.6875 17.40625 37.9375 24.203125 37.9375 
C 33 37.9375 33.296875 32 33.296875 28.578125 
L 33.296875 0 
L 40.90625 0 
z
" id="CMSS17-110"/>
     <path d="M 39.09375 21.515625 
C 39.09375 24.84375 38.90625 31.296875 35.703125 36.640625 
C 32.203125 42.390625 26.5 44 22.203125 44 
C 11.796875 44 3 34.1875 3 21.484375 
C 3 9.09375 12.09375 -1 23.59375 -1 
C 28.09375 -1 33.59375 0.296875 38.59375 3.875 
C 38.59375 4.28125 38.40625 6.46875 38.296875 6.5625 
C 38.296875 6.765625 38 9.84375 38 10.25 
C 33.203125 6.359375 27.703125 5.078125 23.703125 5.078125 
C 17.296875 5.078125 10.40625 10.421875 10.09375 21.515625 
z
M 10.90625 27 
C 12.203125 32.5625 16.59375 37.828125 22.203125 37.828125 
C 23.703125 37.828125 30.703125 37.828125 32.5 27 
z
" id="CMSS17-101"/>
     <path d="M 15.09375 5.203125 
C 18.40625 2.015625 22.90625 -0.078125 27.703125 -0.078125 
C 37 -0.078125 45 9.421875 45 22.0625 
C 45 33.734375 39 44 30.40625 44 
C 25.40625 44 19.40625 42.21875 14.90625 38.625 
L 14.90625 43.203125 
L 7.5 43.203125 
L 7.5 -19 
L 15.09375 -19 
z
M 15.09375 32.8125 
C 15.90625 34 19.296875 37.734375 24.796875 37.734375 
C 31.796875 37.734375 37.40625 30.625 37.40625 22.0625 
C 37.40625 12.296875 30.59375 6 23.90625 6 
C 21.90625 6 19.796875 6.484375 17.796875 8.171875 
C 15.09375 10.53125 15.09375 12 15.09375 13.390625 
z
" id="CMSS17-112"/>
     <path d="M 40.90625 42.796875 
L 33.296875 42.796875 
L 33.296875 15.1875 
C 33.296875 7.78125 27.90625 4.78125 22.203125 4.78125 
C 15.59375 4.78125 15 6.984375 15 11.078125 
L 15 42.796875 
L 7.40625 42.796875 
L 7.40625 10.59375 
C 7.40625 2.796875 10.09375 -1 17 -1 
C 20.40625 -1 28.09375 -0.203125 33.5 4.78125 
L 33.5 0 
L 40.90625 0 
z
" id="CMSS17-117"/>
     <path d="M 67 29.328125 
C 67 36.0625 65.296875 44 54.09375 44 
C 46.59375 44 42.09375 39.3125 40.09375 36.421875 
C 38.296875 41.71875 34.09375 44 28.09375 44 
C 21.296875 44 17 40.125 14.703125 37.328125 
L 14.703125 43.09375 
L 7.40625 43.09375 
L 7.40625 0 
L 15 0 
L 15 24.359375 
C 15 30.296875 17.203125 37.9375 24.296875 37.9375 
C 33.40625 37.9375 33.40625 31.5 33.40625 28.578125 
L 33.40625 0 
L 41 0 
L 41 24.359375 
C 41 30.296875 43.203125 37.9375 50.296875 37.9375 
C 59.40625 37.9375 59.40625 31.5 59.40625 28.578125 
L 59.40625 0 
L 67 0 
z
" id="CMSS17-109"/>
     <path d="M 36.203125 62 
L 44.5 62 
C 45.703125 62 46.90625 62 48.09375 62 
L 60.59375 62 
L 60.59375 68.375 
L 3.40625 68.375 
L 3.40625 62 
L 15.90625 62 
C 17.09375 62 18.296875 62 19.5 62 
L 27.796875 62 
L 27.796875 -0.5 
L 36.203125 -0.5 
z
" id="CMSS17-84"/>
     <path d="M 11.09375 61.09375 
L 11.09375 68.953125 
L 3.09375 68.953125 
L 3.09375 61 
L 5.59375 61 
L 3 48.5 
L 7 48.5 
z
M 29.40625 61.09375 
L 29.40625 68.953125 
L 21.40625 68.953125 
L 21.40625 61 
L 23.90625 61 
L 21.296875 48.5 
L 25.296875 48.5 
z
" id="CMSS17-34"/>
     <path d="M 32.90625 29 
C 44.90625 29 54.703125 38.328125 54.703125 49.34375 
C 54.703125 60.15625 45.296875 69.578125 32.296875 69.578125 
L 8.90625 69.578125 
L 8.90625 0 
L 17.296875 0 
L 17.296875 29 
z
M 30.09375 64 
C 41.703125 64 46.796875 56.671875 46.796875 49.328125 
C 46.796875 42.5 42.09375 34.78125 30.09375 34.78125 
L 17.09375 34.78125 
L 17.09375 64 
z
" id="CMSS17-80"/>
     <path d="M 25.59375 69.5 
L 21.59375 69.5 
L 17.5 56.875 
L 17.5 49 
L 25.5 49 
L 25.5 56.96875 
L 23 56.96875 
z
M 43.90625 69.5 
L 39.90625 69.5 
L 35.796875 56.875 
L 35.796875 49 
L 43.796875 49 
L 43.796875 56.96875 
L 41.296875 56.96875 
z
" id="CMSS17-92"/>
     <path d="M 8.90625 69 
L 8.90625 0 
L 33.796875 0 
C 47.40625 0 57.296875 8.96875 57.296875 18.75 
C 57.296875 26.328125 50.796875 34 39.09375 36.203125 
C 52.09375 39.96875 54.703125 47.5 54.703125 51.765625 
C 54.703125 60.671875 44.90625 69 31.203125 69 
z
M 17 39 
L 17 63.421875 
L 28.5 63.421875 
C 38.796875 63.421875 46.90625 58.1875 46.90625 51.65625 
C 46.90625 45.71875 40.5 39 27.59375 39 
z
M 17 5.578125 
L 17 32.921875 
L 30.296875 32.921875 
C 41.09375 32.921875 49.40625 26.234375 49.40625 18.84375 
C 49.40625 12.0625 42.09375 5.578125 31 5.578125 
z
" id="CMSS17-66"/>
    </defs>
    <g style="fill:#262626;" transform="translate(209.698226803 31.4147519312)scale(0.35 -0.35)">
     <use transform="scale(0.996264009963)" xlink:href="#CMSS17-84"/>
     <use transform="translate(63.8194539033 0.0)scale(0.996264009963)" xlink:href="#CMSS17-104"/>
     <use transform="translate(112.024397037 0.0)scale(0.996264009963)" xlink:href="#CMSS17-101"/>
     <use transform="translate(184.892331856 0.0)scale(0.996264009963)" xlink:href="#CMSS17-92"/>
     <use transform="translate(231.735955377 0.0)scale(0.996264009963)" xlink:href="#CMSS17-80"/>
     <use transform="translate(288.869087723 0.0)scale(0.996264009963)" xlink:href="#CMSS17-111"/>
     <use transform="translate(335.712711244 0.0)scale(0.996264009963)" xlink:href="#CMSS17-105"/>
     <use transform="translate(357.893434289 0.0)scale(0.996264009963)" xlink:href="#CMSS17-115"/>
     <use transform="translate(393.80697628 0.0)scale(0.996264009963)" xlink:href="#CMSS17-115"/>
     <use transform="translate(429.720518271 0.0)scale(0.996264009963)" xlink:href="#CMSS17-111"/>
     <use transform="translate(476.564141792 0.0)scale(0.996264009963)" xlink:href="#CMSS17-110"/>
     <use transform="translate(555.998197677 0.0)scale(0.996264009963)" xlink:href="#CMSS17-66"/>
     <use transform="translate(618.336237887 0.0)scale(0.996264009963)" xlink:href="#CMSS17-117"/>
     <use transform="translate(666.54118102 0.0)scale(0.996264009963)" xlink:href="#CMSS17-109"/>
     <use transform="translate(740.770435452 0.0)scale(0.996264009963)" xlink:href="#CMSS17-112"/>
     <use transform="translate(788.975378585 0.0)scale(0.996264009963)" xlink:href="#CMSS17-34"/>
     <use transform="translate(867.048114857 0.0)scale(0.996264009963)" xlink:href="#CMSS17-80"/>
     <use transform="translate(926.783701135 0.0)scale(0.996264009963)" xlink:href="#CMSS17-104"/>
     <use transform="translate(974.988644269 0.0)scale(0.996264009963)" xlink:href="#CMSS17-101"/>
     <use transform="translate(1016.62746634 0.0)scale(0.996264009963)" xlink:href="#CMSS17-110"/>
     <use transform="translate(1064.83240947 0.0)scale(0.996264009963)" xlink:href="#CMSS17-111"/>
     <use transform="translate(1111.67603299 0.0)scale(0.996264009963)" xlink:href="#CMSS17-109"/>
     <use transform="translate(1185.90528742 0.0)scale(0.996264009963)" xlink:href="#CMSS17-101"/>
     <use transform="translate(1227.54410949 0.0)scale(0.996264009963)" xlink:href="#CMSS17-110"/>
     <use transform="translate(1275.74905262 0.0)scale(0.996264009963)" xlink:href="#CMSS17-111"/>
     <use transform="translate(1322.59267615 0.0)scale(0.996264009963)" xlink:href="#CMSS17-110"/>
    </g>
   </g>
  </g>
  <g id="axes_2">
   <g id="patch_7">
    <path d="M 341.587734 357.714752 
L 701.587734 357.714752 
L 701.587734 187.614752 
L 341.587734 187.614752 
z
" style="fill:#eaeaf2;"/>
   </g>
   <g id="matplotlib.axis_3">
    <g id="xtick_17">
     <g id="line2d_72">
      <path clip-path="url(#pf12fd0bb71)" d="M 341.587734 357.714752 
L 341.587734 187.614752 
" style="fill:none;stroke:#808080;stroke-linecap:round;stroke-width:0.8;"/>
     </g>
     <g id="line2d_73">
      <g>
       <use style="fill:#262626;stroke:#262626;stroke-width:0.8;" x="341.587734168" xlink:href="#mb2586c5d16" y="357.714751931"/>
      </g>
     </g>
     <g id="line2d_74">
      <g>
       <use style="fill:#262626;stroke:#262626;stroke-width:0.8;" x="341.587734168" xlink:href="#mb2586c5d16" y="187.614751931"/>
      </g>
     </g>
     <g id="text_27">
      <!-- $0$ -->
      <g style="fill:#262626;" transform="translate(336.606414118 377.151748691)scale(0.2 -0.2)">
       <use transform="scale(0.996264009963)" xlink:href="#URW_Palladio_L_Roman-48"/>
      </g>
     </g>
    </g>
    <g id="xtick_18">
     <g id="line2d_75">
      <path clip-path="url(#pf12fd0bb71)" d="M 413.444022 357.714752 
L 413.444022 187.614752 
" style="fill:none;stroke:#808080;stroke-linecap:round;stroke-width:0.8;"/>
     </g>
     <g id="line2d_76">
      <g>
       <use style="fill:#262626;stroke:#262626;stroke-width:0.8;" x="413.444021593" xlink:href="#mb2586c5d16" y="357.714751931"/>
      </g>
     </g>
     <g id="line2d_77">
      <g>
       <use style="fill:#262626;stroke:#262626;stroke-width:0.8;" x="413.444021593" xlink:href="#mb2586c5d16" y="187.614751931"/>
      </g>
     </g>
     <g id="text_28">
      <!-- $1$ -->
      <g style="fill:#262626;" transform="translate(408.462701544 377.151748691)scale(0.2 -0.2)">
       <use transform="scale(0.996264009963)" xlink:href="#URW_Palladio_L_Roman-49"/>
      </g>
     </g>
    </g>
    <g id="xtick_19">
     <g id="line2d_78">
      <path clip-path="url(#pf12fd0bb71)" d="M 485.300309 357.714752 
L 485.300309 187.614752 
" style="fill:none;stroke:#808080;stroke-linecap:round;stroke-width:0.8;"/>
     </g>
     <g id="line2d_79">
      <g>
       <use style="fill:#262626;stroke:#262626;stroke-width:0.8;" x="485.300309019" xlink:href="#mb2586c5d16" y="357.714751931"/>
      </g>
     </g>
     <g id="line2d_80">
      <g>
       <use style="fill:#262626;stroke:#262626;stroke-width:0.8;" x="485.300309019" xlink:href="#mb2586c5d16" y="187.614751931"/>
      </g>
     </g>
     <g id="text_29">
      <!-- $2$ -->
      <g style="fill:#262626;" transform="translate(480.318988969 377.151748691)scale(0.2 -0.2)">
       <use transform="scale(0.996264009963)" xlink:href="#URW_Palladio_L_Roman-50"/>
      </g>
     </g>
    </g>
    <g id="xtick_20">
     <g id="line2d_81">
      <path clip-path="url(#pf12fd0bb71)" d="M 557.156596 357.714752 
L 557.156596 187.614752 
" style="fill:none;stroke:#808080;stroke-linecap:round;stroke-width:0.8;"/>
     </g>
     <g id="line2d_82">
      <g>
       <use style="fill:#262626;stroke:#262626;stroke-width:0.8;" x="557.156596444" xlink:href="#mb2586c5d16" y="357.714751931"/>
      </g>
     </g>
     <g id="line2d_83">
      <g>
       <use style="fill:#262626;stroke:#262626;stroke-width:0.8;" x="557.156596444" xlink:href="#mb2586c5d16" y="187.614751931"/>
      </g>
     </g>
     <g id="text_30">
      <!-- $3$ -->
      <g style="fill:#262626;" transform="translate(552.175276394 377.151748691)scale(0.2 -0.2)">
       <use transform="scale(0.996264009963)" xlink:href="#URW_Palladio_L_Roman-51"/>
      </g>
     </g>
    </g>
    <g id="xtick_21">
     <g id="line2d_84">
      <path clip-path="url(#pf12fd0bb71)" d="M 629.012884 357.714752 
L 629.012884 187.614752 
" style="fill:none;stroke:#808080;stroke-linecap:round;stroke-width:0.8;"/>
     </g>
     <g id="line2d_85">
      <g>
       <use style="fill:#262626;stroke:#262626;stroke-width:0.8;" x="629.012883869" xlink:href="#mb2586c5d16" y="357.714751931"/>
      </g>
     </g>
     <g id="line2d_86">
      <g>
       <use style="fill:#262626;stroke:#262626;stroke-width:0.8;" x="629.012883869" xlink:href="#mb2586c5d16" y="187.614751931"/>
      </g>
     </g>
     <g id="text_31">
      <!-- $4$ -->
      <g style="fill:#262626;" transform="translate(624.031563819 377.151748691)scale(0.2 -0.2)">
       <use transform="scale(0.996264009963)" xlink:href="#URW_Palladio_L_Roman-52"/>
      </g>
     </g>
    </g>
    <g id="xtick_22">
     <g id="line2d_87">
      <path clip-path="url(#pf12fd0bb71)" d="M 700.869171 357.714752 
L 700.869171 187.614752 
" style="fill:none;stroke:#808080;stroke-linecap:round;stroke-width:0.8;"/>
     </g>
     <g id="line2d_88">
      <g>
       <use style="fill:#262626;stroke:#262626;stroke-width:0.8;" x="700.869171294" xlink:href="#mb2586c5d16" y="357.714751931"/>
      </g>
     </g>
     <g id="line2d_89">
      <g>
       <use style="fill:#262626;stroke:#262626;stroke-width:0.8;" x="700.869171294" xlink:href="#mb2586c5d16" y="187.614751931"/>
      </g>
     </g>
     <g id="text_32">
      <!-- $5$ -->
      <g style="fill:#262626;" transform="translate(695.887851244 377.151748691)scale(0.2 -0.2)">
       <use transform="scale(0.996264009963)" xlink:href="#URW_Palladio_L_Roman-53"/>
      </g>
     </g>
    </g>
   </g>
   <g id="matplotlib.axis_4">
    <g id="ytick_8">
     <g id="line2d_90">
      <path clip-path="url(#pf12fd0bb71)" d="M 341.587734 357.714752 
L 701.587734 357.714752 
" style="fill:none;stroke:#808080;stroke-linecap:round;stroke-width:0.8;"/>
     </g>
     <g id="line2d_91">
      <g>
       <use style="fill:#262626;stroke:#262626;stroke-width:0.8;" x="341.587734168" xlink:href="#mb2586c5d16" y="357.714751931"/>
      </g>
     </g>
     <g id="line2d_92">
      <g>
       <use style="fill:#262626;stroke:#262626;stroke-width:0.8;" x="701.587734168" xlink:href="#mb2586c5d16" y="357.714751931"/>
      </g>
     </g>
     <g id="text_33">
      <!-- $0.90$ -->
      <g style="fill:#262626;" transform="translate(301.11849382 362.695433506)scale(0.2 -0.2)">
       <use transform="scale(0.996264009963)" xlink:href="#URW_Palladio_L_Roman-48"/>
       <use transform="translate(49.8132004981 0.0)scale(0.996264009963)" xlink:href="#URW_Palladio_L_Roman-46"/>
       <use transform="translate(74.7198007472 0.0)scale(0.996264009963)" xlink:href="#URW_Palladio_L_Roman-57"/>
       <use transform="translate(124.533001245 0.0)scale(0.996264009963)" xlink:href="#URW_Palladio_L_Roman-48"/>
      </g>
     </g>
    </g>
    <g id="ytick_9">
     <g id="line2d_93">
      <path clip-path="url(#pf12fd0bb71)" d="M 341.587734 330.279268 
L 701.587734 330.279268 
" style="fill:none;stroke:#808080;stroke-linecap:round;stroke-width:0.8;"/>
     </g>
     <g id="line2d_94">
      <g>
       <use style="fill:#262626;stroke:#262626;stroke-width:0.8;" x="341.587734168" xlink:href="#mb2586c5d16" y="330.27926806"/>
      </g>
     </g>
     <g id="line2d_95">
      <g>
       <use style="fill:#262626;stroke:#262626;stroke-width:0.8;" x="701.587734168" xlink:href="#mb2586c5d16" y="330.27926806"/>
      </g>
     </g>
     <g id="text_34">
      <!-- $0.95$ -->
      <g style="fill:#262626;" transform="translate(301.11849382 335.259949635)scale(0.2 -0.2)">
       <use transform="scale(0.996264009963)" xlink:href="#URW_Palladio_L_Roman-48"/>
       <use transform="translate(49.8132004981 0.0)scale(0.996264009963)" xlink:href="#URW_Palladio_L_Roman-46"/>
       <use transform="translate(74.7198007472 0.0)scale(0.996264009963)" xlink:href="#URW_Palladio_L_Roman-57"/>
       <use transform="translate(124.533001245 0.0)scale(0.996264009963)" xlink:href="#URW_Palladio_L_Roman-53"/>
      </g>
     </g>
    </g>
    <g id="ytick_10">
     <g id="line2d_96">
      <path clip-path="url(#pf12fd0bb71)" d="M 341.587734 302.843784 
L 701.587734 302.843784 
" style="fill:none;stroke:#808080;stroke-linecap:round;stroke-width:0.8;"/>
     </g>
     <g id="line2d_97">
      <g>
       <use style="fill:#262626;stroke:#262626;stroke-width:0.8;" x="341.587734168" xlink:href="#mb2586c5d16" y="302.843784189"/>
      </g>
     </g>
     <g id="line2d_98">
      <g>
       <use style="fill:#262626;stroke:#262626;stroke-width:0.8;" x="701.587734168" xlink:href="#mb2586c5d16" y="302.843784189"/>
      </g>
     </g>
     <g id="text_35">
      <!-- $1.00$ -->
      <g style="fill:#262626;" transform="translate(301.11849382 307.824465764)scale(0.2 -0.2)">
       <use transform="scale(0.996264009963)" xlink:href="#URW_Palladio_L_Roman-49"/>
       <use transform="translate(49.8132004981 0.0)scale(0.996264009963)" xlink:href="#URW_Palladio_L_Roman-46"/>
       <use transform="translate(74.7198007472 0.0)scale(0.996264009963)" xlink:href="#URW_Palladio_L_Roman-48"/>
       <use transform="translate(124.533001245 0.0)scale(0.996264009963)" xlink:href="#URW_Palladio_L_Roman-48"/>
      </g>
     </g>
    </g>
    <g id="ytick_11">
     <g id="line2d_99">
      <path clip-path="url(#pf12fd0bb71)" d="M 341.587734 275.4083 
L 701.587734 275.4083 
" style="fill:none;stroke:#808080;stroke-linecap:round;stroke-width:0.8;"/>
     </g>
     <g id="line2d_100">
      <g>
       <use style="fill:#262626;stroke:#262626;stroke-width:0.8;" x="341.587734168" xlink:href="#mb2586c5d16" y="275.408300318"/>
      </g>
     </g>
     <g id="line2d_101">
      <g>
       <use style="fill:#262626;stroke:#262626;stroke-width:0.8;" x="701.587734168" xlink:href="#mb2586c5d16" y="275.408300318"/>
      </g>
     </g>
     <g id="text_36">
      <!-- $1.05$ -->
      <g style="fill:#262626;" transform="translate(301.11849382 280.388981893)scale(0.2 -0.2)">
       <use transform="scale(0.996264009963)" xlink:href="#URW_Palladio_L_Roman-49"/>
       <use transform="translate(49.8132004981 0.0)scale(0.996264009963)" xlink:href="#URW_Palladio_L_Roman-46"/>
       <use transform="translate(74.7198007472 0.0)scale(0.996264009963)" xlink:href="#URW_Palladio_L_Roman-48"/>
       <use transform="translate(124.533001245 0.0)scale(0.996264009963)" xlink:href="#URW_Palladio_L_Roman-53"/>
      </g>
     </g>
    </g>
    <g id="ytick_12">
     <g id="line2d_102">
      <path clip-path="url(#pf12fd0bb71)" d="M 341.587734 247.972816 
L 701.587734 247.972816 
" style="fill:none;stroke:#808080;stroke-linecap:round;stroke-width:0.8;"/>
     </g>
     <g id="line2d_103">
      <g>
       <use style="fill:#262626;stroke:#262626;stroke-width:0.8;" x="341.587734168" xlink:href="#mb2586c5d16" y="247.972816447"/>
      </g>
     </g>
     <g id="line2d_104">
      <g>
       <use style="fill:#262626;stroke:#262626;stroke-width:0.8;" x="701.587734168" xlink:href="#mb2586c5d16" y="247.972816447"/>
      </g>
     </g>
     <g id="text_37">
      <!-- $1.10$ -->
      <g style="fill:#262626;" transform="translate(301.11849382 252.953498022)scale(0.2 -0.2)">
       <use transform="scale(0.996264009963)" xlink:href="#URW_Palladio_L_Roman-49"/>
       <use transform="translate(49.8132004981 0.0)scale(0.996264009963)" xlink:href="#URW_Palladio_L_Roman-46"/>
       <use transform="translate(74.7198007472 0.0)scale(0.996264009963)" xlink:href="#URW_Palladio_L_Roman-49"/>
       <use transform="translate(124.533001245 0.0)scale(0.996264009963)" xlink:href="#URW_Palladio_L_Roman-48"/>
      </g>
     </g>
    </g>
    <g id="ytick_13">
     <g id="line2d_105">
      <path clip-path="url(#pf12fd0bb71)" d="M 341.587734 220.537333 
L 701.587734 220.537333 
" style="fill:none;stroke:#808080;stroke-linecap:round;stroke-width:0.8;"/>
     </g>
     <g id="line2d_106">
      <g>
       <use style="fill:#262626;stroke:#262626;stroke-width:0.8;" x="341.587734168" xlink:href="#mb2586c5d16" y="220.537332576"/>
      </g>
     </g>
     <g id="line2d_107">
      <g>
       <use style="fill:#262626;stroke:#262626;stroke-width:0.8;" x="701.587734168" xlink:href="#mb2586c5d16" y="220.537332576"/>
      </g>
     </g>
     <g id="text_38">
      <!-- $1.15$ -->
      <g style="fill:#262626;" transform="translate(301.11849382 225.518014151)scale(0.2 -0.2)">
       <use transform="scale(0.996264009963)" xlink:href="#URW_Palladio_L_Roman-49"/>
       <use transform="translate(49.8132004981 0.0)scale(0.996264009963)" xlink:href="#URW_Palladio_L_Roman-46"/>
       <use transform="translate(74.7198007472 0.0)scale(0.996264009963)" xlink:href="#URW_Palladio_L_Roman-49"/>
       <use transform="translate(124.533001245 0.0)scale(0.996264009963)" xlink:href="#URW_Palladio_L_Roman-53"/>
      </g>
     </g>
    </g>
    <g id="ytick_14">
     <g id="line2d_108">
      <path clip-path="url(#pf12fd0bb71)" d="M 341.587734 193.101849 
L 701.587734 193.101849 
" style="fill:none;stroke:#808080;stroke-linecap:round;stroke-width:0.8;"/>
     </g>
     <g id="line2d_109">
      <g>
       <use style="fill:#262626;stroke:#262626;stroke-width:0.8;" x="341.587734168" xlink:href="#mb2586c5d16" y="193.101848705"/>
      </g>
     </g>
     <g id="line2d_110">
      <g>
       <use style="fill:#262626;stroke:#262626;stroke-width:0.8;" x="701.587734168" xlink:href="#mb2586c5d16" y="193.101848705"/>
      </g>
     </g>
     <g id="text_39">
      <!-- $1.20$ -->
      <g style="fill:#262626;" transform="translate(301.11849382 198.08253028)scale(0.2 -0.2)">
       <use transform="scale(0.996264009963)" xlink:href="#URW_Palladio_L_Roman-49"/>
       <use transform="translate(49.8132004981 0.0)scale(0.996264009963)" xlink:href="#URW_Palladio_L_Roman-46"/>
       <use transform="translate(74.7198007472 0.0)scale(0.996264009963)" xlink:href="#URW_Palladio_L_Roman-50"/>
       <use transform="translate(124.533001245 0.0)scale(0.996264009963)" xlink:href="#URW_Palladio_L_Roman-48"/>
      </g>
     </g>
    </g>
   </g>
   <g id="line2d_111">
    <path d="M 373.923064 316.385494 
L 377.225549 300.293011 
L 380.528035 286.490594 
L 383.830521 274.641882 
L 387.133007 264.470842 
L 390.435493 255.748218 
L 393.737979 248.281675 
L 397.040465 241.908466 
L 400.342951 236.489866 
L 403.645437 231.906875 
L 406.947923 228.056853 
L 410.250409 224.850839 
L 413.552895 222.211407 
L 416.855381 220.070914 
L 420.157867 218.370075 
L 423.460353 217.056776 
L 426.762839 216.085089 
L 430.065324 215.414448 
L 433.36781 215.00895 
L 436.670296 214.836762 
L 439.972782 214.869616 
L 443.275268 215.082381 
L 446.577754 215.452681 
L 449.88024 215.96058 
L 453.182726 216.5883 
L 456.485212 217.319973 
L 459.787698 218.141436 
L 463.090184 219.040038 
L 466.39267 220.004476 
L 469.695156 221.024655 
L 472.997642 222.091557 
L 476.300128 223.197127 
L 479.602614 224.334176 
L 482.905099 225.496289 
L 486.207585 226.677749 
L 489.510071 227.873461 
L 492.812557 229.078896 
L 496.115043 230.290026 
L 499.417529 231.503282 
L 502.720015 232.715503 
L 506.022501 233.923895 
L 509.324987 235.126 
L 512.627473 236.319656 
L 515.929959 237.502973 
L 519.232445 238.6743 
L 522.534931 239.83221 
L 525.837417 240.975469 
L 529.139903 242.103022 
L 532.442388 243.213973 
L 535.744874 244.307568 
L 539.04736 245.383185 
L 542.349846 246.440315 
L 545.652332 247.478555 
L 548.954818 248.497592 
L 552.257304 249.4972 
L 555.55979 250.477224 
L 558.862276 251.437578 
L 562.164762 252.378233 
L 565.467248 253.299214 
L 568.769734 254.200591 
L 572.07222 255.082478 
L 575.374706 255.945022 
L 578.677192 256.788404 
L 581.979678 257.612831 
L 585.282163 258.418537 
L 588.584649 259.205773 
L 591.887135 259.974811 
L 595.189621 260.725937 
L 598.492107 261.459451 
L 601.794593 262.175661 
L 605.097079 262.874887 
L 608.399565 263.557453 
L 611.702051 264.22369 
L 615.004537 264.873932 
L 618.307023 265.508517 
L 621.609509 266.127782 
L 624.911995 266.732067 
L 628.214481 267.32171 
L 631.516967 267.897049 
L 634.819453 268.458417 
L 638.121938 269.006148 
L 641.424424 269.540571 
L 644.72691 270.062011 
L 648.029396 270.57079 
L 651.331882 271.067225 
L 654.634368 271.551628 
L 657.936854 272.024306 
L 661.23934 272.485561 
L 664.541826 272.935689 
L 667.844312 273.374982 
L 671.146798 273.803723 
L 674.449284 274.222192 
L 677.75177 274.630662 
L 681.054256 275.029401 
L 684.356742 275.418669 
L 687.659228 275.798722 
L 690.961713 276.16981 
L 694.264199 276.532175 
L 697.566685 276.886055 
L 700.869171 277.231681 
" style="fill:none;stroke:#001c7f;stroke-linecap:round;stroke-width:4.0;"/>
   </g>
   <g id="line2d_112">
    <path clip-path="url(#pf12fd0bb71)" d="M 341.587734 302.843784 
L 381.507894 302.843784 
L 421.428054 302.843784 
L 461.348213 302.843784 
L 501.268373 302.843784 
L 541.188533 302.843784 
L 581.108692 302.843784 
L 621.028852 302.843784 
L 660.949012 302.843784 
L 700.869171 302.843784 
" style="fill:none;stroke:#017517;stroke-dasharray:6.000000,6.000000;stroke-dashoffset:0.0;stroke-width:3.0;"/>
   </g>
   <g id="patch_8">
    <path d="M 341.587734 187.614752 
L 701.587734 187.614752 
" style="fill:none;"/>
   </g>
   <g id="patch_9">
    <path d="M 701.587734 357.714752 
L 701.587734 187.614752 
" style="fill:none;"/>
   </g>
   <g id="patch_10">
    <path d="M 341.587734 357.714752 
L 701.587734 357.714752 
" style="fill:none;"/>
   </g>
   <g id="patch_11">
    <path d="M 341.587734 357.714752 
L 341.587734 187.614752 
" style="fill:none;"/>
   </g>
  </g>
 </g>
 <defs>
  <clipPath id="p881d646de3">
   <rect height="378.0" width="720.0" x="89.5877341683" y="36.4147519312"/>
  </clipPath>
  <clipPath id="pf12fd0bb71">
   <rect height="170.1" width="360.0" x="341.587734168" y="187.614751931"/>
  </clipPath>
 </defs>
</svg>
