<?xml version="1.0" encoding="utf-8" standalone="no"?>
<!DOCTYPE svg PUBLIC "-//W3C//DTD SVG 1.1//EN"
  "http://www.w3.org/Graphics/SVG/1.1/DTD/svg11.dtd">
<!-- Created with matplotlib (http://matplotlib.org/) -->
<svg height="670pt" version="1.1" viewBox="0 0 1245 670" width="1245pt" xmlns="http://www.w3.org/2000/svg" xmlns:xlink="http://www.w3.org/1999/xlink">
 <defs>
  <style type="text/css">
*{stroke-linecap:butt;stroke-linejoin:round;stroke-miterlimit:100000;}
  </style>
 </defs>
 <g id="figure_1">
  <g id="patch_1">
   <path d="M 0 670.550034 
L 1245.6 670.550034 
L 1245.6 0 
L 0 0 
z
" style="fill:#ffffff;"/>
  </g>
  <g id="axes_1">
   <g id="patch_2">
    <path d="M 639 663.350034 
L 1238.4 663.350034 
L 1238.4 57.848313 
L 639 57.848313 
z
" style="fill:#eaeaf2;"/>
   </g>
   <g id="matplotlib.axis_1">
    <g id="xtick_1">
     <g id="line2d_1">
      <defs>
       <path d="M 0 0 
L 0 0 
" id="mbc1e58d734" style="stroke:#262626;"/>
      </defs>
      <g>
       <use style="fill:#262626;stroke:#262626;" x="676.4625" xlink:href="#mbc1e58d734" y="663.350034426"/>
      </g>
     </g>
    </g>
    <g id="xtick_2">
     <g id="line2d_2">
      <g>
       <use style="fill:#262626;stroke:#262626;" x="751.3875" xlink:href="#mbc1e58d734" y="663.350034426"/>
      </g>
     </g>
    </g>
    <g id="xtick_3">
     <g id="line2d_3">
      <g>
       <use style="fill:#262626;stroke:#262626;" x="826.3125" xlink:href="#mbc1e58d734" y="663.350034426"/>
      </g>
     </g>
    </g>
    <g id="xtick_4">
     <g id="line2d_4">
      <g>
       <use style="fill:#262626;stroke:#262626;" x="901.2375" xlink:href="#mbc1e58d734" y="663.350034426"/>
      </g>
     </g>
    </g>
    <g id="xtick_5">
     <g id="line2d_5">
      <g>
       <use style="fill:#262626;stroke:#262626;" x="976.1625" xlink:href="#mbc1e58d734" y="663.350034426"/>
      </g>
     </g>
    </g>
    <g id="xtick_6">
     <g id="line2d_6">
      <g>
       <use style="fill:#262626;stroke:#262626;" x="1051.0875" xlink:href="#mbc1e58d734" y="663.350034426"/>
      </g>
     </g>
    </g>
    <g id="xtick_7">
     <g id="line2d_7">
      <g>
       <use style="fill:#262626;stroke:#262626;" x="1126.0125" xlink:href="#mbc1e58d734" y="663.350034426"/>
      </g>
     </g>
    </g>
    <g id="xtick_8">
     <g id="line2d_8">
      <g>
       <use style="fill:#262626;stroke:#262626;" x="1200.9375" xlink:href="#mbc1e58d734" y="663.350034426"/>
      </g>
     </g>
    </g>
   </g>
   <g id="matplotlib.axis_2">
    <g id="ytick_1">
     <g id="line2d_9">
      <g>
       <use style="fill:#262626;stroke:#262626;" x="639.0" xlink:href="#mbc1e58d734" y="625.506176845"/>
      </g>
     </g>
    </g>
    <g id="ytick_2">
     <g id="line2d_10">
      <g>
       <use style="fill:#262626;stroke:#262626;" x="639.0" xlink:href="#mbc1e58d734" y="549.818461682"/>
      </g>
     </g>
    </g>
    <g id="ytick_3">
     <g id="line2d_11">
      <g>
       <use style="fill:#262626;stroke:#262626;" x="639.0" xlink:href="#mbc1e58d734" y="474.130746519"/>
      </g>
     </g>
    </g>
    <g id="ytick_4">
     <g id="line2d_12">
      <g>
       <use style="fill:#262626;stroke:#262626;" x="639.0" xlink:href="#mbc1e58d734" y="398.443031356"/>
      </g>
     </g>
    </g>
    <g id="ytick_5">
     <g id="line2d_13">
      <g>
       <use style="fill:#262626;stroke:#262626;" x="639.0" xlink:href="#mbc1e58d734" y="322.755316193"/>
      </g>
     </g>
    </g>
    <g id="ytick_6">
     <g id="line2d_14">
      <g>
       <use style="fill:#262626;stroke:#262626;" x="639.0" xlink:href="#mbc1e58d734" y="247.06760103"/>
      </g>
     </g>
    </g>
    <g id="ytick_7">
     <g id="line2d_15">
      <g>
       <use style="fill:#262626;stroke:#262626;" x="639.0" xlink:href="#mbc1e58d734" y="171.379885867"/>
      </g>
     </g>
    </g>
    <g id="ytick_8">
     <g id="line2d_16">
      <g>
       <use style="fill:#262626;stroke:#262626;" x="639.0" xlink:href="#mbc1e58d734" y="95.6921707037"/>
      </g>
     </g>
    </g>
   </g>
   <g id="QuadMesh_1">
    <path clip-path="url(#p1ec29c1382)" d="M 639 663.350034 
L 713.925 663.350034 
L 713.925 587.662319 
L 639 587.662319 
L 639 663.350034 
" style="fill:#f9f1ec;"/>
    <path clip-path="url(#p1ec29c1382)" d="M 713.925 663.350034 
L 788.85 663.350034 
L 788.85 587.662319 
L 713.925 587.662319 
L 713.925 663.350034 
" style="fill:#f9f1ec;"/>
    <path clip-path="url(#p1ec29c1382)" d="M 788.85 663.350034 
L 863.775 663.350034 
L 863.775 587.662319 
L 788.85 587.662319 
L 788.85 663.350034 
" style="fill:#f9f1ec;"/>
    <path clip-path="url(#p1ec29c1382)" d="M 863.775 663.350034 
L 938.7 663.350034 
L 938.7 587.662319 
L 863.775 587.662319 
L 863.775 663.350034 
" style="fill:#f9f1ec;"/>
    <path clip-path="url(#p1ec29c1382)" d="M 938.7 663.350034 
L 1013.625 663.350034 
L 1013.625 587.662319 
L 938.7 587.662319 
L 938.7 663.350034 
" style="fill:#f9f1ec;"/>
    <path clip-path="url(#p1ec29c1382)" d="M 1013.625 663.350034 
L 1088.55 663.350034 
L 1088.55 587.662319 
L 1013.625 587.662319 
L 1013.625 663.350034 
" style="fill:#f9f1ec;"/>
    <path clip-path="url(#p1ec29c1382)" d="M 1088.55 663.350034 
L 1163.475 663.350034 
L 1163.475 587.662319 
L 1088.55 587.662319 
L 1088.55 663.350034 
" style="fill:#f9f1ec;"/>
    <path clip-path="url(#p1ec29c1382)" d="M 1163.475 663.350034 
L 1238.4 663.350034 
L 1238.4 587.662319 
L 1163.475 587.662319 
L 1163.475 663.350034 
" style="fill:#f9f1ec;"/>
    <path clip-path="url(#p1ec29c1382)" d="M 639 587.662319 
L 713.925 587.662319 
L 713.925 511.974604 
L 639 511.974604 
L 639 587.662319 
" style="fill:#f9f1ec;"/>
    <path clip-path="url(#p1ec29c1382)" d="M 713.925 587.662319 
L 788.85 587.662319 
L 788.85 511.974604 
L 713.925 511.974604 
L 713.925 587.662319 
" style="fill:#f9f1ec;"/>
    <path clip-path="url(#p1ec29c1382)" d="M 788.85 587.662319 
L 863.775 587.662319 
L 863.775 511.974604 
L 788.85 511.974604 
L 788.85 587.662319 
" style="fill:#f9f1ec;"/>
    <path clip-path="url(#p1ec29c1382)" d="M 863.775 587.662319 
L 938.7 587.662319 
L 938.7 511.974604 
L 863.775 511.974604 
L 863.775 587.662319 
" style="fill:#f9f1ec;"/>
    <path clip-path="url(#p1ec29c1382)" d="M 938.7 587.662319 
L 1013.625 587.662319 
L 1013.625 511.974604 
L 938.7 511.974604 
L 938.7 587.662319 
" style="fill:#f9f1ec;"/>
    <path clip-path="url(#p1ec29c1382)" d="M 1013.625 587.662319 
L 1088.55 587.662319 
L 1088.55 511.974604 
L 1013.625 511.974604 
L 1013.625 587.662319 
" style="fill:#f9f1ec;"/>
    <path clip-path="url(#p1ec29c1382)" d="M 1088.55 587.662319 
L 1163.475 587.662319 
L 1163.475 511.974604 
L 1088.55 511.974604 
L 1088.55 587.662319 
" style="fill:#f9f1ec;"/>
    <path clip-path="url(#p1ec29c1382)" d="M 1163.475 587.662319 
L 1238.4 587.662319 
L 1238.4 511.974604 
L 1163.475 511.974604 
L 1163.475 587.662319 
" style="fill:#f9f1ec;"/>
    <path clip-path="url(#p1ec29c1382)" d="M 639 511.974604 
L 713.925 511.974604 
L 713.925 436.286889 
L 639 436.286889 
L 639 511.974604 
" style="fill:#f9f1ec;"/>
    <path clip-path="url(#p1ec29c1382)" d="M 713.925 511.974604 
L 788.85 511.974604 
L 788.85 436.286889 
L 713.925 436.286889 
L 713.925 511.974604 
" style="fill:#f9f1ec;"/>
    <path clip-path="url(#p1ec29c1382)" d="M 788.85 511.974604 
L 863.775 511.974604 
L 863.775 436.286889 
L 788.85 436.286889 
L 788.85 511.974604 
" style="fill:#f9f1ec;"/>
    <path clip-path="url(#p1ec29c1382)" d="M 863.775 511.974604 
L 938.7 511.974604 
L 938.7 436.286889 
L 863.775 436.286889 
L 863.775 511.974604 
" style="fill:#f9f1ec;"/>
    <path clip-path="url(#p1ec29c1382)" d="M 938.7 511.974604 
L 1013.625 511.974604 
L 1013.625 436.286889 
L 938.7 436.286889 
L 938.7 511.974604 
" style="fill:#f9f1ec;"/>
    <path clip-path="url(#p1ec29c1382)" d="M 1013.625 511.974604 
L 1088.55 511.974604 
L 1088.55 436.286889 
L 1013.625 436.286889 
L 1013.625 511.974604 
" style="fill:#f9f1ec;"/>
    <path clip-path="url(#p1ec29c1382)" d="M 1088.55 511.974604 
L 1163.475 511.974604 
L 1163.475 436.286889 
L 1088.55 436.286889 
L 1088.55 511.974604 
" style="fill:#f9f1ec;"/>
    <path clip-path="url(#p1ec29c1382)" d="M 1163.475 511.974604 
L 1238.4 511.974604 
L 1238.4 436.286889 
L 1163.475 436.286889 
L 1163.475 511.974604 
" style="fill:#f9f1ec;"/>
    <path clip-path="url(#p1ec29c1382)" d="M 639 436.286889 
L 713.925 436.286889 
L 713.925 360.599174 
L 639 360.599174 
L 639 436.286889 
" style="fill:#f9f1ec;"/>
    <path clip-path="url(#p1ec29c1382)" d="M 713.925 436.286889 
L 788.85 436.286889 
L 788.85 360.599174 
L 713.925 360.599174 
L 713.925 436.286889 
" style="fill:#f9f1ec;"/>
    <path clip-path="url(#p1ec29c1382)" d="M 788.85 436.286889 
L 863.775 436.286889 
L 863.775 360.599174 
L 788.85 360.599174 
L 788.85 436.286889 
" style="fill:#f9f1ec;"/>
    <path clip-path="url(#p1ec29c1382)" d="M 863.775 436.286889 
L 938.7 436.286889 
L 938.7 360.599174 
L 863.775 360.599174 
L 863.775 436.286889 
" style="fill:#f9f1ec;"/>
    <path clip-path="url(#p1ec29c1382)" d="M 938.7 436.286889 
L 1013.625 436.286889 
L 1013.625 360.599174 
L 938.7 360.599174 
L 938.7 436.286889 
" style="fill:#f9f1ec;"/>
    <path clip-path="url(#p1ec29c1382)" d="M 1013.625 436.286889 
L 1088.55 436.286889 
L 1088.55 360.599174 
L 1013.625 360.599174 
L 1013.625 436.286889 
" style="fill:#f9f1ec;"/>
    <path clip-path="url(#p1ec29c1382)" d="M 1088.55 436.286889 
L 1163.475 436.286889 
L 1163.475 360.599174 
L 1088.55 360.599174 
L 1088.55 436.286889 
" style="fill:#f9f1ec;"/>
    <path clip-path="url(#p1ec29c1382)" d="M 1163.475 436.286889 
L 1238.4 436.286889 
L 1238.4 360.599174 
L 1163.475 360.599174 
L 1163.475 436.286889 
" style="fill:#f9f1ec;"/>
    <path clip-path="url(#p1ec29c1382)" d="M 639 360.599174 
L 713.925 360.599174 
L 713.925 284.911459 
L 639 284.911459 
L 639 360.599174 
" style="fill:#f9f1ec;"/>
    <path clip-path="url(#p1ec29c1382)" d="M 713.925 360.599174 
L 788.85 360.599174 
L 788.85 284.911459 
L 713.925 284.911459 
L 713.925 360.599174 
" style="fill:#f9f1ec;"/>
    <path clip-path="url(#p1ec29c1382)" d="M 788.85 360.599174 
L 863.775 360.599174 
L 863.775 284.911459 
L 788.85 284.911459 
L 788.85 360.599174 
" style="fill:#f9f1ec;"/>
    <path clip-path="url(#p1ec29c1382)" d="M 863.775 360.599174 
L 938.7 360.599174 
L 938.7 284.911459 
L 863.775 284.911459 
L 863.775 360.599174 
" style="fill:#f9f1ec;"/>
    <path clip-path="url(#p1ec29c1382)" d="M 938.7 360.599174 
L 1013.625 360.599174 
L 1013.625 284.911459 
L 938.7 284.911459 
L 938.7 360.599174 
" style="fill:#f9f1ec;"/>
    <path clip-path="url(#p1ec29c1382)" d="M 1013.625 360.599174 
L 1088.55 360.599174 
L 1088.55 284.911459 
L 1013.625 284.911459 
L 1013.625 360.599174 
" style="fill:#f9f1ec;"/>
    <path clip-path="url(#p1ec29c1382)" d="M 1088.55 360.599174 
L 1163.475 360.599174 
L 1163.475 284.911459 
L 1088.55 284.911459 
L 1088.55 360.599174 
" style="fill:#f9f1ec;"/>
    <path clip-path="url(#p1ec29c1382)" d="M 1163.475 360.599174 
L 1238.4 360.599174 
L 1238.4 284.911459 
L 1163.475 284.911459 
L 1163.475 360.599174 
" style="fill:#f9f1ec;"/>
    <path clip-path="url(#p1ec29c1382)" d="M 639 284.911459 
L 713.925 284.911459 
L 713.925 209.223743 
L 639 209.223743 
L 639 284.911459 
" style="fill:#f9f1ec;"/>
    <path clip-path="url(#p1ec29c1382)" d="M 713.925 284.911459 
L 788.85 284.911459 
L 788.85 209.223743 
L 713.925 209.223743 
L 713.925 284.911459 
" style="fill:#f9f1ec;"/>
    <path clip-path="url(#p1ec29c1382)" d="M 788.85 284.911459 
L 863.775 284.911459 
L 863.775 209.223743 
L 788.85 209.223743 
L 788.85 284.911459 
" style="fill:#f9f1ec;"/>
    <path clip-path="url(#p1ec29c1382)" d="M 863.775 284.911459 
L 938.7 284.911459 
L 938.7 209.223743 
L 863.775 209.223743 
L 863.775 284.911459 
" style="fill:#f9f1ec;"/>
    <path clip-path="url(#p1ec29c1382)" d="M 938.7 284.911459 
L 1013.625 284.911459 
L 1013.625 209.223743 
L 938.7 209.223743 
L 938.7 284.911459 
" style="fill:#f9f1ec;"/>
    <path clip-path="url(#p1ec29c1382)" d="M 1013.625 284.911459 
L 1088.55 284.911459 
L 1088.55 209.223743 
L 1013.625 209.223743 
L 1013.625 284.911459 
" style="fill:#f9f1ec;"/>
    <path clip-path="url(#p1ec29c1382)" d="M 1088.55 284.911459 
L 1163.475 284.911459 
L 1163.475 209.223743 
L 1088.55 209.223743 
L 1088.55 284.911459 
" style="fill:#f9f1ec;"/>
    <path clip-path="url(#p1ec29c1382)" d="M 1163.475 284.911459 
L 1238.4 284.911459 
L 1238.4 209.223743 
L 1163.475 209.223743 
L 1163.475 284.911459 
" style="fill:#f9f1ec;"/>
    <path clip-path="url(#p1ec29c1382)" d="M 639 209.223743 
L 713.925 209.223743 
L 713.925 133.536028 
L 639 133.536028 
L 639 209.223743 
" style="fill:#f9f1ec;"/>
    <path clip-path="url(#p1ec29c1382)" d="M 713.925 209.223743 
L 788.85 209.223743 
L 788.85 133.536028 
L 713.925 133.536028 
L 713.925 209.223743 
" style="fill:#2d1e3e;"/>
    <path clip-path="url(#p1ec29c1382)" d="M 788.85 209.223743 
L 863.775 209.223743 
L 863.775 133.536028 
L 788.85 133.536028 
L 788.85 209.223743 
" style="fill:#f9f1ec;"/>
    <path clip-path="url(#p1ec29c1382)" d="M 863.775 209.223743 
L 938.7 209.223743 
L 938.7 133.536028 
L 863.775 133.536028 
L 863.775 209.223743 
" style="fill:#f9f1ec;"/>
    <path clip-path="url(#p1ec29c1382)" d="M 938.7 209.223743 
L 1013.625 209.223743 
L 1013.625 133.536028 
L 938.7 133.536028 
L 938.7 209.223743 
" style="fill:#f9f1ec;"/>
    <path clip-path="url(#p1ec29c1382)" d="M 1013.625 209.223743 
L 1088.55 209.223743 
L 1088.55 133.536028 
L 1013.625 133.536028 
L 1013.625 209.223743 
" style="fill:#f9f1ec;"/>
    <path clip-path="url(#p1ec29c1382)" d="M 1088.55 209.223743 
L 1163.475 209.223743 
L 1163.475 133.536028 
L 1088.55 133.536028 
L 1088.55 209.223743 
" style="fill:#f9f1ec;"/>
    <path clip-path="url(#p1ec29c1382)" d="M 1163.475 209.223743 
L 1238.4 209.223743 
L 1238.4 133.536028 
L 1163.475 133.536028 
L 1163.475 209.223743 
" style="fill:#f9f1ec;"/>
    <path clip-path="url(#p1ec29c1382)" d="M 639 133.536028 
L 713.925 133.536028 
L 713.925 57.848313 
L 639 57.848313 
L 639 133.536028 
" style="fill:#2d1e3e;"/>
    <path clip-path="url(#p1ec29c1382)" d="M 713.925 133.536028 
L 788.85 133.536028 
L 788.85 57.848313 
L 713.925 57.848313 
L 713.925 133.536028 
" style="fill:#f9f1ec;"/>
    <path clip-path="url(#p1ec29c1382)" d="M 788.85 133.536028 
L 863.775 133.536028 
L 863.775 57.848313 
L 788.85 57.848313 
L 788.85 133.536028 
" style="fill:#f9f1ec;"/>
    <path clip-path="url(#p1ec29c1382)" d="M 863.775 133.536028 
L 938.7 133.536028 
L 938.7 57.848313 
L 863.775 57.848313 
L 863.775 133.536028 
" style="fill:#f9f1ec;"/>
    <path clip-path="url(#p1ec29c1382)" d="M 938.7 133.536028 
L 1013.625 133.536028 
L 1013.625 57.848313 
L 938.7 57.848313 
L 938.7 133.536028 
" style="fill:#f9f1ec;"/>
    <path clip-path="url(#p1ec29c1382)" d="M 1013.625 133.536028 
L 1088.55 133.536028 
L 1088.55 57.848313 
L 1013.625 57.848313 
L 1013.625 133.536028 
" style="fill:#f9f1ec;"/>
    <path clip-path="url(#p1ec29c1382)" d="M 1088.55 133.536028 
L 1163.475 133.536028 
L 1163.475 57.848313 
L 1088.55 57.848313 
L 1088.55 133.536028 
" style="fill:#f9f1ec;"/>
    <path clip-path="url(#p1ec29c1382)" d="M 1163.475 133.536028 
L 1238.4 133.536028 
L 1238.4 57.848313 
L 1163.475 57.848313 
L 1163.475 133.536028 
" style="fill:#f9f1ec;"/>
   </g>
   <g id="patch_3">
    <path d="M 788.85 663.350034 
L 1238.4 663.350034 
L 1238.4 213.008129 
L 788.85 213.008129 
L 788.85 663.350034 
z
" style="fill:none;stroke:#d55e00;stroke-linejoin:miter;stroke-width:10.0;"/>
   </g>
   <g id="patch_4">
    <path d="M 639 133.536028 
L 713.925 133.536028 
L 713.925 57.848313 
L 639 57.848313 
L 639 133.536028 
z
" style="fill:none;stroke:#d55e00;stroke-linejoin:miter;stroke-width:10.0;"/>
   </g>
   <g id="patch_5">
    <path d="M 713.925 209.223743 
L 788.85 209.223743 
L 788.85 133.536028 
L 713.925 133.536028 
L 713.925 209.223743 
z
" style="fill:none;stroke:#d55e00;stroke-linejoin:miter;stroke-width:10.0;"/>
   </g>
   <g id="line2d_17">
    <path d="M 796.3425 207.331551 
L 1238.4 207.331551 
" style="fill:none;stroke:#0072b2;stroke-linecap:round;stroke-width:10.0;"/>
   </g>
   <g id="line2d_18">
    <path d="M 1238.4 206.953112 
L 1238.4 57.848313 
" style="fill:none;stroke:#0072b2;stroke-linecap:round;stroke-width:10.0;"/>
   </g>
   <g id="line2d_19">
    <path d="M 719.16975 57.848313 
L 1238.4 57.848313 
" style="fill:none;stroke:#0072b2;stroke-linecap:round;stroke-width:10.0;"/>
   </g>
   <g id="line2d_20">
    <path d="M 719.16975 126.724134 
L 794.844 126.724134 
" style="fill:none;stroke:#0072b2;stroke-linecap:round;stroke-width:10.0;"/>
   </g>
   <g id="line2d_21">
    <path d="M 719.16975 126.724134 
L 719.16975 57.848313 
" style="fill:none;stroke:#0072b2;stroke-linecap:round;stroke-width:10.0;"/>
   </g>
   <g id="line2d_22">
    <path d="M 794.844 206.953112 
L 794.844 126.724134 
" style="fill:none;stroke:#0072b2;stroke-linecap:round;stroke-width:10.0;"/>
   </g>
   <g id="line2d_23">
    <path d="M 639 663.350034 
L 639 141.1048 
" style="fill:none;stroke:#0072b2;stroke-linecap:round;stroke-width:10.0;"/>
   </g>
   <g id="line2d_24">
    <path d="M 783.60525 663.350034 
L 783.60525 214.521884 
" style="fill:none;stroke:#0072b2;stroke-linecap:round;stroke-width:10.0;"/>
   </g>
   <g id="line2d_25">
    <path d="M 639 663.350034 
L 783.60525 663.350034 
" style="fill:none;stroke:#0072b2;stroke-linecap:round;stroke-width:10.0;"/>
   </g>
   <g id="line2d_26">
    <path d="M 639 139.591045 
L 709.4295 139.591045 
" style="fill:none;stroke:#0072b2;stroke-linecap:round;stroke-width:10.0;"/>
   </g>
   <g id="line2d_27">
    <path d="M 710.17875 214.521884 
L 780.60825 214.521884 
" style="fill:none;stroke:#0072b2;stroke-linecap:round;stroke-width:10.0;"/>
   </g>
   <g id="line2d_28">
    <path d="M 709.4295 214.521884 
L 709.4295 139.591045 
" style="fill:none;stroke:#0072b2;stroke-linecap:round;stroke-width:10.0;"/>
   </g>
   <g id="text_1">
    <g id="patch_6">
     <path d="M 934.7 372.350441 
L 1045.163449 372.350441 
L 1045.163449 328.925165 
L 934.7 328.925165 
z
" style="fill:#d55e00;stroke:#000000;stroke-linejoin:miter;stroke-width:0.3;"/>
    </g>
    <!-- ``Kite" -->
    <defs>
     <path d="M 34.90625 41.65625 
L 59.796875 69 
L 50.203125 69 
L 17.203125 32.90625 
L 17.203125 69 
L 8.796875 69 
L 8.796875 0 
L 17.203125 0 
L 17.203125 22.375 
L 29.296875 35.59375 
L 51.796875 0 
L 61.09375 0 
z
" id="CMSS17-75"/>
     <path d="M 16.703125 37 
L 29.703125 37 
L 29.703125 42.765625 
L 16.703125 42.765625 
L 16.703125 55 
L 9.59375 55 
L 9.59375 42.765625 
L 1.703125 42.765625 
L 1.703125 37 
L 9.40625 37 
L 9.40625 11.703125 
C 9.40625 6 10.703125 -1 17.296875 -1 
C 22.296875 -1 26.90625 0.390625 31.296875 2.6875 
L 29.703125 8.5625 
C 27.296875 6.46875 24.40625 5.265625 21.296875 5.265625 
C 16.90625 5.265625 16.703125 10.875 16.703125 13.375 
z
" id="CMSS17-116"/>
     <path d="M 39.09375 21.515625 
C 39.09375 24.84375 38.90625 31.296875 35.703125 36.640625 
C 32.203125 42.390625 26.5 44 22.203125 44 
C 11.796875 44 3 34.1875 3 21.484375 
C 3 9.09375 12.09375 -1 23.59375 -1 
C 28.09375 -1 33.59375 0.296875 38.59375 3.875 
C 38.59375 4.28125 38.40625 6.46875 38.296875 6.5625 
C 38.296875 6.765625 38 9.84375 38 10.25 
C 33.203125 6.359375 27.703125 5.078125 23.703125 5.078125 
C 17.296875 5.078125 10.40625 10.421875 10.09375 21.515625 
z
M 10.90625 27 
C 12.203125 32.5625 16.59375 37.828125 22.203125 37.828125 
C 23.703125 37.828125 30.703125 37.828125 32.5 27 
z
" id="CMSS17-101"/>
     <path d="M 25.59375 69.5 
L 21.59375 69.5 
L 17.5 56.875 
L 17.5 49 
L 25.5 49 
L 25.5 56.96875 
L 23 56.96875 
z
M 43.90625 69.5 
L 39.90625 69.5 
L 35.796875 56.875 
L 35.796875 49 
L 43.796875 49 
L 43.796875 56.96875 
L 41.296875 56.96875 
z
" id="CMSS17-92"/>
     <path d="M 15.296875 65.359375 
L 6.90625 65.359375 
L 6.90625 57 
L 15.296875 57 
z
M 14.796875 42.796875 
L 7.40625 42.796875 
L 7.40625 0 
L 14.796875 0 
z
" id="CMSS17-105"/>
     <path d="M 11.09375 61.09375 
L 11.09375 68.953125 
L 3.09375 68.953125 
L 3.09375 61 
L 5.59375 61 
L 3 48.5 
L 7 48.5 
z
M 29.40625 61.09375 
L 29.40625 68.953125 
L 21.40625 68.953125 
L 21.40625 61 
L 23.90625 61 
L 21.296875 48.5 
L 25.296875 48.5 
z
" id="CMSS17-34"/>
    </defs>
    <g style="fill:#ffffff;" transform="translate(938.7 360.599173774)scale(0.4 -0.4)">
     <use transform="scale(0.996264009963)" xlink:href="#CMSS17-92"/>
     <use transform="translate(46.8436235212 0.0)scale(0.996264009963)" xlink:href="#CMSS17-75"/>
     <use transform="translate(111.663917171 0.0)scale(0.996264009963)" xlink:href="#CMSS17-105"/>
     <use transform="translate(133.844640216 0.0)scale(0.996264009963)" xlink:href="#CMSS17-116"/>
     <use transform="translate(167.6762069 0.0)scale(0.996264009963)" xlink:href="#CMSS17-101"/>
     <use transform="translate(209.315028969 0.0)scale(0.996264009963)" xlink:href="#CMSS17-34"/>
    </g>
   </g>
   <g id="text_2">
    <g id="patch_7">
     <path d="M 672.4625 372.350441 
L 738.212232 372.350441 
L 738.212232 328.925165 
L 672.4625 328.925165 
z
" style="fill:#0072b2;stroke:#000000;stroke-linejoin:miter;stroke-width:0.3;"/>
    </g>
    <!-- ``L" -->
    <defs>
     <path d="M 26.09375 6.46875 
C 24.90625 6.46875 23.703125 6.46875 22.5 6.46875 
L 17.203125 6.46875 
L 17.203125 69 
L 8.796875 69 
L 8.796875 0 
L 46.90625 0 
L 46.90625 6.46875 
z
" id="CMSS17-76"/>
    </defs>
    <g style="fill:#ffffff;" transform="translate(676.4625 360.599173774)scale(0.4 -0.4)">
     <use transform="scale(0.996264009963)" xlink:href="#CMSS17-92"/>
     <use transform="translate(46.8436235212 0.0)scale(0.996264009963)" xlink:href="#CMSS17-76"/>
     <use transform="translate(97.5307288829 0.0)scale(0.996264009963)" xlink:href="#CMSS17-34"/>
    </g>
   </g>
   <g id="text_3">
    <g id="patch_8">
     <path d="M 972.1625 164.209224 
L 1037.912232 164.209224 
L 1037.912232 120.783948 
L 972.1625 120.783948 
z
" style="fill:#0072b2;stroke:#000000;stroke-linejoin:miter;stroke-width:0.3;"/>
    </g>
    <!-- ``L" -->
    <g style="fill:#ffffff;" transform="translate(976.1625 152.457957076)scale(0.4 -0.4)">
     <use transform="scale(0.996264009963)" xlink:href="#CMSS17-92"/>
     <use transform="translate(46.8436235212 0.0)scale(0.996264009963)" xlink:href="#CMSS17-76"/>
     <use transform="translate(97.5307288829 0.0)scale(0.996264009963)" xlink:href="#CMSS17-34"/>
    </g>
   </g>
   <g id="text_4">
    <!-- Matrix Elements of $\hat{\rho}$ -->
    <defs>
     <path d="M 49.90625 37.046875 
L 45.09375 23.015625 
C 44.296875 20.421875 41.59375 12.359375 41 9.171875 
L 40.90625 9.171875 
C 40.59375 11.171875 40 13.265625 38.40625 18.34375 
C 37.5 21.328125 36.5 24.40625 35.5 27.203125 
L 20.703125 69 
L 9 69 
L 9 0 
L 16.796875 0 
L 16.796875 60.9375 
L 16.90625 60.9375 
C 16.90625 60.84375 17.796875 56.453125 23.90625 39.046875 
L 37.09375 1.5 
L 44.5 1.5 
L 56.40625 34.859375 
C 57.203125 37.15625 59.703125 44.421875 60.796875 47.90625 
C 61.796875 50.890625 64.296875 58.25 64.90625 61.140625 
L 65 61.140625 
L 65 0 
L 72.90625 0 
L 72.90625 69 
L 61.296875 69 
z
" id="CMSS17-77"/>
     <path d="M 14.90625 21.296875 
C 14.90625 30.703125 21.796875 37 30.59375 37 
L 30.59375 43.578125 
C 24.203125 43.578125 18.203125 40.390625 14.59375 35.203125 
L 14.59375 43.09375 
L 7.5 43.09375 
L 7.5 0 
L 14.90625 0 
z
" id="CMSS17-114"/>
     <path d="M 44.203125 21.1875 
C 44.203125 34 34.703125 44 23.5 44 
C 12 44 2.703125 33.703125 2.703125 21.1875 
C 2.703125 8.5 12.296875 -1 23.40625 -1 
C 34.796875 -1 44.203125 8.796875 44.203125 21.1875 
M 23.5 5.265625 
C 16.40625 5.265625 10.296875 11.078125 10.296875 22 
C 10.296875 33.609375 17.40625 37.921875 23.40625 37.921875 
C 29.90625 37.921875 36.59375 33.21875 36.59375 22 
C 36.59375 10.671875 30.09375 5.265625 23.5 5.265625 
" id="CMSS17-111"/>
     <path d="M 40.90625 29.328125 
C 40.90625 35.671875 39.40625 44 28.09375 44 
C 21.703125 44 17.5 40.71875 14.703125 37.328125 
L 14.703125 43.09375 
L 7.40625 43.09375 
L 7.40625 0 
L 15 0 
L 15 24.359375 
C 15 30.6875 17.40625 37.9375 24.203125 37.9375 
C 33 37.9375 33.296875 32 33.296875 28.578125 
L 33.296875 0 
L 40.90625 0 
z
" id="CMSS17-110"/>
     <path d="M 32.203125 41.046875 
C 26.296875 43.859375 21.703125 43.859375 18.703125 43.859375 
C 11.59375 43.859375 3.09375 41.375 3.09375 31.296875 
C 3.09375 21.234375 14.09375 19.03125 17.09375 18.421875 
C 21.703125 17.53125 26.796875 16.53125 26.796875 11.5625 
C 26.796875 5.265625 19.59375 5.265625 18.296875 5.265625 
C 14.296875 5.265625 8.796875 6.359375 3.796875 9.96875 
L 2.59375 3.28125 
C 8.296875 0 13.796875 -1 18.40625 -1 
C 30.703125 -1 33.796875 6.5 33.796875 12.203125 
C 33.796875 17.09375 31 20.390625 29.09375 21.890625 
C 25.796875 24.5 24.59375 24.796875 16.40625 26.5 
C 15 26.703125 10.09375 27.796875 10.09375 32.28125 
C 10.09375 38 16.40625 38 17.796875 38 
C 24.296875 38 28.296875 35.984375 31 34.5 
z
" id="CMSS17-115"/>
     <path d="M 14.796875 69 
L 7.40625 69 
L 7.40625 0 
L 14.796875 0 
z
" id="CMSS17-108"/>
     <path d="M 67 29.328125 
C 67 36.0625 65.296875 44 54.09375 44 
C 46.59375 44 42.09375 39.3125 40.09375 36.421875 
C 38.296875 41.71875 34.09375 44 28.09375 44 
C 21.296875 44 17 40.125 14.703125 37.328125 
L 14.703125 43.09375 
L 7.40625 43.09375 
L 7.40625 0 
L 15 0 
L 15 24.359375 
C 15 30.296875 17.203125 37.9375 24.296875 37.9375 
C 33.40625 37.9375 33.40625 31.5 33.40625 28.578125 
L 33.40625 0 
L 41 0 
L 41 24.359375 
C 41 30.296875 43.203125 37.9375 50.296875 37.9375 
C 59.40625 37.9375 59.40625 31.5 59.40625 28.578125 
L 59.40625 0 
L 67 0 
z
" id="CMSS17-109"/>
     <path d="M 22.90625 69.078125 
L 10.59375 55.546875 
L 11.796875 54.34375 
L 22.90625 65.09375 
L 34 54.34375 
L 35.203125 55.546875 
z
" id="CMR17-94"/>
     <path d="M 30.59375 6.765625 
C 22.59375 6.765625 19 6.765625 17.203125 6.765625 
L 17.203125 32.921875 
L 48.203125 32.921875 
L 48.203125 39 
L 17.203125 39 
L 17.203125 62.640625 
L 30.09375 62.640625 
C 31.296875 62.640625 32.5 62.640625 33.703125 62.640625 
L 50.796875 62.640625 
L 50.796875 69 
L 8.796875 69 
L 8.796875 0 
L 52.09375 0 
L 52.09375 6.765625 
z
" id="CMSS17-69"/>
     <path d="M 37.59375 27.984375 
C 37.59375 37.375 30.90625 43.875 21.90625 43.875 
C 17.5 43.875 12.703125 43.078125 7.203125 39.890625 
L 7.796875 33.359375 
C 10.296875 35.125 14.59375 38 21.796875 38 
C 26.90625 38 30 34.0625 30 27.84375 
L 30 24 
C 14 24 4 19.34375 4 11.34375 
C 4 7.203125 6.5 -1 14.796875 -1 
C 16.296875 -1 24.40625 -1 30.203125 3.390625 
L 30.203125 -0.296875 
L 37.59375 -0.296875 
z
M 30 12.75 
C 30 10.953125 30 8.5625 27 6.78125 
C 24.40625 5.078125 21.09375 5.078125 19.703125 5.078125 
C 14.703125 5.078125 11.296875 7.984375 11.296875 11.625 
C 11.296875 18.921875 26.90625 18.921875 30 18.921875 
z
" id="CMSS17-97"/>
     <path d="M 3.09375 -17.296875 
C 3 -17.796875 2.796875 -18.390625 2.796875 -19 
C 2.796875 -20.5 4 -21.5 5.5 -21.5 
C 7 -21.5 8.40625 -20.5 9 -19.09375 
C 9.40625 -18.1875 12.203125 -6.203125 15.40625 6.09375 
C 17.40625 1.09375 21.09375 -1 25 -1 
C 36.296875 -1 49.09375 12.96875 49.09375 28.046875 
C 49.09375 38.71875 42.59375 44 35.703125 44 
C 26.90625 44 16.203125 34.921875 12.90625 21.640625 
z
M 24.90625 1 
C 18.09375 1 16.40625 8.890625 16.40625 10.078125 
C 16.40625 10.6875 18.90625 20.234375 19.203125 21.734375 
C 24.296875 41.71875 34.09375 41.71875 35.59375 41.71875 
C 40.09375 41.71875 42.59375 37.65625 42.59375 31.8125 
C 42.59375 26.75 39.90625 16.9375 38.203125 12.796875 
C 35.203125 5.953125 30 1 24.90625 1 
" id="CMMI12-26"/>
     <path d="M 24.796875 22.09375 
L 41.5 42.796875 
L 32.796875 42.796875 
L 21.296875 27.765625 
L 9.40625 42.796875 
L 0.5 42.796875 
L 17.796875 22.09375 
L 0 0 
L 8.796875 0 
L 21.296875 17.515625 
L 34.296875 0 
L 43.09375 0 
z
" id="CMSS17-120"/>
     <path d="M 16.796875 37 
L 26.90625 37 
L 26.90625 42.765625 
L 16.59375 42.765625 
L 16.59375 55.609375 
C 16.59375 62.71875 22 63.9375 25.09375 63.9375 
C 26.09375 63.9375 28.90625 63.9375 32.5 62.640625 
L 32.5 69.203125 
C 30.203125 69.703125 27.40625 70 25.203125 70 
C 15.90625 70 9.40625 62.390625 9.40625 52.484375 
L 9.40625 42.765625 
L 2.5 42.765625 
L 2.5 37 
L 9.40625 37 
L 9.40625 0 
L 16.796875 0 
z
" id="CMSS17-102"/>
    </defs>
    <g style="fill:#262626;" transform="translate(771.432211786 40.7382786961)scale(0.4 -0.4)">
     <use transform="scale(0.996264009963)" xlink:href="#CMSS17-77"/>
     <use transform="translate(81.6760299512 0.0)scale(0.996264009963)" xlink:href="#CMSS17-97"/>
     <use transform="translate(126.597950557 0.0)scale(0.996264009963)" xlink:href="#CMSS17-116"/>
     <use transform="translate(160.42951724 0.0)scale(0.996264009963)" xlink:href="#CMSS17-114"/>
     <use transform="translate(192.339289797 0.0)scale(0.996264009963)" xlink:href="#CMSS17-105"/>
     <use transform="translate(214.520012842 0.0)scale(0.996264009963)" xlink:href="#CMSS17-120"/>
     <use transform="translate(288.749267274 0.0)scale(0.996264009963)" xlink:href="#CMSS17-69"/>
     <use transform="translate(344.641280501 0.0)scale(0.996264009963)" xlink:href="#CMSS17-108"/>
     <use transform="translate(366.822003546 0.0)scale(0.996264009963)" xlink:href="#CMSS17-101"/>
     <use transform="translate(408.460825615 0.0)scale(0.996264009963)" xlink:href="#CMSS17-109"/>
     <use transform="translate(482.690080047 0.0)scale(0.996264009963)" xlink:href="#CMSS17-101"/>
     <use transform="translate(524.328902115 0.0)scale(0.996264009963)" xlink:href="#CMSS17-110"/>
     <use transform="translate(572.533845248 0.0)scale(0.996264009963)" xlink:href="#CMSS17-116"/>
     <use transform="translate(606.365411932 0.0)scale(0.996264009963)" xlink:href="#CMSS17-115"/>
     <use transform="translate(673.508066674 0.0)scale(0.996264009963)" xlink:href="#CMSS17-111"/>
     <use transform="translate(720.351690195 0.0)scale(0.996264009963)" xlink:href="#CMSS17-102"/>
     <use transform="translate(790.648562763 0.0064607575109)scale(0.996264009963)" xlink:href="#CMR17-94"/>
     <use transform="translate(780.207461764 0.0)scale(0.996264009963)" xlink:href="#CMMI12-26"/>
    </g>
   </g>
  </g>
  <g id="axes_2">
   <g id="patch_9">
    <path d="M 7.2 663.350034 
L 606.6 663.350034 
L 606.6 57.848313 
L 7.2 57.848313 
z
" style="fill:#eaeaf2;"/>
   </g>
   <g id="matplotlib.axis_3">
    <g id="xtick_9">
     <g id="line2d_29">
      <g>
       <use style="fill:#262626;stroke:#262626;" x="44.6625" xlink:href="#mbc1e58d734" y="663.350034426"/>
      </g>
     </g>
    </g>
    <g id="xtick_10">
     <g id="line2d_30">
      <g>
       <use style="fill:#262626;stroke:#262626;" x="119.5875" xlink:href="#mbc1e58d734" y="663.350034426"/>
      </g>
     </g>
    </g>
    <g id="xtick_11">
     <g id="line2d_31">
      <g>
       <use style="fill:#262626;stroke:#262626;" x="194.5125" xlink:href="#mbc1e58d734" y="663.350034426"/>
      </g>
     </g>
    </g>
    <g id="xtick_12">
     <g id="line2d_32">
      <g>
       <use style="fill:#262626;stroke:#262626;" x="269.4375" xlink:href="#mbc1e58d734" y="663.350034426"/>
      </g>
     </g>
    </g>
    <g id="xtick_13">
     <g id="line2d_33">
      <g>
       <use style="fill:#262626;stroke:#262626;" x="344.3625" xlink:href="#mbc1e58d734" y="663.350034426"/>
      </g>
     </g>
    </g>
    <g id="xtick_14">
     <g id="line2d_34">
      <g>
       <use style="fill:#262626;stroke:#262626;" x="419.2875" xlink:href="#mbc1e58d734" y="663.350034426"/>
      </g>
     </g>
    </g>
    <g id="xtick_15">
     <g id="line2d_35">
      <g>
       <use style="fill:#262626;stroke:#262626;" x="494.2125" xlink:href="#mbc1e58d734" y="663.350034426"/>
      </g>
     </g>
    </g>
    <g id="xtick_16">
     <g id="line2d_36">
      <g>
       <use style="fill:#262626;stroke:#262626;" x="569.1375" xlink:href="#mbc1e58d734" y="663.350034426"/>
      </g>
     </g>
    </g>
   </g>
   <g id="matplotlib.axis_4">
    <g id="ytick_9">
     <g id="line2d_37">
      <g>
       <use style="fill:#262626;stroke:#262626;" x="7.2" xlink:href="#mbc1e58d734" y="625.506176845"/>
      </g>
     </g>
    </g>
    <g id="ytick_10">
     <g id="line2d_38">
      <g>
       <use style="fill:#262626;stroke:#262626;" x="7.2" xlink:href="#mbc1e58d734" y="549.818461682"/>
      </g>
     </g>
    </g>
    <g id="ytick_11">
     <g id="line2d_39">
      <g>
       <use style="fill:#262626;stroke:#262626;" x="7.2" xlink:href="#mbc1e58d734" y="474.130746519"/>
      </g>
     </g>
    </g>
    <g id="ytick_12">
     <g id="line2d_40">
      <g>
       <use style="fill:#262626;stroke:#262626;" x="7.2" xlink:href="#mbc1e58d734" y="398.443031356"/>
      </g>
     </g>
    </g>
    <g id="ytick_13">
     <g id="line2d_41">
      <g>
       <use style="fill:#262626;stroke:#262626;" x="7.2" xlink:href="#mbc1e58d734" y="322.755316193"/>
      </g>
     </g>
    </g>
    <g id="ytick_14">
     <g id="line2d_42">
      <g>
       <use style="fill:#262626;stroke:#262626;" x="7.2" xlink:href="#mbc1e58d734" y="247.06760103"/>
      </g>
     </g>
    </g>
    <g id="ytick_15">
     <g id="line2d_43">
      <g>
       <use style="fill:#262626;stroke:#262626;" x="7.2" xlink:href="#mbc1e58d734" y="171.379885867"/>
      </g>
     </g>
    </g>
    <g id="ytick_16">
     <g id="line2d_44">
      <g>
       <use style="fill:#262626;stroke:#262626;" x="7.2" xlink:href="#mbc1e58d734" y="95.6921707037"/>
      </g>
     </g>
    </g>
   </g>
   <g id="QuadMesh_2">
    <path clip-path="url(#pbc975afc73)" d="M 7.2 663.350034 
L 82.125 663.350034 
L 82.125 587.662319 
L 7.2 587.662319 
L 7.2 663.350034 
" style="fill:#cf90a2;"/>
    <path clip-path="url(#pbc975afc73)" d="M 82.125 663.350034 
L 157.05 663.350034 
L 157.05 587.662319 
L 82.125 587.662319 
L 82.125 663.350034 
" style="fill:#d295a5;"/>
    <path clip-path="url(#pbc975afc73)" d="M 157.05 663.350034 
L 231.975 663.350034 
L 231.975 587.662319 
L 157.05 587.662319 
L 157.05 663.350034 
" style="fill:#f5e8e1;"/>
    <path clip-path="url(#pbc975afc73)" d="M 231.975 663.350034 
L 306.9 663.350034 
L 306.9 587.662319 
L 231.975 587.662319 
L 231.975 663.350034 
" style="fill:#f5e6e0;"/>
    <path clip-path="url(#pbc975afc73)" d="M 306.9 663.350034 
L 381.825 663.350034 
L 381.825 587.662319 
L 306.9 587.662319 
L 306.9 663.350034 
" style="fill:#f5e8e1;"/>
    <path clip-path="url(#pbc975afc73)" d="M 381.825 663.350034 
L 456.75 663.350034 
L 456.75 587.662319 
L 381.825 587.662319 
L 381.825 663.350034 
" style="fill:#f5e8e1;"/>
    <path clip-path="url(#pbc975afc73)" d="M 456.75 663.350034 
L 531.675 663.350034 
L 531.675 587.662319 
L 456.75 587.662319 
L 456.75 663.350034 
" style="fill:#f5e8e1;"/>
    <path clip-path="url(#pbc975afc73)" d="M 531.675 663.350034 
L 606.6 663.350034 
L 606.6 587.662319 
L 531.675 587.662319 
L 531.675 663.350034 
" style="fill:#efd5cf;"/>
    <path clip-path="url(#pbc975afc73)" d="M 7.2 587.662319 
L 82.125 587.662319 
L 82.125 511.974604 
L 7.2 511.974604 
L 7.2 587.662319 
" style="fill:#d194a4;"/>
    <path clip-path="url(#pbc975afc73)" d="M 82.125 587.662319 
L 157.05 587.662319 
L 157.05 511.974604 
L 82.125 511.974604 
L 82.125 587.662319 
" style="fill:#cf90a2;"/>
    <path clip-path="url(#pbc975afc73)" d="M 157.05 587.662319 
L 231.975 587.662319 
L 231.975 511.974604 
L 157.05 511.974604 
L 157.05 587.662319 
" style="fill:#f5e6e0;"/>
    <path clip-path="url(#pbc975afc73)" d="M 231.975 587.662319 
L 306.9 587.662319 
L 306.9 511.974604 
L 231.975 511.974604 
L 231.975 587.662319 
" style="fill:#f5e6e0;"/>
    <path clip-path="url(#pbc975afc73)" d="M 306.9 587.662319 
L 381.825 587.662319 
L 381.825 511.974604 
L 306.9 511.974604 
L 306.9 587.662319 
" style="fill:#f5e8e1;"/>
    <path clip-path="url(#pbc975afc73)" d="M 381.825 587.662319 
L 456.75 587.662319 
L 456.75 511.974604 
L 381.825 511.974604 
L 381.825 587.662319 
" style="fill:#f5e8e1;"/>
    <path clip-path="url(#pbc975afc73)" d="M 456.75 587.662319 
L 531.675 587.662319 
L 531.675 511.974604 
L 456.75 511.974604 
L 456.75 587.662319 
" style="fill:#eed2cc;"/>
    <path clip-path="url(#pbc975afc73)" d="M 531.675 587.662319 
L 606.6 587.662319 
L 606.6 511.974604 
L 531.675 511.974604 
L 531.675 587.662319 
" style="fill:#f5e8e1;"/>
    <path clip-path="url(#pbc975afc73)" d="M 7.2 511.974604 
L 82.125 511.974604 
L 82.125 436.286889 
L 7.2 436.286889 
L 7.2 511.974604 
" style="fill:#cf91a3;"/>
    <path clip-path="url(#pbc975afc73)" d="M 82.125 511.974604 
L 157.05 511.974604 
L 157.05 436.286889 
L 82.125 436.286889 
L 82.125 511.974604 
" style="fill:#d093a4;"/>
    <path clip-path="url(#pbc975afc73)" d="M 157.05 511.974604 
L 231.975 511.974604 
L 231.975 436.286889 
L 157.05 436.286889 
L 157.05 511.974604 
" style="fill:#f5e6e0;"/>
    <path clip-path="url(#pbc975afc73)" d="M 231.975 511.974604 
L 306.9 511.974604 
L 306.9 436.286889 
L 231.975 436.286889 
L 231.975 511.974604 
" style="fill:#f5e6e0;"/>
    <path clip-path="url(#pbc975afc73)" d="M 306.9 511.974604 
L 381.825 511.974604 
L 381.825 436.286889 
L 306.9 436.286889 
L 306.9 511.974604 
" style="fill:#f5e6e0;"/>
    <path clip-path="url(#pbc975afc73)" d="M 381.825 511.974604 
L 456.75 511.974604 
L 456.75 436.286889 
L 381.825 436.286889 
L 381.825 511.974604 
" style="fill:#eed2cc;"/>
    <path clip-path="url(#pbc975afc73)" d="M 456.75 511.974604 
L 531.675 511.974604 
L 531.675 436.286889 
L 456.75 436.286889 
L 456.75 511.974604 
" style="fill:#f5e8e1;"/>
    <path clip-path="url(#pbc975afc73)" d="M 531.675 511.974604 
L 606.6 511.974604 
L 606.6 436.286889 
L 531.675 436.286889 
L 531.675 511.974604 
" style="fill:#f5e8e1;"/>
    <path clip-path="url(#pbc975afc73)" d="M 7.2 436.286889 
L 82.125 436.286889 
L 82.125 360.599174 
L 7.2 360.599174 
L 7.2 436.286889 
" style="fill:#d093a4;"/>
    <path clip-path="url(#pbc975afc73)" d="M 82.125 436.286889 
L 157.05 436.286889 
L 157.05 360.599174 
L 82.125 360.599174 
L 82.125 436.286889 
" style="fill:#cf90a2;"/>
    <path clip-path="url(#pbc975afc73)" d="M 157.05 436.286889 
L 231.975 436.286889 
L 231.975 360.599174 
L 157.05 360.599174 
L 157.05 436.286889 
" style="fill:#f5e8e1;"/>
    <path clip-path="url(#pbc975afc73)" d="M 231.975 436.286889 
L 306.9 436.286889 
L 306.9 360.599174 
L 231.975 360.599174 
L 231.975 436.286889 
" style="fill:#f5e6e0;"/>
    <path clip-path="url(#pbc975afc73)" d="M 306.9 436.286889 
L 381.825 436.286889 
L 381.825 360.599174 
L 306.9 360.599174 
L 306.9 436.286889 
" style="fill:#efd6d0;"/>
    <path clip-path="url(#pbc975afc73)" d="M 381.825 436.286889 
L 456.75 436.286889 
L 456.75 360.599174 
L 381.825 360.599174 
L 381.825 436.286889 
" style="fill:#f5e6e0;"/>
    <path clip-path="url(#pbc975afc73)" d="M 456.75 436.286889 
L 531.675 436.286889 
L 531.675 360.599174 
L 456.75 360.599174 
L 456.75 436.286889 
" style="fill:#f5e8e1;"/>
    <path clip-path="url(#pbc975afc73)" d="M 531.675 436.286889 
L 606.6 436.286889 
L 606.6 360.599174 
L 531.675 360.599174 
L 531.675 436.286889 
" style="fill:#f5e8e1;"/>
    <path clip-path="url(#pbc975afc73)" d="M 7.2 360.599174 
L 82.125 360.599174 
L 82.125 284.911459 
L 7.2 284.911459 
L 7.2 360.599174 
" style="fill:#d194a4;"/>
    <path clip-path="url(#pbc975afc73)" d="M 82.125 360.599174 
L 157.05 360.599174 
L 157.05 284.911459 
L 82.125 284.911459 
L 82.125 360.599174 
" style="fill:#d194a4;"/>
    <path clip-path="url(#pbc975afc73)" d="M 157.05 360.599174 
L 231.975 360.599174 
L 231.975 284.911459 
L 157.05 284.911459 
L 157.05 360.599174 
" style="fill:#f5e5de;"/>
    <path clip-path="url(#pbc975afc73)" d="M 231.975 360.599174 
L 306.9 360.599174 
L 306.9 284.911459 
L 231.975 284.911459 
L 231.975 360.599174 
" style="fill:#edcfc9;"/>
    <path clip-path="url(#pbc975afc73)" d="M 306.9 360.599174 
L 381.825 360.599174 
L 381.825 284.911459 
L 306.9 284.911459 
L 306.9 360.599174 
" style="fill:#f5e6e0;"/>
    <path clip-path="url(#pbc975afc73)" d="M 381.825 360.599174 
L 456.75 360.599174 
L 456.75 284.911459 
L 381.825 284.911459 
L 381.825 360.599174 
" style="fill:#f5e6e0;"/>
    <path clip-path="url(#pbc975afc73)" d="M 456.75 360.599174 
L 531.675 360.599174 
L 531.675 284.911459 
L 456.75 284.911459 
L 456.75 360.599174 
" style="fill:#f5e6e0;"/>
    <path clip-path="url(#pbc975afc73)" d="M 531.675 360.599174 
L 606.6 360.599174 
L 606.6 284.911459 
L 531.675 284.911459 
L 531.675 360.599174 
" style="fill:#f5e6e0;"/>
    <path clip-path="url(#pbc975afc73)" d="M 7.2 284.911459 
L 82.125 284.911459 
L 82.125 209.223743 
L 7.2 209.223743 
L 7.2 284.911459 
" style="fill:#d397a6;"/>
    <path clip-path="url(#pbc975afc73)" d="M 82.125 284.911459 
L 157.05 284.911459 
L 157.05 209.223743 
L 82.125 209.223743 
L 82.125 284.911459 
" style="fill:#cf91a3;"/>
    <path clip-path="url(#pbc975afc73)" d="M 157.05 284.911459 
L 231.975 284.911459 
L 231.975 209.223743 
L 157.05 209.223743 
L 157.05 284.911459 
" style="fill:#edd0ca;"/>
    <path clip-path="url(#pbc975afc73)" d="M 231.975 284.911459 
L 306.9 284.911459 
L 306.9 209.223743 
L 231.975 209.223743 
L 231.975 284.911459 
" style="fill:#f5e5de;"/>
    <path clip-path="url(#pbc975afc73)" d="M 306.9 284.911459 
L 381.825 284.911459 
L 381.825 209.223743 
L 306.9 209.223743 
L 306.9 284.911459 
" style="fill:#f5e8e1;"/>
    <path clip-path="url(#pbc975afc73)" d="M 381.825 284.911459 
L 456.75 284.911459 
L 456.75 209.223743 
L 381.825 209.223743 
L 381.825 284.911459 
" style="fill:#f5e6e0;"/>
    <path clip-path="url(#pbc975afc73)" d="M 456.75 284.911459 
L 531.675 284.911459 
L 531.675 209.223743 
L 456.75 209.223743 
L 456.75 284.911459 
" style="fill:#f5e6e0;"/>
    <path clip-path="url(#pbc975afc73)" d="M 531.675 284.911459 
L 606.6 284.911459 
L 606.6 209.223743 
L 531.675 209.223743 
L 531.675 284.911459 
" style="fill:#f5e8e1;"/>
    <path clip-path="url(#pbc975afc73)" d="M 7.2 209.223743 
L 82.125 209.223743 
L 82.125 133.536028 
L 7.2 133.536028 
L 7.2 209.223743 
" style="fill:#d093a4;"/>
    <path clip-path="url(#pbc975afc73)" d="M 82.125 209.223743 
L 157.05 209.223743 
L 157.05 133.536028 
L 82.125 133.536028 
L 82.125 209.223743 
" style="fill:#3b264b;"/>
    <path clip-path="url(#pbc975afc73)" d="M 157.05 209.223743 
L 231.975 209.223743 
L 231.975 133.536028 
L 157.05 133.536028 
L 157.05 209.223743 
" style="fill:#cf91a3;"/>
    <path clip-path="url(#pbc975afc73)" d="M 231.975 209.223743 
L 306.9 209.223743 
L 306.9 133.536028 
L 231.975 133.536028 
L 231.975 209.223743 
" style="fill:#d194a4;"/>
    <path clip-path="url(#pbc975afc73)" d="M 306.9 209.223743 
L 381.825 209.223743 
L 381.825 133.536028 
L 306.9 133.536028 
L 306.9 209.223743 
" style="fill:#cf90a2;"/>
    <path clip-path="url(#pbc975afc73)" d="M 381.825 209.223743 
L 456.75 209.223743 
L 456.75 133.536028 
L 381.825 133.536028 
L 381.825 209.223743 
" style="fill:#d093a4;"/>
    <path clip-path="url(#pbc975afc73)" d="M 456.75 209.223743 
L 531.675 209.223743 
L 531.675 133.536028 
L 456.75 133.536028 
L 456.75 209.223743 
" style="fill:#cf90a2;"/>
    <path clip-path="url(#pbc975afc73)" d="M 531.675 209.223743 
L 606.6 209.223743 
L 606.6 133.536028 
L 531.675 133.536028 
L 531.675 209.223743 
" style="fill:#d295a5;"/>
    <path clip-path="url(#pbc975afc73)" d="M 7.2 133.536028 
L 82.125 133.536028 
L 82.125 57.848313 
L 7.2 57.848313 
L 7.2 133.536028 
" style="fill:#2d1e3e;"/>
    <path clip-path="url(#pbc975afc73)" d="M 82.125 133.536028 
L 157.05 133.536028 
L 157.05 57.848313 
L 82.125 57.848313 
L 82.125 133.536028 
" style="fill:#d093a4;"/>
    <path clip-path="url(#pbc975afc73)" d="M 157.05 133.536028 
L 231.975 133.536028 
L 231.975 57.848313 
L 157.05 57.848313 
L 157.05 133.536028 
" style="fill:#d397a6;"/>
    <path clip-path="url(#pbc975afc73)" d="M 231.975 133.536028 
L 306.9 133.536028 
L 306.9 57.848313 
L 231.975 57.848313 
L 231.975 133.536028 
" style="fill:#d194a4;"/>
    <path clip-path="url(#pbc975afc73)" d="M 306.9 133.536028 
L 381.825 133.536028 
L 381.825 57.848313 
L 306.9 57.848313 
L 306.9 133.536028 
" style="fill:#d093a4;"/>
    <path clip-path="url(#pbc975afc73)" d="M 381.825 133.536028 
L 456.75 133.536028 
L 456.75 57.848313 
L 381.825 57.848313 
L 381.825 133.536028 
" style="fill:#cf91a3;"/>
    <path clip-path="url(#pbc975afc73)" d="M 456.75 133.536028 
L 531.675 133.536028 
L 531.675 57.848313 
L 456.75 57.848313 
L 456.75 133.536028 
" style="fill:#d194a4;"/>
    <path clip-path="url(#pbc975afc73)" d="M 531.675 133.536028 
L 606.6 133.536028 
L 606.6 57.848313 
L 531.675 57.848313 
L 531.675 133.536028 
" style="fill:#cf90a2;"/>
   </g>
   <g id="patch_10">
    <path d="M 157.05 663.350034 
L 606.6 663.350034 
L 606.6 213.008129 
L 157.05 213.008129 
L 157.05 663.350034 
z
" style="fill:none;stroke:#d55e00;stroke-linejoin:miter;stroke-width:10.0;"/>
   </g>
   <g id="patch_11">
    <path d="M 7.2 133.536028 
L 82.125 133.536028 
L 82.125 57.848313 
L 7.2 57.848313 
L 7.2 133.536028 
z
" style="fill:none;stroke:#d55e00;stroke-linejoin:miter;stroke-width:10.0;"/>
   </g>
   <g id="patch_12">
    <path d="M 82.125 209.223743 
L 157.05 209.223743 
L 157.05 133.536028 
L 82.125 133.536028 
L 82.125 209.223743 
z
" style="fill:none;stroke:#d55e00;stroke-linejoin:miter;stroke-width:10.0;"/>
   </g>
   <g id="line2d_45">
    <path d="M 164.5425 207.331551 
L 606.6 207.331551 
" style="fill:none;stroke:#0072b2;stroke-linecap:round;stroke-width:10.0;"/>
   </g>
   <g id="line2d_46">
    <path d="M 606.6 206.953112 
L 606.6 57.848313 
" style="fill:none;stroke:#0072b2;stroke-linecap:round;stroke-width:10.0;"/>
   </g>
   <g id="line2d_47">
    <path d="M 87.36975 57.848313 
L 606.6 57.848313 
" style="fill:none;stroke:#0072b2;stroke-linecap:round;stroke-width:10.0;"/>
   </g>
   <g id="line2d_48">
    <path d="M 87.36975 126.724134 
L 163.044 126.724134 
" style="fill:none;stroke:#0072b2;stroke-linecap:round;stroke-width:10.0;"/>
   </g>
   <g id="line2d_49">
    <path d="M 87.36975 126.724134 
L 87.36975 57.848313 
" style="fill:none;stroke:#0072b2;stroke-linecap:round;stroke-width:10.0;"/>
   </g>
   <g id="line2d_50">
    <path d="M 163.044 206.953112 
L 163.044 126.724134 
" style="fill:none;stroke:#0072b2;stroke-linecap:round;stroke-width:10.0;"/>
   </g>
   <g id="line2d_51">
    <path d="M 7.2 663.350034 
L 7.2 141.1048 
" style="fill:none;stroke:#0072b2;stroke-linecap:round;stroke-width:10.0;"/>
   </g>
   <g id="line2d_52">
    <path d="M 151.80525 663.350034 
L 151.80525 214.521884 
" style="fill:none;stroke:#0072b2;stroke-linecap:round;stroke-width:10.0;"/>
   </g>
   <g id="line2d_53">
    <path d="M 7.2 663.350034 
L 151.80525 663.350034 
" style="fill:none;stroke:#0072b2;stroke-linecap:round;stroke-width:10.0;"/>
   </g>
   <g id="line2d_54">
    <path d="M 7.2 139.591045 
L 77.6295 139.591045 
" style="fill:none;stroke:#0072b2;stroke-linecap:round;stroke-width:10.0;"/>
   </g>
   <g id="line2d_55">
    <path d="M 78.37875 214.521884 
L 148.80825 214.521884 
" style="fill:none;stroke:#0072b2;stroke-linecap:round;stroke-width:10.0;"/>
   </g>
   <g id="line2d_56">
    <path d="M 77.6295 214.521884 
L 77.6295 139.591045 
" style="fill:none;stroke:#0072b2;stroke-linecap:round;stroke-width:10.0;"/>
   </g>
   <g id="text_5">
    <!-- 1 -->
    <defs>
     <path d="M 28.40625 67 
L 26.5 67 
C 21.09375 61.5625 14.796875 60.78125 8.40625 60.78125 
L 8.40625 55 
C 11.296875 55 16 55 20.703125 57.296875 
L 20.703125 5.765625 
L 8.90625 5.765625 
L 8.90625 0 
L 40.203125 0 
L 40.203125 5.765625 
L 28.40625 5.765625 
z
" id="CMSS17-49"/>
    </defs>
    <g style="fill:#ffffff;" transform="translate(38.8070470599 631.732036414)scale(0.25 -0.25)">
     <use transform="scale(0.996264009963)" xlink:href="#CMSS17-49"/>
    </g>
   </g>
   <g id="text_6">
    <!-- 0.98 -->
    <defs>
     <path d="M 43.09375 31.9375 
C 43.09375 37.578125 43 48.078125 38.90625 56.1875 
C 34.796875 64 28.203125 66.078125 23.5 66.078125 
C 16.703125 66.078125 10.90625 62.125 7.90625 55.78125 
C 4.703125 49.15625 3.796875 42.328125 3.796875 31.9375 
C 3.796875 24.828125 4.09375 16.109375 7.703125 8.484375 
C 11.796875 0.078125 18.703125 -2 23.40625 -2 
C 29.59375 -2 35.59375 1.265625 39 8.09375 
C 42.5 15.21875 43.09375 23.03125 43.09375 31.9375 
M 23.40625 4.078125 
C 15.796875 4.078125 13.5 12.671875 12.796875 15.546875 
C 11.59375 20.46875 11.40625 25.21875 11.40625 33.03125 
C 11.40625 39.15625 11.40625 46.0625 13.296875 51.515625 
C 15.59375 57.828125 19.59375 60 23.40625 60 
C 30.796875 60 33.203125 52.6875 34 50.125 
C 35.5 44.890625 35.5 38.765625 35.5 33.03125 
C 35.5 23.84375 35.5 4.078125 23.40625 4.078125 
" id="CMSS17-48"/>
     <path d="M 17 7.96875 
L 9 7.96875 
L 9 0 
L 17 0 
z
" id="CMSS17-46"/>
     <path d="M 6.796875 2.71875 
C 9.59375 0.328125 13.203125 -2 19.296875 -2 
C 31.40625 -2 43 11.265625 43 32.734375 
C 43 61.4375 30.5 66.078125 23.796875 66.078125 
C 17.09375 66.078125 12.796875 63.140625 9.09375 58.453125 
C 4.703125 53.078125 3.90625 48.28125 3.90625 42.703125 
C 3.90625 36.046875 5.09375 31.953125 7.90625 27.265625 
C 11.703125 21.203125 15.203125 19.921875 19.09375 19.921875 
C 25 19.921875 30.90625 22.796875 34.90625 27.75 
C 34.203125 14.09375 28.09375 4.171875 19.296875 4.171875 
C 15.703125 4.171875 12.796875 5.296875 9.90625 8.0625 
z
M 34.59375 42.90625 
C 34.703125 42.234375 34.703125 40.96875 34.703125 40.5625 
C 34.703125 32.40625 29.90625 26 22.90625 26 
C 18.296875 26 15.90625 28.328125 14.09375 31.34375 
C 11.90625 35.140625 11.796875 38.828125 11.796875 42.703125 
C 11.796875 46.5 11.796875 50.6875 14.59375 54.859375 
C 16.703125 57.859375 19.296875 60 23.796875 60 
C 33 60 34.5 46.875 34.59375 42.90625 
" id="CMSS17-57"/>
     <path d="M 30.203125 34.71875 
C 37.796875 37.1875 41.703125 43.125 41.703125 48.96875 
C 41.703125 58.15625 33.703125 66.078125 23.5 66.078125 
C 12.90625 66.078125 5.203125 57.9375 5.203125 49.125 
C 5.203125 43.4375 9 37.546875 16.703125 35.015625 
C 6.90625 31.203125 3.90625 23.625 3.90625 17.953125 
C 3.90625 6.96875 12.796875 -2 23.40625 -2 
C 34.40625 -2 43 7.109375 43 17.78125 
C 43 24.328125 39.09375 31.25 30.203125 34.71875 
M 23.5 38 
C 16.796875 38 12.296875 42.375 12.296875 49 
C 12.296875 55.71875 16.796875 60 23.5 60 
C 29.703125 60 34.59375 56.109375 34.59375 49 
C 34.59375 41.984375 29.796875 38 23.5 38 
M 23.5 4.171875 
C 17.796875 4.171875 11.703125 8.078125 11.703125 18.0625 
C 11.703125 28.328125 18.5 31.921875 23.40625 31.921875 
C 28.796875 31.921875 35.203125 28.125 35.203125 18.0625 
C 35.203125 7.671875 28.59375 4.171875 23.5 4.171875 
" id="CMSS17-56"/>
    </defs>
    <g style="fill:#ffffff;" transform="translate(98.7681193693 631.732036414)scale(0.25 -0.25)">
     <use transform="scale(0.996264009963)" xlink:href="#CMSS17-48"/>
     <use transform="translate(46.8436235212 0.0)scale(0.996264009963)" xlink:href="#CMSS17-46"/>
     <use transform="translate(72.8678284071 0.0)scale(0.996264009963)" xlink:href="#CMSS17-57"/>
     <use transform="translate(119.711451928 0.0)scale(0.996264009963)" xlink:href="#CMSS17-56"/>
    </g>
   </g>
   <g id="text_7">
    <!-- 0.12 -->
    <defs>
     <path d="M 25.796875 21.203125 
C 28.59375 24.078125 32.796875 27.5625 35.703125 31.046875 
C 38.5 34.4375 42.203125 39.234375 42.203125 46.203125 
C 42.203125 57.140625 34.796875 67 22.203125 67 
C 12.296875 67 6.59375 60.828125 3.90625 51.15625 
L 7.796875 45.765625 
C 10 54.84375 13.09375 60.625 20.90625 60.625 
C 29.5 60.625 34.296875 53.640625 34.296875 45.96875 
C 34.296875 36.796875 27.296875 29.703125 22 24.421875 
C 16.09375 18.546875 10.296875 12.5625 4.703125 6.375 
L 4.703125 0 
L 42.203125 0 
L 42.203125 6.765625 
L 25.203125 6.765625 
C 24 6.765625 22.796875 6.765625 21.59375 6.765625 
L 11.59375 6.765625 
L 11.59375 6.859375 
z
" id="CMSS17-50"/>
    </defs>
    <g style="fill:#262626;" transform="translate(173.693119369 631.732036414)scale(0.25 -0.25)">
     <use transform="scale(0.996264009963)" xlink:href="#CMSS17-48"/>
     <use transform="translate(46.8436235212 0.0)scale(0.996264009963)" xlink:href="#CMSS17-46"/>
     <use transform="translate(72.8678284071 0.0)scale(0.996264009963)" xlink:href="#CMSS17-49"/>
     <use transform="translate(119.711451928 0.0)scale(0.996264009963)" xlink:href="#CMSS17-50"/>
    </g>
   </g>
   <g id="text_8">
    <!-- 0.12 -->
    <g style="fill:#262626;" transform="translate(248.618119369 631.732036414)scale(0.25 -0.25)">
     <use transform="scale(0.996264009963)" xlink:href="#CMSS17-48"/>
     <use transform="translate(46.8436235212 0.0)scale(0.996264009963)" xlink:href="#CMSS17-46"/>
     <use transform="translate(72.8678284071 0.0)scale(0.996264009963)" xlink:href="#CMSS17-49"/>
     <use transform="translate(119.711451928 0.0)scale(0.996264009963)" xlink:href="#CMSS17-50"/>
    </g>
   </g>
   <g id="text_9">
    <!-- 0.12 -->
    <g style="fill:#262626;" transform="translate(323.543119369 631.732036414)scale(0.25 -0.25)">
     <use transform="scale(0.996264009963)" xlink:href="#CMSS17-48"/>
     <use transform="translate(46.8436235212 0.0)scale(0.996264009963)" xlink:href="#CMSS17-46"/>
     <use transform="translate(72.8678284071 0.0)scale(0.996264009963)" xlink:href="#CMSS17-49"/>
     <use transform="translate(119.711451928 0.0)scale(0.996264009963)" xlink:href="#CMSS17-50"/>
    </g>
   </g>
   <g id="text_10">
    <!-- 0.11 -->
    <g style="fill:#262626;" transform="translate(398.468119369 631.732036414)scale(0.25 -0.25)">
     <use transform="scale(0.996264009963)" xlink:href="#CMSS17-48"/>
     <use transform="translate(46.8436235212 0.0)scale(0.996264009963)" xlink:href="#CMSS17-46"/>
     <use transform="translate(72.8678284071 0.0)scale(0.996264009963)" xlink:href="#CMSS17-49"/>
     <use transform="translate(119.711451928 0.0)scale(0.996264009963)" xlink:href="#CMSS17-49"/>
    </g>
   </g>
   <g id="text_11">
    <!-- 0.11 -->
    <g style="fill:#262626;" transform="translate(473.393119369 631.732036414)scale(0.25 -0.25)">
     <use transform="scale(0.996264009963)" xlink:href="#CMSS17-48"/>
     <use transform="translate(46.8436235212 0.0)scale(0.996264009963)" xlink:href="#CMSS17-46"/>
     <use transform="translate(72.8678284071 0.0)scale(0.996264009963)" xlink:href="#CMSS17-49"/>
     <use transform="translate(119.711451928 0.0)scale(0.996264009963)" xlink:href="#CMSS17-49"/>
    </g>
   </g>
   <g id="text_12">
    <!-- 0.3 -->
    <defs>
     <path d="M 15.703125 31.640625 
L 22.5 31.640625 
C 31.90625 31.640625 34.59375 23.546875 34.59375 17.90625 
C 34.59375 10.203125 30.203125 4.171875 23 4.171875 
C 17.40625 4.171875 9.5 6.9375 5 14.25 
C 4.296875 10.796875 4.296875 10.59375 3.90625 8.21875 
C 8.59375 1.375 16.203125 -2 23.203125 -2 
C 34.59375 -2 43 7.390625 43 17.78125 
C 43 25.59375 37.5 32.140625 30 34.609375 
C 36 37.875 40.40625 44 40.40625 51.140625 
C 40.40625 59.453125 32.703125 66.078125 23.296875 66.078125 
C 14.703125 66.078125 8 60.8125 5.203125 55.15625 
C 5.90625 54.1875 7.703125 51.3125 8.59375 49.828125 
C 10.796875 55.65625 16.5 60 23.203125 60 
C 28.796875 60 32.5 56.359375 32.5 51.109375 
C 32.5 45.671875 29 39.734375 23.09375 38.359375 
C 22.703125 38.359375 16.5 37.765625 15.703125 37.671875 
z
" id="CMSS17-51"/>
    </defs>
    <g style="fill:#262626;" transform="translate(554.173572309 631.732036414)scale(0.25 -0.25)">
     <use transform="scale(0.996264009963)" xlink:href="#CMSS17-48"/>
     <use transform="translate(46.8436235212 0.0)scale(0.996264009963)" xlink:href="#CMSS17-46"/>
     <use transform="translate(72.8678284071 0.0)scale(0.996264009963)" xlink:href="#CMSS17-51"/>
    </g>
   </g>
   <g id="text_13">
    <!-- 1 -->
    <g style="fill:#ffffff;" transform="translate(38.8070470599 556.044321251)scale(0.25 -0.25)">
     <use transform="scale(0.996264009963)" xlink:href="#CMSS17-49"/>
    </g>
   </g>
   <g id="text_14">
    <!-- 1 -->
    <g style="fill:#ffffff;" transform="translate(113.73204706 556.044321251)scale(0.25 -0.25)">
     <use transform="scale(0.996264009963)" xlink:href="#CMSS17-49"/>
    </g>
   </g>
   <g id="text_15">
    <!-- 0.12 -->
    <g style="fill:#262626;" transform="translate(173.693119369 556.044321251)scale(0.25 -0.25)">
     <use transform="scale(0.996264009963)" xlink:href="#CMSS17-48"/>
     <use transform="translate(46.8436235212 0.0)scale(0.996264009963)" xlink:href="#CMSS17-46"/>
     <use transform="translate(72.8678284071 0.0)scale(0.996264009963)" xlink:href="#CMSS17-49"/>
     <use transform="translate(119.711451928 0.0)scale(0.996264009963)" xlink:href="#CMSS17-50"/>
    </g>
   </g>
   <g id="text_16">
    <!-- 0.12 -->
    <g style="fill:#262626;" transform="translate(248.618119369 556.044321251)scale(0.25 -0.25)">
     <use transform="scale(0.996264009963)" xlink:href="#CMSS17-48"/>
     <use transform="translate(46.8436235212 0.0)scale(0.996264009963)" xlink:href="#CMSS17-46"/>
     <use transform="translate(72.8678284071 0.0)scale(0.996264009963)" xlink:href="#CMSS17-49"/>
     <use transform="translate(119.711451928 0.0)scale(0.996264009963)" xlink:href="#CMSS17-50"/>
    </g>
   </g>
   <g id="text_17">
    <!-- 0.11 -->
    <g style="fill:#262626;" transform="translate(323.543119369 556.044321251)scale(0.25 -0.25)">
     <use transform="scale(0.996264009963)" xlink:href="#CMSS17-48"/>
     <use transform="translate(46.8436235212 0.0)scale(0.996264009963)" xlink:href="#CMSS17-46"/>
     <use transform="translate(72.8678284071 0.0)scale(0.996264009963)" xlink:href="#CMSS17-49"/>
     <use transform="translate(119.711451928 0.0)scale(0.996264009963)" xlink:href="#CMSS17-49"/>
    </g>
   </g>
   <g id="text_18">
    <!-- 0.12 -->
    <g style="fill:#262626;" transform="translate(398.468119369 556.044321251)scale(0.25 -0.25)">
     <use transform="scale(0.996264009963)" xlink:href="#CMSS17-48"/>
     <use transform="translate(46.8436235212 0.0)scale(0.996264009963)" xlink:href="#CMSS17-46"/>
     <use transform="translate(72.8678284071 0.0)scale(0.996264009963)" xlink:href="#CMSS17-49"/>
     <use transform="translate(119.711451928 0.0)scale(0.996264009963)" xlink:href="#CMSS17-50"/>
    </g>
   </g>
   <g id="text_19">
    <!-- 0.33 -->
    <g style="fill:#262626;" transform="translate(473.393119369 556.044321251)scale(0.25 -0.25)">
     <use transform="scale(0.996264009963)" xlink:href="#CMSS17-48"/>
     <use transform="translate(46.8436235212 0.0)scale(0.996264009963)" xlink:href="#CMSS17-46"/>
     <use transform="translate(72.8678284071 0.0)scale(0.996264009963)" xlink:href="#CMSS17-51"/>
     <use transform="translate(119.711451928 0.0)scale(0.996264009963)" xlink:href="#CMSS17-51"/>
    </g>
   </g>
   <g id="text_20">
    <!-- 0.11 -->
    <g style="fill:#262626;" transform="translate(548.318119369 556.044321251)scale(0.25 -0.25)">
     <use transform="scale(0.996264009963)" xlink:href="#CMSS17-48"/>
     <use transform="translate(46.8436235212 0.0)scale(0.996264009963)" xlink:href="#CMSS17-46"/>
     <use transform="translate(72.8678284071 0.0)scale(0.996264009963)" xlink:href="#CMSS17-49"/>
     <use transform="translate(119.711451928 0.0)scale(0.996264009963)" xlink:href="#CMSS17-49"/>
    </g>
   </g>
   <g id="text_21">
    <!-- 1 -->
    <g style="fill:#ffffff;" transform="translate(38.8070470599 480.356606088)scale(0.25 -0.25)">
     <use transform="scale(0.996264009963)" xlink:href="#CMSS17-49"/>
    </g>
   </g>
   <g id="text_22">
    <!-- 1 -->
    <g style="fill:#ffffff;" transform="translate(113.73204706 480.356606088)scale(0.25 -0.25)">
     <use transform="scale(0.996264009963)" xlink:href="#CMSS17-49"/>
    </g>
   </g>
   <g id="text_23">
    <!-- 0.12 -->
    <g style="fill:#262626;" transform="translate(173.693119369 480.356606088)scale(0.25 -0.25)">
     <use transform="scale(0.996264009963)" xlink:href="#CMSS17-48"/>
     <use transform="translate(46.8436235212 0.0)scale(0.996264009963)" xlink:href="#CMSS17-46"/>
     <use transform="translate(72.8678284071 0.0)scale(0.996264009963)" xlink:href="#CMSS17-49"/>
     <use transform="translate(119.711451928 0.0)scale(0.996264009963)" xlink:href="#CMSS17-50"/>
    </g>
   </g>
   <g id="text_24">
    <!-- 0.12 -->
    <g style="fill:#262626;" transform="translate(248.618119369 480.356606088)scale(0.25 -0.25)">
     <use transform="scale(0.996264009963)" xlink:href="#CMSS17-48"/>
     <use transform="translate(46.8436235212 0.0)scale(0.996264009963)" xlink:href="#CMSS17-46"/>
     <use transform="translate(72.8678284071 0.0)scale(0.996264009963)" xlink:href="#CMSS17-49"/>
     <use transform="translate(119.711451928 0.0)scale(0.996264009963)" xlink:href="#CMSS17-50"/>
    </g>
   </g>
   <g id="text_25">
    <!-- 0.12 -->
    <g style="fill:#262626;" transform="translate(323.543119369 480.356606088)scale(0.25 -0.25)">
     <use transform="scale(0.996264009963)" xlink:href="#CMSS17-48"/>
     <use transform="translate(46.8436235212 0.0)scale(0.996264009963)" xlink:href="#CMSS17-46"/>
     <use transform="translate(72.8678284071 0.0)scale(0.996264009963)" xlink:href="#CMSS17-49"/>
     <use transform="translate(119.711451928 0.0)scale(0.996264009963)" xlink:href="#CMSS17-50"/>
    </g>
   </g>
   <g id="text_26">
    <!-- 0.34 -->
    <defs>
     <path d="M 35.203125 17 
L 44.296875 17 
L 44.296875 23.078125 
L 35.203125 23.078125 
L 35.203125 65.5 
L 26.40625 65.5 
L 2.59375 23.078125 
L 2.59375 17 
L 27.296875 17 
L 27.296875 0 
L 35.203125 0 
z
M 10.296875 23.078125 
C 16.09375 33.234375 27.59375 53.734375 27.59375 60.703125 
L 27.59375 23.078125 
z
" id="CMSS17-52"/>
    </defs>
    <g style="fill:#262626;" transform="translate(398.468119369 480.356606088)scale(0.25 -0.25)">
     <use transform="scale(0.996264009963)" xlink:href="#CMSS17-48"/>
     <use transform="translate(46.8436235212 0.0)scale(0.996264009963)" xlink:href="#CMSS17-46"/>
     <use transform="translate(72.8678284071 0.0)scale(0.996264009963)" xlink:href="#CMSS17-51"/>
     <use transform="translate(119.711451928 0.0)scale(0.996264009963)" xlink:href="#CMSS17-52"/>
    </g>
   </g>
   <g id="text_27">
    <!-- 0.12 -->
    <g style="fill:#262626;" transform="translate(473.393119369 480.356606088)scale(0.25 -0.25)">
     <use transform="scale(0.996264009963)" xlink:href="#CMSS17-48"/>
     <use transform="translate(46.8436235212 0.0)scale(0.996264009963)" xlink:href="#CMSS17-46"/>
     <use transform="translate(72.8678284071 0.0)scale(0.996264009963)" xlink:href="#CMSS17-49"/>
     <use transform="translate(119.711451928 0.0)scale(0.996264009963)" xlink:href="#CMSS17-50"/>
    </g>
   </g>
   <g id="text_28">
    <!-- 0.11 -->
    <g style="fill:#262626;" transform="translate(548.318119369 480.356606088)scale(0.25 -0.25)">
     <use transform="scale(0.996264009963)" xlink:href="#CMSS17-48"/>
     <use transform="translate(46.8436235212 0.0)scale(0.996264009963)" xlink:href="#CMSS17-46"/>
     <use transform="translate(72.8678284071 0.0)scale(0.996264009963)" xlink:href="#CMSS17-49"/>
     <use transform="translate(119.711451928 0.0)scale(0.996264009963)" xlink:href="#CMSS17-49"/>
    </g>
   </g>
   <g id="text_29">
    <!-- 1 -->
    <g style="fill:#ffffff;" transform="translate(38.8070470599 404.668890925)scale(0.25 -0.25)">
     <use transform="scale(0.996264009963)" xlink:href="#CMSS17-49"/>
    </g>
   </g>
   <g id="text_30">
    <!-- 1 -->
    <g style="fill:#ffffff;" transform="translate(113.73204706 404.668890925)scale(0.25 -0.25)">
     <use transform="scale(0.996264009963)" xlink:href="#CMSS17-49"/>
    </g>
   </g>
   <g id="text_31">
    <!-- 0.12 -->
    <g style="fill:#262626;" transform="translate(173.693119369 404.668890925)scale(0.25 -0.25)">
     <use transform="scale(0.996264009963)" xlink:href="#CMSS17-48"/>
     <use transform="translate(46.8436235212 0.0)scale(0.996264009963)" xlink:href="#CMSS17-46"/>
     <use transform="translate(72.8678284071 0.0)scale(0.996264009963)" xlink:href="#CMSS17-49"/>
     <use transform="translate(119.711451928 0.0)scale(0.996264009963)" xlink:href="#CMSS17-50"/>
    </g>
   </g>
   <g id="text_32">
    <!-- 0.12 -->
    <g style="fill:#262626;" transform="translate(248.618119369 404.668890925)scale(0.25 -0.25)">
     <use transform="scale(0.996264009963)" xlink:href="#CMSS17-48"/>
     <use transform="translate(46.8436235212 0.0)scale(0.996264009963)" xlink:href="#CMSS17-46"/>
     <use transform="translate(72.8678284071 0.0)scale(0.996264009963)" xlink:href="#CMSS17-49"/>
     <use transform="translate(119.711451928 0.0)scale(0.996264009963)" xlink:href="#CMSS17-50"/>
    </g>
   </g>
   <g id="text_33">
    <!-- 0.29 -->
    <g style="fill:#262626;" transform="translate(323.543119369 404.668890925)scale(0.25 -0.25)">
     <use transform="scale(0.996264009963)" xlink:href="#CMSS17-48"/>
     <use transform="translate(46.8436235212 0.0)scale(0.996264009963)" xlink:href="#CMSS17-46"/>
     <use transform="translate(72.8678284071 0.0)scale(0.996264009963)" xlink:href="#CMSS17-50"/>
     <use transform="translate(119.711451928 0.0)scale(0.996264009963)" xlink:href="#CMSS17-57"/>
    </g>
   </g>
   <g id="text_34">
    <!-- 0.12 -->
    <g style="fill:#262626;" transform="translate(398.468119369 404.668890925)scale(0.25 -0.25)">
     <use transform="scale(0.996264009963)" xlink:href="#CMSS17-48"/>
     <use transform="translate(46.8436235212 0.0)scale(0.996264009963)" xlink:href="#CMSS17-46"/>
     <use transform="translate(72.8678284071 0.0)scale(0.996264009963)" xlink:href="#CMSS17-49"/>
     <use transform="translate(119.711451928 0.0)scale(0.996264009963)" xlink:href="#CMSS17-50"/>
    </g>
   </g>
   <g id="text_35">
    <!-- 0.11 -->
    <g style="fill:#262626;" transform="translate(473.393119369 404.668890925)scale(0.25 -0.25)">
     <use transform="scale(0.996264009963)" xlink:href="#CMSS17-48"/>
     <use transform="translate(46.8436235212 0.0)scale(0.996264009963)" xlink:href="#CMSS17-46"/>
     <use transform="translate(72.8678284071 0.0)scale(0.996264009963)" xlink:href="#CMSS17-49"/>
     <use transform="translate(119.711451928 0.0)scale(0.996264009963)" xlink:href="#CMSS17-49"/>
    </g>
   </g>
   <g id="text_36">
    <!-- 0.12 -->
    <g style="fill:#262626;" transform="translate(548.318119369 404.668890925)scale(0.25 -0.25)">
     <use transform="scale(0.996264009963)" xlink:href="#CMSS17-48"/>
     <use transform="translate(46.8436235212 0.0)scale(0.996264009963)" xlink:href="#CMSS17-46"/>
     <use transform="translate(72.8678284071 0.0)scale(0.996264009963)" xlink:href="#CMSS17-49"/>
     <use transform="translate(119.711451928 0.0)scale(0.996264009963)" xlink:href="#CMSS17-50"/>
    </g>
   </g>
   <g id="text_37">
    <!-- 0.99 -->
    <g style="fill:#ffffff;" transform="translate(23.8431193693 328.981175762)scale(0.25 -0.25)">
     <use transform="scale(0.996264009963)" xlink:href="#CMSS17-48"/>
     <use transform="translate(46.8436235212 0.0)scale(0.996264009963)" xlink:href="#CMSS17-46"/>
     <use transform="translate(72.8678284071 0.0)scale(0.996264009963)" xlink:href="#CMSS17-57"/>
     <use transform="translate(119.711451928 0.0)scale(0.996264009963)" xlink:href="#CMSS17-57"/>
    </g>
   </g>
   <g id="text_38">
    <!-- 0.99 -->
    <g style="fill:#ffffff;" transform="translate(98.7681193693 328.981175762)scale(0.25 -0.25)">
     <use transform="scale(0.996264009963)" xlink:href="#CMSS17-48"/>
     <use transform="translate(46.8436235212 0.0)scale(0.996264009963)" xlink:href="#CMSS17-46"/>
     <use transform="translate(72.8678284071 0.0)scale(0.996264009963)" xlink:href="#CMSS17-57"/>
     <use transform="translate(119.711451928 0.0)scale(0.996264009963)" xlink:href="#CMSS17-57"/>
    </g>
   </g>
   <g id="text_39">
    <!-- 0.13 -->
    <g style="fill:#262626;" transform="translate(173.693119369 328.981175762)scale(0.25 -0.25)">
     <use transform="scale(0.996264009963)" xlink:href="#CMSS17-48"/>
     <use transform="translate(46.8436235212 0.0)scale(0.996264009963)" xlink:href="#CMSS17-46"/>
     <use transform="translate(72.8678284071 0.0)scale(0.996264009963)" xlink:href="#CMSS17-49"/>
     <use transform="translate(119.711451928 0.0)scale(0.996264009963)" xlink:href="#CMSS17-51"/>
    </g>
   </g>
   <g id="text_40">
    <!-- 0.38 -->
    <g style="fill:#262626;" transform="translate(248.618119369 328.981175762)scale(0.25 -0.25)">
     <use transform="scale(0.996264009963)" xlink:href="#CMSS17-48"/>
     <use transform="translate(46.8436235212 0.0)scale(0.996264009963)" xlink:href="#CMSS17-46"/>
     <use transform="translate(72.8678284071 0.0)scale(0.996264009963)" xlink:href="#CMSS17-51"/>
     <use transform="translate(119.711451928 0.0)scale(0.996264009963)" xlink:href="#CMSS17-56"/>
    </g>
   </g>
   <g id="text_41">
    <!-- 0.12 -->
    <g style="fill:#262626;" transform="translate(323.543119369 328.981175762)scale(0.25 -0.25)">
     <use transform="scale(0.996264009963)" xlink:href="#CMSS17-48"/>
     <use transform="translate(46.8436235212 0.0)scale(0.996264009963)" xlink:href="#CMSS17-46"/>
     <use transform="translate(72.8678284071 0.0)scale(0.996264009963)" xlink:href="#CMSS17-49"/>
     <use transform="translate(119.711451928 0.0)scale(0.996264009963)" xlink:href="#CMSS17-50"/>
    </g>
   </g>
   <g id="text_42">
    <!-- 0.12 -->
    <g style="fill:#262626;" transform="translate(398.468119369 328.981175762)scale(0.25 -0.25)">
     <use transform="scale(0.996264009963)" xlink:href="#CMSS17-48"/>
     <use transform="translate(46.8436235212 0.0)scale(0.996264009963)" xlink:href="#CMSS17-46"/>
     <use transform="translate(72.8678284071 0.0)scale(0.996264009963)" xlink:href="#CMSS17-49"/>
     <use transform="translate(119.711451928 0.0)scale(0.996264009963)" xlink:href="#CMSS17-50"/>
    </g>
   </g>
   <g id="text_43">
    <!-- 0.12 -->
    <g style="fill:#262626;" transform="translate(473.393119369 328.981175762)scale(0.25 -0.25)">
     <use transform="scale(0.996264009963)" xlink:href="#CMSS17-48"/>
     <use transform="translate(46.8436235212 0.0)scale(0.996264009963)" xlink:href="#CMSS17-46"/>
     <use transform="translate(72.8678284071 0.0)scale(0.996264009963)" xlink:href="#CMSS17-49"/>
     <use transform="translate(119.711451928 0.0)scale(0.996264009963)" xlink:href="#CMSS17-50"/>
    </g>
   </g>
   <g id="text_44">
    <!-- 0.12 -->
    <g style="fill:#262626;" transform="translate(548.318119369 328.981175762)scale(0.25 -0.25)">
     <use transform="scale(0.996264009963)" xlink:href="#CMSS17-48"/>
     <use transform="translate(46.8436235212 0.0)scale(0.996264009963)" xlink:href="#CMSS17-46"/>
     <use transform="translate(72.8678284071 0.0)scale(0.996264009963)" xlink:href="#CMSS17-49"/>
     <use transform="translate(119.711451928 0.0)scale(0.996264009963)" xlink:href="#CMSS17-50"/>
    </g>
   </g>
   <g id="text_45">
    <!-- 0.94 -->
    <g style="fill:#ffffff;" transform="translate(23.8431193693 253.293460599)scale(0.25 -0.25)">
     <use transform="scale(0.996264009963)" xlink:href="#CMSS17-48"/>
     <use transform="translate(46.8436235212 0.0)scale(0.996264009963)" xlink:href="#CMSS17-46"/>
     <use transform="translate(72.8678284071 0.0)scale(0.996264009963)" xlink:href="#CMSS17-57"/>
     <use transform="translate(119.711451928 0.0)scale(0.996264009963)" xlink:href="#CMSS17-52"/>
    </g>
   </g>
   <g id="text_46">
    <!-- 1 -->
    <g style="fill:#ffffff;" transform="translate(113.73204706 253.293460599)scale(0.25 -0.25)">
     <use transform="scale(0.996264009963)" xlink:href="#CMSS17-49"/>
    </g>
   </g>
   <g id="text_47">
    <!-- 0.35 -->
    <defs>
     <path d="M 14.59375 58.625 
L 39.09375 58.625 
L 39.09375 65 
L 7.296875 65 
L 7.296875 27.828125 
L 14 27.828125 
C 15.796875 31.96875 19.5 35 24.296875 35 
C 28.796875 35 33.796875 31.078125 33.796875 19.78125 
C 33.796875 7.703125 26.703125 4.171875 21.5 4.171875 
C 15.09375 4.171875 9.203125 8 6.59375 13.296875 
L 3.40625 7.796875 
C 8 0.765625 15.5 -2 21.5 -2 
C 33.09375 -2 42.203125 7.765625 42.203125 19.578125 
C 42.203125 31.71875 34.09375 41.078125 24.40625 41.078125 
C 20.90625 41.078125 17.5 39.890625 14.59375 37.484375 
z
" id="CMSS17-53"/>
    </defs>
    <g style="fill:#262626;" transform="translate(173.693119369 253.293460599)scale(0.25 -0.25)">
     <use transform="scale(0.996264009963)" xlink:href="#CMSS17-48"/>
     <use transform="translate(46.8436235212 0.0)scale(0.996264009963)" xlink:href="#CMSS17-46"/>
     <use transform="translate(72.8678284071 0.0)scale(0.996264009963)" xlink:href="#CMSS17-51"/>
     <use transform="translate(119.711451928 0.0)scale(0.996264009963)" xlink:href="#CMSS17-53"/>
    </g>
   </g>
   <g id="text_48">
    <!-- 0.13 -->
    <g style="fill:#262626;" transform="translate(248.618119369 253.293460599)scale(0.25 -0.25)">
     <use transform="scale(0.996264009963)" xlink:href="#CMSS17-48"/>
     <use transform="translate(46.8436235212 0.0)scale(0.996264009963)" xlink:href="#CMSS17-46"/>
     <use transform="translate(72.8678284071 0.0)scale(0.996264009963)" xlink:href="#CMSS17-49"/>
     <use transform="translate(119.711451928 0.0)scale(0.996264009963)" xlink:href="#CMSS17-51"/>
    </g>
   </g>
   <g id="text_49">
    <!-- 0.12 -->
    <g style="fill:#262626;" transform="translate(323.543119369 253.293460599)scale(0.25 -0.25)">
     <use transform="scale(0.996264009963)" xlink:href="#CMSS17-48"/>
     <use transform="translate(46.8436235212 0.0)scale(0.996264009963)" xlink:href="#CMSS17-46"/>
     <use transform="translate(72.8678284071 0.0)scale(0.996264009963)" xlink:href="#CMSS17-49"/>
     <use transform="translate(119.711451928 0.0)scale(0.996264009963)" xlink:href="#CMSS17-50"/>
    </g>
   </g>
   <g id="text_50">
    <!-- 0.12 -->
    <g style="fill:#262626;" transform="translate(398.468119369 253.293460599)scale(0.25 -0.25)">
     <use transform="scale(0.996264009963)" xlink:href="#CMSS17-48"/>
     <use transform="translate(46.8436235212 0.0)scale(0.996264009963)" xlink:href="#CMSS17-46"/>
     <use transform="translate(72.8678284071 0.0)scale(0.996264009963)" xlink:href="#CMSS17-49"/>
     <use transform="translate(119.711451928 0.0)scale(0.996264009963)" xlink:href="#CMSS17-50"/>
    </g>
   </g>
   <g id="text_51">
    <!-- 0.12 -->
    <g style="fill:#262626;" transform="translate(473.393119369 253.293460599)scale(0.25 -0.25)">
     <use transform="scale(0.996264009963)" xlink:href="#CMSS17-48"/>
     <use transform="translate(46.8436235212 0.0)scale(0.996264009963)" xlink:href="#CMSS17-46"/>
     <use transform="translate(72.8678284071 0.0)scale(0.996264009963)" xlink:href="#CMSS17-49"/>
     <use transform="translate(119.711451928 0.0)scale(0.996264009963)" xlink:href="#CMSS17-50"/>
    </g>
   </g>
   <g id="text_52">
    <!-- 0.12 -->
    <g style="fill:#262626;" transform="translate(548.318119369 253.293460599)scale(0.25 -0.25)">
     <use transform="scale(0.996264009963)" xlink:href="#CMSS17-48"/>
     <use transform="translate(46.8436235212 0.0)scale(0.996264009963)" xlink:href="#CMSS17-46"/>
     <use transform="translate(72.8678284071 0.0)scale(0.996264009963)" xlink:href="#CMSS17-49"/>
     <use transform="translate(119.711451928 0.0)scale(0.996264009963)" xlink:href="#CMSS17-50"/>
    </g>
   </g>
   <g id="text_53">
    <!-- 1 -->
    <g style="fill:#ffffff;" transform="translate(38.8070470599 177.605745436)scale(0.25 -0.25)">
     <use transform="scale(0.996264009963)" xlink:href="#CMSS17-49"/>
    </g>
   </g>
   <g id="text_54">
    <!-- 2.6 -->
    <defs>
     <path d="M 39 64.078125 
C 34.796875 65.78125 31.796875 66.078125 29 66.078125 
C 16 66.078125 3.90625 52.625 3.90625 31.34375 
C 3.90625 4.140625 15.40625 -2 23.59375 -2 
C 28.09375 -2 32.59375 -0.609375 36.90625 4.375 
C 41.296875 9.640625 43 14.03125 43 21.703125 
C 43 34.046875 36.90625 45 27.796875 45 
C 21.203125 45 15.5 41.515625 12 37.125 
C 13 50.90625 19.59375 60 29.09375 60 
C 31.703125 60 35.09375 59.625 39 57.96875 
z
M 12.09375 21.390625 
C 12.09375 22.1875 12.09375 22.6875 12.203125 24.1875 
C 12.203125 31.953125 16.703125 38.921875 24 38.921875 
C 28.703125 38.921875 31.09375 36.4375 32.90625 33.359375 
C 35 29.46875 35.09375 25.78125 35.09375 21.703125 
C 35.09375 17.8125 35.09375 13.921875 32.796875 9.953125 
C 30.90625 6.859375 28.40625 4.171875 23.59375 4.171875 
C 14.09375 4.171875 12.5 17.40625 12.09375 21.390625 
" id="CMSS17-54"/>
    </defs>
    <g style="fill:#ffffff;" transform="translate(104.623572309 177.605745436)scale(0.25 -0.25)">
     <use transform="scale(0.996264009963)" xlink:href="#CMSS17-50"/>
     <use transform="translate(46.8436235212 0.0)scale(0.996264009963)" xlink:href="#CMSS17-46"/>
     <use transform="translate(72.8678284071 0.0)scale(0.996264009963)" xlink:href="#CMSS17-54"/>
    </g>
   </g>
   <g id="text_55">
    <!-- 1 -->
    <g style="fill:#ffffff;" transform="translate(188.65704706 177.605745436)scale(0.25 -0.25)">
     <use transform="scale(0.996264009963)" xlink:href="#CMSS17-49"/>
    </g>
   </g>
   <g id="text_56">
    <!-- 0.99 -->
    <g style="fill:#ffffff;" transform="translate(248.618119369 177.605745436)scale(0.25 -0.25)">
     <use transform="scale(0.996264009963)" xlink:href="#CMSS17-48"/>
     <use transform="translate(46.8436235212 0.0)scale(0.996264009963)" xlink:href="#CMSS17-46"/>
     <use transform="translate(72.8678284071 0.0)scale(0.996264009963)" xlink:href="#CMSS17-57"/>
     <use transform="translate(119.711451928 0.0)scale(0.996264009963)" xlink:href="#CMSS17-57"/>
    </g>
   </g>
   <g id="text_57">
    <!-- 1 -->
    <g style="fill:#ffffff;" transform="translate(338.50704706 177.605745436)scale(0.25 -0.25)">
     <use transform="scale(0.996264009963)" xlink:href="#CMSS17-49"/>
    </g>
   </g>
   <g id="text_58">
    <!-- 1 -->
    <g style="fill:#ffffff;" transform="translate(413.43204706 177.605745436)scale(0.25 -0.25)">
     <use transform="scale(0.996264009963)" xlink:href="#CMSS17-49"/>
    </g>
   </g>
   <g id="text_59">
    <!-- 1 -->
    <g style="fill:#ffffff;" transform="translate(488.35704706 177.605745436)scale(0.25 -0.25)">
     <use transform="scale(0.996264009963)" xlink:href="#CMSS17-49"/>
    </g>
   </g>
   <g id="text_60">
    <!-- 0.98 -->
    <g style="fill:#ffffff;" transform="translate(548.318119369 177.605745436)scale(0.25 -0.25)">
     <use transform="scale(0.996264009963)" xlink:href="#CMSS17-48"/>
     <use transform="translate(46.8436235212 0.0)scale(0.996264009963)" xlink:href="#CMSS17-46"/>
     <use transform="translate(72.8678284071 0.0)scale(0.996264009963)" xlink:href="#CMSS17-57"/>
     <use transform="translate(119.711451928 0.0)scale(0.996264009963)" xlink:href="#CMSS17-56"/>
    </g>
   </g>
   <g id="text_61">
    <!-- 2.7 -->
    <defs>
     <path d="M 21.703125 59 
C 22.90625 59 24.09375 59 25.296875 59 
L 36.796875 59 
C 22.5 42.359375 14.296875 21.328125 14.296875 -0.5 
L 22.296875 -0.5 
C 22.296875 20.671875 29.296875 42.125 43 59.296875 
L 43 65.765625 
L 3.90625 65.765625 
L 3.90625 59 
z
" id="CMSS17-55"/>
    </defs>
    <g style="fill:#ffffff;" transform="translate(29.6985723094 101.918030273)scale(0.25 -0.25)">
     <use transform="scale(0.996264009963)" xlink:href="#CMSS17-50"/>
     <use transform="translate(46.8436235212 0.0)scale(0.996264009963)" xlink:href="#CMSS17-46"/>
     <use transform="translate(72.8678284071 0.0)scale(0.996264009963)" xlink:href="#CMSS17-55"/>
    </g>
   </g>
   <g id="text_62">
    <!-- 1 -->
    <g style="fill:#ffffff;" transform="translate(113.73204706 101.918030273)scale(0.25 -0.25)">
     <use transform="scale(0.996264009963)" xlink:href="#CMSS17-49"/>
    </g>
   </g>
   <g id="text_63">
    <!-- 0.94 -->
    <g style="fill:#ffffff;" transform="translate(173.693119369 101.918030273)scale(0.25 -0.25)">
     <use transform="scale(0.996264009963)" xlink:href="#CMSS17-48"/>
     <use transform="translate(46.8436235212 0.0)scale(0.996264009963)" xlink:href="#CMSS17-46"/>
     <use transform="translate(72.8678284071 0.0)scale(0.996264009963)" xlink:href="#CMSS17-57"/>
     <use transform="translate(119.711451928 0.0)scale(0.996264009963)" xlink:href="#CMSS17-52"/>
    </g>
   </g>
   <g id="text_64">
    <!-- 0.99 -->
    <g style="fill:#ffffff;" transform="translate(248.618119369 101.918030273)scale(0.25 -0.25)">
     <use transform="scale(0.996264009963)" xlink:href="#CMSS17-48"/>
     <use transform="translate(46.8436235212 0.0)scale(0.996264009963)" xlink:href="#CMSS17-46"/>
     <use transform="translate(72.8678284071 0.0)scale(0.996264009963)" xlink:href="#CMSS17-57"/>
     <use transform="translate(119.711451928 0.0)scale(0.996264009963)" xlink:href="#CMSS17-57"/>
    </g>
   </g>
   <g id="text_65">
    <!-- 1 -->
    <g style="fill:#ffffff;" transform="translate(338.50704706 101.918030273)scale(0.25 -0.25)">
     <use transform="scale(0.996264009963)" xlink:href="#CMSS17-49"/>
    </g>
   </g>
   <g id="text_66">
    <!-- 1 -->
    <g style="fill:#ffffff;" transform="translate(413.43204706 101.918030273)scale(0.25 -0.25)">
     <use transform="scale(0.996264009963)" xlink:href="#CMSS17-49"/>
    </g>
   </g>
   <g id="text_67">
    <!-- 1 -->
    <g style="fill:#ffffff;" transform="translate(488.35704706 101.918030273)scale(0.25 -0.25)">
     <use transform="scale(0.996264009963)" xlink:href="#CMSS17-49"/>
    </g>
   </g>
   <g id="text_68">
    <!-- 1 -->
    <g style="fill:#ffffff;" transform="translate(563.28204706 101.918030273)scale(0.25 -0.25)">
     <use transform="scale(0.996264009963)" xlink:href="#CMSS17-49"/>
    </g>
   </g>
   <g id="text_69">
    <!-- $\langle \lambda_{jk}\rangle$ -->
    <defs>
     <path d="M 27.296875 23.296875 
C 27.796875 24.5 27.796875 24.703125 27.796875 25 
C 27.796875 25.296875 27.796875 25.5 27.296875 26.703125 
L 9.796875 72.703125 
C 9.203125 74.40625 8.59375 75 7.5 75 
C 6.40625 75 5.5 74.09375 5.5 73 
C 5.5 72.703125 5.5 72.5 6 71.40625 
L 23.703125 25 
L 6 -21.203125 
C 5.5 -22.296875 5.5 -22.5 5.5 -23 
C 5.5 -24.09375 6.40625 -25 7.5 -25 
C 8.796875 -25 9.203125 -24 9.59375 -23 
z
" id="CMSY10-105"/>
     <path d="M 28.09375 66.515625 
C 28.203125 66.921875 28.40625 67.515625 28.40625 68 
C 28.40625 69 27.40625 69 27.203125 69 
C 27.09375 69 23.5 68.640625 21.703125 68.390625 
C 20 68.390625 18.5 68.09375 16.703125 68.09375 
C 14.296875 67.890625 13.59375 67.796875 13.59375 66 
C 13.59375 65 14.59375 65 15.59375 65 
C 20.703125 65 20.703125 64.109375 20.703125 63.125 
C 20.703125 62.734375 20.703125 62.53125 20.203125 60.75 
L 5.90625 3.875 
C 5.5 2.375 5.5 2.1875 5.5 1.578125 
C 5.5 -0.59375 7.203125 -1 8.203125 -1 
C 11 -1 11.59375 1.203125 12.40625 4.296875 
L 17.09375 22.953125 
C 24.296875 22.15625 28.59375 19.15625 28.59375 14.375 
C 28.59375 13.765625 28.59375 13.375 28.296875 11.875 
C 27.90625 10.375 27.90625 9.1875 27.90625 8.6875 
C 27.90625 2.890625 31.703125 -1 36.796875 -1 
C 41.40625 -1 43.796875 3.1875 44.59375 4.59375 
C 46.703125 8.28125 48 13.875 48 14.265625 
C 48 14.765625 47.59375 15.171875 47 15.171875 
C 46.09375 15.171875 46 14.765625 45.59375 13.171875 
C 44.203125 7.984375 42.09375 1 37 1 
C 35 1 33.703125 2 33.703125 5.78125 
C 33.703125 7.6875 34.09375 9.875 34.5 11.375 
C 34.90625 13.171875 34.90625 13.265625 34.90625 14.46875 
C 34.90625 20.359375 29.59375 23.65625 20.40625 24.84375 
C 24 27.046875 27.59375 30.9375 29 32.4375 
C 34.703125 38.8125 38.59375 42.015625 43.203125 42.015625 
C 45.5 42.015625 46.09375 41.40625 46.796875 40.8125 
C 43.09375 40.40625 41.703125 37.8125 41.703125 35.828125 
C 41.703125 33.421875 43.59375 32.625 45 32.625 
C 47.703125 32.625 50.09375 34.921875 50.09375 38.125 
C 50.09375 41.015625 47.796875 44 43.296875 44 
C 37.796875 44 33.296875 40.109375 26.203125 32.125 
C 25.203125 30.9375 21.5 27.140625 17.796875 25.75 
z
" id="CMMI12-107"/>
     <path d="M 35 31.6875 
C 35.40625 33.296875 35.40625 34.671875 35.40625 35.078125 
C 35.40625 40.828125 31.09375 44 26.59375 44 
C 16.5 44 11.09375 29.515625 11.09375 28.828125 
C 11.09375 28.328125 11.5 27.9375 12.09375 27.9375 
C 12.90625 27.9375 13 28.328125 13.5 29.3125 
C 17.5 38.9375 22.5 42.015625 26.296875 42.015625 
C 28.40625 42.015625 29.5 40.90625 29.5 37.453125 
C 29.5 35.078125 29.203125 34.078125 28.796875 32.296875 
L 19.296875 -5.109375 
C 17.40625 -12.4375 12.703125 -18 7.203125 -18 
C 6.796875 -18 4.703125 -18 2.796875 -17 
C 5.203125 -16.5 7.09375 -14.625 7.09375 -12.25 
C 7.09375 -10.65625 5.90625 -9.0625 3.703125 -9.0625 
C 1.09375 -9.0625 -1.296875 -11.25 -1.296875 -14.234375 
C -1.296875 -18.296875 3.09375 -20 7.203125 -20 
C 14.09375 -20 23.203125 -14.9375 25.703125 -5 
z
M 39.09375 62.703125 
C 39.09375 65.203125 37 66 35.796875 66 
C 33.09375 66 30.796875 63.40625 30.796875 61.203125 
C 30.796875 59.71875 32 57.921875 34.203125 57.921875 
C 36.5 57.921875 39.09375 60.109375 39.09375 62.703125 
" id="CMMI12-106"/>
     <path d="M 30.90625 61.953125 
C 28.40625 69 20.5 69 19.203125 69 
C 18.59375 69 17.5 69 17.5 68 
C 17.5 67.21875 18.09375 67.109375 18.59375 67.015625 
C 20.09375 66.8125 21.296875 66.609375 22.90625 63.75 
C 23.90625 61.859375 34.203125 32.171875 34.203125 31.96875 
C 34.203125 31.875 34.09375 31.765625 33.296875 30.96875 
L 7.296875 4.859375 
C 6.09375 3.65625 5.296875 2.859375 5.296875 1.59375 
C 5.296875 0.1875 6.5 -1 8.09375 -1 
C 8.5 -1 9.59375 -0.796875 10.203125 -0.203125 
C 11.796875 1.28125 26.09375 18.65625 35.203125 29.390625 
C 37.796875 21.609375 41 12.453125 44.09375 4.078125 
C 44.59375 2.59375 45.09375 1.1875 46.5 -0.09375 
C 47.5 -1 47.703125 -1 50.5 -1 
L 52.40625 -1 
C 52.796875 -1 53.5 -1 53.5 -0.203125 
C 53.5 0.203125 53.40625 0.296875 53 0.703125 
C 52.09375 1.796875 51.40625 3.578125 51 4.78125 
z
" id="CMMI12-21"/>
     <path d="M 32.796875 71.203125 
C 33.296875 72.296875 33.296875 72.5 33.296875 73 
C 33.296875 74.09375 32.40625 75 31.296875 75 
C 30.40625 75 29.703125 74.5 29 72.703125 
L 11.5 26.796875 
C 11.296875 26.203125 11 25.59375 11 25 
C 11 24.703125 11 24.5 11.5 23.296875 
L 29 -22.59375 
C 29.40625 -23.703125 29.90625 -25 31.296875 -25 
C 32.40625 -25 33.296875 -24.09375 33.296875 -23 
C 33.296875 -22.703125 33.296875 -22.5 32.796875 -21.40625 
L 15.09375 25 
z
" id="CMSY10-104"/>
    </defs>
    <g style="fill:#262626;" transform="translate(265.766880424 40.7382786961)scale(0.4 -0.4)">
     <use transform="translate(0.0 14.9439145441)scale(0.996264009963)" xlink:href="#CMSY10-104"/>
     <use transform="translate(38.7437338253 14.9439145441)scale(0.996264009963)" xlink:href="#CMMI12-21"/>
     <use transform="translate(95.6478057139 0.0)scale(0.697381766617)" xlink:href="#CMMI12-106"/>
     <use transform="translate(127.821390002 0.0)scale(0.697381766617)" xlink:href="#CMMI12-107"/>
     <use transform="translate(166.17477246 14.9439145441)scale(0.996264009963)" xlink:href="#CMSY10-105"/>
    </g>
   </g>
  </g>
 </g>
 <defs>
  <clipPath id="pbc975afc73">
   <rect height="605.501721304" width="599.4" x="7.2" y="57.8483131222"/>
  </clipPath>
  <clipPath id="p1ec29c1382">
   <rect height="605.501721304" width="599.4" x="639.0" y="57.8483131222"/>
  </clipPath>
 </defs>
</svg>
