<?xml version="1.0" encoding="utf-8" standalone="no"?>
<!DOCTYPE svg PUBLIC "-//W3C//DTD SVG 1.1//EN"
  "http://www.w3.org/Graphics/SVG/1.1/DTD/svg11.dtd">
<!-- Created with matplotlib (http://matplotlib.org/) -->
<svg height="380pt" version="1.1" viewBox="0 0 669 380" width="669pt" xmlns="http://www.w3.org/2000/svg" xmlns:xlink="http://www.w3.org/1999/xlink">
 <defs>
  <style type="text/css">
*{stroke-linecap:butt;stroke-linejoin:round;stroke-miterlimit:100000;}
  </style>
 </defs>
 <g id="figure_1">
  <g id="patch_1">
   <path d="M 0 380.008913 
L 669.631722 380.008913 
L 669.631722 0 
L 0 0 
z
" style="fill:#ffffff;"/>
  </g>
  <g id="axes_1">
   <g id="patch_2">
    <path d="M 77.293627 320.955495 
L 653.293627 320.955495 
L 653.293627 32.955495 
L 77.293627 32.955495 
z
" style="fill:#eaeaf2;"/>
   </g>
   <g id="matplotlib.axis_1">
    <g id="xtick_1">
     <g id="line2d_1">
      <path clip-path="url(#p5cb3a19749)" d="M 77.293627 320.955495 
L 77.293627 32.955495 
" style="fill:none;stroke:#ffffff;stroke-linecap:round;"/>
     </g>
     <g id="line2d_2">
      <defs>
       <path d="M 0 0 
L 0 0 
" id="m2de8339585" style="stroke:#262626;"/>
      </defs>
      <g>
       <use style="fill:#262626;stroke:#262626;" x="77.2936265615" xlink:href="#m2de8339585" y="320.95549514"/>
      </g>
     </g>
     <g id="line2d_3">
      <g>
       <use style="fill:#262626;stroke:#262626;" x="77.2936265615" xlink:href="#m2de8339585" y="32.9554951403"/>
      </g>
     </g>
     <g id="text_1">
      <!-- $2$ -->
      <defs>
       <path d="M 41.703125 15.453125 
L 39.90625 15.453125 
C 38.90625 8.375 38.09375 7.171875 37.703125 6.5625 
C 37.203125 5.765625 30 5.765625 28.59375 5.765625 
L 9.40625 5.765625 
C 13 9.671875 20 16.75 28.5 24.953125 
C 34.59375 30.734375 41.703125 37.53125 41.703125 47.421875 
C 41.703125 59.21875 32.296875 66 21.796875 66 
C 10.796875 66 4.09375 56.3125 4.09375 47.34375 
C 4.09375 43.4375 7 42.9375 8.203125 42.9375 
C 9.203125 42.9375 12.203125 43.546875 12.203125 47.03125 
C 12.203125 50.109375 9.59375 51 8.203125 51 
C 7.59375 51 7 50.90625 6.59375 50.703125 
C 8.5 59.21875 14.296875 63.40625 20.40625 63.40625 
C 29.09375 63.40625 34.796875 56.515625 34.796875 47.421875 
C 34.796875 38.734375 29.703125 31.25 24 24.75 
L 4.09375 2.28125 
L 4.09375 0 
L 39.296875 0 
z
" id="CMR17-50"/>
      </defs>
      <g style="fill:#262626;" transform="translate(72.7245788498 341.7924919)scale(0.2 -0.2)">
       <use transform="scale(0.996264009963)" xlink:href="#CMR17-50"/>
      </g>
     </g>
    </g>
    <g id="xtick_2">
     <g id="line2d_4">
      <path clip-path="url(#p5cb3a19749)" d="M 149.293627 320.955495 
L 149.293627 32.955495 
" style="fill:none;stroke:#ffffff;stroke-linecap:round;"/>
     </g>
     <g id="line2d_5">
      <g>
       <use style="fill:#262626;stroke:#262626;" x="149.293626562" xlink:href="#m2de8339585" y="320.95549514"/>
      </g>
     </g>
     <g id="line2d_6">
      <g>
       <use style="fill:#262626;stroke:#262626;" x="149.293626562" xlink:href="#m2de8339585" y="32.9554951403"/>
      </g>
     </g>
     <g id="text_2">
      <!-- $3$ -->
      <defs>
       <path d="M 22.09375 33.703125 
C 31 33.703125 34.90625 25.96875 34.90625 17.03125 
C 34.90625 5 28.5 0.390625 22.703125 0.390625 
C 17.40625 0.390625 8.796875 3.03125 6.09375 10.828125 
C 6.59375 10.625 7.09375 10.625 7.59375 10.625 
C 10 10.625 11.796875 12.21875 11.796875 14.8125 
C 11.796875 17.703125 9.59375 19 7.59375 19 
C 5.90625 19 3.296875 18.203125 3.296875 14.46875 
C 3.296875 5.234375 12.296875 -2 22.90625 -2 
C 34 -2 42.5 6.71875 42.5 16.953125 
C 42.5 26.671875 34.5 33.6875 25 34.796875 
C 32.59375 36.375 39.90625 43.0625 39.90625 52.015625 
C 39.90625 59.6875 32 65.296875 23 65.296875 
C 13.90625 65.296875 5.90625 59.828125 5.90625 52.015625 
C 5.90625 48.59375 8.5 48 9.796875 48 
C 11.90625 48 13.703125 49.296875 13.703125 51.890625 
C 13.703125 54.46875 11.90625 55.765625 9.796875 55.765625 
C 9.40625 55.765625 8.90625 55.765625 8.5 55.578125 
C 11.40625 61.859375 19.296875 63 22.796875 63 
C 26.296875 63 32.90625 61.328125 32.90625 51.875 
C 32.90625 49.109375 32.5 44.1875 29.09375 39.84375 
C 26.09375 36 22.703125 36 19.40625 35.6875 
C 18.90625 35.6875 16.59375 35.453125 16.203125 35.453125 
C 15.5 35.359375 15.09375 35.265625 15.09375 34.5 
C 15.09375 33.796875 15.203125 33.703125 17.203125 33.703125 
z
" id="CMR17-51"/>
      </defs>
      <g style="fill:#262626;" transform="translate(144.72457885 341.7924919)scale(0.2 -0.2)">
       <use transform="scale(0.996264009963)" xlink:href="#CMR17-51"/>
      </g>
     </g>
    </g>
    <g id="xtick_3">
     <g id="line2d_7">
      <path clip-path="url(#p5cb3a19749)" d="M 221.293627 320.955495 
L 221.293627 32.955495 
" style="fill:none;stroke:#ffffff;stroke-linecap:round;"/>
     </g>
     <g id="line2d_8">
      <g>
       <use style="fill:#262626;stroke:#262626;" x="221.293626562" xlink:href="#m2de8339585" y="320.95549514"/>
      </g>
     </g>
     <g id="line2d_9">
      <g>
       <use style="fill:#262626;stroke:#262626;" x="221.293626562" xlink:href="#m2de8339585" y="32.9554951403"/>
      </g>
     </g>
     <g id="text_3">
      <!-- $4$ -->
      <defs>
       <path d="M 33.59375 64.40625 
C 33.59375 66.5 33.5 66.5 31.703125 66.5 
L 2 19.59375 
L 2 17 
L 27.796875 17 
L 27.796875 7.140625 
C 27.796875 3.5 27.59375 2.5 20.59375 2.5 
L 18.703125 2.5 
L 18.703125 0 
C 21.90625 0 27.296875 0 30.703125 0 
C 34.09375 0 39.5 0 42.703125 0 
L 42.703125 2.5 
L 40.796875 2.5 
C 33.796875 2.5 33.59375 3.5 33.59375 7.140625 
L 33.59375 17 
L 43.796875 17 
L 43.796875 19.59375 
L 33.59375 19.59375 
z
M 28.09375 57.859375 
L 28.09375 19.59375 
L 4 19.59375 
z
" id="CMR17-52"/>
      </defs>
      <g style="fill:#262626;" transform="translate(216.72457885 341.7924919)scale(0.2 -0.2)">
       <use transform="scale(0.996264009963)" xlink:href="#CMR17-52"/>
      </g>
     </g>
    </g>
    <g id="xtick_4">
     <g id="line2d_10">
      <path clip-path="url(#p5cb3a19749)" d="M 293.293627 320.955495 
L 293.293627 32.955495 
" style="fill:none;stroke:#ffffff;stroke-linecap:round;"/>
     </g>
     <g id="line2d_11">
      <g>
       <use style="fill:#262626;stroke:#262626;" x="293.293626562" xlink:href="#m2de8339585" y="320.95549514"/>
      </g>
     </g>
     <g id="line2d_12">
      <g>
       <use style="fill:#262626;stroke:#262626;" x="293.293626562" xlink:href="#m2de8339585" y="32.9554951403"/>
      </g>
     </g>
     <g id="text_4">
      <!-- $5$ -->
      <defs>
       <path d="M 11.40625 57.6875 
C 12.40625 57.28125 16.5 56 20.703125 56 
C 30 56 35.09375 61.109375 38 64.0625 
C 38 64.953125 38 65.5 37.40625 65.5 
C 37.296875 65.5 37.09375 65.5 36.296875 65.046875 
C 32.796875 63.40625 28.703125 62.078125 23.703125 62.078125 
C 20.703125 62.078125 16.203125 62.484375 11.296875 64.671875 
C 10.203125 65.171875 10 65.171875 9.90625 65.171875 
C 9.40625 65.171875 9.296875 65.0625 9.296875 63.078125 
L 9.296875 34.421875 
C 9.296875 32.640625 9.296875 32.140625 10.296875 32.140625 
C 10.796875 32.140625 11 32.34375 11.5 33.03125 
C 14.703125 37.515625 19.09375 39.40625 24.09375 39.40625 
C 27.59375 39.40625 35.09375 37.21875 35.09375 20.140625 
C 35.09375 16.953125 35.09375 11.171875 32.09375 6.578125 
C 29.59375 2.484375 25.703125 0.390625 21.40625 0.390625 
C 14.796875 0.390625 8.09375 5 6.296875 12.71875 
C 6.703125 12.609375 7.5 12.421875 7.90625 12.421875 
C 9.203125 12.421875 11.703125 13.125 11.703125 16.21875 
C 11.703125 18.90625 9.796875 20 7.90625 20 
C 5.59375 20 4.09375 18.59375 4.09375 15.796875 
C 4.09375 7.09375 11 -2 21.59375 -2 
C 31.90625 -2 41.703125 6.875 41.703125 19.75 
C 41.703125 31.71875 33.90625 41 24.203125 41 
C 19.09375 41 14.796875 39.109375 11.40625 35.53125 
z
" id="CMR17-53"/>
      </defs>
      <g style="fill:#262626;" transform="translate(288.72457885 341.7924919)scale(0.2 -0.2)">
       <use transform="scale(0.996264009963)" xlink:href="#CMR17-53"/>
      </g>
     </g>
    </g>
    <g id="xtick_5">
     <g id="line2d_13">
      <path clip-path="url(#p5cb3a19749)" d="M 365.293627 320.955495 
L 365.293627 32.955495 
" style="fill:none;stroke:#ffffff;stroke-linecap:round;"/>
     </g>
     <g id="line2d_14">
      <g>
       <use style="fill:#262626;stroke:#262626;" x="365.293626562" xlink:href="#m2de8339585" y="320.95549514"/>
      </g>
     </g>
     <g id="line2d_15">
      <g>
       <use style="fill:#262626;stroke:#262626;" x="365.293626562" xlink:href="#m2de8339585" y="32.9554951403"/>
      </g>
     </g>
     <g id="text_5">
      <!-- $6$ -->
      <defs>
       <path d="M 10.59375 34 
C 10.59375 57.65625 21.796875 63 28.296875 63 
C 30.40625 63 35.5 62.640625 37.5 59 
C 35.90625 59 32.90625 59 32.90625 55.515625 
C 32.90625 52.828125 35.09375 51.921875 36.5 51.921875 
C 37.40625 51.921875 40.09375 52.3125 40.09375 55.625 
C 40.09375 61.78125 35.09375 65.296875 28.203125 65.296875 
C 16.296875 65.296875 3.796875 52.96875 3.796875 31 
C 3.796875 3.953125 15.09375 -2 23.09375 -2 
C 32.796875 -2 42 6.671875 42 20.046875 
C 42 32.515625 33.90625 41.59375 23.703125 41.59375 
C 17.59375 41.59375 13.09375 37.609375 10.59375 30.625 
z
M 23.09375 0.390625 
C 10.796875 0.390625 10.796875 18.75 10.796875 22.4375 
C 10.796875 29.625 14.203125 40 23.5 40 
C 25.203125 40 30.09375 40 33.40625 33.125 
C 35.203125 29.21875 35.203125 25.140625 35.203125 20.140625 
C 35.203125 14.75 35.203125 10.78125 33.09375 6.78125 
C 30.90625 2.671875 27.703125 0.390625 23.09375 0.390625 
" id="CMR17-54"/>
      </defs>
      <g style="fill:#262626;" transform="translate(360.72457885 341.7924919)scale(0.2 -0.2)">
       <use transform="scale(0.996264009963)" xlink:href="#CMR17-54"/>
      </g>
     </g>
    </g>
    <g id="xtick_6">
     <g id="line2d_16">
      <path clip-path="url(#p5cb3a19749)" d="M 437.293627 320.955495 
L 437.293627 32.955495 
" style="fill:none;stroke:#ffffff;stroke-linecap:round;"/>
     </g>
     <g id="line2d_17">
      <g>
       <use style="fill:#262626;stroke:#262626;" x="437.293626562" xlink:href="#m2de8339585" y="320.95549514"/>
      </g>
     </g>
     <g id="line2d_18">
      <g>
       <use style="fill:#262626;stroke:#262626;" x="437.293626562" xlink:href="#m2de8339585" y="32.9554951403"/>
      </g>
     </g>
     <g id="text_6">
      <!-- $7$ -->
      <defs>
       <path d="M 45.09375 61.578125 
L 45.09375 63.765625 
L 21.59375 63.765625 
C 9.90625 63.765625 9.703125 65.078125 9.296875 67 
L 7.5 67 
L 4.59375 48.34375 
L 6.40625 48.34375 
C 6.703125 50.234375 7.40625 55.3125 8.59375 57.203125 
C 9.203125 58 16.59375 58 18.296875 58 
L 40.296875 58 
L 29.203125 41.578125 
C 21.796875 30.53125 16.703125 15.609375 16.703125 2.578125 
C 16.703125 1.390625 16.703125 -2 20.296875 -2 
C 23.90625 -2 23.90625 1.390625 23.90625 2.671875 
L 23.90625 7.265625 
C 23.90625 23.5625 26.703125 34.3125 31.296875 41.1875 
z
" id="CMR17-55"/>
      </defs>
      <g style="fill:#262626;" transform="translate(432.72457885 341.7924919)scale(0.2 -0.2)">
       <use transform="scale(0.996264009963)" xlink:href="#CMR17-55"/>
      </g>
     </g>
    </g>
    <g id="xtick_7">
     <g id="line2d_19">
      <path clip-path="url(#p5cb3a19749)" d="M 509.293627 320.955495 
L 509.293627 32.955495 
" style="fill:none;stroke:#ffffff;stroke-linecap:round;"/>
     </g>
     <g id="line2d_20">
      <g>
       <use style="fill:#262626;stroke:#262626;" x="509.293626562" xlink:href="#m2de8339585" y="320.95549514"/>
      </g>
     </g>
     <g id="line2d_21">
      <g>
       <use style="fill:#262626;stroke:#262626;" x="509.293626562" xlink:href="#m2de8339585" y="32.9554951403"/>
      </g>
     </g>
     <g id="text_7">
      <!-- $8$ -->
      <defs>
       <path d="M 27.203125 35.375 
C 33.5 38.546875 39.90625 43.328125 39.90625 50.984375 
C 39.90625 60.015625 31.09375 65.296875 23 65.296875 
C 13.90625 65.296875 5.90625 58.734375 5.90625 49.6875 
C 5.90625 47.203125 6.5 42.921875 10.40625 39.140625 
C 11.40625 38.15625 15.59375 35.171875 18.296875 33.28125 
C 13.796875 30.984375 3.296875 25.53125 3.296875 14.59375 
C 3.296875 4.359375 13.09375 -2 22.796875 -2 
C 33.5 -2 42.5 5.65625 42.5 15.78125 
C 42.5 24.84375 36.40625 29.015625 32.40625 31.703125 
z
M 14.09375 44.09375 
C 13.296875 44.59375 9.296875 47.671875 9.296875 52.359375 
C 9.296875 58.421875 15.59375 63 22.796875 63 
C 30.703125 63 36.5 57.4375 36.5 50.96875 
C 36.5 41.703125 26.09375 36.421875 25.59375 36.421875 
C 25.5 36.421875 25.40625 36.421875 24.59375 37.03125 
z
M 32.5 23.734375 
C 34 22.640625 38.796875 19.375 38.796875 13.296875 
C 38.796875 5.953125 31.40625 0.390625 23 0.390625 
C 13.90625 0.390625 7 6.84375 7 14.6875 
C 7 22.546875 13.09375 29.09375 20 32.1875 
z
" id="CMR17-56"/>
      </defs>
      <g style="fill:#262626;" transform="translate(504.72457885 341.7924919)scale(0.2 -0.2)">
       <use transform="scale(0.996264009963)" xlink:href="#CMR17-56"/>
      </g>
     </g>
    </g>
    <g id="xtick_8">
     <g id="line2d_22">
      <path clip-path="url(#p5cb3a19749)" d="M 581.293627 320.955495 
L 581.293627 32.955495 
" style="fill:none;stroke:#ffffff;stroke-linecap:round;"/>
     </g>
     <g id="line2d_23">
      <g>
       <use style="fill:#262626;stroke:#262626;" x="581.293626562" xlink:href="#m2de8339585" y="320.95549514"/>
      </g>
     </g>
     <g id="line2d_24">
      <g>
       <use style="fill:#262626;stroke:#262626;" x="581.293626562" xlink:href="#m2de8339585" y="32.9554951403"/>
      </g>
     </g>
     <g id="text_8">
      <!-- $9$ -->
      <defs>
       <path d="M 35.203125 29.125 
C 35.203125 7.25 26.09375 0.484375 18.59375 0.484375 
C 16.296875 0.484375 10.703125 0.484375 8.40625 4.59375 
C 11 4.1875 12.90625 5.578125 12.90625 8.09375 
C 12.90625 10.8125 10.703125 11.703125 9.296875 11.703125 
C 8.40625 11.703125 5.703125 11.296875 5.703125 7.90625 
C 5.703125 1.109375 11.59375 -2 18.796875 -2 
C 30.296875 -2 42 10.53125 42 32.390625 
C 42 59.640625 30.796875 65.296875 23.203125 65.296875 
C 13.296875 65.296875 3.796875 56.6875 3.796875 43.40625 
C 3.796875 31.109375 11.90625 22 22.09375 22 
C 30.5 22 34.203125 29.734375 35.203125 33 
z
M 22.296875 23.59375 
C 19.59375 23.59375 15.796875 24.09375 12.703125 30.03125 
C 10.59375 33.890625 10.59375 38.453125 10.59375 43.296875 
C 10.59375 49.15625 10.59375 53.203125 13.40625 57.5625 
C 14.796875 59.640625 17.40625 63 23.203125 63 
C 35 63 35 45.078125 35 41.125 
C 35 34.09375 31.796875 23.59375 22.296875 23.59375 
" id="CMR17-57"/>
      </defs>
      <g style="fill:#262626;" transform="translate(576.72457885 341.7924919)scale(0.2 -0.2)">
       <use transform="scale(0.996264009963)" xlink:href="#CMR17-57"/>
      </g>
     </g>
    </g>
    <g id="xtick_9">
     <g id="line2d_25">
      <path clip-path="url(#p5cb3a19749)" d="M 653.293627 320.955495 
L 653.293627 32.955495 
" style="fill:none;stroke:#ffffff;stroke-linecap:round;"/>
     </g>
     <g id="line2d_26">
      <g>
       <use style="fill:#262626;stroke:#262626;" x="653.293626562" xlink:href="#m2de8339585" y="320.95549514"/>
      </g>
     </g>
     <g id="line2d_27">
      <g>
       <use style="fill:#262626;stroke:#262626;" x="653.293626562" xlink:href="#m2de8339585" y="32.9554951403"/>
      </g>
     </g>
     <g id="text_9">
      <!-- $10$ -->
      <defs>
       <path d="M 26.59375 63.40625 
C 26.59375 65.5 26.5 65.5 25.09375 65.5 
C 21.203125 61.1875 15.296875 59.796875 9.703125 59.796875 
C 9.40625 59.796875 8.90625 59.796875 8.796875 59.5 
C 8.703125 59.296875 8.703125 59.09375 8.703125 57 
C 11.796875 57 17 57.59375 21 59.984375 
L 21 7.203125 
C 21 3.6875 20.796875 2.5 12.203125 2.5 
L 9.203125 2.5 
L 9.203125 0 
C 14 0 19 0 23.796875 0 
C 28.59375 0 33.59375 0 38.40625 0 
L 38.40625 2.5 
L 35.40625 2.5 
C 26.796875 2.5 26.59375 3.59375 26.59375 7.15625 
z
" id="CMR17-49"/>
       <path d="M 42 31.640625 
C 42 37.75 41.90625 48.125 37.703125 56.109375 
C 34 63.109375 28.09375 65.59375 22.90625 65.59375 
C 18.09375 65.59375 12 63.40625 8.203125 56.203125 
C 4.203125 48.71875 3.796875 39.4375 3.796875 31.640625 
C 3.796875 25.953125 3.90625 17.28125 7 9.671875 
C 11.296875 -0.609375 19 -2 22.90625 -2 
C 27.5 -2 34.5 -0.109375 38.59375 9.375 
C 41.59375 16.28125 42 24.359375 42 31.640625 
M 22.90625 -0.40625 
C 16.5 -0.40625 12.703125 5.078125 11.296875 12.6875 
C 10.203125 18.5625 10.203125 27.15625 10.203125 32.75 
C 10.203125 40.4375 10.203125 46.828125 11.5 52.921875 
C 13.40625 61.390625 19 64 22.90625 64 
C 27 64 32.296875 61.296875 34.203125 53.125 
C 35.5 47.4375 35.59375 40.734375 35.59375 32.75 
C 35.59375 26.25 35.59375 18.265625 34.40625 12.375 
C 32.296875 1.484375 26.40625 -0.40625 22.90625 -0.40625 
" id="CMR17-48"/>
      </defs>
      <g style="fill:#262626;" transform="translate(644.155531138 341.7924919)scale(0.2 -0.2)">
       <use transform="scale(0.996264009963)" xlink:href="#CMR17-49"/>
       <use transform="translate(45.6904771171 0.0)scale(0.996264009963)" xlink:href="#CMR17-48"/>
      </g>
     </g>
    </g>
    <g id="text_10">
     <!-- Model Dimension $d$ -->
     <defs>
      <path d="M 49.90625 37.046875 
L 45.09375 23.015625 
C 44.296875 20.421875 41.59375 12.359375 41 9.171875 
L 40.90625 9.171875 
C 40.59375 11.171875 40 13.265625 38.40625 18.34375 
C 37.5 21.328125 36.5 24.40625 35.5 27.203125 
L 20.703125 69 
L 9 69 
L 9 0 
L 16.796875 0 
L 16.796875 60.9375 
L 16.90625 60.9375 
C 16.90625 60.84375 17.796875 56.453125 23.90625 39.046875 
L 37.09375 1.5 
L 44.5 1.5 
L 56.40625 34.859375 
C 57.203125 37.15625 59.703125 44.421875 60.796875 47.90625 
C 61.796875 50.890625 64.296875 58.25 64.90625 61.140625 
L 65 61.140625 
L 65 0 
L 72.90625 0 
L 72.90625 69 
L 61.296875 69 
z
" id="CMSS17-77"/>
      <path d="M 32.203125 41.046875 
C 26.296875 43.859375 21.703125 43.859375 18.703125 43.859375 
C 11.59375 43.859375 3.09375 41.375 3.09375 31.296875 
C 3.09375 21.234375 14.09375 19.03125 17.09375 18.421875 
C 21.703125 17.53125 26.796875 16.53125 26.796875 11.5625 
C 26.796875 5.265625 19.59375 5.265625 18.296875 5.265625 
C 14.296875 5.265625 8.796875 6.359375 3.796875 9.96875 
L 2.59375 3.28125 
C 8.296875 0 13.796875 -1 18.40625 -1 
C 30.703125 -1 33.796875 6.5 33.796875 12.203125 
C 33.796875 17.09375 31 20.390625 29.09375 21.890625 
C 25.796875 24.5 24.59375 24.796875 16.40625 26.5 
C 15 26.703125 10.09375 27.796875 10.09375 32.28125 
C 10.09375 38 16.40625 38 17.796875 38 
C 24.296875 38 28.296875 35.984375 31 34.5 
z
" id="CMSS17-115"/>
      <path d="M 15.296875 65.359375 
L 6.90625 65.359375 
L 6.90625 57 
L 15.296875 57 
z
M 14.796875 42.796875 
L 7.40625 42.796875 
L 7.40625 0 
L 14.796875 0 
z
" id="CMSS17-105"/>
      <path d="M 44.203125 21.1875 
C 44.203125 34 34.703125 44 23.5 44 
C 12 44 2.703125 33.703125 2.703125 21.1875 
C 2.703125 8.5 12.296875 -1 23.40625 -1 
C 34.796875 -1 44.203125 8.796875 44.203125 21.1875 
M 23.5 5.265625 
C 16.40625 5.265625 10.296875 11.078125 10.296875 22 
C 10.296875 33.609375 17.40625 37.921875 23.40625 37.921875 
C 29.90625 37.921875 36.59375 33.21875 36.59375 22 
C 36.59375 10.671875 30.09375 5.265625 23.5 5.265625 
" id="CMSS17-111"/>
      <path d="M 40.90625 29.328125 
C 40.90625 35.671875 39.40625 44 28.09375 44 
C 21.703125 44 17.5 40.71875 14.703125 37.328125 
L 14.703125 43.09375 
L 7.40625 43.09375 
L 7.40625 0 
L 15 0 
L 15 24.359375 
C 15 30.6875 17.40625 37.9375 24.203125 37.9375 
C 33 37.9375 33.296875 32 33.296875 28.578125 
L 33.296875 0 
L 40.90625 0 
z
" id="CMSS17-110"/>
      <path d="M 40.796875 69 
L 33.40625 69 
L 33.40625 38.09375 
C 30.296875 40.671875 25.203125 43.0625 19.59375 43.0625 
C 10.5 43.0625 3.296875 33.296875 3.296875 21.03125 
C 3.296875 8.78125 10.40625 -1 19.296875 -1 
C 26.203125 -1 30.796875 2.6875 33.203125 4.78125 
L 33.203125 -0.203125 
L 40.796875 -0.203125 
z
M 33.203125 13.0625 
C 33.203125 11.671875 33.203125 10.203125 30.09375 7.53125 
C 28.09375 5.859375 25.703125 5.078125 23.40625 5.078125 
C 18 5.078125 10.90625 9 10.90625 20.9375 
C 10.90625 33.34375 18.90625 37 24.40625 37 
C 28.09375 37 31.09375 35.21875 33.203125 32.265625 
z
" id="CMSS17-100"/>
      <path d="M 39.09375 21.515625 
C 39.09375 24.84375 38.90625 31.296875 35.703125 36.640625 
C 32.203125 42.390625 26.5 44 22.203125 44 
C 11.796875 44 3 34.1875 3 21.484375 
C 3 9.09375 12.09375 -1 23.59375 -1 
C 28.09375 -1 33.59375 0.296875 38.59375 3.875 
C 38.59375 4.28125 38.40625 6.46875 38.296875 6.5625 
C 38.296875 6.765625 38 9.84375 38 10.25 
C 33.203125 6.359375 27.703125 5.078125 23.703125 5.078125 
C 17.296875 5.078125 10.40625 10.421875 10.09375 21.515625 
z
M 10.90625 27 
C 12.203125 32.5625 16.59375 37.828125 22.203125 37.828125 
C 23.703125 37.828125 30.703125 37.828125 32.5 27 
z
" id="CMSS17-101"/>
      <path d="M 14.796875 69 
L 7.40625 69 
L 7.40625 0 
L 14.796875 0 
z
" id="CMSS17-108"/>
      <path d="M 67 29.328125 
C 67 36.0625 65.296875 44 54.09375 44 
C 46.59375 44 42.09375 39.3125 40.09375 36.421875 
C 38.296875 41.71875 34.09375 44 28.09375 44 
C 21.296875 44 17 40.125 14.703125 37.328125 
L 14.703125 43.09375 
L 7.40625 43.09375 
L 7.40625 0 
L 15 0 
L 15 24.359375 
C 15 30.296875 17.203125 37.9375 24.296875 37.9375 
C 33.40625 37.9375 33.40625 31.5 33.40625 28.578125 
L 33.40625 0 
L 41 0 
L 41 24.359375 
C 41 30.296875 43.203125 37.9375 50.296875 37.9375 
C 59.40625 37.9375 59.40625 31.5 59.40625 28.578125 
L 59.40625 0 
L 67 0 
z
" id="CMSS17-109"/>
      <path d="M 8.90625 69 
L 8.90625 0 
L 33.5 0 
C 49.90625 0 62.5 15.3125 62.5 33.90625 
C 62.5 53.09375 49.90625 69 33.5 69 
z
M 17.09375 5.578125 
L 17.09375 63.421875 
L 31.296875 63.421875 
C 44.703125 63.421875 54.296875 51.203125 54.296875 33.90625 
C 54.296875 17.296875 44.796875 5.578125 31.296875 5.578125 
z
" id="CMSS17-68"/>
      <path d="M 50.296875 66.515625 
C 50.40625 66.90625 50.59375 67.5 50.59375 68 
C 50.59375 69 49.59375 69 49.40625 69 
C 49.296875 69 44.40625 68.5625 43.90625 68.4375 
C 42.203125 68.328125 40.703125 68.09375 38.90625 68.09375 
C 36.40625 67.890625 35.703125 67.796875 35.703125 66 
C 35.703125 65 36.5 65 37.90625 65 
C 42.796875 65 42.90625 64.109375 42.90625 63.125 
C 42.90625 62.53125 42.703125 61.75 42.59375 61.453125 
L 36.5 37.421875 
C 35.40625 40.015625 32.703125 44 27.5 44 
C 16.203125 44 4 29.4375 4 14.671875 
C 4 4.796875 9.796875 -1 16.59375 -1 
C 22.09375 -1 26.796875 3.296875 29.59375 6.59375 
C 30.59375 0.703125 35.296875 -1 38.296875 -1 
C 41.296875 -1 43.703125 0.796875 45.5 4.390625 
C 47.09375 7.78125 48.5 13.875 48.5 14.265625 
C 48.5 14.765625 48.09375 15.171875 47.5 15.171875 
C 46.59375 15.171875 46.5 14.671875 46.09375 13.171875 
C 44.59375 7.28125 42.703125 1 38.59375 1 
C 35.703125 1 35.5 3.578125 35.5 5.578125 
C 35.5 5.96875 35.5 8.046875 36.203125 10.84375 
z
M 30.09375 11.875 
C 29.59375 10.171875 29.59375 9.984375 28.203125 8.078125 
C 26 5.28125 21.59375 1 16.90625 1 
C 12.796875 1 10.5 4.6875 10.5 10.578125 
C 10.5 16.0625 13.59375 27.234375 15.5 31.4375 
C 18.90625 38.421875 23.59375 42.015625 27.5 42.015625 
C 34.09375 42.015625 35.40625 33.828125 35.40625 33.03125 
C 35.40625 32.9375 35.09375 31.625 35 31.4375 
z
" id="CMMI12-100"/>
     </defs>
     <g style="fill:#262626;" transform="translate(269.889528222 367.964379062)scale(0.25 -0.25)">
      <use transform="scale(0.996264009963)" xlink:href="#CMSS17-77"/>
      <use transform="translate(81.6760299512 0.0)scale(0.996264009963)" xlink:href="#CMSS17-111"/>
      <use transform="translate(131.122092203 0.0)scale(0.996264009963)" xlink:href="#CMSS17-100"/>
      <use transform="translate(179.327035336 0.0)scale(0.996264009963)" xlink:href="#CMSS17-101"/>
      <use transform="translate(220.965857405 0.0)scale(0.996264009963)" xlink:href="#CMSS17-108"/>
      <use transform="translate(274.375693201 0.0)scale(0.996264009963)" xlink:href="#CMSS17-68"/>
      <use transform="translate(341.918534864 0.0)scale(0.996264009963)" xlink:href="#CMSS17-105"/>
      <use transform="translate(364.09925791 0.0)scale(0.996264009963)" xlink:href="#CMSS17-109"/>
      <use transform="translate(438.328512341 0.0)scale(0.996264009963)" xlink:href="#CMSS17-101"/>
      <use transform="translate(479.96733441 0.0)scale(0.996264009963)" xlink:href="#CMSS17-110"/>
      <use transform="translate(528.172277543 0.0)scale(0.996264009963)" xlink:href="#CMSS17-115"/>
      <use transform="translate(564.085819534 0.0)scale(0.996264009963)" xlink:href="#CMSS17-105"/>
      <use transform="translate(586.26654258 0.0)scale(0.996264009963)" xlink:href="#CMSS17-111"/>
      <use transform="translate(633.110166101 0.0)scale(0.996264009963)" xlink:href="#CMSS17-110"/>
      <use transform="translate(712.544221985 0.0)scale(0.996264009963)" xlink:href="#CMMI12-100"/>
     </g>
    </g>
   </g>
   <g id="matplotlib.axis_2">
    <g id="ytick_1">
     <g id="line2d_28">
      <path clip-path="url(#p5cb3a19749)" d="M 77.293627 320.955495 
L 653.293627 320.955495 
" style="fill:none;stroke:#ffffff;stroke-linecap:round;"/>
     </g>
     <g id="line2d_29">
      <g>
       <use style="fill:#262626;stroke:#262626;" x="77.2936265615" xlink:href="#m2de8339585" y="320.95549514"/>
      </g>
     </g>
     <g id="line2d_30">
      <g>
       <use style="fill:#262626;stroke:#262626;" x="653.293626562" xlink:href="#m2de8339585" y="320.95549514"/>
      </g>
     </g>
     <g id="text_11">
      <!-- $10^{-1}$ -->
      <defs>
       <path d="M 65.90625 23 
C 67.59375 23 69.40625 23 69.40625 25 
C 69.40625 27 67.59375 27 65.90625 27 
L 11.796875 27 
C 10.09375 27 8.296875 27 8.296875 25 
C 8.296875 23 10.09375 23 11.796875 23 
z
" id="CMSY10-0"/>
      </defs>
      <g style="fill:#262626;" transform="translate(34.3407879631 325.936176715)scale(0.2 -0.2)">
       <use transform="scale(0.996264009963)" xlink:href="#CMR17-49"/>
       <use transform="translate(45.6904771171 0.0)scale(0.996264009963)" xlink:href="#CMR17-48"/>
       <use transform="translate(91.3809542341 36.1536389419)scale(0.697381766617)" xlink:href="#CMSY10-0"/>
       <use transform="translate(145.621947482 36.1536389419)scale(0.697381766617)" xlink:href="#CMR17-49"/>
      </g>
     </g>
    </g>
    <g id="ytick_2">
     <g id="line2d_31">
      <path clip-path="url(#p5cb3a19749)" d="M 77.293627 294.773677 
L 653.293627 294.773677 
" style="fill:none;stroke:#ffffff;stroke-linecap:round;"/>
     </g>
     <g id="line2d_32">
      <g>
       <use style="fill:#262626;stroke:#262626;" x="77.2936265615" xlink:href="#m2de8339585" y="294.773676958"/>
      </g>
     </g>
     <g id="line2d_33">
      <g>
       <use style="fill:#262626;stroke:#262626;" x="653.293626562" xlink:href="#m2de8339585" y="294.773676958"/>
      </g>
     </g>
     <g id="text_12">
      <!-- $10^{0}$ -->
      <g style="fill:#262626;" transform="translate(45.1889774916 299.754358533)scale(0.2 -0.2)">
       <use transform="scale(0.996264009963)" xlink:href="#CMR17-49"/>
       <use transform="translate(45.6904771171 0.0)scale(0.996264009963)" xlink:href="#CMR17-48"/>
       <use transform="translate(91.3809542341 36.1536389419)scale(0.697381766617)" xlink:href="#CMR17-48"/>
      </g>
     </g>
    </g>
    <g id="ytick_3">
     <g id="line2d_34">
      <path clip-path="url(#p5cb3a19749)" d="M 77.293627 268.591859 
L 653.293627 268.591859 
" style="fill:none;stroke:#ffffff;stroke-linecap:round;"/>
     </g>
     <g id="line2d_35">
      <g>
       <use style="fill:#262626;stroke:#262626;" x="77.2936265615" xlink:href="#m2de8339585" y="268.591858777"/>
      </g>
     </g>
     <g id="line2d_36">
      <g>
       <use style="fill:#262626;stroke:#262626;" x="653.293626562" xlink:href="#m2de8339585" y="268.591858777"/>
      </g>
     </g>
     <g id="text_13">
      <!-- $10^{1}$ -->
      <g style="fill:#262626;" transform="translate(45.1889774916 273.572540352)scale(0.2 -0.2)">
       <use transform="scale(0.996264009963)" xlink:href="#CMR17-49"/>
       <use transform="translate(45.6904771171 0.0)scale(0.996264009963)" xlink:href="#CMR17-48"/>
       <use transform="translate(91.3809542341 36.1536389419)scale(0.697381766617)" xlink:href="#CMR17-49"/>
      </g>
     </g>
    </g>
    <g id="ytick_4">
     <g id="line2d_37">
      <path clip-path="url(#p5cb3a19749)" d="M 77.293627 242.410041 
L 653.293627 242.410041 
" style="fill:none;stroke:#ffffff;stroke-linecap:round;"/>
     </g>
     <g id="line2d_38">
      <g>
       <use style="fill:#262626;stroke:#262626;" x="77.2936265615" xlink:href="#m2de8339585" y="242.410040595"/>
      </g>
     </g>
     <g id="line2d_39">
      <g>
       <use style="fill:#262626;stroke:#262626;" x="653.293626562" xlink:href="#m2de8339585" y="242.410040595"/>
      </g>
     </g>
     <g id="text_14">
      <!-- $10^{2}$ -->
      <g style="fill:#262626;" transform="translate(45.1889774916 247.39072217)scale(0.2 -0.2)">
       <use transform="scale(0.996264009963)" xlink:href="#CMR17-49"/>
       <use transform="translate(45.6904771171 0.0)scale(0.996264009963)" xlink:href="#CMR17-48"/>
       <use transform="translate(91.3809542341 36.1536389419)scale(0.697381766617)" xlink:href="#CMR17-50"/>
      </g>
     </g>
    </g>
    <g id="ytick_5">
     <g id="line2d_40">
      <path clip-path="url(#p5cb3a19749)" d="M 77.293627 216.228222 
L 653.293627 216.228222 
" style="fill:none;stroke:#ffffff;stroke-linecap:round;"/>
     </g>
     <g id="line2d_41">
      <g>
       <use style="fill:#262626;stroke:#262626;" x="77.2936265615" xlink:href="#m2de8339585" y="216.228222413"/>
      </g>
     </g>
     <g id="line2d_42">
      <g>
       <use style="fill:#262626;stroke:#262626;" x="653.293626562" xlink:href="#m2de8339585" y="216.228222413"/>
      </g>
     </g>
     <g id="text_15">
      <!-- $10^{3}$ -->
      <g style="fill:#262626;" transform="translate(45.1889774916 221.208903988)scale(0.2 -0.2)">
       <use transform="scale(0.996264009963)" xlink:href="#CMR17-49"/>
       <use transform="translate(45.6904771171 0.0)scale(0.996264009963)" xlink:href="#CMR17-48"/>
       <use transform="translate(91.3809542341 36.1536389419)scale(0.697381766617)" xlink:href="#CMR17-51"/>
      </g>
     </g>
    </g>
    <g id="ytick_6">
     <g id="line2d_43">
      <path clip-path="url(#p5cb3a19749)" d="M 77.293627 190.046404 
L 653.293627 190.046404 
" style="fill:none;stroke:#ffffff;stroke-linecap:round;"/>
     </g>
     <g id="line2d_44">
      <g>
       <use style="fill:#262626;stroke:#262626;" x="77.2936265615" xlink:href="#m2de8339585" y="190.046404231"/>
      </g>
     </g>
     <g id="line2d_45">
      <g>
       <use style="fill:#262626;stroke:#262626;" x="653.293626562" xlink:href="#m2de8339585" y="190.046404231"/>
      </g>
     </g>
     <g id="text_16">
      <!-- $10^{4}$ -->
      <g style="fill:#262626;" transform="translate(45.1889774916 195.027085806)scale(0.2 -0.2)">
       <use transform="scale(0.996264009963)" xlink:href="#CMR17-49"/>
       <use transform="translate(45.6904771171 0.0)scale(0.996264009963)" xlink:href="#CMR17-48"/>
       <use transform="translate(91.3809542341 36.1536389419)scale(0.697381766617)" xlink:href="#CMR17-52"/>
      </g>
     </g>
    </g>
    <g id="ytick_7">
     <g id="line2d_46">
      <path clip-path="url(#p5cb3a19749)" d="M 77.293627 163.864586 
L 653.293627 163.864586 
" style="fill:none;stroke:#ffffff;stroke-linecap:round;"/>
     </g>
     <g id="line2d_47">
      <g>
       <use style="fill:#262626;stroke:#262626;" x="77.2936265615" xlink:href="#m2de8339585" y="163.864586049"/>
      </g>
     </g>
     <g id="line2d_48">
      <g>
       <use style="fill:#262626;stroke:#262626;" x="653.293626562" xlink:href="#m2de8339585" y="163.864586049"/>
      </g>
     </g>
     <g id="text_17">
      <!-- $10^{5}$ -->
      <g style="fill:#262626;" transform="translate(45.1889774916 168.845267624)scale(0.2 -0.2)">
       <use transform="scale(0.996264009963)" xlink:href="#CMR17-49"/>
       <use transform="translate(45.6904771171 0.0)scale(0.996264009963)" xlink:href="#CMR17-48"/>
       <use transform="translate(91.3809542341 36.1536389419)scale(0.697381766617)" xlink:href="#CMR17-53"/>
      </g>
     </g>
    </g>
    <g id="ytick_8">
     <g id="line2d_49">
      <path clip-path="url(#p5cb3a19749)" d="M 77.293627 137.682768 
L 653.293627 137.682768 
" style="fill:none;stroke:#ffffff;stroke-linecap:round;"/>
     </g>
     <g id="line2d_50">
      <g>
       <use style="fill:#262626;stroke:#262626;" x="77.2936265615" xlink:href="#m2de8339585" y="137.682767868"/>
      </g>
     </g>
     <g id="line2d_51">
      <g>
       <use style="fill:#262626;stroke:#262626;" x="653.293626562" xlink:href="#m2de8339585" y="137.682767868"/>
      </g>
     </g>
     <g id="text_18">
      <!-- $10^{6}$ -->
      <g style="fill:#262626;" transform="translate(45.1889774916 142.663449443)scale(0.2 -0.2)">
       <use transform="scale(0.996264009963)" xlink:href="#CMR17-49"/>
       <use transform="translate(45.6904771171 0.0)scale(0.996264009963)" xlink:href="#CMR17-48"/>
       <use transform="translate(91.3809542341 36.1536389419)scale(0.697381766617)" xlink:href="#CMR17-54"/>
      </g>
     </g>
    </g>
    <g id="ytick_9">
     <g id="line2d_52">
      <path clip-path="url(#p5cb3a19749)" d="M 77.293627 111.50095 
L 653.293627 111.50095 
" style="fill:none;stroke:#ffffff;stroke-linecap:round;"/>
     </g>
     <g id="line2d_53">
      <g>
       <use style="fill:#262626;stroke:#262626;" x="77.2936265615" xlink:href="#m2de8339585" y="111.500949686"/>
      </g>
     </g>
     <g id="line2d_54">
      <g>
       <use style="fill:#262626;stroke:#262626;" x="653.293626562" xlink:href="#m2de8339585" y="111.500949686"/>
      </g>
     </g>
     <g id="text_19">
      <!-- $10^{7}$ -->
      <g style="fill:#262626;" transform="translate(45.1889774916 116.481631261)scale(0.2 -0.2)">
       <use transform="scale(0.996264009963)" xlink:href="#CMR17-49"/>
       <use transform="translate(45.6904771171 0.0)scale(0.996264009963)" xlink:href="#CMR17-48"/>
       <use transform="translate(91.3809542341 36.1536389419)scale(0.697381766617)" xlink:href="#CMR17-55"/>
      </g>
     </g>
    </g>
    <g id="ytick_10">
     <g id="line2d_55">
      <path clip-path="url(#p5cb3a19749)" d="M 77.293627 85.319132 
L 653.293627 85.319132 
" style="fill:none;stroke:#ffffff;stroke-linecap:round;"/>
     </g>
     <g id="line2d_56">
      <g>
       <use style="fill:#262626;stroke:#262626;" x="77.2936265615" xlink:href="#m2de8339585" y="85.3191315039"/>
      </g>
     </g>
     <g id="line2d_57">
      <g>
       <use style="fill:#262626;stroke:#262626;" x="653.293626562" xlink:href="#m2de8339585" y="85.3191315039"/>
      </g>
     </g>
     <g id="text_20">
      <!-- $10^{8}$ -->
      <g style="fill:#262626;" transform="translate(45.1889774916 90.2998130789)scale(0.2 -0.2)">
       <use transform="scale(0.996264009963)" xlink:href="#CMR17-49"/>
       <use transform="translate(45.6904771171 0.0)scale(0.996264009963)" xlink:href="#CMR17-48"/>
       <use transform="translate(91.3809542341 36.1536389419)scale(0.697381766617)" xlink:href="#CMR17-56"/>
      </g>
     </g>
    </g>
    <g id="ytick_11">
     <g id="line2d_58">
      <path clip-path="url(#p5cb3a19749)" d="M 77.293627 59.137313 
L 653.293627 59.137313 
" style="fill:none;stroke:#ffffff;stroke-linecap:round;"/>
     </g>
     <g id="line2d_59">
      <g>
       <use style="fill:#262626;stroke:#262626;" x="77.2936265615" xlink:href="#m2de8339585" y="59.1373133221"/>
      </g>
     </g>
     <g id="line2d_60">
      <g>
       <use style="fill:#262626;stroke:#262626;" x="653.293626562" xlink:href="#m2de8339585" y="59.1373133221"/>
      </g>
     </g>
     <g id="text_21">
      <!-- $10^{9}$ -->
      <g style="fill:#262626;" transform="translate(45.1889774916 64.1179948971)scale(0.2 -0.2)">
       <use transform="scale(0.996264009963)" xlink:href="#CMR17-49"/>
       <use transform="translate(45.6904771171 0.0)scale(0.996264009963)" xlink:href="#CMR17-48"/>
       <use transform="translate(91.3809542341 36.1536389419)scale(0.697381766617)" xlink:href="#CMR17-57"/>
      </g>
     </g>
    </g>
    <g id="ytick_12">
     <g id="line2d_61">
      <path clip-path="url(#p5cb3a19749)" d="M 77.293627 32.955495 
L 653.293627 32.955495 
" style="fill:none;stroke:#ffffff;stroke-linecap:round;"/>
     </g>
     <g id="line2d_62">
      <g>
       <use style="fill:#262626;stroke:#262626;" x="77.2936265615" xlink:href="#m2de8339585" y="32.9554951403"/>
      </g>
     </g>
     <g id="line2d_63">
      <g>
       <use style="fill:#262626;stroke:#262626;" x="653.293626562" xlink:href="#m2de8339585" y="32.9554951403"/>
      </g>
     </g>
     <g id="text_22">
      <!-- $10^{10}$ -->
      <g style="fill:#262626;" transform="translate(38.3605192686 37.9361767152)scale(0.2 -0.2)">
       <use transform="scale(0.996264009963)" xlink:href="#CMR17-49"/>
       <use transform="translate(45.6904771171 0.0)scale(0.996264009963)" xlink:href="#CMR17-48"/>
       <use transform="translate(91.3809542341 36.1536389419)scale(0.697381766617)" xlink:href="#CMR17-49"/>
       <use transform="translate(123.364136198 36.1536389419)scale(0.697381766617)" xlink:href="#CMR17-48"/>
      </g>
     </g>
    </g>
    <g id="ytick_13">
     <g id="line2d_64">
      <defs>
       <path d="M 0 0 
L 0 0 
" id="m1a3c3bfe98" style="stroke:#262626;stroke-width:0.5;"/>
      </defs>
      <g>
       <use style="fill:#262626;stroke:#262626;stroke-width:0.5;" x="77.2936265615" xlink:href="#m1a3c3bfe98" y="313.073982527"/>
      </g>
     </g>
     <g id="line2d_65">
      <g>
       <use style="fill:#262626;stroke:#262626;stroke-width:0.5;" x="653.293626562" xlink:href="#m1a3c3bfe98" y="313.073982527"/>
      </g>
     </g>
    </g>
    <g id="ytick_14">
     <g id="line2d_66">
      <g>
       <use style="fill:#262626;stroke:#262626;stroke-width:0.5;" x="77.2936265615" xlink:href="#m1a3c3bfe98" y="305.192469913"/>
      </g>
     </g>
     <g id="line2d_67">
      <g>
       <use style="fill:#262626;stroke:#262626;stroke-width:0.5;" x="653.293626562" xlink:href="#m1a3c3bfe98" y="305.192469913"/>
      </g>
     </g>
    </g>
    <g id="ytick_15">
     <g id="line2d_68">
      <g>
       <use style="fill:#262626;stroke:#262626;stroke-width:0.5;" x="77.2936265615" xlink:href="#m1a3c3bfe98" y="300.582080585"/>
      </g>
     </g>
     <g id="line2d_69">
      <g>
       <use style="fill:#262626;stroke:#262626;stroke-width:0.5;" x="653.293626562" xlink:href="#m1a3c3bfe98" y="300.582080585"/>
      </g>
     </g>
    </g>
    <g id="ytick_16">
     <g id="line2d_70">
      <g>
       <use style="fill:#262626;stroke:#262626;stroke-width:0.5;" x="77.2936265615" xlink:href="#m1a3c3bfe98" y="297.310957299"/>
      </g>
     </g>
     <g id="line2d_71">
      <g>
       <use style="fill:#262626;stroke:#262626;stroke-width:0.5;" x="653.293626562" xlink:href="#m1a3c3bfe98" y="297.310957299"/>
      </g>
     </g>
    </g>
    <g id="ytick_17">
     <g id="line2d_72">
      <g>
       <use style="fill:#262626;stroke:#262626;stroke-width:0.5;" x="77.2936265615" xlink:href="#m1a3c3bfe98" y="286.892164345"/>
      </g>
     </g>
     <g id="line2d_73">
      <g>
       <use style="fill:#262626;stroke:#262626;stroke-width:0.5;" x="653.293626562" xlink:href="#m1a3c3bfe98" y="286.892164345"/>
      </g>
     </g>
    </g>
    <g id="ytick_18">
     <g id="line2d_74">
      <g>
       <use style="fill:#262626;stroke:#262626;stroke-width:0.5;" x="77.2936265615" xlink:href="#m1a3c3bfe98" y="279.010651731"/>
      </g>
     </g>
     <g id="line2d_75">
      <g>
       <use style="fill:#262626;stroke:#262626;stroke-width:0.5;" x="653.293626562" xlink:href="#m1a3c3bfe98" y="279.010651731"/>
      </g>
     </g>
    </g>
    <g id="ytick_19">
     <g id="line2d_76">
      <g>
       <use style="fill:#262626;stroke:#262626;stroke-width:0.5;" x="77.2936265615" xlink:href="#m1a3c3bfe98" y="274.400262403"/>
      </g>
     </g>
     <g id="line2d_77">
      <g>
       <use style="fill:#262626;stroke:#262626;stroke-width:0.5;" x="653.293626562" xlink:href="#m1a3c3bfe98" y="274.400262403"/>
      </g>
     </g>
    </g>
    <g id="ytick_20">
     <g id="line2d_78">
      <g>
       <use style="fill:#262626;stroke:#262626;stroke-width:0.5;" x="77.2936265615" xlink:href="#m1a3c3bfe98" y="271.129139117"/>
      </g>
     </g>
     <g id="line2d_79">
      <g>
       <use style="fill:#262626;stroke:#262626;stroke-width:0.5;" x="653.293626562" xlink:href="#m1a3c3bfe98" y="271.129139117"/>
      </g>
     </g>
    </g>
    <g id="ytick_21">
     <g id="line2d_80">
      <g>
       <use style="fill:#262626;stroke:#262626;stroke-width:0.5;" x="77.2936265615" xlink:href="#m1a3c3bfe98" y="260.710346163"/>
      </g>
     </g>
     <g id="line2d_81">
      <g>
       <use style="fill:#262626;stroke:#262626;stroke-width:0.5;" x="653.293626562" xlink:href="#m1a3c3bfe98" y="260.710346163"/>
      </g>
     </g>
    </g>
    <g id="ytick_22">
     <g id="line2d_82">
      <g>
       <use style="fill:#262626;stroke:#262626;stroke-width:0.5;" x="77.2936265615" xlink:href="#m1a3c3bfe98" y="252.828833549"/>
      </g>
     </g>
     <g id="line2d_83">
      <g>
       <use style="fill:#262626;stroke:#262626;stroke-width:0.5;" x="653.293626562" xlink:href="#m1a3c3bfe98" y="252.828833549"/>
      </g>
     </g>
    </g>
    <g id="ytick_23">
     <g id="line2d_84">
      <g>
       <use style="fill:#262626;stroke:#262626;stroke-width:0.5;" x="77.2936265615" xlink:href="#m1a3c3bfe98" y="248.218444221"/>
      </g>
     </g>
     <g id="line2d_85">
      <g>
       <use style="fill:#262626;stroke:#262626;stroke-width:0.5;" x="653.293626562" xlink:href="#m1a3c3bfe98" y="248.218444221"/>
      </g>
     </g>
    </g>
    <g id="ytick_24">
     <g id="line2d_86">
      <g>
       <use style="fill:#262626;stroke:#262626;stroke-width:0.5;" x="77.2936265615" xlink:href="#m1a3c3bfe98" y="244.947320935"/>
      </g>
     </g>
     <g id="line2d_87">
      <g>
       <use style="fill:#262626;stroke:#262626;stroke-width:0.5;" x="653.293626562" xlink:href="#m1a3c3bfe98" y="244.947320935"/>
      </g>
     </g>
    </g>
    <g id="ytick_25">
     <g id="line2d_88">
      <g>
       <use style="fill:#262626;stroke:#262626;stroke-width:0.5;" x="77.2936265615" xlink:href="#m1a3c3bfe98" y="234.528527981"/>
      </g>
     </g>
     <g id="line2d_89">
      <g>
       <use style="fill:#262626;stroke:#262626;stroke-width:0.5;" x="653.293626562" xlink:href="#m1a3c3bfe98" y="234.528527981"/>
      </g>
     </g>
    </g>
    <g id="ytick_26">
     <g id="line2d_90">
      <g>
       <use style="fill:#262626;stroke:#262626;stroke-width:0.5;" x="77.2936265615" xlink:href="#m1a3c3bfe98" y="226.647015367"/>
      </g>
     </g>
     <g id="line2d_91">
      <g>
       <use style="fill:#262626;stroke:#262626;stroke-width:0.5;" x="653.293626562" xlink:href="#m1a3c3bfe98" y="226.647015367"/>
      </g>
     </g>
    </g>
    <g id="ytick_27">
     <g id="line2d_92">
      <g>
       <use style="fill:#262626;stroke:#262626;stroke-width:0.5;" x="77.2936265615" xlink:href="#m1a3c3bfe98" y="222.036626039"/>
      </g>
     </g>
     <g id="line2d_93">
      <g>
       <use style="fill:#262626;stroke:#262626;stroke-width:0.5;" x="653.293626562" xlink:href="#m1a3c3bfe98" y="222.036626039"/>
      </g>
     </g>
    </g>
    <g id="ytick_28">
     <g id="line2d_94">
      <g>
       <use style="fill:#262626;stroke:#262626;stroke-width:0.5;" x="77.2936265615" xlink:href="#m1a3c3bfe98" y="218.765502754"/>
      </g>
     </g>
     <g id="line2d_95">
      <g>
       <use style="fill:#262626;stroke:#262626;stroke-width:0.5;" x="653.293626562" xlink:href="#m1a3c3bfe98" y="218.765502754"/>
      </g>
     </g>
    </g>
    <g id="ytick_29">
     <g id="line2d_96">
      <g>
       <use style="fill:#262626;stroke:#262626;stroke-width:0.5;" x="77.2936265615" xlink:href="#m1a3c3bfe98" y="208.346709799"/>
      </g>
     </g>
     <g id="line2d_97">
      <g>
       <use style="fill:#262626;stroke:#262626;stroke-width:0.5;" x="653.293626562" xlink:href="#m1a3c3bfe98" y="208.346709799"/>
      </g>
     </g>
    </g>
    <g id="ytick_30">
     <g id="line2d_98">
      <g>
       <use style="fill:#262626;stroke:#262626;stroke-width:0.5;" x="77.2936265615" xlink:href="#m1a3c3bfe98" y="200.465197186"/>
      </g>
     </g>
     <g id="line2d_99">
      <g>
       <use style="fill:#262626;stroke:#262626;stroke-width:0.5;" x="653.293626562" xlink:href="#m1a3c3bfe98" y="200.465197186"/>
      </g>
     </g>
    </g>
    <g id="ytick_31">
     <g id="line2d_100">
      <g>
       <use style="fill:#262626;stroke:#262626;stroke-width:0.5;" x="77.2936265615" xlink:href="#m1a3c3bfe98" y="195.854807858"/>
      </g>
     </g>
     <g id="line2d_101">
      <g>
       <use style="fill:#262626;stroke:#262626;stroke-width:0.5;" x="653.293626562" xlink:href="#m1a3c3bfe98" y="195.854807858"/>
      </g>
     </g>
    </g>
    <g id="ytick_32">
     <g id="line2d_102">
      <g>
       <use style="fill:#262626;stroke:#262626;stroke-width:0.5;" x="77.2936265615" xlink:href="#m1a3c3bfe98" y="192.583684572"/>
      </g>
     </g>
     <g id="line2d_103">
      <g>
       <use style="fill:#262626;stroke:#262626;stroke-width:0.5;" x="653.293626562" xlink:href="#m1a3c3bfe98" y="192.583684572"/>
      </g>
     </g>
    </g>
    <g id="ytick_33">
     <g id="line2d_104">
      <g>
       <use style="fill:#262626;stroke:#262626;stroke-width:0.5;" x="77.2936265615" xlink:href="#m1a3c3bfe98" y="182.164891617"/>
      </g>
     </g>
     <g id="line2d_105">
      <g>
       <use style="fill:#262626;stroke:#262626;stroke-width:0.5;" x="653.293626562" xlink:href="#m1a3c3bfe98" y="182.164891617"/>
      </g>
     </g>
    </g>
    <g id="ytick_34">
     <g id="line2d_106">
      <g>
       <use style="fill:#262626;stroke:#262626;stroke-width:0.5;" x="77.2936265615" xlink:href="#m1a3c3bfe98" y="174.283379004"/>
      </g>
     </g>
     <g id="line2d_107">
      <g>
       <use style="fill:#262626;stroke:#262626;stroke-width:0.5;" x="653.293626562" xlink:href="#m1a3c3bfe98" y="174.283379004"/>
      </g>
     </g>
    </g>
    <g id="ytick_35">
     <g id="line2d_108">
      <g>
       <use style="fill:#262626;stroke:#262626;stroke-width:0.5;" x="77.2936265615" xlink:href="#m1a3c3bfe98" y="169.672989676"/>
      </g>
     </g>
     <g id="line2d_109">
      <g>
       <use style="fill:#262626;stroke:#262626;stroke-width:0.5;" x="653.293626562" xlink:href="#m1a3c3bfe98" y="169.672989676"/>
      </g>
     </g>
    </g>
    <g id="ytick_36">
     <g id="line2d_110">
      <g>
       <use style="fill:#262626;stroke:#262626;stroke-width:0.5;" x="77.2936265615" xlink:href="#m1a3c3bfe98" y="166.40186639"/>
      </g>
     </g>
     <g id="line2d_111">
      <g>
       <use style="fill:#262626;stroke:#262626;stroke-width:0.5;" x="653.293626562" xlink:href="#m1a3c3bfe98" y="166.40186639"/>
      </g>
     </g>
    </g>
    <g id="ytick_37">
     <g id="line2d_112">
      <g>
       <use style="fill:#262626;stroke:#262626;stroke-width:0.5;" x="77.2936265615" xlink:href="#m1a3c3bfe98" y="155.983073436"/>
      </g>
     </g>
     <g id="line2d_113">
      <g>
       <use style="fill:#262626;stroke:#262626;stroke-width:0.5;" x="653.293626562" xlink:href="#m1a3c3bfe98" y="155.983073436"/>
      </g>
     </g>
    </g>
    <g id="ytick_38">
     <g id="line2d_114">
      <g>
       <use style="fill:#262626;stroke:#262626;stroke-width:0.5;" x="77.2936265615" xlink:href="#m1a3c3bfe98" y="148.101560822"/>
      </g>
     </g>
     <g id="line2d_115">
      <g>
       <use style="fill:#262626;stroke:#262626;stroke-width:0.5;" x="653.293626562" xlink:href="#m1a3c3bfe98" y="148.101560822"/>
      </g>
     </g>
    </g>
    <g id="ytick_39">
     <g id="line2d_116">
      <g>
       <use style="fill:#262626;stroke:#262626;stroke-width:0.5;" x="77.2936265615" xlink:href="#m1a3c3bfe98" y="143.491171494"/>
      </g>
     </g>
     <g id="line2d_117">
      <g>
       <use style="fill:#262626;stroke:#262626;stroke-width:0.5;" x="653.293626562" xlink:href="#m1a3c3bfe98" y="143.491171494"/>
      </g>
     </g>
    </g>
    <g id="ytick_40">
     <g id="line2d_118">
      <g>
       <use style="fill:#262626;stroke:#262626;stroke-width:0.5;" x="77.2936265615" xlink:href="#m1a3c3bfe98" y="140.220048208"/>
      </g>
     </g>
     <g id="line2d_119">
      <g>
       <use style="fill:#262626;stroke:#262626;stroke-width:0.5;" x="653.293626562" xlink:href="#m1a3c3bfe98" y="140.220048208"/>
      </g>
     </g>
    </g>
    <g id="ytick_41">
     <g id="line2d_120">
      <g>
       <use style="fill:#262626;stroke:#262626;stroke-width:0.5;" x="77.2936265615" xlink:href="#m1a3c3bfe98" y="129.801255254"/>
      </g>
     </g>
     <g id="line2d_121">
      <g>
       <use style="fill:#262626;stroke:#262626;stroke-width:0.5;" x="653.293626562" xlink:href="#m1a3c3bfe98" y="129.801255254"/>
      </g>
     </g>
    </g>
    <g id="ytick_42">
     <g id="line2d_122">
      <g>
       <use style="fill:#262626;stroke:#262626;stroke-width:0.5;" x="77.2936265615" xlink:href="#m1a3c3bfe98" y="121.91974264"/>
      </g>
     </g>
     <g id="line2d_123">
      <g>
       <use style="fill:#262626;stroke:#262626;stroke-width:0.5;" x="653.293626562" xlink:href="#m1a3c3bfe98" y="121.91974264"/>
      </g>
     </g>
    </g>
    <g id="ytick_43">
     <g id="line2d_124">
      <g>
       <use style="fill:#262626;stroke:#262626;stroke-width:0.5;" x="77.2936265615" xlink:href="#m1a3c3bfe98" y="117.309353312"/>
      </g>
     </g>
     <g id="line2d_125">
      <g>
       <use style="fill:#262626;stroke:#262626;stroke-width:0.5;" x="653.293626562" xlink:href="#m1a3c3bfe98" y="117.309353312"/>
      </g>
     </g>
    </g>
    <g id="ytick_44">
     <g id="line2d_126">
      <g>
       <use style="fill:#262626;stroke:#262626;stroke-width:0.5;" x="77.2936265615" xlink:href="#m1a3c3bfe98" y="114.038230026"/>
      </g>
     </g>
     <g id="line2d_127">
      <g>
       <use style="fill:#262626;stroke:#262626;stroke-width:0.5;" x="653.293626562" xlink:href="#m1a3c3bfe98" y="114.038230026"/>
      </g>
     </g>
    </g>
    <g id="ytick_45">
     <g id="line2d_128">
      <g>
       <use style="fill:#262626;stroke:#262626;stroke-width:0.5;" x="77.2936265615" xlink:href="#m1a3c3bfe98" y="103.619437072"/>
      </g>
     </g>
     <g id="line2d_129">
      <g>
       <use style="fill:#262626;stroke:#262626;stroke-width:0.5;" x="653.293626562" xlink:href="#m1a3c3bfe98" y="103.619437072"/>
      </g>
     </g>
    </g>
    <g id="ytick_46">
     <g id="line2d_130">
      <g>
       <use style="fill:#262626;stroke:#262626;stroke-width:0.5;" x="77.2936265615" xlink:href="#m1a3c3bfe98" y="95.7379244583"/>
      </g>
     </g>
     <g id="line2d_131">
      <g>
       <use style="fill:#262626;stroke:#262626;stroke-width:0.5;" x="653.293626562" xlink:href="#m1a3c3bfe98" y="95.7379244583"/>
      </g>
     </g>
    </g>
    <g id="ytick_47">
     <g id="line2d_132">
      <g>
       <use style="fill:#262626;stroke:#262626;stroke-width:0.5;" x="77.2936265615" xlink:href="#m1a3c3bfe98" y="91.1275351302"/>
      </g>
     </g>
     <g id="line2d_133">
      <g>
       <use style="fill:#262626;stroke:#262626;stroke-width:0.5;" x="653.293626562" xlink:href="#m1a3c3bfe98" y="91.1275351302"/>
      </g>
     </g>
    </g>
    <g id="ytick_48">
     <g id="line2d_134">
      <g>
       <use style="fill:#262626;stroke:#262626;stroke-width:0.5;" x="77.2936265615" xlink:href="#m1a3c3bfe98" y="87.8564118445"/>
      </g>
     </g>
     <g id="line2d_135">
      <g>
       <use style="fill:#262626;stroke:#262626;stroke-width:0.5;" x="653.293626562" xlink:href="#m1a3c3bfe98" y="87.8564118445"/>
      </g>
     </g>
    </g>
    <g id="ytick_49">
     <g id="line2d_136">
      <g>
       <use style="fill:#262626;stroke:#262626;stroke-width:0.5;" x="77.2936265615" xlink:href="#m1a3c3bfe98" y="77.4376188902"/>
      </g>
     </g>
     <g id="line2d_137">
      <g>
       <use style="fill:#262626;stroke:#262626;stroke-width:0.5;" x="653.293626562" xlink:href="#m1a3c3bfe98" y="77.4376188902"/>
      </g>
     </g>
    </g>
    <g id="ytick_50">
     <g id="line2d_138">
      <g>
       <use style="fill:#262626;stroke:#262626;stroke-width:0.5;" x="77.2936265615" xlink:href="#m1a3c3bfe98" y="69.5561062764"/>
      </g>
     </g>
     <g id="line2d_139">
      <g>
       <use style="fill:#262626;stroke:#262626;stroke-width:0.5;" x="653.293626562" xlink:href="#m1a3c3bfe98" y="69.5561062764"/>
      </g>
     </g>
    </g>
    <g id="ytick_51">
     <g id="line2d_140">
      <g>
       <use style="fill:#262626;stroke:#262626;stroke-width:0.5;" x="77.2936265615" xlink:href="#m1a3c3bfe98" y="64.9457169484"/>
      </g>
     </g>
     <g id="line2d_141">
      <g>
       <use style="fill:#262626;stroke:#262626;stroke-width:0.5;" x="653.293626562" xlink:href="#m1a3c3bfe98" y="64.9457169484"/>
      </g>
     </g>
    </g>
    <g id="ytick_52">
     <g id="line2d_142">
      <g>
       <use style="fill:#262626;stroke:#262626;stroke-width:0.5;" x="77.2936265615" xlink:href="#m1a3c3bfe98" y="61.6745936627"/>
      </g>
     </g>
     <g id="line2d_143">
      <g>
       <use style="fill:#262626;stroke:#262626;stroke-width:0.5;" x="653.293626562" xlink:href="#m1a3c3bfe98" y="61.6745936627"/>
      </g>
     </g>
    </g>
    <g id="ytick_53">
     <g id="line2d_144">
      <g>
       <use style="fill:#262626;stroke:#262626;stroke-width:0.5;" x="77.2936265615" xlink:href="#m1a3c3bfe98" y="51.2558007084"/>
      </g>
     </g>
     <g id="line2d_145">
      <g>
       <use style="fill:#262626;stroke:#262626;stroke-width:0.5;" x="653.293626562" xlink:href="#m1a3c3bfe98" y="51.2558007084"/>
      </g>
     </g>
    </g>
    <g id="ytick_54">
     <g id="line2d_146">
      <g>
       <use style="fill:#262626;stroke:#262626;stroke-width:0.5;" x="77.2936265615" xlink:href="#m1a3c3bfe98" y="43.3742880946"/>
      </g>
     </g>
     <g id="line2d_147">
      <g>
       <use style="fill:#262626;stroke:#262626;stroke-width:0.5;" x="653.293626562" xlink:href="#m1a3c3bfe98" y="43.3742880946"/>
      </g>
     </g>
    </g>
    <g id="ytick_55">
     <g id="line2d_148">
      <g>
       <use style="fill:#262626;stroke:#262626;stroke-width:0.5;" x="77.2936265615" xlink:href="#m1a3c3bfe98" y="38.7638987666"/>
      </g>
     </g>
     <g id="line2d_149">
      <g>
       <use style="fill:#262626;stroke:#262626;stroke-width:0.5;" x="653.293626562" xlink:href="#m1a3c3bfe98" y="38.7638987666"/>
      </g>
     </g>
    </g>
    <g id="ytick_56">
     <g id="line2d_150">
      <g>
       <use style="fill:#262626;stroke:#262626;stroke-width:0.5;" x="77.2936265615" xlink:href="#m1a3c3bfe98" y="35.4927754809"/>
      </g>
     </g>
     <g id="line2d_151">
      <g>
       <use style="fill:#262626;stroke:#262626;stroke-width:0.5;" x="653.293626562" xlink:href="#m1a3c3bfe98" y="35.4927754809"/>
      </g>
     </g>
    </g>
    <g id="text_23">
     <!-- Condition Number $\kappa$ -->
     <defs>
      <path d="M 14.90625 21.296875 
C 14.90625 30.703125 21.796875 37 30.59375 37 
L 30.59375 43.578125 
C 24.203125 43.578125 18.203125 40.390625 14.59375 35.203125 
L 14.59375 43.09375 
L 7.5 43.09375 
L 7.5 0 
L 14.90625 0 
z
" id="CMSS17-114"/>
      <path d="M 40.90625 42.796875 
L 33.296875 42.796875 
L 33.296875 15.1875 
C 33.296875 7.78125 27.90625 4.78125 22.203125 4.78125 
C 15.59375 4.78125 15 6.984375 15 11.078125 
L 15 42.796875 
L 7.40625 42.796875 
L 7.40625 10.59375 
C 7.40625 2.796875 10.09375 -1 17 -1 
C 20.40625 -1 28.09375 -0.203125 33.5 4.78125 
L 33.5 0 
L 40.90625 0 
z
" id="CMSS17-117"/>
      <path d="M 16.703125 37 
L 29.703125 37 
L 29.703125 42.765625 
L 16.703125 42.765625 
L 16.703125 55 
L 9.59375 55 
L 9.59375 42.765625 
L 1.703125 42.765625 
L 1.703125 37 
L 9.40625 37 
L 9.40625 11.703125 
C 9.40625 6 10.703125 -1 17.296875 -1 
C 22.296875 -1 26.90625 0.390625 31.296875 2.6875 
L 29.703125 8.5625 
C 27.296875 6.46875 24.40625 5.265625 21.296875 5.265625 
C 16.90625 5.265625 16.703125 10.875 16.703125 13.375 
z
" id="CMSS17-116"/>
      <path d="M 22.90625 65.3125 
L 21.09375 69 
L 8.796875 69 
L 8.796875 0 
L 16.59375 0 
L 16.59375 61.34375 
L 16.703125 61.4375 
C 17.40625 59.640625 17.796875 58.75 21.90625 49.90625 
L 43.296875 3.6875 
L 45.09375 0 
L 57.40625 0 
L 57.40625 69 
L 49.59375 69 
L 49.59375 7.65625 
L 49.5 7.546875 
C 48.796875 9.34375 48.40625 10.234375 44.296875 19.078125 
z
" id="CMSS17-78"/>
      <path d="M 21.296875 25 
C 24.59375 26.78125 28.296875 29.875 30.796875 31.96875 
C 36.796875 37.140625 39 38.734375 42.796875 40.21875 
C 42.40625 39.625 42.296875 38.828125 42.296875 38.140625 
C 42.296875 35.4375 44.59375 34.9375 45.59375 34.9375 
C 48.796875 34.9375 50.59375 37.921875 50.59375 39.8125 
C 50.59375 40.40625 50.40625 43 46.90625 43 
C 40.90625 43 35 37.984375 30.59375 34.34375 
C 24.796875 29.3125 21.90625 27.15625 17.796875 25.875 
L 21.59375 41.5 
C 21.59375 43.109375 20.296875 44 19 44 
C 18.09375 44 15.90625 43.703125 15.09375 40.5 
L 5.796875 3.5 
C 5.5 2.3125 5.5 2.09375 5.5 1.5 
C 5.5 0.09375 6.59375 -1 8.09375 -1 
C 11.09375 -1 11.703125 1.65625 12.203125 3.8125 
C 12.796875 5.9375 16.90625 23 17.09375 23 
C 29.796875 23 34.09375 19.75 34.09375 14.734375 
C 34.09375 14.015625 34.09375 13.71875 33.796875 12.59375 
C 33.40625 10.65625 33.40625 9.515625 33.40625 8.90625 
C 33.40625 2.78125 37.296875 -1 42.203125 -1 
C 46.296875 -1 48.59375 1.921875 50.09375 4.546875 
C 52.203125 8.484375 53.5 14.03125 53.5 14.421875 
C 53.5 14.9375 53.09375 15.328125 52.5 15.328125 
C 51.59375 15.328125 51.5 14.9375 51.09375 13.3125 
C 49.796875 8.46875 47.59375 1 42.5 1 
C 40.296875 1 39.203125 2.3125 39.203125 5.84375 
C 39.203125 7.78125 39.59375 10.015625 40 11.515625 
C 40.203125 12.546875 40.5 13.75 40.5 14.859375 
C 40.5 24.078125 27.90625 25 21.296875 25 
" id="CMMI12-20"/>
      <path d="M 14.90625 69 
L 7.5 69 
L 7.5 -0.203125 
L 15.09375 -0.203125 
L 15.09375 4.28125 
C 18.90625 0.59375 23.5 -1 27.59375 -1 
C 37.203125 -1 45 8.578125 45 21.125 
C 45 32.59375 39 43.0625 30.09375 43.0625 
C 23.796875 43.0625 18.203125 40.484375 14.90625 37.796875 
z
M 15.09375 31.96875 
C 17.296875 34.71875 20.40625 37 24.796875 37 
C 30.703125 37 37.40625 32.765625 37.40625 21.125 
C 37.40625 8.71875 29.40625 5.078125 23.90625 5.078125 
C 21.90625 5.078125 19.796875 5.5625 17.796875 7.25 
C 15.09375 9.609375 15.09375 11.078125 15.09375 12.453125 
z
" id="CMSS17-98"/>
      <path d="M 54.703125 11.15625 
C 48 6.671875 44.90625 5.375 36.796875 5.375 
C 22.796875 5.375 14.59375 20.359375 14.59375 34.046875 
C 14.59375 48.625 23 63 37.203125 63 
C 43.59375 63 47.796875 61.21875 52.90625 58.046875 
L 54.296875 65.890625 
C 49.5 68.28125 43.40625 69.375 37.296875 69.375 
C 18.09375 69.375 6.203125 51.8125 6.203125 34.046875 
C 6.203125 14.484375 20.296875 -1 36.296875 -1 
C 44.90625 -1 47.90625 -0.296875 55.296875 4.375 
z
" id="CMSS17-67"/>
     </defs>
     <g style="fill:#262626;" transform="translate(24.4962535511 277.932354075)rotate(-90.0)scale(0.25 -0.25)">
      <use transform="scale(0.996264009963)" xlink:href="#CMSS17-67"/>
      <use transform="translate(59.8557715695 0.0)scale(0.996264009963)" xlink:href="#CMSS17-111"/>
      <use transform="translate(106.699395091 0.0)scale(0.996264009963)" xlink:href="#CMSS17-110"/>
      <use transform="translate(154.904338224 0.0)scale(0.996264009963)" xlink:href="#CMSS17-100"/>
      <use transform="translate(203.109281357 0.0)scale(0.996264009963)" xlink:href="#CMSS17-105"/>
      <use transform="translate(225.290004402 0.0)scale(0.996264009963)" xlink:href="#CMSS17-116"/>
      <use transform="translate(259.121571086 0.0)scale(0.996264009963)" xlink:href="#CMSS17-105"/>
      <use transform="translate(281.302294131 0.0)scale(0.996264009963)" xlink:href="#CMSS17-111"/>
      <use transform="translate(328.145917653 0.0)scale(0.996264009963)" xlink:href="#CMSS17-110"/>
      <use transform="translate(407.579973537 0.0)scale(0.996264009963)" xlink:href="#CMSS17-78"/>
      <use transform="translate(473.641492718 0.0)scale(0.996264009963)" xlink:href="#CMSS17-117"/>
      <use transform="translate(521.846435851 0.0)scale(0.996264009963)" xlink:href="#CMSS17-109"/>
      <use transform="translate(596.075690283 0.0)scale(0.996264009963)" xlink:href="#CMSS17-98"/>
      <use transform="translate(646.883072146 0.0)scale(0.996264009963)" xlink:href="#CMSS17-101"/>
      <use transform="translate(688.521894215 0.0)scale(0.996264009963)" xlink:href="#CMSS17-114"/>
      <use transform="translate(751.660779523 0.0)scale(0.996264009963)" xlink:href="#CMMI12-20"/>
     </g>
    </g>
   </g>
   <g id="line2d_152">
    <path d="M 77.293627 272.921432 
L 149.293627 247.940536 
L 221.293627 220.487794 
L 293.293627 191.319719 
L 365.293627 161.14468 
L 437.293627 130.350687 
L 509.293627 99.72968 
L 581.293627 69.175961 
L 653.293627 38.726168 
" style="fill:none;stroke:#d55e00;stroke-dasharray:6.000000,6.000000;stroke-dashoffset:0.0;stroke-width:1.75;"/>
    <defs>
     <path d="M 0 4 
C 1.060812 4 2.078319 3.578535 2.828427 2.828427 
C 3.578535 2.078319 4 1.060812 4 0 
C 4 -1.060812 3.578535 -2.078319 2.828427 -2.828427 
C 2.078319 -3.578535 1.060812 -4 0 -4 
C -1.060812 -4 -2.078319 -3.578535 -2.828427 -2.828427 
C -3.578535 -2.078319 -4 -1.060812 -4 0 
C -4 1.060812 -3.578535 2.078319 -2.828427 2.828427 
C -2.078319 3.578535 -1.060812 4 0 4 
z
" id="md70a67f504"/>
    </defs>
    <g>
     <use style="fill:#d55e00;" x="77.2936265615" xlink:href="#md70a67f504" y="272.921431878"/>
     <use style="fill:#d55e00;" x="149.293626562" xlink:href="#md70a67f504" y="247.94053598"/>
     <use style="fill:#d55e00;" x="221.293626562" xlink:href="#md70a67f504" y="220.487793815"/>
     <use style="fill:#d55e00;" x="293.293626562" xlink:href="#md70a67f504" y="191.319719415"/>
     <use style="fill:#d55e00;" x="365.293626562" xlink:href="#md70a67f504" y="161.144679956"/>
     <use style="fill:#d55e00;" x="437.293626562" xlink:href="#md70a67f504" y="130.35068694"/>
     <use style="fill:#d55e00;" x="509.293626562" xlink:href="#md70a67f504" y="99.7296799183"/>
     <use style="fill:#d55e00;" x="581.293626562" xlink:href="#md70a67f504" y="69.1759614257"/>
     <use style="fill:#d55e00;" x="653.293626562" xlink:href="#md70a67f504" y="38.7261677601"/>
    </g>
   </g>
   <g id="line2d_153">
    <path d="M 77.293627 271.873183 
L 149.293627 254.920903 
L 221.293627 236.880712 
L 293.293627 211.737047 
L 365.293627 183.257962 
L 437.293627 153.104844 
L 509.293627 122.543915 
L 581.293627 91.960658 
L 653.293627 60.944645 
" style="fill:none;stroke:#cc79a7;stroke-dasharray:6.000000,6.000000;stroke-dashoffset:0.0;stroke-width:1.75;"/>
    <defs>
     <path d="M 0 4 
C 1.060812 4 2.078319 3.578535 2.828427 2.828427 
C 3.578535 2.078319 4 1.060812 4 0 
C 4 -1.060812 3.578535 -2.078319 2.828427 -2.828427 
C 2.078319 -3.578535 1.060812 -4 0 -4 
C -1.060812 -4 -2.078319 -3.578535 -2.828427 -2.828427 
C -3.578535 -2.078319 -4 -1.060812 -4 0 
C -4 1.060812 -3.578535 2.078319 -2.828427 2.828427 
C -2.078319 3.578535 -1.060812 4 0 4 
z
" id="me7539ebbac"/>
    </defs>
    <g>
     <use style="fill:#cc79a7;" x="77.2936265615" xlink:href="#me7539ebbac" y="271.873182698"/>
     <use style="fill:#cc79a7;" x="149.293626562" xlink:href="#me7539ebbac" y="254.920902561"/>
     <use style="fill:#cc79a7;" x="221.293626562" xlink:href="#me7539ebbac" y="236.8807115"/>
     <use style="fill:#cc79a7;" x="293.293626562" xlink:href="#me7539ebbac" y="211.73704688"/>
     <use style="fill:#cc79a7;" x="365.293626562" xlink:href="#me7539ebbac" y="183.257962428"/>
     <use style="fill:#cc79a7;" x="437.293626562" xlink:href="#me7539ebbac" y="153.104843645"/>
     <use style="fill:#cc79a7;" x="509.293626562" xlink:href="#me7539ebbac" y="122.543915309"/>
     <use style="fill:#cc79a7;" x="581.293626562" xlink:href="#me7539ebbac" y="91.960657954"/>
     <use style="fill:#cc79a7;" x="653.293626562" xlink:href="#me7539ebbac" y="60.9446446372"/>
    </g>
   </g>
   <g id="line2d_154">
    <path d="M 77.293627 260.032834 
L 149.293627 237.750906 
L 221.293627 217.624138 
L 293.293627 196.431045 
L 365.293627 170.66569 
L 437.293627 141.586125 
L 509.293627 111.142759 
L 581.293627 80.742122 
L 653.293627 50.094196 
" style="fill:none;stroke:#56b4e9;stroke-dasharray:6.000000,6.000000;stroke-dashoffset:0.0;stroke-width:1.75;"/>
    <defs>
     <path d="M 0 4 
C 1.060812 4 2.078319 3.578535 2.828427 2.828427 
C 3.578535 2.078319 4 1.060812 4 0 
C 4 -1.060812 3.578535 -2.078319 2.828427 -2.828427 
C 2.078319 -3.578535 1.060812 -4 0 -4 
C -1.060812 -4 -2.078319 -3.578535 -2.828427 -2.828427 
C -3.578535 -2.078319 -4 -1.060812 -4 0 
C -4 1.060812 -3.578535 2.078319 -2.828427 2.828427 
C -2.078319 3.578535 -1.060812 4 0 4 
z
" id="mf03c92824d"/>
    </defs>
    <g>
     <use style="fill:#56b4e9;" x="77.2936265615" xlink:href="#mf03c92824d" y="260.032834152"/>
     <use style="fill:#56b4e9;" x="149.293626562" xlink:href="#mf03c92824d" y="237.750905969"/>
     <use style="fill:#56b4e9;" x="221.293626562" xlink:href="#mf03c92824d" y="217.624138355"/>
     <use style="fill:#56b4e9;" x="293.293626562" xlink:href="#mf03c92824d" y="196.43104503"/>
     <use style="fill:#56b4e9;" x="365.293626562" xlink:href="#mf03c92824d" y="170.665690485"/>
     <use style="fill:#56b4e9;" x="437.293626562" xlink:href="#mf03c92824d" y="141.586125078"/>
     <use style="fill:#56b4e9;" x="509.293626562" xlink:href="#mf03c92824d" y="111.142758884"/>
     <use style="fill:#56b4e9;" x="581.293626562" xlink:href="#mf03c92824d" y="80.7421218968"/>
     <use style="fill:#56b4e9;" x="653.293626562" xlink:href="#mf03c92824d" y="50.094196291"/>
    </g>
   </g>
   <g id="line2d_155">
    <path d="M 77.293627 276.040583 
L 149.293627 253.987549 
L 221.293627 228.937622 
L 293.293627 201.733693 
L 365.293627 172.818466 
L 437.293627 142.689201 
L 509.293627 112.304936 
L 581.293627 81.785062 
L 653.293627 50.962221 
" style="fill:none;stroke:#0072b2;stroke-dasharray:6.000000,6.000000;stroke-dashoffset:0.0;stroke-width:1.75;"/>
    <defs>
     <path d="M 0 4 
C 1.060812 4 2.078319 3.578535 2.828427 2.828427 
C 3.578535 2.078319 4 1.060812 4 0 
C 4 -1.060812 3.578535 -2.078319 2.828427 -2.828427 
C 2.078319 -3.578535 1.060812 -4 0 -4 
C -1.060812 -4 -2.078319 -3.578535 -2.828427 -2.828427 
C -3.578535 -2.078319 -4 -1.060812 -4 0 
C -4 1.060812 -3.578535 2.078319 -2.828427 2.828427 
C -2.078319 3.578535 -1.060812 4 0 4 
z
" id="m0761daa333"/>
    </defs>
    <g>
     <use style="fill:#0072b2;" x="77.2936265615" xlink:href="#m0761daa333" y="276.040582898"/>
     <use style="fill:#0072b2;" x="149.293626562" xlink:href="#m0761daa333" y="253.98754937"/>
     <use style="fill:#0072b2;" x="221.293626562" xlink:href="#m0761daa333" y="228.937622051"/>
     <use style="fill:#0072b2;" x="293.293626562" xlink:href="#m0761daa333" y="201.733692794"/>
     <use style="fill:#0072b2;" x="365.293626562" xlink:href="#m0761daa333" y="172.818466023"/>
     <use style="fill:#0072b2;" x="437.293626562" xlink:href="#m0761daa333" y="142.689201067"/>
     <use style="fill:#0072b2;" x="509.293626562" xlink:href="#m0761daa333" y="112.304935535"/>
     <use style="fill:#0072b2;" x="581.293626562" xlink:href="#m0761daa333" y="81.7850617218"/>
     <use style="fill:#0072b2;" x="653.293626562" xlink:href="#m0761daa333" y="50.9622211946"/>
    </g>
   </g>
   <g id="line2d_156">
    <path d="M 77.293627 294.773677 
L 149.293627 294.773677 
L 221.293627 294.773677 
L 293.293627 294.773677 
L 365.293627 294.773677 
L 437.293627 294.773677 
L 509.293627 294.773677 
L 581.293627 294.773677 
L 653.293627 294.773677 
" style="fill:none;stroke:#009e73;stroke-linecap:round;stroke-width:3.0;"/>
   </g>
   <g id="patch_3">
    <path d="M 77.293627 32.955495 
L 653.293627 32.955495 
" style="fill:none;"/>
   </g>
   <g id="patch_4">
    <path d="M 653.293627 320.955495 
L 653.293627 32.955495 
" style="fill:none;"/>
   </g>
   <g id="patch_5">
    <path d="M 77.293627 320.955495 
L 653.293627 320.955495 
" style="fill:none;"/>
   </g>
   <g id="patch_6">
    <path d="M 77.293627 320.955495 
L 77.293627 32.955495 
" style="fill:none;"/>
   </g>
   <g id="text_24">
    <!-- Heterodyne Fisher Information Not Isotropic -->
    <defs>
     <path d="M 40.90625 29.546875 
C 40.90625 35.8125 39.40625 44.0625 28.09375 44.0625 
C 21.796875 44.0625 17.703125 40.984375 14.796875 37.609375 
L 14.796875 69.5 
L 7.40625 69.5 
L 7.40625 0.5 
L 15 0.5 
L 15 24.578125 
C 15 30.828125 17.40625 38 24.203125 38 
C 33 38 33.296875 32.125 33.296875 28.734375 
L 33.296875 0.5 
L 40.90625 0.5 
z
" id="CMSS17-104"/>
     <path d="M 16.796875 37 
L 26.90625 37 
L 26.90625 42.765625 
L 16.59375 42.765625 
L 16.59375 55.609375 
C 16.59375 62.71875 22 63.9375 25.09375 63.9375 
C 26.09375 63.9375 28.90625 63.9375 32.5 62.640625 
L 32.5 69.203125 
C 30.203125 69.703125 27.40625 70 25.203125 70 
C 15.90625 70 9.40625 62.390625 9.40625 52.484375 
L 9.40625 42.765625 
L 2.5 42.765625 
L 2.5 37 
L 9.40625 37 
L 9.40625 0 
L 16.796875 0 
z
" id="CMSS17-102"/>
     <path d="M 57.40625 69 
L 49 69 
L 49 39.078125 
L 17.203125 39.078125 
L 17.203125 69 
L 8.796875 69 
L 8.796875 0 
L 17.203125 0 
L 17.203125 33 
L 49 33 
L 49 0 
L 57.40625 0 
z
" id="CMSS17-72"/>
     <path d="M 45.59375 31 
L 45.59375 37.078125 
L 17.203125 37.078125 
L 17.203125 62 
L 29.40625 62 
C 30.59375 62 31.796875 62 33 62 
L 49.5 62 
L 49.5 68.359375 
L 8.796875 68.359375 
L 8.796875 -0.5 
L 17.203125 -0.5 
L 17.203125 31 
z
" id="CMSS17-70"/>
     <path d="M 15.09375 5.203125 
C 18.40625 2.015625 22.90625 -0.078125 27.703125 -0.078125 
C 37 -0.078125 45 9.421875 45 22.0625 
C 45 33.734375 39 44 30.40625 44 
C 25.40625 44 19.40625 42.21875 14.90625 38.625 
L 14.90625 43.203125 
L 7.5 43.203125 
L 7.5 -19 
L 15.09375 -19 
z
M 15.09375 32.8125 
C 15.90625 34 19.296875 37.734375 24.796875 37.734375 
C 31.796875 37.734375 37.40625 30.625 37.40625 22.0625 
C 37.40625 12.296875 30.59375 6 23.90625 6 
C 21.90625 6 19.796875 6.484375 17.796875 8.171875 
C 15.09375 10.53125 15.09375 12 15.09375 13.390625 
z
" id="CMSS17-112"/>
     <path d="M 17.09375 69 
L 8.703125 69 
L 8.703125 0 
L 17.09375 0 
z
" id="CMSS17-73"/>
     <path d="M 37.59375 27.984375 
C 37.59375 37.375 30.90625 43.875 21.90625 43.875 
C 17.5 43.875 12.703125 43.078125 7.203125 39.890625 
L 7.796875 33.359375 
C 10.296875 35.125 14.59375 38 21.796875 38 
C 26.90625 38 30 34.0625 30 27.84375 
L 30 24 
C 14 24 4 19.34375 4 11.34375 
C 4 7.203125 6.5 -1 14.796875 -1 
C 16.296875 -1 24.40625 -1 30.203125 3.390625 
L 30.203125 -0.296875 
L 37.59375 -0.296875 
z
M 30 12.75 
C 30 10.953125 30 8.5625 27 6.78125 
C 24.40625 5.078125 21.09375 5.078125 19.703125 5.078125 
C 14.703125 5.078125 11.296875 7.984375 11.296875 11.625 
C 11.296875 18.921875 26.90625 18.921875 30 18.921875 
z
" id="CMSS17-97"/>
     <path d="M 41.796875 43 
L 34 43 
C 25.5 20.21875 22.59375 10.96875 22.40625 5.984375 
L 22.296875 5.984375 
C 22 10.875 17.59375 22.8125 14.09375 31.359375 
L 9.40625 43 
L 1.296875 43 
L 19 0.203125 
C 17.90625 -2.78125 16.296875 -7.265625 15.796875 -8.265625 
C 13.59375 -13.828125 12.09375 -13.828125 10.5 -13.828125 
C 10.09375 -13.828125 6.90625 -13.828125 3.296875 -12.640625 
L 3.90625 -19.203125 
C 6.40625 -19.703125 8.90625 -20 10.703125 -20 
C 13.203125 -20 18.203125 -20 22.796875 -7.765625 
z
" id="CMSS17-121"/>
     <path d="M 38.5 39.703125 
C 38.5 40.390625 33.90625 42.40625 32.703125 42.796875 
C 29.40625 44 25.203125 44 24.09375 44 
C 11.09375 44 3.296875 32.703125 3.296875 21.296875 
C 3.296875 9.296875 12 -1 23.703125 -1 
C 30.40625 -1 35.203125 1.1875 39.09375 3.78125 
L 38.5 10.375 
C 34.203125 7.078125 29.203125 5.265625 23.796875 5.265625 
C 16 5.265625 10.90625 12.09375 10.90625 21.390625 
C 10.90625 28.609375 14.203125 37.71875 24.203125 37.71875 
C 29.703125 37.71875 32.796875 36.609375 37.40625 33.515625 
z
" id="CMSS17-99"/>
    </defs>
    <g style="fill:#262626;" transform="translate(105.419544445 27.9554951403)scale(0.3 -0.3)">
     <use transform="scale(0.996264009963)" xlink:href="#CMSS17-72"/>
     <use transform="translate(66.061519181 0.0)scale(0.996264009963)" xlink:href="#CMSS17-101"/>
     <use transform="translate(107.70034125 0.0)scale(0.996264009963)" xlink:href="#CMSS17-116"/>
     <use transform="translate(141.531907933 0.0)scale(0.996264009963)" xlink:href="#CMSS17-101"/>
     <use transform="translate(183.170730002 0.0)scale(0.996264009963)" xlink:href="#CMSS17-114"/>
     <use transform="translate(215.080502559 0.0)scale(0.996264009963)" xlink:href="#CMSS17-111"/>
     <use transform="translate(264.526564811 0.0)scale(0.996264009963)" xlink:href="#CMSS17-100"/>
     <use transform="translate(312.731507944 0.0)scale(0.996264009963)" xlink:href="#CMSS17-121"/>
     <use transform="translate(355.731649624 0.0)scale(0.996264009963)" xlink:href="#CMSS17-110"/>
     <use transform="translate(403.936592758 0.0)scale(0.996264009963)" xlink:href="#CMSS17-101"/>
     <use transform="translate(476.804527577 0.0)scale(0.996264009963)" xlink:href="#CMSS17-70"/>
     <use transform="translate(530.094086871 0.0)scale(0.996264009963)" xlink:href="#CMSS17-105"/>
     <use transform="translate(552.274809917 0.0)scale(0.996264009963)" xlink:href="#CMSS17-115"/>
     <use transform="translate(588.188351908 0.0)scale(0.996264009963)" xlink:href="#CMSS17-104"/>
     <use transform="translate(636.393295041 0.0)scale(0.996264009963)" xlink:href="#CMSS17-101"/>
     <use transform="translate(678.03211711 0.0)scale(0.996264009963)" xlink:href="#CMSS17-114"/>
     <use transform="translate(741.171002418 0.0)scale(0.996264009963)" xlink:href="#CMSS17-73"/>
     <use transform="translate(766.954927931 0.0)scale(0.996264009963)" xlink:href="#CMSS17-110"/>
     <use transform="translate(815.159871065 0.0)scale(0.996264009963)" xlink:href="#CMSS17-102"/>
     <use transform="translate(843.786529883 0.0)scale(0.996264009963)" xlink:href="#CMSS17-111"/>
     <use transform="translate(888.027699472 0.0)scale(0.996264009963)" xlink:href="#CMSS17-114"/>
     <use transform="translate(919.937472029 0.0)scale(0.996264009963)" xlink:href="#CMSS17-109"/>
     <use transform="translate(994.16672646 0.0)scale(0.996264009963)" xlink:href="#CMSS17-97"/>
     <use transform="translate(1039.08864707 0.0)scale(0.996264009963)" xlink:href="#CMSS17-116"/>
     <use transform="translate(1072.92021375 0.0)scale(0.996264009963)" xlink:href="#CMSS17-105"/>
     <use transform="translate(1095.10093679 0.0)scale(0.996264009963)" xlink:href="#CMSS17-111"/>
     <use transform="translate(1141.94456032 0.0)scale(0.996264009963)" xlink:href="#CMSS17-110"/>
     <use transform="translate(1221.3786162 0.0)scale(0.996264009963)" xlink:href="#CMSS17-78"/>
     <use transform="translate(1287.44013538 0.0)scale(0.996264009963)" xlink:href="#CMSS17-111"/>
     <use transform="translate(1334.2837589 0.0)scale(0.996264009963)" xlink:href="#CMSS17-116"/>
     <use transform="translate(1399.34443834 0.0)scale(0.996264009963)" xlink:href="#CMSS17-73"/>
     <use transform="translate(1425.12836385 0.0)scale(0.996264009963)" xlink:href="#CMSS17-115"/>
     <use transform="translate(1461.04190584 0.0)scale(0.996264009963)" xlink:href="#CMSS17-111"/>
     <use transform="translate(1507.88552936 0.0)scale(0.996264009963)" xlink:href="#CMSS17-116"/>
     <use transform="translate(1541.71709605 0.0)scale(0.996264009963)" xlink:href="#CMSS17-114"/>
     <use transform="translate(1573.6268686 0.0)scale(0.996264009963)" xlink:href="#CMSS17-111"/>
     <use transform="translate(1620.47049212 0.0)scale(0.996264009963)" xlink:href="#CMSS17-112"/>
     <use transform="translate(1668.67543526 0.0)scale(0.996264009963)" xlink:href="#CMSS17-105"/>
     <use transform="translate(1690.8561583 0.0)scale(0.996264009963)" xlink:href="#CMSS17-99"/>
    </g>
   </g>
  </g>
 </g>
 <defs>
  <clipPath id="p5cb3a19749">
   <rect height="288.0" width="576.0" x="77.2936265615" y="32.9554951403"/>
  </clipPath>
 </defs>
</svg>
