<?xml version="1.0" encoding="utf-8" standalone="no"?>
<!DOCTYPE svg PUBLIC "-//W3C//DTD SVG 1.1//EN"
  "http://www.w3.org/Graphics/SVG/1.1/DTD/svg11.dtd">
<!-- Created with matplotlib (http://matplotlib.org/) -->
<svg height="685pt" version="1.1" viewBox="0 0 1206 685" width="1206pt" xmlns="http://www.w3.org/2000/svg" xmlns:xlink="http://www.w3.org/1999/xlink">
 <defs>
  <style type="text/css">
*{stroke-linecap:butt;stroke-linejoin:round;stroke-miterlimit:100000;}
  </style>
 </defs>
 <g id="figure_1">
  <g id="patch_1">
   <path d="M 0 685.749009 
L 1206.300117 685.749009 
L 1206.300117 0 
L 0 0 
z
" style="fill:#ffffff;"/>
  </g>
  <g id="axes_1">
   <g id="patch_2">
    <path d="M 104.156157 598.106473 
L 1184.156157 598.106473 
L 1184.156157 22.106473 
L 104.156157 22.106473 
z
" style="fill:#eaeaf2;"/>
   </g>
   <g id="matplotlib.axis_1">
    <g id="xtick_1">
     <g id="line2d_1">
      <path clip-path="url(#p9c8461c92d)" d="M 104.156157 598.106473 
L 104.156157 22.106473 
" style="fill:none;stroke:#ffffff;stroke-linecap:round;stroke-width:0.8;"/>
     </g>
     <g id="line2d_2">
      <defs>
       <path d="M 0 0 
L 0 0 
" id="mf4c94ae592" style="stroke:#262626;stroke-width:0.8;"/>
      </defs>
      <g>
       <use style="fill:#262626;stroke:#262626;stroke-width:0.8;" x="104.156157087" xlink:href="#mf4c94ae592" y="598.106472554"/>
      </g>
     </g>
     <g id="line2d_3">
      <g>
       <use style="fill:#262626;stroke:#262626;stroke-width:0.8;" x="104.156157087" xlink:href="#mf4c94ae592" y="22.1064725541"/>
      </g>
     </g>
     <g id="text_1">
      <!-- $0$ -->
      <defs>
       <path d="M 26.296875 69 
C 10.796875 69 2.90625 56.6875 2.90625 32.453125 
C 2.90625 20.71875 5 10.625 8.5 5.71875 
C 12 0.796875 17.59375 -2 23.796875 -2 
C 38.90625 -2 46.5 11.015625 46.5 36.65625 
C 46.5 58.578125 40 69 26.296875 69 
M 24.5 65.5 
C 34.203125 65.5 38.09375 55.6875 38.09375 31.640625 
C 38.09375 10.328125 34.296875 1.5 25.09375 1.5 
C 15.40625 1.5 11.296875 11.625 11.296875 36.0625 
C 11.296875 57.1875 15 65.5 24.5 65.5 
" id="URW_Palladio_L_Roman-48"/>
      </defs>
      <g style="fill:#262626;" transform="translate(96.684177012 625.091184669)scale(0.3 -0.3)">
       <use transform="scale(0.996264009963)" xlink:href="#URW_Palladio_L_Roman-48"/>
      </g>
     </g>
    </g>
    <g id="xtick_2">
     <g id="line2d_4">
      <path clip-path="url(#p9c8461c92d)" d="M 284.156157 598.106473 
L 284.156157 22.106473 
" style="fill:none;stroke:#ffffff;stroke-linecap:round;stroke-width:0.8;"/>
     </g>
     <g id="line2d_5">
      <g>
       <use style="fill:#262626;stroke:#262626;stroke-width:0.8;" x="284.156157087" xlink:href="#mf4c94ae592" y="598.106472554"/>
      </g>
     </g>
     <g id="line2d_6">
      <g>
       <use style="fill:#262626;stroke:#262626;stroke-width:0.8;" x="284.156157087" xlink:href="#mf4c94ae592" y="22.1064725541"/>
      </g>
     </g>
     <g id="text_2">
      <!-- $5$ -->
      <defs>
       <path d="M 12.703125 60.578125 
C 25.59375 60.578125 31.203125 60.578125 43.203125 60.578125 
L 43.703125 61.046875 
C 43.5 62.75 43.5 63.5 43.5 64.75 
C 43.5 66.078125 43.5 66.828125 43.703125 68.53125 
L 43.203125 69 
C 35.703125 69 31.203125 69 25.796875 69 
C 20.296875 69 15.90625 69 8.40625 69 
L 7.90625 68.796875 
C 8 62.671875 8.09375 58.265625 8.09375 55.046875 
C 8.09375 46.515625 7.796875 36.875 7.5 32.453125 
L 9.5 31.84375 
C 14.203125 36.578125 16.90625 38 21.796875 38 
C 31.40625 38 37.40625 31.140625 37.40625 20.25 
C 37.40625 9.0625 31 2.5 20.09375 2.5 
C 14.703125 2.5 9.703125 4.328125 8.296875 6.9375 
L 3.703125 15.203125 
L 1.296875 13.796875 
C 3.59375 8.0625 4.796875 4.84375 6.203125 0.421875 
C 9 -1.109375 13 -2 17.296875 -2 
C 24 -2 31.09375 0.921875 36.59375 5.75 
C 42.703125 11.1875 45.90625 18.03125 45.90625 25.46875 
C 45.90625 36.859375 37.796875 44.90625 26.40625 44.90625 
C 21.59375 44.90625 18 43.609375 11.796875 39.90625 
z
" id="URW_Palladio_L_Roman-53"/>
      </defs>
      <g style="fill:#262626;" transform="translate(276.684177012 625.091184669)scale(0.3 -0.3)">
       <use transform="scale(0.996264009963)" xlink:href="#URW_Palladio_L_Roman-53"/>
      </g>
     </g>
    </g>
    <g id="xtick_3">
     <g id="line2d_7">
      <path clip-path="url(#p9c8461c92d)" d="M 464.156157 598.106473 
L 464.156157 22.106473 
" style="fill:none;stroke:#ffffff;stroke-linecap:round;stroke-width:0.8;"/>
     </g>
     <g id="line2d_8">
      <g>
       <use style="fill:#262626;stroke:#262626;stroke-width:0.8;" x="464.156157087" xlink:href="#mf4c94ae592" y="598.106472554"/>
      </g>
     </g>
     <g id="line2d_9">
      <g>
       <use style="fill:#262626;stroke:#262626;stroke-width:0.8;" x="464.156157087" xlink:href="#mf4c94ae592" y="22.1064725541"/>
      </g>
     </g>
     <g id="text_3">
      <!-- $10$ -->
      <defs>
       <path d="M 6.703125 56 
L 7.703125 56 
L 20.59375 61.8125 
C 20.703125 61.90625 20.796875 61.90625 20.90625 61.90625 
C 21.5 61.90625 21.703125 61.015625 21.703125 58.609375 
L 21.703125 9.578125 
C 21.703125 4.3125 20.59375 3.203125 15.203125 3.203125 
L 9.59375 3.203125 
L 9.59375 0 
C 25 0 25 0 26.09375 0 
C 27.40625 0 29.59375 0 33 0 
C 34.203125 0 37.703125 0 41.796875 0 
L 41.796875 3.203125 
L 36.59375 3.203125 
C 31.09375 3.203125 30.09375 4.3125 30.09375 9.5625 
L 30.09375 69.421875 
L 28.703125 69.921875 
C 22.203125 66.515625 15.09375 63.515625 6 60.3125 
z
" id="URW_Palladio_L_Roman-49"/>
      </defs>
      <g style="fill:#262626;" transform="translate(449.212196937 625.091184669)scale(0.3 -0.3)">
       <use transform="scale(0.996264009963)" xlink:href="#URW_Palladio_L_Roman-49"/>
       <use transform="translate(49.8132004981 0.0)scale(0.996264009963)" xlink:href="#URW_Palladio_L_Roman-48"/>
      </g>
     </g>
    </g>
    <g id="xtick_4">
     <g id="line2d_10">
      <path clip-path="url(#p9c8461c92d)" d="M 644.156157 598.106473 
L 644.156157 22.106473 
" style="fill:none;stroke:#ffffff;stroke-linecap:round;stroke-width:0.8;"/>
     </g>
     <g id="line2d_11">
      <g>
       <use style="fill:#262626;stroke:#262626;stroke-width:0.8;" x="644.156157087" xlink:href="#mf4c94ae592" y="598.106472554"/>
      </g>
     </g>
     <g id="line2d_12">
      <g>
       <use style="fill:#262626;stroke:#262626;stroke-width:0.8;" x="644.156157087" xlink:href="#mf4c94ae592" y="22.1064725541"/>
      </g>
     </g>
     <g id="text_4">
      <!-- $15$ -->
      <g style="fill:#262626;" transform="translate(629.212196937 625.091184669)scale(0.3 -0.3)">
       <use transform="scale(0.996264009963)" xlink:href="#URW_Palladio_L_Roman-49"/>
       <use transform="translate(49.8132004981 0.0)scale(0.996264009963)" xlink:href="#URW_Palladio_L_Roman-53"/>
      </g>
     </g>
    </g>
    <g id="xtick_5">
     <g id="line2d_13">
      <path clip-path="url(#p9c8461c92d)" d="M 824.156157 598.106473 
L 824.156157 22.106473 
" style="fill:none;stroke:#ffffff;stroke-linecap:round;stroke-width:0.8;"/>
     </g>
     <g id="line2d_14">
      <g>
       <use style="fill:#262626;stroke:#262626;stroke-width:0.8;" x="824.156157087" xlink:href="#mf4c94ae592" y="598.106472554"/>
      </g>
     </g>
     <g id="line2d_15">
      <g>
       <use style="fill:#262626;stroke:#262626;stroke-width:0.8;" x="824.156157087" xlink:href="#mf4c94ae592" y="22.1064725541"/>
      </g>
     </g>
     <g id="text_5">
      <!-- $20$ -->
      <defs>
       <path d="M 1.59375 2.5 
L 1.59375 0 
C 20.296875 0 20.296875 0 23.90625 0 
C 27.5 0 27.5 0 46.796875 0 
C 46.59375 1.953125 46.59375 2.90625 46.59375 4.203125 
C 46.59375 5.4375 46.59375 6.359375 46.796875 8.421875 
C 35.296875 8.421875 30.703125 8.421875 12.203125 8.421875 
L 30.40625 27.515625 
C 40.09375 37.71875 43.09375 43.171875 43.09375 50.59375 
C 43.09375 61.96875 35.296875 69 22.59375 69 
C 15.40625 69 10.5 67 5.59375 62.015625 
L 3.90625 48.421875 
L 6.796875 48.421875 
L 8.09375 53.015625 
C 9.703125 58.796875 13.296875 61.296875 20 61.296875 
C 28.59375 61.296875 34.09375 55.890625 34.09375 47.421875 
C 34.09375 39.921875 29.90625 32.546875 18.59375 20.5625 
z
" id="URW_Palladio_L_Roman-50"/>
      </defs>
      <g style="fill:#262626;" transform="translate(809.212196937 625.091184669)scale(0.3 -0.3)">
       <use transform="scale(0.996264009963)" xlink:href="#URW_Palladio_L_Roman-50"/>
       <use transform="translate(49.8132004981 0.0)scale(0.996264009963)" xlink:href="#URW_Palladio_L_Roman-48"/>
      </g>
     </g>
    </g>
    <g id="xtick_6">
     <g id="line2d_16">
      <path clip-path="url(#p9c8461c92d)" d="M 1004.156157 598.106473 
L 1004.156157 22.106473 
" style="fill:none;stroke:#ffffff;stroke-linecap:round;stroke-width:0.8;"/>
     </g>
     <g id="line2d_17">
      <g>
       <use style="fill:#262626;stroke:#262626;stroke-width:0.8;" x="1004.15615709" xlink:href="#mf4c94ae592" y="598.106472554"/>
      </g>
     </g>
     <g id="line2d_18">
      <g>
       <use style="fill:#262626;stroke:#262626;stroke-width:0.8;" x="1004.15615709" xlink:href="#mf4c94ae592" y="22.1064725541"/>
      </g>
     </g>
     <g id="text_6">
      <!-- $25$ -->
      <g style="fill:#262626;" transform="translate(989.212196937 625.091184669)scale(0.3 -0.3)">
       <use transform="scale(0.996264009963)" xlink:href="#URW_Palladio_L_Roman-50"/>
       <use transform="translate(49.8132004981 0.0)scale(0.996264009963)" xlink:href="#URW_Palladio_L_Roman-53"/>
      </g>
     </g>
    </g>
    <g id="xtick_7">
     <g id="line2d_19">
      <path clip-path="url(#p9c8461c92d)" d="M 1184.156157 598.106473 
L 1184.156157 22.106473 
" style="fill:none;stroke:#ffffff;stroke-linecap:round;stroke-width:0.8;"/>
     </g>
     <g id="line2d_20">
      <g>
       <use style="fill:#262626;stroke:#262626;stroke-width:0.8;" x="1184.15615709" xlink:href="#mf4c94ae592" y="598.106472554"/>
      </g>
     </g>
     <g id="line2d_21">
      <g>
       <use style="fill:#262626;stroke:#262626;stroke-width:0.8;" x="1184.15615709" xlink:href="#mf4c94ae592" y="22.1064725541"/>
      </g>
     </g>
     <g id="text_7">
      <!-- $30$ -->
      <defs>
       <path d="M 4.296875 49.953125 
L 7.40625 49.953125 
L 9.203125 55.53125 
C 10.296875 58.90625 16.59375 62.296875 21.796875 62.296875 
C 28.296875 62.296875 33.59375 57.015625 33.59375 50.75 
C 33.59375 43.28125 27.703125 37 20.59375 37 
C 19.796875 37 18.703125 37 17.40625 37.203125 
L 15.90625 37.203125 
L 14.703125 31.984375 
L 15.40625 31.375 
C 19.203125 33.09375 21.09375 33.59375 23.796875 33.59375 
C 32.09375 33.59375 36.90625 28.265625 36.90625 19.09375 
C 36.90625 8.84375 30.796875 2.109375 21.5 2.109375 
C 16.90625 2.109375 12.796875 3.609375 9.796875 6.421875 
C 7.40625 8.640625 6.09375 10.953125 4.203125 16.390625 
L 1.5 15.390625 
C 3.59375 9.265625 4.40625 5.640625 5 0.609375 
C 10.296875 -1.203125 14.703125 -2 18.40625 -2 
C 26.40625 -2 35.59375 2.515625 41.09375 9.265625 
C 44.5 13.375 46.203125 17.8125 46.203125 22.53125 
C 46.203125 27.359375 44.203125 31.59375 40.59375 34.09375 
C 38.09375 35.90625 35.796875 36.71875 30.796875 37.609375 
C 38.796875 43.796875 41.796875 48.375 41.796875 54.25 
C 41.796875 63.125 34.40625 69 23.296875 69 
C 16.5 69 12 67.109375 7.203125 62.328125 
z
" id="URW_Palladio_L_Roman-51"/>
      </defs>
      <g style="fill:#262626;" transform="translate(1169.21219694 625.091184669)scale(0.3 -0.3)">
       <use transform="scale(0.996264009963)" xlink:href="#URW_Palladio_L_Roman-51"/>
       <use transform="translate(49.8132004981 0.0)scale(0.996264009963)" xlink:href="#URW_Palladio_L_Roman-48"/>
      </g>
     </g>
    </g>
    <g id="text_8">
     <!-- $d$ (Hilbert space dimension) -->
     <defs>
      <path d="M 32.40625 8.40625 
L 31.90625 -0.015625 
C 38.40625 -0.015625 38.40625 -0.015625 39.703125 -0.015625 
C 40.203125 -0.015625 42.703125 -0.015625 47.09375 -0.015625 
L 47.09375 3 
L 43.203125 3 
C 40.796875 3 40.40625 3.8125 40.40625 8.71875 
L 40.40625 27.046875 
C 40.40625 41.6875 36.203125 47 24.59375 47 
C 20.296875 47 16.296875 45.890625 12.5 43.609375 
L 7.203125 40.390625 
L 7.203125 33.921875 
L 9.796875 33.21875 
L 11.09375 36.296875 
C 13.203125 40.984375 14.203125 41.6875 18.796875 41.6875 
C 28.203125 41.6875 32.09375 37.984375 32.40625 28.9375 
L 22.5 27.125 
C 8.90625 24.640625 3.203125 19.953125 3.203125 11.28125 
C 3.203125 3.5 7.90625 -1 15.796875 -1 
C 17.59375 -1 19.296875 -0.703125 20 -0.203125 
z
M 32.40625 12.59375 
C 29.5 8.5 23.203125 4.71875 19.296875 4.71875 
C 15.296875 4.71875 11.796875 8.40625 11.796875 12.6875 
C 11.796875 16.375 13.796875 19.859375 16.796875 21.75 
C 19.296875 23.25 24.796875 24.640625 32.40625 25.75 
z
" id="URW_Palladio_L_Roman-97"/>
      <path d="M 2.296875 66.5 
L 7.90625 66.5 
C 9.703125 66.5 10.40625 65.390625 10.40625 62.375 
L 10.40625 10.171875 
C 10.40625 3.8125 10.09375 3.109375 6.703125 3.109375 
L 2.09375 3.109375 
L 2.09375 0 
C 12.09375 0 12.09375 0 14.59375 0 
C 17.09375 0 17.09375 0 27.09375 0 
L 27.09375 3.109375 
L 22.5 3.109375 
C 19.09375 3.109375 18.796875 3.8125 18.796875 10.15625 
L 18.796875 72.203125 
L 17.90625 73.015625 
C 13.5 71.3125 10.203125 70.5 2.296875 69.296875 
z
" id="URW_Palladio_L_Roman-108"/>
      <path d="M 1 40.078125 
L 4.703125 40.078125 
C 8.703125 40.078125 9.09375 39.375 9.09375 32.734375 
L 9.09375 -17.84375 
C 9.09375 -24.1875 8.796875 -24.890625 5.40625 -24.890625 
L 0.796875 -24.890625 
L 0.796875 -28 
C 10.796875 -28 10.796875 -28 13.296875 -28 
C 15.796875 -28 15.796875 -28 25.796875 -28 
L 25.796875 -24.890625 
L 21.203125 -24.890625 
C 17.796875 -24.890625 17.5 -24.171875 17.5 -17.78125 
L 17.5 1.390625 
C 20.5 -0.40625 23.703125 -1.109375 28.203125 -1.109375 
C 31.09375 -1.109375 33.703125 -0.5 35.296875 0.5 
L 46.703125 7.890625 
C 50.703125 10.5 55.40625 20.78125 55.40625 27.1875 
C 55.40625 38.296875 46.203125 47 34.59375 47 
C 30.90625 47 27.296875 45.984375 25.703125 44.484375 
L 17.5 36.984375 
L 17.5 46.59375 
L 16.59375 47 
C 11.5 44.890625 6.296875 43.484375 1 42.890625 
z
M 17.5 30.6875 
C 17.5 32.078125 18 33.1875 19.296875 34.890625 
C 22.203125 38.578125 26.296875 40.484375 31.296875 40.484375 
C 40.703125 40.484375 46.703125 33.890625 46.703125 23.5 
C 46.703125 12.296875 40 4 31 4 
C 25.5 4 21.40625 5.8125 17.5 9.890625 
z
" id="URW_Palladio_L_Roman-112"/>
      <path d="M 27.90625 47 
C 13.296875 47 3.203125 36.671875 3.203125 21.75 
C 3.203125 7.609375 12.09375 -2 25 -2 
C 40.40625 -2 51.40625 8.71875 51.40625 23.75 
C 51.40625 37.28125 41.59375 47 27.90625 47 
M 26.09375 43.6875 
C 35.296875 43.6875 42.09375 33.671875 42.09375 20.046875 
C 42.09375 8.515625 37 1.296875 28.90625 1.296875 
C 19.09375 1.296875 12.5 10.921875 12.5 25.15625 
C 12.5 37.171875 17.296875 43.6875 26.09375 43.6875 
" id="URW_Palladio_L_Roman-111"/>
      <path d="M 41 -0.109375 
C 47.09375 -0.109375 47.203125 -0.109375 48.90625 -0.109375 
C 50.296875 -0.109375 50.296875 -0.109375 57.203125 -0.109375 
L 57.203125 2.796875 
L 53.09375 3.203125 
C 49.703125 3.203125 49.40625 3.8125 49.40625 10.21875 
L 49.40625 29.5625 
C 49.40625 41.28125 43.90625 47 32.703125 47 
C 29 47 26.90625 46.296875 24.796875 44.484375 
L 17.203125 37.875 
L 17.203125 46.59375 
L 16.296875 47 
C 11.203125 44.890625 6 43.484375 0.703125 42.890625 
L 0.703125 40.078125 
L 4.40625 40.078125 
C 8.40625 40.078125 8.796875 39.375 8.796875 32.71875 
L 8.796875 10.046875 
C 8.796875 3.703125 8.5 3 5.09375 3 
L 0.59375 3 
L 0.59375 -0.109375 
C 7.40625 -0.109375 10.09375 -0.109375 13 -0.109375 
C 15.90625 -0.109375 18.59375 -0.109375 25.40625 -0.109375 
L 25.40625 3 
L 20.90625 3 
C 17.5 3 17.203125 3.703125 17.203125 10.046875 
L 17.203125 31.421875 
C 17.203125 35.9375 23.796875 40.875 29.90625 40.875 
C 36.59375 40.875 41 35.890625 41 28.21875 
z
" id="URW_Palladio_L_Roman-110"/>
      <path d="M 41.203125 43.78125 
C 35.59375 46.1875 32.796875 47 29.296875 47 
C 26.59375 47 24.203125 46.390625 21.703125 45.109375 
L 12.90625 40.515625 
C 7.203125 37.515625 3.5 30.234375 3.5 21.75 
C 3.5 13.765625 6.203125 7.1875 11.09375 3.1875 
C 14.5 0.296875 19.203125 -1 25.703125 -1 
C 27.703125 -1 30 -0.59375 30.5 -0.203125 
L 41.59375 9.109375 
L 41.09375 -0.109375 
C 46 -0.109375 47.59375 -0.109375 48.796875 -0.109375 
C 49.59375 -0.109375 51 -0.109375 53.09375 -0.109375 
C 53.796875 -0.109375 55.796875 -0.109375 57.90625 -0.109375 
L 57.90625 3 
L 53.296875 3 
C 49.90625 3 49.59375 3.703125 49.59375 10.046875 
L 49.59375 71.984375 
L 48.703125 72.796875 
C 44.296875 71.09375 41 70.28125 33.09375 69.078125 
L 33.09375 66.28125 
L 38.703125 66.28125 
C 40.5 66.28125 41.203125 65.171875 41.203125 62.15625 
z
M 41.203125 22.25 
C 41.203125 15.765625 41 14.78125 39.703125 12.484375 
C 36.90625 7.796875 32 4.71875 27.296875 4.71875 
C 18.5 4.71875 12.203125 13.1875 12.203125 25.046875 
C 12.203125 35.90625 17.59375 42.28125 26.59375 42.28125 
C 30.40625 42.28125 34.40625 40.984375 37.90625 38.59375 
C 40 37.203125 41.203125 35.90625 41.203125 35.09375 
z
" id="URW_Palladio_L_Roman-100"/>
      <path d="M 43.703125 6.984375 
L 42.40625 7.984375 
C 36 4.203125 33.703125 3.3125 29.40625 3.3125 
C 22.90625 3.3125 17.5 6.21875 14.703125 11.109375 
C 12.796875 14.390625 12.09375 17.203125 11.90625 23 
L 26.5 23 
C 33.40625 23 37.703125 23 44.59375 24.125 
C 44.703125 25.53125 44.796875 26.453125 44.796875 27.671875 
C 44.796875 39.375 37.40625 47 26.203125 47 
C 22.5 47 18.203125 45.6875 14.09375 43.28125 
C 5.90625 38.578125 2.59375 32.359375 2.59375 21.9375 
C 2.59375 15.625 4.09375 10.21875 6.796875 6.40625 
C 10.796875 1.109375 17.5 -2 25 -2 
C 28.703125 -2 32.40625 -1.203125 36.5 0.578125 
C 39.203125 1.6875 41.296875 2.984375 41.703125 3.59375 
z
M 35.90625 26.40625 
C 30.703125 26.40625 28.296875 26.40625 24.703125 26.40625 
C 20.09375 26.40625 17.5 26.40625 12.09375 26.90625 
C 12.09375 31.671875 12.5 33.890625 13.796875 36.515625 
C 15.90625 40.96875 20.203125 43.6875 25 43.6875 
C 28.296875 43.6875 30.90625 42.359375 32.703125 39.59375 
C 34.90625 36.234375 35.59375 33.265625 35.90625 26.40625 
" id="URW_Palladio_L_Roman-101"/>
      <path d="M 4.09375 14.328125 
C 4.09375 7.421875 3.796875 4.40625 3 0.40625 
C 8.203125 -1.296875 12.09375 -2 16.703125 -2 
C 29.796875 -2 39.09375 5.015625 39.09375 14.828125 
C 39.09375 17.9375 38.203125 20.234375 36.296875 22.25 
C 33.703125 24.75 30.40625 25.953125 21.59375 27.65625 
C 13.40625 29.265625 10.703125 31.265625 10.703125 35.875 
C 10.703125 40.875 14.203125 43.6875 20.296875 43.6875 
C 27 43.6875 32.09375 40.1875 32.09375 35.46875 
L 32.09375 33.171875 
L 34.90625 33.171875 
C 35 38.984375 35.09375 41.375 35.40625 44.484375 
C 30.09375 46.296875 26.5 47 22.40625 47 
C 10.796875 47 3.703125 41.484375 3.703125 32.46875 
C 3.703125 27.65625 5.90625 24.25 10.5 22.140625 
C 13.203125 20.9375 18.5 19.34375 25.296875 17.828125 
C 29.796875 16.828125 31.703125 14.734375 31.703125 10.921875 
C 31.703125 5.515625 26.703125 1.703125 19.59375 1.703125 
C 12.296875 1.703125 7.09375 5.203125 7.09375 10.21875 
L 7.09375 14.328125 
z
" id="URW_Palladio_L_Roman-115"/>
      <path d="M 2.296875 40.078125 
L 6 40.078125 
C 10 40.078125 10.40625 39.375 10.40625 32.71875 
L 10.40625 10.046875 
C 10.40625 3.703125 10.09375 3 6.703125 3 
L 2.09375 3 
L 2.09375 -0.109375 
C 9.296875 -0.109375 11.90625 -0.109375 14.40625 -0.109375 
C 16.40625 -0.109375 16.40625 -0.109375 28.703125 -0.109375 
L 28.703125 3 
L 23.5 3 
C 19 3 18.796875 3.296875 18.796875 9.96875 
L 18.796875 27.359375 
C 18.796875 33.421875 22.796875 38.484375 27.703125 38.484375 
C 30.703125 38.484375 32.796875 37.078125 34.40625 33.890625 
L 36.5 33.890625 
L 37.40625 45.890625 
C 36.296875 46.59375 34.5 47 32.703125 47 
C 29.703125 47 26.5 45.390625 24.40625 42.890625 
L 18.796875 36.28125 
L 18.796875 46.59375 
L 17.90625 47 
C 12.796875 44.890625 7.59375 43.484375 2.296875 42.890625 
z
" id="URW_Palladio_L_Roman-114"/>
      <path d="M 18.796875 46.765625 
L 17.90625 47.171875 
C 12.796875 45.0625 7.59375 43.640625 2.296875 43.046875 
L 2.296875 40.25 
L 6 40.25 
C 10 40.25 10.40625 39.546875 10.40625 32.890625 
L 10.40625 10.171875 
C 10.40625 3.8125 10.09375 3.109375 6.703125 3.109375 
L 2.09375 3.109375 
L 2.09375 0 
C 12.09375 0 12.09375 0 14.59375 0 
C 17.09375 0 17.09375 0 27.09375 0 
L 27.09375 3.109375 
L 22.5 3.109375 
C 19.09375 3.109375 18.796875 3.8125 18.796875 10.171875 
z
M 14.203125 69 
C 11.203125 69 8.59375 66.390625 8.59375 63.375 
C 8.59375 60.46875 11.203125 57.875 14.09375 57.875 
C 17 57.875 19.703125 60.46875 19.703125 63.375 
C 19.703125 66.1875 17 69 14.203125 69 
" id="URW_Palladio_L_Roman-105"/>
      <path d="M 39.90625 31.15625 
C 39.90625 35.765625 40.40625 39.875 41.296875 43.484375 
C 37.296875 45.890625 33.796875 47 29.703125 47 
C 24.90625 47 19.296875 45.09375 13.296875 41.28125 
C 6.296875 36.875 2.59375 29.859375 2.59375 21.046875 
C 2.59375 7.515625 12.09375 -2 25.5 -2 
C 30.703125 -2 38.203125 -0.09375 39.203125 1.40625 
L 41.296875 4.609375 
L 40.296875 6.109375 
C 36.59375 4.109375 33.40625 3.203125 29.796875 3.203125 
C 18.703125 3.203125 11.40625 11.828125 11.40625 25.046875 
C 11.40625 35.765625 16.40625 41.78125 25.40625 41.78125 
C 29.796875 41.78125 34.59375 39.78125 36.40625 37.28125 
L 37.09375 31.15625 
z
" id="URW_Palladio_L_Roman-99"/>
      <path d="M 15 72.1875 
L 14.09375 73 
C 9.703125 71.296875 6.40625 70.484375 -1.5 69.28125 
L -1.5 66.484375 
L 4.09375 66.484375 
C 5.90625 66.484375 6.59375 65.375 6.59375 62.359375 
L 6.59375 15.453125 
C 6.59375 9.234375 6.5 6.5 5.796875 -0.515625 
L 7.40625 -1.109375 
L 11.40625 2.5 
C 15.40625 -0.109375 19 -1.109375 24.296875 -1.109375 
C 28.203125 -1.109375 30.796875 -0.40625 32.90625 1.09375 
L 42.90625 8.296875 
C 47.296875 11.484375 50.796875 19.78125 50.796875 27.078125 
C 50.796875 38.6875 43.296875 47 32.703125 47 
C 28 47 23.09375 45.1875 20.5 42.578125 
L 15 36.984375 
z
M 15 30.890625 
C 15 32.28125 16 34.078125 17.59375 35.890625 
C 20.40625 38.78125 24.296875 40.484375 28.40625 40.484375 
C 36.796875 40.484375 42.09375 33.6875 42.09375 23 
C 42.09375 11.796875 36.09375 4 27.59375 4 
C 22.40625 4 15 7.1875 15 9.390625 
z
" id="URW_Palladio_L_Roman-98"/>
      <path d="M 1.796875 40.078125 
L 5.5 40.078125 
C 9.5 40.078125 9.90625 39.375 9.90625 32.71875 
L 9.90625 10.046875 
C 9.90625 3.703125 9.59375 3 6.203125 3 
L 1.59375 3 
L 1.59375 -0.109375 
C 11.203125 -0.109375 11.5 -0.109375 14.296875 -0.109375 
C 17.09375 -0.109375 19.703125 -0.109375 26.203125 -0.109375 
L 26.203125 2.796875 
L 22 3.203125 
C 18.59375 3.203125 18.296875 3.90625 18.296875 10.21875 
L 18.296875 31.46875 
C 18.296875 35.96875 24.90625 40.875 30.90625 40.875 
C 36.296875 40.875 40 35.734375 40 28.09375 
L 40 10.046875 
C 40 3.703125 39.703125 3 36.296875 3 
L 31.703125 3 
L 31.703125 -0.109375 
C 41.703125 -0.109375 41.703125 -0.109375 44.203125 -0.109375 
C 46.703125 -0.109375 46.703125 -0.109375 56.703125 -0.109375 
L 56.703125 3 
L 52.09375 3 
C 48.703125 3 48.40625 3.703125 48.40625 10.046875 
L 48.40625 31.421875 
C 48.40625 35.9375 55 40.875 61 40.875 
C 66.40625 40.875 70.09375 35.78125 70.09375 28.21875 
L 70.09375 -0.109375 
C 76.203125 -0.109375 76.296875 -0.109375 78 -0.109375 
C 79.296875 -0.109375 79.296875 -0.109375 86.90625 -0.109375 
L 86.90625 3 
L 82.203125 3 
C 78.796875 3 78.5 3.703125 78.5 10.046875 
L 78.5 30.78125 
C 78.5 40.75 72.703125 47 63.5 47 
C 60 47 57.09375 46.09375 55.296875 44.484375 
L 47.703125 37.6875 
C 44.5 44.28125 40.40625 47 33.5 47 
C 29.796875 47 27 46.09375 25.203125 44.484375 
L 18.296875 38.078125 
L 18.296875 46.59375 
L 17.40625 47 
C 12.296875 44.890625 7.09375 43.484375 1.796875 42.890625 
z
" id="URW_Palladio_L_Roman-109"/>
      <path d="M 48.296875 72.171875 
L 47.09375 73.265625 
C 41.90625 70.6875 38.296875 69.78125 31.09375 69.09375 
L 30.703125 67 
L 35.5 67 
C 37.90625 67 38.90625 66.28125 38.90625 64.578125 
C 38.90625 63.765625 38.796875 62.859375 38.703125 62.15625 
L 35.90625 46.609375 
C 32.90625 47.5 30.203125 48 27.703125 48 
C 20.796875 48 11.40625 40.84375 6.796875 32.1875 
C 3.703125 26.4375 1.703125 16.984375 1.703125 8.640625 
C 1.703125 2.1875 3.203125 -1 6.09375 -1 
C 8.796875 -1 12.5 0.6875 15.90625 3.359375 
C 21.296875 7.75 24.59375 11.609375 31.296875 21.65625 
L 29 12.53125 
C 27.90625 8.125 27.40625 4.921875 27.40625 2.296875 
C 27.40625 0.203125 28.296875 -1 30 -1 
C 31.703125 -1 34.09375 0.203125 37.5 2.734375 
L 45.59375 8.828125 
L 44.59375 10.71875 
L 40.203125 7.640625 
C 38.796875 6.65625 37.203125 5.953125 36.296875 5.953125 
C 35.5 5.953125 34.90625 6.84375 34.90625 8.25 
C 34.90625 9.0625 35 9.953125 35.703125 12.84375 
z
M 33.703125 34.984375 
C 31.90625 26.234375 27 17.484375 20.796875 11.609375 
C 17.296875 8.34375 13.296875 5.953125 11.40625 5.953125 
C 9.796875 5.953125 8.90625 7.34375 8.90625 9.828125 
C 8.90625 22.359375 13.5 37.859375 18.40625 41.625 
C 19.703125 42.625 21.59375 43.125 24.296875 43.125 
C 28.703125 43.125 31.59375 42.515625 34.90625 40.84375 
z
" id="URW_Palladio_L_Italic-100"/>
      <path d="M 61.59375 12.078125 
C 61.59375 4.015625 61.09375 3.203125 56.5 3.203125 
L 51.703125 3.203125 
L 51.703125 0 
C 57.59375 0 61.09375 0 66.296875 0 
C 71.5 0 75.09375 0 81 0 
L 81 3.203125 
L 76.203125 3.203125 
C 71.59375 3.203125 71.09375 4 71.09375 11.96875 
L 71.09375 57.234375 
C 71.09375 65.1875 71.59375 66 76.203125 66 
L 81 66 
L 81 69.109375 
C 73.703125 69.109375 71.5 69.109375 66.296875 69.109375 
C 61.296875 69.109375 58.90625 69.109375 51.703125 69.109375 
L 51.703125 66 
L 56.5 66 
C 61.09375 66 61.59375 65.1875 61.59375 57.3125 
L 61.59375 39.515625 
C 59.5 39.515625 57.40625 39.515625 53.296875 39.515625 
L 29.90625 39.515625 
C 25.796875 39.515625 23.59375 39.515625 21.59375 39.515625 
L 21.59375 57.3125 
C 21.59375 65.1875 22.09375 66 26.703125 66 
L 31.5 66 
L 31.5 69.109375 
C 24.203125 69.109375 22 69.109375 16.796875 69.109375 
C 11.796875 69.109375 9.40625 69.109375 2.203125 69.109375 
L 2.203125 66 
L 7 66 
C 11.59375 66 12.09375 65.1875 12.09375 57.234375 
L 12.09375 11.96875 
C 12.09375 4 11.59375 3.203125 7 3.203125 
L 2.203125 3.203125 
L 2.203125 0 
C 8.09375 0 11.59375 0 16.796875 0 
C 22 0 25.59375 0 31.5 0 
L 31.5 3.203125 
L 26.703125 3.203125 
C 22.09375 3.203125 21.59375 4.015625 21.59375 12.078125 
L 21.59375 34.796875 
C 24.296875 35 25.90625 35 29.90625 35 
L 53.296875 35 
C 57.296875 35 58.90625 35 61.59375 34.796875 
z
" id="URW_Palladio_L_Roman-72"/>
      <path d="M 9.796875 38.6875 
L 9.796875 9.671875 
C 9.796875 2.21875 13.09375 -1 20.796875 -1 
C 23.09375 -1 25.5 -0.5 26.09375 0.203125 
L 30.90625 5.515625 
L 29.59375 7.234375 
C 27.09375 5.8125 25.59375 5.3125 23.703125 5.3125 
C 19.796875 5.3125 18.203125 7.34375 18.203125 12.3125 
L 18.203125 38.890625 
L 31 38.890625 
L 31.90625 44 
L 18.203125 44 
L 18.203125 47.75 
C 18.203125 51.890625 18.5 55.421875 19.296875 61.734375 
L 18.09375 62.828125 
C 15.703125 61.328125 12.703125 60.03125 9.59375 59.03125 
C 9.90625 56.015625 10 54.109375 10 51.109375 
L 10 44.09375 
L 2.203125 40.59375 
L 2.203125 38.6875 
z
" id="URW_Palladio_L_Roman-116"/>
      <path d="M 30.09375 -19.4375 
C 22.90625 -10.515625 20.296875 -5.71875 17.703125 3.3125 
C 15.59375 10.515625 14.59375 18.140625 14.59375 26.65625 
C 14.59375 34.96875 15.59375 42.078125 17.5 48.59375 
C 20.09375 56.90625 22.796875 61.625 30.09375 70.140625 
L 28.203125 72.75 
C 17.796875 63.421875 13.703125 57.921875 9.90625 48.09375 
C 7.296875 41.375 6 34.265625 6 26.65625 
C 6 15.9375 8.5 5.8125 13.296875 -3.203125 
C 16.796875 -9.921875 20 -13.828125 28.203125 -21.546875 
z
" id="URW_Palladio_L_Roman-40"/>
      <path d="M 5.09375 -21.546875 
C 12 -15.03125 14.90625 -11.71875 18 -6.8125 
C 24.09375 2.90625 27.296875 14.53125 27.296875 26.546875 
C 27.296875 34.265625 26 41.375 23.40625 48.09375 
C 19.59375 57.8125 15.5 63.328125 5.09375 72.75 
L 3.203125 70.140625 
C 10.5 61.515625 13.203125 56.8125 15.703125 48.59375 
C 17.703125 42.078125 18.703125 34.96875 18.703125 26.65625 
C 18.703125 18.140625 17.703125 10.515625 15.59375 3.3125 
C 13 -5.71875 10.40625 -10.515625 3.203125 -19.4375 
z
" id="URW_Palladio_L_Roman-41"/>
     </defs>
     <g style="fill:#262626;" transform="translate(400.422894249 667.311365461)scale(0.4 -0.4)">
      <use transform="scale(0.996264009963)" xlink:href="#URW_Palladio_L_Italic-100"/>
      <use transform="translate(75.9651155579 0.0)scale(0.996264009963)" xlink:href="#URW_Palladio_L_Roman-40"/>
      <use transform="translate(109.140345287 0.0)scale(0.996264009963)" xlink:href="#URW_Palladio_L_Roman-72"/>
      <use transform="translate(192.029006217 0.0)scale(0.996264009963)" xlink:href="#URW_Palladio_L_Roman-105"/>
      <use transform="translate(221.019367679 0.0)scale(0.996264009963)" xlink:href="#URW_Palladio_L_Roman-108"/>
      <use transform="translate(250.009729141 0.0)scale(0.996264009963)" xlink:href="#URW_Palladio_L_Roman-98"/>
      <use transform="translate(305.102128614 0.0)scale(0.996264009963)" xlink:href="#URW_Palladio_L_Roman-101"/>
      <use transform="translate(352.822423724 0.0)scale(0.996264009963)" xlink:href="#URW_Palladio_L_Roman-114"/>
      <use transform="translate(392.174320055 0.0)scale(0.996264009963)" xlink:href="#URW_Palladio_L_Roman-116"/>
      <use transform="translate(449.558008177 0.0)scale(0.996264009963)" xlink:href="#URW_Palladio_L_Roman-115"/>
      <use transform="translate(491.799474505 0.0)scale(0.996264009963)" xlink:href="#URW_Palladio_L_Roman-112"/>
      <use transform="translate(551.673868258 0.0)scale(0.996264009963)" xlink:href="#URW_Palladio_L_Roman-97"/>
      <use transform="translate(601.487068756 0.0)scale(0.996264009963)" xlink:href="#URW_Palladio_L_Roman-99"/>
      <use transform="translate(645.720637453 0.0)scale(0.996264009963)" xlink:href="#URW_Palladio_L_Roman-101"/>
      <use transform="translate(718.347532812 0.0)scale(0.996264009963)" xlink:href="#URW_Palladio_L_Roman-100"/>
      <use transform="translate(779.219163488 0.0)scale(0.996264009963)" xlink:href="#URW_Palladio_L_Roman-105"/>
      <use transform="translate(808.20952495 0.0)scale(0.996264009963)" xlink:href="#URW_Palladio_L_Roman-109"/>
      <use transform="translate(896.179199219 0.0)scale(0.996264009963)" xlink:href="#URW_Palladio_L_Roman-101"/>
      <use transform="translate(943.899494328 0.0)scale(0.996264009963)" xlink:href="#URW_Palladio_L_Roman-110"/>
      <use transform="translate(1001.88155501 0.0)scale(0.996264009963)" xlink:href="#URW_Palladio_L_Roman-115"/>
      <use transform="translate(1044.12302134 0.0)scale(0.996264009963)" xlink:href="#URW_Palladio_L_Roman-105"/>
      <use transform="translate(1073.1133828 0.0)scale(0.996264009963)" xlink:href="#URW_Palladio_L_Roman-111"/>
      <use transform="translate(1127.50896297 0.0)scale(0.996264009963)" xlink:href="#URW_Palladio_L_Roman-110"/>
      <use transform="translate(1185.49102365 0.0)scale(0.996264009963)" xlink:href="#URW_Palladio_L_Roman-41"/>
     </g>
    </g>
   </g>
   <g id="matplotlib.axis_2">
    <g id="ytick_1">
     <g id="line2d_22">
      <path clip-path="url(#p9c8461c92d)" d="M 104.156157 598.106473 
L 1184.156157 598.106473 
" style="fill:none;stroke:#ffffff;stroke-linecap:round;stroke-width:0.8;"/>
     </g>
     <g id="line2d_23">
      <g>
       <use style="fill:#262626;stroke:#262626;stroke-width:0.8;" x="104.156157087" xlink:href="#mf4c94ae592" y="598.106472554"/>
      </g>
     </g>
     <g id="line2d_24">
      <g>
       <use style="fill:#262626;stroke:#262626;stroke-width:0.8;" x="1184.15615709" xlink:href="#mf4c94ae592" y="598.106472554"/>
      </g>
     </g>
     <g id="text_9">
      <!-- $0$ -->
      <g style="fill:#262626;" transform="translate(83.6121969373 604.584712115)scale(0.3 -0.3)">
       <use transform="scale(0.996264009963)" xlink:href="#URW_Palladio_L_Roman-48"/>
      </g>
     </g>
    </g>
    <g id="ytick_2">
     <g id="line2d_25">
      <path clip-path="url(#p9c8461c92d)" d="M 104.156157 534.106473 
L 1184.156157 534.106473 
" style="fill:none;stroke:#ffffff;stroke-linecap:round;stroke-width:0.8;"/>
     </g>
     <g id="line2d_26">
      <g>
       <use style="fill:#262626;stroke:#262626;stroke-width:0.8;" x="104.156157087" xlink:href="#mf4c94ae592" y="534.106472554"/>
      </g>
     </g>
     <g id="line2d_27">
      <g>
       <use style="fill:#262626;stroke:#262626;stroke-width:0.8;" x="1184.15615709" xlink:href="#mf4c94ae592" y="534.106472554"/>
      </g>
     </g>
     <g id="text_10">
      <!-- $100$ -->
      <g style="fill:#262626;" transform="translate(53.7242766384 540.584712115)scale(0.3 -0.3)">
       <use transform="scale(0.996264009963)" xlink:href="#URW_Palladio_L_Roman-49"/>
       <use transform="translate(49.8132004981 0.0)scale(0.996264009963)" xlink:href="#URW_Palladio_L_Roman-48"/>
       <use transform="translate(99.6264009963 0.0)scale(0.996264009963)" xlink:href="#URW_Palladio_L_Roman-48"/>
      </g>
     </g>
    </g>
    <g id="ytick_3">
     <g id="line2d_28">
      <path clip-path="url(#p9c8461c92d)" d="M 104.156157 470.106473 
L 1184.156157 470.106473 
" style="fill:none;stroke:#ffffff;stroke-linecap:round;stroke-width:0.8;"/>
     </g>
     <g id="line2d_29">
      <g>
       <use style="fill:#262626;stroke:#262626;stroke-width:0.8;" x="104.156157087" xlink:href="#mf4c94ae592" y="470.106472554"/>
      </g>
     </g>
     <g id="line2d_30">
      <g>
       <use style="fill:#262626;stroke:#262626;stroke-width:0.8;" x="1184.15615709" xlink:href="#mf4c94ae592" y="470.106472554"/>
      </g>
     </g>
     <g id="text_11">
      <!-- $200$ -->
      <g style="fill:#262626;" transform="translate(53.7242766384 476.584712115)scale(0.3 -0.3)">
       <use transform="scale(0.996264009963)" xlink:href="#URW_Palladio_L_Roman-50"/>
       <use transform="translate(49.8132004981 0.0)scale(0.996264009963)" xlink:href="#URW_Palladio_L_Roman-48"/>
       <use transform="translate(99.6264009963 0.0)scale(0.996264009963)" xlink:href="#URW_Palladio_L_Roman-48"/>
      </g>
     </g>
    </g>
    <g id="ytick_4">
     <g id="line2d_31">
      <path clip-path="url(#p9c8461c92d)" d="M 104.156157 406.106473 
L 1184.156157 406.106473 
" style="fill:none;stroke:#ffffff;stroke-linecap:round;stroke-width:0.8;"/>
     </g>
     <g id="line2d_32">
      <g>
       <use style="fill:#262626;stroke:#262626;stroke-width:0.8;" x="104.156157087" xlink:href="#mf4c94ae592" y="406.106472554"/>
      </g>
     </g>
     <g id="line2d_33">
      <g>
       <use style="fill:#262626;stroke:#262626;stroke-width:0.8;" x="1184.15615709" xlink:href="#mf4c94ae592" y="406.106472554"/>
      </g>
     </g>
     <g id="text_12">
      <!-- $300$ -->
      <g style="fill:#262626;" transform="translate(53.7242766384 412.584712115)scale(0.3 -0.3)">
       <use transform="scale(0.996264009963)" xlink:href="#URW_Palladio_L_Roman-51"/>
       <use transform="translate(49.8132004981 0.0)scale(0.996264009963)" xlink:href="#URW_Palladio_L_Roman-48"/>
       <use transform="translate(99.6264009963 0.0)scale(0.996264009963)" xlink:href="#URW_Palladio_L_Roman-48"/>
      </g>
     </g>
    </g>
    <g id="ytick_5">
     <g id="line2d_34">
      <path clip-path="url(#p9c8461c92d)" d="M 104.156157 342.106473 
L 1184.156157 342.106473 
" style="fill:none;stroke:#ffffff;stroke-linecap:round;stroke-width:0.8;"/>
     </g>
     <g id="line2d_35">
      <g>
       <use style="fill:#262626;stroke:#262626;stroke-width:0.8;" x="104.156157087" xlink:href="#mf4c94ae592" y="342.106472554"/>
      </g>
     </g>
     <g id="line2d_36">
      <g>
       <use style="fill:#262626;stroke:#262626;stroke-width:0.8;" x="1184.15615709" xlink:href="#mf4c94ae592" y="342.106472554"/>
      </g>
     </g>
     <g id="text_13">
      <!-- $400$ -->
      <defs>
       <path d="M 28 18 
L 28 10.515625 
C 28 4.515625 26.90625 3.109375 22 3.109375 
L 15.796875 3.109375 
L 15.796875 0 
C 29.09375 0 29.09375 0 31.5 0 
C 33.90625 0 33.90625 0 47.203125 0 
L 47.203125 3.109375 
L 42.40625 3.109375 
C 37.5 3.109375 36.40625 4.40625 36.40625 10.453125 
L 36.40625 18 
C 42.296875 18 44.40625 18 47.203125 17.703125 
L 47.203125 24.8125 
C 42.5 24.421875 40.59375 24.421875 39.09375 24.421875 
L 38.796875 24.421875 
L 36.40625 24.421875 
L 36.40625 38.390625 
C 36.40625 56.25 36.59375 64.875 37.09375 69 
L 35.90625 69.5 
L 28.5 66.796875 
L 0.203125 20.296875 
L 1.296875 18 
z
M 28 24.421875 
L 6.5 24.421875 
L 28 59.78125 
z
" id="URW_Palladio_L_Roman-52"/>
      </defs>
      <g style="fill:#262626;" transform="translate(53.7242766384 348.584712115)scale(0.3 -0.3)">
       <use transform="scale(0.996264009963)" xlink:href="#URW_Palladio_L_Roman-52"/>
       <use transform="translate(49.8132004981 0.0)scale(0.996264009963)" xlink:href="#URW_Palladio_L_Roman-48"/>
       <use transform="translate(99.6264009963 0.0)scale(0.996264009963)" xlink:href="#URW_Palladio_L_Roman-48"/>
      </g>
     </g>
    </g>
    <g id="ytick_6">
     <g id="line2d_37">
      <path clip-path="url(#p9c8461c92d)" d="M 104.156157 278.106473 
L 1184.156157 278.106473 
" style="fill:none;stroke:#ffffff;stroke-linecap:round;stroke-width:0.8;"/>
     </g>
     <g id="line2d_38">
      <g>
       <use style="fill:#262626;stroke:#262626;stroke-width:0.8;" x="104.156157087" xlink:href="#mf4c94ae592" y="278.106472554"/>
      </g>
     </g>
     <g id="line2d_39">
      <g>
       <use style="fill:#262626;stroke:#262626;stroke-width:0.8;" x="1184.15615709" xlink:href="#mf4c94ae592" y="278.106472554"/>
      </g>
     </g>
     <g id="text_14">
      <!-- $500$ -->
      <g style="fill:#262626;" transform="translate(53.7242766384 284.584712115)scale(0.3 -0.3)">
       <use transform="scale(0.996264009963)" xlink:href="#URW_Palladio_L_Roman-53"/>
       <use transform="translate(49.8132004981 0.0)scale(0.996264009963)" xlink:href="#URW_Palladio_L_Roman-48"/>
       <use transform="translate(99.6264009963 0.0)scale(0.996264009963)" xlink:href="#URW_Palladio_L_Roman-48"/>
      </g>
     </g>
    </g>
    <g id="ytick_7">
     <g id="line2d_40">
      <path clip-path="url(#p9c8461c92d)" d="M 104.156157 214.106473 
L 1184.156157 214.106473 
" style="fill:none;stroke:#ffffff;stroke-linecap:round;stroke-width:0.8;"/>
     </g>
     <g id="line2d_41">
      <g>
       <use style="fill:#262626;stroke:#262626;stroke-width:0.8;" x="104.156157087" xlink:href="#mf4c94ae592" y="214.106472554"/>
      </g>
     </g>
     <g id="line2d_42">
      <g>
       <use style="fill:#262626;stroke:#262626;stroke-width:0.8;" x="1184.15615709" xlink:href="#mf4c94ae592" y="214.106472554"/>
      </g>
     </g>
     <g id="text_15">
      <!-- $600$ -->
      <defs>
       <path d="M 41.59375 67.34375 
L 37.90625 69.046875 
C 28.296875 65.84375 24.203125 63.84375 19.09375 59.4375 
C 8.796875 50.71875 3.203125 38.5 3.203125 24.765625 
C 3.203125 8.21875 11.203125 -2 24.09375 -2 
C 37.09375 -2 46.796875 8.3125 46.796875 21.953125 
C 46.796875 33.484375 39.90625 41 29.296875 41 
C 24.296875 41 21.296875 39.6875 15.40625 34.984375 
C 14.296875 34.078125 14.203125 33.984375 13.09375 33.1875 
C 15.203125 51.3125 23.59375 61.140625 41.59375 66.546875 
z
M 25.5 34.984375 
C 33.09375 34.984375 38.203125 28.375 38.203125 18.453125 
C 38.203125 8.015625 33.09375 1.296875 25.40625 1.296875 
C 16.90625 1.296875 12.296875 8.609375 12.296875 22.0625 
C 12.296875 25.5625 12.703125 27.46875 13.796875 29.171875 
C 16 32.578125 20.703125 34.984375 25.5 34.984375 
" id="URW_Palladio_L_Roman-54"/>
      </defs>
      <g style="fill:#262626;" transform="translate(53.7242766384 220.584712115)scale(0.3 -0.3)">
       <use transform="scale(0.996264009963)" xlink:href="#URW_Palladio_L_Roman-54"/>
       <use transform="translate(49.8132004981 0.0)scale(0.996264009963)" xlink:href="#URW_Palladio_L_Roman-48"/>
       <use transform="translate(99.6264009963 0.0)scale(0.996264009963)" xlink:href="#URW_Palladio_L_Roman-48"/>
      </g>
     </g>
    </g>
    <g id="ytick_8">
     <g id="line2d_43">
      <path clip-path="url(#p9c8461c92d)" d="M 104.156157 150.106473 
L 1184.156157 150.106473 
" style="fill:none;stroke:#ffffff;stroke-linecap:round;stroke-width:0.8;"/>
     </g>
     <g id="line2d_44">
      <g>
       <use style="fill:#262626;stroke:#262626;stroke-width:0.8;" x="104.156157087" xlink:href="#mf4c94ae592" y="150.106472554"/>
      </g>
     </g>
     <g id="line2d_45">
      <g>
       <use style="fill:#262626;stroke:#262626;stroke-width:0.8;" x="1184.15615709" xlink:href="#mf4c94ae592" y="150.106472554"/>
      </g>
     </g>
     <g id="text_16">
      <!-- $700$ -->
      <defs>
       <path d="M 5.59375 0.5 
L 6.5 -0.796875 
C 10.40625 -0.5 10.40625 -0.5 11.09375 -0.5 
C 11.796875 -0.5 11.796875 -0.5 15.703125 -0.796875 
C 19.90625 10.140625 24.796875 20.578125 31.40625 32.609375 
L 49.703125 65.609375 
L 49.703125 68.3125 
C 38.90625 68.3125 35.40625 68.3125 27.296875 68.3125 
C 20 68.3125 15.09375 68.3125 5.40625 68.3125 
L 4.40625 68.109375 
C 4.703125 58.59375 4.703125 58.59375 4.703125 57.578125 
C 4.703125 56.46875 4.703125 56.46875 4.40625 47.359375 
L 7.40625 47.359375 
L 8.09375 52.96875 
C 8.90625 59.203125 9.59375 60 14.203125 60 
L 40.90625 60 
C 36.90625 51.765625 33.796875 45.953125 30 39.828125 
z
" id="URW_Palladio_L_Roman-55"/>
      </defs>
      <g style="fill:#262626;" transform="translate(53.7242766384 156.584712115)scale(0.3 -0.3)">
       <use transform="scale(0.996264009963)" xlink:href="#URW_Palladio_L_Roman-55"/>
       <use transform="translate(49.8132004981 0.0)scale(0.996264009963)" xlink:href="#URW_Palladio_L_Roman-48"/>
       <use transform="translate(99.6264009963 0.0)scale(0.996264009963)" xlink:href="#URW_Palladio_L_Roman-48"/>
      </g>
     </g>
    </g>
    <g id="ytick_9">
     <g id="line2d_46">
      <path clip-path="url(#p9c8461c92d)" d="M 104.156157 86.106473 
L 1184.156157 86.106473 
" style="fill:none;stroke:#ffffff;stroke-linecap:round;stroke-width:0.8;"/>
     </g>
     <g id="line2d_47">
      <g>
       <use style="fill:#262626;stroke:#262626;stroke-width:0.8;" x="104.156157087" xlink:href="#mf4c94ae592" y="86.1064725541"/>
      </g>
     </g>
     <g id="line2d_48">
      <g>
       <use style="fill:#262626;stroke:#262626;stroke-width:0.8;" x="1184.15615709" xlink:href="#mf4c94ae592" y="86.1064725541"/>
      </g>
     </g>
     <g id="text_17">
      <!-- $800$ -->
      <defs>
       <path d="M 16.796875 34.546875 
C 12.703125 32.65625 11 31.546875 8.796875 29.4375 
C 5 25.640625 3 21.125 3 15.921875 
C 3 5.609375 11.296875 -2 22.59375 -2 
C 35.59375 -2 46.40625 8.21875 46.40625 20.625 
C 46.40625 28.640625 42.703125 32.953125 31.296875 38.15625 
C 40.40625 44.375 43.59375 48.578125 43.59375 54.578125 
C 43.59375 63.1875 36.5 69 25.90625 69 
C 14 69 5.296875 61.390625 5.296875 50.890625 
C 5.296875 44.078125 8 40.265625 16.796875 34.546875 
M 28.40625 29.546875 
C 34.703125 26.734375 38.5 21.828125 38.5 16.4375 
C 38.5 8.015625 32.203125 1.40625 24.09375 1.40625 
C 15.59375 1.40625 10.09375 7.421875 10.09375 16.734375 
C 10.09375 24.03125 13 28.640625 20.40625 33.15625 
z
M 22.296875 42.375 
C 16 45.46875 12.796875 49.484375 12.796875 54.484375 
C 12.796875 61.09375 17.59375 65.59375 24.703125 65.59375 
C 32 65.59375 36.796875 60.796875 36.796875 53.46875 
C 36.796875 47.78125 34.296875 43.875 27.796875 39.65625 
z
" id="URW_Palladio_L_Roman-56"/>
      </defs>
      <g style="fill:#262626;" transform="translate(53.7242766384 92.5847121147)scale(0.3 -0.3)">
       <use transform="scale(0.996264009963)" xlink:href="#URW_Palladio_L_Roman-56"/>
       <use transform="translate(49.8132004981 0.0)scale(0.996264009963)" xlink:href="#URW_Palladio_L_Roman-48"/>
       <use transform="translate(99.6264009963 0.0)scale(0.996264009963)" xlink:href="#URW_Palladio_L_Roman-48"/>
      </g>
     </g>
    </g>
    <g id="ytick_10">
     <g id="line2d_49">
      <path clip-path="url(#p9c8461c92d)" d="M 104.156157 22.106473 
L 1184.156157 22.106473 
" style="fill:none;stroke:#ffffff;stroke-linecap:round;stroke-width:0.8;"/>
     </g>
     <g id="line2d_50">
      <g>
       <use style="fill:#262626;stroke:#262626;stroke-width:0.8;" x="104.156157087" xlink:href="#mf4c94ae592" y="22.1064725541"/>
      </g>
     </g>
     <g id="line2d_51">
      <g>
       <use style="fill:#262626;stroke:#262626;stroke-width:0.8;" x="1184.15615709" xlink:href="#mf4c94ae592" y="22.1064725541"/>
      </g>
     </g>
     <g id="text_18">
      <!-- $900$ -->
      <defs>
       <path d="M 9.59375 -1.65625 
C 20.703125 1.953125 25.5 4.25 30.90625 8.84375 
C 40.59375 17.15625 45.703125 28.671875 45.703125 42.078125 
C 45.703125 59 37.59375 69.296875 24.40625 69.296875 
C 11.59375 69.296875 2 59.296875 2 45.90625 
C 2 34.390625 9.5 26 19.90625 26 
C 23.296875 26 27.203125 27.09375 29 28.59375 
L 36 34.40625 
C 35.203125 17.578125 24.296875 5.25 6.203125 0.84375 
L 6.203125 0.046875 
z
M 24 66 
C 28.5 66 31.796875 64.09375 34 60.09375 
C 35.796875 56.890625 37 52 37 47.5 
C 37 38.296875 31.703125 32.109375 24 32.109375 
C 16 32.109375 10.59375 39.203125 10.59375 49.59375 
C 10.59375 59.703125 15.796875 66 24 66 
" id="URW_Palladio_L_Roman-57"/>
      </defs>
      <g style="fill:#262626;" transform="translate(53.7242766384 28.5847121147)scale(0.3 -0.3)">
       <use transform="scale(0.996264009963)" xlink:href="#URW_Palladio_L_Roman-57"/>
       <use transform="translate(49.8132004981 0.0)scale(0.996264009963)" xlink:href="#URW_Palladio_L_Roman-48"/>
       <use transform="translate(99.6264009963 0.0)scale(0.996264009963)" xlink:href="#URW_Palladio_L_Roman-48"/>
      </g>
     </g>
    </g>
    <g id="text_19">
     <!-- $\langle \lambda(\mathcal{M}_{0}, \mathcal{M}_{d}) \rangle$ -->
     <defs>
      <path d="M 38.5 56.703125 
C 41.203125 43.703125 45.59375 22.296875 51.296875 10.703125 
C 53.5 6.390625 54.59375 4.203125 55.59375 4.203125 
C 56 4.203125 56.203125 4.203125 58 6 
C 65.59375 13.265625 70.796875 19.046875 77.796875 27.03125 
L 99.703125 52.453125 
C 98.296875 43.96875 94.703125 21.53125 94.703125 9.859375 
C 94.703125 7.171875 94.796875 4.578125 95.09375 1.875 
C 95.203125 0.796875 95.59375 -2.109375 99.796875 -2.109375 
C 104 -2.109375 111.59375 2.296875 111.59375 4.296875 
C 111.59375 4.890625 111 5 110.703125 5 
C 109.40625 5 107.40625 4.109375 106.296875 3.40625 
C 103.90625 3.71875 103.703125 5.3125 103.5 7.59375 
C 103.203125 10.78125 103.203125 13.78125 103.203125 14.1875 
C 103.203125 25.234375 107.59375 55.4375 110.5 67.8125 
C 110.59375 68.515625 110.703125 68.6875 110.703125 69.5 
C 110.703125 69.890625 110.59375 71 109.90625 71 
C 109.5 71 109.40625 70.890625 107.5 68.6875 
C 98.09375 57.34375 68.90625 22.4375 59 14.0625 
C 56.5 19.328125 54.703125 23.125 51.203125 37.0625 
C 48.296875 48.3125 46.59375 56.5625 44.90625 66.21875 
C 44.59375 67.609375 44.09375 70.296875 44.09375 70.5 
C 43.796875 71 43.296875 71 43 71 
C 41.203125 71 37 68.8125 36.703125 66.71875 
C 35.5 58.359375 33.5 45.203125 26.5 26.203125 
C 18.5 5 16.296875 5 14.40625 5 
C 13.09375 5 9.40625 5.796875 7.203125 7.78125 
C 6.703125 8.28125 6.5 8.28125 6.296875 8.28125 
C 4.90625 8.28125 2.703125 3.75 2.703125 0.9375 
C 2.703125 0.03125 2.703125 -1.1875 5.90625 -2.875 
C 8.40625 -4.203125 10.796875 -4.203125 11.296875 -4.203125 
C 17.5 -4.203125 23.40625 10.09375 25.40625 15.203125 
C 30.09375 26.5 35.703125 42.296875 38.5 56.703125 
" id="CMSY10-77"/>
      <path d="M 3.59375 -1.40625 
C 5.40625 -0.5 6.796875 0 9.296875 0.796875 
C 16.796875 15.96875 21.296875 25.203125 32.796875 41.5625 
L 40.09375 1.8125 
C 40.40625 0.109375 41.5 -1 43.09375 -1 
C 45.59375 -1 49.203125 1.21875 58.703125 8.40625 
L 57.796875 10.203125 
L 55.203125 8.5 
C 52.296875 6.5 49.90625 5.5 49.09375 5.5 
C 48.703125 5.5 48.296875 5.5 47.203125 7.40625 
C 46.40625 8.609375 45.90625 11 44.90625 14.421875 
L 38.40625 49.390625 
C 35.796875 63.40625 32.296875 70.53125 27.59375 71.125 
C 24.90625 68.921875 21 66.40625 18.796875 65 
L 18.5 62.59375 
C 20.40625 63.296875 23.40625 64.5 24.296875 64.5 
C 26.90625 64.5 29.5 60 30.5 54.1875 
L 32.203125 44.875 
C 23.703125 34.03125 6.796875 8.828125 1.59375 0.796875 
z
" id="Pazo_Math_Italic-108"/>
      <path d="M 32.796875 71.203125 
C 33.296875 72.296875 33.296875 72.5 33.296875 73 
C 33.296875 74.09375 32.40625 75 31.296875 75 
C 30.40625 75 29.703125 74.5 29 72.703125 
L 11.5 26.796875 
C 11.296875 26.203125 11 25.59375 11 25 
C 11 24.703125 11 24.5 11.5 23.296875 
L 29 -22.59375 
C 29.40625 -23.703125 29.90625 -25 31.296875 -25 
C 32.40625 -25 33.296875 -24.09375 33.296875 -23 
C 33.296875 -22.703125 33.296875 -22.5 32.796875 -21.40625 
L 15.09375 25 
z
" id="CMSY10-104"/>
      <path d="M 33.09375 -24 
C 33.09375 -23.703125 33.09375 -23.5 31.40625 -21.796875 
C 18.90625 -9.125 15.703125 9.875 15.703125 25.234375 
C 15.703125 42.734375 19.5 60.234375 31.796875 72.78125 
C 33.09375 73.984375 33.09375 74.1875 33.09375 74.484375 
C 33.09375 75.1875 32.703125 75.5 32.09375 75.5 
C 31.09375 75.5 22.09375 68.671875 16.203125 55.890625 
C 11.09375 44.84375 9.90625 33.6875 9.90625 25.234375 
C 9.90625 17.40625 11 5.25 16.5 -6.109375 
C 22.5 -18.46875 31.09375 -25 32.09375 -25 
C 32.703125 -25 33.09375 -24.703125 33.09375 -24 
" id="CMR10-40"/>
      <path d="M 28.90625 25.234375 
C 28.90625 33.09375 27.796875 45.25 22.296875 56.59375 
C 16.296875 68.96875 7.703125 75.5 6.703125 75.5 
C 6.09375 75.5 5.703125 75.09375 5.703125 74.484375 
C 5.703125 74.1875 5.703125 73.984375 7.59375 72.1875 
C 17.40625 62.234375 23.09375 46.25 23.09375 25.234375 
C 23.09375 8.0625 19.40625 -9.640625 7 -22.296875 
C 5.703125 -23.5 5.703125 -23.703125 5.703125 -24 
C 5.703125 -24.609375 6.09375 -25 6.703125 -25 
C 7.703125 -25 16.703125 -18.171875 22.59375 -5.40625 
C 27.703125 5.65625 28.90625 16.796875 28.90625 25.234375 
" id="CMR10-41"/>
      <path d="M 27.296875 23.296875 
C 27.796875 24.5 27.796875 24.703125 27.796875 25 
C 27.796875 25.296875 27.796875 25.5 27.296875 26.703125 
L 9.796875 72.703125 
C 9.203125 74.40625 8.59375 75 7.5 75 
C 6.40625 75 5.5 74.09375 5.5 73 
C 5.5 72.703125 5.5 72.5 6 71.40625 
L 23.703125 25 
L 6 -21.203125 
C 5.5 -22.296875 5.5 -22.5 5.5 -23 
C 5.5 -24.09375 6.40625 -25 7.5 -25 
C 8.796875 -25 9.203125 -24 9.59375 -23 
z
" id="CMSY10-105"/>
      <path d="M 20.40625 12.328125 
C 17.703125 11.421875 15.90625 10.828125 10.59375 9.3125 
C 9.90625 1.703125 7.40625 -4.8125 1.59375 -14.421875 
L 3 -15.53125 
L 7.09375 -13.625 
C 15.203125 -3.109375 19 3.203125 21.796875 10.921875 
z
" id="URW_Palladio_L_Roman-44"/>
     </defs>
     <g style="fill:#262626;" transform="translate(37.4866326471 431.508643916)rotate(-90.0)scale(0.4 -0.4)">
      <use transform="translate(0.0 20.8493661465)scale(1.03810691596)" xlink:href="#CMSY10-104"/>
      <use transform="translate(42.7397047449 20.8493661465)scale(0.996264009963)" xlink:href="#Pazo_Math_Italic-108"/>
      <use transform="translate(105.503303651 20.8493661465)scale(1.03810691596)" xlink:href="#CMR10-40"/>
      <use transform="translate(148.243008396 20.8493661465)scale(1.03810691596)" xlink:href="#CMSY10-77"/>
      <use transform="translate(274.021324452 3.40793557363)scale(0.75715517493)" xlink:href="#URW_Palladio_L_Roman-48"/>
      <use transform="translate(312.377215204 20.8493661465)scale(0.996264009963)" xlink:href="#URW_Palladio_L_Roman-44"/>
      <use transform="translate(355.13347469 20.8493661465)scale(1.03810691596)" xlink:href="#CMSY10-77"/>
      <use transform="translate(481.858208111 0.0)scale(0.75715517493)" xlink:href="#URW_Palladio_L_Italic-100"/>
      <use transform="translate(522.405831039 20.8493661465)scale(1.03810691596)" xlink:href="#CMR10-41"/>
      <use transform="translate(565.145535784 20.8493661465)scale(1.03810691596)" xlink:href="#CMSY10-105"/>
     </g>
    </g>
   </g>
   <g id="line2d_52">
    <path d="M 176.156157 596.186473 
L 248.156157 588.506473 
L 320.156157 575.706473 
L 392.156157 557.786473 
L 464.156157 534.746473 
L 536.156157 506.586473 
L 608.156157 473.306473 
L 680.156157 434.906473 
L 752.156157 391.386473 
L 824.156157 342.746473 
L 896.156157 288.986473 
L 968.156157 230.106473 
L 1040.156157 166.106473 
L 1112.156157 96.986473 
L 1184.156157 22.746473 
" style="fill:none;stroke:#000000;stroke-linecap:round;stroke-width:6.0;"/>
   </g>
   <g id="line2d_53">
    <path d="M 176.156157 596.196 
L 248.156157 592.596638 
L 320.156157 588.222052 
L 392.156157 583.489376 
L 464.156157 578.517972 
L 536.156157 573.36919 
L 608.156157 568.080669 
L 680.156157 562.677788 
L 752.156157 557.178745 
L 824.156157 551.597175 
L 896.156157 545.943637 
L 968.156157 540.226525 
L 1040.156157 534.452651 
L 1112.156157 528.627647 
L 1184.156157 522.756232 
" style="fill:none;stroke:#dba757;stroke-dasharray:6.000000,6.000000;stroke-dashoffset:0.0;stroke-width:4.0;"/>
   </g>
   <g id="line2d_54">
    <defs>
     <path d="M -10 10 
L 10 10 
L 10 -10 
L -10 -10 
z
" id="me7b2076543" style="stroke:#000000;stroke-linejoin:miter;stroke-width:0.1;"/>
    </defs>
    <g>
     <use style="fill:#dba757;stroke:#000000;stroke-linejoin:miter;stroke-width:0.1;" x="176.156157087" xlink:href="#me7b2076543" y="596.572126726"/>
     <use style="fill:#dba757;stroke:#000000;stroke-linejoin:miter;stroke-width:0.1;" x="248.156157087" xlink:href="#me7b2076543" y="592.646264735"/>
     <use style="fill:#dba757;stroke:#000000;stroke-linejoin:miter;stroke-width:0.1;" x="320.156157087" xlink:href="#me7b2076543" y="588.253915278"/>
     <use style="fill:#dba757;stroke:#000000;stroke-linejoin:miter;stroke-width:0.1;" x="392.156157087" xlink:href="#me7b2076543" y="583.519468175"/>
     <use style="fill:#dba757;stroke:#000000;stroke-linejoin:miter;stroke-width:0.1;" x="464.156157087" xlink:href="#me7b2076543" y="578.273399799"/>
     <use style="fill:#dba757;stroke:#000000;stroke-linejoin:miter;stroke-width:0.1;" x="536.156157087" xlink:href="#me7b2076543" y="573.181927883"/>
     <use style="fill:#dba757;stroke:#000000;stroke-linejoin:miter;stroke-width:0.1;" x="608.156157087" xlink:href="#me7b2076543" y="567.52748199"/>
     <use style="fill:#dba757;stroke:#000000;stroke-linejoin:miter;stroke-width:0.1;" x="680.156157087" xlink:href="#me7b2076543" y="562.948203295"/>
     <use style="fill:#dba757;stroke:#000000;stroke-linejoin:miter;stroke-width:0.1;" x="752.156157087" xlink:href="#me7b2076543" y="556.753914223"/>
     <use style="fill:#dba757;stroke:#000000;stroke-linejoin:miter;stroke-width:0.1;" x="824.156157087" xlink:href="#me7b2076543" y="551.005097338"/>
     <use style="fill:#dba757;stroke:#000000;stroke-linejoin:miter;stroke-width:0.1;" x="896.156157087" xlink:href="#me7b2076543" y="546.33943829"/>
     <use style="fill:#dba757;stroke:#000000;stroke-linejoin:miter;stroke-width:0.1;" x="968.156157087" xlink:href="#me7b2076543" y="540.442365685"/>
     <use style="fill:#dba757;stroke:#000000;stroke-linejoin:miter;stroke-width:0.1;" x="1040.15615709" xlink:href="#me7b2076543" y="533.598218512"/>
     <use style="fill:#dba757;stroke:#000000;stroke-linejoin:miter;stroke-width:0.1;" x="1112.15615709" xlink:href="#me7b2076543" y="528.755756264"/>
     <use style="fill:#dba757;stroke:#000000;stroke-linejoin:miter;stroke-width:0.1;" x="1184.15615709" xlink:href="#me7b2076543" y="521.942257644"/>
    </g>
   </g>
   <g id="line2d_55">
    <path d="M 176.156157 596.826473 
L 248.156157 589.184583 
L 320.156157 582.648022 
L 392.156157 574.787135 
L 464.156157 566.265184 
L 536.156157 557.288791 
L 608.156157 547.964263 
L 680.156157 538.358088 
L 752.156157 528.51623 
L 824.156157 518.472469 
L 896.156157 508.252688 
L 968.156157 497.877343 
L 1040.156157 487.362982 
L 1112.156157 476.723257 
L 1184.156157 465.969605 
" style="fill:none;stroke:#c7db57;stroke-dasharray:6.000000,6.000000;stroke-dashoffset:0.0;stroke-width:4.0;"/>
   </g>
   <g id="line2d_56">
    <defs>
     <path d="M 0 10 
C 2.652031 10 5.195799 8.946337 7.071068 7.071068 
C 8.946337 5.195799 10 2.652031 10 0 
C 10 -2.652031 8.946337 -5.195799 7.071068 -7.071068 
C 5.195799 -8.946337 2.652031 -10 0 -10 
C -2.652031 -10 -5.195799 -8.946337 -7.071068 -7.071068 
C -8.946337 -5.195799 -10 -2.652031 -10 0 
C -10 2.652031 -8.946337 5.195799 -7.071068 7.071068 
C -5.195799 8.946337 -2.652031 10 0 10 
z
" id="m91e0a66489" style="stroke:#000000;stroke-width:0.1;"/>
    </defs>
    <g>
     <use style="fill:#c7db57;stroke:#000000;stroke-width:0.1;" x="176.156157087" xlink:href="#m91e0a66489" y="596.307783221"/>
     <use style="fill:#c7db57;stroke:#000000;stroke-width:0.1;" x="248.156157087" xlink:href="#m91e0a66489" y="590.134061313"/>
     <use style="fill:#c7db57;stroke:#000000;stroke-width:0.1;" x="320.156157087" xlink:href="#m91e0a66489" y="582.807719445"/>
     <use style="fill:#c7db57;stroke:#000000;stroke-width:0.1;" x="392.156157087" xlink:href="#m91e0a66489" y="574.71047332"/>
     <use style="fill:#c7db57;stroke:#000000;stroke-width:0.1;" x="464.156157087" xlink:href="#m91e0a66489" y="565.898254998"/>
     <use style="fill:#c7db57;stroke:#000000;stroke-width:0.1;" x="536.156157087" xlink:href="#m91e0a66489" y="556.859225748"/>
     <use style="fill:#c7db57;stroke:#000000;stroke-width:0.1;" x="608.156157087" xlink:href="#m91e0a66489" y="547.132726341"/>
     <use style="fill:#c7db57;stroke:#000000;stroke-width:0.1;" x="680.156157087" xlink:href="#m91e0a66489" y="538.098299438"/>
     <use style="fill:#c7db57;stroke:#000000;stroke-width:0.1;" x="752.156157087" xlink:href="#m91e0a66489" y="528.112128229"/>
     <use style="fill:#c7db57;stroke:#000000;stroke-width:0.1;" x="824.156157087" xlink:href="#m91e0a66489" y="517.701379658"/>
     <use style="fill:#c7db57;stroke:#000000;stroke-width:0.1;" x="896.156157087" xlink:href="#m91e0a66489" y="508.376396856"/>
     <use style="fill:#c7db57;stroke:#000000;stroke-width:0.1;" x="968.156157087" xlink:href="#m91e0a66489" y="497.573912605"/>
     <use style="fill:#c7db57;stroke:#000000;stroke-width:0.1;" x="1040.15615709" xlink:href="#m91e0a66489" y="486.779396663"/>
     <use style="fill:#c7db57;stroke:#000000;stroke-width:0.1;" x="1112.15615709" xlink:href="#m91e0a66489" y="475.854484804"/>
     <use style="fill:#c7db57;stroke:#000000;stroke-width:0.1;" x="1184.15615709" xlink:href="#m91e0a66489" y="464.83234175"/>
    </g>
   </g>
   <g id="line2d_57">
    <path d="M 320.156157 577.072221 
L 392.156157 567.755262 
L 464.156157 556.683558 
L 536.156157 544.677962 
L 608.156157 532.024627 
L 680.156157 518.870442 
L 752.156157 505.306689 
L 824.156157 491.396487 
L 896.156157 477.186461 
L 968.156157 462.712607 
L 1040.156157 448.003615 
L 1112.156157 433.082905 
L 1184.156157 417.969964 
" style="fill:none;stroke:#7fdb57;stroke-dasharray:6.000000,6.000000;stroke-dashoffset:0.0;stroke-width:4.0;"/>
   </g>
   <g id="line2d_58">
    <defs>
     <path d="M 0 10 
C 2.652031 10 5.195799 8.946337 7.071068 7.071068 
C 8.946337 5.195799 10 2.652031 10 0 
C 10 -2.652031 8.946337 -5.195799 7.071068 -7.071068 
C 5.195799 -8.946337 2.652031 -10 0 -10 
C -2.652031 -10 -5.195799 -8.946337 -7.071068 -7.071068 
C -8.946337 -5.195799 -10 -2.652031 -10 0 
C -10 2.652031 -8.946337 5.195799 -7.071068 7.071068 
C -5.195799 8.946337 -2.652031 10 0 10 
z
" id="m5c4382b574" style="stroke:#000000;stroke-width:0.1;"/>
    </defs>
    <g>
     <use style="fill:#7fdb57;stroke:#000000;stroke-width:0.1;" x="248.156157087" xlink:href="#m5c4382b574" y="588.955614888"/>
     <use style="fill:#7fdb57;stroke:#000000;stroke-width:0.1;" x="320.156157087" xlink:href="#m5c4382b574" y="579.441838533"/>
     <use style="fill:#7fdb57;stroke:#000000;stroke-width:0.1;" x="392.156157087" xlink:href="#m5c4382b574" y="568.523695311"/>
     <use style="fill:#7fdb57;stroke:#000000;stroke-width:0.1;" x="464.156157087" xlink:href="#m5c4382b574" y="556.83624248"/>
     <use style="fill:#7fdb57;stroke:#000000;stroke-width:0.1;" x="536.156157087" xlink:href="#m5c4382b574" y="544.798855791"/>
     <use style="fill:#7fdb57;stroke:#000000;stroke-width:0.1;" x="608.156157087" xlink:href="#m5c4382b574" y="531.186091927"/>
     <use style="fill:#7fdb57;stroke:#000000;stroke-width:0.1;" x="680.156157087" xlink:href="#m5c4382b574" y="518.600568821"/>
     <use style="fill:#7fdb57;stroke:#000000;stroke-width:0.1;" x="752.156157087" xlink:href="#m5c4382b574" y="505.004378313"/>
     <use style="fill:#7fdb57;stroke:#000000;stroke-width:0.1;" x="824.156157087" xlink:href="#m5c4382b574" y="490.451251574"/>
     <use style="fill:#7fdb57;stroke:#000000;stroke-width:0.1;" x="896.156157087" xlink:href="#m5c4382b574" y="477.194918591"/>
     <use style="fill:#7fdb57;stroke:#000000;stroke-width:0.1;" x="968.156157087" xlink:href="#m5c4382b574" y="461.840954153"/>
     <use style="fill:#7fdb57;stroke:#000000;stroke-width:0.1;" x="1040.15615709" xlink:href="#m5c4382b574" y="446.917481924"/>
     <use style="fill:#7fdb57;stroke:#000000;stroke-width:0.1;" x="1112.15615709" xlink:href="#m5c4382b574" y="431.886287816"/>
     <use style="fill:#7fdb57;stroke:#000000;stroke-width:0.1;" x="1184.15615709" xlink:href="#m5c4382b574" y="416.668587822"/>
    </g>
   </g>
   <g id="line2d_59">
    <path d="M 248.156157 590.426473 
L 320.156157 565.533726 
L 392.156157 559.858914 
L 464.156157 547.835414 
L 536.156157 533.712669 
L 608.156157 518.405423 
L 680.156157 502.26912 
L 752.156157 485.489414 
L 824.156157 468.181318 
L 896.156157 450.423986 
L 968.156157 432.275745 
L 1040.156157 413.781637 
L 1112.156157 394.977634 
L 1184.156157 375.893197 
" style="fill:none;stroke:#57db77;stroke-dasharray:6.000000,6.000000;stroke-dashoffset:0.0;stroke-width:4.0;"/>
   </g>
   <g id="line2d_60">
    <defs>
     <path d="M 0 10 
C 2.652031 10 5.195799 8.946337 7.071068 7.071068 
C 8.946337 5.195799 10 2.652031 10 0 
C 10 -2.652031 8.946337 -5.195799 7.071068 -7.071068 
C 5.195799 -8.946337 2.652031 -10 0 -10 
C -2.652031 -10 -5.195799 -8.946337 -7.071068 -7.071068 
C -8.946337 -5.195799 -10 -2.652031 -10 0 
C -10 2.652031 -8.946337 5.195799 -7.071068 7.071068 
C -5.195799 8.946337 -2.652031 10 0 10 
z
" id="m0d116c851d" style="stroke:#000000;stroke-width:0.1;"/>
    </defs>
    <g>
     <use style="fill:#57db77;stroke:#000000;stroke-width:0.1;" x="248.156157087" xlink:href="#m0d116c851d" y="588.610506988"/>
     <use style="fill:#57db77;stroke:#000000;stroke-width:0.1;" x="320.156157087" xlink:href="#m0d116c851d" y="577.349885769"/>
     <use style="fill:#57db77;stroke:#000000;stroke-width:0.1;" x="392.156157087" xlink:href="#m0d116c851d" y="564.328120809"/>
     <use style="fill:#57db77;stroke:#000000;stroke-width:0.1;" x="464.156157087" xlink:href="#m0d116c851d" y="550.033991238"/>
     <use style="fill:#57db77;stroke:#000000;stroke-width:0.1;" x="536.156157087" xlink:href="#m0d116c851d" y="535.127134961"/>
     <use style="fill:#57db77;stroke:#000000;stroke-width:0.1;" x="608.156157087" xlink:href="#m0d116c851d" y="518.619369505"/>
     <use style="fill:#57db77;stroke:#000000;stroke-width:0.1;" x="680.156157087" xlink:href="#m0d116c851d" y="502.782609536"/>
     <use style="fill:#57db77;stroke:#000000;stroke-width:0.1;" x="752.156157087" xlink:href="#m0d116c851d" y="486.113736465"/>
     <use style="fill:#57db77;stroke:#000000;stroke-width:0.1;" x="824.156157087" xlink:href="#m0d116c851d" y="467.60498035"/>
     <use style="fill:#57db77;stroke:#000000;stroke-width:0.1;" x="896.156157087" xlink:href="#m0d116c851d" y="450.95557617"/>
     <use style="fill:#57db77;stroke:#000000;stroke-width:0.1;" x="968.156157087" xlink:href="#m0d116c851d" y="431.781875698"/>
     <use style="fill:#57db77;stroke:#000000;stroke-width:0.1;" x="1040.15615709" xlink:href="#m0d116c851d" y="412.424862075"/>
     <use style="fill:#57db77;stroke:#000000;stroke-width:0.1;" x="1112.15615709" xlink:href="#m0d116c851d" y="394.156252822"/>
     <use style="fill:#57db77;stroke:#000000;stroke-width:0.1;" x="1184.15615709" xlink:href="#m0d116c851d" y="375.00698438"/>
    </g>
   </g>
   <g id="line2d_61">
    <path d="M 392.156157 546.488791 
L 464.156157 537.544662 
L 536.156157 522.855957 
L 608.156157 505.787719 
L 680.156157 487.305938 
L 752.156157 467.823011 
L 824.156157 447.56061 
L 896.156157 426.656758 
L 968.156157 405.206232 
L 1040.156157 383.278646 
L 1112.156157 360.927627 
L 1184.156157 338.195961 
" style="fill:none;stroke:#57dbbf;stroke-dasharray:6.000000,6.000000;stroke-dashoffset:0.0;stroke-width:4.0;"/>
   </g>
   <g id="line2d_62">
    <defs>
     <path d="M 0 10 
C 2.652031 10 5.195799 8.946337 7.071068 7.071068 
C 8.946337 5.195799 10 2.652031 10 0 
C 10 -2.652031 8.946337 -5.195799 7.071068 -7.071068 
C 5.195799 -8.946337 2.652031 -10 0 -10 
C -2.652031 -10 -5.195799 -8.946337 -7.071068 -7.071068 
C -8.946337 -5.195799 -10 -2.652031 -10 0 
C -10 2.652031 -8.946337 5.195799 -7.071068 7.071068 
C -5.195799 8.946337 -2.652031 10 0 10 
z
" id="m88d2dab97e" style="stroke:#000000;stroke-width:0.1;"/>
    </defs>
    <g>
     <use style="fill:#57dbbf;stroke:#000000;stroke-width:0.1;" x="320.156157087" xlink:href="#m88d2dab97e" y="576.239575964"/>
     <use style="fill:#57dbbf;stroke:#000000;stroke-width:0.1;" x="392.156157087" xlink:href="#m88d2dab97e" y="561.161658321"/>
     <use style="fill:#57dbbf;stroke:#000000;stroke-width:0.1;" x="464.156157087" xlink:href="#m88d2dab97e" y="545.010088605"/>
     <use style="fill:#57dbbf;stroke:#000000;stroke-width:0.1;" x="536.156157087" xlink:href="#m88d2dab97e" y="527.216552238"/>
     <use style="fill:#57dbbf;stroke:#000000;stroke-width:0.1;" x="608.156157087" xlink:href="#m88d2dab97e" y="508.164927007"/>
     <use style="fill:#57dbbf;stroke:#000000;stroke-width:0.1;" x="680.156157087" xlink:href="#m88d2dab97e" y="489.393096459"/>
     <use style="fill:#57dbbf;stroke:#000000;stroke-width:0.1;" x="752.156157087" xlink:href="#m88d2dab97e" y="469.763781505"/>
     <use style="fill:#57dbbf;stroke:#000000;stroke-width:0.1;" x="824.156157087" xlink:href="#m88d2dab97e" y="448.358214827"/>
     <use style="fill:#57dbbf;stroke:#000000;stroke-width:0.1;" x="896.156157087" xlink:href="#m88d2dab97e" y="428.040727033"/>
     <use style="fill:#57dbbf;stroke:#000000;stroke-width:0.1;" x="968.156157087" xlink:href="#m88d2dab97e" y="405.28746689"/>
     <use style="fill:#57dbbf;stroke:#000000;stroke-width:0.1;" x="1040.15615709" xlink:href="#m88d2dab97e" y="382.689077503"/>
     <use style="fill:#57dbbf;stroke:#000000;stroke-width:0.1;" x="1112.15615709" xlink:href="#m88d2dab97e" y="361.200954348"/>
     <use style="fill:#57dbbf;stroke:#000000;stroke-width:0.1;" x="1184.15615709" xlink:href="#m88d2dab97e" y="338.681395926"/>
    </g>
   </g>
   <g id="line2d_63">
    <path d="M 320.156157 578.906473 
M 464.156157 521.988832 
L 536.156157 510.129466 
L 608.156157 492.801133 
L 680.156157 472.86163 
L 752.156157 451.300415 
L 824.156157 428.574816 
L 896.156157 404.938841 
L 968.156157 380.55243 
L 1040.156157 355.525617 
L 1112.156157 329.939092 
L 1184.156157 303.854875 
" style="fill:none;stroke:#57afdb;stroke-dasharray:6.000000,6.000000;stroke-dashoffset:0.0;stroke-width:4.0;"/>
   </g>
   <g id="line2d_64">
    <defs>
     <path d="M 0 10 
C 2.652031 10 5.195799 8.946337 7.071068 7.071068 
C 8.946337 5.195799 10 2.652031 10 0 
C 10 -2.652031 8.946337 -5.195799 7.071068 -7.071068 
C 5.195799 -8.946337 2.652031 -10 0 -10 
C -2.652031 -10 -5.195799 -8.946337 -7.071068 -7.071068 
C -8.946337 -5.195799 -10 -2.652031 -10 0 
C -10 2.652031 -8.946337 5.195799 -7.071068 7.071068 
C -5.195799 8.946337 -2.652031 10 0 10 
z
" id="me8815340fa" style="stroke:#000000;stroke-width:0.1;"/>
    </defs>
    <g>
     <use style="fill:#57afdb;stroke:#000000;stroke-width:0.1;" x="320.156157087" xlink:href="#me8815340fa" y="575.892164078"/>
     <use style="fill:#57afdb;stroke:#000000;stroke-width:0.1;" x="392.156157087" xlink:href="#me8815340fa" y="559.184962811"/>
     <use style="fill:#57afdb;stroke:#000000;stroke-width:0.1;" x="464.156157087" xlink:href="#me8815340fa" y="541.349604364"/>
     <use style="fill:#57afdb;stroke:#000000;stroke-width:0.1;" x="536.156157087" xlink:href="#me8815340fa" y="520.957708136"/>
     <use style="fill:#57afdb;stroke:#000000;stroke-width:0.1;" x="608.156157087" xlink:href="#me8815340fa" y="499.880494858"/>
     <use style="fill:#57afdb;stroke:#000000;stroke-width:0.1;" x="680.156157087" xlink:href="#me8815340fa" y="478.389979288"/>
     <use style="fill:#57afdb;stroke:#000000;stroke-width:0.1;" x="752.156157087" xlink:href="#me8815340fa" y="455.73312458"/>
     <use style="fill:#57afdb;stroke:#000000;stroke-width:0.1;" x="824.156157087" xlink:href="#me8815340fa" y="431.475861845"/>
     <use style="fill:#57afdb;stroke:#000000;stroke-width:0.1;" x="896.156157087" xlink:href="#me8815340fa" y="408.085551883"/>
     <use style="fill:#57afdb;stroke:#000000;stroke-width:0.1;" x="968.156157087" xlink:href="#me8815340fa" y="381.836043923"/>
     <use style="fill:#57afdb;stroke:#000000;stroke-width:0.1;" x="1040.15615709" xlink:href="#me8815340fa" y="356.320047089"/>
     <use style="fill:#57afdb;stroke:#000000;stroke-width:0.1;" x="1112.15615709" xlink:href="#me8815340fa" y="331.493138028"/>
     <use style="fill:#57afdb;stroke:#000000;stroke-width:0.1;" x="1184.15615709" xlink:href="#me8815340fa" y="305.466989302"/>
    </g>
   </g>
   <g id="line2d_65">
    <path d="M 464.156157 492.345731 
L 536.156157 492.247017 
L 608.156157 477.613324 
L 680.156157 457.662322 
L 752.156157 434.905944 
L 824.156157 410.339177 
L 896.156157 384.453728 
L 968.156157 357.53184 
L 1040.156157 329.753875 
L 1112.156157 301.244582 
L 1184.156157 272.095513 
" style="fill:none;stroke:#5767db;stroke-dasharray:6.000000,6.000000;stroke-dashoffset:0.0;stroke-width:4.0;"/>
   </g>
   <g id="line2d_66">
    <defs>
     <path d="M 0 10 
C 2.652031 10 5.195799 8.946337 7.071068 7.071068 
C 8.946337 5.195799 10 2.652031 10 0 
C 10 -2.652031 8.946337 -5.195799 7.071068 -7.071068 
C 5.195799 -8.946337 2.652031 -10 0 -10 
C -2.652031 -10 -5.195799 -8.946337 -7.071068 -7.071068 
C -8.946337 -5.195799 -10 -2.652031 -10 0 
C -10 2.652031 -8.946337 5.195799 -7.071068 7.071068 
C -5.195799 8.946337 -2.652031 10 0 10 
z
" id="m5ad3dbd715" style="stroke:#000000;stroke-width:0.1;"/>
    </defs>
    <g>
     <use style="fill:#5767db;stroke:#000000;stroke-width:0.1;" x="392.156157087" xlink:href="#m5ad3dbd715" y="558.129888405"/>
     <use style="fill:#5767db;stroke:#000000;stroke-width:0.1;" x="464.156157087" xlink:href="#m5ad3dbd715" y="538.580672071"/>
     <use style="fill:#5767db;stroke:#000000;stroke-width:0.1;" x="536.156157087" xlink:href="#m5ad3dbd715" y="516.024927646"/>
     <use style="fill:#5767db;stroke:#000000;stroke-width:0.1;" x="608.156157087" xlink:href="#m5ad3dbd715" y="492.727557866"/>
     <use style="fill:#5767db;stroke:#000000;stroke-width:0.1;" x="680.156157087" xlink:href="#m5ad3dbd715" y="469.03448084"/>
     <use style="fill:#5767db;stroke:#000000;stroke-width:0.1;" x="752.156157087" xlink:href="#m5ad3dbd715" y="443.704165802"/>
     <use style="fill:#5767db;stroke:#000000;stroke-width:0.1;" x="824.156157087" xlink:href="#m5ad3dbd715" y="416.955462489"/>
     <use style="fill:#5767db;stroke:#000000;stroke-width:0.1;" x="896.156157087" xlink:href="#m5ad3dbd715" y="390.089657576"/>
     <use style="fill:#5767db;stroke:#000000;stroke-width:0.1;" x="968.156157087" xlink:href="#m5ad3dbd715" y="361.517831764"/>
     <use style="fill:#5767db;stroke:#000000;stroke-width:0.1;" x="1040.15615709" xlink:href="#m5ad3dbd715" y="332.397999755"/>
     <use style="fill:#5767db;stroke:#000000;stroke-width:0.1;" x="1112.15615709" xlink:href="#m5ad3dbd715" y="304.630659572"/>
     <use style="fill:#5767db;stroke:#000000;stroke-width:0.1;" x="1184.15615709" xlink:href="#m5ad3dbd715" y="275.6090256"/>
    </g>
   </g>
   <g id="line2d_67">
    <path d="M 392.156157 562.266473 
M 536.156157 462.695488 
L 608.156157 457.333974 
L 680.156157 439.996238 
L 752.156157 417.434395 
L 824.156157 391.90224 
L 896.156157 364.38877 
L 968.156157 335.411259 
L 1040.156157 305.276082 
L 1112.156157 274.182273 
L 1184.156157 242.268564 
" style="fill:none;stroke:#8f57db;stroke-dasharray:6.000000,6.000000;stroke-dashoffset:0.0;stroke-width:4.0;"/>
   </g>
   <g id="line2d_68">
    <defs>
     <path d="M 0 10 
C 2.652031 10 5.195799 8.946337 7.071068 7.071068 
C 8.946337 5.195799 10 2.652031 10 0 
C 10 -2.652031 8.946337 -5.195799 7.071068 -7.071068 
C 5.195799 -8.946337 2.652031 -10 0 -10 
C -2.652031 -10 -5.195799 -8.946337 -7.071068 -7.071068 
C -8.946337 -5.195799 -10 -2.652031 -10 0 
C -10 2.652031 -8.946337 5.195799 -7.071068 7.071068 
C -5.195799 8.946337 -2.652031 10 0 10 
z
" id="m5196efb0d0" style="stroke:#000000;stroke-width:0.1;"/>
    </defs>
    <g>
     <use style="fill:#8f57db;stroke:#000000;stroke-width:0.1;" x="392.156157087" xlink:href="#m5196efb0d0" y="557.803151922"/>
     <use style="fill:#8f57db;stroke:#000000;stroke-width:0.1;" x="464.156157087" xlink:href="#m5196efb0d0" y="536.729581943"/>
     <use style="fill:#8f57db;stroke:#000000;stroke-width:0.1;" x="536.156157087" xlink:href="#m5196efb0d0" y="512.325221859"/>
     <use style="fill:#8f57db;stroke:#000000;stroke-width:0.1;" x="608.156157087" xlink:href="#m5196efb0d0" y="487.085444681"/>
     <use style="fill:#8f57db;stroke:#000000;stroke-width:0.1;" x="680.156157087" xlink:href="#m5196efb0d0" y="460.903373673"/>
     <use style="fill:#8f57db;stroke:#000000;stroke-width:0.1;" x="752.156157087" xlink:href="#m5196efb0d0" y="433.423733854"/>
     <use style="fill:#8f57db;stroke:#000000;stroke-width:0.1;" x="824.156157087" xlink:href="#m5196efb0d0" y="404.168632343"/>
     <use style="fill:#8f57db;stroke:#000000;stroke-width:0.1;" x="896.156157087" xlink:href="#m5196efb0d0" y="374.671480278"/>
     <use style="fill:#8f57db;stroke:#000000;stroke-width:0.1;" x="968.156157087" xlink:href="#m5196efb0d0" y="343.493639828"/>
     <use style="fill:#8f57db;stroke:#000000;stroke-width:0.1;" x="1040.15615709" xlink:href="#m5196efb0d0" y="311.037037653"/>
     <use style="fill:#8f57db;stroke:#000000;stroke-width:0.1;" x="1112.15615709" xlink:href="#m5196efb0d0" y="280.592776169"/>
     <use style="fill:#8f57db;stroke:#000000;stroke-width:0.1;" x="1184.15615709" xlink:href="#m5196efb0d0" y="248.266893971"/>
    </g>
   </g>
   <g id="line2d_69">
    <path d="M 608.156157 426.800123 
L 680.156157 417.27988 
L 752.156157 397.278207 
L 824.156157 372.114106 
L 896.156157 343.838004 
L 968.156157 313.425578 
L 1040.156157 281.412509 
L 1112.156157 248.125453 
L 1184.156157 213.780244 
" style="fill:none;stroke:#d757db;stroke-dasharray:6.000000,6.000000;stroke-dashoffset:0.0;stroke-width:4.0;"/>
   </g>
   <g id="line2d_70">
    <defs>
     <path d="M 0 10 
C 2.652031 10 5.195799 8.946337 7.071068 7.071068 
C 8.946337 5.195799 10 2.652031 10 0 
C 10 -2.652031 8.946337 -5.195799 7.071068 -7.071068 
C 5.195799 -8.946337 2.652031 -10 0 -10 
C -2.652031 -10 -5.195799 -8.946337 -7.071068 -7.071068 
C -8.946337 -5.195799 -10 -2.652031 -10 0 
C -10 2.652031 -8.946337 5.195799 -7.071068 7.071068 
C -5.195799 8.946337 -2.652031 10 0 10 
z
" id="m2e310f34d9" style="stroke:#000000;stroke-width:0.1;"/>
    </defs>
    <g>
     <use style="fill:#d757db;stroke:#000000;stroke-width:0.1;" x="464.156157087" xlink:href="#m2e310f34d9" y="535.735308352"/>
     <use style="fill:#d757db;stroke:#000000;stroke-width:0.1;" x="536.156157087" xlink:href="#m2e310f34d9" y="509.617739633"/>
     <use style="fill:#d757db;stroke:#000000;stroke-width:0.1;" x="608.156157087" xlink:href="#m2e310f34d9" y="482.550548293"/>
     <use style="fill:#d757db;stroke:#000000;stroke-width:0.1;" x="680.156157087" xlink:href="#m2e310f34d9" y="454.14049406"/>
     <use style="fill:#d757db;stroke:#000000;stroke-width:0.1;" x="752.156157087" xlink:href="#m2e310f34d9" y="424.752137601"/>
     <use style="fill:#d757db;stroke:#000000;stroke-width:0.1;" x="824.156157087" xlink:href="#m2e310f34d9" y="393.105081714"/>
     <use style="fill:#d757db;stroke:#000000;stroke-width:0.1;" x="896.156157087" xlink:href="#m2e310f34d9" y="361.028517688"/>
     <use style="fill:#d757db;stroke:#000000;stroke-width:0.1;" x="968.156157087" xlink:href="#m2e310f34d9" y="327.287161043"/>
     <use style="fill:#d757db;stroke:#000000;stroke-width:0.1;" x="1040.15615709" xlink:href="#m2e310f34d9" y="292.324492495"/>
     <use style="fill:#d757db;stroke:#000000;stroke-width:0.1;" x="1112.15615709" xlink:href="#m2e310f34d9" y="258.74111601"/>
     <use style="fill:#d757db;stroke:#000000;stroke-width:0.1;" x="1184.15615709" xlink:href="#m2e310f34d9" y="223.926296112"/>
    </g>
   </g>
   <g id="line2d_71">
    <path d="M 464.156157 540.506473 
M 680.156157 385.235746 
L 752.156157 372.099796 
L 824.156157 349.459231 
L 896.156157 321.699298 
L 968.156157 290.704409 
L 1040.156157 257.432343 
L 1112.156157 222.431457 
L 1184.156157 186.045202 
" style="fill:none;stroke:#db5797;stroke-dasharray:6.000000,6.000000;stroke-dashoffset:0.0;stroke-width:4.0;"/>
   </g>
   <g id="line2d_72">
    <defs>
     <path d="M 0 -10 
L -10 10 
L 10 10 
z
" id="m1d2d16e116" style="stroke:#000000;stroke-linejoin:miter;stroke-width:0.1;"/>
    </defs>
    <g>
     <use style="fill:#db5797;stroke:#000000;stroke-linejoin:miter;stroke-width:0.1;" x="464.156157087" xlink:href="#m1d2d16e116" y="535.418473248"/>
     <use style="fill:#db5797;stroke:#000000;stroke-linejoin:miter;stroke-width:0.1;" x="536.156157087" xlink:href="#m1d2d16e116" y="507.844870822"/>
     <use style="fill:#db5797;stroke:#000000;stroke-linejoin:miter;stroke-width:0.1;" x="608.156157087" xlink:href="#m1d2d16e116" y="478.972127465"/>
     <use style="fill:#db5797;stroke:#000000;stroke-linejoin:miter;stroke-width:0.1;" x="680.156157087" xlink:href="#m1d2d16e116" y="448.721387001"/>
     <use style="fill:#db5797;stroke:#000000;stroke-linejoin:miter;stroke-width:0.1;" x="752.156157087" xlink:href="#m1d2d16e116" y="417.381033487"/>
     <use style="fill:#db5797;stroke:#000000;stroke-linejoin:miter;stroke-width:0.1;" x="824.156157087" xlink:href="#m1d2d16e116" y="383.663293587"/>
     <use style="fill:#db5797;stroke:#000000;stroke-linejoin:miter;stroke-width:0.1;" x="896.156157087" xlink:href="#m1d2d16e116" y="348.865834873"/>
     <use style="fill:#db5797;stroke:#000000;stroke-linejoin:miter;stroke-width:0.1;" x="968.156157087" xlink:href="#m1d2d16e116" y="312.965207505"/>
     <use style="fill:#db5797;stroke:#000000;stroke-linejoin:miter;stroke-width:0.1;" x="1040.15615709" xlink:href="#m1d2d16e116" y="275.285002946"/>
     <use style="fill:#db5797;stroke:#000000;stroke-linejoin:miter;stroke-width:0.1;" x="1112.15615709" xlink:href="#m1d2d16e116" y="238.862230791"/>
     <use style="fill:#db5797;stroke:#000000;stroke-linejoin:miter;stroke-width:0.1;" x="1184.15615709" xlink:href="#m1d2d16e116" y="201.680398465"/>
    </g>
   </g>
   <g id="line2d_73"/>
   <g id="patch_3">
    <path d="M 104.156157 22.106473 
L 1184.156157 22.106473 
" style="fill:none;"/>
   </g>
   <g id="patch_4">
    <path d="M 1184.156157 598.106473 
L 1184.156157 22.106473 
" style="fill:none;"/>
   </g>
   <g id="patch_5">
    <path d="M 104.156157 598.106473 
L 1184.156157 598.106473 
" style="fill:none;"/>
   </g>
   <g id="patch_6">
    <path d="M 104.156157 598.106473 
L 104.156157 22.106473 
" style="fill:none;"/>
   </g>
   <g id="legend_1">
    <g id="patch_7">
     <path d="M 128.656157 265.510807 
L 741.368938 265.510807 
Q 748.368938 265.510807 748.368938 258.510807 
L 748.368938 46.606473 
Q 748.368938 39.606473 741.368938 39.606473 
L 128.656157 39.606473 
Q 121.656157 39.606473 121.656157 46.606473 
L 121.656157 258.510807 
Q 121.656157 265.510807 128.656157 265.510807 
z
" style="fill:#eaeaf2;stroke:#ffffff;stroke-linejoin:miter;stroke-width:0.24;"/>
    </g>
    <g id="line2d_74">
     <path d="M 135.656157 66.305303 
L 205.656157 66.305303 
" style="fill:none;stroke:#000000;stroke-linecap:round;stroke-width:6.0;"/>
    </g>
    <g id="line2d_75"/>
    <g id="text_20">
     <!-- Wilks Theorem -->
     <defs>
      <path d="M 0.703125 66.375 
L 6.296875 66.375 
C 8.09375 66.375 8.796875 65.265625 8.796875 62.25 
L 8.796875 10.046875 
C 8.796875 3.703125 8.5 3 5.09375 3 
L 0.59375 3 
L 0.59375 -0.109375 
C 7.40625 -0.109375 10.09375 -0.109375 13 -0.109375 
C 15.90625 -0.109375 18.59375 -0.109375 25.40625 -0.109375 
L 25.40625 3 
L 20.90625 3 
C 17.5 3 17.203125 3.703125 17.203125 10.046875 
L 17.203125 31.421875 
C 17.203125 35.9375 23.796875 40.875 29.90625 40.875 
C 36.59375 40.875 41 35.890625 41 28.21875 
L 41 -0.109375 
C 47.09375 -0.109375 47.203125 -0.109375 48.90625 -0.109375 
C 50.296875 -0.109375 50.296875 -0.109375 57.203125 -0.109375 
L 57.203125 2.796875 
L 53.09375 3.203125 
C 49.703125 3.203125 49.40625 3.8125 49.40625 10.21875 
L 49.40625 29.5625 
C 49.40625 41.28125 43.90625 47 32.703125 47 
C 29 47 26.90625 46.296875 24.796875 44.484375 
L 17.203125 37.875 
L 17.203125 72.078125 
L 16.296875 72.890625 
C 11.90625 71.1875 8.59375 70.375 0.703125 69.171875 
z
" id="URW_Palladio_L_Roman-104"/>
      <path d="M 73.40625 -1 
C 73.796875 0.5 74.09375 1.90625 74.203125 2.40625 
C 74.5 3.40625 75.296875 6.421875 76.09375 9.125 
L 91.40625 63 
C 92 64.796875 93 65.703125 95.203125 65.90625 
L 98.40625 66.203125 
L 98.40625 69 
L 87.90625 69 
C 86.90625 69 86.90625 69 77.40625 69 
L 77.40625 66.203125 
L 81.40625 65.90625 
C 84.90625 65.609375 86 65.109375 86.09375 63.484375 
C 86.09375 63.1875 86.09375 62.890625 86 62.578125 
L 72.796875 13.625 
L 56.40625 59.78125 
C 54.203125 65.796875 53.90625 66.59375 53.09375 70 
L 49.90625 70 
C 47.796875 63.78125 46.09375 59.296875 40.90625 45.859375 
L 28.5 14.328125 
L 18.5 59.296875 
C 18.203125 60.5 18.09375 61.59375 18.09375 62.59375 
C 18.09375 64.796875 19.09375 65.703125 21.796875 65.90625 
L 26 66.203125 
L 26 69 
L 13.40625 69 
C 12.703125 69 8.5 69 0.796875 69 
L 0.796875 66.203125 
L 3.59375 65.90625 
C 6.5 65.609375 7.703125 64.5 8.59375 60.890625 
L 20.5 9.328125 
C 21.796875 3.609375 21.796875 3.515625 22.796875 -1 
L 27.796875 -1 
C 28.703125 2.203125 29.5 4.609375 31.40625 9.328125 
L 48.796875 53.578125 
L 61.296875 19.625 
C 64.59375 10.734375 64.90625 9.921875 68.40625 -1 
z
" id="URW_Palladio_L_Roman-87"/>
      <path d="M 25.5 64.28125 
C 25.796875 60.875 25.90625 58.578125 25.90625 54.265625 
L 25.90625 11.921875 
C 25.90625 4 25.40625 3.203125 20.796875 3.203125 
L 16 3.203125 
L 16 0 
C 21.90625 0 25.40625 0 30.59375 0 
C 35.796875 0 39.40625 0 45.296875 0 
L 45.296875 3.203125 
L 40.5 3.203125 
C 35.90625 3.203125 35.40625 4 35.40625 11.921875 
L 35.40625 54.265625 
C 35.40625 58.78125 35.5 60.984375 35.796875 64.28125 
L 51.296875 64.28125 
C 54.09375 64.28125 55.203125 63.390625 55.296875 61 
L 55.703125 53.125 
L 58.796875 53.125 
C 58.796875 59.53125 59 63.375 59.5 69 
C 52.296875 69 49 69 46.203125 69 
C 42.296875 69 39.40625 69 37.90625 69 
L 22.09375 69 
C 21.09375 69 15.703125 69 8.59375 69 
L 1.796875 69 
C 2.296875 63.375 2.5 59.53125 2.5 53.125 
L 5.59375 53.125 
L 6 61 
C 6.09375 63.390625 7.203125 64.28125 10 64.28125 
z
" id="URW_Palladio_L_Roman-84"/>
      <path d="M 2.296875 66.5 
L 7.90625 66.5 
C 9.703125 66.5 10.40625 65.390625 10.40625 62.375 
L 10.40625 10.171875 
C 10.40625 3.8125 10.09375 3.109375 6.703125 3.109375 
L 2.09375 3.109375 
L 2.09375 0 
C 12.09375 0 12.09375 0 14.703125 0 
C 17.5 0 18 0 26.90625 0 
L 26.90625 3.109375 
L 22.5 3.109375 
C 19.09375 3.109375 18.796875 3.8125 18.796875 10.1875 
L 18.796875 24.15625 
L 45.296875 -1 
L 54.90625 1.90625 
L 54.90625 4.21875 
C 52.5 4.21875 49.59375 5.921875 46.40625 9 
L 33.796875 21.46875 
C 30.203125 24.953125 29.09375 26.265625 27.40625 28.25 
L 40.296875 38.265625 
C 45 41.828125 47.703125 43 51.09375 43 
L 51.09375 46 
L 41.09375 46 
C 34.703125 39.625 30 35.234375 26.09375 32.140625 
L 18.796875 26.25 
L 18.796875 72.203125 
L 17.90625 73.015625 
C 13.5 71.3125 10.203125 70.5 2.296875 69.296875 
z
" id="URW_Palladio_L_Roman-107"/>
     </defs>
     <g style="fill:#262626;" transform="translate(233.656157087 78.5553033546)scale(0.35 -0.35)">
      <use transform="scale(0.996264009963)" xlink:href="#URW_Palladio_L_Roman-87"/>
      <use transform="translate(94.147678627 0.0)scale(0.996264009963)" xlink:href="#URW_Palladio_L_Roman-105"/>
      <use transform="translate(123.138040089 0.0)scale(0.996264009963)" xlink:href="#URW_Palladio_L_Roman-108"/>
      <use transform="translate(152.128401551 0.0)scale(0.996264009963)" xlink:href="#URW_Palladio_L_Roman-107"/>
      <use transform="translate(207.520078514 0.0)scale(0.996264009963)" xlink:href="#URW_Palladio_L_Roman-115"/>
      <use transform="translate(274.668145091 0.0)scale(0.996264009963)" xlink:href="#URW_Palladio_L_Roman-84"/>
      <use transform="translate(335.737976606 0.0)scale(0.996264009963)" xlink:href="#URW_Palladio_L_Roman-104"/>
      <use transform="translate(393.720037287 0.0)scale(0.996264009963)" xlink:href="#URW_Palladio_L_Roman-101"/>
      <use transform="translate(441.440332396 0.0)scale(0.996264009963)" xlink:href="#URW_Palladio_L_Roman-111"/>
      <use transform="translate(495.835912569 0.0)scale(0.996264009963)" xlink:href="#URW_Palladio_L_Roman-114"/>
      <use transform="translate(533.395229924 0.0)scale(0.996264009963)" xlink:href="#URW_Palladio_L_Roman-101"/>
      <use transform="translate(581.115525033 0.0)scale(0.996264009963)" xlink:href="#URW_Palladio_L_Roman-109"/>
     </g>
    </g>
    <g id="line2d_76"/>
    <g id="line2d_77">
     <g>
      <use style="fill:#db5797;stroke:#000000;stroke-linejoin:miter;stroke-width:0.1;" x="170.656157087" xlink:href="#m1d2d16e116" y="120.679491579"/>
     </g>
    </g>
    <g id="text_21">
     <!-- $\mathrm{Rank}(\rho_{0})=$10 -->
     <defs>
      <path d="M 21.59375 64.796875 
C 25 65.59375 28 66 31.40625 66 
C 41.796875 66 47.59375 61.171875 47.59375 52.609375 
C 47.59375 43.359375 40.296875 37.515625 28.703125 37.515625 
C 28 37.515625 27.09375 37.515625 25.796875 37.609375 
L 25.203125 36.40625 
C 26.296875 35.09375 26.59375 34.703125 27.796875 33.390625 
C 29.203125 31.796875 29.5 31.390625 30.40625 30.1875 
L 48.796875 5.40625 
C 49.40625 4.609375 50 3.796875 50.59375 3.109375 
C 51.296875 2.203125 51.90625 1.296875 52.90625 0 
C 57.59375 0 58.59375 0 59.703125 0 
C 60.59375 0 60.59375 0 66.90625 0 
L 66.90625 2.90625 
C 63.703125 3.203125 62.09375 3.8125 60.796875 5.53125 
L 38.09375 35.296875 
C 43.703125 36.703125 46.296875 37.796875 49.59375 40.09375 
C 54.796875 43.796875 57.59375 48.796875 57.59375 54.609375 
C 57.59375 64.203125 50.59375 69.609375 38.203125 69.609375 
L 36.59375 69.609375 
C 23.59375 69.609375 23.59375 69.609375 20.203125 69.609375 
C 16.90625 69.609375 16.90625 69.609375 2.90625 69.609375 
L 2.90625 66.796875 
L 7 66.296875 
C 11.59375 66.296875 12.09375 65.375 12.09375 57.484375 
L 12.09375 12.015625 
C 12.09375 4.015625 11.59375 3.203125 7 3.203125 
L 2.203125 3.203125 
L 2.203125 0 
C 8.09375 0 11.59375 0 16.796875 0 
C 22 0 25.59375 0 31.5 0 
L 31.5 3.203125 
L 26.703125 3.203125 
C 22.09375 3.203125 21.59375 4 21.59375 12 
z
" id="URW_Palladio_L_Roman-82"/>
      <path d="M 9.5 4.734375 
C 11.59375 0.90625 15.203125 -1 20.203125 -1 
C 25.5 -1 31.40625 1.53125 35.796875 5.671875 
C 42.203125 11.640625 46.703125 23.15625 46.703125 33.5625 
C 46.703125 43.0625 41.703125 48.828125 33.5 48.828125 
C 29.203125 48.828125 24.90625 47.3125 20.5 44.28125 
C 17.09375 41.96875 14.296875 38.9375 12.203125 35.296875 
C 10.703125 33.09375 9.5 30.5625 8.5 28.15625 
C 6 22.203125 4.59375 16.046875 3.5 9.90625 
C 1.703125 -0.6875 0.5 -16.3125 -0.703125 -26.796875 
L 0.796875 -27.609375 
C 3.296875 -26.796875 5.203125 -26.296875 8 -25.890625 
C 7.796875 -22.984375 7.703125 -19.171875 7.703125 -15.15625 
C 7.703125 -8.125 8 -0.5 8.703125 4.625 
z
M 29.59375 45 
C 35.90625 45 39.09375 40.5625 39.09375 32.0625 
C 39.09375 22.234375 36 11.515625 31.59375 6.171875 
C 29.796875 4.046875 27.203125 2.828125 24.203125 2.828125 
C 18.203125 2.828125 14.90625 7.375 14.90625 15.359375 
C 14.90625 26.796875 18.796875 39.234375 23.703125 43.28125 
C 25 44.40625 27.203125 45 29.59375 45 
" id="Pazo_Math_Italic-114"/>
      <path d="M 68.703125 32 
C 70.203125 32 72.09375 32 72.09375 34.015625 
C 72.09375 36.015625 70.203125 36.015625 68.796875 36.015625 
L 8.90625 36.015625 
C 7.5 36.015625 5.59375 36.015625 5.59375 34.015625 
C 5.59375 32 7.5 32 9 32 
z
M 68.796875 13 
C 70.203125 13 72.09375 13 72.09375 15.015625 
C 72.09375 17.015625 70.203125 17.015625 68.703125 17.015625 
L 9 17.015625 
C 7.5 17.015625 5.59375 17.015625 5.59375 15.015625 
C 5.59375 13 7.5 13 8.90625 13 
z
" id="CMR10-61"/>
     </defs>
     <g style="fill:#262626;" transform="translate(233.656157087 132.929491579)scale(0.35 -0.35)">
      <use transform="translate(0.0 17.4414305729)scale(0.996264009963)" xlink:href="#URW_Palladio_L_Roman-82"/>
      <use transform="translate(66.5496940185 17.4414305729)scale(0.996264009963)" xlink:href="#URW_Palladio_L_Roman-97"/>
      <use transform="translate(116.362894517 17.4414305729)scale(0.996264009963)" xlink:href="#URW_Palladio_L_Roman-110"/>
      <use transform="translate(174.344955197 17.4414305729)scale(0.996264009963)" xlink:href="#URW_Palladio_L_Roman-107"/>
      <use transform="translate(230.98193177 17.4414305729)scale(1.03810691596)" xlink:href="#CMR10-40"/>
      <use transform="translate(273.721636514 17.4414305729)scale(0.996264009963)" xlink:href="#Pazo_Math_Italic-114"/>
      <use transform="translate(324.780151823 0.0)scale(0.75715517493)" xlink:href="#URW_Palladio_L_Roman-48"/>
      <use transform="translate(364.381342184 17.4414305729)scale(1.03810691596)" xlink:href="#CMR10-41"/>
      <use transform="translate(434.794979642 17.4414305729)scale(1.03810691596)" xlink:href="#CMR10-61"/>
      <use transform="translate(516.736675942 17.4414305729)scale(0.996264009963)" xlink:href="#URW_Palladio_L_Roman-49"/>
      <use transform="translate(566.54987644 17.4414305729)scale(0.996264009963)" xlink:href="#URW_Palladio_L_Roman-48"/>
     </g>
    </g>
    <g id="line2d_78"/>
    <g id="line2d_79">
     <defs>
      <path d="M 0 7.5 
C 1.989023 7.5 3.896849 6.709753 5.303301 5.303301 
C 6.709753 3.896849 7.5 1.989023 7.5 0 
C 7.5 -1.989023 6.709753 -3.896849 5.303301 -5.303301 
C 3.896849 -6.709753 1.989023 -7.5 0 -7.5 
C -1.989023 -7.5 -3.896849 -6.709753 -5.303301 -5.303301 
C -6.709753 -3.896849 -7.5 -1.989023 -7.5 0 
C -7.5 1.989023 -6.709753 3.896849 -5.303301 5.303301 
C -3.896849 6.709753 -1.989023 7.5 0 7.5 
z
" id="m733f8d964c" style="stroke:#000000;stroke-width:0.1;"/>
     </defs>
     <g>
      <use style="stroke:#000000;stroke-width:0.1;" x="170.656157087" xlink:href="#m733f8d964c" y="175.053679804"/>
     </g>
    </g>
    <g id="text_22">
     <!-- (various colors) $\mathrm{Rank}(\rho_{0}) = 2...9$ -->
     <defs>
      <path d="M 12.40625 11.625 
C 9.40625 11.625 6.703125 8.8125 6.703125 5.8125 
C 6.703125 2.796875 9.40625 0 12.296875 0 
C 15.5 0 18.296875 2.703125 18.296875 5.8125 
C 18.296875 8.8125 15.5 11.625 12.40625 11.625 
" id="URW_Palladio_L_Roman-46"/>
      <path d="M 53.90625 43 
L 53.90625 45.8125 
C 47.90625 45.8125 46.09375 45.8125 44.5 45.8125 
C 42.90625 45.8125 41.09375 45.8125 35.09375 45.8125 
L 35.09375 43 
L 39.203125 43 
C 40.796875 43 41.59375 42.09375 41.59375 40.484375 
C 41.59375 38.890625 40.90625 36.203125 39.703125 33.1875 
L 35.5 22.578125 
C 34.296875 19.671875 33.09375 16.875 29.296875 8.578125 
L 17.40625 37.390625 
C 16.796875 38.78125 16.5 40.09375 16.5 41.1875 
C 16.5 42.296875 17.40625 43 19 43 
L 23.90625 43 
L 23.90625 45.8125 
C 14.09375 45.8125 14.09375 45.8125 12.203125 45.8125 
C 10.296875 45.8125 5.5 45.8125 0.59375 45.8125 
L 0.59375 43 
L 4 43 
C 5.5 42.796875 6 42.203125 7.09375 39.703125 
L 24.296875 -0.5 
L 29.296875 -0.5 
C 29.90625 1.203125 30.90625 3.796875 30.90625 4 
C 32 6.984375 33.296875 10.375 33.40625 10.375 
L 45.203125 36.3125 
C 47.40625 41.015625 48.796875 42.796875 50.796875 43 
z
" id="URW_Palladio_L_Roman-118"/>
      <path d="M 50.296875 47.015625 
L 49.40625 47.421875 
C 44.296875 45.3125 39.09375 43.90625 33.796875 43.3125 
L 33.796875 40.5 
L 37.5 40.5 
C 41.5 40.5 41.90625 39.796875 41.90625 33.140625 
L 41.90625 16.71875 
C 41.90625 14.5 40.5 11.671875 38.203125 9.359375 
C 35.40625 6.53125 32.203125 5.109375 28.296875 5.109375 
C 24.796875 5.109375 22 6.21875 20.40625 8.140625 
C 19 9.75 18.296875 12.875 18.296875 17.296875 
L 18.296875 47.015625 
L 17.40625 47.421875 
C 12.296875 45.3125 7.09375 43.90625 1.796875 43.3125 
L 1.796875 40.5 
L 5.5 40.5 
C 9.5 40.5 9.90625 39.796875 9.90625 33.15625 
L 9.90625 16.234375 
C 9.90625 9.171875 10.5 6.046875 12.296875 3.546875 
C 14.5 0.515625 18.296875 -1 24 -1 
C 28.5 -1 32.5 0.40625 35.203125 2.90625 
L 41.90625 9.140625 
C 41.90625 6.265625 41.796875 4.65625 41.5 0 
C 48.203125 0 48.296875 0 49.796875 0 
C 51.203125 0 51.203125 0 58.09375 0 
L 58.09375 2.90625 
L 54 3.3125 
C 50.59375 3.3125 50.296875 3.921875 50.296875 10.375 
z
" id="URW_Palladio_L_Roman-117"/>
     </defs>
     <g style="fill:#262626;" transform="translate(233.656157087 187.303679804)scale(0.35 -0.35)">
      <use transform="translate(0.0 17.4414305729)scale(0.996264009963)" xlink:href="#URW_Palladio_L_Roman-40"/>
      <use transform="translate(33.1752297293 17.4414305729)scale(0.996264009963)" xlink:href="#URW_Palladio_L_Roman-118"/>
      <use transform="translate(89.4631429746 17.4414305729)scale(0.996264009963)" xlink:href="#URW_Palladio_L_Roman-97"/>
      <use transform="translate(139.276343473 17.4414305729)scale(0.996264009963)" xlink:href="#URW_Palladio_L_Roman-114"/>
      <use transform="translate(178.628239804 17.4414305729)scale(0.996264009963)" xlink:href="#URW_Palladio_L_Roman-105"/>
      <use transform="translate(207.618601266 17.4414305729)scale(0.996264009963)" xlink:href="#URW_Palladio_L_Roman-111"/>
      <use transform="translate(262.014181439 17.4414305729)scale(0.996264009963)" xlink:href="#URW_Palladio_L_Roman-117"/>
      <use transform="translate(322.087916164 17.4414305729)scale(0.996264009963)" xlink:href="#URW_Palladio_L_Roman-115"/>
      <use transform="translate(389.235982741 17.4414305729)scale(0.996264009963)" xlink:href="#URW_Palladio_L_Roman-99"/>
      <use transform="translate(433.469551438 17.4414305729)scale(0.996264009963)" xlink:href="#URW_Palladio_L_Roman-111"/>
      <use transform="translate(487.865131611 17.4414305729)scale(0.996264009963)" xlink:href="#URW_Palladio_L_Roman-108"/>
      <use transform="translate(516.855493073 17.4414305729)scale(0.996264009963)" xlink:href="#URW_Palladio_L_Roman-111"/>
      <use transform="translate(571.251073246 17.4414305729)scale(0.996264009963)" xlink:href="#URW_Palladio_L_Roman-114"/>
      <use transform="translate(610.602969577 17.4414305729)scale(0.996264009963)" xlink:href="#URW_Palladio_L_Roman-115"/>
      <use transform="translate(652.844435904 17.4414305729)scale(0.996264009963)" xlink:href="#URW_Palladio_L_Roman-41"/>
      <use transform="translate(710.926265883 17.4414305729)scale(0.996264009963)" xlink:href="#URW_Palladio_L_Roman-82"/>
      <use transform="translate(777.475959901 17.4414305729)scale(0.996264009963)" xlink:href="#URW_Palladio_L_Roman-97"/>
      <use transform="translate(827.289160399 17.4414305729)scale(0.996264009963)" xlink:href="#URW_Palladio_L_Roman-110"/>
      <use transform="translate(885.27122108 17.4414305729)scale(0.996264009963)" xlink:href="#URW_Palladio_L_Roman-107"/>
      <use transform="translate(941.908197652 17.4414305729)scale(1.03810691596)" xlink:href="#CMR10-40"/>
      <use transform="translate(984.647902397 17.4414305729)scale(0.996264009963)" xlink:href="#Pazo_Math_Italic-114"/>
      <use transform="translate(1035.70641771 0.0)scale(0.75715517493)" xlink:href="#URW_Palladio_L_Roman-48"/>
      <use transform="translate(1075.30760807 17.4414305729)scale(1.03810691596)" xlink:href="#CMR10-41"/>
      <use transform="translate(1145.72124552 17.4414305729)scale(1.03810691596)" xlink:href="#CMR10-61"/>
      <use transform="translate(1255.33687454 17.4414305729)scale(0.996264009963)" xlink:href="#URW_Palladio_L_Roman-50"/>
      <use transform="translate(1305.15007504 17.4414305729)scale(0.996264009963)" xlink:href="#URW_Palladio_L_Roman-46"/>
      <use transform="translate(1330.05667529 17.4414305729)scale(0.996264009963)" xlink:href="#URW_Palladio_L_Roman-46"/>
      <use transform="translate(1354.96327553 17.4414305729)scale(0.996264009963)" xlink:href="#URW_Palladio_L_Roman-46"/>
      <use transform="translate(1379.86987578 17.4414305729)scale(0.996264009963)" xlink:href="#URW_Palladio_L_Roman-57"/>
     </g>
    </g>
    <g id="line2d_80"/>
    <g id="line2d_81">
     <g>
      <use style="fill:#dba757;stroke:#000000;stroke-linejoin:miter;stroke-width:0.1;" x="170.656157087" xlink:href="#me7b2076543" y="229.427868029"/>
     </g>
    </g>
    <g id="text_23">
     <!-- $\mathrm{Rank}(\rho_{0})=$1 -->
     <g style="fill:#262626;" transform="translate(233.656157087 241.677868029)scale(0.35 -0.35)">
      <use transform="translate(0.0 17.4414305729)scale(0.996264009963)" xlink:href="#URW_Palladio_L_Roman-82"/>
      <use transform="translate(66.5496940185 17.4414305729)scale(0.996264009963)" xlink:href="#URW_Palladio_L_Roman-97"/>
      <use transform="translate(116.362894517 17.4414305729)scale(0.996264009963)" xlink:href="#URW_Palladio_L_Roman-110"/>
      <use transform="translate(174.344955197 17.4414305729)scale(0.996264009963)" xlink:href="#URW_Palladio_L_Roman-107"/>
      <use transform="translate(230.98193177 17.4414305729)scale(1.03810691596)" xlink:href="#CMR10-40"/>
      <use transform="translate(273.721636514 17.4414305729)scale(0.996264009963)" xlink:href="#Pazo_Math_Italic-114"/>
      <use transform="translate(324.780151823 0.0)scale(0.75715517493)" xlink:href="#URW_Palladio_L_Roman-48"/>
      <use transform="translate(364.381342184 17.4414305729)scale(1.03810691596)" xlink:href="#CMR10-41"/>
      <use transform="translate(434.794979642 17.4414305729)scale(1.03810691596)" xlink:href="#CMR10-61"/>
      <use transform="translate(516.736675942 17.4414305729)scale(0.996264009963)" xlink:href="#URW_Palladio_L_Roman-49"/>
     </g>
    </g>
   </g>
  </g>
 </g>
 <defs>
  <clipPath id="p9c8461c92d">
   <rect height="576.0" width="1080.0" x="104.156157087" y="22.1064725541"/>
  </clipPath>
 </defs>
</svg>
